<?xml version="1.0" encoding="UTF-8" standalone="no"?>
<!DOCTYPE svg PUBLIC "-//W3C//DTD SVG 1.1//EN"
 "http://www.w3.org/Graphics/SVG/1.1/DTD/svg11.dtd">
<!-- Generated by graphviz version 2.38.0 (20140413.2041)
 -->
<!-- Title: amunmt::GPU::SlowLSTM::GetNextState Pages: 1 -->
<svg width="625pt" height="463pt"
 viewBox="0.00 0.00 625.00 462.50" xmlns="http://www.w3.org/2000/svg" xmlns:xlink="http://www.w3.org/1999/xlink">
<g id="graph0" class="graph" transform="scale(1 1) rotate(0) translate(4 458.501)">
<title>amunmt::GPU::SlowLSTM::GetNextState</title>
<polygon fill="white" stroke="none" points="-4,4 -4,-458.501 621,-458.501 621,4 -4,4"/>
<!-- Node1 -->
<g id="node1" class="node"><title>Node1</title>
<polygon fill="#bfbfbf" stroke="black" points="0,-220.5 0,-250.5 134,-250.5 134,-220.5 0,-220.5"/>
<text text-anchor="start" x="8" y="-238.5" font-family="Helvetica,sans-Serif" font-size="10.00">amunmt::GPU::SlowLSTM</text>
<text text-anchor="middle" x="67" y="-227.5" font-family="Helvetica,sans-Serif" font-size="10.00">::GetNextState</text>
</g>
<!-- Node2 -->
<g id="node2" class="node"><title>Node2</title>
<g id="a_node2"><a xlink:href="$da/d22/namespacemarian.html#ab9fbdcc76cc853270094524572584222" xlink:title="marian::cols">
<polygon fill="white" stroke="black" points="361,-418 361,-437 431,-437 431,-418 361,-418"/>
<text text-anchor="middle" x="396" y="-425" font-family="Helvetica,sans-Serif" font-size="10.00">marian::cols</text>
</a>
</g>
</g>
<!-- Node1&#45;&gt;Node2 -->
<g id="edge1" class="edge"><title>Node1&#45;&gt;Node2</title>
<path fill="none" stroke="midnightblue" d="M70.4479,-250.672C77.5957,-289.328 102.382,-391.367 170,-432.5 227.533,-467.499 309.584,-453.105 357.061,-439.962"/>
<polygon fill="midnightblue" stroke="midnightblue" points="358.295,-443.249 366.93,-437.109 356.351,-436.524 358.295,-443.249"/>
</g>
<!-- Node3 -->
<g id="node3" class="node"><title>Node3</title>
<g id="a_node3"><a xlink:href="$df/de1/classamunmt_1_1GPU_1_1SlowLSTM.html#aec4f004b4e6525758546bf164a5de90b" xlink:title="amunmt::GPU::SlowLSTM\l::GetStateLength">
<polygon fill="white" stroke="black" points="170,-392.5 170,-422.5 304,-422.5 304,-392.5 170,-392.5"/>
<text text-anchor="start" x="178" y="-410.5" font-family="Helvetica,sans-Serif" font-size="10.00">amunmt::GPU::SlowLSTM</text>
<text text-anchor="middle" x="237" y="-399.5" font-family="Helvetica,sans-Serif" font-size="10.00">::GetStateLength</text>
</a>
</g>
</g>
<!-- Node1&#45;&gt;Node3 -->
<g id="edge2" class="edge"><title>Node1&#45;&gt;Node3</title>
<path fill="none" stroke="midnightblue" d="M74.6223,-250.823C88.2234,-280.573 122.103,-346.475 170,-383.5 171.803,-384.893 173.694,-386.211 175.651,-387.457"/>
<polygon fill="midnightblue" stroke="midnightblue" points="174.151,-390.629 184.585,-392.471 177.577,-384.525 174.151,-390.629"/>
</g>
<!-- Node4 -->
<g id="node4" class="node"><title>Node4</title>
<g id="a_node4"><a xlink:href="$d1/d49/namespaceamunmt_1_1GPU_1_1mblas.html#a463b2de180e8ab66bae53d1f8c5bc011" xlink:title="amunmt::GPU::mblas\l::Prod">
<polygon fill="white" stroke="black" points="181,-343.5 181,-373.5 293,-373.5 293,-343.5 181,-343.5"/>
<text text-anchor="start" x="189" y="-361.5" font-family="Helvetica,sans-Serif" font-size="10.00">amunmt::GPU::mblas</text>
<text text-anchor="middle" x="237" y="-350.5" font-family="Helvetica,sans-Serif" font-size="10.00">::Prod</text>
</a>
</g>
</g>
<!-- Node1&#45;&gt;Node4 -->
<g id="edge3" class="edge"><title>Node1&#45;&gt;Node4</title>
<path fill="none" stroke="midnightblue" d="M79.9723,-250.617C97.6121,-271.992 132.565,-311.05 170,-334.5 172.603,-336.13 175.332,-337.672 178.138,-339.127"/>
<polygon fill="midnightblue" stroke="midnightblue" points="176.764,-342.349 187.299,-343.48 179.769,-336.027 176.764,-342.349"/>
</g>
<!-- Node5 -->
<g id="node5" class="node"><title>Node5</title>
<g id="a_node5"><a xlink:href="$d1/d49/namespaceamunmt_1_1GPU_1_1mblas.html#ace73de50c8241f219ad490d64513829f" xlink:title="amunmt::GPU::mblas\l::BroadcastVec">
<polygon fill="white" stroke="black" points="181,-294.5 181,-324.5 293,-324.5 293,-294.5 181,-294.5"/>
<text text-anchor="start" x="189" y="-312.5" font-family="Helvetica,sans-Serif" font-size="10.00">amunmt::GPU::mblas</text>
<text text-anchor="middle" x="237" y="-301.5" font-family="Helvetica,sans-Serif" font-size="10.00">::BroadcastVec</text>
</a>
</g>
</g>
<!-- Node1&#45;&gt;Node5 -->
<g id="edge4" class="edge"><title>Node1&#45;&gt;Node5</title>
<path fill="none" stroke="midnightblue" d="M96.6354,-250.56C116.872,-260.949 144.775,-274.768 170,-285.5 174.151,-287.266 178.481,-289.023 182.851,-290.737"/>
<polygon fill="midnightblue" stroke="midnightblue" points="181.839,-294.097 192.429,-294.405 184.343,-287.56 181.839,-294.097"/>
</g>
<!-- Node8 -->
<g id="node8" class="node"><title>Node8</title>
<g id="a_node8"><a xlink:href="$d1/d49/namespaceamunmt_1_1GPU_1_1mblas.html#adc0a1bee5e001b28e10bff88e940b284" xlink:title="amunmt::GPU::mblas\l::Element">
<polygon fill="white" stroke="black" points="181,-245.5 181,-275.5 293,-275.5 293,-245.5 181,-245.5"/>
<text text-anchor="start" x="189" y="-263.5" font-family="Helvetica,sans-Serif" font-size="10.00">amunmt::GPU::mblas</text>
<text text-anchor="middle" x="237" y="-252.5" font-family="Helvetica,sans-Serif" font-size="10.00">::Element</text>
</a>
</g>
</g>
<!-- Node1&#45;&gt;Node8 -->
<g id="edge8" class="edge"><title>Node1&#45;&gt;Node8</title>
<path fill="none" stroke="midnightblue" d="M134.398,-245.381C146.436,-247.172 158.979,-249.038 170.976,-250.824"/>
<polygon fill="midnightblue" stroke="midnightblue" points="170.497,-254.291 180.903,-252.301 171.527,-247.367 170.497,-254.291"/>
</g>
<!-- Node11 -->
<g id="node11" class="node"><title>Node11</title>
<g id="a_node11"><a xlink:href="$d3/d07/namespacethrust_1_1detail_1_1functional.html#ab1596ca6efb2753919fc577c76541fd3" xlink:title="thrust::detail::functional\l::Logit">
<polygon fill="white" stroke="black" points="177.5,-196.5 177.5,-226.5 296.5,-226.5 296.5,-196.5 177.5,-196.5"/>
<text text-anchor="start" x="185.5" y="-214.5" font-family="Helvetica,sans-Serif" font-size="10.00">thrust::detail::functional</text>
<text text-anchor="middle" x="237" y="-203.5" font-family="Helvetica,sans-Serif" font-size="10.00">::Logit</text>
</a>
</g>
</g>
<!-- Node1&#45;&gt;Node11 -->
<g id="edge12" class="edge"><title>Node1&#45;&gt;Node11</title>
<path fill="none" stroke="midnightblue" d="M134.398,-226.015C145.282,-224.46 156.579,-222.846 167.513,-221.284"/>
<polygon fill="midnightblue" stroke="midnightblue" points="168.025,-224.746 177.43,-219.867 167.035,-217.817 168.025,-224.746"/>
</g>
<!-- Node12 -->
<g id="node12" class="node"><title>Node12</title>
<g id="a_node12"><a xlink:href="$d1/d49/namespaceamunmt_1_1GPU_1_1mblas.html#aacbc57fa7bf5c1fac6abbd44a9832c8d" xlink:title="amunmt::GPU::mblas\l::Slice">
<polygon fill="white" stroke="black" points="181,-147.5 181,-177.5 293,-177.5 293,-147.5 181,-147.5"/>
<text text-anchor="start" x="189" y="-165.5" font-family="Helvetica,sans-Serif" font-size="10.00">amunmt::GPU::mblas</text>
<text text-anchor="middle" x="237" y="-154.5" font-family="Helvetica,sans-Serif" font-size="10.00">::Slice</text>
</a>
</g>
</g>
<!-- Node1&#45;&gt;Node12 -->
<g id="edge13" class="edge"><title>Node1&#45;&gt;Node12</title>
<path fill="none" stroke="midnightblue" d="M98.5174,-220.378C118.64,-210.597 145.675,-197.812 170,-187.5 174.812,-185.46 179.853,-183.406 184.913,-181.399"/>
<polygon fill="midnightblue" stroke="midnightblue" points="186.568,-184.51 194.611,-177.613 184.023,-177.989 186.568,-184.51"/>
</g>
<!-- Node13 -->
<g id="node13" class="node"><title>Node13</title>
<g id="a_node13"><a xlink:href="$d3/d07/namespacethrust_1_1detail_1_1functional.html#a565a36ed831a74fec50b00c921f669ba" xlink:title="thrust::detail::functional\l::Tanh">
<polygon fill="white" stroke="black" points="177.5,-98.5 177.5,-128.5 296.5,-128.5 296.5,-98.5 177.5,-98.5"/>
<text text-anchor="start" x="185.5" y="-116.5" font-family="Helvetica,sans-Serif" font-size="10.00">thrust::detail::functional</text>
<text text-anchor="middle" x="237" y="-105.5" font-family="Helvetica,sans-Serif" font-size="10.00">::Tanh</text>
</a>
</g>
</g>
<!-- Node1&#45;&gt;Node13 -->
<g id="edge14" class="edge"><title>Node1&#45;&gt;Node13</title>
<path fill="none" stroke="midnightblue" d="M80.3807,-220.42C98.2458,-199.502 133.173,-161.649 170,-138.5 173.141,-136.525 176.463,-134.668 179.878,-132.928"/>
<polygon fill="midnightblue" stroke="midnightblue" points="181.522,-136.023 189.078,-128.596 178.54,-129.69 181.522,-136.023"/>
</g>
<!-- Node14 -->
<g id="node14" class="node"><title>Node14</title>
<g id="a_node14"><a xlink:href="$d1/d49/namespaceamunmt_1_1GPU_1_1mblas.html#a6359878c47a6c3703d7d8b6e9db1d87e" xlink:title="amunmt::GPU::mblas\l::Copy">
<polygon fill="white" stroke="black" points="181,-49.5 181,-79.5 293,-79.5 293,-49.5 181,-49.5"/>
<text text-anchor="start" x="189" y="-67.5" font-family="Helvetica,sans-Serif" font-size="10.00">amunmt::GPU::mblas</text>
<text text-anchor="middle" x="237" y="-56.5" font-family="Helvetica,sans-Serif" font-size="10.00">::Copy</text>
</a>
</g>
</g>
<!-- Node1&#45;&gt;Node14 -->
<g id="edge15" class="edge"><title>Node1&#45;&gt;Node14</title>
<path fill="none" stroke="midnightblue" d="M74.7218,-220.442C88.4973,-191.195 122.669,-126.351 170,-89.5 172.311,-87.7005 174.766,-86.0191 177.318,-84.4494"/>
<polygon fill="midnightblue" stroke="midnightblue" points="179.208,-87.405 186.3,-79.5336 175.848,-81.2645 179.208,-87.405"/>
</g>
<!-- Node15 -->
<g id="node15" class="node"><title>Node15</title>
<g id="a_node15"><a xlink:href="$d1/d49/namespaceamunmt_1_1GPU_1_1mblas.html#a88b723882ca7b614a20e6e9edb5c214b" xlink:title="amunmt::GPU::mblas\l::Swap">
<polygon fill="white" stroke="black" points="181,-0.5 181,-30.5 293,-30.5 293,-0.5 181,-0.5"/>
<text text-anchor="start" x="189" y="-18.5" font-family="Helvetica,sans-Serif" font-size="10.00">amunmt::GPU::mblas</text>
<text text-anchor="middle" x="237" y="-7.5" font-family="Helvetica,sans-Serif" font-size="10.00">::Swap</text>
</a>
</g>
</g>
<!-- Node1&#45;&gt;Node15 -->
<g id="edge16" class="edge"><title>Node1&#45;&gt;Node15</title>
<path fill="none" stroke="midnightblue" d="M71.7768,-220.377C81.6189,-184.002 111.45,-90.8386 170,-39.5 171.478,-38.2038 173.032,-36.9757 174.646,-35.8123"/>
<polygon fill="midnightblue" stroke="midnightblue" points="176.509,-38.7752 183.148,-30.5177 172.809,-32.8333 176.509,-38.7752"/>
</g>
<!-- Node5&#45;&gt;Node2 -->
<g id="edge5" class="edge"><title>Node5&#45;&gt;Node2</title>
<path fill="none" stroke="midnightblue" d="M285.392,-324.558C291.869,-327.436 298.257,-330.744 304,-334.5 336.092,-355.488 365.636,-389.533 381.9,-410.091"/>
<polygon fill="midnightblue" stroke="midnightblue" points="379.135,-412.237 388.026,-417.998 384.669,-407.95 379.135,-412.237"/>
</g>
<!-- Node6 -->
<g id="node6" class="node"><title>Node6</title>
<g id="a_node6"><a xlink:href="$da/ddf/classamunmt_1_1GPU_1_1mblas_1_1TMatrix.html#a642b2578400a4e9d395212f888ff9b1a" xlink:title="amunmt::GPU::mblas\l::TMatrix::dim">
<polygon fill="white" stroke="black" points="340,-322.5 340,-352.5 452,-352.5 452,-322.5 340,-322.5"/>
<text text-anchor="start" x="348" y="-340.5" font-family="Helvetica,sans-Serif" font-size="10.00">amunmt::GPU::mblas</text>
<text text-anchor="middle" x="396" y="-329.5" font-family="Helvetica,sans-Serif" font-size="10.00">::TMatrix::dim</text>
</a>
</g>
</g>
<!-- Node5&#45;&gt;Node6 -->
<g id="edge6" class="edge"><title>Node5&#45;&gt;Node6</title>
<path fill="none" stroke="midnightblue" d="M293.352,-319.372C305.146,-321.475 317.706,-323.715 329.829,-325.877"/>
<polygon fill="midnightblue" stroke="midnightblue" points="329.424,-329.36 339.883,-327.67 330.653,-322.469 329.424,-329.36"/>
</g>
<!-- Node7 -->
<g id="node7" class="node"><title>Node7</title>
<g id="a_node7"><a xlink:href="$dc/d89/classamunmt_1_1GPU_1_1mblas_1_1CudaStreamHandler.html#aab9046cda40ac3fed5676d5aa680e6c8" xlink:title="amunmt::GPU::mblas\l::CudaStreamHandler\l::GetStream">
<polygon fill="white" stroke="black" points="340,-263 340,-304 452,-304 452,-263 340,-263"/>
<text text-anchor="start" x="348" y="-292" font-family="Helvetica,sans-Serif" font-size="10.00">amunmt::GPU::mblas</text>
<text text-anchor="start" x="348" y="-281" font-family="Helvetica,sans-Serif" font-size="10.00">::CudaStreamHandler</text>
<text text-anchor="middle" x="396" y="-270" font-family="Helvetica,sans-Serif" font-size="10.00">::GetStream</text>
</a>
</g>
</g>
<!-- Node5&#45;&gt;Node7 -->
<g id="edge7" class="edge"><title>Node5&#45;&gt;Node7</title>
<path fill="none" stroke="midnightblue" d="M293.352,-300.333C305.146,-298.38 317.706,-296.3 329.829,-294.293"/>
<polygon fill="midnightblue" stroke="midnightblue" points="330.589,-297.714 339.883,-292.628 329.446,-290.809 330.589,-297.714"/>
</g>
<!-- Node8&#45;&gt;Node7 -->
<g id="edge11" class="edge"><title>Node8&#45;&gt;Node7</title>
<path fill="none" stroke="midnightblue" d="M293.352,-268.609C305.146,-270.337 317.706,-272.177 329.829,-273.953"/>
<polygon fill="midnightblue" stroke="midnightblue" points="329.481,-277.439 339.883,-275.426 330.496,-270.513 329.481,-277.439"/>
</g>
<!-- Node9 -->
<g id="node9" class="node"><title>Node9</title>
<g id="a_node9"><a xlink:href="$d5/de7/classamunmt_1_1BaseMatrix.html#a52ccc5b9234726532fe0452a8aed5b1f" xlink:title="amunmt::BaseMatrix\l::size">
<polygon fill="white" stroke="black" points="342.5,-214.5 342.5,-244.5 449.5,-244.5 449.5,-214.5 342.5,-214.5"/>
<text text-anchor="start" x="350.5" y="-232.5" font-family="Helvetica,sans-Serif" font-size="10.00">amunmt::BaseMatrix</text>
<text text-anchor="middle" x="396" y="-221.5" font-family="Helvetica,sans-Serif" font-size="10.00">::size</text>
</a>
</g>
</g>
<!-- Node8&#45;&gt;Node9 -->
<g id="edge9" class="edge"><title>Node8&#45;&gt;Node9</title>
<path fill="none" stroke="midnightblue" d="M293.352,-249.571C305.891,-247.095 319.296,-244.448 332.12,-241.916"/>
<polygon fill="midnightblue" stroke="midnightblue" points="333.121,-245.286 342.254,-239.915 331.765,-238.418 333.121,-245.286"/>
</g>
<!-- Node10 -->
<g id="node10" class="node"><title>Node10</title>
<g id="a_node10"><a xlink:href="$d5/de7/classamunmt_1_1BaseMatrix.html#a8fca680b1a864b3d99e9cfe6aa60f1d4" xlink:title="amunmt::BaseMatrix::dim">
<polygon fill="white" stroke="black" points="488,-220 488,-239 617,-239 617,-220 488,-220"/>
<text text-anchor="middle" x="552.5" y="-227" font-family="Helvetica,sans-Serif" font-size="10.00">amunmt::BaseMatrix::dim</text>
</a>
</g>
</g>
<!-- Node9&#45;&gt;Node10 -->
<g id="edge10" class="edge"><title>Node9&#45;&gt;Node10</title>
<path fill="none" stroke="midnightblue" d="M449.738,-229.5C458.726,-229.5 468.207,-229.5 477.621,-229.5"/>
<polygon fill="midnightblue" stroke="midnightblue" points="477.784,-233 487.784,-229.5 477.784,-226 477.784,-233"/>
</g>
</g>
</svg>
