<?xml version="1.0" encoding="UTF-8" standalone="no"?>
<!DOCTYPE svg PUBLIC "-//W3C//DTD SVG 1.1//EN"
 "http://www.w3.org/Graphics/SVG/1.1/DTD/svg11.dtd">
<!-- Generated by graphviz version 2.38.0 (20140413.2041)
 -->
<!-- Title: marian::DecoderStateHardAtt Pages: 1 -->
<svg width="268pt" height="700pt"
 viewBox="0.00 0.00 267.50 700.00" xmlns="http://www.w3.org/2000/svg" xmlns:xlink="http://www.w3.org/1999/xlink">
<g id="graph0" class="graph" transform="scale(1 1) rotate(0) translate(4 696)">
<title>marian::DecoderStateHardAtt</title>
<polygon fill="white" stroke="none" points="-4,4 -4,-696 263.5,-696 263.5,4 -4,4"/>
<!-- Node1 -->
<g id="node1" class="node"><title>Node1</title>
<polygon fill="#bfbfbf" stroke="black" points="91.5,-0.5 91.5,-101.5 237.5,-101.5 237.5,-0.5 91.5,-0.5"/>
<text text-anchor="middle" x="164.5" y="-89.5" font-family="Helvetica,sans-Serif" font-size="10.00">marian::DecoderStateHardAtt</text>
<polyline fill="none" stroke="black" points="91.5,-82.5 237.5,-82.5 "/>
<text text-anchor="middle" x="164.5" y="-70.5" font-family="Helvetica,sans-Serif" font-size="10.00"> </text>
<polyline fill="none" stroke="black" points="91.5,-63.5 237.5,-63.5 "/>
<text text-anchor="start" x="99.5" y="-51.5" font-family="Helvetica,sans-Serif" font-size="10.00">+ DecoderStateHardAtt()</text>
<text text-anchor="start" x="99.5" y="-40.5" font-family="Helvetica,sans-Serif" font-size="10.00">+ select()</text>
<text text-anchor="start" x="99.5" y="-29.5" font-family="Helvetica,sans-Serif" font-size="10.00">+ setAttentionIndices()</text>
<text text-anchor="start" x="99.5" y="-18.5" font-family="Helvetica,sans-Serif" font-size="10.00">+ getAttentionIndices()</text>
<text text-anchor="start" x="99.5" y="-7.5" font-family="Helvetica,sans-Serif" font-size="10.00">+ blacklist()</text>
</g>
<!-- Node2 -->
<g id="node2" class="node"><title>Node2</title>
<g id="a_node2"><a xlink:href="$da/d12/classmarian_1_1DecoderState.html" xlink:title="{marian::DecoderState\n|# encState_\l# targetEmbeddings_\l# probs_\l# singleStep_\l|+ DecoderState()\l+ getEncoderState()\l+ getProbs()\l+ setProbs()\l+ select()\l+ getStates()\l+ getTargetEmbeddings()\l+ setTargetEmbeddings()\l+ doSingleStep()\l+ setSingleStep()\l+ getSourceWords()\l+ blacklist()\l}">
<polygon fill="white" stroke="black" points="0,-149.5 0,-360.5 127,-360.5 127,-149.5 0,-149.5"/>
<text text-anchor="middle" x="63.5" y="-348.5" font-family="Helvetica,sans-Serif" font-size="10.00">marian::DecoderState</text>
<polyline fill="none" stroke="black" points="0,-341.5 127,-341.5 "/>
<text text-anchor="start" x="8" y="-329.5" font-family="Helvetica,sans-Serif" font-size="10.00"># encState_</text>
<text text-anchor="start" x="8" y="-318.5" font-family="Helvetica,sans-Serif" font-size="10.00"># targetEmbeddings_</text>
<text text-anchor="start" x="8" y="-307.5" font-family="Helvetica,sans-Serif" font-size="10.00"># probs_</text>
<text text-anchor="start" x="8" y="-296.5" font-family="Helvetica,sans-Serif" font-size="10.00"># singleStep_</text>
<polyline fill="none" stroke="black" points="0,-289.5 127,-289.5 "/>
<text text-anchor="start" x="8" y="-277.5" font-family="Helvetica,sans-Serif" font-size="10.00">+ DecoderState()</text>
<text text-anchor="start" x="8" y="-266.5" font-family="Helvetica,sans-Serif" font-size="10.00">+ getEncoderState()</text>
<text text-anchor="start" x="8" y="-255.5" font-family="Helvetica,sans-Serif" font-size="10.00">+ getProbs()</text>
<text text-anchor="start" x="8" y="-244.5" font-family="Helvetica,sans-Serif" font-size="10.00">+ setProbs()</text>
<text text-anchor="start" x="8" y="-233.5" font-family="Helvetica,sans-Serif" font-size="10.00">+ select()</text>
<text text-anchor="start" x="8" y="-222.5" font-family="Helvetica,sans-Serif" font-size="10.00">+ getStates()</text>
<text text-anchor="start" x="8" y="-211.5" font-family="Helvetica,sans-Serif" font-size="10.00">+ getTargetEmbeddings()</text>
<text text-anchor="start" x="8" y="-200.5" font-family="Helvetica,sans-Serif" font-size="10.00">+ setTargetEmbeddings()</text>
<text text-anchor="start" x="8" y="-189.5" font-family="Helvetica,sans-Serif" font-size="10.00">+ doSingleStep()</text>
<text text-anchor="start" x="8" y="-178.5" font-family="Helvetica,sans-Serif" font-size="10.00">+ setSingleStep()</text>
<text text-anchor="start" x="8" y="-167.5" font-family="Helvetica,sans-Serif" font-size="10.00">+ getSourceWords()</text>
<text text-anchor="start" x="8" y="-156.5" font-family="Helvetica,sans-Serif" font-size="10.00">+ blacklist()</text>
</a>
</g>
</g>
<!-- Node2&#45;&gt;Node1 -->
<g id="edge1" class="edge"><title>Node2&#45;&gt;Node1</title>
<path fill="none" stroke="midnightblue" d="M120.252,-140.495C127.04,-126.919 133.675,-113.65 139.656,-101.688"/>
<polygon fill="none" stroke="midnightblue" points="117.117,-138.94 115.775,-149.45 123.378,-142.071 117.117,-138.94"/>
</g>
<!-- Node3 -->
<g id="node3" class="node"><title>Node3</title>
<g id="a_node3"><a xlink:href="$dc/d39/classmarian_1_1rnn_1_1States.html" xlink:title="{marian::rnn::States\n||+ States()\l+ States()\l+ States()\l+ begin()\l+ end()\l+ outputs()\l+ operator[]()\l+ operator[]()\l+ back()\l+ back()\land 7 more...\l}">
<polygon fill="white" stroke="black" points="13.5,-408.5 13.5,-575.5 113.5,-575.5 113.5,-408.5 13.5,-408.5"/>
<text text-anchor="middle" x="63.5" y="-563.5" font-family="Helvetica,sans-Serif" font-size="10.00">marian::rnn::States</text>
<polyline fill="none" stroke="black" points="13.5,-556.5 113.5,-556.5 "/>
<text text-anchor="middle" x="63.5" y="-544.5" font-family="Helvetica,sans-Serif" font-size="10.00"> </text>
<polyline fill="none" stroke="black" points="13.5,-537.5 113.5,-537.5 "/>
<text text-anchor="start" x="21.5" y="-525.5" font-family="Helvetica,sans-Serif" font-size="10.00">+ States()</text>
<text text-anchor="start" x="21.5" y="-514.5" font-family="Helvetica,sans-Serif" font-size="10.00">+ States()</text>
<text text-anchor="start" x="21.5" y="-503.5" font-family="Helvetica,sans-Serif" font-size="10.00">+ States()</text>
<text text-anchor="start" x="21.5" y="-492.5" font-family="Helvetica,sans-Serif" font-size="10.00">+ begin()</text>
<text text-anchor="start" x="21.5" y="-481.5" font-family="Helvetica,sans-Serif" font-size="10.00">+ end()</text>
<text text-anchor="start" x="21.5" y="-470.5" font-family="Helvetica,sans-Serif" font-size="10.00">+ outputs()</text>
<text text-anchor="start" x="21.5" y="-459.5" font-family="Helvetica,sans-Serif" font-size="10.00">+ operator[]()</text>
<text text-anchor="start" x="21.5" y="-448.5" font-family="Helvetica,sans-Serif" font-size="10.00">+ operator[]()</text>
<text text-anchor="start" x="21.5" y="-437.5" font-family="Helvetica,sans-Serif" font-size="10.00">+ back()</text>
<text text-anchor="start" x="21.5" y="-426.5" font-family="Helvetica,sans-Serif" font-size="10.00">+ back()</text>
<text text-anchor="start" x="21.5" y="-415.5" font-family="Helvetica,sans-Serif" font-size="10.00">and 7 more...</text>
</a>
</g>
</g>
<!-- Node3&#45;&gt;Node2 -->
<g id="edge2" class="edge"><title>Node3&#45;&gt;Node2</title>
<path fill="none" stroke="#404040" d="M63.5,-408.478C63.5,-396.873 63.5,-384.767 63.5,-372.673"/>
<polygon fill="none" stroke="#404040" points="63.5001,-372.601 59.5,-366.601 63.5,-360.601 67.5,-366.601 63.5001,-372.601"/>
<text text-anchor="middle" x="84" y="-382" font-family="Helvetica,sans-Serif" font-size="10.00"> #states_</text>
</g>
<!-- Node4 -->
<g id="node4" class="node"><title>Node4</title>
<polygon fill="white" stroke="#bfbfbf" points="13,-623.5 13,-691.5 114,-691.5 114,-623.5 13,-623.5"/>
<text text-anchor="start" x="21" y="-679.5" font-family="Helvetica,sans-Serif" font-size="10.00">std::vector&lt; marian</text>
<text text-anchor="middle" x="63.5" y="-668.5" font-family="Helvetica,sans-Serif" font-size="10.00">::rnn::State &gt;</text>
<polyline fill="none" stroke="#bfbfbf" points="13,-661.5 114,-661.5 "/>
<text text-anchor="middle" x="63.5" y="-649.5" font-family="Helvetica,sans-Serif" font-size="10.00"> </text>
<polyline fill="none" stroke="#bfbfbf" points="13,-642.5 114,-642.5 "/>
<text text-anchor="middle" x="63.5" y="-630.5" font-family="Helvetica,sans-Serif" font-size="10.00"> </text>
</g>
<!-- Node4&#45;&gt;Node3 -->
<g id="edge3" class="edge"><title>Node4&#45;&gt;Node3</title>
<path fill="none" stroke="#404040" d="M63.5,-623.413C63.5,-612.877 63.5,-600.646 63.5,-587.979"/>
<polygon fill="none" stroke="#404040" points="63.5001,-587.742 59.5,-581.742 63.5,-575.742 67.5,-581.742 63.5001,-587.742"/>
<text text-anchor="middle" x="83" y="-597" font-family="Helvetica,sans-Serif" font-size="10.00"> &#45;states_</text>
</g>
<!-- Node5 -->
<g id="node5" class="node"><title>Node5</title>
<polygon fill="white" stroke="#bfbfbf" points="145,-226.5 145,-283.5 252,-283.5 252,-226.5 145,-226.5"/>
<text text-anchor="middle" x="198.5" y="-271.5" font-family="Helvetica,sans-Serif" font-size="10.00">std::vector&lt; size_t &gt;</text>
<polyline fill="none" stroke="#bfbfbf" points="145,-264.5 252,-264.5 "/>
<text text-anchor="middle" x="198.5" y="-252.5" font-family="Helvetica,sans-Serif" font-size="10.00"> </text>
<polyline fill="none" stroke="#bfbfbf" points="145,-245.5 252,-245.5 "/>
<text text-anchor="middle" x="198.5" y="-233.5" font-family="Helvetica,sans-Serif" font-size="10.00"> </text>
</g>
<!-- Node5&#45;&gt;Node1 -->
<g id="edge4" class="edge"><title>Node5&#45;&gt;Node1</title>
<path fill="none" stroke="#404040" d="M193.844,-226.336C188.986,-197.476 181.211,-151.284 174.884,-113.696"/>
<polygon fill="none" stroke="#404040" points="174.879,-113.661 169.938,-108.408 172.887,-101.827 177.827,-107.08 174.879,-113.661"/>
<text text-anchor="middle" x="218" y="-123" font-family="Helvetica,sans-Serif" font-size="10.00"> #attentionIndices_</text>
</g>
</g>
</svg>
