<?xml version="1.0" encoding="UTF-8" standalone="no"?>
<!DOCTYPE svg PUBLIC "-//W3C//DTD SVG 1.1//EN"
 "http://www.w3.org/Graphics/SVG/1.1/DTD/svg11.dtd">
<!-- Generated by graphviz version 2.38.0 (20140413.2041)
 -->
<!-- Title: marian::ConcatenateNodeOp::backward Pages: 1 -->
<svg width="474pt" height="66pt"
 viewBox="0.00 0.00 474.00 66.00" xmlns="http://www.w3.org/2000/svg" xmlns:xlink="http://www.w3.org/1999/xlink">
<g id="graph0" class="graph" transform="scale(1 1) rotate(0) translate(4 62)">
<title>marian::ConcatenateNodeOp::backward</title>
<polygon fill="white" stroke="none" points="-4,4 -4,-62 470,-62 470,4 -4,4"/>
<!-- Node1 -->
<g id="node1" class="node"><title>Node1</title>
<polygon fill="#bfbfbf" stroke="black" points="0,-14 0,-44 143,-44 143,-14 0,-14"/>
<text text-anchor="start" x="8" y="-32" font-family="Helvetica,sans-Serif" font-size="10.00">marian::ConcatenateNodeOp</text>
<text text-anchor="middle" x="71.5" y="-21" font-family="Helvetica,sans-Serif" font-size="10.00">::backward</text>
</g>
<!-- Node2 -->
<g id="node2" class="node"><title>Node2</title>
<g id="a_node2"><a xlink:href="$d0/d7a/classmarian_1_1Node.html#a71a9c8ad6ba12d421fa97222d74a90b9" xlink:title="marian::Node::child">
<polygon fill="white" stroke="black" points="187.5,-38.5 187.5,-57.5 288.5,-57.5 288.5,-38.5 187.5,-38.5"/>
<text text-anchor="middle" x="238" y="-45.5" font-family="Helvetica,sans-Serif" font-size="10.00">marian::Node::child</text>
</a>
</g>
</g>
<!-- Node1&#45;&gt;Node2 -->
<g id="edge1" class="edge"><title>Node1&#45;&gt;Node2</title>
<path fill="none" stroke="midnightblue" d="M143.217,-37.168C154.552,-38.4771 166.184,-39.8206 177.23,-41.0965"/>
<polygon fill="midnightblue" stroke="midnightblue" points="176.849,-44.5756 187.184,-42.2462 177.652,-37.6218 176.849,-44.5756"/>
</g>
<!-- Node4 -->
<g id="node4" class="node"><title>Node4</title>
<g id="a_node4"><a xlink:href="$da/d22/namespacemarian.html#a09b0dc48a7ac0f9ed26bb50045d7cf1c" xlink:title="marian::Deconcatenate">
<polygon fill="white" stroke="black" points="179,-0.5 179,-19.5 297,-19.5 297,-0.5 179,-0.5"/>
<text text-anchor="middle" x="238" y="-7.5" font-family="Helvetica,sans-Serif" font-size="10.00">marian::Deconcatenate</text>
</a>
</g>
</g>
<!-- Node1&#45;&gt;Node4 -->
<g id="edge3" class="edge"><title>Node1&#45;&gt;Node4</title>
<path fill="none" stroke="midnightblue" d="M143.217,-20.832C151.699,-19.8524 160.347,-18.8535 168.792,-17.8781"/>
<polygon fill="midnightblue" stroke="midnightblue" points="169.435,-21.3272 178.967,-16.7029 168.632,-14.3735 169.435,-21.3272"/>
</g>
<!-- Node3 -->
<g id="node3" class="node"><title>Node3</title>
<g id="a_node3"><a xlink:href="$d0/d7a/classmarian_1_1Node.html#a4aa5aa482c70595fa5d43c1fbabf5c18" xlink:title="marian::Node::getBackend">
<polygon fill="white" stroke="black" points="333,-38.5 333,-57.5 466,-57.5 466,-38.5 333,-38.5"/>
<text text-anchor="middle" x="399.5" y="-45.5" font-family="Helvetica,sans-Serif" font-size="10.00">marian::Node::getBackend</text>
</a>
</g>
</g>
<!-- Node2&#45;&gt;Node3 -->
<g id="edge2" class="edge"><title>Node2&#45;&gt;Node3</title>
<path fill="none" stroke="midnightblue" d="M288.592,-48C299.414,-48 311.105,-48 322.684,-48"/>
<polygon fill="midnightblue" stroke="midnightblue" points="322.807,-51.5001 332.807,-48 322.807,-44.5001 322.807,-51.5001"/>
</g>
</g>
</svg>
