<?xml version="1.0" encoding="UTF-8" standalone="no"?>
<!DOCTYPE svg PUBLIC "-//W3C//DTD SVG 1.1//EN"
 "http://www.w3.org/Graphics/SVG/1.1/DTD/svg11.dtd">
<!-- Generated by graphviz version 2.38.0 (20140413.2041)
 -->
<!-- Title: marian::ConcatenateNodeOp::newShape Pages: 1 -->
<svg width="476pt" height="104pt"
 viewBox="0.00 0.00 476.00 104.00" xmlns="http://www.w3.org/2000/svg" xmlns:xlink="http://www.w3.org/1999/xlink">
<g id="graph0" class="graph" transform="scale(1 1) rotate(0) translate(4 100)">
<title>marian::ConcatenateNodeOp::newShape</title>
<polygon fill="white" stroke="none" points="-4,4 -4,-100 472,-100 472,4 -4,4"/>
<!-- Node1 -->
<g id="node1" class="node"><title>Node1</title>
<polygon fill="#bfbfbf" stroke="black" points="0,-33 0,-63 143,-63 143,-33 0,-33"/>
<text text-anchor="start" x="8" y="-51" font-family="Helvetica,sans-Serif" font-size="10.00">marian::ConcatenateNodeOp</text>
<text text-anchor="middle" x="71.5" y="-40" font-family="Helvetica,sans-Serif" font-size="10.00">::newShape</text>
</g>
<!-- Node2 -->
<g id="node2" class="node"><title>Node2</title>
<g id="a_node2"><a xlink:href="$d0/d7a/classmarian_1_1Node.html#aa631f0244ad94b4c64efab0f140bd1d5" xlink:title="marian::Node::shape">
<polygon fill="white" stroke="black" points="179,-76.5 179,-95.5 286,-95.5 286,-76.5 179,-76.5"/>
<text text-anchor="middle" x="232.5" y="-83.5" font-family="Helvetica,sans-Serif" font-size="10.00">marian::Node::shape</text>
</a>
</g>
</g>
<!-- Node1&#45;&gt;Node2 -->
<g id="edge1" class="edge"><title>Node1&#45;&gt;Node2</title>
<path fill="none" stroke="midnightblue" d="M135.341,-63.0186C150.716,-66.6931 166.961,-70.5757 181.635,-74.0826"/>
<polygon fill="midnightblue" stroke="midnightblue" points="180.973,-77.5228 191.512,-76.4432 182.6,-70.7145 180.973,-77.5228"/>
</g>
<!-- Node3 -->
<g id="node3" class="node"><title>Node3</title>
<g id="a_node3"><a xlink:href="$d5/d54/structmarian_1_1Shape.html#a2849bb218aa2214bbab47256a9452caf" xlink:title="marian::Shape::set">
<polygon fill="white" stroke="black" points="183,-38.5 183,-57.5 282,-57.5 282,-38.5 183,-38.5"/>
<text text-anchor="middle" x="232.5" y="-45.5" font-family="Helvetica,sans-Serif" font-size="10.00">marian::Shape::set</text>
</a>
</g>
</g>
<!-- Node1&#45;&gt;Node3 -->
<g id="edge2" class="edge"><title>Node1&#45;&gt;Node3</title>
<path fill="none" stroke="midnightblue" d="M143.166,-48C153.033,-48 163.084,-48 172.701,-48"/>
<polygon fill="midnightblue" stroke="midnightblue" points="172.936,-51.5001 182.936,-48 172.936,-44.5001 172.936,-51.5001"/>
</g>
<!-- Node6 -->
<g id="node6" class="node"><title>Node6</title>
<g id="a_node6"><a xlink:href="$d0/d7a/classmarian_1_1Node.html#a71a9c8ad6ba12d421fa97222d74a90b9" xlink:title="marian::Node::child">
<polygon fill="white" stroke="black" points="182,-0.5 182,-19.5 283,-19.5 283,-0.5 182,-0.5"/>
<text text-anchor="middle" x="232.5" y="-7.5" font-family="Helvetica,sans-Serif" font-size="10.00">marian::Node::child</text>
</a>
</g>
</g>
<!-- Node1&#45;&gt;Node6 -->
<g id="edge5" class="edge"><title>Node1&#45;&gt;Node6</title>
<path fill="none" stroke="midnightblue" d="M135.341,-32.9814C150.716,-29.3069 166.961,-25.4243 181.635,-21.9174"/>
<polygon fill="midnightblue" stroke="midnightblue" points="182.6,-25.2855 191.512,-19.5568 180.973,-18.4772 182.6,-25.2855"/>
</g>
<!-- Node4 -->
<g id="node4" class="node"><title>Node4</title>
<g id="a_node4"><a xlink:href="$d5/d54/structmarian_1_1Shape.html#af416da295388777386ae8b834115066f" xlink:title="Gets a reference to the int representing the size of the ith dimension represented by this object...">
<polygon fill="white" stroke="black" points="344.5,-76.5 344.5,-95.5 445.5,-95.5 445.5,-76.5 344.5,-76.5"/>
<text text-anchor="middle" x="395" y="-83.5" font-family="Helvetica,sans-Serif" font-size="10.00">marian::Shape::dim</text>
</a>
</g>
</g>
<!-- Node3&#45;&gt;Node4 -->
<g id="edge3" class="edge"><title>Node3&#45;&gt;Node4</title>
<path fill="none" stroke="midnightblue" d="M274.001,-57.589C295.181,-62.6035 321.302,-68.7881 343.76,-74.1053"/>
<polygon fill="midnightblue" stroke="midnightblue" points="343.253,-77.5818 353.79,-76.4799 344.866,-70.7701 343.253,-77.5818"/>
</g>
<!-- Node5 -->
<g id="node5" class="node"><title>Node5</title>
<g id="a_node5"><a xlink:href="$d5/d54/structmarian_1_1Shape.html#a9cf031011a4b53538dda070a77ad19f9" xlink:title="marian::Shape::updateStrides">
<polygon fill="white" stroke="black" points="322,-38.5 322,-57.5 468,-57.5 468,-38.5 322,-38.5"/>
<text text-anchor="middle" x="395" y="-45.5" font-family="Helvetica,sans-Serif" font-size="10.00">marian::Shape::updateStrides</text>
</a>
</g>
</g>
<!-- Node3&#45;&gt;Node5 -->
<g id="edge4" class="edge"><title>Node3&#45;&gt;Node5</title>
<path fill="none" stroke="midnightblue" d="M282.091,-48C291.502,-48 301.605,-48 311.75,-48"/>
<polygon fill="midnightblue" stroke="midnightblue" points="311.886,-51.5001 321.885,-48 311.885,-44.5001 311.886,-51.5001"/>
</g>
<!-- Node7 -->
<g id="node7" class="node"><title>Node7</title>
<g id="a_node7"><a xlink:href="$d0/d7a/classmarian_1_1Node.html#a4aa5aa482c70595fa5d43c1fbabf5c18" xlink:title="marian::Node::getBackend">
<polygon fill="white" stroke="black" points="328.5,-0.5 328.5,-19.5 461.5,-19.5 461.5,-0.5 328.5,-0.5"/>
<text text-anchor="middle" x="395" y="-7.5" font-family="Helvetica,sans-Serif" font-size="10.00">marian::Node::getBackend</text>
</a>
</g>
</g>
<!-- Node6&#45;&gt;Node7 -->
<g id="edge6" class="edge"><title>Node6&#45;&gt;Node7</title>
<path fill="none" stroke="midnightblue" d="M283.403,-10C294.435,-10 306.364,-10 318.166,-10"/>
<polygon fill="midnightblue" stroke="midnightblue" points="318.478,-13.5001 328.478,-10 318.478,-6.5001 318.478,-13.5001"/>
</g>
</g>
</svg>
