<?xml version="1.0" encoding="UTF-8" standalone="no"?>
<!DOCTYPE svg PUBLIC "-//W3C//DTD SVG 1.1//EN"
 "http://www.w3.org/Graphics/SVG/1.1/DTD/svg11.dtd">
<!-- Generated by graphviz version 2.38.0 (20140413.2041)
 -->
<!-- Title: marian::mlp::LayerFactory Pages: 1 -->
<svg width="139pt" height="397pt"
 viewBox="0.00 0.00 139.00 397.00" xmlns="http://www.w3.org/2000/svg" xmlns:xlink="http://www.w3.org/1999/xlink">
<g id="graph0" class="graph" transform="scale(1 1) rotate(0) translate(4 393)">
<title>marian::mlp::LayerFactory</title>
<polygon fill="white" stroke="none" points="-4,4 -4,-393 135,-393 135,4 -4,4"/>
<!-- Node1 -->
<g id="node1" class="node"><title>Node1</title>
<polygon fill="#bfbfbf" stroke="black" points="0,-0.5 0,-123.5 131,-123.5 131,-0.5 0,-0.5"/>
<text text-anchor="middle" x="65.5" y="-111.5" font-family="Helvetica,sans-Serif" font-size="10.00">marian::mlp::LayerFactory</text>
<polyline fill="none" stroke="black" points="0,-104.5 131,-104.5 "/>
<text text-anchor="middle" x="65.5" y="-92.5" font-family="Helvetica,sans-Serif" font-size="10.00"> </text>
<polyline fill="none" stroke="black" points="0,-85.5 131,-85.5 "/>
<text text-anchor="start" x="8" y="-73.5" font-family="Helvetica,sans-Serif" font-size="10.00">+ LayerFactory()</text>
<text text-anchor="start" x="8" y="-62.5" font-family="Helvetica,sans-Serif" font-size="10.00">+ LayerFactory()</text>
<text text-anchor="start" x="8" y="-51.5" font-family="Helvetica,sans-Serif" font-size="10.00">+ LayerFactory()</text>
<text text-anchor="start" x="8" y="-40.5" font-family="Helvetica,sans-Serif" font-size="10.00">+ ~LayerFactory()</text>
<text text-anchor="start" x="8" y="-29.5" font-family="Helvetica,sans-Serif" font-size="10.00">+ as()</text>
<text text-anchor="start" x="8" y="-18.5" font-family="Helvetica,sans-Serif" font-size="10.00">+ is()</text>
<text text-anchor="start" x="8" y="-7.5" font-family="Helvetica,sans-Serif" font-size="10.00">+ construct()</text>
</g>
<!-- Node2 -->
<g id="node2" class="node"><title>Node2</title>
<g id="a_node2"><a xlink:href="$d5/d28/classmarian_1_1Factory.html" xlink:title="{marian::Factory\n|# options_\l# graph_\l|+ Factory()\l+ ~Factory()\l+ getOptions()\l+ str()\l+ opt()\l+ opt()\l}">
<polygon fill="white" stroke="black" points="23,-160.5 23,-283.5 108,-283.5 108,-160.5 23,-160.5"/>
<text text-anchor="middle" x="65.5" y="-271.5" font-family="Helvetica,sans-Serif" font-size="10.00">marian::Factory</text>
<polyline fill="none" stroke="black" points="23,-264.5 108,-264.5 "/>
<text text-anchor="start" x="31" y="-252.5" font-family="Helvetica,sans-Serif" font-size="10.00"># options_</text>
<text text-anchor="start" x="31" y="-241.5" font-family="Helvetica,sans-Serif" font-size="10.00"># graph_</text>
<polyline fill="none" stroke="black" points="23,-234.5 108,-234.5 "/>
<text text-anchor="start" x="31" y="-222.5" font-family="Helvetica,sans-Serif" font-size="10.00">+ Factory()</text>
<text text-anchor="start" x="31" y="-211.5" font-family="Helvetica,sans-Serif" font-size="10.00">+ ~Factory()</text>
<text text-anchor="start" x="31" y="-200.5" font-family="Helvetica,sans-Serif" font-size="10.00">+ getOptions()</text>
<text text-anchor="start" x="31" y="-189.5" font-family="Helvetica,sans-Serif" font-size="10.00">+ str()</text>
<text text-anchor="start" x="31" y="-178.5" font-family="Helvetica,sans-Serif" font-size="10.00">+ opt()</text>
<text text-anchor="start" x="31" y="-167.5" font-family="Helvetica,sans-Serif" font-size="10.00">+ opt()</text>
</a>
</g>
</g>
<!-- Node2&#45;&gt;Node1 -->
<g id="edge1" class="edge"><title>Node2&#45;&gt;Node1</title>
<path fill="none" stroke="midnightblue" d="M65.5,-150.116C65.5,-141.31 65.5,-132.368 65.5,-123.734"/>
<polygon fill="none" stroke="midnightblue" points="62.0001,-150.365 65.5,-160.365 69.0001,-150.365 62.0001,-150.365"/>
</g>
<!-- Node3 -->
<g id="node3" class="node"><title>Node3</title>
<polygon fill="white" stroke="#bfbfbf" points="9,-320.5 9,-388.5 122,-388.5 122,-320.5 9,-320.5"/>
<text text-anchor="start" x="17" y="-376.5" font-family="Helvetica,sans-Serif" font-size="10.00">std::enable_shared</text>
<text text-anchor="middle" x="65.5" y="-365.5" font-family="Helvetica,sans-Serif" font-size="10.00">_from_this&lt; Factory &gt;</text>
<polyline fill="none" stroke="#bfbfbf" points="9,-358.5 122,-358.5 "/>
<text text-anchor="middle" x="65.5" y="-346.5" font-family="Helvetica,sans-Serif" font-size="10.00"> </text>
<polyline fill="none" stroke="#bfbfbf" points="9,-339.5 122,-339.5 "/>
<text text-anchor="middle" x="65.5" y="-327.5" font-family="Helvetica,sans-Serif" font-size="10.00"> </text>
</g>
<!-- Node3&#45;&gt;Node2 -->
<g id="edge2" class="edge"><title>Node3&#45;&gt;Node2</title>
<path fill="none" stroke="midnightblue" d="M65.5,-310.169C65.5,-301.652 65.5,-292.572 65.5,-283.609"/>
<polygon fill="none" stroke="midnightblue" points="62.0001,-310.232 65.5,-320.232 69.0001,-310.232 62.0001,-310.232"/>
</g>
</g>
</svg>
