<?xml version="1.0" encoding="UTF-8" standalone="no"?>
<!DOCTYPE svg PUBLIC "-//W3C//DTD SVG 1.1//EN"
 "http://www.w3.org/Graphics/SVG/1.1/DTD/svg11.dtd">
<!-- Generated by graphviz version 2.38.0 (20140413.2041)
 -->
<!-- Title: config_parser.cpp Pages: 1 -->
<svg width="895pt" height="151pt"
 viewBox="0.00 0.00 894.50 151.00" xmlns="http://www.w3.org/2000/svg" xmlns:xlink="http://www.w3.org/1999/xlink">
<g id="graph0" class="graph" transform="scale(1 1) rotate(0) translate(4 147)">
<title>config_parser.cpp</title>
<polygon fill="white" stroke="none" points="-4,4 -4,-147 890.5,-147 890.5,4 -4,4"/>
<!-- Node1 -->
<g id="node1" class="node"><title>Node1</title>
<polygon fill="#bfbfbf" stroke="black" points="407,-123.5 407,-142.5 501,-142.5 501,-123.5 407,-123.5"/>
<text text-anchor="middle" x="454" y="-130.5" font-family="Helvetica,sans-Serif" font-size="10.00">config_parser.cpp</text>
</g>
<!-- Node2 -->
<g id="node2" class="node"><title>Node2</title>
<polygon fill="white" stroke="#bfbfbf" points="0,-67.5 0,-86.5 56,-86.5 56,-67.5 0,-67.5"/>
<text text-anchor="middle" x="28" y="-74.5" font-family="Helvetica,sans-Serif" font-size="10.00">algorithm</text>
</g>
<!-- Node1&#45;&gt;Node2 -->
<g id="edge1" class="edge"><title>Node1&#45;&gt;Node2</title>
<path fill="none" stroke="midnightblue" d="M406.721,-128.425C335.093,-122.595 194.668,-109.548 66.2188,-87.0207"/>
<polygon fill="midnightblue" stroke="midnightblue" points="66.6638,-83.545 56.2056,-85.2407 65.4386,-90.4369 66.6638,-83.545"/>
</g>
<!-- Node3 -->
<g id="node3" class="node"><title>Node3</title>
<polygon fill="white" stroke="#bfbfbf" points="74.5,-67.5 74.5,-86.5 203.5,-86.5 203.5,-67.5 74.5,-67.5"/>
<text text-anchor="middle" x="139" y="-74.5" font-family="Helvetica,sans-Serif" font-size="10.00">boost/algorithm/string.hpp</text>
</g>
<!-- Node1&#45;&gt;Node3 -->
<g id="edge2" class="edge"><title>Node1&#45;&gt;Node3</title>
<path fill="none" stroke="midnightblue" d="M406.841,-123.916C351.435,-114.417 259.417,-98.643 198.983,-88.2829"/>
<polygon fill="midnightblue" stroke="midnightblue" points="199.273,-84.7815 188.825,-86.5414 198.09,-91.6808 199.273,-84.7815"/>
</g>
<!-- Node4 -->
<g id="node4" class="node"><title>Node4</title>
<polygon fill="white" stroke="#bfbfbf" points="222,-67.5 222,-86.5 252,-86.5 252,-67.5 222,-67.5"/>
<text text-anchor="middle" x="237" y="-74.5" font-family="Helvetica,sans-Serif" font-size="10.00">set</text>
</g>
<!-- Node1&#45;&gt;Node4 -->
<g id="edge3" class="edge"><title>Node1&#45;&gt;Node4</title>
<path fill="none" stroke="midnightblue" d="M411.305,-123.47C372.151,-115.3 312.719,-102.019 262,-87 261.9,-86.9705 261.801,-86.9409 261.701,-86.9111"/>
<polygon fill="midnightblue" stroke="midnightblue" points="262.837,-83.6003 252.244,-83.8032 260.652,-90.2504 262.837,-83.6003"/>
</g>
<!-- Node5 -->
<g id="node5" class="node"><title>Node5</title>
<polygon fill="white" stroke="#bfbfbf" points="270.5,-67.5 270.5,-86.5 311.5,-86.5 311.5,-67.5 270.5,-67.5"/>
<text text-anchor="middle" x="291" y="-74.5" font-family="Helvetica,sans-Serif" font-size="10.00">string</text>
</g>
<!-- Node1&#45;&gt;Node5 -->
<g id="edge4" class="edge"><title>Node1&#45;&gt;Node5</title>
<path fill="none" stroke="midnightblue" d="M428.172,-123.444C399.138,-113.825 352.046,-98.2238 321.297,-88.0372"/>
<polygon fill="midnightblue" stroke="midnightblue" points="322.139,-84.6291 311.546,-84.8067 319.938,-91.2739 322.139,-84.6291"/>
</g>
<!-- Node6 -->
<g id="node6" class="node"><title>Node6</title>
<polygon fill="white" stroke="#bfbfbf" points="329.5,-67.5 329.5,-86.5 442.5,-86.5 442.5,-67.5 329.5,-67.5"/>
<text text-anchor="middle" x="386" y="-74.5" font-family="Helvetica,sans-Serif" font-size="10.00">3rd_party/cnpy/cnpy.h</text>
</g>
<!-- Node1&#45;&gt;Node6 -->
<g id="edge5" class="edge"><title>Node1&#45;&gt;Node6</title>
<path fill="none" stroke="midnightblue" d="M443.075,-123.324C432.825,-115.185 417.279,-102.839 404.999,-93.0874"/>
<polygon fill="midnightblue" stroke="midnightblue" points="407.132,-90.3119 397.124,-86.8339 402.779,-95.7937 407.132,-90.3119"/>
</g>
<!-- Node7 -->
<g id="node7" class="node"><title>Node7</title>
<g id="a_node7"><a xlink:href="$d1/d2b/config__parser_8h.html" xlink:title="common/config_parser.h">
<polygon fill="white" stroke="black" points="461,-67.5 461,-86.5 585,-86.5 585,-67.5 461,-67.5"/>
<text text-anchor="middle" x="523" y="-74.5" font-family="Helvetica,sans-Serif" font-size="10.00">common/config_parser.h</text>
</a>
</g>
</g>
<!-- Node1&#45;&gt;Node7 -->
<g id="edge6" class="edge"><title>Node1&#45;&gt;Node7</title>
<path fill="none" stroke="midnightblue" d="M465.086,-123.324C475.486,-115.185 491.261,-102.839 503.722,-93.0874"/>
<polygon fill="midnightblue" stroke="midnightblue" points="505.994,-95.7533 511.712,-86.8339 501.68,-90.2407 505.994,-95.7533"/>
</g>
<!-- Node12 -->
<g id="node12" class="node"><title>Node12</title>
<polygon fill="white" stroke="#bfbfbf" points="564.5,-6 564.5,-25 677.5,-25 677.5,-6 564.5,-6"/>
<text text-anchor="middle" x="621" y="-13" font-family="Helvetica,sans-Serif" font-size="10.00">common/file_stream.h</text>
</g>
<!-- Node1&#45;&gt;Node12 -->
<g id="edge14" class="edge"><title>Node1&#45;&gt;Node12</title>
<path fill="none" stroke="midnightblue" d="M501.157,-127.283C531.129,-121.996 568.878,-110.783 594,-87 608.399,-73.3687 615.209,-51.2285 618.371,-35.3962"/>
<polygon fill="midnightblue" stroke="midnightblue" points="621.879,-35.6362 620.084,-25.1945 614.976,-34.4764 621.879,-35.6362"/>
</g>
<!-- Node13 -->
<g id="node13" class="node"><title>Node13</title>
<polygon fill="white" stroke="#bfbfbf" points="696,-6 696,-25 792,-25 792,-6 696,-6"/>
<text text-anchor="middle" x="744" y="-13" font-family="Helvetica,sans-Serif" font-size="10.00">common/logging.h</text>
</g>
<!-- Node1&#45;&gt;Node13 -->
<g id="edge15" class="edge"><title>Node1&#45;&gt;Node13</title>
<path fill="none" stroke="midnightblue" d="M494.208,-123.45C527.297,-115.781 575.078,-103.24 615,-87 654.2,-71.0533 696.74,-46.1869 721.847,-30.6461"/>
<polygon fill="midnightblue" stroke="midnightblue" points="723.953,-33.457 730.572,-25.1845 720.239,-27.5234 723.953,-33.457"/>
</g>
<!-- Node14 -->
<g id="node14" class="node"><title>Node14</title>
<polygon fill="white" stroke="#bfbfbf" points="679,-67.5 679,-86.5 771,-86.5 771,-67.5 679,-67.5"/>
<text text-anchor="middle" x="725" y="-74.5" font-family="Helvetica,sans-Serif" font-size="10.00">common/config.h</text>
</g>
<!-- Node1&#45;&gt;Node14 -->
<g id="edge13" class="edge"><title>Node1&#45;&gt;Node14</title>
<path fill="none" stroke="midnightblue" d="M496.941,-123.444C544.513,-113.964 621.244,-98.6747 672.389,-88.4835"/>
<polygon fill="midnightblue" stroke="midnightblue" points="673.137,-91.9032 682.26,-86.5164 671.769,-85.0382 673.137,-91.9032"/>
</g>
<!-- Node15 -->
<g id="node15" class="node"><title>Node15</title>
<polygon fill="white" stroke="#bfbfbf" points="789.5,-67.5 789.5,-86.5 886.5,-86.5 886.5,-67.5 789.5,-67.5"/>
<text text-anchor="middle" x="838" y="-74.5" font-family="Helvetica,sans-Serif" font-size="10.00">common/version.h</text>
</g>
<!-- Node1&#45;&gt;Node15 -->
<g id="edge16" class="edge"><title>Node1&#45;&gt;Node15</title>
<path fill="none" stroke="midnightblue" d="M501.003,-125.764C562.414,-117.56 673.567,-102.521 779.083,-87.1135"/>
<polygon fill="midnightblue" stroke="midnightblue" points="779.887,-90.5331 789.275,-85.6215 778.873,-83.6069 779.887,-90.5331"/>
</g>
<!-- Node8 -->
<g id="node8" class="node"><title>Node8</title>
<polygon fill="white" stroke="#bfbfbf" points="332,-6 332,-25 466,-25 466,-6 332,-6"/>
<text text-anchor="middle" x="399" y="-13" font-family="Helvetica,sans-Serif" font-size="10.00">boost/program_options.hpp</text>
</g>
<!-- Node7&#45;&gt;Node8 -->
<g id="edge7" class="edge"><title>Node7&#45;&gt;Node8</title>
<path fill="none" stroke="midnightblue" d="M505.234,-67.4751C484.516,-57.5338 450.048,-40.9947 426.011,-29.461"/>
<polygon fill="midnightblue" stroke="midnightblue" points="427.263,-26.1797 416.733,-25.0091 424.235,-32.4908 427.263,-26.1797"/>
</g>
<!-- Node9 -->
<g id="node9" class="node"><title>Node9</title>
<polygon fill="white" stroke="#bfbfbf" points="484,-6 484,-25 546,-25 546,-6 484,-6"/>
<text text-anchor="middle" x="515" y="-13" font-family="Helvetica,sans-Serif" font-size="10.00">sys/ioctl.h</text>
</g>
<!-- Node7&#45;&gt;Node9 -->
<g id="edge8" class="edge"><title>Node7&#45;&gt;Node9</title>
<path fill="none" stroke="midnightblue" d="M521.854,-67.4751C520.725,-59.0803 518.964,-45.9806 517.509,-35.1631"/>
<polygon fill="midnightblue" stroke="midnightblue" points="520.945,-34.4535 516.144,-25.0091 514.008,-35.3863 520.945,-34.4535"/>
</g>
<!-- Node10 -->
<g id="node10" class="node"><title>Node10</title>
<polygon fill="white" stroke="#bfbfbf" points="144.5,-6 144.5,-25 195.5,-25 195.5,-6 144.5,-6"/>
<text text-anchor="middle" x="170" y="-13" font-family="Helvetica,sans-Serif" font-size="10.00">unistd.h</text>
</g>
<!-- Node7&#45;&gt;Node10 -->
<g id="edge9" class="edge"><title>Node7&#45;&gt;Node10</title>
<path fill="none" stroke="midnightblue" d="M460.89,-68.0666C375.36,-57.0104 229.104,-37.5845 205,-31 202.557,-30.3327 200.058,-29.5382 197.574,-28.6698"/>
<polygon fill="midnightblue" stroke="midnightblue" points="198.812,-25.3962 188.222,-25.0672 196.296,-31.9283 198.812,-25.3962"/>
</g>
<!-- Node11 -->
<g id="node11" class="node"><title>Node11</title>
<polygon fill="white" stroke="#bfbfbf" points="214,-0.5 214,-30.5 314,-30.5 314,-0.5 214,-0.5"/>
<text text-anchor="start" x="222" y="-18.5" font-family="Helvetica,sans-Serif" font-size="10.00">3rd_party/yaml&#45;cpp</text>
<text text-anchor="middle" x="264" y="-7.5" font-family="Helvetica,sans-Serif" font-size="10.00">/yaml.h</text>
</g>
<!-- Node7&#45;&gt;Node11 -->
<g id="edge10" class="edge"><title>Node7&#45;&gt;Node11</title>
<path fill="none" stroke="midnightblue" d="M483.858,-67.4317C445.551,-58.993 385.287,-45.5771 324.032,-31.2193"/>
<polygon fill="midnightblue" stroke="midnightblue" points="324.731,-27.7883 314.196,-28.9075 323.13,-34.6026 324.731,-27.7883"/>
</g>
<!-- Node7&#45;&gt;Node12 -->
<g id="edge11" class="edge"><title>Node7&#45;&gt;Node12</title>
<path fill="none" stroke="midnightblue" d="M537.041,-67.4751C553.051,-57.7548 579.45,-41.7266 598.374,-30.2372"/>
<polygon fill="midnightblue" stroke="midnightblue" points="600.254,-33.1907 606.985,-25.0091 596.621,-27.2072 600.254,-33.1907"/>
</g>
<!-- Node7&#45;&gt;Node13 -->
<g id="edge12" class="edge"><title>Node7&#45;&gt;Node13</title>
<path fill="none" stroke="midnightblue" d="M554.664,-67.4751C593.558,-57.0036 659.642,-39.2118 702.548,-27.6601"/>
<polygon fill="midnightblue" stroke="midnightblue" points="703.649,-30.9885 712.395,-25.0091 701.829,-24.2292 703.649,-30.9885"/>
</g>
</g>
</svg>
