<?xml version="1.0" encoding="UTF-8" standalone="no"?>
<!DOCTYPE svg PUBLIC "-//W3C//DTD SVG 1.1//EN"
 "http://www.w3.org/Graphics/SVG/1.1/DTD/svg11.dtd">
<!-- Generated by graphviz version 2.38.0 (20140413.2041)
 -->
<!-- Title: marian::EncoderDecoderRec::reconstructorGroundTruth Pages: 1 -->
<svg width="413pt" height="192pt"
 viewBox="0.00 0.00 413.00 192.00" xmlns="http://www.w3.org/2000/svg" xmlns:xlink="http://www.w3.org/1999/xlink">
<g id="graph0" class="graph" transform="scale(1 1) rotate(0) translate(4 188)">
<title>marian::EncoderDecoderRec::reconstructorGroundTruth</title>
<polygon fill="white" stroke="none" points="-4,4 -4,-188 409,-188 409,4 -4,4"/>
<!-- Node1 -->
<g id="node1" class="node"><title>Node1</title>
<polygon fill="#bfbfbf" stroke="black" points="0,-83 0,-113 143,-113 143,-83 0,-83"/>
<text text-anchor="start" x="8" y="-101" font-family="Helvetica,sans-Serif" font-size="10.00">marian::EncoderDecoderRec</text>
<text text-anchor="middle" x="71.5" y="-90" font-family="Helvetica,sans-Serif" font-size="10.00">::reconstructorGroundTruth</text>
</g>
<!-- Node2 -->
<g id="node2" class="node"><title>Node2</title>
<g id="a_node2"><a xlink:href="../../da/d22/namespacemarian.html#ace1e9a63d52edc363d70d661cf8d0257" target="_top" xlink:title="marian::rows">
<polygon fill="white" stroke="black" points="190,-164.5 190,-183.5 263,-183.5 263,-164.5 190,-164.5"/>
<text text-anchor="middle" x="226.5" y="-171.5" font-family="Helvetica,sans-Serif" font-size="10.00">marian::rows</text>
</a>
</g>
</g>
<!-- Node1&#45;&gt;Node2 -->
<g id="edge1" class="edge"><title>Node1&#45;&gt;Node2</title>
<path fill="none" stroke="midnightblue" d="M98.8089,-113.065C120.129,-125.032 151.104,-141.879 179,-155 182.906,-156.837 187.04,-158.675 191.168,-160.443"/>
<polygon fill="midnightblue" stroke="midnightblue" points="190.102,-163.79 200.679,-164.412 192.798,-157.33 190.102,-163.79"/>
</g>
<!-- Node3 -->
<g id="node3" class="node"><title>Node3</title>
<g id="a_node3"><a xlink:href="../../da/d22/namespacemarian.html#acd984f43188d0ae23c2a6ef13ae5293f" target="_top" xlink:title="marian::reshape">
<polygon fill="white" stroke="black" points="183.5,-126.5 183.5,-145.5 269.5,-145.5 269.5,-126.5 183.5,-126.5"/>
<text text-anchor="middle" x="226.5" y="-133.5" font-family="Helvetica,sans-Serif" font-size="10.00">marian::reshape</text>
</a>
</g>
</g>
<!-- Node1&#45;&gt;Node3 -->
<g id="edge2" class="edge"><title>Node1&#45;&gt;Node3</title>
<path fill="none" stroke="midnightblue" d="M132.97,-113.019C147.622,-116.658 163.096,-120.501 177.109,-123.981"/>
<polygon fill="midnightblue" stroke="midnightblue" points="176.472,-127.429 187.021,-126.443 178.16,-120.636 176.472,-127.429"/>
</g>
<!-- Node4 -->
<g id="node4" class="node"><title>Node4</title>
<g id="a_node4"><a xlink:href="../../d5/d49/amunmt_8cpp.html#a2e8ddb8bd2f3405f554c9f2c52277f4b" target="_top" xlink:title="init">
<polygon fill="white" stroke="black" points="212,-88.5 212,-107.5 241,-107.5 241,-88.5 212,-88.5"/>
<text text-anchor="middle" x="226.5" y="-95.5" font-family="Helvetica,sans-Serif" font-size="10.00">init</text>
</a>
</g>
</g>
<!-- Node1&#45;&gt;Node4 -->
<g id="edge3" class="edge"><title>Node1&#45;&gt;Node4</title>
<path fill="none" stroke="midnightblue" d="M143.178,-98C164.096,-98 185.598,-98 201.379,-98"/>
<polygon fill="midnightblue" stroke="midnightblue" points="201.769,-101.5 211.769,-98 201.769,-94.5001 201.769,-101.5"/>
</g>
<!-- Node6 -->
<g id="node6" class="node"><title>Node6</title>
<g id="a_node6"><a xlink:href="../../d4/dec/namespacemarian_1_1inits.html#ab9566318ddbacd376c74cdbdfac091e4" target="_top" xlink:title="marian::inits::from\l_vector">
<polygon fill="white" stroke="black" points="179,-39 179,-69 274,-69 274,-39 179,-39"/>
<text text-anchor="start" x="187" y="-57" font-family="Helvetica,sans-Serif" font-size="10.00">marian::inits::from</text>
<text text-anchor="middle" x="226.5" y="-46" font-family="Helvetica,sans-Serif" font-size="10.00">_vector</text>
</a>
</g>
</g>
<!-- Node1&#45;&gt;Node6 -->
<g id="edge5" class="edge"><title>Node1&#45;&gt;Node6</title>
<path fill="none" stroke="midnightblue" d="M124.726,-82.9808C139.004,-78.8746 154.541,-74.4064 169.044,-70.2357"/>
<polygon fill="midnightblue" stroke="midnightblue" points="170.248,-73.5313 178.891,-67.4038 168.313,-66.804 170.248,-73.5313"/>
</g>
<!-- Node7 -->
<g id="node7" class="node"><title>Node7</title>
<g id="a_node7"><a xlink:href="../../da/d22/namespacemarian.html#a763e5e9b5d5a329d2420fe9bab95476d" target="_top" xlink:title="marian::shift">
<polygon fill="white" stroke="black" points="191,-0.5 191,-19.5 262,-19.5 262,-0.5 191,-0.5"/>
<text text-anchor="middle" x="226.5" y="-7.5" font-family="Helvetica,sans-Serif" font-size="10.00">marian::shift</text>
</a>
</g>
</g>
<!-- Node1&#45;&gt;Node7 -->
<g id="edge6" class="edge"><title>Node1&#45;&gt;Node7</title>
<path fill="none" stroke="midnightblue" d="M93.9071,-82.8682C114.983,-68.3264 148.373,-46.227 179,-30 183.04,-27.8593 187.359,-25.7626 191.677,-23.7804"/>
<polygon fill="midnightblue" stroke="midnightblue" points="193.286,-26.896 201.016,-19.6515 190.455,-20.4937 193.286,-26.896"/>
</g>
<!-- Node5 -->
<g id="node5" class="node"><title>Node5</title>
<g id="a_node5"><a xlink:href="../../d7/d4e/classamunmt_1_1God.html#add49c80e570f5be5b2802565458f1c36" target="_top" xlink:title="amunmt::God::Init">
<polygon fill="white" stroke="black" points="310,-88.5 310,-107.5 405,-107.5 405,-88.5 310,-88.5"/>
<text text-anchor="middle" x="357.5" y="-95.5" font-family="Helvetica,sans-Serif" font-size="10.00">amunmt::God::Init</text>
</a>
</g>
</g>
<!-- Node4&#45;&gt;Node5 -->
<g id="edge4" class="edge"><title>Node4&#45;&gt;Node5</title>
<path fill="none" stroke="midnightblue" d="M241.305,-98C255.389,-98 278.184,-98 299.795,-98"/>
<polygon fill="midnightblue" stroke="midnightblue" points="299.934,-101.5 309.934,-98 299.934,-94.5001 299.934,-101.5"/>
</g>
</g>
</svg>
