<?xml version="1.0" encoding="UTF-8" standalone="no"?>
<!DOCTYPE svg PUBLIC "-//W3C//DTD SVG 1.1//EN"
 "http://www.w3.org/Graphics/SVG/1.1/DTD/svg11.dtd">
<!-- Generated by graphviz version 2.38.0 (20140413.2041)
 -->
<!-- Title: marian::EncoderDecoderRec::reconstructorStep Pages: 1 -->
<svg width="423pt" height="180pt"
 viewBox="0.00 0.00 423.00 180.00" xmlns="http://www.w3.org/2000/svg" xmlns:xlink="http://www.w3.org/1999/xlink">
<g id="graph0" class="graph" transform="scale(1 1) rotate(0) translate(4 176)">
<title>marian::EncoderDecoderRec::reconstructorStep</title>
<polygon fill="white" stroke="none" points="-4,4 -4,-176 419,-176 419,4 -4,4"/>
<!-- Node1 -->
<g id="node1" class="node"><title>Node1</title>
<polygon fill="#bfbfbf" stroke="black" points="0,-52 0,-82 143,-82 143,-52 0,-52"/>
<text text-anchor="start" x="8" y="-70" font-family="Helvetica,sans-Serif" font-size="10.00">marian::EncoderDecoderRec</text>
<text text-anchor="middle" x="71.5" y="-59" font-family="Helvetica,sans-Serif" font-size="10.00">::reconstructorStep</text>
</g>
<!-- Node2 -->
<g id="node2" class="node"><title>Node2</title>
<g id="a_node2"><a xlink:href="../../da/d22/namespacemarian.html#a268400392f22176821c7c4a36733b178" target="_top" xlink:title="marian::dropout">
<polygon fill="white" stroke="black" points="179,-76.5 179,-95.5 263,-95.5 263,-76.5 179,-76.5"/>
<text text-anchor="middle" x="221" y="-83.5" font-family="Helvetica,sans-Serif" font-size="10.00">marian::dropout</text>
</a>
</g>
</g>
<!-- Node1&#45;&gt;Node2 -->
<g id="edge1" class="edge"><title>Node1&#45;&gt;Node2</title>
<path fill="none" stroke="midnightblue" d="M143.226,-76.1104C151.752,-77.2087 160.331,-78.3139 168.508,-79.3671"/>
<polygon fill="midnightblue" stroke="midnightblue" points="168.25,-82.8628 178.616,-80.6691 169.145,-75.9202 168.25,-82.8628"/>
</g>
<!-- Node8 -->
<g id="node8" class="node"><title>Node8</title>
<g id="a_node8"><a xlink:href="../../da/d22/namespacemarian.html#ab84fcdb2b1fa95f89e3921aea4027957" target="_top" xlink:title="marian::tanh">
<polygon fill="white" stroke="black" points="185.5,-38.5 185.5,-57.5 256.5,-57.5 256.5,-38.5 185.5,-38.5"/>
<text text-anchor="middle" x="221" y="-45.5" font-family="Helvetica,sans-Serif" font-size="10.00">marian::tanh</text>
</a>
</g>
</g>
<!-- Node1&#45;&gt;Node8 -->
<g id="edge7" class="edge"><title>Node1&#45;&gt;Node8</title>
<path fill="none" stroke="midnightblue" d="M143.226,-57.8896C154.091,-56.49 165.044,-55.0791 175.139,-53.7788"/>
<polygon fill="midnightblue" stroke="midnightblue" points="175.838,-57.2177 185.309,-52.4687 174.943,-50.2751 175.838,-57.2177"/>
</g>
<!-- Node3 -->
<g id="node3" class="node"><title>Node3</title>
<g id="a_node3"><a xlink:href="../../d4/d04/namespacemarian_1_1keywords.html#a74d7a2502faafdd421ef3dff629e284f" target="_top" xlink:title="marian::keywords::Get">
<polygon fill="white" stroke="black" points="299,-152.5 299,-171.5 415,-171.5 415,-152.5 299,-152.5"/>
<text text-anchor="middle" x="357" y="-159.5" font-family="Helvetica,sans-Serif" font-size="10.00">marian::keywords::Get</text>
</a>
</g>
</g>
<!-- Node2&#45;&gt;Node3 -->
<g id="edge2" class="edge"><title>Node2&#45;&gt;Node3</title>
<path fill="none" stroke="midnightblue" d="M232.736,-95.6887C246.979,-108.114 273.323,-129.649 299,-143 303.066,-145.114 307.416,-147.063 311.832,-148.84"/>
<polygon fill="midnightblue" stroke="midnightblue" points="310.928,-152.238 321.52,-152.454 313.374,-145.679 310.928,-152.238"/>
</g>
<!-- Node4 -->
<g id="node4" class="node"><title>Node4</title>
<g id="a_node4"><a xlink:href="../../da/d22/namespacemarian.html#a763e5e9b5d5a329d2420fe9bab95476d" target="_top" xlink:title="marian::shift">
<polygon fill="white" stroke="black" points="321.5,-114.5 321.5,-133.5 392.5,-133.5 392.5,-114.5 321.5,-114.5"/>
<text text-anchor="middle" x="357" y="-121.5" font-family="Helvetica,sans-Serif" font-size="10.00">marian::shift</text>
</a>
</g>
</g>
<!-- Node2&#45;&gt;Node4 -->
<g id="edge3" class="edge"><title>Node2&#45;&gt;Node4</title>
<path fill="none" stroke="midnightblue" d="M255.814,-95.589C273.033,-100.472 294.164,-106.464 312.573,-111.685"/>
<polygon fill="midnightblue" stroke="midnightblue" points="311.621,-115.053 322.197,-114.414 313.531,-108.319 311.621,-115.053"/>
</g>
<!-- Node5 -->
<g id="node5" class="node"><title>Node5</title>
<g id="a_node5"><a xlink:href="../../da/d22/namespacemarian.html#a3dbe8b5eb203876cd08cf3fe75a1c6bc" target="_top" xlink:title="marian::convolution">
<polygon fill="white" stroke="black" points="306.5,-76.5 306.5,-95.5 407.5,-95.5 407.5,-76.5 306.5,-76.5"/>
<text text-anchor="middle" x="357" y="-83.5" font-family="Helvetica,sans-Serif" font-size="10.00">marian::convolution</text>
</a>
</g>
</g>
<!-- Node2&#45;&gt;Node5 -->
<g id="edge4" class="edge"><title>Node2&#45;&gt;Node5</title>
<path fill="none" stroke="midnightblue" d="M263.298,-86C273.66,-86 284.989,-86 296.058,-86"/>
<polygon fill="midnightblue" stroke="midnightblue" points="296.115,-89.5001 306.115,-86 296.115,-82.5001 296.115,-89.5001"/>
</g>
<!-- Node6 -->
<g id="node6" class="node"><title>Node6</title>
<g id="a_node6"><a xlink:href="../../da/d22/namespacemarian.html#a8ee119d3ee4867a3c826de62ea1de4f5" target="_top" xlink:title="marian::avg_pooling">
<polygon fill="white" stroke="black" points="305,-38.5 305,-57.5 409,-57.5 409,-38.5 305,-38.5"/>
<text text-anchor="middle" x="357" y="-45.5" font-family="Helvetica,sans-Serif" font-size="10.00">marian::avg_pooling</text>
</a>
</g>
</g>
<!-- Node2&#45;&gt;Node6 -->
<g id="edge5" class="edge"><title>Node2&#45;&gt;Node6</title>
<path fill="none" stroke="midnightblue" d="M255.814,-76.411C273.033,-71.5281 294.164,-65.5357 312.573,-60.315"/>
<polygon fill="midnightblue" stroke="midnightblue" points="313.531,-63.6815 322.197,-57.5859 311.621,-56.947 313.531,-63.6815"/>
</g>
<!-- Node7 -->
<g id="node7" class="node"><title>Node7</title>
<g id="a_node7"><a xlink:href="../../da/d22/namespacemarian.html#abfe3b8c37f479da0a31a1e843d8bdedf" target="_top" xlink:title="marian::max_pooling">
<polygon fill="white" stroke="black" points="303.5,-0.5 303.5,-19.5 410.5,-19.5 410.5,-0.5 303.5,-0.5"/>
<text text-anchor="middle" x="357" y="-7.5" font-family="Helvetica,sans-Serif" font-size="10.00">marian::max_pooling</text>
</a>
</g>
</g>
<!-- Node2&#45;&gt;Node7 -->
<g id="edge6" class="edge"><title>Node2&#45;&gt;Node7</title>
<path fill="none" stroke="midnightblue" d="M246.694,-76.3965C252.284,-73.7303 258.031,-70.5714 263,-67 281.891,-53.4223 279.377,-41.4971 299,-29 302.178,-26.9758 305.595,-25.1445 309.119,-23.4921"/>
<polygon fill="midnightblue" stroke="midnightblue" points="310.732,-26.6114 318.608,-19.5257 308.032,-20.1528 310.732,-26.6114"/>
</g>
</g>
</svg>
