<?xml version="1.0" encoding="UTF-8" standalone="no"?>
<!DOCTYPE svg PUBLIC "-//W3C//DTD SVG 1.1//EN"
 "http://www.w3.org/Graphics/SVG/1.1/DTD/svg11.dtd">
<!-- Generated by graphviz version 2.38.0 (20140413.2041)
 -->
<!-- Title: marian::EncoderDecoderRec::build Pages: 1 -->
<!--zoomable 536 -->
<svg id="main" version="1.1" xmlns="http://www.w3.org/2000/svg" xmlns:xlink="http://www.w3.org/1999/xlink" xml:space="preserve" onload="init(evt)">
<style type="text/css"><![CDATA[
.edge:hover path { stroke: red; }
.edge:hover polygon { stroke: red; fill: red; }
]]></style>
<script type="text/javascript"><![CDATA[
var edges = document.getElementsByTagName('g');
if (edges && edges.length) {
  for (var i=0;i<edges.length;i++) {
    if (edges[i].id.substr(0,4)=='edge') {
      edges[i].setAttribute('class','edge');
    }
  }
}
]]></script>
        <defs>
                <circle id="rim" cx="0" cy="0" r="7"/>
                <circle id="rim2" cx="0" cy="0" r="3.5"/>
                <g id="zoomPlus">
                        <use xlink:href="#rim" fill="#404040">
                                <set attributeName="fill" to="#808080" begin="zoomplus.mouseover" end="zoomplus.mouseout"/>
                        </use>
                        <path d="M-4,0h8M0,-4v8" fill="none" stroke="white" stroke-width="1.5" pointer-events="none"/>
                </g>
                <g id="zoomMin">
                        <use xlink:href="#rim" fill="#404040">
                                <set attributeName="fill" to="#808080" begin="zoomminus.mouseover" end="zoomminus.mouseout"/>
                        </use>
                        <path d="M-4,0h8" fill="none" stroke="white" stroke-width="1.5" pointer-events="none"/>
                </g>
                <g id="dirArrow">
                        <path fill="none" stroke="white" stroke-width="1.5" d="M0,-3.0v7 M-2.5,-0.5L0,-3.0L2.5,-0.5"/>
                </g>
               <g id="resetDef">
                       <use xlink:href="#rim2" fill="#404040">
                               <set attributeName="fill" to="#808080" begin="reset.mouseover" end="reset.mouseout"/>
                       </use>
               </g>
        </defs>

<script type="text/javascript">
var viewWidth = 613;
var viewHeight = 536;
var sectionId = 'dynsection-2';
</script>
<script xlink:href="../../svgpan.js"/>
<svg id="graph" class="graph">
<g id="viewport">
<title>marian::EncoderDecoderRec::build</title>
<polygon fill="white" stroke="none" points="-4,4 -4,-532 609,-532 609,4 -4,4"/>
<!-- Node1 -->
<g id="node1" class="node"><title>Node1</title>
<polygon fill="#bfbfbf" stroke="black" points="0,-219 0,-249 143,-249 143,-219 0,-219"/>
<text text-anchor="start" x="8" y="-237" font-family="Helvetica,sans-Serif" font-size="10.00">marian::EncoderDecoderRec</text>
<text text-anchor="middle" x="71.5" y="-226" font-family="Helvetica,sans-Serif" font-size="10.00">::build</text>
</g>
<!-- Node2 -->
<g id="node2" class="node"><title>Node2</title>
<g id="a_node2"><a xlink:href="../../d7/d2c/classmarian_1_1EncoderDecoder.html#ad42d2109d87d2bd25da7f1a6bb72777c" target="_top" xlink:title="marian::EncoderDecoder\l\&lt; EncoderS2S, DecoderS2S\l \&gt;::clear">
<polygon fill="white" stroke="black" points="179.5,-486.5 179.5,-527.5 321.5,-527.5 321.5,-486.5 179.5,-486.5"/>
<text text-anchor="start" x="187.5" y="-515.5" font-family="Helvetica,sans-Serif" font-size="10.00">marian::EncoderDecoder</text>
<text text-anchor="start" x="187.5" y="-504.5" font-family="Helvetica,sans-Serif" font-size="10.00">&lt; EncoderS2S, DecoderS2S</text>
<text text-anchor="middle" x="250.5" y="-493.5" font-family="Helvetica,sans-Serif" font-size="10.00"> &gt;::clear</text>
</a>
</g>
</g>
<!-- Node1&#45;&gt;Node2 -->
<g id="edge1" class="edge"><title>Node1&#45;&gt;Node2</title>
<path fill="none" stroke="midnightblue" d="M75.0876,-249.017C83.0194,-290.745 110.727,-409.456 179,-477 180.093,-478.082 181.232,-479.127 182.409,-480.137"/>
<polygon fill="midnightblue" stroke="midnightblue" points="180.565,-483.127 190.674,-486.298 184.749,-477.515 180.565,-483.127"/>
</g>
<!-- Node3 -->
<g id="node3" class="node"><title>Node3</title>
<g id="a_node3"><a xlink:href="../../d7/d2c/classmarian_1_1EncoderDecoder.html#ad4e4f2b699812b5e082ebc10f31ab433" target="_top" xlink:title="marian::EncoderDecoder\l\&lt; EncoderS2S, DecoderS2S\l \&gt;::startState">
<polygon fill="white" stroke="black" points="179.5,-426.5 179.5,-467.5 321.5,-467.5 321.5,-426.5 179.5,-426.5"/>
<text text-anchor="start" x="187.5" y="-455.5" font-family="Helvetica,sans-Serif" font-size="10.00">marian::EncoderDecoder</text>
<text text-anchor="start" x="187.5" y="-444.5" font-family="Helvetica,sans-Serif" font-size="10.00">&lt; EncoderS2S, DecoderS2S</text>
<text text-anchor="middle" x="250.5" y="-433.5" font-family="Helvetica,sans-Serif" font-size="10.00"> &gt;::startState</text>
</a>
</g>
</g>
<!-- Node1&#45;&gt;Node3 -->
<g id="edge2" class="edge"><title>Node1&#45;&gt;Node3</title>
<path fill="none" stroke="midnightblue" d="M77.5542,-249.198C89.7107,-283.602 123.738,-368.234 179,-417 180.496,-418.32 182.059,-419.589 183.675,-420.807"/>
<polygon fill="midnightblue" stroke="midnightblue" points="181.891,-423.825 192.146,-426.487 185.79,-418.011 181.891,-423.825"/>
</g>
<!-- Node4 -->
<g id="node4" class="node"><title>Node4</title>
<g id="a_node4"><a xlink:href="../../d7/d2c/classmarian_1_1EncoderDecoder.html#a558f6af38685965b966512478de18c4b" target="_top" xlink:title="marian::EncoderDecoder\l\&lt; EncoderS2S, DecoderS2S\l \&gt;::step">
<polygon fill="white" stroke="black" points="179.5,-366.5 179.5,-407.5 321.5,-407.5 321.5,-366.5 179.5,-366.5"/>
<text text-anchor="start" x="187.5" y="-395.5" font-family="Helvetica,sans-Serif" font-size="10.00">marian::EncoderDecoder</text>
<text text-anchor="start" x="187.5" y="-384.5" font-family="Helvetica,sans-Serif" font-size="10.00">&lt; EncoderS2S, DecoderS2S</text>
<text text-anchor="middle" x="250.5" y="-373.5" font-family="Helvetica,sans-Serif" font-size="10.00"> &gt;::step</text>
</a>
</g>
</g>
<!-- Node1&#45;&gt;Node4 -->
<g id="edge3" class="edge"><title>Node1&#45;&gt;Node4</title>
<path fill="none" stroke="midnightblue" d="M82.2364,-249.21C99.1614,-274.6 136.311,-325.892 179,-357 181.069,-358.508 183.226,-359.959 185.446,-361.353"/>
<polygon fill="midnightblue" stroke="midnightblue" points="183.854,-364.475 194.263,-366.446 187.355,-358.413 183.854,-364.475"/>
</g>
<!-- Node5 -->
<g id="node5" class="node"><title>Node5</title>
<g id="a_node5"><a xlink:href="../../da/d22/namespacemarian.html#a8ccb9507a69a32ecd48410fd1557f209" target="_top" xlink:title="marian::weighted_average">
<polygon fill="white" stroke="black" points="185,-328.5 185,-347.5 316,-347.5 316,-328.5 185,-328.5"/>
<text text-anchor="middle" x="250.5" y="-335.5" font-family="Helvetica,sans-Serif" font-size="10.00">marian::weighted_average</text>
</a>
</g>
</g>
<!-- Node1&#45;&gt;Node5 -->
<g id="edge4" class="edge"><title>Node1&#45;&gt;Node5</title>
<path fill="none" stroke="midnightblue" d="M89.0682,-249.111C109.102,-266.724 144.447,-295.739 179,-314 186.973,-318.214 195.835,-321.913 204.51,-325.065"/>
<polygon fill="midnightblue" stroke="midnightblue" points="203.572,-328.444 214.167,-328.39 205.851,-321.825 203.572,-328.444"/>
</g>
<!-- Node6 -->
<g id="node6" class="node"><title>Node6</title>
<g id="a_node6"><a xlink:href="../../da/d22/namespacemarian.html#ab84fcdb2b1fa95f89e3921aea4027957" target="_top" xlink:title="marian::tanh">
<polygon fill="white" stroke="black" points="370,-142.5 370,-161.5 441,-161.5 441,-142.5 370,-142.5"/>
<text text-anchor="middle" x="405.5" y="-149.5" font-family="Helvetica,sans-Serif" font-size="10.00">marian::tanh</text>
</a>
</g>
</g>
<!-- Node1&#45;&gt;Node6 -->
<g id="edge5" class="edge"><title>Node1&#45;&gt;Node6</title>
<path fill="none" stroke="midnightblue" d="M111.546,-218.989C131.518,-211.682 156.336,-203.167 179,-197 240.955,-180.142 314.07,-166.704 359.868,-159.043"/>
<polygon fill="midnightblue" stroke="midnightblue" points="360.479,-162.49 369.774,-157.405 359.337,-155.584 360.479,-162.49"/>
</g>
<!-- Node7 -->
<g id="node7" class="node"><title>Node7</title>
<g id="a_node7"><a xlink:href="../../d5/d22/classmarian_1_1EncoderDecoderRec.html#a470e9aaddae95fc1a1d5ecaabf06a1fe" target="_top" xlink:title="marian::EncoderDecoderRec\l::reconstructorGroundTruth">
<polygon fill="white" stroke="black" points="179,-241 179,-271 322,-271 322,-241 179,-241"/>
<text text-anchor="start" x="187" y="-259" font-family="Helvetica,sans-Serif" font-size="10.00">marian::EncoderDecoderRec</text>
<text text-anchor="middle" x="250.5" y="-248" font-family="Helvetica,sans-Serif" font-size="10.00">::reconstructorGroundTruth</text>
</a>
</g>
</g>
<!-- Node1&#45;&gt;Node7 -->
<g id="edge6" class="edge"><title>Node1&#45;&gt;Node7</title>
<path fill="none" stroke="midnightblue" d="M143.218,-242.79C151.662,-243.839 160.331,-244.917 168.9,-245.982"/>
<polygon fill="midnightblue" stroke="midnightblue" points="168.539,-249.464 178.894,-247.224 169.402,-242.517 168.539,-249.464"/>
</g>
<!-- Node8 -->
<g id="node8" class="node"><title>Node8</title>
<g id="a_node8"><a xlink:href="../../da/d22/namespacemarian.html#ace1e9a63d52edc363d70d661cf8d0257" target="_top" xlink:title="marian::rows">
<polygon fill="white" stroke="black" points="369,-344.5 369,-363.5 442,-363.5 442,-344.5 369,-344.5"/>
<text text-anchor="middle" x="405.5" y="-351.5" font-family="Helvetica,sans-Serif" font-size="10.00">marian::rows</text>
</a>
</g>
</g>
<!-- Node1&#45;&gt;Node8 -->
<g id="edge22" class="edge"><title>Node1&#45;&gt;Node8</title>
<path fill="none" stroke="midnightblue" d="M103.208,-249.079C124.212,-259.012 152.876,-271.827 179,-281 241.048,-302.786 259.981,-297.133 322,-319 338.513,-324.822 341.894,-328.132 358,-335 362.267,-336.819 366.768,-338.703 371.221,-340.545"/>
<polygon fill="midnightblue" stroke="midnightblue" points="370.207,-343.912 380.787,-344.472 372.865,-337.437 370.207,-343.912"/>
</g>
<!-- Node9 -->
<g id="node9" class="node"><title>Node9</title>
<g id="a_node9"><a xlink:href="../../da/d22/namespacemarian.html#acd984f43188d0ae23c2a6ef13ae5293f" target="_top" xlink:title="marian::reshape">
<polygon fill="white" stroke="black" points="362.5,-180.5 362.5,-199.5 448.5,-199.5 448.5,-180.5 362.5,-180.5"/>
<text text-anchor="middle" x="405.5" y="-187.5" font-family="Helvetica,sans-Serif" font-size="10.00">marian::reshape</text>
</a>
</g>
</g>
<!-- Node1&#45;&gt;Node9 -->
<g id="edge23" class="edge"><title>Node1&#45;&gt;Node9</title>
<path fill="none" stroke="midnightblue" d="M143.315,-224.615C205.884,-216.323 295.703,-204.419 352.034,-196.953"/>
<polygon fill="midnightblue" stroke="midnightblue" points="352.695,-200.396 362.148,-195.613 351.775,-193.457 352.695,-200.396"/>
</g>
<!-- Node14 -->
<g id="node14" class="node"><title>Node14</title>
<g id="a_node14"><a xlink:href="../../d5/d22/classmarian_1_1EncoderDecoderRec.html#ac3a359e69278e31f475f4e6b6acf88e4" target="_top" xlink:title="marian::EncoderDecoderRec\l::reconstructorStep">
<polygon fill="white" stroke="black" points="179,-115 179,-145 322,-145 322,-115 179,-115"/>
<text text-anchor="start" x="187" y="-133" font-family="Helvetica,sans-Serif" font-size="10.00">marian::EncoderDecoderRec</text>
<text text-anchor="middle" x="250.5" y="-122" font-family="Helvetica,sans-Serif" font-size="10.00">::reconstructorStep</text>
</a>
</g>
</g>
<!-- Node1&#45;&gt;Node14 -->
<g id="edge13" class="edge"><title>Node1&#45;&gt;Node14</title>
<path fill="none" stroke="midnightblue" d="M91.7358,-218.825C112.485,-202.896 146.878,-177.748 179,-160 185.876,-156.201 193.333,-152.557 200.735,-149.201"/>
<polygon fill="midnightblue" stroke="midnightblue" points="202.289,-152.341 210.034,-145.112 199.471,-145.933 202.289,-152.341"/>
</g>
<!-- Node20 -->
<g id="node20" class="node"><title>Node20</title>
<g id="a_node20"><a xlink:href="../../da/d22/namespacemarian.html#a2791a2c8f79a938f5cb22ae613680675" target="_top" xlink:title="marian::concatenate">
<polygon fill="white" stroke="black" points="198,-76.5 198,-95.5 303,-95.5 303,-76.5 198,-76.5"/>
<text text-anchor="middle" x="250.5" y="-83.5" font-family="Helvetica,sans-Serif" font-size="10.00">marian::concatenate</text>
</a>
</g>
</g>
<!-- Node1&#45;&gt;Node20 -->
<g id="edge21" class="edge"><title>Node1&#45;&gt;Node20</title>
<path fill="none" stroke="midnightblue" d="M80.9049,-218.835C96.5935,-191.948 132.955,-135.945 179,-106 182.99,-103.405 187.318,-101.142 191.802,-99.1684"/>
<polygon fill="midnightblue" stroke="midnightblue" points="193.123,-102.41 201.165,-95.5112 190.576,-95.8898 193.123,-102.41"/>
</g>
<!-- Node21 -->
<g id="node21" class="node"><title>Node21</title>
<g id="a_node21"><a xlink:href="../../da/d22/namespacemarian.html#a15ec9743709e47180378db974ddbf116" target="_top" xlink:title="marian::mean">
<polygon fill="white" stroke="black" points="212.5,-38.5 212.5,-57.5 288.5,-57.5 288.5,-38.5 212.5,-38.5"/>
<text text-anchor="middle" x="250.5" y="-45.5" font-family="Helvetica,sans-Serif" font-size="10.00">marian::mean</text>
</a>
</g>
</g>
<!-- Node1&#45;&gt;Node21 -->
<g id="edge24" class="edge"><title>Node1&#45;&gt;Node21</title>
<path fill="none" stroke="midnightblue" d="M77.7837,-218.871C90.0803,-185.943 123.835,-107.49 179,-67 185.978,-61.8785 194.249,-58.1373 202.627,-55.4045"/>
<polygon fill="midnightblue" stroke="midnightblue" points="203.765,-58.7201 212.439,-52.6374 201.865,-51.9829 203.765,-58.7201"/>
</g>
<!-- Node22 -->
<g id="node22" class="node"><title>Node22</title>
<g id="a_node22"><a xlink:href="../../da/d22/namespacemarian.html#a7bed97354565d7b751bed999c6c203e3" target="_top" xlink:title="marian::scalar_product">
<polygon fill="white" stroke="black" points="192.5,-0.5 192.5,-19.5 308.5,-19.5 308.5,-0.5 192.5,-0.5"/>
<text text-anchor="middle" x="250.5" y="-7.5" font-family="Helvetica,sans-Serif" font-size="10.00">marian::scalar_product</text>
</a>
</g>
</g>
<!-- Node1&#45;&gt;Node22 -->
<g id="edge25" class="edge"><title>Node1&#45;&gt;Node22</title>
<path fill="none" stroke="midnightblue" d="M75.8687,-218.97C85.1821,-180.99 114.938,-80.5355 179,-29 181.269,-27.175 183.698,-25.5245 186.24,-24.0319"/>
<polygon fill="midnightblue" stroke="midnightblue" points="187.863,-27.1337 195.253,-19.5415 184.741,-20.8683 187.863,-27.1337"/>
</g>
<!-- Node7&#45;&gt;Node8 -->
<g id="edge7" class="edge"><title>Node7&#45;&gt;Node8</title>
<path fill="none" stroke="midnightblue" d="M296.77,-271.002C305.63,-275.08 314.492,-280.055 322,-286 343.186,-302.776 336.694,-318.377 358,-335 360.256,-336.76 362.698,-338.381 365.24,-339.87"/>
<polygon fill="midnightblue" stroke="midnightblue" points="363.655,-342.99 374.151,-344.432 366.845,-336.759 363.655,-342.99"/>
</g>
<!-- Node7&#45;&gt;Node9 -->
<g id="edge8" class="edge"><title>Node7&#45;&gt;Node9</title>
<path fill="none" stroke="midnightblue" d="M287.031,-240.955C298.229,-236.194 310.639,-230.896 322,-226 338.952,-218.695 357.826,-210.466 373.238,-203.722"/>
<polygon fill="midnightblue" stroke="midnightblue" points="375.055,-206.747 382.811,-199.529 372.247,-200.335 375.055,-206.747"/>
</g>
<!-- Node10 -->
<g id="node10" class="node"><title>Node10</title>
<g id="a_node10"><a xlink:href="../../d5/d49/amunmt_8cpp.html#a2e8ddb8bd2f3405f554c9f2c52277f4b" target="_top" xlink:title="init">
<polygon fill="white" stroke="black" points="391,-306.5 391,-325.5 420,-325.5 420,-306.5 391,-306.5"/>
<text text-anchor="middle" x="405.5" y="-313.5" font-family="Helvetica,sans-Serif" font-size="10.00">init</text>
</a>
</g>
</g>
<!-- Node7&#45;&gt;Node10 -->
<g id="edge9" class="edge"><title>Node7&#45;&gt;Node10</title>
<path fill="none" stroke="midnightblue" d="M290.108,-271.141C318.923,-282.441 357.334,-297.504 381.493,-306.978"/>
<polygon fill="midnightblue" stroke="midnightblue" points="380.318,-310.276 390.905,-310.669 382.874,-303.759 380.318,-310.276"/>
</g>
<!-- Node12 -->
<g id="node12" class="node"><title>Node12</title>
<g id="a_node12"><a xlink:href="../../d4/dec/namespacemarian_1_1inits.html#ab9566318ddbacd376c74cdbdfac091e4" target="_top" xlink:title="marian::inits::from\l_vector">
<polygon fill="white" stroke="black" points="358,-257 358,-287 453,-287 453,-257 358,-257"/>
<text text-anchor="start" x="366" y="-275" font-family="Helvetica,sans-Serif" font-size="10.00">marian::inits::from</text>
<text text-anchor="middle" x="405.5" y="-264" font-family="Helvetica,sans-Serif" font-size="10.00">_vector</text>
</a>
</g>
</g>
<!-- Node7&#45;&gt;Node12 -->
<g id="edge11" class="edge"><title>Node7&#45;&gt;Node12</title>
<path fill="none" stroke="midnightblue" d="M322.178,-263.391C330.75,-264.288 339.421,-265.194 347.755,-266.066"/>
<polygon fill="midnightblue" stroke="midnightblue" points="347.416,-269.549 357.726,-267.109 348.144,-262.587 347.416,-269.549"/>
</g>
<!-- Node13 -->
<g id="node13" class="node"><title>Node13</title>
<g id="a_node13"><a xlink:href="../../da/d22/namespacemarian.html#a763e5e9b5d5a329d2420fe9bab95476d" target="_top" xlink:title="marian::shift">
<polygon fill="white" stroke="black" points="511.5,-218.5 511.5,-237.5 582.5,-237.5 582.5,-218.5 511.5,-218.5"/>
<text text-anchor="middle" x="547" y="-225.5" font-family="Helvetica,sans-Serif" font-size="10.00">marian::shift</text>
</a>
</g>
</g>
<!-- Node7&#45;&gt;Node13 -->
<g id="edge12" class="edge"><title>Node7&#45;&gt;Node13</title>
<path fill="none" stroke="midnightblue" d="M322.04,-249.293C377.686,-244.003 453.608,-236.784 501.208,-232.259"/>
<polygon fill="midnightblue" stroke="midnightblue" points="501.586,-235.739 511.209,-231.308 500.923,-228.77 501.586,-235.739"/>
</g>
<!-- Node11 -->
<g id="node11" class="node"><title>Node11</title>
<g id="a_node11"><a xlink:href="../../d7/d4e/classamunmt_1_1God.html#add49c80e570f5be5b2802565458f1c36" target="_top" xlink:title="amunmt::God::Init">
<polygon fill="white" stroke="black" points="499.5,-306.5 499.5,-325.5 594.5,-325.5 594.5,-306.5 499.5,-306.5"/>
<text text-anchor="middle" x="547" y="-313.5" font-family="Helvetica,sans-Serif" font-size="10.00">amunmt::God::Init</text>
</a>
</g>
</g>
<!-- Node10&#45;&gt;Node11 -->
<g id="edge10" class="edge"><title>Node10&#45;&gt;Node11</title>
<path fill="none" stroke="midnightblue" d="M420.13,-316C436.158,-316 463.793,-316 489.093,-316"/>
<polygon fill="midnightblue" stroke="midnightblue" points="489.38,-319.5 499.38,-316 489.38,-312.5 489.38,-319.5"/>
</g>
<!-- Node14&#45;&gt;Node6 -->
<g id="edge20" class="edge"><title>Node14&#45;&gt;Node6</title>
<path fill="none" stroke="midnightblue" d="M322.178,-140.163C335.016,-142.009 348.075,-143.887 359.896,-145.586"/>
<polygon fill="midnightblue" stroke="midnightblue" points="359.532,-149.07 369.928,-147.029 360.528,-142.141 359.532,-149.07"/>
</g>
<!-- Node15 -->
<g id="node15" class="node"><title>Node15</title>
<g id="a_node15"><a xlink:href="../../da/d22/namespacemarian.html#a268400392f22176821c7c4a36733b178" target="_top" xlink:title="marian::dropout">
<polygon fill="white" stroke="black" points="363.5,-104.5 363.5,-123.5 447.5,-123.5 447.5,-104.5 363.5,-104.5"/>
<text text-anchor="middle" x="405.5" y="-111.5" font-family="Helvetica,sans-Serif" font-size="10.00">marian::dropout</text>
</a>
</g>
</g>
<!-- Node14&#45;&gt;Node15 -->
<g id="edge14" class="edge"><title>Node14&#45;&gt;Node15</title>
<path fill="none" stroke="midnightblue" d="M322.178,-122.609C332.638,-121.515 343.244,-120.406 353.208,-119.364"/>
<polygon fill="midnightblue" stroke="midnightblue" points="353.744,-122.827 363.326,-118.306 353.016,-115.865 353.744,-122.827"/>
</g>
<!-- Node15&#45;&gt;Node13 -->
<g id="edge16" class="edge"><title>Node15&#45;&gt;Node13</title>
<path fill="none" stroke="midnightblue" d="M437.548,-123.526C443.044,-126.064 448.456,-129.19 453,-133 475.961,-152.25 468.076,-168.553 489,-190 497.648,-198.864 508.691,-206.804 518.75,-213.105"/>
<polygon fill="midnightblue" stroke="midnightblue" points="517.236,-216.278 527.614,-218.411 520.831,-210.272 517.236,-216.278"/>
</g>
<!-- Node16 -->
<g id="node16" class="node"><title>Node16</title>
<g id="a_node16"><a xlink:href="../../d4/d04/namespacemarian_1_1keywords.html#a74d7a2502faafdd421ef3dff629e284f" target="_top" xlink:title="marian::keywords::Get">
<polygon fill="white" stroke="black" points="489,-85.5 489,-104.5 605,-104.5 605,-85.5 489,-85.5"/>
<text text-anchor="middle" x="547" y="-92.5" font-family="Helvetica,sans-Serif" font-size="10.00">marian::keywords::Get</text>
</a>
</g>
</g>
<!-- Node15&#45;&gt;Node16 -->
<g id="edge15" class="edge"><title>Node15&#45;&gt;Node16</title>
<path fill="none" stroke="midnightblue" d="M447.6,-108.402C457.406,-107.067 468.126,-105.607 478.768,-104.157"/>
<polygon fill="midnightblue" stroke="midnightblue" points="479.478,-107.593 488.914,-102.775 478.533,-100.657 479.478,-107.593"/>
</g>
<!-- Node17 -->
<g id="node17" class="node"><title>Node17</title>
<g id="a_node17"><a xlink:href="../../da/d22/namespacemarian.html#a3dbe8b5eb203876cd08cf3fe75a1c6bc" target="_top" xlink:title="marian::convolution">
<polygon fill="white" stroke="black" points="496.5,-47.5 496.5,-66.5 597.5,-66.5 597.5,-47.5 496.5,-47.5"/>
<text text-anchor="middle" x="547" y="-54.5" font-family="Helvetica,sans-Serif" font-size="10.00">marian::convolution</text>
</a>
</g>
</g>
<!-- Node15&#45;&gt;Node17 -->
<g id="edge17" class="edge"><title>Node15&#45;&gt;Node17</title>
<path fill="none" stroke="midnightblue" d="M425.577,-104.487C442.134,-96.406 466.858,-84.7591 489,-76 494.274,-73.9136 499.879,-71.8563 505.437,-69.9099"/>
<polygon fill="midnightblue" stroke="midnightblue" points="506.973,-73.0842 515.308,-66.5438 504.713,-66.4589 506.973,-73.0842"/>
</g>
<!-- Node18 -->
<g id="node18" class="node"><title>Node18</title>
<g id="a_node18"><a xlink:href="../../da/d22/namespacemarian.html#a8ee119d3ee4867a3c826de62ea1de4f5" target="_top" xlink:title="marian::avg_pooling">
<polygon fill="white" stroke="black" points="495,-161.5 495,-180.5 599,-180.5 599,-161.5 495,-161.5"/>
<text text-anchor="middle" x="547" y="-168.5" font-family="Helvetica,sans-Serif" font-size="10.00">marian::avg_pooling</text>
</a>
</g>
</g>
<!-- Node15&#45;&gt;Node18 -->
<g id="edge18" class="edge"><title>Node15&#45;&gt;Node18</title>
<path fill="none" stroke="midnightblue" d="M431.309,-123.614C438.378,-126.494 446.046,-129.754 453,-133 469.393,-140.653 472.363,-144.893 489,-152 494.036,-154.151 499.404,-156.219 504.756,-158.147"/>
<polygon fill="midnightblue" stroke="midnightblue" points="503.701,-161.486 514.296,-161.456 505.994,-154.873 503.701,-161.486"/>
</g>
<!-- Node19 -->
<g id="node19" class="node"><title>Node19</title>
<g id="a_node19"><a xlink:href="../../da/d22/namespacemarian.html#abfe3b8c37f479da0a31a1e843d8bdedf" target="_top" xlink:title="marian::max_pooling">
<polygon fill="white" stroke="black" points="493.5,-123.5 493.5,-142.5 600.5,-142.5 600.5,-123.5 493.5,-123.5"/>
<text text-anchor="middle" x="547" y="-130.5" font-family="Helvetica,sans-Serif" font-size="10.00">marian::max_pooling</text>
</a>
</g>
</g>
<!-- Node15&#45;&gt;Node19 -->
<g id="edge19" class="edge"><title>Node15&#45;&gt;Node19</title>
<path fill="none" stroke="midnightblue" d="M447.6,-119.598C458.776,-121.12 471.141,-122.804 483.223,-124.45"/>
<polygon fill="midnightblue" stroke="midnightblue" points="482.893,-127.937 493.273,-125.819 483.837,-121.001 482.893,-127.937"/>
</g>
</g>
</svg>
        <g id="navigator" transform="translate(0 0)" fill="#404254">
                <rect fill="#f2f5e9" fill-opacity="0.5" stroke="#606060" stroke-width=".5" x="0" y="0" width="60" height="60"/>
                <use id="zoomplus" xlink:href="#zoomPlus" x="17" y="9" onmousedown="handleZoom(evt,'in')"/>
                <use id="zoomminus" xlink:href="#zoomMin" x="42" y="9" onmousedown="handleZoom(evt,'out')"/>
                <use id="reset" xlink:href="#resetDef" x="30" y="36" onmousedown="handleReset()"/>
                <g id="arrowUp" xlink:href="#dirArrow" transform="translate(30 24)" onmousedown="handlePan(0,-1)">
                  <use xlink:href="#rim" fill="#404040">
                        <set attributeName="fill" to="#808080" begin="arrowUp.mouseover" end="arrowUp.mouseout"/>
                  </use>
                  <path fill="none" stroke="white" stroke-width="1.5" d="M0,-3.0v7 M-2.5,-0.5L0,-3.0L2.5,-0.5"/>
                </g>
                <g id="arrowRight" xlink:href="#dirArrow" transform="rotate(90) translate(36 -43)" onmousedown="handlePan(1,0)">
                  <use xlink:href="#rim" fill="#404040">
                        <set attributeName="fill" to="#808080" begin="arrowRight.mouseover" end="arrowRight.mouseout"/>
                  </use>
                  <path fill="none" stroke="white" stroke-width="1.5" d="M0,-3.0v7 M-2.5,-0.5L0,-3.0L2.5,-0.5"/>
                </g>
                <g id="arrowDown" xlink:href="#dirArrow" transform="rotate(180) translate(-30 -48)" onmousedown="handlePan(0,1)">
                  <use xlink:href="#rim" fill="#404040">
                        <set attributeName="fill" to="#808080" begin="arrowDown.mouseover" end="arrowDown.mouseout"/>
                  </use>
                  <path fill="none" stroke="white" stroke-width="1.5" d="M0,-3.0v7 M-2.5,-0.5L0,-3.0L2.5,-0.5"/>
                </g>
                <g id="arrowLeft" xlink:href="#dirArrow" transform="rotate(270) translate(-36 17)" onmousedown="handlePan(-1,0)">
                  <use xlink:href="#rim" fill="#404040">
                        <set attributeName="fill" to="#808080" begin="arrowLeft.mouseover" end="arrowLeft.mouseout"/>
                  </use>
                  <path fill="none" stroke="white" stroke-width="1.5" d="M0,-3.0v7 M-2.5,-0.5L0,-3.0L2.5,-0.5"/>
                </g>
        </g>
        <svg viewBox="0 0 15 15" width="100%" height="30px" preserveAspectRatio="xMaxYMin meet">
         <g id="arrow_out" transform="scale(0.3 0.3)">
          <a xlink:href="classmarian_1_1EncoderDecoderRec_a5d7be4c554cdd6752a8ee5964ff116c2_cgraph_org.svg" target="_base">
           <rect id="button" ry="5" rx="5" y="6" x="6" height="38" width="38"
                fill="#f2f5e9" fill-opacity="0.5" stroke="#606060" stroke-width="1.0"/>
           <path id="arrow"
             d="M 11.500037,31.436501 C 11.940474,20.09759 22.043105,11.32322 32.158766,21.979434 L 37.068811,17.246167 C 37.068811,17.246167 37.088388,32 37.088388,32 L 22.160133,31.978069 C 22.160133,31.978069 26.997745,27.140456 26.997745,27.140456 C 18.528582,18.264221 13.291696,25.230495 11.500037,31.436501 z"
             style="fill:#404040;"/>
          </a>
         </g>
        </svg>
</svg>
