<?xml version="1.0" encoding="UTF-8" standalone="no"?>
<!DOCTYPE svg PUBLIC "-//W3C//DTD SVG 1.1//EN"
 "http://www.w3.org/Graphics/SVG/1.1/DTD/svg11.dtd">
<!-- Generated by graphviz version 2.38.0 (20140413.2041)
 -->
<!-- Title: amunmt::Search Pages: 1 -->
<svg width="376pt" height="314pt"
 viewBox="0.00 0.00 375.50 314.00" xmlns="http://www.w3.org/2000/svg" xmlns:xlink="http://www.w3.org/1999/xlink">
<g id="graph0" class="graph" transform="scale(1 1) rotate(0) translate(4 310)">
<title>amunmt::Search</title>
<polygon fill="white" stroke="none" points="-4,4 -4,-310 371.5,-310 371.5,4 -4,4"/>
<!-- Node1 -->
<g id="node1" class="node"><title>Node1</title>
<polygon fill="#bfbfbf" stroke="black" points="113,-0.5 113,-178.5 238,-178.5 238,-0.5 113,-0.5"/>
<text text-anchor="middle" x="175.5" y="-166.5" font-family="Helvetica,sans-Serif" font-size="10.00">amunmt::Search</text>
<polyline fill="none" stroke="black" points="113,-159.5 238,-159.5 "/>
<text text-anchor="start" x="121" y="-147.5" font-family="Helvetica,sans-Serif" font-size="10.00"># filter_</text>
<text text-anchor="start" x="121" y="-136.5" font-family="Helvetica,sans-Serif" font-size="10.00"># maxBeamSize_</text>
<text text-anchor="start" x="121" y="-125.5" font-family="Helvetica,sans-Serif" font-size="10.00"># normalizeScore_</text>
<text text-anchor="start" x="121" y="-114.5" font-family="Helvetica,sans-Serif" font-size="10.00"># bestHyps_</text>
<polyline fill="none" stroke="black" points="113,-107.5 238,-107.5 "/>
<text text-anchor="start" x="121" y="-95.5" font-family="Helvetica,sans-Serif" font-size="10.00">+ Search()</text>
<text text-anchor="start" x="121" y="-84.5" font-family="Helvetica,sans-Serif" font-size="10.00">+ ~Search()</text>
<text text-anchor="start" x="121" y="-73.5" font-family="Helvetica,sans-Serif" font-size="10.00">+ Translate()</text>
<text text-anchor="start" x="121" y="-62.5" font-family="Helvetica,sans-Serif" font-size="10.00"># NewStates()</text>
<text text-anchor="start" x="121" y="-51.5" font-family="Helvetica,sans-Serif" font-size="10.00"># FilterTargetVocab()</text>
<text text-anchor="start" x="121" y="-40.5" font-family="Helvetica,sans-Serif" font-size="10.00"># Encode()</text>
<text text-anchor="start" x="121" y="-29.5" font-family="Helvetica,sans-Serif" font-size="10.00"># CleanAfterTranslation()</text>
<text text-anchor="start" x="121" y="-18.5" font-family="Helvetica,sans-Serif" font-size="10.00"># CalcBeam()</text>
<text text-anchor="start" x="121" y="-7.5" font-family="Helvetica,sans-Serif" font-size="10.00"># Search()</text>
</g>
<!-- Node2 -->
<g id="node2" class="node"><title>Node2</title>
<g id="a_node2"><a xlink:href="../../db/d1f/structamunmt_1_1DeviceInfo.html" target="_top" xlink:title="{amunmt::DeviceInfo\n|+ deviceType\l+ threadInd\l+ deviceId\l|}">
<polygon fill="white" stroke="black" points="0,-226.5 0,-305.5 105,-305.5 105,-226.5 0,-226.5"/>
<text text-anchor="middle" x="52.5" y="-293.5" font-family="Helvetica,sans-Serif" font-size="10.00">amunmt::DeviceInfo</text>
<polyline fill="none" stroke="black" points="0,-286.5 105,-286.5 "/>
<text text-anchor="start" x="8" y="-274.5" font-family="Helvetica,sans-Serif" font-size="10.00">+ deviceType</text>
<text text-anchor="start" x="8" y="-263.5" font-family="Helvetica,sans-Serif" font-size="10.00">+ threadInd</text>
<text text-anchor="start" x="8" y="-252.5" font-family="Helvetica,sans-Serif" font-size="10.00">+ deviceId</text>
<polyline fill="none" stroke="black" points="0,-245.5 105,-245.5 "/>
<text text-anchor="middle" x="52.5" y="-233.5" font-family="Helvetica,sans-Serif" font-size="10.00"> </text>
</a>
</g>
</g>
<!-- Node2&#45;&gt;Node1 -->
<g id="edge1" class="edge"><title>Node2&#45;&gt;Node1</title>
<path fill="none" stroke="#404040" d="M79.7977,-226.273C87.7499,-214.991 96.8208,-202.122 106.136,-188.906"/>
<polygon fill="none" stroke="#404040" points="106.38,-188.561 106.567,-181.352 113.293,-178.752 113.106,-185.961 106.38,-188.561"/>
<text text-anchor="middle" x="129" y="-200" font-family="Helvetica,sans-Serif" font-size="10.00"> #deviceInfo_</text>
</g>
<!-- Node3 -->
<g id="node3" class="node"><title>Node3</title>
<polygon fill="white" stroke="#bfbfbf" points="123.5,-237.5 123.5,-294.5 227.5,-294.5 227.5,-237.5 123.5,-237.5"/>
<text text-anchor="middle" x="175.5" y="-282.5" font-family="Helvetica,sans-Serif" font-size="10.00">std::vector&lt; Word &gt;</text>
<polyline fill="none" stroke="#bfbfbf" points="123.5,-275.5 227.5,-275.5 "/>
<text text-anchor="middle" x="175.5" y="-263.5" font-family="Helvetica,sans-Serif" font-size="10.00"> </text>
<polyline fill="none" stroke="#bfbfbf" points="123.5,-256.5 227.5,-256.5 "/>
<text text-anchor="middle" x="175.5" y="-244.5" font-family="Helvetica,sans-Serif" font-size="10.00"> </text>
</g>
<!-- Node3&#45;&gt;Node1 -->
<g id="edge2" class="edge"><title>Node3&#45;&gt;Node1</title>
<path fill="none" stroke="#404040" d="M175.5,-237.35C175.5,-224.435 175.5,-208.184 175.5,-191.237"/>
<polygon fill="none" stroke="#404040" points="175.5,-190.811 171.5,-184.811 175.5,-178.811 179.5,-184.811 175.5,-190.811"/>
<text text-anchor="middle" x="207.5" y="-200" font-family="Helvetica,sans-Serif" font-size="10.00"> #filterIndices_</text>
</g>
<!-- Node4 -->
<g id="node4" class="node"><title>Node4</title>
<polygon fill="white" stroke="#bfbfbf" points="245.5,-237.5 245.5,-294.5 367.5,-294.5 367.5,-237.5 245.5,-237.5"/>
<text text-anchor="middle" x="306.5" y="-282.5" font-family="Helvetica,sans-Serif" font-size="10.00">std::vector&lt; ScorerPtr &gt;</text>
<polyline fill="none" stroke="#bfbfbf" points="245.5,-275.5 367.5,-275.5 "/>
<text text-anchor="middle" x="306.5" y="-263.5" font-family="Helvetica,sans-Serif" font-size="10.00"> </text>
<polyline fill="none" stroke="#bfbfbf" points="245.5,-256.5 367.5,-256.5 "/>
<text text-anchor="middle" x="306.5" y="-244.5" font-family="Helvetica,sans-Serif" font-size="10.00"> </text>
</g>
<!-- Node4&#45;&gt;Node1 -->
<g id="edge3" class="edge"><title>Node4&#45;&gt;Node1</title>
<path fill="none" stroke="#404040" d="M285.743,-237.35C274.583,-222.484 260.103,-203.197 245.329,-183.516"/>
<polygon fill="none" stroke="#404040" points="245.27,-183.438 238.469,-181.041 238.065,-173.841 244.867,-176.238 245.27,-183.438"/>
<text text-anchor="middle" x="283.5" y="-200" font-family="Helvetica,sans-Serif" font-size="10.00"> #scorers_</text>
</g>
</g>
</svg>
