<?xml version="1.0" encoding="UTF-8" standalone="no"?>
<!DOCTYPE svg PUBLIC "-//W3C//DTD SVG 1.1//EN"
 "http://www.w3.org/Graphics/SVG/1.1/DTD/svg11.dtd">
<!-- Generated by graphviz version 2.38.0 (20140413.2041)
 -->
<!-- Title: marian::Config::has Pages: 1 -->
<svg width="412pt" height="85pt"
 viewBox="0.00 0.00 412.00 85.00" xmlns="http://www.w3.org/2000/svg" xmlns:xlink="http://www.w3.org/1999/xlink">
<g id="graph0" class="graph" transform="scale(1 1) rotate(0) translate(4 81)">
<title>marian::Config::has</title>
<polygon fill="white" stroke="none" points="-4,4 -4,-81 408,-81 408,4 -4,4"/>
<!-- Node1 -->
<g id="node1" class="node"><title>Node1</title>
<polygon fill="#bfbfbf" stroke="black" points="0,-38.5 0,-57.5 102,-57.5 102,-38.5 0,-38.5"/>
<text text-anchor="middle" x="51" y="-45.5" font-family="Helvetica,sans-Serif" font-size="10.00">marian::Config::has</text>
</g>
<!-- Node2 -->
<g id="node2" class="node"><title>Node2</title>
<g id="a_node2"><a xlink:href="../../d6/dba/classmarian_1_1Config.html#a13774d365b7b891e2f14078832032aff" target="_top" xlink:title="marian::Config::Config">
<polygon fill="white" stroke="black" points="138,-57.5 138,-76.5 253,-76.5 253,-57.5 138,-57.5"/>
<text text-anchor="middle" x="195.5" y="-64.5" font-family="Helvetica,sans-Serif" font-size="10.00">marian::Config::Config</text>
</a>
</g>
</g>
<!-- Node1&#45;&gt;Node2 -->
<g id="edge1" class="edge"><title>Node1&#45;&gt;Node2</title>
<path fill="none" stroke="midnightblue" d="M112.416,-56.0554C120.87,-57.1826 129.532,-58.3376 137.912,-59.4549"/>
<polygon fill="midnightblue" stroke="midnightblue" points="112.615,-52.5511 102.24,-54.6987 111.69,-59.4897 112.615,-52.5511"/>
</g>
<!-- Node3 -->
<g id="node3" class="node"><title>Node3</title>
<g id="a_node3"><a xlink:href="../../d2/d47/marian_2src_2common_2logging_8h.html#a32a13f91eb216c334ec310b2a8a2f10c" target="_top" xlink:title="createLoggers">
<polygon fill="white" stroke="black" points="156.5,-19.5 156.5,-38.5 234.5,-38.5 234.5,-19.5 156.5,-19.5"/>
<text text-anchor="middle" x="195.5" y="-26.5" font-family="Helvetica,sans-Serif" font-size="10.00">createLoggers</text>
</a>
</g>
</g>
<!-- Node1&#45;&gt;Node3 -->
<g id="edge2" class="edge"><title>Node1&#45;&gt;Node3</title>
<path fill="none" stroke="midnightblue" d="M112.416,-39.9446C127.311,-37.9586 142.853,-35.8863 156.355,-34.086"/>
<polygon fill="midnightblue" stroke="midnightblue" points="111.69,-36.5103 102.24,-41.3013 112.615,-43.4489 111.69,-36.5103"/>
</g>
<!-- Node4 -->
<g id="node4" class="node"><title>Node4</title>
<g id="a_node4"><a xlink:href="../../d6/dba/classmarian_1_1Config.html#aa953cca7c4650e7e0538f00388d9f385" target="_top" xlink:title="marian::Config::Config">
<polygon fill="white" stroke="black" points="289,-38.5 289,-57.5 404,-57.5 404,-38.5 289,-38.5"/>
<text text-anchor="middle" x="346.5" y="-45.5" font-family="Helvetica,sans-Serif" font-size="10.00">marian::Config::Config</text>
</a>
</g>
</g>
<!-- Node3&#45;&gt;Node4 -->
<g id="edge3" class="edge"><title>Node3&#45;&gt;Node4</title>
<path fill="none" stroke="midnightblue" d="M244.842,-35.1645C258.93,-36.9609 274.448,-38.9396 288.992,-40.7943"/>
<polygon fill="midnightblue" stroke="midnightblue" points="245.234,-31.6861 234.871,-33.893 244.348,-38.6299 245.234,-31.6861"/>
</g>
<!-- Node5 -->
<g id="node5" class="node"><title>Node5</title>
<g id="a_node5"><a xlink:href="../../dc/df8/iris_8cpp.html#ae66f6b31b5ad750f1fe042a706a4e3d4" target="_top" xlink:title="main">
<polygon fill="white" stroke="black" points="327.5,-0.5 327.5,-19.5 365.5,-19.5 365.5,-0.5 327.5,-0.5"/>
<text text-anchor="middle" x="346.5" y="-7.5" font-family="Helvetica,sans-Serif" font-size="10.00">main</text>
</a>
</g>
</g>
<!-- Node3&#45;&gt;Node5 -->
<g id="edge4" class="edge"><title>Node3&#45;&gt;Node5</title>
<path fill="none" stroke="midnightblue" d="M244.931,-22.8243C273.025,-19.2418 306.78,-14.9375 327.164,-12.3381"/>
<polygon fill="midnightblue" stroke="midnightblue" points="244.348,-19.3701 234.871,-24.107 245.234,-26.3139 244.348,-19.3701"/>
</g>
</g>
</svg>
