<?xml version="1.0" encoding="UTF-8" standalone="no"?>
<!DOCTYPE svg PUBLIC "-//W3C//DTD SVG 1.1//EN"
 "http://www.w3.org/Graphics/SVG/1.1/DTD/svg11.dtd">
<!-- Generated by graphviz version 2.38.0 (20140413.2041)
 -->
<!-- Title: hypothesis.h Pages: 1 -->
<!--zoomable 476 -->
<svg id="main" version="1.1" xmlns="http://www.w3.org/2000/svg" xmlns:xlink="http://www.w3.org/1999/xlink" xml:space="preserve" onload="init(evt)">
<style type="text/css"><![CDATA[
.edge:hover path { stroke: red; }
.edge:hover polygon { stroke: red; fill: red; }
]]></style>
<script type="text/javascript"><![CDATA[
var edges = document.getElementsByTagName('g');
if (edges && edges.length) {
  for (var i=0;i<edges.length;i++) {
    if (edges[i].id.substr(0,4)=='edge') {
      edges[i].setAttribute('class','edge');
    }
  }
}
]]></script>
        <defs>
                <circle id="rim" cx="0" cy="0" r="7"/>
                <circle id="rim2" cx="0" cy="0" r="3.5"/>
                <g id="zoomPlus">
                        <use xlink:href="#rim" fill="#404040">
                                <set attributeName="fill" to="#808080" begin="zoomplus.mouseover" end="zoomplus.mouseout"/>
                        </use>
                        <path d="M-4,0h8M0,-4v8" fill="none" stroke="white" stroke-width="1.5" pointer-events="none"/>
                </g>
                <g id="zoomMin">
                        <use xlink:href="#rim" fill="#404040">
                                <set attributeName="fill" to="#808080" begin="zoomminus.mouseover" end="zoomminus.mouseout"/>
                        </use>
                        <path d="M-4,0h8" fill="none" stroke="white" stroke-width="1.5" pointer-events="none"/>
                </g>
                <g id="dirArrow">
                        <path fill="none" stroke="white" stroke-width="1.5" d="M0,-3.0v7 M-2.5,-0.5L0,-3.0L2.5,-0.5"/>
                </g>
               <g id="resetDef">
                       <use xlink:href="#rim2" fill="#404040">
                               <set attributeName="fill" to="#808080" begin="reset.mouseover" end="reset.mouseout"/>
                       </use>
               </g>
        </defs>

<script type="text/javascript">
var viewWidth = 1400;
var viewHeight = 476;
var sectionId = 'dynsection-1';
</script>
<script xlink:href="../../svgpan.js"/>
<svg id="graph" class="graph">
<g id="viewport">
<title>hypothesis.h</title>
<polygon fill="white" stroke="none" points="-4,4 -4,-472 1395.5,-472 1395.5,4 -4,4"/>
<!-- Node1 -->
<g id="node1" class="node"><title>Node1</title>
<polygon fill="#bfbfbf" stroke="black" points="877.5,-448.5 877.5,-467.5 949.5,-467.5 949.5,-448.5 877.5,-448.5"/>
<text text-anchor="middle" x="913.5" y="-455.5" font-family="Helvetica,sans-Serif" font-size="10.00">hypothesis.h</text>
</g>
<!-- Node2 -->
<g id="node2" class="node"><title>Node2</title>
<g id="a_node2"><a xlink:href="../../da/d3b/scorer_8h.html" target="_top" xlink:title="scorer.h">
<polygon fill="white" stroke="black" points="887.5,-392.5 887.5,-411.5 939.5,-411.5 939.5,-392.5 887.5,-392.5"/>
<text text-anchor="middle" x="913.5" y="-399.5" font-family="Helvetica,sans-Serif" font-size="10.00">scorer.h</text>
</a>
</g>
</g>
<!-- Node1&#45;&gt;Node2 -->
<g id="edge1" class="edge"><title>Node1&#45;&gt;Node2</title>
<path fill="none" stroke="midnightblue" d="M913.5,-437.805C913.5,-428.91 913.5,-418.78 913.5,-411.751"/>
<polygon fill="midnightblue" stroke="midnightblue" points="910,-438.083 913.5,-448.083 917,-438.083 910,-438.083"/>
</g>
<!-- Node32 -->
<g id="node32" class="node"><title>Node32</title>
<g id="a_node32"><a xlink:href="../../df/dc1/amun_2common_2history_8h.html" target="_top" xlink:title="history.h">
<polygon fill="white" stroke="black" points="127.5,-224.5 127.5,-243.5 181.5,-243.5 181.5,-224.5 127.5,-224.5"/>
<text text-anchor="middle" x="154.5" y="-231.5" font-family="Helvetica,sans-Serif" font-size="10.00">history.h</text>
</a>
</g>
</g>
<!-- Node1&#45;&gt;Node32 -->
<g id="edge54" class="edge"><title>Node1&#45;&gt;Node32</title>
<path fill="none" stroke="midnightblue" d="M867.247,-454.498C769.153,-447.954 534.262,-425.693 351.5,-356 274.243,-326.539 193.76,-266.142 165.268,-243.673"/>
<polygon fill="midnightblue" stroke="midnightblue" points="867.212,-458.003 877.416,-455.152 867.661,-451.017 867.212,-458.003"/>
</g>
<!-- Node34 -->
<g id="node34" class="node"><title>Node34</title>
<g id="a_node34"><a xlink:href="../../d9/df3/hypothesis_8cpp.html" target="_top" xlink:title="hypothesis.cpp">
<polygon fill="white" stroke="black" points="958,-392.5 958,-411.5 1041,-411.5 1041,-392.5 958,-392.5"/>
<text text-anchor="middle" x="999.5" y="-399.5" font-family="Helvetica,sans-Serif" font-size="10.00">hypothesis.cpp</text>
</a>
</g>
</g>
<!-- Node1&#45;&gt;Node34 -->
<g id="edge59" class="edge"><title>Node1&#45;&gt;Node34</title>
<path fill="none" stroke="midnightblue" d="M935.955,-442.901C951.724,-432.999 972.314,-420.071 985.717,-411.655"/>
<polygon fill="midnightblue" stroke="midnightblue" points="933.925,-440.042 927.317,-448.324 937.648,-445.97 933.925,-440.042"/>
</g>
<!-- Node3 -->
<g id="node3" class="node"><title>Node3</title>
<g id="a_node3"><a xlink:href="../../d5/dbc/base__best__hyps_8h.html" target="_top" xlink:title="base_best_hyps.h">
<polygon fill="white" stroke="black" points="673.5,-336.5 673.5,-355.5 769.5,-355.5 769.5,-336.5 673.5,-336.5"/>
<text text-anchor="middle" x="721.5" y="-343.5" font-family="Helvetica,sans-Serif" font-size="10.00">base_best_hyps.h</text>
</a>
</g>
</g>
<!-- Node2&#45;&gt;Node3 -->
<g id="edge2" class="edge"><title>Node2&#45;&gt;Node3</title>
<path fill="none" stroke="midnightblue" d="M877.525,-390.882C841.294,-380.692 786.012,-365.144 751.903,-355.551"/>
<polygon fill="midnightblue" stroke="midnightblue" points="876.632,-394.267 887.206,-393.605 878.527,-387.528 876.632,-394.267"/>
</g>
<!-- Node4 -->
<g id="node4" class="node"><title>Node4</title>
<g id="a_node4"><a xlink:href="../../d4/d57/god_8h.html" target="_top" xlink:title="god.h">
<polygon fill="white" stroke="black" points="417,-224.5 417,-243.5 458,-243.5 458,-224.5 417,-224.5"/>
<text text-anchor="middle" x="437.5" y="-231.5" font-family="Helvetica,sans-Serif" font-size="10.00">god.h</text>
</a>
</g>
</g>
<!-- Node2&#45;&gt;Node4 -->
<g id="edge40" class="edge"><title>Node2&#45;&gt;Node4</title>
<path fill="none" stroke="midnightblue" d="M877.333,-397.646C828.178,-392.376 737.98,-380.163 664.5,-356 610.875,-338.366 600.326,-326.532 550.5,-300 514.343,-280.746 472.826,-256.226 451.603,-243.51"/>
<polygon fill="midnightblue" stroke="midnightblue" points="877.16,-401.147 887.468,-398.696 877.882,-394.184 877.16,-401.147"/>
</g>
<!-- Node7 -->
<g id="node7" class="node"><title>Node7</title>
<g id="a_node7"><a xlink:href="../../d3/d73/god_8cpp.html" target="_top" xlink:title="god.cpp">
<polygon fill="white" stroke="black" points="390,-168.5 390,-187.5 441,-187.5 441,-168.5 390,-168.5"/>
<text text-anchor="middle" x="415.5" y="-175.5" font-family="Helvetica,sans-Serif" font-size="10.00">god.cpp</text>
</a>
</g>
</g>
<!-- Node2&#45;&gt;Node7 -->
<g id="edge39" class="edge"><title>Node2&#45;&gt;Node7</title>
<path fill="none" stroke="midnightblue" d="M877.375,-399.675C819.891,-396.673 704.679,-386.979 612.5,-356 514.087,-322.926 460.467,-333.295 407.5,-244 396.943,-226.202 405.44,-200.858 411.235,-187.692"/>
<polygon fill="midnightblue" stroke="midnightblue" points="877.261,-403.174 887.419,-400.162 877.6,-396.182 877.261,-403.174"/>
</g>
<!-- Node14 -->
<g id="node14" class="node"><title>Node14</title>
<g id="a_node14"><a xlink:href="../../d0/d90/best__hyps_8h.html" target="_top" xlink:title="best_hyps.h">
<polygon fill="white" stroke="black" points="880.5,-168.5 880.5,-187.5 950.5,-187.5 950.5,-168.5 880.5,-168.5"/>
<text text-anchor="middle" x="915.5" y="-175.5" font-family="Helvetica,sans-Serif" font-size="10.00">best_hyps.h</text>
</a>
</g>
</g>
<!-- Node2&#45;&gt;Node14 -->
<g id="edge46" class="edge"><title>Node2&#45;&gt;Node14</title>
<path fill="none" stroke="midnightblue" d="M926.823,-384.267C941.096,-365.172 962.863,-332.383 971.5,-300 983.371,-255.492 942.947,-207.064 924.358,-187.705"/>
<polygon fill="midnightblue" stroke="midnightblue" points="924.004,-382.19 920.687,-392.252 929.555,-386.455 924.004,-382.19"/>
</g>
<!-- Node17 -->
<g id="node17" class="node"><title>Node17</title>
<g id="a_node17"><a xlink:href="../../d6/da3/language__model_8h.html" target="_top" xlink:title="language_model.h">
<polygon fill="white" stroke="black" points="1178,-56.5 1178,-75.5 1273,-75.5 1273,-56.5 1178,-56.5"/>
<text text-anchor="middle" x="1225.5" y="-63.5" font-family="Helvetica,sans-Serif" font-size="10.00">language_model.h</text>
</a>
</g>
</g>
<!-- Node2&#45;&gt;Node17 -->
<g id="edge47" class="edge"><title>Node2&#45;&gt;Node17</title>
<path fill="none" stroke="midnightblue" d="M949.971,-392.199C1053.28,-378.453 1279.73,-402.787 1353.5,-356 1381.76,-338.077 1391.5,-324.463 1391.5,-291 1391.5,-291 1391.5,-291 1391.5,-177 1391.5,-117.535 1316.56,-88.3204 1267.39,-75.5506"/>
<polygon fill="midnightblue" stroke="midnightblue" points="949.132,-388.786 939.774,-393.754 950.187,-395.706 949.132,-388.786"/>
</g>
<!-- Node19 -->
<g id="node19" class="node"><title>Node19</title>
<g id="a_node19"><a xlink:href="../../da/d6d/nmt_8h.html" target="_top" xlink:title="nmt.h">
<polygon fill="white" stroke="black" points="989,-168.5 989,-187.5 1030,-187.5 1030,-168.5 989,-168.5"/>
<text text-anchor="middle" x="1009.5" y="-175.5" font-family="Helvetica,sans-Serif" font-size="10.00">nmt.h</text>
</a>
</g>
</g>
<!-- Node2&#45;&gt;Node19 -->
<g id="edge53" class="edge"><title>Node2&#45;&gt;Node19</title>
<path fill="none" stroke="midnightblue" d="M949.69,-391.475C992.844,-379.995 1060.55,-361.552 1071.5,-356 1089.58,-346.834 1134.59,-318.209 1143.5,-300 1170.97,-243.826 1074.25,-201.721 1030.22,-185.871"/>
<polygon fill="midnightblue" stroke="midnightblue" points="948.595,-388.145 939.826,-394.092 950.39,-394.911 948.595,-388.145"/>
</g>
<!-- Node20 -->
<g id="node20" class="node"><title>Node20</title>
<g id="a_node20"><a xlink:href="../../db/db8/loader_8h.html" target="_top" xlink:title="loader.h">
<polygon fill="white" stroke="black" points="696,-280.5 696,-299.5 747,-299.5 747,-280.5 696,-280.5"/>
<text text-anchor="middle" x="721.5" y="-287.5" font-family="Helvetica,sans-Serif" font-size="10.00">loader.h</text>
</a>
</g>
</g>
<!-- Node2&#45;&gt;Node20 -->
<g id="edge41" class="edge"><title>Node2&#45;&gt;Node20</title>
<path fill="none" stroke="midnightblue" d="M884.826,-388.072C866.438,-379.515 842.217,-367.742 821.5,-356 788.895,-337.52 752.406,-312.679 733.824,-299.709"/>
<polygon fill="midnightblue" stroke="midnightblue" points="883.574,-391.349 894.121,-392.355 886.503,-384.991 883.574,-391.349"/>
</g>
<!-- Node22 -->
<g id="node22" class="node"><title>Node22</title>
<g id="a_node22"><a xlink:href="../../dc/dec/loader__factory_8cpp.html" target="_top" xlink:title="loader_factory.cpp">
<polygon fill="white" stroke="black" points="1157,-168.5 1157,-187.5 1254,-187.5 1254,-168.5 1157,-168.5"/>
<text text-anchor="middle" x="1205.5" y="-175.5" font-family="Helvetica,sans-Serif" font-size="10.00">loader_factory.cpp</text>
</a>
</g>
</g>
<!-- Node2&#45;&gt;Node22 -->
<g id="edge42" class="edge"><title>Node2&#45;&gt;Node22</title>
<path fill="none" stroke="midnightblue" d="M949.987,-392.415C1023.32,-384.856 1307.02,-386.162 1334.5,-356 1388.79,-296.411 1264.7,-214.131 1220.43,-187.608"/>
<polygon fill="midnightblue" stroke="midnightblue" points="949.23,-388.984 939.776,-393.766 950.149,-395.924 949.23,-388.984"/>
</g>
<!-- Node24 -->
<g id="node24" class="node"><title>Node24</title>
<g id="a_node24"><a xlink:href="../../df/d0c/ape__penalty_8h.html" target="_top" xlink:title="ape_penalty.h">
<polygon fill="white" stroke="black" points="810,-224.5 810,-243.5 887,-243.5 887,-224.5 810,-224.5"/>
<text text-anchor="middle" x="848.5" y="-231.5" font-family="Helvetica,sans-Serif" font-size="10.00">ape_penalty.h</text>
</a>
</g>
</g>
<!-- Node2&#45;&gt;Node24 -->
<g id="edge45" class="edge"><title>Node2&#45;&gt;Node24</title>
<path fill="none" stroke="midnightblue" d="M900.533,-384.181C886.51,-364.982 864.787,-332.072 854.5,-300 848.27,-280.576 847.835,-256.332 848.125,-243.649"/>
<polygon fill="midnightblue" stroke="midnightblue" points="897.92,-386.532 906.714,-392.441 903.525,-382.338 897.92,-386.532"/>
</g>
<!-- Node26 -->
<g id="node26" class="node"><title>Node26</title>
<g id="a_node26"><a xlink:href="../../d9/d85/search_8h.html" target="_top" xlink:title="search.h">
<polygon fill="white" stroke="black" points="296.5,-224.5 296.5,-243.5 350.5,-243.5 350.5,-224.5 296.5,-224.5"/>
<text text-anchor="middle" x="323.5" y="-231.5" font-family="Helvetica,sans-Serif" font-size="10.00">search.h</text>
</a>
</g>
</g>
<!-- Node2&#45;&gt;Node26 -->
<g id="edge44" class="edge"><title>Node2&#45;&gt;Node26</title>
<path fill="none" stroke="midnightblue" d="M877.353,-400.128C763.129,-397.08 415.085,-385.442 374.5,-356 336.303,-328.29 326.533,-266.28 324.192,-243.556"/>
<polygon fill="midnightblue" stroke="midnightblue" points="877.262,-403.627 887.35,-400.389 877.445,-396.629 877.262,-403.627"/>
</g>
<!-- Node27 -->
<g id="node27" class="node"><title>Node27</title>
<g id="a_node27"><a xlink:href="../../d2/d86/encoder__decoder_8h.html" target="_top" xlink:title="encoder_decoder.h">
<polygon fill="white" stroke="black" points="864,-280.5 864,-299.5 963,-299.5 963,-280.5 864,-280.5"/>
<text text-anchor="middle" x="913.5" y="-287.5" font-family="Helvetica,sans-Serif" font-size="10.00">encoder_decoder.h</text>
</a>
</g>
</g>
<!-- Node2&#45;&gt;Node27 -->
<g id="edge48" class="edge"><title>Node2&#45;&gt;Node27</title>
<path fill="none" stroke="midnightblue" d="M913.5,-382.348C913.5,-358.254 913.5,-317.308 913.5,-299.591"/>
<polygon fill="midnightblue" stroke="midnightblue" points="910,-382.368 913.5,-392.368 917,-382.369 910,-382.368"/>
</g>
<!-- Node28 -->
<g id="node28" class="node"><title>Node28</title>
<g id="a_node28"><a xlink:href="../../d3/d00/scorer_8cpp.html" target="_top" xlink:title="scorer.cpp">
<polygon fill="white" stroke="black" points="1119.5,-336.5 1119.5,-355.5 1181.5,-355.5 1181.5,-336.5 1119.5,-336.5"/>
<text text-anchor="middle" x="1150.5" y="-343.5" font-family="Helvetica,sans-Serif" font-size="10.00">scorer.cpp</text>
</a>
</g>
</g>
<!-- Node2&#45;&gt;Node28 -->
<g id="edge43" class="edge"><title>Node2&#45;&gt;Node28</title>
<path fill="none" stroke="midnightblue" d="M949.955,-391.706C1015.6,-376.054 1081.47,-361.721 1119.28,-353.625"/>
<polygon fill="midnightblue" stroke="midnightblue" points="948.76,-388.393 939.85,-394.126 950.391,-395.201 948.76,-388.393"/>
</g>
<!-- Node29 -->
<g id="node29" class="node"><title>Node29</title>
<g id="a_node29"><a xlink:href="../../d0/d1e/encoder__decoder__state_8h.html" target="_top" xlink:title="encoder_decoder_state.h">
<polygon fill="white" stroke="black" points="1199.5,-336.5 1199.5,-355.5 1325.5,-355.5 1325.5,-336.5 1199.5,-336.5"/>
<text text-anchor="middle" x="1262.5" y="-343.5" font-family="Helvetica,sans-Serif" font-size="10.00">encoder_decoder_state.h</text>
</a>
</g>
</g>
<!-- Node2&#45;&gt;Node29 -->
<g id="edge49" class="edge"><title>Node2&#45;&gt;Node29</title>
<path fill="none" stroke="midnightblue" d="M949.871,-391.946C1009.34,-380.759 1126.21,-364.874 1199.28,-355.227"/>
<polygon fill="midnightblue" stroke="midnightblue" points="948.948,-388.56 939.802,-393.908 950.287,-395.431 948.948,-388.56"/>
</g>
<!-- Node30 -->
<g id="node30" class="node"><title>Node30</title>
<g id="a_node30"><a xlink:href="../../dd/df3/hypo__info_8h.html" target="_top" xlink:title="hypo_info.h">
<polygon fill="white" stroke="black" points="996,-336.5 996,-355.5 1063,-355.5 1063,-336.5 996,-336.5"/>
<text text-anchor="middle" x="1029.5" y="-343.5" font-family="Helvetica,sans-Serif" font-size="10.00">hypo_info.h</text>
</a>
</g>
</g>
<!-- Node2&#45;&gt;Node30 -->
<g id="edge50" class="edge"><title>Node2&#45;&gt;Node30</title>
<path fill="none" stroke="midnightblue" d="M941.22,-388.096C962.892,-378.007 992.402,-364.27 1011.21,-355.516"/>
<polygon fill="midnightblue" stroke="midnightblue" points="939.469,-385.05 931.881,-392.444 942.423,-391.396 939.469,-385.05"/>
</g>
<!-- Node3&#45;&gt;Node4 -->
<g id="edge3" class="edge"><title>Node3&#45;&gt;Node4</title>
<path fill="none" stroke="midnightblue" d="M689.711,-332.687C631.024,-309.957 507.191,-261.993 458.139,-242.994"/>
<polygon fill="midnightblue" stroke="midnightblue" points="688.626,-336.02 699.215,-336.368 691.154,-329.493 688.626,-336.02"/>
</g>
<!-- Node3&#45;&gt;Node20 -->
<g id="edge21" class="edge"><title>Node3&#45;&gt;Node20</title>
<path fill="none" stroke="midnightblue" d="M721.5,-325.805C721.5,-316.91 721.5,-306.78 721.5,-299.751"/>
<polygon fill="midnightblue" stroke="midnightblue" points="718,-326.083 721.5,-336.083 725,-326.083 718,-326.083"/>
</g>
<!-- Node3&#45;&gt;Node24 -->
<g id="edge35" class="edge"><title>Node3&#45;&gt;Node24</title>
<path fill="none" stroke="midnightblue" d="M739.031,-329.816C766.08,-306.387 817.108,-262.19 838.581,-243.591"/>
<polygon fill="midnightblue" stroke="midnightblue" points="736.733,-327.176 731.465,-336.368 741.316,-332.467 736.733,-327.176"/>
</g>
<!-- Node3&#45;&gt;Node26 -->
<g id="edge29" class="edge"><title>Node3&#45;&gt;Node26</title>
<path fill="none" stroke="midnightblue" d="M678.234,-333.889C643.623,-324.935 593.877,-311.916 550.5,-300 478.162,-280.128 393.247,-255.451 350.702,-242.994"/>
<polygon fill="midnightblue" stroke="midnightblue" points="677.464,-337.305 688.021,-336.417 679.214,-330.527 677.464,-337.305"/>
</g>
<!-- Node3&#45;&gt;Node27 -->
<g id="edge36" class="edge"><title>Node3&#45;&gt;Node27</title>
<path fill="none" stroke="midnightblue" d="M761.683,-333.699C797.919,-323.507 850.414,-308.743 883.219,-299.516"/>
<polygon fill="midnightblue" stroke="midnightblue" points="760.602,-330.367 751.923,-336.444 762.497,-337.105 760.602,-330.367"/>
</g>
<!-- Node5 -->
<g id="node5" class="node"><title>Node5</title>
<g id="a_node5"><a xlink:href="../../d0/d73/decoder__main_8cpp.html" target="_top" xlink:title="decoder_main.cpp">
<polygon fill="white" stroke="black" points="296.5,-112.5 296.5,-131.5 392.5,-131.5 392.5,-112.5 296.5,-112.5"/>
<text text-anchor="middle" x="344.5" y="-119.5" font-family="Helvetica,sans-Serif" font-size="10.00">decoder_main.cpp</text>
</a>
</g>
</g>
<!-- Node4&#45;&gt;Node5 -->
<g id="edge4" class="edge"><title>Node4&#45;&gt;Node5</title>
<path fill="none" stroke="midnightblue" d="M447.294,-215.187C453.491,-201.281 458.752,-182.03 449.5,-168 436.781,-148.711 413.893,-137.659 392.726,-131.341"/>
<polygon fill="midnightblue" stroke="midnightblue" points="444.123,-213.704 442.81,-224.217 450.392,-216.817 444.123,-213.704"/>
</g>
<!-- Node6 -->
<g id="node6" class="node"><title>Node6</title>
<g id="a_node6"><a xlink:href="../../de/d63/filter_8cpp.html" target="_top" xlink:title="filter.cpp">
<polygon fill="white" stroke="black" points="629.5,-168.5 629.5,-187.5 683.5,-187.5 683.5,-168.5 629.5,-168.5"/>
<text text-anchor="middle" x="656.5" y="-175.5" font-family="Helvetica,sans-Serif" font-size="10.00">filter.cpp</text>
</a>
</g>
</g>
<!-- Node4&#45;&gt;Node6 -->
<g id="edge5" class="edge"><title>Node4&#45;&gt;Node6</title>
<path fill="none" stroke="midnightblue" d="M467.763,-223.814C510.126,-212.632 587.778,-194.704 629.195,-185.224"/>
<polygon fill="midnightblue" stroke="midnightblue" points="466.789,-220.452 458.044,-226.434 468.611,-227.21 466.789,-220.452"/>
</g>
<!-- Node4&#45;&gt;Node7 -->
<g id="edge6" class="edge"><title>Node4&#45;&gt;Node7</title>
<path fill="none" stroke="midnightblue" d="M430.04,-214.69C426.333,-205.589 422.024,-195.014 419.065,-187.751"/>
<polygon fill="midnightblue" stroke="midnightblue" points="426.853,-216.143 433.867,-224.083 433.335,-213.502 426.853,-216.143"/>
</g>
<!-- Node8 -->
<g id="node8" class="node"><title>Node8</title>
<g id="a_node8"><a xlink:href="../../d5/dc4/amun_2common_2printer_8h.html" target="_top" xlink:title="printer.h">
<polygon fill="white" stroke="black" points="243.5,-168.5 243.5,-187.5 295.5,-187.5 295.5,-168.5 243.5,-168.5"/>
<text text-anchor="middle" x="269.5" y="-175.5" font-family="Helvetica,sans-Serif" font-size="10.00">printer.h</text>
</a>
</g>
</g>
<!-- Node4&#45;&gt;Node8 -->
<g id="edge7" class="edge"><title>Node4&#45;&gt;Node8</title>
<path fill="none" stroke="midnightblue" d="M407.222,-223.268C375.343,-213.021 325.678,-197.057 295.508,-187.36"/>
<polygon fill="midnightblue" stroke="midnightblue" points="406.309,-226.65 416.9,-226.379 408.451,-219.986 406.309,-226.65"/>
</g>
<!-- Node11 -->
<g id="node11" class="node"><title>Node11</title>
<g id="a_node11"><a xlink:href="../../d5/d49/amunmt_8cpp.html" target="_top" xlink:title="amunmt.cpp">
<polygon fill="white" stroke="black" points="411,-112.5 411,-131.5 482,-131.5 482,-112.5 411,-112.5"/>
<text text-anchor="middle" x="446.5" y="-119.5" font-family="Helvetica,sans-Serif" font-size="10.00">amunmt.cpp</text>
</a>
</g>
</g>
<!-- Node4&#45;&gt;Node11 -->
<g id="edge20" class="edge"><title>Node4&#45;&gt;Node11</title>
<path fill="none" stroke="midnightblue" d="M467.878,-223.567C510.063,-210.46 581.282,-188.297 581.5,-188 609.312,-150.17 530.791,-133.373 482.058,-126.755"/>
<polygon fill="midnightblue" stroke="midnightblue" points="466.603,-220.298 458.091,-226.607 468.68,-226.983 466.603,-220.298"/>
</g>
<!-- Node12 -->
<g id="node12" class="node"><title>Node12</title>
<g id="a_node12"><a xlink:href="../../d9/def/search_8cpp.html" target="_top" xlink:title="search.cpp">
<polygon fill="white" stroke="black" points="122,-168.5 122,-187.5 187,-187.5 187,-168.5 122,-168.5"/>
<text text-anchor="middle" x="154.5" y="-175.5" font-family="Helvetica,sans-Serif" font-size="10.00">search.cpp</text>
</a>
</g>
</g>
<!-- Node4&#45;&gt;Node12 -->
<g id="edge12" class="edge"><title>Node4&#45;&gt;Node12</title>
<path fill="none" stroke="midnightblue" d="M406.723,-227.127C352.932,-216.863 242.305,-195.754 187.195,-185.239"/>
<polygon fill="midnightblue" stroke="midnightblue" points="406.212,-230.593 416.69,-229.029 407.524,-223.717 406.212,-230.593"/>
</g>
<!-- Node13 -->
<g id="node13" class="node"><title>Node13</title>
<g id="a_node13"><a xlink:href="../../d7/d57/sentence_8cpp.html" target="_top" xlink:title="sentence.cpp">
<polygon fill="white" stroke="black" points="498,-168.5 498,-187.5 573,-187.5 573,-168.5 498,-168.5"/>
<text text-anchor="middle" x="535.5" y="-175.5" font-family="Helvetica,sans-Serif" font-size="10.00">sentence.cpp</text>
</a>
</g>
</g>
<!-- Node4&#45;&gt;Node13 -->
<g id="edge13" class="edge"><title>Node4&#45;&gt;Node13</title>
<path fill="none" stroke="midnightblue" d="M462.086,-219.453C480.178,-209.483 504.235,-196.228 519.794,-187.655"/>
<polygon fill="midnightblue" stroke="midnightblue" points="460.315,-216.432 453.245,-224.324 463.693,-222.563 460.315,-216.432"/>
</g>
<!-- Node4&#45;&gt;Node14 -->
<g id="edge14" class="edge"><title>Node4&#45;&gt;Node14</title>
<path fill="none" stroke="midnightblue" d="M468.392,-224.352C527.83,-215.962 785.344,-191.348 880.27,-182.336"/>
<polygon fill="midnightblue" stroke="midnightblue" points="467.585,-220.938 458.279,-226.003 468.712,-227.846 467.585,-220.938"/>
</g>
<!-- Node15 -->
<g id="node15" class="node"><title>Node15</title>
<g id="a_node15"><a xlink:href="../../d6/d72/decoder_8h.html" target="_top" xlink:title="decoder.h">
<polygon fill="white" stroke="black" points="753,-168.5 753,-187.5 812,-187.5 812,-168.5 753,-168.5"/>
<text text-anchor="middle" x="782.5" y="-175.5" font-family="Helvetica,sans-Serif" font-size="10.00">decoder.h</text>
</a>
</g>
</g>
<!-- Node4&#45;&gt;Node15 -->
<g id="edge15" class="edge"><title>Node4&#45;&gt;Node15</title>
<path fill="none" stroke="midnightblue" d="M468.175,-223.964C536.704,-209.764 688.366,-190.55 752.787,-182.616"/>
<polygon fill="midnightblue" stroke="midnightblue" points="467.331,-220.566 458.302,-226.109 468.817,-227.406 467.331,-220.566"/>
</g>
<!-- Node4&#45;&gt;Node19 -->
<g id="edge19" class="edge"><title>Node4&#45;&gt;Node19</title>
<path fill="none" stroke="midnightblue" d="M468.33,-224.043C684.196,-184.141 744.832,-215.082 959.5,-188 969.126,-186.786 979.711,-184.953 988.654,-183.258"/>
<polygon fill="midnightblue" stroke="midnightblue" points="467.447,-220.648 458.265,-225.934 468.74,-227.527 467.447,-220.648"/>
</g>
<!-- Node8&#45;&gt;Node5 -->
<g id="edge8" class="edge"><title>Node8&#45;&gt;Node5</title>
<path fill="none" stroke="midnightblue" d="M289.805,-162.38C303.361,-152.62 320.742,-140.106 332.231,-131.834"/>
<polygon fill="midnightblue" stroke="midnightblue" points="287.62,-159.641 281.55,-168.324 291.71,-165.321 287.62,-159.641"/>
</g>
<!-- Node9 -->
<g id="node9" class="node"><title>Node9</title>
<g id="a_node9"><a xlink:href="../../d3/db8/amun_2common_2printer_8cpp.html" target="_top" xlink:title="printer.cpp">
<polygon fill="white" stroke="black" points="216.5,-112.5 216.5,-131.5 278.5,-131.5 278.5,-112.5 216.5,-112.5"/>
<text text-anchor="middle" x="247.5" y="-119.5" font-family="Helvetica,sans-Serif" font-size="10.00">printer.cpp</text>
</a>
</g>
</g>
<!-- Node8&#45;&gt;Node9 -->
<g id="edge9" class="edge"><title>Node8&#45;&gt;Node9</title>
<path fill="none" stroke="midnightblue" d="M262.04,-158.69C258.333,-149.589 254.024,-139.014 251.065,-131.751"/>
<polygon fill="midnightblue" stroke="midnightblue" points="258.853,-160.143 265.867,-168.083 265.335,-157.502 258.853,-160.143"/>
</g>
<!-- Node10 -->
<g id="node10" class="node"><title>Node10</title>
<g id="a_node10"><a xlink:href="../../df/d6f/translation__task_8cpp.html" target="_top" xlink:title="translation_task.cpp">
<polygon fill="white" stroke="black" points="94.5,-112.5 94.5,-131.5 198.5,-131.5 198.5,-112.5 94.5,-112.5"/>
<text text-anchor="middle" x="146.5" y="-119.5" font-family="Helvetica,sans-Serif" font-size="10.00">translation_task.cpp</text>
</a>
</g>
</g>
<!-- Node8&#45;&gt;Node10 -->
<g id="edge10" class="edge"><title>Node8&#45;&gt;Node10</title>
<path fill="none" stroke="midnightblue" d="M240.727,-164.368C217.693,-154.255 186.016,-140.349 165.899,-131.516"/>
<polygon fill="midnightblue" stroke="midnightblue" points="239.447,-167.628 250.01,-168.444 242.261,-161.219 239.447,-167.628"/>
</g>
<!-- Node8&#45;&gt;Node11 -->
<g id="edge11" class="edge"><title>Node8&#45;&gt;Node11</title>
<path fill="none" stroke="midnightblue" d="M305.445,-166.034C338.858,-155.84 387.941,-140.865 418.521,-131.536"/>
<polygon fill="midnightblue" stroke="midnightblue" points="304.16,-162.766 295.617,-169.032 306.203,-169.462 304.16,-162.766"/>
</g>
<!-- Node16 -->
<g id="node16" class="node"><title>Node16</title>
<g id="a_node16"><a xlink:href="../../db/d89/dl4mt_8h.html" target="_top" xlink:title="dl4mt.h">
<polygon fill="white" stroke="black" points="1036,-112.5 1036,-131.5 1085,-131.5 1085,-112.5 1036,-112.5"/>
<text text-anchor="middle" x="1060.5" y="-119.5" font-family="Helvetica,sans-Serif" font-size="10.00">dl4mt.h</text>
</a>
</g>
</g>
<!-- Node15&#45;&gt;Node16 -->
<g id="edge16" class="edge"><title>Node15&#45;&gt;Node16</title>
<path fill="none" stroke="midnightblue" d="M822.203,-169.288C880.51,-157.962 987.592,-137.162 1035.81,-127.795"/>
<polygon fill="midnightblue" stroke="midnightblue" points="821.4,-165.878 812.251,-171.221 822.735,-172.75 821.4,-165.878"/>
</g>
<!-- Node16&#45;&gt;Node17 -->
<g id="edge17" class="edge"><title>Node16&#45;&gt;Node17</title>
<path fill="none" stroke="midnightblue" d="M1094.76,-109.789C1125.83,-99.62 1170.97,-84.8448 1199.26,-75.5865"/>
<polygon fill="midnightblue" stroke="midnightblue" points="1093.62,-106.479 1085.2,-112.916 1095.79,-113.132 1093.62,-106.479"/>
</g>
<!-- Node18 -->
<g id="node18" class="node"><title>Node18</title>
<g id="a_node18"><a xlink:href="../../d3/d17/class__language__model_8h.html" target="_top" xlink:title="class_language_model.h">
<polygon fill="white" stroke="black" points="1163.5,-0.5 1163.5,-19.5 1287.5,-19.5 1287.5,-0.5 1163.5,-0.5"/>
<text text-anchor="middle" x="1225.5" y="-7.5" font-family="Helvetica,sans-Serif" font-size="10.00">class_language_model.h</text>
</a>
</g>
</g>
<!-- Node17&#45;&gt;Node18 -->
<g id="edge18" class="edge"><title>Node17&#45;&gt;Node18</title>
<path fill="none" stroke="midnightblue" d="M1225.5,-45.8045C1225.5,-36.9102 1225.5,-26.7798 1225.5,-19.7511"/>
<polygon fill="midnightblue" stroke="midnightblue" points="1222,-46.083 1225.5,-56.083 1229,-46.083 1222,-46.083"/>
</g>
<!-- Node20&#45;&gt;Node4 -->
<g id="edge25" class="edge"><title>Node20&#45;&gt;Node4</title>
<path fill="none" stroke="midnightblue" d="M685.739,-284.145C636.141,-277.082 543.836,-262.745 466.5,-244 463.733,-243.329 460.844,-242.541 458.006,-241.715"/>
<polygon fill="midnightblue" stroke="midnightblue" points="685.554,-287.653 695.944,-285.581 686.53,-280.722 685.554,-287.653"/>
</g>
<!-- Node21 -->
<g id="node21" class="node"><title>Node21</title>
<g id="a_node21"><a xlink:href="../../de/d2b/loader__factory_8h.html" target="_top" xlink:title="loader_factory.h">
<polygon fill="white" stroke="black" points="705.5,-224.5 705.5,-243.5 791.5,-243.5 791.5,-224.5 705.5,-224.5"/>
<text text-anchor="middle" x="748.5" y="-231.5" font-family="Helvetica,sans-Serif" font-size="10.00">loader_factory.h</text>
</a>
</g>
</g>
<!-- Node20&#45;&gt;Node21 -->
<g id="edge22" class="edge"><title>Node20&#45;&gt;Node21</title>
<path fill="none" stroke="midnightblue" d="M730.509,-270.983C735.092,-261.817 740.454,-251.092 744.124,-243.751"/>
<polygon fill="midnightblue" stroke="midnightblue" points="727.3,-269.573 725.959,-280.083 733.561,-272.704 727.3,-269.573"/>
</g>
<!-- Node23 -->
<g id="node23" class="node"><title>Node23</title>
<g id="a_node23"><a xlink:href="../../d2/d2b/loader_8cpp.html" target="_top" xlink:title="loader.cpp">
<polygon fill="white" stroke="black" points="625.5,-224.5 625.5,-243.5 687.5,-243.5 687.5,-224.5 625.5,-224.5"/>
<text text-anchor="middle" x="656.5" y="-231.5" font-family="Helvetica,sans-Serif" font-size="10.00">loader.cpp</text>
</a>
</g>
</g>
<!-- Node20&#45;&gt;Node23 -->
<g id="edge26" class="edge"><title>Node20&#45;&gt;Node23</title>
<path fill="none" stroke="midnightblue" d="M703.227,-273.82C691.582,-264.145 676.901,-251.948 667.133,-243.834"/>
<polygon fill="midnightblue" stroke="midnightblue" points="701.128,-276.626 711.057,-280.324 705.601,-271.242 701.128,-276.626"/>
</g>
<!-- Node20&#45;&gt;Node24 -->
<g id="edge27" class="edge"><title>Node20&#45;&gt;Node24</title>
<path fill="none" stroke="midnightblue" d="M750.891,-276.503C774.7,-266.38 807.606,-252.388 828.471,-243.516"/>
<polygon fill="midnightblue" stroke="midnightblue" points="749.457,-273.31 741.624,-280.444 752.196,-279.751 749.457,-273.31"/>
</g>
<!-- Node25 -->
<g id="node25" class="node"><title>Node25</title>
<g id="a_node25"><a xlink:href="../../da/d6b/encoder__decoder__loader_8h.html" target="_top" xlink:title="encoder_decoder_loader.h">
<polygon fill="white" stroke="black" points="476,-224.5 476,-243.5 607,-243.5 607,-224.5 476,-224.5"/>
<text text-anchor="middle" x="541.5" y="-231.5" font-family="Helvetica,sans-Serif" font-size="10.00">encoder_decoder_loader.h</text>
</a>
</g>
</g>
<!-- Node20&#45;&gt;Node25 -->
<g id="edge28" class="edge"><title>Node20&#45;&gt;Node25</title>
<path fill="none" stroke="midnightblue" d="M685.725,-278.268C651.72,-268.066 601.248,-252.925 569.914,-243.524"/>
<polygon fill="midnightblue" stroke="midnightblue" points="685.126,-281.742 695.71,-281.263 687.138,-275.037 685.126,-281.742"/>
</g>
<!-- Node21&#45;&gt;Node7 -->
<g id="edge23" class="edge"><title>Node21&#45;&gt;Node7</title>
<path fill="none" stroke="midnightblue" d="M695.4,-223.833C595.292,-207.204 488.901,-190.462 441.089,-182.987"/>
<polygon fill="midnightblue" stroke="midnightblue" points="694.938,-227.304 705.377,-225.493 696.087,-220.399 694.938,-227.304"/>
</g>
<!-- Node21&#45;&gt;Node22 -->
<g id="edge24" class="edge"><title>Node21&#45;&gt;Node22</title>
<path fill="none" stroke="midnightblue" d="M801.664,-223.911C936.049,-205.067 1082.42,-190.452 1156.75,-183.452"/>
<polygon fill="midnightblue" stroke="midnightblue" points="801.01,-220.468 791.598,-225.333 801.99,-227.399 801.01,-220.468"/>
</g>
<!-- Node26&#45;&gt;Node5 -->
<g id="edge30" class="edge"><title>Node26&#45;&gt;Node5</title>
<path fill="none" stroke="midnightblue" d="M327.061,-214.348C331.661,-190.254 339.478,-149.308 342.86,-131.591"/>
<polygon fill="midnightblue" stroke="midnightblue" points="323.585,-213.89 325.148,-224.368 330.461,-215.202 323.585,-213.89"/>
</g>
<!-- Node26&#45;&gt;Node7 -->
<g id="edge31" class="edge"><title>Node26&#45;&gt;Node7</title>
<path fill="none" stroke="midnightblue" d="M347.05,-219.177C363.979,-209.241 386.283,-196.149 400.755,-187.655"/>
<polygon fill="midnightblue" stroke="midnightblue" points="345.134,-216.243 338.281,-224.324 348.677,-222.28 345.134,-216.243"/>
</g>
<!-- Node26&#45;&gt;Node10 -->
<g id="edge33" class="edge"><title>Node26&#45;&gt;Node10</title>
<path fill="none" stroke="midnightblue" d="M294.97,-220.082C277.176,-211.66 254.027,-200.03 234.5,-188 205.069,-169.868 173.007,-144.664 156.931,-131.609"/>
<polygon fill="midnightblue" stroke="midnightblue" points="293.706,-223.354 304.248,-224.413 296.667,-217.011 293.706,-223.354"/>
</g>
<!-- Node26&#45;&gt;Node11 -->
<g id="edge34" class="edge"><title>Node26&#45;&gt;Node11</title>
<path fill="none" stroke="midnightblue" d="M336.208,-216.278C347.127,-202.49 363.722,-182.854 380.5,-168 396.802,-153.567 417.932,-139.912 431.837,-131.509"/>
<polygon fill="midnightblue" stroke="midnightblue" points="333.281,-214.342 329.908,-224.385 338.808,-218.637 333.281,-214.342"/>
</g>
<!-- Node26&#45;&gt;Node12 -->
<g id="edge32" class="edge"><title>Node26&#45;&gt;Node12</title>
<path fill="none" stroke="midnightblue" d="M286.897,-221.304C255.053,-211.129 209.658,-196.625 181.153,-187.516"/>
<polygon fill="midnightblue" stroke="midnightblue" points="286.131,-224.734 296.721,-224.444 288.261,-218.066 286.131,-224.734"/>
</g>
<!-- Node27&#45;&gt;Node14 -->
<g id="edge37" class="edge"><title>Node27&#45;&gt;Node14</title>
<path fill="none" stroke="midnightblue" d="M913.839,-270.348C914.277,-246.254 915.022,-205.308 915.344,-187.591"/>
<polygon fill="midnightblue" stroke="midnightblue" points="910.339,-270.306 913.657,-280.368 917.338,-270.434 910.339,-270.306"/>
</g>
<!-- Node27&#45;&gt;Node19 -->
<g id="edge38" class="edge"><title>Node27&#45;&gt;Node19</title>
<path fill="none" stroke="midnightblue" d="M927.825,-272.586C948.522,-248.871 986.051,-205.869 1002,-187.591"/>
<polygon fill="midnightblue" stroke="midnightblue" points="924.971,-270.533 921.033,-280.368 930.245,-275.136 924.971,-270.533"/>
</g>
<!-- Node30&#45;&gt;Node19 -->
<g id="edge52" class="edge"><title>Node30&#45;&gt;Node19</title>
<path fill="none" stroke="midnightblue" d="M1027.2,-325.93C1022.86,-289.92 1013.62,-213.231 1010.53,-187.568"/>
<polygon fill="midnightblue" stroke="midnightblue" points="1023.75,-326.566 1028.42,-336.075 1030.7,-325.728 1023.75,-326.566"/>
</g>
<!-- Node31 -->
<g id="node31" class="node"><title>Node31</title>
<g id="a_node31"><a xlink:href="../../da/d47/hypo__info_8cpp.html" target="_top" xlink:title="hypo_info.cpp">
<polygon fill="white" stroke="black" points="1058,-280.5 1058,-299.5 1135,-299.5 1135,-280.5 1058,-280.5"/>
<text text-anchor="middle" x="1096.5" y="-287.5" font-family="Helvetica,sans-Serif" font-size="10.00">hypo_info.cpp</text>
</a>
</g>
</g>
<!-- Node30&#45;&gt;Node31 -->
<g id="edge51" class="edge"><title>Node30&#45;&gt;Node31</title>
<path fill="none" stroke="midnightblue" d="M1048.33,-329.82C1060.34,-320.145 1075.47,-307.948 1085.54,-299.834"/>
<polygon fill="midnightblue" stroke="midnightblue" points="1045.85,-327.324 1040.26,-336.324 1050.25,-332.774 1045.85,-327.324"/>
</g>
<!-- Node32&#45;&gt;Node8 -->
<g id="edge56" class="edge"><title>Node32&#45;&gt;Node8</title>
<path fill="none" stroke="midnightblue" d="M181.981,-220.096C203.466,-210.007 232.722,-196.27 251.363,-187.516"/>
<polygon fill="midnightblue" stroke="midnightblue" points="180.286,-217.025 172.722,-224.444 183.262,-223.361 180.286,-217.025"/>
</g>
<!-- Node32&#45;&gt;Node10 -->
<g id="edge58" class="edge"><title>Node32&#45;&gt;Node10</title>
<path fill="none" stroke="midnightblue" d="M134.455,-217.528C125.969,-209.709 117.014,-199.452 112.5,-188 104.187,-166.91 123.872,-143.724 136.639,-131.552"/>
<polygon fill="midnightblue" stroke="midnightblue" points="132.415,-220.389 142.286,-224.236 136.969,-215.073 132.415,-220.389"/>
</g>
<!-- Node32&#45;&gt;Node12 -->
<g id="edge57" class="edge"><title>Node32&#45;&gt;Node12</title>
<path fill="none" stroke="midnightblue" d="M154.5,-213.805C154.5,-204.91 154.5,-194.78 154.5,-187.751"/>
<polygon fill="midnightblue" stroke="midnightblue" points="151,-214.083 154.5,-224.083 158,-214.083 151,-214.083"/>
</g>
<!-- Node33 -->
<g id="node33" class="node"><title>Node33</title>
<g id="a_node33"><a xlink:href="../../d9/ddc/amun_2common_2history_8cpp.html" target="_top" xlink:title="history.cpp">
<polygon fill="white" stroke="black" points="0,-168.5 0,-187.5 65,-187.5 65,-168.5 0,-168.5"/>
<text text-anchor="middle" x="32.5" y="-175.5" font-family="Helvetica,sans-Serif" font-size="10.00">history.cpp</text>
</a>
</g>
</g>
<!-- Node32&#45;&gt;Node33 -->
<g id="edge55" class="edge"><title>Node32&#45;&gt;Node33</title>
<path fill="none" stroke="midnightblue" d="M125.961,-220.368C103.114,-210.255 71.6949,-196.349 51.7408,-187.516"/>
<polygon fill="midnightblue" stroke="midnightblue" points="124.608,-223.597 135.169,-224.444 127.441,-217.196 124.608,-223.597"/>
</g>
</g>
</svg>
        <g id="navigator" transform="translate(0 0)" fill="#404254">
                <rect fill="#f2f5e9" fill-opacity="0.5" stroke="#606060" stroke-width=".5" x="0" y="0" width="60" height="60"/>
                <use id="zoomplus" xlink:href="#zoomPlus" x="17" y="9" onmousedown="handleZoom(evt,'in')"/>
                <use id="zoomminus" xlink:href="#zoomMin" x="42" y="9" onmousedown="handleZoom(evt,'out')"/>
                <use id="reset" xlink:href="#resetDef" x="30" y="36" onmousedown="handleReset()"/>
                <g id="arrowUp" xlink:href="#dirArrow" transform="translate(30 24)" onmousedown="handlePan(0,-1)">
                  <use xlink:href="#rim" fill="#404040">
                        <set attributeName="fill" to="#808080" begin="arrowUp.mouseover" end="arrowUp.mouseout"/>
                  </use>
                  <path fill="none" stroke="white" stroke-width="1.5" d="M0,-3.0v7 M-2.5,-0.5L0,-3.0L2.5,-0.5"/>
                </g>
                <g id="arrowRight" xlink:href="#dirArrow" transform="rotate(90) translate(36 -43)" onmousedown="handlePan(1,0)">
                  <use xlink:href="#rim" fill="#404040">
                        <set attributeName="fill" to="#808080" begin="arrowRight.mouseover" end="arrowRight.mouseout"/>
                  </use>
                  <path fill="none" stroke="white" stroke-width="1.5" d="M0,-3.0v7 M-2.5,-0.5L0,-3.0L2.5,-0.5"/>
                </g>
                <g id="arrowDown" xlink:href="#dirArrow" transform="rotate(180) translate(-30 -48)" onmousedown="handlePan(0,1)">
                  <use xlink:href="#rim" fill="#404040">
                        <set attributeName="fill" to="#808080" begin="arrowDown.mouseover" end="arrowDown.mouseout"/>
                  </use>
                  <path fill="none" stroke="white" stroke-width="1.5" d="M0,-3.0v7 M-2.5,-0.5L0,-3.0L2.5,-0.5"/>
                </g>
                <g id="arrowLeft" xlink:href="#dirArrow" transform="rotate(270) translate(-36 17)" onmousedown="handlePan(-1,0)">
                  <use xlink:href="#rim" fill="#404040">
                        <set attributeName="fill" to="#808080" begin="arrowLeft.mouseover" end="arrowLeft.mouseout"/>
                  </use>
                  <path fill="none" stroke="white" stroke-width="1.5" d="M0,-3.0v7 M-2.5,-0.5L0,-3.0L2.5,-0.5"/>
                </g>
        </g>
        <svg viewBox="0 0 15 15" width="100%" height="30px" preserveAspectRatio="xMaxYMin meet">
         <g id="arrow_out" transform="scale(0.3 0.3)">
          <a xlink:href="amun_2common_2hypothesis_8h__dep__incl_org.svg" target="_base">
           <rect id="button" ry="5" rx="5" y="6" x="6" height="38" width="38"
                fill="#f2f5e9" fill-opacity="0.5" stroke="#606060" stroke-width="1.0"/>
           <path id="arrow"
             d="M 11.500037,31.436501 C 11.940474,20.09759 22.043105,11.32322 32.158766,21.979434 L 37.068811,17.246167 C 37.068811,17.246167 37.088388,32 37.088388,32 L 22.160133,31.978069 C 22.160133,31.978069 26.997745,27.140456 26.997745,27.140456 C 18.528582,18.264221 13.291696,25.230495 11.500037,31.436501 z"
             style="fill:#404040;"/>
          </a>
         </g>
        </svg>
</svg>
