<?xml version="1.0" encoding="UTF-8" standalone="no"?>
<!DOCTYPE svg PUBLIC "-//W3C//DTD SVG 1.1//EN"
 "http://www.w3.org/Graphics/SVG/1.1/DTD/svg11.dtd">
<!-- Generated by graphviz version 2.38.0 (20140413.2041)
 -->
<!-- Title: handles.h Pages: 1 -->
<!--zoomable 700 -->
<svg id="main" version="1.1" xmlns="http://www.w3.org/2000/svg" xmlns:xlink="http://www.w3.org/1999/xlink" xml:space="preserve" onload="init(evt)">
<style type="text/css"><![CDATA[
.edge:hover path { stroke: red; }
.edge:hover polygon { stroke: red; fill: red; }
]]></style>
<script type="text/javascript"><![CDATA[
var edges = document.getElementsByTagName('g');
if (edges && edges.length) {
  for (var i=0;i<edges.length;i++) {
    if (edges[i].id.substr(0,4)=='edge') {
      edges[i].setAttribute('class','edge');
    }
  }
}
]]></script>
        <defs>
                <circle id="rim" cx="0" cy="0" r="7"/>
                <circle id="rim2" cx="0" cy="0" r="3.5"/>
                <g id="zoomPlus">
                        <use xlink:href="#rim" fill="#404040">
                                <set attributeName="fill" to="#808080" begin="zoomplus.mouseover" end="zoomplus.mouseout"/>
                        </use>
                        <path d="M-4,0h8M0,-4v8" fill="none" stroke="white" stroke-width="1.5" pointer-events="none"/>
                </g>
                <g id="zoomMin">
                        <use xlink:href="#rim" fill="#404040">
                                <set attributeName="fill" to="#808080" begin="zoomminus.mouseover" end="zoomminus.mouseout"/>
                        </use>
                        <path d="M-4,0h8" fill="none" stroke="white" stroke-width="1.5" pointer-events="none"/>
                </g>
                <g id="dirArrow">
                        <path fill="none" stroke="white" stroke-width="1.5" d="M0,-3.0v7 M-2.5,-0.5L0,-3.0L2.5,-0.5"/>
                </g>
               <g id="resetDef">
                       <use xlink:href="#rim2" fill="#404040">
                               <set attributeName="fill" to="#808080" begin="reset.mouseover" end="reset.mouseout"/>
                       </use>
               </g>
        </defs>

<script type="text/javascript">
var viewWidth = 1176;
var viewHeight = 700;
var sectionId = 'dynsection-1';
</script>
<script xlink:href="../../svgpan.js"/>
<svg id="graph" class="graph">
<g id="viewport">
<title>handles.h</title>
<polygon fill="white" stroke="none" points="-4,4 -4,-696 1172,-696 1172,4 -4,4"/>
<!-- Node1 -->
<g id="node1" class="node"><title>Node1</title>
<polygon fill="#bfbfbf" stroke="black" points="805.5,-672.5 805.5,-691.5 864.5,-691.5 864.5,-672.5 805.5,-672.5"/>
<text text-anchor="middle" x="835" y="-679.5" font-family="Helvetica,sans-Serif" font-size="10.00">handles.h</text>
</g>
<!-- Node2 -->
<g id="node2" class="node"><title>Node2</title>
<g id="a_node2"><a xlink:href="../../d2/d86/encoder__decoder_8h.html" target="_top" xlink:title="encoder_decoder.h">
<polygon fill="white" stroke="black" points="881.5,-560.5 881.5,-579.5 980.5,-579.5 980.5,-560.5 881.5,-560.5"/>
<text text-anchor="middle" x="931" y="-567.5" font-family="Helvetica,sans-Serif" font-size="10.00">encoder_decoder.h</text>
</a>
</g>
</g>
<!-- Node1&#45;&gt;Node2 -->
<g id="edge1" class="edge"><title>Node1&#45;&gt;Node2</title>
<path fill="none" stroke="midnightblue" d="M849.325,-664.586C870.022,-640.871 907.551,-597.869 923.502,-579.591"/>
<polygon fill="midnightblue" stroke="midnightblue" points="846.471,-662.533 842.533,-672.368 851.745,-667.136 846.471,-662.533"/>
</g>
<!-- Node5 -->
<g id="node5" class="node"><title>Node5</title>
<g id="a_node5"><a xlink:href="../../d0/ddd/cell_8h.html" target="_top" xlink:title="cell.h">
<polygon fill="white" stroke="black" points="604,-336.5 604,-355.5 644,-355.5 644,-336.5 604,-336.5"/>
<text text-anchor="middle" x="624" y="-343.5" font-family="Helvetica,sans-Serif" font-size="10.00">cell.h</text>
</a>
</g>
</g>
<!-- Node1&#45;&gt;Node5 -->
<g id="edge4" class="edge"><title>Node1&#45;&gt;Node5</title>
<path fill="none" stroke="midnightblue" d="M874.826,-681.293C946.996,-679.513 1092,-664.326 1092,-571 1092,-571 1092,-571 1092,-457 1092,-426.902 1096.15,-411.231 1073,-392 1039.59,-364.249 727.166,-350.81 644.166,-347.711"/>
<polygon fill="midnightblue" stroke="midnightblue" points="874.671,-677.795 864.732,-681.466 874.791,-684.794 874.671,-677.795"/>
</g>
<!-- Node6 -->
<g id="node6" class="node"><title>Node6</title>
<g id="a_node6"><a xlink:href="../../dc/db8/gru_8h.html" target="_top" xlink:title="gru.h">
<polygon fill="white" stroke="black" points="758,-280.5 758,-299.5 796,-299.5 796,-280.5 758,-280.5"/>
<text text-anchor="middle" x="777" y="-287.5" font-family="Helvetica,sans-Serif" font-size="10.00">gru.h</text>
</a>
</g>
</g>
<!-- Node1&#45;&gt;Node6 -->
<g id="edge29" class="edge"><title>Node1&#45;&gt;Node6</title>
<path fill="none" stroke="midnightblue" d="M874.939,-679.394C925.198,-676.121 1013.25,-666.183 1082,-636 1125.87,-616.739 1168,-618.911 1168,-571 1168,-571 1168,-571 1168,-457 1168,-375.234 874.624,-310.568 796.123,-294.728"/>
<polygon fill="midnightblue" stroke="midnightblue" points="874.583,-675.909 864.808,-679.996 874.998,-682.896 874.583,-675.909"/>
</g>
<!-- Node12 -->
<g id="node12" class="node"><title>Node12</title>
<g id="a_node12"><a xlink:href="../../d0/d55/lstm_8h.html" target="_top" xlink:title="lstm.h">
<polygon fill="white" stroke="black" points="392,-280.5 392,-299.5 436,-299.5 436,-280.5 392,-280.5"/>
<text text-anchor="middle" x="414" y="-287.5" font-family="Helvetica,sans-Serif" font-size="10.00">lstm.h</text>
</a>
</g>
</g>
<!-- Node1&#45;&gt;Node12 -->
<g id="edge30" class="edge"><title>Node1&#45;&gt;Node12</title>
<path fill="none" stroke="midnightblue" d="M795.407,-679.434C681.235,-674.684 352.852,-659.327 248,-636 168.229,-618.253 76,-652.721 76,-571 76,-571 76,-571 76,-401 76,-334.353 316.627,-301.862 391.823,-293.336"/>
<polygon fill="midnightblue" stroke="midnightblue" points="795.325,-682.933 805.46,-679.847 795.613,-675.939 795.325,-682.933"/>
</g>
<!-- Node13 -->
<g id="node13" class="node"><title>Node13</title>
<g id="a_node13"><a xlink:href="../../d6/d81/multiplicative_8h.html" target="_top" xlink:title="multiplicative.h">
<polygon fill="white" stroke="black" points="455,-224.5 455,-243.5 537,-243.5 537,-224.5 455,-224.5"/>
<text text-anchor="middle" x="496" y="-231.5" font-family="Helvetica,sans-Serif" font-size="10.00">multiplicative.h</text>
</a>
</g>
</g>
<!-- Node1&#45;&gt;Node13 -->
<g id="edge31" class="edge"><title>Node1&#45;&gt;Node13</title>
<path fill="none" stroke="midnightblue" d="M794.987,-680.426C649.641,-678.088 154.837,-667.842 92,-636 58.4985,-619.023 38,-608.558 38,-571 38,-571 38,-571 38,-345 38,-259.647 342.536,-240.351 454.952,-236.136"/>
<polygon fill="midnightblue" stroke="midnightblue" points="795.176,-683.929 805.23,-680.586 795.286,-676.93 795.176,-683.929"/>
</g>
<!-- Node14 -->
<g id="node14" class="node"><title>Node14</title>
<g id="a_node14"><a xlink:href="../../d2/d98/cellstate_8h.html" target="_top" xlink:title="cellstate.h">
<polygon fill="white" stroke="black" points="410,-392.5 410,-411.5 472,-411.5 472,-392.5 410,-392.5"/>
<text text-anchor="middle" x="441" y="-399.5" font-family="Helvetica,sans-Serif" font-size="10.00">cellstate.h</text>
</a>
</g>
</g>
<!-- Node1&#45;&gt;Node14 -->
<g id="edge20" class="edge"><title>Node1&#45;&gt;Node14</title>
<path fill="none" stroke="midnightblue" d="M794.9,-678.809C648.59,-670.289 152,-636.543 152,-571 152,-571 152,-571 152,-513 152,-458.308 335.068,-420.995 409.797,-408.041"/>
<polygon fill="midnightblue" stroke="midnightblue" points="795.029,-682.322 805.213,-679.401 795.43,-675.334 795.029,-682.322"/>
</g>
<!-- Node17 -->
<g id="node17" class="node"><title>Node17</title>
<g id="a_node17"><a xlink:href="../../dd/df4/matrix_8h.html" target="_top" xlink:title="matrix.h">
<polygon fill="white" stroke="black" points="760,-616.5 760,-635.5 812,-635.5 812,-616.5 760,-616.5"/>
<text text-anchor="middle" x="786" y="-623.5" font-family="Helvetica,sans-Serif" font-size="10.00">matrix.h</text>
</a>
</g>
</g>
<!-- Node1&#45;&gt;Node17 -->
<g id="edge32" class="edge"><title>Node1&#45;&gt;Node17</title>
<path fill="none" stroke="midnightblue" d="M819.966,-664.431C811.378,-654.967 800.957,-643.483 793.941,-635.751"/>
<polygon fill="midnightblue" stroke="midnightblue" points="817.597,-667.029 826.909,-672.083 822.781,-662.325 817.597,-667.029"/>
</g>
<!-- Node21 -->
<g id="node21" class="node"><title>Node21</title>
<g id="a_node21"><a xlink:href="../../da/dbc/matrix__functions_8h.html" target="_top" xlink:title="matrix_functions.h">
<polygon fill="white" stroke="black" points="699.5,-448.5 699.5,-467.5 796.5,-467.5 796.5,-448.5 699.5,-448.5"/>
<text text-anchor="middle" x="748" y="-455.5" font-family="Helvetica,sans-Serif" font-size="10.00">matrix_functions.h</text>
</a>
</g>
</g>
<!-- Node1&#45;&gt;Node21 -->
<g id="edge66" class="edge"><title>Node1&#45;&gt;Node21</title>
<path fill="none" stroke="midnightblue" d="M874.253,-670.171C924.423,-653.819 1003.22,-618.381 989,-560 982.367,-532.768 982.295,-520.986 960,-504 934.785,-484.789 850.918,-471.372 796.533,-464.445"/>
<polygon fill="midnightblue" stroke="midnightblue" points="873.131,-666.854 864.637,-673.187 875.226,-673.533 873.131,-666.854"/>
</g>
<!-- Node3 -->
<g id="node3" class="node"><title>Node3</title>
<g id="a_node3"><a xlink:href="../../d0/d90/best__hyps_8h.html" target="_top" xlink:title="best_hyps.h">
<polygon fill="white" stroke="black" points="994,-392.5 994,-411.5 1064,-411.5 1064,-392.5 994,-392.5"/>
<text text-anchor="middle" x="1029" y="-399.5" font-family="Helvetica,sans-Serif" font-size="10.00">best_hyps.h</text>
</a>
</g>
</g>
<!-- Node2&#45;&gt;Node3 -->
<g id="edge2" class="edge"><title>Node2&#45;&gt;Node3</title>
<path fill="none" stroke="midnightblue" d="M942.278,-551.979C947.738,-543.618 954.325,-533.353 960,-524 985.213,-482.444 1013.37,-431.551 1024.31,-411.601"/>
<polygon fill="midnightblue" stroke="midnightblue" points="939.27,-550.183 936.699,-560.461 945.119,-554.029 939.27,-550.183"/>
</g>
<!-- Node4 -->
<g id="node4" class="node"><title>Node4</title>
<g id="a_node4"><a xlink:href="../../da/d6d/nmt_8h.html" target="_top" xlink:title="nmt.h">
<polygon fill="white" stroke="black" points="910.5,-504.5 910.5,-523.5 951.5,-523.5 951.5,-504.5 910.5,-504.5"/>
<text text-anchor="middle" x="931" y="-511.5" font-family="Helvetica,sans-Serif" font-size="10.00">nmt.h</text>
</a>
</g>
</g>
<!-- Node2&#45;&gt;Node4 -->
<g id="edge3" class="edge"><title>Node2&#45;&gt;Node4</title>
<path fill="none" stroke="midnightblue" d="M931,-549.805C931,-540.91 931,-530.78 931,-523.751"/>
<polygon fill="midnightblue" stroke="midnightblue" points="927.5,-550.083 931,-560.083 934.5,-550.083 927.5,-550.083"/>
</g>
<!-- Node5&#45;&gt;Node6 -->
<g id="edge5" class="edge"><title>Node5&#45;&gt;Node6</title>
<path fill="none" stroke="midnightblue" d="M653.772,-334.492C684.596,-323.613 731.826,-306.944 757.956,-297.721"/>
<polygon fill="midnightblue" stroke="midnightblue" points="652.267,-331.312 644.002,-337.94 654.597,-337.913 652.267,-331.312"/>
</g>
<!-- Node7 -->
<g id="node7" class="node"><title>Node7</title>
<g id="a_node7"><a xlink:href="../../d6/d72/decoder_8h.html" target="_top" xlink:title="decoder.h">
<polygon fill="white" stroke="black" points="642.5,-224.5 642.5,-243.5 701.5,-243.5 701.5,-224.5 642.5,-224.5"/>
<text text-anchor="middle" x="672" y="-231.5" font-family="Helvetica,sans-Serif" font-size="10.00">decoder.h</text>
</a>
</g>
</g>
<!-- Node5&#45;&gt;Node7 -->
<g id="edge17" class="edge"><title>Node5&#45;&gt;Node7</title>
<path fill="none" stroke="midnightblue" d="M631.855,-326.998C642.329,-302.997 660.45,-261.468 668.251,-243.591"/>
<polygon fill="midnightblue" stroke="midnightblue" points="628.558,-325.803 627.766,-336.368 634.974,-328.603 628.558,-325.803"/>
</g>
<!-- Node11 -->
<g id="node11" class="node"><title>Node11</title>
<g id="a_node11"><a xlink:href="../../d1/d79/encoder_8h.html" target="_top" xlink:title="encoder.h">
<polygon fill="white" stroke="black" points="700.5,-168.5 700.5,-187.5 759.5,-187.5 759.5,-168.5 700.5,-168.5"/>
<text text-anchor="middle" x="730" y="-175.5" font-family="Helvetica,sans-Serif" font-size="10.00">encoder.h</text>
</a>
</g>
</g>
<!-- Node5&#45;&gt;Node11 -->
<g id="edge19" class="edge"><title>Node5&#45;&gt;Node11</title>
<path fill="none" stroke="midnightblue" d="M640.901,-329.425C660.165,-310.816 691.385,-277.918 710,-244 720.225,-225.369 725.959,-200.803 728.462,-187.859"/>
<polygon fill="midnightblue" stroke="midnightblue" points="638.3,-327.068 633.449,-336.487 643.115,-332.149 638.3,-327.068"/>
</g>
<!-- Node5&#45;&gt;Node12 -->
<g id="edge12" class="edge"><title>Node5&#45;&gt;Node12</title>
<path fill="none" stroke="midnightblue" d="M594.068,-337.303C551.443,-326.342 474.226,-306.487 436.275,-296.728"/>
<polygon fill="midnightblue" stroke="midnightblue" points="593.308,-340.721 603.864,-339.822 595.051,-333.942 593.308,-340.721"/>
</g>
<!-- Node5&#45;&gt;Node13 -->
<g id="edge18" class="edge"><title>Node5&#45;&gt;Node13</title>
<path fill="none" stroke="midnightblue" d="M606.331,-329.816C579.069,-306.387 527.639,-262.19 505.997,-243.591"/>
<polygon fill="midnightblue" stroke="midnightblue" points="604.091,-332.505 613.956,-336.368 608.653,-327.196 604.091,-332.505"/>
</g>
<!-- Node6&#45;&gt;Node7 -->
<g id="edge6" class="edge"><title>Node6&#45;&gt;Node7</title>
<path fill="none" stroke="midnightblue" d="M751.19,-275.726C731.747,-265.727 705.652,-252.307 688.828,-243.655"/>
<polygon fill="midnightblue" stroke="midnightblue" points="749.636,-278.863 760.13,-280.324 752.838,-272.638 749.636,-278.863"/>
</g>
<!-- Node6&#45;&gt;Node11 -->
<g id="edge10" class="edge"><title>Node6&#45;&gt;Node11</title>
<path fill="none" stroke="midnightblue" d="M769.308,-270.998C759.053,-246.997 741.309,-205.468 733.671,-187.591"/>
<polygon fill="midnightblue" stroke="midnightblue" points="766.164,-272.548 773.312,-280.368 772.601,-269.798 766.164,-272.548"/>
</g>
<!-- Node8 -->
<g id="node8" class="node"><title>Node8</title>
<g id="a_node8"><a xlink:href="../../db/d89/dl4mt_8h.html" target="_top" xlink:title="dl4mt.h">
<polygon fill="white" stroke="black" points="676.5,-112.5 676.5,-131.5 725.5,-131.5 725.5,-112.5 676.5,-112.5"/>
<text text-anchor="middle" x="701" y="-119.5" font-family="Helvetica,sans-Serif" font-size="10.00">dl4mt.h</text>
</a>
</g>
</g>
<!-- Node7&#45;&gt;Node8 -->
<g id="edge7" class="edge"><title>Node7&#45;&gt;Node8</title>
<path fill="none" stroke="midnightblue" d="M676.831,-214.674C683.172,-190.625 694.043,-149.388 698.735,-131.591"/>
<polygon fill="midnightblue" stroke="midnightblue" points="673.441,-213.807 674.276,-224.368 680.209,-215.591 673.441,-213.807"/>
</g>
<!-- Node9 -->
<g id="node9" class="node"><title>Node9</title>
<g id="a_node9"><a xlink:href="../../d6/da3/language__model_8h.html" target="_top" xlink:title="language_model.h">
<polygon fill="white" stroke="black" points="302.5,-56.5 302.5,-75.5 397.5,-75.5 397.5,-56.5 302.5,-56.5"/>
<text text-anchor="middle" x="350" y="-63.5" font-family="Helvetica,sans-Serif" font-size="10.00">language_model.h</text>
</a>
</g>
</g>
<!-- Node8&#45;&gt;Node9 -->
<g id="edge8" class="edge"><title>Node8&#45;&gt;Node9</title>
<path fill="none" stroke="midnightblue" d="M666.076,-115.627C602.85,-105.9 469.345,-85.3608 397.748,-74.3458"/>
<polygon fill="midnightblue" stroke="midnightblue" points="665.902,-119.141 676.318,-117.203 666.967,-112.223 665.902,-119.141"/>
</g>
<!-- Node10 -->
<g id="node10" class="node"><title>Node10</title>
<g id="a_node10"><a xlink:href="../../d3/d17/class__language__model_8h.html" target="_top" xlink:title="class_language_model.h">
<polygon fill="white" stroke="black" points="288,-0.5 288,-19.5 412,-19.5 412,-0.5 288,-0.5"/>
<text text-anchor="middle" x="350" y="-7.5" font-family="Helvetica,sans-Serif" font-size="10.00">class_language_model.h</text>
</a>
</g>
</g>
<!-- Node9&#45;&gt;Node10 -->
<g id="edge9" class="edge"><title>Node9&#45;&gt;Node10</title>
<path fill="none" stroke="midnightblue" d="M350,-45.8045C350,-36.9102 350,-26.7798 350,-19.7511"/>
<polygon fill="midnightblue" stroke="midnightblue" points="346.5,-46.083 350,-56.083 353.5,-46.083 346.5,-46.083"/>
</g>
<!-- Node11&#45;&gt;Node8 -->
<g id="edge11" class="edge"><title>Node11&#45;&gt;Node8</title>
<path fill="none" stroke="midnightblue" d="M720.324,-158.983C715.402,-149.817 709.642,-139.092 705.7,-131.751"/>
<polygon fill="midnightblue" stroke="midnightblue" points="717.396,-160.929 725.211,-168.083 723.563,-157.617 717.396,-160.929"/>
</g>
<!-- Node12&#45;&gt;Node7 -->
<g id="edge13" class="edge"><title>Node12&#45;&gt;Node7</title>
<path fill="none" stroke="midnightblue" d="M446.493,-282.199C497.025,-271.623 593.684,-251.392 642.392,-241.197"/>
<polygon fill="midnightblue" stroke="midnightblue" points="445.515,-278.828 436.444,-284.302 446.949,-285.679 445.515,-278.828"/>
</g>
<!-- Node12&#45;&gt;Node11 -->
<g id="edge14" class="edge"><title>Node12&#45;&gt;Node11</title>
<path fill="none" stroke="midnightblue" d="M418.133,-270.456C422.474,-255.498 430.846,-235.171 446,-224 486.082,-194.453 636.167,-183.629 700.463,-180.291"/>
<polygon fill="midnightblue" stroke="midnightblue" points="414.73,-269.637 415.645,-280.192 421.512,-271.37 414.73,-269.637"/>
</g>
<!-- Node12&#45;&gt;Node13 -->
<g id="edge15" class="edge"><title>Node12&#45;&gt;Node13</title>
<path fill="none" stroke="midnightblue" d="M435.833,-274.622C450.813,-264.757 470.197,-251.992 482.858,-243.655"/>
<polygon fill="midnightblue" stroke="midnightblue" points="433.601,-271.901 427.175,-280.324 437.451,-277.747 433.601,-271.901"/>
</g>
<!-- Node13&#45;&gt;Node11 -->
<g id="edge16" class="edge"><title>Node13&#45;&gt;Node11</title>
<path fill="none" stroke="midnightblue" d="M542.992,-222.156C589.868,-211.338 660.456,-195.049 700.149,-185.889"/>
<polygon fill="midnightblue" stroke="midnightblue" points="542.035,-218.784 533.078,-224.444 543.609,-225.605 542.035,-218.784"/>
</g>
<!-- Node14&#45;&gt;Node5 -->
<g id="edge22" class="edge"><title>Node14&#45;&gt;Node5</title>
<path fill="none" stroke="midnightblue" d="M479.705,-389.579C517.685,-378.372 574.113,-361.721 603.901,-352.931"/>
<polygon fill="midnightblue" stroke="midnightblue" points="478.597,-386.256 469.997,-392.444 480.579,-392.97 478.597,-386.256"/>
</g>
<!-- Node14&#45;&gt;Node6 -->
<g id="edge24" class="edge"><title>Node14&#45;&gt;Node6</title>
<path fill="none" stroke="midnightblue" d="M482.184,-395.671C525.586,-389.274 595.491,-376.731 653,-356 695.302,-340.751 741.221,-313.596 763.438,-299.707"/>
<polygon fill="midnightblue" stroke="midnightblue" points="481.679,-392.208 472.277,-397.092 482.673,-399.137 481.679,-392.208"/>
</g>
<!-- Node14&#45;&gt;Node7 -->
<g id="edge26" class="edge"><title>Node14&#45;&gt;Node7</title>
<path fill="none" stroke="midnightblue" d="M399.561,-400.575C330.604,-398.441 203.919,-387.62 247,-336 275.655,-301.665 401.45,-310.168 445,-300 518.253,-282.897 603.123,-256.916 645.319,-243.572"/>
<polygon fill="midnightblue" stroke="midnightblue" points="399.606,-404.077 409.694,-400.839 399.788,-397.079 399.606,-404.077"/>
</g>
<!-- Node14&#45;&gt;Node11 -->
<g id="edge28" class="edge"><title>Node14&#45;&gt;Node11</title>
<path fill="none" stroke="midnightblue" d="M460.927,-386.457C472.337,-377.905 486.771,-366.701 499,-356 561.912,-300.948 564.294,-271.625 633,-224 655.886,-208.136 685.255,-195.413 705.652,-187.597"/>
<polygon fill="midnightblue" stroke="midnightblue" points="458.824,-383.658 452.878,-392.427 462.994,-389.281 458.824,-383.658"/>
</g>
<!-- Node14&#45;&gt;Node12 -->
<g id="edge25" class="edge"><title>Node14&#45;&gt;Node12</title>
<path fill="none" stroke="midnightblue" d="M399.568,-398.888C340.599,-394.918 237.031,-384.045 214,-356 165.457,-296.889 330.308,-290.995 391.796,-290.804"/>
<polygon fill="midnightblue" stroke="midnightblue" points="399.479,-402.39 409.681,-399.531 399.923,-395.404 399.479,-402.39"/>
</g>
<!-- Node14&#45;&gt;Node13 -->
<g id="edge27" class="edge"><title>Node14&#45;&gt;Node13</title>
<path fill="none" stroke="midnightblue" d="M459.422,-385.154C467.394,-377.233 476.022,-366.999 481,-356 498.63,-317.045 497.777,-264.229 496.633,-243.68"/>
<polygon fill="midnightblue" stroke="midnightblue" points="456.748,-382.862 451.829,-392.246 461.526,-387.978 456.748,-382.862"/>
</g>
<!-- Node15 -->
<g id="node15" class="node"><title>Node15</title>
<g id="a_node15"><a xlink:href="../../d0/d1e/encoder__decoder__state_8h.html" target="_top" xlink:title="encoder_decoder_state.h">
<polygon fill="white" stroke="black" points="256,-336.5 256,-355.5 382,-355.5 382,-336.5 256,-336.5"/>
<text text-anchor="middle" x="319" y="-343.5" font-family="Helvetica,sans-Serif" font-size="10.00">encoder_decoder_state.h</text>
</a>
</g>
</g>
<!-- Node14&#45;&gt;Node15 -->
<g id="edge21" class="edge"><title>Node14&#45;&gt;Node15</title>
<path fill="none" stroke="midnightblue" d="M412.461,-388.368C389.614,-378.255 358.195,-364.349 338.241,-355.516"/>
<polygon fill="midnightblue" stroke="midnightblue" points="411.108,-391.597 421.669,-392.444 413.941,-385.196 411.108,-391.597"/>
</g>
<!-- Node16 -->
<g id="node16" class="node"><title>Node16</title>
<g id="a_node16"><a xlink:href="../../d4/d8f/cellstate_8cpp.html" target="_top" xlink:title="cellstate.cpp">
<polygon fill="white" stroke="black" points="400,-336.5 400,-355.5 472,-355.5 472,-336.5 400,-336.5"/>
<text text-anchor="middle" x="436" y="-343.5" font-family="Helvetica,sans-Serif" font-size="10.00">cellstate.cpp</text>
</a>
</g>
</g>
<!-- Node14&#45;&gt;Node16 -->
<g id="edge23" class="edge"><title>Node14&#45;&gt;Node16</title>
<path fill="none" stroke="midnightblue" d="M439.25,-382.101C438.42,-373.136 437.468,-362.858 436.81,-355.751"/>
<polygon fill="midnightblue" stroke="midnightblue" points="435.767,-382.448 440.174,-392.083 442.737,-381.803 435.767,-382.448"/>
</g>
<!-- Node17&#45;&gt;Node2 -->
<g id="edge35" class="edge"><title>Node17&#45;&gt;Node2</title>
<path fill="none" stroke="midnightblue" d="M818.475,-612.906C845.736,-602.754 883.992,-588.506 908.132,-579.516"/>
<polygon fill="midnightblue" stroke="midnightblue" points="817.125,-609.674 808.976,-616.444 819.568,-616.233 817.125,-609.674"/>
</g>
<!-- Node17&#45;&gt;Node4 -->
<g id="edge65" class="edge"><title>Node17&#45;&gt;Node4</title>
<path fill="none" stroke="midnightblue" d="M763.059,-610.503C744.848,-597.186 724.51,-576.997 738,-560 748.801,-546.391 862.722,-526.241 910.302,-518.345"/>
<polygon fill="midnightblue" stroke="midnightblue" points="761.451,-613.646 771.67,-616.445 765.427,-607.885 761.451,-613.646"/>
</g>
<!-- Node17&#45;&gt;Node9 -->
<g id="edge34" class="edge"><title>Node17&#45;&gt;Node9</title>
<path fill="none" stroke="midnightblue" d="M749.471,-625.187C594.583,-625.02 0,-614.268 0,-459 0,-459 0,-459 0,-177 0,-114.341 206.737,-83.0213 302.433,-71.8802"/>
<polygon fill="midnightblue" stroke="midnightblue" points="749.85,-628.687 759.848,-625.183 749.847,-621.687 749.85,-628.687"/>
</g>
<!-- Node18 -->
<g id="node18" class="node"><title>Node18</title>
<g id="a_node18"><a xlink:href="../../df/d0c/ape__penalty_8h.html" target="_top" xlink:title="ape_penalty.h">
<polygon fill="white" stroke="black" points="747.5,-560.5 747.5,-579.5 824.5,-579.5 824.5,-560.5 747.5,-560.5"/>
<text text-anchor="middle" x="786" y="-567.5" font-family="Helvetica,sans-Serif" font-size="10.00">ape_penalty.h</text>
</a>
</g>
</g>
<!-- Node17&#45;&gt;Node18 -->
<g id="edge33" class="edge"><title>Node17&#45;&gt;Node18</title>
<path fill="none" stroke="midnightblue" d="M786,-605.805C786,-596.91 786,-586.78 786,-579.751"/>
<polygon fill="midnightblue" stroke="midnightblue" points="782.5,-606.083 786,-616.083 789.5,-606.083 782.5,-606.083"/>
</g>
<!-- Node19 -->
<g id="node19" class="node"><title>Node19</title>
<g id="a_node19"><a xlink:href="../../d0/d2c/amun_2gpu_2dl4mt_2model_8h.html" target="_top" xlink:title="model.h">
<polygon fill="white" stroke="black" points="907.5,-280.5 907.5,-299.5 958.5,-299.5 958.5,-280.5 907.5,-280.5"/>
<text text-anchor="middle" x="933" y="-287.5" font-family="Helvetica,sans-Serif" font-size="10.00">model.h</text>
</a>
</g>
</g>
<!-- Node17&#45;&gt;Node19 -->
<g id="edge36" class="edge"><title>Node17&#45;&gt;Node19</title>
<path fill="none" stroke="midnightblue" d="M822.242,-624.009C910.614,-619.475 1130,-594.568 1130,-459 1130,-459 1130,-459 1130,-401 1130,-323.44 1012.15,-300.053 958.754,-293.437"/>
<polygon fill="midnightblue" stroke="midnightblue" points="821.969,-620.518 812.138,-624.467 822.287,-627.511 821.969,-620.518"/>
</g>
<!-- Node17&#45;&gt;Node21 -->
<g id="edge42" class="edge"><title>Node17&#45;&gt;Node21</title>
<path fill="none" stroke="midnightblue" d="M763.706,-610.634C739.6,-593.48 703.007,-562.252 691,-524 688.338,-515.519 687.124,-511.999 691,-504 699.028,-487.435 716.438,-475.128 729.918,-467.61"/>
<polygon fill="midnightblue" stroke="midnightblue" points="761.731,-613.523 771.954,-616.304 765.696,-607.754 761.731,-613.523"/>
</g>
<!-- Node23 -->
<g id="node23" class="node"><title>Node23</title>
<g id="a_node23"><a xlink:href="../../d1/df1/matrix__wrapper_8h.html" target="_top" xlink:title="matrix_wrapper.h">
<polygon fill="white" stroke="black" points="551,-560.5 551,-579.5 643,-579.5 643,-560.5 551,-560.5"/>
<text text-anchor="middle" x="597" y="-567.5" font-family="Helvetica,sans-Serif" font-size="10.00">matrix_wrapper.h</text>
</a>
</g>
</g>
<!-- Node17&#45;&gt;Node23 -->
<g id="edge53" class="edge"><title>Node17&#45;&gt;Node23</title>
<path fill="none" stroke="midnightblue" d="M749.71,-614.631C713.986,-604.424 660.082,-589.023 626.791,-579.512"/>
<polygon fill="midnightblue" stroke="midnightblue" points="749.144,-618.11 759.72,-617.492 751.067,-611.379 749.144,-618.11"/>
</g>
<!-- Node25 -->
<g id="node25" class="node"><title>Node25</title>
<g id="a_node25"><a xlink:href="../../d7/d58/amun_2gpu_2mblas_2nth__element_8h.html" target="_top" xlink:title="nth_element.h">
<polygon fill="white" stroke="black" points="872,-448.5 872,-467.5 950,-467.5 950,-448.5 872,-448.5"/>
<text text-anchor="middle" x="911" y="-455.5" font-family="Helvetica,sans-Serif" font-size="10.00">nth_element.h</text>
</a>
</g>
</g>
<!-- Node17&#45;&gt;Node25 -->
<g id="edge64" class="edge"><title>Node17&#45;&gt;Node25</title>
<path fill="none" stroke="midnightblue" d="M803.896,-609.698C813.106,-601.385 824.214,-590.648 833,-580 865.131,-541.058 895.12,-488.234 906.341,-467.682"/>
<polygon fill="midnightblue" stroke="midnightblue" points="801.577,-607.077 796.395,-616.318 806.209,-612.325 801.577,-607.077"/>
</g>
<!-- Node19&#45;&gt;Node7 -->
<g id="edge38" class="edge"><title>Node19&#45;&gt;Node7</title>
<path fill="none" stroke="midnightblue" d="M897.417,-281.638C845.486,-270.894 749.874,-251.112 701.576,-241.119"/>
<polygon fill="midnightblue" stroke="midnightblue" points="896.997,-285.125 907.499,-283.724 898.416,-278.27 896.997,-285.125"/>
</g>
<!-- Node19&#45;&gt;Node8 -->
<g id="edge39" class="edge"><title>Node19&#45;&gt;Node8</title>
<path fill="none" stroke="midnightblue" d="M964.042,-276.134C988.718,-263.99 1016.83,-244.614 1002,-224 936.504,-132.938 784.934,-122.828 725.522,-122.512"/>
<polygon fill="midnightblue" stroke="midnightblue" points="962.433,-273.022 954.85,-280.421 965.392,-279.366 962.433,-273.022"/>
</g>
<!-- Node19&#45;&gt;Node11 -->
<g id="edge40" class="edge"><title>Node19&#45;&gt;Node11</title>
<path fill="none" stroke="midnightblue" d="M956.935,-275.103C976.78,-261.838 999.564,-241.359 985,-224 956.539,-190.077 820.876,-181.716 759.855,-179.663"/>
<polygon fill="midnightblue" stroke="midnightblue" points="955.019,-272.173 948.449,-280.484 958.768,-278.085 955.019,-272.173"/>
</g>
<!-- Node19&#45;&gt;Node13 -->
<g id="edge41" class="edge"><title>Node19&#45;&gt;Node13</title>
<path fill="none" stroke="midnightblue" d="M897.179,-284.574C816.811,-274.643 622.511,-250.633 537.261,-240.099"/>
<polygon fill="midnightblue" stroke="midnightblue" points="896.941,-288.071 907.295,-285.824 897.8,-281.124 896.941,-288.071"/>
</g>
<!-- Node20 -->
<g id="node20" class="node"><title>Node20</title>
<g id="a_node20"><a xlink:href="../../da/d6b/encoder__decoder__loader_8h.html" target="_top" xlink:title="encoder_decoder_loader.h">
<polygon fill="white" stroke="black" points="845.5,-224.5 845.5,-243.5 976.5,-243.5 976.5,-224.5 845.5,-224.5"/>
<text text-anchor="middle" x="911" y="-231.5" font-family="Helvetica,sans-Serif" font-size="10.00">encoder_decoder_loader.h</text>
</a>
</g>
</g>
<!-- Node19&#45;&gt;Node20 -->
<g id="edge37" class="edge"><title>Node19&#45;&gt;Node20</title>
<path fill="none" stroke="midnightblue" d="M925.54,-270.69C921.833,-261.589 917.524,-251.014 914.565,-243.751"/>
<polygon fill="midnightblue" stroke="midnightblue" points="922.353,-272.143 929.367,-280.083 928.835,-269.502 922.353,-272.143"/>
</g>
<!-- Node21&#45;&gt;Node3 -->
<g id="edge43" class="edge"><title>Node21&#45;&gt;Node3</title>
<path fill="none" stroke="midnightblue" d="M803.806,-446.634C851.86,-437.653 923.047,-424.217 985,-412 987.907,-411.427 990.92,-410.825 993.945,-410.217"/>
<polygon fill="midnightblue" stroke="midnightblue" points="803.102,-443.205 793.914,-448.481 804.387,-450.086 803.102,-443.205"/>
</g>
<!-- Node21&#45;&gt;Node5 -->
<g id="edge44" class="edge"><title>Node21&#45;&gt;Node5</title>
<path fill="none" stroke="midnightblue" d="M710.992,-444.639C693.313,-437.307 672.83,-426.561 658,-412 641.28,-395.583 631.03,-369.186 626.588,-355.637"/>
<polygon fill="midnightblue" stroke="midnightblue" points="709.885,-447.964 720.472,-448.363 712.445,-441.449 709.885,-447.964"/>
</g>
<!-- Node21&#45;&gt;Node6 -->
<g id="edge47" class="edge"><title>Node21&#45;&gt;Node6</title>
<path fill="none" stroke="midnightblue" d="M754.425,-438.945C757.113,-430.802 760.056,-421.009 762,-412 770.972,-370.41 775.102,-319.536 776.463,-299.596"/>
<polygon fill="midnightblue" stroke="midnightblue" points="751.084,-437.9 751.146,-448.495 757.704,-440.174 751.084,-437.9"/>
</g>
<!-- Node21&#45;&gt;Node7 -->
<g id="edge46" class="edge"><title>Node21&#45;&gt;Node7</title>
<path fill="none" stroke="midnightblue" d="M741.696,-438.585C726.136,-393.135 686.352,-276.924 675.041,-243.884"/>
<polygon fill="midnightblue" stroke="midnightblue" points="738.47,-439.97 745.021,-448.297 745.093,-437.703 738.47,-439.97"/>
</g>
<!-- Node21&#45;&gt;Node11 -->
<g id="edge49" class="edge"><title>Node21&#45;&gt;Node11</title>
<path fill="none" stroke="midnightblue" d="M760.545,-440.048C782.226,-408.612 822.759,-339.093 805,-280 792.994,-240.05 757.154,-203.49 739.728,-187.501"/>
<polygon fill="midnightblue" stroke="midnightblue" points="757.693,-438.02 754.75,-448.198 763.397,-442.077 757.693,-438.02"/>
</g>
<!-- Node21&#45;&gt;Node12 -->
<g id="edge48" class="edge"><title>Node21&#45;&gt;Node12</title>
<path fill="none" stroke="midnightblue" d="M716.401,-444.771C694.678,-436.137 665.302,-424.01 640,-412 558.582,-373.354 464.56,-320.137 428.818,-299.581"/>
<polygon fill="midnightblue" stroke="midnightblue" points="715.214,-448.065 725.8,-448.479 717.782,-441.553 715.214,-448.065"/>
</g>
<!-- Node21&#45;&gt;Node13 -->
<g id="edge50" class="edge"><title>Node21&#45;&gt;Node13</title>
<path fill="none" stroke="midnightblue" d="M736.841,-439.78C720.35,-415.098 687.663,-369.006 653,-336 621.832,-306.322 610.234,-303.223 574,-280 552.94,-266.502 527.736,-252.299 511.795,-243.544"/>
<polygon fill="midnightblue" stroke="midnightblue" points="734.094,-441.972 742.519,-448.396 739.939,-438.12 734.094,-441.972"/>
</g>
<!-- Node21&#45;&gt;Node14 -->
<g id="edge45" class="edge"><title>Node21&#45;&gt;Node14</title>
<path fill="none" stroke="midnightblue" d="M689.231,-447.377C636.078,-438.562 555.697,-424.953 486,-412 481.613,-411.185 476.993,-410.296 472.45,-409.404"/>
<polygon fill="midnightblue" stroke="midnightblue" points="688.721,-450.84 699.158,-449.02 689.864,-443.934 688.721,-450.84"/>
</g>
<!-- Node22 -->
<g id="node22" class="node"><title>Node22</title>
<g id="a_node22"><a xlink:href="../../d8/dd8/amun_2gpu_2npz__converter_8h.html" target="_top" xlink:title="npz_converter.h">
<polygon fill="white" stroke="black" points="890,-392.5 890,-411.5 976,-411.5 976,-392.5 890,-392.5"/>
<text text-anchor="middle" x="933" y="-399.5" font-family="Helvetica,sans-Serif" font-size="10.00">npz_converter.h</text>
</a>
</g>
</g>
<!-- Node21&#45;&gt;Node22 -->
<g id="edge51" class="edge"><title>Node21&#45;&gt;Node22</title>
<path fill="none" stroke="midnightblue" d="M787.166,-445.568C822.065,-435.381 872.349,-420.703 903.823,-411.516"/>
<polygon fill="midnightblue" stroke="midnightblue" points="785.933,-442.282 777.314,-448.444 787.894,-449.001 785.933,-442.282"/>
</g>
<!-- Node22&#45;&gt;Node19 -->
<g id="edge52" class="edge"><title>Node22&#45;&gt;Node19</title>
<path fill="none" stroke="midnightblue" d="M933,-382.348C933,-358.254 933,-317.308 933,-299.591"/>
<polygon fill="midnightblue" stroke="midnightblue" points="929.5,-382.368 933,-392.368 936.5,-382.369 929.5,-382.368"/>
</g>
<!-- Node23&#45;&gt;Node5 -->
<g id="edge54" class="edge"><title>Node23&#45;&gt;Node5</title>
<path fill="none" stroke="midnightblue" d="M599.275,-550.295C604.827,-504.644 618.91,-388.854 622.92,-355.884"/>
<polygon fill="midnightblue" stroke="midnightblue" points="595.791,-549.948 598.058,-560.297 602.74,-550.793 595.791,-549.948"/>
</g>
<!-- Node23&#45;&gt;Node6 -->
<g id="edge56" class="edge"><title>Node23&#45;&gt;Node6</title>
<path fill="none" stroke="midnightblue" d="M653.188,-565.813C713.269,-561.092 802.789,-549.829 824,-524 881.355,-454.159 806.183,-333.296 783.256,-299.818"/>
<polygon fill="midnightblue" stroke="midnightblue" points="652.787,-562.333 643.075,-566.568 653.308,-569.313 652.787,-562.333"/>
</g>
<!-- Node23&#45;&gt;Node12 -->
<g id="edge57" class="edge"><title>Node23&#45;&gt;Node12</title>
<path fill="none" stroke="midnightblue" d="M542.716,-558.199C453.097,-537.117 276.689,-481.131 202,-356 197.444,-348.367 196.405,-342.907 202,-336 225.742,-306.69 342.337,-295.688 391.776,-292.295"/>
<polygon fill="midnightblue" stroke="midnightblue" points="542.151,-561.66 552.68,-560.483 543.715,-554.837 542.151,-561.66"/>
</g>
<!-- Node23&#45;&gt;Node13 -->
<g id="edge58" class="edge"><title>Node23&#45;&gt;Node13</title>
<path fill="none" stroke="midnightblue" d="M540.728,-561.79C413.363,-543.902 114,-492.352 114,-403 114,-403 114,-403 114,-345 114,-274.692 355.98,-246.62 454.756,-238.09"/>
<polygon fill="midnightblue" stroke="midnightblue" points="540.302,-565.265 550.688,-563.17 541.263,-558.331 540.302,-565.265"/>
</g>
<!-- Node23&#45;&gt;Node14 -->
<g id="edge55" class="edge"><title>Node23&#45;&gt;Node14</title>
<path fill="none" stroke="midnightblue" d="M581.636,-552.651C549.015,-517.939 473.796,-437.898 449.052,-411.568"/>
<polygon fill="midnightblue" stroke="midnightblue" points="579.214,-555.185 588.613,-560.075 584.315,-550.391 579.214,-555.185"/>
</g>
<!-- Node23&#45;&gt;Node21 -->
<g id="edge59" class="edge"><title>Node23&#45;&gt;Node21</title>
<path fill="none" stroke="midnightblue" d="M609.975,-552.133C621.472,-537.994 639.297,-517.937 658,-504 679.152,-488.239 706.664,-475.414 725.673,-467.546"/>
<polygon fill="midnightblue" stroke="midnightblue" points="607.156,-550.055 603.683,-560.065 612.64,-554.406 607.156,-550.055"/>
</g>
<!-- Node24 -->
<g id="node24" class="node"><title>Node24</title>
<g id="a_node24"><a xlink:href="../../de/db1/nth__element__kernels_8h.html" target="_top" xlink:title="nth_element_kernels.h">
<polygon fill="white" stroke="black" points="700.5,-504.5 700.5,-523.5 815.5,-523.5 815.5,-504.5 700.5,-504.5"/>
<text text-anchor="middle" x="758" y="-511.5" font-family="Helvetica,sans-Serif" font-size="10.00">nth_element_kernels.h</text>
</a>
</g>
</g>
<!-- Node23&#45;&gt;Node24 -->
<g id="edge60" class="edge"><title>Node23&#45;&gt;Node24</title>
<path fill="none" stroke="midnightblue" d="M632.265,-557.172C662.581,-547.004 705.57,-532.585 732.608,-523.516"/>
<polygon fill="midnightblue" stroke="midnightblue" points="630.879,-553.945 622.511,-560.444 633.105,-560.582 630.879,-553.945"/>
</g>
<!-- Node24&#45;&gt;Node21 -->
<g id="edge61" class="edge"><title>Node24&#45;&gt;Node21</title>
<path fill="none" stroke="midnightblue" d="M754.5,-494.101C752.84,-485.136 750.937,-474.858 749.621,-467.751"/>
<polygon fill="midnightblue" stroke="midnightblue" points="751.086,-494.888 756.349,-504.083 757.969,-493.613 751.086,-494.888"/>
</g>
<!-- Node24&#45;&gt;Node25 -->
<g id="edge62" class="edge"><title>Node24&#45;&gt;Node25</title>
<path fill="none" stroke="midnightblue" d="M791.889,-501.039C820.677,-490.879 861.287,-476.546 886.87,-467.516"/>
<polygon fill="midnightblue" stroke="midnightblue" points="790.508,-497.815 782.243,-504.444 792.838,-504.416 790.508,-497.815"/>
</g>
<!-- Node25&#45;&gt;Node3 -->
<g id="edge63" class="edge"><title>Node25&#45;&gt;Node3</title>
<path fill="none" stroke="midnightblue" d="M938.9,-444.232C960.973,-434.131 991.176,-420.309 1010.39,-411.516"/>
<polygon fill="midnightblue" stroke="midnightblue" points="937.334,-441.1 929.697,-448.444 940.247,-447.465 937.334,-441.1"/>
</g>
</g>
</svg>
        <g id="navigator" transform="translate(0 0)" fill="#404254">
                <rect fill="#f2f5e9" fill-opacity="0.5" stroke="#606060" stroke-width=".5" x="0" y="0" width="60" height="60"/>
                <use id="zoomplus" xlink:href="#zoomPlus" x="17" y="9" onmousedown="handleZoom(evt,'in')"/>
                <use id="zoomminus" xlink:href="#zoomMin" x="42" y="9" onmousedown="handleZoom(evt,'out')"/>
                <use id="reset" xlink:href="#resetDef" x="30" y="36" onmousedown="handleReset()"/>
                <g id="arrowUp" xlink:href="#dirArrow" transform="translate(30 24)" onmousedown="handlePan(0,-1)">
                  <use xlink:href="#rim" fill="#404040">
                        <set attributeName="fill" to="#808080" begin="arrowUp.mouseover" end="arrowUp.mouseout"/>
                  </use>
                  <path fill="none" stroke="white" stroke-width="1.5" d="M0,-3.0v7 M-2.5,-0.5L0,-3.0L2.5,-0.5"/>
                </g>
                <g id="arrowRight" xlink:href="#dirArrow" transform="rotate(90) translate(36 -43)" onmousedown="handlePan(1,0)">
                  <use xlink:href="#rim" fill="#404040">
                        <set attributeName="fill" to="#808080" begin="arrowRight.mouseover" end="arrowRight.mouseout"/>
                  </use>
                  <path fill="none" stroke="white" stroke-width="1.5" d="M0,-3.0v7 M-2.5,-0.5L0,-3.0L2.5,-0.5"/>
                </g>
                <g id="arrowDown" xlink:href="#dirArrow" transform="rotate(180) translate(-30 -48)" onmousedown="handlePan(0,1)">
                  <use xlink:href="#rim" fill="#404040">
                        <set attributeName="fill" to="#808080" begin="arrowDown.mouseover" end="arrowDown.mouseout"/>
                  </use>
                  <path fill="none" stroke="white" stroke-width="1.5" d="M0,-3.0v7 M-2.5,-0.5L0,-3.0L2.5,-0.5"/>
                </g>
                <g id="arrowLeft" xlink:href="#dirArrow" transform="rotate(270) translate(-36 17)" onmousedown="handlePan(-1,0)">
                  <use xlink:href="#rim" fill="#404040">
                        <set attributeName="fill" to="#808080" begin="arrowLeft.mouseover" end="arrowLeft.mouseout"/>
                  </use>
                  <path fill="none" stroke="white" stroke-width="1.5" d="M0,-3.0v7 M-2.5,-0.5L0,-3.0L2.5,-0.5"/>
                </g>
        </g>
        <svg viewBox="0 0 15 15" width="100%" height="30px" preserveAspectRatio="xMaxYMin meet">
         <g id="arrow_out" transform="scale(0.3 0.3)">
          <a xlink:href="handles_8h__dep__incl_org.svg" target="_base">
           <rect id="button" ry="5" rx="5" y="6" x="6" height="38" width="38"
                fill="#f2f5e9" fill-opacity="0.5" stroke="#606060" stroke-width="1.0"/>
           <path id="arrow"
             d="M 11.500037,31.436501 C 11.940474,20.09759 22.043105,11.32322 32.158766,21.979434 L 37.068811,17.246167 C 37.068811,17.246167 37.088388,32 37.088388,32 L 22.160133,31.978069 C 22.160133,31.978069 26.997745,27.140456 26.997745,27.140456 C 18.528582,18.264221 13.291696,25.230495 11.500037,31.436501 z"
             style="fill:#404040;"/>
          </a>
         </g>
        </svg>
</svg>
