<?xml version="1.0" encoding="UTF-8" standalone="no"?>
<!DOCTYPE svg PUBLIC "-//W3C//DTD SVG 1.1//EN"
 "http://www.w3.org/Graphics/SVG/1.1/DTD/svg11.dtd">
<!-- Generated by graphviz version 2.38.0 (20140413.2041)
 -->
<!-- Title: marian::rnn::Stackable::as Pages: 1 -->
<svg width="315pt" height="382pt"
 viewBox="0.00 0.00 315.00 382.00" xmlns="http://www.w3.org/2000/svg" xmlns:xlink="http://www.w3.org/1999/xlink">
<g id="graph0" class="graph" transform="scale(1 1) rotate(0) translate(4 378)">
<title>marian::rnn::Stackable::as</title>
<polygon fill="white" stroke="none" points="-4,4 -4,-378 311,-378 311,4 -4,4"/>
<!-- Node1 -->
<g id="node1" class="node"><title>Node1</title>
<polygon fill="#bfbfbf" stroke="black" points="0,-177 0,-196 131,-196 131,-177 0,-177"/>
<text text-anchor="middle" x="65.5" y="-184" font-family="Helvetica,sans-Serif" font-size="10.00">marian::rnn::Stackable::as</text>
</g>
<!-- Node2 -->
<g id="node2" class="node"><title>Node2</title>
<g id="a_node2"><a xlink:href="$de/d21/classmarian_1_1DecoderHardSoftAtt.html#aa3331fae45271298ce86ad6f6a5c9cf5" xlink:title="marian::DecoderHardSoftAtt\l::step">
<polygon fill="white" stroke="black" points="167,-343.5 167,-373.5 307,-373.5 307,-343.5 167,-343.5"/>
<text text-anchor="start" x="175" y="-361.5" font-family="Helvetica,sans-Serif" font-size="10.00">marian::DecoderHardSoftAtt</text>
<text text-anchor="middle" x="237" y="-350.5" font-family="Helvetica,sans-Serif" font-size="10.00">::step</text>
</a>
</g>
</g>
<!-- Node1&#45;&gt;Node2 -->
<g id="edge1" class="edge"><title>Node1&#45;&gt;Node2</title>
<path fill="none" stroke="midnightblue" d="M74.4535,-205.316C88.5794,-236.554 120.953,-299.167 167,-334.5 171.427,-337.897 176.371,-340.836 181.523,-343.373"/>
<polygon fill="midnightblue" stroke="midnightblue" points="77.5931,-203.761 70.3692,-196.01 71.1832,-206.574 77.5931,-203.761"/>
</g>
<!-- Node3 -->
<g id="node3" class="node"><title>Node3</title>
<g id="a_node3"><a xlink:href="$de/d21/classmarian_1_1DecoderHardSoftAtt.html#a39c270be364b3e37f3834f6fc867ac34" xlink:title="marian::DecoderHardSoftAtt\l::getAlignments">
<polygon fill="white" stroke="black" points="167,-294.5 167,-324.5 307,-324.5 307,-294.5 167,-294.5"/>
<text text-anchor="start" x="175" y="-312.5" font-family="Helvetica,sans-Serif" font-size="10.00">marian::DecoderHardSoftAtt</text>
<text text-anchor="middle" x="237" y="-301.5" font-family="Helvetica,sans-Serif" font-size="10.00">::getAlignments</text>
</a>
</g>
</g>
<!-- Node1&#45;&gt;Node3 -->
<g id="edge2" class="edge"><title>Node1&#45;&gt;Node3</title>
<path fill="none" stroke="midnightblue" d="M80.223,-204.195C98.0542,-226.097 131.171,-263.221 167,-285.5 172.385,-288.849 178.299,-291.805 184.33,-294.394"/>
<polygon fill="midnightblue" stroke="midnightblue" points="82.7282,-201.723 73.7562,-196.088 77.2558,-206.088 82.7282,-201.723"/>
</g>
<!-- Node4 -->
<g id="node4" class="node"><title>Node4</title>
<g id="a_node4"><a xlink:href="$d7/d30/classmarian_1_1MultiDecoderHardSoftAtt.html#a9dc01206082f6b287300c2ee6460d3ba" xlink:title="marian::MultiDecoderHard\lSoftAtt::step">
<polygon fill="white" stroke="black" points="171.5,-245.5 171.5,-275.5 302.5,-275.5 302.5,-245.5 171.5,-245.5"/>
<text text-anchor="start" x="179.5" y="-263.5" font-family="Helvetica,sans-Serif" font-size="10.00">marian::MultiDecoderHard</text>
<text text-anchor="middle" x="237" y="-252.5" font-family="Helvetica,sans-Serif" font-size="10.00">SoftAtt::step</text>
</a>
</g>
</g>
<!-- Node1&#45;&gt;Node4 -->
<g id="edge3" class="edge"><title>Node1&#45;&gt;Node4</title>
<path fill="none" stroke="midnightblue" d="M92.8147,-200.742C112.843,-211.298 141.258,-225.671 167,-236.5 174.365,-239.598 182.284,-242.625 190.038,-245.428"/>
<polygon fill="midnightblue" stroke="midnightblue" points="94.4468,-197.646 83.9739,-196.043 91.1615,-203.827 94.4468,-197.646"/>
</g>
<!-- Node5 -->
<g id="node5" class="node"><title>Node5</title>
<g id="a_node5"><a xlink:href="$d7/d30/classmarian_1_1MultiDecoderHardSoftAtt.html#a5663940ea8e359b7af4ebb16380fe01e" xlink:title="marian::MultiDecoderHard\lSoftAtt::getAlignments">
<polygon fill="white" stroke="black" points="171.5,-196.5 171.5,-226.5 302.5,-226.5 302.5,-196.5 171.5,-196.5"/>
<text text-anchor="start" x="179.5" y="-214.5" font-family="Helvetica,sans-Serif" font-size="10.00">marian::MultiDecoderHard</text>
<text text-anchor="middle" x="237" y="-203.5" font-family="Helvetica,sans-Serif" font-size="10.00">SoftAtt::getAlignments</text>
</a>
</g>
</g>
<!-- Node1&#45;&gt;Node5 -->
<g id="edge4" class="edge"><title>Node1&#45;&gt;Node5</title>
<path fill="none" stroke="midnightblue" d="M141.066,-197.498C151.155,-198.986 161.438,-200.503 171.335,-201.962"/>
<polygon fill="midnightblue" stroke="midnightblue" points="141.468,-194.019 131.064,-196.023 140.446,-200.945 141.468,-194.019"/>
</g>
<!-- Node6 -->
<g id="node6" class="node"><title>Node6</title>
<g id="a_node6"><a xlink:href="$d3/d3b/classmarian_1_1MultiDecoderS2S.html#a6f0421ce42840c6198f3d450b3d55bfb" xlink:title="marian::MultiDecoderS2S\l::step">
<polygon fill="white" stroke="black" points="173,-147.5 173,-177.5 301,-177.5 301,-147.5 173,-147.5"/>
<text text-anchor="start" x="181" y="-165.5" font-family="Helvetica,sans-Serif" font-size="10.00">marian::MultiDecoderS2S</text>
<text text-anchor="middle" x="237" y="-154.5" font-family="Helvetica,sans-Serif" font-size="10.00">::step</text>
</a>
</g>
</g>
<!-- Node1&#45;&gt;Node6 -->
<g id="edge5" class="edge"><title>Node1&#45;&gt;Node6</title>
<path fill="none" stroke="midnightblue" d="M141.097,-175.938C151.653,-174.443 162.422,-172.918 172.736,-171.458"/>
<polygon fill="midnightblue" stroke="midnightblue" points="140.475,-172.491 131.064,-177.358 141.456,-179.422 140.475,-172.491"/>
</g>
<!-- Node7 -->
<g id="node7" class="node"><title>Node7</title>
<g id="a_node7"><a xlink:href="$d3/d3b/classmarian_1_1MultiDecoderS2S.html#a9d82178076ee276d1f83ac4e040d959b" xlink:title="marian::MultiDecoderS2S\l::getAlignments">
<polygon fill="white" stroke="black" points="173,-98.5 173,-128.5 301,-128.5 301,-98.5 173,-98.5"/>
<text text-anchor="start" x="181" y="-116.5" font-family="Helvetica,sans-Serif" font-size="10.00">marian::MultiDecoderS2S</text>
<text text-anchor="middle" x="237" y="-105.5" font-family="Helvetica,sans-Serif" font-size="10.00">::getAlignments</text>
</a>
</g>
</g>
<!-- Node1&#45;&gt;Node7 -->
<g id="edge6" class="edge"><title>Node1&#45;&gt;Node7</title>
<path fill="none" stroke="midnightblue" d="M94.2907,-172.323C114.284,-162.347 142.017,-148.962 167,-138.5 175.109,-135.104 183.859,-131.723 192.316,-128.594"/>
<polygon fill="midnightblue" stroke="midnightblue" points="92.5078,-169.302 85.1435,-176.919 95.6504,-175.556 92.5078,-169.302"/>
</g>
<!-- Node8 -->
<g id="node8" class="node"><title>Node8</title>
<g id="a_node8"><a xlink:href="$d3/d4b/classmarian_1_1DecoderS2S.html#a786a6f2e325d86a8335cc5fc25170518" xlink:title="marian::DecoderS2S\l::step">
<polygon fill="white" stroke="black" points="183.5,-49.5 183.5,-79.5 290.5,-79.5 290.5,-49.5 183.5,-49.5"/>
<text text-anchor="start" x="191.5" y="-67.5" font-family="Helvetica,sans-Serif" font-size="10.00">marian::DecoderS2S</text>
<text text-anchor="middle" x="237" y="-56.5" font-family="Helvetica,sans-Serif" font-size="10.00">::step</text>
</a>
</g>
</g>
<!-- Node1&#45;&gt;Node8 -->
<g id="edge7" class="edge"><title>Node1&#45;&gt;Node8</title>
<path fill="none" stroke="midnightblue" d="M80.6224,-168.923C98.6448,-147.514 131.736,-111.493 167,-89.5 173.054,-85.7242 179.761,-82.404 186.546,-79.5208"/>
<polygon fill="midnightblue" stroke="midnightblue" points="77.733,-166.925 74.065,-176.865 83.1309,-171.382 77.733,-166.925"/>
</g>
<!-- Node9 -->
<g id="node9" class="node"><title>Node9</title>
<g id="a_node9"><a xlink:href="$d3/d4b/classmarian_1_1DecoderS2S.html#a4da86da8904d9f2fb1eedf44709d225d" xlink:title="marian::DecoderS2S\l::getAlignments">
<polygon fill="white" stroke="black" points="183.5,-0.5 183.5,-30.5 290.5,-30.5 290.5,-0.5 183.5,-0.5"/>
<text text-anchor="start" x="191.5" y="-18.5" font-family="Helvetica,sans-Serif" font-size="10.00">marian::DecoderS2S</text>
<text text-anchor="middle" x="237" y="-7.5" font-family="Helvetica,sans-Serif" font-size="10.00">::getAlignments</text>
</a>
</g>
</g>
<!-- Node1&#45;&gt;Node9 -->
<g id="edge8" class="edge"><title>Node1&#45;&gt;Node9</title>
<path fill="none" stroke="midnightblue" d="M74.779,-167.558C89.1848,-136.693 121.712,-75.4868 167,-40.5 171.941,-36.6832 177.518,-33.4116 183.307,-30.6164"/>
<polygon fill="midnightblue" stroke="midnightblue" points="71.5392,-166.228 70.5961,-176.781 77.9142,-169.12 71.5392,-166.228"/>
</g>
</g>
</svg>
