<?xml version="1.0" encoding="UTF-8" standalone="no"?>
<!DOCTYPE svg PUBLIC "-//W3C//DTD SVG 1.1//EN"
 "http://www.w3.org/Graphics/SVG/1.1/DTD/svg11.dtd">
<!-- Generated by graphviz version 2.38.0 (20140413.2041)
 -->
<!-- Title: config.cpp Pages: 1 -->
<svg width="536pt" height="140pt"
 viewBox="0.00 0.00 535.50 140.00" xmlns="http://www.w3.org/2000/svg" xmlns:xlink="http://www.w3.org/1999/xlink">
<g id="graph0" class="graph" transform="scale(1 1) rotate(0) translate(4 136)">
<title>config.cpp</title>
<polygon fill="white" stroke="none" points="-4,4 -4,-136 531.5,-136 531.5,4 -4,4"/>
<!-- Node1 -->
<g id="node1" class="node"><title>Node1</title>
<polygon fill="#bfbfbf" stroke="black" points="184,-112.5 184,-131.5 246,-131.5 246,-112.5 184,-112.5"/>
<text text-anchor="middle" x="215" y="-119.5" font-family="Helvetica,sans-Serif" font-size="10.00">config.cpp</text>
</g>
<!-- Node2 -->
<g id="node2" class="node"><title>Node2</title>
<polygon fill="white" stroke="#bfbfbf" points="-1.77636e-15,-56.5 -1.77636e-15,-75.5 30,-75.5 30,-56.5 -1.77636e-15,-56.5"/>
<text text-anchor="middle" x="15" y="-63.5" font-family="Helvetica,sans-Serif" font-size="10.00">set</text>
</g>
<!-- Node1&#45;&gt;Node2 -->
<g id="edge1" class="edge"><title>Node1&#45;&gt;Node2</title>
<path fill="none" stroke="midnightblue" d="M183.875,-114.119C150.413,-106.487 95.5184,-93.2914 39.8198,-76.0051"/>
<polygon fill="midnightblue" stroke="midnightblue" points="40.7384,-72.6251 30.149,-72.9643 38.6386,-79.3028 40.7384,-72.6251"/>
</g>
<!-- Node3 -->
<g id="node3" class="node"><title>Node3</title>
<polygon fill="white" stroke="#bfbfbf" points="48,-56.5 48,-75.5 140,-75.5 140,-56.5 48,-56.5"/>
<text text-anchor="middle" x="94" y="-63.5" font-family="Helvetica,sans-Serif" font-size="10.00">common/config.h</text>
</g>
<!-- Node1&#45;&gt;Node3 -->
<g id="edge2" class="edge"><title>Node1&#45;&gt;Node3</title>
<path fill="none" stroke="midnightblue" d="M195.827,-112.444C176.091,-103.636 145.115,-89.8116 122.507,-79.722"/>
<polygon fill="midnightblue" stroke="midnightblue" points="123.641,-76.3957 113.083,-75.5164 120.789,-82.788 123.641,-76.3957"/>
</g>
<!-- Node4 -->
<g id="node4" class="node"><title>Node4</title>
<polygon fill="white" stroke="#bfbfbf" points="158.5,-56.5 158.5,-75.5 271.5,-75.5 271.5,-56.5 158.5,-56.5"/>
<text text-anchor="middle" x="215" y="-63.5" font-family="Helvetica,sans-Serif" font-size="10.00">common/file_stream.h</text>
</g>
<!-- Node1&#45;&gt;Node4 -->
<g id="edge3" class="edge"><title>Node1&#45;&gt;Node4</title>
<path fill="none" stroke="midnightblue" d="M215,-112.083C215,-105.006 215,-94.8611 215,-85.9865"/>
<polygon fill="midnightblue" stroke="midnightblue" points="218.5,-85.751 215,-75.7511 211.5,-85.7511 218.5,-85.751"/>
</g>
<!-- Node5 -->
<g id="node5" class="node"><title>Node5</title>
<g id="a_node5"><a xlink:href="$dd/d2d/exception_8h.html" xlink:title="common/exception.h">
<polygon fill="white" stroke="black" points="289.5,-56.5 289.5,-75.5 396.5,-75.5 396.5,-56.5 289.5,-56.5"/>
<text text-anchor="middle" x="343" y="-63.5" font-family="Helvetica,sans-Serif" font-size="10.00">common/exception.h</text>
</a>
</g>
</g>
<!-- Node1&#45;&gt;Node5 -->
<g id="edge4" class="edge"><title>Node1&#45;&gt;Node5</title>
<path fill="none" stroke="midnightblue" d="M235.282,-112.444C256.347,-103.557 289.517,-89.5632 313.486,-79.4514"/>
<polygon fill="midnightblue" stroke="midnightblue" points="314.96,-82.6283 322.813,-75.5164 312.239,-76.1787 314.96,-82.6283"/>
</g>
<!-- Node11 -->
<g id="node11" class="node"><title>Node11</title>
<g id="a_node11"><a xlink:href="$db/df6/git__version_8h.html" xlink:title="common/git_version.h">
<polygon fill="white" stroke="black" points="414.5,-56.5 414.5,-75.5 527.5,-75.5 527.5,-56.5 414.5,-56.5"/>
<text text-anchor="middle" x="471" y="-63.5" font-family="Helvetica,sans-Serif" font-size="10.00">common/git_version.h</text>
</a>
</g>
</g>
<!-- Node1&#45;&gt;Node11 -->
<g id="edge10" class="edge"><title>Node1&#45;&gt;Node11</title>
<path fill="none" stroke="midnightblue" d="M246.135,-114.433C289.483,-105.289 368.525,-88.6158 420.403,-77.6728"/>
<polygon fill="midnightblue" stroke="midnightblue" points="421.336,-81.0532 430.398,-75.5645 419.891,-74.2039 421.336,-81.0532"/>
</g>
<!-- Node6 -->
<g id="node6" class="node"><title>Node6</title>
<polygon fill="white" stroke="#bfbfbf" points="175,-0.5 175,-19.5 227,-19.5 227,-0.5 175,-0.5"/>
<text text-anchor="middle" x="201" y="-7.5" font-family="Helvetica,sans-Serif" font-size="10.00">sstream</text>
</g>
<!-- Node5&#45;&gt;Node6 -->
<g id="edge5" class="edge"><title>Node5&#45;&gt;Node6</title>
<path fill="none" stroke="midnightblue" d="M320.5,-56.4435C296.923,-47.4776 259.678,-33.314 233.036,-23.1827"/>
<polygon fill="midnightblue" stroke="midnightblue" points="233.986,-19.7995 223.395,-19.5164 231.498,-26.3424 233.986,-19.7995"/>
</g>
<!-- Node7 -->
<g id="node7" class="node"><title>Node7</title>
<polygon fill="white" stroke="#bfbfbf" points="245.5,-0.5 245.5,-19.5 304.5,-19.5 304.5,-0.5 245.5,-0.5"/>
<text text-anchor="middle" x="275" y="-7.5" font-family="Helvetica,sans-Serif" font-size="10.00">exception</text>
</g>
<!-- Node5&#45;&gt;Node7 -->
<g id="edge6" class="edge"><title>Node5&#45;&gt;Node7</title>
<path fill="none" stroke="midnightblue" d="M332.075,-56.324C321.825,-48.1849 306.279,-35.8395 293.999,-26.0874"/>
<polygon fill="midnightblue" stroke="midnightblue" points="296.132,-23.3119 286.124,-19.8339 291.779,-28.7937 296.132,-23.3119"/>
</g>
<!-- Node8 -->
<g id="node8" class="node"><title>Node8</title>
<polygon fill="white" stroke="#bfbfbf" points="323,-0.5 323,-19.5 363,-19.5 363,-0.5 323,-0.5"/>
<text text-anchor="middle" x="343" y="-7.5" font-family="Helvetica,sans-Serif" font-size="10.00">limits</text>
</g>
<!-- Node5&#45;&gt;Node8 -->
<g id="edge7" class="edge"><title>Node5&#45;&gt;Node8</title>
<path fill="none" stroke="midnightblue" d="M343,-56.083C343,-49.0059 343,-38.8611 343,-29.9865"/>
<polygon fill="midnightblue" stroke="midnightblue" points="346.5,-29.751 343,-19.7511 339.5,-29.7511 346.5,-29.751"/>
</g>
<!-- Node9 -->
<g id="node9" class="node"><title>Node9</title>
<polygon fill="white" stroke="#bfbfbf" points="381.5,-0.5 381.5,-19.5 422.5,-19.5 422.5,-0.5 381.5,-0.5"/>
<text text-anchor="middle" x="402" y="-7.5" font-family="Helvetica,sans-Serif" font-size="10.00">string</text>
</g>
<!-- Node5&#45;&gt;Node9 -->
<g id="edge8" class="edge"><title>Node5&#45;&gt;Node9</title>
<path fill="none" stroke="midnightblue" d="M352.479,-56.324C361.201,-48.3414 374.343,-36.3128 384.898,-26.6529"/>
<polygon fill="midnightblue" stroke="midnightblue" points="387.334,-29.1674 392.348,-19.8339 382.608,-24.0036 387.334,-29.1674"/>
</g>
<!-- Node10 -->
<g id="node10" class="node"><title>Node10</title>
<polygon fill="white" stroke="#bfbfbf" points="440.5,-0.5 440.5,-19.5 489.5,-19.5 489.5,-0.5 440.5,-0.5"/>
<text text-anchor="middle" x="465" y="-7.5" font-family="Helvetica,sans-Serif" font-size="10.00">stdint.h</text>
</g>
<!-- Node5&#45;&gt;Node10 -->
<g id="edge9" class="edge"><title>Node5&#45;&gt;Node10</title>
<path fill="none" stroke="midnightblue" d="M362.331,-56.4435C382.32,-47.5961 413.743,-33.6875 436.564,-23.5865"/>
<polygon fill="midnightblue" stroke="midnightblue" points="438.032,-26.7645 445.759,-19.5164 435.198,-20.3635 438.032,-26.7645"/>
</g>
</g>
</svg>
