<?xml version="1.0" encoding="UTF-8" standalone="no"?>
<!DOCTYPE svg PUBLIC "-//W3C//DTD SVG 1.1//EN"
 "http://www.w3.org/Graphics/SVG/1.1/DTD/svg11.dtd">
<!-- Generated by graphviz version 2.38.0 (20140413.2041)
 -->
<!-- Title: amunmt::GPU::mblas::gBroadcast Pages: 1 -->
<svg width="268pt" height="127pt"
 viewBox="0.00 0.00 268.00 127.00" xmlns="http://www.w3.org/2000/svg" xmlns:xlink="http://www.w3.org/1999/xlink">
<g id="graph0" class="graph" transform="scale(1 1) rotate(0) translate(4 123)">
<title>amunmt::GPU::mblas::gBroadcast</title>
<polygon fill="white" stroke="none" points="-4,4 -4,-123 264,-123 264,4 -4,4"/>
<!-- Node1 -->
<g id="node1" class="node"><title>Node1</title>
<polygon fill="#bfbfbf" stroke="black" points="0,-44.5 0,-74.5 112,-74.5 112,-44.5 0,-44.5"/>
<text text-anchor="start" x="8" y="-62.5" font-family="Helvetica,sans-Serif" font-size="10.00">amunmt::GPU::mblas</text>
<text text-anchor="middle" x="56" y="-51.5" font-family="Helvetica,sans-Serif" font-size="10.00">::gBroadcast</text>
</g>
<!-- Node2 -->
<g id="node2" class="node"><title>Node2</title>
<g id="a_node2"><a xlink:href="$d7/d34/classamunmt_1_1GPU_1_1mblas_1_1MatrixWrapper.html#a8846d6edb1c807c90f9aa23f4193a665" xlink:title="amunmt::GPU::mblas\l::MatrixWrapper::dim">
<polygon fill="white" stroke="black" points="148,-88.5 148,-118.5 260,-118.5 260,-88.5 148,-88.5"/>
<text text-anchor="start" x="156" y="-106.5" font-family="Helvetica,sans-Serif" font-size="10.00">amunmt::GPU::mblas</text>
<text text-anchor="middle" x="204" y="-95.5" font-family="Helvetica,sans-Serif" font-size="10.00">::MatrixWrapper::dim</text>
</a>
</g>
</g>
<!-- Node1&#45;&gt;Node2 -->
<g id="edge1" class="edge"><title>Node1&#45;&gt;Node2</title>
<path fill="none" stroke="midnightblue" d="M106.837,-74.5192C118.569,-78.0552 131.193,-81.8595 143.31,-85.5112"/>
<polygon fill="midnightblue" stroke="midnightblue" points="142.308,-88.8646 152.892,-88.3991 144.328,-82.1624 142.308,-88.8646"/>
</g>
<!-- Node3 -->
<g id="node3" class="node"><title>Node3</title>
<g id="a_node3"><a xlink:href="$da/d22/namespacemarian.html#ab9fbdcc76cc853270094524572584222" xlink:title="marian::cols">
<polygon fill="white" stroke="black" points="169,-50 169,-69 239,-69 239,-50 169,-50"/>
<text text-anchor="middle" x="204" y="-57" font-family="Helvetica,sans-Serif" font-size="10.00">marian::cols</text>
</a>
</g>
</g>
<!-- Node1&#45;&gt;Node3 -->
<g id="edge2" class="edge"><title>Node1&#45;&gt;Node3</title>
<path fill="none" stroke="midnightblue" d="M112.196,-59.5C127.532,-59.5 143.983,-59.5 158.613,-59.5"/>
<polygon fill="midnightblue" stroke="midnightblue" points="158.902,-63.0001 168.902,-59.5 158.902,-56.0001 158.902,-63.0001"/>
</g>
<!-- Node4 -->
<g id="node4" class="node"><title>Node4</title>
<g id="a_node4"><a xlink:href="$d7/d34/classamunmt_1_1GPU_1_1mblas_1_1MatrixWrapper.html#aed1483dbf0148749d04eea433582e802" xlink:title="amunmt::GPU::mblas\l::MatrixWrapper::size">
<polygon fill="white" stroke="black" points="148,-0.5 148,-30.5 260,-30.5 260,-0.5 148,-0.5"/>
<text text-anchor="start" x="156" y="-18.5" font-family="Helvetica,sans-Serif" font-size="10.00">amunmt::GPU::mblas</text>
<text text-anchor="middle" x="204" y="-7.5" font-family="Helvetica,sans-Serif" font-size="10.00">::MatrixWrapper::size</text>
</a>
</g>
</g>
<!-- Node1&#45;&gt;Node4 -->
<g id="edge3" class="edge"><title>Node1&#45;&gt;Node4</title>
<path fill="none" stroke="midnightblue" d="M106.837,-44.4808C118.569,-40.9448 131.193,-37.1405 143.31,-33.4888"/>
<polygon fill="midnightblue" stroke="midnightblue" points="144.328,-36.8376 152.892,-30.6009 142.308,-30.1354 144.328,-36.8376"/>
</g>
</g>
</svg>
