<?xml version="1.0" encoding="UTF-8" standalone="no"?>
<!DOCTYPE svg PUBLIC "-//W3C//DTD SVG 1.1//EN"
 "http://www.w3.org/Graphics/SVG/1.1/DTD/svg11.dtd">
<!-- Generated by graphviz version 2.38.0 (20140413.2041)
 -->
<!-- Title: amunmt::GPU::mblas::Concat Pages: 1 -->
<svg width="484pt" height="508pt"
 viewBox="0.00 0.00 484.00 508.00" xmlns="http://www.w3.org/2000/svg" xmlns:xlink="http://www.w3.org/1999/xlink">
<g id="graph0" class="graph" transform="scale(1 1) rotate(0) translate(4 504)">
<title>amunmt::GPU::mblas::Concat</title>
<polygon fill="white" stroke="none" points="-4,4 -4,-504 480,-504 480,4 -4,4"/>
<!-- Node1 -->
<g id="node1" class="node"><title>Node1</title>
<polygon fill="#bfbfbf" stroke="black" points="0,-215 0,-245 112,-245 112,-215 0,-215"/>
<text text-anchor="start" x="8" y="-233" font-family="Helvetica,sans-Serif" font-size="10.00">amunmt::GPU::mblas</text>
<text text-anchor="middle" x="56" y="-222" font-family="Helvetica,sans-Serif" font-size="10.00">::Concat</text>
</g>
<!-- Node2 -->
<g id="node2" class="node"><title>Node2</title>
<g id="a_node2"><a xlink:href="$d9/df6/classamunmt_1_1GPU_1_1FastGRU.html#ad194ae3cba0565a97dbf16b74308d49a" xlink:title="amunmt::GPU::FastGRU\l::FastGRU">
<polygon fill="white" stroke="black" points="148,-240 148,-270 276,-270 276,-240 148,-240"/>
<text text-anchor="start" x="156" y="-258" font-family="Helvetica,sans-Serif" font-size="10.00">amunmt::GPU::FastGRU</text>
<text text-anchor="middle" x="212" y="-247" font-family="Helvetica,sans-Serif" font-size="10.00">::FastGRU</text>
</a>
</g>
</g>
<!-- Node1&#45;&gt;Node2 -->
<g id="edge1" class="edge"><title>Node1&#45;&gt;Node2</title>
<path fill="none" stroke="midnightblue" d="M122.065,-240.562C130.6,-241.948 139.336,-243.366 147.84,-244.747"/>
<polygon fill="midnightblue" stroke="midnightblue" points="122.594,-237.103 112.163,-238.955 121.472,-244.012 122.594,-237.103"/>
</g>
<!-- Node3 -->
<g id="node3" class="node"><title>Node3</title>
<g id="a_node3"><a xlink:href="$d1/d49/namespaceamunmt_1_1GPU_1_1mblas.html#a6531a040aa422fcd149f89b92f6d2585" xlink:title="amunmt::GPU::mblas\l::copy">
<polygon fill="white" stroke="black" points="156,-191 156,-221 268,-221 268,-191 156,-191"/>
<text text-anchor="start" x="164" y="-209" font-family="Helvetica,sans-Serif" font-size="10.00">amunmt::GPU::mblas</text>
<text text-anchor="middle" x="212" y="-198" font-family="Helvetica,sans-Serif" font-size="10.00">::copy</text>
</a>
</g>
</g>
<!-- Node1&#45;&gt;Node3 -->
<g id="edge2" class="edge"><title>Node1&#45;&gt;Node3</title>
<path fill="none" stroke="midnightblue" d="M122.326,-219.819C133.527,-218.074 145.066,-216.275 155.964,-214.577"/>
<polygon fill="midnightblue" stroke="midnightblue" points="121.504,-216.405 112.163,-221.403 122.582,-223.322 121.504,-216.405"/>
</g>
<!-- Node4 -->
<g id="node4" class="node"><title>Node4</title>
<g id="a_node4"><a xlink:href="$d2/d16/classDeviceCPU.html#ad86a817a1e6d8e56ce39ceaf0c61ba27" xlink:title="DeviceCPU::reserve">
<polygon fill="white" stroke="black" points="340.5,-480.5 340.5,-499.5 447.5,-499.5 447.5,-480.5 340.5,-480.5"/>
<text text-anchor="middle" x="394" y="-487.5" font-family="Helvetica,sans-Serif" font-size="10.00">DeviceCPU::reserve</text>
</a>
</g>
</g>
<!-- Node3&#45;&gt;Node4 -->
<g id="edge3" class="edge"><title>Node3&#45;&gt;Node4</title>
<path fill="none" stroke="midnightblue" d="M272.927,-227.543C274.012,-228.639 275.04,-229.79 276,-231 343.061,-315.479 238.902,-391.687 312,-471 319.44,-479.072 329.601,-484.026 340.212,-487.002"/>
<polygon fill="midnightblue" stroke="midnightblue" points="274.986,-224.705 265.028,-221.087 270.556,-230.125 274.986,-224.705"/>
</g>
<!-- Node5 -->
<g id="node5" class="node"><title>Node5</title>
<g id="a_node5"><a xlink:href="$d0/dd3/classamunmt_1_1GPU_1_1ClassLanguageModel.html#a0cbf0d5fec22724b1e8e33e4aa6f779c" xlink:title="amunmt::GPU::ClassLanguage\lModel::Score">
<polygon fill="white" stroke="black" points="317.5,-431 317.5,-461 470.5,-461 470.5,-431 317.5,-431"/>
<text text-anchor="start" x="325.5" y="-449" font-family="Helvetica,sans-Serif" font-size="10.00">amunmt::GPU::ClassLanguage</text>
<text text-anchor="middle" x="394" y="-438" font-family="Helvetica,sans-Serif" font-size="10.00">Model::Score</text>
</a>
</g>
</g>
<!-- Node3&#45;&gt;Node5 -->
<g id="edge4" class="edge"><title>Node3&#45;&gt;Node5</title>
<path fill="none" stroke="midnightblue" d="M272.788,-227.515C273.92,-228.619 274.994,-229.78 276,-231 330.964,-297.642 254.103,-357.89 312,-422 315.047,-425.374 318.544,-428.283 322.338,-430.79"/>
<polygon fill="midnightblue" stroke="midnightblue" points="274.591,-224.478 264.578,-221.014 270.245,-229.966 274.591,-224.478"/>
</g>
<!-- Node6 -->
<g id="node6" class="node"><title>Node6</title>
<g id="a_node6"><a xlink:href="$d2/d2b/classmarian_1_1data_1_1Dataset.html#a27ff57e73e81b555305a5f45cde30d91" xlink:title="marian::data::Dataset\l::toBatch">
<polygon fill="white" stroke="black" points="338.5,-382 338.5,-412 449.5,-412 449.5,-382 338.5,-382"/>
<text text-anchor="start" x="346.5" y="-400" font-family="Helvetica,sans-Serif" font-size="10.00">marian::data::Dataset</text>
<text text-anchor="middle" x="394" y="-389" font-family="Helvetica,sans-Serif" font-size="10.00">::toBatch</text>
</a>
</g>
</g>
<!-- Node3&#45;&gt;Node6 -->
<g id="edge5" class="edge"><title>Node3&#45;&gt;Node6</title>
<path fill="none" stroke="midnightblue" d="M272.247,-227.197C273.57,-228.396 274.826,-229.663 276,-231 318.963,-279.92 266.886,-326.056 312,-373 319.114,-380.403 328.394,-385.551 338.123,-389.125"/>
<polygon fill="midnightblue" stroke="midnightblue" points="274.128,-224.233 264.027,-221.035 269.929,-229.833 274.128,-224.233"/>
</g>
<!-- Node7 -->
<g id="node7" class="node"><title>Node7</title>
<g id="a_node7"><a xlink:href="$d9/d05/classamunmt_1_1GPU_1_1Decoder_1_1Embeddings.html#a5c32bbdcdde7a6d814f8599e8d4955a8" xlink:title="amunmt::GPU::Decoder\l::Embeddings\&lt; amunmt\l::GPU::Weights::DecEmbeddings\l \&gt;::Lookup">
<polygon fill="white" stroke="black" points="312,-311 312,-363 476,-363 476,-311 312,-311"/>
<text text-anchor="start" x="320" y="-351" font-family="Helvetica,sans-Serif" font-size="10.00">amunmt::GPU::Decoder</text>
<text text-anchor="start" x="320" y="-340" font-family="Helvetica,sans-Serif" font-size="10.00">::Embeddings&lt; amunmt</text>
<text text-anchor="start" x="320" y="-329" font-family="Helvetica,sans-Serif" font-size="10.00">::GPU::Weights::DecEmbeddings</text>
<text text-anchor="middle" x="394" y="-318" font-family="Helvetica,sans-Serif" font-size="10.00"> &gt;::Lookup</text>
</a>
</g>
</g>
<!-- Node3&#45;&gt;Node7 -->
<g id="edge6" class="edge"><title>Node3&#45;&gt;Node7</title>
<path fill="none" stroke="midnightblue" d="M270.619,-226.627C272.503,-227.997 274.305,-229.453 276,-231 302.135,-254.847 286.226,-277.762 312,-302 315.459,-305.253 319.269,-308.232 323.293,-310.955"/>
<polygon fill="midnightblue" stroke="midnightblue" points="272.25,-223.518 261.923,-221.153 268.521,-229.442 272.25,-223.518"/>
</g>
<!-- Node8 -->
<g id="node8" class="node"><title>Node8</title>
<g id="a_node8"><a xlink:href="$df/d32/classamunmt_1_1GPU_1_1Decoder_1_1Alignment.html#aca6a7ea06e3db456c9cf723cb62a975f" xlink:title="amunmt::GPU::Decoder\l::Alignment\&lt; amunmt::\lGPU::Weights::DecAlignment\l \&gt;::GetAlignedSourceContext">
<polygon fill="white" stroke="black" points="320,-240 320,-292 468,-292 468,-240 320,-240"/>
<text text-anchor="start" x="328" y="-280" font-family="Helvetica,sans-Serif" font-size="10.00">amunmt::GPU::Decoder</text>
<text text-anchor="start" x="328" y="-269" font-family="Helvetica,sans-Serif" font-size="10.00">::Alignment&lt; amunmt::</text>
<text text-anchor="start" x="328" y="-258" font-family="Helvetica,sans-Serif" font-size="10.00">GPU::Weights::DecAlignment</text>
<text text-anchor="middle" x="394" y="-247" font-family="Helvetica,sans-Serif" font-size="10.00"> &gt;::GetAlignedSourceContext</text>
</a>
</g>
</g>
<!-- Node3&#45;&gt;Node8 -->
<g id="edge7" class="edge"><title>Node3&#45;&gt;Node8</title>
<path fill="none" stroke="midnightblue" d="M268.313,-224.438C284.609,-229.87 302.696,-235.899 319.925,-241.642"/>
<polygon fill="midnightblue" stroke="midnightblue" points="269.015,-220.982 258.422,-221.141 266.802,-227.623 269.015,-220.982"/>
</g>
<!-- Node9 -->
<g id="node9" class="node"><title>Node9</title>
<g id="a_node9"><a xlink:href="$d1/d49/namespaceamunmt_1_1GPU_1_1mblas.html#ab76a2b350282de9a3eaea50aab7dc329" xlink:title="amunmt::GPU::mblas\l::TestMemCpy">
<polygon fill="white" stroke="black" points="338,-191 338,-221 450,-221 450,-191 338,-191"/>
<text text-anchor="start" x="346" y="-209" font-family="Helvetica,sans-Serif" font-size="10.00">amunmt::GPU::mblas</text>
<text text-anchor="middle" x="394" y="-198" font-family="Helvetica,sans-Serif" font-size="10.00">::TestMemCpy</text>
</a>
</g>
</g>
<!-- Node3&#45;&gt;Node9 -->
<g id="edge8" class="edge"><title>Node3&#45;&gt;Node9</title>
<path fill="none" stroke="midnightblue" d="M278.733,-206C298.094,-206 319.073,-206 337.708,-206"/>
<polygon fill="midnightblue" stroke="midnightblue" points="278.475,-202.5 268.475,-206 278.475,-209.5 278.475,-202.5"/>
</g>
<!-- Node10 -->
<g id="node10" class="node"><title>Node10</title>
<g id="a_node10"><a xlink:href="$d4/deb/classNpzConverter.html#aa996e7f76b03e6501f65a311a9dcd319" xlink:title="NpzConverter::Load">
<polygon fill="white" stroke="black" points="342,-152.5 342,-171.5 446,-171.5 446,-152.5 342,-152.5"/>
<text text-anchor="middle" x="394" y="-159.5" font-family="Helvetica,sans-Serif" font-size="10.00">NpzConverter::Load</text>
</a>
</g>
</g>
<!-- Node3&#45;&gt;Node10 -->
<g id="edge9" class="edge"><title>Node3&#45;&gt;Node10</title>
<path fill="none" stroke="midnightblue" d="M278.398,-190.014C303.743,-183.818 331.908,-176.934 353.974,-171.54"/>
<polygon fill="midnightblue" stroke="midnightblue" points="277.358,-186.665 268.475,-192.44 279.02,-193.465 277.358,-186.665"/>
</g>
<!-- Node11 -->
<g id="node11" class="node"><title>Node11</title>
<g id="a_node11"><a xlink:href="$d5/d54/structmarian_1_1Shape.html#adb8f3c0ab0efd3ca4253d5d7e998b9cc" xlink:title="Constructs a shape. ">
<polygon fill="white" stroke="black" points="337.5,-114.5 337.5,-133.5 450.5,-133.5 450.5,-114.5 337.5,-114.5"/>
<text text-anchor="middle" x="394" y="-121.5" font-family="Helvetica,sans-Serif" font-size="10.00">marian::Shape::Shape</text>
</a>
</g>
</g>
<!-- Node3&#45;&gt;Node11 -->
<g id="edge10" class="edge"><title>Node3&#45;&gt;Node11</title>
<path fill="none" stroke="midnightblue" d="M240.607,-184.843C259.727,-171.117 286.274,-153.833 312,-143 321.052,-139.188 331.01,-136.061 340.755,-133.523"/>
<polygon fill="midnightblue" stroke="midnightblue" points="238.38,-182.135 232.374,-190.864 242.512,-187.786 238.38,-182.135"/>
</g>
<!-- Node12 -->
<g id="node12" class="node"><title>Node12</title>
<g id="a_node12"><a xlink:href="$d6/dbf/structmarian_1_1ShapeGPU.html#a13529f654e08e8b5b5a74f6e66c22fdc" xlink:title="Constructs a shape. ">
<polygon fill="white" stroke="black" points="315.5,-76.5 315.5,-95.5 472.5,-95.5 472.5,-76.5 315.5,-76.5"/>
<text text-anchor="middle" x="394" y="-83.5" font-family="Helvetica,sans-Serif" font-size="10.00">marian::ShapeGPU::ShapeGPU</text>
</a>
</g>
</g>
<!-- Node3&#45;&gt;Node12 -->
<g id="edge11" class="edge"><title>Node3&#45;&gt;Node12</title>
<path fill="none" stroke="midnightblue" d="M229.718,-182.392C247.468,-159.126 277.663,-124.337 312,-105 318.922,-101.102 326.609,-98.0014 334.412,-95.5362"/>
<polygon fill="midnightblue" stroke="midnightblue" points="226.706,-180.577 223.542,-190.688 232.321,-184.757 226.706,-180.577"/>
</g>
<!-- Node13 -->
<g id="node13" class="node"><title>Node13</title>
<g id="a_node13"><a xlink:href="$d0/d5b/classmarian_1_1TensorCPU.html#a783de048c2d0a6400359bac0f3268080" xlink:title="marian::TensorCPU::get">
<polygon fill="white" stroke="black" points="332.5,-38.5 332.5,-57.5 455.5,-57.5 455.5,-38.5 332.5,-38.5"/>
<text text-anchor="middle" x="394" y="-45.5" font-family="Helvetica,sans-Serif" font-size="10.00">marian::TensorCPU::get</text>
</a>
</g>
</g>
<!-- Node3&#45;&gt;Node13 -->
<g id="edge12" class="edge"><title>Node3&#45;&gt;Node13</title>
<path fill="none" stroke="midnightblue" d="M223.751,-181.278C238.791,-149.714 269.16,-95.7556 312,-67 318.116,-62.8945 325.011,-59.6707 332.13,-57.1402"/>
<polygon fill="midnightblue" stroke="midnightblue" points="220.425,-180.133 219.41,-190.679 226.78,-183.067 220.425,-180.133"/>
</g>
<!-- Node14 -->
<g id="node14" class="node"><title>Node14</title>
<g id="a_node14"><a xlink:href="$d0/d5b/classmarian_1_1TensorCPU.html#a6ab34ca2fa6d297c4ae2686bdaff12a2" xlink:title="marian::TensorCPU::set">
<polygon fill="white" stroke="black" points="332.5,-0.5 332.5,-19.5 455.5,-19.5 455.5,-0.5 332.5,-0.5"/>
<text text-anchor="middle" x="394" y="-7.5" font-family="Helvetica,sans-Serif" font-size="10.00">marian::TensorCPU::set</text>
</a>
</g>
</g>
<!-- Node3&#45;&gt;Node14 -->
<g id="edge13" class="edge"><title>Node3&#45;&gt;Node14</title>
<path fill="none" stroke="midnightblue" d="M219.862,-180.95C231.834,-142.144 260.331,-67.9225 312,-29 317.999,-24.4807 324.903,-21.0135 332.097,-18.3573"/>
<polygon fill="midnightblue" stroke="midnightblue" points="216.4,-180.315 216.918,-190.897 223.112,-182.302 216.4,-180.315"/>
</g>
</g>
</svg>
