<?xml version="1.0" encoding="UTF-8" standalone="no"?>
<!DOCTYPE svg PUBLIC "-//W3C//DTD SVG 1.1//EN"
 "http://www.w3.org/Graphics/SVG/1.1/DTD/svg11.dtd">
<!-- Generated by graphviz version 2.38.0 (20140413.2041)
 -->
<!-- Title: amunmt::GPU::mblas::PasteRows Pages: 1 -->
<svg width="478pt" height="508pt"
 viewBox="0.00 0.00 478.00 508.00" xmlns="http://www.w3.org/2000/svg" xmlns:xlink="http://www.w3.org/1999/xlink">
<g id="graph0" class="graph" transform="scale(1 1) rotate(0) translate(4 504)">
<title>amunmt::GPU::mblas::PasteRows</title>
<polygon fill="white" stroke="none" points="-4,4 -4,-504 474,-504 474,4 -4,4"/>
<!-- Node1 -->
<g id="node1" class="node"><title>Node1</title>
<polygon fill="#bfbfbf" stroke="black" points="0,-215 0,-245 112,-245 112,-215 0,-215"/>
<text text-anchor="start" x="8" y="-233" font-family="Helvetica,sans-Serif" font-size="10.00">amunmt::GPU::mblas</text>
<text text-anchor="middle" x="56" y="-222" font-family="Helvetica,sans-Serif" font-size="10.00">::PasteRows</text>
</g>
<!-- Node2 -->
<g id="node2" class="node"><title>Node2</title>
<g id="a_node2"><a xlink:href="$dd/d5d/classamunmt_1_1GPU_1_1Encoder_1_1RNN.html#a957c23ec361936201ad6a0b03dd05dc9" xlink:title="amunmt::GPU::Encoder\l::RNN::Encode">
<polygon fill="white" stroke="black" points="148,-240 148,-270 270,-270 270,-240 148,-240"/>
<text text-anchor="start" x="156" y="-258" font-family="Helvetica,sans-Serif" font-size="10.00">amunmt::GPU::Encoder</text>
<text text-anchor="middle" x="209" y="-247" font-family="Helvetica,sans-Serif" font-size="10.00">::RNN::Encode</text>
</a>
</g>
</g>
<!-- Node1&#45;&gt;Node2 -->
<g id="edge1" class="edge"><title>Node1&#45;&gt;Node2</title>
<path fill="none" stroke="midnightblue" d="M122.51,-240.846C130.915,-242.238 139.489,-243.657 147.804,-245.034"/>
<polygon fill="midnightblue" stroke="midnightblue" points="122.807,-237.348 112.369,-239.167 121.663,-244.254 122.807,-237.348"/>
</g>
<!-- Node3 -->
<g id="node3" class="node"><title>Node3</title>
<g id="a_node3"><a xlink:href="$d1/d49/namespaceamunmt_1_1GPU_1_1mblas.html#a6531a040aa422fcd149f89b92f6d2585" xlink:title="amunmt::GPU::mblas\l::copy">
<polygon fill="white" stroke="black" points="153,-191 153,-221 265,-221 265,-191 153,-191"/>
<text text-anchor="start" x="161" y="-209" font-family="Helvetica,sans-Serif" font-size="10.00">amunmt::GPU::mblas</text>
<text text-anchor="middle" x="209" y="-198" font-family="Helvetica,sans-Serif" font-size="10.00">::copy</text>
</a>
</g>
</g>
<!-- Node1&#45;&gt;Node3 -->
<g id="edge2" class="edge"><title>Node1&#45;&gt;Node3</title>
<path fill="none" stroke="midnightblue" d="M122.419,-219.602C132.579,-217.987 142.987,-216.333 152.89,-214.759"/>
<polygon fill="midnightblue" stroke="midnightblue" points="121.696,-216.173 112.369,-221.2 122.795,-223.086 121.696,-216.173"/>
</g>
<!-- Node4 -->
<g id="node4" class="node"><title>Node4</title>
<g id="a_node4"><a xlink:href="$d2/d16/classDeviceCPU.html#ad86a817a1e6d8e56ce39ceaf0c61ba27" xlink:title="DeviceCPU::reserve">
<polygon fill="white" stroke="black" points="334.5,-480.5 334.5,-499.5 441.5,-499.5 441.5,-480.5 334.5,-480.5"/>
<text text-anchor="middle" x="388" y="-487.5" font-family="Helvetica,sans-Serif" font-size="10.00">DeviceCPU::reserve</text>
</a>
</g>
</g>
<!-- Node3&#45;&gt;Node4 -->
<g id="edge3" class="edge"><title>Node3&#45;&gt;Node4</title>
<path fill="none" stroke="midnightblue" d="M267.009,-227.58C268.067,-228.665 269.067,-229.804 270,-231 336.339,-316.046 232.902,-391.687 306,-471 313.44,-479.072 323.601,-484.026 334.212,-487.002"/>
<polygon fill="midnightblue" stroke="midnightblue" points="269.222,-224.868 259.292,-221.175 264.751,-230.255 269.222,-224.868"/>
</g>
<!-- Node5 -->
<g id="node5" class="node"><title>Node5</title>
<g id="a_node5"><a xlink:href="$d0/dd3/classamunmt_1_1GPU_1_1ClassLanguageModel.html#a0cbf0d5fec22724b1e8e33e4aa6f779c" xlink:title="amunmt::GPU::ClassLanguage\lModel::Score">
<polygon fill="white" stroke="black" points="311.5,-431 311.5,-461 464.5,-461 464.5,-431 311.5,-431"/>
<text text-anchor="start" x="319.5" y="-449" font-family="Helvetica,sans-Serif" font-size="10.00">amunmt::GPU::ClassLanguage</text>
<text text-anchor="middle" x="388" y="-438" font-family="Helvetica,sans-Serif" font-size="10.00">Model::Score</text>
</a>
</g>
</g>
<!-- Node3&#45;&gt;Node5 -->
<g id="edge4" class="edge"><title>Node3&#45;&gt;Node5</title>
<path fill="none" stroke="midnightblue" d="M266.875,-227.553C267.978,-228.647 269.023,-229.795 270,-231 324.395,-298.107 248.103,-357.89 306,-422 309.047,-425.374 312.544,-428.283 316.338,-430.79"/>
<polygon fill="midnightblue" stroke="midnightblue" points="268.844,-224.646 258.859,-221.102 264.455,-230.099 268.844,-224.646"/>
</g>
<!-- Node6 -->
<g id="node6" class="node"><title>Node6</title>
<g id="a_node6"><a xlink:href="$d2/d2b/classmarian_1_1data_1_1Dataset.html#a27ff57e73e81b555305a5f45cde30d91" xlink:title="marian::data::Dataset\l::toBatch">
<polygon fill="white" stroke="black" points="332.5,-382 332.5,-412 443.5,-412 443.5,-382 332.5,-382"/>
<text text-anchor="start" x="340.5" y="-400" font-family="Helvetica,sans-Serif" font-size="10.00">marian::data::Dataset</text>
<text text-anchor="middle" x="388" y="-389" font-family="Helvetica,sans-Serif" font-size="10.00">::toBatch</text>
</a>
</g>
</g>
<!-- Node3&#45;&gt;Node6 -->
<g id="edge5" class="edge"><title>Node3&#45;&gt;Node6</title>
<path fill="none" stroke="midnightblue" d="M266.348,-227.238C267.637,-228.426 268.859,-229.679 270,-231 312.545,-280.284 260.886,-326.056 306,-373 313.114,-380.403 322.394,-385.551 332.123,-389.125"/>
<polygon fill="midnightblue" stroke="midnightblue" points="268.401,-224.402 258.327,-221.12 264.156,-229.967 268.401,-224.402"/>
</g>
<!-- Node7 -->
<g id="node7" class="node"><title>Node7</title>
<g id="a_node7"><a xlink:href="$d9/d05/classamunmt_1_1GPU_1_1Decoder_1_1Embeddings.html#a5c32bbdcdde7a6d814f8599e8d4955a8" xlink:title="amunmt::GPU::Decoder\l::Embeddings\&lt; amunmt\l::GPU::Weights::DecEmbeddings\l \&gt;::Lookup">
<polygon fill="white" stroke="black" points="306,-311 306,-363 470,-363 470,-311 306,-311"/>
<text text-anchor="start" x="314" y="-351" font-family="Helvetica,sans-Serif" font-size="10.00">amunmt::GPU::Decoder</text>
<text text-anchor="start" x="314" y="-340" font-family="Helvetica,sans-Serif" font-size="10.00">::Embeddings&lt; amunmt</text>
<text text-anchor="start" x="314" y="-329" font-family="Helvetica,sans-Serif" font-size="10.00">::GPU::Weights::DecEmbeddings</text>
<text text-anchor="middle" x="388" y="-318" font-family="Helvetica,sans-Serif" font-size="10.00"> &gt;::Lookup</text>
</a>
</g>
</g>
<!-- Node3&#45;&gt;Node7 -->
<g id="edge6" class="edge"><title>Node3&#45;&gt;Node7</title>
<path fill="none" stroke="midnightblue" d="M264.655,-226.588C266.529,-227.971 268.32,-229.441 270,-231 295.932,-255.069 280.226,-277.762 306,-302 309.459,-305.253 313.269,-308.232 317.293,-310.955"/>
<polygon fill="midnightblue" stroke="midnightblue" points="266.306,-223.489 255.994,-221.055 262.537,-229.388 266.306,-223.489"/>
</g>
<!-- Node8 -->
<g id="node8" class="node"><title>Node8</title>
<g id="a_node8"><a xlink:href="$df/d32/classamunmt_1_1GPU_1_1Decoder_1_1Alignment.html#aca6a7ea06e3db456c9cf723cb62a975f" xlink:title="amunmt::GPU::Decoder\l::Alignment\&lt; amunmt::\lGPU::Weights::DecAlignment\l \&gt;::GetAlignedSourceContext">
<polygon fill="white" stroke="black" points="314,-240 314,-292 462,-292 462,-240 314,-240"/>
<text text-anchor="start" x="322" y="-280" font-family="Helvetica,sans-Serif" font-size="10.00">amunmt::GPU::Decoder</text>
<text text-anchor="start" x="322" y="-269" font-family="Helvetica,sans-Serif" font-size="10.00">::Alignment&lt; amunmt::</text>
<text text-anchor="start" x="322" y="-258" font-family="Helvetica,sans-Serif" font-size="10.00">GPU::Weights::DecAlignment</text>
<text text-anchor="middle" x="388" y="-247" font-family="Helvetica,sans-Serif" font-size="10.00"> &gt;::GetAlignedSourceContext</text>
</a>
</g>
</g>
<!-- Node3&#45;&gt;Node8 -->
<g id="edge7" class="edge"><title>Node3&#45;&gt;Node8</title>
<path fill="none" stroke="midnightblue" d="M264.168,-224.362C279.818,-229.667 297.164,-235.547 313.77,-241.176"/>
<polygon fill="midnightblue" stroke="midnightblue" points="265.259,-221.036 254.665,-221.141 263.012,-227.666 265.259,-221.036"/>
</g>
<!-- Node9 -->
<g id="node9" class="node"><title>Node9</title>
<g id="a_node9"><a xlink:href="$d1/d49/namespaceamunmt_1_1GPU_1_1mblas.html#ab76a2b350282de9a3eaea50aab7dc329" xlink:title="amunmt::GPU::mblas\l::TestMemCpy">
<polygon fill="white" stroke="black" points="332,-191 332,-221 444,-221 444,-191 332,-191"/>
<text text-anchor="start" x="340" y="-209" font-family="Helvetica,sans-Serif" font-size="10.00">amunmt::GPU::mblas</text>
<text text-anchor="middle" x="388" y="-198" font-family="Helvetica,sans-Serif" font-size="10.00">::TestMemCpy</text>
</a>
</g>
</g>
<!-- Node3&#45;&gt;Node9 -->
<g id="edge8" class="edge"><title>Node3&#45;&gt;Node9</title>
<path fill="none" stroke="midnightblue" d="M275.173,-206C293.738,-206 313.779,-206 331.696,-206"/>
<polygon fill="midnightblue" stroke="midnightblue" points="275.034,-202.5 265.034,-206 275.034,-209.5 275.034,-202.5"/>
</g>
<!-- Node10 -->
<g id="node10" class="node"><title>Node10</title>
<g id="a_node10"><a xlink:href="$d4/deb/classNpzConverter.html#aa996e7f76b03e6501f65a311a9dcd319" xlink:title="NpzConverter::Load">
<polygon fill="white" stroke="black" points="336,-152.5 336,-171.5 440,-171.5 440,-152.5 336,-152.5"/>
<text text-anchor="middle" x="388" y="-159.5" font-family="Helvetica,sans-Serif" font-size="10.00">NpzConverter::Load</text>
</a>
</g>
</g>
<!-- Node3&#45;&gt;Node10 -->
<g id="edge9" class="edge"><title>Node3&#45;&gt;Node10</title>
<path fill="none" stroke="midnightblue" d="M274.932,-189.74C285.322,-187.146 295.955,-184.496 306,-182 319.776,-178.577 334.875,-174.844 348.265,-171.54"/>
<polygon fill="midnightblue" stroke="midnightblue" points="273.927,-186.383 265.074,-192.202 275.624,-193.174 273.927,-186.383"/>
</g>
<!-- Node11 -->
<g id="node11" class="node"><title>Node11</title>
<g id="a_node11"><a xlink:href="$d5/d54/structmarian_1_1Shape.html#adb8f3c0ab0efd3ca4253d5d7e998b9cc" xlink:title="Constructs a shape. ">
<polygon fill="white" stroke="black" points="331.5,-114.5 331.5,-133.5 444.5,-133.5 444.5,-114.5 331.5,-114.5"/>
<text text-anchor="middle" x="388" y="-121.5" font-family="Helvetica,sans-Serif" font-size="10.00">marian::Shape::Shape</text>
</a>
</g>
</g>
<!-- Node3&#45;&gt;Node11 -->
<g id="edge10" class="edge"><title>Node3&#45;&gt;Node11</title>
<path fill="none" stroke="midnightblue" d="M236.922,-184.621C255.401,-170.909 281.015,-153.728 306,-143 314.893,-139.182 324.679,-136.061 334.281,-133.533"/>
<polygon fill="midnightblue" stroke="midnightblue" points="234.572,-182.01 228.71,-190.835 238.796,-187.592 234.572,-182.01"/>
</g>
<!-- Node12 -->
<g id="node12" class="node"><title>Node12</title>
<g id="a_node12"><a xlink:href="$d6/dbf/structmarian_1_1ShapeGPU.html#a13529f654e08e8b5b5a74f6e66c22fdc" xlink:title="Constructs a shape. ">
<polygon fill="white" stroke="black" points="309.5,-76.5 309.5,-95.5 466.5,-95.5 466.5,-76.5 309.5,-76.5"/>
<text text-anchor="middle" x="388" y="-83.5" font-family="Helvetica,sans-Serif" font-size="10.00">marian::ShapeGPU::ShapeGPU</text>
</a>
</g>
</g>
<!-- Node3&#45;&gt;Node12 -->
<g id="edge11" class="edge"><title>Node3&#45;&gt;Node12</title>
<path fill="none" stroke="midnightblue" d="M226.05,-182.381C243.135,-159.107 272.317,-124.312 306,-105 312.767,-101.12 320.283,-98.0321 327.931,-95.574"/>
<polygon fill="midnightblue" stroke="midnightblue" points="223.084,-180.512 220.11,-190.681 228.776,-184.586 223.084,-180.512"/>
</g>
<!-- Node13 -->
<g id="node13" class="node"><title>Node13</title>
<g id="a_node13"><a xlink:href="$d0/d5b/classmarian_1_1TensorCPU.html#a783de048c2d0a6400359bac0f3268080" xlink:title="marian::TensorCPU::get">
<polygon fill="white" stroke="black" points="326.5,-38.5 326.5,-57.5 449.5,-57.5 449.5,-38.5 326.5,-38.5"/>
<text text-anchor="middle" x="388" y="-45.5" font-family="Helvetica,sans-Serif" font-size="10.00">marian::TensorCPU::get</text>
</a>
</g>
</g>
<!-- Node3&#45;&gt;Node13 -->
<g id="edge12" class="edge"><title>Node3&#45;&gt;Node13</title>
<path fill="none" stroke="midnightblue" d="M220.223,-181.283C234.588,-149.724 263.799,-95.7713 306,-67 312.206,-62.769 319.233,-59.4729 326.491,-56.9064"/>
<polygon fill="midnightblue" stroke="midnightblue" points="216.911,-180.12 216.083,-190.682 223.317,-182.941 216.911,-180.12"/>
</g>
<!-- Node14 -->
<g id="node14" class="node"><title>Node14</title>
<g id="a_node14"><a xlink:href="$d0/d5b/classmarian_1_1TensorCPU.html#a6ab34ca2fa6d297c4ae2686bdaff12a2" xlink:title="marian::TensorCPU::set">
<polygon fill="white" stroke="black" points="326.5,-0.5 326.5,-19.5 449.5,-19.5 449.5,-0.5 326.5,-0.5"/>
<text text-anchor="middle" x="388" y="-7.5" font-family="Helvetica,sans-Serif" font-size="10.00">marian::TensorCPU::set</text>
</a>
</g>
</g>
<!-- Node3&#45;&gt;Node14 -->
<g id="edge13" class="edge"><title>Node3&#45;&gt;Node14</title>
<path fill="none" stroke="midnightblue" d="M216.428,-180.963C227.73,-142.175 254.952,-67.9774 306,-29 312.085,-24.3542 319.122,-20.8176 326.456,-18.1302"/>
<polygon fill="midnightblue" stroke="midnightblue" points="212.97,-180.333 213.656,-190.905 219.713,-182.213 212.97,-180.333"/>
</g>
</g>
</svg>
