<?xml version="1.0" encoding="UTF-8" standalone="no"?>
<!DOCTYPE svg PUBLIC "-//W3C//DTD SVG 1.1//EN"
 "http://www.w3.org/Graphics/SVG/1.1/DTD/svg11.dtd">
<!-- Generated by graphviz version 2.38.0 (20140413.2041)
 -->
<!-- Title: amunmt::GPU::mblas::Element Pages: 1 -->
<svg width="433pt" height="99pt"
 viewBox="0.00 0.00 433.00 98.50" xmlns="http://www.w3.org/2000/svg" xmlns:xlink="http://www.w3.org/1999/xlink">
<g id="graph0" class="graph" transform="scale(1 1) rotate(0) translate(4 94.5)">
<title>amunmt::GPU::mblas::Element</title>
<polygon fill="white" stroke="none" points="-4,4 -4,-94.5 429,-94.5 429,4 -4,4"/>
<!-- Node1 -->
<g id="node1" class="node"><title>Node1</title>
<polygon fill="#bfbfbf" stroke="black" points="0,-33 0,-63 112,-63 112,-33 0,-33"/>
<text text-anchor="start" x="8" y="-51" font-family="Helvetica,sans-Serif" font-size="10.00">amunmt::GPU::mblas</text>
<text text-anchor="middle" x="56" y="-40" font-family="Helvetica,sans-Serif" font-size="10.00">::Element</text>
</g>
<!-- Node2 -->
<g id="node2" class="node"><title>Node2</title>
<g id="a_node2"><a xlink:href="$d5/de7/classamunmt_1_1BaseMatrix.html#a52ccc5b9234726532fe0452a8aed5b1f" xlink:title="amunmt::BaseMatrix\l::size">
<polygon fill="white" stroke="black" points="150.5,-60 150.5,-90 257.5,-90 257.5,-60 150.5,-60"/>
<text text-anchor="start" x="158.5" y="-78" font-family="Helvetica,sans-Serif" font-size="10.00">amunmt::BaseMatrix</text>
<text text-anchor="middle" x="204" y="-67" font-family="Helvetica,sans-Serif" font-size="10.00">::size</text>
</a>
</g>
</g>
<!-- Node1&#45;&gt;Node2 -->
<g id="edge1" class="edge"><title>Node1&#45;&gt;Node2</title>
<path fill="none" stroke="midnightblue" d="M112.196,-58.2075C121.329,-59.8964 130.857,-61.6585 140.161,-63.3791"/>
<polygon fill="midnightblue" stroke="midnightblue" points="139.669,-66.8474 150.139,-65.2243 140.942,-59.9641 139.669,-66.8474"/>
</g>
<!-- Node4 -->
<g id="node4" class="node"><title>Node4</title>
<g id="a_node4"><a xlink:href="$dc/d89/classamunmt_1_1GPU_1_1mblas_1_1CudaStreamHandler.html#aab9046cda40ac3fed5676d5aa680e6c8" xlink:title="amunmt::GPU::mblas\l::CudaStreamHandler\l::GetStream">
<polygon fill="white" stroke="black" points="148,-0.5 148,-41.5 260,-41.5 260,-0.5 148,-0.5"/>
<text text-anchor="start" x="156" y="-29.5" font-family="Helvetica,sans-Serif" font-size="10.00">amunmt::GPU::mblas</text>
<text text-anchor="start" x="156" y="-18.5" font-family="Helvetica,sans-Serif" font-size="10.00">::CudaStreamHandler</text>
<text text-anchor="middle" x="204" y="-7.5" font-family="Helvetica,sans-Serif" font-size="10.00">::GetStream</text>
</a>
</g>
</g>
<!-- Node1&#45;&gt;Node4 -->
<g id="edge3" class="edge"><title>Node1&#45;&gt;Node4</title>
<path fill="none" stroke="midnightblue" d="M112.196,-37.7925C120.554,-36.2468 129.243,-34.6399 137.789,-33.0596"/>
<polygon fill="midnightblue" stroke="midnightblue" points="138.529,-36.4822 147.726,-31.222 137.256,-29.5989 138.529,-36.4822"/>
</g>
<!-- Node3 -->
<g id="node3" class="node"><title>Node3</title>
<g id="a_node3"><a xlink:href="$d5/de7/classamunmt_1_1BaseMatrix.html#a8fca680b1a864b3d99e9cfe6aa60f1d4" xlink:title="amunmt::BaseMatrix::dim">
<polygon fill="white" stroke="black" points="296,-65.5 296,-84.5 425,-84.5 425,-65.5 296,-65.5"/>
<text text-anchor="middle" x="360.5" y="-72.5" font-family="Helvetica,sans-Serif" font-size="10.00">amunmt::BaseMatrix::dim</text>
</a>
</g>
</g>
<!-- Node2&#45;&gt;Node3 -->
<g id="edge2" class="edge"><title>Node2&#45;&gt;Node3</title>
<path fill="none" stroke="midnightblue" d="M257.738,-75C266.726,-75 276.207,-75 285.621,-75"/>
<polygon fill="midnightblue" stroke="midnightblue" points="285.784,-78.5001 295.784,-75 285.784,-71.5001 285.784,-78.5001"/>
</g>
</g>
</svg>
