<?xml version="1.0" encoding="UTF-8" standalone="no"?>
<!DOCTYPE svg PUBLIC "-//W3C//DTD SVG 1.1//EN"
 "http://www.w3.org/Graphics/SVG/1.1/DTD/svg11.dtd">
<!-- Generated by graphviz version 2.38.0 (20140413.2041)
 -->
<!-- Title: amunmt::GPU::mblas::Swap Pages: 1 -->
<svg width="490pt" height="508pt"
 viewBox="0.00 0.00 490.00 508.00" xmlns="http://www.w3.org/2000/svg" xmlns:xlink="http://www.w3.org/1999/xlink">
<g id="graph0" class="graph" transform="scale(1 1) rotate(0) translate(4 504)">
<title>amunmt::GPU::mblas::Swap</title>
<polygon fill="white" stroke="none" points="-4,4 -4,-504 486,-504 486,4 -4,4"/>
<!-- Node1 -->
<g id="node1" class="node"><title>Node1</title>
<polygon fill="#bfbfbf" stroke="black" points="0,-264 0,-294 112,-294 112,-264 0,-264"/>
<text text-anchor="start" x="8" y="-282" font-family="Helvetica,sans-Serif" font-size="10.00">amunmt::GPU::mblas</text>
<text text-anchor="middle" x="56" y="-271" font-family="Helvetica,sans-Serif" font-size="10.00">::Swap</text>
</g>
<!-- Node2 -->
<g id="node2" class="node"><title>Node2</title>
<g id="a_node2"><a xlink:href="$d8/dc9/classamunmt_1_1GPU_1_1SlowGRU.html#a56abd7ee93ad637ca54113fbc1427e01" xlink:title="amunmt::GPU::SlowGRU\l::GetNextState">
<polygon fill="white" stroke="black" points="150,-338 150,-368 280,-368 280,-338 150,-338"/>
<text text-anchor="start" x="158" y="-356" font-family="Helvetica,sans-Serif" font-size="10.00">amunmt::GPU::SlowGRU</text>
<text text-anchor="middle" x="215" y="-345" font-family="Helvetica,sans-Serif" font-size="10.00">::GetNextState</text>
</a>
</g>
</g>
<!-- Node1&#45;&gt;Node2 -->
<g id="edge1" class="edge"><title>Node1&#45;&gt;Node2</title>
<path fill="none" stroke="midnightblue" d="M90.8785,-299.237C107.735,-308.885 128.606,-320.209 148,-329 154.885,-332.121 162.306,-335.138 169.6,-337.918"/>
<polygon fill="midnightblue" stroke="midnightblue" points="92.3702,-296.057 81.962,-294.077 88.8637,-302.115 92.3702,-296.057"/>
</g>
<!-- Node3 -->
<g id="node3" class="node"><title>Node3</title>
<g id="a_node3"><a xlink:href="$d9/df6/classamunmt_1_1GPU_1_1FastGRU.html#a80dfed3a6e61b1ee726085adb714deb0" xlink:title="amunmt::GPU::FastGRU\l::GetNextState">
<polygon fill="white" stroke="black" points="151,-289 151,-319 279,-319 279,-289 151,-289"/>
<text text-anchor="start" x="159" y="-307" font-family="Helvetica,sans-Serif" font-size="10.00">amunmt::GPU::FastGRU</text>
<text text-anchor="middle" x="215" y="-296" font-family="Helvetica,sans-Serif" font-size="10.00">::GetNextState</text>
</a>
</g>
</g>
<!-- Node1&#45;&gt;Node3 -->
<g id="edge2" class="edge"><title>Node1&#45;&gt;Node3</title>
<path fill="none" stroke="midnightblue" d="M122.426,-289.418C131.827,-290.915 141.485,-292.453 150.841,-293.943"/>
<polygon fill="midnightblue" stroke="midnightblue" points="122.778,-285.93 112.352,-287.814 121.677,-292.843 122.778,-285.93"/>
</g>
<!-- Node4 -->
<g id="node4" class="node"><title>Node4</title>
<g id="a_node4"><a xlink:href="$df/de1/classamunmt_1_1GPU_1_1SlowLSTM.html#a445547f2b64a36f61c0a62dc682364f3" xlink:title="amunmt::GPU::SlowLSTM\l::GetNextState">
<polygon fill="white" stroke="black" points="148,-240 148,-270 282,-270 282,-240 148,-240"/>
<text text-anchor="start" x="156" y="-258" font-family="Helvetica,sans-Serif" font-size="10.00">amunmt::GPU::SlowLSTM</text>
<text text-anchor="middle" x="215" y="-247" font-family="Helvetica,sans-Serif" font-size="10.00">::GetNextState</text>
</a>
</g>
</g>
<!-- Node1&#45;&gt;Node4 -->
<g id="edge3" class="edge"><title>Node1&#45;&gt;Node4</title>
<path fill="none" stroke="midnightblue" d="M122.46,-268.993C130.851,-267.711 139.447,-266.397 147.85,-265.112"/>
<polygon fill="midnightblue" stroke="midnightblue" points="121.709,-265.567 112.352,-270.538 122.766,-272.487 121.709,-265.567"/>
</g>
<!-- Node5 -->
<g id="node5" class="node"><title>Node5</title>
<g id="a_node5"><a xlink:href="$d1/d49/namespaceamunmt_1_1GPU_1_1mblas.html#a6531a040aa422fcd149f89b92f6d2585" xlink:title="amunmt::GPU::mblas\l::copy">
<polygon fill="white" stroke="black" points="159,-191 159,-221 271,-221 271,-191 159,-191"/>
<text text-anchor="start" x="167" y="-209" font-family="Helvetica,sans-Serif" font-size="10.00">amunmt::GPU::mblas</text>
<text text-anchor="middle" x="215" y="-198" font-family="Helvetica,sans-Serif" font-size="10.00">::copy</text>
</a>
</g>
</g>
<!-- Node1&#45;&gt;Node5 -->
<g id="edge4" class="edge"><title>Node1&#45;&gt;Node5</title>
<path fill="none" stroke="midnightblue" d="M92.4758,-258.984C109.099,-249.944 129.316,-239.427 148,-231 155.595,-227.574 163.812,-224.204 171.784,-221.103"/>
<polygon fill="midnightblue" stroke="midnightblue" points="90.726,-255.951 83.6434,-263.831 94.0939,-262.088 90.726,-255.951"/>
</g>
<!-- Node6 -->
<g id="node6" class="node"><title>Node6</title>
<g id="a_node6"><a xlink:href="$d2/d16/classDeviceCPU.html#ad86a817a1e6d8e56ce39ceaf0c61ba27" xlink:title="DeviceCPU::reserve">
<polygon fill="white" stroke="black" points="346.5,-480.5 346.5,-499.5 453.5,-499.5 453.5,-480.5 346.5,-480.5"/>
<text text-anchor="middle" x="400" y="-487.5" font-family="Helvetica,sans-Serif" font-size="10.00">DeviceCPU::reserve</text>
</a>
</g>
</g>
<!-- Node5&#45;&gt;Node6 -->
<g id="edge5" class="edge"><title>Node5&#45;&gt;Node6</title>
<path fill="none" stroke="midnightblue" d="M278.852,-227.51C279.962,-228.616 281.014,-229.778 282,-231 349.721,-314.95 244.902,-391.687 318,-471 325.44,-479.072 335.601,-484.026 346.212,-487.002"/>
<polygon fill="midnightblue" stroke="midnightblue" points="280.771,-224.561 270.789,-221.008 276.376,-230.01 280.771,-224.561"/>
</g>
<!-- Node7 -->
<g id="node7" class="node"><title>Node7</title>
<g id="a_node7"><a xlink:href="$d0/dd3/classamunmt_1_1GPU_1_1ClassLanguageModel.html#a0cbf0d5fec22724b1e8e33e4aa6f779c" xlink:title="amunmt::GPU::ClassLanguage\lModel::Score">
<polygon fill="white" stroke="black" points="323.5,-431 323.5,-461 476.5,-461 476.5,-431 323.5,-431"/>
<text text-anchor="start" x="331.5" y="-449" font-family="Helvetica,sans-Serif" font-size="10.00">amunmt::GPU::ClassLanguage</text>
<text text-anchor="middle" x="400" y="-438" font-family="Helvetica,sans-Serif" font-size="10.00">Model::Score</text>
</a>
</g>
</g>
<!-- Node5&#45;&gt;Node7 -->
<g id="edge6" class="edge"><title>Node5&#45;&gt;Node7</title>
<path fill="none" stroke="midnightblue" d="M278.791,-227.561C279.919,-228.651 280.992,-229.797 282,-231 337.485,-297.209 260.103,-357.89 318,-422 321.047,-425.374 324.544,-428.283 328.338,-430.79"/>
<polygon fill="midnightblue" stroke="midnightblue" points="280.656,-224.575 270.636,-221.134 276.324,-230.073 280.656,-224.575"/>
</g>
<!-- Node8 -->
<g id="node8" class="node"><title>Node8</title>
<g id="a_node8"><a xlink:href="$d2/d2b/classmarian_1_1data_1_1Dataset.html#a27ff57e73e81b555305a5f45cde30d91" xlink:title="marian::data::Dataset\l::toBatch">
<polygon fill="white" stroke="black" points="344.5,-382 344.5,-412 455.5,-412 455.5,-382 344.5,-382"/>
<text text-anchor="start" x="352.5" y="-400" font-family="Helvetica,sans-Serif" font-size="10.00">marian::data::Dataset</text>
<text text-anchor="middle" x="400" y="-389" font-family="Helvetica,sans-Serif" font-size="10.00">::toBatch</text>
</a>
</g>
</g>
<!-- Node5&#45;&gt;Node8 -->
<g id="edge7" class="edge"><title>Node5&#45;&gt;Node8</title>
<path fill="none" stroke="midnightblue" d="M278.248,-227.245C279.567,-228.429 280.822,-229.68 282,-231 325.345,-279.582 272.886,-326.056 318,-373 325.114,-380.403 334.394,-385.551 344.123,-389.125"/>
<polygon fill="midnightblue" stroke="midnightblue" points="280.181,-224.32 270.071,-221.152 275.999,-229.933 280.181,-224.32"/>
</g>
<!-- Node9 -->
<g id="node9" class="node"><title>Node9</title>
<g id="a_node9"><a xlink:href="$d9/d05/classamunmt_1_1GPU_1_1Decoder_1_1Embeddings.html#a5c32bbdcdde7a6d814f8599e8d4955a8" xlink:title="amunmt::GPU::Decoder\l::Embeddings\&lt; amunmt\l::GPU::Weights::DecEmbeddings\l \&gt;::Lookup">
<polygon fill="white" stroke="black" points="318,-311 318,-363 482,-363 482,-311 318,-311"/>
<text text-anchor="start" x="326" y="-351" font-family="Helvetica,sans-Serif" font-size="10.00">amunmt::GPU::Decoder</text>
<text text-anchor="start" x="326" y="-340" font-family="Helvetica,sans-Serif" font-size="10.00">::Embeddings&lt; amunmt</text>
<text text-anchor="start" x="326" y="-329" font-family="Helvetica,sans-Serif" font-size="10.00">::GPU::Weights::DecEmbeddings</text>
<text text-anchor="middle" x="400" y="-318" font-family="Helvetica,sans-Serif" font-size="10.00"> &gt;::Lookup</text>
</a>
</g>
</g>
<!-- Node5&#45;&gt;Node9 -->
<g id="edge8" class="edge"><title>Node5&#45;&gt;Node9</title>
<path fill="none" stroke="midnightblue" d="M276.482,-226.587C278.411,-227.968 280.259,-229.437 282,-231 308.322,-254.642 292.226,-277.762 318,-302 321.459,-305.253 325.269,-308.232 329.293,-310.955"/>
<polygon fill="midnightblue" stroke="midnightblue" points="277.923,-223.364 267.576,-221.087 274.245,-229.32 277.923,-223.364"/>
</g>
<!-- Node10 -->
<g id="node10" class="node"><title>Node10</title>
<g id="a_node10"><a xlink:href="$df/d32/classamunmt_1_1GPU_1_1Decoder_1_1Alignment.html#aca6a7ea06e3db456c9cf723cb62a975f" xlink:title="amunmt::GPU::Decoder\l::Alignment\&lt; amunmt::\lGPU::Weights::DecAlignment\l \&gt;::GetAlignedSourceContext">
<polygon fill="white" stroke="black" points="326,-240 326,-292 474,-292 474,-240 326,-240"/>
<text text-anchor="start" x="334" y="-280" font-family="Helvetica,sans-Serif" font-size="10.00">amunmt::GPU::Decoder</text>
<text text-anchor="start" x="334" y="-269" font-family="Helvetica,sans-Serif" font-size="10.00">::Alignment&lt; amunmt::</text>
<text text-anchor="start" x="334" y="-258" font-family="Helvetica,sans-Serif" font-size="10.00">GPU::Weights::DecAlignment</text>
<text text-anchor="middle" x="400" y="-247" font-family="Helvetica,sans-Serif" font-size="10.00"> &gt;::GetAlignedSourceContext</text>
</a>
</g>
</g>
<!-- Node5&#45;&gt;Node10 -->
<g id="edge9" class="edge"><title>Node5&#45;&gt;Node10</title>
<path fill="none" stroke="midnightblue" d="M271.931,-224.338C288.912,-229.906 307.829,-236.108 325.769,-241.99"/>
<polygon fill="midnightblue" stroke="midnightblue" points="272.771,-220.93 262.179,-221.141 270.59,-227.582 272.771,-220.93"/>
</g>
<!-- Node11 -->
<g id="node11" class="node"><title>Node11</title>
<g id="a_node11"><a xlink:href="$d1/d49/namespaceamunmt_1_1GPU_1_1mblas.html#ab76a2b350282de9a3eaea50aab7dc329" xlink:title="amunmt::GPU::mblas\l::TestMemCpy">
<polygon fill="white" stroke="black" points="344,-191 344,-221 456,-221 456,-191 344,-191"/>
<text text-anchor="start" x="352" y="-209" font-family="Helvetica,sans-Serif" font-size="10.00">amunmt::GPU::mblas</text>
<text text-anchor="middle" x="400" y="-198" font-family="Helvetica,sans-Serif" font-size="10.00">::TestMemCpy</text>
</a>
</g>
</g>
<!-- Node5&#45;&gt;Node11 -->
<g id="edge10" class="edge"><title>Node5&#45;&gt;Node11</title>
<path fill="none" stroke="midnightblue" d="M281.55,-206C301.931,-206 324.184,-206 343.786,-206"/>
<polygon fill="midnightblue" stroke="midnightblue" points="281.403,-202.5 271.403,-206 281.403,-209.5 281.403,-202.5"/>
</g>
<!-- Node12 -->
<g id="node12" class="node"><title>Node12</title>
<g id="a_node12"><a xlink:href="$d4/deb/classNpzConverter.html#aa996e7f76b03e6501f65a311a9dcd319" xlink:title="NpzConverter::Load">
<polygon fill="white" stroke="black" points="348,-152.5 348,-171.5 452,-171.5 452,-152.5 348,-152.5"/>
<text text-anchor="middle" x="400" y="-159.5" font-family="Helvetica,sans-Serif" font-size="10.00">NpzConverter::Load</text>
</a>
</g>
</g>
<!-- Node5&#45;&gt;Node12 -->
<g id="edge11" class="edge"><title>Node5&#45;&gt;Node12</title>
<path fill="none" stroke="midnightblue" d="M281.248,-190.312C307.388,-184.027 336.651,-176.991 359.466,-171.505"/>
<polygon fill="midnightblue" stroke="midnightblue" points="280.307,-186.938 271.403,-192.679 281.944,-193.744 280.307,-186.938"/>
</g>
<!-- Node13 -->
<g id="node13" class="node"><title>Node13</title>
<g id="a_node13"><a xlink:href="$d5/d54/structmarian_1_1Shape.html#adb8f3c0ab0efd3ca4253d5d7e998b9cc" xlink:title="Constructs a shape. ">
<polygon fill="white" stroke="black" points="343.5,-114.5 343.5,-133.5 456.5,-133.5 456.5,-114.5 343.5,-114.5"/>
<text text-anchor="middle" x="400" y="-121.5" font-family="Helvetica,sans-Serif" font-size="10.00">marian::Shape::Shape</text>
</a>
</g>
</g>
<!-- Node5&#45;&gt;Node13 -->
<g id="edge12" class="edge"><title>Node5&#45;&gt;Node13</title>
<path fill="none" stroke="midnightblue" d="M244.273,-185.066C264.035,-171.327 291.525,-153.94 318,-143 327.211,-139.194 337.341,-136.059 347.226,-133.51"/>
<polygon fill="midnightblue" stroke="midnightblue" points="242.179,-182.26 236.037,-190.893 246.222,-187.975 242.179,-182.26"/>
</g>
<!-- Node14 -->
<g id="node14" class="node"><title>Node14</title>
<g id="a_node14"><a xlink:href="$d6/dbf/structmarian_1_1ShapeGPU.html#a13529f654e08e8b5b5a74f6e66c22fdc" xlink:title="Constructs a shape. ">
<polygon fill="white" stroke="black" points="321.5,-76.5 321.5,-95.5 478.5,-95.5 478.5,-76.5 321.5,-76.5"/>
<text text-anchor="middle" x="400" y="-83.5" font-family="Helvetica,sans-Serif" font-size="10.00">marian::ShapeGPU::ShapeGPU</text>
</a>
</g>
</g>
<!-- Node5&#45;&gt;Node14 -->
<g id="edge13" class="edge"><title>Node5&#45;&gt;Node14</title>
<path fill="none" stroke="midnightblue" d="M233.141,-182.71C251.523,-159.454 282.85,-124.452 318,-105 324.951,-101.153 332.654,-98.0827 340.465,-95.632"/>
<polygon fill="midnightblue" stroke="midnightblue" points="230.316,-180.643 226.972,-190.696 235.855,-184.923 230.316,-180.643"/>
</g>
<!-- Node15 -->
<g id="node15" class="node"><title>Node15</title>
<g id="a_node15"><a xlink:href="$d0/d5b/classmarian_1_1TensorCPU.html#a783de048c2d0a6400359bac0f3268080" xlink:title="marian::TensorCPU::get">
<polygon fill="white" stroke="black" points="338.5,-38.5 338.5,-57.5 461.5,-57.5 461.5,-38.5 338.5,-38.5"/>
<text text-anchor="middle" x="400" y="-45.5" font-family="Helvetica,sans-Serif" font-size="10.00">marian::TensorCPU::get</text>
</a>
</g>
</g>
<!-- Node5&#45;&gt;Node15 -->
<g id="edge14" class="edge"><title>Node5&#45;&gt;Node15</title>
<path fill="none" stroke="midnightblue" d="M227.277,-181.275C242.989,-149.707 274.514,-95.7444 318,-67 324.145,-62.9379 331.057,-59.7403 338.185,-57.2238"/>
<polygon fill="midnightblue" stroke="midnightblue" points="223.933,-180.15 222.736,-190.677 230.237,-183.194 223.933,-180.15"/>
</g>
<!-- Node16 -->
<g id="node16" class="node"><title>Node16</title>
<g id="a_node16"><a xlink:href="$d0/d5b/classmarian_1_1TensorCPU.html#a6ab34ca2fa6d297c4ae2686bdaff12a2" xlink:title="marian::TensorCPU::set">
<polygon fill="white" stroke="black" points="338.5,-0.5 338.5,-19.5 461.5,-19.5 461.5,-0.5 338.5,-0.5"/>
<text text-anchor="middle" x="400" y="-7.5" font-family="Helvetica,sans-Serif" font-size="10.00">marian::TensorCPU::set</text>
</a>
</g>
</g>
<!-- Node5&#45;&gt;Node16 -->
<g id="edge15" class="edge"><title>Node5&#45;&gt;Node16</title>
<path fill="none" stroke="midnightblue" d="M223.294,-180.938C235.935,-142.116 265.704,-67.8724 318,-29 324.028,-24.5193 330.949,-21.0749 338.152,-18.4307"/>
<polygon fill="midnightblue" stroke="midnightblue" points="219.826,-180.301 220.179,-190.89 226.507,-182.392 219.826,-180.301"/>
</g>
</g>
</svg>
