<?xml version="1.0" encoding="UTF-8" standalone="no"?>
<!DOCTYPE svg PUBLIC "-//W3C//DTD SVG 1.1//EN"
 "http://www.w3.org/Graphics/SVG/1.1/DTD/svg11.dtd">
<!-- Generated by graphviz version 2.38.0 (20140413.2041)
 -->
<!-- Title: marian::rnn::GlobalAttention Pages: 1 -->
<svg width="146pt" height="634pt"
 viewBox="0.00 0.00 146.00 634.00" xmlns="http://www.w3.org/2000/svg" xmlns:xlink="http://www.w3.org/1999/xlink">
<g id="graph0" class="graph" transform="scale(1 1) rotate(0) translate(4 630)">
<title>marian::rnn::GlobalAttention</title>
<polygon fill="white" stroke="none" points="-4,4 -4,-630 142,-630 142,4 -4,4"/>
<!-- Node1 -->
<g id="node1" class="node"><title>Node1</title>
<polygon fill="#bfbfbf" stroke="black" points="0,-0.5 0,-233.5 138,-233.5 138,-0.5 0,-0.5"/>
<text text-anchor="middle" x="69" y="-221.5" font-family="Helvetica,sans-Serif" font-size="10.00">marian::rnn::GlobalAttention</text>
<polyline fill="none" stroke="black" points="0,-214.5 138,-214.5 "/>
<text text-anchor="start" x="8" y="-202.5" font-family="Helvetica,sans-Serif" font-size="10.00">&#45; Wa_</text>
<text text-anchor="start" x="8" y="-191.5" font-family="Helvetica,sans-Serif" font-size="10.00">&#45; ba_</text>
<text text-anchor="start" x="8" y="-180.5" font-family="Helvetica,sans-Serif" font-size="10.00">&#45; Ua_</text>
<text text-anchor="start" x="8" y="-169.5" font-family="Helvetica,sans-Serif" font-size="10.00">&#45; va_</text>
<text text-anchor="start" x="8" y="-158.5" font-family="Helvetica,sans-Serif" font-size="10.00">&#45; gammaContext_</text>
<text text-anchor="start" x="8" y="-147.5" font-family="Helvetica,sans-Serif" font-size="10.00">&#45; betaContext_</text>
<text text-anchor="start" x="8" y="-136.5" font-family="Helvetica,sans-Serif" font-size="10.00">&#45; gammaState_</text>
<text text-anchor="start" x="8" y="-125.5" font-family="Helvetica,sans-Serif" font-size="10.00">&#45; betaState_</text>
<text text-anchor="start" x="8" y="-114.5" font-family="Helvetica,sans-Serif" font-size="10.00">&#45; encState_</text>
<text text-anchor="start" x="8" y="-103.5" font-family="Helvetica,sans-Serif" font-size="10.00">&#45; softmaxMask_</text>
<text text-anchor="start" x="8" y="-92.5" font-family="Helvetica,sans-Serif" font-size="10.00">and 8 more...</text>
<polyline fill="none" stroke="black" points="0,-85.5 138,-85.5 "/>
<text text-anchor="start" x="8" y="-73.5" font-family="Helvetica,sans-Serif" font-size="10.00">+ GlobalAttention()</text>
<text text-anchor="start" x="8" y="-62.5" font-family="Helvetica,sans-Serif" font-size="10.00">+ apply()</text>
<text text-anchor="start" x="8" y="-51.5" font-family="Helvetica,sans-Serif" font-size="10.00">+ getContexts()</text>
<text text-anchor="start" x="8" y="-40.5" font-family="Helvetica,sans-Serif" font-size="10.00">+ getContext()</text>
<text text-anchor="start" x="8" y="-29.5" font-family="Helvetica,sans-Serif" font-size="10.00">+ getAlignments()</text>
<text text-anchor="start" x="8" y="-18.5" font-family="Helvetica,sans-Serif" font-size="10.00">+ clear()</text>
<text text-anchor="start" x="8" y="-7.5" font-family="Helvetica,sans-Serif" font-size="10.00">+ dimOutput()</text>
</g>
<!-- Node2 -->
<g id="node2" class="node"><title>Node2</title>
<g id="a_node2"><a xlink:href="../../dd/d5d/classmarian_1_1rnn_1_1CellInput.html" target="_top" xlink:title="{marian::rnn::CellInput\n||+ CellInput()\l+ apply()\l+ dimOutput()\l}">
<polygon fill="white" stroke="black" points="14,-270.5 14,-349.5 124,-349.5 124,-270.5 14,-270.5"/>
<text text-anchor="middle" x="69" y="-337.5" font-family="Helvetica,sans-Serif" font-size="10.00">marian::rnn::CellInput</text>
<polyline fill="none" stroke="black" points="14,-330.5 124,-330.5 "/>
<text text-anchor="middle" x="69" y="-318.5" font-family="Helvetica,sans-Serif" font-size="10.00"> </text>
<polyline fill="none" stroke="black" points="14,-311.5 124,-311.5 "/>
<text text-anchor="start" x="22" y="-299.5" font-family="Helvetica,sans-Serif" font-size="10.00">+ CellInput()</text>
<text text-anchor="start" x="22" y="-288.5" font-family="Helvetica,sans-Serif" font-size="10.00">+ apply()</text>
<text text-anchor="start" x="22" y="-277.5" font-family="Helvetica,sans-Serif" font-size="10.00">+ dimOutput()</text>
</a>
</g>
</g>
<!-- Node2&#45;&gt;Node1 -->
<g id="edge1" class="edge"><title>Node2&#45;&gt;Node1</title>
<path fill="none" stroke="midnightblue" d="M69,-260.151C69,-251.814 69,-242.848 69,-233.619"/>
<polygon fill="none" stroke="midnightblue" points="65.5001,-260.348 69,-270.348 72.5001,-260.348 65.5001,-260.348"/>
</g>
<!-- Node3 -->
<g id="node3" class="node"><title>Node3</title>
<g id="a_node3"><a xlink:href="../../d4/d04/classmarian_1_1rnn_1_1Stackable.html" target="_top" xlink:title="{marian::rnn::Stackable\n|# options_\l|+ Stackable()\l+ ~Stackable()\l+ as()\l+ is()\l+ getOptions()\l+ opt()\l+ opt()\l+ clear()\l}">
<polygon fill="white" stroke="black" points="11.5,-386.5 11.5,-520.5 126.5,-520.5 126.5,-386.5 11.5,-386.5"/>
<text text-anchor="middle" x="69" y="-508.5" font-family="Helvetica,sans-Serif" font-size="10.00">marian::rnn::Stackable</text>
<polyline fill="none" stroke="black" points="11.5,-501.5 126.5,-501.5 "/>
<text text-anchor="start" x="19.5" y="-489.5" font-family="Helvetica,sans-Serif" font-size="10.00"># options_</text>
<polyline fill="none" stroke="black" points="11.5,-482.5 126.5,-482.5 "/>
<text text-anchor="start" x="19.5" y="-470.5" font-family="Helvetica,sans-Serif" font-size="10.00">+ Stackable()</text>
<text text-anchor="start" x="19.5" y="-459.5" font-family="Helvetica,sans-Serif" font-size="10.00">+ ~Stackable()</text>
<text text-anchor="start" x="19.5" y="-448.5" font-family="Helvetica,sans-Serif" font-size="10.00">+ as()</text>
<text text-anchor="start" x="19.5" y="-437.5" font-family="Helvetica,sans-Serif" font-size="10.00">+ is()</text>
<text text-anchor="start" x="19.5" y="-426.5" font-family="Helvetica,sans-Serif" font-size="10.00">+ getOptions()</text>
<text text-anchor="start" x="19.5" y="-415.5" font-family="Helvetica,sans-Serif" font-size="10.00">+ opt()</text>
<text text-anchor="start" x="19.5" y="-404.5" font-family="Helvetica,sans-Serif" font-size="10.00">+ opt()</text>
<text text-anchor="start" x="19.5" y="-393.5" font-family="Helvetica,sans-Serif" font-size="10.00">+ clear()</text>
</a>
</g>
</g>
<!-- Node3&#45;&gt;Node2 -->
<g id="edge2" class="edge"><title>Node3&#45;&gt;Node2</title>
<path fill="none" stroke="midnightblue" d="M69,-376.03C69,-366.947 69,-357.99 69,-349.763"/>
<polygon fill="none" stroke="midnightblue" points="65.5001,-376.307 69,-386.307 72.5001,-376.307 65.5001,-376.307"/>
</g>
<!-- Node4 -->
<g id="node4" class="node"><title>Node4</title>
<polygon fill="white" stroke="#bfbfbf" points="7,-557.5 7,-625.5 131,-625.5 131,-557.5 7,-557.5"/>
<text text-anchor="start" x="15" y="-613.5" font-family="Helvetica,sans-Serif" font-size="10.00">std::enable_shared</text>
<text text-anchor="middle" x="69" y="-602.5" font-family="Helvetica,sans-Serif" font-size="10.00">_from_this&lt; Stackable &gt;</text>
<polyline fill="none" stroke="#bfbfbf" points="7,-595.5 131,-595.5 "/>
<text text-anchor="middle" x="69" y="-583.5" font-family="Helvetica,sans-Serif" font-size="10.00"> </text>
<polyline fill="none" stroke="#bfbfbf" points="7,-576.5 131,-576.5 "/>
<text text-anchor="middle" x="69" y="-564.5" font-family="Helvetica,sans-Serif" font-size="10.00"> </text>
</g>
<!-- Node4&#45;&gt;Node3 -->
<g id="edge3" class="edge"><title>Node4&#45;&gt;Node3</title>
<path fill="none" stroke="midnightblue" d="M69,-546.956C69,-538.567 69,-529.604 69,-520.683"/>
<polygon fill="none" stroke="midnightblue" points="65.5001,-547.231 69,-557.231 72.5001,-547.231 65.5001,-547.231"/>
</g>
</g>
</svg>
