<?xml version="1.0" encoding="UTF-8" standalone="no"?>
<!DOCTYPE svg PUBLIC "-//W3C//DTD SVG 1.1//EN"
 "http://www.w3.org/Graphics/SVG/1.1/DTD/svg11.dtd">
<!-- Generated by graphviz version 2.38.0 (20140413.2041)
 -->
<!-- Title: cell.h Pages: 1 -->
<!--zoomable 487 -->
<svg id="main" version="1.1" xmlns="http://www.w3.org/2000/svg" xmlns:xlink="http://www.w3.org/1999/xlink" xml:space="preserve" onload="init(evt)">
<style type="text/css"><![CDATA[
.edge:hover path { stroke: red; }
.edge:hover polygon { stroke: red; fill: red; }
]]></style>
<script type="text/javascript"><![CDATA[
var edges = document.getElementsByTagName('g');
if (edges && edges.length) {
  for (var i=0;i<edges.length;i++) {
    if (edges[i].id.substr(0,4)=='edge') {
      edges[i].setAttribute('class','edge');
    }
  }
}
]]></script>
        <defs>
                <circle id="rim" cx="0" cy="0" r="7"/>
                <circle id="rim2" cx="0" cy="0" r="3.5"/>
                <g id="zoomPlus">
                        <use xlink:href="#rim" fill="#404040">
                                <set attributeName="fill" to="#808080" begin="zoomplus.mouseover" end="zoomplus.mouseout"/>
                        </use>
                        <path d="M-4,0h8M0,-4v8" fill="none" stroke="white" stroke-width="1.5" pointer-events="none"/>
                </g>
                <g id="zoomMin">
                        <use xlink:href="#rim" fill="#404040">
                                <set attributeName="fill" to="#808080" begin="zoomminus.mouseover" end="zoomminus.mouseout"/>
                        </use>
                        <path d="M-4,0h8" fill="none" stroke="white" stroke-width="1.5" pointer-events="none"/>
                </g>
                <g id="dirArrow">
                        <path fill="none" stroke="white" stroke-width="1.5" d="M0,-3.0v7 M-2.5,-0.5L0,-3.0L2.5,-0.5"/>
                </g>
               <g id="resetDef">
                       <use xlink:href="#rim2" fill="#404040">
                               <set attributeName="fill" to="#808080" begin="reset.mouseover" end="reset.mouseout"/>
                       </use>
               </g>
        </defs>

<script type="text/javascript">
var viewWidth = 1151;
var viewHeight = 487;
var sectionId = 'dynsection-0';
</script>
<script xlink:href="../../svgpan.js"/>
<svg id="graph" class="graph">
<g id="viewport">
<title>cell.h</title>
<polygon fill="white" stroke="none" points="-4,4 -4,-483 1147,-483 1147,4 -4,4"/>
<!-- Node1 -->
<g id="node1" class="node"><title>Node1</title>
<polygon fill="#bfbfbf" stroke="black" points="766,-459.5 766,-478.5 806,-478.5 806,-459.5 766,-459.5"/>
<text text-anchor="middle" x="786" y="-466.5" font-family="Helvetica,sans-Serif" font-size="10.00">cell.h</text>
</g>
<!-- Node2 -->
<g id="node2" class="node"><title>Node2</title>
<g id="a_node2"><a xlink:href="../../da/dbc/matrix__functions_8h.html" target="_top" xlink:title="gpu/mblas/matrix_functions.h">
<polygon fill="white" stroke="black" points="714.5,-347.5 714.5,-366.5 859.5,-366.5 859.5,-347.5 714.5,-347.5"/>
<text text-anchor="middle" x="787" y="-354.5" font-family="Helvetica,sans-Serif" font-size="10.00">gpu/mblas/matrix_functions.h</text>
</a>
</g>
</g>
<!-- Node1&#45;&gt;Node2 -->
<g id="edge1" class="edge"><title>Node1&#45;&gt;Node2</title>
<path fill="none" stroke="midnightblue" d="M783.104,-459.194C779.354,-446.72 773.57,-423.177 776,-403 777.071,-394.107 779.292,-384.434 781.46,-376.344"/>
<polygon fill="midnightblue" stroke="midnightblue" points="784.887,-377.091 784.27,-366.514 778.156,-375.167 784.887,-377.091"/>
</g>
<!-- Node26 -->
<g id="node26" class="node"><title>Node26</title>
<g id="a_node26"><a xlink:href="../../d0/d23/handles_8h.html" target="_top" xlink:title="handles.h">
<polygon fill="white" stroke="black" points="999.5,-112.5 999.5,-131.5 1058.5,-131.5 1058.5,-112.5 999.5,-112.5"/>
<text text-anchor="middle" x="1029" y="-119.5" font-family="Helvetica,sans-Serif" font-size="10.00">handles.h</text>
</a>
</g>
</g>
<!-- Node1&#45;&gt;Node26 -->
<g id="edge48" class="edge"><title>Node1&#45;&gt;Node26</title>
<path fill="none" stroke="midnightblue" d="M806.209,-464.616C870.64,-453.261 1067,-414.057 1067,-358 1067,-358 1067,-358 1067,-233 1067,-198.813 1050.4,-161.764 1039.14,-140.571"/>
<polygon fill="midnightblue" stroke="midnightblue" points="1042.18,-138.832 1034.28,-131.769 1036.05,-142.215 1042.18,-138.832"/>
</g>
<!-- Node28 -->
<g id="node28" class="node"><title>Node28</title>
<g id="a_node28"><a xlink:href="../../d1/df1/matrix__wrapper_8h.html" target="_top" xlink:title="gpu/mblas/matrix_wrapper.h">
<polygon fill="white" stroke="black" points="414,-224.5 414,-243.5 554,-243.5 554,-224.5 414,-224.5"/>
<text text-anchor="middle" x="484" y="-231.5" font-family="Helvetica,sans-Serif" font-size="10.00">gpu/mblas/matrix_wrapper.h</text>
</a>
</g>
</g>
<!-- Node1&#45;&gt;Node28 -->
<g id="edge47" class="edge"><title>Node1&#45;&gt;Node28</title>
<path fill="none" stroke="midnightblue" d="M765.693,-462.944C721.032,-451.192 612.053,-419.012 534,-367 504.97,-347.655 492.205,-343.29 479,-311 471.436,-292.504 474.545,-269.36 478.362,-253.502"/>
<polygon fill="midnightblue" stroke="midnightblue" points="481.744,-254.402 480.995,-243.833 474.99,-252.562 481.744,-254.402"/>
</g>
<!-- Node32 -->
<g id="node32" class="node"><title>Node32</title>
<g id="a_node32"><a xlink:href="../../d2/d98/cellstate_8h.html" target="_top" xlink:title="cellstate.h">
<polygon fill="white" stroke="black" points="785,-403.5 785,-422.5 847,-422.5 847,-403.5 785,-403.5"/>
<text text-anchor="middle" x="816" y="-410.5" font-family="Helvetica,sans-Serif" font-size="10.00">cellstate.h</text>
</a>
</g>
</g>
<!-- Node1&#45;&gt;Node32 -->
<g id="edge49" class="edge"><title>Node1&#45;&gt;Node32</title>
<path fill="none" stroke="midnightblue" d="M790.954,-459.083C795.104,-451.613 801.153,-440.724 806.267,-431.52"/>
<polygon fill="midnightblue" stroke="midnightblue" points="809.341,-433.192 811.138,-422.751 803.222,-429.793 809.341,-433.192"/>
</g>
<!-- Node3 -->
<g id="node3" class="node"><title>Node3</title>
<polygon fill="white" stroke="#bfbfbf" points="937,-112.5 937,-131.5 981,-131.5 981,-112.5 937,-112.5"/>
<text text-anchor="middle" x="959" y="-119.5" font-family="Helvetica,sans-Serif" font-size="10.00">cmath</text>
</g>
<!-- Node2&#45;&gt;Node3 -->
<g id="edge2" class="edge"><title>Node2&#45;&gt;Node3</title>
<path fill="none" stroke="midnightblue" d="M796.419,-347.396C821.59,-323.979 891.329,-256.276 933,-188 941.993,-173.265 949.01,-154.872 953.476,-141.416"/>
<polygon fill="midnightblue" stroke="midnightblue" points="956.824,-142.437 956.5,-131.847 950.149,-140.328 956.824,-142.437"/>
</g>
<!-- Node4 -->
<g id="node4" class="node"><title>Node4</title>
<polygon fill="white" stroke="#bfbfbf" points="994.5,-56.5 994.5,-75.5 1063.5,-75.5 1063.5,-56.5 994.5,-56.5"/>
<text text-anchor="middle" x="1029" y="-63.5" font-family="Helvetica,sans-Serif" font-size="10.00">cublas_v2.h</text>
</g>
<!-- Node2&#45;&gt;Node4 -->
<g id="edge3" class="edge"><title>Node2&#45;&gt;Node4</title>
<path fill="none" stroke="midnightblue" d="M838.092,-347.47C927.983,-331.002 1105,-291.412 1105,-235 1105,-235 1105,-235 1105,-177 1105,-137.276 1071.04,-101.504 1048.52,-82.1536"/>
<polygon fill="midnightblue" stroke="midnightblue" points="1050.48,-79.2364 1040.54,-75.5672 1046.02,-84.6337 1050.48,-79.2364"/>
</g>
<!-- Node5 -->
<g id="node5" class="node"><title>Node5</title>
<polygon fill="white" stroke="#bfbfbf" points="604.5,-112.5 604.5,-131.5 729.5,-131.5 729.5,-112.5 604.5,-112.5"/>
<text text-anchor="middle" x="667" y="-119.5" font-family="Helvetica,sans-Serif" font-size="10.00">thrust/execution_policy.h</text>
</g>
<!-- Node2&#45;&gt;Node5 -->
<g id="edge4" class="edge"><title>Node2&#45;&gt;Node5</title>
<path fill="none" stroke="midnightblue" d="M782.587,-347.431C765.096,-313.47 700.422,-187.894 676.221,-140.903"/>
<polygon fill="midnightblue" stroke="midnightblue" points="679.272,-139.183 671.582,-131.896 673.049,-142.389 679.272,-139.183"/>
</g>
<!-- Node6 -->
<g id="node6" class="node"><title>Node6</title>
<polygon fill="white" stroke="#bfbfbf" points="747.5,-112.5 747.5,-131.5 842.5,-131.5 842.5,-112.5 747.5,-112.5"/>
<text text-anchor="middle" x="795" y="-119.5" font-family="Helvetica,sans-Serif" font-size="10.00">thrust/functional.h</text>
</g>
<!-- Node2&#45;&gt;Node6 -->
<g id="edge5" class="edge"><title>Node2&#45;&gt;Node6</title>
<path fill="none" stroke="midnightblue" d="M784.383,-347.229C776.702,-320.127 755.753,-235.486 772,-168 774.307,-158.418 779.017,-148.581 783.578,-140.558"/>
<polygon fill="midnightblue" stroke="midnightblue" points="786.692,-142.173 788.895,-131.809 780.711,-138.537 786.692,-142.173"/>
</g>
<!-- Node7 -->
<g id="node7" class="node"><title>Node7</title>
<polygon fill="white" stroke="#bfbfbf" points="656,-0.5 656,-19.5 710,-19.5 710,-0.5 656,-0.5"/>
<text text-anchor="middle" x="683" y="-7.5" font-family="Helvetica,sans-Serif" font-size="10.00">iostream</text>
</g>
<!-- Node2&#45;&gt;Node7 -->
<g id="edge6" class="edge"><title>Node2&#45;&gt;Node7</title>
<path fill="none" stroke="midnightblue" d="M859.75,-352.546C912.736,-347.853 985.217,-336.831 1044,-311 1094.78,-288.684 1143,-290.47 1143,-235 1143,-235 1143,-235 1143,-121 1143,-78.2177 1110.92,-73.7662 1072,-56 1009.8,-27.6059 805.187,-16.0503 720.358,-12.4018"/>
<polygon fill="midnightblue" stroke="midnightblue" points="720.289,-8.896 710.152,-11.9764 719.997,-15.8899 720.289,-8.896"/>
</g>
<!-- Node8 -->
<g id="node8" class="node"><title>Node8</title>
<g id="a_node8"><a xlink:href="../../d0/df7/amun_2gpu_2mblas_2thrust__functions_8h.html" target="_top" xlink:title="gpu/mblas/thrust_functions.h">
<polygon fill="white" stroke="black" points="781.5,-168.5 781.5,-187.5 924.5,-187.5 924.5,-168.5 781.5,-168.5"/>
<text text-anchor="middle" x="853" y="-175.5" font-family="Helvetica,sans-Serif" font-size="10.00">gpu/mblas/thrust_functions.h</text>
</a>
</g>
</g>
<!-- Node2&#45;&gt;Node8 -->
<g id="edge7" class="edge"><title>Node2&#45;&gt;Node8</title>
<path fill="none" stroke="midnightblue" d="M790.183,-347.463C800.308,-320.311 831.928,-235.512 846.058,-197.618"/>
<polygon fill="midnightblue" stroke="midnightblue" points="849.479,-198.461 849.693,-187.868 842.92,-196.015 849.479,-198.461"/>
</g>
<!-- Node10 -->
<g id="node10" class="node"><title>Node10</title>
<g id="a_node10"><a xlink:href="../../dd/df4/matrix_8h.html" target="_top" xlink:title="gpu/mblas/matrix.h">
<polygon fill="white" stroke="black" points="455,-168.5 455,-187.5 555,-187.5 555,-168.5 455,-168.5"/>
<text text-anchor="middle" x="505" y="-175.5" font-family="Helvetica,sans-Serif" font-size="10.00">gpu/mblas/matrix.h</text>
</a>
</g>
</g>
<!-- Node2&#45;&gt;Node10 -->
<g id="edge12" class="edge"><title>Node2&#45;&gt;Node10</title>
<path fill="none" stroke="midnightblue" d="M768.799,-347.417C751.102,-338.854 723.651,-324.992 701,-311 680.956,-298.618 677.391,-293.381 658,-280 611.944,-248.217 556.985,-212.452 527.074,-193.166"/>
<polygon fill="midnightblue" stroke="midnightblue" points="528.936,-190.202 518.633,-187.732 525.147,-196.088 528.936,-190.202"/>
</g>
<!-- Node2&#45;&gt;Node26 -->
<g id="edge44" class="edge"><title>Node2&#45;&gt;Node26</title>
<path fill="none" stroke="midnightblue" d="M804.915,-347.429C820.997,-339.278 844.803,-326.05 863,-311 928.913,-256.486 991.416,-174.933 1016.93,-139.939"/>
<polygon fill="midnightblue" stroke="midnightblue" points="1019.84,-141.882 1022.86,-131.725 1014.17,-137.784 1019.84,-141.882"/>
</g>
<!-- Node2&#45;&gt;Node28 -->
<g id="edge39" class="edge"><title>Node2&#45;&gt;Node28</title>
<path fill="none" stroke="midnightblue" d="M714.213,-350.999C646.516,-345.059 551.762,-333.052 522,-311 503.154,-297.036 493.06,-271.101 488.115,-253.451"/>
<polygon fill="midnightblue" stroke="midnightblue" points="491.5,-252.56 485.67,-243.713 484.711,-254.265 491.5,-252.56"/>
</g>
<!-- Node31 -->
<g id="node31" class="node"><title>Node31</title>
<g id="a_node31"><a xlink:href="../../de/db1/nth__element__kernels_8h.html" target="_top" xlink:title="gpu/mblas/nth_element\l_kernels.h">
<polygon fill="white" stroke="black" points="531,-280.5 531,-310.5 649,-310.5 649,-280.5 531,-280.5"/>
<text text-anchor="start" x="539" y="-298.5" font-family="Helvetica,sans-Serif" font-size="10.00">gpu/mblas/nth_element</text>
<text text-anchor="middle" x="590" y="-287.5" font-family="Helvetica,sans-Serif" font-size="10.00">_kernels.h</text>
</a>
</g>
</g>
<!-- Node2&#45;&gt;Node31 -->
<g id="edge45" class="edge"><title>Node2&#45;&gt;Node31</title>
<path fill="none" stroke="midnightblue" d="M758.775,-347.475C729.476,-338.626 682.867,-324.549 646.046,-313.428"/>
<polygon fill="midnightblue" stroke="midnightblue" points="647.014,-310.064 636.429,-310.523 644.99,-316.765 647.014,-310.064"/>
</g>
<!-- Node8&#45;&gt;Node3 -->
<g id="edge8" class="edge"><title>Node8&#45;&gt;Node3</title>
<path fill="none" stroke="midnightblue" d="M870.031,-168.324C887.03,-159.664 913.376,-146.242 932.993,-136.249"/>
<polygon fill="midnightblue" stroke="midnightblue" points="934.69,-139.312 942.012,-131.655 931.512,-133.075 934.69,-139.312"/>
</g>
<!-- Node8&#45;&gt;Node4 -->
<g id="edge9" class="edge"><title>Node8&#45;&gt;Node4</title>
<path fill="none" stroke="midnightblue" d="M861.545,-168.066C874.796,-154.585 901.541,-128.833 928,-112 949.017,-98.6286 974.679,-87.2506 994.876,-79.2807"/>
<polygon fill="midnightblue" stroke="midnightblue" points="996.234,-82.5084 1004.31,-75.6482 993.718,-75.9762 996.234,-82.5084"/>
</g>
<!-- Node8&#45;&gt;Node6 -->
<g id="edge11" class="edge"><title>Node8&#45;&gt;Node6</title>
<path fill="none" stroke="midnightblue" d="M843.681,-168.324C835.107,-160.341 822.188,-148.313 811.812,-138.653"/>
<polygon fill="midnightblue" stroke="midnightblue" points="814.192,-136.086 804.488,-131.834 809.422,-141.21 814.192,-136.086"/>
</g>
<!-- Node9 -->
<g id="node9" class="node"><title>Node9</title>
<polygon fill="white" stroke="#bfbfbf" points="792.5,-56.5 792.5,-75.5 905.5,-75.5 905.5,-56.5 792.5,-56.5"/>
<text text-anchor="middle" x="849" y="-63.5" font-family="Helvetica,sans-Serif" font-size="10.00">thrust/device_vector.h</text>
</g>
<!-- Node8&#45;&gt;Node9 -->
<g id="edge10" class="edge"><title>Node8&#45;&gt;Node9</title>
<path fill="none" stroke="midnightblue" d="M852.766,-168.167C852.427,-155.662 851.755,-132.082 851,-112 850.676,-103.395 850.261,-93.8677 849.893,-85.8029"/>
<polygon fill="midnightblue" stroke="midnightblue" points="853.381,-85.4514 849.418,-75.6254 846.388,-85.7776 853.381,-85.4514"/>
</g>
<!-- Node10&#45;&gt;Node5 -->
<g id="edge15" class="edge"><title>Node10&#45;&gt;Node5</title>
<path fill="none" stroke="midnightblue" d="M530.669,-168.444C557.923,-159.359 601.184,-144.939 631.651,-134.783"/>
<polygon fill="midnightblue" stroke="midnightblue" points="633.071,-137.999 641.451,-131.516 630.857,-131.358 633.071,-137.999"/>
</g>
<!-- Node10&#45;&gt;Node6 -->
<g id="edge16" class="edge"><title>Node10&#45;&gt;Node6</title>
<path fill="none" stroke="midnightblue" d="M550.951,-168.444C602.071,-158.925 684.654,-143.547 739.383,-133.356"/>
<polygon fill="midnightblue" stroke="midnightblue" points="740.073,-136.788 749.264,-131.516 738.792,-129.906 740.073,-136.788"/>
</g>
<!-- Node11 -->
<g id="node11" class="node"><title>Node11</title>
<polygon fill="white" stroke="#bfbfbf" points="158,-56.5 158,-75.5 210,-75.5 210,-56.5 158,-56.5"/>
<text text-anchor="middle" x="184" y="-63.5" font-family="Helvetica,sans-Serif" font-size="10.00">memory</text>
</g>
<!-- Node10&#45;&gt;Node11 -->
<g id="edge13" class="edge"><title>Node10&#45;&gt;Node11</title>
<path fill="none" stroke="midnightblue" d="M454.734,-168.593C415.441,-161.221 359.82,-149.01 313,-132 274.334,-117.952 232.252,-95.2178 207.009,-80.6978"/>
<polygon fill="midnightblue" stroke="midnightblue" points="208.605,-77.5766 198.201,-75.5702 205.083,-83.6261 208.605,-77.5766"/>
</g>
<!-- Node12 -->
<g id="node12" class="node"><title>Node12</title>
<polygon fill="white" stroke="#bfbfbf" points="288,-56.5 288,-75.5 340,-75.5 340,-56.5 288,-56.5"/>
<text text-anchor="middle" x="314" y="-63.5" font-family="Helvetica,sans-Serif" font-size="10.00">sstream</text>
</g>
<!-- Node10&#45;&gt;Node12 -->
<g id="edge14" class="edge"><title>Node10&#45;&gt;Node12</title>
<path fill="none" stroke="midnightblue" d="M460.955,-168.411C411.323,-158.342 336.308,-141.788 327,-132 315.486,-119.892 312.85,-100.611 312.726,-86.1875"/>
<polygon fill="midnightblue" stroke="midnightblue" points="316.234,-85.9945 313.044,-75.8914 309.237,-85.7788 316.234,-85.9945"/>
</g>
<!-- Node13 -->
<g id="node13" class="node"><title>Node13</title>
<g id="a_node13"><a xlink:href="../../dd/d2d/exception_8h.html" target="_top" xlink:title="common/exception.h">
<polygon fill="white" stroke="black" points="336.5,-112.5 336.5,-131.5 443.5,-131.5 443.5,-112.5 336.5,-112.5"/>
<text text-anchor="middle" x="390" y="-119.5" font-family="Helvetica,sans-Serif" font-size="10.00">common/exception.h</text>
</a>
</g>
</g>
<!-- Node10&#45;&gt;Node13 -->
<g id="edge17" class="edge"><title>Node10&#45;&gt;Node13</title>
<path fill="none" stroke="midnightblue" d="M486.778,-168.444C468.104,-159.675 438.844,-145.935 417.383,-135.858"/>
<polygon fill="midnightblue" stroke="midnightblue" points="418.676,-132.599 408.137,-131.516 415.701,-138.935 418.676,-132.599"/>
</g>
<!-- Node18 -->
<g id="node18" class="node"><title>Node18</title>
<g id="a_node18"><a xlink:href="../../d3/d75/base__matrix_8h.html" target="_top" xlink:title="common/base_matrix.h">
<polygon fill="white" stroke="black" points="122.5,-112.5 122.5,-131.5 241.5,-131.5 241.5,-112.5 122.5,-112.5"/>
<text text-anchor="middle" x="182" y="-119.5" font-family="Helvetica,sans-Serif" font-size="10.00">common/base_matrix.h</text>
</a>
</g>
</g>
<!-- Node10&#45;&gt;Node18 -->
<g id="edge23" class="edge"><title>Node10&#45;&gt;Node18</title>
<path fill="none" stroke="midnightblue" d="M454.886,-168.622C397.732,-159.067 304.291,-143.445 242.964,-133.192"/>
<polygon fill="midnightblue" stroke="midnightblue" points="243.473,-129.729 233.032,-131.532 242.318,-136.633 243.473,-129.729"/>
</g>
<!-- Node23 -->
<g id="node23" class="node"><title>Node23</title>
<g id="a_node23"><a xlink:href="../../d3/d18/types-gpu_8h.html" target="_top" xlink:title="gpu/types&#45;gpu.h">
<polygon fill="white" stroke="black" points="462,-112.5 462,-131.5 548,-131.5 548,-112.5 462,-112.5"/>
<text text-anchor="middle" x="505" y="-119.5" font-family="Helvetica,sans-Serif" font-size="10.00">gpu/types&#45;gpu.h</text>
</a>
</g>
</g>
<!-- Node10&#45;&gt;Node23 -->
<g id="edge32" class="edge"><title>Node10&#45;&gt;Node23</title>
<path fill="none" stroke="midnightblue" d="M505,-168.083C505,-161.006 505,-150.861 505,-141.986"/>
<polygon fill="midnightblue" stroke="midnightblue" points="508.5,-141.751 505,-131.751 501.5,-141.751 508.5,-141.751"/>
</g>
<!-- Node10&#45;&gt;Node26 -->
<g id="edge36" class="edge"><title>Node10&#45;&gt;Node26</title>
<path fill="none" stroke="midnightblue" d="M555.2,-174.569C641.741,-169.893 824.713,-157.882 988.979,-131.941"/>
<polygon fill="midnightblue" stroke="midnightblue" points="989.95,-135.331 999.271,-130.294 988.843,-128.419 989.95,-135.331"/>
</g>
<!-- Node13&#45;&gt;Node12 -->
<g id="edge18" class="edge"><title>Node13&#45;&gt;Node12</title>
<path fill="none" stroke="midnightblue" d="M377.789,-112.324C366.224,-104.107 348.625,-91.6017 334.839,-81.8069"/>
<polygon fill="midnightblue" stroke="midnightblue" points="336.612,-78.7729 326.433,-75.8339 332.557,-84.4791 336.612,-78.7729"/>
</g>
<!-- Node14 -->
<g id="node14" class="node"><title>Node14</title>
<polygon fill="white" stroke="#bfbfbf" points="358.5,-56.5 358.5,-75.5 417.5,-75.5 417.5,-56.5 358.5,-56.5"/>
<text text-anchor="middle" x="388" y="-63.5" font-family="Helvetica,sans-Serif" font-size="10.00">exception</text>
</g>
<!-- Node13&#45;&gt;Node14 -->
<g id="edge19" class="edge"><title>Node13&#45;&gt;Node14</title>
<path fill="none" stroke="midnightblue" d="M389.67,-112.083C389.408,-105.006 389.032,-94.8611 388.703,-85.9865"/>
<polygon fill="midnightblue" stroke="midnightblue" points="392.192,-85.6147 388.324,-75.7511 385.197,-85.8738 392.192,-85.6147"/>
</g>
<!-- Node15 -->
<g id="node15" class="node"><title>Node15</title>
<polygon fill="white" stroke="#bfbfbf" points="436,-56.5 436,-75.5 476,-75.5 476,-56.5 436,-56.5"/>
<text text-anchor="middle" x="456" y="-63.5" font-family="Helvetica,sans-Serif" font-size="10.00">limits</text>
</g>
<!-- Node13&#45;&gt;Node15 -->
<g id="edge20" class="edge"><title>Node13&#45;&gt;Node15</title>
<path fill="none" stroke="midnightblue" d="M400.604,-112.324C410.456,-104.263 425.351,-92.0765 437.215,-82.3695"/>
<polygon fill="midnightblue" stroke="midnightblue" points="439.68,-84.8752 445.203,-75.8339 435.247,-79.4575 439.68,-84.8752"/>
</g>
<!-- Node16 -->
<g id="node16" class="node"><title>Node16</title>
<polygon fill="white" stroke="#bfbfbf" points="228.5,-56.5 228.5,-75.5 269.5,-75.5 269.5,-56.5 228.5,-56.5"/>
<text text-anchor="middle" x="249" y="-63.5" font-family="Helvetica,sans-Serif" font-size="10.00">string</text>
</g>
<!-- Node13&#45;&gt;Node16 -->
<g id="edge21" class="edge"><title>Node13&#45;&gt;Node16</title>
<path fill="none" stroke="midnightblue" d="M367.658,-112.444C343.834,-103.319 305.955,-88.8125 279.42,-78.6501"/>
<polygon fill="midnightblue" stroke="midnightblue" points="280.449,-75.2963 269.858,-74.9883 277.945,-81.8333 280.449,-75.2963"/>
</g>
<!-- Node17 -->
<g id="node17" class="node"><title>Node17</title>
<polygon fill="white" stroke="#bfbfbf" points="494.5,-56.5 494.5,-75.5 543.5,-75.5 543.5,-56.5 494.5,-56.5"/>
<text text-anchor="middle" x="519" y="-63.5" font-family="Helvetica,sans-Serif" font-size="10.00">stdint.h</text>
</g>
<!-- Node13&#45;&gt;Node17 -->
<g id="edge22" class="edge"><title>Node13&#45;&gt;Node17</title>
<path fill="none" stroke="midnightblue" d="M410.44,-112.444C431.67,-103.557 465.099,-89.5632 489.255,-79.4514"/>
<polygon fill="midnightblue" stroke="midnightblue" points="490.782,-82.6064 498.655,-75.5164 488.079,-76.1493 490.782,-82.6064"/>
</g>
<!-- Node18&#45;&gt;Node11 -->
<g id="edge26" class="edge"><title>Node18&#45;&gt;Node11</title>
<path fill="none" stroke="midnightblue" d="M182.33,-112.083C182.592,-105.006 182.968,-94.8611 183.297,-85.9865"/>
<polygon fill="midnightblue" stroke="midnightblue" points="186.803,-85.8738 183.676,-75.7511 179.808,-85.6147 186.803,-85.8738"/>
</g>
<!-- Node18&#45;&gt;Node16 -->
<g id="edge24" class="edge"><title>Node18&#45;&gt;Node16</title>
<path fill="none" stroke="midnightblue" d="M192.765,-112.324C202.766,-104.263 217.887,-92.0765 229.93,-82.3695"/>
<polygon fill="midnightblue" stroke="midnightblue" points="232.45,-84.8343 238.039,-75.8339 228.057,-79.3841 232.45,-84.8343"/>
</g>
<!-- Node19 -->
<g id="node19" class="node"><title>Node19</title>
<polygon fill="white" stroke="#bfbfbf" points="5,-0.5 5,-19.5 49,-19.5 49,-0.5 5,-0.5"/>
<text text-anchor="middle" x="27" y="-7.5" font-family="Helvetica,sans-Serif" font-size="10.00">vector</text>
</g>
<!-- Node18&#45;&gt;Node19 -->
<g id="edge25" class="edge"><title>Node18&#45;&gt;Node19</title>
<path fill="none" stroke="midnightblue" d="M140.078,-112.479C103.566,-104.219 54.4269,-90.7937 41,-76 29.7362,-63.5897 26.7457,-44.3491 26.2671,-30.0174"/>
<polygon fill="midnightblue" stroke="midnightblue" points="29.7679,-29.8156 26.3118,-19.8003 22.768,-29.7849 29.7679,-29.8156"/>
</g>
<!-- Node20 -->
<g id="node20" class="node"><title>Node20</title>
<g id="a_node20"><a xlink:href="../../dc/de7/amun_2common_2types_8h.html" target="_top" xlink:title="common/types.h">
<polygon fill="white" stroke="black" points="50.5,-56.5 50.5,-75.5 139.5,-75.5 139.5,-56.5 50.5,-56.5"/>
<text text-anchor="middle" x="95" y="-63.5" font-family="Helvetica,sans-Serif" font-size="10.00">common/types.h</text>
</a>
</g>
</g>
<!-- Node18&#45;&gt;Node20 -->
<g id="edge27" class="edge"><title>Node18&#45;&gt;Node20</title>
<path fill="none" stroke="midnightblue" d="M168.022,-112.324C154.45,-103.9 133.62,-90.9709 117.675,-81.0741"/>
<polygon fill="midnightblue" stroke="midnightblue" points="119.286,-77.9544 108.943,-75.6545 115.594,-83.9019 119.286,-77.9544"/>
</g>
<!-- Node20&#45;&gt;Node7 -->
<g id="edge31" class="edge"><title>Node20&#45;&gt;Node7</title>
<path fill="none" stroke="midnightblue" d="M139.748,-57.255C142.875,-56.8021 145.982,-56.378 149,-56 334.879,-32.717 558.708,-18.2212 645.798,-13.0934"/>
<polygon fill="midnightblue" stroke="midnightblue" points="646.19,-16.5766 655.969,-12.5007 645.783,-9.58846 646.19,-16.5766"/>
</g>
<!-- Node20&#45;&gt;Node19 -->
<g id="edge30" class="edge"><title>Node20&#45;&gt;Node19</title>
<path fill="none" stroke="midnightblue" d="M84.0746,-56.324C73.8254,-48.1849 58.2794,-35.8395 45.999,-26.0874"/>
<polygon fill="midnightblue" stroke="midnightblue" points="48.1319,-23.3119 38.1242,-19.8339 43.7787,-28.7937 48.1319,-23.3119"/>
</g>
<!-- Node21 -->
<g id="node21" class="node"><title>Node21</title>
<polygon fill="white" stroke="#bfbfbf" points="69.5,-0.5 69.5,-19.5 114.5,-19.5 114.5,-0.5 69.5,-0.5"/>
<text text-anchor="middle" x="92" y="-7.5" font-family="Helvetica,sans-Serif" font-size="10.00">cstdlib</text>
</g>
<!-- Node20&#45;&gt;Node21 -->
<g id="edge28" class="edge"><title>Node20&#45;&gt;Node21</title>
<path fill="none" stroke="midnightblue" d="M94.5046,-56.083C94.1114,-49.0059 93.5478,-38.8611 93.0548,-29.9865"/>
<polygon fill="midnightblue" stroke="midnightblue" points="96.5356,-29.5415 92.4862,-19.7511 89.5464,-29.9299 96.5356,-29.5415"/>
</g>
<!-- Node22 -->
<g id="node22" class="node"><title>Node22</title>
<polygon fill="white" stroke="#bfbfbf" points="133,-0.5 133,-19.5 179,-19.5 179,-0.5 133,-0.5"/>
<text text-anchor="middle" x="156" y="-7.5" font-family="Helvetica,sans-Serif" font-size="10.00">cstdint</text>
</g>
<!-- Node20&#45;&gt;Node22 -->
<g id="edge29" class="edge"><title>Node20&#45;&gt;Node22</title>
<path fill="none" stroke="midnightblue" d="M104.801,-56.324C113.818,-48.3414 127.406,-36.3128 138.318,-26.6529"/>
<polygon fill="midnightblue" stroke="midnightblue" points="140.853,-29.083 146.021,-19.8339 136.213,-23.8416 140.853,-29.083"/>
</g>
<!-- Node23&#45;&gt;Node9 -->
<g id="edge34" class="edge"><title>Node23&#45;&gt;Node9</title>
<path fill="none" stroke="midnightblue" d="M548.259,-114.165C552.897,-113.433 557.546,-112.701 562,-112 638.375,-99.9828 726.193,-86.2217 784.363,-77.1144"/>
<polygon fill="midnightblue" stroke="midnightblue" points="785.173,-80.5303 794.511,-75.5257 784.09,-73.6146 785.173,-80.5303"/>
</g>
<!-- Node24 -->
<g id="node24" class="node"><title>Node24</title>
<polygon fill="white" stroke="#bfbfbf" points="561.5,-56.5 561.5,-75.5 644.5,-75.5 644.5,-56.5 561.5,-56.5"/>
<text text-anchor="middle" x="603" y="-63.5" font-family="Helvetica,sans-Serif" font-size="10.00">unordered_map</text>
</g>
<!-- Node23&#45;&gt;Node24 -->
<g id="edge33" class="edge"><title>Node23&#45;&gt;Node24</title>
<path fill="none" stroke="midnightblue" d="M520.745,-112.324C536.319,-103.743 560.377,-90.486 578.459,-80.5224"/>
<polygon fill="midnightblue" stroke="midnightblue" points="580.224,-83.546 587.294,-75.6545 576.846,-77.4152 580.224,-83.546"/>
</g>
<!-- Node25 -->
<g id="node25" class="node"><title>Node25</title>
<polygon fill="white" stroke="#bfbfbf" points="662.5,-56.5 662.5,-75.5 771.5,-75.5 771.5,-56.5 662.5,-56.5"/>
<text text-anchor="middle" x="717" y="-63.5" font-family="Helvetica,sans-Serif" font-size="10.00">boost/timer/timer.hpp</text>
</g>
<!-- Node23&#45;&gt;Node25 -->
<g id="edge35" class="edge"><title>Node23&#45;&gt;Node25</title>
<path fill="none" stroke="midnightblue" d="M538.592,-112.444C575.187,-103.122 633.838,-88.1828 673.826,-77.9972"/>
<polygon fill="midnightblue" stroke="midnightblue" points="674.739,-81.3766 683.565,-75.5164 673.011,-74.5932 674.739,-81.3766"/>
</g>
<!-- Node26&#45;&gt;Node4 -->
<g id="edge38" class="edge"><title>Node26&#45;&gt;Node4</title>
<path fill="none" stroke="midnightblue" d="M1029,-112.083C1029,-105.006 1029,-94.8611 1029,-85.9865"/>
<polygon fill="midnightblue" stroke="midnightblue" points="1032.5,-85.751 1029,-75.7511 1025.5,-85.7511 1032.5,-85.751"/>
</g>
<!-- Node27 -->
<g id="node27" class="node"><title>Node27</title>
<polygon fill="white" stroke="#bfbfbf" points="928,-56.5 928,-75.5 974,-75.5 974,-56.5 928,-56.5"/>
<text text-anchor="middle" x="951" y="-63.5" font-family="Helvetica,sans-Serif" font-size="10.00">cuda.h</text>
</g>
<!-- Node26&#45;&gt;Node27 -->
<g id="edge37" class="edge"><title>Node26&#45;&gt;Node27</title>
<path fill="none" stroke="midnightblue" d="M1016.47,-112.324C1004.41,-103.979 985.973,-91.2122 971.731,-81.3524"/>
<polygon fill="midnightblue" stroke="midnightblue" points="973.715,-78.469 963.501,-75.6545 969.731,-84.2243 973.715,-78.469"/>
</g>
<!-- Node28&#45;&gt;Node10 -->
<g id="edge40" class="edge"><title>Node28&#45;&gt;Node10</title>
<path fill="none" stroke="midnightblue" d="M487.468,-224.083C490.312,-216.77 494.429,-206.181 497.96,-197.103"/>
<polygon fill="midnightblue" stroke="midnightblue" points="501.234,-198.34 501.597,-187.751 494.71,-195.803 501.234,-198.34"/>
</g>
<!-- Node29 -->
<g id="node29" class="node"><title>Node29</title>
<g id="a_node29"><a xlink:href="../../db/d63/array_8h.html" target="_top" xlink:title="gpu/mblas/array.h">
<polygon fill="white" stroke="black" points="341.5,-168.5 341.5,-187.5 436.5,-187.5 436.5,-168.5 341.5,-168.5"/>
<text text-anchor="middle" x="389" y="-175.5" font-family="Helvetica,sans-Serif" font-size="10.00">gpu/mblas/array.h</text>
</a>
</g>
</g>
<!-- Node28&#45;&gt;Node29 -->
<g id="edge41" class="edge"><title>Node28&#45;&gt;Node29</title>
<path fill="none" stroke="midnightblue" d="M468.737,-224.324C453.779,-215.822 430.745,-202.729 413.273,-192.797"/>
<polygon fill="midnightblue" stroke="midnightblue" points="414.649,-189.553 404.226,-187.655 411.19,-195.639 414.649,-189.553"/>
</g>
<!-- Node29&#45;&gt;Node27 -->
<g id="edge42" class="edge"><title>Node29&#45;&gt;Node27</title>
<path fill="none" stroke="midnightblue" d="M431.254,-168.428C465.738,-160.784 515.386,-148.289 557,-132 574.772,-125.043 576.758,-117.611 595,-112 731.371,-70.0502 773.514,-100.911 914,-76 915.245,-75.7793 916.51,-75.5413 917.786,-75.2898"/>
<polygon fill="midnightblue" stroke="midnightblue" points="918.574,-78.7004 927.606,-73.1625 917.092,-71.8591 918.574,-78.7004"/>
</g>
<!-- Node30 -->
<g id="node30" class="node"><title>Node30</title>
<polygon fill="white" stroke="#bfbfbf" points="0,-112.5 0,-131.5 104,-131.5 104,-112.5 0,-112.5"/>
<text text-anchor="middle" x="52" y="-119.5" font-family="Helvetica,sans-Serif" font-size="10.00">thrust/host_vector.h</text>
</g>
<!-- Node29&#45;&gt;Node30 -->
<g id="edge43" class="edge"><title>Node29&#45;&gt;Node30</title>
<path fill="none" stroke="midnightblue" d="M341.431,-169.378C281.929,-159.843 179.903,-143.495 114.243,-132.974"/>
<polygon fill="midnightblue" stroke="midnightblue" points="114.457,-129.463 104.029,-131.337 113.349,-136.375 114.457,-129.463"/>
</g>
<!-- Node31&#45;&gt;Node28 -->
<g id="edge46" class="edge"><title>Node31&#45;&gt;Node28</title>
<path fill="none" stroke="midnightblue" d="M564.879,-280.399C547.73,-270.773 525.135,-258.09 508.188,-248.577"/>
<polygon fill="midnightblue" stroke="midnightblue" points="509.857,-245.501 499.424,-243.658 506.431,-251.605 509.857,-245.501"/>
</g>
<!-- Node32&#45;&gt;Node2 -->
<g id="edge50" class="edge"><title>Node32&#45;&gt;Node2</title>
<path fill="none" stroke="midnightblue" d="M811.211,-403.083C807.242,-395.691 801.475,-384.953 796.565,-375.811"/>
<polygon fill="midnightblue" stroke="midnightblue" points="799.514,-373.905 791.7,-366.751 793.347,-377.217 799.514,-373.905"/>
</g>
<!-- Node32&#45;&gt;Node26 -->
<g id="edge52" class="edge"><title>Node32&#45;&gt;Node26</title>
<path fill="none" stroke="midnightblue" d="M847.429,-409.318C906.678,-402.358 1029,-378.108 1029,-296.5 1029,-296.5 1029,-296.5 1029,-233 1029,-200.948 1029,-163.643 1029,-141.749"/>
<polygon fill="midnightblue" stroke="midnightblue" points="1032.5,-141.558 1029,-131.558 1025.5,-141.558 1032.5,-141.558"/>
</g>
<!-- Node32&#45;&gt;Node28 -->
<g id="edge51" class="edge"><title>Node32&#45;&gt;Node28</title>
<path fill="none" stroke="midnightblue" d="M784.591,-412.348C719.462,-411.219 569.571,-398.667 495,-311 481.665,-295.323 480.413,-270.917 481.52,-254.01"/>
<polygon fill="midnightblue" stroke="midnightblue" points="485.038,-254 482.544,-243.702 478.072,-253.307 485.038,-254"/>
</g>
</g>
</svg>
        <g id="navigator" transform="translate(0 0)" fill="#404254">
                <rect fill="#f2f5e9" fill-opacity="0.5" stroke="#606060" stroke-width=".5" x="0" y="0" width="60" height="60"/>
                <use id="zoomplus" xlink:href="#zoomPlus" x="17" y="9" onmousedown="handleZoom(evt,'in')"/>
                <use id="zoomminus" xlink:href="#zoomMin" x="42" y="9" onmousedown="handleZoom(evt,'out')"/>
                <use id="reset" xlink:href="#resetDef" x="30" y="36" onmousedown="handleReset()"/>
                <g id="arrowUp" xlink:href="#dirArrow" transform="translate(30 24)" onmousedown="handlePan(0,-1)">
                  <use xlink:href="#rim" fill="#404040">
                        <set attributeName="fill" to="#808080" begin="arrowUp.mouseover" end="arrowUp.mouseout"/>
                  </use>
                  <path fill="none" stroke="white" stroke-width="1.5" d="M0,-3.0v7 M-2.5,-0.5L0,-3.0L2.5,-0.5"/>
                </g>
                <g id="arrowRight" xlink:href="#dirArrow" transform="rotate(90) translate(36 -43)" onmousedown="handlePan(1,0)">
                  <use xlink:href="#rim" fill="#404040">
                        <set attributeName="fill" to="#808080" begin="arrowRight.mouseover" end="arrowRight.mouseout"/>
                  </use>
                  <path fill="none" stroke="white" stroke-width="1.5" d="M0,-3.0v7 M-2.5,-0.5L0,-3.0L2.5,-0.5"/>
                </g>
                <g id="arrowDown" xlink:href="#dirArrow" transform="rotate(180) translate(-30 -48)" onmousedown="handlePan(0,1)">
                  <use xlink:href="#rim" fill="#404040">
                        <set attributeName="fill" to="#808080" begin="arrowDown.mouseover" end="arrowDown.mouseout"/>
                  </use>
                  <path fill="none" stroke="white" stroke-width="1.5" d="M0,-3.0v7 M-2.5,-0.5L0,-3.0L2.5,-0.5"/>
                </g>
                <g id="arrowLeft" xlink:href="#dirArrow" transform="rotate(270) translate(-36 17)" onmousedown="handlePan(-1,0)">
                  <use xlink:href="#rim" fill="#404040">
                        <set attributeName="fill" to="#808080" begin="arrowLeft.mouseover" end="arrowLeft.mouseout"/>
                  </use>
                  <path fill="none" stroke="white" stroke-width="1.5" d="M0,-3.0v7 M-2.5,-0.5L0,-3.0L2.5,-0.5"/>
                </g>
        </g>
        <svg viewBox="0 0 15 15" width="100%" height="30px" preserveAspectRatio="xMaxYMin meet">
         <g id="arrow_out" transform="scale(0.3 0.3)">
          <a xlink:href="cell_8h__incl_org.svg" target="_base">
           <rect id="button" ry="5" rx="5" y="6" x="6" height="38" width="38"
                fill="#f2f5e9" fill-opacity="0.5" stroke="#606060" stroke-width="1.0"/>
           <path id="arrow"
             d="M 11.500037,31.436501 C 11.940474,20.09759 22.043105,11.32322 32.158766,21.979434 L 37.068811,17.246167 C 37.068811,17.246167 37.088388,32 37.088388,32 L 22.160133,31.978069 C 22.160133,31.978069 26.997745,27.140456 26.997745,27.140456 C 18.528582,18.264221 13.291696,25.230495 11.500037,31.436501 z"
             style="fill:#404040;"/>
          </a>
         </g>
        </svg>
</svg>
