<?xml version="1.0" encoding="UTF-8" standalone="no"?>
<!DOCTYPE svg PUBLIC "-//W3C//DTD SVG 1.1//EN"
 "http://www.w3.org/Graphics/SVG/1.1/DTD/svg11.dtd">
<!-- Generated by graphviz version 2.38.0 (20140413.2041)
 -->
<!-- Title: param_initializers.h Pages: 1 -->
<!--zoomable 252 -->
<svg id="main" version="1.1" xmlns="http://www.w3.org/2000/svg" xmlns:xlink="http://www.w3.org/1999/xlink" xml:space="preserve" onload="init(evt)">
<style type="text/css"><![CDATA[
.edge:hover path { stroke: red; }
.edge:hover polygon { stroke: red; fill: red; }
]]></style>
<script type="text/javascript"><![CDATA[
var edges = document.getElementsByTagName('g');
if (edges && edges.length) {
  for (var i=0;i<edges.length;i++) {
    if (edges[i].id.substr(0,4)=='edge') {
      edges[i].setAttribute('class','edge');
    }
  }
}
]]></script>
        <defs>
                <circle id="rim" cx="0" cy="0" r="7"/>
                <circle id="rim2" cx="0" cy="0" r="3.5"/>
                <g id="zoomPlus">
                        <use xlink:href="#rim" fill="#404040">
                                <set attributeName="fill" to="#808080" begin="zoomplus.mouseover" end="zoomplus.mouseout"/>
                        </use>
                        <path d="M-4,0h8M0,-4v8" fill="none" stroke="white" stroke-width="1.5" pointer-events="none"/>
                </g>
                <g id="zoomMin">
                        <use xlink:href="#rim" fill="#404040">
                                <set attributeName="fill" to="#808080" begin="zoomminus.mouseover" end="zoomminus.mouseout"/>
                        </use>
                        <path d="M-4,0h8" fill="none" stroke="white" stroke-width="1.5" pointer-events="none"/>
                </g>
                <g id="dirArrow">
                        <path fill="none" stroke="white" stroke-width="1.5" d="M0,-3.0v7 M-2.5,-0.5L0,-3.0L2.5,-0.5"/>
                </g>
               <g id="resetDef">
                       <use xlink:href="#rim2" fill="#404040">
                               <set attributeName="fill" to="#808080" begin="reset.mouseover" end="reset.mouseout"/>
                       </use>
               </g>
        </defs>

<script type="text/javascript">
var viewWidth = 857;
var viewHeight = 252;
var sectionId = 'dynsection-0';
</script>
<script xlink:href="../../svgpan.js"/>
<svg id="graph" class="graph">
<g id="viewport">
<title>param_initializers.h</title>
<polygon fill="white" stroke="none" points="-4,4 -4,-248 852.775,-248 852.775,4 -4,4"/>
<!-- Node1 -->
<g id="node1" class="node"><title>Node1</title>
<polygon fill="#bfbfbf" stroke="black" points="515.5,-224.5 515.5,-243.5 616.5,-243.5 616.5,-224.5 515.5,-224.5"/>
<text text-anchor="middle" x="566" y="-231.5" font-family="Helvetica,sans-Serif" font-size="10.00">param_initializers.h</text>
</g>
<!-- Node2 -->
<g id="node2" class="node"><title>Node2</title>
<polygon fill="white" stroke="#bfbfbf" points="30.5,-56.5 30.5,-75.5 89.5,-75.5 89.5,-56.5 30.5,-56.5"/>
<text text-anchor="middle" x="60" y="-63.5" font-family="Helvetica,sans-Serif" font-size="10.00">functional</text>
</g>
<!-- Node1&#45;&gt;Node2 -->
<g id="edge1" class="edge"><title>Node1&#45;&gt;Node2</title>
<path fill="none" stroke="midnightblue" d="M533.944,-224.39C473.454,-207.937 338.532,-170.249 227,-132 178.46,-115.354 123.145,-93.1755 89.9338,-79.5037"/>
<polygon fill="midnightblue" stroke="midnightblue" points="90.9473,-76.1354 80.3686,-75.5493 88.2729,-82.6044 90.9473,-76.1354"/>
</g>
<!-- Node3 -->
<g id="node3" class="node"><title>Node3</title>
<polygon fill="white" stroke="#bfbfbf" points="541.5,-168.5 541.5,-187.5 590.5,-187.5 590.5,-168.5 541.5,-168.5"/>
<text text-anchor="middle" x="566" y="-175.5" font-family="Helvetica,sans-Serif" font-size="10.00">random</text>
</g>
<!-- Node1&#45;&gt;Node3 -->
<g id="edge2" class="edge"><title>Node1&#45;&gt;Node3</title>
<path fill="none" stroke="midnightblue" d="M566,-224.083C566,-217.006 566,-206.861 566,-197.986"/>
<polygon fill="midnightblue" stroke="midnightblue" points="569.5,-197.751 566,-187.751 562.5,-197.751 569.5,-197.751"/>
</g>
<!-- Node4 -->
<g id="node4" class="node"><title>Node4</title>
<polygon fill="white" stroke="#bfbfbf" points="609,-168.5 609,-187.5 679,-187.5 679,-168.5 609,-168.5"/>
<text text-anchor="middle" x="644" y="-175.5" font-family="Helvetica,sans-Serif" font-size="10.00">cnpy/cnpy.h</text>
</g>
<!-- Node1&#45;&gt;Node4 -->
<g id="edge3" class="edge"><title>Node1&#45;&gt;Node4</title>
<path fill="none" stroke="midnightblue" d="M578.532,-224.324C590.586,-215.979 609.027,-203.212 623.269,-193.352"/>
<polygon fill="midnightblue" stroke="midnightblue" points="625.269,-196.224 631.499,-187.655 621.285,-190.469 625.269,-196.224"/>
</g>
<!-- Node5 -->
<g id="node5" class="node"><title>Node5</title>
<polygon fill="white" stroke="#bfbfbf" points="697,-168.5 697,-187.5 789,-187.5 789,-168.5 697,-168.5"/>
<text text-anchor="middle" x="743" y="-175.5" font-family="Helvetica,sans-Serif" font-size="10.00">common/config.h</text>
</g>
<!-- Node1&#45;&gt;Node5 -->
<g id="edge4" class="edge"><title>Node1&#45;&gt;Node5</title>
<path fill="none" stroke="midnightblue" d="M594.046,-224.444C624.082,-215.28 671.913,-200.688 705.243,-190.519"/>
<polygon fill="midnightblue" stroke="midnightblue" points="706.542,-193.782 715.085,-187.516 704.499,-187.087 706.542,-193.782"/>
</g>
<!-- Node6 -->
<g id="node6" class="node"><title>Node6</title>
<g id="a_node6"><a xlink:href="../../d2/d3d/tensor_8h.html" target="_top" xlink:title="tensors/tensor.h">
<polygon fill="white" stroke="black" points="436.5,-168.5 436.5,-187.5 523.5,-187.5 523.5,-168.5 436.5,-168.5"/>
<text text-anchor="middle" x="480" y="-175.5" font-family="Helvetica,sans-Serif" font-size="10.00">tensors/tensor.h</text>
</a>
</g>
</g>
<!-- Node1&#45;&gt;Node6 -->
<g id="edge5" class="edge"><title>Node1&#45;&gt;Node6</title>
<path fill="none" stroke="midnightblue" d="M552.183,-224.324C538.767,-215.9 518.176,-202.971 502.414,-193.074"/>
<polygon fill="midnightblue" stroke="midnightblue" points="504.113,-190.008 493.783,-187.655 500.391,-195.936 504.113,-190.008"/>
</g>
<!-- Node7 -->
<g id="node7" class="node"><title>Node7</title>
<polygon fill="white" stroke="#bfbfbf" points="364,-112.5 364,-131.5 414,-131.5 414,-112.5 364,-112.5"/>
<text text-anchor="middle" x="389" y="-119.5" font-family="Helvetica,sans-Serif" font-size="10.00">iomanip</text>
</g>
<!-- Node6&#45;&gt;Node7 -->
<g id="edge6" class="edge"><title>Node6&#45;&gt;Node7</title>
<path fill="none" stroke="midnightblue" d="M465.379,-168.324C451.051,-159.822 428.987,-146.729 412.251,-136.797"/>
<polygon fill="midnightblue" stroke="midnightblue" points="413.97,-133.748 403.584,-131.655 410.398,-139.768 413.97,-133.748"/>
</g>
<!-- Node8 -->
<g id="node8" class="node"><title>Node8</title>
<polygon fill="white" stroke="#bfbfbf" points="692,-0.5 692,-19.5 746,-19.5 746,-0.5 692,-0.5"/>
<text text-anchor="middle" x="719" y="-7.5" font-family="Helvetica,sans-Serif" font-size="10.00">iostream</text>
</g>
<!-- Node6&#45;&gt;Node8 -->
<g id="edge7" class="edge"><title>Node6&#45;&gt;Node8</title>
<path fill="none" stroke="midnightblue" d="M523.665,-169.264C526.483,-168.82 529.28,-168.395 532,-168 599.978,-158.139 793.345,-183.321 839,-132 875.625,-90.829 795.438,-45.5174 749.025,-23.883"/>
<polygon fill="midnightblue" stroke="midnightblue" points="750.24,-20.5904 739.688,-19.6358 747.342,-26.9622 750.24,-20.5904"/>
</g>
<!-- Node9 -->
<g id="node9" class="node"><title>Node9</title>
<polygon fill="white" stroke="#bfbfbf" points="486,-56.5 486,-75.5 538,-75.5 538,-56.5 486,-56.5"/>
<text text-anchor="middle" x="512" y="-63.5" font-family="Helvetica,sans-Serif" font-size="10.00">memory</text>
</g>
<!-- Node6&#45;&gt;Node9 -->
<g id="edge8" class="edge"><title>Node6&#45;&gt;Node9</title>
<path fill="none" stroke="midnightblue" d="M482.511,-168.368C487.698,-150.537 499.696,-109.295 506.685,-85.2717"/>
<polygon fill="midnightblue" stroke="midnightblue" points="510.068,-86.1711 509.501,-75.5914 503.347,-84.2157 510.068,-86.1711"/>
</g>
<!-- Node10 -->
<g id="node10" class="node"><title>Node10</title>
<polygon fill="white" stroke="#bfbfbf" points="508,-112.5 508,-131.5 560,-131.5 560,-112.5 508,-112.5"/>
<text text-anchor="middle" x="534" y="-119.5" font-family="Helvetica,sans-Serif" font-size="10.00">sstream</text>
</g>
<!-- Node6&#45;&gt;Node10 -->
<g id="edge9" class="edge"><title>Node6&#45;&gt;Node10</title>
<path fill="none" stroke="midnightblue" d="M488.917,-168.083C496.78,-160.22 508.431,-148.569 517.919,-139.081"/>
<polygon fill="midnightblue" stroke="midnightblue" points="520.653,-141.297 525.249,-131.751 515.703,-136.347 520.653,-141.297"/>
</g>
<!-- Node11 -->
<g id="node11" class="node"><title>Node11</title>
<polygon fill="white" stroke="#bfbfbf" points="578,-112.5 578,-131.5 688,-131.5 688,-112.5 578,-112.5"/>
<text text-anchor="middle" x="633" y="-119.5" font-family="Helvetica,sans-Serif" font-size="10.00">3rd_party/exception.h</text>
</g>
<!-- Node6&#45;&gt;Node11 -->
<g id="edge10" class="edge"><title>Node6&#45;&gt;Node11</title>
<path fill="none" stroke="midnightblue" d="M504.243,-168.444C529.871,-159.399 570.485,-145.064 599.238,-134.916"/>
<polygon fill="midnightblue" stroke="midnightblue" points="600.605,-138.145 608.87,-131.516 598.275,-131.544 600.605,-138.145"/>
</g>
<!-- Node12 -->
<g id="node12" class="node"><title>Node12</title>
<g id="a_node12"><a xlink:href="../../d6/dc2/definitions_8h.html" target="_top" xlink:title="common/definitions.h">
<polygon fill="white" stroke="black" points="236,-112.5 236,-131.5 346,-131.5 346,-112.5 236,-112.5"/>
<text text-anchor="middle" x="291" y="-119.5" font-family="Helvetica,sans-Serif" font-size="10.00">common/definitions.h</text>
</a>
</g>
</g>
<!-- Node6&#45;&gt;Node12 -->
<g id="edge11" class="edge"><title>Node6&#45;&gt;Node12</title>
<path fill="none" stroke="midnightblue" d="M450.052,-168.444C417.842,-159.241 366.466,-144.562 330.858,-134.388"/>
<polygon fill="midnightblue" stroke="midnightblue" points="331.384,-130.898 320.808,-131.516 329.461,-137.629 331.384,-130.898"/>
</g>
<!-- Node16 -->
<g id="node16" class="node"><title>Node16</title>
<g id="a_node16"><a xlink:href="../../da/d18/shape_8h.html" target="_top" xlink:title="shape.h">
<polygon fill="white" stroke="black" points="416.5,-56.5 416.5,-75.5 467.5,-75.5 467.5,-56.5 416.5,-56.5"/>
<text text-anchor="middle" x="442" y="-63.5" font-family="Helvetica,sans-Serif" font-size="10.00">shape.h</text>
</a>
</g>
</g>
<!-- Node6&#45;&gt;Node16 -->
<g id="edge27" class="edge"><title>Node6&#45;&gt;Node16</title>
<path fill="none" stroke="midnightblue" d="M477.018,-168.368C470.858,-150.537 456.611,-109.295 448.312,-85.2717"/>
<polygon fill="midnightblue" stroke="midnightblue" points="451.541,-83.9005 444.968,-75.5914 444.925,-86.1862 451.541,-83.9005"/>
</g>
<!-- Node24 -->
<g id="node24" class="node"><title>Node24</title>
<g id="a_node24"><a xlink:href="../../d5/d0b/memory__piece_8h.html" target="_top" xlink:title="tensors/memory_piece.h">
<polygon fill="white" stroke="black" points="706,-112.5 706,-131.5 830,-131.5 830,-112.5 706,-112.5"/>
<text text-anchor="middle" x="768" y="-119.5" font-family="Helvetica,sans-Serif" font-size="10.00">tensors/memory_piece.h</text>
</a>
</g>
</g>
<!-- Node6&#45;&gt;Node24 -->
<g id="edge28" class="edge"><title>Node6&#45;&gt;Node24</title>
<path fill="none" stroke="midnightblue" d="M523.741,-168.799C574.256,-159.327 657.449,-143.728 712.483,-133.409"/>
<polygon fill="midnightblue" stroke="midnightblue" points="713.234,-136.83 722.418,-131.547 711.944,-129.95 713.234,-136.83"/>
</g>
<!-- Node12&#45;&gt;Node2 -->
<g id="edge12" class="edge"><title>Node12&#45;&gt;Node2</title>
<path fill="none" stroke="midnightblue" d="M254.397,-112.444C212.233,-102.587 143.199,-86.4491 99.7498,-76.2922"/>
<polygon fill="midnightblue" stroke="midnightblue" points="100.354,-72.8392 89.8203,-73.971 98.761,-79.6555 100.354,-72.8392"/>
</g>
<!-- Node12&#45;&gt;Node9 -->
<g id="edge13" class="edge"><title>Node12&#45;&gt;Node9</title>
<path fill="none" stroke="midnightblue" d="M326.482,-112.44C361.771,-103.911 417.716,-90.3477 475.92,-76.0073"/>
<polygon fill="midnightblue" stroke="midnightblue" points="476.788,-79.3984 485.659,-73.6059 475.112,-72.602 476.788,-79.3984"/>
</g>
<!-- Node13 -->
<g id="node13" class="node"><title>Node13</title>
<polygon fill="white" stroke="#bfbfbf" points="425.5,-0.5 425.5,-19.5 466.5,-19.5 466.5,-0.5 425.5,-0.5"/>
<text text-anchor="middle" x="446" y="-7.5" font-family="Helvetica,sans-Serif" font-size="10.00">string</text>
</g>
<!-- Node12&#45;&gt;Node13 -->
<g id="edge14" class="edge"><title>Node12&#45;&gt;Node13</title>
<path fill="none" stroke="midnightblue" d="M295.15,-112.231C302.05,-98.5007 317.113,-71.8606 337,-56 349.616,-45.9385 388.026,-31.2049 415.679,-21.3684"/>
<polygon fill="midnightblue" stroke="midnightblue" points="417.039,-24.6007 425.313,-17.9837 414.718,-17.9964 417.039,-24.6007"/>
</g>
<!-- Node14 -->
<g id="node14" class="node"><title>Node14</title>
<polygon fill="white" stroke="#bfbfbf" points="346,-56.5 346,-75.5 390,-75.5 390,-56.5 346,-56.5"/>
<text text-anchor="middle" x="368" y="-63.5" font-family="Helvetica,sans-Serif" font-size="10.00">vector</text>
</g>
<!-- Node12&#45;&gt;Node14 -->
<g id="edge15" class="edge"><title>Node12&#45;&gt;Node14</title>
<path fill="none" stroke="midnightblue" d="M303.371,-112.324C315.158,-104.058 333.132,-91.4527 347.136,-81.6322"/>
<polygon fill="midnightblue" stroke="midnightblue" points="349.482,-84.2619 355.659,-75.6545 345.462,-78.5307 349.482,-84.2619"/>
</g>
<!-- Node15 -->
<g id="node15" class="node"><title>Node15</title>
<polygon fill="white" stroke="#bfbfbf" points="108,-56.5 108,-75.5 204,-75.5 204,-56.5 108,-56.5"/>
<text text-anchor="middle" x="156" y="-63.5" font-family="Helvetica,sans-Serif" font-size="10.00">common/logging.h</text>
</g>
<!-- Node12&#45;&gt;Node15 -->
<g id="edge16" class="edge"><title>Node12&#45;&gt;Node15</title>
<path fill="none" stroke="midnightblue" d="M269.609,-112.444C247.293,-103.517 212.097,-89.4387 186.792,-79.3168"/>
<polygon fill="midnightblue" stroke="midnightblue" points="187.876,-75.9807 177.291,-75.5164 185.276,-82.4801 187.876,-75.9807"/>
</g>
<!-- Node12&#45;&gt;Node16 -->
<g id="edge17" class="edge"><title>Node12&#45;&gt;Node16</title>
<path fill="none" stroke="midnightblue" d="M314.926,-112.444C340.219,-103.399 380.302,-89.064 408.68,-78.9158"/>
<polygon fill="midnightblue" stroke="midnightblue" points="409.948,-82.1794 418.186,-75.5164 407.591,-75.5882 409.948,-82.1794"/>
</g>
<!-- Node18 -->
<g id="node18" class="node"><title>Node18</title>
<g id="a_node18"><a xlink:href="../../d2/db7/keywords_8h.html" target="_top" xlink:title="keywords.h">
<polygon fill="white" stroke="black" points="222.5,-56.5 222.5,-75.5 289.5,-75.5 289.5,-56.5 222.5,-56.5"/>
<text text-anchor="middle" x="256" y="-63.5" font-family="Helvetica,sans-Serif" font-size="10.00">keywords.h</text>
</a>
</g>
</g>
<!-- Node12&#45;&gt;Node18 -->
<g id="edge21" class="edge"><title>Node12&#45;&gt;Node18</title>
<path fill="none" stroke="midnightblue" d="M285.22,-112.083C280.328,-104.534 273.173,-93.4948 267.167,-84.2298"/>
<polygon fill="midnightblue" stroke="midnightblue" points="270.048,-82.239 261.672,-75.7511 264.174,-86.0463 270.048,-82.239"/>
</g>
<!-- Node16&#45;&gt;Node8 -->
<g id="edge19" class="edge"><title>Node16&#45;&gt;Node8</title>
<path fill="none" stroke="midnightblue" d="M467.566,-58.2125C470.735,-57.4341 473.937,-56.6778 477,-56 549.108,-40.0439 634.146,-25.1232 681.794,-17.1116"/>
<polygon fill="midnightblue" stroke="midnightblue" points="682.373,-20.5635 691.659,-15.462 681.218,-13.6593 682.373,-20.5635"/>
</g>
<!-- Node16&#45;&gt;Node13 -->
<g id="edge20" class="edge"><title>Node16&#45;&gt;Node13</title>
<path fill="none" stroke="midnightblue" d="M442.661,-56.083C443.185,-49.0059 443.936,-38.8611 444.594,-29.9865"/>
<polygon fill="midnightblue" stroke="midnightblue" points="448.103,-29.9823 445.352,-19.7511 441.123,-29.4652 448.103,-29.9823"/>
</g>
<!-- Node17 -->
<g id="node17" class="node"><title>Node17</title>
<polygon fill="white" stroke="#bfbfbf" points="485,-0.5 485,-19.5 531,-19.5 531,-0.5 485,-0.5"/>
<text text-anchor="middle" x="508" y="-7.5" font-family="Helvetica,sans-Serif" font-size="10.00">cstdint</text>
</g>
<!-- Node16&#45;&gt;Node17 -->
<g id="edge18" class="edge"><title>Node16&#45;&gt;Node17</title>
<path fill="none" stroke="midnightblue" d="M452.604,-56.324C462.456,-48.2631 477.351,-36.0765 489.215,-26.3695"/>
<polygon fill="midnightblue" stroke="midnightblue" points="491.68,-28.8752 497.203,-19.8339 487.247,-23.4575 491.68,-28.8752"/>
</g>
<!-- Node19 -->
<g id="node19" class="node"><title>Node19</title>
<polygon fill="white" stroke="#bfbfbf" points="0,-0.5 0,-19.5 78,-19.5 78,-0.5 0,-0.5"/>
<text text-anchor="middle" x="39" y="-7.5" font-family="Helvetica,sans-Serif" font-size="10.00">boost/any.hpp</text>
</g>
<!-- Node18&#45;&gt;Node19 -->
<g id="edge22" class="edge"><title>Node18&#45;&gt;Node19</title>
<path fill="none" stroke="midnightblue" d="M222.094,-56.5625C184.652,-47.2453 124.241,-32.2121 83.1349,-21.9829"/>
<polygon fill="midnightblue" stroke="midnightblue" points="83.9336,-18.575 73.3843,-19.5565 82.2431,-25.3678 83.9336,-18.575"/>
</g>
<!-- Node20 -->
<g id="node20" class="node"><title>Node20</title>
<polygon fill="white" stroke="#bfbfbf" points="96.5,-0.5 96.5,-19.5 131.5,-19.5 131.5,-0.5 96.5,-0.5"/>
<text text-anchor="middle" x="114" y="-7.5" font-family="Helvetica,sans-Serif" font-size="10.00">map</text>
</g>
<!-- Node18&#45;&gt;Node20 -->
<g id="edge23" class="edge"><title>Node18&#45;&gt;Node20</title>
<path fill="none" stroke="midnightblue" d="M233.5,-56.4435C208.536,-46.9502 168.249,-31.6297 141.45,-21.4385"/>
<polygon fill="midnightblue" stroke="midnightblue" points="142.49,-18.0898 131.899,-17.8067 140.002,-24.6326 142.49,-18.0898"/>
</g>
<!-- Node21 -->
<g id="node21" class="node"><title>Node21</title>
<polygon fill="white" stroke="#bfbfbf" points="149.5,-0.5 149.5,-19.5 208.5,-19.5 208.5,-0.5 149.5,-0.5"/>
<text text-anchor="middle" x="179" y="-7.5" font-family="Helvetica,sans-Serif" font-size="10.00">typeindex</text>
</g>
<!-- Node18&#45;&gt;Node21 -->
<g id="edge24" class="edge"><title>Node18&#45;&gt;Node21</title>
<path fill="none" stroke="midnightblue" d="M243.629,-56.324C231.842,-48.0577 213.868,-35.4527 199.864,-25.6322"/>
<polygon fill="midnightblue" stroke="midnightblue" points="201.538,-22.5307 191.341,-19.6545 197.518,-28.2619 201.538,-22.5307"/>
</g>
<!-- Node22 -->
<g id="node22" class="node"><title>Node22</title>
<polygon fill="white" stroke="#bfbfbf" points="226.5,-0.5 226.5,-19.5 277.5,-19.5 277.5,-0.5 226.5,-0.5"/>
<text text-anchor="middle" x="252" y="-7.5" font-family="Helvetica,sans-Serif" font-size="10.00">typeinfo</text>
</g>
<!-- Node18&#45;&gt;Node22 -->
<g id="edge25" class="edge"><title>Node18&#45;&gt;Node22</title>
<path fill="none" stroke="midnightblue" d="M255.339,-56.083C254.815,-49.0059 254.064,-38.8611 253.406,-29.9865"/>
<polygon fill="midnightblue" stroke="midnightblue" points="256.877,-29.4652 252.648,-19.7511 249.897,-29.9823 256.877,-29.4652"/>
</g>
<!-- Node23 -->
<g id="node23" class="node"><title>Node23</title>
<g id="a_node23"><a xlink:href="../../d3/de0/compile__time__crc32_8h.html" target="_top" xlink:title="compile_time_crc32.h">
<polygon fill="white" stroke="black" points="295,-0.5 295,-19.5 407,-19.5 407,-0.5 295,-0.5"/>
<text text-anchor="middle" x="351" y="-7.5" font-family="Helvetica,sans-Serif" font-size="10.00">compile_time_crc32.h</text>
</a>
</g>
</g>
<!-- Node18&#45;&gt;Node23 -->
<g id="edge26" class="edge"><title>Node18&#45;&gt;Node23</title>
<path fill="none" stroke="midnightblue" d="M271.263,-56.324C286.221,-47.8215 309.255,-34.7288 326.727,-24.7975"/>
<polygon fill="midnightblue" stroke="midnightblue" points="328.81,-27.639 335.774,-19.6545 325.351,-21.5534 328.81,-27.639"/>
</g>
</g>
</svg>
        <g id="navigator" transform="translate(0 0)" fill="#404254">
                <rect fill="#f2f5e9" fill-opacity="0.5" stroke="#606060" stroke-width=".5" x="0" y="0" width="60" height="60"/>
                <use id="zoomplus" xlink:href="#zoomPlus" x="17" y="9" onmousedown="handleZoom(evt,'in')"/>
                <use id="zoomminus" xlink:href="#zoomMin" x="42" y="9" onmousedown="handleZoom(evt,'out')"/>
                <use id="reset" xlink:href="#resetDef" x="30" y="36" onmousedown="handleReset()"/>
                <g id="arrowUp" xlink:href="#dirArrow" transform="translate(30 24)" onmousedown="handlePan(0,-1)">
                  <use xlink:href="#rim" fill="#404040">
                        <set attributeName="fill" to="#808080" begin="arrowUp.mouseover" end="arrowUp.mouseout"/>
                  </use>
                  <path fill="none" stroke="white" stroke-width="1.5" d="M0,-3.0v7 M-2.5,-0.5L0,-3.0L2.5,-0.5"/>
                </g>
                <g id="arrowRight" xlink:href="#dirArrow" transform="rotate(90) translate(36 -43)" onmousedown="handlePan(1,0)">
                  <use xlink:href="#rim" fill="#404040">
                        <set attributeName="fill" to="#808080" begin="arrowRight.mouseover" end="arrowRight.mouseout"/>
                  </use>
                  <path fill="none" stroke="white" stroke-width="1.5" d="M0,-3.0v7 M-2.5,-0.5L0,-3.0L2.5,-0.5"/>
                </g>
                <g id="arrowDown" xlink:href="#dirArrow" transform="rotate(180) translate(-30 -48)" onmousedown="handlePan(0,1)">
                  <use xlink:href="#rim" fill="#404040">
                        <set attributeName="fill" to="#808080" begin="arrowDown.mouseover" end="arrowDown.mouseout"/>
                  </use>
                  <path fill="none" stroke="white" stroke-width="1.5" d="M0,-3.0v7 M-2.5,-0.5L0,-3.0L2.5,-0.5"/>
                </g>
                <g id="arrowLeft" xlink:href="#dirArrow" transform="rotate(270) translate(-36 17)" onmousedown="handlePan(-1,0)">
                  <use xlink:href="#rim" fill="#404040">
                        <set attributeName="fill" to="#808080" begin="arrowLeft.mouseover" end="arrowLeft.mouseout"/>
                  </use>
                  <path fill="none" stroke="white" stroke-width="1.5" d="M0,-3.0v7 M-2.5,-0.5L0,-3.0L2.5,-0.5"/>
                </g>
        </g>
        <svg viewBox="0 0 15 15" width="100%" height="30px" preserveAspectRatio="xMaxYMin meet">
         <g id="arrow_out" transform="scale(0.3 0.3)">
          <a xlink:href="param__initializers_8h__incl_org.svg" target="_base">
           <rect id="button" ry="5" rx="5" y="6" x="6" height="38" width="38"
                fill="#f2f5e9" fill-opacity="0.5" stroke="#606060" stroke-width="1.0"/>
           <path id="arrow"
             d="M 11.500037,31.436501 C 11.940474,20.09759 22.043105,11.32322 32.158766,21.979434 L 37.068811,17.246167 C 37.068811,17.246167 37.088388,32 37.088388,32 L 22.160133,31.978069 C 22.160133,31.978069 26.997745,27.140456 26.997745,27.140456 C 18.528582,18.264221 13.291696,25.230495 11.500037,31.436501 z"
             style="fill:#404040;"/>
          </a>
         </g>
        </svg>
</svg>
