<?xml version="1.0" encoding="UTF-8" standalone="no"?>
<!DOCTYPE svg PUBLIC "-//W3C//DTD SVG 1.1//EN"
 "http://www.w3.org/Graphics/SVG/1.1/DTD/svg11.dtd">
<!-- Generated by graphviz version 2.38.0 (20140413.2041)
 -->
<!-- Title: marian::rnn::GRU::applyInput Pages: 1 -->
<svg width="446pt" height="180pt"
 viewBox="0.00 0.00 446.00 180.00" xmlns="http://www.w3.org/2000/svg" xmlns:xlink="http://www.w3.org/1999/xlink">
<g id="graph0" class="graph" transform="scale(1 1) rotate(0) translate(4 176)">
<title>marian::rnn::GRU::applyInput</title>
<polygon fill="white" stroke="none" points="-4,4 -4,-176 442,-176 442,4 -4,4"/>
<!-- Node1 -->
<g id="node1" class="node"><title>Node1</title>
<polygon fill="#bfbfbf" stroke="black" points="0,-57.5 0,-76.5 145,-76.5 145,-57.5 0,-57.5"/>
<text text-anchor="middle" x="72.5" y="-64.5" font-family="Helvetica,sans-Serif" font-size="10.00">marian::rnn::GRU::applyInput</text>
</g>
<!-- Node2 -->
<g id="node2" class="node"><title>Node2</title>
<g id="a_node2"><a xlink:href="../../da/d22/namespacemarian.html#a2791a2c8f79a938f5cb22ae613680675" target="_top" xlink:title="marian::concatenate">
<polygon fill="white" stroke="black" points="181,-114.5 181,-133.5 286,-133.5 286,-114.5 181,-114.5"/>
<text text-anchor="middle" x="233.5" y="-121.5" font-family="Helvetica,sans-Serif" font-size="10.00">marian::concatenate</text>
</a>
</g>
</g>
<!-- Node1&#45;&gt;Node2 -->
<g id="edge1" class="edge"><title>Node1&#45;&gt;Node2</title>
<path fill="none" stroke="midnightblue" d="M100.113,-76.5405C126.483,-85.9938 167.06,-100.54 196.34,-111.037"/>
<polygon fill="midnightblue" stroke="midnightblue" points="195.206,-114.348 205.8,-114.428 197.568,-107.759 195.206,-114.348"/>
</g>
<!-- Node3 -->
<g id="node3" class="node"><title>Node3</title>
<g id="a_node3"><a xlink:href="../../da/d22/namespacemarian.html#a268400392f22176821c7c4a36733b178" target="_top" xlink:title="marian::dropout">
<polygon fill="white" stroke="black" points="191.5,-76.5 191.5,-95.5 275.5,-95.5 275.5,-76.5 191.5,-76.5"/>
<text text-anchor="middle" x="233.5" y="-83.5" font-family="Helvetica,sans-Serif" font-size="10.00">marian::dropout</text>
</a>
</g>
</g>
<!-- Node1&#45;&gt;Node3 -->
<g id="edge2" class="edge"><title>Node1&#45;&gt;Node3</title>
<path fill="none" stroke="midnightblue" d="M145.093,-75.5551C157.209,-77.003 169.574,-78.4805 181.045,-79.8512"/>
<polygon fill="midnightblue" stroke="midnightblue" points="180.95,-83.3648 191.295,-81.0761 181.781,-76.4142 180.95,-83.3648"/>
</g>
<!-- Node9 -->
<g id="node9" class="node"><title>Node9</title>
<g id="a_node9"><a xlink:href="../../da/d22/namespacemarian.html#ad7fbf1ba8e2e04ffdc7d5e4841b5e691" target="_top" xlink:title="marian::dot">
<polygon fill="white" stroke="black" points="201,-38.5 201,-57.5 266,-57.5 266,-38.5 201,-38.5"/>
<text text-anchor="middle" x="233.5" y="-45.5" font-family="Helvetica,sans-Serif" font-size="10.00">marian::dot</text>
</a>
</g>
</g>
<!-- Node1&#45;&gt;Node9 -->
<g id="edge8" class="edge"><title>Node1&#45;&gt;Node9</title>
<path fill="none" stroke="midnightblue" d="M145.093,-58.4449C160.594,-56.5925 176.501,-54.6917 190.423,-53.028"/>
<polygon fill="midnightblue" stroke="midnightblue" points="191.129,-56.4686 200.644,-51.8067 190.299,-49.5181 191.129,-56.4686"/>
</g>
<!-- Node10 -->
<g id="node10" class="node"><title>Node10</title>
<g id="a_node10"><a xlink:href="../../da/d22/namespacemarian.html#a6202278a9da8ca8a281a6a96e75082f6" target="_top" xlink:title="marian::layer_norm">
<polygon fill="white" stroke="black" points="183.5,-0.5 183.5,-19.5 283.5,-19.5 283.5,-0.5 183.5,-0.5"/>
<text text-anchor="middle" x="233.5" y="-7.5" font-family="Helvetica,sans-Serif" font-size="10.00">marian::layer_norm</text>
</a>
</g>
</g>
<!-- Node1&#45;&gt;Node10 -->
<g id="edge9" class="edge"><title>Node1&#45;&gt;Node10</title>
<path fill="none" stroke="midnightblue" d="M100.113,-57.4595C126.483,-48.0062 167.06,-33.4598 196.34,-22.963"/>
<polygon fill="midnightblue" stroke="midnightblue" points="197.568,-26.241 205.8,-19.5716 195.206,-19.6516 197.568,-26.241"/>
</g>
<!-- Node4 -->
<g id="node4" class="node"><title>Node4</title>
<g id="a_node4"><a xlink:href="../../d4/d04/namespacemarian_1_1keywords.html#a74d7a2502faafdd421ef3dff629e284f" target="_top" xlink:title="marian::keywords::Get">
<polygon fill="white" stroke="black" points="322,-152.5 322,-171.5 438,-171.5 438,-152.5 322,-152.5"/>
<text text-anchor="middle" x="380" y="-159.5" font-family="Helvetica,sans-Serif" font-size="10.00">marian::keywords::Get</text>
</a>
</g>
</g>
<!-- Node3&#45;&gt;Node4 -->
<g id="edge3" class="edge"><title>Node3&#45;&gt;Node4</title>
<path fill="none" stroke="midnightblue" d="M267.463,-95.5908C273.874,-98.1552 280.351,-101.275 286,-105 305.422,-117.806 302.377,-130.503 322,-143 325.178,-145.024 328.595,-146.855 332.119,-148.508"/>
<polygon fill="midnightblue" stroke="midnightblue" points="331.032,-151.847 341.608,-152.474 333.732,-145.389 331.032,-151.847"/>
</g>
<!-- Node5 -->
<g id="node5" class="node"><title>Node5</title>
<g id="a_node5"><a xlink:href="../../da/d22/namespacemarian.html#a763e5e9b5d5a329d2420fe9bab95476d" target="_top" xlink:title="marian::shift">
<polygon fill="white" stroke="black" points="344.5,-114.5 344.5,-133.5 415.5,-133.5 415.5,-114.5 344.5,-114.5"/>
<text text-anchor="middle" x="380" y="-121.5" font-family="Helvetica,sans-Serif" font-size="10.00">marian::shift</text>
</a>
</g>
</g>
<!-- Node3&#45;&gt;Node5 -->
<g id="edge4" class="edge"><title>Node3&#45;&gt;Node5</title>
<path fill="none" stroke="midnightblue" d="M270.963,-95.589C290.219,-100.653 314.012,-106.91 334.364,-112.262"/>
<polygon fill="midnightblue" stroke="midnightblue" points="333.482,-115.649 344.044,-114.807 335.263,-108.879 333.482,-115.649"/>
</g>
<!-- Node6 -->
<g id="node6" class="node"><title>Node6</title>
<g id="a_node6"><a xlink:href="../../da/d22/namespacemarian.html#a3dbe8b5eb203876cd08cf3fe75a1c6bc" target="_top" xlink:title="marian::convolution">
<polygon fill="white" stroke="black" points="329.5,-76.5 329.5,-95.5 430.5,-95.5 430.5,-76.5 329.5,-76.5"/>
<text text-anchor="middle" x="380" y="-83.5" font-family="Helvetica,sans-Serif" font-size="10.00">marian::convolution</text>
</a>
</g>
</g>
<!-- Node3&#45;&gt;Node6 -->
<g id="edge5" class="edge"><title>Node3&#45;&gt;Node6</title>
<path fill="none" stroke="midnightblue" d="M275.521,-86C289.148,-86 304.61,-86 319.349,-86"/>
<polygon fill="midnightblue" stroke="midnightblue" points="319.407,-89.5001 329.407,-86 319.407,-82.5001 319.407,-89.5001"/>
</g>
<!-- Node7 -->
<g id="node7" class="node"><title>Node7</title>
<g id="a_node7"><a xlink:href="../../da/d22/namespacemarian.html#a8ee119d3ee4867a3c826de62ea1de4f5" target="_top" xlink:title="marian::avg_pooling">
<polygon fill="white" stroke="black" points="328,-38.5 328,-57.5 432,-57.5 432,-38.5 328,-38.5"/>
<text text-anchor="middle" x="380" y="-45.5" font-family="Helvetica,sans-Serif" font-size="10.00">marian::avg_pooling</text>
</a>
</g>
</g>
<!-- Node3&#45;&gt;Node7 -->
<g id="edge6" class="edge"><title>Node3&#45;&gt;Node7</title>
<path fill="none" stroke="midnightblue" d="M270.963,-76.411C289.774,-71.4642 312.915,-65.3789 332.947,-60.1108"/>
<polygon fill="midnightblue" stroke="midnightblue" points="334.018,-63.4483 342.799,-57.5201 332.237,-56.6785 334.018,-63.4483"/>
</g>
<!-- Node8 -->
<g id="node8" class="node"><title>Node8</title>
<g id="a_node8"><a xlink:href="../../da/d22/namespacemarian.html#abfe3b8c37f479da0a31a1e843d8bdedf" target="_top" xlink:title="marian::max_pooling">
<polygon fill="white" stroke="black" points="326.5,-0.5 326.5,-19.5 433.5,-19.5 433.5,-0.5 326.5,-0.5"/>
<text text-anchor="middle" x="380" y="-7.5" font-family="Helvetica,sans-Serif" font-size="10.00">marian::max_pooling</text>
</a>
</g>
</g>
<!-- Node3&#45;&gt;Node8 -->
<g id="edge7" class="edge"><title>Node3&#45;&gt;Node8</title>
<path fill="none" stroke="midnightblue" d="M267.463,-76.4092C273.874,-73.8448 280.351,-70.7247 286,-67 305.422,-54.1936 302.377,-41.4971 322,-29 325.178,-26.9758 328.595,-25.1445 332.119,-23.4921"/>
<polygon fill="midnightblue" stroke="midnightblue" points="333.732,-26.6114 341.608,-19.5257 331.032,-20.1528 333.732,-26.6114"/>
</g>
</g>
</svg>
