<?xml version="1.0" encoding="UTF-8" standalone="no"?>
<!DOCTYPE svg PUBLIC "-//W3C//DTD SVG 1.1//EN"
 "http://www.w3.org/Graphics/SVG/1.1/DTD/svg11.dtd">
<!-- Generated by graphviz version 2.38.0 (20140413.2041)
 -->
<!-- Title: nth_element.h Pages: 1 -->
<svg width="861pt" height="252pt"
 viewBox="0.00 0.00 860.92 252.00" xmlns="http://www.w3.org/2000/svg" xmlns:xlink="http://www.w3.org/1999/xlink">
<g id="graph0" class="graph" transform="scale(1 1) rotate(0) translate(4 248)">
<title>nth_element.h</title>
<polygon fill="white" stroke="none" points="-4,4 -4,-248 856.917,-248 856.917,4 -4,4"/>
<!-- Node1 -->
<g id="node1" class="node"><title>Node1</title>
<polygon fill="#bfbfbf" stroke="black" points="299,-224.5 299,-243.5 377,-243.5 377,-224.5 299,-224.5"/>
<text text-anchor="middle" x="338" y="-231.5" font-family="Helvetica,sans-Serif" font-size="10.00">nth_element.h</text>
</g>
<!-- Node2 -->
<g id="node2" class="node"><title>Node2</title>
<polygon fill="white" stroke="#bfbfbf" points="128,-168.5 128,-187.5 184,-187.5 184,-168.5 128,-168.5"/>
<text text-anchor="middle" x="156" y="-175.5" font-family="Helvetica,sans-Serif" font-size="10.00">algorithm</text>
</g>
<!-- Node1&#45;&gt;Node2 -->
<g id="edge1" class="edge"><title>Node1&#45;&gt;Node2</title>
<path fill="none" stroke="midnightblue" d="M309.162,-224.444C277.962,-215.186 228.088,-200.389 193.778,-190.209"/>
<polygon fill="midnightblue" stroke="midnightblue" points="194.688,-186.828 184.105,-187.339 192.697,-193.539 194.688,-186.828"/>
</g>
<!-- Node3 -->
<g id="node3" class="node"><title>Node3</title>
<polygon fill="white" stroke="#bfbfbf" points="43,-56.5 43,-75.5 87,-75.5 87,-56.5 43,-56.5"/>
<text text-anchor="middle" x="65" y="-63.5" font-family="Helvetica,sans-Serif" font-size="10.00">vector</text>
</g>
<!-- Node1&#45;&gt;Node3 -->
<g id="edge2" class="edge"><title>Node1&#45;&gt;Node3</title>
<path fill="none" stroke="midnightblue" d="M323.707,-224.309C279.111,-197.192 142.263,-113.98 87.7519,-80.8345"/>
<polygon fill="midnightblue" stroke="midnightblue" points="89.5147,-77.8101 79.1518,-75.6051 85.8778,-83.7912 89.5147,-77.8101"/>
</g>
<!-- Node4 -->
<g id="node4" class="node"><title>Node4</title>
<polygon fill="white" stroke="#bfbfbf" points="527,-168.5 527,-187.5 573,-187.5 573,-168.5 527,-168.5"/>
<text text-anchor="middle" x="550" y="-175.5" font-family="Helvetica,sans-Serif" font-size="10.00">cuda.h</text>
</g>
<!-- Node1&#45;&gt;Node4 -->
<g id="edge3" class="edge"><title>Node1&#45;&gt;Node4</title>
<path fill="none" stroke="midnightblue" d="M372.702,-224.494C408.803,-215.594 466.94,-201.117 517,-188 517.101,-187.974 517.201,-187.947 517.302,-187.921"/>
<polygon fill="midnightblue" stroke="midnightblue" points="518.175,-191.31 526.937,-185.353 516.373,-184.546 518.175,-191.31"/>
</g>
<!-- Node5 -->
<g id="node5" class="node"><title>Node5</title>
<g id="a_node5"><a xlink:href="../../d2/d3d/tensor_8h.html" target="_top" xlink:title="tensors/tensor.h">
<polygon fill="white" stroke="black" points="421.5,-168.5 421.5,-187.5 508.5,-187.5 508.5,-168.5 421.5,-168.5"/>
<text text-anchor="middle" x="465" y="-175.5" font-family="Helvetica,sans-Serif" font-size="10.00">tensors/tensor.h</text>
</a>
</g>
</g>
<!-- Node1&#45;&gt;Node5 -->
<g id="edge4" class="edge"><title>Node1&#45;&gt;Node5</title>
<path fill="none" stroke="midnightblue" d="M358.124,-224.444C379.024,-215.557 411.935,-201.563 435.716,-191.451"/>
<polygon fill="midnightblue" stroke="midnightblue" points="437.138,-194.65 444.971,-187.516 434.398,-188.208 437.138,-194.65"/>
</g>
<!-- Node6 -->
<g id="node6" class="node"><title>Node6</title>
<polygon fill="white" stroke="#bfbfbf" points="368,-112.5 368,-131.5 418,-131.5 418,-112.5 368,-112.5"/>
<text text-anchor="middle" x="393" y="-119.5" font-family="Helvetica,sans-Serif" font-size="10.00">iomanip</text>
</g>
<!-- Node5&#45;&gt;Node6 -->
<g id="edge5" class="edge"><title>Node5&#45;&gt;Node6</title>
<path fill="none" stroke="midnightblue" d="M453.432,-168.324C442.58,-160.185 426.119,-147.839 413.117,-138.087"/>
<polygon fill="midnightblue" stroke="midnightblue" points="414.879,-135.034 404.779,-131.834 410.679,-140.634 414.879,-135.034"/>
</g>
<!-- Node7 -->
<g id="node7" class="node"><title>Node7</title>
<polygon fill="white" stroke="#bfbfbf" points="692,-0.5 692,-19.5 746,-19.5 746,-0.5 692,-0.5"/>
<text text-anchor="middle" x="719" y="-7.5" font-family="Helvetica,sans-Serif" font-size="10.00">iostream</text>
</g>
<!-- Node5&#45;&gt;Node7 -->
<g id="edge6" class="edge"><title>Node5&#45;&gt;Node7</title>
<path fill="none" stroke="midnightblue" d="M508.642,-169.383C511.805,-168.894 514.95,-168.428 518,-168 589.96,-157.913 794.53,-186.136 843,-132 880.448,-90.1751 797.38,-45.0202 749.621,-23.6225"/>
<polygon fill="midnightblue" stroke="midnightblue" points="750.868,-20.3479 740.303,-19.5472 748.063,-26.7613 750.868,-20.3479"/>
</g>
<!-- Node8 -->
<g id="node8" class="node"><title>Node8</title>
<polygon fill="white" stroke="#bfbfbf" points="490,-56.5 490,-75.5 542,-75.5 542,-56.5 490,-56.5"/>
<text text-anchor="middle" x="516" y="-63.5" font-family="Helvetica,sans-Serif" font-size="10.00">memory</text>
</g>
<!-- Node5&#45;&gt;Node8 -->
<g id="edge7" class="edge"><title>Node5&#45;&gt;Node8</title>
<path fill="none" stroke="midnightblue" d="M469.002,-168.368C477.307,-150.456 496.563,-108.923 507.679,-84.9482"/>
<polygon fill="midnightblue" stroke="midnightblue" points="510.986,-86.136 512.017,-75.5914 504.635,-83.1916 510.986,-86.136"/>
</g>
<!-- Node9 -->
<g id="node9" class="node"><title>Node9</title>
<polygon fill="white" stroke="#bfbfbf" points="512,-112.5 512,-131.5 564,-131.5 564,-112.5 512,-112.5"/>
<text text-anchor="middle" x="538" y="-119.5" font-family="Helvetica,sans-Serif" font-size="10.00">sstream</text>
</g>
<!-- Node5&#45;&gt;Node9 -->
<g id="edge8" class="edge"><title>Node5&#45;&gt;Node9</title>
<path fill="none" stroke="midnightblue" d="M476.729,-168.324C487.837,-160.107 504.742,-147.602 517.983,-137.807"/>
<polygon fill="midnightblue" stroke="midnightblue" points="520.1,-140.595 526.058,-131.834 515.937,-134.967 520.1,-140.595"/>
</g>
<!-- Node10 -->
<g id="node10" class="node"><title>Node10</title>
<polygon fill="white" stroke="#bfbfbf" points="582,-112.5 582,-131.5 692,-131.5 692,-112.5 582,-112.5"/>
<text text-anchor="middle" x="637" y="-119.5" font-family="Helvetica,sans-Serif" font-size="10.00">3rd_party/exception.h</text>
</g>
<!-- Node5&#45;&gt;Node10 -->
<g id="edge9" class="edge"><title>Node5&#45;&gt;Node10</title>
<path fill="none" stroke="midnightblue" d="M492.254,-168.444C521.441,-159.28 567.921,-144.688 600.309,-134.519"/>
<polygon fill="midnightblue" stroke="midnightblue" points="601.381,-137.851 609.874,-131.516 599.284,-131.173 601.381,-137.851"/>
</g>
<!-- Node11 -->
<g id="node11" class="node"><title>Node11</title>
<g id="a_node11"><a xlink:href="../../d6/dc2/definitions_8h.html" target="_top" xlink:title="common/definitions.h">
<polygon fill="white" stroke="black" points="240,-112.5 240,-131.5 350,-131.5 350,-112.5 240,-112.5"/>
<text text-anchor="middle" x="295" y="-119.5" font-family="Helvetica,sans-Serif" font-size="10.00">common/definitions.h</text>
</a>
</g>
</g>
<!-- Node5&#45;&gt;Node11 -->
<g id="edge10" class="edge"><title>Node5&#45;&gt;Node11</title>
<path fill="none" stroke="midnightblue" d="M438.063,-168.444C409.34,-159.32 363.671,-144.813 331.679,-134.651"/>
<polygon fill="midnightblue" stroke="midnightblue" points="332.401,-131.208 321.811,-131.516 330.282,-137.88 332.401,-131.208"/>
</g>
<!-- Node15 -->
<g id="node15" class="node"><title>Node15</title>
<g id="a_node15"><a xlink:href="../../da/d18/shape_8h.html" target="_top" xlink:title="shape.h">
<polygon fill="white" stroke="black" points="420.5,-56.5 420.5,-75.5 471.5,-75.5 471.5,-56.5 420.5,-56.5"/>
<text text-anchor="middle" x="446" y="-63.5" font-family="Helvetica,sans-Serif" font-size="10.00">shape.h</text>
</a>
</g>
</g>
<!-- Node5&#45;&gt;Node15 -->
<g id="edge26" class="edge"><title>Node5&#45;&gt;Node15</title>
<path fill="none" stroke="midnightblue" d="M463.509,-168.368C460.443,-150.617 453.37,-109.666 449.212,-85.5974"/>
<polygon fill="midnightblue" stroke="midnightblue" points="452.635,-84.8498 447.484,-75.5914 445.737,-86.0413 452.635,-84.8498"/>
</g>
<!-- Node23 -->
<g id="node23" class="node"><title>Node23</title>
<g id="a_node23"><a xlink:href="../../d5/d0b/memory__piece_8h.html" target="_top" xlink:title="tensors/memory_piece.h">
<polygon fill="white" stroke="black" points="710,-112.5 710,-131.5 834,-131.5 834,-112.5 710,-112.5"/>
<text text-anchor="middle" x="772" y="-119.5" font-family="Helvetica,sans-Serif" font-size="10.00">tensors/memory_piece.h</text>
</a>
</g>
</g>
<!-- Node5&#45;&gt;Node23 -->
<g id="edge27" class="edge"><title>Node5&#45;&gt;Node23</title>
<path fill="none" stroke="midnightblue" d="M508.66,-169.32C562.335,-159.879 653.64,-143.819 713.387,-133.31"/>
<polygon fill="midnightblue" stroke="midnightblue" points="714.183,-136.724 723.426,-131.544 712.971,-129.829 714.183,-136.724"/>
</g>
<!-- Node11&#45;&gt;Node3 -->
<g id="edge14" class="edge"><title>Node11&#45;&gt;Node3</title>
<path fill="none" stroke="midnightblue" d="M254.047,-112.493C215.821,-104.384 156.978,-91.4763 97.2813,-76.2195"/>
<polygon fill="midnightblue" stroke="midnightblue" points="97.8639,-72.7554 87.3069,-73.6501 96.1176,-79.5341 97.8639,-72.7554"/>
</g>
<!-- Node11&#45;&gt;Node8 -->
<g id="edge12" class="edge"><title>Node11&#45;&gt;Node8</title>
<path fill="none" stroke="midnightblue" d="M330.482,-112.44C365.771,-103.911 421.716,-90.3477 479.92,-76.0073"/>
<polygon fill="midnightblue" stroke="midnightblue" points="480.788,-79.3984 489.659,-73.6059 479.112,-72.602 480.788,-79.3984"/>
</g>
<!-- Node12 -->
<g id="node12" class="node"><title>Node12</title>
<polygon fill="white" stroke="#bfbfbf" points="343.5,-56.5 343.5,-75.5 402.5,-75.5 402.5,-56.5 343.5,-56.5"/>
<text text-anchor="middle" x="373" y="-63.5" font-family="Helvetica,sans-Serif" font-size="10.00">functional</text>
</g>
<!-- Node11&#45;&gt;Node12 -->
<g id="edge11" class="edge"><title>Node11&#45;&gt;Node12</title>
<path fill="none" stroke="midnightblue" d="M307.532,-112.324C319.586,-103.979 338.027,-91.2122 352.269,-81.3524"/>
<polygon fill="midnightblue" stroke="midnightblue" points="354.269,-84.2243 360.499,-75.6545 350.285,-78.469 354.269,-84.2243"/>
</g>
<!-- Node13 -->
<g id="node13" class="node"><title>Node13</title>
<polygon fill="white" stroke="#bfbfbf" points="425.5,-0.5 425.5,-19.5 466.5,-19.5 466.5,-0.5 425.5,-0.5"/>
<text text-anchor="middle" x="446" y="-7.5" font-family="Helvetica,sans-Serif" font-size="10.00">string</text>
</g>
<!-- Node11&#45;&gt;Node13 -->
<g id="edge13" class="edge"><title>Node11&#45;&gt;Node13</title>
<path fill="none" stroke="midnightblue" d="M298.148,-112.196C303.49,-98.4184 315.577,-71.7142 334,-56 346.693,-45.1734 386.924,-30.406 415.527,-20.7884"/>
<polygon fill="midnightblue" stroke="midnightblue" points="416.705,-24.0854 425.095,-17.6162 414.502,-17.4411 416.705,-24.0854"/>
</g>
<!-- Node14 -->
<g id="node14" class="node"><title>Node14</title>
<polygon fill="white" stroke="#bfbfbf" points="105,-56.5 105,-75.5 201,-75.5 201,-56.5 105,-56.5"/>
<text text-anchor="middle" x="153" y="-63.5" font-family="Helvetica,sans-Serif" font-size="10.00">common/logging.h</text>
</g>
<!-- Node11&#45;&gt;Node14 -->
<g id="edge15" class="edge"><title>Node11&#45;&gt;Node14</title>
<path fill="none" stroke="midnightblue" d="M272.5,-112.444C248.923,-103.478 211.678,-89.314 185.036,-79.1827"/>
<polygon fill="midnightblue" stroke="midnightblue" points="185.986,-75.7995 175.395,-75.5164 183.498,-82.3424 185.986,-75.7995"/>
</g>
<!-- Node11&#45;&gt;Node15 -->
<g id="edge16" class="edge"><title>Node11&#45;&gt;Node15</title>
<path fill="none" stroke="midnightblue" d="M318.926,-112.444C344.219,-103.399 384.302,-89.064 412.68,-78.9158"/>
<polygon fill="midnightblue" stroke="midnightblue" points="413.948,-82.1794 422.186,-75.5164 411.591,-75.5882 413.948,-82.1794"/>
</g>
<!-- Node17 -->
<g id="node17" class="node"><title>Node17</title>
<g id="a_node17"><a xlink:href="../../d2/db7/keywords_8h.html" target="_top" xlink:title="keywords.h">
<polygon fill="white" stroke="black" points="219.5,-56.5 219.5,-75.5 286.5,-75.5 286.5,-56.5 219.5,-56.5"/>
<text text-anchor="middle" x="253" y="-63.5" font-family="Helvetica,sans-Serif" font-size="10.00">keywords.h</text>
</a>
</g>
</g>
<!-- Node11&#45;&gt;Node17 -->
<g id="edge20" class="edge"><title>Node11&#45;&gt;Node17</title>
<path fill="none" stroke="midnightblue" d="M288.065,-112.083C282.071,-104.377 273.248,-93.0333 265.952,-83.6531"/>
<polygon fill="midnightblue" stroke="midnightblue" points="268.709,-81.4958 259.806,-75.7511 263.183,-85.7934 268.709,-81.4958"/>
</g>
<!-- Node15&#45;&gt;Node7 -->
<g id="edge18" class="edge"><title>Node15&#45;&gt;Node7</title>
<path fill="none" stroke="midnightblue" d="M471.568,-58.2214C474.737,-57.4415 477.938,-56.6824 481,-56 551.593,-40.2673 634.759,-25.3626 681.739,-17.2746"/>
<polygon fill="midnightblue" stroke="midnightblue" points="682.49,-20.697 691.756,-15.5591 681.309,-13.7974 682.49,-20.697"/>
</g>
<!-- Node15&#45;&gt;Node13 -->
<g id="edge19" class="edge"><title>Node15&#45;&gt;Node13</title>
<path fill="none" stroke="midnightblue" d="M446,-56.083C446,-49.0059 446,-38.8611 446,-29.9865"/>
<polygon fill="midnightblue" stroke="midnightblue" points="449.5,-29.751 446,-19.7511 442.5,-29.7511 449.5,-29.751"/>
</g>
<!-- Node16 -->
<g id="node16" class="node"><title>Node16</title>
<polygon fill="white" stroke="#bfbfbf" points="485,-0.5 485,-19.5 531,-19.5 531,-0.5 485,-0.5"/>
<text text-anchor="middle" x="508" y="-7.5" font-family="Helvetica,sans-Serif" font-size="10.00">cstdint</text>
</g>
<!-- Node15&#45;&gt;Node16 -->
<g id="edge17" class="edge"><title>Node15&#45;&gt;Node16</title>
<path fill="none" stroke="midnightblue" d="M455.961,-56.324C465.127,-48.3414 478.937,-36.3128 490.028,-26.6529"/>
<polygon fill="midnightblue" stroke="midnightblue" points="492.615,-29.041 497.857,-19.8339 488.018,-23.7624 492.615,-29.041"/>
</g>
<!-- Node18 -->
<g id="node18" class="node"><title>Node18</title>
<polygon fill="white" stroke="#bfbfbf" points="0,-0.5 0,-19.5 78,-19.5 78,-0.5 0,-0.5"/>
<text text-anchor="middle" x="39" y="-7.5" font-family="Helvetica,sans-Serif" font-size="10.00">boost/any.hpp</text>
</g>
<!-- Node17&#45;&gt;Node18 -->
<g id="edge21" class="edge"><title>Node17&#45;&gt;Node18</title>
<path fill="none" stroke="midnightblue" d="M219.091,-56.4435C182.151,-47.1221 122.946,-32.1828 82.5816,-21.9972"/>
<polygon fill="midnightblue" stroke="midnightblue" points="83.3027,-18.5695 72.7503,-19.5164 81.59,-25.3568 83.3027,-18.5695"/>
</g>
<!-- Node19 -->
<g id="node19" class="node"><title>Node19</title>
<polygon fill="white" stroke="#bfbfbf" points="96.5,-0.5 96.5,-19.5 131.5,-19.5 131.5,-0.5 96.5,-0.5"/>
<text text-anchor="middle" x="114" y="-7.5" font-family="Helvetica,sans-Serif" font-size="10.00">map</text>
</g>
<!-- Node17&#45;&gt;Node19 -->
<g id="edge22" class="edge"><title>Node17&#45;&gt;Node19</title>
<path fill="none" stroke="midnightblue" d="M230.975,-56.4435C206.538,-46.9502 167.102,-31.6297 140.87,-21.4385"/>
<polygon fill="midnightblue" stroke="midnightblue" points="142.11,-18.1655 131.521,-17.8067 139.575,-24.6904 142.11,-18.1655"/>
</g>
<!-- Node20 -->
<g id="node20" class="node"><title>Node20</title>
<polygon fill="white" stroke="#bfbfbf" points="149.5,-0.5 149.5,-19.5 208.5,-19.5 208.5,-0.5 149.5,-0.5"/>
<text text-anchor="middle" x="179" y="-7.5" font-family="Helvetica,sans-Serif" font-size="10.00">typeindex</text>
</g>
<!-- Node17&#45;&gt;Node20 -->
<g id="edge23" class="edge"><title>Node17&#45;&gt;Node20</title>
<path fill="none" stroke="midnightblue" d="M241.111,-56.324C229.85,-48.1066 212.713,-35.6017 199.291,-25.8069"/>
<polygon fill="midnightblue" stroke="midnightblue" points="201.247,-22.9014 191.106,-19.8339 197.12,-28.5559 201.247,-22.9014"/>
</g>
<!-- Node21 -->
<g id="node21" class="node"><title>Node21</title>
<polygon fill="white" stroke="#bfbfbf" points="226.5,-0.5 226.5,-19.5 277.5,-19.5 277.5,-0.5 226.5,-0.5"/>
<text text-anchor="middle" x="252" y="-7.5" font-family="Helvetica,sans-Serif" font-size="10.00">typeinfo</text>
</g>
<!-- Node17&#45;&gt;Node21 -->
<g id="edge24" class="edge"><title>Node17&#45;&gt;Node21</title>
<path fill="none" stroke="midnightblue" d="M252.835,-56.083C252.704,-49.0059 252.516,-38.8611 252.352,-29.9865"/>
<polygon fill="midnightblue" stroke="midnightblue" points="255.847,-29.6845 252.162,-19.7511 248.848,-29.8142 255.847,-29.6845"/>
</g>
<!-- Node22 -->
<g id="node22" class="node"><title>Node22</title>
<g id="a_node22"><a xlink:href="../../d3/de0/compile__time__crc32_8h.html" target="_top" xlink:title="compile_time_crc32.h">
<polygon fill="white" stroke="black" points="295,-0.5 295,-19.5 407,-19.5 407,-0.5 295,-0.5"/>
<text text-anchor="middle" x="351" y="-7.5" font-family="Helvetica,sans-Serif" font-size="10.00">compile_time_crc32.h</text>
</a>
</g>
</g>
<!-- Node17&#45;&gt;Node22 -->
<g id="edge25" class="edge"><title>Node17&#45;&gt;Node22</title>
<path fill="none" stroke="midnightblue" d="M268.745,-56.324C284.319,-47.7428 308.377,-34.486 326.459,-24.5224"/>
<polygon fill="midnightblue" stroke="midnightblue" points="328.224,-27.546 335.294,-19.6545 324.846,-21.4152 328.224,-27.546"/>
</g>
</g>
</svg>
