<?xml version="1.0" encoding="UTF-8" standalone="no"?>
<!DOCTYPE svg PUBLIC "-//W3C//DTD SVG 1.1//EN"
 "http://www.w3.org/Graphics/SVG/1.1/DTD/svg11.dtd">
<!-- Generated by graphviz version 2.38.0 (20140413.2041)
 -->
<!-- Title: marian::LogitNodeOp::backwardOps Pages: 1 -->
<svg width="423pt" height="104pt"
 viewBox="0.00 0.00 423.00 104.00" xmlns="http://www.w3.org/2000/svg" xmlns:xlink="http://www.w3.org/1999/xlink">
<g id="graph0" class="graph" transform="scale(1 1) rotate(0) translate(4 100)">
<title>marian::LogitNodeOp::backwardOps</title>
<polygon fill="white" stroke="none" points="-4,4 -4,-100 419,-100 419,4 -4,4"/>
<!-- Node1 -->
<g id="node1" class="node"><title>Node1</title>
<polygon fill="#bfbfbf" stroke="black" points="0,-33 0,-63 109,-63 109,-33 0,-33"/>
<text text-anchor="start" x="8" y="-51" font-family="Helvetica,sans-Serif" font-size="10.00">marian::LogitNodeOp</text>
<text text-anchor="middle" x="54.5" y="-40" font-family="Helvetica,sans-Serif" font-size="10.00">::backwardOps</text>
</g>
<!-- Node2 -->
<g id="node2" class="node"><title>Node2</title>
<g id="a_node2"><a xlink:href="../../da/d22/namespacemarian.html#a0ee0e667d3fcfdc776e4dddaffeea6e2" target="_top" xlink:title="marian::Add">
<polygon fill="white" stroke="black" points="161,-76.5 161,-95.5 230,-95.5 230,-76.5 161,-76.5"/>
<text text-anchor="middle" x="195.5" y="-83.5" font-family="Helvetica,sans-Serif" font-size="10.00">marian::Add</text>
</a>
</g>
</g>
<!-- Node1&#45;&gt;Node2 -->
<g id="edge1" class="edge"><title>Node1&#45;&gt;Node2</title>
<path fill="none" stroke="midnightblue" d="M109.241,-62.6918C123.121,-66.4864 137.887,-70.5229 151.161,-74.1519"/>
<polygon fill="midnightblue" stroke="midnightblue" points="150.413,-77.5758 160.982,-76.8368 152.259,-70.8236 150.413,-77.5758"/>
</g>
<!-- Node3 -->
<g id="node3" class="node"><title>Node3</title>
<g id="a_node3"><a xlink:href="../../d0/d7a/classmarian_1_1Node.html#a71a9c8ad6ba12d421fa97222d74a90b9" target="_top" xlink:title="marian::Node::child">
<polygon fill="white" stroke="black" points="145,-38.5 145,-57.5 246,-57.5 246,-38.5 145,-38.5"/>
<text text-anchor="middle" x="195.5" y="-45.5" font-family="Helvetica,sans-Serif" font-size="10.00">marian::Node::child</text>
</a>
</g>
</g>
<!-- Node1&#45;&gt;Node3 -->
<g id="edge2" class="edge"><title>Node1&#45;&gt;Node3</title>
<path fill="none" stroke="midnightblue" d="M109.241,-48C117.605,-48 126.291,-48 134.778,-48"/>
<polygon fill="midnightblue" stroke="midnightblue" points="134.997,-51.5001 144.997,-48 134.997,-44.5001 134.997,-51.5001"/>
</g>
<!-- Node5 -->
<g id="node5" class="node"><title>Node5</title>
<g id="a_node5"><a xlink:href="../../d0/d7a/classmarian_1_1Node.html#a0497d2c3515385212b1086f8b8502826" target="_top" xlink:title="marian::Node::grad">
<polygon fill="white" stroke="black" points="145.5,-0.5 145.5,-19.5 245.5,-19.5 245.5,-0.5 145.5,-0.5"/>
<text text-anchor="middle" x="195.5" y="-7.5" font-family="Helvetica,sans-Serif" font-size="10.00">marian::Node::grad</text>
</a>
</g>
</g>
<!-- Node1&#45;&gt;Node5 -->
<g id="edge4" class="edge"><title>Node1&#45;&gt;Node5</title>
<path fill="none" stroke="midnightblue" d="M109.241,-33.3082C122.503,-29.6827 136.573,-25.8362 149.378,-22.3354"/>
<polygon fill="midnightblue" stroke="midnightblue" points="150.614,-25.626 159.337,-19.6128 148.768,-18.8738 150.614,-25.626"/>
</g>
<!-- Node4 -->
<g id="node4" class="node"><title>Node4</title>
<g id="a_node4"><a xlink:href="../../d0/d7a/classmarian_1_1Node.html#a4aa5aa482c70595fa5d43c1fbabf5c18" target="_top" xlink:title="marian::Node::getBackend">
<polygon fill="white" stroke="black" points="282,-38.5 282,-57.5 415,-57.5 415,-38.5 282,-38.5"/>
<text text-anchor="middle" x="348.5" y="-45.5" font-family="Helvetica,sans-Serif" font-size="10.00">marian::Node::getBackend</text>
</a>
</g>
</g>
<!-- Node3&#45;&gt;Node4 -->
<g id="edge3" class="edge"><title>Node3&#45;&gt;Node4</title>
<path fill="none" stroke="midnightblue" d="M246.362,-48C254.512,-48 263.114,-48 271.721,-48"/>
<polygon fill="midnightblue" stroke="midnightblue" points="271.801,-51.5001 281.801,-48 271.801,-44.5001 271.801,-51.5001"/>
</g>
</g>
</svg>
