<?xml version="1.0" encoding="UTF-8" standalone="no"?>
<!DOCTYPE svg PUBLIC "-//W3C//DTD SVG 1.1//EN"
 "http://www.w3.org/Graphics/SVG/1.1/DTD/svg11.dtd">
<!-- Generated by graphviz version 2.38.0 (20140413.2041)
 -->
<!-- Title: hypothesis.h Pages: 1 -->
<svg width="445pt" height="364pt"
 viewBox="0.00 0.00 444.50 364.00" xmlns="http://www.w3.org/2000/svg" xmlns:xlink="http://www.w3.org/1999/xlink">
<g id="graph0" class="graph" transform="scale(1 1) rotate(0) translate(4 360)">
<title>hypothesis.h</title>
<polygon fill="white" stroke="none" points="-4,4 -4,-360 440.5,-360 440.5,4 -4,4"/>
<!-- Node1 -->
<g id="node1" class="node"><title>Node1</title>
<polygon fill="#bfbfbf" stroke="black" points="253,-336.5 253,-355.5 325,-355.5 325,-336.5 253,-336.5"/>
<text text-anchor="middle" x="289" y="-343.5" font-family="Helvetica,sans-Serif" font-size="10.00">hypothesis.h</text>
</g>
<!-- Node2 -->
<g id="node2" class="node"><title>Node2</title>
<g id="a_node2"><a xlink:href="$de/d8c/marian_2src_2translator_2history_8h.html" xlink:title="history.h">
<polygon fill="white" stroke="black" points="262,-280.5 262,-299.5 316,-299.5 316,-280.5 262,-280.5"/>
<text text-anchor="middle" x="289" y="-287.5" font-family="Helvetica,sans-Serif" font-size="10.00">history.h</text>
</a>
</g>
</g>
<!-- Node1&#45;&gt;Node2 -->
<g id="edge1" class="edge"><title>Node1&#45;&gt;Node2</title>
<path fill="none" stroke="midnightblue" d="M289,-325.805C289,-316.91 289,-306.78 289,-299.751"/>
<polygon fill="midnightblue" stroke="midnightblue" points="285.5,-326.083 289,-336.083 292.5,-326.083 285.5,-326.083"/>
</g>
<!-- Node3 -->
<g id="node3" class="node"><title>Node3</title>
<g id="a_node3"><a xlink:href="$d7/d7d/training_2validator_8h.html" xlink:title="validator.h">
<polygon fill="white" stroke="black" points="113,-168.5 113,-187.5 175,-187.5 175,-168.5 113,-168.5"/>
<text text-anchor="middle" x="144" y="-175.5" font-family="Helvetica,sans-Serif" font-size="10.00">validator.h</text>
</a>
</g>
</g>
<!-- Node2&#45;&gt;Node3 -->
<g id="edge2" class="edge"><title>Node2&#45;&gt;Node3</title>
<path fill="none" stroke="midnightblue" d="M251.68,-287.329C220.094,-283.789 176.207,-273.453 152,-244 138.716,-227.838 140.395,-201.33 142.39,-187.697"/>
<polygon fill="midnightblue" stroke="midnightblue" points="251.591,-290.836 261.875,-288.287 252.246,-283.867 251.591,-290.836"/>
</g>
<!-- Node9 -->
<g id="node9" class="node"><title>Node9</title>
<g id="a_node9"><a xlink:href="$d3/ddc/beam__search_8h.html" xlink:title="beam_search.h">
<polygon fill="white" stroke="black" points="161.5,-224.5 161.5,-243.5 244.5,-243.5 244.5,-224.5 161.5,-224.5"/>
<text text-anchor="middle" x="203" y="-231.5" font-family="Helvetica,sans-Serif" font-size="10.00">beam_search.h</text>
</a>
</g>
</g>
<!-- Node2&#45;&gt;Node9 -->
<g id="edge12" class="edge"><title>Node2&#45;&gt;Node9</title>
<path fill="none" stroke="midnightblue" d="M266.545,-274.901C250.776,-264.999 230.186,-252.071 216.783,-243.655"/>
<polygon fill="midnightblue" stroke="midnightblue" points="264.852,-277.97 275.183,-280.324 268.575,-272.042 264.852,-277.97"/>
</g>
<!-- Node11 -->
<g id="node11" class="node"><title>Node11</title>
<g id="a_node11"><a xlink:href="$d6/dce/marian_2src_2translator_2history_8cpp.html" xlink:title="history.cpp">
<polygon fill="white" stroke="black" points="371.5,-224.5 371.5,-243.5 436.5,-243.5 436.5,-224.5 371.5,-224.5"/>
<text text-anchor="middle" x="404" y="-231.5" font-family="Helvetica,sans-Serif" font-size="10.00">history.cpp</text>
</a>
</g>
</g>
<!-- Node2&#45;&gt;Node11 -->
<g id="edge15" class="edge"><title>Node2&#45;&gt;Node11</title>
<path fill="none" stroke="midnightblue" d="M316.481,-276.096C337.966,-266.007 367.222,-252.27 385.863,-243.516"/>
<polygon fill="midnightblue" stroke="midnightblue" points="314.786,-273.025 307.222,-280.444 317.762,-279.361 314.786,-273.025"/>
</g>
<!-- Node12 -->
<g id="node12" class="node"><title>Node12</title>
<g id="a_node12"><a xlink:href="$d7/de8/marian_2src_2translator_2printer_8h.html" xlink:title="printer.h">
<polygon fill="white" stroke="black" points="263,-224.5 263,-243.5 315,-243.5 315,-224.5 263,-224.5"/>
<text text-anchor="middle" x="289" y="-231.5" font-family="Helvetica,sans-Serif" font-size="10.00">printer.h</text>
</a>
</g>
</g>
<!-- Node2&#45;&gt;Node12 -->
<g id="edge16" class="edge"><title>Node2&#45;&gt;Node12</title>
<path fill="none" stroke="midnightblue" d="M289,-269.805C289,-260.91 289,-250.78 289,-243.751"/>
<polygon fill="midnightblue" stroke="midnightblue" points="285.5,-270.083 289,-280.083 292.5,-270.083 285.5,-270.083"/>
</g>
<!-- Node14 -->
<g id="node14" class="node"><title>Node14</title>
<g id="a_node14"><a xlink:href="$d9/df1/translator_8h.html" xlink:title="translator.h">
<polygon fill="white" stroke="black" points="311.5,-168.5 311.5,-187.5 376.5,-187.5 376.5,-168.5 311.5,-168.5"/>
<text text-anchor="middle" x="344" y="-175.5" font-family="Helvetica,sans-Serif" font-size="10.00">translator.h</text>
</a>
</g>
</g>
<!-- Node2&#45;&gt;Node14 -->
<g id="edge21" class="edge"><title>Node2&#45;&gt;Node14</title>
<path fill="none" stroke="midnightblue" d="M303.976,-272.748C310.85,-264.602 318.643,-254.296 324,-244 333.81,-225.147 339.712,-200.671 342.352,-187.8"/>
<polygon fill="midnightblue" stroke="midnightblue" points="301.256,-270.541 297.287,-280.364 306.516,-275.16 301.256,-270.541"/>
</g>
<!-- Node4 -->
<g id="node4" class="node"><title>Node4</title>
<g id="a_node4"><a xlink:href="$da/d8c/examples_2mnist_2validator_8h.html" xlink:title="validator.h">
<polygon fill="white" stroke="black" points="129,-112.5 129,-131.5 191,-131.5 191,-112.5 129,-112.5"/>
<text text-anchor="middle" x="160" y="-119.5" font-family="Helvetica,sans-Serif" font-size="10.00">validator.h</text>
</a>
</g>
</g>
<!-- Node3&#45;&gt;Node4 -->
<g id="edge3" class="edge"><title>Node3&#45;&gt;Node4</title>
<path fill="none" stroke="midnightblue" d="M149.512,-158.396C152.189,-149.362 155.278,-138.936 157.407,-131.751"/>
<polygon fill="midnightblue" stroke="midnightblue" points="146.127,-157.501 146.642,-168.083 152.839,-159.489 146.127,-157.501"/>
</g>
<!-- Node6 -->
<g id="node6" class="node"><title>Node6</title>
<g id="a_node6"><a xlink:href="$d8/d9d/graph__group_8h.html" xlink:title="graph_group.h">
<polygon fill="white" stroke="black" points="45,-0.5 45,-19.5 123,-19.5 123,-0.5 45,-0.5"/>
<text text-anchor="middle" x="84" y="-7.5" font-family="Helvetica,sans-Serif" font-size="10.00">graph_group.h</text>
</a>
</g>
</g>
<!-- Node3&#45;&gt;Node6 -->
<g id="edge5" class="edge"><title>Node3&#45;&gt;Node6</title>
<path fill="none" stroke="midnightblue" d="M170.318,-163.049C181.664,-155.508 193.747,-145.046 200,-132 210.305,-110.499 190.234,-63.2069 184,-56 167.934,-37.4255 142.667,-26.1441 121.552,-19.5223"/>
<polygon fill="midnightblue" stroke="midnightblue" points="168.191,-160.248 161.502,-168.465 171.854,-166.213 168.191,-160.248"/>
</g>
<!-- Node7 -->
<g id="node7" class="node"><title>Node7</title>
<g id="a_node7"><a xlink:href="$d2/dd8/scheduler_8h.html" xlink:title="scheduler.h">
<polygon fill="white" stroke="black" points="43.5,-112.5 43.5,-131.5 110.5,-131.5 110.5,-112.5 43.5,-112.5"/>
<text text-anchor="middle" x="77" y="-119.5" font-family="Helvetica,sans-Serif" font-size="10.00">scheduler.h</text>
</a>
</g>
</g>
<!-- Node3&#45;&gt;Node7 -->
<g id="edge6" class="edge"><title>Node3&#45;&gt;Node7</title>
<path fill="none" stroke="midnightblue" d="M125.165,-161.82C113.162,-152.145 98.0283,-139.948 87.9606,-131.834"/>
<polygon fill="midnightblue" stroke="midnightblue" points="123.253,-164.774 133.235,-168.324 127.646,-159.324 123.253,-164.774"/>
</g>
<!-- Node8 -->
<g id="node8" class="node"><title>Node8</title>
<g id="a_node8"><a xlink:href="$df/d43/training_2training_8h.html" xlink:title="training.h">
<polygon fill="white" stroke="black" points="0,-56.5 0,-75.5 56,-75.5 56,-56.5 0,-56.5"/>
<text text-anchor="middle" x="28" y="-63.5" font-family="Helvetica,sans-Serif" font-size="10.00">training.h</text>
</a>
</g>
</g>
<!-- Node3&#45;&gt;Node8 -->
<g id="edge11" class="edge"><title>Node3&#45;&gt;Node8</title>
<path fill="none" stroke="midnightblue" d="M102.813,-170.921C78.8086,-165.117 50.1671,-153.839 34,-132 21.593,-115.241 23.9215,-88.9937 26.2126,-75.5556"/>
<polygon fill="midnightblue" stroke="midnightblue" points="102.251,-174.38 112.766,-173.088 103.74,-167.541 102.251,-174.38"/>
</g>
<!-- Node5 -->
<g id="node5" class="node"><title>Node5</title>
<g id="a_node5"><a xlink:href="$d2/d10/examples_2mnist_2training_8h.html" xlink:title="training.h">
<polygon fill="white" stroke="black" points="119,-56.5 119,-75.5 175,-75.5 175,-56.5 119,-56.5"/>
<text text-anchor="middle" x="147" y="-63.5" font-family="Helvetica,sans-Serif" font-size="10.00">training.h</text>
</a>
</g>
</g>
<!-- Node4&#45;&gt;Node5 -->
<g id="edge4" class="edge"><title>Node4&#45;&gt;Node5</title>
<path fill="none" stroke="midnightblue" d="M155.45,-102.101C153.292,-93.1357 150.818,-82.8579 149.107,-75.7511"/>
<polygon fill="midnightblue" stroke="midnightblue" points="152.11,-103.18 157.853,-112.083 158.915,-101.542 152.11,-103.18"/>
</g>
<!-- Node7&#45;&gt;Node5 -->
<g id="edge7" class="edge"><title>Node7&#45;&gt;Node5</title>
<path fill="none" stroke="midnightblue" d="M96.3138,-106.101C108.912,-96.3824 124.928,-84.0269 135.549,-75.8339"/>
<polygon fill="midnightblue" stroke="midnightblue" points="94.0267,-103.445 88.2467,-112.324 98.3024,-108.987 94.0267,-103.445"/>
</g>
<!-- Node7&#45;&gt;Node6 -->
<g id="edge8" class="edge"><title>Node7&#45;&gt;Node6</title>
<path fill="none" stroke="midnightblue" d="M78.1869,-102.348C79.7202,-78.2538 82.3259,-37.3079 83.4533,-19.5914"/>
<polygon fill="midnightblue" stroke="midnightblue" points="74.6915,-102.166 77.5493,-112.368 81.6774,-102.611 74.6915,-102.166"/>
</g>
<!-- Node7&#45;&gt;Node8 -->
<g id="edge9" class="edge"><title>Node7&#45;&gt;Node8</title>
<path fill="none" stroke="midnightblue" d="M61.9655,-104.431C53.3778,-94.9673 42.9565,-83.4827 35.9408,-75.7511"/>
<polygon fill="midnightblue" stroke="midnightblue" points="59.5967,-107.029 68.9086,-112.083 64.7807,-102.325 59.5967,-107.029"/>
</g>
<!-- Node8&#45;&gt;Node6 -->
<g id="edge10" class="edge"><title>Node8&#45;&gt;Node6</title>
<path fill="none" stroke="midnightblue" d="M44.3299,-49.2533C54.265,-39.6731 66.5875,-27.7906 74.8389,-19.8339"/>
<polygon fill="midnightblue" stroke="midnightblue" points="41.7664,-46.8631 36.9974,-56.324 46.6253,-51.902 41.7664,-46.8631"/>
</g>
<!-- Node9&#45;&gt;Node3 -->
<g id="edge14" class="edge"><title>Node9&#45;&gt;Node3</title>
<path fill="none" stroke="midnightblue" d="M186.105,-217.537C175.585,-207.909 162.431,-195.869 153.652,-187.834"/>
<polygon fill="midnightblue" stroke="midnightblue" points="183.781,-220.154 193.521,-224.324 188.507,-214.99 183.781,-220.154"/>
</g>
<!-- Node10 -->
<g id="node10" class="node"><title>Node10</title>
<g id="a_node10"><a xlink:href="$df/df1/s2s__translator_8cpp.html" xlink:title="s2s_translator.cpp">
<polygon fill="white" stroke="black" points="263.5,-112.5 263.5,-131.5 360.5,-131.5 360.5,-112.5 263.5,-112.5"/>
<text text-anchor="middle" x="312" y="-119.5" font-family="Helvetica,sans-Serif" font-size="10.00">s2s_translator.cpp</text>
</a>
</g>
</g>
<!-- Node9&#45;&gt;Node10 -->
<g id="edge13" class="edge"><title>Node9&#45;&gt;Node10</title>
<path fill="none" stroke="midnightblue" d="M204.448,-214.371C206.417,-200.25 211.059,-181.102 222,-168 237.116,-149.898 261.318,-138.374 280.819,-131.524"/>
<polygon fill="midnightblue" stroke="midnightblue" points="200.958,-214.092 203.373,-224.408 207.918,-214.837 200.958,-214.092"/>
</g>
<!-- Node12&#45;&gt;Node3 -->
<g id="edge17" class="edge"><title>Node12&#45;&gt;Node3</title>
<path fill="none" stroke="midnightblue" d="M256.525,-220.906C229.264,-210.754 191.008,-196.506 166.868,-187.516"/>
<polygon fill="midnightblue" stroke="midnightblue" points="255.432,-224.233 266.024,-224.444 257.875,-217.674 255.432,-224.233"/>
</g>
<!-- Node13 -->
<g id="node13" class="node"><title>Node13</title>
<g id="a_node13"><a xlink:href="$db/df8/marian_2src_2translator_2printer_8cpp.html" xlink:title="printer.cpp">
<polygon fill="white" stroke="black" points="231,-168.5 231,-187.5 293,-187.5 293,-168.5 231,-168.5"/>
<text text-anchor="middle" x="262" y="-175.5" font-family="Helvetica,sans-Serif" font-size="10.00">printer.cpp</text>
</a>
</g>
</g>
<!-- Node12&#45;&gt;Node13 -->
<g id="edge18" class="edge"><title>Node12&#45;&gt;Node13</title>
<path fill="none" stroke="midnightblue" d="M279.991,-214.983C275.408,-205.817 270.046,-195.092 266.376,-187.751"/>
<polygon fill="midnightblue" stroke="midnightblue" points="276.939,-216.704 284.541,-224.083 283.2,-213.573 276.939,-216.704"/>
</g>
<!-- Node12&#45;&gt;Node14 -->
<g id="edge19" class="edge"><title>Node12&#45;&gt;Node14</title>
<path fill="none" stroke="midnightblue" d="M305.294,-217.002C315.041,-207.433 327.053,-195.639 335.087,-187.751"/>
<polygon fill="midnightblue" stroke="midnightblue" points="302.766,-214.58 298.082,-224.083 307.67,-219.575 302.766,-214.58"/>
</g>
<!-- Node14&#45;&gt;Node10 -->
<g id="edge20" class="edge"><title>Node14&#45;&gt;Node10</title>
<path fill="none" stroke="midnightblue" d="M333.496,-159.275C328.027,-150.045 321.582,-139.17 317.186,-131.751"/>
<polygon fill="midnightblue" stroke="midnightblue" points="330.607,-161.264 338.716,-168.083 336.629,-157.696 330.607,-161.264"/>
</g>
</g>
</svg>
