<?xml version="1.0" encoding="UTF-8" standalone="no"?>
<!DOCTYPE svg PUBLIC "-//W3C//DTD SVG 1.1//EN"
 "http://www.w3.org/Graphics/SVG/1.1/DTD/svg11.dtd">
<!-- Generated by graphviz version 2.38.0 (20140413.2041)
 -->
<!-- Title: marian::Parameters::totalCapacity Pages: 1 -->
<svg width="248pt" height="88pt"
 viewBox="0.00 0.00 248.00 88.00" xmlns="http://www.w3.org/2000/svg" xmlns:xlink="http://www.w3.org/1999/xlink">
<g id="graph0" class="graph" transform="scale(1 1) rotate(0) translate(4 84)">
<title>marian::Parameters::totalCapacity</title>
<polygon fill="white" stroke="none" points="-4,4 -4,-84 244,-84 244,4 -4,4"/>
<!-- Node1 -->
<g id="node1" class="node"><title>Node1</title>
<polygon fill="#bfbfbf" stroke="black" points="0,-24.5 0,-54.5 102,-54.5 102,-24.5 0,-24.5"/>
<text text-anchor="start" x="8" y="-42.5" font-family="Helvetica,sans-Serif" font-size="10.00">marian::Parameters</text>
<text text-anchor="middle" x="51" y="-31.5" font-family="Helvetica,sans-Serif" font-size="10.00">::totalCapacity</text>
</g>
<!-- Node2 -->
<g id="node2" class="node"><title>Node2</title>
<g id="a_node2"><a xlink:href="../../dc/d36/classmarian_1_1Parameters.html#a9603af4faeb75926c9a0efd7ad3189ca" target="_top" xlink:title="marian::Parameters\l::allocateForward">
<polygon fill="white" stroke="black" points="138,-49.5 138,-79.5 240,-79.5 240,-49.5 138,-49.5"/>
<text text-anchor="start" x="146" y="-67.5" font-family="Helvetica,sans-Serif" font-size="10.00">marian::Parameters</text>
<text text-anchor="middle" x="189" y="-56.5" font-family="Helvetica,sans-Serif" font-size="10.00">::allocateForward</text>
</a>
</g>
</g>
<!-- Node1&#45;&gt;Node2 -->
<g id="edge1" class="edge"><title>Node1&#45;&gt;Node2</title>
<path fill="none" stroke="midnightblue" d="M112.231,-50.5718C120.823,-52.1513 129.583,-53.7615 137.952,-55.2999"/>
<polygon fill="midnightblue" stroke="midnightblue" points="112.723,-47.1037 102.255,-48.738 111.457,-53.9884 112.723,-47.1037"/>
</g>
<!-- Node3 -->
<g id="node3" class="node"><title>Node3</title>
<g id="a_node3"><a xlink:href="../../dc/d36/classmarian_1_1Parameters.html#a350f3682c45b13d7a59a61e6cad14f57" target="_top" xlink:title="marian::Parameters\l::allocateBackward">
<polygon fill="white" stroke="black" points="138,-0.5 138,-30.5 240,-30.5 240,-0.5 138,-0.5"/>
<text text-anchor="start" x="146" y="-18.5" font-family="Helvetica,sans-Serif" font-size="10.00">marian::Parameters</text>
<text text-anchor="middle" x="189" y="-7.5" font-family="Helvetica,sans-Serif" font-size="10.00">::allocateBackward</text>
</a>
</g>
</g>
<!-- Node1&#45;&gt;Node3 -->
<g id="edge2" class="edge"><title>Node1&#45;&gt;Node3</title>
<path fill="none" stroke="midnightblue" d="M112.231,-28.871C120.823,-27.3548 129.583,-25.809 137.952,-24.3321"/>
<polygon fill="midnightblue" stroke="midnightblue" points="111.495,-25.4468 102.255,-30.6315 112.711,-32.3403 111.495,-25.4468"/>
</g>
</g>
</svg>
