<?xml version="1.0" encoding="UTF-8" standalone="no"?>
<!DOCTYPE svg PUBLIC "-//W3C//DTD SVG 1.1//EN"
 "http://www.w3.org/Graphics/SVG/1.1/DTD/svg11.dtd">
<!-- Generated by graphviz version 2.38.0 (20140413.2041)
 -->
<!-- Title: marian::sparse::CSR::rows Pages: 1 -->
<svg width="435pt" height="88pt"
 viewBox="0.00 0.00 435.00 88.00" xmlns="http://www.w3.org/2000/svg" xmlns:xlink="http://www.w3.org/1999/xlink">
<g id="graph0" class="graph" transform="scale(1 1) rotate(0) translate(4 84)">
<title>marian::sparse::CSR::rows</title>
<polygon fill="white" stroke="none" points="-4,4 -4,-84 431,-84 431,4 -4,4"/>
<!-- Node1 -->
<g id="node1" class="node"><title>Node1</title>
<polygon fill="#bfbfbf" stroke="black" points="0,-24.5 0,-54.5 109,-54.5 109,-24.5 0,-24.5"/>
<text text-anchor="start" x="8" y="-42.5" font-family="Helvetica,sans-Serif" font-size="10.00">marian::sparse::CSR</text>
<text text-anchor="middle" x="54.5" y="-31.5" font-family="Helvetica,sans-Serif" font-size="10.00">::rows</text>
</g>
<!-- Node2 -->
<g id="node2" class="node"><title>Node2</title>
<g id="a_node2"><a xlink:href="$d1/d62/classmarian_1_1sparse_1_1CSR.html#a35eb04afb14985e6fe9ce75b3a8f0ff4" xlink:title="marian::sparse::CSR\l::allocRowIndices">
<polygon fill="white" stroke="black" points="145,-49.5 145,-79.5 254,-79.5 254,-49.5 145,-49.5"/>
<text text-anchor="start" x="153" y="-67.5" font-family="Helvetica,sans-Serif" font-size="10.00">marian::sparse::CSR</text>
<text text-anchor="middle" x="199.5" y="-56.5" font-family="Helvetica,sans-Serif" font-size="10.00">::allocRowIndices</text>
</a>
</g>
</g>
<!-- Node1&#45;&gt;Node2 -->
<g id="edge1" class="edge"><title>Node1&#45;&gt;Node2</title>
<path fill="none" stroke="midnightblue" d="M119.046,-50.6095C127.557,-52.0974 136.22,-53.6119 144.545,-55.0672"/>
<polygon fill="midnightblue" stroke="midnightblue" points="119.608,-47.1547 109.155,-48.8802 118.403,-54.0501 119.608,-47.1547"/>
</g>
<!-- Node4 -->
<g id="node4" class="node"><title>Node4</title>
<g id="a_node4"><a xlink:href="$d1/d62/classmarian_1_1sparse_1_1CSR.html#ac4d7eff581b229cb8ad0b65f80a39b62" xlink:title="marian::sparse::CSR\l::debug">
<polygon fill="white" stroke="black" points="145,-0.5 145,-30.5 254,-30.5 254,-0.5 145,-0.5"/>
<text text-anchor="start" x="153" y="-18.5" font-family="Helvetica,sans-Serif" font-size="10.00">marian::sparse::CSR</text>
<text text-anchor="middle" x="199.5" y="-7.5" font-family="Helvetica,sans-Serif" font-size="10.00">::debug</text>
</a>
</g>
</g>
<!-- Node1&#45;&gt;Node4 -->
<g id="edge3" class="edge"><title>Node1&#45;&gt;Node4</title>
<path fill="none" stroke="midnightblue" d="M119.046,-28.8349C127.557,-27.4065 136.22,-25.9526 144.545,-24.5555"/>
<polygon fill="midnightblue" stroke="midnightblue" points="118.438,-25.388 109.155,-30.495 119.596,-32.2915 118.438,-25.388"/>
</g>
<!-- Node3 -->
<g id="node3" class="node"><title>Node3</title>
<g id="a_node3"><a xlink:href="$d1/d62/classmarian_1_1sparse_1_1CSR.html#ac6c38489d34bc7aded9878e9d92c9dce" xlink:title="marian::sparse::CSR::CSR">
<polygon fill="white" stroke="black" points="290,-55 290,-74 427,-74 427,-55 290,-55"/>
<text text-anchor="middle" x="358.5" y="-62" font-family="Helvetica,sans-Serif" font-size="10.00">marian::sparse::CSR::CSR</text>
</a>
</g>
</g>
<!-- Node2&#45;&gt;Node3 -->
<g id="edge2" class="edge"><title>Node2&#45;&gt;Node3</title>
<path fill="none" stroke="midnightblue" d="M264.279,-64.5C272.75,-64.5 281.459,-64.5 289.991,-64.5"/>
<polygon fill="midnightblue" stroke="midnightblue" points="264.091,-61.0001 254.091,-64.5 264.091,-68.0001 264.091,-61.0001"/>
</g>
</g>
</svg>
