<?xml version="1.0" encoding="UTF-8" standalone="no"?>
<!DOCTYPE svg PUBLIC "-//W3C//DTD SVG 1.1//EN"
 "http://www.w3.org/Graphics/SVG/1.1/DTD/svg11.dtd">
<!-- Generated by graphviz version 2.38.0 (20140413.2041)
 -->
<!-- Title: marian::sparse::CSR::CSR Pages: 1 -->
<svg width="457pt" height="137pt"
 viewBox="0.00 0.00 457.00 137.00" xmlns="http://www.w3.org/2000/svg" xmlns:xlink="http://www.w3.org/1999/xlink">
<g id="graph0" class="graph" transform="scale(1 1) rotate(0) translate(4 133)">
<title>marian::sparse::CSR::CSR</title>
<polygon fill="white" stroke="none" points="-4,4 -4,-133 453,-133 453,4 -4,4"/>
<!-- Node1 -->
<g id="node1" class="node"><title>Node1</title>
<polygon fill="#bfbfbf" stroke="black" points="0,-55 0,-74 137,-74 137,-55 0,-55"/>
<text text-anchor="middle" x="68.5" y="-62" font-family="Helvetica,sans-Serif" font-size="10.00">marian::sparse::CSR::CSR</text>
</g>
<!-- Node2 -->
<g id="node2" class="node"><title>Node2</title>
<g id="a_node2"><a xlink:href="$d1/d62/classmarian_1_1sparse_1_1CSR.html#a4b280206ea0651821d1993cb38d2ada7" xlink:title="marian::sparse::CSR\l::allocValues">
<polygon fill="white" stroke="black" points="173,-98.5 173,-128.5 282,-128.5 282,-98.5 173,-98.5"/>
<text text-anchor="start" x="181" y="-116.5" font-family="Helvetica,sans-Serif" font-size="10.00">marian::sparse::CSR</text>
<text text-anchor="middle" x="227.5" y="-105.5" font-family="Helvetica,sans-Serif" font-size="10.00">::allocValues</text>
</a>
</g>
</g>
<!-- Node1&#45;&gt;Node2 -->
<g id="edge1" class="edge"><title>Node1&#45;&gt;Node2</title>
<path fill="none" stroke="midnightblue" d="M100.144,-74.064C119.587,-80.1321 145.363,-88.177 168.562,-95.4174"/>
<polygon fill="midnightblue" stroke="midnightblue" points="167.732,-98.8247 178.32,-98.463 169.817,-92.1426 167.732,-98.8247"/>
</g>
<!-- Node4 -->
<g id="node4" class="node"><title>Node4</title>
<g id="a_node4"><a xlink:href="$d1/d62/classmarian_1_1sparse_1_1CSR.html#a35eb04afb14985e6fe9ce75b3a8f0ff4" xlink:title="marian::sparse::CSR\l::allocRowIndices">
<polygon fill="white" stroke="black" points="173,-0.5 173,-30.5 282,-30.5 282,-0.5 173,-0.5"/>
<text text-anchor="start" x="181" y="-18.5" font-family="Helvetica,sans-Serif" font-size="10.00">marian::sparse::CSR</text>
<text text-anchor="middle" x="227.5" y="-7.5" font-family="Helvetica,sans-Serif" font-size="10.00">::allocRowIndices</text>
</a>
</g>
</g>
<!-- Node1&#45;&gt;Node4 -->
<g id="edge3" class="edge"><title>Node1&#45;&gt;Node4</title>
<path fill="none" stroke="midnightblue" d="M100.144,-54.936C119.587,-48.8679 145.363,-40.823 168.562,-33.5826"/>
<polygon fill="midnightblue" stroke="midnightblue" points="169.817,-36.8574 178.32,-30.537 167.732,-30.1753 169.817,-36.8574"/>
</g>
<!-- Node6 -->
<g id="node6" class="node"><title>Node6</title>
<g id="a_node6"><a xlink:href="$d1/d62/classmarian_1_1sparse_1_1CSR.html#a0b0089d20b429d67d3483627d577815d" xlink:title="marian::sparse::CSR\l::allocColIndices">
<polygon fill="white" stroke="black" points="173,-49.5 173,-79.5 282,-79.5 282,-49.5 173,-49.5"/>
<text text-anchor="start" x="181" y="-67.5" font-family="Helvetica,sans-Serif" font-size="10.00">marian::sparse::CSR</text>
<text text-anchor="middle" x="227.5" y="-56.5" font-family="Helvetica,sans-Serif" font-size="10.00">::allocColIndices</text>
</a>
</g>
</g>
<!-- Node1&#45;&gt;Node6 -->
<g id="edge5" class="edge"><title>Node1&#45;&gt;Node6</title>
<path fill="none" stroke="midnightblue" d="M137.449,-64.5C145.724,-64.5 154.157,-64.5 162.374,-64.5"/>
<polygon fill="midnightblue" stroke="midnightblue" points="162.636,-68.0001 172.636,-64.5 162.636,-61.0001 162.636,-68.0001"/>
</g>
<!-- Node3 -->
<g id="node3" class="node"><title>Node3</title>
<g id="a_node3"><a xlink:href="$d1/d62/classmarian_1_1sparse_1_1CSR.html#a9b68bf8d20aacba28f927880c2400b52" xlink:title="marian::sparse::CSR::nnz">
<polygon fill="white" stroke="black" points="318,-79 318,-98 449,-98 449,-79 318,-79"/>
<text text-anchor="middle" x="383.5" y="-86" font-family="Helvetica,sans-Serif" font-size="10.00">marian::sparse::CSR::nnz</text>
</a>
</g>
</g>
<!-- Node2&#45;&gt;Node3 -->
<g id="edge2" class="edge"><title>Node2&#45;&gt;Node3</title>
<path fill="none" stroke="midnightblue" d="M282.362,-104.756C292.55,-103.102 303.334,-101.352 313.904,-99.6357"/>
<polygon fill="midnightblue" stroke="midnightblue" points="314.636,-103.063 323.946,-98.0055 313.515,-96.1532 314.636,-103.063"/>
</g>
<!-- Node5 -->
<g id="node5" class="node"><title>Node5</title>
<g id="a_node5"><a xlink:href="$d1/d62/classmarian_1_1sparse_1_1CSR.html#a257b7c6a4c057270dace672caecdf69a" xlink:title="marian::sparse::CSR\l::rows">
<polygon fill="white" stroke="black" points="329,-0.5 329,-30.5 438,-30.5 438,-0.5 329,-0.5"/>
<text text-anchor="start" x="337" y="-18.5" font-family="Helvetica,sans-Serif" font-size="10.00">marian::sparse::CSR</text>
<text text-anchor="middle" x="383.5" y="-7.5" font-family="Helvetica,sans-Serif" font-size="10.00">::rows</text>
</a>
</g>
</g>
<!-- Node4&#45;&gt;Node5 -->
<g id="edge4" class="edge"><title>Node4&#45;&gt;Node5</title>
<path fill="none" stroke="midnightblue" d="M282.362,-15.5C294.152,-15.5 306.741,-15.5 318.873,-15.5"/>
<polygon fill="midnightblue" stroke="midnightblue" points="318.929,-19.0001 328.929,-15.5 318.929,-12.0001 318.929,-19.0001"/>
</g>
<!-- Node6&#45;&gt;Node3 -->
<g id="edge6" class="edge"><title>Node6&#45;&gt;Node3</title>
<path fill="none" stroke="midnightblue" d="M282.362,-72.894C291.696,-74.3487 301.531,-75.8814 311.242,-77.3949"/>
<polygon fill="midnightblue" stroke="midnightblue" points="310.873,-80.8796 321.293,-78.9612 311.951,-73.963 310.873,-80.8796"/>
</g>
</g>
</svg>
