<?xml version="1.0" encoding="UTF-8" standalone="no"?>
<!DOCTYPE svg PUBLIC "-//W3C//DTD SVG 1.1//EN"
 "http://www.w3.org/Graphics/SVG/1.1/DTD/svg11.dtd">
<!-- Generated by graphviz version 2.38.0 (20140413.2041)
 -->
<!-- Title: amunmt::MosesPlugin::GetGod Pages: 1 -->
<svg width="272pt" height="137pt"
 viewBox="0.00 0.00 272.00 137.00" xmlns="http://www.w3.org/2000/svg" xmlns:xlink="http://www.w3.org/1999/xlink">
<g id="graph0" class="graph" transform="scale(1 1) rotate(0) translate(4 133)">
<title>amunmt::MosesPlugin::GetGod</title>
<polygon fill="white" stroke="none" points="-4,4 -4,-133 268,-133 268,4 -4,4"/>
<!-- Node1 -->
<g id="node1" class="node"><title>Node1</title>
<polygon fill="#bfbfbf" stroke="black" points="0,-49.5 0,-79.5 114,-79.5 114,-49.5 0,-49.5"/>
<text text-anchor="start" x="8" y="-67.5" font-family="Helvetica,sans-Serif" font-size="10.00">amunmt::MosesPlugin</text>
<text text-anchor="middle" x="57" y="-56.5" font-family="Helvetica,sans-Serif" font-size="10.00">::GetGod</text>
</g>
<!-- Node2 -->
<g id="node2" class="node"><title>Node2</title>
<g id="a_node2"><a xlink:href="$df/dc8/classamunmt_1_1MosesPlugin.html#a2e31053e2017170243ec920034d2cffe" xlink:title="amunmt::MosesPlugin\l::initGod">
<polygon fill="white" stroke="black" points="150,-98.5 150,-128.5 264,-128.5 264,-98.5 150,-98.5"/>
<text text-anchor="start" x="158" y="-116.5" font-family="Helvetica,sans-Serif" font-size="10.00">amunmt::MosesPlugin</text>
<text text-anchor="middle" x="207" y="-105.5" font-family="Helvetica,sans-Serif" font-size="10.00">::initGod</text>
</a>
</g>
</g>
<!-- Node1&#45;&gt;Node2 -->
<g id="edge1" class="edge"><title>Node1&#45;&gt;Node2</title>
<path fill="none" stroke="midnightblue" d="M103.613,-79.6014C118.594,-84.5615 135.405,-90.1274 151.007,-95.2929"/>
<polygon fill="midnightblue" stroke="midnightblue" points="149.945,-98.628 160.538,-98.4484 152.145,-91.9827 149.945,-98.628"/>
</g>
<!-- Node3 -->
<g id="node3" class="node"><title>Node3</title>
<g id="a_node3"><a xlink:href="$df/dc8/classamunmt_1_1MosesPlugin.html#ac47178604826bfe65710f1647fe0eb48" xlink:title="amunmt::MosesPlugin\l::SetSource">
<polygon fill="white" stroke="black" points="150,-49.5 150,-79.5 264,-79.5 264,-49.5 150,-49.5"/>
<text text-anchor="start" x="158" y="-67.5" font-family="Helvetica,sans-Serif" font-size="10.00">amunmt::MosesPlugin</text>
<text text-anchor="middle" x="207" y="-56.5" font-family="Helvetica,sans-Serif" font-size="10.00">::SetSource</text>
</a>
</g>
</g>
<!-- Node1&#45;&gt;Node3 -->
<g id="edge2" class="edge"><title>Node1&#45;&gt;Node3</title>
<path fill="none" stroke="midnightblue" d="M114.375,-64.5C122.621,-64.5 131.178,-64.5 139.602,-64.5"/>
<polygon fill="midnightblue" stroke="midnightblue" points="139.782,-68.0001 149.782,-64.5 139.782,-61.0001 139.782,-68.0001"/>
</g>
<!-- Node4 -->
<g id="node4" class="node"><title>Node4</title>
<g id="a_node4"><a xlink:href="$df/dc8/classamunmt_1_1MosesPlugin.html#adfad6d011db069e2a3c07c3188c9ad25" xlink:title="amunmt::MosesPlugin\l::Score">
<polygon fill="white" stroke="black" points="150,-0.5 150,-30.5 264,-30.5 264,-0.5 150,-0.5"/>
<text text-anchor="start" x="158" y="-18.5" font-family="Helvetica,sans-Serif" font-size="10.00">amunmt::MosesPlugin</text>
<text text-anchor="middle" x="207" y="-7.5" font-family="Helvetica,sans-Serif" font-size="10.00">::Score</text>
</a>
</g>
</g>
<!-- Node1&#45;&gt;Node4 -->
<g id="edge3" class="edge"><title>Node1&#45;&gt;Node4</title>
<path fill="none" stroke="midnightblue" d="M103.613,-49.3986C118.594,-44.4385 135.405,-38.8726 151.007,-33.7071"/>
<polygon fill="midnightblue" stroke="midnightblue" points="152.145,-37.0173 160.538,-30.5516 149.945,-30.372 152.145,-37.0173"/>
</g>
</g>
</svg>
