<?xml version="1.0" encoding="UTF-8" standalone="no"?>
<!DOCTYPE svg PUBLIC "-//W3C//DTD SVG 1.1//EN"
 "http://www.w3.org/Graphics/SVG/1.1/DTD/svg11.dtd">
<!-- Generated by graphviz version 2.38.0 (20140413.2041)
 -->
<!-- Title: amunmt::GPU::Decoder::Alignment&lt; Weights &gt; Pages: 1 -->
<svg width="690pt" height="738pt"
 viewBox="0.00 0.00 690.00 738.00" xmlns="http://www.w3.org/2000/svg" xmlns:xlink="http://www.w3.org/1999/xlink">
<g id="graph0" class="graph" transform="scale(1 1) rotate(0) translate(4 734)">
<title>amunmt::GPU::Decoder::Alignment&lt; Weights &gt;</title>
<polygon fill="white" stroke="none" points="-4,4 -4,-734 686,-734 686,4 -4,4"/>
<!-- Node1 -->
<g id="node1" class="node"><title>Node1</title>
<polygon fill="#bfbfbf" stroke="black" points="190.5,-0.5 190.5,-178.5 335.5,-178.5 335.5,-0.5 190.5,-0.5"/>
<text text-anchor="start" x="198.5" y="-166.5" font-family="Helvetica,sans-Serif" font-size="10.00">amunmt::GPU::Decoder</text>
<text text-anchor="middle" x="263" y="-155.5" font-family="Helvetica,sans-Serif" font-size="10.00">::Alignment&lt; Weights &gt;</text>
<polyline fill="none" stroke="black" points="190.5,-148.5 335.5,-148.5 "/>
<text text-anchor="start" x="198.5" y="-136.5" font-family="Helvetica,sans-Serif" font-size="10.00">&#45; SCU_</text>
<text text-anchor="start" x="198.5" y="-125.5" font-family="Helvetica,sans-Serif" font-size="10.00">&#45; Temp1_</text>
<text text-anchor="start" x="198.5" y="-114.5" font-family="Helvetica,sans-Serif" font-size="10.00">&#45; Temp2_</text>
<text text-anchor="start" x="198.5" y="-103.5" font-family="Helvetica,sans-Serif" font-size="10.00">&#45; A_</text>
<text text-anchor="start" x="198.5" y="-92.5" font-family="Helvetica,sans-Serif" font-size="10.00">&#45; Ones_</text>
<text text-anchor="start" x="198.5" y="-81.5" font-family="Helvetica,sans-Serif" font-size="10.00">&#45; Sums_</text>
<polyline fill="none" stroke="black" points="190.5,-74.5 335.5,-74.5 "/>
<text text-anchor="start" x="198.5" y="-62.5" font-family="Helvetica,sans-Serif" font-size="10.00">+ Alignment()</text>
<text text-anchor="start" x="198.5" y="-51.5" font-family="Helvetica,sans-Serif" font-size="10.00">+ Init()</text>
<text text-anchor="start" x="198.5" y="-40.5" font-family="Helvetica,sans-Serif" font-size="10.00">+ GetAlignedSourceContext()</text>
<text text-anchor="start" x="198.5" y="-29.5" font-family="Helvetica,sans-Serif" font-size="10.00">+ GetAttention()</text>
<text text-anchor="start" x="198.5" y="-18.5" font-family="Helvetica,sans-Serif" font-size="10.00">+ GetAttention()</text>
<text text-anchor="start" x="198.5" y="-7.5" font-family="Helvetica,sans-Serif" font-size="10.00">&#45; Alignment()</text>
</g>
<!-- Node2 -->
<g id="node2" class="node"><title>Node2</title>
<g id="a_node2"><a xlink:href="$d4/dd1/classamunmt_1_1GPU_1_1mblas_1_1Array.html" xlink:title="{amunmt::GPU::mblas\l::Array\&lt; uint \&gt;\n|# m_size\l# m_maxSize\l# m_arr\l|+ Array()\l+ Array()\l+ Array()\l+ Array()\l+ ~Array()\l+ size()\l+ data()\l+ data()\l+ resize()\l+ reserve()\l+ clear()\l}">
<polygon fill="white" stroke="black" points="148,-259.5 148,-459.5 260,-459.5 260,-259.5 148,-259.5"/>
<text text-anchor="start" x="156" y="-447.5" font-family="Helvetica,sans-Serif" font-size="10.00">amunmt::GPU::mblas</text>
<text text-anchor="middle" x="204" y="-436.5" font-family="Helvetica,sans-Serif" font-size="10.00">::Array&lt; uint &gt;</text>
<polyline fill="none" stroke="black" points="148,-429.5 260,-429.5 "/>
<text text-anchor="start" x="156" y="-417.5" font-family="Helvetica,sans-Serif" font-size="10.00"># m_size</text>
<text text-anchor="start" x="156" y="-406.5" font-family="Helvetica,sans-Serif" font-size="10.00"># m_maxSize</text>
<text text-anchor="start" x="156" y="-395.5" font-family="Helvetica,sans-Serif" font-size="10.00"># m_arr</text>
<polyline fill="none" stroke="black" points="148,-388.5 260,-388.5 "/>
<text text-anchor="start" x="156" y="-376.5" font-family="Helvetica,sans-Serif" font-size="10.00">+ Array()</text>
<text text-anchor="start" x="156" y="-365.5" font-family="Helvetica,sans-Serif" font-size="10.00">+ Array()</text>
<text text-anchor="start" x="156" y="-354.5" font-family="Helvetica,sans-Serif" font-size="10.00">+ Array()</text>
<text text-anchor="start" x="156" y="-343.5" font-family="Helvetica,sans-Serif" font-size="10.00">+ Array()</text>
<text text-anchor="start" x="156" y="-332.5" font-family="Helvetica,sans-Serif" font-size="10.00">+ ~Array()</text>
<text text-anchor="start" x="156" y="-321.5" font-family="Helvetica,sans-Serif" font-size="10.00">+ size()</text>
<text text-anchor="start" x="156" y="-310.5" font-family="Helvetica,sans-Serif" font-size="10.00">+ data()</text>
<text text-anchor="start" x="156" y="-299.5" font-family="Helvetica,sans-Serif" font-size="10.00">+ data()</text>
<text text-anchor="start" x="156" y="-288.5" font-family="Helvetica,sans-Serif" font-size="10.00">+ resize()</text>
<text text-anchor="start" x="156" y="-277.5" font-family="Helvetica,sans-Serif" font-size="10.00">+ reserve()</text>
<text text-anchor="start" x="156" y="-266.5" font-family="Helvetica,sans-Serif" font-size="10.00">+ clear()</text>
</a>
</g>
</g>
<!-- Node2&#45;&gt;Node1 -->
<g id="edge1" class="edge"><title>Node2&#45;&gt;Node1</title>
<path fill="none" stroke="#404040" d="M211.016,-259.151C213.608,-238.44 217.153,-216.871 222,-197 222.555,-194.726 223.145,-192.436 223.768,-190.135"/>
<polygon fill="none" stroke="#404040" points="223.779,-190.096 221.608,-183.219 227.122,-178.571 229.292,-185.448 223.779,-190.096"/>
<text text-anchor="middle" x="261.5" y="-200" font-family="Helvetica,sans-Serif" font-size="10.00"> &#45;dBatchMapping_</text>
</g>
<!-- Node3 -->
<g id="node3" class="node"><title>Node3</title>
<g id="a_node3"><a xlink:href="$dc/dce/structamunmt_1_1GPU_1_1Weights.html" xlink:title="{amunmt::GPU::Weights\n|+ encForwardGRU_\l+ encBackwardGRU_\l+ encForwardLSTM_\l+ encBackwardLSTM_\l+ encForwardMLSTM_\l+ encBackwardMLSTM_\l+ decGru1_\l+ decGru2_\l+ decLSTM1_\l+ decLSTM2_\l+ decMLSTM1_\l+ decMLSTM2_\l+ device_\l|+ Weights()\l+ Weights()\l+ Weights()\l+ GetDevice()\l&#45; initEncForward()\l&#45; initEncBackward()\l&#45; initDec1()\l&#45; initDec2()\l}">
<polygon fill="white" stroke="black" points="278.5,-226.5 278.5,-492.5 403.5,-492.5 403.5,-226.5 278.5,-226.5"/>
<text text-anchor="middle" x="341" y="-480.5" font-family="Helvetica,sans-Serif" font-size="10.00">amunmt::GPU::Weights</text>
<polyline fill="none" stroke="black" points="278.5,-473.5 403.5,-473.5 "/>
<text text-anchor="start" x="286.5" y="-461.5" font-family="Helvetica,sans-Serif" font-size="10.00">+ encForwardGRU_</text>
<text text-anchor="start" x="286.5" y="-450.5" font-family="Helvetica,sans-Serif" font-size="10.00">+ encBackwardGRU_</text>
<text text-anchor="start" x="286.5" y="-439.5" font-family="Helvetica,sans-Serif" font-size="10.00">+ encForwardLSTM_</text>
<text text-anchor="start" x="286.5" y="-428.5" font-family="Helvetica,sans-Serif" font-size="10.00">+ encBackwardLSTM_</text>
<text text-anchor="start" x="286.5" y="-417.5" font-family="Helvetica,sans-Serif" font-size="10.00">+ encForwardMLSTM_</text>
<text text-anchor="start" x="286.5" y="-406.5" font-family="Helvetica,sans-Serif" font-size="10.00">+ encBackwardMLSTM_</text>
<text text-anchor="start" x="286.5" y="-395.5" font-family="Helvetica,sans-Serif" font-size="10.00">+ decGru1_</text>
<text text-anchor="start" x="286.5" y="-384.5" font-family="Helvetica,sans-Serif" font-size="10.00">+ decGru2_</text>
<text text-anchor="start" x="286.5" y="-373.5" font-family="Helvetica,sans-Serif" font-size="10.00">+ decLSTM1_</text>
<text text-anchor="start" x="286.5" y="-362.5" font-family="Helvetica,sans-Serif" font-size="10.00">+ decLSTM2_</text>
<text text-anchor="start" x="286.5" y="-351.5" font-family="Helvetica,sans-Serif" font-size="10.00">+ decMLSTM1_</text>
<text text-anchor="start" x="286.5" y="-340.5" font-family="Helvetica,sans-Serif" font-size="10.00">+ decMLSTM2_</text>
<text text-anchor="start" x="286.5" y="-329.5" font-family="Helvetica,sans-Serif" font-size="10.00">+ device_</text>
<polyline fill="none" stroke="black" points="278.5,-322.5 403.5,-322.5 "/>
<text text-anchor="start" x="286.5" y="-310.5" font-family="Helvetica,sans-Serif" font-size="10.00">+ Weights()</text>
<text text-anchor="start" x="286.5" y="-299.5" font-family="Helvetica,sans-Serif" font-size="10.00">+ Weights()</text>
<text text-anchor="start" x="286.5" y="-288.5" font-family="Helvetica,sans-Serif" font-size="10.00">+ Weights()</text>
<text text-anchor="start" x="286.5" y="-277.5" font-family="Helvetica,sans-Serif" font-size="10.00">+ GetDevice()</text>
<text text-anchor="start" x="286.5" y="-266.5" font-family="Helvetica,sans-Serif" font-size="10.00">&#45; initEncForward()</text>
<text text-anchor="start" x="286.5" y="-255.5" font-family="Helvetica,sans-Serif" font-size="10.00">&#45; initEncBackward()</text>
<text text-anchor="start" x="286.5" y="-244.5" font-family="Helvetica,sans-Serif" font-size="10.00">&#45; initDec1()</text>
<text text-anchor="start" x="286.5" y="-233.5" font-family="Helvetica,sans-Serif" font-size="10.00">&#45; initDec2()</text>
</a>
</g>
</g>
<!-- Node3&#45;&gt;Node1 -->
<g id="edge2" class="edge"><title>Node3&#45;&gt;Node1</title>
<path fill="none" stroke="#404040" d="M309.443,-226.438C306.703,-216.444 303.876,-206.541 301,-197 300.32,-194.744 299.621,-192.466 298.904,-190.173"/>
<polygon fill="none" stroke="#404040" points="298.861,-190.038 293.223,-185.543 295.203,-178.609 300.842,-183.104 298.861,-190.038"/>
<text text-anchor="middle" x="313.5" y="-200" font-family="Helvetica,sans-Serif" font-size="10.00"> &#45;w_</text>
</g>
<!-- Node4 -->
<g id="node4" class="node"><title>Node4</title>
<g id="a_node4"><a xlink:href="$db/d14/structamunmt_1_1GPU_1_1Weights_1_1DecSoftmax.html" xlink:title="{amunmt::GPU::Weights\l::DecSoftmax\n|+ W1_\l+ B1_\l+ W2_\l+ B2_\l+ W3_\l+ B3_\l+ W4_\l+ B4_\l+ Gamma_0_\l+ Gamma_1_\l+ Gamma_2_\l|+ DecSoftmax()\l+ DecSoftmax()\l}">
<polygon fill="white" stroke="black" points="0,-540.5 0,-729.5 122,-729.5 122,-540.5 0,-540.5"/>
<text text-anchor="start" x="8" y="-717.5" font-family="Helvetica,sans-Serif" font-size="10.00">amunmt::GPU::Weights</text>
<text text-anchor="middle" x="61" y="-706.5" font-family="Helvetica,sans-Serif" font-size="10.00">::DecSoftmax</text>
<polyline fill="none" stroke="black" points="0,-699.5 122,-699.5 "/>
<text text-anchor="start" x="8" y="-687.5" font-family="Helvetica,sans-Serif" font-size="10.00">+ W1_</text>
<text text-anchor="start" x="8" y="-676.5" font-family="Helvetica,sans-Serif" font-size="10.00">+ B1_</text>
<text text-anchor="start" x="8" y="-665.5" font-family="Helvetica,sans-Serif" font-size="10.00">+ W2_</text>
<text text-anchor="start" x="8" y="-654.5" font-family="Helvetica,sans-Serif" font-size="10.00">+ B2_</text>
<text text-anchor="start" x="8" y="-643.5" font-family="Helvetica,sans-Serif" font-size="10.00">+ W3_</text>
<text text-anchor="start" x="8" y="-632.5" font-family="Helvetica,sans-Serif" font-size="10.00">+ B3_</text>
<text text-anchor="start" x="8" y="-621.5" font-family="Helvetica,sans-Serif" font-size="10.00">+ W4_</text>
<text text-anchor="start" x="8" y="-610.5" font-family="Helvetica,sans-Serif" font-size="10.00">+ B4_</text>
<text text-anchor="start" x="8" y="-599.5" font-family="Helvetica,sans-Serif" font-size="10.00">+ Gamma_0_</text>
<text text-anchor="start" x="8" y="-588.5" font-family="Helvetica,sans-Serif" font-size="10.00">+ Gamma_1_</text>
<text text-anchor="start" x="8" y="-577.5" font-family="Helvetica,sans-Serif" font-size="10.00">+ Gamma_2_</text>
<polyline fill="none" stroke="black" points="0,-570.5 122,-570.5 "/>
<text text-anchor="start" x="8" y="-558.5" font-family="Helvetica,sans-Serif" font-size="10.00">+ DecSoftmax()</text>
<text text-anchor="start" x="8" y="-547.5" font-family="Helvetica,sans-Serif" font-size="10.00">+ DecSoftmax()</text>
</a>
</g>
</g>
<!-- Node4&#45;&gt;Node3 -->
<g id="edge3" class="edge"><title>Node4&#45;&gt;Node3</title>
<path fill="none" stroke="#404040" d="M122.302,-547.885C125.143,-545.133 128.045,-542.493 131,-540 152.727,-521.674 161.248,-520.604 188,-511 222.709,-498.54 239.55,-515.196 269,-493 269.101,-492.924 269.202,-492.847 269.303,-492.77"/>
<polygon fill="none" stroke="#404040" points="269.174,-492.88 271.175,-485.952 278.34,-485.135 276.339,-492.063 269.174,-492.88"/>
<text text-anchor="middle" x="221.5" y="-514" font-family="Helvetica,sans-Serif" font-size="10.00"> +decSoftmax_</text>
</g>
<!-- Node5 -->
<g id="node5" class="node"><title>Node5</title>
<g id="a_node5"><a xlink:href="$d2/db1/structamunmt_1_1GPU_1_1Weights_1_1DecInit.html" xlink:title="{amunmt::GPU::Weights\l::DecInit\n|+ Wi_\l+ Bi_\l+ Gamma_\l|+ DecInit()\l+ DecInit()\l}">
<polygon fill="white" stroke="black" points="140,-584.5 140,-685.5 262,-685.5 262,-584.5 140,-584.5"/>
<text text-anchor="start" x="148" y="-673.5" font-family="Helvetica,sans-Serif" font-size="10.00">amunmt::GPU::Weights</text>
<text text-anchor="middle" x="201" y="-662.5" font-family="Helvetica,sans-Serif" font-size="10.00">::DecInit</text>
<polyline fill="none" stroke="black" points="140,-655.5 262,-655.5 "/>
<text text-anchor="start" x="148" y="-643.5" font-family="Helvetica,sans-Serif" font-size="10.00">+ Wi_</text>
<text text-anchor="start" x="148" y="-632.5" font-family="Helvetica,sans-Serif" font-size="10.00">+ Bi_</text>
<text text-anchor="start" x="148" y="-621.5" font-family="Helvetica,sans-Serif" font-size="10.00">+ Gamma_</text>
<polyline fill="none" stroke="black" points="140,-614.5 262,-614.5 "/>
<text text-anchor="start" x="148" y="-602.5" font-family="Helvetica,sans-Serif" font-size="10.00">+ DecInit()</text>
<text text-anchor="start" x="148" y="-591.5" font-family="Helvetica,sans-Serif" font-size="10.00">+ DecInit()</text>
</a>
</g>
</g>
<!-- Node5&#45;&gt;Node3 -->
<g id="edge4" class="edge"><title>Node5&#45;&gt;Node3</title>
<path fill="none" stroke="#404040" d="M226.353,-584.471C239.485,-558.816 256.216,-526.132 272.81,-493.713"/>
<polygon fill="none" stroke="#404040" points="272.96,-493.421 272.133,-486.258 278.428,-482.74 279.254,-489.903 272.96,-493.421"/>
<text text-anchor="middle" x="285" y="-514" font-family="Helvetica,sans-Serif" font-size="10.00"> +decInit_</text>
</g>
<!-- Node6 -->
<g id="node6" class="node"><title>Node6</title>
<g id="a_node6"><a xlink:href="$d9/d93/structamunmt_1_1GPU_1_1Weights_1_1DecEmbeddings.html" xlink:title="{amunmt::GPU::Weights\l::DecEmbeddings\n|+ E_\l|+ DecEmbeddings()\l+ DecEmbeddings()\l}">
<polygon fill="white" stroke="black" points="280,-595.5 280,-674.5 402,-674.5 402,-595.5 280,-595.5"/>
<text text-anchor="start" x="288" y="-662.5" font-family="Helvetica,sans-Serif" font-size="10.00">amunmt::GPU::Weights</text>
<text text-anchor="middle" x="341" y="-651.5" font-family="Helvetica,sans-Serif" font-size="10.00">::DecEmbeddings</text>
<polyline fill="none" stroke="black" points="280,-644.5 402,-644.5 "/>
<text text-anchor="start" x="288" y="-632.5" font-family="Helvetica,sans-Serif" font-size="10.00">+ E_</text>
<polyline fill="none" stroke="black" points="280,-625.5 402,-625.5 "/>
<text text-anchor="start" x="288" y="-613.5" font-family="Helvetica,sans-Serif" font-size="10.00">+ DecEmbeddings()</text>
<text text-anchor="start" x="288" y="-602.5" font-family="Helvetica,sans-Serif" font-size="10.00">+ DecEmbeddings()</text>
</a>
</g>
</g>
<!-- Node6&#45;&gt;Node3 -->
<g id="edge5" class="edge"><title>Node6&#45;&gt;Node3</title>
<path fill="none" stroke="#404040" d="M341,-595.394C341,-571.199 341,-538.339 341,-504.869"/>
<polygon fill="none" stroke="#404040" points="341,-504.525 337,-498.525 341,-492.525 345,-498.525 341,-504.525"/>
<text text-anchor="middle" x="383.5" y="-514" font-family="Helvetica,sans-Serif" font-size="10.00"> +decEmbeddings_</text>
</g>
<!-- Node7 -->
<g id="node7" class="node"><title>Node7</title>
<g id="a_node7"><a xlink:href="$dc/d6b/structamunmt_1_1GPU_1_1Weights_1_1EncEmbeddings.html" xlink:title="{amunmt::GPU::Weights\l::EncEmbeddings\n|+ E_\l|+ EncEmbeddings()\l+ EncEmbeddings()\l}">
<polygon fill="white" stroke="black" points="420,-595.5 420,-674.5 542,-674.5 542,-595.5 420,-595.5"/>
<text text-anchor="start" x="428" y="-662.5" font-family="Helvetica,sans-Serif" font-size="10.00">amunmt::GPU::Weights</text>
<text text-anchor="middle" x="481" y="-651.5" font-family="Helvetica,sans-Serif" font-size="10.00">::EncEmbeddings</text>
<polyline fill="none" stroke="black" points="420,-644.5 542,-644.5 "/>
<text text-anchor="start" x="428" y="-632.5" font-family="Helvetica,sans-Serif" font-size="10.00">+ E_</text>
<polyline fill="none" stroke="black" points="420,-625.5 542,-625.5 "/>
<text text-anchor="start" x="428" y="-613.5" font-family="Helvetica,sans-Serif" font-size="10.00">+ EncEmbeddings()</text>
<text text-anchor="start" x="428" y="-602.5" font-family="Helvetica,sans-Serif" font-size="10.00">+ EncEmbeddings()</text>
</a>
</g>
</g>
<!-- Node7&#45;&gt;Node3 -->
<g id="edge6" class="edge"><title>Node7&#45;&gt;Node3</title>
<path fill="none" stroke="#404040" d="M466.621,-595.424C457.075,-570.868 443.799,-538.604 430,-511 423.691,-498.379 416.738,-485.379 409.584,-472.554"/>
<polygon fill="none" stroke="#404040" points="409.433,-472.286 403.002,-469.025 403.537,-461.834 409.969,-465.095 409.433,-472.286"/>
<text text-anchor="middle" x="477.5" y="-514" font-family="Helvetica,sans-Serif" font-size="10.00"> +encEmbeddings_</text>
</g>
<!-- Node8 -->
<g id="node8" class="node"><title>Node8</title>
<g id="a_node8"><a xlink:href="$d3/d68/structamunmt_1_1GPU_1_1Weights_1_1DecAlignment.html" xlink:title="{amunmt::GPU::Weights\l::DecAlignment\n|+ V_\l+ W_\l+ B_\l+ U_\l+ C_\l+ Gamma_1_\l+ Gamma_2_\l|+ DecAlignment()\l+ DecAlignment()\l}">
<polygon fill="white" stroke="black" points="560,-562.5 560,-707.5 682,-707.5 682,-562.5 560,-562.5"/>
<text text-anchor="start" x="568" y="-695.5" font-family="Helvetica,sans-Serif" font-size="10.00">amunmt::GPU::Weights</text>
<text text-anchor="middle" x="621" y="-684.5" font-family="Helvetica,sans-Serif" font-size="10.00">::DecAlignment</text>
<polyline fill="none" stroke="black" points="560,-677.5 682,-677.5 "/>
<text text-anchor="start" x="568" y="-665.5" font-family="Helvetica,sans-Serif" font-size="10.00">+ V_</text>
<text text-anchor="start" x="568" y="-654.5" font-family="Helvetica,sans-Serif" font-size="10.00">+ W_</text>
<text text-anchor="start" x="568" y="-643.5" font-family="Helvetica,sans-Serif" font-size="10.00">+ B_</text>
<text text-anchor="start" x="568" y="-632.5" font-family="Helvetica,sans-Serif" font-size="10.00">+ U_</text>
<text text-anchor="start" x="568" y="-621.5" font-family="Helvetica,sans-Serif" font-size="10.00">+ C_</text>
<text text-anchor="start" x="568" y="-610.5" font-family="Helvetica,sans-Serif" font-size="10.00">+ Gamma_1_</text>
<text text-anchor="start" x="568" y="-599.5" font-family="Helvetica,sans-Serif" font-size="10.00">+ Gamma_2_</text>
<polyline fill="none" stroke="black" points="560,-592.5 682,-592.5 "/>
<text text-anchor="start" x="568" y="-580.5" font-family="Helvetica,sans-Serif" font-size="10.00">+ DecAlignment()</text>
<text text-anchor="start" x="568" y="-569.5" font-family="Helvetica,sans-Serif" font-size="10.00">+ DecAlignment()</text>
</a>
</g>
</g>
<!-- Node8&#45;&gt;Node3 -->
<g id="edge7" class="edge"><title>Node8&#45;&gt;Node3</title>
<path fill="none" stroke="#404040" d="M568.872,-562.277C562.96,-554.664 556.928,-547.111 551,-540 510.743,-491.707 456.652,-445.806 413.449,-412.511"/>
<polygon fill="none" stroke="#404040" points="413.382,-412.459 406.186,-411.997 403.845,-405.177 411.041,-405.639 413.382,-412.459"/>
<text text-anchor="middle" x="569" y="-514" font-family="Helvetica,sans-Serif" font-size="10.00"> +decAlignment_</text>
</g>
</g>
</svg>
