<?xml version="1.0" encoding="UTF-8" standalone="no"?>
<!DOCTYPE svg PUBLIC "-//W3C//DTD SVG 1.1//EN"
 "http://www.w3.org/Graphics/SVG/1.1/DTD/svg11.dtd">
<!-- Generated by graphviz version 2.38.0 (20140413.2041)
 -->
<!-- Title: amunmt::GPU::Encoder Pages: 1 -->
<svg width="466pt" height="535pt"
 viewBox="0.00 0.00 465.50 535.00" xmlns="http://www.w3.org/2000/svg" xmlns:xlink="http://www.w3.org/1999/xlink">
<g id="graph0" class="graph" transform="scale(1 1) rotate(0) translate(4 531)">
<title>amunmt::GPU::Encoder</title>
<polygon fill="white" stroke="none" points="-4,4 -4,-531 461.5,-531 461.5,4 -4,4"/>
<!-- Node1 -->
<g id="node1" class="node"><title>Node1</title>
<polygon fill="#bfbfbf" stroke="black" points="205.5,-0.5 205.5,-101.5 327.5,-101.5 327.5,-0.5 205.5,-0.5"/>
<text text-anchor="middle" x="266.5" y="-89.5" font-family="Helvetica,sans-Serif" font-size="10.00">amunmt::GPU::Encoder</text>
<polyline fill="none" stroke="black" points="205.5,-82.5 327.5,-82.5 "/>
<text text-anchor="middle" x="266.5" y="-70.5" font-family="Helvetica,sans-Serif" font-size="10.00"> </text>
<polyline fill="none" stroke="black" points="205.5,-63.5 327.5,-63.5 "/>
<text text-anchor="start" x="213.5" y="-51.5" font-family="Helvetica,sans-Serif" font-size="10.00">+ Encoder()</text>
<text text-anchor="start" x="213.5" y="-40.5" font-family="Helvetica,sans-Serif" font-size="10.00">+ Encode()</text>
<text text-anchor="start" x="213.5" y="-29.5" font-family="Helvetica,sans-Serif" font-size="10.00">&#45; InitForwardCell()</text>
<text text-anchor="start" x="213.5" y="-18.5" font-family="Helvetica,sans-Serif" font-size="10.00">&#45; InitBackwardCell()</text>
<text text-anchor="start" x="213.5" y="-7.5" font-family="Helvetica,sans-Serif" font-size="10.00">&#45; Encoder()</text>
</g>
<!-- Node2 -->
<g id="node2" class="node"><title>Node2</title>
<g id="a_node2"><a xlink:href="$dc/d4b/classamunmt_1_1GPU_1_1Encoder_1_1Embeddings.html" xlink:title="{amunmt::GPU::Encoder\l::Embeddings\&lt; amunmt\l::GPU::Weights::EncEmbeddings \&gt;\n||+ Embeddings()\l+ Lookup()\l&#45; Embeddings()\l}">
<polygon fill="white" stroke="black" points="0,-166 0,-267 173,-267 173,-166 0,-166"/>
<text text-anchor="start" x="8" y="-255" font-family="Helvetica,sans-Serif" font-size="10.00">amunmt::GPU::Encoder</text>
<text text-anchor="start" x="8" y="-244" font-family="Helvetica,sans-Serif" font-size="10.00">::Embeddings&lt; amunmt</text>
<text text-anchor="middle" x="86.5" y="-233" font-family="Helvetica,sans-Serif" font-size="10.00">::GPU::Weights::EncEmbeddings &gt;</text>
<polyline fill="none" stroke="black" points="0,-226 173,-226 "/>
<text text-anchor="middle" x="86.5" y="-214" font-family="Helvetica,sans-Serif" font-size="10.00"> </text>
<polyline fill="none" stroke="black" points="0,-207 173,-207 "/>
<text text-anchor="start" x="8" y="-195" font-family="Helvetica,sans-Serif" font-size="10.00">+ Embeddings()</text>
<text text-anchor="start" x="8" y="-184" font-family="Helvetica,sans-Serif" font-size="10.00">+ Lookup()</text>
<text text-anchor="start" x="8" y="-173" font-family="Helvetica,sans-Serif" font-size="10.00">&#45; Embeddings()</text>
</a>
</g>
</g>
<!-- Node2&#45;&gt;Node1 -->
<g id="edge1" class="edge"><title>Node2&#45;&gt;Node1</title>
<path fill="none" stroke="#404040" d="M141.484,-165.556C160.85,-147.966 182.778,-128.047 202.802,-109.859"/>
<polygon fill="none" stroke="#404040" points="202.97,-109.706 204.722,-102.711 211.853,-101.638 210.101,-108.633 202.97,-109.706"/>
<text text-anchor="middle" x="219.5" y="-128.5" font-family="Helvetica,sans-Serif" font-size="10.00"> &#45;embeddings_</text>
</g>
<!-- Node3 -->
<g id="node3" class="node"><title>Node3</title>
<g id="a_node3"><a xlink:href="$dc/d6b/structamunmt_1_1GPU_1_1Weights_1_1EncEmbeddings.html" xlink:title="{amunmt::GPU::Weights\l::EncEmbeddings\n|+ E_\l|+ EncEmbeddings()\l+ EncEmbeddings()\l}">
<polygon fill="white" stroke="black" points="25.5,-320.5 25.5,-399.5 147.5,-399.5 147.5,-320.5 25.5,-320.5"/>
<text text-anchor="start" x="33.5" y="-387.5" font-family="Helvetica,sans-Serif" font-size="10.00">amunmt::GPU::Weights</text>
<text text-anchor="middle" x="86.5" y="-376.5" font-family="Helvetica,sans-Serif" font-size="10.00">::EncEmbeddings</text>
<polyline fill="none" stroke="black" points="25.5,-369.5 147.5,-369.5 "/>
<text text-anchor="start" x="33.5" y="-357.5" font-family="Helvetica,sans-Serif" font-size="10.00">+ E_</text>
<polyline fill="none" stroke="black" points="25.5,-350.5 147.5,-350.5 "/>
<text text-anchor="start" x="33.5" y="-338.5" font-family="Helvetica,sans-Serif" font-size="10.00">+ EncEmbeddings()</text>
<text text-anchor="start" x="33.5" y="-327.5" font-family="Helvetica,sans-Serif" font-size="10.00">+ EncEmbeddings()</text>
</a>
</g>
</g>
<!-- Node3&#45;&gt;Node2 -->
<g id="edge2" class="edge"><title>Node3&#45;&gt;Node2</title>
<path fill="none" stroke="#404040" d="M86.5,-320.335C86.5,-307.614 86.5,-293.137 86.5,-279.144"/>
<polygon fill="none" stroke="#404040" points="86.5001,-279.027 82.5,-273.027 86.5,-267.027 90.5,-273.027 86.5001,-279.027"/>
<text text-anchor="middle" x="96" y="-294" font-family="Helvetica,sans-Serif" font-size="10.00"> &#45;w_</text>
</g>
<!-- Node4 -->
<g id="node4" class="node"><title>Node4</title>
<g id="a_node4"><a xlink:href="$dd/d5d/classamunmt_1_1GPU_1_1Encoder_1_1RNN.html" xlink:title="{amunmt::GPU::Encoder::RNN\n||+ RNN()\l+ InitializeState()\l+ GetNextState()\l+ Encode()\l+ GetStateLength()\l&#45; RNN()\l}">
<polygon fill="white" stroke="black" points="191.5,-160.5 191.5,-272.5 341.5,-272.5 341.5,-160.5 191.5,-160.5"/>
<text text-anchor="middle" x="266.5" y="-260.5" font-family="Helvetica,sans-Serif" font-size="10.00">amunmt::GPU::Encoder::RNN</text>
<polyline fill="none" stroke="black" points="191.5,-253.5 341.5,-253.5 "/>
<text text-anchor="middle" x="266.5" y="-241.5" font-family="Helvetica,sans-Serif" font-size="10.00"> </text>
<polyline fill="none" stroke="black" points="191.5,-234.5 341.5,-234.5 "/>
<text text-anchor="start" x="199.5" y="-222.5" font-family="Helvetica,sans-Serif" font-size="10.00">+ RNN()</text>
<text text-anchor="start" x="199.5" y="-211.5" font-family="Helvetica,sans-Serif" font-size="10.00">+ InitializeState()</text>
<text text-anchor="start" x="199.5" y="-200.5" font-family="Helvetica,sans-Serif" font-size="10.00">+ GetNextState()</text>
<text text-anchor="start" x="199.5" y="-189.5" font-family="Helvetica,sans-Serif" font-size="10.00">+ Encode()</text>
<text text-anchor="start" x="199.5" y="-178.5" font-family="Helvetica,sans-Serif" font-size="10.00">+ GetStateLength()</text>
<text text-anchor="start" x="199.5" y="-167.5" font-family="Helvetica,sans-Serif" font-size="10.00">&#45; RNN()</text>
</a>
</g>
</g>
<!-- Node4&#45;&gt;Node1 -->
<g id="edge3" class="edge"><title>Node4&#45;&gt;Node1</title>
<path fill="none" stroke="#404040" d="M266.5,-160.146C266.5,-145.161 266.5,-128.85 266.5,-113.546"/>
<polygon fill="none" stroke="#404040" points="266.5,-113.534 262.5,-107.534 266.5,-101.534 270.5,-107.534 266.5,-113.534"/>
<text text-anchor="middle" x="301" y="-134" font-family="Helvetica,sans-Serif" font-size="10.00"> &#45;forwardRnn_</text>
<text text-anchor="middle" x="301" y="-123" font-family="Helvetica,sans-Serif" font-size="10.00">&#45;backwardRnn_</text>
</g>
<!-- Node5 -->
<g id="node5" class="node"><title>Node5</title>
<g id="a_node5"><a xlink:href="$dc/d0c/structamunmt_1_1GPU_1_1CellState.html" xlink:title="{amunmt::GPU::CellState\n||+ CellState()\l+ CellState()\l}">
<polygon fill="white" stroke="black" points="174.5,-326 174.5,-394 300.5,-394 300.5,-326 174.5,-326"/>
<text text-anchor="middle" x="237.5" y="-382" font-family="Helvetica,sans-Serif" font-size="10.00">amunmt::GPU::CellState</text>
<polyline fill="none" stroke="black" points="174.5,-375 300.5,-375 "/>
<text text-anchor="middle" x="237.5" y="-363" font-family="Helvetica,sans-Serif" font-size="10.00"> </text>
<polyline fill="none" stroke="black" points="174.5,-356 300.5,-356 "/>
<text text-anchor="start" x="182.5" y="-344" font-family="Helvetica,sans-Serif" font-size="10.00">+ CellState()</text>
<text text-anchor="start" x="182.5" y="-333" font-family="Helvetica,sans-Serif" font-size="10.00">+ CellState()</text>
</a>
</g>
</g>
<!-- Node5&#45;&gt;Node4 -->
<g id="edge4" class="edge"><title>Node5&#45;&gt;Node4</title>
<path fill="none" stroke="#404040" d="M244.299,-325.825C246.837,-313.444 249.817,-298.901 252.756,-284.561"/>
<polygon fill="none" stroke="#404040" points="252.795,-284.37 250.081,-277.689 255.204,-272.614 257.918,-279.295 252.795,-284.37"/>
<text text-anchor="middle" x="269" y="-294" font-family="Helvetica,sans-Serif" font-size="10.00"> &#45;State_</text>
</g>
<!-- Node6 -->
<g id="node6" class="node"><title>Node6</title>
<polygon fill="white" stroke="#bfbfbf" points="179.5,-458.5 179.5,-526.5 295.5,-526.5 295.5,-458.5 179.5,-458.5"/>
<text text-anchor="start" x="187.5" y="-514.5" font-family="Helvetica,sans-Serif" font-size="10.00">std::unique_ptr&lt; mblas</text>
<text text-anchor="middle" x="237.5" y="-503.5" font-family="Helvetica,sans-Serif" font-size="10.00">::Matrix &gt;</text>
<polyline fill="none" stroke="#bfbfbf" points="179.5,-496.5 295.5,-496.5 "/>
<text text-anchor="middle" x="237.5" y="-484.5" font-family="Helvetica,sans-Serif" font-size="10.00"> </text>
<polyline fill="none" stroke="#bfbfbf" points="179.5,-477.5 295.5,-477.5 "/>
<text text-anchor="middle" x="237.5" y="-465.5" font-family="Helvetica,sans-Serif" font-size="10.00"> </text>
</g>
<!-- Node6&#45;&gt;Node5 -->
<g id="edge5" class="edge"><title>Node6&#45;&gt;Node5</title>
<path fill="none" stroke="#404040" d="M237.5,-458.232C237.5,-442.432 237.5,-423.31 237.5,-406.218"/>
<polygon fill="none" stroke="#404040" points="237.5,-406.208 233.5,-400.208 237.5,-394.208 241.5,-400.208 237.5,-406.208"/>
<text text-anchor="middle" x="256" y="-432" font-family="Helvetica,sans-Serif" font-size="10.00"> +output</text>
<text text-anchor="middle" x="256" y="-421" font-family="Helvetica,sans-Serif" font-size="10.00">+cell</text>
</g>
<!-- Node7 -->
<g id="node7" class="node"><title>Node7</title>
<polygon fill="white" stroke="#bfbfbf" points="319,-326 319,-394 444,-394 444,-326 319,-326"/>
<text text-anchor="start" x="327" y="-382" font-family="Helvetica,sans-Serif" font-size="10.00">std::unique_ptr&lt; amunmt</text>
<text text-anchor="middle" x="381.5" y="-371" font-family="Helvetica,sans-Serif" font-size="10.00">::GPU::Cell &gt;</text>
<polyline fill="none" stroke="#bfbfbf" points="319,-364 444,-364 "/>
<text text-anchor="middle" x="381.5" y="-352" font-family="Helvetica,sans-Serif" font-size="10.00"> </text>
<polyline fill="none" stroke="#bfbfbf" points="319,-345 444,-345 "/>
<text text-anchor="middle" x="381.5" y="-333" font-family="Helvetica,sans-Serif" font-size="10.00"> </text>
</g>
<!-- Node7&#45;&gt;Node4 -->
<g id="edge6" class="edge"><title>Node7&#45;&gt;Node4</title>
<path fill="none" stroke="#404040" d="M354.538,-325.825C343.872,-312.701 331.232,-297.148 318.906,-281.982"/>
<polygon fill="none" stroke="#404040" points="318.861,-281.927 311.973,-279.793 311.293,-272.614 318.181,-274.748 318.861,-281.927"/>
<text text-anchor="middle" x="347" y="-294" font-family="Helvetica,sans-Serif" font-size="10.00"> &#45;gru_</text>
</g>
<!-- Node8 -->
<g id="node8" class="node"><title>Node8</title>
<polygon fill="white" stroke="#bfbfbf" points="359.5,-182.5 359.5,-250.5 457.5,-250.5 457.5,-182.5 359.5,-182.5"/>
<text text-anchor="start" x="367.5" y="-238.5" font-family="Helvetica,sans-Serif" font-size="10.00">std::vector&lt; mblas</text>
<text text-anchor="middle" x="408.5" y="-227.5" font-family="Helvetica,sans-Serif" font-size="10.00">::Matrix &gt;</text>
<polyline fill="none" stroke="#bfbfbf" points="359.5,-220.5 457.5,-220.5 "/>
<text text-anchor="middle" x="408.5" y="-208.5" font-family="Helvetica,sans-Serif" font-size="10.00"> </text>
<polyline fill="none" stroke="#bfbfbf" points="359.5,-201.5 457.5,-201.5 "/>
<text text-anchor="middle" x="408.5" y="-189.5" font-family="Helvetica,sans-Serif" font-size="10.00"> </text>
</g>
<!-- Node8&#45;&gt;Node1 -->
<g id="edge7" class="edge"><title>Node8&#45;&gt;Node1</title>
<path fill="none" stroke="#404040" d="M386.996,-182.471C374.078,-163.502 356.828,-139.627 339.5,-120 336.722,-116.853 333.816,-113.693 330.83,-110.55"/>
<polygon fill="none" stroke="#404040" points="330.633,-110.348 323.579,-108.85 322.249,-101.763 329.303,-103.261 330.633,-110.348"/>
<text text-anchor="middle" x="399" y="-128.5" font-family="Helvetica,sans-Serif" font-size="10.00"> &#45;embeddedWords_</text>
</g>
</g>
</svg>
