<?xml version="1.0" encoding="UTF-8" standalone="no"?>
<!DOCTYPE svg PUBLIC "-//W3C//DTD SVG 1.1//EN"
 "http://www.w3.org/Graphics/SVG/1.1/DTD/svg11.dtd">
<!-- Generated by graphviz version 2.38.0 (20140413.2041)
 -->
<!-- Title: marian::MultiDecoderHardSoftAtt Pages: 1 -->
<!--zoomable 781 -->
<svg id="main" version="1.1" xmlns="http://www.w3.org/2000/svg" xmlns:xlink="http://www.w3.org/1999/xlink" xml:space="preserve" onload="init(evt)">
<style type="text/css"><![CDATA[
.edge:hover path { stroke: red; }
.edge:hover polygon { stroke: red; fill: red; }
]]></style>
<script type="text/javascript"><![CDATA[
var edges = document.getElementsByTagName('g');
if (edges && edges.length) {
  for (var i=0;i<edges.length;i++) {
    if (edges[i].id.substr(0,4)=='edge') {
      edges[i].setAttribute('class','edge');
    }
  }
}
]]></script>
        <defs>
                <circle id="rim" cx="0" cy="0" r="7"/>
                <circle id="rim2" cx="0" cy="0" r="3.5"/>
                <g id="zoomPlus">
                        <use xlink:href="#rim" fill="#404040">
                                <set attributeName="fill" to="#808080" begin="zoomplus.mouseover" end="zoomplus.mouseout"/>
                        </use>
                        <path d="M-4,0h8M0,-4v8" fill="none" stroke="white" stroke-width="1.5" pointer-events="none"/>
                </g>
                <g id="zoomMin">
                        <use xlink:href="#rim" fill="#404040">
                                <set attributeName="fill" to="#808080" begin="zoomminus.mouseover" end="zoomminus.mouseout"/>
                        </use>
                        <path d="M-4,0h8" fill="none" stroke="white" stroke-width="1.5" pointer-events="none"/>
                </g>
                <g id="dirArrow">
                        <path fill="none" stroke="white" stroke-width="1.5" d="M0,-3.0v7 M-2.5,-0.5L0,-3.0L2.5,-0.5"/>
                </g>
               <g id="resetDef">
                       <use xlink:href="#rim2" fill="#404040">
                               <set attributeName="fill" to="#808080" begin="reset.mouseover" end="reset.mouseout"/>
                       </use>
               </g>
        </defs>

<script type="text/javascript">
var viewWidth = 255;
var viewHeight = 781;
var sectionId = 'dynsection-1';
</script>
<script xlink:href="../../svgpan.js"/>
<svg id="graph" class="graph">
<g id="viewport">
<title>marian::MultiDecoderHardSoftAtt</title>
<polygon fill="white" stroke="none" points="-4,4 -4,-777 251,-777 251,4 -4,4"/>
<!-- Node1 -->
<g id="node1" class="node"><title>Node1</title>
<polygon fill="#bfbfbf" stroke="black" points="77.5,-0.5 77.5,-112.5 218.5,-112.5 218.5,-0.5 77.5,-0.5"/>
<text text-anchor="start" x="85.5" y="-100.5" font-family="Helvetica,sans-Serif" font-size="10.00">marian::MultiDecoderHard</text>
<text text-anchor="middle" x="148" y="-89.5" font-family="Helvetica,sans-Serif" font-size="10.00">SoftAtt</text>
<polyline fill="none" stroke="black" points="77.5,-82.5 218.5,-82.5 "/>
<text text-anchor="middle" x="148" y="-70.5" font-family="Helvetica,sans-Serif" font-size="10.00"> </text>
<polyline fill="none" stroke="black" points="77.5,-63.5 218.5,-63.5 "/>
<text text-anchor="start" x="85.5" y="-51.5" font-family="Helvetica,sans-Serif" font-size="10.00">+ MultiDecoderHardSoftAtt()</text>
<text text-anchor="start" x="85.5" y="-40.5" font-family="Helvetica,sans-Serif" font-size="10.00">+ startState()</text>
<text text-anchor="start" x="85.5" y="-29.5" font-family="Helvetica,sans-Serif" font-size="10.00">+ step()</text>
<text text-anchor="start" x="85.5" y="-18.5" font-family="Helvetica,sans-Serif" font-size="10.00">+ selectEmbeddings()</text>
<text text-anchor="start" x="85.5" y="-7.5" font-family="Helvetica,sans-Serif" font-size="10.00">+ getAlignments()</text>
</g>
<!-- Node2 -->
<g id="node2" class="node"><title>Node2</title>
<g id="a_node2"><a xlink:href="../../de/d21/classmarian_1_1DecoderHardSoftAtt.html" target="_top" xlink:title="{marian::DecoderHardSoftAtt\n|# rnn_\l|+ DecoderHardSoftAtt()\l+ step()\l+ getAlignments()\l}">
<polygon fill="white" stroke="black" points="78,-150.5 78,-229.5 218,-229.5 218,-150.5 78,-150.5"/>
<text text-anchor="middle" x="148" y="-217.5" font-family="Helvetica,sans-Serif" font-size="10.00">marian::DecoderHardSoftAtt</text>
<polyline fill="none" stroke="black" points="78,-210.5 218,-210.5 "/>
<text text-anchor="start" x="86" y="-198.5" font-family="Helvetica,sans-Serif" font-size="10.00"># rnn_</text>
<polyline fill="none" stroke="black" points="78,-191.5 218,-191.5 "/>
<text text-anchor="start" x="86" y="-179.5" font-family="Helvetica,sans-Serif" font-size="10.00">+ DecoderHardSoftAtt()</text>
<text text-anchor="start" x="86" y="-168.5" font-family="Helvetica,sans-Serif" font-size="10.00">+ step()</text>
<text text-anchor="start" x="86" y="-157.5" font-family="Helvetica,sans-Serif" font-size="10.00">+ getAlignments()</text>
</a>
</g>
</g>
<!-- Node2&#45;&gt;Node1 -->
<g id="edge1" class="edge"><title>Node2&#45;&gt;Node1</title>
<path fill="none" stroke="midnightblue" d="M148,-139.994C148,-131.041 148,-121.644 148,-112.53"/>
<polygon fill="none" stroke="midnightblue" points="144.5,-140.257 148,-150.257 151.5,-140.257 144.5,-140.257"/>
</g>
<!-- Node3 -->
<g id="node3" class="node"><title>Node3</title>
<g id="a_node3"><a xlink:href="../../d1/dcc/classmarian_1_1DecoderHardAtt.html" target="_top" xlink:title="{marian::DecoderHardAtt\n|# rnn_\l|+ DecoderHardAtt()\l+ startState()\l+ step()\l+ groundTruth()\l+ selectEmbeddings()\l+ getAlignments()\l}">
<polygon fill="white" stroke="black" points="87,-267.5 87,-379.5 209,-379.5 209,-267.5 87,-267.5"/>
<text text-anchor="middle" x="148" y="-367.5" font-family="Helvetica,sans-Serif" font-size="10.00">marian::DecoderHardAtt</text>
<polyline fill="none" stroke="black" points="87,-360.5 209,-360.5 "/>
<text text-anchor="start" x="95" y="-348.5" font-family="Helvetica,sans-Serif" font-size="10.00"># rnn_</text>
<polyline fill="none" stroke="black" points="87,-341.5 209,-341.5 "/>
<text text-anchor="start" x="95" y="-329.5" font-family="Helvetica,sans-Serif" font-size="10.00">+ DecoderHardAtt()</text>
<text text-anchor="start" x="95" y="-318.5" font-family="Helvetica,sans-Serif" font-size="10.00">+ startState()</text>
<text text-anchor="start" x="95" y="-307.5" font-family="Helvetica,sans-Serif" font-size="10.00">+ step()</text>
<text text-anchor="start" x="95" y="-296.5" font-family="Helvetica,sans-Serif" font-size="10.00">+ groundTruth()</text>
<text text-anchor="start" x="95" y="-285.5" font-family="Helvetica,sans-Serif" font-size="10.00">+ selectEmbeddings()</text>
<text text-anchor="start" x="95" y="-274.5" font-family="Helvetica,sans-Serif" font-size="10.00">+ getAlignments()</text>
</a>
</g>
</g>
<!-- Node3&#45;&gt;Node2 -->
<g id="edge2" class="edge"><title>Node3&#45;&gt;Node2</title>
<path fill="none" stroke="midnightblue" d="M148,-257.32C148,-247.904 148,-238.473 148,-229.799"/>
<polygon fill="none" stroke="midnightblue" points="144.5,-257.494 148,-267.494 151.5,-257.494 144.5,-257.494"/>
</g>
<!-- Node4 -->
<g id="node4" class="node"><title>Node4</title>
<g id="a_node4"><a xlink:href="../../db/d04/classmarian_1_1DecoderBase.html" target="_top" xlink:title="{marian::DecoderBase\n|# options_\l# inference_\l|+ DecoderBase()\l+ startState()\l+ step()\l+ groundTruth()\l+ selectEmbeddings()\l+ getAlignments()\l+ opt()\l}">
<polygon fill="white" stroke="black" points="0,-427.5 0,-561.5 112,-561.5 112,-427.5 0,-427.5"/>
<text text-anchor="middle" x="56" y="-549.5" font-family="Helvetica,sans-Serif" font-size="10.00">marian::DecoderBase</text>
<polyline fill="none" stroke="black" points="0,-542.5 112,-542.5 "/>
<text text-anchor="start" x="8" y="-530.5" font-family="Helvetica,sans-Serif" font-size="10.00"># options_</text>
<text text-anchor="start" x="8" y="-519.5" font-family="Helvetica,sans-Serif" font-size="10.00"># inference_</text>
<polyline fill="none" stroke="black" points="0,-512.5 112,-512.5 "/>
<text text-anchor="start" x="8" y="-500.5" font-family="Helvetica,sans-Serif" font-size="10.00">+ DecoderBase()</text>
<text text-anchor="start" x="8" y="-489.5" font-family="Helvetica,sans-Serif" font-size="10.00">+ startState()</text>
<text text-anchor="start" x="8" y="-478.5" font-family="Helvetica,sans-Serif" font-size="10.00">+ step()</text>
<text text-anchor="start" x="8" y="-467.5" font-family="Helvetica,sans-Serif" font-size="10.00">+ groundTruth()</text>
<text text-anchor="start" x="8" y="-456.5" font-family="Helvetica,sans-Serif" font-size="10.00">+ selectEmbeddings()</text>
<text text-anchor="start" x="8" y="-445.5" font-family="Helvetica,sans-Serif" font-size="10.00">+ getAlignments()</text>
<text text-anchor="start" x="8" y="-434.5" font-family="Helvetica,sans-Serif" font-size="10.00">+ opt()</text>
</a>
</g>
</g>
<!-- Node4&#45;&gt;Node3 -->
<g id="edge3" class="edge"><title>Node4&#45;&gt;Node3</title>
<path fill="none" stroke="midnightblue" d="M96.9529,-418.271C104.016,-405.296 111.241,-392.025 117.948,-379.704"/>
<polygon fill="none" stroke="midnightblue" points="93.804,-416.735 92.0968,-427.192 99.9521,-420.082 93.804,-416.735"/>
</g>
<!-- Node5 -->
<g id="node5" class="node"><title>Node5</title>
<g id="a_node5"><a xlink:title="STL class. ">
<polygon fill="white" stroke="#bfbfbf" points="26,-609.5 26,-666.5 86,-666.5 86,-609.5 26,-609.5"/>
<text text-anchor="middle" x="56" y="-654.5" font-family="Helvetica,sans-Serif" font-size="10.00">std::string</text>
<polyline fill="none" stroke="#bfbfbf" points="26,-647.5 86,-647.5 "/>
<text text-anchor="middle" x="56" y="-635.5" font-family="Helvetica,sans-Serif" font-size="10.00"> </text>
<polyline fill="none" stroke="#bfbfbf" points="26,-628.5 86,-628.5 "/>
<text text-anchor="middle" x="56" y="-616.5" font-family="Helvetica,sans-Serif" font-size="10.00"> </text>
</a>
</g>
</g>
<!-- Node5&#45;&gt;Node4 -->
<g id="edge4" class="edge"><title>Node5&#45;&gt;Node4</title>
<path fill="none" stroke="#404040" d="M56,-609.381C56,-599.02 56,-586.663 56,-573.97"/>
<polygon fill="none" stroke="#404040" points="56.0001,-573.753 52,-567.753 56,-561.753 60,-567.753 56.0001,-573.753"/>
<text text-anchor="middle" x="75" y="-583" font-family="Helvetica,sans-Serif" font-size="10.00"> #prefix_</text>
</g>
<!-- Node6 -->
<g id="node6" class="node"><title>Node6</title>
<polygon fill="white" stroke="#bfbfbf" points="8.5,-704.5 8.5,-772.5 103.5,-772.5 103.5,-704.5 8.5,-704.5"/>
<text text-anchor="start" x="16.5" y="-760.5" font-family="Helvetica,sans-Serif" font-size="10.00">std::basic_string&lt;</text>
<text text-anchor="middle" x="56" y="-749.5" font-family="Helvetica,sans-Serif" font-size="10.00"> char &gt;</text>
<polyline fill="none" stroke="#bfbfbf" points="8.5,-742.5 103.5,-742.5 "/>
<text text-anchor="middle" x="56" y="-730.5" font-family="Helvetica,sans-Serif" font-size="10.00"> </text>
<polyline fill="none" stroke="#bfbfbf" points="8.5,-723.5 103.5,-723.5 "/>
<text text-anchor="middle" x="56" y="-711.5" font-family="Helvetica,sans-Serif" font-size="10.00"> </text>
</g>
<!-- Node6&#45;&gt;Node5 -->
<g id="edge5" class="edge"><title>Node6&#45;&gt;Node5</title>
<path fill="none" stroke="midnightblue" d="M56,-694.375C56,-684.94 56,-675.201 56,-666.571"/>
<polygon fill="none" stroke="midnightblue" points="52.5001,-694.427 56,-704.427 59.5001,-694.427 52.5001,-694.427"/>
</g>
<!-- Node7 -->
<g id="node7" class="node"><title>Node7</title>
<polygon fill="white" stroke="#bfbfbf" points="130,-460.5 130,-528.5 228,-528.5 228,-460.5 130,-460.5"/>
<text text-anchor="start" x="138" y="-516.5" font-family="Helvetica,sans-Serif" font-size="10.00">std::unordered_set</text>
<text text-anchor="middle" x="179" y="-505.5" font-family="Helvetica,sans-Serif" font-size="10.00">&lt; Word &gt;</text>
<polyline fill="none" stroke="#bfbfbf" points="130,-498.5 228,-498.5 "/>
<text text-anchor="middle" x="179" y="-486.5" font-family="Helvetica,sans-Serif" font-size="10.00"> </text>
<polyline fill="none" stroke="#bfbfbf" points="130,-479.5 228,-479.5 "/>
<text text-anchor="middle" x="179" y="-467.5" font-family="Helvetica,sans-Serif" font-size="10.00"> </text>
</g>
<!-- Node7&#45;&gt;Node3 -->
<g id="edge6" class="edge"><title>Node7&#45;&gt;Node3</title>
<path fill="none" stroke="#404040" d="M172.875,-460.111C169.299,-440.615 164.656,-415.305 160.352,-391.838"/>
<polygon fill="none" stroke="#404040" points="160.304,-391.578 155.287,-386.398 158.139,-379.775 163.156,-384.955 160.304,-391.578"/>
<text text-anchor="middle" x="205.5" y="-401" font-family="Helvetica,sans-Serif" font-size="10.00"> #specialSymbols_</text>
</g>
</g>
</svg>
        <g id="navigator" transform="translate(0 0)" fill="#404254">
                <rect fill="#f2f5e9" fill-opacity="0.5" stroke="#606060" stroke-width=".5" x="0" y="0" width="60" height="60"/>
                <use id="zoomplus" xlink:href="#zoomPlus" x="17" y="9" onmousedown="handleZoom(evt,'in')"/>
                <use id="zoomminus" xlink:href="#zoomMin" x="42" y="9" onmousedown="handleZoom(evt,'out')"/>
                <use id="reset" xlink:href="#resetDef" x="30" y="36" onmousedown="handleReset()"/>
                <g id="arrowUp" xlink:href="#dirArrow" transform="translate(30 24)" onmousedown="handlePan(0,-1)">
                  <use xlink:href="#rim" fill="#404040">
                        <set attributeName="fill" to="#808080" begin="arrowUp.mouseover" end="arrowUp.mouseout"/>
                  </use>
                  <path fill="none" stroke="white" stroke-width="1.5" d="M0,-3.0v7 M-2.5,-0.5L0,-3.0L2.5,-0.5"/>
                </g>
                <g id="arrowRight" xlink:href="#dirArrow" transform="rotate(90) translate(36 -43)" onmousedown="handlePan(1,0)">
                  <use xlink:href="#rim" fill="#404040">
                        <set attributeName="fill" to="#808080" begin="arrowRight.mouseover" end="arrowRight.mouseout"/>
                  </use>
                  <path fill="none" stroke="white" stroke-width="1.5" d="M0,-3.0v7 M-2.5,-0.5L0,-3.0L2.5,-0.5"/>
                </g>
                <g id="arrowDown" xlink:href="#dirArrow" transform="rotate(180) translate(-30 -48)" onmousedown="handlePan(0,1)">
                  <use xlink:href="#rim" fill="#404040">
                        <set attributeName="fill" to="#808080" begin="arrowDown.mouseover" end="arrowDown.mouseout"/>
                  </use>
                  <path fill="none" stroke="white" stroke-width="1.5" d="M0,-3.0v7 M-2.5,-0.5L0,-3.0L2.5,-0.5"/>
                </g>
                <g id="arrowLeft" xlink:href="#dirArrow" transform="rotate(270) translate(-36 17)" onmousedown="handlePan(-1,0)">
                  <use xlink:href="#rim" fill="#404040">
                        <set attributeName="fill" to="#808080" begin="arrowLeft.mouseover" end="arrowLeft.mouseout"/>
                  </use>
                  <path fill="none" stroke="white" stroke-width="1.5" d="M0,-3.0v7 M-2.5,-0.5L0,-3.0L2.5,-0.5"/>
                </g>
        </g>
        <svg viewBox="0 0 15 15" width="100%" height="30px" preserveAspectRatio="xMaxYMin meet">
         <g id="arrow_out" transform="scale(0.3 0.3)">
          <a xlink:href="classmarian_1_1MultiDecoderHardSoftAtt__coll__graph_org.svg" target="_base">
           <rect id="button" ry="5" rx="5" y="6" x="6" height="38" width="38"
                fill="#f2f5e9" fill-opacity="0.5" stroke="#606060" stroke-width="1.0"/>
           <path id="arrow"
             d="M 11.500037,31.436501 C 11.940474,20.09759 22.043105,11.32322 32.158766,21.979434 L 37.068811,17.246167 C 37.068811,17.246167 37.088388,32 37.088388,32 L 22.160133,31.978069 C 22.160133,31.978069 26.997745,27.140456 26.997745,27.140456 C 18.528582,18.264221 13.291696,25.230495 11.500037,31.436501 z"
             style="fill:#404040;"/>
          </a>
         </g>
        </svg>
</svg>
