<?xml version="1.0" encoding="UTF-8" standalone="no"?>
<!DOCTYPE svg PUBLIC "-//W3C//DTD SVG 1.1//EN"
 "http://www.w3.org/Graphics/SVG/1.1/DTD/svg11.dtd">
<!-- Generated by graphviz version 2.38.0 (20140413.2041)
 -->
<!-- Title: marian::TransposeNodeOp Pages: 1 -->
<!--zoomable 915 -->
<svg id="main" version="1.1" xmlns="http://www.w3.org/2000/svg" xmlns:xlink="http://www.w3.org/1999/xlink" xml:space="preserve" onload="init(evt)">
<style type="text/css"><![CDATA[
.edge:hover path { stroke: red; }
.edge:hover polygon { stroke: red; fill: red; }
]]></style>
<script type="text/javascript"><![CDATA[
var edges = document.getElementsByTagName('g');
if (edges && edges.length) {
  for (var i=0;i<edges.length;i++) {
    if (edges[i].id.substr(0,4)=='edge') {
      edges[i].setAttribute('class','edge');
    }
  }
}
]]></script>
        <defs>
                <circle id="rim" cx="0" cy="0" r="7"/>
                <circle id="rim2" cx="0" cy="0" r="3.5"/>
                <g id="zoomPlus">
                        <use xlink:href="#rim" fill="#404040">
                                <set attributeName="fill" to="#808080" begin="zoomplus.mouseover" end="zoomplus.mouseout"/>
                        </use>
                        <path d="M-4,0h8M0,-4v8" fill="none" stroke="white" stroke-width="1.5" pointer-events="none"/>
                </g>
                <g id="zoomMin">
                        <use xlink:href="#rim" fill="#404040">
                                <set attributeName="fill" to="#808080" begin="zoomminus.mouseover" end="zoomminus.mouseout"/>
                        </use>
                        <path d="M-4,0h8" fill="none" stroke="white" stroke-width="1.5" pointer-events="none"/>
                </g>
                <g id="dirArrow">
                        <path fill="none" stroke="white" stroke-width="1.5" d="M0,-3.0v7 M-2.5,-0.5L0,-3.0L2.5,-0.5"/>
                </g>
               <g id="resetDef">
                       <use xlink:href="#rim2" fill="#404040">
                               <set attributeName="fill" to="#808080" begin="reset.mouseover" end="reset.mouseout"/>
                       </use>
               </g>
        </defs>

<script type="text/javascript">
var viewWidth = 393;
var viewHeight = 915;
var sectionId = 'dynsection-0';
</script>
<script xlink:href="../../svgpan.js"/>
<svg id="graph" class="graph">
<g id="viewport">
<title>marian::TransposeNodeOp</title>
<polygon fill="white" stroke="none" points="-4,4 -4,-911 388.5,-911 388.5,4 -4,4"/>
<!-- Node1 -->
<g id="node1" class="node"><title>Node1</title>
<polygon fill="#bfbfbf" stroke="black" points="123.5,-0.5 123.5,-112.5 257.5,-112.5 257.5,-0.5 123.5,-0.5"/>
<text text-anchor="middle" x="190.5" y="-100.5" font-family="Helvetica,sans-Serif" font-size="10.00">marian::TransposeNodeOp</text>
<polyline fill="none" stroke="black" points="123.5,-93.5 257.5,-93.5 "/>
<text text-anchor="middle" x="190.5" y="-81.5" font-family="Helvetica,sans-Serif" font-size="10.00"> </text>
<polyline fill="none" stroke="black" points="123.5,-74.5 257.5,-74.5 "/>
<text text-anchor="start" x="131.5" y="-62.5" font-family="Helvetica,sans-Serif" font-size="10.00">+ TransposeNodeOp()</text>
<text text-anchor="start" x="131.5" y="-51.5" font-family="Helvetica,sans-Serif" font-size="10.00">+ forwardOps()</text>
<text text-anchor="start" x="131.5" y="-40.5" font-family="Helvetica,sans-Serif" font-size="10.00">+ backwardOps()</text>
<text text-anchor="start" x="131.5" y="-29.5" font-family="Helvetica,sans-Serif" font-size="10.00">+ newShape()</text>
<text text-anchor="start" x="131.5" y="-18.5" font-family="Helvetica,sans-Serif" font-size="10.00">+ type()</text>
<text text-anchor="start" x="131.5" y="-7.5" font-family="Helvetica,sans-Serif" font-size="10.00">+ color()</text>
</g>
<!-- Node2 -->
<g id="node2" class="node"><title>Node2</title>
<g id="a_node2"><a xlink:href="../../d9/dd2/structmarian_1_1UnaryNodeOp.html" target="_top" xlink:title="{marian::UnaryNodeOp\n||+ UnaryNodeOp()\l+ color()\l}">
<polygon fill="white" stroke="black" points="133.5,-149.5 133.5,-217.5 247.5,-217.5 247.5,-149.5 133.5,-149.5"/>
<text text-anchor="middle" x="190.5" y="-205.5" font-family="Helvetica,sans-Serif" font-size="10.00">marian::UnaryNodeOp</text>
<polyline fill="none" stroke="black" points="133.5,-198.5 247.5,-198.5 "/>
<text text-anchor="middle" x="190.5" y="-186.5" font-family="Helvetica,sans-Serif" font-size="10.00"> </text>
<polyline fill="none" stroke="black" points="133.5,-179.5 247.5,-179.5 "/>
<text text-anchor="start" x="141.5" y="-167.5" font-family="Helvetica,sans-Serif" font-size="10.00">+ UnaryNodeOp()</text>
<text text-anchor="start" x="141.5" y="-156.5" font-family="Helvetica,sans-Serif" font-size="10.00">+ color()</text>
</a>
</g>
</g>
<!-- Node2&#45;&gt;Node1 -->
<g id="edge1" class="edge"><title>Node2&#45;&gt;Node1</title>
<path fill="none" stroke="midnightblue" d="M190.5,-139.182C190.5,-130.604 190.5,-121.493 190.5,-112.585"/>
<polygon fill="none" stroke="midnightblue" points="187,-139.33 190.5,-149.33 194,-139.331 187,-139.33"/>
</g>
<!-- Node3 -->
<g id="node3" class="node"><title>Node3</title>
<g id="a_node3"><a xlink:href="../../d0/da7/structmarian_1_1NaryNodeOp.html" target="_top" xlink:title="{marian::NaryNodeOp\n|+ hash_\l|+ NaryNodeOp()\l+ ~NaryNodeOp()\l+ children()\l+ hash()\l+ remove_children_from\l_top_nodes()\l}">
<polygon fill="white" stroke="black" points="129.5,-254.5 129.5,-366.5 251.5,-366.5 251.5,-254.5 129.5,-254.5"/>
<text text-anchor="middle" x="190.5" y="-354.5" font-family="Helvetica,sans-Serif" font-size="10.00">marian::NaryNodeOp</text>
<polyline fill="none" stroke="black" points="129.5,-347.5 251.5,-347.5 "/>
<text text-anchor="start" x="137.5" y="-335.5" font-family="Helvetica,sans-Serif" font-size="10.00">+ hash_</text>
<polyline fill="none" stroke="black" points="129.5,-328.5 251.5,-328.5 "/>
<text text-anchor="start" x="137.5" y="-316.5" font-family="Helvetica,sans-Serif" font-size="10.00">+ NaryNodeOp()</text>
<text text-anchor="start" x="137.5" y="-305.5" font-family="Helvetica,sans-Serif" font-size="10.00">+ ~NaryNodeOp()</text>
<text text-anchor="start" x="137.5" y="-294.5" font-family="Helvetica,sans-Serif" font-size="10.00">+ children()</text>
<text text-anchor="start" x="137.5" y="-283.5" font-family="Helvetica,sans-Serif" font-size="10.00">+ hash()</text>
<text text-anchor="start" x="137.5" y="-272.5" font-family="Helvetica,sans-Serif" font-size="10.00">+ remove_children_from</text>
<text text-anchor="start" x="137.5" y="-261.5" font-family="Helvetica,sans-Serif" font-size="10.00">_top_nodes()</text>
</a>
</g>
</g>
<!-- Node3&#45;&gt;Node2 -->
<g id="edge2" class="edge"><title>Node3&#45;&gt;Node2</title>
<path fill="none" stroke="midnightblue" d="M190.5,-244.257C190.5,-234.987 190.5,-225.797 190.5,-217.506"/>
<polygon fill="none" stroke="midnightblue" points="187,-244.309 190.5,-254.309 194,-244.309 187,-244.309"/>
</g>
<!-- Node4 -->
<g id="node4" class="node"><title>Node4</title>
<g id="a_node4"><a xlink:href="../../d0/d7a/classmarian_1_1Node.html" target="_top" xlink:title="{marian::Node\n|# id_\l# edges_\l# trainable_\l# destroy_\l# children_\l# graph_\l# shape_\l# name_\l# val_\l# adj_\l# markedForDebug_\l# debugMessage_\l|+ Node()\l+ ~Node()\l+ scalar()\l+ forwardOps()\l+ backwardOps()\l+ runForward()\l+ runBackward()\l+ forward()\l+ backward()\l+ trainable()\land 27 more...\l}">
<polygon fill="white" stroke="black" points="138,-403.5 138,-691.5 243,-691.5 243,-403.5 138,-403.5"/>
<text text-anchor="middle" x="190.5" y="-679.5" font-family="Helvetica,sans-Serif" font-size="10.00">marian::Node</text>
<polyline fill="none" stroke="black" points="138,-672.5 243,-672.5 "/>
<text text-anchor="start" x="146" y="-660.5" font-family="Helvetica,sans-Serif" font-size="10.00"># id_</text>
<text text-anchor="start" x="146" y="-649.5" font-family="Helvetica,sans-Serif" font-size="10.00"># edges_</text>
<text text-anchor="start" x="146" y="-638.5" font-family="Helvetica,sans-Serif" font-size="10.00"># trainable_</text>
<text text-anchor="start" x="146" y="-627.5" font-family="Helvetica,sans-Serif" font-size="10.00"># destroy_</text>
<text text-anchor="start" x="146" y="-616.5" font-family="Helvetica,sans-Serif" font-size="10.00"># children_</text>
<text text-anchor="start" x="146" y="-605.5" font-family="Helvetica,sans-Serif" font-size="10.00"># graph_</text>
<text text-anchor="start" x="146" y="-594.5" font-family="Helvetica,sans-Serif" font-size="10.00"># shape_</text>
<text text-anchor="start" x="146" y="-583.5" font-family="Helvetica,sans-Serif" font-size="10.00"># name_</text>
<text text-anchor="start" x="146" y="-572.5" font-family="Helvetica,sans-Serif" font-size="10.00"># val_</text>
<text text-anchor="start" x="146" y="-561.5" font-family="Helvetica,sans-Serif" font-size="10.00"># adj_</text>
<text text-anchor="start" x="146" y="-550.5" font-family="Helvetica,sans-Serif" font-size="10.00"># markedForDebug_</text>
<text text-anchor="start" x="146" y="-539.5" font-family="Helvetica,sans-Serif" font-size="10.00"># debugMessage_</text>
<polyline fill="none" stroke="black" points="138,-532.5 243,-532.5 "/>
<text text-anchor="start" x="146" y="-520.5" font-family="Helvetica,sans-Serif" font-size="10.00">+ Node()</text>
<text text-anchor="start" x="146" y="-509.5" font-family="Helvetica,sans-Serif" font-size="10.00">+ ~Node()</text>
<text text-anchor="start" x="146" y="-498.5" font-family="Helvetica,sans-Serif" font-size="10.00">+ scalar()</text>
<text text-anchor="start" x="146" y="-487.5" font-family="Helvetica,sans-Serif" font-size="10.00">+ forwardOps()</text>
<text text-anchor="start" x="146" y="-476.5" font-family="Helvetica,sans-Serif" font-size="10.00">+ backwardOps()</text>
<text text-anchor="start" x="146" y="-465.5" font-family="Helvetica,sans-Serif" font-size="10.00">+ runForward()</text>
<text text-anchor="start" x="146" y="-454.5" font-family="Helvetica,sans-Serif" font-size="10.00">+ runBackward()</text>
<text text-anchor="start" x="146" y="-443.5" font-family="Helvetica,sans-Serif" font-size="10.00">+ forward()</text>
<text text-anchor="start" x="146" y="-432.5" font-family="Helvetica,sans-Serif" font-size="10.00">+ backward()</text>
<text text-anchor="start" x="146" y="-421.5" font-family="Helvetica,sans-Serif" font-size="10.00">+ trainable()</text>
<text text-anchor="start" x="146" y="-410.5" font-family="Helvetica,sans-Serif" font-size="10.00">and 27 more...</text>
</a>
</g>
</g>
<!-- Node4&#45;&gt;Node3 -->
<g id="edge3" class="edge"><title>Node4&#45;&gt;Node3</title>
<path fill="none" stroke="midnightblue" d="M190.5,-393.162C190.5,-383.865 190.5,-374.9 190.5,-366.53"/>
<polygon fill="none" stroke="midnightblue" points="187,-393.367 190.5,-403.367 194,-393.367 187,-393.367"/>
</g>
<!-- Node5 -->
<g id="node5" class="node"><title>Node5</title>
<g id="a_node5"><a xlink:href="../../de/dff/classmarian_1_1Chainable.html" target="_top" xlink:title="{marian::Chainable\&lt;\l Tensor \&gt;\n||+ Chainable()\l+ ~Chainable()\l+ forward()\l+ backward()\l+ forwardOps()\l+ backwardOps()\l+ allocate()\l+ free()\l+ init()\l+ init_dependent()\land 23 more...\l}">
<polygon fill="white" stroke="black" points="0,-728.5 0,-906.5 101,-906.5 101,-728.5 0,-728.5"/>
<text text-anchor="start" x="8" y="-894.5" font-family="Helvetica,sans-Serif" font-size="10.00">marian::Chainable&lt;</text>
<text text-anchor="middle" x="50.5" y="-883.5" font-family="Helvetica,sans-Serif" font-size="10.00"> Tensor &gt;</text>
<polyline fill="none" stroke="black" points="0,-876.5 101,-876.5 "/>
<text text-anchor="middle" x="50.5" y="-864.5" font-family="Helvetica,sans-Serif" font-size="10.00"> </text>
<polyline fill="none" stroke="black" points="0,-857.5 101,-857.5 "/>
<text text-anchor="start" x="8" y="-845.5" font-family="Helvetica,sans-Serif" font-size="10.00">+ Chainable()</text>
<text text-anchor="start" x="8" y="-834.5" font-family="Helvetica,sans-Serif" font-size="10.00">+ ~Chainable()</text>
<text text-anchor="start" x="8" y="-823.5" font-family="Helvetica,sans-Serif" font-size="10.00">+ forward()</text>
<text text-anchor="start" x="8" y="-812.5" font-family="Helvetica,sans-Serif" font-size="10.00">+ backward()</text>
<text text-anchor="start" x="8" y="-801.5" font-family="Helvetica,sans-Serif" font-size="10.00">+ forwardOps()</text>
<text text-anchor="start" x="8" y="-790.5" font-family="Helvetica,sans-Serif" font-size="10.00">+ backwardOps()</text>
<text text-anchor="start" x="8" y="-779.5" font-family="Helvetica,sans-Serif" font-size="10.00">+ allocate()</text>
<text text-anchor="start" x="8" y="-768.5" font-family="Helvetica,sans-Serif" font-size="10.00">+ free()</text>
<text text-anchor="start" x="8" y="-757.5" font-family="Helvetica,sans-Serif" font-size="10.00">+ init()</text>
<text text-anchor="start" x="8" y="-746.5" font-family="Helvetica,sans-Serif" font-size="10.00">+ init_dependent()</text>
<text text-anchor="start" x="8" y="-735.5" font-family="Helvetica,sans-Serif" font-size="10.00">and 23 more...</text>
</a>
</g>
</g>
<!-- Node5&#45;&gt;Node4 -->
<g id="edge4" class="edge"><title>Node5&#45;&gt;Node4</title>
<path fill="none" stroke="midnightblue" d="M101.236,-719.377C113.157,-696.557 125.886,-672.189 137.888,-649.215"/>
<polygon fill="none" stroke="midnightblue" points="98.0632,-717.892 96.5351,-728.376 104.268,-721.133 98.0632,-717.892"/>
</g>
<!-- Node6 -->
<g id="node6" class="node"><title>Node6</title>
<g id="a_node6"><a xlink:href="../../d4/d9b/classmarian_1_1keywords_1_1Keywords.html" target="_top" xlink:title="{marian::keywords::Keywords\n|&#45; storage_\l|+ Keywords()\l+ Has()\l+ Get()\l&#45; add()\l&#45; add()\l&#45; add()\l}">
<polygon fill="white" stroke="black" points="119,-761.5 119,-873.5 262,-873.5 262,-761.5 119,-761.5"/>
<text text-anchor="middle" x="190.5" y="-861.5" font-family="Helvetica,sans-Serif" font-size="10.00">marian::keywords::Keywords</text>
<polyline fill="none" stroke="black" points="119,-854.5 262,-854.5 "/>
<text text-anchor="start" x="127" y="-842.5" font-family="Helvetica,sans-Serif" font-size="10.00">&#45; storage_</text>
<polyline fill="none" stroke="black" points="119,-835.5 262,-835.5 "/>
<text text-anchor="start" x="127" y="-823.5" font-family="Helvetica,sans-Serif" font-size="10.00">+ Keywords()</text>
<text text-anchor="start" x="127" y="-812.5" font-family="Helvetica,sans-Serif" font-size="10.00">+ Has()</text>
<text text-anchor="start" x="127" y="-801.5" font-family="Helvetica,sans-Serif" font-size="10.00">+ Get()</text>
<text text-anchor="start" x="127" y="-790.5" font-family="Helvetica,sans-Serif" font-size="10.00">&#45; add()</text>
<text text-anchor="start" x="127" y="-779.5" font-family="Helvetica,sans-Serif" font-size="10.00">&#45; add()</text>
<text text-anchor="start" x="127" y="-768.5" font-family="Helvetica,sans-Serif" font-size="10.00">&#45; add()</text>
</a>
</g>
</g>
<!-- Node6&#45;&gt;Node4 -->
<g id="edge5" class="edge"><title>Node6&#45;&gt;Node4</title>
<path fill="none" stroke="midnightblue" d="M190.5,-751.149C190.5,-732.949 190.5,-712.433 190.5,-691.623"/>
<polygon fill="none" stroke="midnightblue" points="187,-751.295 190.5,-761.295 194,-751.295 187,-751.295"/>
</g>
<!-- Node7 -->
<g id="node7" class="node"><title>Node7</title>
<polygon fill="white" stroke="#bfbfbf" points="280.5,-783.5 280.5,-851.5 384.5,-851.5 384.5,-783.5 280.5,-783.5"/>
<text text-anchor="start" x="288.5" y="-839.5" font-family="Helvetica,sans-Serif" font-size="10.00">std::enable_shared</text>
<text text-anchor="middle" x="332.5" y="-828.5" font-family="Helvetica,sans-Serif" font-size="10.00">_from_this&lt; Node &gt;</text>
<polyline fill="none" stroke="#bfbfbf" points="280.5,-821.5 384.5,-821.5 "/>
<text text-anchor="middle" x="332.5" y="-809.5" font-family="Helvetica,sans-Serif" font-size="10.00"> </text>
<polyline fill="none" stroke="#bfbfbf" points="280.5,-802.5 384.5,-802.5 "/>
<text text-anchor="middle" x="332.5" y="-790.5" font-family="Helvetica,sans-Serif" font-size="10.00"> </text>
</g>
<!-- Node7&#45;&gt;Node4 -->
<g id="edge6" class="edge"><title>Node7&#45;&gt;Node4</title>
<path fill="none" stroke="midnightblue" d="M310.106,-774.236C292.168,-740.381 266.269,-691.501 243.155,-647.878"/>
<polygon fill="none" stroke="midnightblue" points="307.171,-776.172 314.946,-783.369 313.356,-772.894 307.171,-776.172"/>
</g>
</g>
</svg>
        <g id="navigator" transform="translate(0 0)" fill="#404254">
                <rect fill="#f2f5e9" fill-opacity="0.5" stroke="#606060" stroke-width=".5" x="0" y="0" width="60" height="60"/>
                <use id="zoomplus" xlink:href="#zoomPlus" x="17" y="9" onmousedown="handleZoom(evt,'in')"/>
                <use id="zoomminus" xlink:href="#zoomMin" x="42" y="9" onmousedown="handleZoom(evt,'out')"/>
                <use id="reset" xlink:href="#resetDef" x="30" y="36" onmousedown="handleReset()"/>
                <g id="arrowUp" xlink:href="#dirArrow" transform="translate(30 24)" onmousedown="handlePan(0,-1)">
                  <use xlink:href="#rim" fill="#404040">
                        <set attributeName="fill" to="#808080" begin="arrowUp.mouseover" end="arrowUp.mouseout"/>
                  </use>
                  <path fill="none" stroke="white" stroke-width="1.5" d="M0,-3.0v7 M-2.5,-0.5L0,-3.0L2.5,-0.5"/>
                </g>
                <g id="arrowRight" xlink:href="#dirArrow" transform="rotate(90) translate(36 -43)" onmousedown="handlePan(1,0)">
                  <use xlink:href="#rim" fill="#404040">
                        <set attributeName="fill" to="#808080" begin="arrowRight.mouseover" end="arrowRight.mouseout"/>
                  </use>
                  <path fill="none" stroke="white" stroke-width="1.5" d="M0,-3.0v7 M-2.5,-0.5L0,-3.0L2.5,-0.5"/>
                </g>
                <g id="arrowDown" xlink:href="#dirArrow" transform="rotate(180) translate(-30 -48)" onmousedown="handlePan(0,1)">
                  <use xlink:href="#rim" fill="#404040">
                        <set attributeName="fill" to="#808080" begin="arrowDown.mouseover" end="arrowDown.mouseout"/>
                  </use>
                  <path fill="none" stroke="white" stroke-width="1.5" d="M0,-3.0v7 M-2.5,-0.5L0,-3.0L2.5,-0.5"/>
                </g>
                <g id="arrowLeft" xlink:href="#dirArrow" transform="rotate(270) translate(-36 17)" onmousedown="handlePan(-1,0)">
                  <use xlink:href="#rim" fill="#404040">
                        <set attributeName="fill" to="#808080" begin="arrowLeft.mouseover" end="arrowLeft.mouseout"/>
                  </use>
                  <path fill="none" stroke="white" stroke-width="1.5" d="M0,-3.0v7 M-2.5,-0.5L0,-3.0L2.5,-0.5"/>
                </g>
        </g>
        <svg viewBox="0 0 15 15" width="100%" height="30px" preserveAspectRatio="xMaxYMin meet">
         <g id="arrow_out" transform="scale(0.3 0.3)">
          <a xlink:href="structmarian_1_1TransposeNodeOp__inherit__graph_org.svg" target="_base">
           <rect id="button" ry="5" rx="5" y="6" x="6" height="38" width="38"
                fill="#f2f5e9" fill-opacity="0.5" stroke="#606060" stroke-width="1.0"/>
           <path id="arrow"
             d="M 11.500037,31.436501 C 11.940474,20.09759 22.043105,11.32322 32.158766,21.979434 L 37.068811,17.246167 C 37.068811,17.246167 37.088388,32 37.088388,32 L 22.160133,31.978069 C 22.160133,31.978069 26.997745,27.140456 26.997745,27.140456 C 18.528582,18.264221 13.291696,25.230495 11.500037,31.436501 z"
             style="fill:#404040;"/>
          </a>
         </g>
        </svg>
</svg>
