<?xml version="1.0" encoding="UTF-8" standalone="no"?>
<!DOCTYPE svg PUBLIC "-//W3C//DTD SVG 1.1//EN"
 "http://www.w3.org/Graphics/SVG/1.1/DTD/svg11.dtd">
<!-- Generated by graphviz version 2.38.0 (20140413.2041)
 -->
<!-- Title: amunmt::util::FileOpenException Pages: 1 -->
<svg width="167pt" height="342pt"
 viewBox="0.00 0.00 167.00 342.00" xmlns="http://www.w3.org/2000/svg" xmlns:xlink="http://www.w3.org/1999/xlink">
<g id="graph0" class="graph" transform="scale(1 1) rotate(0) translate(4 338)">
<title>amunmt::util::FileOpenException</title>
<polygon fill="white" stroke="none" points="-4,4 -4,-338 163,-338 163,4 -4,4"/>
<!-- Node1 -->
<g id="node1" class="node"><title>Node1</title>
<polygon fill="#bfbfbf" stroke="black" points="-1.42109e-14,-0.5 -1.42109e-14,-68.5 159,-68.5 159,-0.5 -1.42109e-14,-0.5"/>
<text text-anchor="middle" x="79.5" y="-56.5" font-family="Helvetica,sans-Serif" font-size="10.00">amunmt::util::FileOpenException</text>
<polyline fill="none" stroke="black" points="-1.42109e-14,-49.5 159,-49.5 "/>
<text text-anchor="middle" x="79.5" y="-37.5" font-family="Helvetica,sans-Serif" font-size="10.00"> </text>
<polyline fill="none" stroke="black" points="-1.42109e-14,-30.5 159,-30.5 "/>
<text text-anchor="start" x="8" y="-18.5" font-family="Helvetica,sans-Serif" font-size="10.00">+ FileOpenException()</text>
<text text-anchor="start" x="8" y="-7.5" font-family="Helvetica,sans-Serif" font-size="10.00">+ ~FileOpenException()</text>
</g>
<!-- Node2 -->
<g id="node2" class="node"><title>Node2</title>
<g id="a_node2"><a xlink:href="$da/d08/classamunmt_1_1util_1_1Exception.html" xlink:title="{amunmt::util::Exception\n|&#45; what_\l|+ Exception()\l+ ~Exception()\l+ Exception()\l+ what()\l+ SetLocation()\l&#45; Append()\l&#45; Append()\l&#45; Append()\l}">
<polygon fill="white" stroke="black" points="19.5,-105.5 19.5,-239.5 139.5,-239.5 139.5,-105.5 19.5,-105.5"/>
<text text-anchor="middle" x="79.5" y="-227.5" font-family="Helvetica,sans-Serif" font-size="10.00">amunmt::util::Exception</text>
<polyline fill="none" stroke="black" points="19.5,-220.5 139.5,-220.5 "/>
<text text-anchor="start" x="27.5" y="-208.5" font-family="Helvetica,sans-Serif" font-size="10.00">&#45; what_</text>
<polyline fill="none" stroke="black" points="19.5,-201.5 139.5,-201.5 "/>
<text text-anchor="start" x="27.5" y="-189.5" font-family="Helvetica,sans-Serif" font-size="10.00">+ Exception()</text>
<text text-anchor="start" x="27.5" y="-178.5" font-family="Helvetica,sans-Serif" font-size="10.00">+ ~Exception()</text>
<text text-anchor="start" x="27.5" y="-167.5" font-family="Helvetica,sans-Serif" font-size="10.00">+ Exception()</text>
<text text-anchor="start" x="27.5" y="-156.5" font-family="Helvetica,sans-Serif" font-size="10.00">+ what()</text>
<text text-anchor="start" x="27.5" y="-145.5" font-family="Helvetica,sans-Serif" font-size="10.00">+ SetLocation()</text>
<text text-anchor="start" x="27.5" y="-134.5" font-family="Helvetica,sans-Serif" font-size="10.00">&#45; Append()</text>
<text text-anchor="start" x="27.5" y="-123.5" font-family="Helvetica,sans-Serif" font-size="10.00">&#45; Append()</text>
<text text-anchor="start" x="27.5" y="-112.5" font-family="Helvetica,sans-Serif" font-size="10.00">&#45; Append()</text>
</a>
</g>
</g>
<!-- Node2&#45;&gt;Node1 -->
<g id="edge1" class="edge"><title>Node2&#45;&gt;Node1</title>
<path fill="none" stroke="midnightblue" d="M79.5,-95.3667C79.5,-86.0791 79.5,-76.9969 79.5,-68.8265"/>
<polygon fill="none" stroke="midnightblue" points="76.0001,-95.4919 79.5,-105.492 83.0001,-95.492 76.0001,-95.4919"/>
</g>
<!-- Node3 -->
<g id="node3" class="node"><title>Node3</title>
<g id="a_node3"><a xlink:title="STL class. ">
<polygon fill="white" stroke="#bfbfbf" points="40.5,-276.5 40.5,-333.5 118.5,-333.5 118.5,-276.5 40.5,-276.5"/>
<text text-anchor="middle" x="79.5" y="-321.5" font-family="Helvetica,sans-Serif" font-size="10.00">std::exception</text>
<polyline fill="none" stroke="#bfbfbf" points="40.5,-314.5 118.5,-314.5 "/>
<text text-anchor="middle" x="79.5" y="-302.5" font-family="Helvetica,sans-Serif" font-size="10.00"> </text>
<polyline fill="none" stroke="#bfbfbf" points="40.5,-295.5 118.5,-295.5 "/>
<text text-anchor="middle" x="79.5" y="-283.5" font-family="Helvetica,sans-Serif" font-size="10.00"> </text>
</a>
</g>
</g>
<!-- Node3&#45;&gt;Node2 -->
<g id="edge2" class="edge"><title>Node3&#45;&gt;Node2</title>
<path fill="none" stroke="midnightblue" d="M79.5,-266.16C79.5,-257.782 79.5,-248.668 79.5,-239.533"/>
<polygon fill="none" stroke="midnightblue" points="76.0001,-266.324 79.5,-276.324 83.0001,-266.324 76.0001,-266.324"/>
</g>
</g>
</svg>
