<?xml version="1.0" encoding="UTF-8" standalone="no"?>
<!DOCTYPE svg PUBLIC "-//W3C//DTD SVG 1.1//EN"
 "http://www.w3.org/Graphics/SVG/1.1/DTD/svg11.dtd">
<!-- Generated by graphviz version 2.38.0 (20140413.2041)
 -->
<!-- Title: marian::EncoderBase Pages: 1 -->
<svg width="401pt" height="248pt"
 viewBox="0.00 0.00 400.50 248.00" xmlns="http://www.w3.org/2000/svg" xmlns:xlink="http://www.w3.org/1999/xlink">
<g id="graph0" class="graph" transform="scale(1 1) rotate(0) translate(4 244)">
<title>marian::EncoderBase</title>
<polygon fill="white" stroke="none" points="-4,4 -4,-244 396.5,-244 396.5,4 -4,4"/>
<!-- Node1 -->
<g id="node1" class="node"><title>Node1</title>
<polygon fill="#bfbfbf" stroke="black" points="140,-127.5 140,-239.5 250,-239.5 250,-127.5 140,-127.5"/>
<text text-anchor="middle" x="195" y="-227.5" font-family="Helvetica,sans-Serif" font-size="10.00">marian::EncoderBase</text>
<polyline fill="none" stroke="black" points="140,-220.5 250,-220.5 "/>
<text text-anchor="start" x="148" y="-208.5" font-family="Helvetica,sans-Serif" font-size="10.00"># options_</text>
<text text-anchor="start" x="148" y="-197.5" font-family="Helvetica,sans-Serif" font-size="10.00"># prefix_</text>
<text text-anchor="start" x="148" y="-186.5" font-family="Helvetica,sans-Serif" font-size="10.00"># inference_</text>
<polyline fill="none" stroke="black" points="140,-179.5 250,-179.5 "/>
<text text-anchor="start" x="148" y="-167.5" font-family="Helvetica,sans-Serif" font-size="10.00">+ EncoderBase()</text>
<text text-anchor="start" x="148" y="-156.5" font-family="Helvetica,sans-Serif" font-size="10.00">+ build()</text>
<text text-anchor="start" x="148" y="-145.5" font-family="Helvetica,sans-Serif" font-size="10.00">+ opt()</text>
<text text-anchor="start" x="148" y="-134.5" font-family="Helvetica,sans-Serif" font-size="10.00"># lookup()</text>
</g>
<!-- Node2 -->
<g id="node2" class="node"><title>Node2</title>
<g id="a_node2"><a xlink:href="$dd/d8d/classmarian_1_1EncoderPooling.html" xlink:title="{marian::EncoderPooling\n||+ EncoderPooling()\l+ build()\l}">
<polygon fill="white" stroke="black" points="0,-11.5 0,-79.5 120,-79.5 120,-11.5 0,-11.5"/>
<text text-anchor="middle" x="60" y="-67.5" font-family="Helvetica,sans-Serif" font-size="10.00">marian::EncoderPooling</text>
<polyline fill="none" stroke="black" points="0,-60.5 120,-60.5 "/>
<text text-anchor="middle" x="60" y="-48.5" font-family="Helvetica,sans-Serif" font-size="10.00"> </text>
<polyline fill="none" stroke="black" points="0,-41.5 120,-41.5 "/>
<text text-anchor="start" x="8" y="-29.5" font-family="Helvetica,sans-Serif" font-size="10.00">+ EncoderPooling()</text>
<text text-anchor="start" x="8" y="-18.5" font-family="Helvetica,sans-Serif" font-size="10.00">+ build()</text>
</a>
</g>
</g>
<!-- Node1&#45;&gt;Node2 -->
<g id="edge1" class="edge"><title>Node1&#45;&gt;Node2</title>
<path fill="none" stroke="midnightblue" d="M132.886,-119.926C119.032,-105.97 104.874,-91.7067 92.7659,-79.5086"/>
<polygon fill="none" stroke="midnightblue" points="130.561,-122.552 140.09,-127.184 135.529,-117.621 130.561,-122.552"/>
</g>
<!-- Node3 -->
<g id="node3" class="node"><title>Node3</title>
<g id="a_node3"><a xlink:href="$d3/dbc/classmarian_1_1EncoderS2S.html" xlink:title="{marian::EncoderS2S\n||+ applyEncoderRNN()\l+ EncoderS2S()\l+ build()\l}">
<polygon fill="white" stroke="black" points="138.5,-6 138.5,-85 251.5,-85 251.5,-6 138.5,-6"/>
<text text-anchor="middle" x="195" y="-73" font-family="Helvetica,sans-Serif" font-size="10.00">marian::EncoderS2S</text>
<polyline fill="none" stroke="black" points="138.5,-66 251.5,-66 "/>
<text text-anchor="middle" x="195" y="-54" font-family="Helvetica,sans-Serif" font-size="10.00"> </text>
<polyline fill="none" stroke="black" points="138.5,-47 251.5,-47 "/>
<text text-anchor="start" x="146.5" y="-35" font-family="Helvetica,sans-Serif" font-size="10.00">+ applyEncoderRNN()</text>
<text text-anchor="start" x="146.5" y="-24" font-family="Helvetica,sans-Serif" font-size="10.00">+ EncoderS2S()</text>
<text text-anchor="start" x="146.5" y="-13" font-family="Helvetica,sans-Serif" font-size="10.00">+ build()</text>
</a>
</g>
</g>
<!-- Node1&#45;&gt;Node3 -->
<g id="edge2" class="edge"><title>Node1&#45;&gt;Node3</title>
<path fill="none" stroke="midnightblue" d="M195,-117.164C195,-106.19 195,-95.1224 195,-85.1084"/>
<polygon fill="none" stroke="midnightblue" points="191.5,-117.184 195,-127.184 198.5,-117.184 191.5,-117.184"/>
</g>
<!-- Node4 -->
<g id="node4" class="node"><title>Node4</title>
<g id="a_node4"><a xlink:href="$d3/d1e/classmarian_1_1MultiEncoder.html" xlink:title="{marian::MultiEncoder\l\&lt; Encoder1, Encoder2 \&gt;\n|&#45; encoder1_\l&#45; encoder2_\l|+ MultiEncoder()\l+ build()\l}">
<polygon fill="white" stroke="black" points="269.5,-0.5 269.5,-90.5 392.5,-90.5 392.5,-0.5 269.5,-0.5"/>
<text text-anchor="start" x="277.5" y="-78.5" font-family="Helvetica,sans-Serif" font-size="10.00">marian::MultiEncoder</text>
<text text-anchor="middle" x="331" y="-67.5" font-family="Helvetica,sans-Serif" font-size="10.00">&lt; Encoder1, Encoder2 &gt;</text>
<polyline fill="none" stroke="black" points="269.5,-60.5 392.5,-60.5 "/>
<text text-anchor="start" x="277.5" y="-48.5" font-family="Helvetica,sans-Serif" font-size="10.00">&#45; encoder1_</text>
<text text-anchor="start" x="277.5" y="-37.5" font-family="Helvetica,sans-Serif" font-size="10.00">&#45; encoder2_</text>
<polyline fill="none" stroke="black" points="269.5,-30.5 392.5,-30.5 "/>
<text text-anchor="start" x="277.5" y="-18.5" font-family="Helvetica,sans-Serif" font-size="10.00">+ MultiEncoder()</text>
<text text-anchor="start" x="277.5" y="-7.5" font-family="Helvetica,sans-Serif" font-size="10.00">+ build()</text>
</a>
</g>
</g>
<!-- Node1&#45;&gt;Node4 -->
<g id="edge3" class="edge"><title>Node1&#45;&gt;Node4</title>
<path fill="none" stroke="midnightblue" d="M257.522,-119.978C267.472,-110.028 277.58,-99.9201 286.986,-90.5144"/>
<polygon fill="none" stroke="midnightblue" points="254.913,-117.638 250.316,-127.184 259.862,-122.587 254.913,-117.638"/>
</g>
</g>
</svg>
