<?xml version="1.0" encoding="UTF-8" standalone="no"?>
<!DOCTYPE svg PUBLIC "-//W3C//DTD SVG 1.1//EN"
 "http://www.w3.org/Graphics/SVG/1.1/DTD/svg11.dtd">
<!-- Generated by graphviz version 2.38.0 (20140413.2041)
 -->
<!-- Title: amunmt::GPU::NpzConverter::NpyMatrixWrapper::operator() Pages: 1 -->
<svg width="342pt" height="39pt"
 viewBox="0.00 0.00 342.00 39.00" xmlns="http://www.w3.org/2000/svg" xmlns:xlink="http://www.w3.org/1999/xlink">
<g id="graph0" class="graph" transform="scale(1 1) rotate(0) translate(4 35)">
<title>amunmt::GPU::NpzConverter::NpyMatrixWrapper::operator()</title>
<polygon fill="white" stroke="none" points="-4,4 -4,-35 338,-35 338,4 -4,4"/>
<!-- Node1 -->
<g id="node1" class="node"><title>Node1</title>
<polygon fill="#bfbfbf" stroke="black" points="0,-0.5 0,-30.5 152,-30.5 152,-0.5 0,-0.5"/>
<text text-anchor="start" x="8" y="-18.5" font-family="Helvetica,sans-Serif" font-size="10.00">amunmt::GPU::NpzConverter</text>
<text text-anchor="middle" x="76" y="-7.5" font-family="Helvetica,sans-Serif" font-size="10.00">::NpyMatrixWrapper::operator()</text>
</g>
<!-- Node2 -->
<g id="node2" class="node"><title>Node2</title>
<g id="a_node2"><a xlink:href="$db/dae/classamunmt_1_1GPU_1_1NpzConverter_1_1NpyMatrixWrapper.html#a7152ffabd4b46c9ece7321cacf39eaf6" xlink:title="amunmt::GPU::NpzConverter\l::NpyMatrixWrapper::size2">
<polygon fill="white" stroke="black" points="188,-0.5 188,-30.5 334,-30.5 334,-0.5 188,-0.5"/>
<text text-anchor="start" x="196" y="-18.5" font-family="Helvetica,sans-Serif" font-size="10.00">amunmt::GPU::NpzConverter</text>
<text text-anchor="middle" x="261" y="-7.5" font-family="Helvetica,sans-Serif" font-size="10.00">::NpyMatrixWrapper::size2</text>
</a>
</g>
</g>
<!-- Node1&#45;&gt;Node2 -->
<g id="edge1" class="edge"><title>Node1&#45;&gt;Node2</title>
<path fill="none" stroke="midnightblue" d="M152.225,-15.5C160.565,-15.5 169.092,-15.5 177.516,-15.5"/>
<polygon fill="midnightblue" stroke="midnightblue" points="177.72,-19.0001 187.72,-15.5 177.72,-12.0001 177.72,-19.0001"/>
</g>
</g>
</svg>
