<?xml version="1.0" encoding="UTF-8" standalone="no"?>
<!DOCTYPE svg PUBLIC "-//W3C//DTD SVG 1.1//EN"
 "http://www.w3.org/Graphics/SVG/1.1/DTD/svg11.dtd">
<!-- Generated by graphviz version 2.38.0 (20140413.2041)
 -->
<!-- Title: amunmt::GPU::Encoder::Embeddings&lt; Weights &gt; Pages: 1 -->
<svg width="690pt" height="650pt"
 viewBox="0.00 0.00 690.00 650.00" xmlns="http://www.w3.org/2000/svg" xmlns:xlink="http://www.w3.org/1999/xlink">
<g id="graph0" class="graph" transform="scale(1 1) rotate(0) translate(4 646)">
<title>amunmt::GPU::Encoder::Embeddings&lt; Weights &gt;</title>
<polygon fill="white" stroke="none" points="-4,4 -4,-646 686,-646 686,4 -4,4"/>
<!-- Node1 -->
<g id="node1" class="node"><title>Node1</title>
<polygon fill="#bfbfbf" stroke="black" points="275.5,-0.5 275.5,-90.5 406.5,-90.5 406.5,-0.5 275.5,-0.5"/>
<text text-anchor="start" x="283.5" y="-78.5" font-family="Helvetica,sans-Serif" font-size="10.00">amunmt::GPU::Encoder</text>
<text text-anchor="middle" x="341" y="-67.5" font-family="Helvetica,sans-Serif" font-size="10.00">::Embeddings&lt; Weights &gt;</text>
<polyline fill="none" stroke="black" points="275.5,-60.5 406.5,-60.5 "/>
<text text-anchor="middle" x="341" y="-48.5" font-family="Helvetica,sans-Serif" font-size="10.00"> </text>
<polyline fill="none" stroke="black" points="275.5,-41.5 406.5,-41.5 "/>
<text text-anchor="start" x="283.5" y="-29.5" font-family="Helvetica,sans-Serif" font-size="10.00">+ Embeddings()</text>
<text text-anchor="start" x="283.5" y="-18.5" font-family="Helvetica,sans-Serif" font-size="10.00">+ Lookup()</text>
<text text-anchor="start" x="283.5" y="-7.5" font-family="Helvetica,sans-Serif" font-size="10.00">&#45; Embeddings()</text>
</g>
<!-- Node2 -->
<g id="node2" class="node"><title>Node2</title>
<g id="a_node2"><a xlink:href="$dc/dce/structamunmt_1_1GPU_1_1Weights.html" xlink:title="{amunmt::GPU::Weights\n|+ encForwardGRU_\l+ encBackwardGRU_\l+ encForwardLSTM_\l+ encBackwardLSTM_\l+ encForwardMLSTM_\l+ encBackwardMLSTM_\l+ decGru1_\l+ decGru2_\l+ decLSTM1_\l+ decLSTM2_\l+ decMLSTM1_\l+ decMLSTM2_\l+ device_\l|+ Weights()\l+ Weights()\l+ Weights()\l+ GetDevice()\l&#45; initEncForward()\l&#45; initEncBackward()\l&#45; initDec1()\l&#45; initDec2()\l}">
<polygon fill="white" stroke="black" points="278.5,-138.5 278.5,-404.5 403.5,-404.5 403.5,-138.5 278.5,-138.5"/>
<text text-anchor="middle" x="341" y="-392.5" font-family="Helvetica,sans-Serif" font-size="10.00">amunmt::GPU::Weights</text>
<polyline fill="none" stroke="black" points="278.5,-385.5 403.5,-385.5 "/>
<text text-anchor="start" x="286.5" y="-373.5" font-family="Helvetica,sans-Serif" font-size="10.00">+ encForwardGRU_</text>
<text text-anchor="start" x="286.5" y="-362.5" font-family="Helvetica,sans-Serif" font-size="10.00">+ encBackwardGRU_</text>
<text text-anchor="start" x="286.5" y="-351.5" font-family="Helvetica,sans-Serif" font-size="10.00">+ encForwardLSTM_</text>
<text text-anchor="start" x="286.5" y="-340.5" font-family="Helvetica,sans-Serif" font-size="10.00">+ encBackwardLSTM_</text>
<text text-anchor="start" x="286.5" y="-329.5" font-family="Helvetica,sans-Serif" font-size="10.00">+ encForwardMLSTM_</text>
<text text-anchor="start" x="286.5" y="-318.5" font-family="Helvetica,sans-Serif" font-size="10.00">+ encBackwardMLSTM_</text>
<text text-anchor="start" x="286.5" y="-307.5" font-family="Helvetica,sans-Serif" font-size="10.00">+ decGru1_</text>
<text text-anchor="start" x="286.5" y="-296.5" font-family="Helvetica,sans-Serif" font-size="10.00">+ decGru2_</text>
<text text-anchor="start" x="286.5" y="-285.5" font-family="Helvetica,sans-Serif" font-size="10.00">+ decLSTM1_</text>
<text text-anchor="start" x="286.5" y="-274.5" font-family="Helvetica,sans-Serif" font-size="10.00">+ decLSTM2_</text>
<text text-anchor="start" x="286.5" y="-263.5" font-family="Helvetica,sans-Serif" font-size="10.00">+ decMLSTM1_</text>
<text text-anchor="start" x="286.5" y="-252.5" font-family="Helvetica,sans-Serif" font-size="10.00">+ decMLSTM2_</text>
<text text-anchor="start" x="286.5" y="-241.5" font-family="Helvetica,sans-Serif" font-size="10.00">+ device_</text>
<polyline fill="none" stroke="black" points="278.5,-234.5 403.5,-234.5 "/>
<text text-anchor="start" x="286.5" y="-222.5" font-family="Helvetica,sans-Serif" font-size="10.00">+ Weights()</text>
<text text-anchor="start" x="286.5" y="-211.5" font-family="Helvetica,sans-Serif" font-size="10.00">+ Weights()</text>
<text text-anchor="start" x="286.5" y="-200.5" font-family="Helvetica,sans-Serif" font-size="10.00">+ Weights()</text>
<text text-anchor="start" x="286.5" y="-189.5" font-family="Helvetica,sans-Serif" font-size="10.00">+ GetDevice()</text>
<text text-anchor="start" x="286.5" y="-178.5" font-family="Helvetica,sans-Serif" font-size="10.00">&#45; initEncForward()</text>
<text text-anchor="start" x="286.5" y="-167.5" font-family="Helvetica,sans-Serif" font-size="10.00">&#45; initEncBackward()</text>
<text text-anchor="start" x="286.5" y="-156.5" font-family="Helvetica,sans-Serif" font-size="10.00">&#45; initDec1()</text>
<text text-anchor="start" x="286.5" y="-145.5" font-family="Helvetica,sans-Serif" font-size="10.00">&#45; initDec2()</text>
</a>
</g>
</g>
<!-- Node2&#45;&gt;Node1 -->
<g id="edge1" class="edge"><title>Node2&#45;&gt;Node1</title>
<path fill="none" stroke="#404040" d="M341,-138.256C341,-125.868 341,-113.822 341,-102.752"/>
<polygon fill="none" stroke="#404040" points="341,-102.701 337,-96.7009 341,-90.7009 345,-96.7008 341,-102.701"/>
<text text-anchor="middle" x="350.5" y="-112" font-family="Helvetica,sans-Serif" font-size="10.00"> &#45;w_</text>
</g>
<!-- Node3 -->
<g id="node3" class="node"><title>Node3</title>
<g id="a_node3"><a xlink:href="$db/d14/structamunmt_1_1GPU_1_1Weights_1_1DecSoftmax.html" xlink:title="{amunmt::GPU::Weights\l::DecSoftmax\n|+ W1_\l+ B1_\l+ W2_\l+ B2_\l+ W3_\l+ B3_\l+ W4_\l+ B4_\l+ Gamma_0_\l+ Gamma_1_\l+ Gamma_2_\l|+ DecSoftmax()\l+ DecSoftmax()\l}">
<polygon fill="white" stroke="black" points="0,-452.5 0,-641.5 122,-641.5 122,-452.5 0,-452.5"/>
<text text-anchor="start" x="8" y="-629.5" font-family="Helvetica,sans-Serif" font-size="10.00">amunmt::GPU::Weights</text>
<text text-anchor="middle" x="61" y="-618.5" font-family="Helvetica,sans-Serif" font-size="10.00">::DecSoftmax</text>
<polyline fill="none" stroke="black" points="0,-611.5 122,-611.5 "/>
<text text-anchor="start" x="8" y="-599.5" font-family="Helvetica,sans-Serif" font-size="10.00">+ W1_</text>
<text text-anchor="start" x="8" y="-588.5" font-family="Helvetica,sans-Serif" font-size="10.00">+ B1_</text>
<text text-anchor="start" x="8" y="-577.5" font-family="Helvetica,sans-Serif" font-size="10.00">+ W2_</text>
<text text-anchor="start" x="8" y="-566.5" font-family="Helvetica,sans-Serif" font-size="10.00">+ B2_</text>
<text text-anchor="start" x="8" y="-555.5" font-family="Helvetica,sans-Serif" font-size="10.00">+ W3_</text>
<text text-anchor="start" x="8" y="-544.5" font-family="Helvetica,sans-Serif" font-size="10.00">+ B3_</text>
<text text-anchor="start" x="8" y="-533.5" font-family="Helvetica,sans-Serif" font-size="10.00">+ W4_</text>
<text text-anchor="start" x="8" y="-522.5" font-family="Helvetica,sans-Serif" font-size="10.00">+ B4_</text>
<text text-anchor="start" x="8" y="-511.5" font-family="Helvetica,sans-Serif" font-size="10.00">+ Gamma_0_</text>
<text text-anchor="start" x="8" y="-500.5" font-family="Helvetica,sans-Serif" font-size="10.00">+ Gamma_1_</text>
<text text-anchor="start" x="8" y="-489.5" font-family="Helvetica,sans-Serif" font-size="10.00">+ Gamma_2_</text>
<polyline fill="none" stroke="black" points="0,-482.5 122,-482.5 "/>
<text text-anchor="start" x="8" y="-470.5" font-family="Helvetica,sans-Serif" font-size="10.00">+ DecSoftmax()</text>
<text text-anchor="start" x="8" y="-459.5" font-family="Helvetica,sans-Serif" font-size="10.00">+ DecSoftmax()</text>
</a>
</g>
</g>
<!-- Node3&#45;&gt;Node2 -->
<g id="edge2" class="edge"><title>Node3&#45;&gt;Node2</title>
<path fill="none" stroke="#404040" d="M122.287,-461.684C125.171,-458.363 128.082,-455.121 131,-452 173.241,-406.822 226.212,-361.612 268.385,-327.866"/>
<polygon fill="none" stroke="#404040" points="268.641,-327.663 270.848,-320.797 278.033,-320.194 275.827,-327.059 268.641,-327.663"/>
<text text-anchor="middle" x="191.5" y="-426" font-family="Helvetica,sans-Serif" font-size="10.00"> +decSoftmax_</text>
</g>
<!-- Node4 -->
<g id="node4" class="node"><title>Node4</title>
<g id="a_node4"><a xlink:href="$d2/db1/structamunmt_1_1GPU_1_1Weights_1_1DecInit.html" xlink:title="{amunmt::GPU::Weights\l::DecInit\n|+ Wi_\l+ Bi_\l+ Gamma_\l|+ DecInit()\l+ DecInit()\l}">
<polygon fill="white" stroke="black" points="140,-496.5 140,-597.5 262,-597.5 262,-496.5 140,-496.5"/>
<text text-anchor="start" x="148" y="-585.5" font-family="Helvetica,sans-Serif" font-size="10.00">amunmt::GPU::Weights</text>
<text text-anchor="middle" x="201" y="-574.5" font-family="Helvetica,sans-Serif" font-size="10.00">::DecInit</text>
<polyline fill="none" stroke="black" points="140,-567.5 262,-567.5 "/>
<text text-anchor="start" x="148" y="-555.5" font-family="Helvetica,sans-Serif" font-size="10.00">+ Wi_</text>
<text text-anchor="start" x="148" y="-544.5" font-family="Helvetica,sans-Serif" font-size="10.00">+ Bi_</text>
<text text-anchor="start" x="148" y="-533.5" font-family="Helvetica,sans-Serif" font-size="10.00">+ Gamma_</text>
<polyline fill="none" stroke="black" points="140,-526.5 262,-526.5 "/>
<text text-anchor="start" x="148" y="-514.5" font-family="Helvetica,sans-Serif" font-size="10.00">+ DecInit()</text>
<text text-anchor="start" x="148" y="-503.5" font-family="Helvetica,sans-Serif" font-size="10.00">+ DecInit()</text>
</a>
</g>
</g>
<!-- Node4&#45;&gt;Node2 -->
<g id="edge3" class="edge"><title>Node4&#45;&gt;Node2</title>
<path fill="none" stroke="#404040" d="M226.353,-496.471C239.485,-470.816 256.216,-438.132 272.81,-405.713"/>
<polygon fill="none" stroke="#404040" points="272.96,-405.421 272.133,-398.258 278.428,-394.74 279.254,-401.903 272.96,-405.421"/>
<text text-anchor="middle" x="284" y="-426" font-family="Helvetica,sans-Serif" font-size="10.00"> +decInit_</text>
</g>
<!-- Node5 -->
<g id="node5" class="node"><title>Node5</title>
<g id="a_node5"><a xlink:href="$d9/d93/structamunmt_1_1GPU_1_1Weights_1_1DecEmbeddings.html" xlink:title="{amunmt::GPU::Weights\l::DecEmbeddings\n|+ E_\l|+ DecEmbeddings()\l+ DecEmbeddings()\l}">
<polygon fill="white" stroke="black" points="280,-507.5 280,-586.5 402,-586.5 402,-507.5 280,-507.5"/>
<text text-anchor="start" x="288" y="-574.5" font-family="Helvetica,sans-Serif" font-size="10.00">amunmt::GPU::Weights</text>
<text text-anchor="middle" x="341" y="-563.5" font-family="Helvetica,sans-Serif" font-size="10.00">::DecEmbeddings</text>
<polyline fill="none" stroke="black" points="280,-556.5 402,-556.5 "/>
<text text-anchor="start" x="288" y="-544.5" font-family="Helvetica,sans-Serif" font-size="10.00">+ E_</text>
<polyline fill="none" stroke="black" points="280,-537.5 402,-537.5 "/>
<text text-anchor="start" x="288" y="-525.5" font-family="Helvetica,sans-Serif" font-size="10.00">+ DecEmbeddings()</text>
<text text-anchor="start" x="288" y="-514.5" font-family="Helvetica,sans-Serif" font-size="10.00">+ DecEmbeddings()</text>
</a>
</g>
</g>
<!-- Node5&#45;&gt;Node2 -->
<g id="edge4" class="edge"><title>Node5&#45;&gt;Node2</title>
<path fill="none" stroke="#404040" d="M341,-507.394C341,-483.199 341,-450.339 341,-416.869"/>
<polygon fill="none" stroke="#404040" points="341,-416.525 337,-410.525 341,-404.525 345,-410.525 341,-416.525"/>
<text text-anchor="middle" x="383.5" y="-426" font-family="Helvetica,sans-Serif" font-size="10.00"> +decEmbeddings_</text>
</g>
<!-- Node6 -->
<g id="node6" class="node"><title>Node6</title>
<g id="a_node6"><a xlink:href="$dc/d6b/structamunmt_1_1GPU_1_1Weights_1_1EncEmbeddings.html" xlink:title="{amunmt::GPU::Weights\l::EncEmbeddings\n|+ E_\l|+ EncEmbeddings()\l+ EncEmbeddings()\l}">
<polygon fill="white" stroke="black" points="420,-507.5 420,-586.5 542,-586.5 542,-507.5 420,-507.5"/>
<text text-anchor="start" x="428" y="-574.5" font-family="Helvetica,sans-Serif" font-size="10.00">amunmt::GPU::Weights</text>
<text text-anchor="middle" x="481" y="-563.5" font-family="Helvetica,sans-Serif" font-size="10.00">::EncEmbeddings</text>
<polyline fill="none" stroke="black" points="420,-556.5 542,-556.5 "/>
<text text-anchor="start" x="428" y="-544.5" font-family="Helvetica,sans-Serif" font-size="10.00">+ E_</text>
<polyline fill="none" stroke="black" points="420,-537.5 542,-537.5 "/>
<text text-anchor="start" x="428" y="-525.5" font-family="Helvetica,sans-Serif" font-size="10.00">+ EncEmbeddings()</text>
<text text-anchor="start" x="428" y="-514.5" font-family="Helvetica,sans-Serif" font-size="10.00">+ EncEmbeddings()</text>
</a>
</g>
</g>
<!-- Node6&#45;&gt;Node2 -->
<g id="edge5" class="edge"><title>Node6&#45;&gt;Node2</title>
<path fill="none" stroke="#404040" d="M466.621,-507.424C457.075,-482.868 443.799,-450.604 430,-423 423.691,-410.379 416.738,-397.379 409.584,-384.554"/>
<polygon fill="none" stroke="#404040" points="409.433,-384.286 403.002,-381.025 403.537,-373.834 409.969,-377.095 409.433,-384.286"/>
<text text-anchor="middle" x="476.5" y="-426" font-family="Helvetica,sans-Serif" font-size="10.00"> +encEmbeddings_</text>
</g>
<!-- Node7 -->
<g id="node7" class="node"><title>Node7</title>
<g id="a_node7"><a xlink:href="$d3/d68/structamunmt_1_1GPU_1_1Weights_1_1DecAlignment.html" xlink:title="{amunmt::GPU::Weights\l::DecAlignment\n|+ V_\l+ W_\l+ B_\l+ U_\l+ C_\l+ Gamma_1_\l+ Gamma_2_\l|+ DecAlignment()\l+ DecAlignment()\l}">
<polygon fill="white" stroke="black" points="560,-474.5 560,-619.5 682,-619.5 682,-474.5 560,-474.5"/>
<text text-anchor="start" x="568" y="-607.5" font-family="Helvetica,sans-Serif" font-size="10.00">amunmt::GPU::Weights</text>
<text text-anchor="middle" x="621" y="-596.5" font-family="Helvetica,sans-Serif" font-size="10.00">::DecAlignment</text>
<polyline fill="none" stroke="black" points="560,-589.5 682,-589.5 "/>
<text text-anchor="start" x="568" y="-577.5" font-family="Helvetica,sans-Serif" font-size="10.00">+ V_</text>
<text text-anchor="start" x="568" y="-566.5" font-family="Helvetica,sans-Serif" font-size="10.00">+ W_</text>
<text text-anchor="start" x="568" y="-555.5" font-family="Helvetica,sans-Serif" font-size="10.00">+ B_</text>
<text text-anchor="start" x="568" y="-544.5" font-family="Helvetica,sans-Serif" font-size="10.00">+ U_</text>
<text text-anchor="start" x="568" y="-533.5" font-family="Helvetica,sans-Serif" font-size="10.00">+ C_</text>
<text text-anchor="start" x="568" y="-522.5" font-family="Helvetica,sans-Serif" font-size="10.00">+ Gamma_1_</text>
<text text-anchor="start" x="568" y="-511.5" font-family="Helvetica,sans-Serif" font-size="10.00">+ Gamma_2_</text>
<polyline fill="none" stroke="black" points="560,-504.5 682,-504.5 "/>
<text text-anchor="start" x="568" y="-492.5" font-family="Helvetica,sans-Serif" font-size="10.00">+ DecAlignment()</text>
<text text-anchor="start" x="568" y="-481.5" font-family="Helvetica,sans-Serif" font-size="10.00">+ DecAlignment()</text>
</a>
</g>
</g>
<!-- Node7&#45;&gt;Node2 -->
<g id="edge6" class="edge"><title>Node7&#45;&gt;Node2</title>
<path fill="none" stroke="#404040" d="M569.198,-474.418C563.199,-466.74 557.058,-459.135 551,-452 510.306,-404.075 456.226,-358.165 413.137,-324.773"/>
<polygon fill="none" stroke="#404040" points="413.076,-324.726 405.882,-324.243 403.56,-317.416 410.755,-317.899 413.076,-324.726"/>
<text text-anchor="middle" x="568" y="-426" font-family="Helvetica,sans-Serif" font-size="10.00"> +decAlignment_</text>
</g>
</g>
</svg>
