<?xml version="1.0" encoding="UTF-8" standalone="no"?>
<!DOCTYPE svg PUBLIC "-//W3C//DTD SVG 1.1//EN"
 "http://www.w3.org/Graphics/SVG/1.1/DTD/svg11.dtd">
<!-- Generated by graphviz version 2.38.0 (20140413.2041)
 -->
<!-- Title: prepare_corpus.main Pages: 1 -->
<svg width="366pt" height="154pt"
 viewBox="0.00 0.00 366.00 153.50" xmlns="http://www.w3.org/2000/svg" xmlns:xlink="http://www.w3.org/1999/xlink">
<g id="graph0" class="graph" transform="scale(1 1) rotate(0) translate(4 149.5)">
<title>prepare_corpus.main</title>
<polygon fill="white" stroke="none" points="-4,4 -4,-149.5 362,-149.5 362,4 -4,4"/>
<!-- Node1 -->
<g id="node1" class="node"><title>Node1</title>
<polygon fill="#bfbfbf" stroke="black" points="0,-76.5 0,-95.5 107,-95.5 107,-76.5 0,-76.5"/>
<text text-anchor="middle" x="53.5" y="-83.5" font-family="Helvetica,sans-Serif" font-size="10.00">prepare_corpus.main</text>
</g>
<!-- Node2 -->
<g id="node2" class="node"><title>Node2</title>
<g id="a_node2"><a xlink:href="$d2/d9d/namespaceprepare__corpus.html#a8cd0e0b6ee5199bd8838a625ef5803b9" xlink:title="prepare_corpus.parse\l_user_args">
<polygon fill="white" stroke="black" points="160,-115 160,-145 270,-145 270,-115 160,-115"/>
<text text-anchor="start" x="168" y="-133" font-family="Helvetica,sans-Serif" font-size="10.00">prepare_corpus.parse</text>
<text text-anchor="middle" x="215" y="-122" font-family="Helvetica,sans-Serif" font-size="10.00">_user_args</text>
</a>
</g>
</g>
<!-- Node1&#45;&gt;Node2 -->
<g id="edge1" class="edge"><title>Node1&#45;&gt;Node2</title>
<path fill="none" stroke="midnightblue" d="M107.168,-94.1377C127.661,-99.2281 150.862,-105.728 170.394,-111.879"/>
<polygon fill="midnightblue" stroke="midnightblue" points="169.357,-115.222 179.948,-114.958 171.504,-108.559 169.357,-115.222"/>
</g>
<!-- Node3 -->
<g id="node3" class="node"><title>Node3</title>
<g id="a_node3"><a xlink:href="$d2/d9d/namespaceprepare__corpus.html#a41cd95c2147ad4e9b6486dbb66b6b87b" xlink:title="prepare_corpus.load_yaml">
<polygon fill="white" stroke="black" points="149.5,-76.5 149.5,-95.5 280.5,-95.5 280.5,-76.5 149.5,-76.5"/>
<text text-anchor="middle" x="215" y="-83.5" font-family="Helvetica,sans-Serif" font-size="10.00">prepare_corpus.load_yaml</text>
</a>
</g>
</g>
<!-- Node1&#45;&gt;Node3 -->
<g id="edge3" class="edge"><title>Node1&#45;&gt;Node3</title>
<path fill="none" stroke="midnightblue" d="M107.168,-86C117.414,-86 128.337,-86 139.139,-86"/>
<polygon fill="midnightblue" stroke="midnightblue" points="139.433,-89.5001 149.433,-86 139.433,-82.5001 139.433,-89.5001"/>
</g>
<!-- Node4 -->
<g id="node4" class="node"><title>Node4</title>
<g id="a_node4"><a xlink:href="$da/d22/namespacemarian.html#a460460a6de63beebc5d968b44d49d11b" xlink:title="marian::sum">
<polygon fill="white" stroke="black" points="179.5,-38.5 179.5,-57.5 250.5,-57.5 250.5,-38.5 179.5,-38.5"/>
<text text-anchor="middle" x="215" y="-45.5" font-family="Helvetica,sans-Serif" font-size="10.00">marian::sum</text>
</a>
</g>
</g>
<!-- Node1&#45;&gt;Node4 -->
<g id="edge4" class="edge"><title>Node1&#45;&gt;Node4</title>
<path fill="none" stroke="midnightblue" d="M94.7486,-76.411C117.499,-70.9908 145.987,-64.2037 169.414,-58.6225"/>
<polygon fill="midnightblue" stroke="midnightblue" points="170.53,-61.9546 179.446,-56.2323 168.907,-55.1452 170.53,-61.9546"/>
</g>
<!-- Node5 -->
<g id="node5" class="node"><title>Node5</title>
<g id="a_node5"><a xlink:href="$d2/d9d/namespaceprepare__corpus.html#a94500e5ed125979793ade8632786b6c3" xlink:title="prepare_corpus.replace_unks">
<polygon fill="white" stroke="black" points="143,-0.5 143,-19.5 287,-19.5 287,-0.5 143,-0.5"/>
<text text-anchor="middle" x="215" y="-7.5" font-family="Helvetica,sans-Serif" font-size="10.00">prepare_corpus.replace_unks</text>
</a>
</g>
</g>
<!-- Node1&#45;&gt;Node5 -->
<g id="edge5" class="edge"><title>Node1&#45;&gt;Node5</title>
<path fill="none" stroke="midnightblue" d="M66.6902,-76.3808C83.1381,-63.8302 113.756,-41.9487 143,-29 148.382,-26.6171 154.129,-24.4761 159.935,-22.5671"/>
<polygon fill="midnightblue" stroke="midnightblue" points="161.173,-25.8485 169.709,-19.5719 159.122,-19.1557 161.173,-25.8485"/>
</g>
<!-- Node2&#45;&gt;Node1 -->
<g id="edge2" class="edge"><title>Node2&#45;&gt;Node1</title>
<path fill="none" stroke="midnightblue" d="M159.813,-121.484C133.729,-114.959 103.565,-106.248 82.2219,-98.9101"/>
<polygon fill="midnightblue" stroke="midnightblue" points="83.3913,-95.6113 72.7967,-95.5413 81.0352,-102.203 83.3913,-95.6113"/>
</g>
<!-- Node6 -->
<g id="node6" class="node"><title>Node6</title>
<g id="a_node6"><a xlink:href="$df/d5c/align2steps_8cpp.html#acc994bdb70df3b28bc0f94aede3731c3" xlink:title="split">
<polygon fill="white" stroke="black" points="323,-0.5 323,-19.5 358,-19.5 358,-0.5 323,-0.5"/>
<text text-anchor="middle" x="340.5" y="-7.5" font-family="Helvetica,sans-Serif" font-size="10.00">split</text>
</a>
</g>
</g>
<!-- Node5&#45;&gt;Node6 -->
<g id="edge6" class="edge"><title>Node5&#45;&gt;Node6</title>
<path fill="none" stroke="midnightblue" d="M287.125,-10C296.163,-10 304.927,-10 312.618,-10"/>
<polygon fill="midnightblue" stroke="midnightblue" points="312.692,-13.5001 322.692,-10 312.692,-6.5001 312.692,-13.5001"/>
</g>
</g>
</svg>
