<?xml version="1.0" encoding="UTF-8" standalone="no"?>
<!DOCTYPE svg PUBLIC "-//W3C//DTD SVG 1.1//EN"
 "http://www.w3.org/Graphics/SVG/1.1/DTD/svg11.dtd">
<!-- Generated by graphviz version 2.38.0 (20140413.2041)
 -->
<!-- Title: amunmt::TranslationTask Pages: 1 -->
<!--zoomable 286 -->
<svg id="main" version="1.1" xmlns="http://www.w3.org/2000/svg" xmlns:xlink="http://www.w3.org/1999/xlink" xml:space="preserve" onload="init(evt)">
<style type="text/css"><![CDATA[
.edge:hover path { stroke: red; }
.edge:hover polygon { stroke: red; fill: red; }
]]></style>
<script type="text/javascript"><![CDATA[
var edges = document.getElementsByTagName('g');
if (edges && edges.length) {
  for (var i=0;i<edges.length;i++) {
    if (edges[i].id.substr(0,4)=='edge') {
      edges[i].setAttribute('class','edge');
    }
  }
}
]]></script>
        <defs>
                <circle id="rim" cx="0" cy="0" r="7"/>
                <circle id="rim2" cx="0" cy="0" r="3.5"/>
                <g id="zoomPlus">
                        <use xlink:href="#rim" fill="#404040">
                                <set attributeName="fill" to="#808080" begin="zoomplus.mouseover" end="zoomplus.mouseout"/>
                        </use>
                        <path d="M-4,0h8M0,-4v8" fill="none" stroke="white" stroke-width="1.5" pointer-events="none"/>
                </g>
                <g id="zoomMin">
                        <use xlink:href="#rim" fill="#404040">
                                <set attributeName="fill" to="#808080" begin="zoomminus.mouseover" end="zoomminus.mouseout"/>
                        </use>
                        <path d="M-4,0h8" fill="none" stroke="white" stroke-width="1.5" pointer-events="none"/>
                </g>
                <g id="dirArrow">
                        <path fill="none" stroke="white" stroke-width="1.5" d="M0,-3.0v7 M-2.5,-0.5L0,-3.0L2.5,-0.5"/>
                </g>
               <g id="resetDef">
                       <use xlink:href="#rim2" fill="#404040">
                               <set attributeName="fill" to="#808080" begin="reset.mouseover" end="reset.mouseout"/>
                       </use>
               </g>
        </defs>

<script type="text/javascript">
var viewWidth = 672;
var viewHeight = 286;
var sectionId = 'dynsection-19';
</script>
<script xlink:href="../../svgpan.js"/>
<svg id="graph" class="graph">
<g id="viewport">
<title>amunmt::TranslationTask</title>
<polygon fill="white" stroke="none" points="-4,4 -4,-282.34 668,-282.34 668,4 -4,4"/>
<!-- Node1 -->
<g id="node1" class="node"><title>Node1</title>
<polygon fill="#bfbfbf" stroke="black" points="0,-157 0,-176 128,-176 128,-157 0,-157"/>
<text text-anchor="middle" x="64" y="-164" font-family="Helvetica,sans-Serif" font-size="10.00">amunmt::TranslationTask</text>
</g>
<!-- Node2 -->
<g id="node2" class="node"><title>Node2</title>
<g id="a_node2"><a xlink:href="../../d7/d4e/classamunmt_1_1God.html#a38e952b706c978ecb2b8ad2ab7f7828f" target="_top" xlink:title="amunmt::God::GetSearch">
<polygon fill="white" stroke="black" points="167.5,-176 167.5,-195 295.5,-195 295.5,-176 167.5,-176"/>
<text text-anchor="middle" x="231.5" y="-183" font-family="Helvetica,sans-Serif" font-size="10.00">amunmt::God::GetSearch</text>
</a>
</g>
</g>
<!-- Node1&#45;&gt;Node2 -->
<g id="edge1" class="edge"><title>Node1&#45;&gt;Node2</title>
<path fill="none" stroke="midnightblue" d="M128.041,-173.737C137.6,-174.835 147.532,-175.975 157.285,-177.095"/>
<polygon fill="midnightblue" stroke="midnightblue" points="157.027,-180.588 167.361,-178.251 157.825,-173.634 157.027,-180.588"/>
</g>
<!-- Node3 -->
<g id="node3" class="node"><title>Node3</title>
<g id="a_node3"><a xlink:href="../../d7/d92/classamunmt_1_1Search.html#a8a55a67dbc9dab24441767d7b2066b9a" target="_top" xlink:title="amunmt::Search::Translate">
<polygon fill="white" stroke="black" points="164,-138 164,-157 299,-157 299,-138 164,-138"/>
<text text-anchor="middle" x="231.5" y="-145" font-family="Helvetica,sans-Serif" font-size="10.00">amunmt::Search::Translate</text>
</a>
</g>
</g>
<!-- Node1&#45;&gt;Node3 -->
<g id="edge2" class="edge"><title>Node1&#45;&gt;Node3</title>
<path fill="none" stroke="midnightblue" d="M128.041,-159.263C136.445,-158.298 145.137,-157.3 153.742,-156.312"/>
<polygon fill="midnightblue" stroke="midnightblue" points="154.246,-159.777 163.781,-155.16 153.447,-152.823 154.246,-159.777"/>
</g>
<!-- Node4 -->
<g id="node4" class="node"><title>Node4</title>
<g id="a_node4"><a xlink:href="../../d7/d92/classamunmt_1_1Search.html#adab7a84cbd820e7395a3f79fc604bb06" target="_top" xlink:title="amunmt::Search::FilterTarget\lVocab">
<polygon fill="white" stroke="black" points="335,-176.5 335,-206.5 479,-206.5 479,-176.5 335,-176.5"/>
<text text-anchor="start" x="343" y="-194.5" font-family="Helvetica,sans-Serif" font-size="10.00">amunmt::Search::FilterTarget</text>
<text text-anchor="middle" x="407" y="-183.5" font-family="Helvetica,sans-Serif" font-size="10.00">Vocab</text>
</a>
</g>
</g>
<!-- Node3&#45;&gt;Node4 -->
<g id="edge3" class="edge"><title>Node3&#45;&gt;Node4</title>
<path fill="none" stroke="midnightblue" d="M270.147,-157.047C289.594,-161.979 313.949,-168.156 336.648,-173.912"/>
<polygon fill="midnightblue" stroke="midnightblue" points="336.041,-177.369 346.595,-176.435 337.762,-170.584 336.041,-177.369"/>
</g>
<!-- Node5 -->
<g id="node5" class="node"><title>Node5</title>
<g id="a_node5"><a xlink:href="../../de/ded/classamunmt_1_1Sentences.html#accf70916436eb80cd7f4df9645fd1da8" target="_top" xlink:title="amunmt::Sentences::size">
<polygon fill="white" stroke="black" points="525.5,-226 525.5,-245 653.5,-245 653.5,-226 525.5,-226"/>
<text text-anchor="middle" x="589.5" y="-233" font-family="Helvetica,sans-Serif" font-size="10.00">amunmt::Sentences::size</text>
</a>
</g>
</g>
<!-- Node3&#45;&gt;Node5 -->
<g id="edge10" class="edge"><title>Node3&#45;&gt;Node5</title>
<path fill="none" stroke="midnightblue" d="M284.36,-157.131C289.686,-159.584 294.707,-162.655 299,-166.5 330.478,-194.692 299.916,-230.946 335,-254.5 403.532,-300.509 507.235,-269.149 558.138,-248.912"/>
<polygon fill="midnightblue" stroke="midnightblue" points="559.663,-252.07 567.589,-245.039 557.008,-245.593 559.663,-252.07"/>
</g>
<!-- Node8 -->
<g id="node8" class="node"><title>Node8</title>
<g id="a_node8"><a xlink:href="../../d7/d92/classamunmt_1_1Search.html#aeca132502f793a9cf8f54ba5e12a333a" target="_top" xlink:title="amunmt::Search::Encode">
<polygon fill="white" stroke="black" points="343,-226 343,-245 471,-245 471,-226 343,-226"/>
<text text-anchor="middle" x="407" y="-233" font-family="Helvetica,sans-Serif" font-size="10.00">amunmt::Search::Encode</text>
</a>
</g>
</g>
<!-- Node3&#45;&gt;Node8 -->
<g id="edge7" class="edge"><title>Node3&#45;&gt;Node8</title>
<path fill="none" stroke="midnightblue" d="M280.772,-157.092C287.222,-159.55 293.498,-162.634 299,-166.5 321.405,-182.244 312.464,-200.945 335,-216.5 337.924,-218.518 341.052,-220.322 344.305,-221.935"/>
<polygon fill="midnightblue" stroke="midnightblue" points="343.168,-225.255 353.737,-225.99 345.933,-218.825 343.168,-225.255"/>
</g>
<!-- Node9 -->
<g id="node9" class="node"><title>Node9</title>
<g id="a_node9"><a xlink:href="../../d7/d92/classamunmt_1_1Search.html#a1cd54cd91f09de25de5967d0704dc77d" target="_top" xlink:title="amunmt::Search::NewStates">
<polygon fill="white" stroke="black" points="335.5,-138 335.5,-157 478.5,-157 478.5,-138 335.5,-138"/>
<text text-anchor="middle" x="407" y="-145" font-family="Helvetica,sans-Serif" font-size="10.00">amunmt::Search::NewStates</text>
</a>
</g>
</g>
<!-- Node3&#45;&gt;Node9 -->
<g id="edge9" class="edge"><title>Node3&#45;&gt;Node9</title>
<path fill="none" stroke="midnightblue" d="M299.083,-147.5C307.6,-147.5 316.392,-147.5 325.104,-147.5"/>
<polygon fill="midnightblue" stroke="midnightblue" points="325.275,-151 335.275,-147.5 325.274,-144 325.275,-151"/>
</g>
<!-- Node10 -->
<g id="node10" class="node"><title>Node10</title>
<g id="a_node10"><a xlink:href="../../de/ded/classamunmt_1_1Sentences.html#a02f0688d10222abd36ef037121a85e72" target="_top" xlink:title="amunmt::Sentences::\lGetMaxLength">
<polygon fill="white" stroke="black" points="352,-88.5 352,-118.5 462,-118.5 462,-88.5 352,-88.5"/>
<text text-anchor="start" x="360" y="-106.5" font-family="Helvetica,sans-Serif" font-size="10.00">amunmt::Sentences::</text>
<text text-anchor="middle" x="407" y="-95.5" font-family="Helvetica,sans-Serif" font-size="10.00">GetMaxLength</text>
</a>
</g>
</g>
<!-- Node3&#45;&gt;Node10 -->
<g id="edge11" class="edge"><title>Node3&#45;&gt;Node10</title>
<path fill="none" stroke="midnightblue" d="M270.147,-137.953C291.17,-132.621 317.929,-125.835 342.13,-119.698"/>
<polygon fill="midnightblue" stroke="midnightblue" points="343.133,-123.054 351.966,-117.203 341.412,-116.269 343.133,-123.054"/>
</g>
<!-- Node11 -->
<g id="node11" class="node"><title>Node11</title>
<g id="a_node11"><a xlink:href="../../d7/d92/classamunmt_1_1Search.html#a80d628a5581c65ebe73fe0b941497eba" target="_top" xlink:title="amunmt::Search::CalcBeam">
<polygon fill="white" stroke="black" points="337,-50 337,-69 477,-69 477,-50 337,-50"/>
<text text-anchor="middle" x="407" y="-57" font-family="Helvetica,sans-Serif" font-size="10.00">amunmt::Search::CalcBeam</text>
</a>
</g>
</g>
<!-- Node3&#45;&gt;Node11 -->
<g id="edge12" class="edge"><title>Node3&#45;&gt;Node11</title>
<path fill="none" stroke="midnightblue" d="M244.387,-137.802C262.771,-123.24 299.675,-95.7079 335,-79.5 341.1,-76.7013 347.678,-74.2103 354.282,-72.0184"/>
<polygon fill="midnightblue" stroke="midnightblue" points="355.415,-75.3314 363.925,-69.0198 353.337,-68.6471 355.415,-75.3314"/>
</g>
<!-- Node12 -->
<g id="node12" class="node"><title>Node12</title>
<g id="a_node12"><a xlink:href="../../d7/d92/classamunmt_1_1Search.html#acdf0343e135ef26bf53ebb9389b379f6" target="_top" xlink:title="amunmt::Search::CleanAfter\lTranslation">
<polygon fill="white" stroke="black" points="336.5,-0.5 336.5,-30.5 477.5,-30.5 477.5,-0.5 336.5,-0.5"/>
<text text-anchor="start" x="344.5" y="-18.5" font-family="Helvetica,sans-Serif" font-size="10.00">amunmt::Search::CleanAfter</text>
<text text-anchor="middle" x="407" y="-7.5" font-family="Helvetica,sans-Serif" font-size="10.00">Translation</text>
</a>
</g>
</g>
<!-- Node3&#45;&gt;Node12 -->
<g id="edge13" class="edge"><title>Node3&#45;&gt;Node12</title>
<path fill="none" stroke="midnightblue" d="M239.308,-137.762C254.287,-117.015 292.193,-68.1022 335,-40.5 338.092,-38.506 341.363,-36.6482 344.736,-34.9208"/>
<polygon fill="midnightblue" stroke="midnightblue" points="346.281,-38.0622 353.85,-30.6487 343.31,-31.724 346.281,-38.0622"/>
</g>
<!-- Node4&#45;&gt;Node5 -->
<g id="edge4" class="edge"><title>Node4&#45;&gt;Node5</title>
<path fill="none" stroke="midnightblue" d="M469.613,-206.519C492.448,-212.086 518.011,-218.317 539.565,-223.571"/>
<polygon fill="midnightblue" stroke="midnightblue" points="538.933,-227.02 549.477,-225.988 540.591,-220.219 538.933,-227.02"/>
</g>
<!-- Node6 -->
<g id="node6" class="node"><title>Node6</title>
<g id="a_node6"><a xlink:href="../../de/ded/classamunmt_1_1Sentences.html#afe33dd6de1f3dfbcff4003c32bdd1f4b" target="_top" xlink:title="amunmt::Sentences::at">
<polygon fill="white" stroke="black" points="530,-185 530,-204 649,-204 649,-185 530,-185"/>
<text text-anchor="middle" x="589.5" y="-192" font-family="Helvetica,sans-Serif" font-size="10.00">amunmt::Sentences::at</text>
</a>
</g>
</g>
<!-- Node4&#45;&gt;Node6 -->
<g id="edge5" class="edge"><title>Node4&#45;&gt;Node6</title>
<path fill="none" stroke="midnightblue" d="M479.079,-192.681C492.522,-192.905 506.56,-193.138 519.925,-193.36"/>
<polygon fill="midnightblue" stroke="midnightblue" points="519.935,-196.861 529.992,-193.528 520.051,-189.862 519.935,-196.861"/>
</g>
<!-- Node7 -->
<g id="node7" class="node"><title>Node7</title>
<g id="a_node7"><a xlink:href="../../d7/db4/classamunmt_1_1Sentence.html#a929bbcefc70b6bc280bbdadb3be00ec9" target="_top" xlink:title="amunmt::Sentence::GetWords">
<polygon fill="white" stroke="black" points="515,-147 515,-166 664,-166 664,-147 515,-147"/>
<text text-anchor="middle" x="589.5" y="-154" font-family="Helvetica,sans-Serif" font-size="10.00">amunmt::Sentence::GetWords</text>
</a>
</g>
</g>
<!-- Node4&#45;&gt;Node7 -->
<g id="edge6" class="edge"><title>Node4&#45;&gt;Node7</title>
<path fill="none" stroke="midnightblue" d="M479.079,-177.717C495.827,-174.47 513.499,-171.043 529.64,-167.913"/>
<polygon fill="midnightblue" stroke="midnightblue" points="530.32,-171.347 539.47,-166.007 528.987,-164.475 530.32,-171.347"/>
</g>
<!-- Node8&#45;&gt;Node5 -->
<g id="edge8" class="edge"><title>Node8&#45;&gt;Node5</title>
<path fill="none" stroke="midnightblue" d="M471.13,-235.5C485.42,-235.5 500.71,-235.5 515.374,-235.5"/>
<polygon fill="midnightblue" stroke="midnightblue" points="515.406,-239 525.406,-235.5 515.405,-232 515.406,-239"/>
</g>
</g>
</svg>
        <g id="navigator" transform="translate(0 0)" fill="#404254">
                <rect fill="#f2f5e9" fill-opacity="0.5" stroke="#606060" stroke-width=".5" x="0" y="0" width="60" height="60"/>
                <use id="zoomplus" xlink:href="#zoomPlus" x="17" y="9" onmousedown="handleZoom(evt,'in')"/>
                <use id="zoomminus" xlink:href="#zoomMin" x="42" y="9" onmousedown="handleZoom(evt,'out')"/>
                <use id="reset" xlink:href="#resetDef" x="30" y="36" onmousedown="handleReset()"/>
                <g id="arrowUp" xlink:href="#dirArrow" transform="translate(30 24)" onmousedown="handlePan(0,-1)">
                  <use xlink:href="#rim" fill="#404040">
                        <set attributeName="fill" to="#808080" begin="arrowUp.mouseover" end="arrowUp.mouseout"/>
                  </use>
                  <path fill="none" stroke="white" stroke-width="1.5" d="M0,-3.0v7 M-2.5,-0.5L0,-3.0L2.5,-0.5"/>
                </g>
                <g id="arrowRight" xlink:href="#dirArrow" transform="rotate(90) translate(36 -43)" onmousedown="handlePan(1,0)">
                  <use xlink:href="#rim" fill="#404040">
                        <set attributeName="fill" to="#808080" begin="arrowRight.mouseover" end="arrowRight.mouseout"/>
                  </use>
                  <path fill="none" stroke="white" stroke-width="1.5" d="M0,-3.0v7 M-2.5,-0.5L0,-3.0L2.5,-0.5"/>
                </g>
                <g id="arrowDown" xlink:href="#dirArrow" transform="rotate(180) translate(-30 -48)" onmousedown="handlePan(0,1)">
                  <use xlink:href="#rim" fill="#404040">
                        <set attributeName="fill" to="#808080" begin="arrowDown.mouseover" end="arrowDown.mouseout"/>
                  </use>
                  <path fill="none" stroke="white" stroke-width="1.5" d="M0,-3.0v7 M-2.5,-0.5L0,-3.0L2.5,-0.5"/>
                </g>
                <g id="arrowLeft" xlink:href="#dirArrow" transform="rotate(270) translate(-36 17)" onmousedown="handlePan(-1,0)">
                  <use xlink:href="#rim" fill="#404040">
                        <set attributeName="fill" to="#808080" begin="arrowLeft.mouseover" end="arrowLeft.mouseout"/>
                  </use>
                  <path fill="none" stroke="white" stroke-width="1.5" d="M0,-3.0v7 M-2.5,-0.5L0,-3.0L2.5,-0.5"/>
                </g>
        </g>
        <svg viewBox="0 0 15 15" width="100%" height="30px" preserveAspectRatio="xMaxYMin meet">
         <g id="arrow_out" transform="scale(0.3 0.3)">
          <a xlink:href="namespaceamunmt_a54e0c0c0dd1caecba5c17e45d023fd5e_cgraph_org.svg" target="_base">
           <rect id="button" ry="5" rx="5" y="6" x="6" height="38" width="38"
                fill="#f2f5e9" fill-opacity="0.5" stroke="#606060" stroke-width="1.0"/>
           <path id="arrow"
             d="M 11.500037,31.436501 C 11.940474,20.09759 22.043105,11.32322 32.158766,21.979434 L 37.068811,17.246167 C 37.068811,17.246167 37.088388,32 37.088388,32 L 22.160133,31.978069 C 22.160133,31.978069 26.997745,27.140456 26.997745,27.140456 C 18.528582,18.264221 13.291696,25.230495 11.500037,31.436501 z"
             style="fill:#404040;"/>
          </a>
         </g>
        </svg>
</svg>
