<?xml version="1.0" encoding="UTF-8" standalone="no"?>
<!DOCTYPE svg PUBLIC "-//W3C//DTD SVG 1.1//EN"
 "http://www.w3.org/Graphics/SVG/1.1/DTD/svg11.dtd">
<!-- Generated by graphviz version 2.38.0 (20140413.2041)
 -->
<!-- Title: amunmt::GetAlignment Pages: 1 -->
<svg width="766pt" height="208pt"
 viewBox="0.00 0.00 766.00 207.50" xmlns="http://www.w3.org/2000/svg" xmlns:xlink="http://www.w3.org/1999/xlink">
<g id="graph0" class="graph" transform="scale(1 1) rotate(0) translate(4 203.5)">
<title>amunmt::GetAlignment</title>
<polygon fill="white" stroke="none" points="-4,4 -4,-203.5 762,-203.5 762,4 -4,4"/>
<!-- Node1 -->
<g id="node1" class="node"><title>Node1</title>
<polygon fill="#bfbfbf" stroke="black" points="0,-53 0,-72 117,-72 117,-53 0,-53"/>
<text text-anchor="middle" x="58.5" y="-60" font-family="Helvetica,sans-Serif" font-size="10.00">amunmt::GetAlignment</text>
</g>
<!-- Node2 -->
<g id="node2" class="node"><title>Node2</title>
<g id="a_node2"><a xlink:href="../../d7/dd3/namespaceamunmt.html#aef108281493b0c3b669c537192eace34" target="_top" xlink:title="amunmt::Printer">
<polygon fill="white" stroke="black" points="153,-53 153,-72 239,-72 239,-53 153,-53"/>
<text text-anchor="middle" x="196" y="-60" font-family="Helvetica,sans-Serif" font-size="10.00">amunmt::Printer</text>
</a>
</g>
</g>
<!-- Node1&#45;&gt;Node2 -->
<g id="edge1" class="edge"><title>Node1&#45;&gt;Node2</title>
<path fill="none" stroke="midnightblue" d="M127.497,-62.5C136.162,-62.5 144.822,-62.5 152.909,-62.5"/>
<polygon fill="midnightblue" stroke="midnightblue" points="127.357,-59.0001 117.357,-62.5 127.357,-66.0001 127.357,-59.0001"/>
</g>
<!-- Node3 -->
<g id="node3" class="node"><title>Node3</title>
<g id="a_node3"><a xlink:href="../../d5/d49/amunmt_8cpp.html#a86ebd9110196f3b5328ad3c3d31cd007" target="_top" xlink:title="translate">
<polygon fill="white" stroke="black" points="320.5,-92 320.5,-111 374.5,-111 374.5,-92 320.5,-92"/>
<text text-anchor="middle" x="347.5" y="-99" font-family="Helvetica,sans-Serif" font-size="10.00">translate</text>
</a>
</g>
</g>
<!-- Node2&#45;&gt;Node3 -->
<g id="edge2" class="edge"><title>Node2&#45;&gt;Node3</title>
<path fill="none" stroke="midnightblue" d="M243.328,-74.5856C268.587,-81.1748 298.932,-89.0909 320.15,-94.6261"/>
<polygon fill="midnightblue" stroke="midnightblue" points="244.131,-71.1781 233.572,-72.0405 242.364,-77.9514 244.131,-71.1781"/>
</g>
<!-- Node11 -->
<g id="node11" class="node"><title>Node11</title>
<g id="a_node11"><a xlink:href="../../d7/dd3/namespaceamunmt.html#a10b27c18333dd8e5b6652acfea64d7d2" target="_top" xlink:title="amunmt::Printer">
<polygon fill="white" stroke="black" points="304.5,-53 304.5,-72 390.5,-72 390.5,-53 304.5,-53"/>
<text text-anchor="middle" x="347.5" y="-60" font-family="Helvetica,sans-Serif" font-size="10.00">amunmt::Printer</text>
</a>
</g>
</g>
<!-- Node2&#45;&gt;Node11 -->
<g id="edge10" class="edge"><title>Node2&#45;&gt;Node11</title>
<path fill="none" stroke="midnightblue" d="M249.113,-62.5C267.144,-62.5 287.116,-62.5 304.256,-62.5"/>
<polygon fill="midnightblue" stroke="midnightblue" points="249.042,-59.0001 239.042,-62.5 249.042,-66.0001 249.042,-59.0001"/>
</g>
<!-- Node12 -->
<g id="node12" class="node"><title>Node12</title>
<g id="a_node12"><a xlink:href="../../d7/dd3/namespaceamunmt.html#aac616d7d6dd75bad96a6dcf3afe74e85" target="_top" xlink:title="amunmt::TranslationTaskAnd\lOutput">
<polygon fill="white" stroke="black" points="275,-0.5 275,-30.5 420,-30.5 420,-0.5 275,-0.5"/>
<text text-anchor="start" x="283" y="-18.5" font-family="Helvetica,sans-Serif" font-size="10.00">amunmt::TranslationTaskAnd</text>
<text text-anchor="middle" x="347.5" y="-7.5" font-family="Helvetica,sans-Serif" font-size="10.00">Output</text>
</a>
</g>
</g>
<!-- Node2&#45;&gt;Node12 -->
<g id="edge11" class="edge"><title>Node2&#45;&gt;Node12</title>
<path fill="none" stroke="midnightblue" d="M236.799,-49.9879C255.8,-44.0145 278.688,-36.8187 298.632,-30.5488"/>
<polygon fill="midnightblue" stroke="midnightblue" points="235.744,-46.6508 227.254,-52.9888 237.843,-53.3286 235.744,-46.6508"/>
</g>
<!-- Node4 -->
<g id="node4" class="node"><title>Node4</title>
<g id="a_node4"><a xlink:href="../../d5/d49/amunmt_8cpp.html#a1fa5ce5d158455cf2d152ebcbcdf29d0" target="_top" xlink:title="BOOST_PYTHON_MODULE">
<polygon fill="white" stroke="black" points="456,-180 456,-199 602,-199 602,-180 456,-180"/>
<text text-anchor="middle" x="529" y="-187" font-family="Helvetica,sans-Serif" font-size="10.00">BOOST_PYTHON_MODULE</text>
</a>
</g>
</g>
<!-- Node3&#45;&gt;Node4 -->
<g id="edge3" class="edge"><title>Node3&#45;&gt;Node4</title>
<path fill="none" stroke="midnightblue" d="M368.762,-117.269C389.594,-132.797 423.494,-156.205 456,-170.5 464.521,-174.247 473.944,-177.389 483.087,-179.971"/>
<polygon fill="midnightblue" stroke="midnightblue" points="370.761,-114.393 360.676,-111.147 366.536,-119.974 370.761,-114.393"/>
</g>
<!-- Node5 -->
<g id="node5" class="node"><title>Node5</title>
<g id="a_node5"><a xlink:href="../../d6/d38/classmarian_1_1ConfigParser.html#a07165d2c1c885c858d8127eb09f00e71" target="_top" xlink:title="marian::ConfigParser\l::addOptionsTranslate">
<polygon fill="white" stroke="black" points="472.5,-130.5 472.5,-160.5 585.5,-160.5 585.5,-130.5 472.5,-130.5"/>
<text text-anchor="start" x="480.5" y="-148.5" font-family="Helvetica,sans-Serif" font-size="10.00">marian::ConfigParser</text>
<text text-anchor="middle" x="529" y="-137.5" font-family="Helvetica,sans-Serif" font-size="10.00">::addOptionsTranslate</text>
</a>
</g>
</g>
<!-- Node3&#45;&gt;Node5 -->
<g id="edge4" class="edge"><title>Node3&#45;&gt;Node5</title>
<path fill="none" stroke="midnightblue" d="M384.438,-110.309C409.557,-116.467 443.592,-124.809 472.218,-131.826"/>
<polygon fill="midnightblue" stroke="midnightblue" points="385.147,-106.879 374.601,-107.898 383.48,-113.678 385.147,-106.879"/>
</g>
<!-- Node6 -->
<g id="node6" class="node"><title>Node6</title>
<g id="a_node6"><a xlink:href="../../d2/d47/marian_2src_2common_2logging_8h.html#a32a13f91eb216c334ec310b2a8a2f10c" target="_top" xlink:title="createLoggers">
<polygon fill="white" stroke="black" points="490,-92 490,-111 568,-111 568,-92 490,-92"/>
<text text-anchor="middle" x="529" y="-99" font-family="Helvetica,sans-Serif" font-size="10.00">createLoggers</text>
</a>
</g>
</g>
<!-- Node3&#45;&gt;Node6 -->
<g id="edge5" class="edge"><title>Node3&#45;&gt;Node6</title>
<path fill="none" stroke="midnightblue" d="M384.825,-101.5C415.38,-101.5 458.923,-101.5 489.953,-101.5"/>
<polygon fill="midnightblue" stroke="midnightblue" points="384.601,-98.0001 374.601,-101.5 384.601,-105 384.601,-98.0001"/>
</g>
<!-- Node9 -->
<g id="node9" class="node"><title>Node9</title>
<g id="a_node9"><a xlink:href="../../db/de8/classmarian_1_1OutputCollector.html#aac7fb8a5e89ce5a9bac56a6a414e7fe5" target="_top" xlink:title="marian::OutputCollector\l::Write">
<polygon fill="white" stroke="black" points="469,-42.5 469,-72.5 589,-72.5 589,-42.5 469,-42.5"/>
<text text-anchor="start" x="477" y="-60.5" font-family="Helvetica,sans-Serif" font-size="10.00">marian::OutputCollector</text>
<text text-anchor="middle" x="529" y="-49.5" font-family="Helvetica,sans-Serif" font-size="10.00">::Write</text>
</a>
</g>
</g>
<!-- Node3&#45;&gt;Node9 -->
<g id="edge8" class="edge"><title>Node3&#45;&gt;Node9</title>
<path fill="none" stroke="midnightblue" d="M384.405,-92.6988C408.546,-86.7813 440.932,-78.8426 468.837,-72.0023"/>
<polygon fill="midnightblue" stroke="midnightblue" points="383.48,-89.3218 374.601,-95.102 385.147,-96.1205 383.48,-89.3218"/>
</g>
<!-- Node7 -->
<g id="node7" class="node"><title>Node7</title>
<g id="a_node7"><a xlink:href="../../d6/dba/classmarian_1_1Config.html#aa953cca7c4650e7e0538f00388d9f385" target="_top" xlink:title="marian::Config::Config">
<polygon fill="white" stroke="black" points="640.5,-130 640.5,-149 755.5,-149 755.5,-130 640.5,-130"/>
<text text-anchor="middle" x="698" y="-137" font-family="Helvetica,sans-Serif" font-size="10.00">marian::Config::Config</text>
</a>
</g>
</g>
<!-- Node6&#45;&gt;Node7 -->
<g id="edge6" class="edge"><title>Node6&#45;&gt;Node7</title>
<path fill="none" stroke="midnightblue" d="M578.385,-112.51C602.65,-118.031 631.753,-124.653 655.058,-129.956"/>
<polygon fill="midnightblue" stroke="midnightblue" points="578.841,-109.024 568.313,-110.218 577.287,-115.85 578.841,-109.024"/>
</g>
<!-- Node8 -->
<g id="node8" class="node"><title>Node8</title>
<g id="a_node8"><a xlink:href="../../dc/df8/iris_8cpp.html#ae66f6b31b5ad750f1fe042a706a4e3d4" target="_top" xlink:title="main">
<polygon fill="white" stroke="black" points="679,-92 679,-111 717,-111 717,-92 679,-92"/>
<text text-anchor="middle" x="698" y="-99" font-family="Helvetica,sans-Serif" font-size="10.00">main</text>
</a>
</g>
</g>
<!-- Node6&#45;&gt;Node8 -->
<g id="edge7" class="edge"><title>Node6&#45;&gt;Node8</title>
<path fill="none" stroke="midnightblue" d="M578.424,-101.5C612.065,-101.5 654.988,-101.5 678.875,-101.5"/>
<polygon fill="midnightblue" stroke="midnightblue" points="578.313,-98.0001 568.313,-101.5 578.313,-105 578.313,-98.0001"/>
</g>
<!-- Node10 -->
<g id="node10" class="node"><title>Node10</title>
<g id="a_node10"><a xlink:href="../../db/de8/classmarian_1_1OutputCollector.html#a6b877d0629db1fe8d5f5c920025cc859" target="_top" xlink:title="marian::OutputCollector\l::OutputCollector">
<polygon fill="white" stroke="black" points="638,-42.5 638,-72.5 758,-72.5 758,-42.5 638,-42.5"/>
<text text-anchor="start" x="646" y="-60.5" font-family="Helvetica,sans-Serif" font-size="10.00">marian::OutputCollector</text>
<text text-anchor="middle" x="698" y="-49.5" font-family="Helvetica,sans-Serif" font-size="10.00">::OutputCollector</text>
</a>
</g>
</g>
<!-- Node9&#45;&gt;Node10 -->
<g id="edge9" class="edge"><title>Node9&#45;&gt;Node10</title>
<path fill="none" stroke="midnightblue" d="M599.459,-57.5C612.216,-57.5 625.423,-57.5 637.843,-57.5"/>
<polygon fill="midnightblue" stroke="midnightblue" points="599.348,-54.0001 589.348,-57.5 599.348,-61.0001 599.348,-54.0001"/>
</g>
<!-- Node13 -->
<g id="node13" class="node"><title>Node13</title>
<g id="a_node13"><a xlink:href="../../d0/d73/decoder__main_8cpp.html#a0ddf1224851353fc92bfbff6f499fa97" target="_top" xlink:title="main">
<polygon fill="white" stroke="black" points="510,-4 510,-23 548,-23 548,-4 510,-4"/>
<text text-anchor="middle" x="529" y="-11" font-family="Helvetica,sans-Serif" font-size="10.00">main</text>
</a>
</g>
</g>
<!-- Node12&#45;&gt;Node13 -->
<g id="edge12" class="edge"><title>Node12&#45;&gt;Node13</title>
<path fill="none" stroke="midnightblue" d="M430.238,-14.5893C459.977,-14.2579 490.899,-13.9134 509.803,-13.7028"/>
<polygon fill="midnightblue" stroke="midnightblue" points="430.177,-11.0896 420.217,-14.7009 430.255,-18.0892 430.177,-11.0896"/>
</g>
</g>
</svg>
