<?xml version="1.0" encoding="UTF-8" standalone="no"?>
<!DOCTYPE svg PUBLIC "-//W3C//DTD SVG 1.1//EN"
 "http://www.w3.org/Graphics/SVG/1.1/DTD/svg11.dtd">
<!-- Generated by graphviz version 2.38.0 (20140413.2041)
 -->
<!-- Title: amunmt::GPU::Decoder::Softmax&lt; Weights &gt; Pages: 1 -->
<svg width="690pt" height="738pt"
 viewBox="0.00 0.00 690.00 738.00" xmlns="http://www.w3.org/2000/svg" xmlns:xlink="http://www.w3.org/1999/xlink">
<g id="graph0" class="graph" transform="scale(1 1) rotate(0) translate(4 734)">
<title>amunmt::GPU::Decoder::Softmax&lt; Weights &gt;</title>
<polygon fill="white" stroke="none" points="-4,4 -4,-734 686,-734 686,4 -4,4"/>
<!-- Node1 -->
<g id="node1" class="node"><title>Node1</title>
<polygon fill="#bfbfbf" stroke="black" points="280,-0.5 280,-178.5 402,-178.5 402,-0.5 280,-0.5"/>
<text text-anchor="start" x="288" y="-166.5" font-family="Helvetica,sans-Serif" font-size="10.00">amunmt::GPU::Decoder</text>
<text text-anchor="middle" x="341" y="-155.5" font-family="Helvetica,sans-Serif" font-size="10.00">::Softmax&lt; Weights &gt;</text>
<polyline fill="none" stroke="black" points="280,-148.5 402,-148.5 "/>
<text text-anchor="start" x="288" y="-136.5" font-family="Helvetica,sans-Serif" font-size="10.00">&#45; filtered_</text>
<text text-anchor="start" x="288" y="-125.5" font-family="Helvetica,sans-Serif" font-size="10.00">&#45; FilteredW4_</text>
<text text-anchor="start" x="288" y="-114.5" font-family="Helvetica,sans-Serif" font-size="10.00">&#45; FilteredB4_</text>
<text text-anchor="start" x="288" y="-103.5" font-family="Helvetica,sans-Serif" font-size="10.00">&#45; T1_</text>
<text text-anchor="start" x="288" y="-92.5" font-family="Helvetica,sans-Serif" font-size="10.00">&#45; T2_</text>
<text text-anchor="start" x="288" y="-81.5" font-family="Helvetica,sans-Serif" font-size="10.00">&#45; T3_</text>
<text text-anchor="start" x="288" y="-70.5" font-family="Helvetica,sans-Serif" font-size="10.00">&#45; TempW4</text>
<text text-anchor="start" x="288" y="-59.5" font-family="Helvetica,sans-Serif" font-size="10.00">&#45; TempB4</text>
<polyline fill="none" stroke="black" points="280,-52.5 402,-52.5 "/>
<text text-anchor="start" x="288" y="-40.5" font-family="Helvetica,sans-Serif" font-size="10.00">+ Softmax()</text>
<text text-anchor="start" x="288" y="-29.5" font-family="Helvetica,sans-Serif" font-size="10.00">+ GetProbs()</text>
<text text-anchor="start" x="288" y="-18.5" font-family="Helvetica,sans-Serif" font-size="10.00">+ Filter()</text>
<text text-anchor="start" x="288" y="-7.5" font-family="Helvetica,sans-Serif" font-size="10.00">&#45; Softmax()</text>
</g>
<!-- Node2 -->
<g id="node2" class="node"><title>Node2</title>
<g id="a_node2"><a xlink:href="$dc/dce/structamunmt_1_1GPU_1_1Weights.html" xlink:title="{amunmt::GPU::Weights\n|+ encForwardGRU_\l+ encBackwardGRU_\l+ encForwardLSTM_\l+ encBackwardLSTM_\l+ encForwardMLSTM_\l+ encBackwardMLSTM_\l+ decGru1_\l+ decGru2_\l+ decLSTM1_\l+ decLSTM2_\l+ decMLSTM1_\l+ decMLSTM2_\l+ device_\l|+ Weights()\l+ Weights()\l+ Weights()\l+ GetDevice()\l&#45; initEncForward()\l&#45; initEncBackward()\l&#45; initDec1()\l&#45; initDec2()\l}">
<polygon fill="white" stroke="black" points="278.5,-226.5 278.5,-492.5 403.5,-492.5 403.5,-226.5 278.5,-226.5"/>
<text text-anchor="middle" x="341" y="-480.5" font-family="Helvetica,sans-Serif" font-size="10.00">amunmt::GPU::Weights</text>
<polyline fill="none" stroke="black" points="278.5,-473.5 403.5,-473.5 "/>
<text text-anchor="start" x="286.5" y="-461.5" font-family="Helvetica,sans-Serif" font-size="10.00">+ encForwardGRU_</text>
<text text-anchor="start" x="286.5" y="-450.5" font-family="Helvetica,sans-Serif" font-size="10.00">+ encBackwardGRU_</text>
<text text-anchor="start" x="286.5" y="-439.5" font-family="Helvetica,sans-Serif" font-size="10.00">+ encForwardLSTM_</text>
<text text-anchor="start" x="286.5" y="-428.5" font-family="Helvetica,sans-Serif" font-size="10.00">+ encBackwardLSTM_</text>
<text text-anchor="start" x="286.5" y="-417.5" font-family="Helvetica,sans-Serif" font-size="10.00">+ encForwardMLSTM_</text>
<text text-anchor="start" x="286.5" y="-406.5" font-family="Helvetica,sans-Serif" font-size="10.00">+ encBackwardMLSTM_</text>
<text text-anchor="start" x="286.5" y="-395.5" font-family="Helvetica,sans-Serif" font-size="10.00">+ decGru1_</text>
<text text-anchor="start" x="286.5" y="-384.5" font-family="Helvetica,sans-Serif" font-size="10.00">+ decGru2_</text>
<text text-anchor="start" x="286.5" y="-373.5" font-family="Helvetica,sans-Serif" font-size="10.00">+ decLSTM1_</text>
<text text-anchor="start" x="286.5" y="-362.5" font-family="Helvetica,sans-Serif" font-size="10.00">+ decLSTM2_</text>
<text text-anchor="start" x="286.5" y="-351.5" font-family="Helvetica,sans-Serif" font-size="10.00">+ decMLSTM1_</text>
<text text-anchor="start" x="286.5" y="-340.5" font-family="Helvetica,sans-Serif" font-size="10.00">+ decMLSTM2_</text>
<text text-anchor="start" x="286.5" y="-329.5" font-family="Helvetica,sans-Serif" font-size="10.00">+ device_</text>
<polyline fill="none" stroke="black" points="278.5,-322.5 403.5,-322.5 "/>
<text text-anchor="start" x="286.5" y="-310.5" font-family="Helvetica,sans-Serif" font-size="10.00">+ Weights()</text>
<text text-anchor="start" x="286.5" y="-299.5" font-family="Helvetica,sans-Serif" font-size="10.00">+ Weights()</text>
<text text-anchor="start" x="286.5" y="-288.5" font-family="Helvetica,sans-Serif" font-size="10.00">+ Weights()</text>
<text text-anchor="start" x="286.5" y="-277.5" font-family="Helvetica,sans-Serif" font-size="10.00">+ GetDevice()</text>
<text text-anchor="start" x="286.5" y="-266.5" font-family="Helvetica,sans-Serif" font-size="10.00">&#45; initEncForward()</text>
<text text-anchor="start" x="286.5" y="-255.5" font-family="Helvetica,sans-Serif" font-size="10.00">&#45; initEncBackward()</text>
<text text-anchor="start" x="286.5" y="-244.5" font-family="Helvetica,sans-Serif" font-size="10.00">&#45; initDec1()</text>
<text text-anchor="start" x="286.5" y="-233.5" font-family="Helvetica,sans-Serif" font-size="10.00">&#45; initDec2()</text>
</a>
</g>
</g>
<!-- Node2&#45;&gt;Node1 -->
<g id="edge1" class="edge"><title>Node2&#45;&gt;Node1</title>
<path fill="none" stroke="#404040" d="M341,-226.463C341,-214.401 341,-202.319 341,-190.606"/>
<polygon fill="none" stroke="#404040" points="341,-190.55 337,-184.55 341,-178.55 345,-184.55 341,-190.55"/>
<text text-anchor="middle" x="350.5" y="-200" font-family="Helvetica,sans-Serif" font-size="10.00"> &#45;w_</text>
</g>
<!-- Node3 -->
<g id="node3" class="node"><title>Node3</title>
<g id="a_node3"><a xlink:href="$db/d14/structamunmt_1_1GPU_1_1Weights_1_1DecSoftmax.html" xlink:title="{amunmt::GPU::Weights\l::DecSoftmax\n|+ W1_\l+ B1_\l+ W2_\l+ B2_\l+ W3_\l+ B3_\l+ W4_\l+ B4_\l+ Gamma_0_\l+ Gamma_1_\l+ Gamma_2_\l|+ DecSoftmax()\l+ DecSoftmax()\l}">
<polygon fill="white" stroke="black" points="0,-540.5 0,-729.5 122,-729.5 122,-540.5 0,-540.5"/>
<text text-anchor="start" x="8" y="-717.5" font-family="Helvetica,sans-Serif" font-size="10.00">amunmt::GPU::Weights</text>
<text text-anchor="middle" x="61" y="-706.5" font-family="Helvetica,sans-Serif" font-size="10.00">::DecSoftmax</text>
<polyline fill="none" stroke="black" points="0,-699.5 122,-699.5 "/>
<text text-anchor="start" x="8" y="-687.5" font-family="Helvetica,sans-Serif" font-size="10.00">+ W1_</text>
<text text-anchor="start" x="8" y="-676.5" font-family="Helvetica,sans-Serif" font-size="10.00">+ B1_</text>
<text text-anchor="start" x="8" y="-665.5" font-family="Helvetica,sans-Serif" font-size="10.00">+ W2_</text>
<text text-anchor="start" x="8" y="-654.5" font-family="Helvetica,sans-Serif" font-size="10.00">+ B2_</text>
<text text-anchor="start" x="8" y="-643.5" font-family="Helvetica,sans-Serif" font-size="10.00">+ W3_</text>
<text text-anchor="start" x="8" y="-632.5" font-family="Helvetica,sans-Serif" font-size="10.00">+ B3_</text>
<text text-anchor="start" x="8" y="-621.5" font-family="Helvetica,sans-Serif" font-size="10.00">+ W4_</text>
<text text-anchor="start" x="8" y="-610.5" font-family="Helvetica,sans-Serif" font-size="10.00">+ B4_</text>
<text text-anchor="start" x="8" y="-599.5" font-family="Helvetica,sans-Serif" font-size="10.00">+ Gamma_0_</text>
<text text-anchor="start" x="8" y="-588.5" font-family="Helvetica,sans-Serif" font-size="10.00">+ Gamma_1_</text>
<text text-anchor="start" x="8" y="-577.5" font-family="Helvetica,sans-Serif" font-size="10.00">+ Gamma_2_</text>
<polyline fill="none" stroke="black" points="0,-570.5 122,-570.5 "/>
<text text-anchor="start" x="8" y="-558.5" font-family="Helvetica,sans-Serif" font-size="10.00">+ DecSoftmax()</text>
<text text-anchor="start" x="8" y="-547.5" font-family="Helvetica,sans-Serif" font-size="10.00">+ DecSoftmax()</text>
</a>
</g>
</g>
<!-- Node3&#45;&gt;Node2 -->
<g id="edge2" class="edge"><title>Node3&#45;&gt;Node2</title>
<path fill="none" stroke="#404040" d="M122.287,-549.684C125.171,-546.363 128.082,-543.121 131,-540 173.241,-494.822 226.212,-449.612 268.385,-415.866"/>
<polygon fill="none" stroke="#404040" points="268.641,-415.663 270.848,-408.797 278.033,-408.194 275.827,-415.059 268.641,-415.663"/>
<text text-anchor="middle" x="191.5" y="-514" font-family="Helvetica,sans-Serif" font-size="10.00"> +decSoftmax_</text>
</g>
<!-- Node4 -->
<g id="node4" class="node"><title>Node4</title>
<g id="a_node4"><a xlink:href="$d2/db1/structamunmt_1_1GPU_1_1Weights_1_1DecInit.html" xlink:title="{amunmt::GPU::Weights\l::DecInit\n|+ Wi_\l+ Bi_\l+ Gamma_\l|+ DecInit()\l+ DecInit()\l}">
<polygon fill="white" stroke="black" points="140,-584.5 140,-685.5 262,-685.5 262,-584.5 140,-584.5"/>
<text text-anchor="start" x="148" y="-673.5" font-family="Helvetica,sans-Serif" font-size="10.00">amunmt::GPU::Weights</text>
<text text-anchor="middle" x="201" y="-662.5" font-family="Helvetica,sans-Serif" font-size="10.00">::DecInit</text>
<polyline fill="none" stroke="black" points="140,-655.5 262,-655.5 "/>
<text text-anchor="start" x="148" y="-643.5" font-family="Helvetica,sans-Serif" font-size="10.00">+ Wi_</text>
<text text-anchor="start" x="148" y="-632.5" font-family="Helvetica,sans-Serif" font-size="10.00">+ Bi_</text>
<text text-anchor="start" x="148" y="-621.5" font-family="Helvetica,sans-Serif" font-size="10.00">+ Gamma_</text>
<polyline fill="none" stroke="black" points="140,-614.5 262,-614.5 "/>
<text text-anchor="start" x="148" y="-602.5" font-family="Helvetica,sans-Serif" font-size="10.00">+ DecInit()</text>
<text text-anchor="start" x="148" y="-591.5" font-family="Helvetica,sans-Serif" font-size="10.00">+ DecInit()</text>
</a>
</g>
</g>
<!-- Node4&#45;&gt;Node2 -->
<g id="edge3" class="edge"><title>Node4&#45;&gt;Node2</title>
<path fill="none" stroke="#404040" d="M226.353,-584.471C239.485,-558.816 256.216,-526.132 272.81,-493.713"/>
<polygon fill="none" stroke="#404040" points="272.96,-493.421 272.133,-486.258 278.428,-482.74 279.254,-489.903 272.96,-493.421"/>
<text text-anchor="middle" x="284" y="-514" font-family="Helvetica,sans-Serif" font-size="10.00"> +decInit_</text>
</g>
<!-- Node5 -->
<g id="node5" class="node"><title>Node5</title>
<g id="a_node5"><a xlink:href="$d9/d93/structamunmt_1_1GPU_1_1Weights_1_1DecEmbeddings.html" xlink:title="{amunmt::GPU::Weights\l::DecEmbeddings\n|+ E_\l|+ DecEmbeddings()\l+ DecEmbeddings()\l}">
<polygon fill="white" stroke="black" points="280,-595.5 280,-674.5 402,-674.5 402,-595.5 280,-595.5"/>
<text text-anchor="start" x="288" y="-662.5" font-family="Helvetica,sans-Serif" font-size="10.00">amunmt::GPU::Weights</text>
<text text-anchor="middle" x="341" y="-651.5" font-family="Helvetica,sans-Serif" font-size="10.00">::DecEmbeddings</text>
<polyline fill="none" stroke="black" points="280,-644.5 402,-644.5 "/>
<text text-anchor="start" x="288" y="-632.5" font-family="Helvetica,sans-Serif" font-size="10.00">+ E_</text>
<polyline fill="none" stroke="black" points="280,-625.5 402,-625.5 "/>
<text text-anchor="start" x="288" y="-613.5" font-family="Helvetica,sans-Serif" font-size="10.00">+ DecEmbeddings()</text>
<text text-anchor="start" x="288" y="-602.5" font-family="Helvetica,sans-Serif" font-size="10.00">+ DecEmbeddings()</text>
</a>
</g>
</g>
<!-- Node5&#45;&gt;Node2 -->
<g id="edge4" class="edge"><title>Node5&#45;&gt;Node2</title>
<path fill="none" stroke="#404040" d="M341,-595.394C341,-571.199 341,-538.339 341,-504.869"/>
<polygon fill="none" stroke="#404040" points="341,-504.525 337,-498.525 341,-492.525 345,-498.525 341,-504.525"/>
<text text-anchor="middle" x="383.5" y="-514" font-family="Helvetica,sans-Serif" font-size="10.00"> +decEmbeddings_</text>
</g>
<!-- Node6 -->
<g id="node6" class="node"><title>Node6</title>
<g id="a_node6"><a xlink:href="$dc/d6b/structamunmt_1_1GPU_1_1Weights_1_1EncEmbeddings.html" xlink:title="{amunmt::GPU::Weights\l::EncEmbeddings\n|+ E_\l|+ EncEmbeddings()\l+ EncEmbeddings()\l}">
<polygon fill="white" stroke="black" points="420,-595.5 420,-674.5 542,-674.5 542,-595.5 420,-595.5"/>
<text text-anchor="start" x="428" y="-662.5" font-family="Helvetica,sans-Serif" font-size="10.00">amunmt::GPU::Weights</text>
<text text-anchor="middle" x="481" y="-651.5" font-family="Helvetica,sans-Serif" font-size="10.00">::EncEmbeddings</text>
<polyline fill="none" stroke="black" points="420,-644.5 542,-644.5 "/>
<text text-anchor="start" x="428" y="-632.5" font-family="Helvetica,sans-Serif" font-size="10.00">+ E_</text>
<polyline fill="none" stroke="black" points="420,-625.5 542,-625.5 "/>
<text text-anchor="start" x="428" y="-613.5" font-family="Helvetica,sans-Serif" font-size="10.00">+ EncEmbeddings()</text>
<text text-anchor="start" x="428" y="-602.5" font-family="Helvetica,sans-Serif" font-size="10.00">+ EncEmbeddings()</text>
</a>
</g>
</g>
<!-- Node6&#45;&gt;Node2 -->
<g id="edge5" class="edge"><title>Node6&#45;&gt;Node2</title>
<path fill="none" stroke="#404040" d="M466.621,-595.424C457.075,-570.868 443.799,-538.604 430,-511 423.691,-498.379 416.738,-485.379 409.584,-472.554"/>
<polygon fill="none" stroke="#404040" points="409.433,-472.286 403.002,-469.025 403.537,-461.834 409.969,-465.095 409.433,-472.286"/>
<text text-anchor="middle" x="476.5" y="-514" font-family="Helvetica,sans-Serif" font-size="10.00"> +encEmbeddings_</text>
</g>
<!-- Node7 -->
<g id="node7" class="node"><title>Node7</title>
<g id="a_node7"><a xlink:href="$d3/d68/structamunmt_1_1GPU_1_1Weights_1_1DecAlignment.html" xlink:title="{amunmt::GPU::Weights\l::DecAlignment\n|+ V_\l+ W_\l+ B_\l+ U_\l+ C_\l+ Gamma_1_\l+ Gamma_2_\l|+ DecAlignment()\l+ DecAlignment()\l}">
<polygon fill="white" stroke="black" points="560,-562.5 560,-707.5 682,-707.5 682,-562.5 560,-562.5"/>
<text text-anchor="start" x="568" y="-695.5" font-family="Helvetica,sans-Serif" font-size="10.00">amunmt::GPU::Weights</text>
<text text-anchor="middle" x="621" y="-684.5" font-family="Helvetica,sans-Serif" font-size="10.00">::DecAlignment</text>
<polyline fill="none" stroke="black" points="560,-677.5 682,-677.5 "/>
<text text-anchor="start" x="568" y="-665.5" font-family="Helvetica,sans-Serif" font-size="10.00">+ V_</text>
<text text-anchor="start" x="568" y="-654.5" font-family="Helvetica,sans-Serif" font-size="10.00">+ W_</text>
<text text-anchor="start" x="568" y="-643.5" font-family="Helvetica,sans-Serif" font-size="10.00">+ B_</text>
<text text-anchor="start" x="568" y="-632.5" font-family="Helvetica,sans-Serif" font-size="10.00">+ U_</text>
<text text-anchor="start" x="568" y="-621.5" font-family="Helvetica,sans-Serif" font-size="10.00">+ C_</text>
<text text-anchor="start" x="568" y="-610.5" font-family="Helvetica,sans-Serif" font-size="10.00">+ Gamma_1_</text>
<text text-anchor="start" x="568" y="-599.5" font-family="Helvetica,sans-Serif" font-size="10.00">+ Gamma_2_</text>
<polyline fill="none" stroke="black" points="560,-592.5 682,-592.5 "/>
<text text-anchor="start" x="568" y="-580.5" font-family="Helvetica,sans-Serif" font-size="10.00">+ DecAlignment()</text>
<text text-anchor="start" x="568" y="-569.5" font-family="Helvetica,sans-Serif" font-size="10.00">+ DecAlignment()</text>
</a>
</g>
</g>
<!-- Node7&#45;&gt;Node2 -->
<g id="edge6" class="edge"><title>Node7&#45;&gt;Node2</title>
<path fill="none" stroke="#404040" d="M569.198,-562.418C563.199,-554.74 557.058,-547.135 551,-540 510.306,-492.075 456.226,-446.165 413.137,-412.773"/>
<polygon fill="none" stroke="#404040" points="413.076,-412.726 405.882,-412.243 403.56,-405.416 410.755,-405.899 413.076,-412.726"/>
<text text-anchor="middle" x="568" y="-514" font-family="Helvetica,sans-Serif" font-size="10.00"> +decAlignment_</text>
</g>
</g>
</svg>
