<?xml version="1.0" encoding="UTF-8" standalone="no"?>
<!DOCTYPE svg PUBLIC "-//W3C//DTD SVG 1.1//EN"
 "http://www.w3.org/Graphics/SVG/1.1/DTD/svg11.dtd">
<!-- Generated by graphviz version 2.38.0 (20140413.2041)
 -->
<!-- Title: marian::rnn::StackableFactory Pages: 1 -->
<!--zoomable 651 -->
<svg id="main" version="1.1" xmlns="http://www.w3.org/2000/svg" xmlns:xlink="http://www.w3.org/1999/xlink" xml:space="preserve" onload="init(evt)">
<style type="text/css"><![CDATA[
.edge:hover path { stroke: red; }
.edge:hover polygon { stroke: red; fill: red; }
]]></style>
<script type="text/javascript"><![CDATA[
var edges = document.getElementsByTagName('g');
if (edges && edges.length) {
  for (var i=0;i<edges.length;i++) {
    if (edges[i].id.substr(0,4)=='edge') {
      edges[i].setAttribute('class','edge');
    }
  }
}
]]></script>
        <defs>
                <circle id="rim" cx="0" cy="0" r="7"/>
                <circle id="rim2" cx="0" cy="0" r="3.5"/>
                <g id="zoomPlus">
                        <use xlink:href="#rim" fill="#404040">
                                <set attributeName="fill" to="#808080" begin="zoomplus.mouseover" end="zoomplus.mouseout"/>
                        </use>
                        <path d="M-4,0h8M0,-4v8" fill="none" stroke="white" stroke-width="1.5" pointer-events="none"/>
                </g>
                <g id="zoomMin">
                        <use xlink:href="#rim" fill="#404040">
                                <set attributeName="fill" to="#808080" begin="zoomminus.mouseover" end="zoomminus.mouseout"/>
                        </use>
                        <path d="M-4,0h8" fill="none" stroke="white" stroke-width="1.5" pointer-events="none"/>
                </g>
                <g id="dirArrow">
                        <path fill="none" stroke="white" stroke-width="1.5" d="M0,-3.0v7 M-2.5,-0.5L0,-3.0L2.5,-0.5"/>
                </g>
               <g id="resetDef">
                       <use xlink:href="#rim2" fill="#404040">
                               <set attributeName="fill" to="#808080" begin="reset.mouseover" end="reset.mouseout"/>
                       </use>
               </g>
        </defs>

<script type="text/javascript">
var viewWidth = 294;
var viewHeight = 651;
var sectionId = 'dynsection-0';
</script>
<script xlink:href="../../svgpan.js"/>
<svg id="graph" class="graph">
<g id="viewport">
<title>marian::rnn::StackableFactory</title>
<polygon fill="white" stroke="none" points="-4,4 -4,-647 290,-647 290,4 -4,4"/>
<!-- Node1 -->
<g id="node1" class="node"><title>Node1</title>
<polygon fill="#bfbfbf" stroke="black" points="61.5,-265.5 61.5,-377.5 209.5,-377.5 209.5,-265.5 61.5,-265.5"/>
<text text-anchor="middle" x="135.5" y="-365.5" font-family="Helvetica,sans-Serif" font-size="10.00">marian::rnn::StackableFactory</text>
<polyline fill="none" stroke="black" points="61.5,-358.5 209.5,-358.5 "/>
<text text-anchor="middle" x="135.5" y="-346.5" font-family="Helvetica,sans-Serif" font-size="10.00"> </text>
<polyline fill="none" stroke="black" points="61.5,-339.5 209.5,-339.5 "/>
<text text-anchor="start" x="69.5" y="-327.5" font-family="Helvetica,sans-Serif" font-size="10.00">+ StackableFactory()</text>
<text text-anchor="start" x="69.5" y="-316.5" font-family="Helvetica,sans-Serif" font-size="10.00">+ StackableFactory()</text>
<text text-anchor="start" x="69.5" y="-305.5" font-family="Helvetica,sans-Serif" font-size="10.00">+ StackableFactory()</text>
<text text-anchor="start" x="69.5" y="-294.5" font-family="Helvetica,sans-Serif" font-size="10.00">+ ~StackableFactory()</text>
<text text-anchor="start" x="69.5" y="-283.5" font-family="Helvetica,sans-Serif" font-size="10.00">+ as()</text>
<text text-anchor="start" x="69.5" y="-272.5" font-family="Helvetica,sans-Serif" font-size="10.00">+ is()</text>
</g>
<!-- Node4 -->
<g id="node4" class="node"><title>Node4</title>
<g id="a_node4"><a xlink:href="../../d5/d41/classmarian_1_1rnn_1_1CellFactory.html" target="_top" xlink:title="{marian::rnn::CellFactory\n|# inputs_\l|+ CellFactory()\l+ construct()\l+ clone()\l+ add_input()\l+ add_input()\l}">
<polygon fill="white" stroke="black" points="3.5,-127.5 3.5,-228.5 125.5,-228.5 125.5,-127.5 3.5,-127.5"/>
<text text-anchor="middle" x="64.5" y="-216.5" font-family="Helvetica,sans-Serif" font-size="10.00">marian::rnn::CellFactory</text>
<polyline fill="none" stroke="black" points="3.5,-209.5 125.5,-209.5 "/>
<text text-anchor="start" x="11.5" y="-197.5" font-family="Helvetica,sans-Serif" font-size="10.00"># inputs_</text>
<polyline fill="none" stroke="black" points="3.5,-190.5 125.5,-190.5 "/>
<text text-anchor="start" x="11.5" y="-178.5" font-family="Helvetica,sans-Serif" font-size="10.00">+ CellFactory()</text>
<text text-anchor="start" x="11.5" y="-167.5" font-family="Helvetica,sans-Serif" font-size="10.00">+ construct()</text>
<text text-anchor="start" x="11.5" y="-156.5" font-family="Helvetica,sans-Serif" font-size="10.00">+ clone()</text>
<text text-anchor="start" x="11.5" y="-145.5" font-family="Helvetica,sans-Serif" font-size="10.00">+ add_input()</text>
<text text-anchor="start" x="11.5" y="-134.5" font-family="Helvetica,sans-Serif" font-size="10.00">+ add_input()</text>
</a>
</g>
</g>
<!-- Node1&#45;&gt;Node4 -->
<g id="edge3" class="edge"><title>Node1&#45;&gt;Node4</title>
<path fill="none" stroke="midnightblue" d="M103.242,-256.211C98.6011,-246.962 93.8857,-237.564 89.4165,-228.658"/>
<polygon fill="none" stroke="midnightblue" points="100.233,-258.019 107.846,-265.387 106.49,-254.88 100.233,-258.019"/>
</g>
<!-- Node6 -->
<g id="node6" class="node"><title>Node6</title>
<g id="a_node6"><a xlink:href="../../de/d3f/structmarian_1_1rnn_1_1InputFactory.html" target="_top" xlink:title="{marian::rnn::InputFactory\n||+ InputFactory()\l+ construct()\l}">
<polygon fill="white" stroke="black" points="148.5,-144 148.5,-212 274.5,-212 274.5,-144 148.5,-144"/>
<text text-anchor="middle" x="211.5" y="-200" font-family="Helvetica,sans-Serif" font-size="10.00">marian::rnn::InputFactory</text>
<polyline fill="none" stroke="black" points="148.5,-193 274.5,-193 "/>
<text text-anchor="middle" x="211.5" y="-181" font-family="Helvetica,sans-Serif" font-size="10.00"> </text>
<polyline fill="none" stroke="black" points="148.5,-174 274.5,-174 "/>
<text text-anchor="start" x="156.5" y="-162" font-family="Helvetica,sans-Serif" font-size="10.00">+ InputFactory()</text>
<text text-anchor="start" x="156.5" y="-151" font-family="Helvetica,sans-Serif" font-size="10.00">+ construct()</text>
</a>
</g>
</g>
<!-- Node1&#45;&gt;Node6 -->
<g id="edge5" class="edge"><title>Node1&#45;&gt;Node6</title>
<path fill="none" stroke="midnightblue" d="M169.91,-256.434C178.143,-241.106 186.602,-225.357 193.723,-212.097"/>
<polygon fill="none" stroke="midnightblue" points="166.75,-254.921 165.101,-265.387 172.916,-258.234 166.75,-254.921"/>
</g>
<!-- Node2 -->
<g id="node2" class="node"><title>Node2</title>
<g id="a_node2"><a xlink:href="../../d5/d28/classmarian_1_1Factory.html" target="_top" xlink:title="{marian::Factory\n|# options_\l# graph_\l|+ Factory()\l+ ~Factory()\l+ getOptions()\l+ str()\l+ opt()\l+ opt()\l}">
<polygon fill="white" stroke="black" points="93,-414.5 93,-537.5 178,-537.5 178,-414.5 93,-414.5"/>
<text text-anchor="middle" x="135.5" y="-525.5" font-family="Helvetica,sans-Serif" font-size="10.00">marian::Factory</text>
<polyline fill="none" stroke="black" points="93,-518.5 178,-518.5 "/>
<text text-anchor="start" x="101" y="-506.5" font-family="Helvetica,sans-Serif" font-size="10.00"># options_</text>
<text text-anchor="start" x="101" y="-495.5" font-family="Helvetica,sans-Serif" font-size="10.00"># graph_</text>
<polyline fill="none" stroke="black" points="93,-488.5 178,-488.5 "/>
<text text-anchor="start" x="101" y="-476.5" font-family="Helvetica,sans-Serif" font-size="10.00">+ Factory()</text>
<text text-anchor="start" x="101" y="-465.5" font-family="Helvetica,sans-Serif" font-size="10.00">+ ~Factory()</text>
<text text-anchor="start" x="101" y="-454.5" font-family="Helvetica,sans-Serif" font-size="10.00">+ getOptions()</text>
<text text-anchor="start" x="101" y="-443.5" font-family="Helvetica,sans-Serif" font-size="10.00">+ str()</text>
<text text-anchor="start" x="101" y="-432.5" font-family="Helvetica,sans-Serif" font-size="10.00">+ opt()</text>
<text text-anchor="start" x="101" y="-421.5" font-family="Helvetica,sans-Serif" font-size="10.00">+ opt()</text>
</a>
</g>
</g>
<!-- Node2&#45;&gt;Node1 -->
<g id="edge1" class="edge"><title>Node2&#45;&gt;Node1</title>
<path fill="none" stroke="midnightblue" d="M135.5,-404.246C135.5,-395.288 135.5,-386.228 135.5,-377.564"/>
<polygon fill="none" stroke="midnightblue" points="132,-404.29 135.5,-414.29 139,-404.29 132,-404.29"/>
</g>
<!-- Node3 -->
<g id="node3" class="node"><title>Node3</title>
<polygon fill="white" stroke="#bfbfbf" points="79,-574.5 79,-642.5 192,-642.5 192,-574.5 79,-574.5"/>
<text text-anchor="start" x="87" y="-630.5" font-family="Helvetica,sans-Serif" font-size="10.00">std::enable_shared</text>
<text text-anchor="middle" x="135.5" y="-619.5" font-family="Helvetica,sans-Serif" font-size="10.00">_from_this&lt; Factory &gt;</text>
<polyline fill="none" stroke="#bfbfbf" points="79,-612.5 192,-612.5 "/>
<text text-anchor="middle" x="135.5" y="-600.5" font-family="Helvetica,sans-Serif" font-size="10.00"> </text>
<polyline fill="none" stroke="#bfbfbf" points="79,-593.5 192,-593.5 "/>
<text text-anchor="middle" x="135.5" y="-581.5" font-family="Helvetica,sans-Serif" font-size="10.00"> </text>
</g>
<!-- Node3&#45;&gt;Node2 -->
<g id="edge2" class="edge"><title>Node3&#45;&gt;Node2</title>
<path fill="none" stroke="midnightblue" d="M135.5,-564.169C135.5,-555.652 135.5,-546.572 135.5,-537.609"/>
<polygon fill="none" stroke="midnightblue" points="132,-564.232 135.5,-574.232 139,-564.232 132,-564.232"/>
</g>
<!-- Node5 -->
<g id="node5" class="node"><title>Node5</title>
<g id="a_node5"><a xlink:href="../../db/d9f/classmarian_1_1rnn_1_1StackedCellFactory.html" target="_top" xlink:title="{marian::rnn::StackedCell\lFactory\n|# stackableFactories_\l|+ StackedCellFactory()\l+ construct()\l+ push_back()\l}">
<polygon fill="white" stroke="black" points="0,-0.5 0,-90.5 125,-90.5 125,-0.5 0,-0.5"/>
<text text-anchor="start" x="8" y="-78.5" font-family="Helvetica,sans-Serif" font-size="10.00">marian::rnn::StackedCell</text>
<text text-anchor="middle" x="62.5" y="-67.5" font-family="Helvetica,sans-Serif" font-size="10.00">Factory</text>
<polyline fill="none" stroke="black" points="0,-60.5 125,-60.5 "/>
<text text-anchor="start" x="8" y="-48.5" font-family="Helvetica,sans-Serif" font-size="10.00"># stackableFactories_</text>
<polyline fill="none" stroke="black" points="0,-41.5 125,-41.5 "/>
<text text-anchor="start" x="8" y="-29.5" font-family="Helvetica,sans-Serif" font-size="10.00">+ StackedCellFactory()</text>
<text text-anchor="start" x="8" y="-18.5" font-family="Helvetica,sans-Serif" font-size="10.00">+ construct()</text>
<text text-anchor="start" x="8" y="-7.5" font-family="Helvetica,sans-Serif" font-size="10.00">+ push_back()</text>
</a>
</g>
</g>
<!-- Node4&#45;&gt;Node5 -->
<g id="edge4" class="edge"><title>Node4&#45;&gt;Node5</title>
<path fill="none" stroke="midnightblue" d="M63.584,-117.232C63.4462,-108.236 63.3061,-99.1012 63.1746,-90.5165"/>
<polygon fill="none" stroke="midnightblue" points="60.0853,-117.346 63.7382,-127.291 67.0844,-117.239 60.0853,-117.346"/>
</g>
<!-- Node7 -->
<g id="node7" class="node"><title>Node7</title>
<g id="a_node7"><a xlink:href="../../d9/dc9/classmarian_1_1rnn_1_1AttentionFactory.html" target="_top" xlink:title="{marian::rnn::AttentionFactory\n|# state_\l|+ AttentionFactory()\l+ construct()\l+ set_state()\l+ dimAttended()\l}">
<polygon fill="white" stroke="black" points="143,-0.5 143,-90.5 286,-90.5 286,-0.5 143,-0.5"/>
<text text-anchor="middle" x="214.5" y="-78.5" font-family="Helvetica,sans-Serif" font-size="10.00">marian::rnn::AttentionFactory</text>
<polyline fill="none" stroke="black" points="143,-71.5 286,-71.5 "/>
<text text-anchor="start" x="151" y="-59.5" font-family="Helvetica,sans-Serif" font-size="10.00"># state_</text>
<polyline fill="none" stroke="black" points="143,-52.5 286,-52.5 "/>
<text text-anchor="start" x="151" y="-40.5" font-family="Helvetica,sans-Serif" font-size="10.00">+ AttentionFactory()</text>
<text text-anchor="start" x="151" y="-29.5" font-family="Helvetica,sans-Serif" font-size="10.00">+ construct()</text>
<text text-anchor="start" x="151" y="-18.5" font-family="Helvetica,sans-Serif" font-size="10.00">+ set_state()</text>
<text text-anchor="start" x="151" y="-7.5" font-family="Helvetica,sans-Serif" font-size="10.00">+ dimAttended()</text>
</a>
</g>
</g>
<!-- Node6&#45;&gt;Node7 -->
<g id="edge6" class="edge"><title>Node6&#45;&gt;Node7</title>
<path fill="none" stroke="midnightblue" d="M212.5,-133.502C212.818,-119.687 213.169,-104.403 213.487,-90.5491"/>
<polygon fill="none" stroke="midnightblue" points="208.996,-133.654 212.265,-143.732 215.994,-133.815 208.996,-133.654"/>
</g>
</g>
</svg>
        <g id="navigator" transform="translate(0 0)" fill="#404254">
                <rect fill="#f2f5e9" fill-opacity="0.5" stroke="#606060" stroke-width=".5" x="0" y="0" width="60" height="60"/>
                <use id="zoomplus" xlink:href="#zoomPlus" x="17" y="9" onmousedown="handleZoom(evt,'in')"/>
                <use id="zoomminus" xlink:href="#zoomMin" x="42" y="9" onmousedown="handleZoom(evt,'out')"/>
                <use id="reset" xlink:href="#resetDef" x="30" y="36" onmousedown="handleReset()"/>
                <g id="arrowUp" xlink:href="#dirArrow" transform="translate(30 24)" onmousedown="handlePan(0,-1)">
                  <use xlink:href="#rim" fill="#404040">
                        <set attributeName="fill" to="#808080" begin="arrowUp.mouseover" end="arrowUp.mouseout"/>
                  </use>
                  <path fill="none" stroke="white" stroke-width="1.5" d="M0,-3.0v7 M-2.5,-0.5L0,-3.0L2.5,-0.5"/>
                </g>
                <g id="arrowRight" xlink:href="#dirArrow" transform="rotate(90) translate(36 -43)" onmousedown="handlePan(1,0)">
                  <use xlink:href="#rim" fill="#404040">
                        <set attributeName="fill" to="#808080" begin="arrowRight.mouseover" end="arrowRight.mouseout"/>
                  </use>
                  <path fill="none" stroke="white" stroke-width="1.5" d="M0,-3.0v7 M-2.5,-0.5L0,-3.0L2.5,-0.5"/>
                </g>
                <g id="arrowDown" xlink:href="#dirArrow" transform="rotate(180) translate(-30 -48)" onmousedown="handlePan(0,1)">
                  <use xlink:href="#rim" fill="#404040">
                        <set attributeName="fill" to="#808080" begin="arrowDown.mouseover" end="arrowDown.mouseout"/>
                  </use>
                  <path fill="none" stroke="white" stroke-width="1.5" d="M0,-3.0v7 M-2.5,-0.5L0,-3.0L2.5,-0.5"/>
                </g>
                <g id="arrowLeft" xlink:href="#dirArrow" transform="rotate(270) translate(-36 17)" onmousedown="handlePan(-1,0)">
                  <use xlink:href="#rim" fill="#404040">
                        <set attributeName="fill" to="#808080" begin="arrowLeft.mouseover" end="arrowLeft.mouseout"/>
                  </use>
                  <path fill="none" stroke="white" stroke-width="1.5" d="M0,-3.0v7 M-2.5,-0.5L0,-3.0L2.5,-0.5"/>
                </g>
        </g>
        <svg viewBox="0 0 15 15" width="100%" height="30px" preserveAspectRatio="xMaxYMin meet">
         <g id="arrow_out" transform="scale(0.3 0.3)">
          <a xlink:href="structmarian_1_1rnn_1_1StackableFactory__inherit__graph_org.svg" target="_base">
           <rect id="button" ry="5" rx="5" y="6" x="6" height="38" width="38"
                fill="#f2f5e9" fill-opacity="0.5" stroke="#606060" stroke-width="1.0"/>
           <path id="arrow"
             d="M 11.500037,31.436501 C 11.940474,20.09759 22.043105,11.32322 32.158766,21.979434 L 37.068811,17.246167 C 37.068811,17.246167 37.088388,32 37.088388,32 L 22.160133,31.978069 C 22.160133,31.978069 26.997745,27.140456 26.997745,27.140456 C 18.528582,18.264221 13.291696,25.230495 11.500037,31.436501 z"
             style="fill:#404040;"/>
          </a>
         </g>
        </svg>
</svg>
