<?xml version="1.0" encoding="UTF-8" standalone="no"?>
<!DOCTYPE svg PUBLIC "-//W3C//DTD SVG 1.1//EN"
 "http://www.w3.org/Graphics/SVG/1.1/DTD/svg11.dtd">
<!-- Generated by graphviz version 2.38.0 (20140413.2041)
 -->
<!-- Title: marian::EncoderDecoderBase Pages: 1 -->
<svg width="775pt" height="573pt"
 viewBox="0.00 0.00 775.00 573.00" xmlns="http://www.w3.org/2000/svg" xmlns:xlink="http://www.w3.org/1999/xlink">
<g id="graph0" class="graph" transform="scale(1 1) rotate(0) translate(4 569)">
<title>marian::EncoderDecoderBase</title>
<polygon fill="white" stroke="none" points="-4,4 -4,-569 771,-569 771,4 -4,4"/>
<!-- Node1 -->
<g id="node1" class="node"><title>Node1</title>
<polygon fill="#bfbfbf" stroke="black" points="355,-419.5 355,-564.5 502,-564.5 502,-419.5 355,-419.5"/>
<text text-anchor="middle" x="428.5" y="-552.5" font-family="Helvetica,sans-Serif" font-size="10.00">marian::EncoderDecoderBase</text>
<polyline fill="none" stroke="black" points="355,-545.5 502,-545.5 "/>
<text text-anchor="middle" x="428.5" y="-533.5" font-family="Helvetica,sans-Serif" font-size="10.00"> </text>
<polyline fill="none" stroke="black" points="355,-526.5 502,-526.5 "/>
<text text-anchor="start" x="363" y="-514.5" font-family="Helvetica,sans-Serif" font-size="10.00">+ load()</text>
<text text-anchor="start" x="363" y="-503.5" font-family="Helvetica,sans-Serif" font-size="10.00">+ save()</text>
<text text-anchor="start" x="363" y="-492.5" font-family="Helvetica,sans-Serif" font-size="10.00">+ save()</text>
<text text-anchor="start" x="363" y="-481.5" font-family="Helvetica,sans-Serif" font-size="10.00">+ selectEmbeddings()</text>
<text text-anchor="start" x="363" y="-470.5" font-family="Helvetica,sans-Serif" font-size="10.00">+ step()</text>
<text text-anchor="start" x="363" y="-459.5" font-family="Helvetica,sans-Serif" font-size="10.00">+ step()</text>
<text text-anchor="start" x="363" y="-448.5" font-family="Helvetica,sans-Serif" font-size="10.00">+ build()</text>
<text text-anchor="start" x="363" y="-437.5" font-family="Helvetica,sans-Serif" font-size="10.00">+ getEncoder()</text>
<text text-anchor="start" x="363" y="-426.5" font-family="Helvetica,sans-Serif" font-size="10.00">+ getDecoder()</text>
</g>
<!-- Node2 -->
<g id="node2" class="node"><title>Node2</title>
<g id="a_node2"><a xlink:href="$d7/d2c/classmarian_1_1EncoderDecoder.html" xlink:title="{marian::EncoderDecoder\l\&lt; EncoderS2S, DecoderS2S \&gt;\n|# options_\l# prefix_\l# encoder_\l# decoder_\l# batchIndices_\l# inference_\l|+ EncoderDecoder()\l+ EncoderDecoder()\l+ getEncoder()\l+ getDecoder()\l+ load()\l+ save()\l+ save()\l+ clear()\l+ startState()\l+ step()\land 7 more...\l}">
<polygon fill="white" stroke="black" points="79,-144 79,-377 230,-377 230,-144 79,-144"/>
<text text-anchor="start" x="87" y="-365" font-family="Helvetica,sans-Serif" font-size="10.00">marian::EncoderDecoder</text>
<text text-anchor="middle" x="154.5" y="-354" font-family="Helvetica,sans-Serif" font-size="10.00">&lt; EncoderS2S, DecoderS2S &gt;</text>
<polyline fill="none" stroke="black" points="79,-347 230,-347 "/>
<text text-anchor="start" x="87" y="-335" font-family="Helvetica,sans-Serif" font-size="10.00"># options_</text>
<text text-anchor="start" x="87" y="-324" font-family="Helvetica,sans-Serif" font-size="10.00"># prefix_</text>
<text text-anchor="start" x="87" y="-313" font-family="Helvetica,sans-Serif" font-size="10.00"># encoder_</text>
<text text-anchor="start" x="87" y="-302" font-family="Helvetica,sans-Serif" font-size="10.00"># decoder_</text>
<text text-anchor="start" x="87" y="-291" font-family="Helvetica,sans-Serif" font-size="10.00"># batchIndices_</text>
<text text-anchor="start" x="87" y="-280" font-family="Helvetica,sans-Serif" font-size="10.00"># inference_</text>
<polyline fill="none" stroke="black" points="79,-273 230,-273 "/>
<text text-anchor="start" x="87" y="-261" font-family="Helvetica,sans-Serif" font-size="10.00">+ EncoderDecoder()</text>
<text text-anchor="start" x="87" y="-250" font-family="Helvetica,sans-Serif" font-size="10.00">+ EncoderDecoder()</text>
<text text-anchor="start" x="87" y="-239" font-family="Helvetica,sans-Serif" font-size="10.00">+ getEncoder()</text>
<text text-anchor="start" x="87" y="-228" font-family="Helvetica,sans-Serif" font-size="10.00">+ getDecoder()</text>
<text text-anchor="start" x="87" y="-217" font-family="Helvetica,sans-Serif" font-size="10.00">+ load()</text>
<text text-anchor="start" x="87" y="-206" font-family="Helvetica,sans-Serif" font-size="10.00">+ save()</text>
<text text-anchor="start" x="87" y="-195" font-family="Helvetica,sans-Serif" font-size="10.00">+ save()</text>
<text text-anchor="start" x="87" y="-184" font-family="Helvetica,sans-Serif" font-size="10.00">+ clear()</text>
<text text-anchor="start" x="87" y="-173" font-family="Helvetica,sans-Serif" font-size="10.00">+ startState()</text>
<text text-anchor="start" x="87" y="-162" font-family="Helvetica,sans-Serif" font-size="10.00">+ step()</text>
<text text-anchor="start" x="87" y="-151" font-family="Helvetica,sans-Serif" font-size="10.00">and 7 more...</text>
</a>
</g>
</g>
<!-- Node1&#45;&gt;Node2 -->
<g id="edge1" class="edge"><title>Node1&#45;&gt;Node2</title>
<path fill="none" stroke="midnightblue" d="M345.523,-454.164C310.121,-435.954 269.84,-411.696 238.5,-383 235.663,-380.402 232.87,-377.692 230.126,-374.891"/>
<polygon fill="none" stroke="midnightblue" points="344.384,-457.51 354.887,-458.901 347.543,-451.264 344.384,-457.51"/>
</g>
<!-- Node5 -->
<g id="node5" class="node"><title>Node5</title>
<g id="a_node5"><a xlink:href="$d7/d2c/classmarian_1_1EncoderDecoder.html" xlink:title="{marian::EncoderDecoder\l\&lt; MultiEncoderS2S, MultiDecoder\lHardSoftAtt \&gt;\n|# options_\l# prefix_\l# encoder_\l# decoder_\l# batchIndices_\l# inference_\l|+ EncoderDecoder()\l+ EncoderDecoder()\l+ getEncoder()\l+ getDecoder()\l+ load()\l+ save()\l+ save()\l+ clear()\l+ startState()\l+ step()\land 7 more...\l}">
<polygon fill="white" stroke="black" points="248,-138.5 248,-382.5 413,-382.5 413,-138.5 248,-138.5"/>
<text text-anchor="start" x="256" y="-370.5" font-family="Helvetica,sans-Serif" font-size="10.00">marian::EncoderDecoder</text>
<text text-anchor="start" x="256" y="-359.5" font-family="Helvetica,sans-Serif" font-size="10.00">&lt; MultiEncoderS2S, MultiDecoder</text>
<text text-anchor="middle" x="330.5" y="-348.5" font-family="Helvetica,sans-Serif" font-size="10.00">HardSoftAtt &gt;</text>
<polyline fill="none" stroke="black" points="248,-341.5 413,-341.5 "/>
<text text-anchor="start" x="256" y="-329.5" font-family="Helvetica,sans-Serif" font-size="10.00"># options_</text>
<text text-anchor="start" x="256" y="-318.5" font-family="Helvetica,sans-Serif" font-size="10.00"># prefix_</text>
<text text-anchor="start" x="256" y="-307.5" font-family="Helvetica,sans-Serif" font-size="10.00"># encoder_</text>
<text text-anchor="start" x="256" y="-296.5" font-family="Helvetica,sans-Serif" font-size="10.00"># decoder_</text>
<text text-anchor="start" x="256" y="-285.5" font-family="Helvetica,sans-Serif" font-size="10.00"># batchIndices_</text>
<text text-anchor="start" x="256" y="-274.5" font-family="Helvetica,sans-Serif" font-size="10.00"># inference_</text>
<polyline fill="none" stroke="black" points="248,-267.5 413,-267.5 "/>
<text text-anchor="start" x="256" y="-255.5" font-family="Helvetica,sans-Serif" font-size="10.00">+ EncoderDecoder()</text>
<text text-anchor="start" x="256" y="-244.5" font-family="Helvetica,sans-Serif" font-size="10.00">+ EncoderDecoder()</text>
<text text-anchor="start" x="256" y="-233.5" font-family="Helvetica,sans-Serif" font-size="10.00">+ getEncoder()</text>
<text text-anchor="start" x="256" y="-222.5" font-family="Helvetica,sans-Serif" font-size="10.00">+ getDecoder()</text>
<text text-anchor="start" x="256" y="-211.5" font-family="Helvetica,sans-Serif" font-size="10.00">+ load()</text>
<text text-anchor="start" x="256" y="-200.5" font-family="Helvetica,sans-Serif" font-size="10.00">+ save()</text>
<text text-anchor="start" x="256" y="-189.5" font-family="Helvetica,sans-Serif" font-size="10.00">+ save()</text>
<text text-anchor="start" x="256" y="-178.5" font-family="Helvetica,sans-Serif" font-size="10.00">+ clear()</text>
<text text-anchor="start" x="256" y="-167.5" font-family="Helvetica,sans-Serif" font-size="10.00">+ startState()</text>
<text text-anchor="start" x="256" y="-156.5" font-family="Helvetica,sans-Serif" font-size="10.00">+ step()</text>
<text text-anchor="start" x="256" y="-145.5" font-family="Helvetica,sans-Serif" font-size="10.00">and 7 more...</text>
</a>
</g>
</g>
<!-- Node1&#45;&gt;Node5 -->
<g id="edge4" class="edge"><title>Node1&#45;&gt;Node5</title>
<path fill="none" stroke="midnightblue" d="M393.854,-409.864C390.08,-401.026 386.181,-391.896 382.259,-382.711"/>
<polygon fill="none" stroke="midnightblue" points="390.749,-411.507 397.895,-419.329 397.187,-408.758 390.749,-411.507"/>
</g>
<!-- Node7 -->
<g id="node7" class="node"><title>Node7</title>
<g id="a_node7"><a xlink:href="$d7/d2c/classmarian_1_1EncoderDecoder.html" xlink:title="{marian::EncoderDecoder\l\&lt; MultiEncoderS2S, MultiDecoderS2S \&gt;\n|# options_\l# prefix_\l# encoder_\l# decoder_\l# batchIndices_\l# inference_\l|+ EncoderDecoder()\l+ EncoderDecoder()\l+ getEncoder()\l+ getDecoder()\l+ load()\l+ save()\l+ save()\l+ clear()\l+ startState()\l+ step()\land 7 more...\l}">
<polygon fill="white" stroke="black" points="431,-144 431,-377 624,-377 624,-144 431,-144"/>
<text text-anchor="start" x="439" y="-365" font-family="Helvetica,sans-Serif" font-size="10.00">marian::EncoderDecoder</text>
<text text-anchor="middle" x="527.5" y="-354" font-family="Helvetica,sans-Serif" font-size="10.00">&lt; MultiEncoderS2S, MultiDecoderS2S &gt;</text>
<polyline fill="none" stroke="black" points="431,-347 624,-347 "/>
<text text-anchor="start" x="439" y="-335" font-family="Helvetica,sans-Serif" font-size="10.00"># options_</text>
<text text-anchor="start" x="439" y="-324" font-family="Helvetica,sans-Serif" font-size="10.00"># prefix_</text>
<text text-anchor="start" x="439" y="-313" font-family="Helvetica,sans-Serif" font-size="10.00"># encoder_</text>
<text text-anchor="start" x="439" y="-302" font-family="Helvetica,sans-Serif" font-size="10.00"># decoder_</text>
<text text-anchor="start" x="439" y="-291" font-family="Helvetica,sans-Serif" font-size="10.00"># batchIndices_</text>
<text text-anchor="start" x="439" y="-280" font-family="Helvetica,sans-Serif" font-size="10.00"># inference_</text>
<polyline fill="none" stroke="black" points="431,-273 624,-273 "/>
<text text-anchor="start" x="439" y="-261" font-family="Helvetica,sans-Serif" font-size="10.00">+ EncoderDecoder()</text>
<text text-anchor="start" x="439" y="-250" font-family="Helvetica,sans-Serif" font-size="10.00">+ EncoderDecoder()</text>
<text text-anchor="start" x="439" y="-239" font-family="Helvetica,sans-Serif" font-size="10.00">+ getEncoder()</text>
<text text-anchor="start" x="439" y="-228" font-family="Helvetica,sans-Serif" font-size="10.00">+ getDecoder()</text>
<text text-anchor="start" x="439" y="-217" font-family="Helvetica,sans-Serif" font-size="10.00">+ load()</text>
<text text-anchor="start" x="439" y="-206" font-family="Helvetica,sans-Serif" font-size="10.00">+ save()</text>
<text text-anchor="start" x="439" y="-195" font-family="Helvetica,sans-Serif" font-size="10.00">+ save()</text>
<text text-anchor="start" x="439" y="-184" font-family="Helvetica,sans-Serif" font-size="10.00">+ clear()</text>
<text text-anchor="start" x="439" y="-173" font-family="Helvetica,sans-Serif" font-size="10.00">+ startState()</text>
<text text-anchor="start" x="439" y="-162" font-family="Helvetica,sans-Serif" font-size="10.00">+ step()</text>
<text text-anchor="start" x="439" y="-151" font-family="Helvetica,sans-Serif" font-size="10.00">and 7 more...</text>
</a>
</g>
</g>
<!-- Node1&#45;&gt;Node7 -->
<g id="edge6" class="edge"><title>Node1&#45;&gt;Node7</title>
<path fill="none" stroke="midnightblue" d="M463.407,-410.08C468.006,-399.418 472.79,-388.328 477.579,-377.226"/>
<polygon fill="none" stroke="midnightblue" points="460.164,-408.76 459.417,-419.329 466.592,-411.533 460.164,-408.76"/>
</g>
<!-- Node9 -->
<g id="node9" class="node"><title>Node9</title>
<g id="a_node9"><a xlink:href="$d7/d2c/classmarian_1_1EncoderDecoder.html" xlink:title="{marian::EncoderDecoder\l\&lt; Encoder, Decoder \&gt;\n|# options_\l# prefix_\l# encoder_\l# decoder_\l# batchIndices_\l# inference_\l|+ EncoderDecoder()\l+ EncoderDecoder()\l+ getEncoder()\l+ getDecoder()\l+ load()\l+ save()\l+ save()\l+ clear()\l+ startState()\l+ step()\land 7 more...\l}">
<polygon fill="white" stroke="black" points="642,-144 642,-377 767,-377 767,-144 642,-144"/>
<text text-anchor="start" x="650" y="-365" font-family="Helvetica,sans-Serif" font-size="10.00">marian::EncoderDecoder</text>
<text text-anchor="middle" x="704.5" y="-354" font-family="Helvetica,sans-Serif" font-size="10.00">&lt; Encoder, Decoder &gt;</text>
<polyline fill="none" stroke="black" points="642,-347 767,-347 "/>
<text text-anchor="start" x="650" y="-335" font-family="Helvetica,sans-Serif" font-size="10.00"># options_</text>
<text text-anchor="start" x="650" y="-324" font-family="Helvetica,sans-Serif" font-size="10.00"># prefix_</text>
<text text-anchor="start" x="650" y="-313" font-family="Helvetica,sans-Serif" font-size="10.00"># encoder_</text>
<text text-anchor="start" x="650" y="-302" font-family="Helvetica,sans-Serif" font-size="10.00"># decoder_</text>
<text text-anchor="start" x="650" y="-291" font-family="Helvetica,sans-Serif" font-size="10.00"># batchIndices_</text>
<text text-anchor="start" x="650" y="-280" font-family="Helvetica,sans-Serif" font-size="10.00"># inference_</text>
<polyline fill="none" stroke="black" points="642,-273 767,-273 "/>
<text text-anchor="start" x="650" y="-261" font-family="Helvetica,sans-Serif" font-size="10.00">+ EncoderDecoder()</text>
<text text-anchor="start" x="650" y="-250" font-family="Helvetica,sans-Serif" font-size="10.00">+ EncoderDecoder()</text>
<text text-anchor="start" x="650" y="-239" font-family="Helvetica,sans-Serif" font-size="10.00">+ getEncoder()</text>
<text text-anchor="start" x="650" y="-228" font-family="Helvetica,sans-Serif" font-size="10.00">+ getDecoder()</text>
<text text-anchor="start" x="650" y="-217" font-family="Helvetica,sans-Serif" font-size="10.00">+ load()</text>
<text text-anchor="start" x="650" y="-206" font-family="Helvetica,sans-Serif" font-size="10.00">+ save()</text>
<text text-anchor="start" x="650" y="-195" font-family="Helvetica,sans-Serif" font-size="10.00">+ save()</text>
<text text-anchor="start" x="650" y="-184" font-family="Helvetica,sans-Serif" font-size="10.00">+ clear()</text>
<text text-anchor="start" x="650" y="-173" font-family="Helvetica,sans-Serif" font-size="10.00">+ startState()</text>
<text text-anchor="start" x="650" y="-162" font-family="Helvetica,sans-Serif" font-size="10.00">+ step()</text>
<text text-anchor="start" x="650" y="-151" font-family="Helvetica,sans-Serif" font-size="10.00">and 7 more...</text>
</a>
</g>
</g>
<!-- Node1&#45;&gt;Node9 -->
<g id="edge8" class="edge"><title>Node1&#45;&gt;Node9</title>
<path fill="none" stroke="midnightblue" d="M511.393,-460.057C551.654,-442.053 598.718,-416.286 633.5,-383 636.412,-380.213 639.244,-377.28 641.994,-374.233"/>
<polygon fill="none" stroke="midnightblue" points="509.871,-456.903 502.118,-464.123 512.682,-463.314 509.871,-456.903"/>
</g>
<!-- Node3 -->
<g id="node3" class="node"><title>Node3</title>
<g id="a_node3"><a xlink:href="$d6/d14/classmarian_1_1Amun.html" xlink:title="{marian::Amun\n||+ Amun()\l+ load()\l+ save()\l+ save()\l}">
<polygon fill="white" stroke="black" points="0,-6 0,-96 77,-96 77,-6 0,-6"/>
<text text-anchor="middle" x="38.5" y="-84" font-family="Helvetica,sans-Serif" font-size="10.00">marian::Amun</text>
<polyline fill="none" stroke="black" points="0,-77 77,-77 "/>
<text text-anchor="middle" x="38.5" y="-65" font-family="Helvetica,sans-Serif" font-size="10.00"> </text>
<polyline fill="none" stroke="black" points="0,-58 77,-58 "/>
<text text-anchor="start" x="8" y="-46" font-family="Helvetica,sans-Serif" font-size="10.00">+ Amun()</text>
<text text-anchor="start" x="8" y="-35" font-family="Helvetica,sans-Serif" font-size="10.00">+ load()</text>
<text text-anchor="start" x="8" y="-24" font-family="Helvetica,sans-Serif" font-size="10.00">+ save()</text>
<text text-anchor="start" x="8" y="-13" font-family="Helvetica,sans-Serif" font-size="10.00">+ save()</text>
</a>
</g>
</g>
<!-- Node2&#45;&gt;Node3 -->
<g id="edge2" class="edge"><title>Node2&#45;&gt;Node3</title>
<path fill="none" stroke="midnightblue" d="M84.811,-134.841C77.1416,-121.122 69.7567,-107.912 63.2232,-96.2247"/>
<polygon fill="none" stroke="midnightblue" points="81.9512,-136.898 89.8859,-143.919 88.0612,-133.482 81.9512,-136.898"/>
</g>
<!-- Node4 -->
<g id="node4" class="node"><title>Node4</title>
<g id="a_node4"><a xlink:href="$d5/d22/classmarian_1_1EncoderDecoderRec.html" xlink:title="{marian::EncoderDecoderRec\n|&#45; attention_\l&#45; rnnL1\l|+ EncoderDecoderRec()\l+ reconstructorGroundTruth()\l+ reconstructorStep()\l+ build()\l}">
<polygon fill="white" stroke="black" points="95,-0.5 95,-101.5 238,-101.5 238,-0.5 95,-0.5"/>
<text text-anchor="middle" x="166.5" y="-89.5" font-family="Helvetica,sans-Serif" font-size="10.00">marian::EncoderDecoderRec</text>
<polyline fill="none" stroke="black" points="95,-82.5 238,-82.5 "/>
<text text-anchor="start" x="103" y="-70.5" font-family="Helvetica,sans-Serif" font-size="10.00">&#45; attention_</text>
<text text-anchor="start" x="103" y="-59.5" font-family="Helvetica,sans-Serif" font-size="10.00">&#45; rnnL1</text>
<polyline fill="none" stroke="black" points="95,-52.5 238,-52.5 "/>
<text text-anchor="start" x="103" y="-40.5" font-family="Helvetica,sans-Serif" font-size="10.00">+ EncoderDecoderRec()</text>
<text text-anchor="start" x="103" y="-29.5" font-family="Helvetica,sans-Serif" font-size="10.00">+ reconstructorGroundTruth()</text>
<text text-anchor="start" x="103" y="-18.5" font-family="Helvetica,sans-Serif" font-size="10.00">+ reconstructorStep()</text>
<text text-anchor="start" x="103" y="-7.5" font-family="Helvetica,sans-Serif" font-size="10.00">+ build()</text>
</a>
</g>
</g>
<!-- Node2&#45;&gt;Node4 -->
<g id="edge3" class="edge"><title>Node2&#45;&gt;Node4</title>
<path fill="none" stroke="midnightblue" d="M161.778,-133.649C162.42,-122.558 163.041,-111.82 163.61,-101.975"/>
<polygon fill="none" stroke="midnightblue" points="158.267,-133.733 161.184,-143.919 165.256,-134.137 158.267,-133.733"/>
</g>
<!-- Node6 -->
<g id="node6" class="node"><title>Node6</title>
<g id="a_node6"><a xlink:href="$da/d14/classmarian_1_1MultiHardSoftAtt.html" xlink:title="{marian::MultiHardSoftAtt\n||+ MultiHardSoftAtt()\l}">
<polygon fill="white" stroke="black" points="268,-22.5 268,-79.5 393,-79.5 393,-22.5 268,-22.5"/>
<text text-anchor="middle" x="330.5" y="-67.5" font-family="Helvetica,sans-Serif" font-size="10.00">marian::MultiHardSoftAtt</text>
<polyline fill="none" stroke="black" points="268,-60.5 393,-60.5 "/>
<text text-anchor="middle" x="330.5" y="-48.5" font-family="Helvetica,sans-Serif" font-size="10.00"> </text>
<polyline fill="none" stroke="black" points="268,-41.5 393,-41.5 "/>
<text text-anchor="start" x="276" y="-29.5" font-family="Helvetica,sans-Serif" font-size="10.00">+ MultiHardSoftAtt()</text>
</a>
</g>
</g>
<!-- Node5&#45;&gt;Node6 -->
<g id="edge5" class="edge"><title>Node5&#45;&gt;Node6</title>
<path fill="none" stroke="midnightblue" d="M330.5,-128.253C330.5,-110.013 330.5,-92.9956 330.5,-79.6851"/>
<polygon fill="none" stroke="midnightblue" points="327,-128.496 330.5,-138.496 334,-128.496 327,-128.496"/>
</g>
<!-- Node8 -->
<g id="node8" class="node"><title>Node8</title>
<g id="a_node8"><a xlink:href="$de/de8/classmarian_1_1MultiS2S.html" xlink:title="{marian::MultiS2S\n||+ MultiS2S()\l}">
<polygon fill="white" stroke="black" points="481.5,-22.5 481.5,-79.5 573.5,-79.5 573.5,-22.5 481.5,-22.5"/>
<text text-anchor="middle" x="527.5" y="-67.5" font-family="Helvetica,sans-Serif" font-size="10.00">marian::MultiS2S</text>
<polyline fill="none" stroke="black" points="481.5,-60.5 573.5,-60.5 "/>
<text text-anchor="middle" x="527.5" y="-48.5" font-family="Helvetica,sans-Serif" font-size="10.00"> </text>
<polyline fill="none" stroke="black" points="481.5,-41.5 573.5,-41.5 "/>
<text text-anchor="start" x="489.5" y="-29.5" font-family="Helvetica,sans-Serif" font-size="10.00">+ MultiS2S()</text>
</a>
</g>
</g>
<!-- Node7&#45;&gt;Node8 -->
<g id="edge7" class="edge"><title>Node7&#45;&gt;Node8</title>
<path fill="none" stroke="midnightblue" d="M527.5,-133.855C527.5,-113.519 527.5,-94.3578 527.5,-79.6944"/>
<polygon fill="none" stroke="midnightblue" points="524,-133.919 527.5,-143.919 531,-133.919 524,-133.919"/>
</g>
</g>
</svg>
