<?xml version="1.0" encoding="UTF-8" standalone="no"?>
<!DOCTYPE svg PUBLIC "-//W3C//DTD SVG 1.1//EN"
 "http://www.w3.org/Graphics/SVG/1.1/DTD/svg11.dtd">
<!-- Generated by graphviz version 2.38.0 (20140413.2041)
 -->
<!-- Title: marian::rnn::SlowLSTM Pages: 1 -->
<svg width="307pt" height="669pt"
 viewBox="0.00 0.00 306.50 669.00" xmlns="http://www.w3.org/2000/svg" xmlns:xlink="http://www.w3.org/1999/xlink">
<g id="graph0" class="graph" transform="scale(1 1) rotate(0) translate(4 665)">
<title>marian::rnn::SlowLSTM</title>
<polygon fill="white" stroke="none" points="-4,4 -4,-665 302.5,-665 302.5,4 -4,4"/>
<!-- Node1 -->
<g id="node1" class="node"><title>Node1</title>
<polygon fill="#bfbfbf" stroke="black" points="119.5,-0.5 119.5,-211.5 238.5,-211.5 238.5,-0.5 119.5,-0.5"/>
<text text-anchor="middle" x="179" y="-199.5" font-family="Helvetica,sans-Serif" font-size="10.00">marian::rnn::SlowLSTM</text>
<polyline fill="none" stroke="black" points="119.5,-192.5 238.5,-192.5 "/>
<text text-anchor="start" x="127.5" y="-180.5" font-family="Helvetica,sans-Serif" font-size="10.00">&#45; Uf_</text>
<text text-anchor="start" x="127.5" y="-169.5" font-family="Helvetica,sans-Serif" font-size="10.00">&#45; Wf_</text>
<text text-anchor="start" x="127.5" y="-158.5" font-family="Helvetica,sans-Serif" font-size="10.00">&#45; bf_</text>
<text text-anchor="start" x="127.5" y="-147.5" font-family="Helvetica,sans-Serif" font-size="10.00">&#45; Ui_</text>
<text text-anchor="start" x="127.5" y="-136.5" font-family="Helvetica,sans-Serif" font-size="10.00">&#45; Wi_</text>
<text text-anchor="start" x="127.5" y="-125.5" font-family="Helvetica,sans-Serif" font-size="10.00">&#45; bi_</text>
<text text-anchor="start" x="127.5" y="-114.5" font-family="Helvetica,sans-Serif" font-size="10.00">&#45; Uo_</text>
<text text-anchor="start" x="127.5" y="-103.5" font-family="Helvetica,sans-Serif" font-size="10.00">&#45; Wo_</text>
<text text-anchor="start" x="127.5" y="-92.5" font-family="Helvetica,sans-Serif" font-size="10.00">&#45; bo_</text>
<text text-anchor="start" x="127.5" y="-81.5" font-family="Helvetica,sans-Serif" font-size="10.00">&#45; Uc_</text>
<text text-anchor="start" x="127.5" y="-70.5" font-family="Helvetica,sans-Serif" font-size="10.00">&#45; Wc_</text>
<text text-anchor="start" x="127.5" y="-59.5" font-family="Helvetica,sans-Serif" font-size="10.00">&#45; bc_</text>
<polyline fill="none" stroke="black" points="119.5,-52.5 238.5,-52.5 "/>
<text text-anchor="start" x="127.5" y="-40.5" font-family="Helvetica,sans-Serif" font-size="10.00">+ SlowLSTM()</text>
<text text-anchor="start" x="127.5" y="-29.5" font-family="Helvetica,sans-Serif" font-size="10.00">+ apply()</text>
<text text-anchor="start" x="127.5" y="-18.5" font-family="Helvetica,sans-Serif" font-size="10.00">+ applyInput()</text>
<text text-anchor="start" x="127.5" y="-7.5" font-family="Helvetica,sans-Serif" font-size="10.00">+ applyState()</text>
</g>
<!-- Node2 -->
<g id="node2" class="node"><title>Node2</title>
<g id="a_node2"><a xlink:href="$d5/de5/classmarian_1_1rnn_1_1Cell.html" xlink:title="{marian::rnn::Cell\n||+ Cell()\l+ apply()\l+ getLazyInputs()\l+ setLazyInputs()\l+ applyInput()\l+ applyState()\l+ clear()\l}">
<polygon fill="white" stroke="black" points="132.5,-249.5 132.5,-372.5 225.5,-372.5 225.5,-249.5 132.5,-249.5"/>
<text text-anchor="middle" x="179" y="-360.5" font-family="Helvetica,sans-Serif" font-size="10.00">marian::rnn::Cell</text>
<polyline fill="none" stroke="black" points="132.5,-353.5 225.5,-353.5 "/>
<text text-anchor="middle" x="179" y="-341.5" font-family="Helvetica,sans-Serif" font-size="10.00"> </text>
<polyline fill="none" stroke="black" points="132.5,-334.5 225.5,-334.5 "/>
<text text-anchor="start" x="140.5" y="-322.5" font-family="Helvetica,sans-Serif" font-size="10.00">+ Cell()</text>
<text text-anchor="start" x="140.5" y="-311.5" font-family="Helvetica,sans-Serif" font-size="10.00">+ apply()</text>
<text text-anchor="start" x="140.5" y="-300.5" font-family="Helvetica,sans-Serif" font-size="10.00">+ getLazyInputs()</text>
<text text-anchor="start" x="140.5" y="-289.5" font-family="Helvetica,sans-Serif" font-size="10.00">+ setLazyInputs()</text>
<text text-anchor="start" x="140.5" y="-278.5" font-family="Helvetica,sans-Serif" font-size="10.00">+ applyInput()</text>
<text text-anchor="start" x="140.5" y="-267.5" font-family="Helvetica,sans-Serif" font-size="10.00">+ applyState()</text>
<text text-anchor="start" x="140.5" y="-256.5" font-family="Helvetica,sans-Serif" font-size="10.00">+ clear()</text>
</a>
</g>
</g>
<!-- Node2&#45;&gt;Node1 -->
<g id="edge1" class="edge"><title>Node2&#45;&gt;Node1</title>
<path fill="none" stroke="midnightblue" d="M179,-239.118C179,-230.235 179,-221.008 179,-211.744"/>
<polygon fill="none" stroke="midnightblue" points="175.5,-239.368 179,-249.368 182.5,-239.368 175.5,-239.368"/>
</g>
<!-- Node3 -->
<g id="node3" class="node"><title>Node3</title>
<g id="a_node3"><a xlink:href="$d4/d04/classmarian_1_1rnn_1_1Stackable.html" xlink:title="{marian::rnn::Stackable\n|# options_\l|+ Stackable()\l+ ~Stackable()\l+ as()\l+ is()\l+ getOptions()\l+ opt()\l+ opt()\l+ clear()\l}">
<polygon fill="white" stroke="black" points="4.5,-420.5 4.5,-554.5 119.5,-554.5 119.5,-420.5 4.5,-420.5"/>
<text text-anchor="middle" x="62" y="-542.5" font-family="Helvetica,sans-Serif" font-size="10.00">marian::rnn::Stackable</text>
<polyline fill="none" stroke="black" points="4.5,-535.5 119.5,-535.5 "/>
<text text-anchor="start" x="12.5" y="-523.5" font-family="Helvetica,sans-Serif" font-size="10.00"># options_</text>
<polyline fill="none" stroke="black" points="4.5,-516.5 119.5,-516.5 "/>
<text text-anchor="start" x="12.5" y="-504.5" font-family="Helvetica,sans-Serif" font-size="10.00">+ Stackable()</text>
<text text-anchor="start" x="12.5" y="-493.5" font-family="Helvetica,sans-Serif" font-size="10.00">+ ~Stackable()</text>
<text text-anchor="start" x="12.5" y="-482.5" font-family="Helvetica,sans-Serif" font-size="10.00">+ as()</text>
<text text-anchor="start" x="12.5" y="-471.5" font-family="Helvetica,sans-Serif" font-size="10.00">+ is()</text>
<text text-anchor="start" x="12.5" y="-460.5" font-family="Helvetica,sans-Serif" font-size="10.00">+ getOptions()</text>
<text text-anchor="start" x="12.5" y="-449.5" font-family="Helvetica,sans-Serif" font-size="10.00">+ opt()</text>
<text text-anchor="start" x="12.5" y="-438.5" font-family="Helvetica,sans-Serif" font-size="10.00">+ opt()</text>
<text text-anchor="start" x="12.5" y="-427.5" font-family="Helvetica,sans-Serif" font-size="10.00">+ clear()</text>
</a>
</g>
</g>
<!-- Node3&#45;&gt;Node2 -->
<g id="edge2" class="edge"><title>Node3&#45;&gt;Node2</title>
<path fill="none" stroke="midnightblue" d="M112.259,-411.541C120.988,-398.522 129.968,-385.129 138.398,-372.555"/>
<polygon fill="none" stroke="midnightblue" points="109.228,-409.776 106.566,-420.031 115.042,-413.675 109.228,-409.776"/>
</g>
<!-- Node4 -->
<g id="node4" class="node"><title>Node4</title>
<polygon fill="white" stroke="#bfbfbf" points="0,-592.5 0,-660.5 124,-660.5 124,-592.5 0,-592.5"/>
<text text-anchor="start" x="8" y="-648.5" font-family="Helvetica,sans-Serif" font-size="10.00">std::enable_shared</text>
<text text-anchor="middle" x="62" y="-637.5" font-family="Helvetica,sans-Serif" font-size="10.00">_from_this&lt; Stackable &gt;</text>
<polyline fill="none" stroke="#bfbfbf" points="0,-630.5 124,-630.5 "/>
<text text-anchor="middle" x="62" y="-618.5" font-family="Helvetica,sans-Serif" font-size="10.00"> </text>
<polyline fill="none" stroke="#bfbfbf" points="0,-611.5 124,-611.5 "/>
<text text-anchor="middle" x="62" y="-599.5" font-family="Helvetica,sans-Serif" font-size="10.00"> </text>
</g>
<!-- Node4&#45;&gt;Node3 -->
<g id="edge3" class="edge"><title>Node4&#45;&gt;Node3</title>
<path fill="none" stroke="midnightblue" d="M62,-582.33C62,-573.515 62,-564.049 62,-554.642"/>
<polygon fill="none" stroke="midnightblue" points="58.5001,-582.336 62,-592.336 65.5001,-582.336 58.5001,-582.336"/>
</g>
<!-- Node5 -->
<g id="node5" class="node"><title>Node5</title>
<polygon fill="white" stroke="#bfbfbf" points="137.5,-448 137.5,-527 298.5,-527 298.5,-448 137.5,-448"/>
<text text-anchor="start" x="145.5" y="-515" font-family="Helvetica,sans-Serif" font-size="10.00">std::vector&lt; std::function</text>
<text text-anchor="start" x="145.5" y="-504" font-family="Helvetica,sans-Serif" font-size="10.00">&lt; Expr(Ptr&lt; marian::Accumulator</text>
<text text-anchor="middle" x="218" y="-493" font-family="Helvetica,sans-Serif" font-size="10.00">::RNN &gt;)&gt; &gt;</text>
<polyline fill="none" stroke="#bfbfbf" points="137.5,-486 298.5,-486 "/>
<text text-anchor="middle" x="218" y="-474" font-family="Helvetica,sans-Serif" font-size="10.00"> </text>
<polyline fill="none" stroke="#bfbfbf" points="137.5,-467 298.5,-467 "/>
<text text-anchor="middle" x="218" y="-455" font-family="Helvetica,sans-Serif" font-size="10.00"> </text>
</g>
<!-- Node5&#45;&gt;Node2 -->
<g id="edge4" class="edge"><title>Node5&#45;&gt;Node2</title>
<path fill="none" stroke="#404040" d="M209.345,-447.773C205.179,-429.134 200.045,-406.165 195.193,-384.454"/>
<polygon fill="none" stroke="#404040" points="195.152,-384.268 189.939,-379.285 192.534,-372.557 197.747,-377.54 195.152,-384.268"/>
<text text-anchor="middle" x="227.5" y="-394" font-family="Helvetica,sans-Serif" font-size="10.00"> #lazyInputs_</text>
</g>
</g>
</svg>
