<?xml version="1.0" encoding="UTF-8" standalone="no"?>
<!DOCTYPE svg PUBLIC "-//W3C//DTD SVG 1.1//EN"
 "http://www.w3.org/Graphics/SVG/1.1/DTD/svg11.dtd">
<!-- Generated by graphviz version 2.38.0 (20140413.2041)
 -->
<!-- Title: marian::EncoderDecoderRec Pages: 1 -->
<!--zoomable 658 -->
<svg id="main" version="1.1" xmlns="http://www.w3.org/2000/svg" xmlns:xlink="http://www.w3.org/1999/xlink" xml:space="preserve" onload="init(evt)">
<style type="text/css"><![CDATA[
.edge:hover path { stroke: red; }
.edge:hover polygon { stroke: red; fill: red; }
]]></style>
<script type="text/javascript"><![CDATA[
var edges = document.getElementsByTagName('g');
if (edges && edges.length) {
  for (var i=0;i<edges.length;i++) {
    if (edges[i].id.substr(0,4)=='edge') {
      edges[i].setAttribute('class','edge');
    }
  }
}
]]></script>
        <defs>
                <circle id="rim" cx="0" cy="0" r="7"/>
                <circle id="rim2" cx="0" cy="0" r="3.5"/>
                <g id="zoomPlus">
                        <use xlink:href="#rim" fill="#404040">
                                <set attributeName="fill" to="#808080" begin="zoomplus.mouseover" end="zoomplus.mouseout"/>
                        </use>
                        <path d="M-4,0h8M0,-4v8" fill="none" stroke="white" stroke-width="1.5" pointer-events="none"/>
                </g>
                <g id="zoomMin">
                        <use xlink:href="#rim" fill="#404040">
                                <set attributeName="fill" to="#808080" begin="zoomminus.mouseover" end="zoomminus.mouseout"/>
                        </use>
                        <path d="M-4,0h8" fill="none" stroke="white" stroke-width="1.5" pointer-events="none"/>
                </g>
                <g id="dirArrow">
                        <path fill="none" stroke="white" stroke-width="1.5" d="M0,-3.0v7 M-2.5,-0.5L0,-3.0L2.5,-0.5"/>
                </g>
               <g id="resetDef">
                       <use xlink:href="#rim2" fill="#404040">
                               <set attributeName="fill" to="#808080" begin="reset.mouseover" end="reset.mouseout"/>
                       </use>
               </g>
        </defs>

<script type="text/javascript">
var viewWidth = 358;
var viewHeight = 658;
var sectionId = 'dynsection-1';
</script>
<script xlink:href="../../svgpan.js"/>
<svg id="graph" class="graph">
<g id="viewport">
<title>marian::EncoderDecoderRec</title>
<polygon fill="white" stroke="none" points="-4,4 -4,-654 354,-654 354,4 -4,4"/>
<!-- Node1 -->
<g id="node1" class="node"><title>Node1</title>
<polygon fill="#bfbfbf" stroke="black" points="124,-0.5 124,-101.5 267,-101.5 267,-0.5 124,-0.5"/>
<text text-anchor="middle" x="195.5" y="-89.5" font-family="Helvetica,sans-Serif" font-size="10.00">marian::EncoderDecoderRec</text>
<polyline fill="none" stroke="black" points="124,-82.5 267,-82.5 "/>
<text text-anchor="start" x="132" y="-70.5" font-family="Helvetica,sans-Serif" font-size="10.00">&#45; attention_</text>
<text text-anchor="start" x="132" y="-59.5" font-family="Helvetica,sans-Serif" font-size="10.00">&#45; rnnL1</text>
<polyline fill="none" stroke="black" points="124,-52.5 267,-52.5 "/>
<text text-anchor="start" x="132" y="-40.5" font-family="Helvetica,sans-Serif" font-size="10.00">+ EncoderDecoderRec()</text>
<text text-anchor="start" x="132" y="-29.5" font-family="Helvetica,sans-Serif" font-size="10.00">+ reconstructorGroundTruth()</text>
<text text-anchor="start" x="132" y="-18.5" font-family="Helvetica,sans-Serif" font-size="10.00">+ reconstructorStep()</text>
<text text-anchor="start" x="132" y="-7.5" font-family="Helvetica,sans-Serif" font-size="10.00">+ build()</text>
</g>
<!-- Node2 -->
<g id="node2" class="node"><title>Node2</title>
<g id="a_node2"><a xlink:href="../../d7/d2c/classmarian_1_1EncoderDecoder.html" target="_top" xlink:title="{marian::EncoderDecoder\l\&lt; EncoderS2S, DecoderS2S \&gt;\n|# options_\l# encoder_\l# decoder_\l# inference_\l|+ EncoderDecoder()\l+ EncoderDecoder()\l+ getEncoder()\l+ getDecoder()\l+ load()\l+ save()\l+ save()\l+ clear()\l+ startState()\l+ step()\land 7 more...\l}">
<polygon fill="white" stroke="black" points="120,-139.5 120,-350.5 271,-350.5 271,-139.5 120,-139.5"/>
<text text-anchor="start" x="128" y="-338.5" font-family="Helvetica,sans-Serif" font-size="10.00">marian::EncoderDecoder</text>
<text text-anchor="middle" x="195.5" y="-327.5" font-family="Helvetica,sans-Serif" font-size="10.00">&lt; EncoderS2S, DecoderS2S &gt;</text>
<polyline fill="none" stroke="black" points="120,-320.5 271,-320.5 "/>
<text text-anchor="start" x="128" y="-308.5" font-family="Helvetica,sans-Serif" font-size="10.00"># options_</text>
<text text-anchor="start" x="128" y="-297.5" font-family="Helvetica,sans-Serif" font-size="10.00"># encoder_</text>
<text text-anchor="start" x="128" y="-286.5" font-family="Helvetica,sans-Serif" font-size="10.00"># decoder_</text>
<text text-anchor="start" x="128" y="-275.5" font-family="Helvetica,sans-Serif" font-size="10.00"># inference_</text>
<polyline fill="none" stroke="black" points="120,-268.5 271,-268.5 "/>
<text text-anchor="start" x="128" y="-256.5" font-family="Helvetica,sans-Serif" font-size="10.00">+ EncoderDecoder()</text>
<text text-anchor="start" x="128" y="-245.5" font-family="Helvetica,sans-Serif" font-size="10.00">+ EncoderDecoder()</text>
<text text-anchor="start" x="128" y="-234.5" font-family="Helvetica,sans-Serif" font-size="10.00">+ getEncoder()</text>
<text text-anchor="start" x="128" y="-223.5" font-family="Helvetica,sans-Serif" font-size="10.00">+ getDecoder()</text>
<text text-anchor="start" x="128" y="-212.5" font-family="Helvetica,sans-Serif" font-size="10.00">+ load()</text>
<text text-anchor="start" x="128" y="-201.5" font-family="Helvetica,sans-Serif" font-size="10.00">+ save()</text>
<text text-anchor="start" x="128" y="-190.5" font-family="Helvetica,sans-Serif" font-size="10.00">+ save()</text>
<text text-anchor="start" x="128" y="-179.5" font-family="Helvetica,sans-Serif" font-size="10.00">+ clear()</text>
<text text-anchor="start" x="128" y="-168.5" font-family="Helvetica,sans-Serif" font-size="10.00">+ startState()</text>
<text text-anchor="start" x="128" y="-157.5" font-family="Helvetica,sans-Serif" font-size="10.00">+ step()</text>
<text text-anchor="start" x="128" y="-146.5" font-family="Helvetica,sans-Serif" font-size="10.00">and 7 more...</text>
</a>
</g>
</g>
<!-- Node2&#45;&gt;Node1 -->
<g id="edge1" class="edge"><title>Node2&#45;&gt;Node1</title>
<path fill="none" stroke="midnightblue" d="M195.5,-129.006C195.5,-119.602 195.5,-110.451 195.5,-101.935"/>
<polygon fill="none" stroke="midnightblue" points="192,-129.292 195.5,-139.292 199,-129.292 192,-129.292"/>
</g>
<!-- Node3 -->
<g id="node3" class="node"><title>Node3</title>
<g id="a_node3"><a xlink:href="../../d1/dad/classmarian_1_1EncoderDecoderBase.html" target="_top" xlink:title="{marian::EncoderDecoderBase\n||+ load()\l+ save()\l+ save()\l+ selectEmbeddings()\l+ step()\l+ step()\l+ build()\l+ getEncoder()\l+ getDecoder()\l}">
<polygon fill="white" stroke="black" points="0,-398.5 0,-543.5 147,-543.5 147,-398.5 0,-398.5"/>
<text text-anchor="middle" x="73.5" y="-531.5" font-family="Helvetica,sans-Serif" font-size="10.00">marian::EncoderDecoderBase</text>
<polyline fill="none" stroke="black" points="0,-524.5 147,-524.5 "/>
<text text-anchor="middle" x="73.5" y="-512.5" font-family="Helvetica,sans-Serif" font-size="10.00"> </text>
<polyline fill="none" stroke="black" points="0,-505.5 147,-505.5 "/>
<text text-anchor="start" x="8" y="-493.5" font-family="Helvetica,sans-Serif" font-size="10.00">+ load()</text>
<text text-anchor="start" x="8" y="-482.5" font-family="Helvetica,sans-Serif" font-size="10.00">+ save()</text>
<text text-anchor="start" x="8" y="-471.5" font-family="Helvetica,sans-Serif" font-size="10.00">+ save()</text>
<text text-anchor="start" x="8" y="-460.5" font-family="Helvetica,sans-Serif" font-size="10.00">+ selectEmbeddings()</text>
<text text-anchor="start" x="8" y="-449.5" font-family="Helvetica,sans-Serif" font-size="10.00">+ step()</text>
<text text-anchor="start" x="8" y="-438.5" font-family="Helvetica,sans-Serif" font-size="10.00">+ step()</text>
<text text-anchor="start" x="8" y="-427.5" font-family="Helvetica,sans-Serif" font-size="10.00">+ build()</text>
<text text-anchor="start" x="8" y="-416.5" font-family="Helvetica,sans-Serif" font-size="10.00">+ getEncoder()</text>
<text text-anchor="start" x="8" y="-405.5" font-family="Helvetica,sans-Serif" font-size="10.00">+ getDecoder()</text>
</a>
</g>
</g>
<!-- Node3&#45;&gt;Node2 -->
<g id="edge2" class="edge"><title>Node3&#45;&gt;Node2</title>
<path fill="none" stroke="midnightblue" d="M117.489,-389.234C124.277,-376.771 131.371,-363.746 138.395,-350.848"/>
<polygon fill="none" stroke="midnightblue" points="114.314,-387.745 112.605,-398.201 120.462,-391.093 114.314,-387.745"/>
</g>
<!-- Node4 -->
<g id="node4" class="node"><title>Node4</title>
<g id="a_node4"><a xlink:title="STL class. ">
<polygon fill="white" stroke="#bfbfbf" points="165.5,-442.5 165.5,-499.5 225.5,-499.5 225.5,-442.5 165.5,-442.5"/>
<text text-anchor="middle" x="195.5" y="-487.5" font-family="Helvetica,sans-Serif" font-size="10.00">std::string</text>
<polyline fill="none" stroke="#bfbfbf" points="165.5,-480.5 225.5,-480.5 "/>
<text text-anchor="middle" x="195.5" y="-468.5" font-family="Helvetica,sans-Serif" font-size="10.00"> </text>
<polyline fill="none" stroke="#bfbfbf" points="165.5,-461.5 225.5,-461.5 "/>
<text text-anchor="middle" x="195.5" y="-449.5" font-family="Helvetica,sans-Serif" font-size="10.00"> </text>
</a>
</g>
</g>
<!-- Node4&#45;&gt;Node2 -->
<g id="edge3" class="edge"><title>Node4&#45;&gt;Node2</title>
<path fill="none" stroke="#404040" d="M195.5,-442.083C195.5,-421.674 195.5,-392.486 195.5,-362.844"/>
<polygon fill="none" stroke="#404040" points="195.5,-362.589 191.5,-356.589 195.5,-350.589 199.5,-356.589 195.5,-362.589"/>
<text text-anchor="middle" x="214.5" y="-372" font-family="Helvetica,sans-Serif" font-size="10.00"> #prefix_</text>
</g>
<!-- Node5 -->
<g id="node5" class="node"><title>Node5</title>
<polygon fill="white" stroke="#bfbfbf" points="148,-581.5 148,-649.5 243,-649.5 243,-581.5 148,-581.5"/>
<text text-anchor="start" x="156" y="-637.5" font-family="Helvetica,sans-Serif" font-size="10.00">std::basic_string&lt;</text>
<text text-anchor="middle" x="195.5" y="-626.5" font-family="Helvetica,sans-Serif" font-size="10.00"> char &gt;</text>
<polyline fill="none" stroke="#bfbfbf" points="148,-619.5 243,-619.5 "/>
<text text-anchor="middle" x="195.5" y="-607.5" font-family="Helvetica,sans-Serif" font-size="10.00"> </text>
<polyline fill="none" stroke="#bfbfbf" points="148,-600.5 243,-600.5 "/>
<text text-anchor="middle" x="195.5" y="-588.5" font-family="Helvetica,sans-Serif" font-size="10.00"> </text>
</g>
<!-- Node5&#45;&gt;Node4 -->
<g id="edge4" class="edge"><title>Node5&#45;&gt;Node4</title>
<path fill="none" stroke="midnightblue" d="M195.5,-571.136C195.5,-547.87 195.5,-519.894 195.5,-499.602"/>
<polygon fill="none" stroke="midnightblue" points="192,-571.449 195.5,-581.449 199,-571.449 192,-571.449"/>
</g>
<!-- Node6 -->
<g id="node6" class="node"><title>Node6</title>
<polygon fill="white" stroke="#bfbfbf" points="243,-442.5 243,-499.5 350,-499.5 350,-442.5 243,-442.5"/>
<text text-anchor="middle" x="296.5" y="-487.5" font-family="Helvetica,sans-Serif" font-size="10.00">std::vector&lt; size_t &gt;</text>
<polyline fill="none" stroke="#bfbfbf" points="243,-480.5 350,-480.5 "/>
<text text-anchor="middle" x="296.5" y="-468.5" font-family="Helvetica,sans-Serif" font-size="10.00"> </text>
<polyline fill="none" stroke="#bfbfbf" points="243,-461.5 350,-461.5 "/>
<text text-anchor="middle" x="296.5" y="-449.5" font-family="Helvetica,sans-Serif" font-size="10.00"> </text>
</g>
<!-- Node6&#45;&gt;Node2 -->
<g id="edge5" class="edge"><title>Node6&#45;&gt;Node2</title>
<path fill="none" stroke="#404040" d="M283.912,-442.083C274.587,-421.402 261.198,-391.706 247.65,-361.659"/>
<polygon fill="none" stroke="#404040" points="247.591,-361.528 241.478,-357.703 242.658,-350.589 248.771,-354.414 247.591,-361.528"/>
<text text-anchor="middle" x="290.5" y="-372" font-family="Helvetica,sans-Serif" font-size="10.00"> #batchIndices_</text>
</g>
</g>
</svg>
        <g id="navigator" transform="translate(0 0)" fill="#404254">
                <rect fill="#f2f5e9" fill-opacity="0.5" stroke="#606060" stroke-width=".5" x="0" y="0" width="60" height="60"/>
                <use id="zoomplus" xlink:href="#zoomPlus" x="17" y="9" onmousedown="handleZoom(evt,'in')"/>
                <use id="zoomminus" xlink:href="#zoomMin" x="42" y="9" onmousedown="handleZoom(evt,'out')"/>
                <use id="reset" xlink:href="#resetDef" x="30" y="36" onmousedown="handleReset()"/>
                <g id="arrowUp" xlink:href="#dirArrow" transform="translate(30 24)" onmousedown="handlePan(0,-1)">
                  <use xlink:href="#rim" fill="#404040">
                        <set attributeName="fill" to="#808080" begin="arrowUp.mouseover" end="arrowUp.mouseout"/>
                  </use>
                  <path fill="none" stroke="white" stroke-width="1.5" d="M0,-3.0v7 M-2.5,-0.5L0,-3.0L2.5,-0.5"/>
                </g>
                <g id="arrowRight" xlink:href="#dirArrow" transform="rotate(90) translate(36 -43)" onmousedown="handlePan(1,0)">
                  <use xlink:href="#rim" fill="#404040">
                        <set attributeName="fill" to="#808080" begin="arrowRight.mouseover" end="arrowRight.mouseout"/>
                  </use>
                  <path fill="none" stroke="white" stroke-width="1.5" d="M0,-3.0v7 M-2.5,-0.5L0,-3.0L2.5,-0.5"/>
                </g>
                <g id="arrowDown" xlink:href="#dirArrow" transform="rotate(180) translate(-30 -48)" onmousedown="handlePan(0,1)">
                  <use xlink:href="#rim" fill="#404040">
                        <set attributeName="fill" to="#808080" begin="arrowDown.mouseover" end="arrowDown.mouseout"/>
                  </use>
                  <path fill="none" stroke="white" stroke-width="1.5" d="M0,-3.0v7 M-2.5,-0.5L0,-3.0L2.5,-0.5"/>
                </g>
                <g id="arrowLeft" xlink:href="#dirArrow" transform="rotate(270) translate(-36 17)" onmousedown="handlePan(-1,0)">
                  <use xlink:href="#rim" fill="#404040">
                        <set attributeName="fill" to="#808080" begin="arrowLeft.mouseover" end="arrowLeft.mouseout"/>
                  </use>
                  <path fill="none" stroke="white" stroke-width="1.5" d="M0,-3.0v7 M-2.5,-0.5L0,-3.0L2.5,-0.5"/>
                </g>
        </g>
        <svg viewBox="0 0 15 15" width="100%" height="30px" preserveAspectRatio="xMaxYMin meet">
         <g id="arrow_out" transform="scale(0.3 0.3)">
          <a xlink:href="classmarian_1_1EncoderDecoderRec__coll__graph_org.svg" target="_base">
           <rect id="button" ry="5" rx="5" y="6" x="6" height="38" width="38"
                fill="#f2f5e9" fill-opacity="0.5" stroke="#606060" stroke-width="1.0"/>
           <path id="arrow"
             d="M 11.500037,31.436501 C 11.940474,20.09759 22.043105,11.32322 32.158766,21.979434 L 37.068811,17.246167 C 37.068811,17.246167 37.088388,32 37.088388,32 L 22.160133,31.978069 C 22.160133,31.978069 26.997745,27.140456 26.997745,27.140456 C 18.528582,18.264221 13.291696,25.230495 11.500037,31.436501 z"
             style="fill:#404040;"/>
          </a>
         </g>
        </svg>
</svg>
