<?xml version="1.0" encoding="UTF-8" standalone="no"?>
<!DOCTYPE svg PUBLIC "-//W3C//DTD SVG 1.1//EN"
 "http://www.w3.org/Graphics/SVG/1.1/DTD/svg11.dtd">
<!-- Generated by graphviz version 2.38.0 (20140413.2041)
 -->
<!-- Title: amunmt::GPU::NthElement Pages: 1 -->
<svg width="522pt" height="617pt"
 viewBox="0.00 0.00 521.50 617.00" xmlns="http://www.w3.org/2000/svg" xmlns:xlink="http://www.w3.org/1999/xlink">
<g id="graph0" class="graph" transform="scale(1 1) rotate(0) translate(4 613)">
<title>amunmt::GPU::NthElement</title>
<polygon fill="white" stroke="none" points="-4,4 -4,-613 517.5,-613 517.5,4 -4,4"/>
<!-- Node1 -->
<g id="node1" class="node"><title>Node1</title>
<polygon fill="#bfbfbf" stroke="black" points="190,-0.5 190,-156.5 327,-156.5 327,-0.5 190,-0.5"/>
<text text-anchor="middle" x="258.5" y="-144.5" font-family="Helvetica,sans-Serif" font-size="10.00">amunmt::GPU::NthElement</text>
<polyline fill="none" stroke="black" points="190,-137.5 327,-137.5 "/>
<text text-anchor="start" x="198" y="-125.5" font-family="Helvetica,sans-Serif" font-size="10.00">&#45; BLOCK_SIZE</text>
<text text-anchor="start" x="198" y="-114.5" font-family="Helvetica,sans-Serif" font-size="10.00">&#45; maxBeamSize_</text>
<text text-anchor="start" x="198" y="-103.5" font-family="Helvetica,sans-Serif" font-size="10.00">&#45; maxBatchSize_</text>
<polyline fill="none" stroke="black" points="190,-96.5 327,-96.5 "/>
<text text-anchor="start" x="198" y="-84.5" font-family="Helvetica,sans-Serif" font-size="10.00">+ NthElement()</text>
<text text-anchor="start" x="198" y="-73.5" font-family="Helvetica,sans-Serif" font-size="10.00">+ NthElement()</text>
<text text-anchor="start" x="198" y="-62.5" font-family="Helvetica,sans-Serif" font-size="10.00">+ NthElement()</text>
<text text-anchor="start" x="198" y="-51.5" font-family="Helvetica,sans-Serif" font-size="10.00">+ ~NthElement()</text>
<text text-anchor="start" x="198" y="-40.5" font-family="Helvetica,sans-Serif" font-size="10.00">+ getNBestList()</text>
<text text-anchor="start" x="198" y="-29.5" font-family="Helvetica,sans-Serif" font-size="10.00">+ GetPairs()</text>
<text text-anchor="start" x="198" y="-18.5" font-family="Helvetica,sans-Serif" font-size="10.00">+ getValueByKey()</text>
<text text-anchor="start" x="198" y="-7.5" font-family="Helvetica,sans-Serif" font-size="10.00">&#45; getNBestList()</text>
</g>
<!-- Node2 -->
<g id="node2" class="node"><title>Node2</title>
<polygon fill="white" stroke="#bfbfbf" points="0,-292.5 0,-360.5 107,-360.5 107,-292.5 0,-292.5"/>
<text text-anchor="start" x="8" y="-348.5" font-family="Helvetica,sans-Serif" font-size="10.00">std::vector&lt; amunmt</text>
<text text-anchor="middle" x="53.5" y="-337.5" font-family="Helvetica,sans-Serif" font-size="10.00">::GPU::NthOut &gt;</text>
<polyline fill="none" stroke="#bfbfbf" points="0,-330.5 107,-330.5 "/>
<text text-anchor="middle" x="53.5" y="-318.5" font-family="Helvetica,sans-Serif" font-size="10.00"> </text>
<polyline fill="none" stroke="#bfbfbf" points="0,-311.5 107,-311.5 "/>
<text text-anchor="middle" x="53.5" y="-299.5" font-family="Helvetica,sans-Serif" font-size="10.00"> </text>
</g>
<!-- Node2&#45;&gt;Node1 -->
<g id="edge1" class="edge"><title>Node2&#45;&gt;Node1</title>
<path fill="none" stroke="#404040" d="M69.3533,-292.015C80.8908,-269.243 97.7316,-239.009 116.5,-215 135.406,-190.815 158.591,-166.871 180.702,-145.995"/>
<polygon fill="none" stroke="#404040" points="180.987,-145.729 182.649,-138.712 189.765,-137.548 188.103,-144.564 180.987,-145.729"/>
<text text-anchor="middle" x="164" y="-183.5" font-family="Helvetica,sans-Serif" font-size="10.00"> &#45;h_res</text>
</g>
<!-- Node3 -->
<g id="node3" class="node"><title>Node3</title>
<g id="a_node3"><a xlink:href="$da/ddf/classamunmt_1_1GPU_1_1mblas_1_1TMatrix.html" xlink:title="{amunmt::GPU::mblas\l::TMatrix\&lt; uint \&gt;\n|&#45; dim_\l&#45; arrSize_\l&#45; data_\l|+ TMatrix()\l+ TMatrix()\l+ TMatrix()\l+ TMatrix()\l+ ~TMatrix()\l+ dim()\l+ Resize()\l+ NewSize()\l+ reserve()\l+ Debug()\l+ data()\l+ data()\l+ swap()\l}">
<polygon fill="white" stroke="black" points="401.5,-215.5 401.5,-437.5 513.5,-437.5 513.5,-215.5 401.5,-215.5"/>
<text text-anchor="start" x="409.5" y="-425.5" font-family="Helvetica,sans-Serif" font-size="10.00">amunmt::GPU::mblas</text>
<text text-anchor="middle" x="457.5" y="-414.5" font-family="Helvetica,sans-Serif" font-size="10.00">::TMatrix&lt; uint &gt;</text>
<polyline fill="none" stroke="black" points="401.5,-407.5 513.5,-407.5 "/>
<text text-anchor="start" x="409.5" y="-395.5" font-family="Helvetica,sans-Serif" font-size="10.00">&#45; dim_</text>
<text text-anchor="start" x="409.5" y="-384.5" font-family="Helvetica,sans-Serif" font-size="10.00">&#45; arrSize_</text>
<text text-anchor="start" x="409.5" y="-373.5" font-family="Helvetica,sans-Serif" font-size="10.00">&#45; data_</text>
<polyline fill="none" stroke="black" points="401.5,-366.5 513.5,-366.5 "/>
<text text-anchor="start" x="409.5" y="-354.5" font-family="Helvetica,sans-Serif" font-size="10.00">+ TMatrix()</text>
<text text-anchor="start" x="409.5" y="-343.5" font-family="Helvetica,sans-Serif" font-size="10.00">+ TMatrix()</text>
<text text-anchor="start" x="409.5" y="-332.5" font-family="Helvetica,sans-Serif" font-size="10.00">+ TMatrix()</text>
<text text-anchor="start" x="409.5" y="-321.5" font-family="Helvetica,sans-Serif" font-size="10.00">+ TMatrix()</text>
<text text-anchor="start" x="409.5" y="-310.5" font-family="Helvetica,sans-Serif" font-size="10.00">+ ~TMatrix()</text>
<text text-anchor="start" x="409.5" y="-299.5" font-family="Helvetica,sans-Serif" font-size="10.00">+ dim()</text>
<text text-anchor="start" x="409.5" y="-288.5" font-family="Helvetica,sans-Serif" font-size="10.00">+ Resize()</text>
<text text-anchor="start" x="409.5" y="-277.5" font-family="Helvetica,sans-Serif" font-size="10.00">+ NewSize()</text>
<text text-anchor="start" x="409.5" y="-266.5" font-family="Helvetica,sans-Serif" font-size="10.00">+ reserve()</text>
<text text-anchor="start" x="409.5" y="-255.5" font-family="Helvetica,sans-Serif" font-size="10.00">+ Debug()</text>
<text text-anchor="start" x="409.5" y="-244.5" font-family="Helvetica,sans-Serif" font-size="10.00">+ data()</text>
<text text-anchor="start" x="409.5" y="-233.5" font-family="Helvetica,sans-Serif" font-size="10.00">+ data()</text>
<text text-anchor="start" x="409.5" y="-222.5" font-family="Helvetica,sans-Serif" font-size="10.00">+ swap()</text>
</a>
</g>
</g>
<!-- Node3&#45;&gt;Node1 -->
<g id="edge2" class="edge"><title>Node3&#45;&gt;Node1</title>
<path fill="none" stroke="#404040" d="M401.465,-228.225C398.496,-223.714 395.5,-219.285 392.5,-215 376.147,-191.64 355.617,-168.651 335.575,-148.431"/>
<polygon fill="none" stroke="#404040" points="335.543,-148.399 328.467,-147.008 327.03,-139.941 334.105,-141.332 335.543,-148.399"/>
<text text-anchor="middle" x="419" y="-189" font-family="Helvetica,sans-Serif" font-size="10.00"> &#45;d_batchPosition</text>
<text text-anchor="middle" x="419" y="-178" font-family="Helvetica,sans-Serif" font-size="10.00">&#45;d_cumBeamSizes</text>
</g>
<!-- Node4 -->
<g id="node4" class="node"><title>Node4</title>
<g id="a_node4"><a xlink:href="$d5/de7/classamunmt_1_1BaseMatrix.html" xlink:title="{amunmt::BaseMatrix\n||+ BaseMatrix()\l+ ~BaseMatrix()\l+ dim()\l+ size()\l+ empty()\l+ Resize()\l+ Debug()\l}">
<polygon fill="white" stroke="black" points="274,-485.5 274,-608.5 381,-608.5 381,-485.5 274,-485.5"/>
<text text-anchor="middle" x="327.5" y="-596.5" font-family="Helvetica,sans-Serif" font-size="10.00">amunmt::BaseMatrix</text>
<polyline fill="none" stroke="black" points="274,-589.5 381,-589.5 "/>
<text text-anchor="middle" x="327.5" y="-577.5" font-family="Helvetica,sans-Serif" font-size="10.00"> </text>
<polyline fill="none" stroke="black" points="274,-570.5 381,-570.5 "/>
<text text-anchor="start" x="282" y="-558.5" font-family="Helvetica,sans-Serif" font-size="10.00">+ BaseMatrix()</text>
<text text-anchor="start" x="282" y="-547.5" font-family="Helvetica,sans-Serif" font-size="10.00">+ ~BaseMatrix()</text>
<text text-anchor="start" x="282" y="-536.5" font-family="Helvetica,sans-Serif" font-size="10.00">+ dim()</text>
<text text-anchor="start" x="282" y="-525.5" font-family="Helvetica,sans-Serif" font-size="10.00">+ size()</text>
<text text-anchor="start" x="282" y="-514.5" font-family="Helvetica,sans-Serif" font-size="10.00">+ empty()</text>
<text text-anchor="start" x="282" y="-503.5" font-family="Helvetica,sans-Serif" font-size="10.00">+ Resize()</text>
<text text-anchor="start" x="282" y="-492.5" font-family="Helvetica,sans-Serif" font-size="10.00">+ Debug()</text>
</a>
</g>
</g>
<!-- Node4&#45;&gt;Node3 -->
<g id="edge3" class="edge"><title>Node4&#45;&gt;Node3</title>
<path fill="none" stroke="midnightblue" d="M369.486,-476.472C377.164,-463.69 385.09,-450.453 392.5,-438 395.402,-433.123 398.371,-428.12 401.365,-423.067"/>
<polygon fill="none" stroke="midnightblue" points="366.371,-474.86 364.218,-485.233 372.371,-478.466 366.371,-474.86"/>
</g>
<!-- Node5 -->
<g id="node5" class="node"><title>Node5</title>
<g id="a_node5"><a xlink:href="$da/ddf/classamunmt_1_1GPU_1_1mblas_1_1TMatrix.html" xlink:title="{amunmt::GPU::mblas\l::TMatrix\&lt; amunmt::GPU\l::NthOut \&gt;\n|&#45; dim_\l&#45; arrSize_\l|+ TMatrix()\l+ TMatrix()\l+ TMatrix()\l+ TMatrix()\l+ ~TMatrix()\l+ dim()\l+ Resize()\l+ NewSize()\l+ reserve()\l+ Debug()\l+ data()\l+ data()\l+ swap()\l}">
<polygon fill="white" stroke="black" points="125.5,-215.5 125.5,-437.5 253.5,-437.5 253.5,-215.5 125.5,-215.5"/>
<text text-anchor="start" x="133.5" y="-425.5" font-family="Helvetica,sans-Serif" font-size="10.00">amunmt::GPU::mblas</text>
<text text-anchor="start" x="133.5" y="-414.5" font-family="Helvetica,sans-Serif" font-size="10.00">::TMatrix&lt; amunmt::GPU</text>
<text text-anchor="middle" x="189.5" y="-403.5" font-family="Helvetica,sans-Serif" font-size="10.00">::NthOut &gt;</text>
<polyline fill="none" stroke="black" points="125.5,-396.5 253.5,-396.5 "/>
<text text-anchor="start" x="133.5" y="-384.5" font-family="Helvetica,sans-Serif" font-size="10.00">&#45; dim_</text>
<text text-anchor="start" x="133.5" y="-373.5" font-family="Helvetica,sans-Serif" font-size="10.00">&#45; arrSize_</text>
<polyline fill="none" stroke="black" points="125.5,-366.5 253.5,-366.5 "/>
<text text-anchor="start" x="133.5" y="-354.5" font-family="Helvetica,sans-Serif" font-size="10.00">+ TMatrix()</text>
<text text-anchor="start" x="133.5" y="-343.5" font-family="Helvetica,sans-Serif" font-size="10.00">+ TMatrix()</text>
<text text-anchor="start" x="133.5" y="-332.5" font-family="Helvetica,sans-Serif" font-size="10.00">+ TMatrix()</text>
<text text-anchor="start" x="133.5" y="-321.5" font-family="Helvetica,sans-Serif" font-size="10.00">+ TMatrix()</text>
<text text-anchor="start" x="133.5" y="-310.5" font-family="Helvetica,sans-Serif" font-size="10.00">+ ~TMatrix()</text>
<text text-anchor="start" x="133.5" y="-299.5" font-family="Helvetica,sans-Serif" font-size="10.00">+ dim()</text>
<text text-anchor="start" x="133.5" y="-288.5" font-family="Helvetica,sans-Serif" font-size="10.00">+ Resize()</text>
<text text-anchor="start" x="133.5" y="-277.5" font-family="Helvetica,sans-Serif" font-size="10.00">+ NewSize()</text>
<text text-anchor="start" x="133.5" y="-266.5" font-family="Helvetica,sans-Serif" font-size="10.00">+ reserve()</text>
<text text-anchor="start" x="133.5" y="-255.5" font-family="Helvetica,sans-Serif" font-size="10.00">+ Debug()</text>
<text text-anchor="start" x="133.5" y="-244.5" font-family="Helvetica,sans-Serif" font-size="10.00">+ data()</text>
<text text-anchor="start" x="133.5" y="-233.5" font-family="Helvetica,sans-Serif" font-size="10.00">+ data()</text>
<text text-anchor="start" x="133.5" y="-222.5" font-family="Helvetica,sans-Serif" font-size="10.00">+ swap()</text>
</a>
</g>
</g>
<!-- Node4&#45;&gt;Node5 -->
<g id="edge5" class="edge"><title>Node4&#45;&gt;Node5</title>
<path fill="none" stroke="midnightblue" d="M283.685,-476.626C274.086,-461.427 263.733,-445.036 253.526,-428.875"/>
<polygon fill="none" stroke="midnightblue" points="280.943,-478.84 289.243,-485.426 286.862,-475.102 280.943,-478.84"/>
</g>
<!-- Node7 -->
<g id="node7" class="node"><title>Node7</title>
<g id="a_node7"><a xlink:href="$da/ddf/classamunmt_1_1GPU_1_1mblas_1_1TMatrix.html" xlink:title="{amunmt::GPU::mblas\l::TMatrix\&lt; float \&gt;\n|&#45; dim_\l&#45; arrSize_\l&#45; data_\l|+ TMatrix()\l+ TMatrix()\l+ TMatrix()\l+ TMatrix()\l+ ~TMatrix()\l+ dim()\l+ Resize()\l+ NewSize()\l+ reserve()\l+ Debug()\l+ data()\l+ data()\l+ swap()\l}">
<polygon fill="white" stroke="black" points="271.5,-215.5 271.5,-437.5 383.5,-437.5 383.5,-215.5 271.5,-215.5"/>
<text text-anchor="start" x="279.5" y="-425.5" font-family="Helvetica,sans-Serif" font-size="10.00">amunmt::GPU::mblas</text>
<text text-anchor="middle" x="327.5" y="-414.5" font-family="Helvetica,sans-Serif" font-size="10.00">::TMatrix&lt; float &gt;</text>
<polyline fill="none" stroke="black" points="271.5,-407.5 383.5,-407.5 "/>
<text text-anchor="start" x="279.5" y="-395.5" font-family="Helvetica,sans-Serif" font-size="10.00">&#45; dim_</text>
<text text-anchor="start" x="279.5" y="-384.5" font-family="Helvetica,sans-Serif" font-size="10.00">&#45; arrSize_</text>
<text text-anchor="start" x="279.5" y="-373.5" font-family="Helvetica,sans-Serif" font-size="10.00">&#45; data_</text>
<polyline fill="none" stroke="black" points="271.5,-366.5 383.5,-366.5 "/>
<text text-anchor="start" x="279.5" y="-354.5" font-family="Helvetica,sans-Serif" font-size="10.00">+ TMatrix()</text>
<text text-anchor="start" x="279.5" y="-343.5" font-family="Helvetica,sans-Serif" font-size="10.00">+ TMatrix()</text>
<text text-anchor="start" x="279.5" y="-332.5" font-family="Helvetica,sans-Serif" font-size="10.00">+ TMatrix()</text>
<text text-anchor="start" x="279.5" y="-321.5" font-family="Helvetica,sans-Serif" font-size="10.00">+ TMatrix()</text>
<text text-anchor="start" x="279.5" y="-310.5" font-family="Helvetica,sans-Serif" font-size="10.00">+ ~TMatrix()</text>
<text text-anchor="start" x="279.5" y="-299.5" font-family="Helvetica,sans-Serif" font-size="10.00">+ dim()</text>
<text text-anchor="start" x="279.5" y="-288.5" font-family="Helvetica,sans-Serif" font-size="10.00">+ Resize()</text>
<text text-anchor="start" x="279.5" y="-277.5" font-family="Helvetica,sans-Serif" font-size="10.00">+ NewSize()</text>
<text text-anchor="start" x="279.5" y="-266.5" font-family="Helvetica,sans-Serif" font-size="10.00">+ reserve()</text>
<text text-anchor="start" x="279.5" y="-255.5" font-family="Helvetica,sans-Serif" font-size="10.00">+ Debug()</text>
<text text-anchor="start" x="279.5" y="-244.5" font-family="Helvetica,sans-Serif" font-size="10.00">+ data()</text>
<text text-anchor="start" x="279.5" y="-233.5" font-family="Helvetica,sans-Serif" font-size="10.00">+ data()</text>
<text text-anchor="start" x="279.5" y="-222.5" font-family="Helvetica,sans-Serif" font-size="10.00">+ swap()</text>
</a>
</g>
</g>
<!-- Node4&#45;&gt;Node7 -->
<g id="edge8" class="edge"><title>Node4&#45;&gt;Node7</title>
<path fill="none" stroke="midnightblue" d="M327.5,-475.08C327.5,-463.08 327.5,-450.374 327.5,-437.651"/>
<polygon fill="none" stroke="midnightblue" points="324,-475.426 327.5,-485.426 331,-475.426 324,-475.426"/>
</g>
<!-- Node5&#45;&gt;Node1 -->
<g id="edge4" class="edge"><title>Node5&#45;&gt;Node1</title>
<path fill="none" stroke="#404040" d="M220.367,-215.451C224.756,-199.805 229.224,-183.876 233.483,-168.693"/>
<polygon fill="none" stroke="#404040" points="233.607,-168.249 231.376,-161.392 236.848,-156.695 239.079,-163.553 233.607,-168.249"/>
<text text-anchor="middle" x="246" y="-189" font-family="Helvetica,sans-Serif" font-size="10.00"> &#45;d_out</text>
<text text-anchor="middle" x="246" y="-178" font-family="Helvetica,sans-Serif" font-size="10.00">&#45;d_res</text>
</g>
<!-- Node6 -->
<g id="node6" class="node"><title>Node6</title>
<g id="a_node6"><a xlink:href="$db/da2/structamunmt_1_1GPU_1_1NthOut.html" xlink:title="{amunmt::GPU::NthOut\n|+ ind\l+ score\l|+ NthOut()\l+ NthOut()\l+ NthOut()\l+ operator+=()\l}">
<polygon fill="white" stroke="black" points="131,-496.5 131,-597.5 248,-597.5 248,-496.5 131,-496.5"/>
<text text-anchor="middle" x="189.5" y="-585.5" font-family="Helvetica,sans-Serif" font-size="10.00">amunmt::GPU::NthOut</text>
<polyline fill="none" stroke="black" points="131,-578.5 248,-578.5 "/>
<text text-anchor="start" x="139" y="-566.5" font-family="Helvetica,sans-Serif" font-size="10.00">+ ind</text>
<text text-anchor="start" x="139" y="-555.5" font-family="Helvetica,sans-Serif" font-size="10.00">+ score</text>
<polyline fill="none" stroke="black" points="131,-548.5 248,-548.5 "/>
<text text-anchor="start" x="139" y="-536.5" font-family="Helvetica,sans-Serif" font-size="10.00">+ NthOut()</text>
<text text-anchor="start" x="139" y="-525.5" font-family="Helvetica,sans-Serif" font-size="10.00">+ NthOut()</text>
<text text-anchor="start" x="139" y="-514.5" font-family="Helvetica,sans-Serif" font-size="10.00">+ NthOut()</text>
<text text-anchor="start" x="139" y="-503.5" font-family="Helvetica,sans-Serif" font-size="10.00">+ operator+=()</text>
</a>
</g>
</g>
<!-- Node6&#45;&gt;Node5 -->
<g id="edge6" class="edge"><title>Node6&#45;&gt;Node5</title>
<path fill="none" stroke="#404040" d="M189.5,-496.419C189.5,-482.234 189.5,-466.114 189.5,-449.596"/>
<polygon fill="none" stroke="#404040" points="189.5,-449.52 185.5,-443.52 189.5,-437.52 193.5,-443.52 189.5,-449.52"/>
<text text-anchor="middle" x="205" y="-459" font-family="Helvetica,sans-Serif" font-size="10.00"> &#45;data_</text>
</g>
<!-- Node7&#45;&gt;Node1 -->
<g id="edge7" class="edge"><title>Node7&#45;&gt;Node1</title>
<path fill="none" stroke="#404040" d="M296.633,-215.451C292.244,-199.805 287.776,-183.876 283.517,-168.693"/>
<polygon fill="none" stroke="#404040" points="283.393,-168.249 277.921,-163.553 280.152,-156.695 285.624,-161.392 283.393,-168.249"/>
<text text-anchor="middle" x="323.5" y="-183.5" font-family="Helvetica,sans-Serif" font-size="10.00"> &#45;d_breakdown</text>
</g>
</g>
</svg>
