<?xml version="1.0" encoding="UTF-8" standalone="no"?>
<!DOCTYPE svg PUBLIC "-//W3C//DTD SVG 1.1//EN"
 "http://www.w3.org/Graphics/SVG/1.1/DTD/svg11.dtd">
<!-- Generated by graphviz version 2.38.0 (20140413.2041)
 -->
<!-- Title: amunmt::GPU::mblas::CudaStreamHandler Pages: 1 -->
<svg width="202pt" height="110pt"
 viewBox="0.00 0.00 202.00 110.00" xmlns="http://www.w3.org/2000/svg" xmlns:xlink="http://www.w3.org/1999/xlink">
<g id="graph0" class="graph" transform="scale(1 1) rotate(0) translate(4 106)">
<title>amunmt::GPU::mblas::CudaStreamHandler</title>
<polygon fill="white" stroke="none" points="-4,4 -4,-106 198,-106 198,4 -4,4"/>
<!-- Node1 -->
<g id="node1" class="node"><title>Node1</title>
<polygon fill="#bfbfbf" stroke="black" points="-7.10543e-15,-0.5 -7.10543e-15,-101.5 125,-101.5 125,-0.5 -7.10543e-15,-0.5"/>
<text text-anchor="start" x="8" y="-89.5" font-family="Helvetica,sans-Serif" font-size="10.00">amunmt::GPU::mblas</text>
<text text-anchor="middle" x="62.5" y="-78.5" font-family="Helvetica,sans-Serif" font-size="10.00">::CudaStreamHandler</text>
<polyline fill="none" stroke="black" points="-7.10543e-15,-71.5 125,-71.5 "/>
<text text-anchor="start" x="8" y="-59.5" font-family="Helvetica,sans-Serif" font-size="10.00"># stream_</text>
<polyline fill="none" stroke="black" points="-7.10543e-15,-52.5 125,-52.5 "/>
<text text-anchor="start" x="8" y="-40.5" font-family="Helvetica,sans-Serif" font-size="10.00">+ GetStream()</text>
<text text-anchor="start" x="8" y="-29.5" font-family="Helvetica,sans-Serif" font-size="10.00"># CudaStreamHandler()</text>
<text text-anchor="start" x="8" y="-18.5" font-family="Helvetica,sans-Serif" font-size="10.00"># CudaStreamHandler()</text>
<text text-anchor="start" x="8" y="-7.5" font-family="Helvetica,sans-Serif" font-size="10.00"># ~CudaStreamHandler()</text>
</g>
<!-- Node1&#45;&gt;Node1 -->
<g id="edge1" class="edge"><title>Node1&#45;&gt;Node1</title>
<path fill="none" stroke="#404040" d="M125.278,-68.4271C135.764,-65.9887 143,-60.1797 143,-51 143,-45.693 140.582,-41.5126 136.515,-38.4587"/>
<polygon fill="none" stroke="#404040" points="136.283,-38.3579 129.186,-39.6337 125.278,-33.5729 132.376,-32.2972 136.283,-38.3579"/>
<text text-anchor="middle" x="168.5" y="-48.5" font-family="Helvetica,sans-Serif" font-size="10.00"> #instance_</text>
</g>
</g>
</svg>
