<?xml version="1.0" encoding="UTF-8" standalone="no"?>
<!DOCTYPE svg PUBLIC "-//W3C//DTD SVG 1.1//EN"
 "http://www.w3.org/Graphics/SVG/1.1/DTD/svg11.dtd">
<!-- Generated by graphviz version 2.38.0 (20140413.2041)
 -->
<!-- Title: node_operators_binary.h Pages: 1 -->
<!--zoomable 308 -->
<svg id="main" version="1.1" xmlns="http://www.w3.org/2000/svg" xmlns:xlink="http://www.w3.org/1999/xlink" xml:space="preserve" onload="init(evt)">
<style type="text/css"><![CDATA[
.edge:hover path { stroke: red; }
.edge:hover polygon { stroke: red; fill: red; }
]]></style>
<script type="text/javascript"><![CDATA[
var edges = document.getElementsByTagName('g');
if (edges && edges.length) {
  for (var i=0;i<edges.length;i++) {
    if (edges[i].id.substr(0,4)=='edge') {
      edges[i].setAttribute('class','edge');
    }
  }
}
]]></script>
        <defs>
                <circle id="rim" cx="0" cy="0" r="7"/>
                <circle id="rim2" cx="0" cy="0" r="3.5"/>
                <g id="zoomPlus">
                        <use xlink:href="#rim" fill="#404040">
                                <set attributeName="fill" to="#808080" begin="zoomplus.mouseover" end="zoomplus.mouseout"/>
                        </use>
                        <path d="M-4,0h8M0,-4v8" fill="none" stroke="white" stroke-width="1.5" pointer-events="none"/>
                </g>
                <g id="zoomMin">
                        <use xlink:href="#rim" fill="#404040">
                                <set attributeName="fill" to="#808080" begin="zoomminus.mouseover" end="zoomminus.mouseout"/>
                        </use>
                        <path d="M-4,0h8" fill="none" stroke="white" stroke-width="1.5" pointer-events="none"/>
                </g>
                <g id="dirArrow">
                        <path fill="none" stroke="white" stroke-width="1.5" d="M0,-3.0v7 M-2.5,-0.5L0,-3.0L2.5,-0.5"/>
                </g>
               <g id="resetDef">
                       <use xlink:href="#rim2" fill="#404040">
                               <set attributeName="fill" to="#808080" begin="reset.mouseover" end="reset.mouseout"/>
                       </use>
               </g>
        </defs>

<script type="text/javascript">
var viewWidth = 1607;
var viewHeight = 308;
var sectionId = 'dynsection-0';
</script>
<script xlink:href="../../svgpan.js"/>
<svg id="graph" class="graph">
<g id="viewport">
<title>node_operators_binary.h</title>
<polygon fill="white" stroke="none" points="-4,4 -4,-304 1602.5,-304 1602.5,4 -4,4"/>
<!-- Node1 -->
<g id="node1" class="node"><title>Node1</title>
<polygon fill="#bfbfbf" stroke="black" points="725,-280.5 725,-299.5 848,-299.5 848,-280.5 725,-280.5"/>
<text text-anchor="middle" x="786.5" y="-287.5" font-family="Helvetica,sans-Serif" font-size="10.00">node_operators_binary.h</text>
</g>
<!-- Node2 -->
<g id="node2" class="node"><title>Node2</title>
<polygon fill="white" stroke="#bfbfbf" points="173.5,-168.5 173.5,-187.5 217.5,-187.5 217.5,-168.5 173.5,-168.5"/>
<text text-anchor="middle" x="195.5" y="-175.5" font-family="Helvetica,sans-Serif" font-size="10.00">thread</text>
</g>
<!-- Node1&#45;&gt;Node2 -->
<g id="edge1" class="edge"><title>Node1&#45;&gt;Node2</title>
<path fill="none" stroke="midnightblue" d="M724.96,-287.272C642.537,-283.856 492.216,-273.748 367.5,-244 314.651,-231.394 256.048,-206.819 222.702,-191.762"/>
<polygon fill="midnightblue" stroke="midnightblue" points="224.145,-188.574 213.595,-187.602 221.237,-194.941 224.145,-188.574"/>
</g>
<!-- Node3 -->
<g id="node3" class="node"><title>Node3</title>
<g id="a_node3"><a xlink:href="../../d5/da6/backend__gpu_8h.html" target="_top" xlink:title="graph/backend_gpu.h">
<polygon fill="white" stroke="black" points="731.5,-224.5 731.5,-243.5 841.5,-243.5 841.5,-224.5 731.5,-224.5"/>
<text text-anchor="middle" x="786.5" y="-231.5" font-family="Helvetica,sans-Serif" font-size="10.00">graph/backend_gpu.h</text>
</a>
</g>
</g>
<!-- Node1&#45;&gt;Node3 -->
<g id="edge2" class="edge"><title>Node1&#45;&gt;Node3</title>
<path fill="none" stroke="midnightblue" d="M786.5,-280.083C786.5,-273.006 786.5,-262.861 786.5,-253.986"/>
<polygon fill="midnightblue" stroke="midnightblue" points="790,-253.751 786.5,-243.751 783,-253.751 790,-253.751"/>
</g>
<!-- Node9 -->
<g id="node9" class="node"><title>Node9</title>
<g id="a_node9"><a xlink:href="../../d1/d77/node_8h.html" target="_top" xlink:title="graph/node.h">
<polygon fill="white" stroke="black" points="377,-224.5 377,-243.5 450,-243.5 450,-224.5 377,-224.5"/>
<text text-anchor="middle" x="413.5" y="-231.5" font-family="Helvetica,sans-Serif" font-size="10.00">graph/node.h</text>
</a>
</g>
</g>
<!-- Node1&#45;&gt;Node9 -->
<g id="edge8" class="edge"><title>Node1&#45;&gt;Node9</title>
<path fill="none" stroke="midnightblue" d="M727.397,-280.444C653.246,-269.709 527.628,-251.523 459.97,-241.728"/>
<polygon fill="midnightblue" stroke="midnightblue" points="460.422,-238.257 450.023,-240.288 459.419,-245.184 460.422,-238.257"/>
</g>
<!-- Node32 -->
<g id="node32" class="node"><title>Node32</title>
<g id="a_node32"><a xlink:href="../../d4/d07/tensor__operators_8h.html" target="_top" xlink:title="kernels/tensor_operators.h">
<polygon fill="white" stroke="black" points="1198.5,-224.5 1198.5,-243.5 1330.5,-243.5 1330.5,-224.5 1198.5,-224.5"/>
<text text-anchor="middle" x="1264.5" y="-231.5" font-family="Helvetica,sans-Serif" font-size="10.00">kernels/tensor_operators.h</text>
</a>
</g>
</g>
<!-- Node1&#45;&gt;Node32 -->
<g id="edge44" class="edge"><title>Node1&#45;&gt;Node32</title>
<path fill="none" stroke="midnightblue" d="M848.012,-282.051C934.986,-272.225 1093.8,-254.284 1188.19,-243.621"/>
<polygon fill="midnightblue" stroke="midnightblue" points="1188.7,-247.086 1198.24,-242.486 1187.91,-240.13 1188.7,-247.086"/>
</g>
<!-- Node38 -->
<g id="node38" class="node"><title>Node38</title>
<g id="a_node38"><a xlink:href="../../dd/dde/marian_2src_2kernels_2thrust__functions_8h.html" target="_top" xlink:title="kernels/thrust_functions.h">
<polygon fill="white" stroke="black" points="1021,-224.5 1021,-243.5 1150,-243.5 1150,-224.5 1021,-224.5"/>
<text text-anchor="middle" x="1085.5" y="-231.5" font-family="Helvetica,sans-Serif" font-size="10.00">kernels/thrust_functions.h</text>
</a>
</g>
</g>
<!-- Node1&#45;&gt;Node38 -->
<g id="edge56" class="edge"><title>Node1&#45;&gt;Node38</title>
<path fill="none" stroke="midnightblue" d="M833.877,-280.444C886.584,-270.925 971.729,-255.547 1028.16,-245.356"/>
<polygon fill="midnightblue" stroke="midnightblue" points="1029.13,-248.738 1038.34,-243.516 1027.88,-241.849 1029.13,-248.738"/>
</g>
<!-- Node4 -->
<g id="node4" class="node"><title>Node4</title>
<polygon fill="white" stroke="#bfbfbf" points="976,-168.5 976,-187.5 1045,-187.5 1045,-168.5 976,-168.5"/>
<text text-anchor="middle" x="1010.5" y="-175.5" font-family="Helvetica,sans-Serif" font-size="10.00">cublas_v2.h</text>
</g>
<!-- Node3&#45;&gt;Node4 -->
<g id="edge3" class="edge"><title>Node3&#45;&gt;Node4</title>
<path fill="none" stroke="midnightblue" d="M821.993,-224.444C861.052,-215.028 923.891,-199.879 966.162,-189.689"/>
<polygon fill="midnightblue" stroke="midnightblue" points="967.007,-193.085 975.909,-187.339 965.367,-186.28 967.007,-193.085"/>
</g>
<!-- Node5 -->
<g id="node5" class="node"><title>Node5</title>
<polygon fill="white" stroke="#bfbfbf" points="1204.5,-56.5 1204.5,-75.5 1250.5,-75.5 1250.5,-56.5 1204.5,-56.5"/>
<text text-anchor="middle" x="1227.5" y="-63.5" font-family="Helvetica,sans-Serif" font-size="10.00">cuda.h</text>
</g>
<!-- Node3&#45;&gt;Node5 -->
<g id="edge4" class="edge"><title>Node3&#45;&gt;Node5</title>
<path fill="none" stroke="midnightblue" d="M818.394,-224.45C847.327,-216.314 890.921,-203.095 927.5,-188 945.507,-180.569 947.946,-173.935 966.5,-168 1071.74,-134.336 1131.25,-206.886 1212.5,-132 1225.12,-120.367 1228.16,-100.415 1228.47,-85.6772"/>
<polygon fill="midnightblue" stroke="midnightblue" points="1231.97,-85.5856 1228.3,-75.6474 1224.97,-85.7063 1231.97,-85.5856"/>
</g>
<!-- Node6 -->
<g id="node6" class="node"><title>Node6</title>
<polygon fill="white" stroke="#bfbfbf" points="759.5,-168.5 759.5,-187.5 813.5,-187.5 813.5,-168.5 759.5,-168.5"/>
<text text-anchor="middle" x="786.5" y="-175.5" font-family="Helvetica,sans-Serif" font-size="10.00">curand.h</text>
</g>
<!-- Node3&#45;&gt;Node6 -->
<g id="edge5" class="edge"><title>Node3&#45;&gt;Node6</title>
<path fill="none" stroke="midnightblue" d="M786.5,-224.083C786.5,-217.006 786.5,-206.861 786.5,-197.986"/>
<polygon fill="midnightblue" stroke="midnightblue" points="790,-197.751 786.5,-187.751 783,-197.751 790,-197.751"/>
</g>
<!-- Node7 -->
<g id="node7" class="node"><title>Node7</title>
<polygon fill="white" stroke="#bfbfbf" points="649.5,-168.5 649.5,-187.5 741.5,-187.5 741.5,-168.5 649.5,-168.5"/>
<text text-anchor="middle" x="695.5" y="-175.5" font-family="Helvetica,sans-Serif" font-size="10.00">common/config.h</text>
</g>
<!-- Node3&#45;&gt;Node7 -->
<g id="edge6" class="edge"><title>Node3&#45;&gt;Node7</title>
<path fill="none" stroke="midnightblue" d="M771.879,-224.324C757.551,-215.822 735.487,-202.729 718.751,-192.797"/>
<polygon fill="midnightblue" stroke="midnightblue" points="720.47,-189.748 710.084,-187.655 716.898,-195.768 720.47,-189.748"/>
</g>
<!-- Node8 -->
<g id="node8" class="node"><title>Node8</title>
<g id="a_node8"><a xlink:href="../../de/d34/backend_8h.html" target="_top" xlink:title="graph/backend.h">
<polygon fill="white" stroke="black" points="536,-168.5 536,-187.5 625,-187.5 625,-168.5 536,-168.5"/>
<text text-anchor="middle" x="580.5" y="-175.5" font-family="Helvetica,sans-Serif" font-size="10.00">graph/backend.h</text>
</a>
</g>
</g>
<!-- Node3&#45;&gt;Node8 -->
<g id="edge7" class="edge"><title>Node3&#45;&gt;Node8</title>
<path fill="none" stroke="midnightblue" d="M753.859,-224.444C718.45,-215.162 661.791,-200.309 622.947,-190.127"/>
<polygon fill="midnightblue" stroke="midnightblue" points="623.549,-186.667 612.989,-187.516 621.774,-193.438 623.549,-186.667"/>
</g>
<!-- Node9&#45;&gt;Node2 -->
<g id="edge11" class="edge"><title>Node9&#45;&gt;Node2</title>
<path fill="none" stroke="midnightblue" d="M378.941,-224.483C342.327,-215.454 282.829,-200.762 231.5,-188 230.234,-187.685 228.943,-187.364 227.639,-187.039"/>
<polygon fill="midnightblue" stroke="midnightblue" points="228.132,-183.555 217.582,-184.53 226.438,-190.347 228.132,-183.555"/>
</g>
<!-- Node9&#45;&gt;Node8 -->
<g id="edge18" class="edge"><title>Node9&#45;&gt;Node8</title>
<path fill="none" stroke="midnightblue" d="M439.962,-224.444C468.178,-215.32 513.04,-200.813 544.468,-190.651"/>
<polygon fill="midnightblue" stroke="midnightblue" points="545.724,-193.923 554.162,-187.516 543.57,-187.263 545.724,-193.923"/>
</g>
<!-- Node10 -->
<g id="node10" class="node"><title>Node10</title>
<polygon fill="white" stroke="#bfbfbf" points="842.5,-0.5 842.5,-19.5 896.5,-19.5 896.5,-0.5 842.5,-0.5"/>
<text text-anchor="middle" x="869.5" y="-7.5" font-family="Helvetica,sans-Serif" font-size="10.00">iostream</text>
</g>
<!-- Node9&#45;&gt;Node10 -->
<g id="edge9" class="edge"><title>Node9&#45;&gt;Node10</title>
<path fill="none" stroke="midnightblue" d="M400.495,-224.351C389.628,-216.331 374.775,-203.344 367.5,-188 341.126,-132.371 355.036,-84.704 409.5,-56 482.626,-17.4605 735.987,-11.8075 832.117,-11.0691"/>
<polygon fill="midnightblue" stroke="midnightblue" points="832.269,-14.5683 842.247,-11.0053 832.225,-7.56842 832.269,-14.5683"/>
</g>
<!-- Node11 -->
<g id="node11" class="node"><title>Node11</title>
<polygon fill="white" stroke="#bfbfbf" points="418.5,-56.5 418.5,-75.5 470.5,-75.5 470.5,-56.5 418.5,-56.5"/>
<text text-anchor="middle" x="444.5" y="-63.5" font-family="Helvetica,sans-Serif" font-size="10.00">memory</text>
</g>
<!-- Node9&#45;&gt;Node11 -->
<g id="edge10" class="edge"><title>Node9&#45;&gt;Node11</title>
<path fill="none" stroke="midnightblue" d="M405.759,-224.355C388.413,-203.883 349.604,-151.219 371.5,-112 379.656,-97.3909 394.72,-86.9362 409.054,-79.8038"/>
<polygon fill="midnightblue" stroke="midnightblue" points="410.646,-82.9244 418.289,-75.5863 407.738,-76.557 410.646,-82.9244"/>
</g>
<!-- Node12 -->
<g id="node12" class="node"><title>Node12</title>
<g id="a_node12"><a xlink:href="../../d2/db7/keywords_8h.html" target="_top" xlink:title="common/keywords.h">
<polygon fill="white" stroke="black" points="148,-56.5 148,-75.5 255,-75.5 255,-56.5 148,-56.5"/>
<text text-anchor="middle" x="201.5" y="-63.5" font-family="Helvetica,sans-Serif" font-size="10.00">common/keywords.h</text>
</a>
</g>
</g>
<!-- Node9&#45;&gt;Node12 -->
<g id="edge12" class="edge"><title>Node9&#45;&gt;Node12</title>
<path fill="none" stroke="midnightblue" d="M376.862,-224.818C339.931,-216.006 286.087,-201.437 269.5,-188 235.763,-160.671 215.831,-111.874 206.984,-85.3646"/>
<polygon fill="midnightblue" stroke="midnightblue" points="210.308,-84.2672 203.951,-75.7912 203.634,-86.3813 210.308,-84.2672"/>
</g>
<!-- Node18 -->
<g id="node18" class="node"><title>Node18</title>
<g id="a_node18"><a xlink:href="../../db/dcc/chainable_8h.html" target="_top" xlink:title="graph/chainable.h">
<polygon fill="white" stroke="black" points="412,-168.5 412,-187.5 505,-187.5 505,-168.5 412,-168.5"/>
<text text-anchor="middle" x="458.5" y="-175.5" font-family="Helvetica,sans-Serif" font-size="10.00">graph/chainable.h</text>
</a>
</g>
</g>
<!-- Node9&#45;&gt;Node18 -->
<g id="edge19" class="edge"><title>Node9&#45;&gt;Node18</title>
<path fill="none" stroke="midnightblue" d="M420.931,-224.083C427.353,-216.377 436.806,-205.033 444.622,-195.653"/>
<polygon fill="midnightblue" stroke="midnightblue" points="447.494,-197.674 451.207,-187.751 442.117,-193.193 447.494,-197.674"/>
</g>
<!-- Node28 -->
<g id="node28" class="node"><title>Node28</title>
<g id="a_node28"><a xlink:href="../../d2/d3d/tensor_8h.html" target="_top" xlink:title="tensors/tensor.h">
<polygon fill="white" stroke="black" points="832,-168.5 832,-187.5 919,-187.5 919,-168.5 832,-168.5"/>
<text text-anchor="middle" x="875.5" y="-175.5" font-family="Helvetica,sans-Serif" font-size="10.00">tensors/tensor.h</text>
</a>
</g>
</g>
<!-- Node9&#45;&gt;Node28 -->
<g id="edge35" class="edge"><title>Node9&#45;&gt;Node28</title>
<path fill="none" stroke="midnightblue" d="M450.252,-229.685C520.304,-223.209 677.984,-207.878 821.548,-188.054"/>
<polygon fill="midnightblue" stroke="midnightblue" points="822.437,-191.464 831.859,-186.619 821.472,-184.531 822.437,-191.464"/>
</g>
<!-- Node13 -->
<g id="node13" class="node"><title>Node13</title>
<polygon fill="white" stroke="#bfbfbf" points="275.5,-0.5 275.5,-19.5 353.5,-19.5 353.5,-0.5 275.5,-0.5"/>
<text text-anchor="middle" x="314.5" y="-7.5" font-family="Helvetica,sans-Serif" font-size="10.00">boost/any.hpp</text>
</g>
<!-- Node12&#45;&gt;Node13 -->
<g id="edge13" class="edge"><title>Node12&#45;&gt;Node13</title>
<path fill="none" stroke="midnightblue" d="M219.405,-56.4435C237.754,-47.6751 266.505,-33.9355 287.594,-23.8579"/>
<polygon fill="midnightblue" stroke="midnightblue" points="289.165,-26.9862 296.679,-19.5164 286.147,-20.6703 289.165,-26.9862"/>
</g>
<!-- Node14 -->
<g id="node14" class="node"><title>Node14</title>
<polygon fill="white" stroke="#bfbfbf" points="372,-0.5 372,-19.5 407,-19.5 407,-0.5 372,-0.5"/>
<text text-anchor="middle" x="389.5" y="-7.5" font-family="Helvetica,sans-Serif" font-size="10.00">map</text>
</g>
<!-- Node12&#45;&gt;Node14 -->
<g id="edge14" class="edge"><title>Node12&#45;&gt;Node14</title>
<path fill="none" stroke="midnightblue" d="M233.71,-56.4977C264.335,-48.3035 311.898,-35.2933 362.088,-20.0133"/>
<polygon fill="midnightblue" stroke="midnightblue" points="363.285,-23.3072 371.821,-17.0313 361.235,-16.6142 363.285,-23.3072"/>
</g>
<!-- Node15 -->
<g id="node15" class="node"><title>Node15</title>
<polygon fill="white" stroke="#bfbfbf" points="0,-0.5 0,-19.5 59,-19.5 59,-0.5 0,-0.5"/>
<text text-anchor="middle" x="29.5" y="-7.5" font-family="Helvetica,sans-Serif" font-size="10.00">typeindex</text>
</g>
<!-- Node12&#45;&gt;Node15 -->
<g id="edge15" class="edge"><title>Node12&#45;&gt;Node15</title>
<path fill="none" stroke="midnightblue" d="M174.246,-56.4435C145.059,-47.2801 98.5789,-32.6876 66.1907,-22.5192"/>
<polygon fill="midnightblue" stroke="midnightblue" points="67.2157,-19.1726 56.6264,-19.5164 65.1188,-25.8512 67.2157,-19.1726"/>
</g>
<!-- Node16 -->
<g id="node16" class="node"><title>Node16</title>
<polygon fill="white" stroke="#bfbfbf" points="77,-0.5 77,-19.5 128,-19.5 128,-0.5 77,-0.5"/>
<text text-anchor="middle" x="102.5" y="-7.5" font-family="Helvetica,sans-Serif" font-size="10.00">typeinfo</text>
</g>
<!-- Node12&#45;&gt;Node16 -->
<g id="edge16" class="edge"><title>Node12&#45;&gt;Node16</title>
<path fill="none" stroke="midnightblue" d="M185.594,-56.324C169.862,-47.7428 145.558,-34.486 127.291,-24.5224"/>
<polygon fill="midnightblue" stroke="midnightblue" points="128.822,-21.3704 118.367,-19.6545 125.47,-27.5157 128.822,-21.3704"/>
</g>
<!-- Node17 -->
<g id="node17" class="node"><title>Node17</title>
<g id="a_node17"><a xlink:href="../../d3/de0/compile__time__crc32_8h.html" target="_top" xlink:title="compile_time_crc32.h">
<polygon fill="white" stroke="black" points="145.5,-0.5 145.5,-19.5 257.5,-19.5 257.5,-0.5 145.5,-0.5"/>
<text text-anchor="middle" x="201.5" y="-7.5" font-family="Helvetica,sans-Serif" font-size="10.00">compile_time_crc32.h</text>
</a>
</g>
</g>
<!-- Node12&#45;&gt;Node17 -->
<g id="edge17" class="edge"><title>Node12&#45;&gt;Node17</title>
<path fill="none" stroke="midnightblue" d="M201.5,-56.083C201.5,-49.0059 201.5,-38.8611 201.5,-29.9865"/>
<polygon fill="midnightblue" stroke="midnightblue" points="205,-29.751 201.5,-19.7511 198,-29.7511 205,-29.751"/>
</g>
<!-- Node18&#45;&gt;Node11 -->
<g id="edge21" class="edge"><title>Node18&#45;&gt;Node11</title>
<path fill="none" stroke="midnightblue" d="M428.253,-168.488C410.375,-161.726 389.2,-150.295 378.5,-132 366.226,-111.014 391.463,-92.1469 414.189,-80.2144"/>
<polygon fill="midnightblue" stroke="midnightblue" points="415.924,-83.2612 423.335,-75.6898 412.82,-76.987 415.924,-83.2612"/>
</g>
<!-- Node19 -->
<g id="node19" class="node"><title>Node19</title>
<polygon fill="white" stroke="#bfbfbf" points="387.5,-112.5 387.5,-131.5 515.5,-131.5 515.5,-112.5 387.5,-112.5"/>
<text text-anchor="middle" x="451.5" y="-119.5" font-family="Helvetica,sans-Serif" font-size="10.00">boost/functional/hash.hpp</text>
</g>
<!-- Node18&#45;&gt;Node19 -->
<g id="edge20" class="edge"><title>Node18&#45;&gt;Node19</title>
<path fill="none" stroke="midnightblue" d="M457.344,-168.083C456.416,-160.927 455.082,-150.635 453.923,-141.691"/>
<polygon fill="midnightblue" stroke="midnightblue" points="457.391,-141.218 452.634,-131.751 450.449,-142.118 457.391,-141.218"/>
</g>
<!-- Node20 -->
<g id="node20" class="node"><title>Node20</title>
<polygon fill="white" stroke="#bfbfbf" points="547.5,-56.5 547.5,-75.5 591.5,-75.5 591.5,-56.5 547.5,-56.5"/>
<text text-anchor="middle" x="569.5" y="-63.5" font-family="Helvetica,sans-Serif" font-size="10.00">vector</text>
</g>
<!-- Node18&#45;&gt;Node20 -->
<g id="edge22" class="edge"><title>Node18&#45;&gt;Node20</title>
<path fill="none" stroke="midnightblue" d="M474.366,-168.428C488.539,-160.276 509.345,-147.048 524.5,-132 538.764,-117.837 551.435,-98.6059 559.668,-84.7405"/>
<polygon fill="midnightblue" stroke="midnightblue" points="562.891,-86.1564 564.837,-75.7418 556.821,-82.6695 562.891,-86.1564"/>
</g>
<!-- Node21 -->
<g id="node21" class="node"><title>Node21</title>
<polygon fill="white" stroke="#bfbfbf" points="571.5,-112.5 571.5,-131.5 681.5,-131.5 681.5,-112.5 571.5,-112.5"/>
<text text-anchor="middle" x="626.5" y="-119.5" font-family="Helvetica,sans-Serif" font-size="10.00">3rd_party/exception.h</text>
</g>
<!-- Node18&#45;&gt;Node21 -->
<g id="edge23" class="edge"><title>Node18&#45;&gt;Node21</title>
<path fill="none" stroke="midnightblue" d="M485.12,-168.444C513.506,-159.32 558.637,-144.813 590.253,-134.651"/>
<polygon fill="midnightblue" stroke="midnightblue" points="591.555,-137.909 600.004,-131.516 589.413,-131.244 591.555,-137.909"/>
</g>
<!-- Node22 -->
<g id="node22" class="node"><title>Node22</title>
<g id="a_node22"><a xlink:href="../../d6/dc2/definitions_8h.html" target="_top" xlink:title="common/definitions.h">
<polygon fill="white" stroke="black" points="737.5,-112.5 737.5,-131.5 847.5,-131.5 847.5,-112.5 737.5,-112.5"/>
<text text-anchor="middle" x="792.5" y="-119.5" font-family="Helvetica,sans-Serif" font-size="10.00">common/definitions.h</text>
</a>
</g>
</g>
<!-- Node18&#45;&gt;Node22 -->
<g id="edge24" class="edge"><title>Node18&#45;&gt;Node22</title>
<path fill="none" stroke="midnightblue" d="M505.293,-169.435C563.831,-159.97 664.289,-143.729 729.535,-133.18"/>
<polygon fill="midnightblue" stroke="midnightblue" points="730.379,-136.589 739.692,-131.538 729.262,-129.679 730.379,-136.589"/>
</g>
<!-- Node22&#45;&gt;Node11 -->
<g id="edge26" class="edge"><title>Node22&#45;&gt;Node11</title>
<path fill="none" stroke="midnightblue" d="M737.358,-112.444C665.433,-101.283 541.604,-82.0679 480.605,-72.6025"/>
<polygon fill="midnightblue" stroke="midnightblue" points="481.089,-69.1359 470.671,-71.061 480.016,-76.0531 481.089,-69.1359"/>
</g>
<!-- Node22&#45;&gt;Node12 -->
<g id="edge34" class="edge"><title>Node22&#45;&gt;Node12</title>
<path fill="none" stroke="midnightblue" d="M737.431,-115.968C627.697,-105.942 382.308,-83.5205 265.572,-72.8543"/>
<polygon fill="midnightblue" stroke="midnightblue" points="265.638,-69.3458 255.361,-71.9213 265.001,-76.3168 265.638,-69.3458"/>
</g>
<!-- Node22&#45;&gt;Node20 -->
<g id="edge28" class="edge"><title>Node22&#45;&gt;Node20</title>
<path fill="none" stroke="midnightblue" d="M757.165,-112.444C714.369,-102.08 642.897,-84.7732 601.607,-74.7747"/>
<polygon fill="midnightblue" stroke="midnightblue" points="602.338,-71.3508 591.795,-72.3989 600.691,-78.1541 602.338,-71.3508"/>
</g>
<!-- Node23 -->
<g id="node23" class="node"><title>Node23</title>
<polygon fill="white" stroke="#bfbfbf" points="636,-56.5 636,-75.5 695,-75.5 695,-56.5 636,-56.5"/>
<text text-anchor="middle" x="665.5" y="-63.5" font-family="Helvetica,sans-Serif" font-size="10.00">functional</text>
</g>
<!-- Node22&#45;&gt;Node23 -->
<g id="edge25" class="edge"><title>Node22&#45;&gt;Node23</title>
<path fill="none" stroke="midnightblue" d="M772.376,-112.444C751.476,-103.557 718.565,-89.5632 694.784,-79.4514"/>
<polygon fill="midnightblue" stroke="midnightblue" points="696.102,-76.2085 685.529,-75.5164 693.362,-82.6504 696.102,-76.2085"/>
</g>
<!-- Node24 -->
<g id="node24" class="node"><title>Node24</title>
<polygon fill="white" stroke="#bfbfbf" points="915,-0.5 915,-19.5 956,-19.5 956,-0.5 915,-0.5"/>
<text text-anchor="middle" x="935.5" y="-7.5" font-family="Helvetica,sans-Serif" font-size="10.00">string</text>
</g>
<!-- Node22&#45;&gt;Node24 -->
<g id="edge27" class="edge"><title>Node22&#45;&gt;Node24</title>
<path fill="none" stroke="midnightblue" d="M803.721,-112.368C828.051,-93.6531 885.904,-49.1509 916.218,-25.8324"/>
<polygon fill="midnightblue" stroke="midnightblue" points="918.539,-28.4628 924.331,-19.5914 914.271,-22.9144 918.539,-28.4628"/>
</g>
<!-- Node25 -->
<g id="node25" class="node"><title>Node25</title>
<polygon fill="white" stroke="#bfbfbf" points="713.5,-56.5 713.5,-75.5 809.5,-75.5 809.5,-56.5 713.5,-56.5"/>
<text text-anchor="middle" x="761.5" y="-63.5" font-family="Helvetica,sans-Serif" font-size="10.00">common/logging.h</text>
</g>
<!-- Node22&#45;&gt;Node25 -->
<g id="edge29" class="edge"><title>Node22&#45;&gt;Node25</title>
<path fill="none" stroke="midnightblue" d="M787.381,-112.083C783.092,-104.613 776.842,-93.7244 771.558,-84.5199"/>
<polygon fill="midnightblue" stroke="midnightblue" points="774.538,-82.6811 766.524,-75.7511 768.467,-86.1662 774.538,-82.6811"/>
</g>
<!-- Node26 -->
<g id="node26" class="node"><title>Node26</title>
<g id="a_node26"><a xlink:href="../../da/d18/shape_8h.html" target="_top" xlink:title="shape.h">
<polygon fill="white" stroke="black" points="907,-56.5 907,-75.5 958,-75.5 958,-56.5 907,-56.5"/>
<text text-anchor="middle" x="932.5" y="-63.5" font-family="Helvetica,sans-Serif" font-size="10.00">shape.h</text>
</a>
</g>
</g>
<!-- Node22&#45;&gt;Node26 -->
<g id="edge30" class="edge"><title>Node22&#45;&gt;Node26</title>
<path fill="none" stroke="midnightblue" d="M814.683,-112.444C837.928,-103.478 874.649,-89.314 900.915,-79.1827"/>
<polygon fill="midnightblue" stroke="midnightblue" points="902.35,-82.3807 910.42,-75.5164 899.831,-75.8497 902.35,-82.3807"/>
</g>
<!-- Node26&#45;&gt;Node10 -->
<g id="edge32" class="edge"><title>Node26&#45;&gt;Node10</title>
<path fill="none" stroke="midnightblue" d="M922.378,-56.324C912.974,-48.2631 898.756,-36.0765 887.431,-26.3695"/>
<polygon fill="midnightblue" stroke="midnightblue" points="889.677,-23.6844 879.806,-19.8339 885.121,-28.9993 889.677,-23.6844"/>
</g>
<!-- Node26&#45;&gt;Node24 -->
<g id="edge33" class="edge"><title>Node26&#45;&gt;Node24</title>
<path fill="none" stroke="midnightblue" d="M932.995,-56.083C933.389,-49.0059 933.952,-38.8611 934.445,-29.9865"/>
<polygon fill="midnightblue" stroke="midnightblue" points="937.954,-29.9299 935.014,-19.7511 930.964,-29.5415 937.954,-29.9299"/>
</g>
<!-- Node27 -->
<g id="node27" class="node"><title>Node27</title>
<polygon fill="white" stroke="#bfbfbf" points="1133.5,-0.5 1133.5,-19.5 1179.5,-19.5 1179.5,-0.5 1133.5,-0.5"/>
<text text-anchor="middle" x="1156.5" y="-7.5" font-family="Helvetica,sans-Serif" font-size="10.00">cstdint</text>
</g>
<!-- Node26&#45;&gt;Node27 -->
<g id="edge31" class="edge"><title>Node26&#45;&gt;Node27</title>
<path fill="none" stroke="midnightblue" d="M958.196,-58.8055C999.028,-48.9619 1078.69,-29.7569 1123.63,-18.9248"/>
<polygon fill="midnightblue" stroke="midnightblue" points="1124.56,-22.3005 1133.46,-16.5543 1122.92,-15.4954 1124.56,-22.3005"/>
</g>
<!-- Node28&#45;&gt;Node10 -->
<g id="edge37" class="edge"><title>Node28&#45;&gt;Node10</title>
<path fill="none" stroke="midnightblue" d="M875.177,-168.075C874.233,-141.945 871.459,-65.2106 870.171,-29.577"/>
<polygon fill="midnightblue" stroke="midnightblue" points="873.669,-29.4351 869.81,-19.5681 866.673,-29.688 873.669,-29.4351"/>
</g>
<!-- Node28&#45;&gt;Node11 -->
<g id="edge38" class="edge"><title>Node28&#45;&gt;Node11</title>
<path fill="none" stroke="midnightblue" d="M841.299,-168.483C811.095,-160.505 766.134,-147.503 728.5,-132 710.853,-124.73 708.539,-118.233 690.5,-112 618.435,-87.098 529.478,-75.1848 480.717,-70.1585"/>
<polygon fill="midnightblue" stroke="midnightblue" points="480.952,-66.6647 470.655,-69.1609 480.261,-73.6306 480.952,-66.6647"/>
</g>
<!-- Node28&#45;&gt;Node21 -->
<g id="edge40" class="edge"><title>Node28&#45;&gt;Node21</title>
<path fill="none" stroke="midnightblue" d="M836.045,-168.444C792.608,-159.023 722.714,-143.866 675.724,-133.675"/>
<polygon fill="midnightblue" stroke="midnightblue" points="676.285,-130.215 665.77,-131.516 674.801,-137.056 676.285,-130.215"/>
</g>
<!-- Node28&#45;&gt;Node22 -->
<g id="edge41" class="edge"><title>Node28&#45;&gt;Node22</title>
<path fill="none" stroke="midnightblue" d="M862.165,-168.324C849.338,-159.979 829.715,-147.212 814.56,-137.352"/>
<polygon fill="midnightblue" stroke="midnightblue" points="816.093,-134.174 805.802,-131.655 812.276,-140.042 816.093,-134.174"/>
</g>
<!-- Node28&#45;&gt;Node26 -->
<g id="edge42" class="edge"><title>Node28&#45;&gt;Node26</title>
<path fill="none" stroke="midnightblue" d="M879.973,-168.368C889.296,-150.376 910.969,-108.55 923.366,-84.6267"/>
<polygon fill="midnightblue" stroke="midnightblue" points="926.555,-86.0805 928.048,-75.5914 920.34,-82.8599 926.555,-86.0805"/>
</g>
<!-- Node29 -->
<g id="node29" class="node"><title>Node29</title>
<polygon fill="white" stroke="#bfbfbf" points="1153.5,-112.5 1153.5,-131.5 1203.5,-131.5 1203.5,-112.5 1153.5,-112.5"/>
<text text-anchor="middle" x="1178.5" y="-119.5" font-family="Helvetica,sans-Serif" font-size="10.00">iomanip</text>
</g>
<!-- Node28&#45;&gt;Node29 -->
<g id="edge36" class="edge"><title>Node28&#45;&gt;Node29</title>
<path fill="none" stroke="midnightblue" d="M919.111,-170.211C979.942,-160.66 1088.17,-143.353 1143.33,-132.053"/>
<polygon fill="midnightblue" stroke="midnightblue" points="1144.25,-135.437 1153.31,-129.947 1142.8,-128.588 1144.25,-135.437"/>
</g>
<!-- Node30 -->
<g id="node30" class="node"><title>Node30</title>
<polygon fill="white" stroke="#bfbfbf" points="941.5,-112.5 941.5,-131.5 993.5,-131.5 993.5,-112.5 941.5,-112.5"/>
<text text-anchor="middle" x="967.5" y="-119.5" font-family="Helvetica,sans-Serif" font-size="10.00">sstream</text>
</g>
<!-- Node28&#45;&gt;Node30 -->
<g id="edge39" class="edge"><title>Node28&#45;&gt;Node30</title>
<path fill="none" stroke="midnightblue" d="M890.281,-168.324C904.767,-159.822 927.073,-146.729 943.993,-136.797"/>
<polygon fill="midnightblue" stroke="midnightblue" points="945.903,-139.735 952.755,-131.655 942.359,-133.698 945.903,-139.735"/>
</g>
<!-- Node31 -->
<g id="node31" class="node"><title>Node31</title>
<g id="a_node31"><a xlink:href="../../d5/d0b/memory__piece_8h.html" target="_top" xlink:title="tensors/memory_piece.h">
<polygon fill="white" stroke="black" points="1011.5,-112.5 1011.5,-131.5 1135.5,-131.5 1135.5,-112.5 1011.5,-112.5"/>
<text text-anchor="middle" x="1073.5" y="-119.5" font-family="Helvetica,sans-Serif" font-size="10.00">tensors/memory_piece.h</text>
</a>
</g>
</g>
<!-- Node28&#45;&gt;Node31 -->
<g id="edge43" class="edge"><title>Node28&#45;&gt;Node31</title>
<path fill="none" stroke="midnightblue" d="M906.874,-168.444C940.763,-159.201 994.903,-144.436 1032.22,-134.257"/>
<polygon fill="midnightblue" stroke="midnightblue" points="1033.55,-137.524 1042.27,-131.516 1031.7,-130.771 1033.55,-137.524"/>
</g>
<!-- Node32&#45;&gt;Node4 -->
<g id="edge45" class="edge"><title>Node32&#45;&gt;Node4</title>
<path fill="none" stroke="midnightblue" d="M1224.25,-224.444C1178.25,-214.663 1103.15,-198.698 1055.32,-188.529"/>
<polygon fill="midnightblue" stroke="midnightblue" points="1055.76,-185.045 1045.25,-186.388 1054.31,-191.891 1055.76,-185.045"/>
</g>
<!-- Node32&#45;&gt;Node28 -->
<g id="edge55" class="edge"><title>Node32&#45;&gt;Node28</title>
<path fill="none" stroke="midnightblue" d="M1202.86,-224.444C1127.41,-213.97 1000.87,-196.404 929.224,-186.458"/>
<polygon fill="midnightblue" stroke="midnightblue" points="929.45,-182.956 919.064,-185.047 928.487,-189.889 929.45,-182.956"/>
</g>
<!-- Node33 -->
<g id="node33" class="node"><title>Node33</title>
<polygon fill="white" stroke="#bfbfbf" points="1239,-168.5 1239,-187.5 1352,-187.5 1352,-168.5 1239,-168.5"/>
<text text-anchor="middle" x="1295.5" y="-175.5" font-family="Helvetica,sans-Serif" font-size="10.00">thrust/device_vector.h</text>
</g>
<!-- Node32&#45;&gt;Node33 -->
<g id="edge46" class="edge"><title>Node32&#45;&gt;Node33</title>
<path fill="none" stroke="midnightblue" d="M1269.62,-224.083C1273.91,-216.613 1280.16,-205.724 1285.44,-196.52"/>
<polygon fill="midnightblue" stroke="midnightblue" points="1288.53,-198.166 1290.48,-187.751 1282.46,-194.681 1288.53,-198.166"/>
</g>
<!-- Node34 -->
<g id="node34" class="node"><title>Node34</title>
<polygon fill="white" stroke="#bfbfbf" points="1126,-168.5 1126,-187.5 1221,-187.5 1221,-168.5 1126,-168.5"/>
<text text-anchor="middle" x="1173.5" y="-175.5" font-family="Helvetica,sans-Serif" font-size="10.00">thrust/functional.h</text>
</g>
<!-- Node32&#45;&gt;Node34 -->
<g id="edge47" class="edge"><title>Node32&#45;&gt;Node34</title>
<path fill="none" stroke="midnightblue" d="M1249.88,-224.324C1235.55,-215.822 1213.49,-202.729 1196.75,-192.797"/>
<polygon fill="midnightblue" stroke="midnightblue" points="1198.47,-189.748 1188.08,-187.655 1194.9,-195.768 1198.47,-189.748"/>
</g>
<!-- Node35 -->
<g id="node35" class="node"><title>Node35</title>
<polygon fill="white" stroke="#bfbfbf" points="1408.5,-168.5 1408.5,-187.5 1512.5,-187.5 1512.5,-168.5 1408.5,-168.5"/>
<text text-anchor="middle" x="1460.5" y="-175.5" font-family="Helvetica,sans-Serif" font-size="10.00">thrust/host_vector.h</text>
</g>
<!-- Node32&#45;&gt;Node35 -->
<g id="edge48" class="edge"><title>Node32&#45;&gt;Node35</title>
<path fill="none" stroke="midnightblue" d="M1295.56,-224.444C1329.1,-215.201 1382.7,-200.436 1419.64,-190.257"/>
<polygon fill="midnightblue" stroke="midnightblue" points="1420.88,-193.547 1429.59,-187.516 1419.02,-186.798 1420.88,-193.547"/>
</g>
<!-- Node36 -->
<g id="node36" class="node"><title>Node36</title>
<polygon fill="white" stroke="#bfbfbf" points="1530.5,-168.5 1530.5,-187.5 1598.5,-187.5 1598.5,-168.5 1530.5,-168.5"/>
<text text-anchor="middle" x="1564.5" y="-175.5" font-family="Helvetica,sans-Serif" font-size="10.00">thrust/pair.h</text>
</g>
<!-- Node32&#45;&gt;Node36 -->
<g id="edge49" class="edge"><title>Node32&#45;&gt;Node36</title>
<path fill="none" stroke="midnightblue" d="M1316.28,-224.449C1366.01,-216.12 1443.53,-202.836 1519.97,-188.247"/>
<polygon fill="midnightblue" stroke="midnightblue" points="1521.09,-191.595 1530.25,-186.274 1519.77,-184.72 1521.09,-191.595"/>
</g>
<!-- Node37 -->
<g id="node37" class="node"><title>Node37</title>
<g id="a_node37"><a xlink:href="../../d6/d29/shape__gpu_8h.html" target="_top" xlink:title="kernels/shape_gpu.h">
<polygon fill="white" stroke="black" points="1260,-112.5 1260,-131.5 1367,-131.5 1367,-112.5 1260,-112.5"/>
<text text-anchor="middle" x="1313.5" y="-119.5" font-family="Helvetica,sans-Serif" font-size="10.00">kernels/shape_gpu.h</text>
</a>
</g>
</g>
<!-- Node32&#45;&gt;Node37 -->
<g id="edge50" class="edge"><title>Node32&#45;&gt;Node37</title>
<path fill="none" stroke="midnightblue" d="M1306.89,-224.451C1327.08,-218.022 1349.41,-206.933 1361.5,-188 1373.05,-169.913 1353.66,-150.233 1336.18,-137.322"/>
<polygon fill="midnightblue" stroke="midnightblue" points="1338.1,-134.398 1327.9,-131.564 1334.11,-140.146 1338.1,-134.398"/>
</g>
<!-- Node37&#45;&gt;Node5 -->
<g id="edge53" class="edge"><title>Node37&#45;&gt;Node5</title>
<path fill="none" stroke="midnightblue" d="M1299.68,-112.324C1286.27,-103.9 1265.68,-90.9709 1249.91,-81.0741"/>
<polygon fill="midnightblue" stroke="midnightblue" points="1251.61,-78.0081 1241.28,-75.6545 1247.89,-83.9364 1251.61,-78.0081"/>
</g>
<!-- Node37&#45;&gt;Node24 -->
<g id="edge52" class="edge"><title>Node37&#45;&gt;Node24</title>
<path fill="none" stroke="midnightblue" d="M1308.94,-112.054C1301.05,-97.5693 1283.34,-69.2687 1259.5,-56 1209.47,-28.1585 1037.23,-16.2574 966.346,-12.459"/>
<polygon fill="midnightblue" stroke="midnightblue" points="966.43,-8.9587 956.262,-11.937 966.068,-15.9493 966.43,-8.9587"/>
</g>
<!-- Node37&#45;&gt;Node26 -->
<g id="edge54" class="edge"><title>Node37&#45;&gt;Node26</title>
<path fill="none" stroke="midnightblue" d="M1259.72,-113.378C1180.67,-102.174 1035.23,-81.5605 968.134,-72.0505"/>
<polygon fill="midnightblue" stroke="midnightblue" points="968.452,-68.5607 958.06,-70.6227 967.47,-75.4914 968.452,-68.5607"/>
</g>
<!-- Node37&#45;&gt;Node27 -->
<g id="edge51" class="edge"><title>Node37&#45;&gt;Node27</title>
<path fill="none" stroke="midnightblue" d="M1313.1,-112.142C1312,-98.2888 1307.88,-71.4838 1292.5,-56 1265.07,-28.3738 1220.33,-17.7075 1189.71,-13.5895"/>
<polygon fill="midnightblue" stroke="midnightblue" points="1189.86,-10.083 1179.52,-12.3889 1189.04,-17.0349 1189.86,-10.083"/>
</g>
<!-- Node38&#45;&gt;Node4 -->
<g id="edge57" class="edge"><title>Node38&#45;&gt;Node4</title>
<path fill="none" stroke="midnightblue" d="M1073.45,-224.324C1062.04,-216.107 1044.67,-203.602 1031.07,-193.807"/>
<polygon fill="midnightblue" stroke="midnightblue" points="1032.93,-190.837 1022.77,-187.834 1028.84,-196.517 1032.93,-190.837"/>
</g>
<!-- Node38&#45;&gt;Node33 -->
<g id="edge58" class="edge"><title>Node38&#45;&gt;Node33</title>
<path fill="none" stroke="midnightblue" d="M1118.78,-224.444C1154.95,-215.142 1212.88,-200.246 1252.48,-190.062"/>
<polygon fill="midnightblue" stroke="midnightblue" points="1253.57,-193.397 1262.38,-187.516 1251.82,-186.617 1253.57,-193.397"/>
</g>
<!-- Node38&#45;&gt;Node34 -->
<g id="edge59" class="edge"><title>Node38&#45;&gt;Node34</title>
<path fill="none" stroke="midnightblue" d="M1099.64,-224.324C1113.37,-215.9 1134.44,-202.971 1150.56,-193.074"/>
<polygon fill="midnightblue" stroke="midnightblue" points="1152.7,-195.868 1159.4,-187.655 1149.04,-189.902 1152.7,-195.868"/>
</g>
<!-- Node39 -->
<g id="node39" class="node"><title>Node39</title>
<polygon fill="white" stroke="#bfbfbf" points="1063.5,-168.5 1063.5,-187.5 1107.5,-187.5 1107.5,-168.5 1063.5,-168.5"/>
<text text-anchor="middle" x="1085.5" y="-175.5" font-family="Helvetica,sans-Serif" font-size="10.00">cmath</text>
</g>
<!-- Node38&#45;&gt;Node39 -->
<g id="edge60" class="edge"><title>Node38&#45;&gt;Node39</title>
<path fill="none" stroke="midnightblue" d="M1085.5,-224.083C1085.5,-217.006 1085.5,-206.861 1085.5,-197.986"/>
<polygon fill="midnightblue" stroke="midnightblue" points="1089,-197.751 1085.5,-187.751 1082,-197.751 1089,-197.751"/>
</g>
</g>
</svg>
        <g id="navigator" transform="translate(0 0)" fill="#404254">
                <rect fill="#f2f5e9" fill-opacity="0.5" stroke="#606060" stroke-width=".5" x="0" y="0" width="60" height="60"/>
                <use id="zoomplus" xlink:href="#zoomPlus" x="17" y="9" onmousedown="handleZoom(evt,'in')"/>
                <use id="zoomminus" xlink:href="#zoomMin" x="42" y="9" onmousedown="handleZoom(evt,'out')"/>
                <use id="reset" xlink:href="#resetDef" x="30" y="36" onmousedown="handleReset()"/>
                <g id="arrowUp" xlink:href="#dirArrow" transform="translate(30 24)" onmousedown="handlePan(0,-1)">
                  <use xlink:href="#rim" fill="#404040">
                        <set attributeName="fill" to="#808080" begin="arrowUp.mouseover" end="arrowUp.mouseout"/>
                  </use>
                  <path fill="none" stroke="white" stroke-width="1.5" d="M0,-3.0v7 M-2.5,-0.5L0,-3.0L2.5,-0.5"/>
                </g>
                <g id="arrowRight" xlink:href="#dirArrow" transform="rotate(90) translate(36 -43)" onmousedown="handlePan(1,0)">
                  <use xlink:href="#rim" fill="#404040">
                        <set attributeName="fill" to="#808080" begin="arrowRight.mouseover" end="arrowRight.mouseout"/>
                  </use>
                  <path fill="none" stroke="white" stroke-width="1.5" d="M0,-3.0v7 M-2.5,-0.5L0,-3.0L2.5,-0.5"/>
                </g>
                <g id="arrowDown" xlink:href="#dirArrow" transform="rotate(180) translate(-30 -48)" onmousedown="handlePan(0,1)">
                  <use xlink:href="#rim" fill="#404040">
                        <set attributeName="fill" to="#808080" begin="arrowDown.mouseover" end="arrowDown.mouseout"/>
                  </use>
                  <path fill="none" stroke="white" stroke-width="1.5" d="M0,-3.0v7 M-2.5,-0.5L0,-3.0L2.5,-0.5"/>
                </g>
                <g id="arrowLeft" xlink:href="#dirArrow" transform="rotate(270) translate(-36 17)" onmousedown="handlePan(-1,0)">
                  <use xlink:href="#rim" fill="#404040">
                        <set attributeName="fill" to="#808080" begin="arrowLeft.mouseover" end="arrowLeft.mouseout"/>
                  </use>
                  <path fill="none" stroke="white" stroke-width="1.5" d="M0,-3.0v7 M-2.5,-0.5L0,-3.0L2.5,-0.5"/>
                </g>
        </g>
        <svg viewBox="0 0 15 15" width="100%" height="30px" preserveAspectRatio="xMaxYMin meet">
         <g id="arrow_out" transform="scale(0.3 0.3)">
          <a xlink:href="node__operators__binary_8h__incl_org.svg" target="_base">
           <rect id="button" ry="5" rx="5" y="6" x="6" height="38" width="38"
                fill="#f2f5e9" fill-opacity="0.5" stroke="#606060" stroke-width="1.0"/>
           <path id="arrow"
             d="M 11.500037,31.436501 C 11.940474,20.09759 22.043105,11.32322 32.158766,21.979434 L 37.068811,17.246167 C 37.068811,17.246167 37.088388,32 37.088388,32 L 22.160133,31.978069 C 22.160133,31.978069 26.997745,27.140456 26.997745,27.140456 C 18.528582,18.264221 13.291696,25.230495 11.500037,31.436501 z"
             style="fill:#404040;"/>
          </a>
         </g>
        </svg>
</svg>
