<?xml version="1.0" encoding="UTF-8" standalone="no"?>
<!DOCTYPE svg PUBLIC "-//W3C//DTD SVG 1.1//EN"
 "http://www.w3.org/Graphics/SVG/1.1/DTD/svg11.dtd">
<!-- Generated by graphviz version 2.38.0 (20140413.2041)
 -->
<!-- Title: node_operators.h Pages: 1 -->
<svg width="1099pt" height="308pt"
 viewBox="0.00 0.00 1098.50 308.00" xmlns="http://www.w3.org/2000/svg" xmlns:xlink="http://www.w3.org/1999/xlink">
<g id="graph0" class="graph" transform="scale(1 1) rotate(0) translate(4 304)">
<title>node_operators.h</title>
<polygon fill="white" stroke="none" points="-4,4 -4,-304 1094.5,-304 1094.5,4 -4,4"/>
<!-- Node1 -->
<g id="node1" class="node"><title>Node1</title>
<polygon fill="#bfbfbf" stroke="black" points="344,-280.5 344,-299.5 436,-299.5 436,-280.5 344,-280.5"/>
<text text-anchor="middle" x="390" y="-287.5" font-family="Helvetica,sans-Serif" font-size="10.00">node_operators.h</text>
</g>
<!-- Node2 -->
<g id="node2" class="node"><title>Node2</title>
<g id="a_node2"><a xlink:href="../../d1/d77/node_8h.html" target="_top" xlink:title="graph/node.h">
<polygon fill="white" stroke="black" points="425.5,-224.5 425.5,-243.5 498.5,-243.5 498.5,-224.5 425.5,-224.5"/>
<text text-anchor="middle" x="462" y="-231.5" font-family="Helvetica,sans-Serif" font-size="10.00">graph/node.h</text>
</a>
</g>
</g>
<!-- Node1&#45;&gt;Node2 -->
<g id="edge1" class="edge"><title>Node1&#45;&gt;Node2</title>
<path fill="none" stroke="midnightblue" d="M401.568,-280.324C412.42,-272.185 428.881,-259.839 441.883,-250.087"/>
<polygon fill="midnightblue" stroke="midnightblue" points="444.321,-252.634 450.221,-243.834 440.121,-247.034 444.321,-252.634"/>
</g>
<!-- Node23 -->
<g id="node23" class="node"><title>Node23</title>
<g id="a_node23"><a xlink:href="../../d2/d3d/tensor_8h.html" target="_top" xlink:title="tensors/tensor.h">
<polygon fill="white" stroke="black" points="303.5,-168.5 303.5,-187.5 390.5,-187.5 390.5,-168.5 303.5,-168.5"/>
<text text-anchor="middle" x="347" y="-175.5" font-family="Helvetica,sans-Serif" font-size="10.00">tensors/tensor.h</text>
</a>
</g>
</g>
<!-- Node1&#45;&gt;Node23 -->
<g id="edge37" class="edge"><title>Node1&#45;&gt;Node23</title>
<path fill="none" stroke="midnightblue" d="M386.626,-280.368C379.624,-262.456 363.388,-220.923 354.016,-196.948"/>
<polygon fill="midnightblue" stroke="midnightblue" points="357.259,-195.631 350.358,-187.591 350.74,-198.179 357.259,-195.631"/>
</g>
<!-- Node3 -->
<g id="node3" class="node"><title>Node3</title>
<polygon fill="white" stroke="#bfbfbf" points="0,-0.5 0,-19.5 54,-19.5 54,-0.5 0,-0.5"/>
<text text-anchor="middle" x="27" y="-7.5" font-family="Helvetica,sans-Serif" font-size="10.00">iostream</text>
</g>
<!-- Node2&#45;&gt;Node3 -->
<g id="edge2" class="edge"><title>Node2&#45;&gt;Node3</title>
<path fill="none" stroke="midnightblue" d="M425.162,-229.547C330.755,-219.929 83.7266,-189.675 29,-132 2.94385,-104.54 12.5742,-55.7959 20.5649,-29.33"/>
<polygon fill="midnightblue" stroke="midnightblue" points="23.9085,-30.3657 23.6767,-19.7734 17.2524,-28.1984 23.9085,-30.3657"/>
</g>
<!-- Node4 -->
<g id="node4" class="node"><title>Node4</title>
<polygon fill="white" stroke="#bfbfbf" points="404,-56.5 404,-75.5 456,-75.5 456,-56.5 404,-56.5"/>
<text text-anchor="middle" x="430" y="-63.5" font-family="Helvetica,sans-Serif" font-size="10.00">memory</text>
</g>
<!-- Node2&#45;&gt;Node4 -->
<g id="edge3" class="edge"><title>Node2&#45;&gt;Node4</title>
<path fill="none" stroke="midnightblue" d="M459.936,-224.39C455.809,-206.999 446.388,-166.407 440,-132 437.131,-116.545 434.456,-98.9146 432.595,-85.9179"/>
<polygon fill="midnightblue" stroke="midnightblue" points="436.04,-85.2782 431.186,-75.8606 429.108,-86.2496 436.04,-85.2782"/>
</g>
<!-- Node5 -->
<g id="node5" class="node"><title>Node5</title>
<polygon fill="white" stroke="#bfbfbf" points="609,-168.5 609,-187.5 653,-187.5 653,-168.5 609,-168.5"/>
<text text-anchor="middle" x="631" y="-175.5" font-family="Helvetica,sans-Serif" font-size="10.00">thread</text>
</g>
<!-- Node2&#45;&gt;Node5 -->
<g id="edge4" class="edge"><title>Node2&#45;&gt;Node5</title>
<path fill="none" stroke="midnightblue" d="M488.779,-224.444C518.761,-214.863 567.315,-199.349 599.202,-189.16"/>
<polygon fill="midnightblue" stroke="midnightblue" points="600.464,-192.431 608.924,-186.054 598.334,-185.764 600.464,-192.431"/>
</g>
<!-- Node6 -->
<g id="node6" class="node"><title>Node6</title>
<g id="a_node6"><a xlink:href="../../d2/db7/keywords_8h.html" target="_top" xlink:title="common/keywords.h">
<polygon fill="white" stroke="black" points="867.5,-56.5 867.5,-75.5 974.5,-75.5 974.5,-56.5 867.5,-56.5"/>
<text text-anchor="middle" x="921" y="-63.5" font-family="Helvetica,sans-Serif" font-size="10.00">common/keywords.h</text>
</a>
</g>
</g>
<!-- Node2&#45;&gt;Node6 -->
<g id="edge5" class="edge"><title>Node2&#45;&gt;Node6</title>
<path fill="none" stroke="midnightblue" d="M498.927,-230.718C557.108,-226.425 673.244,-215.02 768,-188 828.106,-170.86 854.055,-177.413 897,-132 909,-119.31 915.108,-100.107 918.148,-85.8603"/>
<polygon fill="midnightblue" stroke="midnightblue" points="921.647,-86.1794 919.981,-75.7163 914.758,-84.9342 921.647,-86.1794"/>
</g>
<!-- Node12 -->
<g id="node12" class="node"><title>Node12</title>
<g id="a_node12"><a xlink:href="../../de/d34/backend_8h.html" target="_top" xlink:title="graph/backend.h">
<polygon fill="white" stroke="black" points="670.5,-168.5 670.5,-187.5 759.5,-187.5 759.5,-168.5 670.5,-168.5"/>
<text text-anchor="middle" x="715" y="-175.5" font-family="Helvetica,sans-Serif" font-size="10.00">graph/backend.h</text>
</a>
</g>
</g>
<!-- Node2&#45;&gt;Node12 -->
<g id="edge11" class="edge"><title>Node2&#45;&gt;Node12</title>
<path fill="none" stroke="midnightblue" d="M498.518,-225.206C542.338,-215.853 616.026,-200.125 665.08,-189.655"/>
<polygon fill="midnightblue" stroke="midnightblue" points="666.105,-193.015 675.154,-187.505 664.644,-186.169 666.105,-193.015"/>
</g>
<!-- Node13 -->
<g id="node13" class="node"><title>Node13</title>
<g id="a_node13"><a xlink:href="../../db/dcc/chainable_8h.html" target="_top" xlink:title="graph/chainable.h">
<polygon fill="white" stroke="black" points="498.5,-168.5 498.5,-187.5 591.5,-187.5 591.5,-168.5 498.5,-168.5"/>
<text text-anchor="middle" x="545" y="-175.5" font-family="Helvetica,sans-Serif" font-size="10.00">graph/chainable.h</text>
</a>
</g>
</g>
<!-- Node2&#45;&gt;Node13 -->
<g id="edge12" class="edge"><title>Node2&#45;&gt;Node13</title>
<path fill="none" stroke="midnightblue" d="M475.335,-224.324C488.162,-215.979 507.785,-203.212 522.94,-193.352"/>
<polygon fill="midnightblue" stroke="midnightblue" points="525.224,-196.042 531.698,-187.655 521.407,-190.174 525.224,-196.042"/>
</g>
<!-- Node2&#45;&gt;Node23 -->
<g id="edge28" class="edge"><title>Node2&#45;&gt;Node23</title>
<path fill="none" stroke="midnightblue" d="M443.778,-224.444C425.104,-215.675 395.844,-201.935 374.383,-191.858"/>
<polygon fill="midnightblue" stroke="midnightblue" points="375.676,-188.599 365.137,-187.516 372.701,-194.935 375.676,-188.599"/>
</g>
<!-- Node7 -->
<g id="node7" class="node"><title>Node7</title>
<polygon fill="white" stroke="#bfbfbf" points="882,-0.5 882,-19.5 960,-19.5 960,-0.5 882,-0.5"/>
<text text-anchor="middle" x="921" y="-7.5" font-family="Helvetica,sans-Serif" font-size="10.00">boost/any.hpp</text>
</g>
<!-- Node6&#45;&gt;Node7 -->
<g id="edge6" class="edge"><title>Node6&#45;&gt;Node7</title>
<path fill="none" stroke="midnightblue" d="M921,-56.083C921,-49.0059 921,-38.8611 921,-29.9865"/>
<polygon fill="midnightblue" stroke="midnightblue" points="924.5,-29.751 921,-19.7511 917.5,-29.7511 924.5,-29.751"/>
</g>
<!-- Node8 -->
<g id="node8" class="node"><title>Node8</title>
<polygon fill="white" stroke="#bfbfbf" points="978.5,-0.5 978.5,-19.5 1013.5,-19.5 1013.5,-0.5 978.5,-0.5"/>
<text text-anchor="middle" x="996" y="-7.5" font-family="Helvetica,sans-Serif" font-size="10.00">map</text>
</g>
<!-- Node6&#45;&gt;Node8 -->
<g id="edge7" class="edge"><title>Node6&#45;&gt;Node8</title>
<path fill="none" stroke="midnightblue" d="M933.05,-56.324C944.463,-48.1066 961.831,-35.6017 975.435,-25.8069"/>
<polygon fill="midnightblue" stroke="midnightblue" points="977.66,-28.5174 983.731,-19.8339 973.57,-22.8366 977.66,-28.5174"/>
</g>
<!-- Node9 -->
<g id="node9" class="node"><title>Node9</title>
<polygon fill="white" stroke="#bfbfbf" points="1031.5,-0.5 1031.5,-19.5 1090.5,-19.5 1090.5,-0.5 1031.5,-0.5"/>
<text text-anchor="middle" x="1061" y="-7.5" font-family="Helvetica,sans-Serif" font-size="10.00">typeindex</text>
</g>
<!-- Node6&#45;&gt;Node9 -->
<g id="edge8" class="edge"><title>Node6&#45;&gt;Node9</title>
<path fill="none" stroke="midnightblue" d="M943.183,-56.4435C966.428,-47.4776 1003.15,-33.314 1029.42,-23.1827"/>
<polygon fill="midnightblue" stroke="midnightblue" points="1030.85,-26.3807 1038.92,-19.5164 1028.33,-19.8497 1030.85,-26.3807"/>
</g>
<!-- Node10 -->
<g id="node10" class="node"><title>Node10</title>
<polygon fill="white" stroke="#bfbfbf" points="683.5,-0.5 683.5,-19.5 734.5,-19.5 734.5,-0.5 683.5,-0.5"/>
<text text-anchor="middle" x="709" y="-7.5" font-family="Helvetica,sans-Serif" font-size="10.00">typeinfo</text>
</g>
<!-- Node6&#45;&gt;Node10 -->
<g id="edge9" class="edge"><title>Node6&#45;&gt;Node10</title>
<path fill="none" stroke="midnightblue" d="M886.847,-56.486C853.023,-48.0274 799.491,-34.5693 744.524,-20.3759"/>
<polygon fill="midnightblue" stroke="midnightblue" points="745.17,-16.9277 734.612,-17.8123 743.417,-23.7047 745.17,-16.9277"/>
</g>
<!-- Node11 -->
<g id="node11" class="node"><title>Node11</title>
<g id="a_node11"><a xlink:href="../../d3/de0/compile__time__crc32_8h.html" target="_top" xlink:title="compile_time_crc32.h">
<polygon fill="white" stroke="black" points="752,-0.5 752,-19.5 864,-19.5 864,-0.5 752,-0.5"/>
<text text-anchor="middle" x="808" y="-7.5" font-family="Helvetica,sans-Serif" font-size="10.00">compile_time_crc32.h</text>
</a>
</g>
</g>
<!-- Node6&#45;&gt;Node11 -->
<g id="edge10" class="edge"><title>Node6&#45;&gt;Node11</title>
<path fill="none" stroke="midnightblue" d="M903.095,-56.4435C884.746,-47.6751 855.995,-33.9355 834.906,-23.8579"/>
<polygon fill="midnightblue" stroke="midnightblue" points="836.353,-20.6703 825.821,-19.5164 833.335,-26.9862 836.353,-20.6703"/>
</g>
<!-- Node13&#45;&gt;Node4 -->
<g id="edge14" class="edge"><title>Node13&#45;&gt;Node4</title>
<path fill="none" stroke="midnightblue" d="M552.862,-168.266C563.773,-155.047 580.796,-129.632 568,-112 561.818,-103.482 504.929,-86.9157 466.151,-76.4343"/>
<polygon fill="midnightblue" stroke="midnightblue" points="466.803,-72.9857 456.238,-73.7803 464.993,-79.7475 466.803,-72.9857"/>
</g>
<!-- Node14 -->
<g id="node14" class="node"><title>Node14</title>
<polygon fill="white" stroke="#bfbfbf" points="743,-112.5 743,-131.5 871,-131.5 871,-112.5 743,-112.5"/>
<text text-anchor="middle" x="807" y="-119.5" font-family="Helvetica,sans-Serif" font-size="10.00">boost/functional/hash.hpp</text>
</g>
<!-- Node13&#45;&gt;Node14 -->
<g id="edge13" class="edge"><title>Node13&#45;&gt;Node14</title>
<path fill="none" stroke="midnightblue" d="M586.515,-168.444C632.412,-158.984 706.38,-143.738 755.826,-133.547"/>
<polygon fill="midnightblue" stroke="midnightblue" points="756.592,-136.963 765.68,-131.516 755.179,-130.107 756.592,-136.963"/>
</g>
<!-- Node15 -->
<g id="node15" class="node"><title>Node15</title>
<polygon fill="white" stroke="#bfbfbf" points="775,-56.5 775,-75.5 819,-75.5 819,-56.5 775,-56.5"/>
<text text-anchor="middle" x="797" y="-63.5" font-family="Helvetica,sans-Serif" font-size="10.00">vector</text>
</g>
<!-- Node13&#45;&gt;Node15 -->
<g id="edge15" class="edge"><title>Node13&#45;&gt;Node15</title>
<path fill="none" stroke="midnightblue" d="M591.791,-169.231C594.567,-168.805 597.319,-168.392 600,-168 662.076,-158.933 838.565,-179.104 880,-132 899.907,-109.369 859.858,-88.9572 828.751,-77.2737"/>
<polygon fill="midnightblue" stroke="midnightblue" points="829.647,-73.877 819.053,-73.7954 827.284,-80.466 829.647,-73.877"/>
</g>
<!-- Node16 -->
<g id="node16" class="node"><title>Node16</title>
<polygon fill="white" stroke="#bfbfbf" points="449,-112.5 449,-131.5 559,-131.5 559,-112.5 449,-112.5"/>
<text text-anchor="middle" x="504" y="-119.5" font-family="Helvetica,sans-Serif" font-size="10.00">3rd_party/exception.h</text>
</g>
<!-- Node13&#45;&gt;Node16 -->
<g id="edge16" class="edge"><title>Node13&#45;&gt;Node16</title>
<path fill="none" stroke="midnightblue" d="M538.23,-168.083C532.438,-160.455 523.942,-149.264 516.862,-139.941"/>
<polygon fill="midnightblue" stroke="midnightblue" points="519.479,-137.599 510.644,-131.751 513.904,-141.832 519.479,-137.599"/>
</g>
<!-- Node17 -->
<g id="node17" class="node"><title>Node17</title>
<g id="a_node17"><a xlink:href="../../d6/dc2/definitions_8h.html" target="_top" xlink:title="common/definitions.h">
<polygon fill="white" stroke="black" points="615,-112.5 615,-131.5 725,-131.5 725,-112.5 615,-112.5"/>
<text text-anchor="middle" x="670" y="-119.5" font-family="Helvetica,sans-Serif" font-size="10.00">common/definitions.h</text>
</a>
</g>
</g>
<!-- Node13&#45;&gt;Node17 -->
<g id="edge17" class="edge"><title>Node13&#45;&gt;Node17</title>
<path fill="none" stroke="midnightblue" d="M564.807,-168.444C585.287,-159.596 617.483,-145.687 640.865,-135.586"/>
<polygon fill="midnightblue" stroke="midnightblue" points="642.494,-138.695 650.286,-131.516 639.718,-132.269 642.494,-138.695"/>
</g>
<!-- Node17&#45;&gt;Node4 -->
<g id="edge19" class="edge"><title>Node17&#45;&gt;Node4</title>
<path fill="none" stroke="midnightblue" d="M631.971,-112.444C586.355,-102.18 510.469,-85.1055 465.845,-75.0652"/>
<polygon fill="midnightblue" stroke="midnightblue" points="466.54,-71.6341 456.016,-72.8536 465.004,-78.4634 466.54,-71.6341"/>
</g>
<!-- Node17&#45;&gt;Node6 -->
<g id="edge27" class="edge"><title>Node17&#45;&gt;Node6</title>
<path fill="none" stroke="midnightblue" d="M709.772,-112.444C753.558,-103.023 824.014,-87.8656 871.38,-77.6752"/>
<polygon fill="midnightblue" stroke="midnightblue" points="872.374,-81.0415 881.414,-75.5164 870.902,-74.1981 872.374,-81.0415"/>
</g>
<!-- Node17&#45;&gt;Node15 -->
<g id="edge21" class="edge"><title>Node17&#45;&gt;Node15</title>
<path fill="none" stroke="midnightblue" d="M690.124,-112.444C711.024,-103.557 743.935,-89.5632 767.716,-79.4514"/>
<polygon fill="midnightblue" stroke="midnightblue" points="769.138,-82.6504 776.971,-75.5164 766.398,-76.2085 769.138,-82.6504"/>
</g>
<!-- Node18 -->
<g id="node18" class="node"><title>Node18</title>
<polygon fill="white" stroke="#bfbfbf" points="483.5,-56.5 483.5,-75.5 542.5,-75.5 542.5,-56.5 483.5,-56.5"/>
<text text-anchor="middle" x="513" y="-63.5" font-family="Helvetica,sans-Serif" font-size="10.00">functional</text>
</g>
<!-- Node17&#45;&gt;Node18 -->
<g id="edge18" class="edge"><title>Node17&#45;&gt;Node18</title>
<path fill="none" stroke="midnightblue" d="M645.123,-112.444C618.711,-103.359 576.785,-88.9388 547.258,-78.7831"/>
<polygon fill="midnightblue" stroke="midnightblue" points="548.355,-75.4593 537.761,-75.5164 546.079,-82.0787 548.355,-75.4593"/>
</g>
<!-- Node19 -->
<g id="node19" class="node"><title>Node19</title>
<polygon fill="white" stroke="#bfbfbf" points="509.5,-0.5 509.5,-19.5 550.5,-19.5 550.5,-0.5 509.5,-0.5"/>
<text text-anchor="middle" x="530" y="-7.5" font-family="Helvetica,sans-Serif" font-size="10.00">string</text>
</g>
<!-- Node17&#45;&gt;Node19 -->
<g id="edge20" class="edge"><title>Node17&#45;&gt;Node19</title>
<path fill="none" stroke="midnightblue" d="M672.241,-112.378C675.207,-98.8495 678.695,-72.4807 666,-56 641.184,-23.7832 592.584,-14.3632 560.708,-11.7616"/>
<polygon fill="midnightblue" stroke="midnightblue" points="560.8,-8.26047 550.598,-11.1177 560.355,-15.2463 560.8,-8.26047"/>
</g>
<!-- Node20 -->
<g id="node20" class="node"><title>Node20</title>
<polygon fill="white" stroke="#bfbfbf" points="561,-56.5 561,-75.5 657,-75.5 657,-56.5 561,-56.5"/>
<text text-anchor="middle" x="609" y="-63.5" font-family="Helvetica,sans-Serif" font-size="10.00">common/logging.h</text>
</g>
<!-- Node17&#45;&gt;Node20 -->
<g id="edge22" class="edge"><title>Node17&#45;&gt;Node20</title>
<path fill="none" stroke="midnightblue" d="M660.199,-112.324C651.182,-104.341 637.594,-92.3128 626.682,-82.6529"/>
<polygon fill="midnightblue" stroke="midnightblue" points="628.787,-79.8416 618.979,-75.8339 624.147,-85.083 628.787,-79.8416"/>
</g>
<!-- Node21 -->
<g id="node21" class="node"><title>Node21</title>
<g id="a_node21"><a xlink:href="../../da/d18/shape_8h.html" target="_top" xlink:title="shape.h">
<polygon fill="white" stroke="black" points="327.5,-56.5 327.5,-75.5 378.5,-75.5 378.5,-56.5 327.5,-56.5"/>
<text text-anchor="middle" x="353" y="-63.5" font-family="Helvetica,sans-Serif" font-size="10.00">shape.h</text>
</a>
</g>
</g>
<!-- Node17&#45;&gt;Node21 -->
<g id="edge23" class="edge"><title>Node17&#45;&gt;Node21</title>
<path fill="none" stroke="midnightblue" d="M614.815,-112.782C559.191,-104.307 470.942,-90.3411 395,-76 392.939,-75.6108 390.824,-75.1985 388.692,-74.7729"/>
<polygon fill="midnightblue" stroke="midnightblue" points="389.226,-71.3095 378.725,-72.7206 387.814,-78.1656 389.226,-71.3095"/>
</g>
<!-- Node21&#45;&gt;Node3 -->
<g id="edge25" class="edge"><title>Node21&#45;&gt;Node3</title>
<path fill="none" stroke="midnightblue" d="M327.419,-60.7627C270.143,-51.2752 131.373,-28.2888 64.3958,-17.1944"/>
<polygon fill="midnightblue" stroke="midnightblue" points="64.7238,-13.7011 54.2862,-15.5198 63.5798,-20.607 64.7238,-13.7011"/>
</g>
<!-- Node21&#45;&gt;Node19 -->
<g id="edge26" class="edge"><title>Node21&#45;&gt;Node19</title>
<path fill="none" stroke="midnightblue" d="M378.737,-57.1479C410.8,-47.3661 465.507,-30.6758 499.601,-20.2743"/>
<polygon fill="midnightblue" stroke="midnightblue" points="500.929,-23.5285 509.472,-17.2627 498.886,-16.8332 500.929,-23.5285"/>
</g>
<!-- Node22 -->
<g id="node22" class="node"><title>Node22</title>
<polygon fill="white" stroke="#bfbfbf" points="330,-0.5 330,-19.5 376,-19.5 376,-0.5 330,-0.5"/>
<text text-anchor="middle" x="353" y="-7.5" font-family="Helvetica,sans-Serif" font-size="10.00">cstdint</text>
</g>
<!-- Node21&#45;&gt;Node22 -->
<g id="edge24" class="edge"><title>Node21&#45;&gt;Node22</title>
<path fill="none" stroke="midnightblue" d="M353,-56.083C353,-49.0059 353,-38.8611 353,-29.9865"/>
<polygon fill="midnightblue" stroke="midnightblue" points="356.5,-29.751 353,-19.7511 349.5,-29.7511 356.5,-29.751"/>
</g>
<!-- Node23&#45;&gt;Node3 -->
<g id="edge30" class="edge"><title>Node23&#45;&gt;Node3</title>
<path fill="none" stroke="midnightblue" d="M303.221,-176.595C228.612,-174.941 81.4365,-167.177 46,-132 18.7979,-104.997 20.4825,-56.0329 23.8611,-29.4203"/>
<polygon fill="midnightblue" stroke="midnightblue" points="27.3254,-29.9185 25.3335,-19.5126 20.4014,-28.8895 27.3254,-29.9185"/>
</g>
<!-- Node23&#45;&gt;Node4 -->
<g id="edge31" class="edge"><title>Node23&#45;&gt;Node4</title>
<path fill="none" stroke="midnightblue" d="M353.513,-168.368C367.271,-150.135 399.497,-107.426 417.418,-83.6752"/>
<polygon fill="midnightblue" stroke="midnightblue" points="420.288,-85.6821 423.517,-75.5914 414.7,-81.4659 420.288,-85.6821"/>
</g>
<!-- Node23&#45;&gt;Node16 -->
<g id="edge33" class="edge"><title>Node23&#45;&gt;Node16</title>
<path fill="none" stroke="midnightblue" d="M371.877,-168.444C398.289,-159.359 440.215,-144.939 469.742,-134.783"/>
<polygon fill="midnightblue" stroke="midnightblue" points="470.921,-138.079 479.239,-131.516 468.645,-131.459 470.921,-138.079"/>
</g>
<!-- Node23&#45;&gt;Node17 -->
<g id="edge34" class="edge"><title>Node23&#45;&gt;Node17</title>
<path fill="none" stroke="midnightblue" d="M390.561,-169.717C446.871,-160.303 545.24,-143.858 608.974,-133.203"/>
<polygon fill="midnightblue" stroke="midnightblue" points="609.608,-136.645 618.894,-131.544 608.453,-129.741 609.608,-136.645"/>
</g>
<!-- Node23&#45;&gt;Node21 -->
<g id="edge35" class="edge"><title>Node23&#45;&gt;Node21</title>
<path fill="none" stroke="midnightblue" d="M347.471,-168.368C348.439,-150.617 350.673,-109.666 351.986,-85.5974"/>
<polygon fill="midnightblue" stroke="midnightblue" points="355.481,-85.7672 352.531,-75.5914 348.492,-85.3859 355.481,-85.7672"/>
</g>
<!-- Node24 -->
<g id="node24" class="node"><title>Node24</title>
<polygon fill="white" stroke="#bfbfbf" points="55,-112.5 55,-131.5 105,-131.5 105,-112.5 55,-112.5"/>
<text text-anchor="middle" x="80" y="-119.5" font-family="Helvetica,sans-Serif" font-size="10.00">iomanip</text>
</g>
<!-- Node23&#45;&gt;Node24 -->
<g id="edge29" class="edge"><title>Node23&#45;&gt;Node24</title>
<path fill="none" stroke="midnightblue" d="M303.443,-169.501C258.604,-161.578 186.508,-148.277 115.25,-132.167"/>
<polygon fill="midnightblue" stroke="midnightblue" points="115.732,-128.687 105.204,-129.876 114.175,-135.512 115.732,-128.687"/>
</g>
<!-- Node25 -->
<g id="node25" class="node"><title>Node25</title>
<polygon fill="white" stroke="#bfbfbf" points="123,-112.5 123,-131.5 175,-131.5 175,-112.5 123,-112.5"/>
<text text-anchor="middle" x="149" y="-119.5" font-family="Helvetica,sans-Serif" font-size="10.00">sstream</text>
</g>
<!-- Node23&#45;&gt;Node25 -->
<g id="edge32" class="edge"><title>Node23&#45;&gt;Node25</title>
<path fill="none" stroke="midnightblue" d="M315.626,-168.444C280.143,-158.766 222.457,-143.034 185.123,-132.852"/>
<polygon fill="midnightblue" stroke="midnightblue" points="185.737,-129.391 175.168,-130.137 183.895,-136.145 185.737,-129.391"/>
</g>
<!-- Node26 -->
<g id="node26" class="node"><title>Node26</title>
<g id="a_node26"><a xlink:href="../../d5/d0b/memory__piece_8h.html" target="_top" xlink:title="tensors/memory_piece.h">
<polygon fill="white" stroke="black" points="193,-112.5 193,-131.5 317,-131.5 317,-112.5 193,-112.5"/>
<text text-anchor="middle" x="255" y="-119.5" font-family="Helvetica,sans-Serif" font-size="10.00">tensors/memory_piece.h</text>
</a>
</g>
</g>
<!-- Node23&#45;&gt;Node26 -->
<g id="edge36" class="edge"><title>Node23&#45;&gt;Node26</title>
<path fill="none" stroke="midnightblue" d="M332.219,-168.324C317.733,-159.822 295.427,-146.729 278.507,-136.797"/>
<polygon fill="midnightblue" stroke="midnightblue" points="280.141,-133.698 269.745,-131.655 276.597,-139.735 280.141,-133.698"/>
</g>
</g>
</svg>
