<?xml version="1.0" encoding="UTF-8" standalone="no"?>
<!DOCTYPE svg PUBLIC "-//W3C//DTD SVG 1.1//EN"
 "http://www.w3.org/Graphics/SVG/1.1/DTD/svg11.dtd">
<!-- Generated by graphviz version 2.38.0 (20140413.2041)
 -->
<!-- Title: marian::TimestepNodeOp::grad Pages: 1 -->
<svg width="297pt" height="66pt"
 viewBox="0.00 0.00 297.00 66.00" xmlns="http://www.w3.org/2000/svg" xmlns:xlink="http://www.w3.org/1999/xlink">
<g id="graph0" class="graph" transform="scale(1 1) rotate(0) translate(4 62)">
<title>marian::TimestepNodeOp::grad</title>
<polygon fill="white" stroke="none" points="-4,4 -4,-62 293,-62 293,4 -4,4"/>
<!-- Node1 -->
<g id="node1" class="node"><title>Node1</title>
<polygon fill="#bfbfbf" stroke="black" points="0,-14 0,-44 128,-44 128,-14 0,-14"/>
<text text-anchor="start" x="8" y="-32" font-family="Helvetica,sans-Serif" font-size="10.00">marian::TimestepNodeOp</text>
<text text-anchor="middle" x="64" y="-21" font-family="Helvetica,sans-Serif" font-size="10.00">::grad</text>
</g>
<!-- Node2 -->
<g id="node2" class="node"><title>Node2</title>
<g id="a_node2"><a xlink:href="$d0/d7a/classmarian_1_1Node.html#aa631f0244ad94b4c64efab0f140bd1d5" xlink:title="marian::Node::shape">
<polygon fill="white" stroke="black" points="173,-38.5 173,-57.5 280,-57.5 280,-38.5 173,-38.5"/>
<text text-anchor="middle" x="226.5" y="-45.5" font-family="Helvetica,sans-Serif" font-size="10.00">marian::Node::shape</text>
</a>
</g>
</g>
<!-- Node1&#45;&gt;Node2 -->
<g id="edge1" class="edge"><title>Node1&#45;&gt;Node2</title>
<path fill="none" stroke="midnightblue" d="M128.434,-36.5093C139.704,-37.8435 151.438,-39.2325 162.691,-40.5647"/>
<polygon fill="midnightblue" stroke="midnightblue" points="162.521,-44.0689 172.863,-41.7688 163.344,-37.1174 162.521,-44.0689"/>
</g>
<!-- Node3 -->
<g id="node3" class="node"><title>Node3</title>
<g id="a_node3"><a xlink:href="$d5/d54/structmarian_1_1Shape.html#ac5b429b8024a6de2e2b4c089757f398f" xlink:title="Gets the total number of elements in a tensor of this shape. ">
<polygon fill="white" stroke="black" points="164,-0.5 164,-19.5 289,-19.5 289,-0.5 164,-0.5"/>
<text text-anchor="middle" x="226.5" y="-7.5" font-family="Helvetica,sans-Serif" font-size="10.00">marian::Shape::elements</text>
</a>
</g>
</g>
<!-- Node1&#45;&gt;Node3 -->
<g id="edge2" class="edge"><title>Node1&#45;&gt;Node3</title>
<path fill="none" stroke="midnightblue" d="M128.434,-21.4907C136.719,-20.5099 145.254,-19.4995 153.665,-18.5038"/>
<polygon fill="midnightblue" stroke="midnightblue" points="154.318,-21.951 163.837,-17.2996 153.495,-14.9996 154.318,-21.951"/>
</g>
</g>
</svg>
