<?xml version="1.0" encoding="UTF-8" standalone="no"?>
<!DOCTYPE svg PUBLIC "-//W3C//DTD SVG 1.1//EN"
 "http://www.w3.org/Graphics/SVG/1.1/DTD/svg11.dtd">
<!-- Generated by graphviz version 2.38.0 (20140413.2041)
 -->
<!-- Title: marian::AffineNodeOp::forwardOps Pages: 1 -->
<svg width="427pt" height="180pt"
 viewBox="0.00 0.00 427.00 180.00" xmlns="http://www.w3.org/2000/svg" xmlns:xlink="http://www.w3.org/1999/xlink">
<g id="graph0" class="graph" transform="scale(1 1) rotate(0) translate(4 176)">
<title>marian::AffineNodeOp::forwardOps</title>
<polygon fill="white" stroke="none" points="-4,4 -4,-176 423,-176 423,4 -4,4"/>
<!-- Node1 -->
<g id="node1" class="node"><title>Node1</title>
<polygon fill="#bfbfbf" stroke="black" points="0,-71 0,-101 113,-101 113,-71 0,-71"/>
<text text-anchor="start" x="8" y="-89" font-family="Helvetica,sans-Serif" font-size="10.00">marian::AffineNodeOp</text>
<text text-anchor="middle" x="56.5" y="-78" font-family="Helvetica,sans-Serif" font-size="10.00">::forwardOps</text>
</g>
<!-- Node2 -->
<g id="node2" class="node"><title>Node2</title>
<g id="a_node2"><a xlink:href="../../da/d22/namespacemarian.html#a509f2975b7c8da70df1cd56de5d3e79e" target="_top" xlink:title="marian::Prod">
<polygon fill="white" stroke="black" points="163.5,-152.5 163.5,-171.5 235.5,-171.5 235.5,-152.5 163.5,-152.5"/>
<text text-anchor="middle" x="199.5" y="-159.5" font-family="Helvetica,sans-Serif" font-size="10.00">marian::Prod</text>
</a>
</g>
</g>
<!-- Node1&#45;&gt;Node2 -->
<g id="edge1" class="edge"><title>Node1&#45;&gt;Node2</title>
<path fill="none" stroke="midnightblue" d="M82.8894,-101.021C101.117,-111.659 126.359,-126.094 149,-138 155.361,-141.345 162.259,-144.797 168.83,-148.004"/>
<polygon fill="midnightblue" stroke="midnightblue" points="167.593,-151.294 178.12,-152.487 170.635,-144.989 167.593,-151.294"/>
</g>
<!-- Node3 -->
<g id="node3" class="node"><title>Node3</title>
<g id="a_node3"><a xlink:href="../../d0/d7a/classmarian_1_1Node.html#a4aa5aa482c70595fa5d43c1fbabf5c18" target="_top" xlink:title="marian::Node::getBackend">
<polygon fill="white" stroke="black" points="286,-95.5 286,-114.5 419,-114.5 419,-95.5 286,-95.5"/>
<text text-anchor="middle" x="352.5" y="-102.5" font-family="Helvetica,sans-Serif" font-size="10.00">marian::Node::getBackend</text>
</a>
</g>
</g>
<!-- Node1&#45;&gt;Node3 -->
<g id="edge2" class="edge"><title>Node1&#45;&gt;Node3</title>
<path fill="none" stroke="midnightblue" d="M113.349,-99.4865C125.058,-101.781 137.38,-103.806 149,-105 190.734,-109.287 237.563,-109.578 275.667,-108.666"/>
<polygon fill="midnightblue" stroke="midnightblue" points="275.762,-112.164 285.664,-108.394 275.572,-105.167 275.762,-112.164"/>
</g>
<!-- Node4 -->
<g id="node4" class="node"><title>Node4</title>
<g id="a_node4"><a xlink:href="../../d0/d7a/classmarian_1_1Node.html#a71a9c8ad6ba12d421fa97222d74a90b9" target="_top" xlink:title="marian::Node::child">
<polygon fill="white" stroke="black" points="149,-76.5 149,-95.5 250,-95.5 250,-76.5 149,-76.5"/>
<text text-anchor="middle" x="199.5" y="-83.5" font-family="Helvetica,sans-Serif" font-size="10.00">marian::Node::child</text>
</a>
</g>
</g>
<!-- Node1&#45;&gt;Node4 -->
<g id="edge3" class="edge"><title>Node1&#45;&gt;Node4</title>
<path fill="none" stroke="midnightblue" d="M113.227,-86C121.545,-86 130.151,-86 138.552,-86"/>
<polygon fill="midnightblue" stroke="midnightblue" points="138.665,-89.5001 148.665,-86 138.665,-82.5001 138.665,-89.5001"/>
</g>
<!-- Node5 -->
<g id="node5" class="node"><title>Node5</title>
<g id="a_node5"><a xlink:href="../../d0/d7a/classmarian_1_1Node.html#a0df86f2ff4a169111d6ba0865e6fd935" target="_top" xlink:title="marian::Node::val">
<polygon fill="white" stroke="black" points="152.5,-38.5 152.5,-57.5 246.5,-57.5 246.5,-38.5 152.5,-38.5"/>
<text text-anchor="middle" x="199.5" y="-45.5" font-family="Helvetica,sans-Serif" font-size="10.00">marian::Node::val</text>
</a>
</g>
</g>
<!-- Node1&#45;&gt;Node5 -->
<g id="edge5" class="edge"><title>Node1&#45;&gt;Node5</title>
<path fill="none" stroke="midnightblue" d="M113.227,-70.9814C126.468,-67.4129 140.437,-63.6481 153.151,-60.2219"/>
<polygon fill="midnightblue" stroke="midnightblue" points="154.295,-63.5385 163.039,-57.5568 152.473,-56.7796 154.295,-63.5385"/>
</g>
<!-- Node6 -->
<g id="node6" class="node"><title>Node6</title>
<g id="a_node6"><a xlink:href="../../da/d22/namespacemarian.html#a0ee0e667d3fcfdc776e4dddaffeea6e2" target="_top" xlink:title="marian::Add">
<polygon fill="white" stroke="black" points="165,-0.5 165,-19.5 234,-19.5 234,-0.5 165,-0.5"/>
<text text-anchor="middle" x="199.5" y="-7.5" font-family="Helvetica,sans-Serif" font-size="10.00">marian::Add</text>
</a>
</g>
</g>
<!-- Node1&#45;&gt;Node6 -->
<g id="edge6" class="edge"><title>Node1&#45;&gt;Node6</title>
<path fill="none" stroke="midnightblue" d="M79.0082,-70.9628C97.1342,-58.6961 124.035,-41.4253 149,-29 153.002,-27.0082 157.267,-25.0884 161.551,-23.2849"/>
<polygon fill="midnightblue" stroke="midnightblue" points="162.893,-26.5176 170.865,-19.5398 160.282,-20.023 162.893,-26.5176"/>
</g>
<!-- Node4&#45;&gt;Node3 -->
<g id="edge4" class="edge"><title>Node4&#45;&gt;Node3</title>
<path fill="none" stroke="midnightblue" d="M250.362,-92.274C258.512,-93.2995 267.114,-94.3819 275.721,-95.465"/>
<polygon fill="midnightblue" stroke="midnightblue" points="275.442,-98.9573 285.801,-96.7332 276.316,-92.0121 275.442,-98.9573"/>
</g>
</g>
</svg>
