<?xml version="1.0" encoding="UTF-8" standalone="no"?>
<!DOCTYPE svg PUBLIC "-//W3C//DTD SVG 1.1//EN"
 "http://www.w3.org/Graphics/SVG/1.1/DTD/svg11.dtd">
<!-- Generated by graphviz version 2.38.0 (20140413.2041)
 -->
<!-- Title: vocab.h Pages: 1 -->
<svg width="381pt" height="140pt"
 viewBox="0.00 0.00 381.00 140.00" xmlns="http://www.w3.org/2000/svg" xmlns:xlink="http://www.w3.org/1999/xlink">
<g id="graph0" class="graph" transform="scale(1 1) rotate(0) translate(4 136)">
<title>vocab.h</title>
<polygon fill="white" stroke="none" points="-4,4 -4,-136 377,-136 377,4 -4,4"/>
<!-- Node1 -->
<g id="node1" class="node"><title>Node1</title>
<polygon fill="#bfbfbf" stroke="black" points="72,-112.5 72,-131.5 123,-131.5 123,-112.5 72,-112.5"/>
<text text-anchor="middle" x="97.5" y="-119.5" font-family="Helvetica,sans-Serif" font-size="10.00">vocab.h</text>
</g>
<!-- Node2 -->
<g id="node2" class="node"><title>Node2</title>
<polygon fill="white" stroke="#bfbfbf" points="0,-56.5 0,-75.5 35,-75.5 35,-56.5 0,-56.5"/>
<text text-anchor="middle" x="17.5" y="-63.5" font-family="Helvetica,sans-Serif" font-size="10.00">map</text>
</g>
<!-- Node1&#45;&gt;Node2 -->
<g id="edge1" class="edge"><title>Node1&#45;&gt;Node2</title>
<path fill="none" stroke="midnightblue" d="M84.6466,-112.324C72.2836,-103.979 53.3699,-91.2122 38.7628,-81.3524"/>
<polygon fill="midnightblue" stroke="midnightblue" points="40.5682,-78.3483 30.3215,-75.6545 36.6518,-84.1503 40.5682,-78.3483"/>
</g>
<!-- Node3 -->
<g id="node3" class="node"><title>Node3</title>
<polygon fill="white" stroke="#bfbfbf" points="53,-56.5 53,-75.5 94,-75.5 94,-56.5 53,-56.5"/>
<text text-anchor="middle" x="73.5" y="-63.5" font-family="Helvetica,sans-Serif" font-size="10.00">string</text>
</g>
<!-- Node1&#45;&gt;Node3 -->
<g id="edge2" class="edge"><title>Node1&#45;&gt;Node3</title>
<path fill="none" stroke="midnightblue" d="M93.5369,-112.083C90.2867,-104.77 85.5806,-94.1814 81.546,-85.1034"/>
<polygon fill="midnightblue" stroke="midnightblue" points="84.6492,-83.4677 77.3894,-75.7511 78.2525,-86.3107 84.6492,-83.4677"/>
</g>
<!-- Node4 -->
<g id="node4" class="node"><title>Node4</title>
<polygon fill="white" stroke="#bfbfbf" points="100.5,-0.5 100.5,-19.5 144.5,-19.5 144.5,-0.5 100.5,-0.5"/>
<text text-anchor="middle" x="122.5" y="-7.5" font-family="Helvetica,sans-Serif" font-size="10.00">vector</text>
</g>
<!-- Node1&#45;&gt;Node4 -->
<g id="edge3" class="edge"><title>Node1&#45;&gt;Node4</title>
<path fill="none" stroke="midnightblue" d="M99.4617,-112.368C103.496,-94.617 112.803,-53.6664 118.273,-29.5974"/>
<polygon fill="midnightblue" stroke="midnightblue" points="121.744,-30.1185 120.547,-19.5914 114.918,-28.567 121.744,-30.1185"/>
</g>
<!-- Node5 -->
<g id="node5" class="node"><title>Node5</title>
<g id="a_node5"><a xlink:href="../../d0/d16/marian_2src_2data_2types_8h.html" target="_top" xlink:title="data/types.h">
<polygon fill="white" stroke="black" points="151,-56.5 151,-75.5 222,-75.5 222,-56.5 151,-56.5"/>
<text text-anchor="middle" x="186.5" y="-63.5" font-family="Helvetica,sans-Serif" font-size="10.00">data/types.h</text>
</a>
</g>
</g>
<!-- Node1&#45;&gt;Node5 -->
<g id="edge4" class="edge"><title>Node1&#45;&gt;Node5</title>
<path fill="none" stroke="midnightblue" d="M111.799,-112.324C125.683,-103.9 146.992,-90.9709 163.304,-81.0741"/>
<polygon fill="midnightblue" stroke="midnightblue" points="165.502,-83.8341 172.236,-75.6545 161.871,-77.8495 165.502,-83.8341"/>
</g>
<!-- Node5&#45;&gt;Node4 -->
<g id="edge8" class="edge"><title>Node5&#45;&gt;Node4</title>
<path fill="none" stroke="midnightblue" d="M176.217,-56.324C166.664,-48.2631 152.22,-36.0765 140.716,-26.3695"/>
<polygon fill="midnightblue" stroke="midnightblue" points="142.87,-23.6076 132.97,-19.8339 138.356,-28.9577 142.87,-23.6076"/>
</g>
<!-- Node6 -->
<g id="node6" class="node"><title>Node6</title>
<polygon fill="white" stroke="#bfbfbf" points="162.5,-0.5 162.5,-19.5 208.5,-19.5 208.5,-0.5 162.5,-0.5"/>
<text text-anchor="middle" x="185.5" y="-7.5" font-family="Helvetica,sans-Serif" font-size="10.00">cstdint</text>
</g>
<!-- Node5&#45;&gt;Node6 -->
<g id="edge5" class="edge"><title>Node5&#45;&gt;Node6</title>
<path fill="none" stroke="midnightblue" d="M186.335,-56.083C186.204,-49.0059 186.016,-38.8611 185.852,-29.9865"/>
<polygon fill="midnightblue" stroke="midnightblue" points="189.347,-29.6845 185.662,-19.7511 182.348,-29.8142 189.347,-29.6845"/>
</g>
<!-- Node7 -->
<g id="node7" class="node"><title>Node7</title>
<polygon fill="white" stroke="#bfbfbf" points="227,-0.5 227,-19.5 272,-19.5 272,-0.5 227,-0.5"/>
<text text-anchor="middle" x="249.5" y="-7.5" font-family="Helvetica,sans-Serif" font-size="10.00">cstdlib</text>
</g>
<!-- Node5&#45;&gt;Node7 -->
<g id="edge6" class="edge"><title>Node5&#45;&gt;Node7</title>
<path fill="none" stroke="midnightblue" d="M196.622,-56.324C206.026,-48.2631 220.244,-36.0765 231.569,-26.3695"/>
<polygon fill="midnightblue" stroke="midnightblue" points="233.879,-28.9993 239.194,-19.8339 229.323,-23.6844 233.879,-28.9993"/>
</g>
<!-- Node8 -->
<g id="node8" class="node"><title>Node8</title>
<polygon fill="white" stroke="#bfbfbf" points="290,-0.5 290,-19.5 373,-19.5 373,-0.5 290,-0.5"/>
<text text-anchor="middle" x="331.5" y="-7.5" font-family="Helvetica,sans-Serif" font-size="10.00">unordered_map</text>
</g>
<!-- Node5&#45;&gt;Node8 -->
<g id="edge7" class="edge"><title>Node5&#45;&gt;Node8</title>
<path fill="none" stroke="midnightblue" d="M209.476,-56.4435C233.657,-47.4381 271.918,-33.1891 299.146,-23.049"/>
<polygon fill="midnightblue" stroke="midnightblue" points="300.482,-26.2864 308.632,-19.5164 298.039,-19.7265 300.482,-26.2864"/>
</g>
</g>
</svg>
