<?xml version="1.0" encoding="UTF-8" standalone="no"?>
<!DOCTYPE svg PUBLIC "-//W3C//DTD SVG 1.1//EN"
 "http://www.w3.org/Graphics/SVG/1.1/DTD/svg11.dtd">
<!-- Generated by graphviz version 2.38.0 (20140413.2041)
 -->
<!-- Title: marian::TensorBase Pages: 1 -->
<svg width="252pt" height="424pt"
 viewBox="0.00 0.00 251.50 424.00" xmlns="http://www.w3.org/2000/svg" xmlns:xlink="http://www.w3.org/1999/xlink">
<g id="graph0" class="graph" transform="scale(1 1) rotate(0) translate(4 420)">
<title>marian::TensorBase</title>
<polygon fill="white" stroke="none" points="-4,4 -4,-420 247.5,-420 247.5,4 -4,4"/>
<!-- Node1 -->
<g id="node1" class="node"><title>Node1</title>
<polygon fill="#bfbfbf" stroke="black" points="79.5,-0.5 79.5,-178.5 183.5,-178.5 183.5,-0.5 79.5,-0.5"/>
<text text-anchor="middle" x="131.5" y="-166.5" font-family="Helvetica,sans-Serif" font-size="10.00">marian::TensorBase</text>
<polyline fill="none" stroke="black" points="79.5,-159.5 183.5,-159.5 "/>
<text text-anchor="start" x="87.5" y="-147.5" font-family="Helvetica,sans-Serif" font-size="10.00">&#45; memory_</text>
<text text-anchor="start" x="87.5" y="-136.5" font-family="Helvetica,sans-Serif" font-size="10.00">&#45; device_</text>
<polyline fill="none" stroke="black" points="79.5,-129.5 183.5,-129.5 "/>
<text text-anchor="start" x="87.5" y="-117.5" font-family="Helvetica,sans-Serif" font-size="10.00">+ TensorBase()</text>
<text text-anchor="start" x="87.5" y="-106.5" font-family="Helvetica,sans-Serif" font-size="10.00">+ ~TensorBase()</text>
<text text-anchor="start" x="87.5" y="-95.5" font-family="Helvetica,sans-Serif" font-size="10.00">+ reset()</text>
<text text-anchor="start" x="87.5" y="-84.5" font-family="Helvetica,sans-Serif" font-size="10.00">+ memory()</text>
<text text-anchor="start" x="87.5" y="-73.5" font-family="Helvetica,sans-Serif" font-size="10.00">+ shape()</text>
<text text-anchor="start" x="87.5" y="-62.5" font-family="Helvetica,sans-Serif" font-size="10.00">+ data()</text>
<text text-anchor="start" x="87.5" y="-51.5" font-family="Helvetica,sans-Serif" font-size="10.00">+ size()</text>
<text text-anchor="start" x="87.5" y="-40.5" font-family="Helvetica,sans-Serif" font-size="10.00">+ scalar()</text>
<text text-anchor="start" x="87.5" y="-29.5" font-family="Helvetica,sans-Serif" font-size="10.00">+ getDevice()</text>
<text text-anchor="start" x="87.5" y="-18.5" font-family="Helvetica,sans-Serif" font-size="10.00">+ subtensor()</text>
<text text-anchor="start" x="87.5" y="-7.5" font-family="Helvetica,sans-Serif" font-size="10.00">and 8 more...</text>
</g>
<!-- Node2 -->
<g id="node2" class="node"><title>Node2</title>
<polygon fill="white" stroke="#bfbfbf" points="0,-287 0,-355 133,-355 133,-287 0,-287"/>
<text text-anchor="start" x="8" y="-343" font-family="Helvetica,sans-Serif" font-size="10.00">std::enable_shared</text>
<text text-anchor="middle" x="66.5" y="-332" font-family="Helvetica,sans-Serif" font-size="10.00">_from_this&lt; TensorBase &gt;</text>
<polyline fill="none" stroke="#bfbfbf" points="0,-325 133,-325 "/>
<text text-anchor="middle" x="66.5" y="-313" font-family="Helvetica,sans-Serif" font-size="10.00"> </text>
<polyline fill="none" stroke="#bfbfbf" points="0,-306 133,-306 "/>
<text text-anchor="middle" x="66.5" y="-294" font-family="Helvetica,sans-Serif" font-size="10.00"> </text>
</g>
<!-- Node2&#45;&gt;Node1 -->
<g id="edge1" class="edge"><title>Node2&#45;&gt;Node1</title>
<path fill="none" stroke="midnightblue" d="M78.7052,-276.906C86.5173,-249.324 96.9376,-212.532 106.456,-178.924"/>
<polygon fill="none" stroke="midnightblue" points="75.3091,-276.053 75.9516,-286.629 82.0442,-277.961 75.3091,-276.053"/>
</g>
<!-- Node3 -->
<g id="node3" class="node"><title>Node3</title>
<g id="a_node3"><a xlink:href="$d5/d54/structmarian_1_1Shape.html" xlink:title="{marian::Shape\n|+ shape_\l+ stride_\l+ bstride_\l|+ Shape()\l+ Shape()\l+ updateStrides()\l+ Shape()\l+ set()\l+ dim()\l+ dim()\l+ operator[]()\l+ operator[]()\l+ stride()\land 12 more...\l}">
<polygon fill="white" stroke="black" points="151.5,-226.5 151.5,-415.5 243.5,-415.5 243.5,-226.5 151.5,-226.5"/>
<text text-anchor="middle" x="197.5" y="-403.5" font-family="Helvetica,sans-Serif" font-size="10.00">marian::Shape</text>
<polyline fill="none" stroke="black" points="151.5,-396.5 243.5,-396.5 "/>
<text text-anchor="start" x="159.5" y="-384.5" font-family="Helvetica,sans-Serif" font-size="10.00">+ shape_</text>
<text text-anchor="start" x="159.5" y="-373.5" font-family="Helvetica,sans-Serif" font-size="10.00">+ stride_</text>
<text text-anchor="start" x="159.5" y="-362.5" font-family="Helvetica,sans-Serif" font-size="10.00">+ bstride_</text>
<polyline fill="none" stroke="black" points="151.5,-355.5 243.5,-355.5 "/>
<text text-anchor="start" x="159.5" y="-343.5" font-family="Helvetica,sans-Serif" font-size="10.00">+ Shape()</text>
<text text-anchor="start" x="159.5" y="-332.5" font-family="Helvetica,sans-Serif" font-size="10.00">+ Shape()</text>
<text text-anchor="start" x="159.5" y="-321.5" font-family="Helvetica,sans-Serif" font-size="10.00">+ updateStrides()</text>
<text text-anchor="start" x="159.5" y="-310.5" font-family="Helvetica,sans-Serif" font-size="10.00">+ Shape()</text>
<text text-anchor="start" x="159.5" y="-299.5" font-family="Helvetica,sans-Serif" font-size="10.00">+ set()</text>
<text text-anchor="start" x="159.5" y="-288.5" font-family="Helvetica,sans-Serif" font-size="10.00">+ dim()</text>
<text text-anchor="start" x="159.5" y="-277.5" font-family="Helvetica,sans-Serif" font-size="10.00">+ dim()</text>
<text text-anchor="start" x="159.5" y="-266.5" font-family="Helvetica,sans-Serif" font-size="10.00">+ operator[]()</text>
<text text-anchor="start" x="159.5" y="-255.5" font-family="Helvetica,sans-Serif" font-size="10.00">+ operator[]()</text>
<text text-anchor="start" x="159.5" y="-244.5" font-family="Helvetica,sans-Serif" font-size="10.00">+ stride()</text>
<text text-anchor="start" x="159.5" y="-233.5" font-family="Helvetica,sans-Serif" font-size="10.00">and 12 more...</text>
</a>
</g>
</g>
<!-- Node3&#45;&gt;Node1 -->
<g id="edge2" class="edge"><title>Node3&#45;&gt;Node1</title>
<path fill="none" stroke="#404040" d="M170.56,-226.323C167.165,-214.517 163.681,-202.403 160.259,-190.504"/>
<polygon fill="none" stroke="#404040" points="160.18,-190.229 154.678,-185.569 156.864,-178.697 162.366,-183.357 160.18,-190.229"/>
<text text-anchor="middle" x="183.5" y="-200" font-family="Helvetica,sans-Serif" font-size="10.00"> &#45;shape_</text>
</g>
</g>
</svg>
