<?xml version="1.0" encoding="UTF-8" standalone="no"?>
<!DOCTYPE svg PUBLIC "-//W3C//DTD SVG 1.1//EN"
 "http://www.w3.org/Graphics/SVG/1.1/DTD/svg11.dtd">
<!-- Generated by graphviz version 2.38.0 (20140413.2041)
 -->
<!-- Title: loader.h Pages: 1 -->
<svg width="762pt" height="308pt"
 viewBox="0.00 0.00 761.61 308.00" xmlns="http://www.w3.org/2000/svg" xmlns:xlink="http://www.w3.org/1999/xlink">
<g id="graph0" class="graph" transform="scale(1 1) rotate(0) translate(4 304)">
<title>loader.h</title>
<polygon fill="white" stroke="none" points="-4,4 -4,-304 757.606,-304 757.606,4 -4,4"/>
<!-- Node1 -->
<g id="node1" class="node"><title>Node1</title>
<polygon fill="#bfbfbf" stroke="black" points="172.5,-280.5 172.5,-299.5 223.5,-299.5 223.5,-280.5 172.5,-280.5"/>
<text text-anchor="middle" x="198" y="-287.5" font-family="Helvetica,sans-Serif" font-size="10.00">loader.h</text>
</g>
<!-- Node2 -->
<g id="node2" class="node"><title>Node2</title>
<polygon fill="white" stroke="#bfbfbf" points="228,-0.5 228,-19.5 272,-19.5 272,-0.5 228,-0.5"/>
<text text-anchor="middle" x="250" y="-7.5" font-family="Helvetica,sans-Serif" font-size="10.00">vector</text>
</g>
<!-- Node1&#45;&gt;Node2 -->
<g id="edge1" class="edge"><title>Node1&#45;&gt;Node2</title>
<path fill="none" stroke="midnightblue" d="M172.115,-286.609C118.445,-280.083 0,-256.861 0,-179 0,-179 0,-179 0,-121 0,-26.9282 150.136,-12.598 217.713,-10.9125"/>
<polygon fill="midnightblue" stroke="midnightblue" points="217.875,-14.4104 227.814,-10.7403 217.756,-7.41139 217.875,-14.4104"/>
</g>
<!-- Node3 -->
<g id="node3" class="node"><title>Node3</title>
<polygon fill="white" stroke="#bfbfbf" points="275.5,-224.5 275.5,-243.5 364.5,-243.5 364.5,-224.5 275.5,-224.5"/>
<text text-anchor="middle" x="320" y="-231.5" font-family="Helvetica,sans-Serif" font-size="10.00">yaml&#45;cpp/yaml.h</text>
</g>
<!-- Node1&#45;&gt;Node3 -->
<g id="edge2" class="edge"><title>Node1&#45;&gt;Node3</title>
<path fill="none" stroke="midnightblue" d="M217.331,-280.444C237.32,-271.596 268.743,-257.687 291.564,-247.586"/>
<polygon fill="midnightblue" stroke="midnightblue" points="293.032,-250.764 300.759,-243.516 290.198,-244.363 293.032,-250.764"/>
</g>
<!-- Node4 -->
<g id="node4" class="node"><title>Node4</title>
<g id="a_node4"><a xlink:href="../../da/d3b/scorer_8h.html" target="_top" xlink:title="scorer.h">
<polygon fill="white" stroke="black" points="295,-168.5 295,-187.5 347,-187.5 347,-168.5 295,-168.5"/>
<text text-anchor="middle" x="321" y="-175.5" font-family="Helvetica,sans-Serif" font-size="10.00">scorer.h</text>
</a>
</g>
</g>
<!-- Node1&#45;&gt;Node4 -->
<g id="edge3" class="edge"><title>Node1&#45;&gt;Node4</title>
<path fill="none" stroke="midnightblue" d="M206.6,-280.365C219.309,-267.7 243.983,-243.478 266,-224 277.666,-213.679 291.202,-202.594 301.926,-194.008"/>
<polygon fill="midnightblue" stroke="midnightblue" points="304.185,-196.683 309.835,-187.72 299.829,-191.204 304.185,-196.683"/>
</g>
<!-- Node16 -->
<g id="node16" class="node"><title>Node16</title>
<g id="a_node16"><a xlink:href="../../d5/dbc/base__best__hyps_8h.html" target="_top" xlink:title="common/base_best_hyps.h">
<polygon fill="white" stroke="black" points="81.5,-224.5 81.5,-243.5 218.5,-243.5 218.5,-224.5 81.5,-224.5"/>
<text text-anchor="middle" x="150" y="-231.5" font-family="Helvetica,sans-Serif" font-size="10.00">common/base_best_hyps.h</text>
</a>
</g>
</g>
<!-- Node1&#45;&gt;Node16 -->
<g id="edge27" class="edge"><title>Node1&#45;&gt;Node16</title>
<path fill="none" stroke="midnightblue" d="M190.074,-280.083C183.154,-272.298 172.935,-260.801 164.548,-251.367"/>
<polygon fill="midnightblue" stroke="midnightblue" points="167.038,-248.9 157.779,-243.751 161.806,-253.55 167.038,-248.9"/>
</g>
<!-- Node4&#45;&gt;Node2 -->
<g id="edge4" class="edge"><title>Node4&#45;&gt;Node2</title>
<path fill="none" stroke="midnightblue" d="M294.983,-173.277C271.164,-168.338 237.229,-157.1 221,-132 199.98,-99.4908 222.602,-53.2 238.064,-28.3545"/>
<polygon fill="midnightblue" stroke="midnightblue" points="241.192,-29.9643 243.724,-19.6763 235.329,-26.1401 241.192,-29.9643"/>
</g>
<!-- Node5 -->
<g id="node5" class="node"><title>Node5</title>
<polygon fill="white" stroke="#bfbfbf" points="653,-0.5 653,-19.5 705,-19.5 705,-0.5 653,-0.5"/>
<text text-anchor="middle" x="679" y="-7.5" font-family="Helvetica,sans-Serif" font-size="10.00">memory</text>
</g>
<!-- Node4&#45;&gt;Node5 -->
<g id="edge5" class="edge"><title>Node4&#45;&gt;Node5</title>
<path fill="none" stroke="midnightblue" d="M347.107,-176.209C435.181,-173.276 717.365,-161.619 744,-132 773.46,-99.2395 726.538,-50.7398 698.143,-26.2842"/>
<polygon fill="midnightblue" stroke="midnightblue" points="700.284,-23.5119 690.367,-19.7831 695.794,-28.8824 700.284,-23.5119"/>
</g>
<!-- Node6 -->
<g id="node6" class="node"><title>Node6</title>
<g id="a_node6"><a xlink:href="../../d6/d52/amun_2common_2hypothesis_8h.html" target="_top" xlink:title="common/hypothesis.h">
<polygon fill="white" stroke="black" points="621.5,-112.5 621.5,-131.5 734.5,-131.5 734.5,-112.5 621.5,-112.5"/>
<text text-anchor="middle" x="678" y="-119.5" font-family="Helvetica,sans-Serif" font-size="10.00">common/hypothesis.h</text>
</a>
</g>
</g>
<!-- Node4&#45;&gt;Node6 -->
<g id="edge6" class="edge"><title>Node4&#45;&gt;Node6</title>
<path fill="none" stroke="midnightblue" d="M347.251,-173.029C402.456,-164.679 532.028,-145.08 611.621,-133.04"/>
<polygon fill="midnightblue" stroke="midnightblue" points="612.186,-136.495 621.55,-131.539 611.139,-129.574 612.186,-136.495"/>
</g>
<!-- Node12 -->
<g id="node12" class="node"><title>Node12</title>
<g id="a_node12"><a xlink:href="../../d6/df4/sentence_8h.html" target="_top" xlink:title="common/sentence.h">
<polygon fill="white" stroke="black" points="361.5,-112.5 361.5,-131.5 466.5,-131.5 466.5,-112.5 361.5,-112.5"/>
<text text-anchor="middle" x="414" y="-119.5" font-family="Helvetica,sans-Serif" font-size="10.00">common/sentence.h</text>
</a>
</g>
</g>
<!-- Node4&#45;&gt;Node12 -->
<g id="edge16" class="edge"><title>Node4&#45;&gt;Node12</title>
<path fill="none" stroke="midnightblue" d="M335.942,-168.324C350.585,-159.822 373.134,-146.729 390.238,-136.797"/>
<polygon fill="midnightblue" stroke="midnightblue" points="392.205,-139.703 399.095,-131.655 388.69,-133.649 392.205,-139.703"/>
</g>
<!-- Node14 -->
<g id="node14" class="node"><title>Node14</title>
<g id="a_node14"><a xlink:href="../../d3/d75/base__matrix_8h.html" target="_top" xlink:title="common/base_matrix.h">
<polygon fill="white" stroke="black" points="484.5,-112.5 484.5,-131.5 603.5,-131.5 603.5,-112.5 484.5,-112.5"/>
<text text-anchor="middle" x="544" y="-119.5" font-family="Helvetica,sans-Serif" font-size="10.00">common/base_matrix.h</text>
</a>
</g>
</g>
<!-- Node4&#45;&gt;Node14 -->
<g id="edge21" class="edge"><title>Node4&#45;&gt;Node14</title>
<path fill="none" stroke="midnightblue" d="M347.017,-170.7C384.189,-161.699 453.037,-145.027 498.687,-133.973"/>
<polygon fill="midnightblue" stroke="midnightblue" points="499.727,-137.322 508.623,-131.567 498.08,-130.519 499.727,-137.322"/>
</g>
<!-- Node15 -->
<g id="node15" class="node"><title>Node15</title>
<polygon fill="white" stroke="#bfbfbf" points="230.5,-112.5 230.5,-131.5 343.5,-131.5 343.5,-112.5 230.5,-112.5"/>
<text text-anchor="middle" x="287" y="-119.5" font-family="Helvetica,sans-Serif" font-size="10.00">yaml&#45;cpp/node/node.h</text>
</g>
<!-- Node4&#45;&gt;Node15 -->
<g id="edge26" class="edge"><title>Node4&#45;&gt;Node15</title>
<path fill="none" stroke="midnightblue" d="M315.386,-168.083C310.633,-160.534 303.682,-149.495 297.848,-140.23"/>
<polygon fill="midnightblue" stroke="midnightblue" points="300.8,-138.349 292.51,-131.751 294.876,-142.078 300.8,-138.349"/>
</g>
<!-- Node6&#45;&gt;Node5 -->
<g id="edge7" class="edge"><title>Node6&#45;&gt;Node5</title>
<path fill="none" stroke="midnightblue" d="M681.856,-112.249C685.558,-103.333 690.889,-89.006 693,-76 695.571,-60.1546 691.218,-42.3438 686.704,-29.3786"/>
<polygon fill="midnightblue" stroke="midnightblue" points="689.871,-27.8616 683.024,-19.777 683.335,-30.3672 689.871,-27.8616"/>
</g>
<!-- Node7 -->
<g id="node7" class="node"><title>Node7</title>
<g id="a_node7"><a xlink:href="../../dc/de7/amun_2common_2types_8h.html" target="_top" xlink:title="common/types.h">
<polygon fill="white" stroke="black" points="376.5,-56.5 376.5,-75.5 465.5,-75.5 465.5,-56.5 376.5,-56.5"/>
<text text-anchor="middle" x="421" y="-63.5" font-family="Helvetica,sans-Serif" font-size="10.00">common/types.h</text>
</a>
</g>
</g>
<!-- Node6&#45;&gt;Node7 -->
<g id="edge8" class="edge"><title>Node6&#45;&gt;Node7</title>
<path fill="none" stroke="midnightblue" d="M637.278,-112.444C592.351,-103.004 520.002,-87.802 471.501,-77.6111"/>
<polygon fill="midnightblue" stroke="midnightblue" points="472.038,-74.1476 461.532,-75.5164 470.598,-80.998 472.038,-74.1476"/>
</g>
<!-- Node11 -->
<g id="node11" class="node"><title>Node11</title>
<g id="a_node11"><a xlink:href="../../d3/d59/soft__alignment_8h.html" target="_top" xlink:title="common/soft_alignment.h">
<polygon fill="white" stroke="black" points="483.5,-56.5 483.5,-75.5 612.5,-75.5 612.5,-56.5 483.5,-56.5"/>
<text text-anchor="middle" x="548" y="-63.5" font-family="Helvetica,sans-Serif" font-size="10.00">common/soft_alignment.h</text>
</a>
</g>
</g>
<!-- Node6&#45;&gt;Node11 -->
<g id="edge13" class="edge"><title>Node6&#45;&gt;Node11</title>
<path fill="none" stroke="midnightblue" d="M657.401,-112.444C636.007,-103.557 602.319,-89.5632 577.976,-79.4514"/>
<polygon fill="midnightblue" stroke="midnightblue" points="579.08,-76.1203 568.503,-75.5164 576.395,-82.5848 579.08,-76.1203"/>
</g>
<!-- Node7&#45;&gt;Node2 -->
<g id="edge11" class="edge"><title>Node7&#45;&gt;Node2</title>
<path fill="none" stroke="midnightblue" d="M393.905,-56.4435C363.482,-46.8366 314.164,-31.2622 281.904,-21.0749"/>
<polygon fill="midnightblue" stroke="midnightblue" points="282.665,-17.6448 272.075,-17.971 280.557,-24.3199 282.665,-17.6448"/>
</g>
<!-- Node8 -->
<g id="node8" class="node"><title>Node8</title>
<polygon fill="white" stroke="#bfbfbf" points="466.5,-0.5 466.5,-19.5 511.5,-19.5 511.5,-0.5 466.5,-0.5"/>
<text text-anchor="middle" x="489" y="-7.5" font-family="Helvetica,sans-Serif" font-size="10.00">cstdlib</text>
</g>
<!-- Node7&#45;&gt;Node8 -->
<g id="edge9" class="edge"><title>Node7&#45;&gt;Node8</title>
<path fill="none" stroke="midnightblue" d="M431.925,-56.324C442.175,-48.1849 457.721,-35.8395 470.001,-26.0874"/>
<polygon fill="midnightblue" stroke="midnightblue" points="472.221,-28.7937 477.876,-19.8339 467.868,-23.3119 472.221,-28.7937"/>
</g>
<!-- Node9 -->
<g id="node9" class="node"><title>Node9</title>
<polygon fill="white" stroke="#bfbfbf" points="330,-0.5 330,-19.5 376,-19.5 376,-0.5 330,-0.5"/>
<text text-anchor="middle" x="353" y="-7.5" font-family="Helvetica,sans-Serif" font-size="10.00">cstdint</text>
</g>
<!-- Node7&#45;&gt;Node9 -->
<g id="edge10" class="edge"><title>Node7&#45;&gt;Node9</title>
<path fill="none" stroke="midnightblue" d="M410.075,-56.324C399.825,-48.1849 384.279,-35.8395 371.999,-26.0874"/>
<polygon fill="midnightblue" stroke="midnightblue" points="374.132,-23.3119 364.124,-19.8339 369.779,-28.7937 374.132,-23.3119"/>
</g>
<!-- Node10 -->
<g id="node10" class="node"><title>Node10</title>
<polygon fill="white" stroke="#bfbfbf" points="394,-0.5 394,-19.5 448,-19.5 448,-0.5 394,-0.5"/>
<text text-anchor="middle" x="421" y="-7.5" font-family="Helvetica,sans-Serif" font-size="10.00">iostream</text>
</g>
<!-- Node7&#45;&gt;Node10 -->
<g id="edge12" class="edge"><title>Node7&#45;&gt;Node10</title>
<path fill="none" stroke="midnightblue" d="M421,-56.083C421,-49.0059 421,-38.8611 421,-29.9865"/>
<polygon fill="midnightblue" stroke="midnightblue" points="424.5,-29.751 421,-19.7511 417.5,-29.7511 424.5,-29.751"/>
</g>
<!-- Node11&#45;&gt;Node2 -->
<g id="edge14" class="edge"><title>Node11&#45;&gt;Node2</title>
<path fill="none" stroke="midnightblue" d="M500.781,-56.4435C439.672,-45.3702 334.812,-26.3686 282.155,-16.8268"/>
<polygon fill="midnightblue" stroke="midnightblue" points="282.511,-13.3343 272.047,-14.9951 281.263,-20.2221 282.511,-13.3343"/>
</g>
<!-- Node11&#45;&gt;Node5 -->
<g id="edge15" class="edge"><title>Node11&#45;&gt;Node5</title>
<path fill="none" stroke="midnightblue" d="M568.757,-56.4435C590.316,-47.5566 624.263,-33.5632 648.794,-23.4514"/>
<polygon fill="midnightblue" stroke="midnightblue" points="650.428,-26.5634 658.34,-19.5164 647.761,-20.0917 650.428,-26.5634"/>
</g>
<!-- Node12&#45;&gt;Node2 -->
<g id="edge18" class="edge"><title>Node12&#45;&gt;Node2</title>
<path fill="none" stroke="midnightblue" d="M371.509,-112.475C334.107,-104.161 283.417,-90.6573 269,-76 257.03,-63.8306 252.526,-44.5576 250.87,-30.1528"/>
<polygon fill="midnightblue" stroke="midnightblue" points="254.335,-29.5685 250.064,-19.8728 247.356,-30.1158 254.335,-29.5685"/>
</g>
<!-- Node12&#45;&gt;Node5 -->
<g id="edge17" class="edge"><title>Node12&#45;&gt;Node5</title>
<path fill="none" stroke="midnightblue" d="M460.345,-112.496C517.039,-101.851 607.222,-84.0388 621,-76 641.122,-64.2603 658.027,-43.1162 668.302,-28.1347"/>
<polygon fill="midnightblue" stroke="midnightblue" points="671.249,-30.0225 673.812,-19.7422 665.398,-26.1805 671.249,-30.0225"/>
</g>
<!-- Node12&#45;&gt;Node7 -->
<g id="edge20" class="edge"><title>Node12&#45;&gt;Node7</title>
<path fill="none" stroke="midnightblue" d="M415.156,-112.083C416.084,-104.927 417.418,-94.6353 418.577,-85.6911"/>
<polygon fill="midnightblue" stroke="midnightblue" points="422.051,-86.1181 419.866,-75.7511 415.109,-85.2181 422.051,-86.1181"/>
</g>
<!-- Node13 -->
<g id="node13" class="node"><title>Node13</title>
<polygon fill="white" stroke="#bfbfbf" points="278.5,-56.5 278.5,-75.5 319.5,-75.5 319.5,-56.5 278.5,-56.5"/>
<text text-anchor="middle" x="299" y="-63.5" font-family="Helvetica,sans-Serif" font-size="10.00">string</text>
</g>
<!-- Node12&#45;&gt;Node13 -->
<g id="edge19" class="edge"><title>Node12&#45;&gt;Node13</title>
<path fill="none" stroke="midnightblue" d="M395.778,-112.444C377.104,-103.675 347.844,-89.9355 326.383,-79.8579"/>
<polygon fill="midnightblue" stroke="midnightblue" points="327.676,-76.5988 317.137,-75.5164 324.701,-82.935 327.676,-76.5988"/>
</g>
<!-- Node14&#45;&gt;Node2 -->
<g id="edge23" class="edge"><title>Node14&#45;&gt;Node2</title>
<path fill="none" stroke="midnightblue" d="M496.751,-112.45C460.486,-105.068 409.581,-92.9104 367,-76 357.459,-72.211 305.337,-42.679 273.969,-24.7508"/>
<polygon fill="midnightblue" stroke="midnightblue" points="275.388,-21.5303 264.97,-19.6007 271.911,-27.6057 275.388,-21.5303"/>
</g>
<!-- Node14&#45;&gt;Node5 -->
<g id="edge24" class="edge"><title>Node14&#45;&gt;Node5</title>
<path fill="none" stroke="midnightblue" d="M586.968,-112.451C609.808,-105.922 636.839,-94.7411 655,-76 667.154,-63.4576 673.241,-44.2347 676.234,-29.9431"/>
<polygon fill="midnightblue" stroke="midnightblue" points="679.74,-30.2162 678.028,-19.7606 672.846,-29.0019 679.74,-30.2162"/>
</g>
<!-- Node14&#45;&gt;Node7 -->
<g id="edge25" class="edge"><title>Node14&#45;&gt;Node7</title>
<path fill="none" stroke="midnightblue" d="M524.51,-112.444C504.358,-103.596 472.677,-89.6875 449.669,-79.5865"/>
<polygon fill="midnightblue" stroke="midnightblue" points="450.962,-76.3316 440.399,-75.5164 448.148,-82.7411 450.962,-76.3316"/>
</g>
<!-- Node14&#45;&gt;Node13 -->
<g id="edge22" class="edge"><title>Node14&#45;&gt;Node13</title>
<path fill="none" stroke="midnightblue" d="M501.653,-112.452C459.16,-103.751 391.886,-89.6387 334,-76 332.55,-75.6583 331.067,-75.3025 329.571,-74.9382"/>
<polygon fill="midnightblue" stroke="midnightblue" points="330.244,-71.4988 319.694,-72.4695 328.547,-78.2899 330.244,-71.4988"/>
</g>
<!-- Node16&#45;&gt;Node2 -->
<g id="edge29" class="edge"><title>Node16&#45;&gt;Node2</title>
<path fill="none" stroke="midnightblue" d="M138.549,-224.269C124.302,-212.259 102.79,-189.658 111,-168 134.944,-104.835 197.204,-50.7543 229.656,-25.7735"/>
<polygon fill="midnightblue" stroke="midnightblue" points="232.081,-28.3287 237.962,-19.5159 227.869,-22.7377 232.081,-28.3287"/>
</g>
<!-- Node16&#45;&gt;Node4 -->
<g id="edge32" class="edge"><title>Node16&#45;&gt;Node4</title>
<path fill="none" stroke="midnightblue" d="M177.095,-224.444C206.243,-215.239 252.737,-200.557 284.954,-190.383"/>
<polygon fill="midnightblue" stroke="midnightblue" points="286.391,-193.6 294.872,-187.251 284.283,-186.925 286.391,-193.6"/>
</g>
<!-- Node16&#45;&gt;Node7 -->
<g id="edge31" class="edge"><title>Node16&#45;&gt;Node7</title>
<path fill="none" stroke="midnightblue" d="M158.697,-224.3C167.002,-215.651 179.48,-201.727 188,-188 207.419,-156.712 192.628,-135.475 221,-112 242.851,-93.9202 315.011,-80.9108 366.37,-73.6659"/>
<polygon fill="midnightblue" stroke="midnightblue" points="366.914,-77.1242 376.343,-72.294 365.96,-70.1895 366.914,-77.1242"/>
</g>
<!-- Node17 -->
<g id="node17" class="node"><title>Node17</title>
<polygon fill="white" stroke="#bfbfbf" points="120.5,-168.5 120.5,-187.5 179.5,-187.5 179.5,-168.5 120.5,-168.5"/>
<text text-anchor="middle" x="150" y="-175.5" font-family="Helvetica,sans-Serif" font-size="10.00">functional</text>
</g>
<!-- Node16&#45;&gt;Node17 -->
<g id="edge28" class="edge"><title>Node16&#45;&gt;Node17</title>
<path fill="none" stroke="midnightblue" d="M150,-224.083C150,-217.006 150,-206.861 150,-197.986"/>
<polygon fill="midnightblue" stroke="midnightblue" points="153.5,-197.751 150,-187.751 146.5,-197.751 153.5,-197.751"/>
</g>
<!-- Node18 -->
<g id="node18" class="node"><title>Node18</title>
<polygon fill="white" stroke="#bfbfbf" points="28.5,-168.5 28.5,-187.5 63.5,-187.5 63.5,-168.5 28.5,-168.5"/>
<text text-anchor="middle" x="46" y="-175.5" font-family="Helvetica,sans-Serif" font-size="10.00">map</text>
</g>
<!-- Node16&#45;&gt;Node18 -->
<g id="edge30" class="edge"><title>Node16&#45;&gt;Node18</title>
<path fill="none" stroke="midnightblue" d="M133.291,-224.324C116.688,-215.703 90.9979,-202.364 71.7795,-192.386"/>
<polygon fill="midnightblue" stroke="midnightblue" points="73.1558,-189.156 62.6679,-187.655 69.93,-195.369 73.1558,-189.156"/>
</g>
</g>
</svg>
