<?xml version="1.0" encoding="UTF-8" standalone="no"?>
<!DOCTYPE svg PUBLIC "-//W3C//DTD SVG 1.1//EN"
 "http://www.w3.org/Graphics/SVG/1.1/DTD/svg11.dtd">
<!-- Generated by graphviz version 2.38.0 (20140413.2041)
 -->
<!-- Title: cell.h Pages: 1 -->
<svg width="246pt" height="364pt"
 viewBox="0.00 0.00 245.62 364.00" xmlns="http://www.w3.org/2000/svg" xmlns:xlink="http://www.w3.org/1999/xlink">
<g id="graph0" class="graph" transform="scale(1 1) rotate(0) translate(4 360)">
<title>cell.h</title>
<polygon fill="white" stroke="none" points="-4,4 -4,-360 241.617,-360 241.617,4 -4,4"/>
<!-- Node1 -->
<g id="node1" class="node"><title>Node1</title>
<polygon fill="#bfbfbf" stroke="black" points="96,-336.5 96,-355.5 136,-355.5 136,-336.5 96,-336.5"/>
<text text-anchor="middle" x="116" y="-343.5" font-family="Helvetica,sans-Serif" font-size="10.00">cell.h</text>
</g>
<!-- Node2 -->
<g id="node2" class="node"><title>Node2</title>
<g id="a_node2"><a xlink:href="$dc/db8/gru_8h.html" xlink:title="gru.h">
<polygon fill="white" stroke="black" points="0,-280.5 0,-299.5 38,-299.5 38,-280.5 0,-280.5"/>
<text text-anchor="middle" x="19" y="-287.5" font-family="Helvetica,sans-Serif" font-size="10.00">gru.h</text>
</a>
</g>
</g>
<!-- Node1&#45;&gt;Node2 -->
<g id="edge1" class="edge"><title>Node1&#45;&gt;Node2</title>
<path fill="none" stroke="midnightblue" d="M91.6648,-331.453C73.7574,-321.483 49.9463,-308.228 34.5461,-299.655"/>
<polygon fill="midnightblue" stroke="midnightblue" points="89.9755,-334.518 100.415,-336.324 93.3804,-328.402 89.9755,-334.518"/>
</g>
<!-- Node3 -->
<g id="node3" class="node"><title>Node3</title>
<g id="a_node3"><a xlink:href="$d6/d72/decoder_8h.html" xlink:title="decoder.h">
<polygon fill="white" stroke="black" points="23.5,-224.5 23.5,-243.5 82.5,-243.5 82.5,-224.5 23.5,-224.5"/>
<text text-anchor="middle" x="53" y="-231.5" font-family="Helvetica,sans-Serif" font-size="10.00">decoder.h</text>
</a>
</g>
</g>
<!-- Node1&#45;&gt;Node3 -->
<g id="edge13" class="edge"><title>Node1&#45;&gt;Node3</title>
<path fill="none" stroke="midnightblue" d="M103.548,-328.181C97.6318,-319.885 90.6386,-309.616 85,-300 73.5475,-280.47 62.3798,-256.269 56.7583,-243.621"/>
<polygon fill="midnightblue" stroke="midnightblue" points="100.724,-330.249 109.431,-336.286 106.389,-326.137 100.724,-330.249"/>
</g>
<!-- Node7 -->
<g id="node7" class="node"><title>Node7</title>
<g id="a_node7"><a xlink:href="$d1/d79/encoder_8h.html" xlink:title="encoder.h">
<polygon fill="white" stroke="black" points="81.5,-168.5 81.5,-187.5 140.5,-187.5 140.5,-168.5 81.5,-168.5"/>
<text text-anchor="middle" x="111" y="-175.5" font-family="Helvetica,sans-Serif" font-size="10.00">encoder.h</text>
</a>
</g>
</g>
<!-- Node1&#45;&gt;Node7 -->
<g id="edge15" class="edge"><title>Node1&#45;&gt;Node7</title>
<path fill="none" stroke="midnightblue" d="M145.09,-332.065C188.027,-311.122 260.201,-267.709 230,-224 210.036,-195.107 168.966,-184.745 140.709,-181.042"/>
<polygon fill="midnightblue" stroke="midnightblue" points="143.441,-328.973 135.906,-336.421 146.441,-335.297 143.441,-328.973"/>
</g>
<!-- Node8 -->
<g id="node8" class="node"><title>Node8</title>
<g id="a_node8"><a xlink:href="$d0/d55/lstm_8h.html" xlink:title="lstm.h">
<polygon fill="white" stroke="black" points="94,-280.5 94,-299.5 138,-299.5 138,-280.5 94,-280.5"/>
<text text-anchor="middle" x="116" y="-287.5" font-family="Helvetica,sans-Serif" font-size="10.00">lstm.h</text>
</a>
</g>
</g>
<!-- Node1&#45;&gt;Node8 -->
<g id="edge8" class="edge"><title>Node1&#45;&gt;Node8</title>
<path fill="none" stroke="midnightblue" d="M116,-325.805C116,-316.91 116,-306.78 116,-299.751"/>
<polygon fill="midnightblue" stroke="midnightblue" points="112.5,-326.083 116,-336.083 119.5,-326.083 112.5,-326.083"/>
</g>
<!-- Node9 -->
<g id="node9" class="node"><title>Node9</title>
<g id="a_node9"><a xlink:href="$d6/d81/multiplicative_8h.html" xlink:title="multiplicative.h">
<polygon fill="white" stroke="black" points="139,-224.5 139,-243.5 221,-243.5 221,-224.5 139,-224.5"/>
<text text-anchor="middle" x="180" y="-231.5" font-family="Helvetica,sans-Serif" font-size="10.00">multiplicative.h</text>
</a>
</g>
</g>
<!-- Node1&#45;&gt;Node9 -->
<g id="edge14" class="edge"><title>Node1&#45;&gt;Node9</title>
<path fill="none" stroke="midnightblue" d="M128.4,-328.151C134.304,-319.847 141.302,-309.581 147,-300 158.644,-280.42 170.228,-256.24 176.08,-243.608"/>
<polygon fill="midnightblue" stroke="midnightblue" points="125.556,-326.11 122.535,-336.266 131.23,-330.211 125.556,-326.11"/>
</g>
<!-- Node2&#45;&gt;Node3 -->
<g id="edge2" class="edge"><title>Node2&#45;&gt;Node3</title>
<path fill="none" stroke="midnightblue" d="M29.9772,-271.566C35.827,-262.275 42.7695,-251.248 47.4901,-243.751"/>
<polygon fill="midnightblue" stroke="midnightblue" points="26.9808,-269.756 24.6144,-280.083 32.9044,-273.486 26.9808,-269.756"/>
</g>
<!-- Node2&#45;&gt;Node7 -->
<g id="edge6" class="edge"><title>Node2&#45;&gt;Node7</title>
<path fill="none" stroke="midnightblue" d="M11.8975,-270.337C7.89347,-256.484 5.25338,-237.7 14,-224 28.6852,-200.999 58.4889,-189.575 81.2063,-184.017"/>
<polygon fill="midnightblue" stroke="midnightblue" points="8.70774,-271.833 15.2095,-280.198 15.3435,-269.604 8.70774,-271.833"/>
</g>
<!-- Node4 -->
<g id="node4" class="node"><title>Node4</title>
<g id="a_node4"><a xlink:href="$db/d89/dl4mt_8h.html" xlink:title="dl4mt.h">
<polygon fill="white" stroke="black" points="57.5,-112.5 57.5,-131.5 106.5,-131.5 106.5,-112.5 57.5,-112.5"/>
<text text-anchor="middle" x="82" y="-119.5" font-family="Helvetica,sans-Serif" font-size="10.00">dl4mt.h</text>
</a>
</g>
</g>
<!-- Node3&#45;&gt;Node4 -->
<g id="edge3" class="edge"><title>Node3&#45;&gt;Node4</title>
<path fill="none" stroke="midnightblue" d="M57.8314,-214.674C64.1716,-190.625 75.0431,-149.388 79.735,-131.591"/>
<polygon fill="midnightblue" stroke="midnightblue" points="54.4406,-213.807 55.2756,-224.368 61.2093,-215.591 54.4406,-213.807"/>
</g>
<!-- Node5 -->
<g id="node5" class="node"><title>Node5</title>
<g id="a_node5"><a xlink:href="$d6/da3/language__model_8h.html" xlink:title="language_model.h">
<polygon fill="white" stroke="black" points="34.5,-56.5 34.5,-75.5 129.5,-75.5 129.5,-56.5 34.5,-56.5"/>
<text text-anchor="middle" x="82" y="-63.5" font-family="Helvetica,sans-Serif" font-size="10.00">language_model.h</text>
</a>
</g>
</g>
<!-- Node4&#45;&gt;Node5 -->
<g id="edge4" class="edge"><title>Node4&#45;&gt;Node5</title>
<path fill="none" stroke="midnightblue" d="M82,-101.805C82,-92.9102 82,-82.7798 82,-75.7511"/>
<polygon fill="midnightblue" stroke="midnightblue" points="78.5001,-102.083 82,-112.083 85.5001,-102.083 78.5001,-102.083"/>
</g>
<!-- Node6 -->
<g id="node6" class="node"><title>Node6</title>
<g id="a_node6"><a xlink:href="$d3/d17/class__language__model_8h.html" xlink:title="class_language_model.h">
<polygon fill="white" stroke="black" points="20,-0.5 20,-19.5 144,-19.5 144,-0.5 20,-0.5"/>
<text text-anchor="middle" x="82" y="-7.5" font-family="Helvetica,sans-Serif" font-size="10.00">class_language_model.h</text>
</a>
</g>
</g>
<!-- Node5&#45;&gt;Node6 -->
<g id="edge5" class="edge"><title>Node5&#45;&gt;Node6</title>
<path fill="none" stroke="midnightblue" d="M82,-45.8045C82,-36.9102 82,-26.7798 82,-19.7511"/>
<polygon fill="midnightblue" stroke="midnightblue" points="78.5001,-46.083 82,-56.083 85.5001,-46.083 78.5001,-46.083"/>
</g>
<!-- Node7&#45;&gt;Node4 -->
<g id="edge7" class="edge"><title>Node7&#45;&gt;Node4</title>
<path fill="none" stroke="midnightblue" d="M101.324,-158.983C96.4016,-149.817 90.6421,-139.092 86.6997,-131.751"/>
<polygon fill="midnightblue" stroke="midnightblue" points="98.3964,-160.929 106.211,-168.083 104.563,-157.617 98.3964,-160.929"/>
</g>
<!-- Node8&#45;&gt;Node3 -->
<g id="edge9" class="edge"><title>Node8&#45;&gt;Node3</title>
<path fill="none" stroke="midnightblue" d="M97.9601,-273.537C86.7269,-263.909 72.6809,-251.869 63.3062,-243.834"/>
<polygon fill="midnightblue" stroke="midnightblue" points="96.0076,-276.473 105.878,-280.324 100.563,-271.159 96.0076,-276.473"/>
</g>
<!-- Node8&#45;&gt;Node7 -->
<g id="edge10" class="edge"><title>Node8&#45;&gt;Node7</title>
<path fill="none" stroke="midnightblue" d="M115.152,-270.348C114.057,-246.254 112.196,-205.308 111.391,-187.591"/>
<polygon fill="midnightblue" stroke="midnightblue" points="111.657,-270.538 115.608,-280.368 118.65,-270.22 111.657,-270.538"/>
</g>
<!-- Node8&#45;&gt;Node9 -->
<g id="edge11" class="edge"><title>Node8&#45;&gt;Node9</title>
<path fill="none" stroke="midnightblue" d="M133.991,-273.82C145.458,-264.145 159.913,-251.948 169.53,-243.834"/>
<polygon fill="midnightblue" stroke="midnightblue" points="131.669,-271.2 126.283,-280.324 136.183,-276.55 131.669,-271.2"/>
</g>
<!-- Node9&#45;&gt;Node7 -->
<g id="edge12" class="edge"><title>Node9&#45;&gt;Node7</title>
<path fill="none" stroke="midnightblue" d="M160.962,-218.101C148.544,-208.382 132.757,-196.027 122.288,-187.834"/>
<polygon fill="midnightblue" stroke="midnightblue" points="158.882,-220.917 168.914,-224.324 163.196,-215.405 158.882,-220.917"/>
</g>
</g>
</svg>
