<?xml version="1.0" encoding="UTF-8" standalone="no"?>
<!DOCTYPE svg PUBLIC "-//W3C//DTD SVG 1.1//EN"
 "http://www.w3.org/Graphics/SVG/1.1/DTD/svg11.dtd">
<!-- Generated by graphviz version 2.38.0 (20140413.2041)
 -->
<!-- Title: amunmt::util::Exception Pages: 1 -->
<svg width="182pt" height="354pt"
 viewBox="0.00 0.00 181.50 354.00" xmlns="http://www.w3.org/2000/svg" xmlns:xlink="http://www.w3.org/1999/xlink">
<g id="graph0" class="graph" transform="scale(1 1) rotate(0) translate(4 350)">
<title>amunmt::util::Exception</title>
<polygon fill="white" stroke="none" points="-4,4 -4,-350 177.5,-350 177.5,4 -4,4"/>
<!-- Node1 -->
<g id="node1" class="node"><title>Node1</title>
<polygon fill="#bfbfbf" stroke="black" points="9,-0.5 9,-134.5 129,-134.5 129,-0.5 9,-0.5"/>
<text text-anchor="middle" x="69" y="-122.5" font-family="Helvetica,sans-Serif" font-size="10.00">amunmt::util::Exception</text>
<polyline fill="none" stroke="black" points="9,-115.5 129,-115.5 "/>
<text text-anchor="middle" x="69" y="-103.5" font-family="Helvetica,sans-Serif" font-size="10.00"> </text>
<polyline fill="none" stroke="black" points="9,-96.5 129,-96.5 "/>
<text text-anchor="start" x="17" y="-84.5" font-family="Helvetica,sans-Serif" font-size="10.00">+ Exception()</text>
<text text-anchor="start" x="17" y="-73.5" font-family="Helvetica,sans-Serif" font-size="10.00">+ ~Exception()</text>
<text text-anchor="start" x="17" y="-62.5" font-family="Helvetica,sans-Serif" font-size="10.00">+ Exception()</text>
<text text-anchor="start" x="17" y="-51.5" font-family="Helvetica,sans-Serif" font-size="10.00">+ what()</text>
<text text-anchor="start" x="17" y="-40.5" font-family="Helvetica,sans-Serif" font-size="10.00">+ SetLocation()</text>
<text text-anchor="start" x="17" y="-29.5" font-family="Helvetica,sans-Serif" font-size="10.00">&#45; Append()</text>
<text text-anchor="start" x="17" y="-18.5" font-family="Helvetica,sans-Serif" font-size="10.00">&#45; Append()</text>
<text text-anchor="start" x="17" y="-7.5" font-family="Helvetica,sans-Serif" font-size="10.00">&#45; Append()</text>
</g>
<!-- Node2 -->
<g id="node2" class="node"><title>Node2</title>
<g id="a_node2"><a xlink:title="STL class. ">
<polygon fill="white" stroke="#bfbfbf" points="0,-182.5 0,-239.5 78,-239.5 78,-182.5 0,-182.5"/>
<text text-anchor="middle" x="39" y="-227.5" font-family="Helvetica,sans-Serif" font-size="10.00">std::exception</text>
<polyline fill="none" stroke="#bfbfbf" points="0,-220.5 78,-220.5 "/>
<text text-anchor="middle" x="39" y="-208.5" font-family="Helvetica,sans-Serif" font-size="10.00"> </text>
<polyline fill="none" stroke="#bfbfbf" points="0,-201.5 78,-201.5 "/>
<text text-anchor="middle" x="39" y="-189.5" font-family="Helvetica,sans-Serif" font-size="10.00"> </text>
</a>
</g>
</g>
<!-- Node2&#45;&gt;Node1 -->
<g id="edge1" class="edge"><title>Node2&#45;&gt;Node1</title>
<path fill="none" stroke="midnightblue" d="M46.9299,-172.597C49.398,-160.956 52.1973,-147.753 54.9535,-134.753"/>
<polygon fill="none" stroke="midnightblue" points="43.5057,-171.873 44.8555,-182.381 50.3535,-173.325 43.5057,-171.873"/>
</g>
<!-- Node3 -->
<g id="node3" class="node"><title>Node3</title>
<g id="a_node3"><a xlink:title="STL class. ">
<polygon fill="white" stroke="#bfbfbf" points="96,-182.5 96,-239.5 156,-239.5 156,-182.5 96,-182.5"/>
<text text-anchor="middle" x="126" y="-227.5" font-family="Helvetica,sans-Serif" font-size="10.00">std::string</text>
<polyline fill="none" stroke="#bfbfbf" points="96,-220.5 156,-220.5 "/>
<text text-anchor="middle" x="126" y="-208.5" font-family="Helvetica,sans-Serif" font-size="10.00"> </text>
<polyline fill="none" stroke="#bfbfbf" points="96,-201.5 156,-201.5 "/>
<text text-anchor="middle" x="126" y="-189.5" font-family="Helvetica,sans-Serif" font-size="10.00"> </text>
</a>
</g>
</g>
<!-- Node3&#45;&gt;Node1 -->
<g id="edge2" class="edge"><title>Node3&#45;&gt;Node1</title>
<path fill="none" stroke="#404040" d="M114.875,-182.381C110.615,-171.806 105.517,-159.153 100.294,-146.185"/>
<polygon fill="none" stroke="#404040" points="100.172,-145.883 94.22,-141.813 95.6883,-134.753 101.641,-138.823 100.172,-145.883"/>
<text text-anchor="middle" x="121.5" y="-156" font-family="Helvetica,sans-Serif" font-size="10.00"> &#45;what_</text>
</g>
<!-- Node4 -->
<g id="node4" class="node"><title>Node4</title>
<polygon fill="white" stroke="#bfbfbf" points="78.5,-277.5 78.5,-345.5 173.5,-345.5 173.5,-277.5 78.5,-277.5"/>
<text text-anchor="start" x="86.5" y="-333.5" font-family="Helvetica,sans-Serif" font-size="10.00">std::basic_string&lt;</text>
<text text-anchor="middle" x="126" y="-322.5" font-family="Helvetica,sans-Serif" font-size="10.00"> char &gt;</text>
<polyline fill="none" stroke="#bfbfbf" points="78.5,-315.5 173.5,-315.5 "/>
<text text-anchor="middle" x="126" y="-303.5" font-family="Helvetica,sans-Serif" font-size="10.00"> </text>
<polyline fill="none" stroke="#bfbfbf" points="78.5,-296.5 173.5,-296.5 "/>
<text text-anchor="middle" x="126" y="-284.5" font-family="Helvetica,sans-Serif" font-size="10.00"> </text>
</g>
<!-- Node4&#45;&gt;Node3 -->
<g id="edge3" class="edge"><title>Node4&#45;&gt;Node3</title>
<path fill="none" stroke="midnightblue" d="M126,-267.375C126,-257.94 126,-248.201 126,-239.571"/>
<polygon fill="none" stroke="midnightblue" points="122.5,-267.427 126,-277.427 129.5,-267.427 122.5,-267.427"/>
</g>
</g>
</svg>
