<?xml version="1.0" encoding="UTF-8" standalone="no"?>
<!DOCTYPE svg PUBLIC "-//W3C//DTD SVG 1.1//EN"
 "http://www.w3.org/Graphics/SVG/1.1/DTD/svg11.dtd">
<!-- Generated by graphviz version 2.38.0 (20140413.2041)
 -->
<!-- Title: TemporaryFile::getFileDescriptor Pages: 1 -->
<svg width="332pt" height="88pt"
 viewBox="0.00 0.00 332.00 88.00" xmlns="http://www.w3.org/2000/svg" xmlns:xlink="http://www.w3.org/1999/xlink">
<g id="graph0" class="graph" transform="scale(1 1) rotate(0) translate(4 84)">
<title>TemporaryFile::getFileDescriptor</title>
<polygon fill="white" stroke="none" points="-4,4 -4,-84 328,-84 328,4 -4,4"/>
<!-- Node1 -->
<g id="node1" class="node"><title>Node1</title>
<polygon fill="#bfbfbf" stroke="black" points="0,-30 0,-49 159,-49 159,-30 0,-30"/>
<text text-anchor="middle" x="79.5" y="-37" font-family="Helvetica,sans-Serif" font-size="10.00">TemporaryFile::getFileDescriptor</text>
</g>
<!-- Node2 -->
<g id="node2" class="node"><title>Node2</title>
<g id="a_node2"><a xlink:href="../../db/dea/classInputFileStream.html#a8534a6700e1b89a3999ab36d711b0fdf" target="_top" xlink:title="InputFileStream::InputFile\lStream">
<polygon fill="white" stroke="black" points="195,-49.5 195,-79.5 324,-79.5 324,-49.5 195,-49.5"/>
<text text-anchor="start" x="203" y="-67.5" font-family="Helvetica,sans-Serif" font-size="10.00">InputFileStream::InputFile</text>
<text text-anchor="middle" x="259.5" y="-56.5" font-family="Helvetica,sans-Serif" font-size="10.00">Stream</text>
</a>
</g>
</g>
<!-- Node1&#45;&gt;Node2 -->
<g id="edge1" class="edge"><title>Node1&#45;&gt;Node2</title>
<path fill="none" stroke="midnightblue" d="M158.467,-50.4505C170.672,-52.1646 183.158,-53.9183 194.988,-55.5798"/>
<polygon fill="midnightblue" stroke="midnightblue" points="158.692,-46.9477 148.302,-49.0227 157.718,-53.8797 158.692,-46.9477"/>
</g>
<!-- Node3 -->
<g id="node3" class="node"><title>Node3</title>
<g id="a_node3"><a xlink:href="../../d1/d93/classOutputFileStream.html#a0c7bcfd4249febd21db08260c03c24d2" target="_top" xlink:title="OutputFileStream::Output\lFileStream">
<polygon fill="white" stroke="black" points="195.5,-0.5 195.5,-30.5 323.5,-30.5 323.5,-0.5 195.5,-0.5"/>
<text text-anchor="start" x="203.5" y="-18.5" font-family="Helvetica,sans-Serif" font-size="10.00">OutputFileStream::Output</text>
<text text-anchor="middle" x="259.5" y="-7.5" font-family="Helvetica,sans-Serif" font-size="10.00">FileStream</text>
</a>
</g>
</g>
<!-- Node1&#45;&gt;Node3 -->
<g id="edge2" class="edge"><title>Node1&#45;&gt;Node3</title>
<path fill="none" stroke="midnightblue" d="M161.155,-28.6251C172.668,-27.0728 184.369,-25.4952 195.478,-23.9973"/>
<polygon fill="midnightblue" stroke="midnightblue" points="160.549,-25.1752 151.106,-29.9801 161.484,-32.1124 160.549,-25.1752"/>
</g>
</g>
</svg>
