<?xml version="1.0" encoding="UTF-8" standalone="no"?>
<!DOCTYPE svg PUBLIC "-//W3C//DTD SVG 1.1//EN"
 "http://www.w3.org/Graphics/SVG/1.1/DTD/svg11.dtd">
<!-- Generated by graphviz version 2.38.0 (20140413.2041)
 -->
<!-- Title: validator.h Pages: 1 -->
<svg width="211pt" height="196pt"
 viewBox="0.00 0.00 211.03 196.00" xmlns="http://www.w3.org/2000/svg" xmlns:xlink="http://www.w3.org/1999/xlink">
<g id="graph0" class="graph" transform="scale(1 1) rotate(0) translate(4 192)">
<title>validator.h</title>
<polygon fill="white" stroke="none" points="-4,4 -4,-192 207.025,-192 207.025,4 -4,4"/>
<!-- Node1 -->
<g id="node1" class="node"><title>Node1</title>
<polygon fill="#bfbfbf" stroke="black" points="114,-168.5 114,-187.5 176,-187.5 176,-168.5 114,-168.5"/>
<text text-anchor="middle" x="145" y="-175.5" font-family="Helvetica,sans-Serif" font-size="10.00">validator.h</text>
</g>
<!-- Node2 -->
<g id="node2" class="node"><title>Node2</title>
<g id="a_node2"><a xlink:href="../../da/d8c/examples_2mnist_2validator_8h.html" target="_top" xlink:title="validator.h">
<polygon fill="white" stroke="black" points="0,-112.5 0,-131.5 62,-131.5 62,-112.5 0,-112.5"/>
<text text-anchor="middle" x="31" y="-119.5" font-family="Helvetica,sans-Serif" font-size="10.00">validator.h</text>
</a>
</g>
</g>
<!-- Node1&#45;&gt;Node2 -->
<g id="edge1" class="edge"><title>Node1&#45;&gt;Node2</title>
<path fill="none" stroke="midnightblue" d="M117.758,-164.096C96.4599,-154.007 67.4583,-140.27 48.9791,-131.516"/>
<polygon fill="midnightblue" stroke="midnightblue" points="116.401,-167.326 126.936,-168.444 119.397,-161 116.401,-167.326"/>
</g>
<!-- Node4 -->
<g id="node4" class="node"><title>Node4</title>
<g id="a_node4"><a xlink:href="../../d8/d9d/graph__group_8h.html" target="_top" xlink:title="graph_group.h">
<polygon fill="white" stroke="black" points="125,-0.5 125,-19.5 203,-19.5 203,-0.5 125,-0.5"/>
<text text-anchor="middle" x="164" y="-7.5" font-family="Helvetica,sans-Serif" font-size="10.00">graph_group.h</text>
</a>
</g>
</g>
<!-- Node1&#45;&gt;Node4 -->
<g id="edge3" class="edge"><title>Node1&#45;&gt;Node4</title>
<path fill="none" stroke="midnightblue" d="M158.013,-160.269C171.952,-141.149 193.13,-108.31 201,-76 203.104,-67.3636 203.998,-64.3679 201,-56 195.746,-41.337 183.424,-28.0309 174.438,-19.7555"/>
<polygon fill="midnightblue" stroke="midnightblue" points="155.045,-158.392 151.841,-168.491 160.644,-162.594 155.045,-158.392"/>
</g>
<!-- Node5 -->
<g id="node5" class="node"><title>Node5</title>
<g id="a_node5"><a xlink:href="../../d2/dd8/scheduler_8h.html" target="_top" xlink:title="scheduler.h">
<polygon fill="white" stroke="black" points="80.5,-112.5 80.5,-131.5 147.5,-131.5 147.5,-112.5 80.5,-112.5"/>
<text text-anchor="middle" x="114" y="-119.5" font-family="Helvetica,sans-Serif" font-size="10.00">scheduler.h</text>
</a>
</g>
</g>
<!-- Node1&#45;&gt;Node5 -->
<g id="edge4" class="edge"><title>Node1&#45;&gt;Node5</title>
<path fill="none" stroke="midnightblue" d="M134.824,-159.275C129.526,-150.045 123.283,-139.17 119.024,-131.751"/>
<polygon fill="midnightblue" stroke="midnightblue" points="131.867,-161.153 139.881,-168.083 137.938,-157.668 131.867,-161.153"/>
</g>
<!-- Node6 -->
<g id="node6" class="node"><title>Node6</title>
<g id="a_node6"><a xlink:href="../../df/d43/training_2training_8h.html" target="_top" xlink:title="training.h">
<polygon fill="white" stroke="black" points="136,-56.5 136,-75.5 192,-75.5 192,-56.5 136,-56.5"/>
<text text-anchor="middle" x="164" y="-63.5" font-family="Helvetica,sans-Serif" font-size="10.00">training.h</text>
</a>
</g>
</g>
<!-- Node1&#45;&gt;Node6 -->
<g id="edge9" class="edge"><title>Node1&#45;&gt;Node6</title>
<path fill="none" stroke="midnightblue" d="M150.021,-158.577C152.095,-150.473 154.387,-140.811 156,-132 159.645,-112.093 162.089,-88.4441 163.24,-75.8813"/>
<polygon fill="midnightblue" stroke="midnightblue" points="146.586,-157.875 147.411,-168.438 153.353,-159.666 146.586,-157.875"/>
</g>
<!-- Node3 -->
<g id="node3" class="node"><title>Node3</title>
<g id="a_node3"><a xlink:href="../../d2/d10/examples_2mnist_2training_8h.html" target="_top" xlink:title="training.h">
<polygon fill="white" stroke="black" points="10,-56.5 10,-75.5 66,-75.5 66,-56.5 10,-56.5"/>
<text text-anchor="middle" x="38" y="-63.5" font-family="Helvetica,sans-Serif" font-size="10.00">training.h</text>
</a>
</g>
</g>
<!-- Node2&#45;&gt;Node3 -->
<g id="edge2" class="edge"><title>Node2&#45;&gt;Node3</title>
<path fill="none" stroke="midnightblue" d="M33.4499,-102.101C34.612,-93.1357 35.9443,-82.8579 36.8656,-75.7511"/>
<polygon fill="midnightblue" stroke="midnightblue" points="29.9706,-101.716 32.1559,-112.083 36.9125,-102.616 29.9706,-101.716"/>
</g>
<!-- Node5&#45;&gt;Node3 -->
<g id="edge5" class="edge"><title>Node5&#45;&gt;Node3</title>
<path fill="none" stroke="midnightblue" d="M93.4242,-106.38C79.688,-96.6204 62.0747,-84.1057 50.4329,-75.8339"/>
<polygon fill="midnightblue" stroke="midnightblue" points="91.6102,-109.385 101.789,-112.324 95.6647,-103.679 91.6102,-109.385"/>
</g>
<!-- Node5&#45;&gt;Node4 -->
<g id="edge6" class="edge"><title>Node5&#45;&gt;Node4</title>
<path fill="none" stroke="midnightblue" d="M115.316,-102.203C116.827,-88.7942 120.066,-70.6228 127,-56 133.76,-41.7433 146.021,-28.1517 154.568,-19.7087"/>
<polygon fill="midnightblue" stroke="midnightblue" points="111.831,-101.888 114.41,-112.164 118.802,-102.522 111.831,-101.888"/>
</g>
<!-- Node5&#45;&gt;Node6 -->
<g id="edge7" class="edge"><title>Node5&#45;&gt;Node6</title>
<path fill="none" stroke="midnightblue" d="M129.076,-104.718C137.889,-95.1997 148.666,-83.5608 155.897,-75.7511"/>
<polygon fill="midnightblue" stroke="midnightblue" points="126.482,-102.367 122.256,-112.083 131.619,-107.123 126.482,-102.367"/>
</g>
<!-- Node6&#45;&gt;Node4 -->
<g id="edge8" class="edge"><title>Node6&#45;&gt;Node4</title>
<path fill="none" stroke="midnightblue" d="M164,-45.8045C164,-36.9102 164,-26.7798 164,-19.7511"/>
<polygon fill="midnightblue" stroke="midnightblue" points="160.5,-46.083 164,-56.083 167.5,-46.083 160.5,-46.083"/>
</g>
</g>
</svg>
