<?xml version="1.0" encoding="UTF-8" standalone="no"?>
<!DOCTYPE svg PUBLIC "-//W3C//DTD SVG 1.1//EN"
 "http://www.w3.org/Graphics/SVG/1.1/DTD/svg11.dtd">
<!-- Generated by graphviz version 2.38.0 (20140413.2041)
 -->
<!-- Title: marian::sparse::LfaForward Pages: 1 -->
<svg width="319pt" height="88pt"
 viewBox="0.00 0.00 319.00 88.00" xmlns="http://www.w3.org/2000/svg" xmlns:xlink="http://www.w3.org/1999/xlink">
<g id="graph0" class="graph" transform="scale(1 1) rotate(0) translate(4 84)">
<title>marian::sparse::LfaForward</title>
<polygon fill="white" stroke="none" points="-4,4 -4,-84 315,-84 315,4 -4,4"/>
<!-- Node1 -->
<g id="node1" class="node"><title>Node1</title>
<polygon fill="#bfbfbf" stroke="black" points="0,-30 0,-49 136,-49 136,-30 0,-30"/>
<text text-anchor="middle" x="68" y="-37" font-family="Helvetica,sans-Serif" font-size="10.00">marian::sparse::LfaForward</text>
</g>
<!-- Node2 -->
<g id="node2" class="node"><title>Node2</title>
<g id="a_node2"><a xlink:href="../../df/da9/structmarian_1_1LexicalProbNodeOp.html#aaa0bb6a2dd3d270abfabc505bffedb50" target="_top" xlink:title="marian::LexicalProbNodeOp\l::forward">
<polygon fill="white" stroke="black" points="172,-49.5 172,-79.5 311,-79.5 311,-49.5 172,-49.5"/>
<text text-anchor="start" x="180" y="-67.5" font-family="Helvetica,sans-Serif" font-size="10.00">marian::LexicalProbNodeOp</text>
<text text-anchor="middle" x="241.5" y="-56.5" font-family="Helvetica,sans-Serif" font-size="10.00">::forward</text>
</a>
</g>
</g>
<!-- Node1&#45;&gt;Node2 -->
<g id="edge1" class="edge"><title>Node1&#45;&gt;Node2</title>
<path fill="none" stroke="midnightblue" d="M144.238,-50.4676C153.451,-51.8106 162.828,-53.1775 171.935,-54.5051"/>
<polygon fill="midnightblue" stroke="midnightblue" points="144.726,-47.0019 134.326,-49.0227 143.717,-53.9287 144.726,-47.0019"/>
</g>
<!-- Node3 -->
<g id="node3" class="node"><title>Node3</title>
<g id="a_node3"><a xlink:href="../../d1/d62/classmarian_1_1sparse_1_1CSR.html#ac4d7eff581b229cb8ad0b65f80a39b62" target="_top" xlink:title="marian::sparse::CSR\l::debug">
<polygon fill="white" stroke="black" points="187,-0.5 187,-30.5 296,-30.5 296,-0.5 187,-0.5"/>
<text text-anchor="start" x="195" y="-18.5" font-family="Helvetica,sans-Serif" font-size="10.00">marian::sparse::CSR</text>
<text text-anchor="middle" x="241.5" y="-7.5" font-family="Helvetica,sans-Serif" font-size="10.00">::debug</text>
</a>
</g>
</g>
<!-- Node1&#45;&gt;Node3 -->
<g id="edge2" class="edge"><title>Node1&#45;&gt;Node3</title>
<path fill="none" stroke="midnightblue" d="M146.225,-28.6931C159.969,-26.7697 174.008,-24.805 186.912,-22.9993"/>
<polygon fill="midnightblue" stroke="midnightblue" points="145.708,-25.2312 136.289,-30.0834 146.678,-32.1637 145.708,-25.2312"/>
</g>
</g>
</svg>
