<?xml version="1.0" encoding="UTF-8" standalone="no"?>
<!DOCTYPE svg PUBLIC "-//W3C//DTD SVG 1.1//EN"
 "http://www.w3.org/Graphics/SVG/1.1/DTD/svg11.dtd">
<!-- Generated by graphviz version 2.38.0 (20140413.2041)
 -->
<!-- Title: batch_stats.h Pages: 1 -->
<!--zoomable 319 -->
<svg id="main" version="1.1" xmlns="http://www.w3.org/2000/svg" xmlns:xlink="http://www.w3.org/1999/xlink" xml:space="preserve" onload="init(evt)">
<style type="text/css"><![CDATA[
.edge:hover path { stroke: red; }
.edge:hover polygon { stroke: red; fill: red; }
]]></style>
<script type="text/javascript"><![CDATA[
var edges = document.getElementsByTagName('g');
if (edges && edges.length) {
  for (var i=0;i<edges.length;i++) {
    if (edges[i].id.substr(0,4)=='edge') {
      edges[i].setAttribute('class','edge');
    }
  }
}
]]></script>
        <defs>
                <circle id="rim" cx="0" cy="0" r="7"/>
                <circle id="rim2" cx="0" cy="0" r="3.5"/>
                <g id="zoomPlus">
                        <use xlink:href="#rim" fill="#404040">
                                <set attributeName="fill" to="#808080" begin="zoomplus.mouseover" end="zoomplus.mouseout"/>
                        </use>
                        <path d="M-4,0h8M0,-4v8" fill="none" stroke="white" stroke-width="1.5" pointer-events="none"/>
                </g>
                <g id="zoomMin">
                        <use xlink:href="#rim" fill="#404040">
                                <set attributeName="fill" to="#808080" begin="zoomminus.mouseover" end="zoomminus.mouseout"/>
                        </use>
                        <path d="M-4,0h8" fill="none" stroke="white" stroke-width="1.5" pointer-events="none"/>
                </g>
                <g id="dirArrow">
                        <path fill="none" stroke="white" stroke-width="1.5" d="M0,-3.0v7 M-2.5,-0.5L0,-3.0L2.5,-0.5"/>
                </g>
               <g id="resetDef">
                       <use xlink:href="#rim2" fill="#404040">
                               <set attributeName="fill" to="#808080" begin="reset.mouseover" end="reset.mouseout"/>
                       </use>
               </g>
        </defs>

<script type="text/javascript">
var viewWidth = 1074;
var viewHeight = 319;
var sectionId = 'dynsection-0';
</script>
<script xlink:href="../../svgpan.js"/>
<svg id="graph" class="graph">
<g id="viewport">
<title>batch_stats.h</title>
<polygon fill="white" stroke="none" points="-4,4 -4,-315 1069.5,-315 1069.5,4 -4,4"/>
<!-- Node1 -->
<g id="node1" class="node"><title>Node1</title>
<polygon fill="#bfbfbf" stroke="black" points="452.5,-291.5 452.5,-310.5 528.5,-310.5 528.5,-291.5 452.5,-291.5"/>
<text text-anchor="middle" x="490.5" y="-298.5" font-family="Helvetica,sans-Serif" font-size="10.00">batch_stats.h</text>
</g>
<!-- Node2 -->
<g id="node2" class="node"><title>Node2</title>
<polygon fill="white" stroke="#bfbfbf" points="314,-235.5 314,-254.5 357,-254.5 357,-235.5 314,-235.5"/>
<text text-anchor="middle" x="335.5" y="-242.5" font-family="Helvetica,sans-Serif" font-size="10.00">deque</text>
</g>
<!-- Node1&#45;&gt;Node2 -->
<g id="edge1" class="edge"><title>Node1&#45;&gt;Node2</title>
<path fill="none" stroke="midnightblue" d="M465.94,-291.444C439.214,-282.133 396.399,-267.216 367.165,-257.032"/>
<polygon fill="midnightblue" stroke="midnightblue" points="368.034,-253.628 357.439,-253.643 365.731,-260.238 368.034,-253.628"/>
</g>
<!-- Node3 -->
<g id="node3" class="node"><title>Node3</title>
<polygon fill="white" stroke="#bfbfbf" points="375,-235.5 375,-254.5 418,-254.5 418,-235.5 375,-235.5"/>
<text text-anchor="middle" x="396.5" y="-242.5" font-family="Helvetica,sans-Serif" font-size="10.00">queue</text>
</g>
<!-- Node1&#45;&gt;Node3 -->
<g id="edge2" class="edge"><title>Node1&#45;&gt;Node3</title>
<path fill="none" stroke="midnightblue" d="M475.397,-291.324C460.597,-282.822 437.806,-269.729 420.518,-259.797"/>
<polygon fill="midnightblue" stroke="midnightblue" points="421.98,-256.601 411.565,-254.655 418.493,-262.671 421.98,-256.601"/>
</g>
<!-- Node4 -->
<g id="node4" class="node"><title>Node4</title>
<polygon fill="white" stroke="#bfbfbf" points="436,-235.5 436,-254.5 545,-254.5 545,-235.5 436,-235.5"/>
<text text-anchor="middle" x="490.5" y="-242.5" font-family="Helvetica,sans-Serif" font-size="10.00">boost/timer/timer.hpp</text>
</g>
<!-- Node1&#45;&gt;Node4 -->
<g id="edge3" class="edge"><title>Node1&#45;&gt;Node4</title>
<path fill="none" stroke="midnightblue" d="M490.5,-291.083C490.5,-284.006 490.5,-273.861 490.5,-264.986"/>
<polygon fill="midnightblue" stroke="midnightblue" points="494,-264.751 490.5,-254.751 487,-264.751 494,-264.751"/>
</g>
<!-- Node5 -->
<g id="node5" class="node"><title>Node5</title>
<g id="a_node5"><a xlink:href="../../dc/d8f/corpus_8h.html" target="_top" xlink:title="data/corpus.h">
<polygon fill="white" stroke="black" points="563.5,-235.5 563.5,-254.5 639.5,-254.5 639.5,-235.5 563.5,-235.5"/>
<text text-anchor="middle" x="601.5" y="-242.5" font-family="Helvetica,sans-Serif" font-size="10.00">data/corpus.h</text>
</a>
</g>
</g>
<!-- Node1&#45;&gt;Node5 -->
<g id="edge4" class="edge"><title>Node1&#45;&gt;Node5</title>
<path fill="none" stroke="midnightblue" d="M508.334,-291.324C526.216,-282.625 553.975,-269.12 574.546,-259.113"/>
<polygon fill="midnightblue" stroke="midnightblue" points="576.249,-262.177 583.71,-254.655 573.187,-255.882 576.249,-262.177"/>
</g>
<!-- Node29 -->
<g id="node29" class="node"><title>Node29</title>
<g id="a_node29"><a xlink:href="../../d8/db3/marian_2src_2data_2vocab_8h.html" target="_top" xlink:title="data/vocab.h">
<polygon fill="white" stroke="black" points="731,-112.5 731,-131.5 804,-131.5 804,-112.5 731,-112.5"/>
<text text-anchor="middle" x="767.5" y="-119.5" font-family="Helvetica,sans-Serif" font-size="10.00">data/vocab.h</text>
</a>
</g>
</g>
<!-- Node1&#45;&gt;Node29 -->
<g id="edge43" class="edge"><title>Node1&#45;&gt;Node29</title>
<path fill="none" stroke="midnightblue" d="M528.543,-300.61C595.566,-299.338 733.193,-285.697 792.5,-199 804.94,-180.815 792.365,-155.986 780.999,-139.729"/>
<polygon fill="midnightblue" stroke="midnightblue" points="783.768,-137.588 774.975,-131.676 778.162,-141.78 783.768,-137.588"/>
</g>
<!-- Node6 -->
<g id="node6" class="node"><title>Node6</title>
<polygon fill="white" stroke="#bfbfbf" points="716.5,-174 716.5,-193 766.5,-193 766.5,-174 716.5,-174"/>
<text text-anchor="middle" x="741.5" y="-181" font-family="Helvetica,sans-Serif" font-size="10.00">fstream</text>
</g>
<!-- Node5&#45;&gt;Node6 -->
<g id="edge5" class="edge"><title>Node5&#45;&gt;Node6</title>
<path fill="none" stroke="midnightblue" d="M621.559,-235.475C645.262,-225.401 684.906,-208.553 712.083,-197.002"/>
<polygon fill="midnightblue" stroke="midnightblue" points="713.644,-200.142 721.479,-193.009 710.906,-193.699 713.644,-200.142"/>
</g>
<!-- Node7 -->
<g id="node7" class="node"><title>Node7</title>
<polygon fill="white" stroke="#bfbfbf" points="720.5,-0.5 720.5,-19.5 774.5,-19.5 774.5,-0.5 720.5,-0.5"/>
<text text-anchor="middle" x="747.5" y="-7.5" font-family="Helvetica,sans-Serif" font-size="10.00">iostream</text>
</g>
<!-- Node5&#45;&gt;Node7 -->
<g id="edge6" class="edge"><title>Node5&#45;&gt;Node7</title>
<path fill="none" stroke="midnightblue" d="M639.788,-239.489C688.969,-232.953 770.611,-219.36 792.5,-199 839.404,-155.373 841.325,-112.153 810.5,-56 803.005,-42.3469 789.388,-31.834 776.726,-24.4158"/>
<polygon fill="midnightblue" stroke="midnightblue" points="778.235,-21.2527 767.776,-19.5605 774.897,-27.4056 778.235,-21.2527"/>
</g>
<!-- Node8 -->
<g id="node8" class="node"><title>Node8</title>
<polygon fill="white" stroke="#bfbfbf" points="0,-174 0,-193 49,-193 49,-174 0,-174"/>
<text text-anchor="middle" x="24.5" y="-181" font-family="Helvetica,sans-Serif" font-size="10.00">random</text>
</g>
<!-- Node5&#45;&gt;Node8 -->
<g id="edge7" class="edge"><title>Node5&#45;&gt;Node8</title>
<path fill="none" stroke="midnightblue" d="M563.31,-236.437C559.999,-235.904 556.695,-235.414 553.5,-235 334.309,-206.589 272.019,-252.23 57.5,-199 55.1427,-198.415 52.7416,-197.674 50.3642,-196.838"/>
<polygon fill="midnightblue" stroke="midnightblue" points="51.4811,-193.515 40.8978,-193.021 48.8632,-200.007 51.4811,-193.515"/>
</g>
<!-- Node9 -->
<g id="node9" class="node"><title>Node9</title>
<polygon fill="white" stroke="#bfbfbf" points="67,-174 67,-193 196,-193 196,-174 67,-174"/>
<text text-anchor="middle" x="131.5" y="-181" font-family="Helvetica,sans-Serif" font-size="10.00">boost/algorithm/string.hpp</text>
</g>
<!-- Node5&#45;&gt;Node9 -->
<g id="edge8" class="edge"><title>Node5&#45;&gt;Node9</title>
<path fill="none" stroke="midnightblue" d="M563.295,-236.542C559.988,-235.986 556.688,-235.463 553.5,-235 399.181,-212.612 358.696,-222.215 204.5,-199 196.774,-197.837 188.625,-196.414 180.683,-194.919"/>
<polygon fill="midnightblue" stroke="midnightblue" points="181.266,-191.467 170.783,-193.002 179.935,-198.34 181.266,-191.467"/>
</g>
<!-- Node10 -->
<g id="node10" class="node"><title>Node10</title>
<polygon fill="white" stroke="#bfbfbf" points="214,-168.5 214,-198.5 321,-198.5 321,-168.5 214,-168.5"/>
<text text-anchor="start" x="222" y="-186.5" font-family="Helvetica,sans-Serif" font-size="10.00">boost/iterator/iterator</text>
<text text-anchor="middle" x="267.5" y="-175.5" font-family="Helvetica,sans-Serif" font-size="10.00">_facade.hpp</text>
</g>
<!-- Node5&#45;&gt;Node10 -->
<g id="edge9" class="edge"><title>Node5&#45;&gt;Node10</title>
<path fill="none" stroke="midnightblue" d="M563.264,-236.741C559.963,-236.141 556.674,-235.554 553.5,-235 457.69,-218.287 430.697,-218.254 330.95,-199.006"/>
<polygon fill="midnightblue" stroke="midnightblue" points="331.549,-195.557 321.065,-197.082 330.212,-202.428 331.549,-195.557"/>
</g>
<!-- Node11 -->
<g id="node11" class="node"><title>Node11</title>
<polygon fill="white" stroke="#bfbfbf" points="339.5,-174 339.5,-193 431.5,-193 431.5,-174 339.5,-174"/>
<text text-anchor="middle" x="385.5" y="-181" font-family="Helvetica,sans-Serif" font-size="10.00">common/config.h</text>
</g>
<!-- Node5&#45;&gt;Node11 -->
<g id="edge10" class="edge"><title>Node5&#45;&gt;Node11</title>
<path fill="none" stroke="midnightblue" d="M570.552,-235.475C532.619,-225.026 468.222,-207.287 426.28,-195.733"/>
<polygon fill="midnightblue" stroke="midnightblue" points="426.961,-192.291 416.39,-193.009 425.102,-199.039 426.961,-192.291"/>
</g>
<!-- Node12 -->
<g id="node12" class="node"><title>Node12</title>
<g id="a_node12"><a xlink:href="../../d6/dc2/definitions_8h.html" target="_top" xlink:title="common/definitions.h">
<polygon fill="white" stroke="black" points="514.5,-112.5 514.5,-131.5 624.5,-131.5 624.5,-112.5 514.5,-112.5"/>
<text text-anchor="middle" x="569.5" y="-119.5" font-family="Helvetica,sans-Serif" font-size="10.00">common/definitions.h</text>
</a>
</g>
</g>
<!-- Node5&#45;&gt;Node12 -->
<g id="edge11" class="edge"><title>Node5&#45;&gt;Node12</title>
<path fill="none" stroke="midnightblue" d="M564.82,-235.5C532.392,-227.154 488.693,-213.583 478.5,-199 470.607,-187.707 471.231,-179.704 478.5,-168 488.217,-152.355 505.162,-141.985 521.816,-135.19"/>
<polygon fill="midnightblue" stroke="midnightblue" points="523.371,-138.346 531.532,-131.589 520.939,-131.782 523.371,-138.346"/>
</g>
<!-- Node26 -->
<g id="node26" class="node"><title>Node26</title>
<polygon fill="white" stroke="#bfbfbf" points="488,-174 488,-193 601,-193 601,-174 488,-174"/>
<text text-anchor="middle" x="544.5" y="-181" font-family="Helvetica,sans-Serif" font-size="10.00">common/file_stream.h</text>
</g>
<!-- Node5&#45;&gt;Node26 -->
<g id="edge27" class="edge"><title>Node5&#45;&gt;Node26</title>
<path fill="none" stroke="midnightblue" d="M593.333,-235.475C584.614,-226.373 570.596,-211.741 559.811,-200.483"/>
<polygon fill="midnightblue" stroke="midnightblue" points="562.097,-197.809 552.652,-193.009 557.042,-202.651 562.097,-197.809"/>
</g>
<!-- Node27 -->
<g id="node27" class="node"><title>Node27</title>
<g id="a_node27"><a xlink:href="../../d9/d9b/batch_8h.html" target="_top" xlink:title="data/batch.h">
<polygon fill="white" stroke="black" points="873,-112.5 873,-131.5 944,-131.5 944,-112.5 873,-112.5"/>
<text text-anchor="middle" x="908.5" y="-119.5" font-family="Helvetica,sans-Serif" font-size="10.00">data/batch.h</text>
</a>
</g>
</g>
<!-- Node5&#45;&gt;Node27 -->
<g id="edge28" class="edge"><title>Node5&#45;&gt;Node27</title>
<path fill="none" stroke="midnightblue" d="M639.563,-244.91C690.271,-244.447 781.172,-237.635 846.5,-199 870.244,-184.958 888.765,-158.253 899.165,-140.536"/>
<polygon fill="midnightblue" stroke="midnightblue" points="902.251,-142.189 904.089,-131.755 896.145,-138.765 902.251,-142.189"/>
</g>
<!-- Node28 -->
<g id="node28" class="node"><title>Node28</title>
<g id="a_node28"><a xlink:href="../../de/daf/data_2dataset_8h.html" target="_top" xlink:title="data/dataset.h">
<polygon fill="white" stroke="black" points="619,-174 619,-193 698,-193 698,-174 619,-174"/>
<text text-anchor="middle" x="658.5" y="-181" font-family="Helvetica,sans-Serif" font-size="10.00">data/dataset.h</text>
</a>
</g>
</g>
<!-- Node5&#45;&gt;Node28 -->
<g id="edge30" class="edge"><title>Node5&#45;&gt;Node28</title>
<path fill="none" stroke="midnightblue" d="M609.667,-235.475C618.386,-226.373 632.404,-211.741 643.189,-200.483"/>
<polygon fill="midnightblue" stroke="midnightblue" points="645.958,-202.651 650.348,-193.009 640.903,-197.809 645.958,-202.651"/>
</g>
<!-- Node5&#45;&gt;Node29 -->
<g id="edge42" class="edge"><title>Node5&#45;&gt;Node29</title>
<path fill="none" stroke="midnightblue" d="M639.7,-239.552C685.748,-233.313 759.024,-220.279 775.5,-199 788.28,-182.494 782.328,-157.568 775.843,-140.808"/>
<polygon fill="midnightblue" stroke="midnightblue" points="779.046,-139.396 771.898,-131.575 772.609,-142.146 779.046,-139.396"/>
</g>
<!-- Node13 -->
<g id="node13" class="node"><title>Node13</title>
<polygon fill="white" stroke="#bfbfbf" points="374,-56.5 374,-75.5 433,-75.5 433,-56.5 374,-56.5"/>
<text text-anchor="middle" x="403.5" y="-63.5" font-family="Helvetica,sans-Serif" font-size="10.00">functional</text>
</g>
<!-- Node12&#45;&gt;Node13 -->
<g id="edge12" class="edge"><title>Node12&#45;&gt;Node13</title>
<path fill="none" stroke="midnightblue" d="M543.197,-112.444C515.149,-103.32 470.556,-88.8133 439.316,-78.6509"/>
<polygon fill="midnightblue" stroke="midnightblue" points="440.272,-75.2816 429.68,-75.5164 438.107,-81.9383 440.272,-75.2816"/>
</g>
<!-- Node14 -->
<g id="node14" class="node"><title>Node14</title>
<polygon fill="white" stroke="#bfbfbf" points="451.5,-56.5 451.5,-75.5 503.5,-75.5 503.5,-56.5 451.5,-56.5"/>
<text text-anchor="middle" x="477.5" y="-63.5" font-family="Helvetica,sans-Serif" font-size="10.00">memory</text>
</g>
<!-- Node12&#45;&gt;Node14 -->
<g id="edge13" class="edge"><title>Node12&#45;&gt;Node14</title>
<path fill="none" stroke="midnightblue" d="M554.719,-112.324C540.233,-103.822 517.927,-90.7288 501.007,-80.7975"/>
<polygon fill="midnightblue" stroke="midnightblue" points="502.641,-77.6981 492.245,-75.6545 499.097,-83.735 502.641,-77.6981"/>
</g>
<!-- Node15 -->
<g id="node15" class="node"><title>Node15</title>
<polygon fill="white" stroke="#bfbfbf" points="661,-0.5 661,-19.5 702,-19.5 702,-0.5 661,-0.5"/>
<text text-anchor="middle" x="681.5" y="-7.5" font-family="Helvetica,sans-Serif" font-size="10.00">string</text>
</g>
<!-- Node12&#45;&gt;Node15 -->
<g id="edge14" class="edge"><title>Node12&#45;&gt;Node15</title>
<path fill="none" stroke="midnightblue" d="M581.867,-112.352C593.821,-103.741 612.177,-89.8448 626.5,-76 642.194,-60.8302 658.081,-41.5357 668.718,-27.9212"/>
<polygon fill="midnightblue" stroke="midnightblue" points="671.569,-29.9548 674.894,-19.8953 666.022,-25.6855 671.569,-29.9548"/>
</g>
<!-- Node16 -->
<g id="node16" class="node"><title>Node16</title>
<polygon fill="white" stroke="#bfbfbf" points="1021.5,-0.5 1021.5,-19.5 1065.5,-19.5 1065.5,-0.5 1021.5,-0.5"/>
<text text-anchor="middle" x="1043.5" y="-7.5" font-family="Helvetica,sans-Serif" font-size="10.00">vector</text>
</g>
<!-- Node12&#45;&gt;Node16 -->
<g id="edge15" class="edge"><title>Node12&#45;&gt;Node16</title>
<path fill="none" stroke="midnightblue" d="M624.553,-117.45C713.878,-111.177 886.172,-96.8003 943.5,-76 952.025,-72.9067 995.716,-43.6049 1022.45,-25.4152"/>
<polygon fill="midnightblue" stroke="midnightblue" points="1024.5,-28.2528 1030.79,-19.7265 1020.56,-22.4699 1024.5,-28.2528"/>
</g>
<!-- Node17 -->
<g id="node17" class="node"><title>Node17</title>
<polygon fill="white" stroke="#bfbfbf" points="521.5,-56.5 521.5,-75.5 617.5,-75.5 617.5,-56.5 521.5,-56.5"/>
<text text-anchor="middle" x="569.5" y="-63.5" font-family="Helvetica,sans-Serif" font-size="10.00">common/logging.h</text>
</g>
<!-- Node12&#45;&gt;Node17 -->
<g id="edge16" class="edge"><title>Node12&#45;&gt;Node17</title>
<path fill="none" stroke="midnightblue" d="M569.5,-112.083C569.5,-105.006 569.5,-94.8611 569.5,-85.9865"/>
<polygon fill="midnightblue" stroke="midnightblue" points="573,-85.751 569.5,-75.7511 566,-85.7511 573,-85.751"/>
</g>
<!-- Node18 -->
<g id="node18" class="node"><title>Node18</title>
<g id="a_node18"><a xlink:href="../../da/d18/shape_8h.html" target="_top" xlink:title="shape.h">
<polygon fill="white" stroke="black" points="750,-56.5 750,-75.5 801,-75.5 801,-56.5 750,-56.5"/>
<text text-anchor="middle" x="775.5" y="-63.5" font-family="Helvetica,sans-Serif" font-size="10.00">shape.h</text>
</a>
</g>
</g>
<!-- Node12&#45;&gt;Node18 -->
<g id="edge17" class="edge"><title>Node12&#45;&gt;Node18</title>
<path fill="none" stroke="midnightblue" d="M602.141,-112.444C639.737,-102.588 701.289,-86.4533 740.037,-76.2961"/>
<polygon fill="midnightblue" stroke="midnightblue" points="741.059,-79.6464 749.845,-73.7251 739.284,-72.8752 741.059,-79.6464"/>
</g>
<!-- Node20 -->
<g id="node20" class="node"><title>Node20</title>
<g id="a_node20"><a xlink:href="../../d2/db7/keywords_8h.html" target="_top" xlink:title="keywords.h">
<polygon fill="white" stroke="black" points="289,-56.5 289,-75.5 356,-75.5 356,-56.5 289,-56.5"/>
<text text-anchor="middle" x="322.5" y="-63.5" font-family="Helvetica,sans-Serif" font-size="10.00">keywords.h</text>
</a>
</g>
</g>
<!-- Node12&#45;&gt;Node20 -->
<g id="edge21" class="edge"><title>Node12&#45;&gt;Node20</title>
<path fill="none" stroke="midnightblue" d="M530.362,-112.444C485.626,-102.663 412.601,-86.6981 366.085,-76.5286"/>
<polygon fill="midnightblue" stroke="midnightblue" points="366.812,-73.105 356.295,-74.3884 365.317,-79.9435 366.812,-73.105"/>
</g>
<!-- Node18&#45;&gt;Node7 -->
<g id="edge19" class="edge"><title>Node18&#45;&gt;Node7</title>
<path fill="none" stroke="midnightblue" d="M770.876,-56.083C767.044,-48.6913 761.476,-37.9533 756.735,-28.8111"/>
<polygon fill="midnightblue" stroke="midnightblue" points="759.748,-27.0175 752.038,-19.7511 753.534,-30.2398 759.748,-27.0175"/>
</g>
<!-- Node18&#45;&gt;Node15 -->
<g id="edge20" class="edge"><title>Node18&#45;&gt;Node15</title>
<path fill="none" stroke="midnightblue" d="M760.397,-56.324C745.597,-47.8215 722.806,-34.7288 705.518,-24.7975"/>
<polygon fill="midnightblue" stroke="midnightblue" points="706.98,-21.6009 696.565,-19.6545 703.493,-27.6707 706.98,-21.6009"/>
</g>
<!-- Node19 -->
<g id="node19" class="node"><title>Node19</title>
<polygon fill="white" stroke="#bfbfbf" points="792.5,-0.5 792.5,-19.5 838.5,-19.5 838.5,-0.5 792.5,-0.5"/>
<text text-anchor="middle" x="815.5" y="-7.5" font-family="Helvetica,sans-Serif" font-size="10.00">cstdint</text>
</g>
<!-- Node18&#45;&gt;Node19 -->
<g id="edge18" class="edge"><title>Node18&#45;&gt;Node19</title>
<path fill="none" stroke="midnightblue" d="M782.105,-56.083C787.755,-48.4554 796.045,-37.2645 802.951,-27.9408"/>
<polygon fill="midnightblue" stroke="midnightblue" points="805.878,-29.87 809.018,-19.7511 800.253,-25.7034 805.878,-29.87"/>
</g>
<!-- Node21 -->
<g id="node21" class="node"><title>Node21</title>
<polygon fill="white" stroke="#bfbfbf" points="340.5,-0.5 340.5,-19.5 418.5,-19.5 418.5,-0.5 340.5,-0.5"/>
<text text-anchor="middle" x="379.5" y="-7.5" font-family="Helvetica,sans-Serif" font-size="10.00">boost/any.hpp</text>
</g>
<!-- Node20&#45;&gt;Node21 -->
<g id="edge22" class="edge"><title>Node20&#45;&gt;Node21</title>
<path fill="none" stroke="midnightblue" d="M331.658,-56.324C340.001,-48.4196 352.532,-36.5482 362.677,-26.9377"/>
<polygon fill="midnightblue" stroke="midnightblue" points="365.323,-29.2522 370.175,-19.8339 360.509,-24.1705 365.323,-29.2522"/>
</g>
<!-- Node22 -->
<g id="node22" class="node"><title>Node22</title>
<polygon fill="white" stroke="#bfbfbf" points="589,-0.5 589,-19.5 624,-19.5 624,-0.5 589,-0.5"/>
<text text-anchor="middle" x="606.5" y="-7.5" font-family="Helvetica,sans-Serif" font-size="10.00">map</text>
</g>
<!-- Node20&#45;&gt;Node22 -->
<g id="edge23" class="edge"><title>Node20&#45;&gt;Node22</title>
<path fill="none" stroke="midnightblue" d="M356.41,-57.6508C359.145,-57.0832 361.868,-56.5267 364.5,-56 442.087,-40.4764 534.036,-23.8681 578.984,-15.8647"/>
<polygon fill="midnightblue" stroke="midnightblue" points="579.623,-19.3061 588.857,-14.1107 578.399,-12.414 579.623,-19.3061"/>
</g>
<!-- Node23 -->
<g id="node23" class="node"><title>Node23</title>
<polygon fill="white" stroke="#bfbfbf" points="437,-0.5 437,-19.5 496,-19.5 496,-0.5 437,-0.5"/>
<text text-anchor="middle" x="466.5" y="-7.5" font-family="Helvetica,sans-Serif" font-size="10.00">typeindex</text>
</g>
<!-- Node20&#45;&gt;Node23 -->
<g id="edge24" class="edge"><title>Node20&#45;&gt;Node23</title>
<path fill="none" stroke="midnightblue" d="M345.317,-56.4435C369.332,-47.4381 407.329,-33.1891 434.369,-23.049"/>
<polygon fill="midnightblue" stroke="midnightblue" points="435.655,-26.3049 443.79,-19.5164 433.197,-19.7506 435.655,-26.3049"/>
</g>
<!-- Node24 -->
<g id="node24" class="node"><title>Node24</title>
<polygon fill="white" stroke="#bfbfbf" points="142,-0.5 142,-19.5 193,-19.5 193,-0.5 142,-0.5"/>
<text text-anchor="middle" x="167.5" y="-7.5" font-family="Helvetica,sans-Serif" font-size="10.00">typeinfo</text>
</g>
<!-- Node20&#45;&gt;Node24 -->
<g id="edge25" class="edge"><title>Node20&#45;&gt;Node24</title>
<path fill="none" stroke="midnightblue" d="M297.94,-56.4435C271.977,-47.3986 230.832,-33.064 201.703,-22.9158"/>
<polygon fill="midnightblue" stroke="midnightblue" points="202.54,-19.5013 191.945,-19.5164 200.237,-26.1116 202.54,-19.5013"/>
</g>
<!-- Node25 -->
<g id="node25" class="node"><title>Node25</title>
<g id="a_node25"><a xlink:href="../../d3/de0/compile__time__crc32_8h.html" target="_top" xlink:title="compile_time_crc32.h">
<polygon fill="white" stroke="black" points="210.5,-0.5 210.5,-19.5 322.5,-19.5 322.5,-0.5 210.5,-0.5"/>
<text text-anchor="middle" x="266.5" y="-7.5" font-family="Helvetica,sans-Serif" font-size="10.00">compile_time_crc32.h</text>
</a>
</g>
</g>
<!-- Node20&#45;&gt;Node25 -->
<g id="edge26" class="edge"><title>Node20&#45;&gt;Node25</title>
<path fill="none" stroke="midnightblue" d="M313.503,-56.324C305.306,-48.4196 292.994,-36.5482 283.028,-26.9377"/>
<polygon fill="midnightblue" stroke="midnightblue" points="285.289,-24.2558 275.661,-19.8339 280.43,-29.2947 285.289,-24.2558"/>
</g>
<!-- Node27&#45;&gt;Node16 -->
<g id="edge29" class="edge"><title>Node27&#45;&gt;Node16</title>
<path fill="none" stroke="midnightblue" d="M944.219,-113.866C967.729,-107.511 997.705,-96.0146 1017.5,-76 1029.91,-63.4537 1036.61,-44.2314 1040.08,-29.941"/>
<polygon fill="midnightblue" stroke="midnightblue" points="1043.59,-30.2657 1042.22,-19.7595 1036.74,-28.8251 1043.59,-30.2657"/>
</g>
<!-- Node28&#45;&gt;Node12 -->
<g id="edge31" class="edge"><title>Node28&#45;&gt;Node12</title>
<path fill="none" stroke="midnightblue" d="M645.748,-173.975C631.473,-164.431 608.103,-148.807 590.992,-137.368"/>
<polygon fill="midnightblue" stroke="midnightblue" points="592.486,-134.157 582.228,-131.509 588.596,-139.977 592.486,-134.157"/>
</g>
<!-- Node28&#45;&gt;Node27 -->
<g id="edge32" class="edge"><title>Node28&#45;&gt;Node27</title>
<path fill="none" stroke="midnightblue" d="M686.137,-173.967C693.085,-171.92 700.545,-169.806 707.5,-168 760.468,-154.25 821.935,-140.859 862.812,-132.311"/>
<polygon fill="midnightblue" stroke="midnightblue" points="863.666,-135.708 872.743,-130.245 862.24,-128.855 863.666,-135.708"/>
</g>
<!-- Node28&#45;&gt;Node29 -->
<g id="edge33" class="edge"><title>Node28&#45;&gt;Node29</title>
<path fill="none" stroke="midnightblue" d="M674.117,-173.975C692.086,-164.166 721.821,-147.935 742.906,-136.425"/>
<polygon fill="midnightblue" stroke="midnightblue" points="744.811,-139.373 751.912,-131.509 741.458,-133.228 744.811,-139.373"/>
</g>
<!-- Node29&#45;&gt;Node15 -->
<g id="edge35" class="edge"><title>Node29&#45;&gt;Node15</title>
<path fill="none" stroke="midnightblue" d="M760.752,-112.368C746.496,-94.135 713.106,-51.4257 694.537,-27.6752"/>
<polygon fill="midnightblue" stroke="midnightblue" points="697.134,-25.3138 688.217,-19.5914 691.619,-29.6253 697.134,-25.3138"/>
</g>
<!-- Node29&#45;&gt;Node16 -->
<g id="edge36" class="edge"><title>Node29&#45;&gt;Node16</title>
<path fill="none" stroke="midnightblue" d="M804.416,-115.712C856.598,-107.804 948.88,-92.0952 978.5,-76 1000.1,-64.2632 1019.24,-43.1185 1031.06,-28.1361"/>
<polygon fill="midnightblue" stroke="midnightblue" points="1034.17,-29.8245 1037.43,-19.743 1028.59,-25.5925 1034.17,-29.8245"/>
</g>
<!-- Node29&#45;&gt;Node22 -->
<g id="edge34" class="edge"><title>Node29&#45;&gt;Node22</title>
<path fill="none" stroke="midnightblue" d="M754.867,-112.368C727.239,-93.4924 661.218,-48.385 627.337,-25.2367"/>
<polygon fill="midnightblue" stroke="midnightblue" points="629.306,-22.3429 619.075,-19.5914 625.357,-28.1227 629.306,-22.3429"/>
</g>
<!-- Node30 -->
<g id="node30" class="node"><title>Node30</title>
<g id="a_node30"><a xlink:href="../../d0/d16/marian_2src_2data_2types_8h.html" target="_top" xlink:title="data/types.h">
<polygon fill="white" stroke="black" points="863,-56.5 863,-75.5 934,-75.5 934,-56.5 863,-56.5"/>
<text text-anchor="middle" x="898.5" y="-63.5" font-family="Helvetica,sans-Serif" font-size="10.00">data/types.h</text>
</a>
</g>
</g>
<!-- Node29&#45;&gt;Node30 -->
<g id="edge37" class="edge"><title>Node29&#45;&gt;Node30</title>
<path fill="none" stroke="midnightblue" d="M788.257,-112.444C809.816,-103.557 843.763,-89.5632 868.294,-79.4514"/>
<polygon fill="midnightblue" stroke="midnightblue" points="869.928,-82.5634 877.84,-75.5164 867.261,-76.0917 869.928,-82.5634"/>
</g>
<!-- Node30&#45;&gt;Node16 -->
<g id="edge41" class="edge"><title>Node30&#45;&gt;Node16</title>
<path fill="none" stroke="midnightblue" d="M921.476,-56.4435C945.799,-47.3851 984.369,-33.0213 1011.63,-22.8705"/>
<polygon fill="midnightblue" stroke="midnightblue" points="1012.96,-26.109 1021.11,-19.339 1010.52,-19.5491 1012.96,-26.109"/>
</g>
<!-- Node30&#45;&gt;Node19 -->
<g id="edge38" class="edge"><title>Node30&#45;&gt;Node19</title>
<path fill="none" stroke="midnightblue" d="M885.165,-56.324C872.338,-47.979 852.715,-35.2122 837.56,-25.3524"/>
<polygon fill="midnightblue" stroke="midnightblue" points="839.093,-22.1742 828.802,-19.6545 835.276,-28.0417 839.093,-22.1742"/>
</g>
<!-- Node31 -->
<g id="node31" class="node"><title>Node31</title>
<polygon fill="white" stroke="#bfbfbf" points="958,-0.5 958,-19.5 1003,-19.5 1003,-0.5 958,-0.5"/>
<text text-anchor="middle" x="980.5" y="-7.5" font-family="Helvetica,sans-Serif" font-size="10.00">cstdlib</text>
</g>
<!-- Node30&#45;&gt;Node31 -->
<g id="edge39" class="edge"><title>Node30&#45;&gt;Node31</title>
<path fill="none" stroke="midnightblue" d="M911.675,-56.324C924.347,-47.979 943.733,-35.2122 958.706,-25.3524"/>
<polygon fill="midnightblue" stroke="midnightblue" points="960.931,-28.0776 967.358,-19.6545 957.081,-22.2313 960.931,-28.0776"/>
</g>
<!-- Node32 -->
<g id="node32" class="node"><title>Node32</title>
<polygon fill="white" stroke="#bfbfbf" points="857,-0.5 857,-19.5 940,-19.5 940,-0.5 857,-0.5"/>
<text text-anchor="middle" x="898.5" y="-7.5" font-family="Helvetica,sans-Serif" font-size="10.00">unordered_map</text>
</g>
<!-- Node30&#45;&gt;Node32 -->
<g id="edge40" class="edge"><title>Node30&#45;&gt;Node32</title>
<path fill="none" stroke="midnightblue" d="M898.5,-56.083C898.5,-49.0059 898.5,-38.8611 898.5,-29.9865"/>
<polygon fill="midnightblue" stroke="midnightblue" points="902,-29.751 898.5,-19.7511 895,-29.7511 902,-29.751"/>
</g>
</g>
</svg>
        <g id="navigator" transform="translate(0 0)" fill="#404254">
                <rect fill="#f2f5e9" fill-opacity="0.5" stroke="#606060" stroke-width=".5" x="0" y="0" width="60" height="60"/>
                <use id="zoomplus" xlink:href="#zoomPlus" x="17" y="9" onmousedown="handleZoom(evt,'in')"/>
                <use id="zoomminus" xlink:href="#zoomMin" x="42" y="9" onmousedown="handleZoom(evt,'out')"/>
                <use id="reset" xlink:href="#resetDef" x="30" y="36" onmousedown="handleReset()"/>
                <g id="arrowUp" xlink:href="#dirArrow" transform="translate(30 24)" onmousedown="handlePan(0,-1)">
                  <use xlink:href="#rim" fill="#404040">
                        <set attributeName="fill" to="#808080" begin="arrowUp.mouseover" end="arrowUp.mouseout"/>
                  </use>
                  <path fill="none" stroke="white" stroke-width="1.5" d="M0,-3.0v7 M-2.5,-0.5L0,-3.0L2.5,-0.5"/>
                </g>
                <g id="arrowRight" xlink:href="#dirArrow" transform="rotate(90) translate(36 -43)" onmousedown="handlePan(1,0)">
                  <use xlink:href="#rim" fill="#404040">
                        <set attributeName="fill" to="#808080" begin="arrowRight.mouseover" end="arrowRight.mouseout"/>
                  </use>
                  <path fill="none" stroke="white" stroke-width="1.5" d="M0,-3.0v7 M-2.5,-0.5L0,-3.0L2.5,-0.5"/>
                </g>
                <g id="arrowDown" xlink:href="#dirArrow" transform="rotate(180) translate(-30 -48)" onmousedown="handlePan(0,1)">
                  <use xlink:href="#rim" fill="#404040">
                        <set attributeName="fill" to="#808080" begin="arrowDown.mouseover" end="arrowDown.mouseout"/>
                  </use>
                  <path fill="none" stroke="white" stroke-width="1.5" d="M0,-3.0v7 M-2.5,-0.5L0,-3.0L2.5,-0.5"/>
                </g>
                <g id="arrowLeft" xlink:href="#dirArrow" transform="rotate(270) translate(-36 17)" onmousedown="handlePan(-1,0)">
                  <use xlink:href="#rim" fill="#404040">
                        <set attributeName="fill" to="#808080" begin="arrowLeft.mouseover" end="arrowLeft.mouseout"/>
                  </use>
                  <path fill="none" stroke="white" stroke-width="1.5" d="M0,-3.0v7 M-2.5,-0.5L0,-3.0L2.5,-0.5"/>
                </g>
        </g>
        <svg viewBox="0 0 15 15" width="100%" height="30px" preserveAspectRatio="xMaxYMin meet">
         <g id="arrow_out" transform="scale(0.3 0.3)">
          <a xlink:href="batch__stats_8h__incl_org.svg" target="_base">
           <rect id="button" ry="5" rx="5" y="6" x="6" height="38" width="38"
                fill="#f2f5e9" fill-opacity="0.5" stroke="#606060" stroke-width="1.0"/>
           <path id="arrow"
             d="M 11.500037,31.436501 C 11.940474,20.09759 22.043105,11.32322 32.158766,21.979434 L 37.068811,17.246167 C 37.068811,17.246167 37.088388,32 37.088388,32 L 22.160133,31.978069 C 22.160133,31.978069 26.997745,27.140456 26.997745,27.140456 C 18.528582,18.264221 13.291696,25.230495 11.500037,31.436501 z"
             style="fill:#404040;"/>
          </a>
         </g>
        </svg>
</svg>
