<?xml version="1.0" encoding="UTF-8" standalone="no"?>
<!DOCTYPE svg PUBLIC "-//W3C//DTD SVG 1.1//EN"
 "http://www.w3.org/Graphics/SVG/1.1/DTD/svg11.dtd">
<!-- Generated by graphviz version 2.38.0 (20140413.2041)
 -->
<!-- Title: history.h Pages: 1 -->
<svg width="402pt" height="196pt"
 viewBox="0.00 0.00 401.50 196.00" xmlns="http://www.w3.org/2000/svg" xmlns:xlink="http://www.w3.org/1999/xlink">
<g id="graph0" class="graph" transform="scale(1 1) rotate(0) translate(4 192)">
<title>history.h</title>
<polygon fill="white" stroke="none" points="-4,4 -4,-192 397.5,-192 397.5,4 -4,4"/>
<!-- Node1 -->
<g id="node1" class="node"><title>Node1</title>
<polygon fill="#bfbfbf" stroke="black" points="62.5,-168.5 62.5,-187.5 116.5,-187.5 116.5,-168.5 62.5,-168.5"/>
<text text-anchor="middle" x="89.5" y="-175.5" font-family="Helvetica,sans-Serif" font-size="10.00">history.h</text>
</g>
<!-- Node2 -->
<g id="node2" class="node"><title>Node2</title>
<polygon fill="white" stroke="#bfbfbf" points="0,-112.5 0,-131.5 43,-131.5 43,-112.5 0,-112.5"/>
<text text-anchor="middle" x="21.5" y="-119.5" font-family="Helvetica,sans-Serif" font-size="10.00">queue</text>
</g>
<!-- Node1&#45;&gt;Node2 -->
<g id="edge1" class="edge"><title>Node1&#45;&gt;Node2</title>
<path fill="none" stroke="midnightblue" d="M78.5746,-168.324C68.3254,-160.185 52.7794,-147.839 40.499,-138.087"/>
<polygon fill="midnightblue" stroke="midnightblue" points="42.6319,-135.312 32.6242,-131.834 38.2787,-140.794 42.6319,-135.312"/>
</g>
<!-- Node3 -->
<g id="node3" class="node"><title>Node3</title>
<polygon fill="white" stroke="#bfbfbf" points="61.5,-112.5 61.5,-131.5 117.5,-131.5 117.5,-112.5 61.5,-112.5"/>
<text text-anchor="middle" x="89.5" y="-119.5" font-family="Helvetica,sans-Serif" font-size="10.00">algorithm</text>
</g>
<!-- Node1&#45;&gt;Node3 -->
<g id="edge2" class="edge"><title>Node1&#45;&gt;Node3</title>
<path fill="none" stroke="midnightblue" d="M89.5,-168.083C89.5,-161.006 89.5,-150.861 89.5,-141.986"/>
<polygon fill="midnightblue" stroke="midnightblue" points="93.0001,-141.751 89.5,-131.751 86.0001,-141.751 93.0001,-141.751"/>
</g>
<!-- Node4 -->
<g id="node4" class="node"><title>Node4</title>
<g id="a_node4"><a xlink:href="$d6/d52/amun_2common_2hypothesis_8h.html" xlink:title="hypothesis.h">
<polygon fill="white" stroke="black" points="135.5,-112.5 135.5,-131.5 207.5,-131.5 207.5,-112.5 135.5,-112.5"/>
<text text-anchor="middle" x="171.5" y="-119.5" font-family="Helvetica,sans-Serif" font-size="10.00">hypothesis.h</text>
</a>
</g>
</g>
<!-- Node1&#45;&gt;Node4 -->
<g id="edge3" class="edge"><title>Node1&#45;&gt;Node4</title>
<path fill="none" stroke="midnightblue" d="M102.675,-168.324C115.347,-159.979 134.733,-147.212 149.706,-137.352"/>
<polygon fill="midnightblue" stroke="midnightblue" points="151.931,-140.078 158.358,-131.655 148.081,-134.231 151.931,-140.078"/>
</g>
<!-- Node5 -->
<g id="node5" class="node"><title>Node5</title>
<polygon fill="white" stroke="#bfbfbf" points="66.5,-0.5 66.5,-19.5 118.5,-19.5 118.5,-0.5 66.5,-0.5"/>
<text text-anchor="middle" x="92.5" y="-7.5" font-family="Helvetica,sans-Serif" font-size="10.00">memory</text>
</g>
<!-- Node4&#45;&gt;Node5 -->
<g id="edge4" class="edge"><title>Node4&#45;&gt;Node5</title>
<path fill="none" stroke="midnightblue" d="M145.747,-112.402C129.012,-105.378 108.356,-93.6833 97.5,-76 89.0802,-62.2855 88.471,-43.7537 89.5935,-29.9866"/>
<polygon fill="midnightblue" stroke="midnightblue" points="93.105,-30.0966 90.8102,-19.7533 86.1539,-29.2701 93.105,-30.0966"/>
</g>
<!-- Node6 -->
<g id="node6" class="node"><title>Node6</title>
<g id="a_node6"><a xlink:href="$dc/de7/amun_2common_2types_8h.html" xlink:title="common/types.h">
<polygon fill="white" stroke="black" points="254,-56.5 254,-75.5 343,-75.5 343,-56.5 254,-56.5"/>
<text text-anchor="middle" x="298.5" y="-63.5" font-family="Helvetica,sans-Serif" font-size="10.00">common/types.h</text>
</a>
</g>
</g>
<!-- Node4&#45;&gt;Node6 -->
<g id="edge5" class="edge"><title>Node4&#45;&gt;Node6</title>
<path fill="none" stroke="midnightblue" d="M191.624,-112.444C212.524,-103.557 245.435,-89.5632 269.216,-79.4514"/>
<polygon fill="midnightblue" stroke="midnightblue" points="270.638,-82.6504 278.471,-75.5164 267.898,-76.2085 270.638,-82.6504"/>
</g>
<!-- Node11 -->
<g id="node11" class="node"><title>Node11</title>
<g id="a_node11"><a xlink:href="$d3/d59/soft__alignment_8h.html" xlink:title="common/soft_alignment.h">
<polygon fill="white" stroke="black" points="107,-56.5 107,-75.5 236,-75.5 236,-56.5 107,-56.5"/>
<text text-anchor="middle" x="171.5" y="-63.5" font-family="Helvetica,sans-Serif" font-size="10.00">common/soft_alignment.h</text>
</a>
</g>
</g>
<!-- Node4&#45;&gt;Node11 -->
<g id="edge10" class="edge"><title>Node4&#45;&gt;Node11</title>
<path fill="none" stroke="midnightblue" d="M171.5,-112.083C171.5,-105.006 171.5,-94.8611 171.5,-85.9865"/>
<polygon fill="midnightblue" stroke="midnightblue" points="175,-85.751 171.5,-75.7511 168,-85.7511 175,-85.751"/>
</g>
<!-- Node7 -->
<g id="node7" class="node"><title>Node7</title>
<polygon fill="white" stroke="#bfbfbf" points="212,-0.5 212,-19.5 257,-19.5 257,-0.5 212,-0.5"/>
<text text-anchor="middle" x="234.5" y="-7.5" font-family="Helvetica,sans-Serif" font-size="10.00">cstdlib</text>
</g>
<!-- Node6&#45;&gt;Node7 -->
<g id="edge6" class="edge"><title>Node6&#45;&gt;Node7</title>
<path fill="none" stroke="midnightblue" d="M288.217,-56.324C278.664,-48.2631 264.22,-36.0765 252.716,-26.3695"/>
<polygon fill="midnightblue" stroke="midnightblue" points="254.87,-23.6076 244.97,-19.8339 250.356,-28.9577 254.87,-23.6076"/>
</g>
<!-- Node8 -->
<g id="node8" class="node"><title>Node8</title>
<polygon fill="white" stroke="#bfbfbf" points="275.5,-0.5 275.5,-19.5 321.5,-19.5 321.5,-0.5 275.5,-0.5"/>
<text text-anchor="middle" x="298.5" y="-7.5" font-family="Helvetica,sans-Serif" font-size="10.00">cstdint</text>
</g>
<!-- Node6&#45;&gt;Node8 -->
<g id="edge7" class="edge"><title>Node6&#45;&gt;Node8</title>
<path fill="none" stroke="midnightblue" d="M298.5,-56.083C298.5,-49.0059 298.5,-38.8611 298.5,-29.9865"/>
<polygon fill="midnightblue" stroke="midnightblue" points="302,-29.751 298.5,-19.7511 295,-29.7511 302,-29.751"/>
</g>
<!-- Node9 -->
<g id="node9" class="node"><title>Node9</title>
<polygon fill="white" stroke="#bfbfbf" points="149.5,-0.5 149.5,-19.5 193.5,-19.5 193.5,-0.5 149.5,-0.5"/>
<text text-anchor="middle" x="171.5" y="-7.5" font-family="Helvetica,sans-Serif" font-size="10.00">vector</text>
</g>
<!-- Node6&#45;&gt;Node9 -->
<g id="edge8" class="edge"><title>Node6&#45;&gt;Node9</title>
<path fill="none" stroke="midnightblue" d="M278.376,-56.4435C257.476,-47.5566 224.565,-33.5632 200.784,-23.4514"/>
<polygon fill="midnightblue" stroke="midnightblue" points="202.102,-20.2085 191.529,-19.5164 199.362,-26.6504 202.102,-20.2085"/>
</g>
<!-- Node10 -->
<g id="node10" class="node"><title>Node10</title>
<polygon fill="white" stroke="#bfbfbf" points="339.5,-0.5 339.5,-19.5 393.5,-19.5 393.5,-0.5 339.5,-0.5"/>
<text text-anchor="middle" x="366.5" y="-7.5" font-family="Helvetica,sans-Serif" font-size="10.00">iostream</text>
</g>
<!-- Node6&#45;&gt;Node10 -->
<g id="edge9" class="edge"><title>Node6&#45;&gt;Node10</title>
<path fill="none" stroke="midnightblue" d="M309.425,-56.324C319.675,-48.1849 335.221,-35.8395 347.501,-26.0874"/>
<polygon fill="midnightblue" stroke="midnightblue" points="349.721,-28.7937 355.376,-19.8339 345.368,-23.3119 349.721,-28.7937"/>
</g>
<!-- Node11&#45;&gt;Node5 -->
<g id="edge12" class="edge"><title>Node11&#45;&gt;Node5</title>
<path fill="none" stroke="midnightblue" d="M158.807,-56.324C146.599,-47.979 127.922,-35.2122 113.497,-25.3524"/>
<polygon fill="midnightblue" stroke="midnightblue" points="115.392,-22.4082 105.161,-19.6545 111.442,-28.1871 115.392,-22.4082"/>
</g>
<!-- Node11&#45;&gt;Node9 -->
<g id="edge11" class="edge"><title>Node11&#45;&gt;Node9</title>
<path fill="none" stroke="midnightblue" d="M171.5,-56.083C171.5,-49.0059 171.5,-38.8611 171.5,-29.9865"/>
<polygon fill="midnightblue" stroke="midnightblue" points="175,-29.751 171.5,-19.7511 168,-29.7511 175,-29.751"/>
</g>
</g>
</svg>
