<?xml version="1.0" encoding="UTF-8" standalone="no"?>
<!DOCTYPE svg PUBLIC "-//W3C//DTD SVG 1.1//EN"
 "http://www.w3.org/Graphics/SVG/1.1/DTD/svg11.dtd">
<!-- Generated by graphviz version 2.38.0 (20140413.2041)
 -->
<!-- Title: amunmt::SourceIndependentScorer Pages: 1 -->
<svg width="1406pt" height="1256pt"
 viewBox="0.00 0.00 1406.00 1256.00" xmlns="http://www.w3.org/2000/svg" xmlns:xlink="http://www.w3.org/1999/xlink">
<g id="graph0" class="graph" transform="scale(1 1) rotate(0) translate(4 1252)">
<title>amunmt::SourceIndependentScorer</title>
<polygon fill="white" stroke="none" points="-4,4 -4,-1252 1402,-1252 1402,4 -4,4"/>
<!-- Node1 -->
<g id="node1" class="node"><title>Node1</title>
<polygon fill="#bfbfbf" stroke="black" points="1139,-0.5 1139,-90.5 1289,-90.5 1289,-0.5 1139,-0.5"/>
<text text-anchor="start" x="1147" y="-78.5" font-family="Helvetica,sans-Serif" font-size="10.00">amunmt::SourceIndependent</text>
<text text-anchor="middle" x="1214" y="-67.5" font-family="Helvetica,sans-Serif" font-size="10.00">Scorer</text>
<polyline fill="none" stroke="black" points="1139,-60.5 1289,-60.5 "/>
<text text-anchor="middle" x="1214" y="-48.5" font-family="Helvetica,sans-Serif" font-size="10.00"> </text>
<polyline fill="none" stroke="black" points="1139,-41.5 1289,-41.5 "/>
<text text-anchor="start" x="1147" y="-29.5" font-family="Helvetica,sans-Serif" font-size="10.00">+ SourceIndependentScorer()</text>
<text text-anchor="start" x="1147" y="-18.5" font-family="Helvetica,sans-Serif" font-size="10.00">+ ~SourceIndependentScorer()</text>
<text text-anchor="start" x="1147" y="-7.5" font-family="Helvetica,sans-Serif" font-size="10.00">+ SetSource()</text>
</g>
<!-- Node2 -->
<g id="node2" class="node"><title>Node2</title>
<g id="a_node2"><a xlink:href="../../db/d52/classamunmt_1_1Scorer.html" target="_top" xlink:title="{amunmt::Scorer\n|# config_\l# tab_\l|+ Scorer()\l+ ~Scorer()\l+ Decode()\l+ BeginSentenceState()\l+ AssembleBeamState()\l+ Encode()\l+ Filter()\l+ NewState()\l+ GetVocabSize()\l+ CleanUpAfterSentence()\l+ GetName()\l+ GetProbs()\l+ GetNBest()\l+ GetBias()\l}">
<polygon fill="white" stroke="black" points="1148,-128.5 1148,-339.5 1280,-339.5 1280,-128.5 1148,-128.5"/>
<text text-anchor="middle" x="1214" y="-327.5" font-family="Helvetica,sans-Serif" font-size="10.00">amunmt::Scorer</text>
<polyline fill="none" stroke="black" points="1148,-320.5 1280,-320.5 "/>
<text text-anchor="start" x="1156" y="-308.5" font-family="Helvetica,sans-Serif" font-size="10.00"># config_</text>
<text text-anchor="start" x="1156" y="-297.5" font-family="Helvetica,sans-Serif" font-size="10.00"># tab_</text>
<polyline fill="none" stroke="black" points="1148,-290.5 1280,-290.5 "/>
<text text-anchor="start" x="1156" y="-278.5" font-family="Helvetica,sans-Serif" font-size="10.00">+ Scorer()</text>
<text text-anchor="start" x="1156" y="-267.5" font-family="Helvetica,sans-Serif" font-size="10.00">+ ~Scorer()</text>
<text text-anchor="start" x="1156" y="-256.5" font-family="Helvetica,sans-Serif" font-size="10.00">+ Decode()</text>
<text text-anchor="start" x="1156" y="-245.5" font-family="Helvetica,sans-Serif" font-size="10.00">+ BeginSentenceState()</text>
<text text-anchor="start" x="1156" y="-234.5" font-family="Helvetica,sans-Serif" font-size="10.00">+ AssembleBeamState()</text>
<text text-anchor="start" x="1156" y="-223.5" font-family="Helvetica,sans-Serif" font-size="10.00">+ Encode()</text>
<text text-anchor="start" x="1156" y="-212.5" font-family="Helvetica,sans-Serif" font-size="10.00">+ Filter()</text>
<text text-anchor="start" x="1156" y="-201.5" font-family="Helvetica,sans-Serif" font-size="10.00">+ NewState()</text>
<text text-anchor="start" x="1156" y="-190.5" font-family="Helvetica,sans-Serif" font-size="10.00">+ GetVocabSize()</text>
<text text-anchor="start" x="1156" y="-179.5" font-family="Helvetica,sans-Serif" font-size="10.00">+ CleanUpAfterSentence()</text>
<text text-anchor="start" x="1156" y="-168.5" font-family="Helvetica,sans-Serif" font-size="10.00">+ GetName()</text>
<text text-anchor="start" x="1156" y="-157.5" font-family="Helvetica,sans-Serif" font-size="10.00">+ GetProbs()</text>
<text text-anchor="start" x="1156" y="-146.5" font-family="Helvetica,sans-Serif" font-size="10.00">+ GetNBest()</text>
<text text-anchor="start" x="1156" y="-135.5" font-family="Helvetica,sans-Serif" font-size="10.00">+ GetBias()</text>
</a>
</g>
</g>
<!-- Node2&#45;&gt;Node1 -->
<g id="edge1" class="edge"><title>Node2&#45;&gt;Node1</title>
<path fill="none" stroke="midnightblue" d="M1214,-118.234C1214,-108.667 1214,-99.4198 1214,-90.9252"/>
<polygon fill="none" stroke="midnightblue" points="1210.5,-118.302 1214,-128.302 1217.5,-118.302 1210.5,-118.302"/>
</g>
<!-- Node3 -->
<g id="node3" class="node"><title>Node3</title>
<g id="a_node3"><a xlink:href="../../d7/d4e/classamunmt_1_1God.html" target="_top" xlink:title="{amunmt::God\n|&#45; filter_\l&#45; info_\l&#45; progress_\l&#45; threadIncr_\l&#45; accessLock_\l&#45; returnNBestList_\l&#45; useFusedSoftmax_\l|+ God()\l+ ~God()\l+ Init()\l+ Init()\l+ Cleanup()\l+ Has()\l+ Get()\l+ Get()\l+ GetSourceVocab()\l+ GetTargetVocab()\land 16 more...\l&#45; LoadScorers()\l&#45; LoadFiltering()\l&#45; LoadPrePostProcessing()\l}">
<polygon fill="white" stroke="black" points="688,-387.5 688,-653.5 822,-653.5 822,-387.5 688,-387.5"/>
<text text-anchor="middle" x="755" y="-641.5" font-family="Helvetica,sans-Serif" font-size="10.00">amunmt::God</text>
<polyline fill="none" stroke="black" points="688,-634.5 822,-634.5 "/>
<text text-anchor="start" x="696" y="-622.5" font-family="Helvetica,sans-Serif" font-size="10.00">&#45; filter_</text>
<text text-anchor="start" x="696" y="-611.5" font-family="Helvetica,sans-Serif" font-size="10.00">&#45; info_</text>
<text text-anchor="start" x="696" y="-600.5" font-family="Helvetica,sans-Serif" font-size="10.00">&#45; progress_</text>
<text text-anchor="start" x="696" y="-589.5" font-family="Helvetica,sans-Serif" font-size="10.00">&#45; threadIncr_</text>
<text text-anchor="start" x="696" y="-578.5" font-family="Helvetica,sans-Serif" font-size="10.00">&#45; accessLock_</text>
<text text-anchor="start" x="696" y="-567.5" font-family="Helvetica,sans-Serif" font-size="10.00">&#45; returnNBestList_</text>
<text text-anchor="start" x="696" y="-556.5" font-family="Helvetica,sans-Serif" font-size="10.00">&#45; useFusedSoftmax_</text>
<polyline fill="none" stroke="black" points="688,-549.5 822,-549.5 "/>
<text text-anchor="start" x="696" y="-537.5" font-family="Helvetica,sans-Serif" font-size="10.00">+ God()</text>
<text text-anchor="start" x="696" y="-526.5" font-family="Helvetica,sans-Serif" font-size="10.00">+ ~God()</text>
<text text-anchor="start" x="696" y="-515.5" font-family="Helvetica,sans-Serif" font-size="10.00">+ Init()</text>
<text text-anchor="start" x="696" y="-504.5" font-family="Helvetica,sans-Serif" font-size="10.00">+ Init()</text>
<text text-anchor="start" x="696" y="-493.5" font-family="Helvetica,sans-Serif" font-size="10.00">+ Cleanup()</text>
<text text-anchor="start" x="696" y="-482.5" font-family="Helvetica,sans-Serif" font-size="10.00">+ Has()</text>
<text text-anchor="start" x="696" y="-471.5" font-family="Helvetica,sans-Serif" font-size="10.00">+ Get()</text>
<text text-anchor="start" x="696" y="-460.5" font-family="Helvetica,sans-Serif" font-size="10.00">+ Get()</text>
<text text-anchor="start" x="696" y="-449.5" font-family="Helvetica,sans-Serif" font-size="10.00">+ GetSourceVocab()</text>
<text text-anchor="start" x="696" y="-438.5" font-family="Helvetica,sans-Serif" font-size="10.00">+ GetTargetVocab()</text>
<text text-anchor="start" x="696" y="-427.5" font-family="Helvetica,sans-Serif" font-size="10.00">and 16 more...</text>
<text text-anchor="start" x="696" y="-416.5" font-family="Helvetica,sans-Serif" font-size="10.00">&#45; LoadScorers()</text>
<text text-anchor="start" x="696" y="-405.5" font-family="Helvetica,sans-Serif" font-size="10.00">&#45; LoadFiltering()</text>
<text text-anchor="start" x="696" y="-394.5" font-family="Helvetica,sans-Serif" font-size="10.00">&#45; LoadPrePostProcessing()</text>
</a>
</g>
</g>
<!-- Node3&#45;&gt;Node2 -->
<g id="edge2" class="edge"><title>Node3&#45;&gt;Node2</title>
<path fill="none" stroke="#404040" d="M822.234,-477.827C906.102,-425.843 1049.16,-337.172 1137.24,-282.576"/>
<polygon fill="none" stroke="#404040" points="1137.5,-282.414 1140.5,-275.853 1147.7,-276.092 1144.71,-282.653 1137.5,-282.414"/>
<text text-anchor="middle" x="1027" y="-361" font-family="Helvetica,sans-Serif" font-size="10.00"> #god_</text>
</g>
<!-- Node4 -->
<g id="node4" class="node"><title>Node4</title>
<polygon fill="white" stroke="#bfbfbf" points="1114.5,-745.5 1114.5,-813.5 1249.5,-813.5 1249.5,-745.5 1114.5,-745.5"/>
<text text-anchor="start" x="1122.5" y="-801.5" font-family="Helvetica,sans-Serif" font-size="10.00">std::vector&lt; Postprocessor</text>
<text text-anchor="middle" x="1182" y="-790.5" font-family="Helvetica,sans-Serif" font-size="10.00">Ptr &gt;</text>
<polyline fill="none" stroke="#bfbfbf" points="1114.5,-783.5 1249.5,-783.5 "/>
<text text-anchor="middle" x="1182" y="-771.5" font-family="Helvetica,sans-Serif" font-size="10.00"> </text>
<polyline fill="none" stroke="#bfbfbf" points="1114.5,-764.5 1249.5,-764.5 "/>
<text text-anchor="middle" x="1182" y="-752.5" font-family="Helvetica,sans-Serif" font-size="10.00"> </text>
</g>
<!-- Node4&#45;&gt;Node3 -->
<g id="edge3" class="edge"><title>Node4&#45;&gt;Node3</title>
<path fill="none" stroke="#404040" d="M1137.2,-745.362C1126.73,-737.86 1115.56,-730.036 1105,-723 1014.4,-662.63 904.937,-601.362 832.829,-562.495"/>
<polygon fill="none" stroke="#404040" points="832.597,-562.371 825.419,-563.054 822.027,-556.69 829.206,-556.007 832.597,-562.371"/>
<text text-anchor="middle" x="1108.5" y="-686" font-family="Helvetica,sans-Serif" font-size="10.00"> &#45;postprocessors_</text>
</g>
<!-- Node5 -->
<g id="node5" class="node"><title>Node5</title>
<polygon fill="white" stroke="#bfbfbf" points="0,-745.5 0,-813.5 110,-813.5 110,-745.5 0,-745.5"/>
<text text-anchor="start" x="8" y="-801.5" font-family="Helvetica,sans-Serif" font-size="10.00">std::map&lt; std::string,</text>
<text text-anchor="middle" x="55" y="-790.5" font-family="Helvetica,sans-Serif" font-size="10.00"> LoaderPtr &gt;</text>
<polyline fill="none" stroke="#bfbfbf" points="0,-783.5 110,-783.5 "/>
<text text-anchor="middle" x="55" y="-771.5" font-family="Helvetica,sans-Serif" font-size="10.00"> </text>
<polyline fill="none" stroke="#bfbfbf" points="0,-764.5 110,-764.5 "/>
<text text-anchor="middle" x="55" y="-752.5" font-family="Helvetica,sans-Serif" font-size="10.00"> </text>
</g>
<!-- Node5&#45;&gt;Node3 -->
<g id="edge4" class="edge"><title>Node5&#45;&gt;Node3</title>
<path fill="none" stroke="#404040" d="M89.8433,-745.274C98.9496,-737.452 109.021,-729.506 119,-723 163.466,-694.008 177.309,-690.671 227,-672 382.722,-613.488 571.516,-564.808 675.916,-539.749"/>
<polygon fill="none" stroke="#404040" points="675.932,-539.746 680.839,-534.461 687.604,-536.958 682.697,-542.243 675.932,-539.746"/>
<text text-anchor="middle" x="258" y="-697" font-family="Helvetica,sans-Serif" font-size="10.00"> &#45;gpuLoaders_</text>
<text text-anchor="middle" x="258" y="-686" font-family="Helvetica,sans-Serif" font-size="10.00">&#45;fpgaLoaders_</text>
<text text-anchor="middle" x="258" y="-675" font-family="Helvetica,sans-Serif" font-size="10.00">&#45;cpuLoaders_</text>
</g>
<!-- Node6 -->
<g id="node6" class="node"><title>Node6</title>
<polygon fill="white" stroke="#bfbfbf" points="128.5,-745.5 128.5,-813.5 247.5,-813.5 247.5,-745.5 128.5,-745.5"/>
<text text-anchor="start" x="136.5" y="-801.5" font-family="Helvetica,sans-Serif" font-size="10.00">std::vector&lt; std::vector</text>
<text text-anchor="middle" x="188" y="-790.5" font-family="Helvetica,sans-Serif" font-size="10.00">&lt; PreprocessorPtr &gt; &gt;</text>
<polyline fill="none" stroke="#bfbfbf" points="128.5,-783.5 247.5,-783.5 "/>
<text text-anchor="middle" x="188" y="-771.5" font-family="Helvetica,sans-Serif" font-size="10.00"> </text>
<polyline fill="none" stroke="#bfbfbf" points="128.5,-764.5 247.5,-764.5 "/>
<text text-anchor="middle" x="188" y="-752.5" font-family="Helvetica,sans-Serif" font-size="10.00"> </text>
</g>
<!-- Node6&#45;&gt;Node3 -->
<g id="edge5" class="edge"><title>Node6&#45;&gt;Node3</title>
<path fill="none" stroke="#404040" d="M225.79,-745.377C235.358,-737.637 245.817,-729.703 256,-723 391.868,-633.559 573.735,-572.574 676.189,-542.71"/>
<polygon fill="none" stroke="#404040" points="676.447,-542.635 681.103,-537.129 687.977,-539.309 683.321,-544.815 676.447,-542.635"/>
<text text-anchor="middle" x="368.5" y="-686" font-family="Helvetica,sans-Serif" font-size="10.00"> &#45;preprocessors_</text>
</g>
<!-- Node7 -->
<g id="node7" class="node"><title>Node7</title>
<polygon fill="white" stroke="#bfbfbf" points="265.5,-745.5 265.5,-813.5 394.5,-813.5 394.5,-745.5 265.5,-745.5"/>
<text text-anchor="start" x="273.5" y="-801.5" font-family="Helvetica,sans-Serif" font-size="10.00">std::vector&lt; std::unique</text>
<text text-anchor="middle" x="330" y="-790.5" font-family="Helvetica,sans-Serif" font-size="10.00">_ptr&lt; amunmt::Vocab &gt; &gt;</text>
<polyline fill="none" stroke="#bfbfbf" points="265.5,-783.5 394.5,-783.5 "/>
<text text-anchor="middle" x="330" y="-771.5" font-family="Helvetica,sans-Serif" font-size="10.00"> </text>
<polyline fill="none" stroke="#bfbfbf" points="265.5,-764.5 394.5,-764.5 "/>
<text text-anchor="middle" x="330" y="-752.5" font-family="Helvetica,sans-Serif" font-size="10.00"> </text>
</g>
<!-- Node7&#45;&gt;Node3 -->
<g id="edge6" class="edge"><title>Node7&#45;&gt;Node3</title>
<path fill="none" stroke="#404040" d="M372.501,-745.453C382.419,-737.947 393.005,-730.098 403,-723 492.557,-659.399 603.669,-598.491 676.816,-560.609"/>
<polygon fill="none" stroke="#404040" points="677.107,-560.459 680.606,-554.154 687.772,-554.96 684.273,-561.265 677.107,-560.459"/>
<text text-anchor="middle" x="514" y="-686" font-family="Helvetica,sans-Serif" font-size="10.00"> &#45;sourceVocabs_</text>
</g>
<!-- Node8 -->
<g id="node8" class="node"><title>Node8</title>
<polygon fill="white" stroke="#bfbfbf" points="412.5,-745.5 412.5,-813.5 537.5,-813.5 537.5,-745.5 412.5,-745.5"/>
<text text-anchor="start" x="420.5" y="-801.5" font-family="Helvetica,sans-Serif" font-size="10.00">std::unique_ptr&lt; amunmt</text>
<text text-anchor="middle" x="475" y="-790.5" font-family="Helvetica,sans-Serif" font-size="10.00">::ThreadPool &gt;</text>
<polyline fill="none" stroke="#bfbfbf" points="412.5,-783.5 537.5,-783.5 "/>
<text text-anchor="middle" x="475" y="-771.5" font-family="Helvetica,sans-Serif" font-size="10.00"> </text>
<polyline fill="none" stroke="#bfbfbf" points="412.5,-764.5 537.5,-764.5 "/>
<text text-anchor="middle" x="475" y="-752.5" font-family="Helvetica,sans-Serif" font-size="10.00"> </text>
</g>
<!-- Node8&#45;&gt;Node3 -->
<g id="edge7" class="edge"><title>Node8&#45;&gt;Node3</title>
<path fill="none" stroke="#404040" d="M511.032,-745.428C553.216,-706.709 624.25,-641.51 678.823,-591.419"/>
<polygon fill="none" stroke="#404040" points="678.936,-591.316 680.651,-584.312 687.777,-583.202 686.061,-590.206 678.936,-591.316"/>
<text text-anchor="middle" x="605" y="-686" font-family="Helvetica,sans-Serif" font-size="10.00"> &#45;pool_</text>
</g>
<!-- Node9 -->
<g id="node9" class="node"><title>Node9</title>
<g id="a_node9"><a xlink:href="../../dd/d77/classamunmt_1_1OutputCollector.html" target="_top" xlink:title="{amunmt::OutputCollector\n|# mutex_\l# nextId_\l|+ OutputCollector()\l+ OutputCollector()\l+ Write()\l}">
<polygon fill="white" stroke="black" points="556,-734.5 556,-824.5 682,-824.5 682,-734.5 556,-734.5"/>
<text text-anchor="middle" x="619" y="-812.5" font-family="Helvetica,sans-Serif" font-size="10.00">amunmt::OutputCollector</text>
<polyline fill="none" stroke="black" points="556,-805.5 682,-805.5 "/>
<text text-anchor="start" x="564" y="-793.5" font-family="Helvetica,sans-Serif" font-size="10.00"># mutex_</text>
<text text-anchor="start" x="564" y="-782.5" font-family="Helvetica,sans-Serif" font-size="10.00"># nextId_</text>
<polyline fill="none" stroke="black" points="556,-775.5 682,-775.5 "/>
<text text-anchor="start" x="564" y="-763.5" font-family="Helvetica,sans-Serif" font-size="10.00">+ OutputCollector()</text>
<text text-anchor="start" x="564" y="-752.5" font-family="Helvetica,sans-Serif" font-size="10.00">+ OutputCollector()</text>
<text text-anchor="start" x="564" y="-741.5" font-family="Helvetica,sans-Serif" font-size="10.00">+ Write()</text>
</a>
</g>
</g>
<!-- Node9&#45;&gt;Node3 -->
<g id="edge8" class="edge"><title>Node9&#45;&gt;Node3</title>
<path fill="none" stroke="#404040" d="M641.04,-734.306C650.717,-715.094 662.291,-692.367 673,-672 675.911,-666.463 678.897,-660.821 681.926,-655.127"/>
<polygon fill="none" stroke="#404040" points="682.146,-654.717 681.442,-647.54 687.796,-644.13 688.5,-651.307 682.146,-654.717"/>
<text text-anchor="middle" x="712" y="-686" font-family="Helvetica,sans-Serif" font-size="10.00"> &#45;outputCollector_</text>
</g>
<!-- Node10 -->
<g id="node10" class="node"><title>Node10</title>
<polygon fill="white" stroke="#bfbfbf" points="525.5,-883.5 525.5,-951.5 626.5,-951.5 626.5,-883.5 525.5,-883.5"/>
<text text-anchor="start" x="533.5" y="-939.5" font-family="Helvetica,sans-Serif" font-size="10.00">std::map&lt; long, std</text>
<text text-anchor="middle" x="576" y="-928.5" font-family="Helvetica,sans-Serif" font-size="10.00">::string &gt;</text>
<polyline fill="none" stroke="#bfbfbf" points="525.5,-921.5 626.5,-921.5 "/>
<text text-anchor="middle" x="576" y="-909.5" font-family="Helvetica,sans-Serif" font-size="10.00"> </text>
<polyline fill="none" stroke="#bfbfbf" points="525.5,-902.5 626.5,-902.5 "/>
<text text-anchor="middle" x="576" y="-890.5" font-family="Helvetica,sans-Serif" font-size="10.00"> </text>
</g>
<!-- Node10&#45;&gt;Node9 -->
<g id="edge9" class="edge"><title>Node10&#45;&gt;Node9</title>
<path fill="none" stroke="#404040" d="M585.932,-883.376C588.817,-873.878 592,-863.518 595,-854 596.82,-848.227 598.743,-842.207 600.677,-836.207"/>
<polygon fill="none" stroke="#404040" points="600.687,-836.177 598.731,-829.236 604.385,-824.761 606.341,-831.702 600.687,-836.177"/>
<text text-anchor="middle" x="618" y="-857" font-family="Helvetica,sans-Serif" font-size="10.00"> #outputs_</text>
</g>
<!-- Node11 -->
<g id="node11" class="node"><title>Node11</title>
<g id="a_node11"><a xlink:title="STL class. ">
<polygon fill="white" stroke="#bfbfbf" points="644.5,-889 644.5,-946 715.5,-946 715.5,-889 644.5,-889"/>
<text text-anchor="middle" x="680" y="-934" font-family="Helvetica,sans-Serif" font-size="10.00">std::ostream</text>
<polyline fill="none" stroke="#bfbfbf" points="644.5,-927 715.5,-927 "/>
<text text-anchor="middle" x="680" y="-915" font-family="Helvetica,sans-Serif" font-size="10.00"> </text>
<polyline fill="none" stroke="#bfbfbf" points="644.5,-908 715.5,-908 "/>
<text text-anchor="middle" x="680" y="-896" font-family="Helvetica,sans-Serif" font-size="10.00"> </text>
</a>
</g>
</g>
<!-- Node11&#45;&gt;Node9 -->
<g id="edge10" class="edge"><title>Node11&#45;&gt;Node9</title>
<path fill="none" stroke="#404040" d="M667.656,-888.978C660.794,-873.681 652.005,-854.086 643.79,-835.769"/>
<polygon fill="none" stroke="#404040" points="643.682,-835.528 637.577,-831.691 638.771,-824.579 644.876,-828.417 643.682,-835.528"/>
<text text-anchor="middle" x="681.5" y="-857" font-family="Helvetica,sans-Serif" font-size="10.00"> #outStrm_</text>
</g>
<!-- Node12 -->
<g id="node12" class="node"><title>Node12</title>
<polygon fill="white" stroke="#bfbfbf" points="630,-989.5 630,-1057.5 730,-1057.5 730,-989.5 630,-989.5"/>
<text text-anchor="start" x="638" y="-1045.5" font-family="Helvetica,sans-Serif" font-size="10.00">std::basic_ostream</text>
<text text-anchor="middle" x="680" y="-1034.5" font-family="Helvetica,sans-Serif" font-size="10.00">&lt; char &gt;</text>
<polyline fill="none" stroke="#bfbfbf" points="630,-1027.5 730,-1027.5 "/>
<text text-anchor="middle" x="680" y="-1015.5" font-family="Helvetica,sans-Serif" font-size="10.00"> </text>
<polyline fill="none" stroke="#bfbfbf" points="630,-1008.5 730,-1008.5 "/>
<text text-anchor="middle" x="680" y="-996.5" font-family="Helvetica,sans-Serif" font-size="10.00"> </text>
</g>
<!-- Node12&#45;&gt;Node11 -->
<g id="edge11" class="edge"><title>Node12&#45;&gt;Node11</title>
<path fill="none" stroke="midnightblue" d="M680,-979.247C680,-968.054 680,-956.304 680,-946.154"/>
<polygon fill="none" stroke="midnightblue" points="676.5,-979.308 680,-989.308 683.5,-979.308 676.5,-979.308"/>
</g>
<!-- Node13 -->
<g id="node13" class="node"><title>Node13</title>
<polygon fill="white" stroke="#bfbfbf" points="623,-1095.5 623,-1152.5 737,-1152.5 737,-1095.5 623,-1095.5"/>
<text text-anchor="middle" x="680" y="-1140.5" font-family="Helvetica,sans-Serif" font-size="10.00">std::basic_ios&lt; char &gt;</text>
<polyline fill="none" stroke="#bfbfbf" points="623,-1133.5 737,-1133.5 "/>
<text text-anchor="middle" x="680" y="-1121.5" font-family="Helvetica,sans-Serif" font-size="10.00"> </text>
<polyline fill="none" stroke="#bfbfbf" points="623,-1114.5 737,-1114.5 "/>
<text text-anchor="middle" x="680" y="-1102.5" font-family="Helvetica,sans-Serif" font-size="10.00"> </text>
</g>
<!-- Node13&#45;&gt;Node12 -->
<g id="edge12" class="edge"><title>Node13&#45;&gt;Node12</title>
<path fill="none" stroke="midnightblue" d="M680,-1085.01C680,-1075.96 680,-1066.38 680,-1057.58"/>
<polygon fill="none" stroke="midnightblue" points="676.5,-1085.3 680,-1095.3 683.5,-1085.3 676.5,-1085.3"/>
</g>
<!-- Node14 -->
<g id="node14" class="node"><title>Node14</title>
<g id="a_node14"><a xlink:title="STL class. ">
<polygon fill="white" stroke="#bfbfbf" points="642.5,-1190.5 642.5,-1247.5 717.5,-1247.5 717.5,-1190.5 642.5,-1190.5"/>
<text text-anchor="middle" x="680" y="-1235.5" font-family="Helvetica,sans-Serif" font-size="10.00">std::ios_base</text>
<polyline fill="none" stroke="#bfbfbf" points="642.5,-1228.5 717.5,-1228.5 "/>
<text text-anchor="middle" x="680" y="-1216.5" font-family="Helvetica,sans-Serif" font-size="10.00"> </text>
<polyline fill="none" stroke="#bfbfbf" points="642.5,-1209.5 717.5,-1209.5 "/>
<text text-anchor="middle" x="680" y="-1197.5" font-family="Helvetica,sans-Serif" font-size="10.00"> </text>
</a>
</g>
</g>
<!-- Node14&#45;&gt;Node13 -->
<g id="edge13" class="edge"><title>Node14&#45;&gt;Node13</title>
<path fill="none" stroke="midnightblue" d="M680,-1180.24C680,-1171.03 680,-1161.35 680,-1152.71"/>
<polygon fill="none" stroke="midnightblue" points="676.5,-1180.35 680,-1190.35 683.5,-1180.35 676.5,-1180.35"/>
</g>
<!-- Node15 -->
<g id="node15" class="node"><title>Node15</title>
<polygon fill="white" stroke="#bfbfbf" points="700,-745.5 700,-813.5 810,-813.5 810,-745.5 700,-745.5"/>
<text text-anchor="start" x="708" y="-801.5" font-family="Helvetica,sans-Serif" font-size="10.00">std::map&lt; std::string,</text>
<text text-anchor="middle" x="755" y="-790.5" font-family="Helvetica,sans-Serif" font-size="10.00"> float &gt;</text>
<polyline fill="none" stroke="#bfbfbf" points="700,-783.5 810,-783.5 "/>
<text text-anchor="middle" x="755" y="-771.5" font-family="Helvetica,sans-Serif" font-size="10.00"> </text>
<polyline fill="none" stroke="#bfbfbf" points="700,-764.5 810,-764.5 "/>
<text text-anchor="middle" x="755" y="-752.5" font-family="Helvetica,sans-Serif" font-size="10.00"> </text>
</g>
<!-- Node15&#45;&gt;Node3 -->
<g id="edge14" class="edge"><title>Node15&#45;&gt;Node3</title>
<path fill="none" stroke="#404040" d="M755,-745.428C755,-724.517 755,-695.881 755,-666.073"/>
<polygon fill="none" stroke="#404040" points="755,-665.703 751,-659.703 755,-653.703 759,-659.703 755,-665.703"/>
<text text-anchor="middle" x="778" y="-686" font-family="Helvetica,sans-Serif" font-size="10.00"> &#45;weights_</text>
</g>
<!-- Node16 -->
<g id="node16" class="node"><title>Node16</title>
<polygon fill="white" stroke="#bfbfbf" points="828.5,-745.5 828.5,-813.5 953.5,-813.5 953.5,-745.5 828.5,-745.5"/>
<text text-anchor="start" x="836.5" y="-801.5" font-family="Helvetica,sans-Serif" font-size="10.00">std::unique_ptr&lt; amunmt</text>
<text text-anchor="middle" x="891" y="-790.5" font-family="Helvetica,sans-Serif" font-size="10.00">::Vocab &gt;</text>
<polyline fill="none" stroke="#bfbfbf" points="828.5,-783.5 953.5,-783.5 "/>
<text text-anchor="middle" x="891" y="-771.5" font-family="Helvetica,sans-Serif" font-size="10.00"> </text>
<polyline fill="none" stroke="#bfbfbf" points="828.5,-764.5 953.5,-764.5 "/>
<text text-anchor="middle" x="891" y="-752.5" font-family="Helvetica,sans-Serif" font-size="10.00"> </text>
</g>
<!-- Node16&#45;&gt;Node3 -->
<g id="edge15" class="edge"><title>Node16&#45;&gt;Node3</title>
<path fill="none" stroke="#404040" d="M873.499,-745.428C861.575,-722.895 844.904,-691.393 827.826,-659.12"/>
<polygon fill="none" stroke="#404040" points="827.638,-658.764 821.296,-655.332 822.025,-648.157 828.367,-651.59 827.638,-658.764"/>
<text text-anchor="middle" x="883" y="-686" font-family="Helvetica,sans-Serif" font-size="10.00"> &#45;targetVocab_</text>
</g>
<!-- Node17 -->
<g id="node17" class="node"><title>Node17</title>
<polygon fill="white" stroke="#bfbfbf" points="971.5,-745.5 971.5,-813.5 1096.5,-813.5 1096.5,-745.5 971.5,-745.5"/>
<text text-anchor="start" x="979.5" y="-801.5" font-family="Helvetica,sans-Serif" font-size="10.00">std::unique_ptr&lt; amunmt</text>
<text text-anchor="middle" x="1034" y="-790.5" font-family="Helvetica,sans-Serif" font-size="10.00">::InputFileStream &gt;</text>
<polyline fill="none" stroke="#bfbfbf" points="971.5,-783.5 1096.5,-783.5 "/>
<text text-anchor="middle" x="1034" y="-771.5" font-family="Helvetica,sans-Serif" font-size="10.00"> </text>
<polyline fill="none" stroke="#bfbfbf" points="971.5,-764.5 1096.5,-764.5 "/>
<text text-anchor="middle" x="1034" y="-752.5" font-family="Helvetica,sans-Serif" font-size="10.00"> </text>
</g>
<!-- Node17&#45;&gt;Node3 -->
<g id="edge16" class="edge"><title>Node17&#45;&gt;Node3</title>
<path fill="none" stroke="#404040" d="M998.296,-745.357C975.61,-724.318 945.61,-696.531 919,-672 890.285,-645.529 858.683,-616.503 830.949,-591.065"/>
<polygon fill="none" stroke="#404040" points="830.933,-591.05 823.807,-589.943 822.089,-582.939 829.214,-584.047 830.933,-591.05"/>
<text text-anchor="middle" x="986" y="-686" font-family="Helvetica,sans-Serif" font-size="10.00"> &#45;inputStream_</text>
</g>
<!-- Node18 -->
<g id="node18" class="node"><title>Node18</title>
<g id="a_node18"><a xlink:href="../../da/d4e/classamunmt_1_1Config.html" target="_top" xlink:title="{amunmt::Config\n|&#45; config_\l|+ Has()\l+ Get()\l+ Get()\l+ Get()\l+ AddOptions()\l+ LogOptions()\l}">
<polygon fill="white" stroke="black" points="1268,-723.5 1268,-835.5 1354,-835.5 1354,-723.5 1268,-723.5"/>
<text text-anchor="middle" x="1311" y="-823.5" font-family="Helvetica,sans-Serif" font-size="10.00">amunmt::Config</text>
<polyline fill="none" stroke="black" points="1268,-816.5 1354,-816.5 "/>
<text text-anchor="start" x="1276" y="-804.5" font-family="Helvetica,sans-Serif" font-size="10.00">&#45; config_</text>
<polyline fill="none" stroke="black" points="1268,-797.5 1354,-797.5 "/>
<text text-anchor="start" x="1276" y="-785.5" font-family="Helvetica,sans-Serif" font-size="10.00">+ Has()</text>
<text text-anchor="start" x="1276" y="-774.5" font-family="Helvetica,sans-Serif" font-size="10.00">+ Get()</text>
<text text-anchor="start" x="1276" y="-763.5" font-family="Helvetica,sans-Serif" font-size="10.00">+ Get()</text>
<text text-anchor="start" x="1276" y="-752.5" font-family="Helvetica,sans-Serif" font-size="10.00">+ Get()</text>
<text text-anchor="start" x="1276" y="-741.5" font-family="Helvetica,sans-Serif" font-size="10.00">+ AddOptions()</text>
<text text-anchor="start" x="1276" y="-730.5" font-family="Helvetica,sans-Serif" font-size="10.00">+ LogOptions()</text>
</a>
</g>
</g>
<!-- Node18&#45;&gt;Node3 -->
<g id="edge17" class="edge"><title>Node18&#45;&gt;Node3</title>
<path fill="none" stroke="#404040" d="M1267.89,-730.871C1264.65,-728.082 1261.34,-725.428 1258,-723 1215.71,-692.265 1200.04,-692.619 1152,-672 1043.05,-625.244 914.295,-577.832 833.624,-549.044"/>
<polygon fill="none" stroke="#404040" points="833.384,-548.959 826.39,-550.715 822.079,-544.935 829.073,-543.178 833.384,-548.959"/>
<text text-anchor="middle" x="1249" y="-686" font-family="Helvetica,sans-Serif" font-size="10.00"> &#45;config_</text>
</g>
<!-- Node19 -->
<g id="node19" class="node"><title>Node19</title>
<g id="a_node19"><a xlink:title="STL class. ">
<polygon fill="white" stroke="#bfbfbf" points="1318,-889 1318,-946 1378,-946 1378,-889 1318,-889"/>
<text text-anchor="middle" x="1348" y="-934" font-family="Helvetica,sans-Serif" font-size="10.00">std::string</text>
<polyline fill="none" stroke="#bfbfbf" points="1318,-927 1378,-927 "/>
<text text-anchor="middle" x="1348" y="-915" font-family="Helvetica,sans-Serif" font-size="10.00"> </text>
<polyline fill="none" stroke="#bfbfbf" points="1318,-908 1378,-908 "/>
<text text-anchor="middle" x="1348" y="-896" font-family="Helvetica,sans-Serif" font-size="10.00"> </text>
</a>
</g>
</g>
<!-- Node19&#45;&gt;Node2 -->
<g id="edge20" class="edge"><title>Node19&#45;&gt;Node2</title>
<path fill="none" stroke="#404040" d="M1360.84,-888.989C1363.79,-881.383 1366.5,-873.013 1368,-865 1373.44,-835.959 1420.99,-1066.52 1363,-723 1341.01,-592.768 1294.1,-448.703 1258.75,-351.092"/>
<polygon fill="none" stroke="#404040" points="1258.71,-350.996 1252.9,-346.727 1254.6,-339.72 1260.42,-343.989 1258.71,-350.996"/>
<text text-anchor="middle" x="1379" y="-686" font-family="Helvetica,sans-Serif" font-size="10.00"> #name_</text>
</g>
<!-- Node19&#45;&gt;Node18 -->
<g id="edge18" class="edge"><title>Node19&#45;&gt;Node18</title>
<path fill="none" stroke="#404040" d="M1328.08,-888.774C1323.69,-881.375 1319.58,-873.159 1317,-865 1315.26,-859.505 1313.92,-853.712 1312.88,-847.842"/>
<polygon fill="none" stroke="#404040" points="1312.85,-847.635 1308.05,-842.254 1311.17,-835.753 1315.97,-841.134 1312.85,-847.635"/>
<text text-anchor="middle" x="1342.5" y="-857" font-family="Helvetica,sans-Serif" font-size="10.00"> +inputPath</text>
</g>
<!-- Node20 -->
<g id="node20" class="node"><title>Node20</title>
<polygon fill="white" stroke="#bfbfbf" points="1300.5,-989.5 1300.5,-1057.5 1395.5,-1057.5 1395.5,-989.5 1300.5,-989.5"/>
<text text-anchor="start" x="1308.5" y="-1045.5" font-family="Helvetica,sans-Serif" font-size="10.00">std::basic_string&lt;</text>
<text text-anchor="middle" x="1348" y="-1034.5" font-family="Helvetica,sans-Serif" font-size="10.00"> char &gt;</text>
<polyline fill="none" stroke="#bfbfbf" points="1300.5,-1027.5 1395.5,-1027.5 "/>
<text text-anchor="middle" x="1348" y="-1015.5" font-family="Helvetica,sans-Serif" font-size="10.00"> </text>
<polyline fill="none" stroke="#bfbfbf" points="1300.5,-1008.5 1395.5,-1008.5 "/>
<text text-anchor="middle" x="1348" y="-996.5" font-family="Helvetica,sans-Serif" font-size="10.00"> </text>
</g>
<!-- Node20&#45;&gt;Node19 -->
<g id="edge19" class="edge"><title>Node20&#45;&gt;Node19</title>
<path fill="none" stroke="midnightblue" d="M1348,-979.247C1348,-968.054 1348,-956.304 1348,-946.154"/>
<polygon fill="none" stroke="midnightblue" points="1344.5,-979.308 1348,-989.308 1351.5,-979.308 1344.5,-979.308"/>
</g>
</g>
</svg>
