<?xml version="1.0" encoding="UTF-8" standalone="no"?>
<!DOCTYPE svg PUBLIC "-//W3C//DTD SVG 1.1//EN"
 "http://www.w3.org/Graphics/SVG/1.1/DTD/svg11.dtd">
<!-- Generated by graphviz version 2.38.0 (20140413.2041)
 -->
<!-- Title: split Pages: 1 -->
<!--zoomable 279 -->
<svg id="main" version="1.1" xmlns="http://www.w3.org/2000/svg" xmlns:xlink="http://www.w3.org/1999/xlink" xml:space="preserve" onload="init(evt)">
<style type="text/css"><![CDATA[
.edge:hover path { stroke: red; }
.edge:hover polygon { stroke: red; fill: red; }
]]></style>
<script type="text/javascript"><![CDATA[
var edges = document.getElementsByTagName('g');
if (edges && edges.length) {
  for (var i=0;i<edges.length;i++) {
    if (edges[i].id.substr(0,4)=='edge') {
      edges[i].setAttribute('class','edge');
    }
  }
}
]]></script>
        <defs>
                <circle id="rim" cx="0" cy="0" r="7"/>
                <circle id="rim2" cx="0" cy="0" r="3.5"/>
                <g id="zoomPlus">
                        <use xlink:href="#rim" fill="#404040">
                                <set attributeName="fill" to="#808080" begin="zoomplus.mouseover" end="zoomplus.mouseout"/>
                        </use>
                        <path d="M-4,0h8M0,-4v8" fill="none" stroke="white" stroke-width="1.5" pointer-events="none"/>
                </g>
                <g id="zoomMin">
                        <use xlink:href="#rim" fill="#404040">
                                <set attributeName="fill" to="#808080" begin="zoomminus.mouseover" end="zoomminus.mouseout"/>
                        </use>
                        <path d="M-4,0h8" fill="none" stroke="white" stroke-width="1.5" pointer-events="none"/>
                </g>
                <g id="dirArrow">
                        <path fill="none" stroke="white" stroke-width="1.5" d="M0,-3.0v7 M-2.5,-0.5L0,-3.0L2.5,-0.5"/>
                </g>
               <g id="resetDef">
                       <use xlink:href="#rim2" fill="#404040">
                               <set attributeName="fill" to="#808080" begin="reset.mouseover" end="reset.mouseout"/>
                       </use>
               </g>
        </defs>

<script type="text/javascript">
var viewWidth = 557;
var viewHeight = 279;
var sectionId = 'dynsection-6';
</script>
<script xlink:href="../../svgpan.js"/>
<svg id="graph" class="graph">
<g id="viewport">
<title>split</title>
<polygon fill="white" stroke="none" points="-4,4 -4,-275 553,-275 553,4 -4,4"/>
<!-- Node1 -->
<g id="node1" class="node"><title>Node1</title>
<polygon fill="#bfbfbf" stroke="black" points="0,-120.5 0,-139.5 35,-139.5 35,-120.5 0,-120.5"/>
<text text-anchor="middle" x="17.5" y="-127.5" font-family="Helvetica,sans-Serif" font-size="10.00">split</text>
</g>
<!-- Node2 -->
<g id="node2" class="node"><title>Node2</title>
<g id="a_node2"><a xlink:href="../../df/d5c/align2steps_8cpp.html#a3c04138a5bfe5d72780bb7e82a18e627" target="_top" xlink:title="main">
<polygon fill="white" stroke="black" points="131.5,-251.5 131.5,-270.5 169.5,-270.5 169.5,-251.5 131.5,-251.5"/>
<text text-anchor="middle" x="150.5" y="-258.5" font-family="Helvetica,sans-Serif" font-size="10.00">main</text>
</a>
</g>
</g>
<!-- Node1&#45;&gt;Node2 -->
<g id="edge1" class="edge"><title>Node1&#45;&gt;Node2</title>
<path fill="none" stroke="midnightblue" d="M22.1917,-149.363C28.0351,-174.572 41.881,-218.213 71,-242 88.1575,-256.016 114.038,-259.969 131.339,-260.941"/>
<polygon fill="midnightblue" stroke="midnightblue" points="25.5997,-148.562 20.0997,-139.506 18.7522,-150.015 25.5997,-148.562"/>
</g>
<!-- Node3 -->
<g id="node3" class="node"><title>Node3</title>
<g id="a_node3"><a xlink:href="../../d6/dba/classmarian_1_1Config.html#a04803eb8aac3297bc9da7d697cd07ba0" target="_top" xlink:title="marian::Config::log">
<polygon fill="white" stroke="black" points="101,-213.5 101,-232.5 200,-232.5 200,-213.5 101,-213.5"/>
<text text-anchor="middle" x="150.5" y="-220.5" font-family="Helvetica,sans-Serif" font-size="10.00">marian::Config::log</text>
</a>
</g>
</g>
<!-- Node1&#45;&gt;Node3 -->
<g id="edge2" class="edge"><title>Node1&#45;&gt;Node3</title>
<path fill="none" stroke="midnightblue" d="M27.1531,-149.117C35.833,-166.108 50.8069,-190.315 71,-204 79.8217,-209.979 90.3241,-214.082 100.732,-216.897"/>
<polygon fill="midnightblue" stroke="midnightblue" points="30.0717,-147.111 22.5716,-139.628 23.768,-150.155 30.0717,-147.111"/>
</g>
<!-- Node5 -->
<g id="node5" class="node"><title>Node5</title>
<g id="a_node5"><a xlink:href="../../dc/d73/classmarian_1_1data_1_1WordAlignment.html#abfedf789cab3e70b085e977d8638f2dc" target="_top" xlink:title="marian::data::WordAlignment\l::WordAlignment">
<polygon fill="white" stroke="black" points="79,-164 79,-194 222,-194 222,-164 79,-164"/>
<text text-anchor="start" x="87" y="-182" font-family="Helvetica,sans-Serif" font-size="10.00">marian::data::WordAlignment</text>
<text text-anchor="middle" x="150.5" y="-171" font-family="Helvetica,sans-Serif" font-size="10.00">::WordAlignment</text>
</a>
</g>
</g>
<!-- Node1&#45;&gt;Node5 -->
<g id="edge4" class="edge"><title>Node1&#45;&gt;Node5</title>
<path fill="none" stroke="midnightblue" d="M44.2153,-143.176C52.6357,-147.239 62.112,-151.547 71,-155 79.1032,-158.148 87.8017,-161.159 96.3519,-163.918"/>
<polygon fill="midnightblue" stroke="midnightblue" points="45.7614,-140.036 35.2445,-138.753 42.6657,-146.315 45.7614,-140.036"/>
</g>
<!-- Node6 -->
<g id="node6" class="node"><title>Node6</title>
<g id="a_node6"><a xlink:href="../../dc/d73/classmarian_1_1data_1_1WordAlignment.html#a9bd45b6d1d88ebacef9fbd40b9a36556" target="_top" xlink:title="marian::data::WordAlignment\l::split">
<polygon fill="white" stroke="black" points="79,-115 79,-145 222,-145 222,-115 79,-115"/>
<text text-anchor="start" x="87" y="-133" font-family="Helvetica,sans-Serif" font-size="10.00">marian::data::WordAlignment</text>
<text text-anchor="middle" x="150.5" y="-122" font-family="Helvetica,sans-Serif" font-size="10.00">::split</text>
</a>
</g>
</g>
<!-- Node1&#45;&gt;Node6 -->
<g id="edge5" class="edge"><title>Node1&#45;&gt;Node6</title>
<path fill="none" stroke="midnightblue" d="M45.3486,-130C55.1904,-130 66.845,-130 78.7325,-130"/>
<polygon fill="midnightblue" stroke="midnightblue" points="45.0913,-126.5 35.0912,-130 45.0912,-133.5 45.0913,-126.5"/>
</g>
<!-- Node7 -->
<g id="node7" class="node"><title>Node7</title>
<g id="a_node7"><a xlink:href="../../d2/d9d/namespaceprepare__corpus.html#a94500e5ed125979793ade8632786b6c3" target="_top" xlink:title="prepare_corpus.replace_unks">
<polygon fill="white" stroke="black" points="78.5,-76.5 78.5,-95.5 222.5,-95.5 222.5,-76.5 78.5,-76.5"/>
<text text-anchor="middle" x="150.5" y="-83.5" font-family="Helvetica,sans-Serif" font-size="10.00">prepare_corpus.replace_unks</text>
</a>
</g>
</g>
<!-- Node1&#45;&gt;Node7 -->
<g id="edge6" class="edge"><title>Node1&#45;&gt;Node7</title>
<path fill="none" stroke="midnightblue" d="M44.4409,-117.026C52.7908,-113.153 62.1692,-109.115 71,-106 82.2734,-102.023 94.7148,-98.4825 106.306,-95.5265"/>
<polygon fill="midnightblue" stroke="midnightblue" points="42.7249,-113.967 35.2058,-121.431 45.7384,-120.285 42.7249,-113.967"/>
</g>
<!-- Node10 -->
<g id="node10" class="node"><title>Node10</title>
<g id="a_node10"><a xlink:href="../../dd/df7/namespaceprocess__word2vec.html#ab3d9c1343a892a23ca1e60230b030dce" target="_top" xlink:title="process_word2vec.main">
<polygon fill="white" stroke="black" points="266,-14.5 266,-33.5 388,-33.5 388,-14.5 266,-14.5"/>
<text text-anchor="middle" x="327" y="-21.5" font-family="Helvetica,sans-Serif" font-size="10.00">process_word2vec.main</text>
</a>
</g>
</g>
<!-- Node1&#45;&gt;Node10 -->
<g id="edge10" class="edge"><title>Node1&#45;&gt;Node10</title>
<path fill="none" stroke="midnightblue" d="M28.6537,-111.809C37.7806,-97.2554 52.5701,-77.5904 71,-67 103.358,-48.4062 201.232,-35.8278 265.881,-29.2935"/>
<polygon fill="midnightblue" stroke="midnightblue" points="25.5957,-110.103 23.4923,-120.487 31.6121,-113.681 25.5957,-110.103"/>
</g>
<!-- Node12 -->
<g id="node12" class="node"><title>Node12</title>
<g id="a_node12"><a xlink:href="../../dd/df7/namespaceprocess__word2vec.html#a0c9fc4391f1004542a2cd02996445980" target="_top" xlink:title="process_word2vec.replace_unks">
<polygon fill="white" stroke="black" points="71,-0.5 71,-19.5 230,-19.5 230,-0.5 71,-0.5"/>
<text text-anchor="middle" x="150.5" y="-7.5" font-family="Helvetica,sans-Serif" font-size="10.00">process_word2vec.replace_unks</text>
</a>
</g>
</g>
<!-- Node1&#45;&gt;Node12 -->
<g id="edge13" class="edge"><title>Node1&#45;&gt;Node12</title>
<path fill="none" stroke="midnightblue" d="M24.2298,-110.451C31.5887,-88.7069 46.4303,-54.0125 71,-34 78.7347,-27.6999 88.1088,-23.0508 97.6474,-19.6207"/>
<polygon fill="midnightblue" stroke="midnightblue" points="20.8154,-109.64 21.1298,-120.23 27.4881,-111.755 20.8154,-109.64"/>
</g>
<!-- Node4 -->
<g id="node4" class="node"><title>Node4</title>
<g id="a_node4"><a xlink:href="../../d6/dba/classmarian_1_1Config.html#aa953cca7c4650e7e0538f00388d9f385" target="_top" xlink:title="marian::Config::Config">
<polygon fill="white" stroke="black" points="269.5,-213.5 269.5,-232.5 384.5,-232.5 384.5,-213.5 269.5,-213.5"/>
<text text-anchor="middle" x="327" y="-220.5" font-family="Helvetica,sans-Serif" font-size="10.00">marian::Config::Config</text>
</a>
</g>
</g>
<!-- Node3&#45;&gt;Node4 -->
<g id="edge3" class="edge"><title>Node3&#45;&gt;Node4</title>
<path fill="none" stroke="midnightblue" d="M210.173,-223C229.255,-223 250.387,-223 269.32,-223"/>
<polygon fill="midnightblue" stroke="midnightblue" points="210.108,-219.5 200.108,-223 210.108,-226.5 210.108,-219.5"/>
</g>
<!-- Node8 -->
<g id="node8" class="node"><title>Node8</title>
<g id="a_node8"><a xlink:href="../../d2/d9d/namespaceprepare__corpus.html#aa70e0cc7eb57e827cc406e421ee340d2" target="_top" xlink:title="prepare_corpus.main">
<polygon fill="white" stroke="black" points="273.5,-76.5 273.5,-95.5 380.5,-95.5 380.5,-76.5 273.5,-76.5"/>
<text text-anchor="middle" x="327" y="-83.5" font-family="Helvetica,sans-Serif" font-size="10.00">prepare_corpus.main</text>
</a>
</g>
</g>
<!-- Node7&#45;&gt;Node8 -->
<g id="edge7" class="edge"><title>Node7&#45;&gt;Node8</title>
<path fill="none" stroke="midnightblue" d="M232.743,-86C246.573,-86 260.606,-86 273.443,-86"/>
<polygon fill="midnightblue" stroke="midnightblue" points="232.728,-82.5001 222.728,-86 232.727,-89.5001 232.728,-82.5001"/>
</g>
<!-- Node9 -->
<g id="node9" class="node"><title>Node9</title>
<g id="a_node9"><a xlink:href="../../d2/d9d/namespaceprepare__corpus.html#a8cd0e0b6ee5199bd8838a625ef5803b9" target="_top" xlink:title="prepare_corpus.parse\l_user_args">
<polygon fill="white" stroke="black" points="431.5,-71 431.5,-101 541.5,-101 541.5,-71 431.5,-71"/>
<text text-anchor="start" x="439.5" y="-89" font-family="Helvetica,sans-Serif" font-size="10.00">prepare_corpus.parse</text>
<text text-anchor="middle" x="486.5" y="-78" font-family="Helvetica,sans-Serif" font-size="10.00">_user_args</text>
</a>
</g>
</g>
<!-- Node8&#45;&gt;Node9 -->
<g id="edge8" class="edge"><title>Node8&#45;&gt;Node9</title>
<path fill="none" stroke="midnightblue" d="M390.973,-79.3719C404.363,-79.1625 418.389,-79.2229 431.413,-79.5533"/>
<polygon fill="midnightblue" stroke="midnightblue" points="390.807,-75.8745 380.883,-79.5846 390.955,-82.8729 390.807,-75.8745"/>
</g>
<!-- Node9&#45;&gt;Node8 -->
<g id="edge9" class="edge"><title>Node9&#45;&gt;Node8</title>
<path fill="none" stroke="midnightblue" d="M421.285,-92.6467C407.857,-92.8395 393.844,-92.7624 380.883,-92.4154"/>
<polygon fill="midnightblue" stroke="midnightblue" points="421.484,-96.1436 431.413,-92.4467 421.346,-89.145 421.484,-96.1436"/>
</g>
<!-- Node11 -->
<g id="node11" class="node"><title>Node11</title>
<g id="a_node11"><a xlink:href="../../dd/df7/namespaceprocess__word2vec.html#a104f2b1f7f16fe4bb005d75d662b5407" target="_top" xlink:title="process_word2vec.parse\l_user_args">
<polygon fill="white" stroke="black" points="424,-9 424,-39 549,-39 549,-9 424,-9"/>
<text text-anchor="start" x="432" y="-27" font-family="Helvetica,sans-Serif" font-size="10.00">process_word2vec.parse</text>
<text text-anchor="middle" x="486.5" y="-16" font-family="Helvetica,sans-Serif" font-size="10.00">_user_args</text>
</a>
</g>
</g>
<!-- Node10&#45;&gt;Node11 -->
<g id="edge11" class="edge"><title>Node10&#45;&gt;Node11</title>
<path fill="none" stroke="midnightblue" d="M398.639,-17.2819C407.07,-17.2153 415.626,-17.2529 423.916,-17.3946"/>
<polygon fill="midnightblue" stroke="midnightblue" points="398.397,-13.7847 388.443,-17.4148 398.488,-20.7841 398.397,-13.7847"/>
</g>
<!-- Node11&#45;&gt;Node10 -->
<g id="edge12" class="edge"><title>Node11&#45;&gt;Node10</title>
<path fill="none" stroke="midnightblue" d="M413.698,-30.7266C405.256,-30.7836 396.707,-30.7365 388.443,-30.5852"/>
<polygon fill="midnightblue" stroke="midnightblue" points="413.958,-34.2239 423.916,-30.6054 413.875,-27.2243 413.958,-34.2239"/>
</g>
<!-- Node12&#45;&gt;Node10 -->
<g id="edge14" class="edge"><title>Node12&#45;&gt;Node10</title>
<path fill="none" stroke="midnightblue" d="M240.256,-17.1208C248.94,-17.8176 257.605,-18.5127 265.906,-19.1787"/>
<polygon fill="midnightblue" stroke="midnightblue" points="240.32,-13.6148 230.072,-16.3038 239.76,-20.5924 240.32,-13.6148"/>
</g>
</g>
</svg>
        <g id="navigator" transform="translate(0 0)" fill="#404254">
                <rect fill="#f2f5e9" fill-opacity="0.5" stroke="#606060" stroke-width=".5" x="0" y="0" width="60" height="60"/>
                <use id="zoomplus" xlink:href="#zoomPlus" x="17" y="9" onmousedown="handleZoom(evt,'in')"/>
                <use id="zoomminus" xlink:href="#zoomMin" x="42" y="9" onmousedown="handleZoom(evt,'out')"/>
                <use id="reset" xlink:href="#resetDef" x="30" y="36" onmousedown="handleReset()"/>
                <g id="arrowUp" xlink:href="#dirArrow" transform="translate(30 24)" onmousedown="handlePan(0,-1)">
                  <use xlink:href="#rim" fill="#404040">
                        <set attributeName="fill" to="#808080" begin="arrowUp.mouseover" end="arrowUp.mouseout"/>
                  </use>
                  <path fill="none" stroke="white" stroke-width="1.5" d="M0,-3.0v7 M-2.5,-0.5L0,-3.0L2.5,-0.5"/>
                </g>
                <g id="arrowRight" xlink:href="#dirArrow" transform="rotate(90) translate(36 -43)" onmousedown="handlePan(1,0)">
                  <use xlink:href="#rim" fill="#404040">
                        <set attributeName="fill" to="#808080" begin="arrowRight.mouseover" end="arrowRight.mouseout"/>
                  </use>
                  <path fill="none" stroke="white" stroke-width="1.5" d="M0,-3.0v7 M-2.5,-0.5L0,-3.0L2.5,-0.5"/>
                </g>
                <g id="arrowDown" xlink:href="#dirArrow" transform="rotate(180) translate(-30 -48)" onmousedown="handlePan(0,1)">
                  <use xlink:href="#rim" fill="#404040">
                        <set attributeName="fill" to="#808080" begin="arrowDown.mouseover" end="arrowDown.mouseout"/>
                  </use>
                  <path fill="none" stroke="white" stroke-width="1.5" d="M0,-3.0v7 M-2.5,-0.5L0,-3.0L2.5,-0.5"/>
                </g>
                <g id="arrowLeft" xlink:href="#dirArrow" transform="rotate(270) translate(-36 17)" onmousedown="handlePan(-1,0)">
                  <use xlink:href="#rim" fill="#404040">
                        <set attributeName="fill" to="#808080" begin="arrowLeft.mouseover" end="arrowLeft.mouseout"/>
                  </use>
                  <path fill="none" stroke="white" stroke-width="1.5" d="M0,-3.0v7 M-2.5,-0.5L0,-3.0L2.5,-0.5"/>
                </g>
        </g>
        <svg viewBox="0 0 15 15" width="100%" height="30px" preserveAspectRatio="xMaxYMin meet">
         <g id="arrow_out" transform="scale(0.3 0.3)">
          <a xlink:href="align2steps_8cpp_acc994bdb70df3b28bc0f94aede3731c3_icgraph_org.svg" target="_base">
           <rect id="button" ry="5" rx="5" y="6" x="6" height="38" width="38"
                fill="#f2f5e9" fill-opacity="0.5" stroke="#606060" stroke-width="1.0"/>
           <path id="arrow"
             d="M 11.500037,31.436501 C 11.940474,20.09759 22.043105,11.32322 32.158766,21.979434 L 37.068811,17.246167 C 37.068811,17.246167 37.088388,32 37.088388,32 L 22.160133,31.978069 C 22.160133,31.978069 26.997745,27.140456 26.997745,27.140456 C 18.528582,18.264221 13.291696,25.230495 11.500037,31.436501 z"
             style="fill:#404040;"/>
          </a>
         </g>
        </svg>
</svg>
