<?xml version="1.0" encoding="UTF-8" standalone="no"?>
<!DOCTYPE svg PUBLIC "-//W3C//DTD SVG 1.1//EN"
 "http://www.w3.org/Graphics/SVG/1.1/DTD/svg11.dtd">
<!-- Generated by graphviz version 2.38.0 (20140413.2041)
 -->
<!-- Title: amunmt::util::Exception::SetLocation Pages: 1 -->
<svg width="607pt" height="66pt"
 viewBox="0.00 0.00 607.00 66.00" xmlns="http://www.w3.org/2000/svg" xmlns:xlink="http://www.w3.org/1999/xlink">
<g id="graph0" class="graph" transform="scale(1 1) rotate(0) translate(4 62)">
<title>amunmt::util::Exception::SetLocation</title>
<polygon fill="white" stroke="none" points="-4,4 -4,-62 603,-62 603,4 -4,4"/>
<!-- Node1 -->
<g id="node1" class="node"><title>Node1</title>
<polygon fill="#bfbfbf" stroke="black" points="0,-14 0,-44 120,-44 120,-14 0,-14"/>
<text text-anchor="start" x="8" y="-32" font-family="Helvetica,sans-Serif" font-size="10.00">amunmt::util::Exception</text>
<text text-anchor="middle" x="60" y="-21" font-family="Helvetica,sans-Serif" font-size="10.00">::SetLocation</text>
</g>
<!-- Node2 -->
<g id="node2" class="node"><title>Node2</title>
<g id="a_node2"><a xlink:href="$da/d08/classamunmt_1_1util_1_1Exception.html#aebd0e9aca70ad9db18a9c024242fe0de" xlink:title="amunmt::util::Exception\l::what">
<polygon fill="white" stroke="black" points="156,-14 156,-44 276,-44 276,-14 156,-14"/>
<text text-anchor="start" x="164" y="-32" font-family="Helvetica,sans-Serif" font-size="10.00">amunmt::util::Exception</text>
<text text-anchor="middle" x="216" y="-21" font-family="Helvetica,sans-Serif" font-size="10.00">::what</text>
</a>
</g>
</g>
<!-- Node1&#45;&gt;Node2 -->
<g id="edge1" class="edge"><title>Node1&#45;&gt;Node2</title>
<path fill="none" stroke="midnightblue" d="M130.369,-29C138.862,-29 147.48,-29 155.804,-29"/>
<polygon fill="midnightblue" stroke="midnightblue" points="130.1,-25.5001 120.1,-29 130.1,-32.5001 130.1,-25.5001"/>
</g>
<!-- Node3 -->
<g id="node3" class="node"><title>Node3</title>
<g id="a_node3"><a xlink:href="$da/d4e/classamunmt_1_1Config.html#ae621721651f919b18e8719a6f30ad568" xlink:title="amunmt::Config::AddOptions">
<polygon fill="white" stroke="black" points="312,-19.5 312,-38.5 455,-38.5 455,-19.5 312,-19.5"/>
<text text-anchor="middle" x="383.5" y="-26.5" font-family="Helvetica,sans-Serif" font-size="10.00">amunmt::Config::AddOptions</text>
</a>
</g>
</g>
<!-- Node2&#45;&gt;Node3 -->
<g id="edge2" class="edge"><title>Node2&#45;&gt;Node3</title>
<path fill="none" stroke="midnightblue" d="M286.397,-29C294.785,-29 303.362,-29 311.769,-29"/>
<polygon fill="midnightblue" stroke="midnightblue" points="286.282,-25.5001 276.282,-29 286.282,-32.5001 286.282,-25.5001"/>
</g>
<!-- Node4 -->
<g id="node4" class="node"><title>Node4</title>
<g id="a_node4"><a xlink:href="$da/d4e/classamunmt_1_1Config.html#aa7e531efa35245ae0dd6ccbe02e98006" xlink:title="amunmt::Config::Get">
<polygon fill="white" stroke="black" points="491,-38.5 491,-57.5 599,-57.5 599,-38.5 491,-38.5"/>
<text text-anchor="middle" x="545" y="-45.5" font-family="Helvetica,sans-Serif" font-size="10.00">amunmt::Config::Get</text>
</a>
</g>
</g>
<!-- Node3&#45;&gt;Node4 -->
<g id="edge3" class="edge"><title>Node3&#45;&gt;Node4</title>
<path fill="none" stroke="midnightblue" d="M465.395,-38.6364C473.933,-39.6535 482.453,-40.6684 490.565,-41.6347"/>
<polygon fill="midnightblue" stroke="midnightblue" points="465.732,-35.1518 455.388,-37.4443 464.904,-42.1027 465.732,-35.1518"/>
</g>
<!-- Node5 -->
<g id="node5" class="node"><title>Node5</title>
<g id="a_node5"><a xlink:href="$d7/d4e/classamunmt_1_1God.html#a7a424275f1192499979b2f58ac250559" xlink:title="amunmt::God::Init">
<polygon fill="white" stroke="black" points="497.5,-0.5 497.5,-19.5 592.5,-19.5 592.5,-0.5 497.5,-0.5"/>
<text text-anchor="middle" x="545" y="-7.5" font-family="Helvetica,sans-Serif" font-size="10.00">amunmt::God::Init</text>
</a>
</g>
</g>
<!-- Node3&#45;&gt;Node5 -->
<g id="edge4" class="edge"><title>Node3&#45;&gt;Node5</title>
<path fill="none" stroke="midnightblue" d="M465.372,-19.3664C476.26,-18.0694 487.12,-16.7757 497.14,-15.582"/>
<polygon fill="midnightblue" stroke="midnightblue" points="464.904,-15.8973 455.388,-20.5557 465.732,-22.8482 464.904,-15.8973"/>
</g>
</g>
</svg>
