<?xml version="1.0" encoding="UTF-8" standalone="no"?>
<!DOCTYPE svg PUBLIC "-//W3C//DTD SVG 1.1//EN"
 "http://www.w3.org/Graphics/SVG/1.1/DTD/svg11.dtd">
<!-- Generated by graphviz version 2.38.0 (20140413.2041)
 -->
<!-- Title: marian::sparse::multiply Pages: 1 -->
<svg width="294pt" height="78pt"
 viewBox="0.00 0.00 294.00 77.50" xmlns="http://www.w3.org/2000/svg" xmlns:xlink="http://www.w3.org/1999/xlink">
<g id="graph0" class="graph" transform="scale(1 1) rotate(0) translate(4 73.5)">
<title>marian::sparse::multiply</title>
<polygon fill="white" stroke="none" points="-4,4 -4,-73.5 290,-73.5 290,4 -4,4"/>
<!-- Node1 -->
<g id="node1" class="node"><title>Node1</title>
<polygon fill="#bfbfbf" stroke="black" points="0,-28 0,-47 121,-47 121,-28 0,-28"/>
<text text-anchor="middle" x="60.5" y="-35" font-family="Helvetica,sans-Serif" font-size="10.00">marian::sparse::multiply</text>
</g>
<!-- Node2 -->
<g id="node2" class="node"><title>Node2</title>
<g id="a_node2"><a xlink:href="$dc/da3/classmarian_1_1LexProbs.html#a4d958aee140ae2db31f96dd82cc22137" xlink:title="marian::LexProbs::resetLf">
<polygon fill="white" stroke="black" points="157,-50 157,-69 286,-69 286,-50 157,-50"/>
<text text-anchor="middle" x="221.5" y="-57" font-family="Helvetica,sans-Serif" font-size="10.00">marian::LexProbs::resetLf</text>
</a>
</g>
</g>
<!-- Node1&#45;&gt;Node2 -->
<g id="edge1" class="edge"><title>Node1&#45;&gt;Node2</title>
<path fill="none" stroke="midnightblue" d="M131.092,-47.1291C139.635,-48.3112 148.334,-49.5147 156.784,-50.684"/>
<polygon fill="midnightblue" stroke="midnightblue" points="131.543,-43.6583 121.158,-45.7546 130.584,-50.5922 131.543,-43.6583"/>
</g>
<!-- Node3 -->
<g id="node3" class="node"><title>Node3</title>
<g id="a_node3"><a xlink:href="$d1/d62/classmarian_1_1sparse_1_1CSR.html#ac4d7eff581b229cb8ad0b65f80a39b62" xlink:title="marian::sparse::CSR\l::debug">
<polygon fill="white" stroke="black" points="167,-0.5 167,-30.5 276,-30.5 276,-0.5 167,-0.5"/>
<text text-anchor="start" x="175" y="-18.5" font-family="Helvetica,sans-Serif" font-size="10.00">marian::sparse::CSR</text>
<text text-anchor="middle" x="221.5" y="-7.5" font-family="Helvetica,sans-Serif" font-size="10.00">::debug</text>
</a>
</g>
</g>
<!-- Node1&#45;&gt;Node3 -->
<g id="edge2" class="edge"><title>Node1&#45;&gt;Node3</title>
<path fill="none" stroke="midnightblue" d="M131.109,-27.8686C143.069,-26.2138 155.332,-24.517 166.793,-22.9312"/>
<polygon fill="midnightblue" stroke="midnightblue" points="130.584,-24.4078 121.158,-29.2454 131.543,-31.3417 130.584,-24.4078"/>
</g>
</g>
</svg>
