<?xml version="1.0" encoding="UTF-8" standalone="no"?>
<!DOCTYPE svg PUBLIC "-//W3C//DTD SVG 1.1//EN"
 "http://www.w3.org/Graphics/SVG/1.1/DTD/svg11.dtd">
<!-- Generated by graphviz version 2.38.0 (20140413.2041)
 -->
<!-- Title: marian::DecoderState::getTargetEmbeddings Pages: 1 -->
<svg width="302pt" height="137pt"
 viewBox="0.00 0.00 302.00 137.00" xmlns="http://www.w3.org/2000/svg" xmlns:xlink="http://www.w3.org/1999/xlink">
<g id="graph0" class="graph" transform="scale(1 1) rotate(0) translate(4 133)">
<title>marian::DecoderState::getTargetEmbeddings</title>
<polygon fill="white" stroke="none" points="-4,4 -4,-133 298,-133 298,4 -4,4"/>
<!-- Node1 -->
<g id="node1" class="node"><title>Node1</title>
<polygon fill="#bfbfbf" stroke="black" points="0,-49.5 0,-79.5 118,-79.5 118,-49.5 0,-49.5"/>
<text text-anchor="start" x="8" y="-67.5" font-family="Helvetica,sans-Serif" font-size="10.00">marian::DecoderState</text>
<text text-anchor="middle" x="59" y="-56.5" font-family="Helvetica,sans-Serif" font-size="10.00">::getTargetEmbeddings</text>
</g>
<!-- Node2 -->
<g id="node2" class="node"><title>Node2</title>
<g id="a_node2"><a xlink:href="$d1/dcc/classmarian_1_1DecoderHardAtt.html#ab938d5649fc73437fa39a462330245bf" xlink:title="marian::DecoderHardAtt\l::step">
<polygon fill="white" stroke="black" points="163,-98.5 163,-128.5 285,-128.5 285,-98.5 163,-98.5"/>
<text text-anchor="start" x="171" y="-116.5" font-family="Helvetica,sans-Serif" font-size="10.00">marian::DecoderHardAtt</text>
<text text-anchor="middle" x="224" y="-105.5" font-family="Helvetica,sans-Serif" font-size="10.00">::step</text>
</a>
</g>
</g>
<!-- Node1&#45;&gt;Node2 -->
<g id="edge1" class="edge"><title>Node1&#45;&gt;Node2</title>
<path fill="none" stroke="midnightblue" d="M120.253,-82.6129C137.582,-87.8222 156.289,-93.4457 172.93,-98.4484"/>
<polygon fill="midnightblue" stroke="midnightblue" points="120.82,-79.1285 110.235,-79.6014 118.804,-85.8322 120.82,-79.1285"/>
</g>
<!-- Node3 -->
<g id="node3" class="node"><title>Node3</title>
<g id="a_node3"><a xlink:href="$de/d21/classmarian_1_1DecoderHardSoftAtt.html#aa3331fae45271298ce86ad6f6a5c9cf5" xlink:title="marian::DecoderHardSoftAtt\l::step">
<polygon fill="white" stroke="black" points="154,-49.5 154,-79.5 294,-79.5 294,-49.5 154,-49.5"/>
<text text-anchor="start" x="162" y="-67.5" font-family="Helvetica,sans-Serif" font-size="10.00">marian::DecoderHardSoftAtt</text>
<text text-anchor="middle" x="224" y="-56.5" font-family="Helvetica,sans-Serif" font-size="10.00">::step</text>
</a>
</g>
</g>
<!-- Node1&#45;&gt;Node3 -->
<g id="edge2" class="edge"><title>Node1&#45;&gt;Node3</title>
<path fill="none" stroke="midnightblue" d="M128.511,-64.5C136.909,-64.5 145.495,-64.5 153.901,-64.5"/>
<polygon fill="midnightblue" stroke="midnightblue" points="128.386,-61.0001 118.386,-64.5 128.386,-68.0001 128.386,-61.0001"/>
</g>
<!-- Node4 -->
<g id="node4" class="node"><title>Node4</title>
<g id="a_node4"><a xlink:href="$d7/d30/classmarian_1_1MultiDecoderHardSoftAtt.html#a9dc01206082f6b287300c2ee6460d3ba" xlink:title="marian::MultiDecoderHard\lSoftAtt::step">
<polygon fill="white" stroke="black" points="158.5,-0.5 158.5,-30.5 289.5,-30.5 289.5,-0.5 158.5,-0.5"/>
<text text-anchor="start" x="166.5" y="-18.5" font-family="Helvetica,sans-Serif" font-size="10.00">marian::MultiDecoderHard</text>
<text text-anchor="middle" x="224" y="-7.5" font-family="Helvetica,sans-Serif" font-size="10.00">SoftAtt::step</text>
</a>
</g>
</g>
<!-- Node1&#45;&gt;Node4 -->
<g id="edge3" class="edge"><title>Node1&#45;&gt;Node4</title>
<path fill="none" stroke="midnightblue" d="M120.253,-46.3871C137.582,-41.1778 156.289,-35.5543 172.93,-30.5516"/>
<polygon fill="midnightblue" stroke="midnightblue" points="118.804,-43.1678 110.235,-49.3986 120.82,-49.8715 118.804,-43.1678"/>
</g>
</g>
</svg>
