<?xml version="1.0" encoding="UTF-8" standalone="no"?>
<!DOCTYPE svg PUBLIC "-//W3C//DTD SVG 1.1//EN"
 "http://www.w3.org/Graphics/SVG/1.1/DTD/svg11.dtd">
<!-- Generated by graphviz version 2.38.0 (20140413.2041)
 -->
<!-- Title: amunmt::GPU::mblas::MatrixWrapper::updateStridesRowMajor Pages: 1 -->
<svg width="352pt" height="50pt"
 viewBox="0.00 0.00 352.00 50.00" xmlns="http://www.w3.org/2000/svg" xmlns:xlink="http://www.w3.org/1999/xlink">
<g id="graph0" class="graph" transform="scale(1 1) rotate(0) translate(4 46)">
<title>amunmt::GPU::mblas::MatrixWrapper::updateStridesRowMajor</title>
<polygon fill="white" stroke="none" points="-4,4 -4,-46 348,-46 348,4 -4,4"/>
<!-- Node1 -->
<g id="node1" class="node"><title>Node1</title>
<polygon fill="#bfbfbf" stroke="black" points="0,-0.5 0,-41.5 152,-41.5 152,-0.5 0,-0.5"/>
<text text-anchor="start" x="8" y="-29.5" font-family="Helvetica,sans-Serif" font-size="10.00">amunmt::GPU::mblas</text>
<text text-anchor="start" x="8" y="-18.5" font-family="Helvetica,sans-Serif" font-size="10.00">::MatrixWrapper::updateStrides</text>
<text text-anchor="middle" x="76" y="-7.5" font-family="Helvetica,sans-Serif" font-size="10.00">RowMajor</text>
</g>
<!-- Node2 -->
<g id="node2" class="node"><title>Node2</title>
<g id="a_node2"><a xlink:href="$d7/d34/classamunmt_1_1GPU_1_1mblas_1_1MatrixWrapper.html#a4187cbbb8d69e2b7ef67a1d4ee9b614b" xlink:title="amunmt::GPU::mblas\l::MatrixWrapper::MatrixWrapper">
<polygon fill="white" stroke="black" points="188,-6 188,-36 344,-36 344,-6 188,-6"/>
<text text-anchor="start" x="196" y="-24" font-family="Helvetica,sans-Serif" font-size="10.00">amunmt::GPU::mblas</text>
<text text-anchor="middle" x="266" y="-13" font-family="Helvetica,sans-Serif" font-size="10.00">::MatrixWrapper::MatrixWrapper</text>
</a>
</g>
</g>
<!-- Node1&#45;&gt;Node2 -->
<g id="edge1" class="edge"><title>Node1&#45;&gt;Node2</title>
<path fill="none" stroke="midnightblue" d="M162.117,-21C170.693,-21 179.369,-21 187.855,-21"/>
<polygon fill="midnightblue" stroke="midnightblue" points="162.113,-17.5001 152.113,-21 162.113,-24.5001 162.113,-17.5001"/>
</g>
</g>
</svg>
