<?xml version="1.0" encoding="UTF-8" standalone="no"?>
<!DOCTYPE svg PUBLIC "-//W3C//DTD SVG 1.1//EN"
 "http://www.w3.org/Graphics/SVG/1.1/DTD/svg11.dtd">
<!-- Generated by graphviz version 2.38.0 (20140413.2041)
 -->
<!-- Title: amunmt::GPU::mblas::MatrixWrapper::stride Pages: 1 -->
<svg width="467pt" height="137pt"
 viewBox="0.00 0.00 467.00 137.00" xmlns="http://www.w3.org/2000/svg" xmlns:xlink="http://www.w3.org/1999/xlink">
<g id="graph0" class="graph" transform="scale(1 1) rotate(0) translate(4 133)">
<title>amunmt::GPU::mblas::MatrixWrapper::stride</title>
<polygon fill="white" stroke="none" points="-4,4 -4,-133 463,-133 463,4 -4,4"/>
<!-- Node1 -->
<g id="node1" class="node"><title>Node1</title>
<polygon fill="#bfbfbf" stroke="black" points="0,-49.5 0,-79.5 116,-79.5 116,-49.5 0,-49.5"/>
<text text-anchor="start" x="8" y="-67.5" font-family="Helvetica,sans-Serif" font-size="10.00">amunmt::GPU::mblas</text>
<text text-anchor="middle" x="58" y="-56.5" font-family="Helvetica,sans-Serif" font-size="10.00">::MatrixWrapper::stride</text>
</g>
<!-- Node2 -->
<g id="node2" class="node"><title>Node2</title>
<g id="a_node2"><a xlink:href="$d7/d34/classamunmt_1_1GPU_1_1mblas_1_1MatrixWrapper.html#a1e70b609eca106cb5a161d8cc186cf07" xlink:title="amunmt::GPU::mblas\l::MatrixWrapper::id2Indices">
<polygon fill="white" stroke="black" points="152,-98.5 152,-128.5 289,-128.5 289,-98.5 152,-98.5"/>
<text text-anchor="start" x="160" y="-116.5" font-family="Helvetica,sans-Serif" font-size="10.00">amunmt::GPU::mblas</text>
<text text-anchor="middle" x="220.5" y="-105.5" font-family="Helvetica,sans-Serif" font-size="10.00">::MatrixWrapper::id2Indices</text>
</a>
</g>
</g>
<!-- Node1&#45;&gt;Node2 -->
<g id="edge1" class="edge"><title>Node1&#45;&gt;Node2</title>
<path fill="none" stroke="midnightblue" d="M118.329,-82.6129C135.392,-87.8222 153.812,-93.4457 170.198,-98.4484"/>
<polygon fill="midnightblue" stroke="midnightblue" points="119.051,-79.1739 108.465,-79.6014 117.007,-85.8689 119.051,-79.1739"/>
</g>
<!-- Node4 -->
<g id="node4" class="node"><title>Node4</title>
<g id="a_node4"><a xlink:href="$d7/d34/classamunmt_1_1GPU_1_1mblas_1_1MatrixWrapper.html#a09c3749fd756b2b72de447ef5ee66cfa" xlink:title="amunmt::GPU::mblas\l::MatrixWrapper::indices2Id">
<polygon fill="white" stroke="black" points="152,-0.5 152,-30.5 289,-30.5 289,-0.5 152,-0.5"/>
<text text-anchor="start" x="160" y="-18.5" font-family="Helvetica,sans-Serif" font-size="10.00">amunmt::GPU::mblas</text>
<text text-anchor="middle" x="220.5" y="-7.5" font-family="Helvetica,sans-Serif" font-size="10.00">::MatrixWrapper::indices2Id</text>
</a>
</g>
</g>
<!-- Node1&#45;&gt;Node4 -->
<g id="edge3" class="edge"><title>Node1&#45;&gt;Node4</title>
<path fill="none" stroke="midnightblue" d="M118.329,-46.3871C135.392,-41.1778 153.812,-35.5543 170.198,-30.5516"/>
<polygon fill="midnightblue" stroke="midnightblue" points="117.007,-43.1311 108.465,-49.3986 119.051,-49.8261 117.007,-43.1311"/>
</g>
<!-- Node6 -->
<g id="node6" class="node"><title>Node6</title>
<g id="a_node6"><a xlink:href="$d7/d34/classamunmt_1_1GPU_1_1mblas_1_1MatrixWrapper.html#afa181ca54a0a16e376f27cc2ba2fac9d" xlink:title="amunmt::GPU::mblas\l::MatrixWrapper::Debug">
<polygon fill="white" stroke="black" points="160,-49.5 160,-79.5 281,-79.5 281,-49.5 160,-49.5"/>
<text text-anchor="start" x="168" y="-67.5" font-family="Helvetica,sans-Serif" font-size="10.00">amunmt::GPU::mblas</text>
<text text-anchor="middle" x="220.5" y="-56.5" font-family="Helvetica,sans-Serif" font-size="10.00">::MatrixWrapper::Debug</text>
</a>
</g>
</g>
<!-- Node1&#45;&gt;Node6 -->
<g id="edge6" class="edge"><title>Node1&#45;&gt;Node6</title>
<path fill="none" stroke="midnightblue" d="M126.198,-64.5C137.395,-64.5 148.941,-64.5 159.932,-64.5"/>
<polygon fill="midnightblue" stroke="midnightblue" points="126.038,-61.0001 116.038,-64.5 126.038,-68.0001 126.038,-61.0001"/>
</g>
<!-- Node3 -->
<g id="node3" class="node"><title>Node3</title>
<g id="a_node3"><a xlink:href="$d1/d49/namespaceamunmt_1_1GPU_1_1mblas.html#a0c789c549a804f74120e5e6fd546a58f" xlink:title="amunmt::GPU::mblas\l::testidToMatrixInd">
<polygon fill="white" stroke="black" points="336,-49.5 336,-79.5 448,-79.5 448,-49.5 336,-49.5"/>
<text text-anchor="start" x="344" y="-67.5" font-family="Helvetica,sans-Serif" font-size="10.00">amunmt::GPU::mblas</text>
<text text-anchor="middle" x="392" y="-56.5" font-family="Helvetica,sans-Serif" font-size="10.00">::testidToMatrixInd</text>
</a>
</g>
</g>
<!-- Node2&#45;&gt;Node3 -->
<g id="edge2" class="edge"><title>Node2&#45;&gt;Node3</title>
<path fill="none" stroke="midnightblue" d="M283.399,-95.6059C301.63,-90.3356 321.386,-84.6245 338.934,-79.5516"/>
<polygon fill="midnightblue" stroke="midnightblue" points="282.373,-92.259 273.739,-98.3986 284.317,-98.9837 282.373,-92.259"/>
</g>
<!-- Node4&#45;&gt;Node3 -->
<g id="edge5" class="edge"><title>Node4&#45;&gt;Node3</title>
<path fill="none" stroke="midnightblue" d="M283.399,-33.3941C301.63,-38.6644 321.386,-44.3755 338.934,-49.4484"/>
<polygon fill="midnightblue" stroke="midnightblue" points="284.317,-30.0163 273.739,-30.6014 282.373,-36.741 284.317,-30.0163"/>
</g>
<!-- Node5 -->
<g id="node5" class="node"><title>Node5</title>
<g id="a_node5"><a xlink:href="$d7/d34/classamunmt_1_1GPU_1_1mblas_1_1MatrixWrapper.html#aca5da79a1954635935a880cfdf84b35c" xlink:title="amunmt::GPU::mblas\l::MatrixWrapper::operator()">
<polygon fill="white" stroke="black" points="325,-0.5 325,-30.5 459,-30.5 459,-0.5 325,-0.5"/>
<text text-anchor="start" x="333" y="-18.5" font-family="Helvetica,sans-Serif" font-size="10.00">amunmt::GPU::mblas</text>
<text text-anchor="middle" x="392" y="-7.5" font-family="Helvetica,sans-Serif" font-size="10.00">::MatrixWrapper::operator()</text>
</a>
</g>
</g>
<!-- Node4&#45;&gt;Node5 -->
<g id="edge4" class="edge"><title>Node4&#45;&gt;Node5</title>
<path fill="none" stroke="midnightblue" d="M299.698,-15.5C308.14,-15.5 316.67,-15.5 324.949,-15.5"/>
<polygon fill="midnightblue" stroke="midnightblue" points="299.466,-12.0001 289.465,-15.5 299.465,-19.0001 299.466,-12.0001"/>
</g>
<!-- Node6&#45;&gt;Node3 -->
<g id="edge7" class="edge"><title>Node6&#45;&gt;Node3</title>
<path fill="none" stroke="midnightblue" d="M291.377,-64.5C306.17,-64.5 321.586,-64.5 335.747,-64.5"/>
<polygon fill="midnightblue" stroke="midnightblue" points="291.259,-61.0001 281.259,-64.5 291.259,-68.0001 291.259,-61.0001"/>
</g>
</g>
</svg>
