<?xml version="1.0" encoding="UTF-8" standalone="no"?>
<!DOCTYPE svg PUBLIC "-//W3C//DTD SVG 1.1//EN"
 "http://www.w3.org/Graphics/SVG/1.1/DTD/svg11.dtd">
<!-- Generated by graphviz version 2.38.0 (20140413.2041)
 -->
<!-- Title: config.h Pages: 1 -->
<svg width="356pt" height="140pt"
 viewBox="0.00 0.00 356.00 140.00" xmlns="http://www.w3.org/2000/svg" xmlns:xlink="http://www.w3.org/1999/xlink">
<g id="graph0" class="graph" transform="scale(1 1) rotate(0) translate(4 136)">
<title>config.h</title>
<polygon fill="white" stroke="none" points="-4,4 -4,-136 352,-136 352,4 -4,4"/>
<!-- Node1 -->
<g id="node1" class="node"><title>Node1</title>
<polygon fill="#bfbfbf" stroke="black" points="149,-112.5 149,-131.5 200,-131.5 200,-112.5 149,-112.5"/>
<text text-anchor="middle" x="174.5" y="-119.5" font-family="Helvetica,sans-Serif" font-size="10.00">config.h</text>
</g>
<!-- Node2 -->
<g id="node2" class="node"><title>Node2</title>
<polygon fill="white" stroke="#bfbfbf" points="-7.10543e-15,-56.5 -7.10543e-15,-75.5 89,-75.5 89,-56.5 -7.10543e-15,-56.5"/>
<text text-anchor="middle" x="44.5" y="-63.5" font-family="Helvetica,sans-Serif" font-size="10.00">yaml&#45;cpp/yaml.h</text>
</g>
<!-- Node1&#45;&gt;Node2 -->
<g id="edge1" class="edge"><title>Node1&#45;&gt;Node2</title>
<path fill="none" stroke="midnightblue" d="M153.901,-112.444C132.507,-103.557 98.8188,-89.5632 74.4756,-79.4514"/>
<polygon fill="midnightblue" stroke="midnightblue" points="75.5801,-76.1203 65.0025,-75.5164 72.8948,-82.5848 75.5801,-76.1203"/>
</g>
<!-- Node3 -->
<g id="node3" class="node"><title>Node3</title>
<polygon fill="white" stroke="#bfbfbf" points="107.5,-56.5 107.5,-75.5 241.5,-75.5 241.5,-56.5 107.5,-56.5"/>
<text text-anchor="middle" x="174.5" y="-63.5" font-family="Helvetica,sans-Serif" font-size="10.00">boost/program_options.hpp</text>
</g>
<!-- Node1&#45;&gt;Node3 -->
<g id="edge2" class="edge"><title>Node1&#45;&gt;Node3</title>
<path fill="none" stroke="midnightblue" d="M174.5,-112.083C174.5,-105.006 174.5,-94.8611 174.5,-85.9865"/>
<polygon fill="midnightblue" stroke="midnightblue" points="178,-85.751 174.5,-75.7511 171,-85.7511 178,-85.751"/>
</g>
<!-- Node4 -->
<g id="node4" class="node"><title>Node4</title>
<g id="a_node4"><a xlink:href="$d8/dbe/amun_2common_2logging_8h.html" xlink:title="logging.h">
<polygon fill="white" stroke="black" points="259.5,-56.5 259.5,-75.5 315.5,-75.5 315.5,-56.5 259.5,-56.5"/>
<text text-anchor="middle" x="287.5" y="-63.5" font-family="Helvetica,sans-Serif" font-size="10.00">logging.h</text>
</a>
</g>
</g>
<!-- Node1&#45;&gt;Node4 -->
<g id="edge3" class="edge"><title>Node1&#45;&gt;Node4</title>
<path fill="none" stroke="midnightblue" d="M192.405,-112.444C210.754,-103.675 239.505,-89.9355 260.594,-79.8579"/>
<polygon fill="midnightblue" stroke="midnightblue" points="262.165,-82.9862 269.679,-75.5164 259.147,-76.6703 262.165,-82.9862"/>
</g>
<!-- Node5 -->
<g id="node5" class="node"><title>Node5</title>
<polygon fill="white" stroke="#bfbfbf" points="204,-0.5 204,-19.5 289,-19.5 289,-0.5 204,-0.5"/>
<text text-anchor="middle" x="246.5" y="-7.5" font-family="Helvetica,sans-Serif" font-size="10.00">spdlog/spdlog.h</text>
</g>
<!-- Node4&#45;&gt;Node5 -->
<g id="edge4" class="edge"><title>Node4&#45;&gt;Node5</title>
<path fill="none" stroke="midnightblue" d="M280.73,-56.083C274.938,-48.4554 266.442,-37.2645 259.362,-27.9408"/>
<polygon fill="midnightblue" stroke="midnightblue" points="261.979,-25.5991 253.144,-19.7511 256.404,-29.8321 261.979,-25.5991"/>
</g>
<!-- Node6 -->
<g id="node6" class="node"><title>Node6</title>
<polygon fill="white" stroke="#bfbfbf" points="307,-0.5 307,-19.5 348,-19.5 348,-0.5 307,-0.5"/>
<text text-anchor="middle" x="327.5" y="-7.5" font-family="Helvetica,sans-Serif" font-size="10.00">string</text>
</g>
<!-- Node4&#45;&gt;Node6 -->
<g id="edge5" class="edge"><title>Node4&#45;&gt;Node6</title>
<path fill="none" stroke="midnightblue" d="M294.105,-56.083C299.755,-48.4554 308.045,-37.2645 314.951,-27.9408"/>
<polygon fill="midnightblue" stroke="midnightblue" points="317.878,-29.87 321.018,-19.7511 312.253,-25.7034 317.878,-29.87"/>
</g>
</g>
</svg>
