<?xml version="1.0" encoding="UTF-8" standalone="no"?>
<!DOCTYPE svg PUBLIC "-//W3C//DTD SVG 1.1//EN"
 "http://www.w3.org/Graphics/SVG/1.1/DTD/svg11.dtd">
<!-- Generated by graphviz version 2.38.0 (20140413.2041)
 -->
<!-- Title: amunmt::History::Top Pages: 1 -->
<svg width="761pt" height="208pt"
 viewBox="0.00 0.00 761.00 207.50" xmlns="http://www.w3.org/2000/svg" xmlns:xlink="http://www.w3.org/1999/xlink">
<g id="graph0" class="graph" transform="scale(1 1) rotate(0) translate(4 203.5)">
<title>amunmt::History::Top</title>
<polygon fill="white" stroke="none" points="-4,4 -4,-203.5 757,-203.5 757,4 -4,4"/>
<!-- Node1 -->
<g id="node1" class="node"><title>Node1</title>
<polygon fill="#bfbfbf" stroke="black" points="0,-53 0,-72 112,-72 112,-53 0,-53"/>
<text text-anchor="middle" x="56" y="-60" font-family="Helvetica,sans-Serif" font-size="10.00">amunmt::History::Top</text>
</g>
<!-- Node2 -->
<g id="node2" class="node"><title>Node2</title>
<g id="a_node2"><a xlink:href="$d7/dd3/namespaceamunmt.html#aef108281493b0c3b669c537192eace34" xlink:title="amunmt::Printer">
<polygon fill="white" stroke="black" points="148,-53 148,-72 234,-72 234,-53 148,-53"/>
<text text-anchor="middle" x="191" y="-60" font-family="Helvetica,sans-Serif" font-size="10.00">amunmt::Printer</text>
</a>
</g>
</g>
<!-- Node1&#45;&gt;Node2 -->
<g id="edge1" class="edge"><title>Node1&#45;&gt;Node2</title>
<path fill="none" stroke="midnightblue" d="M122.326,-62.5C130.951,-62.5 139.603,-62.5 147.7,-62.5"/>
<polygon fill="midnightblue" stroke="midnightblue" points="122.249,-59.0001 112.249,-62.5 122.248,-66.0001 122.249,-59.0001"/>
</g>
<!-- Node3 -->
<g id="node3" class="node"><title>Node3</title>
<g id="a_node3"><a xlink:href="$d5/d49/amunmt_8cpp.html#a86ebd9110196f3b5328ad3c3d31cd007" xlink:title="translate">
<polygon fill="white" stroke="black" points="315.5,-92 315.5,-111 369.5,-111 369.5,-92 315.5,-92"/>
<text text-anchor="middle" x="342.5" y="-99" font-family="Helvetica,sans-Serif" font-size="10.00">translate</text>
</a>
</g>
</g>
<!-- Node2&#45;&gt;Node3 -->
<g id="edge2" class="edge"><title>Node2&#45;&gt;Node3</title>
<path fill="none" stroke="midnightblue" d="M238.328,-74.5856C263.587,-81.1748 293.932,-89.0909 315.15,-94.6261"/>
<polygon fill="midnightblue" stroke="midnightblue" points="239.131,-71.1781 228.572,-72.0405 237.364,-77.9514 239.131,-71.1781"/>
</g>
<!-- Node11 -->
<g id="node11" class="node"><title>Node11</title>
<g id="a_node11"><a xlink:href="$d7/dd3/namespaceamunmt.html#a10b27c18333dd8e5b6652acfea64d7d2" xlink:title="amunmt::Printer">
<polygon fill="white" stroke="black" points="299.5,-53 299.5,-72 385.5,-72 385.5,-53 299.5,-53"/>
<text text-anchor="middle" x="342.5" y="-60" font-family="Helvetica,sans-Serif" font-size="10.00">amunmt::Printer</text>
</a>
</g>
</g>
<!-- Node2&#45;&gt;Node11 -->
<g id="edge10" class="edge"><title>Node2&#45;&gt;Node11</title>
<path fill="none" stroke="midnightblue" d="M244.113,-62.5C262.144,-62.5 282.116,-62.5 299.256,-62.5"/>
<polygon fill="midnightblue" stroke="midnightblue" points="244.042,-59.0001 234.042,-62.5 244.042,-66.0001 244.042,-59.0001"/>
</g>
<!-- Node12 -->
<g id="node12" class="node"><title>Node12</title>
<g id="a_node12"><a xlink:href="$d7/dd3/namespaceamunmt.html#aac616d7d6dd75bad96a6dcf3afe74e85" xlink:title="amunmt::TranslationTaskAnd\lOutput">
<polygon fill="white" stroke="black" points="270,-0.5 270,-30.5 415,-30.5 415,-0.5 270,-0.5"/>
<text text-anchor="start" x="278" y="-18.5" font-family="Helvetica,sans-Serif" font-size="10.00">amunmt::TranslationTaskAnd</text>
<text text-anchor="middle" x="342.5" y="-7.5" font-family="Helvetica,sans-Serif" font-size="10.00">Output</text>
</a>
</g>
</g>
<!-- Node2&#45;&gt;Node12 -->
<g id="edge11" class="edge"><title>Node2&#45;&gt;Node12</title>
<path fill="none" stroke="midnightblue" d="M231.799,-49.9879C250.8,-44.0145 273.688,-36.8187 293.632,-30.5488"/>
<polygon fill="midnightblue" stroke="midnightblue" points="230.744,-46.6508 222.254,-52.9888 232.843,-53.3286 230.744,-46.6508"/>
</g>
<!-- Node4 -->
<g id="node4" class="node"><title>Node4</title>
<g id="a_node4"><a xlink:href="$d5/d49/amunmt_8cpp.html#a1fa5ce5d158455cf2d152ebcbcdf29d0" xlink:title="BOOST_PYTHON_MODULE">
<polygon fill="white" stroke="black" points="451,-180 451,-199 597,-199 597,-180 451,-180"/>
<text text-anchor="middle" x="524" y="-187" font-family="Helvetica,sans-Serif" font-size="10.00">BOOST_PYTHON_MODULE</text>
</a>
</g>
</g>
<!-- Node3&#45;&gt;Node4 -->
<g id="edge3" class="edge"><title>Node3&#45;&gt;Node4</title>
<path fill="none" stroke="midnightblue" d="M363.762,-117.269C384.594,-132.797 418.494,-156.205 451,-170.5 459.521,-174.247 468.944,-177.389 478.087,-179.971"/>
<polygon fill="midnightblue" stroke="midnightblue" points="365.761,-114.393 355.676,-111.147 361.536,-119.974 365.761,-114.393"/>
</g>
<!-- Node5 -->
<g id="node5" class="node"><title>Node5</title>
<g id="a_node5"><a xlink:href="$d6/d38/classmarian_1_1ConfigParser.html#a07165d2c1c885c858d8127eb09f00e71" xlink:title="marian::ConfigParser\l::addOptionsTranslate">
<polygon fill="white" stroke="black" points="467.5,-130.5 467.5,-160.5 580.5,-160.5 580.5,-130.5 467.5,-130.5"/>
<text text-anchor="start" x="475.5" y="-148.5" font-family="Helvetica,sans-Serif" font-size="10.00">marian::ConfigParser</text>
<text text-anchor="middle" x="524" y="-137.5" font-family="Helvetica,sans-Serif" font-size="10.00">::addOptionsTranslate</text>
</a>
</g>
</g>
<!-- Node3&#45;&gt;Node5 -->
<g id="edge4" class="edge"><title>Node3&#45;&gt;Node5</title>
<path fill="none" stroke="midnightblue" d="M379.438,-110.309C404.557,-116.467 438.592,-124.809 467.218,-131.826"/>
<polygon fill="midnightblue" stroke="midnightblue" points="380.147,-106.879 369.601,-107.898 378.48,-113.678 380.147,-106.879"/>
</g>
<!-- Node6 -->
<g id="node6" class="node"><title>Node6</title>
<g id="a_node6"><a xlink:href="$d2/d47/marian_2src_2common_2logging_8h.html#a32a13f91eb216c334ec310b2a8a2f10c" xlink:title="createLoggers">
<polygon fill="white" stroke="black" points="485,-92 485,-111 563,-111 563,-92 485,-92"/>
<text text-anchor="middle" x="524" y="-99" font-family="Helvetica,sans-Serif" font-size="10.00">createLoggers</text>
</a>
</g>
</g>
<!-- Node3&#45;&gt;Node6 -->
<g id="edge5" class="edge"><title>Node3&#45;&gt;Node6</title>
<path fill="none" stroke="midnightblue" d="M379.825,-101.5C410.38,-101.5 453.923,-101.5 484.953,-101.5"/>
<polygon fill="midnightblue" stroke="midnightblue" points="379.601,-98.0001 369.601,-101.5 379.601,-105 379.601,-98.0001"/>
</g>
<!-- Node9 -->
<g id="node9" class="node"><title>Node9</title>
<g id="a_node9"><a xlink:href="$db/de8/classmarian_1_1OutputCollector.html#aac7fb8a5e89ce5a9bac56a6a414e7fe5" xlink:title="marian::OutputCollector\l::Write">
<polygon fill="white" stroke="black" points="464,-42.5 464,-72.5 584,-72.5 584,-42.5 464,-42.5"/>
<text text-anchor="start" x="472" y="-60.5" font-family="Helvetica,sans-Serif" font-size="10.00">marian::OutputCollector</text>
<text text-anchor="middle" x="524" y="-49.5" font-family="Helvetica,sans-Serif" font-size="10.00">::Write</text>
</a>
</g>
</g>
<!-- Node3&#45;&gt;Node9 -->
<g id="edge8" class="edge"><title>Node3&#45;&gt;Node9</title>
<path fill="none" stroke="midnightblue" d="M379.405,-92.6988C403.546,-86.7813 435.932,-78.8426 463.837,-72.0023"/>
<polygon fill="midnightblue" stroke="midnightblue" points="378.48,-89.3218 369.601,-95.102 380.147,-96.1205 378.48,-89.3218"/>
</g>
<!-- Node7 -->
<g id="node7" class="node"><title>Node7</title>
<g id="a_node7"><a xlink:href="$d6/dba/classmarian_1_1Config.html#aa953cca7c4650e7e0538f00388d9f385" xlink:title="marian::Config::Config">
<polygon fill="white" stroke="black" points="635.5,-130 635.5,-149 750.5,-149 750.5,-130 635.5,-130"/>
<text text-anchor="middle" x="693" y="-137" font-family="Helvetica,sans-Serif" font-size="10.00">marian::Config::Config</text>
</a>
</g>
</g>
<!-- Node6&#45;&gt;Node7 -->
<g id="edge6" class="edge"><title>Node6&#45;&gt;Node7</title>
<path fill="none" stroke="midnightblue" d="M573.385,-112.51C597.65,-118.031 626.753,-124.653 650.058,-129.956"/>
<polygon fill="midnightblue" stroke="midnightblue" points="573.841,-109.024 563.313,-110.218 572.287,-115.85 573.841,-109.024"/>
</g>
<!-- Node8 -->
<g id="node8" class="node"><title>Node8</title>
<g id="a_node8"><a xlink:href="$dc/df8/iris_8cpp.html#ae66f6b31b5ad750f1fe042a706a4e3d4" xlink:title="main">
<polygon fill="white" stroke="black" points="674,-92 674,-111 712,-111 712,-92 674,-92"/>
<text text-anchor="middle" x="693" y="-99" font-family="Helvetica,sans-Serif" font-size="10.00">main</text>
</a>
</g>
</g>
<!-- Node6&#45;&gt;Node8 -->
<g id="edge7" class="edge"><title>Node6&#45;&gt;Node8</title>
<path fill="none" stroke="midnightblue" d="M573.424,-101.5C607.065,-101.5 649.988,-101.5 673.875,-101.5"/>
<polygon fill="midnightblue" stroke="midnightblue" points="573.313,-98.0001 563.313,-101.5 573.313,-105 573.313,-98.0001"/>
</g>
<!-- Node10 -->
<g id="node10" class="node"><title>Node10</title>
<g id="a_node10"><a xlink:href="$db/de8/classmarian_1_1OutputCollector.html#a6b877d0629db1fe8d5f5c920025cc859" xlink:title="marian::OutputCollector\l::OutputCollector">
<polygon fill="white" stroke="black" points="633,-42.5 633,-72.5 753,-72.5 753,-42.5 633,-42.5"/>
<text text-anchor="start" x="641" y="-60.5" font-family="Helvetica,sans-Serif" font-size="10.00">marian::OutputCollector</text>
<text text-anchor="middle" x="693" y="-49.5" font-family="Helvetica,sans-Serif" font-size="10.00">::OutputCollector</text>
</a>
</g>
</g>
<!-- Node9&#45;&gt;Node10 -->
<g id="edge9" class="edge"><title>Node9&#45;&gt;Node10</title>
<path fill="none" stroke="midnightblue" d="M594.459,-57.5C607.216,-57.5 620.423,-57.5 632.843,-57.5"/>
<polygon fill="midnightblue" stroke="midnightblue" points="594.348,-54.0001 584.348,-57.5 594.348,-61.0001 594.348,-54.0001"/>
</g>
<!-- Node13 -->
<g id="node13" class="node"><title>Node13</title>
<g id="a_node13"><a xlink:href="$d0/d73/decoder__main_8cpp.html#a0ddf1224851353fc92bfbff6f499fa97" xlink:title="main">
<polygon fill="white" stroke="black" points="505,-4 505,-23 543,-23 543,-4 505,-4"/>
<text text-anchor="middle" x="524" y="-11" font-family="Helvetica,sans-Serif" font-size="10.00">main</text>
</a>
</g>
</g>
<!-- Node12&#45;&gt;Node13 -->
<g id="edge12" class="edge"><title>Node12&#45;&gt;Node13</title>
<path fill="none" stroke="midnightblue" d="M425.238,-14.5893C454.977,-14.2579 485.899,-13.9134 504.803,-13.7028"/>
<polygon fill="midnightblue" stroke="midnightblue" points="425.177,-11.0896 415.217,-14.7009 425.255,-18.0892 425.177,-11.0896"/>
</g>
</g>
</svg>
