<?xml version="1.0" encoding="UTF-8" standalone="no"?>
<!DOCTYPE svg PUBLIC "-//W3C//DTD SVG 1.1//EN"
 "http://www.w3.org/Graphics/SVG/1.1/DTD/svg11.dtd">
<!-- Generated by graphviz version 2.38.0 (20140413.2041)
 -->
<!-- Title: marian::EncoderDecoderSymmetric::build Pages: 1 -->
<svg width="332pt" height="218pt"
 viewBox="0.00 0.00 332.00 218.00" xmlns="http://www.w3.org/2000/svg" xmlns:xlink="http://www.w3.org/1999/xlink">
<g id="graph0" class="graph" transform="scale(1 1) rotate(0) translate(4 214)">
<title>marian::EncoderDecoderSymmetric::build</title>
<polygon fill="white" stroke="none" points="-4,4 -4,-214 328,-214 328,4 -4,4"/>
<!-- Node1 -->
<g id="node1" class="node"><title>Node1</title>
<polygon fill="#bfbfbf" stroke="black" points="0,-90 0,-120 172,-120 172,-90 0,-90"/>
<text text-anchor="start" x="8" y="-108" font-family="Helvetica,sans-Serif" font-size="10.00">marian::EncoderDecoderSymmetric</text>
<text text-anchor="middle" x="86" y="-97" font-family="Helvetica,sans-Serif" font-size="10.00">::build</text>
</g>
<!-- Node2 -->
<g id="node2" class="node"><title>Node2</title>
<g id="a_node2"><a xlink:href="$da/d22/namespacemarian.html#a2791a2c8f79a938f5cb22ae613680675" xlink:title="marian::concatenate">
<polygon fill="white" stroke="black" points="213.5,-190.5 213.5,-209.5 318.5,-209.5 318.5,-190.5 213.5,-190.5"/>
<text text-anchor="middle" x="266" y="-197.5" font-family="Helvetica,sans-Serif" font-size="10.00">marian::concatenate</text>
</a>
</g>
</g>
<!-- Node1&#45;&gt;Node2 -->
<g id="edge1" class="edge"><title>Node1&#45;&gt;Node2</title>
<path fill="none" stroke="midnightblue" d="M107.544,-120.054C130.942,-136.678 170.765,-163.412 208,-181 212.598,-183.172 217.512,-185.206 222.455,-187.075"/>
<polygon fill="midnightblue" stroke="midnightblue" points="221.325,-190.388 231.919,-190.461 223.682,-183.797 221.325,-190.388"/>
</g>
<!-- Node3 -->
<g id="node3" class="node"><title>Node3</title>
<g id="a_node3"><a xlink:href="$da/d22/namespacemarian.html#acd984f43188d0ae23c2a6ef13ae5293f" xlink:title="marian::reshape">
<polygon fill="white" stroke="black" points="223,-152.5 223,-171.5 309,-171.5 309,-152.5 223,-152.5"/>
<text text-anchor="middle" x="266" y="-159.5" font-family="Helvetica,sans-Serif" font-size="10.00">marian::reshape</text>
</a>
</g>
</g>
<!-- Node1&#45;&gt;Node3 -->
<g id="edge2" class="edge"><title>Node1&#45;&gt;Node3</title>
<path fill="none" stroke="midnightblue" d="M134.233,-120.125C162.636,-129.221 198.379,-140.666 225.315,-149.292"/>
<polygon fill="midnightblue" stroke="midnightblue" points="224.582,-152.732 235.173,-152.449 226.717,-146.066 224.582,-152.732"/>
</g>
<!-- Node4 -->
<g id="node4" class="node"><title>Node4</title>
<g id="a_node4"><a xlink:href="$da/d22/namespacemarian.html#a442bfa469f081af4c2665c341efc71ce" xlink:title="marian::debug">
<polygon fill="white" stroke="black" points="227,-114.5 227,-133.5 305,-133.5 305,-114.5 227,-114.5"/>
<text text-anchor="middle" x="266" y="-121.5" font-family="Helvetica,sans-Serif" font-size="10.00">marian::debug</text>
</a>
</g>
</g>
<!-- Node1&#45;&gt;Node4 -->
<g id="edge3" class="edge"><title>Node1&#45;&gt;Node4</title>
<path fill="none" stroke="midnightblue" d="M172.09,-114.083C187.333,-115.71 202.729,-117.353 216.485,-118.821"/>
<polygon fill="midnightblue" stroke="midnightblue" points="216.34,-122.326 226.655,-119.907 217.083,-115.365 216.34,-122.326"/>
</g>
<!-- Node5 -->
<g id="node5" class="node"><title>Node5</title>
<g id="a_node5"><a xlink:href="$da/d22/namespacemarian.html#ace1e9a63d52edc363d70d661cf8d0257" xlink:title="marian::rows">
<polygon fill="white" stroke="black" points="229.5,-76.5 229.5,-95.5 302.5,-95.5 302.5,-76.5 229.5,-76.5"/>
<text text-anchor="middle" x="266" y="-83.5" font-family="Helvetica,sans-Serif" font-size="10.00">marian::rows</text>
</a>
</g>
</g>
<!-- Node1&#45;&gt;Node5 -->
<g id="edge4" class="edge"><title>Node1&#45;&gt;Node5</title>
<path fill="none" stroke="midnightblue" d="M172.09,-95.9174C188.345,-94.1823 204.775,-92.4285 219.204,-90.8883"/>
<polygon fill="midnightblue" stroke="midnightblue" points="219.754,-94.3496 229.326,-89.8079 219.011,-87.3891 219.754,-94.3496"/>
</g>
<!-- Node6 -->
<g id="node6" class="node"><title>Node6</title>
<g id="a_node6"><a xlink:href="$da/d22/namespacemarian.html#a15ec9743709e47180378db974ddbf116" xlink:title="marian::mean">
<polygon fill="white" stroke="black" points="228,-38.5 228,-57.5 304,-57.5 304,-38.5 228,-38.5"/>
<text text-anchor="middle" x="266" y="-45.5" font-family="Helvetica,sans-Serif" font-size="10.00">marian::mean</text>
</a>
</g>
</g>
<!-- Node1&#45;&gt;Node6 -->
<g id="edge5" class="edge"><title>Node1&#45;&gt;Node6</title>
<path fill="none" stroke="midnightblue" d="M134.233,-89.8747C162.636,-80.7794 198.379,-69.3338 225.315,-60.7083"/>
<polygon fill="midnightblue" stroke="midnightblue" points="226.717,-63.9343 235.173,-57.5513 224.582,-57.2678 226.717,-63.9343"/>
</g>
<!-- Node7 -->
<g id="node7" class="node"><title>Node7</title>
<g id="a_node7"><a xlink:href="$da/d22/namespacemarian.html#a7bed97354565d7b751bed999c6c203e3" xlink:title="marian::scalar_product">
<polygon fill="white" stroke="black" points="208,-0.5 208,-19.5 324,-19.5 324,-0.5 208,-0.5"/>
<text text-anchor="middle" x="266" y="-7.5" font-family="Helvetica,sans-Serif" font-size="10.00">marian::scalar_product</text>
</a>
</g>
</g>
<!-- Node1&#45;&gt;Node7 -->
<g id="edge6" class="edge"><title>Node1&#45;&gt;Node7</title>
<path fill="none" stroke="midnightblue" d="M107.544,-89.9462C130.942,-73.3223 170.765,-46.588 208,-29 212.598,-26.8281 217.512,-24.7944 222.455,-22.925"/>
<polygon fill="midnightblue" stroke="midnightblue" points="223.682,-26.203 231.919,-19.5394 221.325,-19.6119 223.682,-26.203"/>
</g>
</g>
</svg>
