<?xml version="1.0" encoding="UTF-8" standalone="no"?>
<!DOCTYPE svg PUBLIC "-//W3C//DTD SVG 1.1//EN"
 "http://www.w3.org/Graphics/SVG/1.1/DTD/svg11.dtd">
<!-- Generated by graphviz version 2.38.0 (20140413.2041)
 -->
<!-- Title: marian::Shape::elements Pages: 1 -->
<svg width="475pt" height="230pt"
 viewBox="0.00 0.00 475.00 230.00" xmlns="http://www.w3.org/2000/svg" xmlns:xlink="http://www.w3.org/1999/xlink">
<g id="graph0" class="graph" transform="scale(1 1) rotate(0) translate(4 226)">
<title>marian::Shape::elements</title>
<polygon fill="white" stroke="none" points="-4,4 -4,-226 471,-226 471,4 -4,4"/>
<!-- Node1 -->
<g id="node1" class="node"><title>Node1</title>
<polygon fill="#bfbfbf" stroke="black" points="0,-104 0,-123 125,-123 125,-104 0,-104"/>
<text text-anchor="middle" x="62.5" y="-111" font-family="Helvetica,sans-Serif" font-size="10.00">marian::Shape::elements</text>
</g>
<!-- Node2 -->
<g id="node2" class="node"><title>Node2</title>
<g id="a_node2"><a xlink:href="../../d8/d75/classmarian_1_1TimestepNodeOp.html#a9d16e5a4d7b7359c4b4e230500a45343" target="_top" xlink:title="marian::TimestepNodeOp::val">
<polygon fill="white" stroke="black" points="161,-197 161,-216 308,-216 308,-197 161,-197"/>
<text text-anchor="middle" x="234.5" y="-204" font-family="Helvetica,sans-Serif" font-size="10.00">marian::TimestepNodeOp::val</text>
</a>
</g>
</g>
<!-- Node1&#45;&gt;Node2 -->
<g id="edge1" class="edge"><title>Node1&#45;&gt;Node2</title>
<path fill="none" stroke="midnightblue" d="M80.7535,-130.006C99.2131,-146.8 130.039,-172.438 161,-187.5 168.84,-191.314 177.542,-194.433 186.118,-196.959"/>
<polygon fill="midnightblue" stroke="midnightblue" points="83.1222,-127.429 73.4105,-123.194 78.3617,-132.561 83.1222,-127.429"/>
</g>
<!-- Node3 -->
<g id="node3" class="node"><title>Node3</title>
<g id="a_node3"><a xlink:href="../../d8/d75/classmarian_1_1TimestepNodeOp.html#a02af0c9c13e16888c53deb7032061d1d" target="_top" xlink:title="marian::TimestepNodeOp\l::grad">
<polygon fill="white" stroke="black" points="170.5,-147.5 170.5,-177.5 298.5,-177.5 298.5,-147.5 170.5,-147.5"/>
<text text-anchor="start" x="178.5" y="-165.5" font-family="Helvetica,sans-Serif" font-size="10.00">marian::TimestepNodeOp</text>
<text text-anchor="middle" x="234.5" y="-154.5" font-family="Helvetica,sans-Serif" font-size="10.00">::grad</text>
</a>
</g>
</g>
<!-- Node1&#45;&gt;Node3 -->
<g id="edge2" class="edge"><title>Node1&#45;&gt;Node3</title>
<path fill="none" stroke="midnightblue" d="M106.401,-125.866C129.163,-132.426 157.313,-140.54 181.331,-147.463"/>
<polygon fill="midnightblue" stroke="midnightblue" points="107.259,-122.471 96.6813,-123.064 105.321,-129.197 107.259,-122.471"/>
</g>
<!-- Node4 -->
<g id="node4" class="node"><title>Node4</title>
<g id="a_node4"><a xlink:href="../../dd/d3c/classmarian_1_1TensorBase.html#ae4a6d6a80b85704484a5f21b9c1506d0" target="_top" xlink:title="marian::TensorBase\l::size">
<polygon fill="white" stroke="black" points="182.5,-98.5 182.5,-128.5 286.5,-128.5 286.5,-98.5 182.5,-98.5"/>
<text text-anchor="start" x="190.5" y="-116.5" font-family="Helvetica,sans-Serif" font-size="10.00">marian::TensorBase</text>
<text text-anchor="middle" x="234.5" y="-105.5" font-family="Helvetica,sans-Serif" font-size="10.00">::size</text>
</a>
</g>
</g>
<!-- Node1&#45;&gt;Node4 -->
<g id="edge3" class="edge"><title>Node1&#45;&gt;Node4</title>
<path fill="none" stroke="midnightblue" d="M135.57,-113.5C151.283,-113.5 167.599,-113.5 182.303,-113.5"/>
<polygon fill="midnightblue" stroke="midnightblue" points="135.355,-110 125.355,-113.5 135.355,-117 135.355,-110"/>
</g>
<!-- Node10 -->
<g id="node10" class="node"><title>Node10</title>
<g id="a_node10"><a xlink:href="../../d3/df2/classmarian_1_1TensorAllocator.html#a72534a67e125523fc97edec3dbe6597f" target="_top" xlink:title="marian::TensorAllocator\l::capacity">
<polygon fill="white" stroke="black" points="174.5,-49.5 174.5,-79.5 294.5,-79.5 294.5,-49.5 174.5,-49.5"/>
<text text-anchor="start" x="182.5" y="-67.5" font-family="Helvetica,sans-Serif" font-size="10.00">marian::TensorAllocator</text>
<text text-anchor="middle" x="234.5" y="-56.5" font-family="Helvetica,sans-Serif" font-size="10.00">::capacity</text>
</a>
</g>
</g>
<!-- Node1&#45;&gt;Node10 -->
<g id="edge9" class="edge"><title>Node1&#45;&gt;Node10</title>
<path fill="none" stroke="midnightblue" d="M106.401,-101.134C129.163,-94.5735 157.313,-86.4597 181.331,-79.537"/>
<polygon fill="midnightblue" stroke="midnightblue" points="105.321,-97.8032 96.6813,-103.936 107.259,-104.529 105.321,-97.8032"/>
</g>
<!-- Node11 -->
<g id="node11" class="node"><title>Node11</title>
<g id="a_node11"><a xlink:href="../../d3/df2/classmarian_1_1TensorAllocator.html#ac5ecda49dde41d94952298ce9c33ef5f" target="_top" xlink:title="marian::TensorAllocator\l::allocate">
<polygon fill="white" stroke="black" points="174.5,-0.5 174.5,-30.5 294.5,-30.5 294.5,-0.5 174.5,-0.5"/>
<text text-anchor="start" x="182.5" y="-18.5" font-family="Helvetica,sans-Serif" font-size="10.00">marian::TensorAllocator</text>
<text text-anchor="middle" x="234.5" y="-7.5" font-family="Helvetica,sans-Serif" font-size="10.00">::allocate</text>
</a>
</g>
</g>
<!-- Node1&#45;&gt;Node11 -->
<g id="edge10" class="edge"><title>Node1&#45;&gt;Node11</title>
<path fill="none" stroke="midnightblue" d="M81.2542,-97.1211C99.9077,-80.6422 130.695,-55.4488 161,-39.5 167.336,-36.1656 174.224,-33.1701 181.151,-30.5187"/>
<polygon fill="midnightblue" stroke="midnightblue" points="78.9121,-94.5201 73.811,-103.806 83.5896,-99.728 78.9121,-94.5201"/>
</g>
<!-- Node5 -->
<g id="node5" class="node"><title>Node5</title>
<g id="a_node5"><a xlink:href="../../dd/d3c/classmarian_1_1TensorBase.html#aa627fcb0c643d0ef671973ca2c9ecd3b" target="_top" xlink:title="marian::TensorBase\l::scalar">
<polygon fill="white" stroke="black" points="353.5,-191.5 353.5,-221.5 457.5,-221.5 457.5,-191.5 353.5,-191.5"/>
<text text-anchor="start" x="361.5" y="-209.5" font-family="Helvetica,sans-Serif" font-size="10.00">marian::TensorBase</text>
<text text-anchor="middle" x="405.5" y="-198.5" font-family="Helvetica,sans-Serif" font-size="10.00">::scalar</text>
</a>
</g>
</g>
<!-- Node4&#45;&gt;Node5 -->
<g id="edge4" class="edge"><title>Node4&#45;&gt;Node5</title>
<path fill="none" stroke="midnightblue" d="M296.084,-131.435C300.254,-133.556 304.274,-135.904 308,-138.5 328.731,-152.945 323.604,-167.586 344,-182.5 348.561,-185.835 353.648,-188.782 358.882,-191.367"/>
<polygon fill="midnightblue" stroke="midnightblue" points="297.32,-128.151 286.772,-127.15 294.394,-134.51 297.32,-128.151"/>
</g>
<!-- Node6 -->
<g id="node6" class="node"><title>Node6</title>
<g id="a_node6"><a xlink:href="../../dd/d3c/classmarian_1_1TensorBase.html#ac2b98828c27c5900889acab2c6887ae0" target="_top" xlink:title="marian::TensorBase\l::subtensor">
<polygon fill="white" stroke="black" points="353.5,-142.5 353.5,-172.5 457.5,-172.5 457.5,-142.5 353.5,-142.5"/>
<text text-anchor="start" x="361.5" y="-160.5" font-family="Helvetica,sans-Serif" font-size="10.00">marian::TensorBase</text>
<text text-anchor="middle" x="405.5" y="-149.5" font-family="Helvetica,sans-Serif" font-size="10.00">::subtensor</text>
</a>
</g>
</g>
<!-- Node4&#45;&gt;Node6 -->
<g id="edge5" class="edge"><title>Node4&#45;&gt;Node6</title>
<path fill="none" stroke="midnightblue" d="M296.505,-129.383C315.097,-134.224 335.338,-139.493 353.218,-144.149"/>
<polygon fill="midnightblue" stroke="midnightblue" points="297.223,-125.953 286.664,-126.821 295.46,-132.728 297.223,-125.953"/>
</g>
<!-- Node7 -->
<g id="node7" class="node"><title>Node7</title>
<g id="a_node7"><a xlink:href="../../d0/d5b/classmarian_1_1TensorCPU.html#a783de048c2d0a6400359bac0f3268080" target="_top" xlink:title="marian::TensorCPU::get">
<polygon fill="white" stroke="black" points="344,-104 344,-123 467,-123 467,-104 344,-104"/>
<text text-anchor="middle" x="405.5" y="-111" font-family="Helvetica,sans-Serif" font-size="10.00">marian::TensorCPU::get</text>
</a>
</g>
</g>
<!-- Node4&#45;&gt;Node7 -->
<g id="edge6" class="edge"><title>Node4&#45;&gt;Node7</title>
<path fill="none" stroke="midnightblue" d="M297.057,-113.5C312.358,-113.5 328.746,-113.5 343.996,-113.5"/>
<polygon fill="midnightblue" stroke="midnightblue" points="296.664,-110 286.664,-113.5 296.664,-117 296.664,-110"/>
</g>
<!-- Node8 -->
<g id="node8" class="node"><title>Node8</title>
<g id="a_node8"><a xlink:href="../../d0/d5b/classmarian_1_1TensorCPU.html#ac5ce20b62588fe95e38d2edaa2fb3c5b" target="_top" xlink:title="marian::TensorCPU::set">
<polygon fill="white" stroke="black" points="344,-66 344,-85 467,-85 467,-66 344,-66"/>
<text text-anchor="middle" x="405.5" y="-73" font-family="Helvetica,sans-Serif" font-size="10.00">marian::TensorCPU::set</text>
</a>
</g>
</g>
<!-- Node4&#45;&gt;Node8 -->
<g id="edge7" class="edge"><title>Node4&#45;&gt;Node8</title>
<path fill="none" stroke="midnightblue" d="M296.469,-99.7911C318.204,-94.9039 342.196,-89.5092 362.038,-85.0476"/>
<polygon fill="midnightblue" stroke="midnightblue" points="295.653,-96.3871 286.664,-101.996 297.188,-103.217 295.653,-96.3871"/>
</g>
<!-- Node9 -->
<g id="node9" class="node"><title>Node9</title>
<g id="a_node9"><a xlink:href="../../d6/d2d/classmarian_1_1DeviceCPU.html#abdcf01c5e5c8e4aa89f8a16fc6c357e6" target="_top" xlink:title="marian::DeviceCPU::\lreserve">
<polygon fill="white" stroke="black" points="350.5,-16.5 350.5,-46.5 460.5,-46.5 460.5,-16.5 350.5,-16.5"/>
<text text-anchor="start" x="358.5" y="-34.5" font-family="Helvetica,sans-Serif" font-size="10.00">marian::DeviceCPU::</text>
<text text-anchor="middle" x="405.5" y="-23.5" font-family="Helvetica,sans-Serif" font-size="10.00">reserve</text>
</a>
</g>
</g>
<!-- Node4&#45;&gt;Node9 -->
<g id="edge8" class="edge"><title>Node4&#45;&gt;Node9</title>
<path fill="none" stroke="midnightblue" d="M295.864,-94.7819C300.059,-92.8471 304.147,-90.7544 308,-88.5 326.477,-77.6899 325.854,-67.8576 344,-56.5 349.876,-52.8219 356.387,-49.4772 362.897,-46.5159"/>
<polygon fill="midnightblue" stroke="midnightblue" points="294.375,-91.6122 286.56,-98.7664 297.131,-98.0469 294.375,-91.6122"/>
</g>
</g>
</svg>
