<?xml version="1.0" encoding="UTF-8" standalone="no"?>
<!DOCTYPE svg PUBLIC "-//W3C//DTD SVG 1.1//EN"
 "http://www.w3.org/Graphics/SVG/1.1/DTD/svg11.dtd">
<!-- Generated by graphviz version 2.38.0 (20140413.2041)
 -->
<!-- Title: marian::Shape::set Pages: 1 -->
<svg width="461pt" height="715pt"
 viewBox="0.00 0.00 461.00 714.50" xmlns="http://www.w3.org/2000/svg" xmlns:xlink="http://www.w3.org/1999/xlink">
<g id="graph0" class="graph" transform="scale(1 1) rotate(0) translate(4 710.5)">
<title>marian::Shape::set</title>
<polygon fill="white" stroke="none" points="-4,4 -4,-710.5 457,-710.5 457,4 -4,4"/>
<!-- Node1 -->
<g id="node1" class="node"><title>Node1</title>
<polygon fill="#bfbfbf" stroke="black" points="0,-349 0,-368 99,-368 99,-349 0,-349"/>
<text text-anchor="middle" x="49.5" y="-356" font-family="Helvetica,sans-Serif" font-size="10.00">marian::Shape::set</text>
</g>
<!-- Node2 -->
<g id="node2" class="node"><title>Node2</title>
<g id="a_node2"><a xlink:href="../../d6/d14/classmarian_1_1Amun.html#a0e8ed942ad3b414f43f29dbb6e9081eb" target="_top" xlink:title="marian::Amun::load">
<polygon fill="white" stroke="black" points="156,-687 156,-706 257,-706 257,-687 156,-687"/>
<text text-anchor="middle" x="206.5" y="-694" font-family="Helvetica,sans-Serif" font-size="10.00">marian::Amun::load</text>
</a>
</g>
</g>
<!-- Node1&#45;&gt;Node2 -->
<g id="edge1" class="edge"><title>Node1&#45;&gt;Node2</title>
<path fill="none" stroke="midnightblue" d="M53.121,-378.198C61.8437,-440.876 91.8069,-634.12 135,-677.5 140.724,-683.249 147.993,-687.311 155.675,-690.17"/>
<polygon fill="midnightblue" stroke="midnightblue" points="56.5603,-377.515 51.7411,-368.079 49.6245,-378.461 56.5603,-377.515"/>
</g>
<!-- Node3 -->
<g id="node3" class="node"><title>Node3</title>
<g id="a_node3"><a xlink:href="../../da/db9/classmarian_1_1ExpressionGraph.html#a67747b40ca80d7dc5b5dbd3d45793cce" target="_top" xlink:title="marian::ExpressionGraph\l::load">
<polygon fill="white" stroke="black" points="143,-637.5 143,-667.5 270,-667.5 270,-637.5 143,-637.5"/>
<text text-anchor="start" x="151" y="-655.5" font-family="Helvetica,sans-Serif" font-size="10.00">marian::ExpressionGraph</text>
<text text-anchor="middle" x="206.5" y="-644.5" font-family="Helvetica,sans-Serif" font-size="10.00">::load</text>
</a>
</g>
</g>
<!-- Node1&#45;&gt;Node3 -->
<g id="edge2" class="edge"><title>Node1&#45;&gt;Node3</title>
<path fill="none" stroke="midnightblue" d="M50.8785,-378.419C52.9017,-427.739 64.9871,-556.728 135,-628.5 138.34,-631.924 142.188,-634.86 146.326,-637.377"/>
<polygon fill="midnightblue" stroke="midnightblue" points="54.3689,-378.051 50.5613,-368.164 47.3723,-378.267 54.3689,-378.051"/>
</g>
<!-- Node4 -->
<g id="node4" class="node"><title>Node4</title>
<g id="a_node4"><a xlink:href="../../dc/d8c/structmarian_1_1DotNodeOp.html#ad897baac4270ce0d87fd90d340609e52" target="_top" xlink:title="marian::DotNodeOp::\lnewShape">
<polygon fill="white" stroke="black" points="151.5,-588.5 151.5,-618.5 261.5,-618.5 261.5,-588.5 151.5,-588.5"/>
<text text-anchor="start" x="159.5" y="-606.5" font-family="Helvetica,sans-Serif" font-size="10.00">marian::DotNodeOp::</text>
<text text-anchor="middle" x="206.5" y="-595.5" font-family="Helvetica,sans-Serif" font-size="10.00">newShape</text>
</a>
</g>
</g>
<!-- Node1&#45;&gt;Node4 -->
<g id="edge3" class="edge"><title>Node1&#45;&gt;Node4</title>
<path fill="none" stroke="midnightblue" d="M52.4654,-378.199C57.769,-420.93 76.2035,-522.844 135,-579.5 139.748,-584.075 145.403,-587.78 151.414,-590.78"/>
<polygon fill="midnightblue" stroke="midnightblue" points="55.9159,-377.563 51.3168,-368.018 48.9601,-378.348 55.9159,-377.563"/>
</g>
<!-- Node9 -->
<g id="node9" class="node"><title>Node9</title>
<g id="a_node9"><a xlink:href="../../d9/dbf/structmarian_1_1ScalarProductNodeOp.html#ae050799808ccec985a488ab6849944fe" target="_top" xlink:title="marian::ScalarProductNode\lOp::newShape">
<polygon fill="white" stroke="black" points="138,-539.5 138,-569.5 275,-569.5 275,-539.5 138,-539.5"/>
<text text-anchor="start" x="146" y="-557.5" font-family="Helvetica,sans-Serif" font-size="10.00">marian::ScalarProductNode</text>
<text text-anchor="middle" x="206.5" y="-546.5" font-family="Helvetica,sans-Serif" font-size="10.00">Op::newShape</text>
</a>
</g>
</g>
<!-- Node1&#45;&gt;Node9 -->
<g id="edge8" class="edge"><title>Node1&#45;&gt;Node9</title>
<path fill="none" stroke="midnightblue" d="M54.9307,-378.359C63.876,-413.925 87.4247,-488.678 135,-530.5 138.884,-533.915 143.276,-536.848 147.922,-539.367"/>
<polygon fill="midnightblue" stroke="midnightblue" points="58.2514,-377.195 52.5276,-368.279 51.4423,-378.818 58.2514,-377.195"/>
</g>
<!-- Node10 -->
<g id="node10" class="node"><title>Node10</title>
<g id="a_node10"><a xlink:href="../../d1/dff/structmarian_1_1ElementBinaryNodeOp.html#ab19f15ffa616cc629569f88755c9c725" target="_top" xlink:title="marian::ElementBinaryNode\lOp::newShape">
<polygon fill="white" stroke="black" points="137,-490.5 137,-520.5 276,-520.5 276,-490.5 137,-490.5"/>
<text text-anchor="start" x="145" y="-508.5" font-family="Helvetica,sans-Serif" font-size="10.00">marian::ElementBinaryNode</text>
<text text-anchor="middle" x="206.5" y="-497.5" font-family="Helvetica,sans-Serif" font-size="10.00">Op::newShape</text>
</a>
</g>
</g>
<!-- Node1&#45;&gt;Node10 -->
<g id="edge9" class="edge"><title>Node1&#45;&gt;Node10</title>
<path fill="none" stroke="midnightblue" d="M58.7591,-377.492C71.3905,-404.399 97.9957,-453.457 135,-481.5 139.534,-484.936 144.592,-487.9 149.86,-490.452"/>
<polygon fill="midnightblue" stroke="midnightblue" points="61.7941,-375.71 54.476,-368.049 55.4191,-378.601 61.7941,-375.71"/>
</g>
<!-- Node11 -->
<g id="node11" class="node"><title>Node11</title>
<g id="a_node11"><a xlink:href="../../da/d72/structmarian_1_1CrossEntropyNodeOp.html#a1e72292a14569fda92abc806dbc79acb" target="_top" xlink:title="marian::CrossEntropyNode\lOp::newShape">
<polygon fill="white" stroke="black" points="139,-441.5 139,-471.5 274,-471.5 274,-441.5 139,-441.5"/>
<text text-anchor="start" x="147" y="-459.5" font-family="Helvetica,sans-Serif" font-size="10.00">marian::CrossEntropyNode</text>
<text text-anchor="middle" x="206.5" y="-448.5" font-family="Helvetica,sans-Serif" font-size="10.00">Op::newShape</text>
</a>
</g>
</g>
<!-- Node1&#45;&gt;Node11 -->
<g id="edge10" class="edge"><title>Node1&#45;&gt;Node11</title>
<path fill="none" stroke="midnightblue" d="M65.8842,-375.38C81.7791,-391.941 108.007,-416.913 135,-432.5 140.822,-435.862 147.188,-438.849 153.636,-441.473"/>
<polygon fill="midnightblue" stroke="midnightblue" points="68.3517,-372.895 58.9533,-368.004 63.2505,-377.689 68.3517,-372.895"/>
</g>
<!-- Node12 -->
<g id="node12" class="node"><title>Node12</title>
<g id="a_node12"><a xlink:href="../../d5/d3e/structmarian_1_1ConcatenateNodeOp.html#a7e9ce31c059ea7f61e778c16fbb62e2c" target="_top" xlink:title="marian::ConcatenateNodeOp\l::newShape">
<polygon fill="white" stroke="black" points="135,-392.5 135,-422.5 278,-422.5 278,-392.5 135,-392.5"/>
<text text-anchor="start" x="143" y="-410.5" font-family="Helvetica,sans-Serif" font-size="10.00">marian::ConcatenateNodeOp</text>
<text text-anchor="middle" x="206.5" y="-399.5" font-family="Helvetica,sans-Serif" font-size="10.00">::newShape</text>
</a>
</g>
</g>
<!-- Node1&#45;&gt;Node12 -->
<g id="edge11" class="edge"><title>Node1&#45;&gt;Node12</title>
<path fill="none" stroke="midnightblue" d="M90.4563,-371.131C111.059,-377.645 136.33,-385.633 157.934,-392.463"/>
<polygon fill="midnightblue" stroke="midnightblue" points="91.3434,-367.741 80.7535,-368.064 89.2334,-374.416 91.3434,-367.741"/>
</g>
<!-- Node13 -->
<g id="node13" class="node"><title>Node13</title>
<g id="a_node13"><a xlink:href="../../d0/d6a/structmarian_1_1AffineNodeOp.html#a6a802543c6b3aeb37753ba775ac09c23" target="_top" xlink:title="marian::AffineNodeOp\l::newShape">
<polygon fill="white" stroke="black" points="150,-343.5 150,-373.5 263,-373.5 263,-343.5 150,-343.5"/>
<text text-anchor="start" x="158" y="-361.5" font-family="Helvetica,sans-Serif" font-size="10.00">marian::AffineNodeOp</text>
<text text-anchor="middle" x="206.5" y="-350.5" font-family="Helvetica,sans-Serif" font-size="10.00">::newShape</text>
</a>
</g>
</g>
<!-- Node1&#45;&gt;Node13 -->
<g id="edge12" class="edge"><title>Node1&#45;&gt;Node13</title>
<path fill="none" stroke="midnightblue" d="M109.121,-358.5C122.441,-358.5 136.554,-358.5 149.751,-358.5"/>
<polygon fill="midnightblue" stroke="midnightblue" points="109.118,-355 99.1177,-358.5 109.118,-362 109.118,-355"/>
</g>
<!-- Node14 -->
<g id="node14" class="node"><title>Node14</title>
<g id="a_node14"><a xlink:href="../../d9/d8a/structmarian_1_1TanhNodeOp.html#a09f244867abe44271e2138204eaff0d2" target="_top" xlink:title="marian::TanhNodeOp\l::newShape">
<polygon fill="white" stroke="black" points="151.5,-294.5 151.5,-324.5 261.5,-324.5 261.5,-294.5 151.5,-294.5"/>
<text text-anchor="start" x="159.5" y="-312.5" font-family="Helvetica,sans-Serif" font-size="10.00">marian::TanhNodeOp</text>
<text text-anchor="middle" x="206.5" y="-301.5" font-family="Helvetica,sans-Serif" font-size="10.00">::newShape</text>
</a>
</g>
</g>
<!-- Node1&#45;&gt;Node14 -->
<g id="edge13" class="edge"><title>Node1&#45;&gt;Node14</title>
<path fill="none" stroke="midnightblue" d="M90.4563,-345.869C111.059,-339.355 136.33,-331.367 157.934,-324.537"/>
<polygon fill="midnightblue" stroke="midnightblue" points="89.2334,-342.584 80.7535,-348.936 91.3434,-349.259 89.2334,-342.584"/>
</g>
<!-- Node15 -->
<g id="node15" class="node"><title>Node15</title>
<g id="a_node15"><a xlink:href="../../dc/d7a/structmarian_1_1SumNodeOp.html#a217ee895f48f464dbe0ce55c685b927a" target="_top" xlink:title="marian::SumNodeOp::\lnewShape">
<polygon fill="white" stroke="black" points="149.5,-245.5 149.5,-275.5 263.5,-275.5 263.5,-245.5 149.5,-245.5"/>
<text text-anchor="start" x="157.5" y="-263.5" font-family="Helvetica,sans-Serif" font-size="10.00">marian::SumNodeOp::</text>
<text text-anchor="middle" x="206.5" y="-252.5" font-family="Helvetica,sans-Serif" font-size="10.00">newShape</text>
</a>
</g>
</g>
<!-- Node1&#45;&gt;Node15 -->
<g id="edge14" class="edge"><title>Node1&#45;&gt;Node15</title>
<path fill="none" stroke="midnightblue" d="M66.4889,-341.404C82.4973,-325.133 108.499,-300.908 135,-285.5 141.399,-281.779 148.444,-278.476 155.529,-275.589"/>
<polygon fill="midnightblue" stroke="midnightblue" points="63.8957,-339.051 59.4746,-348.68 68.935,-343.91 63.8957,-339.051"/>
</g>
<!-- Node16 -->
<g id="node16" class="node"><title>Node16</title>
<g id="a_node16"><a xlink:href="../../de/dfa/structmarian_1_1MeanNodeOp.html#a21514a578bd7952b2d863cd164279baf" target="_top" xlink:title="marian::MeanNodeOp\l::newShape">
<polygon fill="white" stroke="black" points="150.5,-196.5 150.5,-226.5 262.5,-226.5 262.5,-196.5 150.5,-196.5"/>
<text text-anchor="start" x="158.5" y="-214.5" font-family="Helvetica,sans-Serif" font-size="10.00">marian::MeanNodeOp</text>
<text text-anchor="middle" x="206.5" y="-203.5" font-family="Helvetica,sans-Serif" font-size="10.00">::newShape</text>
</a>
</g>
</g>
<!-- Node1&#45;&gt;Node16 -->
<g id="edge15" class="edge"><title>Node1&#45;&gt;Node16</title>
<path fill="none" stroke="midnightblue" d="M59.0369,-339.331C71.8508,-312.637 98.5041,-264.412 135,-236.5 140.055,-232.634 145.757,-229.333 151.674,-226.52"/>
<polygon fill="midnightblue" stroke="midnightblue" points="55.7119,-338.181 54.6749,-348.725 62.0608,-341.129 55.7119,-338.181"/>
</g>
<!-- Node17 -->
<g id="node17" class="node"><title>Node17</title>
<g id="a_node17"><a xlink:href="../../db/dfd/structmarian_1_1RowsNodeOp.html#ae973282fa06756d61cd0827136138dad" target="_top" xlink:title="marian::RowsNodeOp\l::newShape">
<polygon fill="white" stroke="black" points="150,-147.5 150,-177.5 263,-177.5 263,-147.5 150,-147.5"/>
<text text-anchor="start" x="158" y="-165.5" font-family="Helvetica,sans-Serif" font-size="10.00">marian::RowsNodeOp</text>
<text text-anchor="middle" x="206.5" y="-154.5" font-family="Helvetica,sans-Serif" font-size="10.00">::newShape</text>
</a>
</g>
</g>
<!-- Node1&#45;&gt;Node17 -->
<g id="edge16" class="edge"><title>Node1&#45;&gt;Node17</title>
<path fill="none" stroke="midnightblue" d="M55.0171,-338.814C64.1008,-303.546 87.8633,-229.371 135,-187.5 139.369,-183.619 144.381,-180.33 149.673,-177.545"/>
<polygon fill="midnightblue" stroke="midnightblue" points="51.549,-338.262 52.5727,-348.808 58.3486,-339.926 51.549,-338.262"/>
</g>
<!-- Node18 -->
<g id="node18" class="node"><title>Node18</title>
<g id="a_node18"><a xlink:href="../../d7/d70/structmarian_1_1ColsNodeOp.html#a22553cfaa20952f20581670d433bad5b" target="_top" xlink:title="marian::ColsNodeOp\l::newShape">
<polygon fill="white" stroke="black" points="152.5,-98.5 152.5,-128.5 260.5,-128.5 260.5,-98.5 152.5,-98.5"/>
<text text-anchor="start" x="160.5" y="-116.5" font-family="Helvetica,sans-Serif" font-size="10.00">marian::ColsNodeOp</text>
<text text-anchor="middle" x="206.5" y="-105.5" font-family="Helvetica,sans-Serif" font-size="10.00">::newShape</text>
</a>
</g>
</g>
<!-- Node1&#45;&gt;Node18 -->
<g id="edge17" class="edge"><title>Node1&#45;&gt;Node18</title>
<path fill="none" stroke="midnightblue" d="M52.5884,-338.627C58.1071,-296.009 76.8956,-195.116 135,-138.5 140.023,-133.606 146.063,-129.664 152.469,-126.491"/>
<polygon fill="midnightblue" stroke="midnightblue" points="49.1099,-338.24 51.4083,-348.582 56.0612,-339.064 49.1099,-338.24"/>
</g>
<!-- Node19 -->
<g id="node19" class="node"><title>Node19</title>
<g id="a_node19"><a xlink:href="../../d7/dc5/structmarian_1_1TransposeNodeOp.html#a673f354b5892c9f835f470a297f4f22c" target="_top" xlink:title="marian::TransposeNodeOp\l::newShape">
<polygon fill="white" stroke="black" points="139.5,-49.5 139.5,-79.5 273.5,-79.5 273.5,-49.5 139.5,-49.5"/>
<text text-anchor="start" x="147.5" y="-67.5" font-family="Helvetica,sans-Serif" font-size="10.00">marian::TransposeNodeOp</text>
<text text-anchor="middle" x="206.5" y="-56.5" font-family="Helvetica,sans-Serif" font-size="10.00">::newShape</text>
</a>
</g>
</g>
<!-- Node1&#45;&gt;Node19 -->
<g id="edge18" class="edge"><title>Node1&#45;&gt;Node19</title>
<path fill="none" stroke="midnightblue" d="M50.9588,-338.707C53.1659,-289.691 65.6391,-161.433 135,-89.5 138.696,-85.6672 143.016,-82.4208 147.666,-79.6713"/>
<polygon fill="midnightblue" stroke="midnightblue" points="47.4542,-338.782 50.6019,-348.899 54.4499,-339.027 47.4542,-338.782"/>
</g>
<!-- Node20 -->
<g id="node20" class="node"><title>Node20</title>
<g id="a_node20"><a xlink:href="../../d8/d75/classmarian_1_1TimestepNodeOp.html#af59462293088e6859217d6436b929bd3" target="_top" xlink:title="marian::TimestepNodeOp\l::newShape">
<polygon fill="white" stroke="black" points="142.5,-0.5 142.5,-30.5 270.5,-30.5 270.5,-0.5 142.5,-0.5"/>
<text text-anchor="start" x="150.5" y="-18.5" font-family="Helvetica,sans-Serif" font-size="10.00">marian::TimestepNodeOp</text>
<text text-anchor="middle" x="206.5" y="-7.5" font-family="Helvetica,sans-Serif" font-size="10.00">::newShape</text>
</a>
</g>
</g>
<!-- Node1&#45;&gt;Node20 -->
<g id="edge19" class="edge"><title>Node1&#45;&gt;Node20</title>
<path fill="none" stroke="midnightblue" d="M49.7331,-338.774C48.6987,-283.752 53.4431,-126.903 135,-39.5 138.175,-36.0969 141.852,-33.1763 145.826,-30.6698"/>
<polygon fill="midnightblue" stroke="midnightblue" points="46.2383,-339.01 50.016,-348.908 53.2355,-338.814 46.2383,-339.01"/>
</g>
<!-- Node5 -->
<g id="node5" class="node"><title>Node5</title>
<g id="a_node5"><a xlink:href="../../dc/d8c/structmarian_1_1DotNodeOp.html#a66d1926cfedd0f890967b6d0fc618ab8" target="_top" xlink:title="marian::DotNodeOp::\lDotNodeOp">
<polygon fill="white" stroke="black" points="328.5,-661.5 328.5,-691.5 438.5,-691.5 438.5,-661.5 328.5,-661.5"/>
<text text-anchor="start" x="336.5" y="-679.5" font-family="Helvetica,sans-Serif" font-size="10.00">marian::DotNodeOp::</text>
<text text-anchor="middle" x="383.5" y="-668.5" font-family="Helvetica,sans-Serif" font-size="10.00">DotNodeOp</text>
</a>
</g>
</g>
<!-- Node4&#45;&gt;Node5 -->
<g id="edge4" class="edge"><title>Node4&#45;&gt;Node5</title>
<path fill="none" stroke="midnightblue" d="M264.646,-622.389C269.223,-624.317 273.726,-626.359 278,-628.5 295.193,-637.112 296.791,-643.92 314,-652.5 320.541,-655.761 327.634,-658.776 334.693,-661.49"/>
<polygon fill="midnightblue" stroke="midnightblue" points="265.779,-619.073 255.195,-618.598 263.173,-625.57 265.779,-619.073"/>
</g>
<!-- Node6 -->
<g id="node6" class="node"><title>Node6</title>
<g id="a_node6"><a xlink:href="../../d9/dbf/structmarian_1_1ScalarProductNodeOp.html#ab5e665a3dc2a9c6601182f7b9f3b4c39" target="_top" xlink:title="marian::ScalarProductNode\lOp::ScalarProductNodeOp">
<polygon fill="white" stroke="black" points="315,-612.5 315,-642.5 452,-642.5 452,-612.5 315,-612.5"/>
<text text-anchor="start" x="323" y="-630.5" font-family="Helvetica,sans-Serif" font-size="10.00">marian::ScalarProductNode</text>
<text text-anchor="middle" x="383.5" y="-619.5" font-family="Helvetica,sans-Serif" font-size="10.00">Op::ScalarProductNodeOp</text>
</a>
</g>
</g>
<!-- Node4&#45;&gt;Node6 -->
<g id="edge5" class="edge"><title>Node4&#45;&gt;Node6</title>
<path fill="none" stroke="midnightblue" d="M271.925,-612.335C285.912,-614.254 300.746,-616.288 314.854,-618.223"/>
<polygon fill="midnightblue" stroke="midnightblue" points="272.295,-608.853 261.912,-610.962 271.344,-615.789 272.295,-608.853"/>
</g>
<!-- Node7 -->
<g id="node7" class="node"><title>Node7</title>
<g id="a_node7"><a xlink:href="../../d1/dff/structmarian_1_1ElementBinaryNodeOp.html#ae36592112f9c11758c2d56b9aab0440c" target="_top" xlink:title="marian::ElementBinaryNode\lOp::ElementBinaryNodeOp">
<polygon fill="white" stroke="black" points="314,-563.5 314,-593.5 453,-593.5 453,-563.5 314,-563.5"/>
<text text-anchor="start" x="322" y="-581.5" font-family="Helvetica,sans-Serif" font-size="10.00">marian::ElementBinaryNode</text>
<text text-anchor="middle" x="383.5" y="-570.5" font-family="Helvetica,sans-Serif" font-size="10.00">Op::ElementBinaryNodeOp</text>
</a>
</g>
</g>
<!-- Node4&#45;&gt;Node7 -->
<g id="edge6" class="edge"><title>Node4&#45;&gt;Node7</title>
<path fill="none" stroke="midnightblue" d="M272.142,-594.265C285.753,-592.321 300.158,-590.263 313.908,-588.299"/>
<polygon fill="midnightblue" stroke="midnightblue" points="271.316,-590.848 261.912,-595.727 272.306,-597.777 271.316,-590.848"/>
</g>
<!-- Node8 -->
<g id="node8" class="node"><title>Node8</title>
<g id="a_node8"><a xlink:href="../../da/d72/structmarian_1_1CrossEntropyNodeOp.html#ac48a140d97cbf643601b2d16cdc674e0" target="_top" xlink:title="marian::CrossEntropyNode\lOp::CrossEntropyNodeOp">
<polygon fill="white" stroke="black" points="316,-514.5 316,-544.5 451,-544.5 451,-514.5 316,-514.5"/>
<text text-anchor="start" x="324" y="-532.5" font-family="Helvetica,sans-Serif" font-size="10.00">marian::CrossEntropyNode</text>
<text text-anchor="middle" x="383.5" y="-521.5" font-family="Helvetica,sans-Serif" font-size="10.00">Op::CrossEntropyNodeOp</text>
</a>
</g>
</g>
<!-- Node4&#45;&gt;Node8 -->
<g id="edge7" class="edge"><title>Node4&#45;&gt;Node8</title>
<path fill="none" stroke="midnightblue" d="M266.996,-584.598C270.767,-582.986 274.465,-581.285 278,-579.5 295.389,-570.72 296.708,-563.469 314,-554.5 320.968,-550.886 328.578,-547.556 336.111,-544.585"/>
<polygon fill="midnightblue" stroke="midnightblue" points="265.486,-581.433 257.521,-588.418 268.104,-587.925 265.486,-581.433"/>
</g>
</g>
</svg>
