<?xml version="1.0" encoding="UTF-8" standalone="no"?>
<!DOCTYPE svg PUBLIC "-//W3C//DTD SVG 1.1//EN"
 "http://www.w3.org/Graphics/SVG/1.1/DTD/svg11.dtd">
<!-- Generated by graphviz version 2.38.0 (20140413.2041)
 -->
<!-- Title: marian::PerplexityValidator&lt; Builder &gt; Pages: 1 -->
<svg width="142pt" height="325pt"
 viewBox="0.00 0.00 142.00 325.00" xmlns="http://www.w3.org/2000/svg" xmlns:xlink="http://www.w3.org/1999/xlink">
<g id="graph0" class="graph" transform="scale(1 1) rotate(0) translate(4 321)">
<title>marian::PerplexityValidator&lt; Builder &gt;</title>
<polygon fill="white" stroke="none" points="-4,4 -4,-321 138,-321 138,4 -4,4"/>
<!-- Node1 -->
<g id="node1" class="node"><title>Node1</title>
<polygon fill="#bfbfbf" stroke="black" points="0,-0.5 0,-101.5 134,-101.5 134,-0.5 0,-0.5"/>
<text text-anchor="start" x="8" y="-89.5" font-family="Helvetica,sans-Serif" font-size="10.00">marian::PerplexityValidator</text>
<text text-anchor="middle" x="67" y="-78.5" font-family="Helvetica,sans-Serif" font-size="10.00">&lt; Builder &gt;</text>
<polyline fill="none" stroke="black" points="0,-71.5 134,-71.5 "/>
<text text-anchor="start" x="8" y="-59.5" font-family="Helvetica,sans-Serif" font-size="10.00">&#45; builder_</text>
<polyline fill="none" stroke="black" points="0,-52.5 134,-52.5 "/>
<text text-anchor="start" x="8" y="-40.5" font-family="Helvetica,sans-Serif" font-size="10.00">+ PerplexityValidator()</text>
<text text-anchor="start" x="8" y="-29.5" font-family="Helvetica,sans-Serif" font-size="10.00">+ validateBG()</text>
<text text-anchor="start" x="8" y="-18.5" font-family="Helvetica,sans-Serif" font-size="10.00">+ keepBest()</text>
<text text-anchor="start" x="8" y="-7.5" font-family="Helvetica,sans-Serif" font-size="10.00">+ type()</text>
</g>
<!-- Node2 -->
<g id="node2" class="node"><title>Node2</title>
<g id="a_node2"><a xlink:href="$de/da1/classmarian_1_1Validator.html" xlink:title="{marian::Validator\&lt;\l data::Corpus \&gt;\n|# options_\l# vocabs_\l# lastBest_\l# stalled_\l|+ Validator()\l+ type()\l+ keepBest()\l+ lowerIsBetter()\l+ initLastBest()\l+ stalled()\l+ validate()\l# validateBG()\l}">
<polygon fill="white" stroke="black" points="19,-138.5 19,-316.5 115,-316.5 115,-138.5 19,-138.5"/>
<text text-anchor="start" x="27" y="-304.5" font-family="Helvetica,sans-Serif" font-size="10.00">marian::Validator&lt;</text>
<text text-anchor="middle" x="67" y="-293.5" font-family="Helvetica,sans-Serif" font-size="10.00"> data::Corpus &gt;</text>
<polyline fill="none" stroke="black" points="19,-286.5 115,-286.5 "/>
<text text-anchor="start" x="27" y="-274.5" font-family="Helvetica,sans-Serif" font-size="10.00"># options_</text>
<text text-anchor="start" x="27" y="-263.5" font-family="Helvetica,sans-Serif" font-size="10.00"># vocabs_</text>
<text text-anchor="start" x="27" y="-252.5" font-family="Helvetica,sans-Serif" font-size="10.00"># lastBest_</text>
<text text-anchor="start" x="27" y="-241.5" font-family="Helvetica,sans-Serif" font-size="10.00"># stalled_</text>
<polyline fill="none" stroke="black" points="19,-234.5 115,-234.5 "/>
<text text-anchor="start" x="27" y="-222.5" font-family="Helvetica,sans-Serif" font-size="10.00">+ Validator()</text>
<text text-anchor="start" x="27" y="-211.5" font-family="Helvetica,sans-Serif" font-size="10.00">+ type()</text>
<text text-anchor="start" x="27" y="-200.5" font-family="Helvetica,sans-Serif" font-size="10.00">+ keepBest()</text>
<text text-anchor="start" x="27" y="-189.5" font-family="Helvetica,sans-Serif" font-size="10.00">+ lowerIsBetter()</text>
<text text-anchor="start" x="27" y="-178.5" font-family="Helvetica,sans-Serif" font-size="10.00">+ initLastBest()</text>
<text text-anchor="start" x="27" y="-167.5" font-family="Helvetica,sans-Serif" font-size="10.00">+ stalled()</text>
<text text-anchor="start" x="27" y="-156.5" font-family="Helvetica,sans-Serif" font-size="10.00">+ validate()</text>
<text text-anchor="start" x="27" y="-145.5" font-family="Helvetica,sans-Serif" font-size="10.00"># validateBG()</text>
</a>
</g>
</g>
<!-- Node2&#45;&gt;Node1 -->
<g id="edge1" class="edge"><title>Node2&#45;&gt;Node1</title>
<path fill="none" stroke="midnightblue" d="M67,-128.383C67,-119.117 67,-110.017 67,-101.51"/>
<polygon fill="none" stroke="midnightblue" points="63.5001,-128.483 67,-138.483 70.5001,-128.483 63.5001,-128.483"/>
</g>
</g>
</svg>
