<?xml version="1.0" encoding="UTF-8" standalone="no"?>
<!DOCTYPE svg PUBLIC "-//W3C//DTD SVG 1.1//EN"
 "http://www.w3.org/Graphics/SVG/1.1/DTD/svg11.dtd">
<!-- Generated by graphviz version 2.38.0 (20140413.2041)
 -->
<!-- Title: marian::ConcatenateNodeOp Pages: 1 -->
<!--zoomable 906 -->
<svg id="main" version="1.1" xmlns="http://www.w3.org/2000/svg" xmlns:xlink="http://www.w3.org/1999/xlink" xml:space="preserve" onload="init(evt)">
<style type="text/css"><![CDATA[
.edge:hover path { stroke: red; }
.edge:hover polygon { stroke: red; fill: red; }
]]></style>
<script type="text/javascript"><![CDATA[
var edges = document.getElementsByTagName('g');
if (edges && edges.length) {
  for (var i=0;i<edges.length;i++) {
    if (edges[i].id.substr(0,4)=='edge') {
      edges[i].setAttribute('class','edge');
    }
  }
}
]]></script>
        <defs>
                <circle id="rim" cx="0" cy="0" r="7"/>
                <circle id="rim2" cx="0" cy="0" r="3.5"/>
                <g id="zoomPlus">
                        <use xlink:href="#rim" fill="#404040">
                                <set attributeName="fill" to="#808080" begin="zoomplus.mouseover" end="zoomplus.mouseout"/>
                        </use>
                        <path d="M-4,0h8M0,-4v8" fill="none" stroke="white" stroke-width="1.5" pointer-events="none"/>
                </g>
                <g id="zoomMin">
                        <use xlink:href="#rim" fill="#404040">
                                <set attributeName="fill" to="#808080" begin="zoomminus.mouseover" end="zoomminus.mouseout"/>
                        </use>
                        <path d="M-4,0h8" fill="none" stroke="white" stroke-width="1.5" pointer-events="none"/>
                </g>
                <g id="dirArrow">
                        <path fill="none" stroke="white" stroke-width="1.5" d="M0,-3.0v7 M-2.5,-0.5L0,-3.0L2.5,-0.5"/>
                </g>
               <g id="resetDef">
                       <use xlink:href="#rim2" fill="#404040">
                               <set attributeName="fill" to="#808080" begin="reset.mouseover" end="reset.mouseout"/>
                       </use>
               </g>
        </defs>

<script type="text/javascript">
var viewWidth = 832;
var viewHeight = 906;
var sectionId = 'dynsection-1';
</script>
<script xlink:href="../../svgpan.js"/>
<svg id="graph" class="graph">
<g id="viewport">
<title>marian::ConcatenateNodeOp</title>
<polygon fill="white" stroke="none" points="-4,4 -4,-902 828,-902 828,4 -4,4"/>
<!-- Node1 -->
<g id="node1" class="node"><title>Node1</title>
<polygon fill="#bfbfbf" stroke="black" points="355,-0.5 355,-112.5 498,-112.5 498,-0.5 355,-0.5"/>
<text text-anchor="middle" x="426.5" y="-100.5" font-family="Helvetica,sans-Serif" font-size="10.00">marian::ConcatenateNodeOp</text>
<polyline fill="none" stroke="black" points="355,-93.5 498,-93.5 "/>
<text text-anchor="start" x="363" y="-81.5" font-family="Helvetica,sans-Serif" font-size="10.00">+ ax_</text>
<polyline fill="none" stroke="black" points="355,-74.5 498,-74.5 "/>
<text text-anchor="start" x="363" y="-62.5" font-family="Helvetica,sans-Serif" font-size="10.00">+ ConcatenateNodeOp()</text>
<text text-anchor="start" x="363" y="-51.5" font-family="Helvetica,sans-Serif" font-size="10.00">+ newShape()</text>
<text text-anchor="start" x="363" y="-40.5" font-family="Helvetica,sans-Serif" font-size="10.00">+ forward()</text>
<text text-anchor="start" x="363" y="-29.5" font-family="Helvetica,sans-Serif" font-size="10.00">+ backward()</text>
<text text-anchor="start" x="363" y="-18.5" font-family="Helvetica,sans-Serif" font-size="10.00">+ hash()</text>
<text text-anchor="start" x="363" y="-7.5" font-family="Helvetica,sans-Serif" font-size="10.00">+ type()</text>
</g>
<!-- Node2 -->
<g id="node2" class="node"><title>Node2</title>
<g id="a_node2"><a xlink:href="../../d0/da7/structmarian_1_1NaryNodeOp.html" target="_top" xlink:title="{marian::NaryNodeOp\n|+ hash_\l|+ NaryNodeOp()\l+ ~NaryNodeOp()\l+ children()\l+ hash()\l+ remove_children_from\l_top_nodes()\l}">
<polygon fill="white" stroke="black" points="365.5,-150.5 365.5,-262.5 487.5,-262.5 487.5,-150.5 365.5,-150.5"/>
<text text-anchor="middle" x="426.5" y="-250.5" font-family="Helvetica,sans-Serif" font-size="10.00">marian::NaryNodeOp</text>
<polyline fill="none" stroke="black" points="365.5,-243.5 487.5,-243.5 "/>
<text text-anchor="start" x="373.5" y="-231.5" font-family="Helvetica,sans-Serif" font-size="10.00">+ hash_</text>
<polyline fill="none" stroke="black" points="365.5,-224.5 487.5,-224.5 "/>
<text text-anchor="start" x="373.5" y="-212.5" font-family="Helvetica,sans-Serif" font-size="10.00">+ NaryNodeOp()</text>
<text text-anchor="start" x="373.5" y="-201.5" font-family="Helvetica,sans-Serif" font-size="10.00">+ ~NaryNodeOp()</text>
<text text-anchor="start" x="373.5" y="-190.5" font-family="Helvetica,sans-Serif" font-size="10.00">+ children()</text>
<text text-anchor="start" x="373.5" y="-179.5" font-family="Helvetica,sans-Serif" font-size="10.00">+ hash()</text>
<text text-anchor="start" x="373.5" y="-168.5" font-family="Helvetica,sans-Serif" font-size="10.00">+ remove_children_from</text>
<text text-anchor="start" x="373.5" y="-157.5" font-family="Helvetica,sans-Serif" font-size="10.00">_top_nodes()</text>
</a>
</g>
</g>
<!-- Node2&#45;&gt;Node1 -->
<g id="edge1" class="edge"><title>Node2&#45;&gt;Node1</title>
<path fill="none" stroke="midnightblue" d="M426.5,-140.14C426.5,-130.967 426.5,-121.614 426.5,-112.656"/>
<polygon fill="none" stroke="midnightblue" points="423,-140.39 426.5,-150.39 430,-140.39 423,-140.39"/>
</g>
<!-- Node3 -->
<g id="node3" class="node"><title>Node3</title>
<g id="a_node3"><a xlink:href="../../d0/d7a/classmarian_1_1Node.html" target="_top" xlink:title="{marian::Node\n|# id_\l# edges_\l# trainable_\l# destroy_\l# val_\l# adj_\l# markedForDebug_\l|+ Node()\l+ ~Node()\l+ scalar()\l+ forwardOps()\l+ backwardOps()\l+ runForward()\l+ runBackward()\l+ forward()\l+ backward()\l+ trainable()\land 27 more...\l}">
<polygon fill="white" stroke="black" points="374,-300.5 374,-533.5 479,-533.5 479,-300.5 374,-300.5"/>
<text text-anchor="middle" x="426.5" y="-521.5" font-family="Helvetica,sans-Serif" font-size="10.00">marian::Node</text>
<polyline fill="none" stroke="black" points="374,-514.5 479,-514.5 "/>
<text text-anchor="start" x="382" y="-502.5" font-family="Helvetica,sans-Serif" font-size="10.00"># id_</text>
<text text-anchor="start" x="382" y="-491.5" font-family="Helvetica,sans-Serif" font-size="10.00"># edges_</text>
<text text-anchor="start" x="382" y="-480.5" font-family="Helvetica,sans-Serif" font-size="10.00"># trainable_</text>
<text text-anchor="start" x="382" y="-469.5" font-family="Helvetica,sans-Serif" font-size="10.00"># destroy_</text>
<text text-anchor="start" x="382" y="-458.5" font-family="Helvetica,sans-Serif" font-size="10.00"># val_</text>
<text text-anchor="start" x="382" y="-447.5" font-family="Helvetica,sans-Serif" font-size="10.00"># adj_</text>
<text text-anchor="start" x="382" y="-436.5" font-family="Helvetica,sans-Serif" font-size="10.00"># markedForDebug_</text>
<polyline fill="none" stroke="black" points="374,-429.5 479,-429.5 "/>
<text text-anchor="start" x="382" y="-417.5" font-family="Helvetica,sans-Serif" font-size="10.00">+ Node()</text>
<text text-anchor="start" x="382" y="-406.5" font-family="Helvetica,sans-Serif" font-size="10.00">+ ~Node()</text>
<text text-anchor="start" x="382" y="-395.5" font-family="Helvetica,sans-Serif" font-size="10.00">+ scalar()</text>
<text text-anchor="start" x="382" y="-384.5" font-family="Helvetica,sans-Serif" font-size="10.00">+ forwardOps()</text>
<text text-anchor="start" x="382" y="-373.5" font-family="Helvetica,sans-Serif" font-size="10.00">+ backwardOps()</text>
<text text-anchor="start" x="382" y="-362.5" font-family="Helvetica,sans-Serif" font-size="10.00">+ runForward()</text>
<text text-anchor="start" x="382" y="-351.5" font-family="Helvetica,sans-Serif" font-size="10.00">+ runBackward()</text>
<text text-anchor="start" x="382" y="-340.5" font-family="Helvetica,sans-Serif" font-size="10.00">+ forward()</text>
<text text-anchor="start" x="382" y="-329.5" font-family="Helvetica,sans-Serif" font-size="10.00">+ backward()</text>
<text text-anchor="start" x="382" y="-318.5" font-family="Helvetica,sans-Serif" font-size="10.00">+ trainable()</text>
<text text-anchor="start" x="382" y="-307.5" font-family="Helvetica,sans-Serif" font-size="10.00">and 27 more...</text>
</a>
</g>
</g>
<!-- Node3&#45;&gt;Node2 -->
<g id="edge2" class="edge"><title>Node3&#45;&gt;Node2</title>
<path fill="none" stroke="midnightblue" d="M426.5,-290.358C426.5,-280.73 426.5,-271.357 426.5,-262.586"/>
<polygon fill="none" stroke="midnightblue" points="423,-290.469 426.5,-300.469 430,-290.469 423,-290.469"/>
</g>
<!-- Node4 -->
<g id="node4" class="node"><title>Node4</title>
<g id="a_node4"><a xlink:href="../../de/dff/classmarian_1_1Chainable.html" target="_top" xlink:title="{marian::Chainable\&lt;\l Tensor \&gt;\n||+ Chainable()\l+ ~Chainable()\l+ forward()\l+ backward()\l+ forwardOps()\l+ backwardOps()\l+ allocate()\l+ free()\l+ init()\l+ init_dependent()\land 23 more...\l}">
<polygon fill="white" stroke="black" points="0,-598 0,-776 101,-776 101,-598 0,-598"/>
<text text-anchor="start" x="8" y="-764" font-family="Helvetica,sans-Serif" font-size="10.00">marian::Chainable&lt;</text>
<text text-anchor="middle" x="50.5" y="-753" font-family="Helvetica,sans-Serif" font-size="10.00"> Tensor &gt;</text>
<polyline fill="none" stroke="black" points="0,-746 101,-746 "/>
<text text-anchor="middle" x="50.5" y="-734" font-family="Helvetica,sans-Serif" font-size="10.00"> </text>
<polyline fill="none" stroke="black" points="0,-727 101,-727 "/>
<text text-anchor="start" x="8" y="-715" font-family="Helvetica,sans-Serif" font-size="10.00">+ Chainable()</text>
<text text-anchor="start" x="8" y="-704" font-family="Helvetica,sans-Serif" font-size="10.00">+ ~Chainable()</text>
<text text-anchor="start" x="8" y="-693" font-family="Helvetica,sans-Serif" font-size="10.00">+ forward()</text>
<text text-anchor="start" x="8" y="-682" font-family="Helvetica,sans-Serif" font-size="10.00">+ backward()</text>
<text text-anchor="start" x="8" y="-671" font-family="Helvetica,sans-Serif" font-size="10.00">+ forwardOps()</text>
<text text-anchor="start" x="8" y="-660" font-family="Helvetica,sans-Serif" font-size="10.00">+ backwardOps()</text>
<text text-anchor="start" x="8" y="-649" font-family="Helvetica,sans-Serif" font-size="10.00">+ allocate()</text>
<text text-anchor="start" x="8" y="-638" font-family="Helvetica,sans-Serif" font-size="10.00">+ free()</text>
<text text-anchor="start" x="8" y="-627" font-family="Helvetica,sans-Serif" font-size="10.00">+ init()</text>
<text text-anchor="start" x="8" y="-616" font-family="Helvetica,sans-Serif" font-size="10.00">+ init_dependent()</text>
<text text-anchor="start" x="8" y="-605" font-family="Helvetica,sans-Serif" font-size="10.00">and 23 more...</text>
</a>
</g>
</g>
<!-- Node4&#45;&gt;Node3 -->
<g id="edge3" class="edge"><title>Node4&#45;&gt;Node3</title>
<path fill="none" stroke="midnightblue" d="M108.452,-592.999C108.8,-592.664 109.15,-592.33 109.5,-592 188.855,-517.158 306.517,-463.755 373.933,-437.166"/>
<polygon fill="none" stroke="midnightblue" points="105.76,-590.749 101.328,-600.373 110.794,-595.613 105.76,-590.749"/>
</g>
<!-- Node5 -->
<g id="node5" class="node"><title>Node5</title>
<g id="a_node5"><a xlink:href="../../d4/d9b/classmarian_1_1keywords_1_1Keywords.html" target="_top" xlink:title="{marian::keywords::Keywords\n||+ Keywords()\l+ Has()\l+ Get()\l&#45; add()\l&#45; add()\l&#45; add()\l}">
<polygon fill="white" stroke="black" points="119,-631 119,-743 262,-743 262,-631 119,-631"/>
<text text-anchor="middle" x="190.5" y="-731" font-family="Helvetica,sans-Serif" font-size="10.00">marian::keywords::Keywords</text>
<polyline fill="none" stroke="black" points="119,-724 262,-724 "/>
<text text-anchor="middle" x="190.5" y="-712" font-family="Helvetica,sans-Serif" font-size="10.00"> </text>
<polyline fill="none" stroke="black" points="119,-705 262,-705 "/>
<text text-anchor="start" x="127" y="-693" font-family="Helvetica,sans-Serif" font-size="10.00">+ Keywords()</text>
<text text-anchor="start" x="127" y="-682" font-family="Helvetica,sans-Serif" font-size="10.00">+ Has()</text>
<text text-anchor="start" x="127" y="-671" font-family="Helvetica,sans-Serif" font-size="10.00">+ Get()</text>
<text text-anchor="start" x="127" y="-660" font-family="Helvetica,sans-Serif" font-size="10.00">&#45; add()</text>
<text text-anchor="start" x="127" y="-649" font-family="Helvetica,sans-Serif" font-size="10.00">&#45; add()</text>
<text text-anchor="start" x="127" y="-638" font-family="Helvetica,sans-Serif" font-size="10.00">&#45; add()</text>
</a>
</g>
</g>
<!-- Node5&#45;&gt;Node3 -->
<g id="edge4" class="edge"><title>Node5&#45;&gt;Node3</title>
<path fill="none" stroke="midnightblue" d="M244.664,-622.854C253.601,-612.519 262.789,-601.942 271.5,-592 305.358,-553.355 343.77,-510.231 373.884,-476.581"/>
<polygon fill="none" stroke="midnightblue" points="241.779,-620.84 237.891,-630.696 247.076,-625.416 241.779,-620.84"/>
</g>
<!-- Node6 -->
<g id="node6" class="node"><title>Node6</title>
<polygon fill="white" stroke="#bfbfbf" points="137.5,-829.5 137.5,-897.5 243.5,-897.5 243.5,-829.5 137.5,-829.5"/>
<text text-anchor="start" x="145.5" y="-885.5" font-family="Helvetica,sans-Serif" font-size="10.00">std::map&lt; unsigned,</text>
<text text-anchor="middle" x="190.5" y="-874.5" font-family="Helvetica,sans-Serif" font-size="10.00"> boost::any &gt;</text>
<polyline fill="none" stroke="#bfbfbf" points="137.5,-867.5 243.5,-867.5 "/>
<text text-anchor="middle" x="190.5" y="-855.5" font-family="Helvetica,sans-Serif" font-size="10.00"> </text>
<polyline fill="none" stroke="#bfbfbf" points="137.5,-848.5 243.5,-848.5 "/>
<text text-anchor="middle" x="190.5" y="-836.5" font-family="Helvetica,sans-Serif" font-size="10.00"> </text>
</g>
<!-- Node6&#45;&gt;Node5 -->
<g id="edge5" class="edge"><title>Node6&#45;&gt;Node5</title>
<path fill="none" stroke="#404040" d="M190.5,-829.267C190.5,-808.362 190.5,-780.636 190.5,-755.286"/>
<polygon fill="none" stroke="#404040" points="190.5,-755.073 186.5,-749.073 190.5,-743.073 194.5,-749.072 190.5,-755.073"/>
<text text-anchor="middle" x="212.5" y="-803" font-family="Helvetica,sans-Serif" font-size="10.00"> &#45;storage_</text>
</g>
<!-- Node7 -->
<g id="node7" class="node"><title>Node7</title>
<polygon fill="white" stroke="#bfbfbf" points="280.5,-653 280.5,-721 384.5,-721 384.5,-653 280.5,-653"/>
<text text-anchor="start" x="288.5" y="-709" font-family="Helvetica,sans-Serif" font-size="10.00">std::enable_shared</text>
<text text-anchor="middle" x="332.5" y="-698" font-family="Helvetica,sans-Serif" font-size="10.00">_from_this&lt; Node &gt;</text>
<polyline fill="none" stroke="#bfbfbf" points="280.5,-691 384.5,-691 "/>
<text text-anchor="middle" x="332.5" y="-679" font-family="Helvetica,sans-Serif" font-size="10.00"> </text>
<polyline fill="none" stroke="#bfbfbf" points="280.5,-672 384.5,-672 "/>
<text text-anchor="middle" x="332.5" y="-660" font-family="Helvetica,sans-Serif" font-size="10.00"> </text>
</g>
<!-- Node7&#45;&gt;Node3 -->
<g id="edge6" class="edge"><title>Node7&#45;&gt;Node3</title>
<path fill="none" stroke="midnightblue" d="M347.49,-643.263C357.896,-613.593 372.292,-572.55 385.948,-533.617"/>
<polygon fill="none" stroke="midnightblue" points="344.128,-642.274 344.121,-652.869 350.733,-644.591 344.128,-642.274"/>
</g>
<!-- Node8 -->
<g id="node8" class="node"><title>Node8</title>
<g id="a_node8"><a xlink:title="STL class. ">
<polygon fill="white" stroke="#bfbfbf" points="402.5,-658.5 402.5,-715.5 462.5,-715.5 462.5,-658.5 402.5,-658.5"/>
<text text-anchor="middle" x="432.5" y="-703.5" font-family="Helvetica,sans-Serif" font-size="10.00">std::string</text>
<polyline fill="none" stroke="#bfbfbf" points="402.5,-696.5 462.5,-696.5 "/>
<text text-anchor="middle" x="432.5" y="-684.5" font-family="Helvetica,sans-Serif" font-size="10.00"> </text>
<polyline fill="none" stroke="#bfbfbf" points="402.5,-677.5 462.5,-677.5 "/>
<text text-anchor="middle" x="432.5" y="-665.5" font-family="Helvetica,sans-Serif" font-size="10.00"> </text>
</a>
</g>
</g>
<!-- Node8&#45;&gt;Node3 -->
<g id="edge7" class="edge"><title>Node8&#45;&gt;Node3</title>
<path fill="none" stroke="#404040" d="M430.974,-658.394C429.791,-635.731 428.235,-602.797 427.5,-574 427.267,-564.862 427.078,-555.422 426.925,-545.919"/>
<polygon fill="none" stroke="#404040" points="426.925,-545.864 422.838,-539.922 426.751,-533.865 430.837,-539.807 426.925,-545.864"/>
<text text-anchor="middle" x="466" y="-566" font-family="Helvetica,sans-Serif" font-size="10.00"> #name_</text>
<text text-anchor="middle" x="466" y="-555" font-family="Helvetica,sans-Serif" font-size="10.00">#debugMessage_</text>
</g>
<!-- Node9 -->
<g id="node9" class="node"><title>Node9</title>
<polygon fill="white" stroke="#bfbfbf" points="385,-829.5 385,-897.5 480,-897.5 480,-829.5 385,-829.5"/>
<text text-anchor="start" x="393" y="-885.5" font-family="Helvetica,sans-Serif" font-size="10.00">std::basic_string&lt;</text>
<text text-anchor="middle" x="432.5" y="-874.5" font-family="Helvetica,sans-Serif" font-size="10.00"> char &gt;</text>
<polyline fill="none" stroke="#bfbfbf" points="385,-867.5 480,-867.5 "/>
<text text-anchor="middle" x="432.5" y="-855.5" font-family="Helvetica,sans-Serif" font-size="10.00"> </text>
<polyline fill="none" stroke="#bfbfbf" points="385,-848.5 480,-848.5 "/>
<text text-anchor="middle" x="432.5" y="-836.5" font-family="Helvetica,sans-Serif" font-size="10.00"> </text>
</g>
<!-- Node9&#45;&gt;Node8 -->
<g id="edge8" class="edge"><title>Node9&#45;&gt;Node8</title>
<path fill="none" stroke="midnightblue" d="M432.5,-819.169C432.5,-786.783 432.5,-743.474 432.5,-715.652"/>
<polygon fill="none" stroke="midnightblue" points="429,-819.267 432.5,-829.267 436,-819.267 429,-819.267"/>
</g>
<!-- Node10 -->
<g id="node10" class="node"><title>Node10</title>
<g id="a_node10"><a xlink:href="../../d5/d54/structmarian_1_1Shape.html" target="_top" xlink:title="{marian::Shape\n|+ shape_\l+ stride_\l+ bstride_\l|+ Shape()\l+ Shape()\l+ updateStrides()\l+ Shape()\l+ set()\l+ dim()\l+ dim()\l+ operator[]()\l+ operator[]()\l+ stride()\land 12 more...\l}">
<polygon fill="white" stroke="black" points="480.5,-592.5 480.5,-781.5 572.5,-781.5 572.5,-592.5 480.5,-592.5"/>
<text text-anchor="middle" x="526.5" y="-769.5" font-family="Helvetica,sans-Serif" font-size="10.00">marian::Shape</text>
<polyline fill="none" stroke="black" points="480.5,-762.5 572.5,-762.5 "/>
<text text-anchor="start" x="488.5" y="-750.5" font-family="Helvetica,sans-Serif" font-size="10.00">+ shape_</text>
<text text-anchor="start" x="488.5" y="-739.5" font-family="Helvetica,sans-Serif" font-size="10.00">+ stride_</text>
<text text-anchor="start" x="488.5" y="-728.5" font-family="Helvetica,sans-Serif" font-size="10.00">+ bstride_</text>
<polyline fill="none" stroke="black" points="480.5,-721.5 572.5,-721.5 "/>
<text text-anchor="start" x="488.5" y="-709.5" font-family="Helvetica,sans-Serif" font-size="10.00">+ Shape()</text>
<text text-anchor="start" x="488.5" y="-698.5" font-family="Helvetica,sans-Serif" font-size="10.00">+ Shape()</text>
<text text-anchor="start" x="488.5" y="-687.5" font-family="Helvetica,sans-Serif" font-size="10.00">+ updateStrides()</text>
<text text-anchor="start" x="488.5" y="-676.5" font-family="Helvetica,sans-Serif" font-size="10.00">+ Shape()</text>
<text text-anchor="start" x="488.5" y="-665.5" font-family="Helvetica,sans-Serif" font-size="10.00">+ set()</text>
<text text-anchor="start" x="488.5" y="-654.5" font-family="Helvetica,sans-Serif" font-size="10.00">+ dim()</text>
<text text-anchor="start" x="488.5" y="-643.5" font-family="Helvetica,sans-Serif" font-size="10.00">+ dim()</text>
<text text-anchor="start" x="488.5" y="-632.5" font-family="Helvetica,sans-Serif" font-size="10.00">+ operator[]()</text>
<text text-anchor="start" x="488.5" y="-621.5" font-family="Helvetica,sans-Serif" font-size="10.00">+ operator[]()</text>
<text text-anchor="start" x="488.5" y="-610.5" font-family="Helvetica,sans-Serif" font-size="10.00">+ stride()</text>
<text text-anchor="start" x="488.5" y="-599.5" font-family="Helvetica,sans-Serif" font-size="10.00">and 12 more...</text>
</a>
</g>
</g>
<!-- Node10&#45;&gt;Node3 -->
<g id="edge9" class="edge"><title>Node10&#45;&gt;Node3</title>
<path fill="none" stroke="#404040" d="M515.599,-592.254C512.718,-578.544 509.084,-564.757 504.5,-552 499.241,-537.365 492.384,-522.51 484.917,-508.281"/>
<polygon fill="none" stroke="#404040" points="484.814,-508.091 478.441,-504.716 479.104,-497.536 485.477,-500.91 484.814,-508.091"/>
<text text-anchor="middle" x="531.5" y="-560.5" font-family="Helvetica,sans-Serif" font-size="10.00"> #shape_</text>
</g>
<!-- Node11 -->
<g id="node11" class="node"><title>Node11</title>
<polygon fill="white" stroke="#bfbfbf" points="590.5,-653 590.5,-721 704.5,-721 704.5,-653 590.5,-653"/>
<text text-anchor="start" x="598.5" y="-709" font-family="Helvetica,sans-Serif" font-size="10.00">std::weak_ptr&lt; marian</text>
<text text-anchor="middle" x="647.5" y="-698" font-family="Helvetica,sans-Serif" font-size="10.00">::ExpressionGraph &gt;</text>
<polyline fill="none" stroke="#bfbfbf" points="590.5,-691 704.5,-691 "/>
<text text-anchor="middle" x="647.5" y="-679" font-family="Helvetica,sans-Serif" font-size="10.00"> </text>
<polyline fill="none" stroke="#bfbfbf" points="590.5,-672 704.5,-672 "/>
<text text-anchor="middle" x="647.5" y="-660" font-family="Helvetica,sans-Serif" font-size="10.00"> </text>
</g>
<!-- Node11&#45;&gt;Node3 -->
<g id="edge10" class="edge"><title>Node11&#45;&gt;Node3</title>
<path fill="none" stroke="#404040" d="M627,-652.977C609.237,-625.173 582.248,-584.806 555.5,-552 534.693,-526.481 509.996,-500.032 487.809,-477.442"/>
<polygon fill="none" stroke="#404040" points="487.561,-477.192 480.497,-475.74 479.121,-468.662 486.184,-470.114 487.561,-477.192"/>
<text text-anchor="middle" x="591.5" y="-560.5" font-family="Helvetica,sans-Serif" font-size="10.00"> #graph_</text>
</g>
<!-- Node12 -->
<g id="node12" class="node"><title>Node12</title>
<polygon fill="white" stroke="#bfbfbf" points="723,-658.5 723,-715.5 824,-715.5 824,-658.5 723,-658.5"/>
<text text-anchor="middle" x="773.5" y="-703.5" font-family="Helvetica,sans-Serif" font-size="10.00">std::vector&lt; Expr &gt;</text>
<polyline fill="none" stroke="#bfbfbf" points="723,-696.5 824,-696.5 "/>
<text text-anchor="middle" x="773.5" y="-684.5" font-family="Helvetica,sans-Serif" font-size="10.00"> </text>
<polyline fill="none" stroke="#bfbfbf" points="723,-677.5 824,-677.5 "/>
<text text-anchor="middle" x="773.5" y="-665.5" font-family="Helvetica,sans-Serif" font-size="10.00"> </text>
</g>
<!-- Node12&#45;&gt;Node3 -->
<g id="edge11" class="edge"><title>Node12&#45;&gt;Node3</title>
<path fill="none" stroke="#404040" d="M760.1,-658.111C749.473,-638.034 733.163,-611.214 713.5,-592 647.196,-527.21 552.456,-475.746 490.234,-446.069"/>
<polygon fill="none" stroke="#404040" points="489.864,-445.895 482.732,-446.958 479.008,-440.783 486.14,-439.72 489.864,-445.895"/>
<text text-anchor="middle" x="718.5" y="-560.5" font-family="Helvetica,sans-Serif" font-size="10.00"> #children_</text>
</g>
</g>
</svg>
        <g id="navigator" transform="translate(0 0)" fill="#404254">
                <rect fill="#f2f5e9" fill-opacity="0.5" stroke="#606060" stroke-width=".5" x="0" y="0" width="60" height="60"/>
                <use id="zoomplus" xlink:href="#zoomPlus" x="17" y="9" onmousedown="handleZoom(evt,'in')"/>
                <use id="zoomminus" xlink:href="#zoomMin" x="42" y="9" onmousedown="handleZoom(evt,'out')"/>
                <use id="reset" xlink:href="#resetDef" x="30" y="36" onmousedown="handleReset()"/>
                <g id="arrowUp" xlink:href="#dirArrow" transform="translate(30 24)" onmousedown="handlePan(0,-1)">
                  <use xlink:href="#rim" fill="#404040">
                        <set attributeName="fill" to="#808080" begin="arrowUp.mouseover" end="arrowUp.mouseout"/>
                  </use>
                  <path fill="none" stroke="white" stroke-width="1.5" d="M0,-3.0v7 M-2.5,-0.5L0,-3.0L2.5,-0.5"/>
                </g>
                <g id="arrowRight" xlink:href="#dirArrow" transform="rotate(90) translate(36 -43)" onmousedown="handlePan(1,0)">
                  <use xlink:href="#rim" fill="#404040">
                        <set attributeName="fill" to="#808080" begin="arrowRight.mouseover" end="arrowRight.mouseout"/>
                  </use>
                  <path fill="none" stroke="white" stroke-width="1.5" d="M0,-3.0v7 M-2.5,-0.5L0,-3.0L2.5,-0.5"/>
                </g>
                <g id="arrowDown" xlink:href="#dirArrow" transform="rotate(180) translate(-30 -48)" onmousedown="handlePan(0,1)">
                  <use xlink:href="#rim" fill="#404040">
                        <set attributeName="fill" to="#808080" begin="arrowDown.mouseover" end="arrowDown.mouseout"/>
                  </use>
                  <path fill="none" stroke="white" stroke-width="1.5" d="M0,-3.0v7 M-2.5,-0.5L0,-3.0L2.5,-0.5"/>
                </g>
                <g id="arrowLeft" xlink:href="#dirArrow" transform="rotate(270) translate(-36 17)" onmousedown="handlePan(-1,0)">
                  <use xlink:href="#rim" fill="#404040">
                        <set attributeName="fill" to="#808080" begin="arrowLeft.mouseover" end="arrowLeft.mouseout"/>
                  </use>
                  <path fill="none" stroke="white" stroke-width="1.5" d="M0,-3.0v7 M-2.5,-0.5L0,-3.0L2.5,-0.5"/>
                </g>
        </g>
        <svg viewBox="0 0 15 15" width="100%" height="30px" preserveAspectRatio="xMaxYMin meet">
         <g id="arrow_out" transform="scale(0.3 0.3)">
          <a xlink:href="structmarian_1_1ConcatenateNodeOp__coll__graph_org.svg" target="_base">
           <rect id="button" ry="5" rx="5" y="6" x="6" height="38" width="38"
                fill="#f2f5e9" fill-opacity="0.5" stroke="#606060" stroke-width="1.0"/>
           <path id="arrow"
             d="M 11.500037,31.436501 C 11.940474,20.09759 22.043105,11.32322 32.158766,21.979434 L 37.068811,17.246167 C 37.068811,17.246167 37.088388,32 37.088388,32 L 22.160133,31.978069 C 22.160133,31.978069 26.997745,27.140456 26.997745,27.140456 C 18.528582,18.264221 13.291696,25.230495 11.500037,31.436501 z"
             style="fill:#404040;"/>
          </a>
         </g>
        </svg>
</svg>
