<?xml version="1.0" encoding="UTF-8" standalone="no"?>
<!DOCTYPE svg PUBLIC "-//W3C//DTD SVG 1.1//EN"
 "http://www.w3.org/Graphics/SVG/1.1/DTD/svg11.dtd">
<!-- Generated by graphviz version 2.38.0 (20140413.2041)
 -->
<!-- Title: marian::data::BatchStats Pages: 1 -->
<svg width="133pt" height="193pt"
 viewBox="0.00 0.00 133.00 193.00" xmlns="http://www.w3.org/2000/svg" xmlns:xlink="http://www.w3.org/1999/xlink">
<g id="graph0" class="graph" transform="scale(1 1) rotate(0) translate(4 189)">
<title>marian::data::BatchStats</title>
<polygon fill="white" stroke="none" points="-4,4 -4,-189 129,-189 129,4 -4,4"/>
<!-- Node1 -->
<g id="node1" class="node"><title>Node1</title>
<polygon fill="#bfbfbf" stroke="black" points="-7.10543e-15,-0.5 -7.10543e-15,-68.5 125,-68.5 125,-0.5 -7.10543e-15,-0.5"/>
<text text-anchor="middle" x="62.5" y="-56.5" font-family="Helvetica,sans-Serif" font-size="10.00">marian::data::BatchStats</text>
<polyline fill="none" stroke="black" points="-7.10543e-15,-49.5 125,-49.5 "/>
<text text-anchor="middle" x="62.5" y="-37.5" font-family="Helvetica,sans-Serif" font-size="10.00"> </text>
<polyline fill="none" stroke="black" points="-7.10543e-15,-30.5 125,-30.5 "/>
<text text-anchor="start" x="8" y="-18.5" font-family="Helvetica,sans-Serif" font-size="10.00">+ getBatchSize()</text>
<text text-anchor="start" x="8" y="-7.5" font-family="Helvetica,sans-Serif" font-size="10.00">+ add()</text>
</g>
<!-- Node2 -->
<g id="node2" class="node"><title>Node2</title>
<polygon fill="white" stroke="#bfbfbf" points="7.5,-116.5 7.5,-184.5 117.5,-184.5 117.5,-116.5 7.5,-116.5"/>
<text text-anchor="start" x="15.5" y="-172.5" font-family="Helvetica,sans-Serif" font-size="10.00">std::map&lt; std::vector</text>
<text text-anchor="middle" x="62.5" y="-161.5" font-family="Helvetica,sans-Serif" font-size="10.00">&lt; size_t &gt;, size_t &gt;</text>
<polyline fill="none" stroke="#bfbfbf" points="7.5,-154.5 117.5,-154.5 "/>
<text text-anchor="middle" x="62.5" y="-142.5" font-family="Helvetica,sans-Serif" font-size="10.00"> </text>
<polyline fill="none" stroke="#bfbfbf" points="7.5,-135.5 117.5,-135.5 "/>
<text text-anchor="middle" x="62.5" y="-123.5" font-family="Helvetica,sans-Serif" font-size="10.00"> </text>
</g>
<!-- Node2&#45;&gt;Node1 -->
<g id="edge1" class="edge"><title>Node2&#45;&gt;Node1</title>
<path fill="none" stroke="#404040" d="M62.5,-116.22C62.5,-105.099 62.5,-92.5117 62.5,-80.6422"/>
<polygon fill="none" stroke="#404040" points="62.5001,-80.6243 58.5,-74.6243 62.5,-68.6243 66.5,-74.6242 62.5001,-80.6243"/>
<text text-anchor="middle" x="78" y="-90" font-family="Helvetica,sans-Serif" font-size="10.00"> &#45;map_</text>
</g>
</g>
</svg>
