<?xml version="1.0" encoding="UTF-8" standalone="no"?>
<!DOCTYPE svg PUBLIC "-//W3C//DTD SVG 1.1//EN"
 "http://www.w3.org/Graphics/SVG/1.1/DTD/svg11.dtd">
<!-- Generated by graphviz version 2.38.0 (20140413.2041)
 -->
<!-- Title: bpe.h Pages: 1 -->
<!--zoomable 308 -->
<svg id="main" version="1.1" xmlns="http://www.w3.org/2000/svg" xmlns:xlink="http://www.w3.org/1999/xlink" xml:space="preserve" onload="init(evt)">
<style type="text/css"><![CDATA[
.edge:hover path { stroke: red; }
.edge:hover polygon { stroke: red; fill: red; }
]]></style>
<script type="text/javascript"><![CDATA[
var edges = document.getElementsByTagName('g');
if (edges && edges.length) {
  for (var i=0;i<edges.length;i++) {
    if (edges[i].id.substr(0,4)=='edge') {
      edges[i].setAttribute('class','edge');
    }
  }
}
]]></script>
        <defs>
                <circle id="rim" cx="0" cy="0" r="7"/>
                <circle id="rim2" cx="0" cy="0" r="3.5"/>
                <g id="zoomPlus">
                        <use xlink:href="#rim" fill="#404040">
                                <set attributeName="fill" to="#808080" begin="zoomplus.mouseover" end="zoomplus.mouseout"/>
                        </use>
                        <path d="M-4,0h8M0,-4v8" fill="none" stroke="white" stroke-width="1.5" pointer-events="none"/>
                </g>
                <g id="zoomMin">
                        <use xlink:href="#rim" fill="#404040">
                                <set attributeName="fill" to="#808080" begin="zoomminus.mouseover" end="zoomminus.mouseout"/>
                        </use>
                        <path d="M-4,0h8" fill="none" stroke="white" stroke-width="1.5" pointer-events="none"/>
                </g>
                <g id="dirArrow">
                        <path fill="none" stroke="white" stroke-width="1.5" d="M0,-3.0v7 M-2.5,-0.5L0,-3.0L2.5,-0.5"/>
                </g>
               <g id="resetDef">
                       <use xlink:href="#rim2" fill="#404040">
                               <set attributeName="fill" to="#808080" begin="reset.mouseover" end="reset.mouseout"/>
                       </use>
               </g>
        </defs>

<script type="text/javascript">
var viewWidth = 684;
var viewHeight = 308;
var sectionId = 'dynsection-1';
</script>
<script xlink:href="../../svgpan.js"/>
<svg id="graph" class="graph">
<g id="viewport">
<title>bpe.h</title>
<polygon fill="white" stroke="none" points="-4,4 -4,-304 679.5,-304 679.5,4 -4,4"/>
<!-- Node1 -->
<g id="node1" class="node"><title>Node1</title>
<polygon fill="#bfbfbf" stroke="black" points="243.5,-280.5 243.5,-299.5 284.5,-299.5 284.5,-280.5 243.5,-280.5"/>
<text text-anchor="middle" x="264" y="-287.5" font-family="Helvetica,sans-Serif" font-size="10.00">bpe.h</text>
</g>
<!-- Node2 -->
<g id="node2" class="node"><title>Node2</title>
<g id="a_node2"><a xlink:href="../../d3/d73/god_8cpp.html" target="_top" xlink:title="god.cpp">
<polygon fill="white" stroke="black" points="4.5,-168.5 4.5,-187.5 55.5,-187.5 55.5,-168.5 4.5,-168.5"/>
<text text-anchor="middle" x="30" y="-175.5" font-family="Helvetica,sans-Serif" font-size="10.00">god.cpp</text>
</a>
</g>
</g>
<!-- Node1&#45;&gt;Node2 -->
<g id="edge1" class="edge"><title>Node1&#45;&gt;Node2</title>
<path fill="none" stroke="midnightblue" d="M236.391,-276.021C187.996,-253.272 89.1191,-206.791 48.2763,-187.591"/>
<polygon fill="midnightblue" stroke="midnightblue" points="235.099,-279.282 245.638,-280.368 238.077,-272.947 235.099,-279.282"/>
</g>
<!-- Node3 -->
<g id="node3" class="node"><title>Node3</title>
<g id="a_node3"><a xlink:href="../../d4/d57/god_8h.html" target="_top" xlink:title="god.h">
<polygon fill="white" stroke="black" points="243.5,-224.5 243.5,-243.5 284.5,-243.5 284.5,-224.5 243.5,-224.5"/>
<text text-anchor="middle" x="264" y="-231.5" font-family="Helvetica,sans-Serif" font-size="10.00">god.h</text>
</a>
</g>
</g>
<!-- Node1&#45;&gt;Node3 -->
<g id="edge2" class="edge"><title>Node1&#45;&gt;Node3</title>
<path fill="none" stroke="midnightblue" d="M264,-269.805C264,-260.91 264,-250.78 264,-243.751"/>
<polygon fill="midnightblue" stroke="midnightblue" points="260.5,-270.083 264,-280.083 267.5,-270.083 260.5,-270.083"/>
</g>
<!-- Node18 -->
<g id="node18" class="node"><title>Node18</title>
<g id="a_node18"><a xlink:href="../../d1/da6/bpe_8cpp.html" target="_top" xlink:title="bpe.cpp">
<polygon fill="white" stroke="black" points="302.5,-224.5 302.5,-243.5 353.5,-243.5 353.5,-224.5 302.5,-224.5"/>
<text text-anchor="middle" x="328" y="-231.5" font-family="Helvetica,sans-Serif" font-size="10.00">bpe.cpp</text>
</a>
</g>
</g>
<!-- Node1&#45;&gt;Node18 -->
<g id="edge20" class="edge"><title>Node1&#45;&gt;Node18</title>
<path fill="none" stroke="midnightblue" d="M281.991,-273.82C293.458,-264.145 307.913,-251.948 317.53,-243.834"/>
<polygon fill="midnightblue" stroke="midnightblue" points="279.669,-271.2 274.283,-280.324 284.183,-276.55 279.669,-271.2"/>
</g>
<!-- Node3&#45;&gt;Node2 -->
<g id="edge5" class="edge"><title>Node3&#45;&gt;Node2</title>
<path fill="none" stroke="midnightblue" d="M233.416,-225.942C186.858,-215.198 99.0432,-194.933 55.6292,-184.914"/>
<polygon fill="midnightblue" stroke="midnightblue" points="232.703,-229.37 243.234,-228.208 234.277,-222.549 232.703,-229.37"/>
</g>
<!-- Node4 -->
<g id="node4" class="node"><title>Node4</title>
<g id="a_node4"><a xlink:href="../../d0/d73/decoder__main_8cpp.html" target="_top" xlink:title="decoder_main.cpp">
<polygon fill="white" stroke="black" points="0,-112.5 0,-131.5 96,-131.5 96,-112.5 0,-112.5"/>
<text text-anchor="middle" x="48" y="-119.5" font-family="Helvetica,sans-Serif" font-size="10.00">decoder_main.cpp</text>
</a>
</g>
</g>
<!-- Node3&#45;&gt;Node4 -->
<g id="edge3" class="edge"><title>Node3&#45;&gt;Node4</title>
<path fill="none" stroke="midnightblue" d="M233.069,-229.838C198.924,-225.16 143.444,-213.954 103,-188 79.8597,-173.15 61.311,-145.566 52.8974,-131.591"/>
<polygon fill="midnightblue" stroke="midnightblue" points="233,-233.357 243.36,-231.138 233.877,-226.412 233,-233.357"/>
</g>
<!-- Node5 -->
<g id="node5" class="node"><title>Node5</title>
<g id="a_node5"><a xlink:href="../../de/d63/filter_8cpp.html" target="_top" xlink:title="filter.cpp">
<polygon fill="white" stroke="black" points="112,-168.5 112,-187.5 166,-187.5 166,-168.5 112,-168.5"/>
<text text-anchor="middle" x="139" y="-175.5" font-family="Helvetica,sans-Serif" font-size="10.00">filter.cpp</text>
</a>
</g>
</g>
<!-- Node3&#45;&gt;Node5 -->
<g id="edge4" class="edge"><title>Node3&#45;&gt;Node5</title>
<path fill="none" stroke="midnightblue" d="M234.759,-220.368C211.35,-210.255 179.159,-196.349 158.714,-187.516"/>
<polygon fill="midnightblue" stroke="midnightblue" points="233.625,-223.691 244.193,-224.444 236.401,-217.265 233.625,-223.691"/>
</g>
<!-- Node6 -->
<g id="node6" class="node"><title>Node6</title>
<g id="a_node6"><a xlink:href="../../d5/dc4/amun_2common_2printer_8h.html" target="_top" xlink:title="printer.h">
<polygon fill="white" stroke="black" points="184,-168.5 184,-187.5 236,-187.5 236,-168.5 184,-168.5"/>
<text text-anchor="middle" x="210" y="-175.5" font-family="Helvetica,sans-Serif" font-size="10.00">printer.h</text>
</a>
</g>
</g>
<!-- Node3&#45;&gt;Node6 -->
<g id="edge6" class="edge"><title>Node3&#45;&gt;Node6</title>
<path fill="none" stroke="midnightblue" d="M248.002,-217.002C238.433,-207.433 226.639,-195.639 218.751,-187.751"/>
<polygon fill="midnightblue" stroke="midnightblue" points="245.537,-219.487 255.083,-224.083 250.487,-214.537 245.537,-219.487"/>
</g>
<!-- Node9 -->
<g id="node9" class="node"><title>Node9</title>
<g id="a_node9"><a xlink:href="../../d5/d49/amunmt_8cpp.html" target="_top" xlink:title="amunmt.cpp">
<polygon fill="white" stroke="black" points="316.5,-112.5 316.5,-131.5 387.5,-131.5 387.5,-112.5 316.5,-112.5"/>
<text text-anchor="middle" x="352" y="-119.5" font-family="Helvetica,sans-Serif" font-size="10.00">amunmt.cpp</text>
</a>
</g>
</g>
<!-- Node3&#45;&gt;Node9 -->
<g id="edge19" class="edge"><title>Node3&#45;&gt;Node9</title>
<path fill="none" stroke="midnightblue" d="M266.018,-213.84C268.278,-199.986 273.035,-181.422 283,-168 295.362,-151.35 315.856,-139.124 331.305,-131.653"/>
<polygon fill="midnightblue" stroke="midnightblue" points="262.496,-213.779 264.648,-224.153 269.435,-214.701 262.496,-213.779"/>
</g>
<!-- Node10 -->
<g id="node10" class="node"><title>Node10</title>
<g id="a_node10"><a xlink:href="../../d9/def/search_8cpp.html" target="_top" xlink:title="search.cpp">
<polygon fill="white" stroke="black" points="292.5,-168.5 292.5,-187.5 357.5,-187.5 357.5,-168.5 292.5,-168.5"/>
<text text-anchor="middle" x="325" y="-175.5" font-family="Helvetica,sans-Serif" font-size="10.00">search.cpp</text>
</a>
</g>
</g>
<!-- Node3&#45;&gt;Node10 -->
<g id="edge11" class="edge"><title>Node3&#45;&gt;Node10</title>
<path fill="none" stroke="midnightblue" d="M281.467,-217.537C292.344,-207.909 305.944,-195.869 315.021,-187.834"/>
<polygon fill="midnightblue" stroke="midnightblue" points="278.968,-215.075 273.801,-224.324 283.608,-220.316 278.968,-215.075"/>
</g>
<!-- Node11 -->
<g id="node11" class="node"><title>Node11</title>
<g id="a_node11"><a xlink:href="../../d7/d57/sentence_8cpp.html" target="_top" xlink:title="sentence.cpp">
<polygon fill="white" stroke="black" points="375.5,-168.5 375.5,-187.5 450.5,-187.5 450.5,-168.5 375.5,-168.5"/>
<text text-anchor="middle" x="413" y="-175.5" font-family="Helvetica,sans-Serif" font-size="10.00">sentence.cpp</text>
</a>
</g>
</g>
<!-- Node3&#45;&gt;Node11 -->
<g id="edge12" class="edge"><title>Node3&#45;&gt;Node11</title>
<path fill="none" stroke="midnightblue" d="M294.442,-221.967C322.59,-211.766 363.832,-196.819 389.514,-187.512"/>
<polygon fill="midnightblue" stroke="midnightblue" points="292.927,-218.794 284.718,-225.492 295.312,-225.375 292.927,-218.794"/>
</g>
<!-- Node12 -->
<g id="node12" class="node"><title>Node12</title>
<g id="a_node12"><a xlink:href="../../d0/d90/best__hyps_8h.html" target="_top" xlink:title="best_hyps.h">
<polygon fill="white" stroke="black" points="469,-168.5 469,-187.5 539,-187.5 539,-168.5 469,-168.5"/>
<text text-anchor="middle" x="504" y="-175.5" font-family="Helvetica,sans-Serif" font-size="10.00">best_hyps.h</text>
</a>
</g>
</g>
<!-- Node3&#45;&gt;Node12 -->
<g id="edge13" class="edge"><title>Node3&#45;&gt;Node12</title>
<path fill="none" stroke="midnightblue" d="M294.234,-223.885C338.866,-212.739 421.382,-195.736 468.726,-186.118"/>
<polygon fill="midnightblue" stroke="midnightblue" points="293.344,-220.499 284.529,-226.376 295.085,-227.28 293.344,-220.499"/>
</g>
<!-- Node13 -->
<g id="node13" class="node"><title>Node13</title>
<g id="a_node13"><a xlink:href="../../d6/d72/decoder_8h.html" target="_top" xlink:title="decoder.h">
<polygon fill="white" stroke="black" points="557.5,-168.5 557.5,-187.5 616.5,-187.5 616.5,-168.5 557.5,-168.5"/>
<text text-anchor="middle" x="587" y="-175.5" font-family="Helvetica,sans-Serif" font-size="10.00">decoder.h</text>
</a>
</g>
</g>
<!-- Node3&#45;&gt;Node13 -->
<g id="edge14" class="edge"><title>Node3&#45;&gt;Node13</title>
<path fill="none" stroke="midnightblue" d="M294.776,-223.887C406.493,-199.495 438.652,-208.296 548,-188 551.006,-187.442 554.131,-186.81 557.245,-186.146"/>
<polygon fill="midnightblue" stroke="midnightblue" points="293.802,-220.518 284.801,-226.106 295.322,-227.351 293.802,-220.518"/>
</g>
<!-- Node17 -->
<g id="node17" class="node"><title>Node17</title>
<g id="a_node17"><a xlink:href="../../da/d6d/nmt_8h.html" target="_top" xlink:title="nmt.h">
<polygon fill="white" stroke="black" points="634.5,-168.5 634.5,-187.5 675.5,-187.5 675.5,-168.5 634.5,-168.5"/>
<text text-anchor="middle" x="655" y="-175.5" font-family="Helvetica,sans-Serif" font-size="10.00">nmt.h</text>
</a>
</g>
</g>
<!-- Node3&#45;&gt;Node17 -->
<g id="edge18" class="edge"><title>Node3&#45;&gt;Node17</title>
<path fill="none" stroke="midnightblue" d="M294.991,-223.936C440.682,-194.867 483.508,-217.524 626,-188 628.684,-187.444 631.475,-186.742 634.217,-185.977"/>
<polygon fill="midnightblue" stroke="midnightblue" points="293.879,-220.591 284.783,-226.023 295.281,-227.449 293.879,-220.591"/>
</g>
<!-- Node6&#45;&gt;Node4 -->
<g id="edge7" class="edge"><title>Node6&#45;&gt;Node4</title>
<path fill="none" stroke="midnightblue" d="M174.516,-165.172C144.012,-155.004 100.755,-140.585 73.5493,-131.516"/>
<polygon fill="midnightblue" stroke="midnightblue" points="173.737,-168.602 184.331,-168.444 175.951,-161.961 173.737,-168.602"/>
</g>
<!-- Node7 -->
<g id="node7" class="node"><title>Node7</title>
<g id="a_node7"><a xlink:href="../../d3/db8/amun_2common_2printer_8cpp.html" target="_top" xlink:title="printer.cpp">
<polygon fill="white" stroke="black" points="114,-112.5 114,-131.5 176,-131.5 176,-112.5 114,-112.5"/>
<text text-anchor="middle" x="145" y="-119.5" font-family="Helvetica,sans-Serif" font-size="10.00">printer.cpp</text>
</a>
</g>
</g>
<!-- Node6&#45;&gt;Node7 -->
<g id="edge8" class="edge"><title>Node6&#45;&gt;Node7</title>
<path fill="none" stroke="midnightblue" d="M191.727,-161.82C180.082,-152.145 165.401,-139.948 155.633,-131.834"/>
<polygon fill="midnightblue" stroke="midnightblue" points="189.628,-164.626 199.557,-168.324 194.101,-159.242 189.628,-164.626"/>
</g>
<!-- Node8 -->
<g id="node8" class="node"><title>Node8</title>
<g id="a_node8"><a xlink:href="../../df/d6f/translation__task_8cpp.html" target="_top" xlink:title="translation_task.cpp">
<polygon fill="white" stroke="black" points="194,-112.5 194,-131.5 298,-131.5 298,-112.5 194,-112.5"/>
<text text-anchor="middle" x="246" y="-119.5" font-family="Helvetica,sans-Serif" font-size="10.00">translation_task.cpp</text>
</a>
</g>
</g>
<!-- Node6&#45;&gt;Node8 -->
<g id="edge9" class="edge"><title>Node6&#45;&gt;Node8</title>
<path fill="none" stroke="midnightblue" d="M221.623,-159.566C227.817,-150.275 235.168,-139.248 240.166,-131.751"/>
<polygon fill="midnightblue" stroke="midnightblue" points="218.58,-157.821 215.945,-168.083 224.404,-161.704 218.58,-157.821"/>
</g>
<!-- Node6&#45;&gt;Node9 -->
<g id="edge10" class="edge"><title>Node6&#45;&gt;Node9</title>
<path fill="none" stroke="midnightblue" d="M242.155,-164.772C268.828,-154.629 306.069,-140.467 329.605,-131.516"/>
<polygon fill="midnightblue" stroke="midnightblue" points="240.603,-161.618 232.5,-168.444 243.091,-168.16 240.603,-161.618"/>
</g>
<!-- Node14 -->
<g id="node14" class="node"><title>Node14</title>
<g id="a_node14"><a xlink:href="../../db/d89/dl4mt_8h.html" target="_top" xlink:title="dl4mt.h">
<polygon fill="white" stroke="black" points="562.5,-112.5 562.5,-131.5 611.5,-131.5 611.5,-112.5 562.5,-112.5"/>
<text text-anchor="middle" x="587" y="-119.5" font-family="Helvetica,sans-Serif" font-size="10.00">dl4mt.h</text>
</a>
</g>
</g>
<!-- Node13&#45;&gt;Node14 -->
<g id="edge15" class="edge"><title>Node13&#45;&gt;Node14</title>
<path fill="none" stroke="midnightblue" d="M587,-157.805C587,-148.91 587,-138.78 587,-131.751"/>
<polygon fill="midnightblue" stroke="midnightblue" points="583.5,-158.083 587,-168.083 590.5,-158.083 583.5,-158.083"/>
</g>
<!-- Node15 -->
<g id="node15" class="node"><title>Node15</title>
<g id="a_node15"><a xlink:href="../../d6/da3/language__model_8h.html" target="_top" xlink:title="language_model.h">
<polygon fill="white" stroke="black" points="539.5,-56.5 539.5,-75.5 634.5,-75.5 634.5,-56.5 539.5,-56.5"/>
<text text-anchor="middle" x="587" y="-63.5" font-family="Helvetica,sans-Serif" font-size="10.00">language_model.h</text>
</a>
</g>
</g>
<!-- Node14&#45;&gt;Node15 -->
<g id="edge16" class="edge"><title>Node14&#45;&gt;Node15</title>
<path fill="none" stroke="midnightblue" d="M587,-101.805C587,-92.9102 587,-82.7798 587,-75.7511"/>
<polygon fill="midnightblue" stroke="midnightblue" points="583.5,-102.083 587,-112.083 590.5,-102.083 583.5,-102.083"/>
</g>
<!-- Node16 -->
<g id="node16" class="node"><title>Node16</title>
<g id="a_node16"><a xlink:href="../../d3/d17/class__language__model_8h.html" target="_top" xlink:title="class_language_model.h">
<polygon fill="white" stroke="black" points="525,-0.5 525,-19.5 649,-19.5 649,-0.5 525,-0.5"/>
<text text-anchor="middle" x="587" y="-7.5" font-family="Helvetica,sans-Serif" font-size="10.00">class_language_model.h</text>
</a>
</g>
</g>
<!-- Node15&#45;&gt;Node16 -->
<g id="edge17" class="edge"><title>Node15&#45;&gt;Node16</title>
<path fill="none" stroke="midnightblue" d="M587,-45.8045C587,-36.9102 587,-26.7798 587,-19.7511"/>
<polygon fill="midnightblue" stroke="midnightblue" points="583.5,-46.083 587,-56.083 590.5,-46.083 583.5,-46.083"/>
</g>
</g>
</svg>
        <g id="navigator" transform="translate(0 0)" fill="#404254">
                <rect fill="#f2f5e9" fill-opacity="0.5" stroke="#606060" stroke-width=".5" x="0" y="0" width="60" height="60"/>
                <use id="zoomplus" xlink:href="#zoomPlus" x="17" y="9" onmousedown="handleZoom(evt,'in')"/>
                <use id="zoomminus" xlink:href="#zoomMin" x="42" y="9" onmousedown="handleZoom(evt,'out')"/>
                <use id="reset" xlink:href="#resetDef" x="30" y="36" onmousedown="handleReset()"/>
                <g id="arrowUp" xlink:href="#dirArrow" transform="translate(30 24)" onmousedown="handlePan(0,-1)">
                  <use xlink:href="#rim" fill="#404040">
                        <set attributeName="fill" to="#808080" begin="arrowUp.mouseover" end="arrowUp.mouseout"/>
                  </use>
                  <path fill="none" stroke="white" stroke-width="1.5" d="M0,-3.0v7 M-2.5,-0.5L0,-3.0L2.5,-0.5"/>
                </g>
                <g id="arrowRight" xlink:href="#dirArrow" transform="rotate(90) translate(36 -43)" onmousedown="handlePan(1,0)">
                  <use xlink:href="#rim" fill="#404040">
                        <set attributeName="fill" to="#808080" begin="arrowRight.mouseover" end="arrowRight.mouseout"/>
                  </use>
                  <path fill="none" stroke="white" stroke-width="1.5" d="M0,-3.0v7 M-2.5,-0.5L0,-3.0L2.5,-0.5"/>
                </g>
                <g id="arrowDown" xlink:href="#dirArrow" transform="rotate(180) translate(-30 -48)" onmousedown="handlePan(0,1)">
                  <use xlink:href="#rim" fill="#404040">
                        <set attributeName="fill" to="#808080" begin="arrowDown.mouseover" end="arrowDown.mouseout"/>
                  </use>
                  <path fill="none" stroke="white" stroke-width="1.5" d="M0,-3.0v7 M-2.5,-0.5L0,-3.0L2.5,-0.5"/>
                </g>
                <g id="arrowLeft" xlink:href="#dirArrow" transform="rotate(270) translate(-36 17)" onmousedown="handlePan(-1,0)">
                  <use xlink:href="#rim" fill="#404040">
                        <set attributeName="fill" to="#808080" begin="arrowLeft.mouseover" end="arrowLeft.mouseout"/>
                  </use>
                  <path fill="none" stroke="white" stroke-width="1.5" d="M0,-3.0v7 M-2.5,-0.5L0,-3.0L2.5,-0.5"/>
                </g>
        </g>
        <svg viewBox="0 0 15 15" width="100%" height="30px" preserveAspectRatio="xMaxYMin meet">
         <g id="arrow_out" transform="scale(0.3 0.3)">
          <a xlink:href="bpe_8h__dep__incl_org.svg" target="_base">
           <rect id="button" ry="5" rx="5" y="6" x="6" height="38" width="38"
                fill="#f2f5e9" fill-opacity="0.5" stroke="#606060" stroke-width="1.0"/>
           <path id="arrow"
             d="M 11.500037,31.436501 C 11.940474,20.09759 22.043105,11.32322 32.158766,21.979434 L 37.068811,17.246167 C 37.068811,17.246167 37.088388,32 37.088388,32 L 22.160133,31.978069 C 22.160133,31.978069 26.997745,27.140456 26.997745,27.140456 C 18.528582,18.264221 13.291696,25.230495 11.500037,31.436501 z"
             style="fill:#404040;"/>
          </a>
         </g>
        </svg>
</svg>
