<?xml version="1.0" encoding="UTF-8" standalone="no"?>
<!DOCTYPE svg PUBLIC "-//W3C//DTD SVG 1.1//EN"
 "http://www.w3.org/Graphics/SVG/1.1/DTD/svg11.dtd">
<!-- Generated by graphviz version 2.38.0 (20140413.2041)
 -->
<!-- Title: amunmt::util::OverflowException Pages: 1 -->
<svg width="192pt" height="460pt"
 viewBox="0.00 0.00 192.00 460.00" xmlns="http://www.w3.org/2000/svg" xmlns:xlink="http://www.w3.org/1999/xlink">
<g id="graph0" class="graph" transform="scale(1 1) rotate(0) translate(4 456)">
<title>amunmt::util::OverflowException</title>
<polygon fill="white" stroke="none" points="-4,4 -4,-456 188,-456 188,4 -4,4"/>
<!-- Node1 -->
<g id="node1" class="node"><title>Node1</title>
<polygon fill="#bfbfbf" stroke="black" points="-1.42109e-14,-0.5 -1.42109e-14,-68.5 159,-68.5 159,-0.5 -1.42109e-14,-0.5"/>
<text text-anchor="middle" x="79.5" y="-56.5" font-family="Helvetica,sans-Serif" font-size="10.00">amunmt::util::OverflowException</text>
<polyline fill="none" stroke="black" points="-1.42109e-14,-49.5 159,-49.5 "/>
<text text-anchor="middle" x="79.5" y="-37.5" font-family="Helvetica,sans-Serif" font-size="10.00"> </text>
<polyline fill="none" stroke="black" points="-1.42109e-14,-30.5 159,-30.5 "/>
<text text-anchor="start" x="8" y="-18.5" font-family="Helvetica,sans-Serif" font-size="10.00">+ OverflowException()</text>
<text text-anchor="start" x="8" y="-7.5" font-family="Helvetica,sans-Serif" font-size="10.00">+ ~OverflowException()</text>
</g>
<!-- Node2 -->
<g id="node2" class="node"><title>Node2</title>
<g id="a_node2"><a xlink:href="../../da/d08/classamunmt_1_1util_1_1Exception.html" target="_top" xlink:title="{amunmt::util::Exception\n||+ Exception()\l+ ~Exception()\l+ Exception()\l+ what()\l+ SetLocation()\l&#45; Append()\l&#45; Append()\l&#45; Append()\l}">
<polygon fill="white" stroke="black" points="19.5,-106.5 19.5,-240.5 139.5,-240.5 139.5,-106.5 19.5,-106.5"/>
<text text-anchor="middle" x="79.5" y="-228.5" font-family="Helvetica,sans-Serif" font-size="10.00">amunmt::util::Exception</text>
<polyline fill="none" stroke="black" points="19.5,-221.5 139.5,-221.5 "/>
<text text-anchor="middle" x="79.5" y="-209.5" font-family="Helvetica,sans-Serif" font-size="10.00"> </text>
<polyline fill="none" stroke="black" points="19.5,-202.5 139.5,-202.5 "/>
<text text-anchor="start" x="27.5" y="-190.5" font-family="Helvetica,sans-Serif" font-size="10.00">+ Exception()</text>
<text text-anchor="start" x="27.5" y="-179.5" font-family="Helvetica,sans-Serif" font-size="10.00">+ ~Exception()</text>
<text text-anchor="start" x="27.5" y="-168.5" font-family="Helvetica,sans-Serif" font-size="10.00">+ Exception()</text>
<text text-anchor="start" x="27.5" y="-157.5" font-family="Helvetica,sans-Serif" font-size="10.00">+ what()</text>
<text text-anchor="start" x="27.5" y="-146.5" font-family="Helvetica,sans-Serif" font-size="10.00">+ SetLocation()</text>
<text text-anchor="start" x="27.5" y="-135.5" font-family="Helvetica,sans-Serif" font-size="10.00">&#45; Append()</text>
<text text-anchor="start" x="27.5" y="-124.5" font-family="Helvetica,sans-Serif" font-size="10.00">&#45; Append()</text>
<text text-anchor="start" x="27.5" y="-113.5" font-family="Helvetica,sans-Serif" font-size="10.00">&#45; Append()</text>
</a>
</g>
</g>
<!-- Node2&#45;&gt;Node1 -->
<g id="edge1" class="edge"><title>Node2&#45;&gt;Node1</title>
<path fill="none" stroke="midnightblue" d="M79.5,-96.2563C79.5,-86.556 79.5,-77.0656 79.5,-68.5765"/>
<polygon fill="none" stroke="midnightblue" points="76.0001,-96.4077 79.5,-106.408 83.0001,-96.4078 76.0001,-96.4077"/>
</g>
<!-- Node3 -->
<g id="node3" class="node"><title>Node3</title>
<g id="a_node3"><a xlink:title="STL class. ">
<polygon fill="white" stroke="#bfbfbf" points="10.5,-288.5 10.5,-345.5 88.5,-345.5 88.5,-288.5 10.5,-288.5"/>
<text text-anchor="middle" x="49.5" y="-333.5" font-family="Helvetica,sans-Serif" font-size="10.00">std::exception</text>
<polyline fill="none" stroke="#bfbfbf" points="10.5,-326.5 88.5,-326.5 "/>
<text text-anchor="middle" x="49.5" y="-314.5" font-family="Helvetica,sans-Serif" font-size="10.00"> </text>
<polyline fill="none" stroke="#bfbfbf" points="10.5,-307.5 88.5,-307.5 "/>
<text text-anchor="middle" x="49.5" y="-295.5" font-family="Helvetica,sans-Serif" font-size="10.00"> </text>
</a>
</g>
</g>
<!-- Node3&#45;&gt;Node2 -->
<g id="edge2" class="edge"><title>Node3&#45;&gt;Node2</title>
<path fill="none" stroke="midnightblue" d="M57.4299,-278.597C59.898,-266.956 62.6973,-253.753 65.4535,-240.753"/>
<polygon fill="none" stroke="midnightblue" points="54.0057,-277.873 55.3555,-288.381 60.8535,-279.325 54.0057,-277.873"/>
</g>
<!-- Node4 -->
<g id="node4" class="node"><title>Node4</title>
<g id="a_node4"><a xlink:title="STL class. ">
<polygon fill="white" stroke="#bfbfbf" points="106.5,-288.5 106.5,-345.5 166.5,-345.5 166.5,-288.5 106.5,-288.5"/>
<text text-anchor="middle" x="136.5" y="-333.5" font-family="Helvetica,sans-Serif" font-size="10.00">std::string</text>
<polyline fill="none" stroke="#bfbfbf" points="106.5,-326.5 166.5,-326.5 "/>
<text text-anchor="middle" x="136.5" y="-314.5" font-family="Helvetica,sans-Serif" font-size="10.00"> </text>
<polyline fill="none" stroke="#bfbfbf" points="106.5,-307.5 166.5,-307.5 "/>
<text text-anchor="middle" x="136.5" y="-295.5" font-family="Helvetica,sans-Serif" font-size="10.00"> </text>
</a>
</g>
</g>
<!-- Node4&#45;&gt;Node2 -->
<g id="edge3" class="edge"><title>Node4&#45;&gt;Node2</title>
<path fill="none" stroke="#404040" d="M125.375,-288.381C121.115,-277.806 116.017,-265.153 110.794,-252.185"/>
<polygon fill="none" stroke="#404040" points="110.672,-251.883 104.72,-247.813 106.188,-240.753 112.141,-244.823 110.672,-251.883"/>
<text text-anchor="middle" x="132" y="-262" font-family="Helvetica,sans-Serif" font-size="10.00"> &#45;what_</text>
</g>
<!-- Node5 -->
<g id="node5" class="node"><title>Node5</title>
<polygon fill="white" stroke="#bfbfbf" points="89,-383.5 89,-451.5 184,-451.5 184,-383.5 89,-383.5"/>
<text text-anchor="start" x="97" y="-439.5" font-family="Helvetica,sans-Serif" font-size="10.00">std::basic_string&lt;</text>
<text text-anchor="middle" x="136.5" y="-428.5" font-family="Helvetica,sans-Serif" font-size="10.00"> char &gt;</text>
<polyline fill="none" stroke="#bfbfbf" points="89,-421.5 184,-421.5 "/>
<text text-anchor="middle" x="136.5" y="-409.5" font-family="Helvetica,sans-Serif" font-size="10.00"> </text>
<polyline fill="none" stroke="#bfbfbf" points="89,-402.5 184,-402.5 "/>
<text text-anchor="middle" x="136.5" y="-390.5" font-family="Helvetica,sans-Serif" font-size="10.00"> </text>
</g>
<!-- Node5&#45;&gt;Node4 -->
<g id="edge4" class="edge"><title>Node5&#45;&gt;Node4</title>
<path fill="none" stroke="midnightblue" d="M136.5,-373.375C136.5,-363.94 136.5,-354.201 136.5,-345.571"/>
<polygon fill="none" stroke="midnightblue" points="133,-373.427 136.5,-383.427 140,-373.427 133,-373.427"/>
</g>
</g>
</svg>
