<?xml version="1.0" encoding="UTF-8" standalone="no"?>
<!DOCTYPE svg PUBLIC "-//W3C//DTD SVG 1.1//EN"
 "http://www.w3.org/Graphics/SVG/1.1/DTD/svg11.dtd">
<!-- Generated by graphviz version 2.38.0 (20140413.2041)
 -->
<!-- Title: keywords.h Pages: 1 -->
<svg width="415pt" height="84pt"
 viewBox="0.00 0.00 415.00 84.00" xmlns="http://www.w3.org/2000/svg" xmlns:xlink="http://www.w3.org/1999/xlink">
<g id="graph0" class="graph" transform="scale(1 1) rotate(0) translate(4 80)">
<title>keywords.h</title>
<polygon fill="white" stroke="none" points="-4,4 -4,-80 411,-80 411,4 -4,4"/>
<!-- Node1 -->
<g id="node1" class="node"><title>Node1</title>
<polygon fill="#bfbfbf" stroke="black" points="145.5,-56.5 145.5,-75.5 212.5,-75.5 212.5,-56.5 145.5,-56.5"/>
<text text-anchor="middle" x="179" y="-63.5" font-family="Helvetica,sans-Serif" font-size="10.00">keywords.h</text>
</g>
<!-- Node2 -->
<g id="node2" class="node"><title>Node2</title>
<polygon fill="white" stroke="#bfbfbf" points="0,-0.5 0,-19.5 78,-19.5 78,-0.5 0,-0.5"/>
<text text-anchor="middle" x="39" y="-7.5" font-family="Helvetica,sans-Serif" font-size="10.00">boost/any.hpp</text>
</g>
<!-- Node1&#45;&gt;Node2 -->
<g id="edge1" class="edge"><title>Node1&#45;&gt;Node2</title>
<path fill="none" stroke="midnightblue" d="M156.817,-56.4435C133.572,-47.4776 96.8512,-33.314 70.5848,-23.1827"/>
<polygon fill="midnightblue" stroke="midnightblue" points="71.6692,-19.8497 61.0796,-19.5164 69.1501,-26.3807 71.6692,-19.8497"/>
</g>
<!-- Node3 -->
<g id="node3" class="node"><title>Node3</title>
<polygon fill="white" stroke="#bfbfbf" points="96.5,-0.5 96.5,-19.5 131.5,-19.5 131.5,-0.5 96.5,-0.5"/>
<text text-anchor="middle" x="114" y="-7.5" font-family="Helvetica,sans-Serif" font-size="10.00">map</text>
</g>
<!-- Node1&#45;&gt;Node3 -->
<g id="edge2" class="edge"><title>Node1&#45;&gt;Node3</title>
<path fill="none" stroke="midnightblue" d="M168.557,-56.324C158.854,-48.2631 144.185,-36.0765 132.5,-26.3695"/>
<polygon fill="midnightblue" stroke="midnightblue" points="134.562,-23.532 124.633,-19.8339 130.089,-28.9163 134.562,-23.532"/>
</g>
<!-- Node4 -->
<g id="node4" class="node"><title>Node4</title>
<polygon fill="white" stroke="#bfbfbf" points="149.5,-0.5 149.5,-19.5 208.5,-19.5 208.5,-0.5 149.5,-0.5"/>
<text text-anchor="middle" x="179" y="-7.5" font-family="Helvetica,sans-Serif" font-size="10.00">typeindex</text>
</g>
<!-- Node1&#45;&gt;Node4 -->
<g id="edge3" class="edge"><title>Node1&#45;&gt;Node4</title>
<path fill="none" stroke="midnightblue" d="M179,-56.083C179,-49.0059 179,-38.8611 179,-29.9865"/>
<polygon fill="midnightblue" stroke="midnightblue" points="182.5,-29.751 179,-19.7511 175.5,-29.7511 182.5,-29.751"/>
</g>
<!-- Node5 -->
<g id="node5" class="node"><title>Node5</title>
<polygon fill="white" stroke="#bfbfbf" points="226.5,-0.5 226.5,-19.5 277.5,-19.5 277.5,-0.5 226.5,-0.5"/>
<text text-anchor="middle" x="252" y="-7.5" font-family="Helvetica,sans-Serif" font-size="10.00">typeinfo</text>
</g>
<!-- Node1&#45;&gt;Node5 -->
<g id="edge4" class="edge"><title>Node1&#45;&gt;Node5</title>
<path fill="none" stroke="midnightblue" d="M190.729,-56.324C201.837,-48.1066 218.742,-35.6017 231.983,-25.8069"/>
<polygon fill="midnightblue" stroke="midnightblue" points="234.1,-28.5948 240.058,-19.8339 229.937,-22.9671 234.1,-28.5948"/>
</g>
<!-- Node6 -->
<g id="node6" class="node"><title>Node6</title>
<g id="a_node6"><a xlink:href="$d3/de0/compile__time__crc32_8h.html" xlink:title="compile_time_crc32.h">
<polygon fill="white" stroke="black" points="295,-0.5 295,-19.5 407,-19.5 407,-0.5 295,-0.5"/>
<text text-anchor="middle" x="351" y="-7.5" font-family="Helvetica,sans-Serif" font-size="10.00">compile_time_crc32.h</text>
</a>
</g>
</g>
<!-- Node1&#45;&gt;Node6 -->
<g id="edge5" class="edge"><title>Node1&#45;&gt;Node6</title>
<path fill="none" stroke="midnightblue" d="M206.254,-56.4435C235.441,-47.2801 281.921,-32.6876 314.309,-22.5192"/>
<polygon fill="midnightblue" stroke="midnightblue" points="315.381,-25.8512 323.874,-19.5164 313.284,-19.1726 315.381,-25.8512"/>
</g>
</g>
</svg>
