<?xml version="1.0" encoding="UTF-8" standalone="no"?>
<!DOCTYPE svg PUBLIC "-//W3C//DTD SVG 1.1//EN"
 "http://www.w3.org/Graphics/SVG/1.1/DTD/svg11.dtd">
<!-- Generated by graphviz version 2.38.0 (20140413.2041)
 -->
<!-- Title: Loader Pages: 1 -->
<svg width="132pt" height="204pt"
 viewBox="0.00 0.00 132.00 204.00" xmlns="http://www.w3.org/2000/svg" xmlns:xlink="http://www.w3.org/1999/xlink">
<g id="graph0" class="graph" transform="scale(1 1) rotate(0) translate(4 200)">
<title>Loader</title>
<polygon fill="white" stroke="none" points="-4,4 -4,-200 128,-200 128,4 -4,4"/>
<!-- Node1 -->
<g id="node1" class="node"><title>Node1</title>
<polygon fill="#bfbfbf" stroke="black" points="39,-138.5 39,-195.5 85,-195.5 85,-138.5 39,-138.5"/>
<text text-anchor="middle" x="62" y="-183.5" font-family="Helvetica,sans-Serif" font-size="10.00">Loader</text>
<polyline fill="none" stroke="black" points="39,-176.5 85,-176.5 "/>
<text text-anchor="middle" x="62" y="-164.5" font-family="Helvetica,sans-Serif" font-size="10.00"> </text>
<polyline fill="none" stroke="black" points="39,-157.5 85,-157.5 "/>
<text text-anchor="middle" x="62" y="-145.5" font-family="Helvetica,sans-Serif" font-size="10.00"> </text>
</g>
<!-- Node2 -->
<g id="node2" class="node"><title>Node2</title>
<g id="a_node2"><a xlink:href="$db/db0/classGPU_1_1ApePenaltyLoader.html" xlink:title="{GPU::ApePenaltyLoader\n|&#45; srcTrgMap_\l&#45; penalties_\l|+ ApePenaltyLoader()\l+ Load()\l+ NewScorer()\l+ GetBestHyps()\l}">
<polygon fill="white" stroke="black" points="-7.10543e-15,-0.5 -7.10543e-15,-101.5 124,-101.5 124,-0.5 -7.10543e-15,-0.5"/>
<text text-anchor="middle" x="62" y="-89.5" font-family="Helvetica,sans-Serif" font-size="10.00">GPU::ApePenaltyLoader</text>
<polyline fill="none" stroke="black" points="-7.10543e-15,-82.5 124,-82.5 "/>
<text text-anchor="start" x="8" y="-70.5" font-family="Helvetica,sans-Serif" font-size="10.00">&#45; srcTrgMap_</text>
<text text-anchor="start" x="8" y="-59.5" font-family="Helvetica,sans-Serif" font-size="10.00">&#45; penalties_</text>
<polyline fill="none" stroke="black" points="-7.10543e-15,-52.5 124,-52.5 "/>
<text text-anchor="start" x="8" y="-40.5" font-family="Helvetica,sans-Serif" font-size="10.00">+ ApePenaltyLoader()</text>
<text text-anchor="start" x="8" y="-29.5" font-family="Helvetica,sans-Serif" font-size="10.00">+ Load()</text>
<text text-anchor="start" x="8" y="-18.5" font-family="Helvetica,sans-Serif" font-size="10.00">+ NewScorer()</text>
<text text-anchor="start" x="8" y="-7.5" font-family="Helvetica,sans-Serif" font-size="10.00">+ GetBestHyps()</text>
</a>
</g>
</g>
<!-- Node1&#45;&gt;Node2 -->
<g id="edge1" class="edge"><title>Node1&#45;&gt;Node2</title>
<path fill="none" stroke="midnightblue" d="M62,-128.354C62,-119.796 62,-110.578 62,-101.608"/>
<polygon fill="none" stroke="midnightblue" points="58.5001,-128.404 62,-138.404 65.5001,-128.404 58.5001,-128.404"/>
</g>
</g>
</svg>
