<?xml version="1.0" encoding="UTF-8" standalone="no"?>
<!DOCTYPE svg PUBLIC "-//W3C//DTD SVG 1.1//EN"
 "http://www.w3.org/Graphics/SVG/1.1/DTD/svg11.dtd">
<!-- Generated by graphviz version 2.38.0 (20140413.2041)
 -->
<!-- Title: amunmt::GPU::Multiplicative::GetNextState Pages: 1 -->
<!--zoomable 242 -->
<svg id="main" version="1.1" xmlns="http://www.w3.org/2000/svg" xmlns:xlink="http://www.w3.org/1999/xlink" xml:space="preserve" onload="init(evt)">
<style type="text/css"><![CDATA[
.edge:hover path { stroke: red; }
.edge:hover polygon { stroke: red; fill: red; }
]]></style>
<script type="text/javascript"><![CDATA[
var edges = document.getElementsByTagName('g');
if (edges && edges.length) {
  for (var i=0;i<edges.length;i++) {
    if (edges[i].id.substr(0,4)=='edge') {
      edges[i].setAttribute('class','edge');
    }
  }
}
]]></script>
        <defs>
                <circle id="rim" cx="0" cy="0" r="7"/>
                <circle id="rim2" cx="0" cy="0" r="3.5"/>
                <g id="zoomPlus">
                        <use xlink:href="#rim" fill="#404040">
                                <set attributeName="fill" to="#808080" begin="zoomplus.mouseover" end="zoomplus.mouseout"/>
                        </use>
                        <path d="M-4,0h8M0,-4v8" fill="none" stroke="white" stroke-width="1.5" pointer-events="none"/>
                </g>
                <g id="zoomMin">
                        <use xlink:href="#rim" fill="#404040">
                                <set attributeName="fill" to="#808080" begin="zoomminus.mouseover" end="zoomminus.mouseout"/>
                        </use>
                        <path d="M-4,0h8" fill="none" stroke="white" stroke-width="1.5" pointer-events="none"/>
                </g>
                <g id="dirArrow">
                        <path fill="none" stroke="white" stroke-width="1.5" d="M0,-3.0v7 M-2.5,-0.5L0,-3.0L2.5,-0.5"/>
                </g>
               <g id="resetDef">
                       <use xlink:href="#rim2" fill="#404040">
                               <set attributeName="fill" to="#808080" begin="reset.mouseover" end="reset.mouseout"/>
                       </use>
               </g>
        </defs>

<script type="text/javascript">
var viewWidth = 612;
var viewHeight = 242;
var sectionId = 'dynsection-2';
</script>
<script xlink:href="../../svgpan.js"/>
<svg id="graph" class="graph">
<g id="viewport">
<title>amunmt::GPU::Multiplicative::GetNextState</title>
<polygon fill="white" stroke="none" points="-4,4 -4,-238 608,-238 608,4 -4,4"/>
<!-- Node1 -->
<g id="node1" class="node"><title>Node1</title>
<polygon fill="#bfbfbf" stroke="black" points="0,-129.5 0,-159.5 143,-159.5 143,-129.5 0,-129.5"/>
<text text-anchor="start" x="8" y="-147.5" font-family="Helvetica,sans-Serif" font-size="10.00">amunmt::GPU::Multiplicative</text>
<text text-anchor="middle" x="71.5" y="-136.5" font-family="Helvetica,sans-Serif" font-size="10.00">::GetNextState</text>
</g>
<!-- Node2 -->
<g id="node2" class="node"><title>Node2</title>
<g id="a_node2"><a xlink:href="../../d1/d49/namespaceamunmt_1_1GPU_1_1mblas.html#a6359878c47a6c3703d7d8b6e9db1d87e" target="_top" xlink:title="amunmt::GPU::mblas\l::Copy">
<polygon fill="white" stroke="black" points="179,-203.5 179,-233.5 291,-233.5 291,-203.5 179,-203.5"/>
<text text-anchor="start" x="187" y="-221.5" font-family="Helvetica,sans-Serif" font-size="10.00">amunmt::GPU::mblas</text>
<text text-anchor="middle" x="235" y="-210.5" font-family="Helvetica,sans-Serif" font-size="10.00">::Copy</text>
</a>
</g>
</g>
<!-- Node1&#45;&gt;Node2 -->
<g id="edge1" class="edge"><title>Node1&#45;&gt;Node2</title>
<path fill="none" stroke="midnightblue" d="M104.083,-159.606C125.219,-169.646 153.694,-183.041 179,-194.5 182.428,-196.052 185.984,-197.645 189.564,-199.235"/>
<polygon fill="midnightblue" stroke="midnightblue" points="188.46,-202.573 199.022,-203.409 191.286,-196.169 188.46,-202.573"/>
</g>
<!-- Node3 -->
<g id="node3" class="node"><title>Node3</title>
<g id="a_node3"><a xlink:href="../../d1/d49/namespaceamunmt_1_1GPU_1_1mblas.html#a463b2de180e8ab66bae53d1f8c5bc011" target="_top" xlink:title="amunmt::GPU::mblas\l::Prod">
<polygon fill="white" stroke="black" points="179,-154.5 179,-184.5 291,-184.5 291,-154.5 179,-154.5"/>
<text text-anchor="start" x="187" y="-172.5" font-family="Helvetica,sans-Serif" font-size="10.00">amunmt::GPU::mblas</text>
<text text-anchor="middle" x="235" y="-161.5" font-family="Helvetica,sans-Serif" font-size="10.00">::Prod</text>
</a>
</g>
</g>
<!-- Node1&#45;&gt;Node3 -->
<g id="edge2" class="edge"><title>Node1&#45;&gt;Node3</title>
<path fill="none" stroke="midnightblue" d="M143.336,-155.465C151.772,-156.771 160.354,-158.1 168.707,-159.393"/>
<polygon fill="midnightblue" stroke="midnightblue" points="168.338,-162.877 178.756,-160.948 169.409,-155.96 168.338,-162.877"/>
</g>
<!-- Node4 -->
<g id="node4" class="node"><title>Node4</title>
<g id="a_node4"><a xlink:href="../../d1/d49/namespaceamunmt_1_1GPU_1_1mblas.html#ace73de50c8241f219ad490d64513829f" target="_top" xlink:title="amunmt::GPU::mblas\l::BroadcastVec">
<polygon fill="white" stroke="black" points="179,-105.5 179,-135.5 291,-135.5 291,-105.5 179,-105.5"/>
<text text-anchor="start" x="187" y="-123.5" font-family="Helvetica,sans-Serif" font-size="10.00">amunmt::GPU::mblas</text>
<text text-anchor="middle" x="235" y="-112.5" font-family="Helvetica,sans-Serif" font-size="10.00">::BroadcastVec</text>
</a>
</g>
</g>
<!-- Node1&#45;&gt;Node4 -->
<g id="edge3" class="edge"><title>Node1&#45;&gt;Node4</title>
<path fill="none" stroke="midnightblue" d="M143.336,-133.973C151.772,-132.72 160.354,-131.444 168.707,-130.203"/>
<polygon fill="midnightblue" stroke="midnightblue" points="169.379,-133.642 178.756,-128.71 168.35,-126.718 169.379,-133.642"/>
</g>
<!-- Node8 -->
<g id="node8" class="node"><title>Node8</title>
<g id="a_node8"><a xlink:href="../../d1/d49/namespaceamunmt_1_1GPU_1_1mblas.html#adc0a1bee5e001b28e10bff88e940b284" target="_top" xlink:title="amunmt::GPU::mblas\l::Element">
<polygon fill="white" stroke="black" points="179,-54.5 179,-84.5 291,-84.5 291,-54.5 179,-54.5"/>
<text text-anchor="start" x="187" y="-72.5" font-family="Helvetica,sans-Serif" font-size="10.00">amunmt::GPU::mblas</text>
<text text-anchor="middle" x="235" y="-61.5" font-family="Helvetica,sans-Serif" font-size="10.00">::Element</text>
</a>
</g>
</g>
<!-- Node1&#45;&gt;Node8 -->
<g id="edge7" class="edge"><title>Node1&#45;&gt;Node8</title>
<path fill="none" stroke="midnightblue" d="M105.182,-129.323C130.329,-117.645 165.254,-101.425 192.396,-88.8209"/>
<polygon fill="midnightblue" stroke="midnightblue" points="194.047,-91.913 201.643,-84.5266 191.099,-85.5642 194.047,-91.913"/>
</g>
<!-- Node5 -->
<g id="node5" class="node"><title>Node5</title>
<g id="a_node5"><a xlink:href="../../da/d22/namespacemarian.html#ab9fbdcc76cc853270094524572584222" target="_top" xlink:title="marian::cols">
<polygon fill="white" stroke="black" points="348,-158 348,-177 418,-177 418,-158 348,-158"/>
<text text-anchor="middle" x="383" y="-165" font-family="Helvetica,sans-Serif" font-size="10.00">marian::cols</text>
</a>
</g>
</g>
<!-- Node4&#45;&gt;Node5 -->
<g id="edge4" class="edge"><title>Node4&#45;&gt;Node5</title>
<path fill="none" stroke="midnightblue" d="M282.597,-135.5C301.979,-141.74 324.232,-148.903 342.762,-154.869"/>
<polygon fill="midnightblue" stroke="midnightblue" points="341.763,-158.224 352.354,-157.957 343.908,-151.561 341.763,-158.224"/>
</g>
<!-- Node6 -->
<g id="node6" class="node"><title>Node6</title>
<g id="a_node6"><a xlink:href="../../da/ddf/classamunmt_1_1GPU_1_1mblas_1_1TMatrix.html#a642b2578400a4e9d395212f888ff9b1a" target="_top" xlink:title="amunmt::GPU::mblas\l::TMatrix::dim">
<polygon fill="white" stroke="black" points="327,-108.5 327,-138.5 439,-138.5 439,-108.5 327,-108.5"/>
<text text-anchor="start" x="335" y="-126.5" font-family="Helvetica,sans-Serif" font-size="10.00">amunmt::GPU::mblas</text>
<text text-anchor="middle" x="383" y="-115.5" font-family="Helvetica,sans-Serif" font-size="10.00">::TMatrix::dim</text>
</a>
</g>
</g>
<!-- Node4&#45;&gt;Node6 -->
<g id="edge5" class="edge"><title>Node4&#45;&gt;Node6</title>
<path fill="none" stroke="midnightblue" d="M291.196,-121.634C299.463,-121.804 308.055,-121.981 316.51,-122.154"/>
<polygon fill="midnightblue" stroke="midnightblue" points="316.656,-125.658 326.726,-122.364 316.8,-118.659 316.656,-125.658"/>
</g>
<!-- Node7 -->
<g id="node7" class="node"><title>Node7</title>
<g id="a_node7"><a xlink:href="../../dc/d89/classamunmt_1_1GPU_1_1mblas_1_1CudaStreamHandler.html#aab9046cda40ac3fed5676d5aa680e6c8" target="_top" xlink:title="amunmt::GPU::mblas\l::CudaStreamHandler\l::GetStream">
<polygon fill="white" stroke="black" points="327,-49 327,-90 439,-90 439,-49 327,-49"/>
<text text-anchor="start" x="335" y="-78" font-family="Helvetica,sans-Serif" font-size="10.00">amunmt::GPU::mblas</text>
<text text-anchor="start" x="335" y="-67" font-family="Helvetica,sans-Serif" font-size="10.00">::CudaStreamHandler</text>
<text text-anchor="middle" x="383" y="-56" font-family="Helvetica,sans-Serif" font-size="10.00">::GetStream</text>
</a>
</g>
</g>
<!-- Node4&#45;&gt;Node7 -->
<g id="edge6" class="edge"><title>Node4&#45;&gt;Node7</title>
<path fill="none" stroke="midnightblue" d="M279.015,-105.474C290.946,-101.306 304.171,-96.687 317.056,-92.1859"/>
<polygon fill="midnightblue" stroke="midnightblue" points="318.53,-95.3784 326.817,-88.7764 316.222,-88.77 318.53,-95.3784"/>
</g>
<!-- Node8&#45;&gt;Node7 -->
<g id="edge10" class="edge"><title>Node8&#45;&gt;Node7</title>
<path fill="none" stroke="midnightblue" d="M291.196,-69.5C299.463,-69.5 308.055,-69.5 316.51,-69.5"/>
<polygon fill="midnightblue" stroke="midnightblue" points="316.726,-73.0001 326.726,-69.5 316.726,-66.0001 316.726,-73.0001"/>
</g>
<!-- Node9 -->
<g id="node9" class="node"><title>Node9</title>
<g id="a_node9"><a xlink:href="../../d5/de7/classamunmt_1_1BaseMatrix.html#a52ccc5b9234726532fe0452a8aed5b1f" target="_top" xlink:title="amunmt::BaseMatrix\l::size">
<polygon fill="white" stroke="black" points="329.5,-0.5 329.5,-30.5 436.5,-30.5 436.5,-0.5 329.5,-0.5"/>
<text text-anchor="start" x="337.5" y="-18.5" font-family="Helvetica,sans-Serif" font-size="10.00">amunmt::BaseMatrix</text>
<text text-anchor="middle" x="383" y="-7.5" font-family="Helvetica,sans-Serif" font-size="10.00">::size</text>
</a>
</g>
</g>
<!-- Node8&#45;&gt;Node9 -->
<g id="edge8" class="edge"><title>Node8&#45;&gt;Node9</title>
<path fill="none" stroke="midnightblue" d="M276.669,-54.458C293.684,-48.1648 313.635,-40.7855 331.571,-34.1519"/>
<polygon fill="midnightblue" stroke="midnightblue" points="333.131,-37.3066 341.296,-30.5549 330.703,-30.7413 333.131,-37.3066"/>
</g>
<!-- Node10 -->
<g id="node10" class="node"><title>Node10</title>
<g id="a_node10"><a xlink:href="../../d5/de7/classamunmt_1_1BaseMatrix.html#a8fca680b1a864b3d99e9cfe6aa60f1d4" target="_top" xlink:title="amunmt::BaseMatrix::dim">
<polygon fill="white" stroke="black" points="475,-6 475,-25 604,-25 604,-6 475,-6"/>
<text text-anchor="middle" x="539.5" y="-13" font-family="Helvetica,sans-Serif" font-size="10.00">amunmt::BaseMatrix::dim</text>
</a>
</g>
</g>
<!-- Node9&#45;&gt;Node10 -->
<g id="edge9" class="edge"><title>Node9&#45;&gt;Node10</title>
<path fill="none" stroke="midnightblue" d="M436.738,-15.5C445.726,-15.5 455.207,-15.5 464.621,-15.5"/>
<polygon fill="midnightblue" stroke="midnightblue" points="464.784,-19.0001 474.784,-15.5 464.784,-12.0001 464.784,-19.0001"/>
</g>
</g>
</svg>
        <g id="navigator" transform="translate(0 0)" fill="#404254">
                <rect fill="#f2f5e9" fill-opacity="0.5" stroke="#606060" stroke-width=".5" x="0" y="0" width="60" height="60"/>
                <use id="zoomplus" xlink:href="#zoomPlus" x="17" y="9" onmousedown="handleZoom(evt,'in')"/>
                <use id="zoomminus" xlink:href="#zoomMin" x="42" y="9" onmousedown="handleZoom(evt,'out')"/>
                <use id="reset" xlink:href="#resetDef" x="30" y="36" onmousedown="handleReset()"/>
                <g id="arrowUp" xlink:href="#dirArrow" transform="translate(30 24)" onmousedown="handlePan(0,-1)">
                  <use xlink:href="#rim" fill="#404040">
                        <set attributeName="fill" to="#808080" begin="arrowUp.mouseover" end="arrowUp.mouseout"/>
                  </use>
                  <path fill="none" stroke="white" stroke-width="1.5" d="M0,-3.0v7 M-2.5,-0.5L0,-3.0L2.5,-0.5"/>
                </g>
                <g id="arrowRight" xlink:href="#dirArrow" transform="rotate(90) translate(36 -43)" onmousedown="handlePan(1,0)">
                  <use xlink:href="#rim" fill="#404040">
                        <set attributeName="fill" to="#808080" begin="arrowRight.mouseover" end="arrowRight.mouseout"/>
                  </use>
                  <path fill="none" stroke="white" stroke-width="1.5" d="M0,-3.0v7 M-2.5,-0.5L0,-3.0L2.5,-0.5"/>
                </g>
                <g id="arrowDown" xlink:href="#dirArrow" transform="rotate(180) translate(-30 -48)" onmousedown="handlePan(0,1)">
                  <use xlink:href="#rim" fill="#404040">
                        <set attributeName="fill" to="#808080" begin="arrowDown.mouseover" end="arrowDown.mouseout"/>
                  </use>
                  <path fill="none" stroke="white" stroke-width="1.5" d="M0,-3.0v7 M-2.5,-0.5L0,-3.0L2.5,-0.5"/>
                </g>
                <g id="arrowLeft" xlink:href="#dirArrow" transform="rotate(270) translate(-36 17)" onmousedown="handlePan(-1,0)">
                  <use xlink:href="#rim" fill="#404040">
                        <set attributeName="fill" to="#808080" begin="arrowLeft.mouseover" end="arrowLeft.mouseout"/>
                  </use>
                  <path fill="none" stroke="white" stroke-width="1.5" d="M0,-3.0v7 M-2.5,-0.5L0,-3.0L2.5,-0.5"/>
                </g>
        </g>
        <svg viewBox="0 0 15 15" width="100%" height="30px" preserveAspectRatio="xMaxYMin meet">
         <g id="arrow_out" transform="scale(0.3 0.3)">
          <a xlink:href="classamunmt_1_1GPU_1_1Multiplicative_a1f485aad0d4da73469d58f61fc121341_cgraph_org.svg" target="_base">
           <rect id="button" ry="5" rx="5" y="6" x="6" height="38" width="38"
                fill="#f2f5e9" fill-opacity="0.5" stroke="#606060" stroke-width="1.0"/>
           <path id="arrow"
             d="M 11.500037,31.436501 C 11.940474,20.09759 22.043105,11.32322 32.158766,21.979434 L 37.068811,17.246167 C 37.068811,17.246167 37.088388,32 37.088388,32 L 22.160133,31.978069 C 22.160133,31.978069 26.997745,27.140456 26.997745,27.140456 C 18.528582,18.264221 13.291696,25.230495 11.500037,31.436501 z"
             style="fill:#404040;"/>
          </a>
         </g>
        </svg>
</svg>
