<?xml version="1.0" encoding="UTF-8" standalone="no"?>
<!DOCTYPE svg PUBLIC "-//W3C//DTD SVG 1.1//EN"
 "http://www.w3.org/Graphics/SVG/1.1/DTD/svg11.dtd">
<!-- Generated by graphviz version 2.38.0 (20140413.2041)
 -->
<!-- Title: scorer.h Pages: 1 -->
<svg width="1234pt" height="420pt"
 viewBox="0.00 0.00 1233.50 420.00" xmlns="http://www.w3.org/2000/svg" xmlns:xlink="http://www.w3.org/1999/xlink">
<g id="graph0" class="graph" transform="scale(1 1) rotate(0) translate(4 416)">
<title>scorer.h</title>
<polygon fill="white" stroke="none" points="-4,4 -4,-416 1229.5,-416 1229.5,4 -4,4"/>
<!-- Node1 -->
<g id="node1" class="node"><title>Node1</title>
<polygon fill="#bfbfbf" stroke="black" points="628.5,-392.5 628.5,-411.5 680.5,-411.5 680.5,-392.5 628.5,-392.5"/>
<text text-anchor="middle" x="654.5" y="-399.5" font-family="Helvetica,sans-Serif" font-size="10.00">scorer.h</text>
</g>
<!-- Node2 -->
<g id="node2" class="node"><title>Node2</title>
<g id="a_node2"><a xlink:href="../../d5/dbc/base__best__hyps_8h.html" target="_top" xlink:title="base_best_hyps.h">
<polygon fill="white" stroke="black" points="463.5,-336.5 463.5,-355.5 559.5,-355.5 559.5,-336.5 463.5,-336.5"/>
<text text-anchor="middle" x="511.5" y="-343.5" font-family="Helvetica,sans-Serif" font-size="10.00">base_best_hyps.h</text>
</a>
</g>
</g>
<!-- Node1&#45;&gt;Node2 -->
<g id="edge1" class="edge"><title>Node1&#45;&gt;Node2</title>
<path fill="none" stroke="midnightblue" d="M622.473,-388.906C595.588,-378.754 557.859,-364.506 534.053,-355.516"/>
<polygon fill="midnightblue" stroke="midnightblue" points="621.25,-392.185 631.841,-392.444 623.722,-385.636 621.25,-392.185"/>
</g>
<!-- Node3 -->
<g id="node3" class="node"><title>Node3</title>
<g id="a_node3"><a xlink:href="../../d4/d57/god_8h.html" target="_top" xlink:title="god.h">
<polygon fill="white" stroke="black" points="568,-224.5 568,-243.5 609,-243.5 609,-224.5 568,-224.5"/>
<text text-anchor="middle" x="588.5" y="-231.5" font-family="Helvetica,sans-Serif" font-size="10.00">god.h</text>
</a>
</g>
</g>
<!-- Node1&#45;&gt;Node3 -->
<g id="edge39" class="edge"><title>Node1&#45;&gt;Node3</title>
<path fill="none" stroke="midnightblue" d="M647.103,-382.395C632.865,-346.585 602.154,-269.342 591.907,-243.568"/>
<polygon fill="midnightblue" stroke="midnightblue" points="644.005,-384.076 650.952,-392.075 650.509,-381.49 644.005,-384.076"/>
</g>
<!-- Node6 -->
<g id="node6" class="node"><title>Node6</title>
<g id="a_node6"><a xlink:href="../../d3/d73/god_8cpp.html" target="_top" xlink:title="god.cpp">
<polygon fill="white" stroke="black" points="175,-168.5 175,-187.5 226,-187.5 226,-168.5 175,-168.5"/>
<text text-anchor="middle" x="200.5" y="-175.5" font-family="Helvetica,sans-Serif" font-size="10.00">god.cpp</text>
</a>
</g>
</g>
<!-- Node1&#45;&gt;Node6 -->
<g id="edge38" class="edge"><title>Node1&#45;&gt;Node6</title>
<path fill="none" stroke="midnightblue" d="M618.292,-397.747C566.798,-392.338 476.225,-379.673 454.5,-356 414.466,-312.376 477.246,-266.96 436.5,-224 422.041,-208.755 284.132,-189.63 226.068,-182.177"/>
<polygon fill="midnightblue" stroke="midnightblue" points="618.042,-401.24 628.343,-398.763 618.746,-394.275 618.042,-401.24"/>
</g>
<!-- Node13 -->
<g id="node13" class="node"><title>Node13</title>
<g id="a_node13"><a xlink:href="../../d0/d90/best__hyps_8h.html" target="_top" xlink:title="best_hyps.h">
<polygon fill="white" stroke="black" points="832.5,-168.5 832.5,-187.5 902.5,-187.5 902.5,-168.5 832.5,-168.5"/>
<text text-anchor="middle" x="867.5" y="-175.5" font-family="Helvetica,sans-Serif" font-size="10.00">best_hyps.h</text>
</a>
</g>
</g>
<!-- Node1&#45;&gt;Node13 -->
<g id="edge45" class="edge"><title>Node1&#45;&gt;Node13</title>
<path fill="none" stroke="midnightblue" d="M671.93,-385.484C693.515,-366.06 731.144,-331.505 761.5,-300 800.449,-259.577 843.582,-208.038 860.318,-187.758"/>
<polygon fill="midnightblue" stroke="midnightblue" points="669.35,-383.097 664.238,-392.377 674.021,-388.31 669.35,-383.097"/>
</g>
<!-- Node16 -->
<g id="node16" class="node"><title>Node16</title>
<g id="a_node16"><a xlink:href="../../d6/da3/language__model_8h.html" target="_top" xlink:title="language_model.h">
<polygon fill="white" stroke="black" points="861,-56.5 861,-75.5 956,-75.5 956,-56.5 861,-56.5"/>
<text text-anchor="middle" x="908.5" y="-63.5" font-family="Helvetica,sans-Serif" font-size="10.00">language_model.h</text>
</a>
</g>
</g>
<!-- Node1&#45;&gt;Node16 -->
<g id="edge46" class="edge"><title>Node1&#45;&gt;Node16</title>
<path fill="none" stroke="midnightblue" d="M690.846,-400.537C742.609,-398.609 839.488,-390.247 913.5,-356 954.454,-337.05 991.5,-336.126 991.5,-291 991.5,-291 991.5,-291 991.5,-177 991.5,-131.066 944.812,-92.1582 921.469,-75.575"/>
<polygon fill="midnightblue" stroke="midnightblue" points="690.698,-397.04 680.812,-400.85 690.917,-404.036 690.698,-397.04"/>
</g>
<!-- Node18 -->
<g id="node18" class="node"><title>Node18</title>
<g id="a_node18"><a xlink:href="../../da/d6d/nmt_8h.html" target="_top" xlink:title="nmt.h">
<polygon fill="white" stroke="black" points="921,-168.5 921,-187.5 962,-187.5 962,-168.5 921,-168.5"/>
<text text-anchor="middle" x="941.5" y="-175.5" font-family="Helvetica,sans-Serif" font-size="10.00">nmt.h</text>
</a>
</g>
</g>
<!-- Node1&#45;&gt;Node18 -->
<g id="edge52" class="edge"><title>Node1&#45;&gt;Node18</title>
<path fill="none" stroke="midnightblue" d="M690.865,-401.136C738.665,-399.777 823.787,-391.934 885.5,-356 913.828,-339.505 921.118,-330.352 933.5,-300 949.563,-260.624 945.257,-208.051 942.726,-187.624"/>
<polygon fill="midnightblue" stroke="midnightblue" points="690.613,-397.641 680.686,-401.343 690.755,-404.639 690.613,-397.641"/>
</g>
<!-- Node19 -->
<g id="node19" class="node"><title>Node19</title>
<g id="a_node19"><a xlink:href="../../db/db8/loader_8h.html" target="_top" xlink:title="loader.h">
<polygon fill="white" stroke="black" points="301,-280.5 301,-299.5 352,-299.5 352,-280.5 301,-280.5"/>
<text text-anchor="middle" x="326.5" y="-287.5" font-family="Helvetica,sans-Serif" font-size="10.00">loader.h</text>
</a>
</g>
</g>
<!-- Node1&#45;&gt;Node19 -->
<g id="edge40" class="edge"><title>Node1&#45;&gt;Node19</title>
<path fill="none" stroke="midnightblue" d="M617.82,-399.06C549.746,-394.853 407.094,-383.008 366.5,-356 345.981,-342.348 334.163,-314.221 329.234,-299.86"/>
<polygon fill="midnightblue" stroke="midnightblue" points="617.887,-402.57 628.078,-399.671 618.303,-395.583 617.887,-402.57"/>
</g>
<!-- Node21 -->
<g id="node21" class="node"><title>Node21</title>
<g id="a_node21"><a xlink:href="../../dc/dec/loader__factory_8cpp.html" target="_top" xlink:title="loader_factory.cpp">
<polygon fill="white" stroke="black" points="0,-168.5 0,-187.5 97,-187.5 97,-168.5 0,-168.5"/>
<text text-anchor="middle" x="48.5" y="-175.5" font-family="Helvetica,sans-Serif" font-size="10.00">loader_factory.cpp</text>
</a>
</g>
</g>
<!-- Node1&#45;&gt;Node21 -->
<g id="edge41" class="edge"><title>Node1&#45;&gt;Node21</title>
<path fill="none" stroke="midnightblue" d="M618.323,-397.852C560.072,-392.315 442.136,-379.165 344.5,-356 191.341,-319.661 100.54,-371.699 8.5,-244 -5.44565,-224.651 19.9952,-200.377 36.3297,-187.669"/>
<polygon fill="midnightblue" stroke="midnightblue" points="618.206,-401.356 628.487,-398.798 618.855,-394.386 618.206,-401.356"/>
</g>
<!-- Node23 -->
<g id="node23" class="node"><title>Node23</title>
<g id="a_node23"><a xlink:href="../../df/d0c/ape__penalty_8h.html" target="_top" xlink:title="ape_penalty.h">
<polygon fill="white" stroke="black" points="351,-224.5 351,-243.5 428,-243.5 428,-224.5 351,-224.5"/>
<text text-anchor="middle" x="389.5" y="-231.5" font-family="Helvetica,sans-Serif" font-size="10.00">ape_penalty.h</text>
</a>
</g>
</g>
<!-- Node1&#45;&gt;Node23 -->
<g id="edge44" class="edge"><title>Node1&#45;&gt;Node23</title>
<path fill="none" stroke="midnightblue" d="M617.976,-398.609C559.723,-394.052 449.484,-382.149 421.5,-356 388.794,-325.439 388.004,-265.712 388.942,-243.547"/>
<polygon fill="midnightblue" stroke="midnightblue" points="617.983,-402.119 628.216,-399.376 618.506,-395.138 617.983,-402.119"/>
</g>
<!-- Node25 -->
<g id="node25" class="node"><title>Node25</title>
<g id="a_node25"><a xlink:href="../../d9/d85/search_8h.html" target="_top" xlink:title="search.h">
<polygon fill="white" stroke="black" points="484.5,-224.5 484.5,-243.5 538.5,-243.5 538.5,-224.5 484.5,-224.5"/>
<text text-anchor="middle" x="511.5" y="-231.5" font-family="Helvetica,sans-Serif" font-size="10.00">search.h</text>
</a>
</g>
</g>
<!-- Node1&#45;&gt;Node25 -->
<g id="edge43" class="edge"><title>Node1&#45;&gt;Node25</title>
<path fill="none" stroke="midnightblue" d="M640.036,-384.21C609.932,-349.264 541.467,-269.787 518.881,-243.568"/>
<polygon fill="midnightblue" stroke="midnightblue" points="637.633,-386.783 646.812,-392.075 642.937,-382.214 637.633,-386.783"/>
</g>
<!-- Node26 -->
<g id="node26" class="node"><title>Node26</title>
<g id="a_node26"><a xlink:href="../../d2/d86/encoder__decoder_8h.html" target="_top" xlink:title="encoder_decoder.h">
<polygon fill="white" stroke="black" points="654,-280.5 654,-299.5 753,-299.5 753,-280.5 654,-280.5"/>
<text text-anchor="middle" x="703.5" y="-287.5" font-family="Helvetica,sans-Serif" font-size="10.00">encoder_decoder.h</text>
</a>
</g>
</g>
<!-- Node1&#45;&gt;Node26 -->
<g id="edge47" class="edge"><title>Node1&#45;&gt;Node26</title>
<path fill="none" stroke="midnightblue" d="M662.519,-382.998C673.211,-358.997 691.71,-317.468 699.673,-299.591"/>
<polygon fill="midnightblue" stroke="midnightblue" points="659.217,-381.81 658.345,-392.368 665.611,-384.658 659.217,-381.81"/>
</g>
<!-- Node27 -->
<g id="node27" class="node"><title>Node27</title>
<g id="a_node27"><a xlink:href="../../d3/d00/scorer_8cpp.html" target="_top" xlink:title="scorer.cpp">
<polygon fill="white" stroke="black" points="1019.5,-336.5 1019.5,-355.5 1081.5,-355.5 1081.5,-336.5 1019.5,-336.5"/>
<text text-anchor="middle" x="1050.5" y="-343.5" font-family="Helvetica,sans-Serif" font-size="10.00">scorer.cpp</text>
</a>
</g>
</g>
<!-- Node1&#45;&gt;Node27 -->
<g id="edge42" class="edge"><title>Node1&#45;&gt;Node27</title>
<path fill="none" stroke="midnightblue" d="M690.517,-397.223C754.235,-390.355 890.927,-374.778 1005.5,-356 1009.9,-355.278 1014.53,-354.442 1019.08,-353.575"/>
<polygon fill="midnightblue" stroke="midnightblue" points="690.141,-393.743 680.57,-398.289 690.886,-400.704 690.141,-393.743"/>
</g>
<!-- Node28 -->
<g id="node28" class="node"><title>Node28</title>
<g id="a_node28"><a xlink:href="../../d0/d1e/encoder__decoder__state_8h.html" target="_top" xlink:title="encoder_decoder_state.h">
<polygon fill="white" stroke="black" points="1099.5,-336.5 1099.5,-355.5 1225.5,-355.5 1225.5,-336.5 1099.5,-336.5"/>
<text text-anchor="middle" x="1162.5" y="-343.5" font-family="Helvetica,sans-Serif" font-size="10.00">encoder_decoder_state.h</text>
</a>
</g>
</g>
<!-- Node1&#45;&gt;Node28 -->
<g id="edge48" class="edge"><title>Node1&#45;&gt;Node28</title>
<path fill="none" stroke="midnightblue" d="M690.855,-397.514C765.701,-390.28 942.413,-372.896 1090.5,-356 1093.38,-355.672 1096.32,-355.329 1099.29,-354.979"/>
<polygon fill="midnightblue" stroke="midnightblue" points="690.185,-394.063 680.567,-398.507 690.857,-401.03 690.185,-394.063"/>
</g>
<!-- Node29 -->
<g id="node29" class="node"><title>Node29</title>
<g id="a_node29"><a xlink:href="../../dd/df3/hypo__info_8h.html" target="_top" xlink:title="hypo_info.h">
<polygon fill="white" stroke="black" points="810,-336.5 810,-355.5 877,-355.5 877,-336.5 810,-336.5"/>
<text text-anchor="middle" x="843.5" y="-343.5" font-family="Helvetica,sans-Serif" font-size="10.00">hypo_info.h</text>
</a>
</g>
</g>
<!-- Node1&#45;&gt;Node29 -->
<g id="edge49" class="edge"><title>Node1&#45;&gt;Node29</title>
<path fill="none" stroke="midnightblue" d="M690.79,-390.631C726.514,-380.424 780.418,-365.023 813.709,-355.512"/>
<polygon fill="midnightblue" stroke="midnightblue" points="689.433,-387.379 680.78,-393.492 691.356,-394.11 689.433,-387.379"/>
</g>
<!-- Node2&#45;&gt;Node3 -->
<g id="edge2" class="edge"><title>Node2&#45;&gt;Node3</title>
<path fill="none" stroke="midnightblue" d="M523.43,-327.957C540.117,-304.118 569.804,-261.709 582.486,-243.591"/>
<polygon fill="midnightblue" stroke="midnightblue" points="520.409,-326.169 517.542,-336.368 526.144,-330.183 520.409,-326.169"/>
</g>
<!-- Node2&#45;&gt;Node19 -->
<g id="edge20" class="edge"><title>Node2&#45;&gt;Node19</title>
<path fill="none" stroke="midnightblue" d="M472.434,-333.597C436.179,-323.014 383.256,-307.567 352.102,-298.473"/>
<polygon fill="midnightblue" stroke="midnightblue" points="471.606,-337.001 482.186,-336.444 473.567,-330.282 471.606,-337.001"/>
</g>
<!-- Node2&#45;&gt;Node23 -->
<g id="edge34" class="edge"><title>Node2&#45;&gt;Node23</title>
<path fill="none" stroke="midnightblue" d="M494.322,-329.512C468.253,-306.007 419.567,-262.11 399.029,-243.591"/>
<polygon fill="midnightblue" stroke="midnightblue" points="492.156,-332.271 501.927,-336.368 496.844,-327.073 492.156,-332.271"/>
</g>
<!-- Node2&#45;&gt;Node25 -->
<g id="edge28" class="edge"><title>Node2&#45;&gt;Node25</title>
<path fill="none" stroke="midnightblue" d="M511.5,-326.348C511.5,-302.254 511.5,-261.308 511.5,-243.591"/>
<polygon fill="midnightblue" stroke="midnightblue" points="508,-326.368 511.5,-336.368 515,-326.369 508,-326.368"/>
</g>
<!-- Node2&#45;&gt;Node26 -->
<g id="edge35" class="edge"><title>Node2&#45;&gt;Node26</title>
<path fill="none" stroke="midnightblue" d="M551.683,-333.699C587.919,-323.507 640.414,-308.743 673.219,-299.516"/>
<polygon fill="midnightblue" stroke="midnightblue" points="550.602,-330.367 541.923,-336.444 552.497,-337.105 550.602,-330.367"/>
</g>
<!-- Node4 -->
<g id="node4" class="node"><title>Node4</title>
<g id="a_node4"><a xlink:href="../../d0/d73/decoder__main_8cpp.html" target="_top" xlink:title="decoder_main.cpp">
<polygon fill="white" stroke="black" points="324.5,-112.5 324.5,-131.5 420.5,-131.5 420.5,-112.5 324.5,-112.5"/>
<text text-anchor="middle" x="372.5" y="-119.5" font-family="Helvetica,sans-Serif" font-size="10.00">decoder_main.cpp</text>
</a>
</g>
</g>
<!-- Node3&#45;&gt;Node4 -->
<g id="edge3" class="edge"><title>Node3&#45;&gt;Node4</title>
<path fill="none" stroke="midnightblue" d="M557.961,-226.164C519.066,-217.113 454.389,-200.803 433.5,-188 408.958,-172.958 387.877,-145.461 378.183,-131.548"/>
<polygon fill="midnightblue" stroke="midnightblue" points="557.191,-229.578 567.721,-228.409 558.76,-222.756 557.191,-229.578"/>
</g>
<!-- Node5 -->
<g id="node5" class="node"><title>Node5</title>
<g id="a_node5"><a xlink:href="../../de/d63/filter_8cpp.html" target="_top" xlink:title="filter.cpp">
<polygon fill="white" stroke="black" points="760.5,-168.5 760.5,-187.5 814.5,-187.5 814.5,-168.5 760.5,-168.5"/>
<text text-anchor="middle" x="787.5" y="-175.5" font-family="Helvetica,sans-Serif" font-size="10.00">filter.cpp</text>
</a>
</g>
</g>
<!-- Node3&#45;&gt;Node5 -->
<g id="edge4" class="edge"><title>Node3&#45;&gt;Node5</title>
<path fill="none" stroke="midnightblue" d="M619.179,-224.675C657.82,-214.19 723.604,-196.339 760.448,-186.341"/>
<polygon fill="midnightblue" stroke="midnightblue" points="617.781,-221.428 609.047,-227.424 619.615,-228.183 617.781,-221.428"/>
</g>
<!-- Node3&#45;&gt;Node6 -->
<g id="edge5" class="edge"><title>Node3&#45;&gt;Node6</title>
<path fill="none" stroke="midnightblue" d="M557.663,-225.929C554.242,-225.235 550.802,-224.575 547.5,-224 428.108,-203.195 284.065,-187.488 226.299,-181.568"/>
<polygon fill="midnightblue" stroke="midnightblue" points="557.202,-229.409 567.712,-228.069 558.66,-222.563 557.202,-229.409"/>
</g>
<!-- Node7 -->
<g id="node7" class="node"><title>Node7</title>
<g id="a_node7"><a xlink:href="../../d5/dc4/amun_2common_2printer_8h.html" target="_top" xlink:title="printer.h">
<polygon fill="white" stroke="black" points="442.5,-168.5 442.5,-187.5 494.5,-187.5 494.5,-168.5 442.5,-168.5"/>
<text text-anchor="middle" x="468.5" y="-175.5" font-family="Helvetica,sans-Serif" font-size="10.00">printer.h</text>
</a>
</g>
</g>
<!-- Node3&#45;&gt;Node7 -->
<g id="edge6" class="edge"><title>Node3&#45;&gt;Node7</title>
<path fill="none" stroke="midnightblue" d="M560.127,-220.232C537.68,-210.131 506.965,-196.309 487.425,-187.516"/>
<polygon fill="midnightblue" stroke="midnightblue" points="558.93,-223.532 569.486,-224.444 561.803,-217.148 558.93,-223.532"/>
</g>
<!-- Node10 -->
<g id="node10" class="node"><title>Node10</title>
<g id="a_node10"><a xlink:href="../../d5/d49/amunmt_8cpp.html" target="_top" xlink:title="amunmt.cpp">
<polygon fill="white" stroke="black" points="519,-112.5 519,-131.5 590,-131.5 590,-112.5 519,-112.5"/>
<text text-anchor="middle" x="554.5" y="-119.5" font-family="Helvetica,sans-Serif" font-size="10.00">amunmt.cpp</text>
</a>
</g>
</g>
<!-- Node3&#45;&gt;Node10 -->
<g id="edge19" class="edge"><title>Node3&#45;&gt;Node10</title>
<path fill="none" stroke="midnightblue" d="M610.497,-218.407C627.004,-205.545 645.079,-186.089 634.5,-168 623.8,-149.705 602.625,-138.274 584.747,-131.512"/>
<polygon fill="midnightblue" stroke="midnightblue" points="608.18,-215.766 602.169,-224.49 612.309,-221.419 608.18,-215.766"/>
</g>
<!-- Node11 -->
<g id="node11" class="node"><title>Node11</title>
<g id="a_node11"><a xlink:href="../../d9/def/search_8cpp.html" target="_top" xlink:title="search.cpp">
<polygon fill="white" stroke="black" points="321,-168.5 321,-187.5 386,-187.5 386,-168.5 321,-168.5"/>
<text text-anchor="middle" x="353.5" y="-175.5" font-family="Helvetica,sans-Serif" font-size="10.00">search.cpp</text>
</a>
</g>
</g>
<!-- Node3&#45;&gt;Node11 -->
<g id="edge11" class="edge"><title>Node3&#45;&gt;Node11</title>
<path fill="none" stroke="midnightblue" d="M557.722,-225.928C513.314,-215.723 431.627,-196.953 386.182,-186.51"/>
<polygon fill="midnightblue" stroke="midnightblue" points="557.115,-229.379 567.645,-228.208 558.683,-222.557 557.115,-229.379"/>
</g>
<!-- Node12 -->
<g id="node12" class="node"><title>Node12</title>
<g id="a_node12"><a xlink:href="../../d7/d57/sentence_8cpp.html" target="_top" xlink:title="sentence.cpp">
<polygon fill="white" stroke="black" points="551,-168.5 551,-187.5 626,-187.5 626,-168.5 551,-168.5"/>
<text text-anchor="middle" x="588.5" y="-175.5" font-family="Helvetica,sans-Serif" font-size="10.00">sentence.cpp</text>
</a>
</g>
</g>
<!-- Node3&#45;&gt;Node12 -->
<g id="edge12" class="edge"><title>Node3&#45;&gt;Node12</title>
<path fill="none" stroke="midnightblue" d="M588.5,-213.805C588.5,-204.91 588.5,-194.78 588.5,-187.751"/>
<polygon fill="midnightblue" stroke="midnightblue" points="585,-214.083 588.5,-224.083 592,-214.083 585,-214.083"/>
</g>
<!-- Node3&#45;&gt;Node13 -->
<g id="edge13" class="edge"><title>Node3&#45;&gt;Node13</title>
<path fill="none" stroke="midnightblue" d="M619.242,-227.241C664.152,-218.798 750.315,-202.491 823.5,-188 826.406,-187.424 829.42,-186.822 832.444,-186.212"/>
<polygon fill="midnightblue" stroke="midnightblue" points="618.447,-223.829 609.265,-229.114 619.739,-230.709 618.447,-223.829"/>
</g>
<!-- Node14 -->
<g id="node14" class="node"><title>Node14</title>
<g id="a_node14"><a xlink:href="../../d6/d72/decoder_8h.html" target="_top" xlink:title="decoder.h">
<polygon fill="white" stroke="black" points="683,-168.5 683,-187.5 742,-187.5 742,-168.5 683,-168.5"/>
<text text-anchor="middle" x="712.5" y="-175.5" font-family="Helvetica,sans-Serif" font-size="10.00">decoder.h</text>
</a>
</g>
</g>
<!-- Node3&#45;&gt;Node14 -->
<g id="edge14" class="edge"><title>Node3&#45;&gt;Node14</title>
<path fill="none" stroke="midnightblue" d="M617.507,-220.368C640.729,-210.255 672.663,-196.349 692.944,-187.516"/>
<polygon fill="midnightblue" stroke="midnightblue" points="615.919,-217.242 608.148,-224.444 618.714,-223.66 615.919,-217.242"/>
</g>
<!-- Node3&#45;&gt;Node18 -->
<g id="edge18" class="edge"><title>Node3&#45;&gt;Node18</title>
<path fill="none" stroke="midnightblue" d="M619.373,-230.286C677.181,-224.855 805.489,-211.144 911.5,-188 914.581,-187.327 917.806,-186.497 920.952,-185.616"/>
<polygon fill="midnightblue" stroke="midnightblue" points="618.735,-226.83 609.099,-231.234 619.378,-233.801 618.735,-226.83"/>
</g>
<!-- Node7&#45;&gt;Node4 -->
<g id="edge7" class="edge"><title>Node7&#45;&gt;Node4</title>
<path fill="none" stroke="midnightblue" d="M443.926,-163.177C426.261,-153.241 402.987,-140.149 387.886,-131.655"/>
<polygon fill="midnightblue" stroke="midnightblue" points="442.644,-166.472 453.076,-168.324 446.076,-160.371 442.644,-166.472"/>
</g>
<!-- Node8 -->
<g id="node8" class="node"><title>Node8</title>
<g id="a_node8"><a xlink:href="../../d3/db8/amun_2common_2printer_8cpp.html" target="_top" xlink:title="printer.cpp">
<polygon fill="white" stroke="black" points="438.5,-112.5 438.5,-131.5 500.5,-131.5 500.5,-112.5 438.5,-112.5"/>
<text text-anchor="middle" x="469.5" y="-119.5" font-family="Helvetica,sans-Serif" font-size="10.00">printer.cpp</text>
</a>
</g>
</g>
<!-- Node7&#45;&gt;Node8 -->
<g id="edge8" class="edge"><title>Node7&#45;&gt;Node8</title>
<path fill="none" stroke="midnightblue" d="M468.855,-157.805C469.02,-148.91 469.208,-138.78 469.338,-131.751"/>
<polygon fill="midnightblue" stroke="midnightblue" points="465.351,-158.02 468.665,-168.083 472.35,-158.15 465.351,-158.02"/>
</g>
<!-- Node9 -->
<g id="node9" class="node"><title>Node9</title>
<g id="a_node9"><a xlink:href="../../df/d6f/translation__task_8cpp.html" target="_top" xlink:title="translation_task.cpp">
<polygon fill="white" stroke="black" points="202.5,-112.5 202.5,-131.5 306.5,-131.5 306.5,-112.5 202.5,-112.5"/>
<text text-anchor="middle" x="254.5" y="-119.5" font-family="Helvetica,sans-Serif" font-size="10.00">translation_task.cpp</text>
</a>
</g>
</g>
<!-- Node7&#45;&gt;Node9 -->
<g id="edge9" class="edge"><title>Node7&#45;&gt;Node9</title>
<path fill="none" stroke="midnightblue" d="M432.339,-167.875C392.114,-157.725 327.637,-141.455 288.365,-131.545"/>
<polygon fill="midnightblue" stroke="midnightblue" points="431.707,-171.325 442.259,-170.379 433.42,-164.538 431.707,-171.325"/>
</g>
<!-- Node7&#45;&gt;Node10 -->
<g id="edge10" class="edge"><title>Node7&#45;&gt;Node10</title>
<path fill="none" stroke="midnightblue" d="M490.955,-162.901C506.724,-152.999 527.314,-140.071 540.717,-131.655"/>
<polygon fill="midnightblue" stroke="midnightblue" points="488.925,-160.042 482.317,-168.324 492.648,-165.97 488.925,-160.042"/>
</g>
<!-- Node15 -->
<g id="node15" class="node"><title>Node15</title>
<g id="a_node15"><a xlink:href="../../db/d89/dl4mt_8h.html" target="_top" xlink:title="dl4mt.h">
<polygon fill="white" stroke="black" points="801,-112.5 801,-131.5 850,-131.5 850,-112.5 801,-112.5"/>
<text text-anchor="middle" x="825.5" y="-119.5" font-family="Helvetica,sans-Serif" font-size="10.00">dl4mt.h</text>
</a>
</g>
</g>
<!-- Node14&#45;&gt;Node15 -->
<g id="edge15" class="edge"><title>Node14&#45;&gt;Node15</title>
<path fill="none" stroke="midnightblue" d="M739.503,-164.096C760.614,-154.007 789.362,-140.27 807.679,-131.516"/>
<polygon fill="midnightblue" stroke="midnightblue" points="737.919,-160.974 730.405,-168.444 740.937,-167.29 737.919,-160.974"/>
</g>
<!-- Node15&#45;&gt;Node16 -->
<g id="edge16" class="edge"><title>Node15&#45;&gt;Node16</title>
<path fill="none" stroke="midnightblue" d="M847.599,-106.622C862.762,-96.7574 882.383,-83.9919 895.198,-75.6545"/>
<polygon fill="midnightblue" stroke="midnightblue" points="845.309,-103.937 838.835,-112.324 849.126,-109.804 845.309,-103.937"/>
</g>
<!-- Node17 -->
<g id="node17" class="node"><title>Node17</title>
<g id="a_node17"><a xlink:href="../../d3/d17/class__language__model_8h.html" target="_top" xlink:title="class_language_model.h">
<polygon fill="white" stroke="black" points="846.5,-0.5 846.5,-19.5 970.5,-19.5 970.5,-0.5 846.5,-0.5"/>
<text text-anchor="middle" x="908.5" y="-7.5" font-family="Helvetica,sans-Serif" font-size="10.00">class_language_model.h</text>
</a>
</g>
</g>
<!-- Node16&#45;&gt;Node17 -->
<g id="edge17" class="edge"><title>Node16&#45;&gt;Node17</title>
<path fill="none" stroke="midnightblue" d="M908.5,-45.8045C908.5,-36.9102 908.5,-26.7798 908.5,-19.7511"/>
<polygon fill="midnightblue" stroke="midnightblue" points="905,-46.083 908.5,-56.083 912,-46.083 905,-46.083"/>
</g>
<!-- Node19&#45;&gt;Node3 -->
<g id="edge24" class="edge"><title>Node19&#45;&gt;Node3</title>
<path fill="none" stroke="midnightblue" d="M361.896,-281.965C405.567,-273.246 482.068,-257.842 547.5,-244 554.059,-242.612 561.199,-241.06 567.655,-239.64"/>
<polygon fill="midnightblue" stroke="midnightblue" points="361.171,-278.541 352.049,-283.929 362.54,-285.406 361.171,-278.541"/>
</g>
<!-- Node20 -->
<g id="node20" class="node"><title>Node20</title>
<g id="a_node20"><a xlink:href="../../de/d2b/loader__factory_8h.html" target="_top" xlink:title="loader_factory.h">
<polygon fill="white" stroke="black" points="97.5,-224.5 97.5,-243.5 183.5,-243.5 183.5,-224.5 97.5,-224.5"/>
<text text-anchor="middle" x="140.5" y="-231.5" font-family="Helvetica,sans-Serif" font-size="10.00">loader_factory.h</text>
</a>
</g>
</g>
<!-- Node19&#45;&gt;Node20 -->
<g id="edge21" class="edge"><title>Node19&#45;&gt;Node20</title>
<path fill="none" stroke="midnightblue" d="M290.786,-278.631C255.629,-268.424 202.581,-253.023 169.818,-243.512"/>
<polygon fill="midnightblue" stroke="midnightblue" points="290.058,-282.065 300.637,-281.492 292.01,-275.342 290.058,-282.065"/>
</g>
<!-- Node22 -->
<g id="node22" class="node"><title>Node22</title>
<g id="a_node22"><a xlink:href="../../d2/d2b/loader_8cpp.html" target="_top" xlink:title="loader.cpp">
<polygon fill="white" stroke="black" points="17.5,-224.5 17.5,-243.5 79.5,-243.5 79.5,-224.5 17.5,-224.5"/>
<text text-anchor="middle" x="48.5" y="-231.5" font-family="Helvetica,sans-Serif" font-size="10.00">loader.cpp</text>
</a>
</g>
</g>
<!-- Node19&#45;&gt;Node22 -->
<g id="edge25" class="edge"><title>Node19&#45;&gt;Node22</title>
<path fill="none" stroke="midnightblue" d="M290.822,-282.65C244.208,-274.263 160.09,-258.817 88.5,-244 85.7119,-243.423 82.8185,-242.806 79.9208,-242.177"/>
<polygon fill="midnightblue" stroke="midnightblue" points="290.272,-286.107 300.733,-284.428 291.508,-279.217 290.272,-286.107"/>
</g>
<!-- Node19&#45;&gt;Node23 -->
<g id="edge26" class="edge"><title>Node19&#45;&gt;Node23</title>
<path fill="none" stroke="midnightblue" d="M344.54,-273.537C355.773,-263.909 369.819,-251.869 379.194,-243.834"/>
<polygon fill="midnightblue" stroke="midnightblue" points="341.937,-271.159 336.622,-280.324 346.492,-276.473 341.937,-271.159"/>
</g>
<!-- Node24 -->
<g id="node24" class="node"><title>Node24</title>
<g id="a_node24"><a xlink:href="../../da/d6b/encoder__decoder__loader_8h.html" target="_top" xlink:title="encoder_decoder_loader.h">
<polygon fill="white" stroke="black" points="202,-224.5 202,-243.5 333,-243.5 333,-224.5 202,-224.5"/>
<text text-anchor="middle" x="267.5" y="-231.5" font-family="Helvetica,sans-Serif" font-size="10.00">encoder_decoder_loader.h</text>
</a>
</g>
</g>
<!-- Node19&#45;&gt;Node24 -->
<g id="edge27" class="edge"><title>Node19&#45;&gt;Node24</title>
<path fill="none" stroke="midnightblue" d="M309.605,-273.537C299.085,-263.909 285.931,-251.869 277.152,-243.834"/>
<polygon fill="midnightblue" stroke="midnightblue" points="307.281,-276.154 317.021,-280.324 312.007,-270.99 307.281,-276.154"/>
</g>
<!-- Node20&#45;&gt;Node6 -->
<g id="edge22" class="edge"><title>Node20&#45;&gt;Node6</title>
<path fill="none" stroke="midnightblue" d="M157.681,-217.537C168.379,-207.909 181.756,-195.869 190.685,-187.834"/>
<polygon fill="midnightblue" stroke="midnightblue" points="155.232,-215.033 150.14,-224.324 159.914,-220.236 155.232,-215.033"/>
</g>
<!-- Node20&#45;&gt;Node21 -->
<g id="edge23" class="edge"><title>Node20&#45;&gt;Node21</title>
<path fill="none" stroke="midnightblue" d="M116.95,-219.177C100.021,-209.241 77.7172,-196.149 63.2447,-187.655"/>
<polygon fill="midnightblue" stroke="midnightblue" points="115.323,-222.28 125.719,-224.324 118.866,-216.243 115.323,-222.28"/>
</g>
<!-- Node25&#45;&gt;Node4 -->
<g id="edge29" class="edge"><title>Node25&#45;&gt;Node4</title>
<path fill="none" stroke="midnightblue" d="M474.376,-224.798C416.72,-212.039 312.144,-188.805 311.5,-188 294.388,-166.61 330.099,-143.726 353.77,-131.639"/>
<polygon fill="midnightblue" stroke="midnightblue" points="473.701,-228.233 484.221,-226.976 475.213,-221.398 473.701,-228.233"/>
</g>
<!-- Node25&#45;&gt;Node6 -->
<g id="edge30" class="edge"><title>Node25&#45;&gt;Node6</title>
<path fill="none" stroke="midnightblue" d="M474.298,-224.731C473.018,-224.479 471.749,-224.235 470.5,-224 368.812,-204.899 342.138,-207.367 240.5,-188 235.885,-187.121 230.991,-186.097 226.269,-185.061"/>
<polygon fill="midnightblue" stroke="midnightblue" points="473.7,-228.181 484.2,-226.765 475.109,-221.324 473.7,-228.181"/>
</g>
<!-- Node25&#45;&gt;Node9 -->
<g id="edge32" class="edge"><title>Node25&#45;&gt;Node9</title>
<path fill="none" stroke="midnightblue" d="M474.28,-224.823C473.005,-224.545 471.742,-224.27 470.5,-224 396.308,-207.86 367.481,-228.882 303.5,-188 281.35,-173.847 265.52,-145.947 258.519,-131.747"/>
<polygon fill="midnightblue" stroke="midnightblue" points="473.639,-228.266 484.156,-226.983 475.134,-221.427 473.639,-228.266"/>
</g>
<!-- Node25&#45;&gt;Node10 -->
<g id="edge33" class="edge"><title>Node25&#45;&gt;Node10</title>
<path fill="none" stroke="midnightblue" d="M518.537,-214.998C527.919,-190.997 544.153,-149.468 551.142,-131.591"/>
<polygon fill="midnightblue" stroke="midnightblue" points="515.255,-213.78 514.874,-224.368 521.775,-216.329 515.255,-213.78"/>
</g>
<!-- Node25&#45;&gt;Node11 -->
<g id="edge31" class="edge"><title>Node25&#45;&gt;Node11</title>
<path fill="none" stroke="midnightblue" d="M476.892,-221.172C447.141,-211.004 404.953,-196.585 378.418,-187.516"/>
<polygon fill="midnightblue" stroke="midnightblue" points="475.87,-224.521 486.464,-224.444 478.134,-217.898 475.87,-224.521"/>
</g>
<!-- Node26&#45;&gt;Node13 -->
<g id="edge36" class="edge"><title>Node26&#45;&gt;Node13</title>
<path fill="none" stroke="midnightblue" d="M716.734,-272.447C728.791,-258.188 747.693,-237.784 767.5,-224 790.783,-207.796 820.839,-195.21 841.897,-187.52"/>
<polygon fill="midnightblue" stroke="midnightblue" points="713.824,-270.475 710.164,-280.417 719.225,-274.927 713.824,-270.475"/>
</g>
<!-- Node26&#45;&gt;Node18 -->
<g id="edge37" class="edge"><title>Node26&#45;&gt;Node18</title>
<path fill="none" stroke="midnightblue" d="M731.311,-276.046C759.549,-262.903 804.544,-241.987 843.5,-224 871.036,-211.286 902.966,-196.643 922.702,-187.603"/>
<polygon fill="midnightblue" stroke="midnightblue" points="729.647,-272.96 722.058,-280.353 732.601,-279.306 729.647,-272.96"/>
</g>
<!-- Node29&#45;&gt;Node18 -->
<g id="edge51" class="edge"><title>Node29&#45;&gt;Node18</title>
<path fill="none" stroke="midnightblue" d="M837.613,-326.235C834.454,-312.841 832.337,-294.674 838.5,-280 856.634,-236.82 903.235,-202.831 927.038,-187.646"/>
<polygon fill="midnightblue" stroke="midnightblue" points="834.323,-327.47 840.354,-336.182 841.072,-325.611 834.323,-327.47"/>
</g>
<!-- Node30 -->
<g id="node30" class="node"><title>Node30</title>
<g id="a_node30"><a xlink:href="../../da/d47/hypo__info_8cpp.html" target="_top" xlink:title="hypo_info.cpp">
<polygon fill="white" stroke="black" points="848,-280.5 848,-299.5 925,-299.5 925,-280.5 848,-280.5"/>
<text text-anchor="middle" x="886.5" y="-287.5" font-family="Helvetica,sans-Serif" font-size="10.00">hypo_info.cpp</text>
</a>
</g>
</g>
<!-- Node29&#45;&gt;Node30 -->
<g id="edge50" class="edge"><title>Node29&#45;&gt;Node30</title>
<path fill="none" stroke="midnightblue" d="M856.922,-328.144C864.414,-318.736 873.437,-307.405 879.532,-299.751"/>
<polygon fill="midnightblue" stroke="midnightblue" points="854.092,-326.08 850.601,-336.083 859.568,-330.44 854.092,-326.08"/>
</g>
</g>
</svg>
