<?xml version="1.0" encoding="UTF-8" standalone="no"?>
<!DOCTYPE svg PUBLIC "-//W3C//DTD SVG 1.1//EN"
 "http://www.w3.org/Graphics/SVG/1.1/DTD/svg11.dtd">
<!-- Generated by graphviz version 2.38.0 (20140413.2041)
 -->
<!-- Title: hypo_info.h Pages: 1 -->
<svg width="144pt" height="84pt"
 viewBox="0.00 0.00 144.00 84.00" xmlns="http://www.w3.org/2000/svg" xmlns:xlink="http://www.w3.org/1999/xlink">
<g id="graph0" class="graph" transform="scale(1 1) rotate(0) translate(4 80)">
<title>hypo_info.h</title>
<polygon fill="white" stroke="none" points="-4,4 -4,-80 140,-80 140,4 -4,4"/>
<!-- Node1 -->
<g id="node1" class="node"><title>Node1</title>
<polygon fill="#bfbfbf" stroke="black" points="43,-56.5 43,-75.5 110,-75.5 110,-56.5 43,-56.5"/>
<text text-anchor="middle" x="76.5" y="-63.5" font-family="Helvetica,sans-Serif" font-size="10.00">hypo_info.h</text>
</g>
<!-- Node2 -->
<g id="node2" class="node"><title>Node2</title>
<g id="a_node2"><a xlink:href="../../da/d47/hypo__info_8cpp.html" target="_top" xlink:title="hypo_info.cpp">
<polygon fill="white" stroke="black" points="0,-0.5 0,-19.5 77,-19.5 77,-0.5 0,-0.5"/>
<text text-anchor="middle" x="38.5" y="-7.5" font-family="Helvetica,sans-Serif" font-size="10.00">hypo_info.cpp</text>
</a>
</g>
</g>
<!-- Node1&#45;&gt;Node2 -->
<g id="edge1" class="edge"><title>Node1&#45;&gt;Node2</title>
<path fill="none" stroke="midnightblue" d="M64.4353,-47.8554C57.8553,-38.5048 49.989,-27.3265 44.6582,-19.7511"/>
<polygon fill="midnightblue" stroke="midnightblue" points="61.6078,-49.9192 70.2251,-56.083 67.3324,-45.8907 61.6078,-49.9192"/>
</g>
<!-- Node3 -->
<g id="node3" class="node"><title>Node3</title>
<g id="a_node3"><a xlink:href="../../da/d6d/nmt_8h.html" target="_top" xlink:title="nmt.h">
<polygon fill="white" stroke="black" points="95,-0.5 95,-19.5 136,-19.5 136,-0.5 95,-0.5"/>
<text text-anchor="middle" x="115.5" y="-7.5" font-family="Helvetica,sans-Serif" font-size="10.00">nmt.h</text>
</a>
</g>
</g>
<!-- Node1&#45;&gt;Node3 -->
<g id="edge2" class="edge"><title>Node1&#45;&gt;Node3</title>
<path fill="none" stroke="midnightblue" d="M88.8822,-47.8554C95.6354,-38.5048 103.709,-27.3265 109.18,-19.7511"/>
<polygon fill="midnightblue" stroke="midnightblue" points="85.9576,-45.927 82.9401,-56.083 91.6324,-50.0254 85.9576,-45.927"/>
</g>
</g>
</svg>
