<?xml version="1.0" encoding="UTF-8" standalone="no"?>
<!DOCTYPE svg PUBLIC "-//W3C//DTD SVG 1.1//EN"
 "http://www.w3.org/Graphics/SVG/1.1/DTD/svg11.dtd">
<!-- Generated by graphviz version 2.38.0 (20140413.2041)
 -->
<!-- Title: amunmt::Histories::Histories Pages: 1 -->
<svg width="307pt" height="142pt"
 viewBox="0.00 0.00 307.00 142.00" xmlns="http://www.w3.org/2000/svg" xmlns:xlink="http://www.w3.org/1999/xlink">
<g id="graph0" class="graph" transform="scale(1 1) rotate(0) translate(4 138)">
<title>amunmt::Histories::Histories</title>
<polygon fill="white" stroke="none" points="-4,4 -4,-138 303,-138 303,4 -4,4"/>
<!-- Node1 -->
<g id="node1" class="node"><title>Node1</title>
<polygon fill="#bfbfbf" stroke="black" points="0,-52 0,-82 103,-82 103,-52 0,-52"/>
<text text-anchor="start" x="8" y="-70" font-family="Helvetica,sans-Serif" font-size="10.00">amunmt::Histories::</text>
<text text-anchor="middle" x="51.5" y="-59" font-family="Helvetica,sans-Serif" font-size="10.00">Histories</text>
</g>
<!-- Node2 -->
<g id="node2" class="node"><title>Node2</title>
<g id="a_node2"><a xlink:href="$de/ded/classamunmt_1_1Sentences.html#accf70916436eb80cd7f4df9645fd1da8" xlink:title="amunmt::Sentences::size">
<polygon fill="white" stroke="black" points="155,-114.5 155,-133.5 283,-133.5 283,-114.5 155,-114.5"/>
<text text-anchor="middle" x="219" y="-121.5" font-family="Helvetica,sans-Serif" font-size="10.00">amunmt::Sentences::size</text>
</a>
</g>
</g>
<!-- Node1&#45;&gt;Node2 -->
<g id="edge1" class="edge"><title>Node1&#45;&gt;Node2</title>
<path fill="none" stroke="midnightblue" d="M83.2013,-82.0832C99.5022,-89.681 120.036,-98.6107 139,-105 146.426,-107.502 154.348,-109.812 162.202,-111.897"/>
<polygon fill="midnightblue" stroke="midnightblue" points="161.517,-115.334 172.072,-114.414 163.247,-108.551 161.517,-115.334"/>
</g>
<!-- Node3 -->
<g id="node3" class="node"><title>Node3</title>
<g id="a_node3"><a xlink:href="$de/ded/classamunmt_1_1Sentences.html#afe33dd6de1f3dfbcff4003c32bdd1f4b" xlink:title="amunmt::Sentences::at">
<polygon fill="white" stroke="black" points="159.5,-76.5 159.5,-95.5 278.5,-95.5 278.5,-76.5 159.5,-76.5"/>
<text text-anchor="middle" x="219" y="-83.5" font-family="Helvetica,sans-Serif" font-size="10.00">amunmt::Sentences::at</text>
</a>
</g>
</g>
<!-- Node1&#45;&gt;Node3 -->
<g id="edge2" class="edge"><title>Node1&#45;&gt;Node3</title>
<path fill="none" stroke="midnightblue" d="M103.055,-72.8039C117.637,-74.4779 133.799,-76.3334 149.286,-78.1113"/>
<polygon fill="midnightblue" stroke="midnightblue" points="149.008,-81.6023 159.342,-79.2658 149.806,-74.648 149.008,-81.6023"/>
</g>
<!-- Node4 -->
<g id="node4" class="node"><title>Node4</title>
<g id="a_node4"><a xlink:href="$d7/db4/classamunmt_1_1Sentence.html#a4166fdc6aacb417cb7e21334f57a1e34" xlink:title="amunmt::Sentence::GetLineNum">
<polygon fill="white" stroke="black" points="139,-38.5 139,-57.5 299,-57.5 299,-38.5 139,-38.5"/>
<text text-anchor="middle" x="219" y="-45.5" font-family="Helvetica,sans-Serif" font-size="10.00">amunmt::Sentence::GetLineNum</text>
</a>
</g>
</g>
<!-- Node1&#45;&gt;Node4 -->
<g id="edge3" class="edge"><title>Node1&#45;&gt;Node4</title>
<path fill="none" stroke="midnightblue" d="M103.055,-61.1961C111.274,-60.2526 119.995,-59.2514 128.814,-58.2389"/>
<polygon fill="midnightblue" stroke="midnightblue" points="129.255,-61.7113 138.791,-57.0935 128.457,-54.757 129.255,-61.7113"/>
</g>
<!-- Node5 -->
<g id="node5" class="node"><title>Node5</title>
<g id="a_node5"><a xlink:href="$d7/db4/classamunmt_1_1Sentence.html#a9f6ee04c9dd03b9933d8fbee4eadc259" xlink:title="amunmt::Sentence::size">
<polygon fill="white" stroke="black" points="157.5,-0.5 157.5,-19.5 280.5,-19.5 280.5,-0.5 157.5,-0.5"/>
<text text-anchor="middle" x="219" y="-7.5" font-family="Helvetica,sans-Serif" font-size="10.00">amunmt::Sentence::size</text>
</a>
</g>
</g>
<!-- Node1&#45;&gt;Node5 -->
<g id="edge4" class="edge"><title>Node1&#45;&gt;Node5</title>
<path fill="none" stroke="midnightblue" d="M83.2013,-51.9168C99.5022,-44.319 120.036,-35.3893 139,-29 146.426,-26.4982 154.348,-24.1876 162.202,-22.1029"/>
<polygon fill="midnightblue" stroke="midnightblue" points="163.247,-25.4486 172.072,-19.5858 161.517,-18.6657 163.247,-25.4486"/>
</g>
</g>
</svg>
