<?xml version="1.0" encoding="UTF-8" standalone="no"?>
<!DOCTYPE svg PUBLIC "-//W3C//DTD SVG 1.1//EN"
 "http://www.w3.org/Graphics/SVG/1.1/DTD/svg11.dtd">
<!-- Generated by graphviz version 2.38.0 (20140413.2041)
 -->
<!-- Title: amunmt::GPU::Decoder::Embeddings&lt; Weights &gt; Pages: 1 -->
<!--zoomable 672 -->
<svg id="main" version="1.1" xmlns="http://www.w3.org/2000/svg" xmlns:xlink="http://www.w3.org/1999/xlink" xml:space="preserve" onload="init(evt)">
<style type="text/css"><![CDATA[
.edge:hover path { stroke: red; }
.edge:hover polygon { stroke: red; fill: red; }
]]></style>
<script type="text/javascript"><![CDATA[
var edges = document.getElementsByTagName('g');
if (edges && edges.length) {
  for (var i=0;i<edges.length;i++) {
    if (edges[i].id.substr(0,4)=='edge') {
      edges[i].setAttribute('class','edge');
    }
  }
}
]]></script>
        <defs>
                <circle id="rim" cx="0" cy="0" r="7"/>
                <circle id="rim2" cx="0" cy="0" r="3.5"/>
                <g id="zoomPlus">
                        <use xlink:href="#rim" fill="#404040">
                                <set attributeName="fill" to="#808080" begin="zoomplus.mouseover" end="zoomplus.mouseout"/>
                        </use>
                        <path d="M-4,0h8M0,-4v8" fill="none" stroke="white" stroke-width="1.5" pointer-events="none"/>
                </g>
                <g id="zoomMin">
                        <use xlink:href="#rim" fill="#404040">
                                <set attributeName="fill" to="#808080" begin="zoomminus.mouseover" end="zoomminus.mouseout"/>
                        </use>
                        <path d="M-4,0h8" fill="none" stroke="white" stroke-width="1.5" pointer-events="none"/>
                </g>
                <g id="dirArrow">
                        <path fill="none" stroke="white" stroke-width="1.5" d="M0,-3.0v7 M-2.5,-0.5L0,-3.0L2.5,-0.5"/>
                </g>
               <g id="resetDef">
                       <use xlink:href="#rim2" fill="#404040">
                               <set attributeName="fill" to="#808080" begin="reset.mouseover" end="reset.mouseout"/>
                       </use>
               </g>
        </defs>

<script type="text/javascript">
var viewWidth = 690;
var viewHeight = 672;
var sectionId = 'dynsection-0';
</script>
<script xlink:href="../../svgpan.js"/>
<svg id="graph" class="graph">
<g id="viewport">
<title>amunmt::GPU::Decoder::Embeddings&lt; Weights &gt;</title>
<polygon fill="white" stroke="none" points="-4,4 -4,-668 686,-668 686,4 -4,4"/>
<!-- Node1 -->
<g id="node1" class="node"><title>Node1</title>
<polygon fill="#bfbfbf" stroke="black" points="188.5,-0.5 188.5,-112.5 319.5,-112.5 319.5,-0.5 188.5,-0.5"/>
<text text-anchor="start" x="196.5" y="-100.5" font-family="Helvetica,sans-Serif" font-size="10.00">amunmt::GPU::Decoder</text>
<text text-anchor="middle" x="254" y="-89.5" font-family="Helvetica,sans-Serif" font-size="10.00">::Embeddings&lt; Weights &gt;</text>
<polyline fill="none" stroke="black" points="188.5,-82.5 319.5,-82.5 "/>
<text text-anchor="middle" x="254" y="-70.5" font-family="Helvetica,sans-Serif" font-size="10.00"> </text>
<polyline fill="none" stroke="black" points="188.5,-63.5 319.5,-63.5 "/>
<text text-anchor="start" x="196.5" y="-51.5" font-family="Helvetica,sans-Serif" font-size="10.00">+ Embeddings()</text>
<text text-anchor="start" x="196.5" y="-40.5" font-family="Helvetica,sans-Serif" font-size="10.00">+ Lookup()</text>
<text text-anchor="start" x="196.5" y="-29.5" font-family="Helvetica,sans-Serif" font-size="10.00">+ GetCols()</text>
<text text-anchor="start" x="196.5" y="-18.5" font-family="Helvetica,sans-Serif" font-size="10.00">+ GetRows()</text>
<text text-anchor="start" x="196.5" y="-7.5" font-family="Helvetica,sans-Serif" font-size="10.00">&#45; Embeddings()</text>
</g>
<!-- Node2 -->
<g id="node2" class="node"><title>Node2</title>
<g id="a_node2"><a xlink:href="../../d4/dd1/classamunmt_1_1GPU_1_1mblas_1_1Array.html" target="_top" xlink:title="{amunmt::GPU::mblas\l::Array\&lt; uint \&gt;\n|# m_size\l# m_maxSize\l# m_arr\l|+ Array()\l+ Array()\l+ Array()\l+ Array()\l+ ~Array()\l+ size()\l+ data()\l+ data()\l+ resize()\l+ reserve()\l+ clear()\l}">
<polygon fill="white" stroke="black" points="148,-193.5 148,-393.5 260,-393.5 260,-193.5 148,-193.5"/>
<text text-anchor="start" x="156" y="-381.5" font-family="Helvetica,sans-Serif" font-size="10.00">amunmt::GPU::mblas</text>
<text text-anchor="middle" x="204" y="-370.5" font-family="Helvetica,sans-Serif" font-size="10.00">::Array&lt; uint &gt;</text>
<polyline fill="none" stroke="black" points="148,-363.5 260,-363.5 "/>
<text text-anchor="start" x="156" y="-351.5" font-family="Helvetica,sans-Serif" font-size="10.00"># m_size</text>
<text text-anchor="start" x="156" y="-340.5" font-family="Helvetica,sans-Serif" font-size="10.00"># m_maxSize</text>
<text text-anchor="start" x="156" y="-329.5" font-family="Helvetica,sans-Serif" font-size="10.00"># m_arr</text>
<polyline fill="none" stroke="black" points="148,-322.5 260,-322.5 "/>
<text text-anchor="start" x="156" y="-310.5" font-family="Helvetica,sans-Serif" font-size="10.00">+ Array()</text>
<text text-anchor="start" x="156" y="-299.5" font-family="Helvetica,sans-Serif" font-size="10.00">+ Array()</text>
<text text-anchor="start" x="156" y="-288.5" font-family="Helvetica,sans-Serif" font-size="10.00">+ Array()</text>
<text text-anchor="start" x="156" y="-277.5" font-family="Helvetica,sans-Serif" font-size="10.00">+ Array()</text>
<text text-anchor="start" x="156" y="-266.5" font-family="Helvetica,sans-Serif" font-size="10.00">+ ~Array()</text>
<text text-anchor="start" x="156" y="-255.5" font-family="Helvetica,sans-Serif" font-size="10.00">+ size()</text>
<text text-anchor="start" x="156" y="-244.5" font-family="Helvetica,sans-Serif" font-size="10.00">+ data()</text>
<text text-anchor="start" x="156" y="-233.5" font-family="Helvetica,sans-Serif" font-size="10.00">+ data()</text>
<text text-anchor="start" x="156" y="-222.5" font-family="Helvetica,sans-Serif" font-size="10.00">+ resize()</text>
<text text-anchor="start" x="156" y="-211.5" font-family="Helvetica,sans-Serif" font-size="10.00">+ reserve()</text>
<text text-anchor="start" x="156" y="-200.5" font-family="Helvetica,sans-Serif" font-size="10.00">+ clear()</text>
</a>
</g>
</g>
<!-- Node2&#45;&gt;Node1 -->
<g id="edge1" class="edge"><title>Node2&#45;&gt;Node1</title>
<path fill="none" stroke="#404040" d="M225.132,-193.179C230.057,-170.034 235.186,-145.925 239.732,-124.561"/>
<polygon fill="none" stroke="#404040" points="239.766,-124.402 237.102,-117.701 242.263,-112.664 244.927,-119.365 239.766,-124.402"/>
<text text-anchor="middle" x="259.5" y="-134" font-family="Helvetica,sans-Serif" font-size="10.00"> &#45;indices_</text>
</g>
<!-- Node3 -->
<g id="node3" class="node"><title>Node3</title>
<g id="a_node3"><a xlink:href="../../dc/dce/structamunmt_1_1GPU_1_1Weights.html" target="_top" xlink:title="{amunmt::GPU::Weights\n|+ encForwardGRU_\l+ encBackwardGRU_\l+ encForwardLSTM_\l+ encBackwardLSTM_\l+ encForwardMLSTM_\l+ encBackwardMLSTM_\l+ decGru1_\l+ decGru2_\l+ decLSTM1_\l+ decLSTM2_\l+ decMLSTM1_\l+ decMLSTM2_\l+ device_\l|+ Weights()\l+ Weights()\l+ Weights()\l+ GetDevice()\l&#45; initEncForward()\l&#45; initEncBackward()\l&#45; initDec1()\l&#45; initDec2()\l}">
<polygon fill="white" stroke="black" points="278.5,-160.5 278.5,-426.5 403.5,-426.5 403.5,-160.5 278.5,-160.5"/>
<text text-anchor="middle" x="341" y="-414.5" font-family="Helvetica,sans-Serif" font-size="10.00">amunmt::GPU::Weights</text>
<polyline fill="none" stroke="black" points="278.5,-407.5 403.5,-407.5 "/>
<text text-anchor="start" x="286.5" y="-395.5" font-family="Helvetica,sans-Serif" font-size="10.00">+ encForwardGRU_</text>
<text text-anchor="start" x="286.5" y="-384.5" font-family="Helvetica,sans-Serif" font-size="10.00">+ encBackwardGRU_</text>
<text text-anchor="start" x="286.5" y="-373.5" font-family="Helvetica,sans-Serif" font-size="10.00">+ encForwardLSTM_</text>
<text text-anchor="start" x="286.5" y="-362.5" font-family="Helvetica,sans-Serif" font-size="10.00">+ encBackwardLSTM_</text>
<text text-anchor="start" x="286.5" y="-351.5" font-family="Helvetica,sans-Serif" font-size="10.00">+ encForwardMLSTM_</text>
<text text-anchor="start" x="286.5" y="-340.5" font-family="Helvetica,sans-Serif" font-size="10.00">+ encBackwardMLSTM_</text>
<text text-anchor="start" x="286.5" y="-329.5" font-family="Helvetica,sans-Serif" font-size="10.00">+ decGru1_</text>
<text text-anchor="start" x="286.5" y="-318.5" font-family="Helvetica,sans-Serif" font-size="10.00">+ decGru2_</text>
<text text-anchor="start" x="286.5" y="-307.5" font-family="Helvetica,sans-Serif" font-size="10.00">+ decLSTM1_</text>
<text text-anchor="start" x="286.5" y="-296.5" font-family="Helvetica,sans-Serif" font-size="10.00">+ decLSTM2_</text>
<text text-anchor="start" x="286.5" y="-285.5" font-family="Helvetica,sans-Serif" font-size="10.00">+ decMLSTM1_</text>
<text text-anchor="start" x="286.5" y="-274.5" font-family="Helvetica,sans-Serif" font-size="10.00">+ decMLSTM2_</text>
<text text-anchor="start" x="286.5" y="-263.5" font-family="Helvetica,sans-Serif" font-size="10.00">+ device_</text>
<polyline fill="none" stroke="black" points="278.5,-256.5 403.5,-256.5 "/>
<text text-anchor="start" x="286.5" y="-244.5" font-family="Helvetica,sans-Serif" font-size="10.00">+ Weights()</text>
<text text-anchor="start" x="286.5" y="-233.5" font-family="Helvetica,sans-Serif" font-size="10.00">+ Weights()</text>
<text text-anchor="start" x="286.5" y="-222.5" font-family="Helvetica,sans-Serif" font-size="10.00">+ Weights()</text>
<text text-anchor="start" x="286.5" y="-211.5" font-family="Helvetica,sans-Serif" font-size="10.00">+ GetDevice()</text>
<text text-anchor="start" x="286.5" y="-200.5" font-family="Helvetica,sans-Serif" font-size="10.00">&#45; initEncForward()</text>
<text text-anchor="start" x="286.5" y="-189.5" font-family="Helvetica,sans-Serif" font-size="10.00">&#45; initEncBackward()</text>
<text text-anchor="start" x="286.5" y="-178.5" font-family="Helvetica,sans-Serif" font-size="10.00">&#45; initDec1()</text>
<text text-anchor="start" x="286.5" y="-167.5" font-family="Helvetica,sans-Serif" font-size="10.00">&#45; initDec2()</text>
</a>
</g>
</g>
<!-- Node3&#45;&gt;Node1 -->
<g id="edge2" class="edge"><title>Node3&#45;&gt;Node1</title>
<path fill="none" stroke="#404040" d="M293.854,-160.174C290.217,-150.288 286.571,-140.479 283,-131 282.166,-128.786 281.312,-126.536 280.446,-124.266"/>
<polygon fill="none" stroke="#404040" points="280.348,-124.011 274.459,-119.849 276.036,-112.813 281.925,-116.975 280.348,-124.011"/>
<text text-anchor="middle" x="296.5" y="-134" font-family="Helvetica,sans-Serif" font-size="10.00"> &#45;w_</text>
</g>
<!-- Node4 -->
<g id="node4" class="node"><title>Node4</title>
<g id="a_node4"><a xlink:href="../../db/d14/structamunmt_1_1GPU_1_1Weights_1_1DecSoftmax.html" target="_top" xlink:title="{amunmt::GPU::Weights\l::DecSoftmax\n|+ W1_\l+ B1_\l+ W2_\l+ B2_\l+ W3_\l+ B3_\l+ W4_\l+ B4_\l+ Gamma_0_\l+ Gamma_1_\l+ Gamma_2_\l|+ DecSoftmax()\l+ DecSoftmax()\l}">
<polygon fill="white" stroke="black" points="0,-474.5 0,-663.5 122,-663.5 122,-474.5 0,-474.5"/>
<text text-anchor="start" x="8" y="-651.5" font-family="Helvetica,sans-Serif" font-size="10.00">amunmt::GPU::Weights</text>
<text text-anchor="middle" x="61" y="-640.5" font-family="Helvetica,sans-Serif" font-size="10.00">::DecSoftmax</text>
<polyline fill="none" stroke="black" points="0,-633.5 122,-633.5 "/>
<text text-anchor="start" x="8" y="-621.5" font-family="Helvetica,sans-Serif" font-size="10.00">+ W1_</text>
<text text-anchor="start" x="8" y="-610.5" font-family="Helvetica,sans-Serif" font-size="10.00">+ B1_</text>
<text text-anchor="start" x="8" y="-599.5" font-family="Helvetica,sans-Serif" font-size="10.00">+ W2_</text>
<text text-anchor="start" x="8" y="-588.5" font-family="Helvetica,sans-Serif" font-size="10.00">+ B2_</text>
<text text-anchor="start" x="8" y="-577.5" font-family="Helvetica,sans-Serif" font-size="10.00">+ W3_</text>
<text text-anchor="start" x="8" y="-566.5" font-family="Helvetica,sans-Serif" font-size="10.00">+ B3_</text>
<text text-anchor="start" x="8" y="-555.5" font-family="Helvetica,sans-Serif" font-size="10.00">+ W4_</text>
<text text-anchor="start" x="8" y="-544.5" font-family="Helvetica,sans-Serif" font-size="10.00">+ B4_</text>
<text text-anchor="start" x="8" y="-533.5" font-family="Helvetica,sans-Serif" font-size="10.00">+ Gamma_0_</text>
<text text-anchor="start" x="8" y="-522.5" font-family="Helvetica,sans-Serif" font-size="10.00">+ Gamma_1_</text>
<text text-anchor="start" x="8" y="-511.5" font-family="Helvetica,sans-Serif" font-size="10.00">+ Gamma_2_</text>
<polyline fill="none" stroke="black" points="0,-504.5 122,-504.5 "/>
<text text-anchor="start" x="8" y="-492.5" font-family="Helvetica,sans-Serif" font-size="10.00">+ DecSoftmax()</text>
<text text-anchor="start" x="8" y="-481.5" font-family="Helvetica,sans-Serif" font-size="10.00">+ DecSoftmax()</text>
</a>
</g>
</g>
<!-- Node4&#45;&gt;Node3 -->
<g id="edge3" class="edge"><title>Node4&#45;&gt;Node3</title>
<path fill="none" stroke="#404040" d="M122.302,-481.885C125.143,-479.133 128.045,-476.493 131,-474 152.727,-455.674 161.248,-454.604 188,-445 222.709,-432.54 239.55,-449.196 269,-427 269.101,-426.924 269.202,-426.847 269.303,-426.77"/>
<polygon fill="none" stroke="#404040" points="269.174,-426.88 271.175,-419.952 278.34,-419.135 276.339,-426.063 269.174,-426.88"/>
<text text-anchor="middle" x="221.5" y="-448" font-family="Helvetica,sans-Serif" font-size="10.00"> +decSoftmax_</text>
</g>
<!-- Node5 -->
<g id="node5" class="node"><title>Node5</title>
<g id="a_node5"><a xlink:href="../../d2/db1/structamunmt_1_1GPU_1_1Weights_1_1DecInit.html" target="_top" xlink:title="{amunmt::GPU::Weights\l::DecInit\n|+ Wi_\l+ Bi_\l+ Gamma_\l|+ DecInit()\l+ DecInit()\l}">
<polygon fill="white" stroke="black" points="140,-518.5 140,-619.5 262,-619.5 262,-518.5 140,-518.5"/>
<text text-anchor="start" x="148" y="-607.5" font-family="Helvetica,sans-Serif" font-size="10.00">amunmt::GPU::Weights</text>
<text text-anchor="middle" x="201" y="-596.5" font-family="Helvetica,sans-Serif" font-size="10.00">::DecInit</text>
<polyline fill="none" stroke="black" points="140,-589.5 262,-589.5 "/>
<text text-anchor="start" x="148" y="-577.5" font-family="Helvetica,sans-Serif" font-size="10.00">+ Wi_</text>
<text text-anchor="start" x="148" y="-566.5" font-family="Helvetica,sans-Serif" font-size="10.00">+ Bi_</text>
<text text-anchor="start" x="148" y="-555.5" font-family="Helvetica,sans-Serif" font-size="10.00">+ Gamma_</text>
<polyline fill="none" stroke="black" points="140,-548.5 262,-548.5 "/>
<text text-anchor="start" x="148" y="-536.5" font-family="Helvetica,sans-Serif" font-size="10.00">+ DecInit()</text>
<text text-anchor="start" x="148" y="-525.5" font-family="Helvetica,sans-Serif" font-size="10.00">+ DecInit()</text>
</a>
</g>
</g>
<!-- Node5&#45;&gt;Node3 -->
<g id="edge4" class="edge"><title>Node5&#45;&gt;Node3</title>
<path fill="none" stroke="#404040" d="M226.353,-518.471C239.485,-492.816 256.216,-460.132 272.81,-427.713"/>
<polygon fill="none" stroke="#404040" points="272.96,-427.421 272.133,-420.258 278.428,-416.74 279.254,-423.903 272.96,-427.421"/>
<text text-anchor="middle" x="285" y="-448" font-family="Helvetica,sans-Serif" font-size="10.00"> +decInit_</text>
</g>
<!-- Node6 -->
<g id="node6" class="node"><title>Node6</title>
<g id="a_node6"><a xlink:href="../../d9/d93/structamunmt_1_1GPU_1_1Weights_1_1DecEmbeddings.html" target="_top" xlink:title="{amunmt::GPU::Weights\l::DecEmbeddings\n|+ E_\l|+ DecEmbeddings()\l+ DecEmbeddings()\l}">
<polygon fill="white" stroke="black" points="280,-529.5 280,-608.5 402,-608.5 402,-529.5 280,-529.5"/>
<text text-anchor="start" x="288" y="-596.5" font-family="Helvetica,sans-Serif" font-size="10.00">amunmt::GPU::Weights</text>
<text text-anchor="middle" x="341" y="-585.5" font-family="Helvetica,sans-Serif" font-size="10.00">::DecEmbeddings</text>
<polyline fill="none" stroke="black" points="280,-578.5 402,-578.5 "/>
<text text-anchor="start" x="288" y="-566.5" font-family="Helvetica,sans-Serif" font-size="10.00">+ E_</text>
<polyline fill="none" stroke="black" points="280,-559.5 402,-559.5 "/>
<text text-anchor="start" x="288" y="-547.5" font-family="Helvetica,sans-Serif" font-size="10.00">+ DecEmbeddings()</text>
<text text-anchor="start" x="288" y="-536.5" font-family="Helvetica,sans-Serif" font-size="10.00">+ DecEmbeddings()</text>
</a>
</g>
</g>
<!-- Node6&#45;&gt;Node3 -->
<g id="edge5" class="edge"><title>Node6&#45;&gt;Node3</title>
<path fill="none" stroke="#404040" d="M341,-529.394C341,-505.199 341,-472.339 341,-438.869"/>
<polygon fill="none" stroke="#404040" points="341,-438.525 337,-432.525 341,-426.525 345,-432.525 341,-438.525"/>
<text text-anchor="middle" x="383.5" y="-448" font-family="Helvetica,sans-Serif" font-size="10.00"> +decEmbeddings_</text>
</g>
<!-- Node7 -->
<g id="node7" class="node"><title>Node7</title>
<g id="a_node7"><a xlink:href="../../dc/d6b/structamunmt_1_1GPU_1_1Weights_1_1EncEmbeddings.html" target="_top" xlink:title="{amunmt::GPU::Weights\l::EncEmbeddings\n|+ E_\l|+ EncEmbeddings()\l+ EncEmbeddings()\l}">
<polygon fill="white" stroke="black" points="420,-529.5 420,-608.5 542,-608.5 542,-529.5 420,-529.5"/>
<text text-anchor="start" x="428" y="-596.5" font-family="Helvetica,sans-Serif" font-size="10.00">amunmt::GPU::Weights</text>
<text text-anchor="middle" x="481" y="-585.5" font-family="Helvetica,sans-Serif" font-size="10.00">::EncEmbeddings</text>
<polyline fill="none" stroke="black" points="420,-578.5 542,-578.5 "/>
<text text-anchor="start" x="428" y="-566.5" font-family="Helvetica,sans-Serif" font-size="10.00">+ E_</text>
<polyline fill="none" stroke="black" points="420,-559.5 542,-559.5 "/>
<text text-anchor="start" x="428" y="-547.5" font-family="Helvetica,sans-Serif" font-size="10.00">+ EncEmbeddings()</text>
<text text-anchor="start" x="428" y="-536.5" font-family="Helvetica,sans-Serif" font-size="10.00">+ EncEmbeddings()</text>
</a>
</g>
</g>
<!-- Node7&#45;&gt;Node3 -->
<g id="edge6" class="edge"><title>Node7&#45;&gt;Node3</title>
<path fill="none" stroke="#404040" d="M466.621,-529.424C457.075,-504.868 443.799,-472.604 430,-445 423.691,-432.379 416.738,-419.379 409.584,-406.554"/>
<polygon fill="none" stroke="#404040" points="409.433,-406.286 403.002,-403.025 403.537,-395.834 409.969,-399.095 409.433,-406.286"/>
<text text-anchor="middle" x="477.5" y="-448" font-family="Helvetica,sans-Serif" font-size="10.00"> +encEmbeddings_</text>
</g>
<!-- Node8 -->
<g id="node8" class="node"><title>Node8</title>
<g id="a_node8"><a xlink:href="../../d3/d68/structamunmt_1_1GPU_1_1Weights_1_1DecAlignment.html" target="_top" xlink:title="{amunmt::GPU::Weights\l::DecAlignment\n|+ V_\l+ W_\l+ B_\l+ U_\l+ C_\l+ Gamma_1_\l+ Gamma_2_\l|+ DecAlignment()\l+ DecAlignment()\l}">
<polygon fill="white" stroke="black" points="560,-496.5 560,-641.5 682,-641.5 682,-496.5 560,-496.5"/>
<text text-anchor="start" x="568" y="-629.5" font-family="Helvetica,sans-Serif" font-size="10.00">amunmt::GPU::Weights</text>
<text text-anchor="middle" x="621" y="-618.5" font-family="Helvetica,sans-Serif" font-size="10.00">::DecAlignment</text>
<polyline fill="none" stroke="black" points="560,-611.5 682,-611.5 "/>
<text text-anchor="start" x="568" y="-599.5" font-family="Helvetica,sans-Serif" font-size="10.00">+ V_</text>
<text text-anchor="start" x="568" y="-588.5" font-family="Helvetica,sans-Serif" font-size="10.00">+ W_</text>
<text text-anchor="start" x="568" y="-577.5" font-family="Helvetica,sans-Serif" font-size="10.00">+ B_</text>
<text text-anchor="start" x="568" y="-566.5" font-family="Helvetica,sans-Serif" font-size="10.00">+ U_</text>
<text text-anchor="start" x="568" y="-555.5" font-family="Helvetica,sans-Serif" font-size="10.00">+ C_</text>
<text text-anchor="start" x="568" y="-544.5" font-family="Helvetica,sans-Serif" font-size="10.00">+ Gamma_1_</text>
<text text-anchor="start" x="568" y="-533.5" font-family="Helvetica,sans-Serif" font-size="10.00">+ Gamma_2_</text>
<polyline fill="none" stroke="black" points="560,-526.5 682,-526.5 "/>
<text text-anchor="start" x="568" y="-514.5" font-family="Helvetica,sans-Serif" font-size="10.00">+ DecAlignment()</text>
<text text-anchor="start" x="568" y="-503.5" font-family="Helvetica,sans-Serif" font-size="10.00">+ DecAlignment()</text>
</a>
</g>
</g>
<!-- Node8&#45;&gt;Node3 -->
<g id="edge7" class="edge"><title>Node8&#45;&gt;Node3</title>
<path fill="none" stroke="#404040" d="M568.872,-496.277C562.96,-488.664 556.928,-481.111 551,-474 510.743,-425.707 456.652,-379.806 413.449,-346.511"/>
<polygon fill="none" stroke="#404040" points="413.382,-346.459 406.186,-345.997 403.845,-339.177 411.041,-339.639 413.382,-346.459"/>
<text text-anchor="middle" x="569" y="-448" font-family="Helvetica,sans-Serif" font-size="10.00"> +decAlignment_</text>
</g>
</g>
</svg>
        <g id="navigator" transform="translate(0 0)" fill="#404254">
                <rect fill="#f2f5e9" fill-opacity="0.5" stroke="#606060" stroke-width=".5" x="0" y="0" width="60" height="60"/>
                <use id="zoomplus" xlink:href="#zoomPlus" x="17" y="9" onmousedown="handleZoom(evt,'in')"/>
                <use id="zoomminus" xlink:href="#zoomMin" x="42" y="9" onmousedown="handleZoom(evt,'out')"/>
                <use id="reset" xlink:href="#resetDef" x="30" y="36" onmousedown="handleReset()"/>
                <g id="arrowUp" xlink:href="#dirArrow" transform="translate(30 24)" onmousedown="handlePan(0,-1)">
                  <use xlink:href="#rim" fill="#404040">
                        <set attributeName="fill" to="#808080" begin="arrowUp.mouseover" end="arrowUp.mouseout"/>
                  </use>
                  <path fill="none" stroke="white" stroke-width="1.5" d="M0,-3.0v7 M-2.5,-0.5L0,-3.0L2.5,-0.5"/>
                </g>
                <g id="arrowRight" xlink:href="#dirArrow" transform="rotate(90) translate(36 -43)" onmousedown="handlePan(1,0)">
                  <use xlink:href="#rim" fill="#404040">
                        <set attributeName="fill" to="#808080" begin="arrowRight.mouseover" end="arrowRight.mouseout"/>
                  </use>
                  <path fill="none" stroke="white" stroke-width="1.5" d="M0,-3.0v7 M-2.5,-0.5L0,-3.0L2.5,-0.5"/>
                </g>
                <g id="arrowDown" xlink:href="#dirArrow" transform="rotate(180) translate(-30 -48)" onmousedown="handlePan(0,1)">
                  <use xlink:href="#rim" fill="#404040">
                        <set attributeName="fill" to="#808080" begin="arrowDown.mouseover" end="arrowDown.mouseout"/>
                  </use>
                  <path fill="none" stroke="white" stroke-width="1.5" d="M0,-3.0v7 M-2.5,-0.5L0,-3.0L2.5,-0.5"/>
                </g>
                <g id="arrowLeft" xlink:href="#dirArrow" transform="rotate(270) translate(-36 17)" onmousedown="handlePan(-1,0)">
                  <use xlink:href="#rim" fill="#404040">
                        <set attributeName="fill" to="#808080" begin="arrowLeft.mouseover" end="arrowLeft.mouseout"/>
                  </use>
                  <path fill="none" stroke="white" stroke-width="1.5" d="M0,-3.0v7 M-2.5,-0.5L0,-3.0L2.5,-0.5"/>
                </g>
        </g>
        <svg viewBox="0 0 15 15" width="100%" height="30px" preserveAspectRatio="xMaxYMin meet">
         <g id="arrow_out" transform="scale(0.3 0.3)">
          <a xlink:href="classamunmt_1_1GPU_1_1Decoder_1_1Embeddings__coll__graph_org.svg" target="_base">
           <rect id="button" ry="5" rx="5" y="6" x="6" height="38" width="38"
                fill="#f2f5e9" fill-opacity="0.5" stroke="#606060" stroke-width="1.0"/>
           <path id="arrow"
             d="M 11.500037,31.436501 C 11.940474,20.09759 22.043105,11.32322 32.158766,21.979434 L 37.068811,17.246167 C 37.068811,17.246167 37.088388,32 37.088388,32 L 22.160133,31.978069 C 22.160133,31.978069 26.997745,27.140456 26.997745,27.140456 C 18.528582,18.264221 13.291696,25.230495 11.500037,31.436501 z"
             style="fill:#404040;"/>
          </a>
         </g>
        </svg>
</svg>
