<?xml version="1.0" encoding="UTF-8" standalone="no"?>
<!DOCTYPE svg PUBLIC "-//W3C//DTD SVG 1.1//EN"
 "http://www.w3.org/Graphics/SVG/1.1/DTD/svg11.dtd">
<!-- Generated by graphviz version 2.38.0 (20140413.2041)
 -->
<!-- Title: marian::data::MNIST::MNIST Pages: 1 -->
<!--zoomable 112 -->
<svg id="main" version="1.1" xmlns="http://www.w3.org/2000/svg" xmlns:xlink="http://www.w3.org/1999/xlink" xml:space="preserve" onload="init(evt)">
<style type="text/css"><![CDATA[
.edge:hover path { stroke: red; }
.edge:hover polygon { stroke: red; fill: red; }
]]></style>
<script type="text/javascript"><![CDATA[
var edges = document.getElementsByTagName('g');
if (edges && edges.length) {
  for (var i=0;i<edges.length;i++) {
    if (edges[i].id.substr(0,4)=='edge') {
      edges[i].setAttribute('class','edge');
    }
  }
}
]]></script>
        <defs>
                <circle id="rim" cx="0" cy="0" r="7"/>
                <circle id="rim2" cx="0" cy="0" r="3.5"/>
                <g id="zoomPlus">
                        <use xlink:href="#rim" fill="#404040">
                                <set attributeName="fill" to="#808080" begin="zoomplus.mouseover" end="zoomplus.mouseout"/>
                        </use>
                        <path d="M-4,0h8M0,-4v8" fill="none" stroke="white" stroke-width="1.5" pointer-events="none"/>
                </g>
                <g id="zoomMin">
                        <use xlink:href="#rim" fill="#404040">
                                <set attributeName="fill" to="#808080" begin="zoomminus.mouseover" end="zoomminus.mouseout"/>
                        </use>
                        <path d="M-4,0h8" fill="none" stroke="white" stroke-width="1.5" pointer-events="none"/>
                </g>
                <g id="dirArrow">
                        <path fill="none" stroke="white" stroke-width="1.5" d="M0,-3.0v7 M-2.5,-0.5L0,-3.0L2.5,-0.5"/>
                </g>
               <g id="resetDef">
                       <use xlink:href="#rim2" fill="#404040">
                               <set attributeName="fill" to="#808080" begin="reset.mouseover" end="reset.mouseout"/>
                       </use>
               </g>
        </defs>

<script type="text/javascript">
var viewWidth = 551;
var viewHeight = 112;
var sectionId = 'dynsection-2';
</script>
<script xlink:href="../../svgpan.js"/>
<svg id="graph" class="graph">
<g id="viewport">
<title>marian::data::MNIST::MNIST</title>
<polygon fill="white" stroke="none" points="-4,4 -4,-108 547,-108 547,4 -4,4"/>
<!-- Node1 -->
<g id="node1" class="node"><title>Node1</title>
<polygon fill="#bfbfbf" stroke="black" points="0,-48.5 0,-78.5 108,-78.5 108,-48.5 0,-48.5"/>
<text text-anchor="start" x="8" y="-66.5" font-family="Helvetica,sans-Serif" font-size="10.00">marian::data::MNIST</text>
<text text-anchor="middle" x="54" y="-55.5" font-family="Helvetica,sans-Serif" font-size="10.00">::MNIST</text>
</g>
<!-- Node2 -->
<g id="node2" class="node"><title>Node2</title>
<g id="a_node2"><a xlink:href="../../d2/d2b/classmarian_1_1data_1_1Dataset.html#a6db460dbb984620b13700ac6069f9925" target="_top" xlink:title="marian::data::Dataset\l::Dataset">
<polygon fill="white" stroke="black" points="144,-73.5 144,-103.5 255,-103.5 255,-73.5 144,-73.5"/>
<text text-anchor="start" x="152" y="-91.5" font-family="Helvetica,sans-Serif" font-size="10.00">marian::data::Dataset</text>
<text text-anchor="middle" x="199.5" y="-80.5" font-family="Helvetica,sans-Serif" font-size="10.00">::Dataset</text>
</a>
</g>
</g>
<!-- Node1&#45;&gt;Node2 -->
<g id="edge1" class="edge"><title>Node1&#45;&gt;Node2</title>
<path fill="none" stroke="midnightblue" d="M108.026,-72.738C116.405,-74.1977 125.149,-75.7211 133.757,-77.2208"/>
<polygon fill="midnightblue" stroke="midnightblue" points="133.318,-80.6969 143.771,-78.9653 134.52,-73.8008 133.318,-80.6969"/>
</g>
<!-- Node3 -->
<g id="node3" class="node"><title>Node3</title>
<g id="a_node3"><a xlink:href="../../d7/d07/classmarian_1_1data_1_1MNIST.html#a5e3526d45ba1bac24092e77e293a7173" target="_top" xlink:title="marian::data::MNIST\l::loadData">
<polygon fill="white" stroke="black" points="145.5,-24.5 145.5,-54.5 253.5,-54.5 253.5,-24.5 145.5,-24.5"/>
<text text-anchor="start" x="153.5" y="-42.5" font-family="Helvetica,sans-Serif" font-size="10.00">marian::data::MNIST</text>
<text text-anchor="middle" x="199.5" y="-31.5" font-family="Helvetica,sans-Serif" font-size="10.00">::loadData</text>
</a>
</g>
</g>
<!-- Node1&#45;&gt;Node3 -->
<g id="edge2" class="edge"><title>Node1&#45;&gt;Node3</title>
<path fill="none" stroke="midnightblue" d="M108.026,-54.6315C116.844,-53.1568 126.067,-51.6143 135.11,-50.1018"/>
<polygon fill="midnightblue" stroke="midnightblue" points="135.927,-53.5139 145.212,-48.4122 134.772,-46.6098 135.927,-53.5139"/>
</g>
<!-- Node4 -->
<g id="node4" class="node"><title>Node4</title>
<g id="a_node4"><a xlink:href="../../d7/d07/classmarian_1_1data_1_1MNIST.html#a632c9c300ce5389d27ce97e326571137" target="_top" xlink:title="marian::data::MNIST\l::ReadImages">
<polygon fill="white" stroke="black" points="291,-49.5 291,-79.5 399,-79.5 399,-49.5 291,-49.5"/>
<text text-anchor="start" x="299" y="-67.5" font-family="Helvetica,sans-Serif" font-size="10.00">marian::data::MNIST</text>
<text text-anchor="middle" x="345" y="-56.5" font-family="Helvetica,sans-Serif" font-size="10.00">::ReadImages</text>
</a>
</g>
</g>
<!-- Node3&#45;&gt;Node4 -->
<g id="edge3" class="edge"><title>Node3&#45;&gt;Node4</title>
<path fill="none" stroke="midnightblue" d="M253.526,-48.738C262.344,-50.2742 271.567,-51.8809 280.61,-53.4564"/>
<polygon fill="midnightblue" stroke="midnightblue" points="280.26,-56.9481 290.712,-55.2165 281.462,-50.052 280.26,-56.9481"/>
</g>
<!-- Node6 -->
<g id="node6" class="node"><title>Node6</title>
<g id="a_node6"><a xlink:href="../../d7/d07/classmarian_1_1data_1_1MNIST.html#a81c2e2ce98c2b3cfbe3f772900a74c62" target="_top" xlink:title="marian::data::MNIST\l::ReadLabels">
<polygon fill="white" stroke="black" points="291,-0.5 291,-30.5 399,-30.5 399,-0.5 291,-0.5"/>
<text text-anchor="start" x="299" y="-18.5" font-family="Helvetica,sans-Serif" font-size="10.00">marian::data::MNIST</text>
<text text-anchor="middle" x="345" y="-7.5" font-family="Helvetica,sans-Serif" font-size="10.00">::ReadLabels</text>
</a>
</g>
</g>
<!-- Node3&#45;&gt;Node6 -->
<g id="edge5" class="edge"><title>Node3&#45;&gt;Node6</title>
<path fill="none" stroke="midnightblue" d="M253.526,-30.6315C262.344,-29.1568 271.567,-27.6143 280.61,-26.1018"/>
<polygon fill="midnightblue" stroke="midnightblue" points="281.427,-29.5139 290.712,-24.4122 280.272,-22.6098 281.427,-29.5139"/>
</g>
<!-- Node5 -->
<g id="node5" class="node"><title>Node5</title>
<g id="a_node5"><a xlink:href="../../d7/d07/classmarian_1_1data_1_1MNIST.html#a631d1fd994e50776b4daf8c9853c0f88" target="_top" xlink:title="marian::data::MNIST\l::reverseInt">
<polygon fill="white" stroke="black" points="435,-24.5 435,-54.5 543,-54.5 543,-24.5 435,-24.5"/>
<text text-anchor="start" x="443" y="-42.5" font-family="Helvetica,sans-Serif" font-size="10.00">marian::data::MNIST</text>
<text text-anchor="middle" x="489" y="-31.5" font-family="Helvetica,sans-Serif" font-size="10.00">::reverseInt</text>
</a>
</g>
</g>
<!-- Node4&#45;&gt;Node5 -->
<g id="edge4" class="edge"><title>Node4&#45;&gt;Node5</title>
<path fill="none" stroke="midnightblue" d="M399.28,-55.1198C407.651,-53.646 416.374,-52.1103 424.94,-50.6021"/>
<polygon fill="midnightblue" stroke="midnightblue" points="425.652,-54.0306 434.894,-48.8496 424.439,-47.1366 425.652,-54.0306"/>
</g>
<!-- Node6&#45;&gt;Node5 -->
<g id="edge6" class="edge"><title>Node6&#45;&gt;Node5</title>
<path fill="none" stroke="midnightblue" d="M399.28,-24.505C407.651,-25.9199 416.374,-27.3941 424.94,-28.842"/>
<polygon fill="midnightblue" stroke="midnightblue" points="424.451,-32.3088 434.894,-30.5244 425.617,-25.4067 424.451,-32.3088"/>
</g>
</g>
</svg>
        <g id="navigator" transform="translate(0 0)" fill="#404254">
                <rect fill="#f2f5e9" fill-opacity="0.5" stroke="#606060" stroke-width=".5" x="0" y="0" width="60" height="60"/>
                <use id="zoomplus" xlink:href="#zoomPlus" x="17" y="9" onmousedown="handleZoom(evt,'in')"/>
                <use id="zoomminus" xlink:href="#zoomMin" x="42" y="9" onmousedown="handleZoom(evt,'out')"/>
                <use id="reset" xlink:href="#resetDef" x="30" y="36" onmousedown="handleReset()"/>
                <g id="arrowUp" xlink:href="#dirArrow" transform="translate(30 24)" onmousedown="handlePan(0,-1)">
                  <use xlink:href="#rim" fill="#404040">
                        <set attributeName="fill" to="#808080" begin="arrowUp.mouseover" end="arrowUp.mouseout"/>
                  </use>
                  <path fill="none" stroke="white" stroke-width="1.5" d="M0,-3.0v7 M-2.5,-0.5L0,-3.0L2.5,-0.5"/>
                </g>
                <g id="arrowRight" xlink:href="#dirArrow" transform="rotate(90) translate(36 -43)" onmousedown="handlePan(1,0)">
                  <use xlink:href="#rim" fill="#404040">
                        <set attributeName="fill" to="#808080" begin="arrowRight.mouseover" end="arrowRight.mouseout"/>
                  </use>
                  <path fill="none" stroke="white" stroke-width="1.5" d="M0,-3.0v7 M-2.5,-0.5L0,-3.0L2.5,-0.5"/>
                </g>
                <g id="arrowDown" xlink:href="#dirArrow" transform="rotate(180) translate(-30 -48)" onmousedown="handlePan(0,1)">
                  <use xlink:href="#rim" fill="#404040">
                        <set attributeName="fill" to="#808080" begin="arrowDown.mouseover" end="arrowDown.mouseout"/>
                  </use>
                  <path fill="none" stroke="white" stroke-width="1.5" d="M0,-3.0v7 M-2.5,-0.5L0,-3.0L2.5,-0.5"/>
                </g>
                <g id="arrowLeft" xlink:href="#dirArrow" transform="rotate(270) translate(-36 17)" onmousedown="handlePan(-1,0)">
                  <use xlink:href="#rim" fill="#404040">
                        <set attributeName="fill" to="#808080" begin="arrowLeft.mouseover" end="arrowLeft.mouseout"/>
                  </use>
                  <path fill="none" stroke="white" stroke-width="1.5" d="M0,-3.0v7 M-2.5,-0.5L0,-3.0L2.5,-0.5"/>
                </g>
        </g>
        <svg viewBox="0 0 15 15" width="100%" height="30px" preserveAspectRatio="xMaxYMin meet">
         <g id="arrow_out" transform="scale(0.3 0.3)">
          <a xlink:href="classmarian_1_1data_1_1MNIST_ac7ec3b31cd427f5dab9b5f2e207c3dd7_cgraph_org.svg" target="_base">
           <rect id="button" ry="5" rx="5" y="6" x="6" height="38" width="38"
                fill="#f2f5e9" fill-opacity="0.5" stroke="#606060" stroke-width="1.0"/>
           <path id="arrow"
             d="M 11.500037,31.436501 C 11.940474,20.09759 22.043105,11.32322 32.158766,21.979434 L 37.068811,17.246167 C 37.068811,17.246167 37.088388,32 37.088388,32 L 22.160133,31.978069 C 22.160133,31.978069 26.997745,27.140456 26.997745,27.140456 C 18.528582,18.264221 13.291696,25.230495 11.500037,31.436501 z"
             style="fill:#404040;"/>
          </a>
         </g>
        </svg>
</svg>
