<?xml version="1.0" encoding="UTF-8" standalone="no"?>
<!DOCTYPE svg PUBLIC "-//W3C//DTD SVG 1.1//EN"
 "http://www.w3.org/Graphics/SVG/1.1/DTD/svg11.dtd">
<!-- Generated by graphviz version 2.38.0 (20140413.2041)
 -->
<!-- Title: amunmt::GPU::mblas::MatrixWrapper::operator() Pages: 1 -->
<svg width="467pt" height="137pt"
 viewBox="0.00 0.00 467.00 137.00" xmlns="http://www.w3.org/2000/svg" xmlns:xlink="http://www.w3.org/1999/xlink">
<g id="graph0" class="graph" transform="scale(1 1) rotate(0) translate(4 133)">
<title>amunmt::GPU::mblas::MatrixWrapper::operator()</title>
<polygon fill="white" stroke="none" points="-4,4 -4,-133 463,-133 463,4 -4,4"/>
<!-- Node1 -->
<g id="node1" class="node"><title>Node1</title>
<polygon fill="#bfbfbf" stroke="black" points="0,-24.5 0,-54.5 134,-54.5 134,-24.5 0,-24.5"/>
<text text-anchor="start" x="8" y="-42.5" font-family="Helvetica,sans-Serif" font-size="10.00">amunmt::GPU::mblas</text>
<text text-anchor="middle" x="67" y="-31.5" font-family="Helvetica,sans-Serif" font-size="10.00">::MatrixWrapper::operator()</text>
</g>
<!-- Node2 -->
<g id="node2" class="node"><title>Node2</title>
<g id="a_node2"><a xlink:href="../../d7/d34/classamunmt_1_1GPU_1_1mblas_1_1MatrixWrapper.html#a09c3749fd756b2b72de447ef5ee66cfa" target="_top" xlink:title="amunmt::GPU::mblas\l::MatrixWrapper::indices2Id">
<polygon fill="white" stroke="black" points="170,-49.5 170,-79.5 307,-79.5 307,-49.5 170,-49.5"/>
<text text-anchor="start" x="178" y="-67.5" font-family="Helvetica,sans-Serif" font-size="10.00">amunmt::GPU::mblas</text>
<text text-anchor="middle" x="238.5" y="-56.5" font-family="Helvetica,sans-Serif" font-size="10.00">::MatrixWrapper::indices2Id</text>
</a>
</g>
</g>
<!-- Node1&#45;&gt;Node2 -->
<g id="edge1" class="edge"><title>Node1&#45;&gt;Node2</title>
<path fill="none" stroke="midnightblue" d="M134.018,-49.2372C142.503,-50.4887 151.252,-51.7791 159.901,-53.0547"/>
<polygon fill="midnightblue" stroke="midnightblue" points="159.582,-56.5455 169.986,-54.5422 160.604,-49.6204 159.582,-56.5455"/>
</g>
<!-- Node6 -->
<g id="node6" class="node"><title>Node6</title>
<g id="a_node6"><a xlink:href="../../d7/d34/classamunmt_1_1GPU_1_1mblas_1_1MatrixWrapper.html#a8bac878980ee8e229281d2eb267c0c1b" target="_top" xlink:title="amunmt::GPU::mblas\l::MatrixWrapper::data">
<polygon fill="white" stroke="black" points="182.5,-0.5 182.5,-30.5 294.5,-30.5 294.5,-0.5 182.5,-0.5"/>
<text text-anchor="start" x="190.5" y="-18.5" font-family="Helvetica,sans-Serif" font-size="10.00">amunmt::GPU::mblas</text>
<text text-anchor="middle" x="238.5" y="-7.5" font-family="Helvetica,sans-Serif" font-size="10.00">::MatrixWrapper::data</text>
</a>
</g>
</g>
<!-- Node1&#45;&gt;Node6 -->
<g id="edge5" class="edge"><title>Node1&#45;&gt;Node6</title>
<path fill="none" stroke="midnightblue" d="M134.018,-30.1523C146.634,-28.366 159.833,-26.4971 172.419,-24.715"/>
<polygon fill="midnightblue" stroke="midnightblue" points="172.948,-28.1751 182.358,-23.3077 171.966,-21.2443 172.948,-28.1751"/>
</g>
<!-- Node3 -->
<g id="node3" class="node"><title>Node3</title>
<g id="a_node3"><a xlink:href="../../d7/d34/classamunmt_1_1GPU_1_1mblas_1_1MatrixWrapper.html#a8846d6edb1c807c90f9aa23f4193a665" target="_top" xlink:title="amunmt::GPU::mblas\l::MatrixWrapper::dim">
<polygon fill="white" stroke="black" points="345,-98.5 345,-128.5 457,-128.5 457,-98.5 345,-98.5"/>
<text text-anchor="start" x="353" y="-116.5" font-family="Helvetica,sans-Serif" font-size="10.00">amunmt::GPU::mblas</text>
<text text-anchor="middle" x="401" y="-105.5" font-family="Helvetica,sans-Serif" font-size="10.00">::MatrixWrapper::dim</text>
</a>
</g>
</g>
<!-- Node2&#45;&gt;Node3 -->
<g id="edge2" class="edge"><title>Node2&#45;&gt;Node3</title>
<path fill="none" stroke="midnightblue" d="M288.965,-79.6014C305.365,-84.6083 323.787,-90.2324 340.841,-95.439"/>
<polygon fill="midnightblue" stroke="midnightblue" points="340.112,-98.8759 350.698,-98.4484 342.156,-92.181 340.112,-98.8759"/>
</g>
<!-- Node4 -->
<g id="node4" class="node"><title>Node4</title>
<g id="a_node4"><a xlink:href="../../d7/d34/classamunmt_1_1GPU_1_1mblas_1_1MatrixWrapper.html#a8e0bd961034d3596ec4a93dfaf58c5a7" target="_top" xlink:title="amunmt::GPU::mblas\l::MatrixWrapper::stride">
<polygon fill="white" stroke="black" points="343,-49.5 343,-79.5 459,-79.5 459,-49.5 343,-49.5"/>
<text text-anchor="start" x="351" y="-67.5" font-family="Helvetica,sans-Serif" font-size="10.00">amunmt::GPU::mblas</text>
<text text-anchor="middle" x="401" y="-56.5" font-family="Helvetica,sans-Serif" font-size="10.00">::MatrixWrapper::stride</text>
</a>
</g>
</g>
<!-- Node2&#45;&gt;Node4 -->
<g id="edge3" class="edge"><title>Node2&#45;&gt;Node4</title>
<path fill="none" stroke="midnightblue" d="M307.101,-64.5C315.567,-64.5 324.226,-64.5 332.688,-64.5"/>
<polygon fill="midnightblue" stroke="midnightblue" points="332.885,-68.0001 342.885,-64.5 332.885,-61.0001 332.885,-68.0001"/>
</g>
<!-- Node5 -->
<g id="node5" class="node"><title>Node5</title>
<g id="a_node5"><a xlink:href="../../d7/d34/classamunmt_1_1GPU_1_1mblas_1_1MatrixWrapper.html#aed1483dbf0148749d04eea433582e802" target="_top" xlink:title="amunmt::GPU::mblas\l::MatrixWrapper::size">
<polygon fill="white" stroke="black" points="345,-0.5 345,-30.5 457,-30.5 457,-0.5 345,-0.5"/>
<text text-anchor="start" x="353" y="-18.5" font-family="Helvetica,sans-Serif" font-size="10.00">amunmt::GPU::mblas</text>
<text text-anchor="middle" x="401" y="-7.5" font-family="Helvetica,sans-Serif" font-size="10.00">::MatrixWrapper::size</text>
</a>
</g>
</g>
<!-- Node2&#45;&gt;Node5 -->
<g id="edge4" class="edge"><title>Node2&#45;&gt;Node5</title>
<path fill="none" stroke="midnightblue" d="M288.965,-49.3986C305.365,-44.3917 323.787,-38.7676 340.841,-33.561"/>
<polygon fill="midnightblue" stroke="midnightblue" points="342.156,-36.819 350.698,-30.5516 340.112,-30.1241 342.156,-36.819"/>
</g>
</g>
</svg>
