<?xml version="1.0" encoding="UTF-8" standalone="no"?>
<!DOCTYPE svg PUBLIC "-//W3C//DTD SVG 1.1//EN"
 "http://www.w3.org/Graphics/SVG/1.1/DTD/svg11.dtd">
<!-- Generated by graphviz version 2.38.0 (20140413.2041)
 -->
<!-- Title: marian::rnn::Tanh::Tanh Pages: 1 -->
<svg width="265pt" height="127pt"
 viewBox="0.00 0.00 265.00 127.00" xmlns="http://www.w3.org/2000/svg" xmlns:xlink="http://www.w3.org/1999/xlink">
<g id="graph0" class="graph" transform="scale(1 1) rotate(0) translate(4 123)">
<title>marian::rnn::Tanh::Tanh</title>
<polygon fill="white" stroke="none" points="-4,4 -4,-123 261,-123 261,4 -4,4"/>
<!-- Node1 -->
<g id="node1" class="node"><title>Node1</title>
<polygon fill="#bfbfbf" stroke="black" points="0,-50 0,-69 121,-69 121,-50 0,-50"/>
<text text-anchor="middle" x="60.5" y="-57" font-family="Helvetica,sans-Serif" font-size="10.00">marian::rnn::Tanh::Tanh</text>
</g>
<!-- Node2 -->
<g id="node2" class="node"><title>Node2</title>
<g id="a_node2"><a xlink:href="../../d4/dec/namespacemarian_1_1inits.html#a8838c47537f434b855491cd3ed97ccd1" target="_top" xlink:title="marian::inits::glorot\l_uniform">
<polygon fill="white" stroke="black" points="157,-88.5 157,-118.5 257,-118.5 257,-88.5 157,-88.5"/>
<text text-anchor="start" x="165" y="-106.5" font-family="Helvetica,sans-Serif" font-size="10.00">marian::inits::glorot</text>
<text text-anchor="middle" x="207" y="-95.5" font-family="Helvetica,sans-Serif" font-size="10.00">_uniform</text>
</a>
</g>
</g>
<!-- Node1&#45;&gt;Node2 -->
<g id="edge1" class="edge"><title>Node1&#45;&gt;Node2</title>
<path fill="none" stroke="midnightblue" d="M92.8543,-69.0473C108.758,-73.8901 128.604,-79.9331 147.214,-85.5999"/>
<polygon fill="midnightblue" stroke="midnightblue" points="146.22,-88.9558 156.806,-88.5206 148.26,-82.2594 146.22,-88.9558"/>
</g>
<!-- Node3 -->
<g id="node3" class="node"><title>Node3</title>
<g id="a_node3"><a xlink:href="../../d4/dec/namespacemarian_1_1inits.html#a1bd34fd256e3df7bb1e27955a7f2b359" target="_top" xlink:title="marian::inits::zeros">
<polygon fill="white" stroke="black" points="157,-50 157,-69 257,-69 257,-50 157,-50"/>
<text text-anchor="middle" x="207" y="-57" font-family="Helvetica,sans-Serif" font-size="10.00">marian::inits::zeros</text>
</a>
</g>
</g>
<!-- Node1&#45;&gt;Node3 -->
<g id="edge2" class="edge"><title>Node1&#45;&gt;Node3</title>
<path fill="none" stroke="midnightblue" d="M121.108,-59.5C129.509,-59.5 138.145,-59.5 146.544,-59.5"/>
<polygon fill="midnightblue" stroke="midnightblue" points="146.638,-63.0001 156.638,-59.5 146.638,-56.0001 146.638,-63.0001"/>
</g>
<!-- Node4 -->
<g id="node4" class="node"><title>Node4</title>
<g id="a_node4"><a xlink:href="../../d4/dec/namespacemarian_1_1inits.html#a03723a199ab72a38a13b2b8644e8e1c2" target="_top" xlink:title="marian::inits::from\l_value">
<polygon fill="white" stroke="black" points="159.5,-0.5 159.5,-30.5 254.5,-30.5 254.5,-0.5 159.5,-0.5"/>
<text text-anchor="start" x="167.5" y="-18.5" font-family="Helvetica,sans-Serif" font-size="10.00">marian::inits::from</text>
<text text-anchor="middle" x="207" y="-7.5" font-family="Helvetica,sans-Serif" font-size="10.00">_value</text>
</a>
</g>
</g>
<!-- Node1&#45;&gt;Node4 -->
<g id="edge3" class="edge"><title>Node1&#45;&gt;Node4</title>
<path fill="none" stroke="midnightblue" d="M92.8543,-49.9527C109.47,-44.8931 130.389,-38.5234 149.706,-32.6414"/>
<polygon fill="midnightblue" stroke="midnightblue" points="150.784,-35.9718 159.331,-29.7105 148.745,-29.2753 150.784,-35.9718"/>
</g>
</g>
</svg>
