<?xml version="1.0" encoding="UTF-8" standalone="no"?>
<!DOCTYPE svg PUBLIC "-//W3C//DTD SVG 1.1//EN"
 "http://www.w3.org/Graphics/SVG/1.1/DTD/svg11.dtd">
<!-- Generated by graphviz version 2.38.0 (20140413.2041)
 -->
<!-- Title: marian::rnn::Tanh::applyInput Pages: 1 -->
<svg width="400pt" height="180pt"
 viewBox="0.00 0.00 400.00 180.00" xmlns="http://www.w3.org/2000/svg" xmlns:xlink="http://www.w3.org/1999/xlink">
<g id="graph0" class="graph" transform="scale(1 1) rotate(0) translate(4 176)">
<title>marian::rnn::Tanh::applyInput</title>
<polygon fill="white" stroke="none" points="-4,4 -4,-176 396,-176 396,4 -4,4"/>
<!-- Node1 -->
<g id="node1" class="node"><title>Node1</title>
<polygon fill="#bfbfbf" stroke="black" points="0,-52 0,-82 99,-82 99,-52 0,-52"/>
<text text-anchor="start" x="8" y="-70" font-family="Helvetica,sans-Serif" font-size="10.00">marian::rnn::Tanh::</text>
<text text-anchor="middle" x="49.5" y="-59" font-family="Helvetica,sans-Serif" font-size="10.00">applyInput</text>
</g>
<!-- Node2 -->
<g id="node2" class="node"><title>Node2</title>
<g id="a_node2"><a xlink:href="../../da/d22/namespacemarian.html#a2791a2c8f79a938f5cb22ae613680675" target="_top" xlink:title="marian::concatenate">
<polygon fill="white" stroke="black" points="135,-114.5 135,-133.5 240,-133.5 240,-114.5 135,-114.5"/>
<text text-anchor="middle" x="187.5" y="-121.5" font-family="Helvetica,sans-Serif" font-size="10.00">marian::concatenate</text>
</a>
</g>
</g>
<!-- Node1&#45;&gt;Node2 -->
<g id="edge1" class="edge"><title>Node1&#45;&gt;Node2</title>
<path fill="none" stroke="midnightblue" d="M82.7752,-82.1454C98.4321,-89.3301 117.579,-97.8793 135,-105 139.838,-106.978 144.967,-108.98 150.04,-110.905"/>
<polygon fill="midnightblue" stroke="midnightblue" points="149.042,-114.269 159.635,-114.487 151.491,-107.711 149.042,-114.269"/>
</g>
<!-- Node3 -->
<g id="node3" class="node"><title>Node3</title>
<g id="a_node3"><a xlink:href="../../da/d22/namespacemarian.html#a268400392f22176821c7c4a36733b178" target="_top" xlink:title="marian::dropout">
<polygon fill="white" stroke="black" points="145.5,-76.5 145.5,-95.5 229.5,-95.5 229.5,-76.5 145.5,-76.5"/>
<text text-anchor="middle" x="187.5" y="-83.5" font-family="Helvetica,sans-Serif" font-size="10.00">marian::dropout</text>
</a>
</g>
</g>
<!-- Node1&#45;&gt;Node3 -->
<g id="edge2" class="edge"><title>Node1&#45;&gt;Node3</title>
<path fill="none" stroke="midnightblue" d="M99.215,-73.8058C110.887,-75.4364 123.386,-77.1826 135.172,-78.8292"/>
<polygon fill="midnightblue" stroke="midnightblue" points="134.92,-82.3278 145.308,-80.2452 135.888,-75.3951 134.92,-82.3278"/>
</g>
<!-- Node9 -->
<g id="node9" class="node"><title>Node9</title>
<g id="a_node9"><a xlink:href="../../da/d22/namespacemarian.html#ad7fbf1ba8e2e04ffdc7d5e4841b5e691" target="_top" xlink:title="marian::dot">
<polygon fill="white" stroke="black" points="155,-38.5 155,-57.5 220,-57.5 220,-38.5 155,-38.5"/>
<text text-anchor="middle" x="187.5" y="-45.5" font-family="Helvetica,sans-Serif" font-size="10.00">marian::dot</text>
</a>
</g>
</g>
<!-- Node1&#45;&gt;Node9 -->
<g id="edge8" class="edge"><title>Node1&#45;&gt;Node9</title>
<path fill="none" stroke="midnightblue" d="M99.215,-60.1942C114.057,-58.1207 130.236,-55.8604 144.587,-53.8555"/>
<polygon fill="midnightblue" stroke="midnightblue" points="145.25,-57.297 154.669,-52.447 144.281,-50.3643 145.25,-57.297"/>
</g>
<!-- Node10 -->
<g id="node10" class="node"><title>Node10</title>
<g id="a_node10"><a xlink:href="../../da/d22/namespacemarian.html#a6202278a9da8ca8a281a6a96e75082f6" target="_top" xlink:title="marian::layer_norm">
<polygon fill="white" stroke="black" points="137.5,-0.5 137.5,-19.5 237.5,-19.5 237.5,-0.5 137.5,-0.5"/>
<text text-anchor="middle" x="187.5" y="-7.5" font-family="Helvetica,sans-Serif" font-size="10.00">marian::layer_norm</text>
</a>
</g>
</g>
<!-- Node1&#45;&gt;Node10 -->
<g id="edge9" class="edge"><title>Node1&#45;&gt;Node10</title>
<path fill="none" stroke="midnightblue" d="M82.7752,-51.8546C98.4321,-44.6699 117.579,-36.1207 135,-29 139.838,-27.0224 144.967,-25.0202 150.04,-23.0946"/>
<polygon fill="midnightblue" stroke="midnightblue" points="151.491,-26.289 159.635,-19.5126 149.042,-19.731 151.491,-26.289"/>
</g>
<!-- Node4 -->
<g id="node4" class="node"><title>Node4</title>
<g id="a_node4"><a xlink:href="../../d4/d04/namespacemarian_1_1keywords.html#a74d7a2502faafdd421ef3dff629e284f" target="_top" xlink:title="marian::keywords::Get">
<polygon fill="white" stroke="black" points="276,-152.5 276,-171.5 392,-171.5 392,-152.5 276,-152.5"/>
<text text-anchor="middle" x="334" y="-159.5" font-family="Helvetica,sans-Serif" font-size="10.00">marian::keywords::Get</text>
</a>
</g>
</g>
<!-- Node3&#45;&gt;Node4 -->
<g id="edge3" class="edge"><title>Node3&#45;&gt;Node4</title>
<path fill="none" stroke="midnightblue" d="M221.463,-95.5908C227.874,-98.1552 234.351,-101.275 240,-105 259.422,-117.806 256.377,-130.503 276,-143 279.178,-145.024 282.595,-146.855 286.119,-148.508"/>
<polygon fill="midnightblue" stroke="midnightblue" points="285.032,-151.847 295.608,-152.474 287.732,-145.389 285.032,-151.847"/>
</g>
<!-- Node5 -->
<g id="node5" class="node"><title>Node5</title>
<g id="a_node5"><a xlink:href="../../da/d22/namespacemarian.html#a763e5e9b5d5a329d2420fe9bab95476d" target="_top" xlink:title="marian::shift">
<polygon fill="white" stroke="black" points="298.5,-114.5 298.5,-133.5 369.5,-133.5 369.5,-114.5 298.5,-114.5"/>
<text text-anchor="middle" x="334" y="-121.5" font-family="Helvetica,sans-Serif" font-size="10.00">marian::shift</text>
</a>
</g>
</g>
<!-- Node3&#45;&gt;Node5 -->
<g id="edge4" class="edge"><title>Node3&#45;&gt;Node5</title>
<path fill="none" stroke="midnightblue" d="M224.963,-95.589C244.219,-100.653 268.012,-106.91 288.364,-112.262"/>
<polygon fill="midnightblue" stroke="midnightblue" points="287.482,-115.649 298.044,-114.807 289.263,-108.879 287.482,-115.649"/>
</g>
<!-- Node6 -->
<g id="node6" class="node"><title>Node6</title>
<g id="a_node6"><a xlink:href="../../da/d22/namespacemarian.html#a3dbe8b5eb203876cd08cf3fe75a1c6bc" target="_top" xlink:title="marian::convolution">
<polygon fill="white" stroke="black" points="283.5,-76.5 283.5,-95.5 384.5,-95.5 384.5,-76.5 283.5,-76.5"/>
<text text-anchor="middle" x="334" y="-83.5" font-family="Helvetica,sans-Serif" font-size="10.00">marian::convolution</text>
</a>
</g>
</g>
<!-- Node3&#45;&gt;Node6 -->
<g id="edge5" class="edge"><title>Node3&#45;&gt;Node6</title>
<path fill="none" stroke="midnightblue" d="M229.521,-86C243.148,-86 258.61,-86 273.349,-86"/>
<polygon fill="midnightblue" stroke="midnightblue" points="273.407,-89.5001 283.407,-86 273.407,-82.5001 273.407,-89.5001"/>
</g>
<!-- Node7 -->
<g id="node7" class="node"><title>Node7</title>
<g id="a_node7"><a xlink:href="../../da/d22/namespacemarian.html#a8ee119d3ee4867a3c826de62ea1de4f5" target="_top" xlink:title="marian::avg_pooling">
<polygon fill="white" stroke="black" points="282,-38.5 282,-57.5 386,-57.5 386,-38.5 282,-38.5"/>
<text text-anchor="middle" x="334" y="-45.5" font-family="Helvetica,sans-Serif" font-size="10.00">marian::avg_pooling</text>
</a>
</g>
</g>
<!-- Node3&#45;&gt;Node7 -->
<g id="edge6" class="edge"><title>Node3&#45;&gt;Node7</title>
<path fill="none" stroke="midnightblue" d="M224.963,-76.411C243.774,-71.4642 266.915,-65.3789 286.947,-60.1108"/>
<polygon fill="midnightblue" stroke="midnightblue" points="288.018,-63.4483 296.799,-57.5201 286.237,-56.6785 288.018,-63.4483"/>
</g>
<!-- Node8 -->
<g id="node8" class="node"><title>Node8</title>
<g id="a_node8"><a xlink:href="../../da/d22/namespacemarian.html#abfe3b8c37f479da0a31a1e843d8bdedf" target="_top" xlink:title="marian::max_pooling">
<polygon fill="white" stroke="black" points="280.5,-0.5 280.5,-19.5 387.5,-19.5 387.5,-0.5 280.5,-0.5"/>
<text text-anchor="middle" x="334" y="-7.5" font-family="Helvetica,sans-Serif" font-size="10.00">marian::max_pooling</text>
</a>
</g>
</g>
<!-- Node3&#45;&gt;Node8 -->
<g id="edge7" class="edge"><title>Node3&#45;&gt;Node8</title>
<path fill="none" stroke="midnightblue" d="M221.463,-76.4092C227.874,-73.8448 234.351,-70.7247 240,-67 259.422,-54.1936 256.377,-41.4971 276,-29 279.178,-26.9758 282.595,-25.1445 286.119,-23.4921"/>
<polygon fill="midnightblue" stroke="midnightblue" points="287.732,-26.6114 295.608,-19.5257 285.032,-20.1528 287.732,-26.6114"/>
</g>
</g>
</svg>
