<?xml version="1.0" encoding="UTF-8" standalone="no"?>
<!DOCTYPE svg PUBLIC "-//W3C//DTD SVG 1.1//EN"
 "http://www.w3.org/Graphics/SVG/1.1/DTD/svg11.dtd">
<!-- Generated by graphviz version 2.38.0 (20140413.2041)
 -->
<!-- Title: marian::rnn::CellFactory Pages: 1 -->
<!--zoomable 537 -->
<svg id="main" version="1.1" xmlns="http://www.w3.org/2000/svg" xmlns:xlink="http://www.w3.org/1999/xlink" xml:space="preserve" onload="init(evt)">
<style type="text/css"><![CDATA[
.edge:hover path { stroke: red; }
.edge:hover polygon { stroke: red; fill: red; }
]]></style>
<script type="text/javascript"><![CDATA[
var edges = document.getElementsByTagName('g');
if (edges && edges.length) {
  for (var i=0;i<edges.length;i++) {
    if (edges[i].id.substr(0,4)=='edge') {
      edges[i].setAttribute('class','edge');
    }
  }
}
]]></script>
        <defs>
                <circle id="rim" cx="0" cy="0" r="7"/>
                <circle id="rim2" cx="0" cy="0" r="3.5"/>
                <g id="zoomPlus">
                        <use xlink:href="#rim" fill="#404040">
                                <set attributeName="fill" to="#808080" begin="zoomplus.mouseover" end="zoomplus.mouseout"/>
                        </use>
                        <path d="M-4,0h8M0,-4v8" fill="none" stroke="white" stroke-width="1.5" pointer-events="none"/>
                </g>
                <g id="zoomMin">
                        <use xlink:href="#rim" fill="#404040">
                                <set attributeName="fill" to="#808080" begin="zoomminus.mouseover" end="zoomminus.mouseout"/>
                        </use>
                        <path d="M-4,0h8" fill="none" stroke="white" stroke-width="1.5" pointer-events="none"/>
                </g>
                <g id="dirArrow">
                        <path fill="none" stroke="white" stroke-width="1.5" d="M0,-3.0v7 M-2.5,-0.5L0,-3.0L2.5,-0.5"/>
                </g>
               <g id="resetDef">
                       <use xlink:href="#rim2" fill="#404040">
                               <set attributeName="fill" to="#808080" begin="reset.mouseover" end="reset.mouseout"/>
                       </use>
               </g>
        </defs>

<script type="text/javascript">
var viewWidth = 336;
var viewHeight = 537;
var sectionId = 'dynsection-1';
</script>
<script xlink:href="../../svgpan.js"/>
<svg id="graph" class="graph">
<g id="viewport">
<title>marian::rnn::CellFactory</title>
<polygon fill="white" stroke="none" points="-4,4 -4,-533 331.5,-533 331.5,4 -4,4"/>
<!-- Node1 -->
<g id="node1" class="node"><title>Node1</title>
<polygon fill="#bfbfbf" stroke="black" points="142,-0.5 142,-101.5 264,-101.5 264,-0.5 142,-0.5"/>
<text text-anchor="middle" x="203" y="-89.5" font-family="Helvetica,sans-Serif" font-size="10.00">marian::rnn::CellFactory</text>
<polyline fill="none" stroke="black" points="142,-82.5 264,-82.5 "/>
<text text-anchor="middle" x="203" y="-70.5" font-family="Helvetica,sans-Serif" font-size="10.00"> </text>
<polyline fill="none" stroke="black" points="142,-63.5 264,-63.5 "/>
<text text-anchor="start" x="150" y="-51.5" font-family="Helvetica,sans-Serif" font-size="10.00">+ CellFactory()</text>
<text text-anchor="start" x="150" y="-40.5" font-family="Helvetica,sans-Serif" font-size="10.00">+ construct()</text>
<text text-anchor="start" x="150" y="-29.5" font-family="Helvetica,sans-Serif" font-size="10.00">+ clone()</text>
<text text-anchor="start" x="150" y="-18.5" font-family="Helvetica,sans-Serif" font-size="10.00">+ add_input()</text>
<text text-anchor="start" x="150" y="-7.5" font-family="Helvetica,sans-Serif" font-size="10.00">+ add_input()</text>
</g>
<!-- Node2 -->
<g id="node2" class="node"><title>Node2</title>
<g id="a_node2"><a xlink:href="../../d8/d32/structmarian_1_1rnn_1_1StackableFactory.html" target="_top" xlink:title="{marian::rnn::StackableFactory\n||+ StackableFactory()\l+ StackableFactory()\l+ StackableFactory()\l+ ~StackableFactory()\l+ as()\l+ is()\l}">
<polygon fill="white" stroke="black" points="0,-149.5 0,-261.5 148,-261.5 148,-149.5 0,-149.5"/>
<text text-anchor="middle" x="74" y="-249.5" font-family="Helvetica,sans-Serif" font-size="10.00">marian::rnn::StackableFactory</text>
<polyline fill="none" stroke="black" points="0,-242.5 148,-242.5 "/>
<text text-anchor="middle" x="74" y="-230.5" font-family="Helvetica,sans-Serif" font-size="10.00"> </text>
<polyline fill="none" stroke="black" points="0,-223.5 148,-223.5 "/>
<text text-anchor="start" x="8" y="-211.5" font-family="Helvetica,sans-Serif" font-size="10.00">+ StackableFactory()</text>
<text text-anchor="start" x="8" y="-200.5" font-family="Helvetica,sans-Serif" font-size="10.00">+ StackableFactory()</text>
<text text-anchor="start" x="8" y="-189.5" font-family="Helvetica,sans-Serif" font-size="10.00">+ StackableFactory()</text>
<text text-anchor="start" x="8" y="-178.5" font-family="Helvetica,sans-Serif" font-size="10.00">+ ~StackableFactory()</text>
<text text-anchor="start" x="8" y="-167.5" font-family="Helvetica,sans-Serif" font-size="10.00">+ as()</text>
<text text-anchor="start" x="8" y="-156.5" font-family="Helvetica,sans-Serif" font-size="10.00">+ is()</text>
</a>
</g>
</g>
<!-- Node2&#45;&gt;Node1 -->
<g id="edge1" class="edge"><title>Node2&#45;&gt;Node1</title>
<path fill="none" stroke="midnightblue" d="M127.149,-141.668C138.433,-128.329 150.195,-114.425 160.995,-101.657"/>
<polygon fill="none" stroke="midnightblue" points="124.358,-139.549 120.572,-149.444 129.702,-144.07 124.358,-139.549"/>
</g>
<!-- Node3 -->
<g id="node3" class="node"><title>Node3</title>
<g id="a_node3"><a xlink:href="../../d5/d28/classmarian_1_1Factory.html" target="_top" xlink:title="{marian::Factory\n|# options_\l# graph_\l|+ Factory()\l+ ~Factory()\l+ getOptions()\l+ str()\l+ opt()\l+ opt()\l}">
<polygon fill="white" stroke="black" points="31.5,-299.5 31.5,-422.5 116.5,-422.5 116.5,-299.5 31.5,-299.5"/>
<text text-anchor="middle" x="74" y="-410.5" font-family="Helvetica,sans-Serif" font-size="10.00">marian::Factory</text>
<polyline fill="none" stroke="black" points="31.5,-403.5 116.5,-403.5 "/>
<text text-anchor="start" x="39.5" y="-391.5" font-family="Helvetica,sans-Serif" font-size="10.00"># options_</text>
<text text-anchor="start" x="39.5" y="-380.5" font-family="Helvetica,sans-Serif" font-size="10.00"># graph_</text>
<polyline fill="none" stroke="black" points="31.5,-373.5 116.5,-373.5 "/>
<text text-anchor="start" x="39.5" y="-361.5" font-family="Helvetica,sans-Serif" font-size="10.00">+ Factory()</text>
<text text-anchor="start" x="39.5" y="-350.5" font-family="Helvetica,sans-Serif" font-size="10.00">+ ~Factory()</text>
<text text-anchor="start" x="39.5" y="-339.5" font-family="Helvetica,sans-Serif" font-size="10.00">+ getOptions()</text>
<text text-anchor="start" x="39.5" y="-328.5" font-family="Helvetica,sans-Serif" font-size="10.00">+ str()</text>
<text text-anchor="start" x="39.5" y="-317.5" font-family="Helvetica,sans-Serif" font-size="10.00">+ opt()</text>
<text text-anchor="start" x="39.5" y="-306.5" font-family="Helvetica,sans-Serif" font-size="10.00">+ opt()</text>
</a>
</g>
</g>
<!-- Node3&#45;&gt;Node2 -->
<g id="edge2" class="edge"><title>Node3&#45;&gt;Node2</title>
<path fill="none" stroke="midnightblue" d="M74,-289.055C74,-279.886 74,-270.605 74,-261.741"/>
<polygon fill="none" stroke="midnightblue" points="70.5001,-289.333 74,-299.333 77.5001,-289.333 70.5001,-289.333"/>
</g>
<!-- Node4 -->
<g id="node4" class="node"><title>Node4</title>
<polygon fill="white" stroke="#bfbfbf" points="17.5,-460.5 17.5,-528.5 130.5,-528.5 130.5,-460.5 17.5,-460.5"/>
<text text-anchor="start" x="25.5" y="-516.5" font-family="Helvetica,sans-Serif" font-size="10.00">std::enable_shared</text>
<text text-anchor="middle" x="74" y="-505.5" font-family="Helvetica,sans-Serif" font-size="10.00">_from_this&lt; Factory &gt;</text>
<polyline fill="none" stroke="#bfbfbf" points="17.5,-498.5 130.5,-498.5 "/>
<text text-anchor="middle" x="74" y="-486.5" font-family="Helvetica,sans-Serif" font-size="10.00"> </text>
<polyline fill="none" stroke="#bfbfbf" points="17.5,-479.5 130.5,-479.5 "/>
<text text-anchor="middle" x="74" y="-467.5" font-family="Helvetica,sans-Serif" font-size="10.00"> </text>
</g>
<!-- Node4&#45;&gt;Node3 -->
<g id="edge3" class="edge"><title>Node4&#45;&gt;Node3</title>
<path fill="none" stroke="midnightblue" d="M74,-450.248C74,-441.389 74,-431.91 74,-422.572"/>
<polygon fill="none" stroke="midnightblue" points="70.5001,-450.317 74,-460.317 77.5001,-450.317 70.5001,-450.317"/>
</g>
<!-- Node5 -->
<g id="node5" class="node"><title>Node5</title>
<polygon fill="white" stroke="#bfbfbf" points="166.5,-166 166.5,-245 327.5,-245 327.5,-166 166.5,-166"/>
<text text-anchor="start" x="174.5" y="-233" font-family="Helvetica,sans-Serif" font-size="10.00">std::vector&lt; std::function</text>
<text text-anchor="start" x="174.5" y="-222" font-family="Helvetica,sans-Serif" font-size="10.00">&lt; Expr(Ptr&lt; marian::Accumulator</text>
<text text-anchor="middle" x="247" y="-211" font-family="Helvetica,sans-Serif" font-size="10.00">::RNN &gt;)&gt; &gt;</text>
<polyline fill="none" stroke="#bfbfbf" points="166.5,-204 327.5,-204 "/>
<text text-anchor="middle" x="247" y="-192" font-family="Helvetica,sans-Serif" font-size="10.00"> </text>
<polyline fill="none" stroke="#bfbfbf" points="166.5,-185 327.5,-185 "/>
<text text-anchor="middle" x="247" y="-173" font-family="Helvetica,sans-Serif" font-size="10.00"> </text>
</g>
<!-- Node5&#45;&gt;Node1 -->
<g id="edge4" class="edge"><title>Node5&#45;&gt;Node1</title>
<path fill="none" stroke="#404040" d="M235.783,-165.623C231.21,-149.773 225.811,-131.061 220.729,-113.446"/>
<polygon fill="none" stroke="#404040" points="220.687,-113.302 215.181,-108.646 217.361,-101.773 222.867,-106.429 220.687,-113.302"/>
<text text-anchor="middle" x="245" y="-123" font-family="Helvetica,sans-Serif" font-size="10.00"> #inputs_</text>
</g>
</g>
</svg>
        <g id="navigator" transform="translate(0 0)" fill="#404254">
                <rect fill="#f2f5e9" fill-opacity="0.5" stroke="#606060" stroke-width=".5" x="0" y="0" width="60" height="60"/>
                <use id="zoomplus" xlink:href="#zoomPlus" x="17" y="9" onmousedown="handleZoom(evt,'in')"/>
                <use id="zoomminus" xlink:href="#zoomMin" x="42" y="9" onmousedown="handleZoom(evt,'out')"/>
                <use id="reset" xlink:href="#resetDef" x="30" y="36" onmousedown="handleReset()"/>
                <g id="arrowUp" xlink:href="#dirArrow" transform="translate(30 24)" onmousedown="handlePan(0,-1)">
                  <use xlink:href="#rim" fill="#404040">
                        <set attributeName="fill" to="#808080" begin="arrowUp.mouseover" end="arrowUp.mouseout"/>
                  </use>
                  <path fill="none" stroke="white" stroke-width="1.5" d="M0,-3.0v7 M-2.5,-0.5L0,-3.0L2.5,-0.5"/>
                </g>
                <g id="arrowRight" xlink:href="#dirArrow" transform="rotate(90) translate(36 -43)" onmousedown="handlePan(1,0)">
                  <use xlink:href="#rim" fill="#404040">
                        <set attributeName="fill" to="#808080" begin="arrowRight.mouseover" end="arrowRight.mouseout"/>
                  </use>
                  <path fill="none" stroke="white" stroke-width="1.5" d="M0,-3.0v7 M-2.5,-0.5L0,-3.0L2.5,-0.5"/>
                </g>
                <g id="arrowDown" xlink:href="#dirArrow" transform="rotate(180) translate(-30 -48)" onmousedown="handlePan(0,1)">
                  <use xlink:href="#rim" fill="#404040">
                        <set attributeName="fill" to="#808080" begin="arrowDown.mouseover" end="arrowDown.mouseout"/>
                  </use>
                  <path fill="none" stroke="white" stroke-width="1.5" d="M0,-3.0v7 M-2.5,-0.5L0,-3.0L2.5,-0.5"/>
                </g>
                <g id="arrowLeft" xlink:href="#dirArrow" transform="rotate(270) translate(-36 17)" onmousedown="handlePan(-1,0)">
                  <use xlink:href="#rim" fill="#404040">
                        <set attributeName="fill" to="#808080" begin="arrowLeft.mouseover" end="arrowLeft.mouseout"/>
                  </use>
                  <path fill="none" stroke="white" stroke-width="1.5" d="M0,-3.0v7 M-2.5,-0.5L0,-3.0L2.5,-0.5"/>
                </g>
        </g>
        <svg viewBox="0 0 15 15" width="100%" height="30px" preserveAspectRatio="xMaxYMin meet">
         <g id="arrow_out" transform="scale(0.3 0.3)">
          <a xlink:href="classmarian_1_1rnn_1_1CellFactory__coll__graph_org.svg" target="_base">
           <rect id="button" ry="5" rx="5" y="6" x="6" height="38" width="38"
                fill="#f2f5e9" fill-opacity="0.5" stroke="#606060" stroke-width="1.0"/>
           <path id="arrow"
             d="M 11.500037,31.436501 C 11.940474,20.09759 22.043105,11.32322 32.158766,21.979434 L 37.068811,17.246167 C 37.068811,17.246167 37.088388,32 37.088388,32 L 22.160133,31.978069 C 22.160133,31.978069 26.997745,27.140456 26.997745,27.140456 C 18.528582,18.264221 13.291696,25.230495 11.500037,31.436501 z"
             style="fill:#404040;"/>
          </a>
         </g>
        </svg>
</svg>
