<?xml version="1.0" encoding="UTF-8" standalone="no"?>
<!DOCTYPE svg PUBLIC "-//W3C//DTD SVG 1.1//EN"
 "http://www.w3.org/Graphics/SVG/1.1/DTD/svg11.dtd">
<!-- Generated by graphviz version 2.38.0 (20140413.2041)
 -->
<!-- Title: scorers.h Pages: 1 -->
<svg width="212pt" height="308pt"
 viewBox="0.00 0.00 211.53 308.00" xmlns="http://www.w3.org/2000/svg" xmlns:xlink="http://www.w3.org/1999/xlink">
<g id="graph0" class="graph" transform="scale(1 1) rotate(0) translate(4 304)">
<title>scorers.h</title>
<polygon fill="white" stroke="none" points="-4,4 -4,-304 207.525,-304 207.525,4 -4,4"/>
<!-- Node1 -->
<g id="node1" class="node"><title>Node1</title>
<polygon fill="#bfbfbf" stroke="black" points="66,-280.5 66,-299.5 123,-299.5 123,-280.5 66,-280.5"/>
<text text-anchor="middle" x="94.5" y="-287.5" font-family="Helvetica,sans-Serif" font-size="10.00">scorers.h</text>
</g>
<!-- Node2 -->
<g id="node2" class="node"><title>Node2</title>
<g id="a_node2"><a xlink:href="$d3/ddc/beam__search_8h.html" xlink:title="beam_search.h">
<polygon fill="white" stroke="black" points="99,-224.5 99,-243.5 182,-243.5 182,-224.5 99,-224.5"/>
<text text-anchor="middle" x="140.5" y="-231.5" font-family="Helvetica,sans-Serif" font-size="10.00">beam_search.h</text>
</a>
</g>
</g>
<!-- Node1&#45;&gt;Node2 -->
<g id="edge1" class="edge"><title>Node1&#45;&gt;Node2</title>
<path fill="none" stroke="midnightblue" d="M108.614,-272.431C116.676,-262.967 126.459,-251.483 133.045,-243.751"/>
<polygon fill="midnightblue" stroke="midnightblue" points="105.916,-270.201 102.096,-280.083 111.245,-274.74 105.916,-270.201"/>
</g>
<!-- Node10 -->
<g id="node10" class="node"><title>Node10</title>
<g id="a_node10"><a xlink:href="$d9/df1/translator_8h.html" xlink:title="translator.h">
<polygon fill="white" stroke="black" points="16,-224.5 16,-243.5 81,-243.5 81,-224.5 16,-224.5"/>
<text text-anchor="middle" x="48.5" y="-231.5" font-family="Helvetica,sans-Serif" font-size="10.00">translator.h</text>
</a>
</g>
</g>
<!-- Node1&#45;&gt;Node10 -->
<g id="edge13" class="edge"><title>Node1&#45;&gt;Node10</title>
<path fill="none" stroke="midnightblue" d="M80.386,-272.431C72.324,-262.967 62.5408,-251.483 55.9546,-243.751"/>
<polygon fill="midnightblue" stroke="midnightblue" points="77.755,-274.74 86.904,-280.083 83.0837,-270.201 77.755,-274.74"/>
</g>
<!-- Node3 -->
<g id="node3" class="node"><title>Node3</title>
<g id="a_node3"><a xlink:href="$df/df1/s2s__translator_8cpp.html" xlink:title="s2s_translator.cpp">
<polygon fill="white" stroke="black" points="0,-168.5 0,-187.5 97,-187.5 97,-168.5 0,-168.5"/>
<text text-anchor="middle" x="48.5" y="-175.5" font-family="Helvetica,sans-Serif" font-size="10.00">s2s_translator.cpp</text>
</a>
</g>
</g>
<!-- Node2&#45;&gt;Node3 -->
<g id="edge2" class="edge"><title>Node2&#45;&gt;Node3</title>
<path fill="none" stroke="midnightblue" d="M116.95,-219.177C100.021,-209.241 77.7172,-196.149 63.2447,-187.655"/>
<polygon fill="midnightblue" stroke="midnightblue" points="115.323,-222.28 125.719,-224.324 118.866,-216.243 115.323,-222.28"/>
</g>
<!-- Node4 -->
<g id="node4" class="node"><title>Node4</title>
<g id="a_node4"><a xlink:href="$d7/d7d/training_2validator_8h.html" xlink:title="validator.h">
<polygon fill="white" stroke="black" points="114.5,-168.5 114.5,-187.5 176.5,-187.5 176.5,-168.5 114.5,-168.5"/>
<text text-anchor="middle" x="145.5" y="-175.5" font-family="Helvetica,sans-Serif" font-size="10.00">validator.h</text>
</a>
</g>
</g>
<!-- Node2&#45;&gt;Node4 -->
<g id="edge3" class="edge"><title>Node2&#45;&gt;Node4</title>
<path fill="none" stroke="midnightblue" d="M142.25,-214.101C143.08,-205.136 144.032,-194.858 144.69,-187.751"/>
<polygon fill="midnightblue" stroke="midnightblue" points="138.763,-213.803 141.326,-224.083 145.733,-214.448 138.763,-213.803"/>
</g>
<!-- Node5 -->
<g id="node5" class="node"><title>Node5</title>
<g id="a_node5"><a xlink:href="$da/d8c/examples_2mnist_2validator_8h.html" xlink:title="validator.h">
<polygon fill="white" stroke="black" points="0.5,-112.5 0.5,-131.5 62.5,-131.5 62.5,-112.5 0.5,-112.5"/>
<text text-anchor="middle" x="31.5" y="-119.5" font-family="Helvetica,sans-Serif" font-size="10.00">validator.h</text>
</a>
</g>
</g>
<!-- Node4&#45;&gt;Node5 -->
<g id="edge4" class="edge"><title>Node4&#45;&gt;Node5</title>
<path fill="none" stroke="midnightblue" d="M118.258,-164.096C96.9599,-154.007 67.9583,-140.27 49.4791,-131.516"/>
<polygon fill="midnightblue" stroke="midnightblue" points="116.901,-167.326 127.436,-168.444 119.897,-161 116.901,-167.326"/>
</g>
<!-- Node7 -->
<g id="node7" class="node"><title>Node7</title>
<g id="a_node7"><a xlink:href="$d8/d9d/graph__group_8h.html" xlink:title="graph_group.h">
<polygon fill="white" stroke="black" points="125.5,-0.5 125.5,-19.5 203.5,-19.5 203.5,-0.5 125.5,-0.5"/>
<text text-anchor="middle" x="164.5" y="-7.5" font-family="Helvetica,sans-Serif" font-size="10.00">graph_group.h</text>
</a>
</g>
</g>
<!-- Node4&#45;&gt;Node7 -->
<g id="edge6" class="edge"><title>Node4&#45;&gt;Node7</title>
<path fill="none" stroke="midnightblue" d="M158.513,-160.269C172.452,-141.149 193.63,-108.31 201.5,-76 203.604,-67.3636 204.498,-64.3679 201.5,-56 196.246,-41.337 183.924,-28.0309 174.938,-19.7555"/>
<polygon fill="midnightblue" stroke="midnightblue" points="155.545,-158.392 152.341,-168.491 161.144,-162.594 155.545,-158.392"/>
</g>
<!-- Node8 -->
<g id="node8" class="node"><title>Node8</title>
<g id="a_node8"><a xlink:href="$d2/dd8/scheduler_8h.html" xlink:title="scheduler.h">
<polygon fill="white" stroke="black" points="81,-112.5 81,-131.5 148,-131.5 148,-112.5 81,-112.5"/>
<text text-anchor="middle" x="114.5" y="-119.5" font-family="Helvetica,sans-Serif" font-size="10.00">scheduler.h</text>
</a>
</g>
</g>
<!-- Node4&#45;&gt;Node8 -->
<g id="edge7" class="edge"><title>Node4&#45;&gt;Node8</title>
<path fill="none" stroke="midnightblue" d="M135.324,-159.275C130.026,-150.045 123.783,-139.17 119.524,-131.751"/>
<polygon fill="midnightblue" stroke="midnightblue" points="132.367,-161.153 140.381,-168.083 138.438,-157.668 132.367,-161.153"/>
</g>
<!-- Node9 -->
<g id="node9" class="node"><title>Node9</title>
<g id="a_node9"><a xlink:href="$df/d43/training_2training_8h.html" xlink:title="training.h">
<polygon fill="white" stroke="black" points="136.5,-56.5 136.5,-75.5 192.5,-75.5 192.5,-56.5 136.5,-56.5"/>
<text text-anchor="middle" x="164.5" y="-63.5" font-family="Helvetica,sans-Serif" font-size="10.00">training.h</text>
</a>
</g>
</g>
<!-- Node4&#45;&gt;Node9 -->
<g id="edge12" class="edge"><title>Node4&#45;&gt;Node9</title>
<path fill="none" stroke="midnightblue" d="M150.521,-158.577C152.595,-150.473 154.887,-140.811 156.5,-132 160.145,-112.093 162.589,-88.4441 163.74,-75.8813"/>
<polygon fill="midnightblue" stroke="midnightblue" points="147.086,-157.875 147.911,-168.438 153.853,-159.666 147.086,-157.875"/>
</g>
<!-- Node6 -->
<g id="node6" class="node"><title>Node6</title>
<g id="a_node6"><a xlink:href="$d2/d10/examples_2mnist_2training_8h.html" xlink:title="training.h">
<polygon fill="white" stroke="black" points="10.5,-56.5 10.5,-75.5 66.5,-75.5 66.5,-56.5 10.5,-56.5"/>
<text text-anchor="middle" x="38.5" y="-63.5" font-family="Helvetica,sans-Serif" font-size="10.00">training.h</text>
</a>
</g>
</g>
<!-- Node5&#45;&gt;Node6 -->
<g id="edge5" class="edge"><title>Node5&#45;&gt;Node6</title>
<path fill="none" stroke="midnightblue" d="M33.9499,-102.101C35.112,-93.1357 36.4443,-82.8579 37.3656,-75.7511"/>
<polygon fill="midnightblue" stroke="midnightblue" points="30.4706,-101.716 32.6559,-112.083 37.4125,-102.616 30.4706,-101.716"/>
</g>
<!-- Node8&#45;&gt;Node6 -->
<g id="edge8" class="edge"><title>Node8&#45;&gt;Node6</title>
<path fill="none" stroke="midnightblue" d="M93.9242,-106.38C80.188,-96.6204 62.5747,-84.1057 50.9329,-75.8339"/>
<polygon fill="midnightblue" stroke="midnightblue" points="92.1102,-109.385 102.289,-112.324 96.1647,-103.679 92.1102,-109.385"/>
</g>
<!-- Node8&#45;&gt;Node7 -->
<g id="edge9" class="edge"><title>Node8&#45;&gt;Node7</title>
<path fill="none" stroke="midnightblue" d="M115.816,-102.203C117.327,-88.7942 120.566,-70.6228 127.5,-56 134.26,-41.7433 146.521,-28.1517 155.068,-19.7087"/>
<polygon fill="midnightblue" stroke="midnightblue" points="112.331,-101.888 114.91,-112.164 119.302,-102.522 112.331,-101.888"/>
</g>
<!-- Node8&#45;&gt;Node9 -->
<g id="edge10" class="edge"><title>Node8&#45;&gt;Node9</title>
<path fill="none" stroke="midnightblue" d="M129.576,-104.718C138.389,-95.1997 149.166,-83.5608 156.397,-75.7511"/>
<polygon fill="midnightblue" stroke="midnightblue" points="126.982,-102.367 122.756,-112.083 132.119,-107.123 126.982,-102.367"/>
</g>
<!-- Node9&#45;&gt;Node7 -->
<g id="edge11" class="edge"><title>Node9&#45;&gt;Node7</title>
<path fill="none" stroke="midnightblue" d="M164.5,-45.8045C164.5,-36.9102 164.5,-26.7798 164.5,-19.7511"/>
<polygon fill="midnightblue" stroke="midnightblue" points="161,-46.083 164.5,-56.083 168,-46.083 161,-46.083"/>
</g>
<!-- Node10&#45;&gt;Node3 -->
<g id="edge14" class="edge"><title>Node10&#45;&gt;Node3</title>
<path fill="none" stroke="midnightblue" d="M48.5,-213.805C48.5,-204.91 48.5,-194.78 48.5,-187.751"/>
<polygon fill="midnightblue" stroke="midnightblue" points="45.0001,-214.083 48.5,-224.083 52.0001,-214.083 45.0001,-214.083"/>
</g>
</g>
</svg>
