<?xml version="1.0" encoding="UTF-8" standalone="no"?>
<!DOCTYPE svg PUBLIC "-//W3C//DTD SVG 1.1//EN"
 "http://www.w3.org/Graphics/SVG/1.1/DTD/svg11.dtd">
<!-- Generated by graphviz version 2.38.0 (20140413.2041)
 -->
<!-- Title: marian::GraphGroup::save Pages: 1 -->
<svg width="280pt" height="186pt"
 viewBox="0.00 0.00 280.00 186.00" xmlns="http://www.w3.org/2000/svg" xmlns:xlink="http://www.w3.org/1999/xlink">
<g id="graph0" class="graph" transform="scale(1 1) rotate(0) translate(4 182)">
<title>marian::GraphGroup::save</title>
<polygon fill="white" stroke="none" points="-4,4 -4,-182 276,-182 276,4 -4,4"/>
<!-- Node1 -->
<g id="node1" class="node"><title>Node1</title>
<polygon fill="#bfbfbf" stroke="black" points="0,-73.5 0,-103.5 104,-103.5 104,-73.5 0,-73.5"/>
<text text-anchor="start" x="8" y="-91.5" font-family="Helvetica,sans-Serif" font-size="10.00">marian::GraphGroup</text>
<text text-anchor="middle" x="52" y="-80.5" font-family="Helvetica,sans-Serif" font-size="10.00">::save</text>
</g>
<!-- Node2 -->
<g id="node2" class="node"><title>Node2</title>
<g id="a_node2"><a xlink:href="$d9/dbe/classmarian_1_1GraphGroup.html#ac425bf61f8a0f9a392a8dce76dc9cf35" xlink:title="marian::GraphGroup\l::~GraphGroup">
<polygon fill="white" stroke="black" points="154,-147.5 154,-177.5 258,-177.5 258,-147.5 154,-147.5"/>
<text text-anchor="start" x="162" y="-165.5" font-family="Helvetica,sans-Serif" font-size="10.00">marian::GraphGroup</text>
<text text-anchor="middle" x="206" y="-154.5" font-family="Helvetica,sans-Serif" font-size="10.00">::~GraphGroup</text>
</a>
</g>
</g>
<!-- Node1&#45;&gt;Node2 -->
<g id="edge1" class="edge"><title>Node1&#45;&gt;Node2</title>
<path fill="none" stroke="midnightblue" d="M85.7528,-109.067C101.769,-118.669 121.534,-129.859 140,-138.5 146.755,-141.661 154.051,-144.699 161.229,-147.487"/>
<polygon fill="midnightblue" stroke="midnightblue" points="87.1581,-105.825 76.7937,-103.628 83.5254,-111.809 87.1581,-105.825"/>
</g>
<!-- Node3 -->
<g id="node3" class="node"><title>Node3</title>
<g id="a_node3"><a xlink:href="$d5/da9/classmarian_1_1SingletonGraph.html#a857b38654fac79ce8a8b584deaf7525c" xlink:title="marian::SingletonGraph\l::execute">
<polygon fill="white" stroke="black" points="146.5,-98.5 146.5,-128.5 265.5,-128.5 265.5,-98.5 146.5,-98.5"/>
<text text-anchor="start" x="154.5" y="-116.5" font-family="Helvetica,sans-Serif" font-size="10.00">marian::SingletonGraph</text>
<text text-anchor="middle" x="206" y="-105.5" font-family="Helvetica,sans-Serif" font-size="10.00">::execute</text>
</a>
</g>
</g>
<!-- Node1&#45;&gt;Node3 -->
<g id="edge2" class="edge"><title>Node1&#45;&gt;Node3</title>
<path fill="none" stroke="midnightblue" d="M114.12,-98.5527C124.798,-100.309 135.884,-102.132 146.489,-103.877"/>
<polygon fill="midnightblue" stroke="midnightblue" points="114.472,-95.0636 104.037,-96.8942 113.336,-101.971 114.472,-95.0636"/>
</g>
<!-- Node4 -->
<g id="node4" class="node"><title>Node4</title>
<g id="a_node4"><a xlink:href="$d5/da9/classmarian_1_1SingletonGraph.html#ae1b4d1afb1be47551f76e9f7b75eb3d0" xlink:title="marian::SingletonGraph\l::save">
<polygon fill="white" stroke="black" points="146.5,-49.5 146.5,-79.5 265.5,-79.5 265.5,-49.5 146.5,-49.5"/>
<text text-anchor="start" x="154.5" y="-67.5" font-family="Helvetica,sans-Serif" font-size="10.00">marian::SingletonGraph</text>
<text text-anchor="middle" x="206" y="-56.5" font-family="Helvetica,sans-Serif" font-size="10.00">::save</text>
</a>
</g>
</g>
<!-- Node1&#45;&gt;Node4 -->
<g id="edge3" class="edge"><title>Node1&#45;&gt;Node4</title>
<path fill="none" stroke="midnightblue" d="M114.12,-78.8494C124.798,-77.1634 135.884,-75.4131 146.489,-73.7385"/>
<polygon fill="midnightblue" stroke="midnightblue" points="113.368,-75.4247 104.037,-80.4416 114.46,-82.339 113.368,-75.4247"/>
</g>
<!-- Node5 -->
<g id="node5" class="node"><title>Node5</title>
<g id="a_node5"><a xlink:href="$d5/d8a/classmarian_1_1AsyncGraphGroup.html#a84479793dfa70a6a4ee0de1e910e8104" xlink:title="marian::AsyncGraphGroup\l::execute">
<polygon fill="white" stroke="black" points="140,-0.5 140,-30.5 272,-30.5 272,-0.5 140,-0.5"/>
<text text-anchor="start" x="148" y="-18.5" font-family="Helvetica,sans-Serif" font-size="10.00">marian::AsyncGraphGroup</text>
<text text-anchor="middle" x="206" y="-7.5" font-family="Helvetica,sans-Serif" font-size="10.00">::execute</text>
</a>
</g>
</g>
<!-- Node1&#45;&gt;Node5 -->
<g id="edge4" class="edge"><title>Node1&#45;&gt;Node5</title>
<path fill="none" stroke="midnightblue" d="M86.9342,-68.3627C102.793,-59.3213 122.09,-48.8373 140,-40.5 147.454,-37.0303 155.534,-33.64 163.381,-30.5317"/>
<polygon fill="midnightblue" stroke="midnightblue" points="84.9483,-65.4675 78.0308,-73.4924 88.4428,-71.5329 84.9483,-65.4675"/>
</g>
</g>
</svg>
