<?xml version="1.0" encoding="UTF-8" standalone="no"?>
<!DOCTYPE svg PUBLIC "-//W3C//DTD SVG 1.1//EN"
 "http://www.w3.org/Graphics/SVG/1.1/DTD/svg11.dtd">
<!-- Generated by graphviz version 2.38.0 (20140413.2041)
 -->
<!-- Title: LanguageModelState Pages: 1 -->
<svg width="198pt" height="182pt"
 viewBox="0.00 0.00 198.00 182.00" xmlns="http://www.w3.org/2000/svg" xmlns:xlink="http://www.w3.org/1999/xlink">
<g id="graph0" class="graph" transform="scale(1 1) rotate(0) translate(4 178)">
<title>LanguageModelState</title>
<polygon fill="white" stroke="none" points="-4,4 -4,-178 194,-178 194,4 -4,4"/>
<!-- Node1 -->
<g id="node1" class="node"><title>Node1</title>
<polygon fill="#bfbfbf" stroke="black" points="18,-0.5 18,-68.5 126,-68.5 126,-0.5 18,-0.5"/>
<text text-anchor="middle" x="72" y="-56.5" font-family="Helvetica,sans-Serif" font-size="10.00">LanguageModelState</text>
<polyline fill="none" stroke="black" points="18,-49.5 126,-49.5 "/>
<text text-anchor="middle" x="72" y="-37.5" font-family="Helvetica,sans-Serif" font-size="10.00"> </text>
<polyline fill="none" stroke="black" points="18,-30.5 126,-30.5 "/>
<text text-anchor="start" x="26" y="-18.5" font-family="Helvetica,sans-Serif" font-size="10.00">+ GetStates()</text>
<text text-anchor="start" x="26" y="-7.5" font-family="Helvetica,sans-Serif" font-size="10.00">+ GetStates()</text>
</g>
<!-- Node2 -->
<g id="node2" class="node"><title>Node2</title>
<polygon fill="white" stroke="#bfbfbf" points="0,-116.5 0,-173.5 40,-173.5 40,-116.5 0,-116.5"/>
<text text-anchor="middle" x="20" y="-161.5" font-family="Helvetica,sans-Serif" font-size="10.00">State</text>
<polyline fill="none" stroke="#bfbfbf" points="0,-154.5 40,-154.5 "/>
<text text-anchor="middle" x="20" y="-142.5" font-family="Helvetica,sans-Serif" font-size="10.00"> </text>
<polyline fill="none" stroke="#bfbfbf" points="0,-135.5 40,-135.5 "/>
<text text-anchor="middle" x="20" y="-123.5" font-family="Helvetica,sans-Serif" font-size="10.00"> </text>
</g>
<!-- Node2&#45;&gt;Node1 -->
<g id="edge1" class="edge"><title>Node2&#45;&gt;Node1</title>
<path fill="none" stroke="midnightblue" d="M37.6876,-107.094C43.6821,-94.5865 50.3354,-80.7041 56.1754,-68.5186"/>
<polygon fill="none" stroke="midnightblue" points="34.4221,-105.81 33.2563,-116.34 40.7345,-108.835 34.4221,-105.81"/>
</g>
<!-- Node3 -->
<g id="node3" class="node"><title>Node3</title>
<polygon fill="white" stroke="#bfbfbf" points="58,-116.5 58,-173.5 190,-173.5 190,-116.5 58,-116.5"/>
<text text-anchor="middle" x="124" y="-161.5" font-family="Helvetica,sans-Serif" font-size="10.00">std::vector&lt; KenlmState &gt;</text>
<polyline fill="none" stroke="#bfbfbf" points="58,-154.5 190,-154.5 "/>
<text text-anchor="middle" x="124" y="-142.5" font-family="Helvetica,sans-Serif" font-size="10.00"> </text>
<polyline fill="none" stroke="#bfbfbf" points="58,-135.5 190,-135.5 "/>
<text text-anchor="middle" x="124" y="-123.5" font-family="Helvetica,sans-Serif" font-size="10.00"> </text>
</g>
<!-- Node3&#45;&gt;Node1 -->
<g id="edge2" class="edge"><title>Node3&#45;&gt;Node1</title>
<path fill="none" stroke="#404040" d="M110.744,-116.34C105.399,-105.188 99.0995,-92.0441 93.1512,-79.6327"/>
<polygon fill="none" stroke="#404040" points="93.0109,-79.3399 86.8106,-75.658 87.8246,-68.5186 94.0249,-72.2005 93.0109,-79.3399"/>
<text text-anchor="middle" x="120.5" y="-90" font-family="Helvetica,sans-Serif" font-size="10.00"> &#45;states_</text>
</g>
</g>
</svg>
