<?xml version="1.0" encoding="UTF-8" standalone="no"?>
<!DOCTYPE svg PUBLIC "-//W3C//DTD SVG 1.1//EN"
 "http://www.w3.org/Graphics/SVG/1.1/DTD/svg11.dtd">
<!-- Generated by graphviz version 2.38.0 (20140413.2041)
 -->
<!-- Title: marian::LogNodeOp::forwardOps Pages: 1 -->
<svg width="463pt" height="142pt"
 viewBox="0.00 0.00 463.00 142.00" xmlns="http://www.w3.org/2000/svg" xmlns:xlink="http://www.w3.org/1999/xlink">
<g id="graph0" class="graph" transform="scale(1 1) rotate(0) translate(4 138)">
<title>marian::LogNodeOp::forwardOps</title>
<polygon fill="white" stroke="none" points="-4,4 -4,-138 459,-138 459,4 -4,4"/>
<!-- Node1 -->
<g id="node1" class="node"><title>Node1</title>
<polygon fill="#bfbfbf" stroke="black" points="0,-52 0,-82 110,-82 110,-52 0,-52"/>
<text text-anchor="start" x="8" y="-70" font-family="Helvetica,sans-Serif" font-size="10.00">marian::LogNodeOp::</text>
<text text-anchor="middle" x="55" y="-59" font-family="Helvetica,sans-Serif" font-size="10.00">forwardOps</text>
</g>
<!-- Node2 -->
<g id="node2" class="node"><title>Node2</title>
<g id="a_node2"><a xlink:href="../../da/d22/namespacemarian.html#af90a9ca647f95f9d9d18ac8901c55fb1" target="_top" xlink:title="marian::Element">
<polygon fill="white" stroke="black" points="172,-114.5 172,-133.5 260,-133.5 260,-114.5 172,-114.5"/>
<text text-anchor="middle" x="216" y="-121.5" font-family="Helvetica,sans-Serif" font-size="10.00">marian::Element</text>
</a>
</g>
</g>
<!-- Node1&#45;&gt;Node2 -->
<g id="edge1" class="edge"><title>Node1&#45;&gt;Node2</title>
<path fill="none" stroke="midnightblue" d="M88.9339,-82.128C105.796,-89.559 126.773,-98.3258 146,-105 152.625,-107.3 159.682,-109.509 166.659,-111.555"/>
<polygon fill="midnightblue" stroke="midnightblue" points="166.188,-115.06 176.764,-114.43 168.103,-108.327 166.188,-115.06"/>
</g>
<!-- Node3 -->
<g id="node3" class="node"><title>Node3</title>
<g id="a_node3"><a xlink:href="../../d3/d07/namespacethrust_1_1detail_1_1functional.html#ac56289767601dbca61bebee343b4fc89" target="_top" xlink:title="thrust::detail::functional::Log">
<polygon fill="white" stroke="black" points="146,-76.5 146,-95.5 286,-95.5 286,-76.5 146,-76.5"/>
<text text-anchor="middle" x="216" y="-83.5" font-family="Helvetica,sans-Serif" font-size="10.00">thrust::detail::functional::Log</text>
</a>
</g>
</g>
<!-- Node1&#45;&gt;Node3 -->
<g id="edge2" class="edge"><title>Node1&#45;&gt;Node3</title>
<path fill="none" stroke="midnightblue" d="M110.274,-73.4856C118.486,-74.4669 127.099,-75.4961 135.708,-76.5248"/>
<polygon fill="midnightblue" stroke="midnightblue" points="135.444,-80.0181 145.789,-77.7295 136.275,-73.0676 135.444,-80.0181"/>
</g>
<!-- Node4 -->
<g id="node4" class="node"><title>Node4</title>
<g id="a_node4"><a xlink:href="../../d0/d7a/classmarian_1_1Node.html#a71a9c8ad6ba12d421fa97222d74a90b9" target="_top" xlink:title="marian::Node::child">
<polygon fill="white" stroke="black" points="165.5,-38.5 165.5,-57.5 266.5,-57.5 266.5,-38.5 165.5,-38.5"/>
<text text-anchor="middle" x="216" y="-45.5" font-family="Helvetica,sans-Serif" font-size="10.00">marian::Node::child</text>
</a>
</g>
</g>
<!-- Node1&#45;&gt;Node4 -->
<g id="edge3" class="edge"><title>Node1&#45;&gt;Node4</title>
<path fill="none" stroke="midnightblue" d="M110.274,-60.5144C124.747,-58.785 140.464,-56.9068 155.215,-55.1442"/>
<polygon fill="midnightblue" stroke="midnightblue" points="155.731,-58.6074 165.245,-53.9456 154.9,-51.6569 155.731,-58.6074"/>
</g>
<!-- Node6 -->
<g id="node6" class="node"><title>Node6</title>
<g id="a_node6"><a xlink:href="../../d0/d7a/classmarian_1_1Node.html#a0df86f2ff4a169111d6ba0865e6fd935" target="_top" xlink:title="marian::Node::val">
<polygon fill="white" stroke="black" points="169,-0.5 169,-19.5 263,-19.5 263,-0.5 169,-0.5"/>
<text text-anchor="middle" x="216" y="-7.5" font-family="Helvetica,sans-Serif" font-size="10.00">marian::Node::val</text>
</a>
</g>
</g>
<!-- Node1&#45;&gt;Node6 -->
<g id="edge5" class="edge"><title>Node1&#45;&gt;Node6</title>
<path fill="none" stroke="midnightblue" d="M88.9339,-51.872C105.796,-44.441 126.773,-35.6742 146,-29 152.625,-26.7004 159.682,-24.4914 166.659,-22.4446"/>
<polygon fill="midnightblue" stroke="midnightblue" points="168.103,-25.6727 176.764,-19.5705 166.188,-18.9398 168.103,-25.6727"/>
</g>
<!-- Node5 -->
<g id="node5" class="node"><title>Node5</title>
<g id="a_node5"><a xlink:href="../../d0/d7a/classmarian_1_1Node.html#a4aa5aa482c70595fa5d43c1fbabf5c18" target="_top" xlink:title="marian::Node::getBackend">
<polygon fill="white" stroke="black" points="322,-38.5 322,-57.5 455,-57.5 455,-38.5 322,-38.5"/>
<text text-anchor="middle" x="388.5" y="-45.5" font-family="Helvetica,sans-Serif" font-size="10.00">marian::Node::getBackend</text>
</a>
</g>
</g>
<!-- Node4&#45;&gt;Node5 -->
<g id="edge4" class="edge"><title>Node4&#45;&gt;Node5</title>
<path fill="none" stroke="midnightblue" d="M266.774,-48C280.75,-48 296.274,-48 311.409,-48"/>
<polygon fill="midnightblue" stroke="midnightblue" points="311.8,-51.5001 321.8,-48 311.8,-44.5001 311.8,-51.5001"/>
</g>
</g>
</svg>
