<?xml version="1.0" encoding="UTF-8" standalone="no"?>
<!DOCTYPE svg PUBLIC "-//W3C//DTD SVG 1.1//EN"
 "http://www.w3.org/Graphics/SVG/1.1/DTD/svg11.dtd">
<!-- Generated by graphviz version 2.38.0 (20140413.2041)
 -->
<!-- Title: amunmt::GPU::Multiplicative&lt; CellType, InnerWeights &gt; Pages: 1 -->
<svg width="427pt" height="408pt"
 viewBox="0.00 0.00 427.00 408.00" xmlns="http://www.w3.org/2000/svg" xmlns:xlink="http://www.w3.org/1999/xlink">
<g id="graph0" class="graph" transform="scale(1 1) rotate(0) translate(4 404)">
<title>amunmt::GPU::Multiplicative&lt; CellType, InnerWeights &gt;</title>
<polygon fill="white" stroke="none" points="-4,4 -4,-404 423,-404 423,4 -4,4"/>
<!-- Node1 -->
<g id="node1" class="node"><title>Node1</title>
<polygon fill="#bfbfbf" stroke="black" points="113,-0.5 113,-101.5 256,-101.5 256,-0.5 113,-0.5"/>
<text text-anchor="start" x="121" y="-89.5" font-family="Helvetica,sans-Serif" font-size="10.00">amunmt::GPU::Multiplicative</text>
<text text-anchor="middle" x="184.5" y="-78.5" font-family="Helvetica,sans-Serif" font-size="10.00">&lt; CellType, InnerWeights &gt;</text>
<polyline fill="none" stroke="black" points="113,-71.5 256,-71.5 "/>
<text text-anchor="start" x="121" y="-59.5" font-family="Helvetica,sans-Serif" font-size="10.00">&#45; innerCell_</text>
<text text-anchor="start" x="121" y="-48.5" font-family="Helvetica,sans-Serif" font-size="10.00">&#45; x_mult_</text>
<polyline fill="none" stroke="black" points="113,-41.5 256,-41.5 "/>
<text text-anchor="start" x="121" y="-29.5" font-family="Helvetica,sans-Serif" font-size="10.00">+ Multiplicative()</text>
<text text-anchor="start" x="121" y="-18.5" font-family="Helvetica,sans-Serif" font-size="10.00">+ GetNextState()</text>
<text text-anchor="start" x="121" y="-7.5" font-family="Helvetica,sans-Serif" font-size="10.00">+ GetStateLength()</text>
</g>
<!-- Node2 -->
<g id="node2" class="node"><title>Node2</title>
<g id="a_node2"><a xlink:href="$d0/db0/classamunmt_1_1GPU_1_1Cell.html" xlink:title="{amunmt::GPU::Cell\n||+ GetNextState()\l+ GetStateLength()\l}">
<polygon fill="white" stroke="black" points="0,-177 0,-245 103,-245 103,-177 0,-177"/>
<text text-anchor="middle" x="51.5" y="-233" font-family="Helvetica,sans-Serif" font-size="10.00">amunmt::GPU::Cell</text>
<polyline fill="none" stroke="black" points="0,-226 103,-226 "/>
<text text-anchor="middle" x="51.5" y="-214" font-family="Helvetica,sans-Serif" font-size="10.00"> </text>
<polyline fill="none" stroke="black" points="0,-207 103,-207 "/>
<text text-anchor="start" x="8" y="-195" font-family="Helvetica,sans-Serif" font-size="10.00">+ GetNextState()</text>
<text text-anchor="start" x="8" y="-184" font-family="Helvetica,sans-Serif" font-size="10.00">+ GetStateLength()</text>
</a>
</g>
</g>
<!-- Node2&#45;&gt;Node1 -->
<g id="edge1" class="edge"><title>Node2&#45;&gt;Node1</title>
<path fill="none" stroke="midnightblue" d="M85.837,-169.209C103.211,-148.569 124.444,-123.345 142.755,-101.592"/>
<polygon fill="none" stroke="midnightblue" points="83.1434,-166.974 79.3812,-176.878 88.4987,-171.482 83.1434,-166.974"/>
</g>
<!-- Node3 -->
<g id="node3" class="node"><title>Node3</title>
<g id="a_node3"><a xlink:href="$dc/d0c/structamunmt_1_1GPU_1_1CellState.html" xlink:title="{amunmt::GPU::CellState\n||+ CellState()\l+ CellState()\l}">
<polygon fill="white" stroke="black" points="121.5,-177 121.5,-245 247.5,-245 247.5,-177 121.5,-177"/>
<text text-anchor="middle" x="184.5" y="-233" font-family="Helvetica,sans-Serif" font-size="10.00">amunmt::GPU::CellState</text>
<polyline fill="none" stroke="black" points="121.5,-226 247.5,-226 "/>
<text text-anchor="middle" x="184.5" y="-214" font-family="Helvetica,sans-Serif" font-size="10.00"> </text>
<polyline fill="none" stroke="black" points="121.5,-207 247.5,-207 "/>
<text text-anchor="start" x="129.5" y="-195" font-family="Helvetica,sans-Serif" font-size="10.00">+ CellState()</text>
<text text-anchor="start" x="129.5" y="-184" font-family="Helvetica,sans-Serif" font-size="10.00">+ CellState()</text>
</a>
</g>
</g>
<!-- Node3&#45;&gt;Node1 -->
<g id="edge2" class="edge"><title>Node3&#45;&gt;Node1</title>
<path fill="none" stroke="#404040" d="M184.5,-176.878C184.5,-158.563 184.5,-135.213 184.5,-113.671"/>
<polygon fill="none" stroke="#404040" points="184.5,-113.592 180.5,-107.592 184.5,-101.592 188.5,-107.592 184.5,-113.592"/>
<text text-anchor="middle" x="213" y="-123" font-family="Helvetica,sans-Serif" font-size="10.00"> &#45;tempState_</text>
</g>
<!-- Node4 -->
<g id="node4" class="node"><title>Node4</title>
<polygon fill="white" stroke="#bfbfbf" points="126.5,-331.5 126.5,-399.5 242.5,-399.5 242.5,-331.5 126.5,-331.5"/>
<text text-anchor="start" x="134.5" y="-387.5" font-family="Helvetica,sans-Serif" font-size="10.00">std::unique_ptr&lt; mblas</text>
<text text-anchor="middle" x="184.5" y="-376.5" font-family="Helvetica,sans-Serif" font-size="10.00">::Matrix &gt;</text>
<polyline fill="none" stroke="#bfbfbf" points="126.5,-369.5 242.5,-369.5 "/>
<text text-anchor="middle" x="184.5" y="-357.5" font-family="Helvetica,sans-Serif" font-size="10.00"> </text>
<polyline fill="none" stroke="#bfbfbf" points="126.5,-350.5 242.5,-350.5 "/>
<text text-anchor="middle" x="184.5" y="-338.5" font-family="Helvetica,sans-Serif" font-size="10.00"> </text>
</g>
<!-- Node4&#45;&gt;Node3 -->
<g id="edge3" class="edge"><title>Node4&#45;&gt;Node3</title>
<path fill="none" stroke="#404040" d="M184.5,-331.41C184.5,-309.727 184.5,-281.102 184.5,-257.314"/>
<polygon fill="none" stroke="#404040" points="184.5,-257.026 180.5,-251.026 184.5,-245.026 188.5,-251.026 184.5,-257.026"/>
<text text-anchor="middle" x="203" y="-305" font-family="Helvetica,sans-Serif" font-size="10.00"> +output</text>
<text text-anchor="middle" x="203" y="-294" font-family="Helvetica,sans-Serif" font-size="10.00">+cell</text>
</g>
<!-- Node5 -->
<g id="node5" class="node"><title>Node5</title>
<g id="a_node5"><a xlink:href="$d3/d3c/structamunmt_1_1GPU_1_1Weights_1_1MultWeights.html" xlink:title="{amunmt::GPU::Weights\l::MultWeights\&lt; InnerWeights \&gt;\n|+ Wm_\l+ Bm_\l+ Um_\l+ Bmu_\l|+ MultWeights()\l+ MultWeights()\l&#45; p()\l}">
<polygon fill="white" stroke="black" points="266,-149.5 266,-272.5 419,-272.5 419,-149.5 266,-149.5"/>
<text text-anchor="start" x="274" y="-260.5" font-family="Helvetica,sans-Serif" font-size="10.00">amunmt::GPU::Weights</text>
<text text-anchor="middle" x="342.5" y="-249.5" font-family="Helvetica,sans-Serif" font-size="10.00">::MultWeights&lt; InnerWeights &gt;</text>
<polyline fill="none" stroke="black" points="266,-242.5 419,-242.5 "/>
<text text-anchor="start" x="274" y="-230.5" font-family="Helvetica,sans-Serif" font-size="10.00">+ Wm_</text>
<text text-anchor="start" x="274" y="-219.5" font-family="Helvetica,sans-Serif" font-size="10.00">+ Bm_</text>
<text text-anchor="start" x="274" y="-208.5" font-family="Helvetica,sans-Serif" font-size="10.00">+ Um_</text>
<text text-anchor="start" x="274" y="-197.5" font-family="Helvetica,sans-Serif" font-size="10.00">+ Bmu_</text>
<polyline fill="none" stroke="black" points="266,-190.5 419,-190.5 "/>
<text text-anchor="start" x="274" y="-178.5" font-family="Helvetica,sans-Serif" font-size="10.00">+ MultWeights()</text>
<text text-anchor="start" x="274" y="-167.5" font-family="Helvetica,sans-Serif" font-size="10.00">+ MultWeights()</text>
<text text-anchor="start" x="274" y="-156.5" font-family="Helvetica,sans-Serif" font-size="10.00">&#45; p()</text>
</a>
</g>
</g>
<!-- Node5&#45;&gt;Node1 -->
<g id="edge4" class="edge"><title>Node5&#45;&gt;Node1</title>
<path fill="none" stroke="#404040" d="M281.865,-149.365C269.067,-136.567 255.588,-123.088 242.875,-110.375"/>
<polygon fill="none" stroke="#404040" points="242.7,-110.2 235.629,-108.785 234.214,-101.714 241.285,-103.129 242.7,-110.2"/>
<text text-anchor="middle" x="273" y="-123" font-family="Helvetica,sans-Serif" font-size="10.00"> &#45;w_</text>
</g>
<!-- Node6 -->
<g id="node6" class="node"><title>Node6</title>
<polygon fill="white" stroke="#bfbfbf" points="305.5,-337 305.5,-394 379.5,-394 379.5,-337 305.5,-337"/>
<text text-anchor="middle" x="342.5" y="-382" font-family="Helvetica,sans-Serif" font-size="10.00">InnerWeights</text>
<polyline fill="none" stroke="#bfbfbf" points="305.5,-375 379.5,-375 "/>
<text text-anchor="middle" x="342.5" y="-363" font-family="Helvetica,sans-Serif" font-size="10.00"> </text>
<polyline fill="none" stroke="#bfbfbf" points="305.5,-356 379.5,-356 "/>
<text text-anchor="middle" x="342.5" y="-344" font-family="Helvetica,sans-Serif" font-size="10.00"> </text>
</g>
<!-- Node6&#45;&gt;Node5 -->
<g id="edge5" class="edge"><title>Node6&#45;&gt;Node5</title>
<path fill="none" stroke="midnightblue" d="M342.5,-326.663C342.5,-310.342 342.5,-290.844 342.5,-272.596"/>
<polygon fill="none" stroke="midnightblue" points="339,-326.883 342.5,-336.883 346,-326.883 339,-326.883"/>
</g>
</g>
</svg>
