<?xml version="1.0" encoding="UTF-8" standalone="no"?>
<!DOCTYPE svg PUBLIC "-//W3C//DTD SVG 1.1//EN"
 "http://www.w3.org/Graphics/SVG/1.1/DTD/svg11.dtd">
<!-- Generated by graphviz version 2.38.0 (20140413.2041)
 -->
<!-- Title: marian::LexicalProbNodeOp::forward Pages: 1 -->
<svg width="492pt" height="180pt"
 viewBox="0.00 0.00 492.00 180.00" xmlns="http://www.w3.org/2000/svg" xmlns:xlink="http://www.w3.org/1999/xlink">
<g id="graph0" class="graph" transform="scale(1 1) rotate(0) translate(4 176)">
<title>marian::LexicalProbNodeOp::forward</title>
<polygon fill="white" stroke="none" points="-4,4 -4,-176 488,-176 488,4 -4,4"/>
<!-- Node1 -->
<g id="node1" class="node"><title>Node1</title>
<polygon fill="#bfbfbf" stroke="black" points="0,-71 0,-101 139,-101 139,-71 0,-71"/>
<text text-anchor="start" x="8" y="-89" font-family="Helvetica,sans-Serif" font-size="10.00">marian::LexicalProbNodeOp</text>
<text text-anchor="middle" x="69.5" y="-78" font-family="Helvetica,sans-Serif" font-size="10.00">::forward</text>
</g>
<!-- Node2 -->
<g id="node2" class="node"><title>Node2</title>
<g id="a_node2"><a xlink:href="$d6/d55/namespacemarian_1_1sparse.html#ac9a85dbc1c93bd5cf582d9f298203d55" xlink:title="marian::sparse::LfaForward">
<polygon fill="white" stroke="black" points="177,-152.5 177,-171.5 313,-171.5 313,-152.5 177,-152.5"/>
<text text-anchor="middle" x="245" y="-159.5" font-family="Helvetica,sans-Serif" font-size="10.00">marian::sparse::LfaForward</text>
</a>
</g>
</g>
<!-- Node1&#45;&gt;Node2 -->
<g id="edge1" class="edge"><title>Node1&#45;&gt;Node2</title>
<path fill="none" stroke="midnightblue" d="M94.2168,-101.001C114.909,-113.578 146.068,-131.309 175,-143 180.897,-145.383 187.194,-147.572 193.496,-149.551"/>
<polygon fill="midnightblue" stroke="midnightblue" points="192.763,-152.984 203.346,-152.483 194.76,-146.275 192.763,-152.984"/>
</g>
<!-- Node3 -->
<g id="node3" class="node"><title>Node3</title>
<g id="a_node3"><a xlink:href="$d0/d7a/classmarian_1_1Node.html#a71a9c8ad6ba12d421fa97222d74a90b9" xlink:title="marian::Node::child">
<polygon fill="white" stroke="black" points="194.5,-114.5 194.5,-133.5 295.5,-133.5 295.5,-114.5 194.5,-114.5"/>
<text text-anchor="middle" x="245" y="-121.5" font-family="Helvetica,sans-Serif" font-size="10.00">marian::Node::child</text>
</a>
</g>
</g>
<!-- Node1&#45;&gt;Node3 -->
<g id="edge2" class="edge"><title>Node1&#45;&gt;Node3</title>
<path fill="none" stroke="midnightblue" d="M139.072,-101.019C156.25,-104.781 174.424,-108.761 190.733,-112.333"/>
<polygon fill="midnightblue" stroke="midnightblue" points="190.103,-115.778 200.621,-114.499 191.601,-108.941 190.103,-115.778"/>
</g>
<!-- Node5 -->
<g id="node5" class="node"><title>Node5</title>
<g id="a_node5"><a xlink:href="$d0/d7a/classmarian_1_1Node.html#a0df86f2ff4a169111d6ba0865e6fd935" xlink:title="marian::Node::val">
<polygon fill="white" stroke="black" points="198,-76.5 198,-95.5 292,-95.5 292,-76.5 198,-76.5"/>
<text text-anchor="middle" x="245" y="-83.5" font-family="Helvetica,sans-Serif" font-size="10.00">marian::Node::val</text>
</a>
</g>
</g>
<!-- Node1&#45;&gt;Node5 -->
<g id="edge4" class="edge"><title>Node1&#45;&gt;Node5</title>
<path fill="none" stroke="midnightblue" d="M139.072,-86C155.079,-86 171.951,-86 187.373,-86"/>
<polygon fill="midnightblue" stroke="midnightblue" points="187.79,-89.5001 197.79,-86 187.79,-82.5001 187.79,-89.5001"/>
</g>
<!-- Node6 -->
<g id="node6" class="node"><title>Node6</title>
<g id="a_node6"><a xlink:href="$da/d22/namespacemarian.html#af90a9ca647f95f9d9d18ac8901c55fb1" xlink:title="marian::Element">
<polygon fill="white" stroke="black" points="201,-38.5 201,-57.5 289,-57.5 289,-38.5 201,-38.5"/>
<text text-anchor="middle" x="245" y="-45.5" font-family="Helvetica,sans-Serif" font-size="10.00">marian::Element</text>
</a>
</g>
</g>
<!-- Node1&#45;&gt;Node6 -->
<g id="edge5" class="edge"><title>Node1&#45;&gt;Node6</title>
<path fill="none" stroke="midnightblue" d="M139.072,-70.9814C156.328,-67.2018 174.59,-63.2022 190.956,-59.6177"/>
<polygon fill="midnightblue" stroke="midnightblue" points="191.856,-63.0037 200.875,-57.4451 190.358,-56.1657 191.856,-63.0037"/>
</g>
<!-- Node7 -->
<g id="node7" class="node"><title>Node7</title>
<g id="a_node7"><a xlink:href="$d3/d07/namespacethrust_1_1detail_1_1functional.html#ac56289767601dbca61bebee343b4fc89" xlink:title="thrust::detail::functional::Log">
<polygon fill="white" stroke="black" points="175,-0.5 175,-19.5 315,-19.5 315,-0.5 175,-0.5"/>
<text text-anchor="middle" x="245" y="-7.5" font-family="Helvetica,sans-Serif" font-size="10.00">thrust::detail::functional::Log</text>
</a>
</g>
</g>
<!-- Node1&#45;&gt;Node7 -->
<g id="edge6" class="edge"><title>Node1&#45;&gt;Node7</title>
<path fill="none" stroke="midnightblue" d="M94.2168,-70.9993C114.909,-58.4216 146.068,-40.6912 175,-29 180.897,-26.6172 187.194,-24.4276 193.496,-22.4493"/>
<polygon fill="midnightblue" stroke="midnightblue" points="194.76,-25.7248 203.346,-19.517 192.763,-19.0158 194.76,-25.7248"/>
</g>
<!-- Node4 -->
<g id="node4" class="node"><title>Node4</title>
<g id="a_node4"><a xlink:href="$d0/d7a/classmarian_1_1Node.html#a4aa5aa482c70595fa5d43c1fbabf5c18" xlink:title="marian::Node::getBackend">
<polygon fill="white" stroke="black" points="351,-114.5 351,-133.5 484,-133.5 484,-114.5 351,-114.5"/>
<text text-anchor="middle" x="417.5" y="-121.5" font-family="Helvetica,sans-Serif" font-size="10.00">marian::Node::getBackend</text>
</a>
</g>
</g>
<!-- Node3&#45;&gt;Node4 -->
<g id="edge3" class="edge"><title>Node3&#45;&gt;Node4</title>
<path fill="none" stroke="midnightblue" d="M295.774,-124C309.75,-124 325.274,-124 340.409,-124"/>
<polygon fill="midnightblue" stroke="midnightblue" points="340.8,-127.5 350.8,-124 340.8,-120.5 340.8,-127.5"/>
</g>
</g>
</svg>
