<?xml version="1.0" encoding="UTF-8" standalone="no"?>
<!DOCTYPE svg PUBLIC "-//W3C//DTD SVG 1.1//EN"
 "http://www.w3.org/Graphics/SVG/1.1/DTD/svg11.dtd">
<!-- Generated by graphviz version 2.38.0 (20140413.2041)
 -->
<!-- Title: marian::DotNodeOp::newShape Pages: 1 -->
<svg width="293pt" height="186pt"
 viewBox="0.00 0.00 293.00 186.00" xmlns="http://www.w3.org/2000/svg" xmlns:xlink="http://www.w3.org/1999/xlink">
<g id="graph0" class="graph" transform="scale(1 1) rotate(0) translate(4 182)">
<title>marian::DotNodeOp::newShape</title>
<polygon fill="white" stroke="none" points="-4,4 -4,-182 289,-182 289,4 -4,4"/>
<!-- Node1 -->
<g id="node1" class="node"><title>Node1</title>
<polygon fill="#bfbfbf" stroke="black" points="0,-73.5 0,-103.5 110,-103.5 110,-73.5 0,-73.5"/>
<text text-anchor="start" x="8" y="-91.5" font-family="Helvetica,sans-Serif" font-size="10.00">marian::DotNodeOp::</text>
<text text-anchor="middle" x="55" y="-80.5" font-family="Helvetica,sans-Serif" font-size="10.00">newShape</text>
</g>
<!-- Node2 -->
<g id="node2" class="node"><title>Node2</title>
<g id="a_node2"><a xlink:href="$dc/d8c/structmarian_1_1DotNodeOp.html#a66d1926cfedd0f890967b6d0fc618ab8" xlink:title="marian::DotNodeOp::\lDotNodeOp">
<polygon fill="white" stroke="black" points="160.5,-147.5 160.5,-177.5 270.5,-177.5 270.5,-147.5 160.5,-147.5"/>
<text text-anchor="start" x="168.5" y="-165.5" font-family="Helvetica,sans-Serif" font-size="10.00">marian::DotNodeOp::</text>
<text text-anchor="middle" x="215.5" y="-154.5" font-family="Helvetica,sans-Serif" font-size="10.00">DotNodeOp</text>
</a>
</g>
</g>
<!-- Node1&#45;&gt;Node2 -->
<g id="edge1" class="edge"><title>Node1&#45;&gt;Node2</title>
<path fill="none" stroke="midnightblue" d="M89.4362,-108.861C106.09,-118.538 126.739,-129.851 146,-138.5 153.012,-141.649 160.572,-144.66 168.02,-147.419"/>
<polygon fill="midnightblue" stroke="midnightblue" points="91.0229,-105.734 80.629,-103.681 87.4739,-111.767 91.0229,-105.734"/>
</g>
<!-- Node3 -->
<g id="node3" class="node"><title>Node3</title>
<g id="a_node3"><a xlink:href="$d9/dbf/structmarian_1_1ScalarProductNodeOp.html#ab5e665a3dc2a9c6601182f7b9f3b4c39" xlink:title="marian::ScalarProductNode\lOp::ScalarProductNodeOp">
<polygon fill="white" stroke="black" points="147,-98.5 147,-128.5 284,-128.5 284,-98.5 147,-98.5"/>
<text text-anchor="start" x="155" y="-116.5" font-family="Helvetica,sans-Serif" font-size="10.00">marian::ScalarProductNode</text>
<text text-anchor="middle" x="215.5" y="-105.5" font-family="Helvetica,sans-Serif" font-size="10.00">Op::ScalarProductNodeOp</text>
</a>
</g>
</g>
<!-- Node1&#45;&gt;Node3 -->
<g id="edge2" class="edge"><title>Node1&#45;&gt;Node3</title>
<path fill="none" stroke="midnightblue" d="M120.263,-98.6361C129.039,-100.02 138.071,-101.445 146.905,-102.838"/>
<polygon fill="midnightblue" stroke="midnightblue" points="120.527,-95.1345 110.103,-97.0337 119.436,-102.049 120.527,-95.1345"/>
</g>
<!-- Node4 -->
<g id="node4" class="node"><title>Node4</title>
<g id="a_node4"><a xlink:href="$d1/dff/structmarian_1_1ElementBinaryNodeOp.html#ae36592112f9c11758c2d56b9aab0440c" xlink:title="marian::ElementBinaryNode\lOp::ElementBinaryNodeOp">
<polygon fill="white" stroke="black" points="146,-49.5 146,-79.5 285,-79.5 285,-49.5 146,-49.5"/>
<text text-anchor="start" x="154" y="-67.5" font-family="Helvetica,sans-Serif" font-size="10.00">marian::ElementBinaryNode</text>
<text text-anchor="middle" x="215.5" y="-56.5" font-family="Helvetica,sans-Serif" font-size="10.00">Op::ElementBinaryNodeOp</text>
</a>
</g>
</g>
<!-- Node1&#45;&gt;Node4 -->
<g id="edge3" class="edge"><title>Node1&#45;&gt;Node4</title>
<path fill="none" stroke="midnightblue" d="M120.228,-78.7746C128.646,-77.5 137.298,-76.1899 145.786,-74.9046"/>
<polygon fill="midnightblue" stroke="midnightblue" points="119.467,-75.3499 110.103,-80.3077 120.515,-82.271 119.467,-75.3499"/>
</g>
<!-- Node5 -->
<g id="node5" class="node"><title>Node5</title>
<g id="a_node5"><a xlink:href="$da/d72/structmarian_1_1CrossEntropyNodeOp.html#ac48a140d97cbf643601b2d16cdc674e0" xlink:title="marian::CrossEntropyNode\lOp::CrossEntropyNodeOp">
<polygon fill="white" stroke="black" points="148,-0.5 148,-30.5 283,-30.5 283,-0.5 148,-0.5"/>
<text text-anchor="start" x="156" y="-18.5" font-family="Helvetica,sans-Serif" font-size="10.00">marian::CrossEntropyNode</text>
<text text-anchor="middle" x="215.5" y="-7.5" font-family="Helvetica,sans-Serif" font-size="10.00">Op::CrossEntropyNodeOp</text>
</a>
</g>
</g>
<!-- Node1&#45;&gt;Node5 -->
<g id="edge4" class="edge"><title>Node1&#45;&gt;Node5</title>
<path fill="none" stroke="midnightblue" d="M90.6544,-68.5532C107.147,-59.4413 127.309,-48.8458 146,-40.5 153.745,-37.0418 162.128,-33.6813 170.284,-30.6043"/>
<polygon fill="midnightblue" stroke="midnightblue" points="88.9275,-65.5088 81.9017,-73.439 92.3394,-71.621 88.9275,-65.5088"/>
</g>
</g>
</svg>
