<?xml version="1.0" encoding="UTF-8" standalone="no"?>
<!DOCTYPE svg PUBLIC "-//W3C//DTD SVG 1.1//EN"
 "http://www.w3.org/Graphics/SVG/1.1/DTD/svg11.dtd">
<!-- Generated by graphviz version 2.38.0 (20140413.2041)
 -->
<!-- Title: marian::data::Dataset Pages: 1 -->
<svg width="288pt" height="430pt"
 viewBox="0.00 0.00 287.50 430.00" xmlns="http://www.w3.org/2000/svg" xmlns:xlink="http://www.w3.org/1999/xlink">
<g id="graph0" class="graph" transform="scale(1 1) rotate(0) translate(4 426)">
<title>marian::data::Dataset</title>
<polygon fill="white" stroke="none" points="-4,4 -4,-426 283.5,-426 283.5,4 -4,4"/>
<!-- Node1 -->
<g id="node1" class="node"><title>Node1</title>
<polygon fill="#bfbfbf" stroke="black" points="126.5,-0.5 126.5,-112.5 237.5,-112.5 237.5,-0.5 126.5,-0.5"/>
<text text-anchor="middle" x="182" y="-100.5" font-family="Helvetica,sans-Serif" font-size="10.00">marian::data::Dataset</text>
<polyline fill="none" stroke="black" points="126.5,-93.5 237.5,-93.5 "/>
<text text-anchor="middle" x="182" y="-81.5" font-family="Helvetica,sans-Serif" font-size="10.00"> </text>
<polyline fill="none" stroke="black" points="126.5,-74.5 237.5,-74.5 "/>
<text text-anchor="start" x="134.5" y="-62.5" font-family="Helvetica,sans-Serif" font-size="10.00">+ Dataset()</text>
<text text-anchor="start" x="134.5" y="-51.5" font-family="Helvetica,sans-Serif" font-size="10.00">+ loadData()</text>
<text text-anchor="start" x="134.5" y="-40.5" font-family="Helvetica,sans-Serif" font-size="10.00">+ begin()</text>
<text text-anchor="start" x="134.5" y="-29.5" font-family="Helvetica,sans-Serif" font-size="10.00">+ end()</text>
<text text-anchor="start" x="134.5" y="-18.5" font-family="Helvetica,sans-Serif" font-size="10.00">+ shuffle()</text>
<text text-anchor="start" x="134.5" y="-7.5" font-family="Helvetica,sans-Serif" font-size="10.00">+ toBatch()</text>
</g>
<!-- Node2 -->
<g id="node2" class="node"><title>Node2</title>
<g id="a_node2"><a xlink:href="../../db/deb/classmarian_1_1data_1_1DatasetBase.html" target="_top" xlink:title="{marian::data::DatasetBase\l\&lt; Example, ExampleIterator,\l DataBatch \&gt;\n||+ DatasetBase()\l+ DatasetBase()\l+ begin()\l+ end()\l+ shuffle()\l+ toBatch()\l+ reset()\l+ prepare()\l}">
<polygon fill="white" stroke="black" points="0,-160.5 0,-316.5 142,-316.5 142,-160.5 0,-160.5"/>
<text text-anchor="start" x="8" y="-304.5" font-family="Helvetica,sans-Serif" font-size="10.00">marian::data::DatasetBase</text>
<text text-anchor="start" x="8" y="-293.5" font-family="Helvetica,sans-Serif" font-size="10.00">&lt; Example, ExampleIterator,</text>
<text text-anchor="middle" x="71" y="-282.5" font-family="Helvetica,sans-Serif" font-size="10.00"> DataBatch &gt;</text>
<polyline fill="none" stroke="black" points="0,-275.5 142,-275.5 "/>
<text text-anchor="middle" x="71" y="-263.5" font-family="Helvetica,sans-Serif" font-size="10.00"> </text>
<polyline fill="none" stroke="black" points="0,-256.5 142,-256.5 "/>
<text text-anchor="start" x="8" y="-244.5" font-family="Helvetica,sans-Serif" font-size="10.00">+ DatasetBase()</text>
<text text-anchor="start" x="8" y="-233.5" font-family="Helvetica,sans-Serif" font-size="10.00">+ DatasetBase()</text>
<text text-anchor="start" x="8" y="-222.5" font-family="Helvetica,sans-Serif" font-size="10.00">+ begin()</text>
<text text-anchor="start" x="8" y="-211.5" font-family="Helvetica,sans-Serif" font-size="10.00">+ end()</text>
<text text-anchor="start" x="8" y="-200.5" font-family="Helvetica,sans-Serif" font-size="10.00">+ shuffle()</text>
<text text-anchor="start" x="8" y="-189.5" font-family="Helvetica,sans-Serif" font-size="10.00">+ toBatch()</text>
<text text-anchor="start" x="8" y="-178.5" font-family="Helvetica,sans-Serif" font-size="10.00">+ reset()</text>
<text text-anchor="start" x="8" y="-167.5" font-family="Helvetica,sans-Serif" font-size="10.00">+ prepare()</text>
</a>
</g>
</g>
<!-- Node2&#45;&gt;Node1 -->
<g id="edge1" class="edge"><title>Node2&#45;&gt;Node1</title>
<path fill="none" stroke="midnightblue" d="M123.912,-151.697C132.088,-138.438 140.339,-125.058 147.954,-112.71"/>
<polygon fill="none" stroke="midnightblue" points="120.827,-150.032 118.557,-160.38 126.785,-153.706 120.827,-150.032"/>
</g>
<!-- Node3 -->
<g id="node3" class="node"><title>Node3</title>
<polygon fill="white" stroke="#bfbfbf" points="8.5,-364.5 8.5,-421.5 133.5,-421.5 133.5,-364.5 8.5,-364.5"/>
<text text-anchor="middle" x="71" y="-409.5" font-family="Helvetica,sans-Serif" font-size="10.00">std::vector&lt; std::string &gt;</text>
<polyline fill="none" stroke="#bfbfbf" points="8.5,-402.5 133.5,-402.5 "/>
<text text-anchor="middle" x="71" y="-390.5" font-family="Helvetica,sans-Serif" font-size="10.00"> </text>
<polyline fill="none" stroke="#bfbfbf" points="8.5,-383.5 133.5,-383.5 "/>
<text text-anchor="middle" x="71" y="-371.5" font-family="Helvetica,sans-Serif" font-size="10.00"> </text>
</g>
<!-- Node3&#45;&gt;Node2 -->
<g id="edge2" class="edge"><title>Node3&#45;&gt;Node2</title>
<path fill="none" stroke="#404040" d="M71,-364.383C71,-354.106 71,-341.806 71,-328.991"/>
<polygon fill="none" stroke="#404040" points="71.0001,-328.596 67,-322.596 71,-316.596 75,-322.596 71.0001,-328.596"/>
<text text-anchor="middle" x="90" y="-338" font-family="Helvetica,sans-Serif" font-size="10.00"> #paths_</text>
</g>
<!-- Node4 -->
<g id="node4" class="node"><title>Node4</title>
<polygon fill="white" stroke="#bfbfbf" points="160.5,-210 160.5,-267 279.5,-267 279.5,-210 160.5,-210"/>
<text text-anchor="middle" x="220" y="-255" font-family="Helvetica,sans-Serif" font-size="10.00">std::vector&lt; Example &gt;</text>
<polyline fill="none" stroke="#bfbfbf" points="160.5,-248 279.5,-248 "/>
<text text-anchor="middle" x="220" y="-236" font-family="Helvetica,sans-Serif" font-size="10.00"> </text>
<polyline fill="none" stroke="#bfbfbf" points="160.5,-229 279.5,-229 "/>
<text text-anchor="middle" x="220" y="-217" font-family="Helvetica,sans-Serif" font-size="10.00"> </text>
</g>
<!-- Node4&#45;&gt;Node1 -->
<g id="edge3" class="edge"><title>Node4&#45;&gt;Node1</title>
<path fill="none" stroke="#404040" d="M214.146,-209.769C209.37,-187.147 202.421,-154.23 196.204,-124.784"/>
<polygon fill="none" stroke="#404040" points="196.163,-124.588 191.01,-119.544 193.684,-112.847 198.838,-117.891 196.163,-124.588"/>
<text text-anchor="middle" x="227" y="-134" font-family="Helvetica,sans-Serif" font-size="10.00"> #examples_</text>
</g>
</g>
</svg>
