<?xml version="1.0" encoding="UTF-8" standalone="no"?>
<!DOCTYPE svg PUBLIC "-//W3C//DTD SVG 1.1//EN"
 "http://www.w3.org/Graphics/SVG/1.1/DTD/svg11.dtd">
<!-- Generated by graphviz version 2.38.0 (20140413.2041)
 -->
<!-- Title: marian::Convolution::operator() Pages: 1 -->
<svg width="249pt" height="192pt"
 viewBox="0.00 0.00 249.00 192.00" xmlns="http://www.w3.org/2000/svg" xmlns:xlink="http://www.w3.org/1999/xlink">
<g id="graph0" class="graph" transform="scale(1 1) rotate(0) translate(4 188)">
<title>marian::Convolution::operator()</title>
<polygon fill="white" stroke="none" points="-4,4 -4,-188 245,-188 245,4 -4,4"/>
<!-- Node1 -->
<g id="node1" class="node"><title>Node1</title>
<polygon fill="#bfbfbf" stroke="black" points="0,-77 0,-107 104,-107 104,-77 0,-77"/>
<text text-anchor="start" x="8" y="-95" font-family="Helvetica,sans-Serif" font-size="10.00">marian::Convolution</text>
<text text-anchor="middle" x="52" y="-84" font-family="Helvetica,sans-Serif" font-size="10.00">::operator()</text>
</g>
<!-- Node2 -->
<g id="node2" class="node"><title>Node2</title>
<g id="a_node2"><a xlink:href="$da/d22/namespacemarian.html#acd984f43188d0ae23c2a6ef13ae5293f" xlink:title="marian::reshape">
<polygon fill="white" stroke="black" points="147.5,-164.5 147.5,-183.5 233.5,-183.5 233.5,-164.5 147.5,-164.5"/>
<text text-anchor="middle" x="190.5" y="-171.5" font-family="Helvetica,sans-Serif" font-size="10.00">marian::reshape</text>
</a>
</g>
</g>
<!-- Node1&#45;&gt;Node2 -->
<g id="edge1" class="edge"><title>Node1&#45;&gt;Node2</title>
<path fill="none" stroke="midnightblue" d="M71.0733,-107.25C88.0538,-121.038 114.587,-141.228 140,-155 143.687,-156.998 147.63,-158.887 151.621,-160.642"/>
<polygon fill="midnightblue" stroke="midnightblue" points="150.342,-163.901 160.921,-164.483 153.014,-157.431 150.342,-163.901"/>
</g>
<!-- Node3 -->
<g id="node3" class="node"><title>Node3</title>
<g id="a_node3"><a xlink:href="$da/d22/namespacemarian.html#ace1e9a63d52edc363d70d661cf8d0257" xlink:title="marian::rows">
<polygon fill="white" stroke="black" points="154,-126.5 154,-145.5 227,-145.5 227,-126.5 154,-126.5"/>
<text text-anchor="middle" x="190.5" y="-133.5" font-family="Helvetica,sans-Serif" font-size="10.00">marian::rows</text>
</a>
</g>
</g>
<!-- Node1&#45;&gt;Node3 -->
<g id="edge2" class="edge"><title>Node1&#45;&gt;Node3</title>
<path fill="none" stroke="midnightblue" d="M99.5938,-107.019C115.939,-112.288 134.134,-118.153 149.855,-123.221"/>
<polygon fill="midnightblue" stroke="midnightblue" points="149.194,-126.685 159.786,-126.422 151.342,-120.022 149.194,-126.685"/>
</g>
<!-- Node4 -->
<g id="node4" class="node"><title>Node4</title>
<g id="a_node4"><a xlink:href="$d4/dec/namespacemarian_1_1inits.html#a8838c47537f434b855491cd3ed97ccd1" xlink:title="marian::inits::glorot\l_uniform">
<polygon fill="white" stroke="black" points="140.5,-77 140.5,-107 240.5,-107 240.5,-77 140.5,-77"/>
<text text-anchor="start" x="148.5" y="-95" font-family="Helvetica,sans-Serif" font-size="10.00">marian::inits::glorot</text>
<text text-anchor="middle" x="190.5" y="-84" font-family="Helvetica,sans-Serif" font-size="10.00">_uniform</text>
</a>
</g>
</g>
<!-- Node1&#45;&gt;Node4 -->
<g id="edge3" class="edge"><title>Node1&#45;&gt;Node4</title>
<path fill="none" stroke="midnightblue" d="M104.216,-92C112.698,-92 121.555,-92 130.216,-92"/>
<polygon fill="midnightblue" stroke="midnightblue" points="130.26,-95.5001 140.26,-92 130.26,-88.5001 130.26,-95.5001"/>
</g>
<!-- Node5 -->
<g id="node5" class="node"><title>Node5</title>
<g id="a_node5"><a xlink:href="$d4/dec/namespacemarian_1_1inits.html#a1bd34fd256e3df7bb1e27955a7f2b359" xlink:title="marian::inits::zeros">
<polygon fill="white" stroke="black" points="140.5,-38.5 140.5,-57.5 240.5,-57.5 240.5,-38.5 140.5,-38.5"/>
<text text-anchor="middle" x="190.5" y="-45.5" font-family="Helvetica,sans-Serif" font-size="10.00">marian::inits::zeros</text>
</a>
</g>
</g>
<!-- Node1&#45;&gt;Node5 -->
<g id="edge4" class="edge"><title>Node1&#45;&gt;Node5</title>
<path fill="none" stroke="midnightblue" d="M99.5938,-76.9808C115.939,-71.7119 134.134,-65.847 149.855,-60.7792"/>
<polygon fill="midnightblue" stroke="midnightblue" points="151.342,-63.9776 159.786,-57.5783 149.194,-57.3151 151.342,-63.9776"/>
</g>
<!-- Node6 -->
<g id="node6" class="node"><title>Node6</title>
<g id="a_node6"><a xlink:href="$da/d22/namespacemarian.html#a3dbe8b5eb203876cd08cf3fe75a1c6bc" xlink:title="marian::convolution">
<polygon fill="white" stroke="black" points="140,-0.5 140,-19.5 241,-19.5 241,-0.5 140,-0.5"/>
<text text-anchor="middle" x="190.5" y="-7.5" font-family="Helvetica,sans-Serif" font-size="10.00">marian::convolution</text>
</a>
</g>
</g>
<!-- Node1&#45;&gt;Node6 -->
<g id="edge5" class="edge"><title>Node1&#45;&gt;Node6</title>
<path fill="none" stroke="midnightblue" d="M71.0733,-76.75C88.0538,-62.9623 114.587,-42.772 140,-29 143.687,-27.0017 147.63,-25.1129 151.621,-23.3578"/>
<polygon fill="midnightblue" stroke="midnightblue" points="153.014,-26.5692 160.921,-19.517 150.342,-20.0993 153.014,-26.5692"/>
</g>
</g>
</svg>
