<?xml version="1.0" encoding="UTF-8" standalone="no"?>
<!DOCTYPE svg PUBLIC "-//W3C//DTD SVG 1.1//EN"
 "http://www.w3.org/Graphics/SVG/1.1/DTD/svg11.dtd">
<!-- Generated by graphviz version 2.38.0 (20140413.2041)
 -->
<!-- Title: marian::Vocab::loadOrCreate Pages: 1 -->
<svg width="413pt" height="66pt"
 viewBox="0.00 0.00 413.00 66.00" xmlns="http://www.w3.org/2000/svg" xmlns:xlink="http://www.w3.org/1999/xlink">
<g id="graph0" class="graph" transform="scale(1 1) rotate(0) translate(4 62)">
<title>marian::Vocab::loadOrCreate</title>
<polygon fill="white" stroke="none" points="-4,4 -4,-62 409,-62 409,4 -4,4"/>
<!-- Node1 -->
<g id="node1" class="node"><title>Node1</title>
<polygon fill="#bfbfbf" stroke="black" points="0,-19.5 0,-38.5 143,-38.5 143,-19.5 0,-19.5"/>
<text text-anchor="middle" x="71.5" y="-26.5" font-family="Helvetica,sans-Serif" font-size="10.00">marian::Vocab::loadOrCreate</text>
</g>
<!-- Node2 -->
<g id="node2" class="node"><title>Node2</title>
<g id="a_node2"><a xlink:href="$db/dd1/classmarian_1_1Vocab.html#a8387e1e9b7923b9d84c0b4defd25bd76" xlink:title="marian::Vocab::load">
<polygon fill="white" stroke="black" points="183.5,-38.5 183.5,-57.5 287.5,-57.5 287.5,-38.5 183.5,-38.5"/>
<text text-anchor="middle" x="235.5" y="-45.5" font-family="Helvetica,sans-Serif" font-size="10.00">marian::Vocab::load</text>
</a>
</g>
</g>
<!-- Node1&#45;&gt;Node2 -->
<g id="edge1" class="edge"><title>Node1&#45;&gt;Node2</title>
<path fill="none" stroke="midnightblue" d="M143.084,-37.2784C153.083,-38.4511 163.297,-39.649 173.103,-40.7991"/>
<polygon fill="midnightblue" stroke="midnightblue" points="172.809,-44.2885 183.148,-41.9773 173.624,-37.3362 172.809,-44.2885"/>
</g>
<!-- Node3 -->
<g id="node3" class="node"><title>Node3</title>
<g id="a_node3"><a xlink:href="$db/dd1/classmarian_1_1Vocab.html#aeb5be1eaae536e408eac5ab06f50d9c1" xlink:title="marian::Vocab::create">
<polygon fill="white" stroke="black" points="179,-0.5 179,-19.5 292,-19.5 292,-0.5 179,-0.5"/>
<text text-anchor="middle" x="235.5" y="-7.5" font-family="Helvetica,sans-Serif" font-size="10.00">marian::Vocab::create</text>
</a>
</g>
</g>
<!-- Node1&#45;&gt;Node3 -->
<g id="edge2" class="edge"><title>Node1&#45;&gt;Node3</title>
<path fill="none" stroke="midnightblue" d="M143.084,-20.7216C151.571,-19.7263 160.212,-18.7127 168.628,-17.7257"/>
<polygon fill="midnightblue" stroke="midnightblue" points="169.232,-21.179 178.756,-16.5379 168.416,-14.2267 169.232,-21.179"/>
</g>
<!-- Node4 -->
<g id="node4" class="node"><title>Node4</title>
<g id="a_node4"><a xlink:href="$d7/dd3/namespaceamunmt.html#a10b7486d36b130609c77e8356218c0a7" xlink:title="amunmt::Split">
<polygon fill="white" stroke="black" points="328,-0.5 328,-19.5 405,-19.5 405,-0.5 328,-0.5"/>
<text text-anchor="middle" x="366.5" y="-7.5" font-family="Helvetica,sans-Serif" font-size="10.00">amunmt::Split</text>
</a>
</g>
</g>
<!-- Node3&#45;&gt;Node4 -->
<g id="edge3" class="edge"><title>Node3&#45;&gt;Node4</title>
<path fill="none" stroke="midnightblue" d="M292.331,-10C300.758,-10 309.385,-10 317.624,-10"/>
<polygon fill="midnightblue" stroke="midnightblue" points="317.809,-13.5001 327.809,-10 317.808,-6.5001 317.809,-13.5001"/>
</g>
</g>
</svg>
