<?xml version="1.0" encoding="UTF-8" standalone="no"?>
<!DOCTYPE svg PUBLIC "-//W3C//DTD SVG 1.1//EN"
 "http://www.w3.org/Graphics/SVG/1.1/DTD/svg11.dtd">
<!-- Generated by graphviz version 2.38.0 (20140413.2041)
 -->
<!-- Title: marian::data::DatasetBase&lt; Sample, Iterator, Batch &gt; Pages: 1 -->
<svg width="144pt" height="259pt"
 viewBox="0.00 0.00 144.00 259.00" xmlns="http://www.w3.org/2000/svg" xmlns:xlink="http://www.w3.org/1999/xlink">
<g id="graph0" class="graph" transform="scale(1 1) rotate(0) translate(4 255)">
<title>marian::data::DatasetBase&lt; Sample, Iterator, Batch &gt;</title>
<polygon fill="white" stroke="none" points="-4,4 -4,-255 140,-255 140,4 -4,4"/>
<!-- Node1 -->
<g id="node1" class="node"><title>Node1</title>
<polygon fill="#bfbfbf" stroke="black" points="0,-0.5 0,-145.5 136,-145.5 136,-0.5 0,-0.5"/>
<text text-anchor="start" x="8" y="-133.5" font-family="Helvetica,sans-Serif" font-size="10.00">marian::data::DatasetBase</text>
<text text-anchor="middle" x="68" y="-122.5" font-family="Helvetica,sans-Serif" font-size="10.00">&lt; Sample, Iterator, Batch &gt;</text>
<polyline fill="none" stroke="black" points="0,-115.5 136,-115.5 "/>
<text text-anchor="middle" x="68" y="-103.5" font-family="Helvetica,sans-Serif" font-size="10.00"> </text>
<polyline fill="none" stroke="black" points="0,-96.5 136,-96.5 "/>
<text text-anchor="start" x="8" y="-84.5" font-family="Helvetica,sans-Serif" font-size="10.00">+ DatasetBase()</text>
<text text-anchor="start" x="8" y="-73.5" font-family="Helvetica,sans-Serif" font-size="10.00">+ DatasetBase()</text>
<text text-anchor="start" x="8" y="-62.5" font-family="Helvetica,sans-Serif" font-size="10.00">+ begin()</text>
<text text-anchor="start" x="8" y="-51.5" font-family="Helvetica,sans-Serif" font-size="10.00">+ end()</text>
<text text-anchor="start" x="8" y="-40.5" font-family="Helvetica,sans-Serif" font-size="10.00">+ shuffle()</text>
<text text-anchor="start" x="8" y="-29.5" font-family="Helvetica,sans-Serif" font-size="10.00">+ toBatch()</text>
<text text-anchor="start" x="8" y="-18.5" font-family="Helvetica,sans-Serif" font-size="10.00">+ reset()</text>
<text text-anchor="start" x="8" y="-7.5" font-family="Helvetica,sans-Serif" font-size="10.00">+ prepare()</text>
</g>
<!-- Node2 -->
<g id="node2" class="node"><title>Node2</title>
<polygon fill="white" stroke="#bfbfbf" points="5.5,-193.5 5.5,-250.5 130.5,-250.5 130.5,-193.5 5.5,-193.5"/>
<text text-anchor="middle" x="68" y="-238.5" font-family="Helvetica,sans-Serif" font-size="10.00">std::vector&lt; std::string &gt;</text>
<polyline fill="none" stroke="#bfbfbf" points="5.5,-231.5 130.5,-231.5 "/>
<text text-anchor="middle" x="68" y="-219.5" font-family="Helvetica,sans-Serif" font-size="10.00"> </text>
<polyline fill="none" stroke="#bfbfbf" points="5.5,-212.5 130.5,-212.5 "/>
<text text-anchor="middle" x="68" y="-200.5" font-family="Helvetica,sans-Serif" font-size="10.00"> </text>
</g>
<!-- Node2&#45;&gt;Node1 -->
<g id="edge1" class="edge"><title>Node2&#45;&gt;Node1</title>
<path fill="none" stroke="#404040" d="M68,-193.35C68,-183.014 68,-170.664 68,-157.886"/>
<polygon fill="none" stroke="#404040" points="68.0001,-157.555 64,-151.556 68,-145.555 72,-151.555 68.0001,-157.555"/>
<text text-anchor="middle" x="87" y="-167" font-family="Helvetica,sans-Serif" font-size="10.00"> #paths_</text>
</g>
</g>
</svg>
