<?xml version="1.0" encoding="UTF-8" standalone="no"?>
<!DOCTYPE svg PUBLIC "-//W3C//DTD SVG 1.1//EN"
 "http://www.w3.org/Graphics/SVG/1.1/DTD/svg11.dtd">
<!-- Generated by graphviz version 2.38.0 (20140413.2041)
 -->
<!-- Title: marian.h Pages: 1 -->
<!--zoomable 532 -->
<svg id="main" version="1.1" xmlns="http://www.w3.org/2000/svg" xmlns:xlink="http://www.w3.org/1999/xlink" xml:space="preserve" onload="init(evt)">
<style type="text/css"><![CDATA[
.edge:hover path { stroke: red; }
.edge:hover polygon { stroke: red; fill: red; }
]]></style>
<script type="text/javascript"><![CDATA[
var edges = document.getElementsByTagName('g');
if (edges && edges.length) {
  for (var i=0;i<edges.length;i++) {
    if (edges[i].id.substr(0,4)=='edge') {
      edges[i].setAttribute('class','edge');
    }
  }
}
]]></script>
        <defs>
                <circle id="rim" cx="0" cy="0" r="7"/>
                <circle id="rim2" cx="0" cy="0" r="3.5"/>
                <g id="zoomPlus">
                        <use xlink:href="#rim" fill="#404040">
                                <set attributeName="fill" to="#808080" begin="zoomplus.mouseover" end="zoomplus.mouseout"/>
                        </use>
                        <path d="M-4,0h8M0,-4v8" fill="none" stroke="white" stroke-width="1.5" pointer-events="none"/>
                </g>
                <g id="zoomMin">
                        <use xlink:href="#rim" fill="#404040">
                                <set attributeName="fill" to="#808080" begin="zoomminus.mouseover" end="zoomminus.mouseout"/>
                        </use>
                        <path d="M-4,0h8" fill="none" stroke="white" stroke-width="1.5" pointer-events="none"/>
                </g>
                <g id="dirArrow">
                        <path fill="none" stroke="white" stroke-width="1.5" d="M0,-3.0v7 M-2.5,-0.5L0,-3.0L2.5,-0.5"/>
                </g>
               <g id="resetDef">
                       <use xlink:href="#rim2" fill="#404040">
                               <set attributeName="fill" to="#808080" begin="reset.mouseover" end="reset.mouseout"/>
                       </use>
               </g>
        </defs>

<script type="text/javascript">
var viewWidth = 811;
var viewHeight = 532;
var sectionId = 'dynsection-1';
</script>
<script xlink:href="../../svgpan.js"/>
<svg id="graph" class="graph">
<g id="viewport">
<title>marian.h</title>
<polygon fill="white" stroke="none" points="-4,4 -4,-528 807,-528 807,4 -4,4"/>
<!-- Node1 -->
<g id="node1" class="node"><title>Node1</title>
<polygon fill="#bfbfbf" stroke="black" points="530,-504.5 530,-523.5 584,-523.5 584,-504.5 530,-504.5"/>
<text text-anchor="middle" x="557" y="-511.5" font-family="Helvetica,sans-Serif" font-size="10.00">marian.h</text>
</g>
<!-- Node2 -->
<g id="node2" class="node"><title>Node2</title>
<g id="a_node2"><a xlink:href="../../d0/d0e/s2s__rescorer_8cpp.html" target="_top" xlink:title="s2s_rescorer.cpp">
<polygon fill="white" stroke="black" points="11,-168.5 11,-187.5 103,-187.5 103,-168.5 11,-168.5"/>
<text text-anchor="middle" x="57" y="-175.5" font-family="Helvetica,sans-Serif" font-size="10.00">s2s_rescorer.cpp</text>
</a>
</g>
</g>
<!-- Node1&#45;&gt;Node2 -->
<g id="edge1" class="edge"><title>Node1&#45;&gt;Node2</title>
<path fill="none" stroke="midnightblue" d="M519.76,-512.635C420.274,-511.179 150.405,-503.932 70,-468 31.2388,-450.678 0,-445.455 0,-403 0,-403 0,-403 0,-289 0,-247.058 33.0723,-205.188 48.8333,-187.616"/>
<polygon fill="midnightblue" stroke="midnightblue" points="519.893,-516.137 529.939,-512.773 519.987,-509.138 519.893,-516.137"/>
</g>
<!-- Node3 -->
<g id="node3" class="node"><title>Node3</title>
<g id="a_node3"><a xlink:href="../../df/df1/s2s__translator_8cpp.html" target="_top" xlink:title="s2s_translator.cpp">
<polygon fill="white" stroke="black" points="432.5,-168.5 432.5,-187.5 529.5,-187.5 529.5,-168.5 432.5,-168.5"/>
<text text-anchor="middle" x="481" y="-175.5" font-family="Helvetica,sans-Serif" font-size="10.00">s2s_translator.cpp</text>
</a>
</g>
</g>
<!-- Node1&#45;&gt;Node3 -->
<g id="edge2" class="edge"><title>Node1&#45;&gt;Node3</title>
<path fill="none" stroke="midnightblue" d="M594.148,-506.15C644.174,-494.533 727,-465.816 727,-403 727,-403 727,-403 727,-289 727,-243.854 587.18,-204.258 518.362,-187.504"/>
<polygon fill="midnightblue" stroke="midnightblue" points="593.328,-502.746 584.313,-508.312 594.832,-509.583 593.328,-502.746"/>
</g>
<!-- Node4 -->
<g id="node4" class="node"><title>Node4</title>
<g id="a_node4"><a xlink:href="../../dc/df8/iris_8cpp.html" target="_top" xlink:title="iris.cpp">
<polygon fill="white" stroke="black" points="755,-448.5 755,-467.5 803,-467.5 803,-448.5 755,-448.5"/>
<text text-anchor="middle" x="779" y="-455.5" font-family="Helvetica,sans-Serif" font-size="10.00">iris.cpp</text>
</a>
</g>
</g>
<!-- Node1&#45;&gt;Node4 -->
<g id="edge3" class="edge"><title>Node1&#45;&gt;Node4</title>
<path fill="none" stroke="midnightblue" d="M594.04,-503.99C639.768,-492.867 716.225,-474.27 754.952,-464.85"/>
<polygon fill="midnightblue" stroke="midnightblue" points="593.111,-500.614 584.222,-506.379 594.765,-507.416 593.111,-500.614"/>
</g>
<!-- Node5 -->
<g id="node5" class="node"><title>Node5</title>
<g id="a_node5"><a xlink:href="../../d6/d95/encdec_8h.html" target="_top" xlink:title="encdec.h">
<polygon fill="white" stroke="black" points="529,-448.5 529,-467.5 585,-467.5 585,-448.5 529,-448.5"/>
<text text-anchor="middle" x="557" y="-455.5" font-family="Helvetica,sans-Serif" font-size="10.00">encdec.h</text>
</a>
</g>
</g>
<!-- Node1&#45;&gt;Node5 -->
<g id="edge4" class="edge"><title>Node1&#45;&gt;Node5</title>
<path fill="none" stroke="midnightblue" d="M550.528,-494.101C549.896,-485.136 550.343,-474.858 551.869,-467.751"/>
<polygon fill="midnightblue" stroke="midnightblue" points="547.066,-494.622 551.834,-504.083 554.007,-493.713 547.066,-494.622"/>
</g>
<!-- Node7 -->
<g id="node7" class="node"><title>Node7</title>
<g id="a_node7"><a xlink:href="../../d2/dbf/amun_8h.html" target="_top" xlink:title="amun.h">
<polygon fill="white" stroke="black" points="222.5,-336.5 222.5,-355.5 271.5,-355.5 271.5,-336.5 222.5,-336.5"/>
<text text-anchor="middle" x="247" y="-343.5" font-family="Helvetica,sans-Serif" font-size="10.00">amun.h</text>
</a>
</g>
</g>
<!-- Node1&#45;&gt;Node7 -->
<g id="edge7" class="edge"><title>Node1&#45;&gt;Node7</title>
<path fill="none" stroke="midnightblue" d="M519.867,-510.045C425.355,-501.661 179.845,-474.191 133,-412 107.093,-377.606 181.576,-358.568 222.338,-350.959"/>
<polygon fill="midnightblue" stroke="midnightblue" points="519.576,-513.533 529.841,-510.908 520.18,-506.559 519.576,-513.533"/>
</g>
<!-- Node10 -->
<g id="node10" class="node"><title>Node10</title>
<g id="a_node10"><a xlink:href="../../de/d5d/rescorer_8h.html" target="_top" xlink:title="rescorer.h">
<polygon fill="white" stroke="black" points="84,-224.5 84,-243.5 144,-243.5 144,-224.5 84,-224.5"/>
<text text-anchor="middle" x="114" y="-231.5" font-family="Helvetica,sans-Serif" font-size="10.00">rescorer.h</text>
</a>
</g>
</g>
<!-- Node1&#45;&gt;Node10 -->
<g id="edge46" class="edge"><title>Node1&#45;&gt;Node10</title>
<path fill="none" stroke="midnightblue" d="M519.742,-513.048C400.809,-512.209 38,-501.572 38,-403 38,-403 38,-403 38,-345 38,-300.201 81.1965,-260.429 102.457,-243.567"/>
<polygon fill="midnightblue" stroke="midnightblue" points="519.809,-516.548 529.827,-513.099 519.845,-509.548 519.809,-516.548"/>
</g>
<!-- Node14 -->
<g id="node14" class="node"><title>Node14</title>
<g id="a_node14"><a xlink:href="../../d2/d00/scorers_8h.html" target="_top" xlink:title="scorers.h">
<polygon fill="white" stroke="black" points="444.5,-280.5 444.5,-299.5 501.5,-299.5 501.5,-280.5 444.5,-280.5"/>
<text text-anchor="middle" x="473" y="-287.5" font-family="Helvetica,sans-Serif" font-size="10.00">scorers.h</text>
</a>
</g>
</g>
<!-- Node1&#45;&gt;Node14 -->
<g id="edge48" class="edge"><title>Node1&#45;&gt;Node14</title>
<path fill="none" stroke="midnightblue" d="M581.974,-498.903C592.939,-491.282 604.726,-480.796 611,-468 625.876,-437.661 628.391,-422.081 613,-392 588.36,-343.841 528.867,-313.383 495.919,-299.606"/>
<polygon fill="midnightblue" stroke="midnightblue" points="579.98,-496.024 573.478,-504.389 583.777,-501.904 579.98,-496.024"/>
</g>
<!-- Node15 -->
<g id="node15" class="node"><title>Node15</title>
<g id="a_node15"><a xlink:href="../../d3/ddc/beam__search_8h.html" target="_top" xlink:title="beam_search.h">
<polygon fill="white" stroke="black" points="534.5,-224.5 534.5,-243.5 617.5,-243.5 617.5,-224.5 534.5,-224.5"/>
<text text-anchor="middle" x="576" y="-231.5" font-family="Helvetica,sans-Serif" font-size="10.00">beam_search.h</text>
</a>
</g>
</g>
<!-- Node1&#45;&gt;Node15 -->
<g id="edge47" class="edge"><title>Node1&#45;&gt;Node15</title>
<path fill="none" stroke="midnightblue" d="M592.901,-500.776C631.988,-484.919 689,-453.188 689,-403 689,-403 689,-403 689,-345 689,-293.803 628.705,-258.707 596.202,-243.508"/>
<polygon fill="midnightblue" stroke="midnightblue" points="591.45,-497.585 583.395,-504.467 593.984,-504.11 591.45,-497.585"/>
</g>
<!-- Node19 -->
<g id="node19" class="node"><title>Node19</title>
<g id="a_node19"><a xlink:href="../../d7/d82/hardatt_8h.html" target="_top" xlink:title="hardatt.h">
<polygon fill="white" stroke="black" points="417.5,-336.5 417.5,-355.5 472.5,-355.5 472.5,-336.5 417.5,-336.5"/>
<text text-anchor="middle" x="445" y="-343.5" font-family="Helvetica,sans-Serif" font-size="10.00">hardatt.h</text>
</a>
</g>
</g>
<!-- Node1&#45;&gt;Node19 -->
<g id="edge30" class="edge"><title>Node1&#45;&gt;Node19</title>
<path fill="none" stroke="midnightblue" d="M574.64,-497.152C582.143,-489.231 590.059,-478.997 594,-468 605.394,-436.202 614.138,-419.118 594,-392 566.049,-354.36 507.545,-347.07 472.741,-346.281"/>
<polygon fill="midnightblue" stroke="midnightblue" points="572.108,-494.734 567.438,-504.245 577.019,-499.722 572.108,-494.734"/>
</g>
<!-- Node20 -->
<g id="node20" class="node"><title>Node20</title>
<g id="a_node20"><a xlink:href="../../d5/dde/multi__s2s_8h.html" target="_top" xlink:title="multi_s2s.h">
<polygon fill="white" stroke="black" points="405.5,-392.5 405.5,-411.5 472.5,-411.5 472.5,-392.5 405.5,-392.5"/>
<text text-anchor="middle" x="439" y="-399.5" font-family="Helvetica,sans-Serif" font-size="10.00">multi_s2s.h</text>
</a>
</g>
</g>
<!-- Node1&#45;&gt;Node20 -->
<g id="edge33" class="edge"><title>Node1&#45;&gt;Node20</title>
<path fill="none" stroke="midnightblue" d="M540.385,-497.512C515.171,-474.007 468.081,-430.11 448.216,-411.591"/>
<polygon fill="midnightblue" stroke="midnightblue" points="538.039,-500.11 547.741,-504.368 542.813,-494.99 538.039,-500.11"/>
</g>
<!-- Node21 -->
<g id="node21" class="node"><title>Node21</title>
<g id="a_node21"><a xlink:href="../../da/da6/s2s_8h.html" target="_top" xlink:title="s2s.h">
<polygon fill="white" stroke="black" points="337.5,-448.5 337.5,-467.5 378.5,-467.5 378.5,-448.5 337.5,-448.5"/>
<text text-anchor="middle" x="358" y="-455.5" font-family="Helvetica,sans-Serif" font-size="10.00">s2s.h</text>
</a>
</g>
</g>
<!-- Node1&#45;&gt;Node21 -->
<g id="edge37" class="edge"><title>Node1&#45;&gt;Node21</title>
<path fill="none" stroke="midnightblue" d="M519.962,-502.949C478.244,-491.629 411.929,-473.634 378.58,-464.584"/>
<polygon fill="midnightblue" stroke="midnightblue" points="519.18,-506.364 529.747,-505.605 521.013,-499.608 519.18,-506.364"/>
</g>
<!-- Node5&#45;&gt;Node1 -->
<g id="edge5" class="edge"><title>Node5&#45;&gt;Node1</title>
<path fill="none" stroke="midnightblue" d="M563.458,-477.691C564.106,-486.635 563.676,-496.927 562.166,-504.083"/>
<polygon fill="midnightblue" stroke="midnightblue" points="566.923,-477.2 562.131,-467.751 559.985,-478.126 566.923,-477.2"/>
</g>
<!-- Node6 -->
<g id="node6" class="node"><title>Node6</title>
<g id="a_node6"><a xlink:href="../../d6/d50/pooling_8h.html" target="_top" xlink:title="pooling.h">
<polygon fill="white" stroke="black" points="529,-392.5 529,-411.5 585,-411.5 585,-392.5 529,-392.5"/>
<text text-anchor="middle" x="557" y="-399.5" font-family="Helvetica,sans-Serif" font-size="10.00">pooling.h</text>
</a>
</g>
</g>
<!-- Node5&#45;&gt;Node6 -->
<g id="edge6" class="edge"><title>Node5&#45;&gt;Node6</title>
<path fill="none" stroke="midnightblue" d="M557,-437.805C557,-428.91 557,-418.78 557,-411.751"/>
<polygon fill="midnightblue" stroke="midnightblue" points="553.5,-438.083 557,-448.083 560.5,-438.083 553.5,-438.083"/>
</g>
<!-- Node8 -->
<g id="node8" class="node"><title>Node8</title>
<g id="a_node8"><a xlink:href="../../d1/dd1/model__task_8h.html" target="_top" xlink:title="model_task.h">
<polygon fill="white" stroke="black" points="291.5,-280.5 291.5,-299.5 366.5,-299.5 366.5,-280.5 291.5,-280.5"/>
<text text-anchor="middle" x="329" y="-287.5" font-family="Helvetica,sans-Serif" font-size="10.00">model_task.h</text>
</a>
</g>
</g>
<!-- Node7&#45;&gt;Node8 -->
<g id="edge8" class="edge"><title>Node7&#45;&gt;Node8</title>
<path fill="none" stroke="midnightblue" d="M268.833,-330.622C283.813,-320.757 303.197,-307.992 315.858,-299.655"/>
<polygon fill="midnightblue" stroke="midnightblue" points="266.601,-327.901 260.175,-336.324 270.451,-333.747 266.601,-327.901"/>
</g>
<!-- Node7&#45;&gt;Node10 -->
<g id="edge16" class="edge"><title>Node7&#45;&gt;Node10</title>
<path fill="none" stroke="midnightblue" d="M228.641,-329.816C200.314,-306.387 146.875,-262.19 124.388,-243.591"/>
<polygon fill="midnightblue" stroke="midnightblue" points="226.627,-332.692 236.564,-336.368 231.088,-327.298 226.627,-332.692"/>
</g>
<!-- Node7&#45;&gt;Node14 -->
<g id="edge17" class="edge"><title>Node7&#45;&gt;Node14</title>
<path fill="none" stroke="midnightblue" d="M281.393,-336.782C325.878,-326.153 402.572,-307.828 444.162,-297.891"/>
<polygon fill="midnightblue" stroke="midnightblue" points="280.529,-333.39 271.616,-339.118 282.156,-340.198 280.529,-333.39"/>
</g>
<!-- Node9 -->
<g id="node9" class="node"><title>Node9</title>
<g id="a_node9"><a xlink:href="../../d2/d10/examples_2mnist_2training_8h.html" target="_top" xlink:title="training.h">
<polygon fill="white" stroke="black" points="329,-56.5 329,-75.5 385,-75.5 385,-56.5 329,-56.5"/>
<text text-anchor="middle" x="357" y="-63.5" font-family="Helvetica,sans-Serif" font-size="10.00">training.h</text>
</a>
</g>
</g>
<!-- Node8&#45;&gt;Node9 -->
<g id="edge9" class="edge"><title>Node8&#45;&gt;Node9</title>
<path fill="none" stroke="midnightblue" d="M322.804,-270.455C312.812,-237.382 296.25,-166.576 317,-112 322.721,-96.9535 336.034,-83.7254 345.734,-75.5728"/>
<polygon fill="midnightblue" stroke="midnightblue" points="319.518,-271.672 325.877,-280.146 326.19,-269.556 319.518,-271.672"/>
</g>
<!-- Node8&#45;&gt;Node10 -->
<g id="edge10" class="edge"><title>Node8&#45;&gt;Node10</title>
<path fill="none" stroke="midnightblue" d="M284.973,-277.942C242.941,-267.385 180.739,-251.762 144.092,-242.558"/>
<polygon fill="midnightblue" stroke="midnightblue" points="284.381,-281.402 294.933,-280.444 286.086,-274.613 284.381,-281.402"/>
</g>
<!-- Node11 -->
<g id="node11" class="node"><title>Node11</title>
<g id="a_node11"><a xlink:href="../../df/d43/training_2training_8h.html" target="_top" xlink:title="training.h">
<polygon fill="white" stroke="black" points="474,-56.5 474,-75.5 530,-75.5 530,-56.5 474,-56.5"/>
<text text-anchor="middle" x="502" y="-63.5" font-family="Helvetica,sans-Serif" font-size="10.00">training.h</text>
</a>
</g>
</g>
<!-- Node8&#45;&gt;Node11 -->
<g id="edge12" class="edge"><title>Node8&#45;&gt;Node11</title>
<path fill="none" stroke="midnightblue" d="M339.891,-271.489C356.054,-246.453 388.344,-199.931 424,-168 446.601,-147.76 463.473,-156.026 482,-132 495.122,-114.984 499.695,-89.3093 501.242,-75.8882"/>
<polygon fill="midnightblue" stroke="midnightblue" points="336.741,-269.921 334.336,-280.239 342.65,-273.673 336.741,-269.921"/>
</g>
<!-- Node13 -->
<g id="node13" class="node"><title>Node13</title>
<g id="a_node13"><a xlink:href="../../d9/df1/translator_8h.html" target="_top" xlink:title="translator.h">
<polygon fill="white" stroke="black" points="440.5,-224.5 440.5,-243.5 505.5,-243.5 505.5,-224.5 440.5,-224.5"/>
<text text-anchor="middle" x="473" y="-231.5" font-family="Helvetica,sans-Serif" font-size="10.00">translator.h</text>
</a>
</g>
</g>
<!-- Node8&#45;&gt;Node13 -->
<g id="edge14" class="edge"><title>Node8&#45;&gt;Node13</title>
<path fill="none" stroke="midnightblue" d="M361.251,-276.906C388.324,-266.754 426.317,-252.506 450.29,-243.516"/>
<polygon fill="midnightblue" stroke="midnightblue" points="359.952,-273.655 351.817,-280.444 362.409,-280.209 359.952,-273.655"/>
</g>
<!-- Node10&#45;&gt;Node2 -->
<g id="edge11" class="edge"><title>Node10&#45;&gt;Node2</title>
<path fill="none" stroke="midnightblue" d="M97.3785,-217.253C87.266,-207.673 74.7234,-195.791 66.3247,-187.834"/>
<polygon fill="midnightblue" stroke="midnightblue" points="95.1753,-219.987 104.842,-224.324 99.9895,-214.906 95.1753,-219.987"/>
</g>
<!-- Node12 -->
<g id="node12" class="node"><title>Node12</title>
<g id="a_node12"><a xlink:href="../../d8/d9d/graph__group_8h.html" target="_top" xlink:title="graph_group.h">
<polygon fill="white" stroke="black" points="463,-0.5 463,-19.5 541,-19.5 541,-0.5 463,-0.5"/>
<text text-anchor="middle" x="502" y="-7.5" font-family="Helvetica,sans-Serif" font-size="10.00">graph_group.h</text>
</a>
</g>
</g>
<!-- Node11&#45;&gt;Node12 -->
<g id="edge13" class="edge"><title>Node11&#45;&gt;Node12</title>
<path fill="none" stroke="midnightblue" d="M502,-45.8045C502,-36.9102 502,-26.7798 502,-19.7511"/>
<polygon fill="midnightblue" stroke="midnightblue" points="498.5,-46.083 502,-56.083 505.5,-46.083 498.5,-46.083"/>
</g>
<!-- Node13&#45;&gt;Node3 -->
<g id="edge15" class="edge"><title>Node13&#45;&gt;Node3</title>
<path fill="none" stroke="midnightblue" d="M475.8,-214.101C477.128,-205.136 478.651,-194.858 479.704,-187.751"/>
<polygon fill="midnightblue" stroke="midnightblue" points="472.324,-213.678 474.321,-224.083 479.249,-214.704 472.324,-213.678"/>
</g>
<!-- Node14&#45;&gt;Node13 -->
<g id="edge29" class="edge"><title>Node14&#45;&gt;Node13</title>
<path fill="none" stroke="midnightblue" d="M473,-269.805C473,-260.91 473,-250.78 473,-243.751"/>
<polygon fill="midnightblue" stroke="midnightblue" points="469.5,-270.083 473,-280.083 476.5,-270.083 469.5,-270.083"/>
</g>
<!-- Node14&#45;&gt;Node15 -->
<g id="edge18" class="edge"><title>Node14&#45;&gt;Node15</title>
<path fill="none" stroke="midnightblue" d="M498.579,-275.59C517.623,-265.605 543.064,-252.267 559.492,-243.655"/>
<polygon fill="midnightblue" stroke="midnightblue" points="496.78,-272.581 489.549,-280.324 500.031,-278.78 496.78,-272.581"/>
</g>
<!-- Node15&#45;&gt;Node3 -->
<g id="edge19" class="edge"><title>Node15&#45;&gt;Node3</title>
<path fill="none" stroke="midnightblue" d="M551.682,-219.177C534.201,-209.241 511.17,-196.149 496.226,-187.655"/>
<polygon fill="midnightblue" stroke="midnightblue" points="550.313,-222.425 560.737,-224.324 553.773,-216.339 550.313,-222.425"/>
</g>
<!-- Node16 -->
<g id="node16" class="node"><title>Node16</title>
<g id="a_node16"><a xlink:href="../../d7/d7d/training_2validator_8h.html" target="_top" xlink:title="validator.h">
<polygon fill="white" stroke="black" points="547,-168.5 547,-187.5 609,-187.5 609,-168.5 547,-168.5"/>
<text text-anchor="middle" x="578" y="-175.5" font-family="Helvetica,sans-Serif" font-size="10.00">validator.h</text>
</a>
</g>
</g>
<!-- Node15&#45;&gt;Node16 -->
<g id="edge20" class="edge"><title>Node15&#45;&gt;Node16</title>
<path fill="none" stroke="midnightblue" d="M576.711,-213.805C577.04,-204.91 577.416,-194.78 577.676,-187.751"/>
<polygon fill="midnightblue" stroke="midnightblue" points="573.203,-213.96 576.33,-224.083 580.198,-214.219 573.203,-213.96"/>
</g>
<!-- Node16&#45;&gt;Node11 -->
<g id="edge28" class="edge"><title>Node16&#45;&gt;Node11</title>
<path fill="none" stroke="midnightblue" d="M566.225,-159.957C549.755,-136.118 520.453,-93.7088 507.936,-75.5914"/>
<polygon fill="midnightblue" stroke="midnightblue" points="563.472,-162.131 572.036,-168.368 569.232,-158.152 563.472,-162.131"/>
</g>
<!-- Node16&#45;&gt;Node12 -->
<g id="edge23" class="edge"><title>Node16&#45;&gt;Node12</title>
<path fill="none" stroke="midnightblue" d="M574.262,-158.245C568.862,-133.683 557.451,-89.7772 539,-56 531.339,-41.9756 519.04,-28.1211 510.747,-19.569"/>
<polygon fill="midnightblue" stroke="midnightblue" points="570.901,-159.274 576.379,-168.343 577.752,-157.837 570.901,-159.274"/>
</g>
<!-- Node17 -->
<g id="node17" class="node"><title>Node17</title>
<g id="a_node17"><a xlink:href="../../da/d8c/examples_2mnist_2validator_8h.html" target="_top" xlink:title="validator.h">
<polygon fill="white" stroke="black" points="326,-112.5 326,-131.5 388,-131.5 388,-112.5 326,-112.5"/>
<text text-anchor="middle" x="357" y="-119.5" font-family="Helvetica,sans-Serif" font-size="10.00">validator.h</text>
</a>
</g>
</g>
<!-- Node16&#45;&gt;Node17 -->
<g id="edge21" class="edge"><title>Node16&#45;&gt;Node17</title>
<path fill="none" stroke="midnightblue" d="M536.916,-166.961C493.79,-156.424 426.954,-140.093 388.036,-130.584"/>
<polygon fill="midnightblue" stroke="midnightblue" points="536.26,-170.404 546.805,-169.378 537.921,-163.604 536.26,-170.404"/>
</g>
<!-- Node18 -->
<g id="node18" class="node"><title>Node18</title>
<g id="a_node18"><a xlink:href="../../d2/dd8/scheduler_8h.html" target="_top" xlink:title="scheduler.h">
<polygon fill="white" stroke="black" points="406.5,-112.5 406.5,-131.5 473.5,-131.5 473.5,-112.5 406.5,-112.5"/>
<text text-anchor="middle" x="440" y="-119.5" font-family="Helvetica,sans-Serif" font-size="10.00">scheduler.h</text>
</a>
</g>
</g>
<!-- Node16&#45;&gt;Node18 -->
<g id="edge24" class="edge"><title>Node16&#45;&gt;Node18</title>
<path fill="none" stroke="midnightblue" d="M546.751,-164.772C520.829,-154.629 484.638,-140.467 461.764,-131.516"/>
<polygon fill="midnightblue" stroke="midnightblue" points="545.546,-168.059 556.133,-168.444 548.096,-161.54 545.546,-168.059"/>
</g>
<!-- Node17&#45;&gt;Node9 -->
<g id="edge22" class="edge"><title>Node17&#45;&gt;Node9</title>
<path fill="none" stroke="midnightblue" d="M357,-101.805C357,-92.9102 357,-82.7798 357,-75.7511"/>
<polygon fill="midnightblue" stroke="midnightblue" points="353.5,-102.083 357,-112.083 360.5,-102.083 353.5,-102.083"/>
</g>
<!-- Node18&#45;&gt;Node9 -->
<g id="edge25" class="edge"><title>Node18&#45;&gt;Node9</title>
<path fill="none" stroke="midnightblue" d="M417.901,-106.622C402.738,-96.7574 383.117,-83.9919 370.302,-75.6545"/>
<polygon fill="midnightblue" stroke="midnightblue" points="416.374,-109.804 426.665,-112.324 420.191,-103.937 416.374,-109.804"/>
</g>
<!-- Node18&#45;&gt;Node11 -->
<g id="edge27" class="edge"><title>Node18&#45;&gt;Node11</title>
<path fill="none" stroke="midnightblue" d="M457.754,-105.537C468.808,-95.9087 482.631,-83.8694 491.857,-75.8339"/>
<polygon fill="midnightblue" stroke="midnightblue" points="455.203,-103.117 449.961,-112.324 459.801,-108.395 455.203,-103.117"/>
</g>
<!-- Node18&#45;&gt;Node12 -->
<g id="edge26" class="edge"><title>Node18&#45;&gt;Node12</title>
<path fill="none" stroke="midnightblue" d="M445.44,-102.244C449.74,-88.8546 456.439,-70.6899 465,-56 473.046,-42.193 485.255,-28.2876 493.422,-19.6646"/>
<polygon fill="midnightblue" stroke="midnightblue" points="441.977,-101.601 442.405,-112.187 448.672,-103.645 441.977,-101.601"/>
</g>
<!-- Node19&#45;&gt;Node8 -->
<g id="edge31" class="edge"><title>Node19&#45;&gt;Node8</title>
<path fill="none" stroke="midnightblue" d="M417.28,-332.096C395.608,-322.007 366.098,-308.27 347.295,-299.516"/>
<polygon fill="midnightblue" stroke="midnightblue" points="416.077,-335.396 426.619,-336.444 419.031,-329.05 416.077,-335.396"/>
</g>
<!-- Node19&#45;&gt;Node14 -->
<g id="edge32" class="edge"><title>Node19&#45;&gt;Node14</title>
<path fill="none" stroke="midnightblue" d="M454.342,-326.983C459.095,-317.817 464.656,-307.092 468.462,-299.751"/>
<polygon fill="midnightblue" stroke="midnightblue" points="451.12,-325.594 449.624,-336.083 457.334,-328.817 451.12,-325.594"/>
</g>
<!-- Node20&#45;&gt;Node8 -->
<g id="edge35" class="edge"><title>Node20&#45;&gt;Node8</title>
<path fill="none" stroke="midnightblue" d="M423.205,-385.205C399.627,-361.627 356.029,-318.029 337.591,-299.591"/>
<polygon fill="midnightblue" stroke="midnightblue" points="420.823,-387.772 430.368,-392.368 425.772,-382.823 420.823,-387.772"/>
</g>
<!-- Node20&#45;&gt;Node14 -->
<g id="edge36" class="edge"><title>Node20&#45;&gt;Node14</title>
<path fill="none" stroke="midnightblue" d="M422.764,-385.091C411.284,-371.829 399.351,-352.508 408,-336 417.045,-318.736 436.055,-306.779 451.192,-299.553"/>
<polygon fill="midnightblue" stroke="midnightblue" points="420.283,-387.562 429.664,-392.486 425.4,-382.787 420.283,-387.562"/>
</g>
<!-- Node20&#45;&gt;Node19 -->
<g id="edge34" class="edge"><title>Node20&#45;&gt;Node19</title>
<path fill="none" stroke="midnightblue" d="M441.1,-382.101C442.096,-373.136 443.238,-362.858 444.028,-355.751"/>
<polygon fill="midnightblue" stroke="midnightblue" points="437.617,-381.758 439.991,-392.083 444.574,-382.531 437.617,-381.758"/>
</g>
<!-- Node21&#45;&gt;Node6 -->
<g id="edge39" class="edge"><title>Node21&#45;&gt;Node6</title>
<path fill="none" stroke="midnightblue" d="M388.589,-448.699C426.87,-438.312 491.891,-420.668 528.945,-410.613"/>
<polygon fill="midnightblue" stroke="midnightblue" points="387.281,-445.428 378.547,-451.424 389.115,-452.183 387.281,-445.428"/>
</g>
<!-- Node21&#45;&gt;Node7 -->
<g id="edge38" class="edge"><title>Node21&#45;&gt;Node7</title>
<path fill="none" stroke="midnightblue" d="M330.195,-443.666C315.834,-435.838 298.708,-424.941 286,-412 269.218,-394.911 256.586,-369.267 250.686,-355.87"/>
<polygon fill="midnightblue" stroke="midnightblue" points="328.675,-446.822 339.158,-448.358 331.921,-440.62 328.675,-446.822"/>
</g>
<!-- Node21&#45;&gt;Node8 -->
<g id="edge42" class="edge"><title>Node21&#45;&gt;Node8</title>
<path fill="none" stroke="midnightblue" d="M339.424,-441.324C331.52,-433.44 323.173,-423.188 319,-412 304.118,-372.107 318.948,-319.833 325.866,-299.555"/>
<polygon fill="midnightblue" stroke="midnightblue" points="337.299,-444.128 347.01,-448.365 342.062,-438.997 337.299,-444.128"/>
</g>
<!-- Node21&#45;&gt;Node10 -->
<g id="edge44" class="edge"><title>Node21&#45;&gt;Node10</title>
<path fill="none" stroke="midnightblue" d="M327.03,-455.218C271.571,-451.343 158.691,-440.126 133,-412 88.3956,-363.167 105.087,-272.29 111.765,-243.786"/>
<polygon fill="midnightblue" stroke="midnightblue" points="327.104,-458.73 337.313,-455.898 327.566,-451.746 327.104,-458.73"/>
</g>
<!-- Node21&#45;&gt;Node14 -->
<g id="edge45" class="edge"><title>Node21&#45;&gt;Node14</title>
<path fill="none" stroke="midnightblue" d="M388.932,-455.246C418.106,-451.755 460.349,-441.546 481,-412 505.605,-376.799 485.916,-320.863 476.902,-299.592"/>
<polygon fill="midnightblue" stroke="midnightblue" points="388.444,-451.778 378.84,-456.252 389.138,-458.743 388.444,-451.778"/>
</g>
<!-- Node21&#45;&gt;Node20 -->
<g id="edge43" class="edge"><title>Node21&#45;&gt;Node20</title>
<path fill="none" stroke="midnightblue" d="M379.567,-442.622C394.364,-432.757 413.512,-419.992 426.018,-411.655"/>
<polygon fill="midnightblue" stroke="midnightblue" points="377.393,-439.865 371.014,-448.324 381.276,-445.689 377.393,-439.865"/>
</g>
<!-- Node22 -->
<g id="node22" class="node"><title>Node22</title>
<g id="a_node22"><a xlink:href="../../d8/d64/s2s__rec_8h.html" target="_top" xlink:title="s2s_rec.h">
<polygon fill="white" stroke="black" points="328.5,-392.5 328.5,-411.5 387.5,-411.5 387.5,-392.5 328.5,-392.5"/>
<text text-anchor="middle" x="358" y="-399.5" font-family="Helvetica,sans-Serif" font-size="10.00">s2s_rec.h</text>
</a>
</g>
</g>
<!-- Node21&#45;&gt;Node22 -->
<g id="edge40" class="edge"><title>Node21&#45;&gt;Node22</title>
<path fill="none" stroke="midnightblue" d="M358,-437.805C358,-428.91 358,-418.78 358,-411.751"/>
<polygon fill="midnightblue" stroke="midnightblue" points="354.5,-438.083 358,-448.083 361.5,-438.083 354.5,-438.083"/>
</g>
<!-- Node23 -->
<g id="node23" class="node"><title>Node23</title>
<g id="a_node23"><a xlink:href="../../d0/d19/s2s__symmetric_8h.html" target="_top" xlink:title="s2s_symmetric.h">
<polygon fill="white" stroke="black" points="142,-392.5 142,-411.5 234,-411.5 234,-392.5 142,-392.5"/>
<text text-anchor="middle" x="188" y="-399.5" font-family="Helvetica,sans-Serif" font-size="10.00">s2s_symmetric.h</text>
</a>
</g>
</g>
<!-- Node21&#45;&gt;Node23 -->
<g id="edge41" class="edge"><title>Node21&#45;&gt;Node23</title>
<path fill="none" stroke="midnightblue" d="M327.788,-447.403C295.793,-437.24 245.751,-421.345 215.023,-411.584"/>
<polygon fill="midnightblue" stroke="midnightblue" points="326.904,-450.795 337.494,-450.486 329.023,-444.123 326.904,-450.795"/>
</g>
</g>
</svg>
        <g id="navigator" transform="translate(0 0)" fill="#404254">
                <rect fill="#f2f5e9" fill-opacity="0.5" stroke="#606060" stroke-width=".5" x="0" y="0" width="60" height="60"/>
                <use id="zoomplus" xlink:href="#zoomPlus" x="17" y="9" onmousedown="handleZoom(evt,'in')"/>
                <use id="zoomminus" xlink:href="#zoomMin" x="42" y="9" onmousedown="handleZoom(evt,'out')"/>
                <use id="reset" xlink:href="#resetDef" x="30" y="36" onmousedown="handleReset()"/>
                <g id="arrowUp" xlink:href="#dirArrow" transform="translate(30 24)" onmousedown="handlePan(0,-1)">
                  <use xlink:href="#rim" fill="#404040">
                        <set attributeName="fill" to="#808080" begin="arrowUp.mouseover" end="arrowUp.mouseout"/>
                  </use>
                  <path fill="none" stroke="white" stroke-width="1.5" d="M0,-3.0v7 M-2.5,-0.5L0,-3.0L2.5,-0.5"/>
                </g>
                <g id="arrowRight" xlink:href="#dirArrow" transform="rotate(90) translate(36 -43)" onmousedown="handlePan(1,0)">
                  <use xlink:href="#rim" fill="#404040">
                        <set attributeName="fill" to="#808080" begin="arrowRight.mouseover" end="arrowRight.mouseout"/>
                  </use>
                  <path fill="none" stroke="white" stroke-width="1.5" d="M0,-3.0v7 M-2.5,-0.5L0,-3.0L2.5,-0.5"/>
                </g>
                <g id="arrowDown" xlink:href="#dirArrow" transform="rotate(180) translate(-30 -48)" onmousedown="handlePan(0,1)">
                  <use xlink:href="#rim" fill="#404040">
                        <set attributeName="fill" to="#808080" begin="arrowDown.mouseover" end="arrowDown.mouseout"/>
                  </use>
                  <path fill="none" stroke="white" stroke-width="1.5" d="M0,-3.0v7 M-2.5,-0.5L0,-3.0L2.5,-0.5"/>
                </g>
                <g id="arrowLeft" xlink:href="#dirArrow" transform="rotate(270) translate(-36 17)" onmousedown="handlePan(-1,0)">
                  <use xlink:href="#rim" fill="#404040">
                        <set attributeName="fill" to="#808080" begin="arrowLeft.mouseover" end="arrowLeft.mouseout"/>
                  </use>
                  <path fill="none" stroke="white" stroke-width="1.5" d="M0,-3.0v7 M-2.5,-0.5L0,-3.0L2.5,-0.5"/>
                </g>
        </g>
        <svg viewBox="0 0 15 15" width="100%" height="30px" preserveAspectRatio="xMaxYMin meet">
         <g id="arrow_out" transform="scale(0.3 0.3)">
          <a xlink:href="marian_8h__dep__incl_org.svg" target="_base">
           <rect id="button" ry="5" rx="5" y="6" x="6" height="38" width="38"
                fill="#f2f5e9" fill-opacity="0.5" stroke="#606060" stroke-width="1.0"/>
           <path id="arrow"
             d="M 11.500037,31.436501 C 11.940474,20.09759 22.043105,11.32322 32.158766,21.979434 L 37.068811,17.246167 C 37.068811,17.246167 37.088388,32 37.088388,32 L 22.160133,31.978069 C 22.160133,31.978069 26.997745,27.140456 26.997745,27.140456 C 18.528582,18.264221 13.291696,25.230495 11.500037,31.436501 z"
             style="fill:#404040;"/>
          </a>
         </g>
        </svg>
</svg>
