<?xml version="1.0" encoding="UTF-8" standalone="no"?>
<!DOCTYPE svg PUBLIC "-//W3C//DTD SVG 1.1//EN"
 "http://www.w3.org/Graphics/SVG/1.1/DTD/svg11.dtd">
<!-- Generated by graphviz version 2.38.0 (20140413.2041)
 -->
<!-- Title: BOOST_PYTHON_MODULE Pages: 1 -->
<!--zoomable 760 -->
<svg id="main" version="1.1" xmlns="http://www.w3.org/2000/svg" xmlns:xlink="http://www.w3.org/1999/xlink" xml:space="preserve" onload="init(evt)">
<style type="text/css"><![CDATA[
.edge:hover path { stroke: red; }
.edge:hover polygon { stroke: red; fill: red; }
]]></style>
<script type="text/javascript"><![CDATA[
var edges = document.getElementsByTagName('g');
if (edges && edges.length) {
  for (var i=0;i<edges.length;i++) {
    if (edges[i].id.substr(0,4)=='edge') {
      edges[i].setAttribute('class','edge');
    }
  }
}
]]></script>
        <defs>
                <circle id="rim" cx="0" cy="0" r="7"/>
                <circle id="rim2" cx="0" cy="0" r="3.5"/>
                <g id="zoomPlus">
                        <use xlink:href="#rim" fill="#404040">
                                <set attributeName="fill" to="#808080" begin="zoomplus.mouseover" end="zoomplus.mouseout"/>
                        </use>
                        <path d="M-4,0h8M0,-4v8" fill="none" stroke="white" stroke-width="1.5" pointer-events="none"/>
                </g>
                <g id="zoomMin">
                        <use xlink:href="#rim" fill="#404040">
                                <set attributeName="fill" to="#808080" begin="zoomminus.mouseover" end="zoomminus.mouseout"/>
                        </use>
                        <path d="M-4,0h8" fill="none" stroke="white" stroke-width="1.5" pointer-events="none"/>
                </g>
                <g id="dirArrow">
                        <path fill="none" stroke="white" stroke-width="1.5" d="M0,-3.0v7 M-2.5,-0.5L0,-3.0L2.5,-0.5"/>
                </g>
               <g id="resetDef">
                       <use xlink:href="#rim2" fill="#404040">
                               <set attributeName="fill" to="#808080" begin="reset.mouseover" end="reset.mouseout"/>
                       </use>
               </g>
        </defs>

<script type="text/javascript">
var viewWidth = 986;
var viewHeight = 760;
var sectionId = 'dynsection-1';
</script>
<script xlink:href="../../svgpan.js"/>
<svg id="graph" class="graph">
<g id="viewport">
<title>BOOST_PYTHON_MODULE</title>
<polygon fill="white" stroke="none" points="-4,4 -4,-756 982,-756 982,4 -4,4"/>
<!-- Node1 -->
<g id="node1" class="node"><title>Node1</title>
<polygon fill="#bfbfbf" stroke="black" points="0,-286.5 0,-305.5 146,-305.5 146,-286.5 0,-286.5"/>
<text text-anchor="middle" x="73" y="-293.5" font-family="Helvetica,sans-Serif" font-size="10.00">BOOST_PYTHON_MODULE</text>
</g>
<!-- Node2 -->
<g id="node2" class="node"><title>Node2</title>
<g id="a_node2"><a xlink:href="../../d5/d49/amunmt_8cpp.html#a2e8ddb8bd2f3405f554c9f2c52277f4b" target="_top" xlink:title="init">
<polygon fill="white" stroke="black" points="194.5,-375.5 194.5,-394.5 223.5,-394.5 223.5,-375.5 194.5,-375.5"/>
<text text-anchor="middle" x="209" y="-382.5" font-family="Helvetica,sans-Serif" font-size="10.00">init</text>
</a>
</g>
</g>
<!-- Node1&#45;&gt;Node2 -->
<g id="edge1" class="edge"><title>Node1&#45;&gt;Node2</title>
<path fill="none" stroke="midnightblue" d="M88.3403,-305.525C111.633,-320.995 157.866,-351.702 185.548,-370.088"/>
<polygon fill="midnightblue" stroke="midnightblue" points="183.898,-373.193 194.164,-375.811 187.771,-367.362 183.898,-373.193"/>
</g>
<!-- Node4 -->
<g id="node4" class="node"><title>Node4</title>
<g id="a_node4"><a xlink:href="../../d5/d49/amunmt_8cpp.html#a86ebd9110196f3b5328ad3c3d31cd007" target="_top" xlink:title="translate">
<polygon fill="white" stroke="black" points="182,-198.5 182,-217.5 236,-217.5 236,-198.5 182,-198.5"/>
<text text-anchor="middle" x="209" y="-205.5" font-family="Helvetica,sans-Serif" font-size="10.00">translate</text>
</a>
</g>
</g>
<!-- Node1&#45;&gt;Node4 -->
<g id="edge3" class="edge"><title>Node1&#45;&gt;Node4</title>
<path fill="none" stroke="midnightblue" d="M88.5954,-286.415C111.754,-271.207 157.119,-241.414 184.779,-223.25"/>
<polygon fill="midnightblue" stroke="midnightblue" points="186.985,-225.988 193.423,-217.573 183.143,-220.137 186.985,-225.988"/>
</g>
<!-- Node3 -->
<g id="node3" class="node"><title>Node3</title>
<g id="a_node3"><a xlink:href="../../d7/d4e/classamunmt_1_1God.html#add49c80e570f5be5b2802565458f1c36" target="_top" xlink:title="amunmt::God::Init">
<polygon fill="white" stroke="black" points="298,-473.5 298,-492.5 393,-492.5 393,-473.5 298,-473.5"/>
<text text-anchor="middle" x="345.5" y="-480.5" font-family="Helvetica,sans-Serif" font-size="10.00">amunmt::God::Init</text>
</a>
</g>
</g>
<!-- Node2&#45;&gt;Node3 -->
<g id="edge2" class="edge"><title>Node2&#45;&gt;Node3</title>
<path fill="none" stroke="midnightblue" d="M214.857,-394.686C223.787,-411.476 244.452,-445.918 272,-464 276.948,-467.248 282.426,-469.941 288.09,-472.175"/>
<polygon fill="midnightblue" stroke="midnightblue" points="287.142,-475.55 297.737,-475.516 289.433,-468.936 287.142,-475.55"/>
</g>
<!-- Node5 -->
<g id="node5" class="node"><title>Node5</title>
<g id="a_node5"><a xlink:href="../../d7/d4e/classamunmt_1_1God.html#ad0d3efbdf165ba0bc4de9052a826f7b6" target="_top" xlink:title="amunmt::God::Get">
<polygon fill="white" stroke="black" points="485,-214.5 485,-233.5 583,-233.5 583,-214.5 485,-214.5"/>
<text text-anchor="middle" x="534" y="-221.5" font-family="Helvetica,sans-Serif" font-size="10.00">amunmt::God::Get</text>
</a>
</g>
</g>
<!-- Node4&#45;&gt;Node5 -->
<g id="edge4" class="edge"><title>Node4&#45;&gt;Node5</title>
<path fill="none" stroke="midnightblue" d="M213.59,-217.716C221.094,-236.408 240.412,-276.942 272,-293 330.24,-322.606 360.851,-322.786 419,-293 443.372,-280.516 432.29,-258.3 455,-243 461.119,-238.878 468.043,-235.648 475.177,-233.117"/>
<polygon fill="midnightblue" stroke="midnightblue" points="476.462,-236.383 484.979,-230.082 474.392,-229.697 476.462,-236.383"/>
</g>
<!-- Node7 -->
<g id="node7" class="node"><title>Node7</title>
<g id="a_node7"><a xlink:href="../../d7/d4e/classamunmt_1_1God.html#adad806b2183b4dbf8c27c6078effb9b5" target="_top" xlink:title="amunmt::God::GetThreadPool">
<polygon fill="white" stroke="black" points="272,-264.5 272,-283.5 419,-283.5 419,-264.5 272,-264.5"/>
<text text-anchor="middle" x="345.5" y="-271.5" font-family="Helvetica,sans-Serif" font-size="10.00">amunmt::God::GetThreadPool</text>
</a>
</g>
</g>
<!-- Node4&#45;&gt;Node7 -->
<g id="edge6" class="edge"><title>Node4&#45;&gt;Node7</title>
<path fill="none" stroke="midnightblue" d="M220.612,-217.82C232.355,-228.196 252.243,-244.365 272,-254 277.699,-256.779 283.845,-259.224 290.063,-261.361"/>
<polygon fill="midnightblue" stroke="midnightblue" points="289.249,-264.775 299.84,-264.469 291.37,-258.104 289.249,-264.775"/>
</g>
<!-- Node8 -->
<g id="node8" class="node"><title>Node8</title>
<g id="a_node8"><a xlink:href="../../d9/de5/classamunmt_1_1ThreadPool.html#a1bb89599cb11af51958c771c437aff22" target="_top" xlink:title="amunmt::ThreadPool\l::enqueue">
<polygon fill="white" stroke="black" points="292,-215 292,-245 399,-245 399,-215 292,-215"/>
<text text-anchor="start" x="300" y="-233" font-family="Helvetica,sans-Serif" font-size="10.00">amunmt::ThreadPool</text>
<text text-anchor="middle" x="345.5" y="-222" font-family="Helvetica,sans-Serif" font-size="10.00">::enqueue</text>
</a>
</g>
</g>
<!-- Node4&#45;&gt;Node8 -->
<g id="edge7" class="edge"><title>Node4&#45;&gt;Node8</title>
<path fill="none" stroke="midnightblue" d="M236.252,-212.294C249.357,-214.438 265.821,-217.131 281.926,-219.765"/>
<polygon fill="midnightblue" stroke="midnightblue" points="281.44,-223.232 291.873,-221.392 282.57,-216.324 281.44,-223.232"/>
</g>
<!-- Node9 -->
<g id="node9" class="node"><title>Node9</title>
<g id="a_node9"><a xlink:href="../../d7/dd3/namespaceamunmt.html#a54e0c0c0dd1caecba5c17e45d023fd5e" target="_top" xlink:title="amunmt::TranslationTask">
<polygon fill="white" stroke="black" points="281.5,-176.5 281.5,-195.5 409.5,-195.5 409.5,-176.5 281.5,-176.5"/>
<text text-anchor="middle" x="345.5" y="-183.5" font-family="Helvetica,sans-Serif" font-size="10.00">amunmt::TranslationTask</text>
</a>
</g>
</g>
<!-- Node4&#45;&gt;Node9 -->
<g id="edge8" class="edge"><title>Node4&#45;&gt;Node9</title>
<path fill="none" stroke="midnightblue" d="M236.252,-203.706C247.868,-201.806 262.122,-199.474 276.426,-197.135"/>
<polygon fill="midnightblue" stroke="midnightblue" points="277.001,-200.587 286.305,-195.519 275.871,-193.679 277.001,-200.587"/>
</g>
<!-- Node21 -->
<g id="node21" class="node"><title>Node21</title>
<g id="a_node21"><a xlink:href="../../d2/d0b/classamunmt_1_1Histories.html#ac2fc201d1dcfc3a689b71f3da4769bd3" target="_top" xlink:title="amunmt::Histories::\lAppend">
<polygon fill="white" stroke="black" points="294,-127 294,-157 397,-157 397,-127 294,-127"/>
<text text-anchor="start" x="302" y="-145" font-family="Helvetica,sans-Serif" font-size="10.00">amunmt::Histories::</text>
<text text-anchor="middle" x="345.5" y="-134" font-family="Helvetica,sans-Serif" font-size="10.00">Append</text>
</a>
</g>
</g>
<!-- Node4&#45;&gt;Node21 -->
<g id="edge22" class="edge"><title>Node4&#45;&gt;Node21</title>
<path fill="none" stroke="midnightblue" d="M222.725,-198.195C234.872,-189.181 253.945,-175.904 272,-167 276.511,-164.775 281.27,-162.662 286.105,-160.677"/>
<polygon fill="midnightblue" stroke="midnightblue" points="287.415,-163.923 295.452,-157.021 284.865,-157.404 287.415,-163.923"/>
</g>
<!-- Node22 -->
<g id="node22" class="node"><title>Node22</title>
<g id="a_node22"><a xlink:href="../../d2/d0b/classamunmt_1_1Histories.html#afa810d825474a48115d2b0691d014bd5" target="_top" xlink:title="amunmt::Histories::size">
<polygon fill="white" stroke="black" points="473.5,-94.5 473.5,-113.5 594.5,-113.5 594.5,-94.5 473.5,-94.5"/>
<text text-anchor="middle" x="534" y="-101.5" font-family="Helvetica,sans-Serif" font-size="10.00">amunmt::Histories::size</text>
</a>
</g>
</g>
<!-- Node4&#45;&gt;Node22 -->
<g id="edge25" class="edge"><title>Node4&#45;&gt;Node22</title>
<path fill="none" stroke="midnightblue" d="M213.236,-198.368C220.339,-178.936 239.322,-135.332 272,-117 334.951,-81.6849 420.464,-85.2437 476.181,-92.9979"/>
<polygon fill="midnightblue" stroke="midnightblue" points="475.821,-96.4826 486.226,-94.4861 476.847,-89.5582 475.821,-96.4826"/>
</g>
<!-- Node23 -->
<g id="node23" class="node"><title>Node23</title>
<g id="a_node23"><a xlink:href="../../d2/d0b/classamunmt_1_1Histories.html#a1cd0e1d06d2ebea1e026f03592f0e492" target="_top" xlink:title="amunmt::Histories::\lSortByLineNum">
<polygon fill="white" stroke="black" points="294,-39 294,-69 397,-69 397,-39 294,-39"/>
<text text-anchor="start" x="302" y="-57" font-family="Helvetica,sans-Serif" font-size="10.00">amunmt::Histories::</text>
<text text-anchor="middle" x="345.5" y="-46" font-family="Helvetica,sans-Serif" font-size="10.00">SortByLineNum</text>
</a>
</g>
</g>
<!-- Node4&#45;&gt;Node23 -->
<g id="edge24" class="edge"><title>Node4&#45;&gt;Node23</title>
<path fill="none" stroke="midnightblue" d="M212.363,-198.198C218.386,-175.182 236.418,-117.131 272,-84 276.05,-80.2289 280.64,-76.8993 285.498,-73.9658"/>
<polygon fill="midnightblue" stroke="midnightblue" points="287.345,-76.9455 294.47,-69.1039 284.01,-70.7911 287.345,-76.9455"/>
</g>
<!-- Node24 -->
<g id="node24" class="node"><title>Node24</title>
<g id="a_node24"><a xlink:href="../../d2/d0b/classamunmt_1_1Histories.html#a757045db713628fa453bdebd8a35be29" target="_top" xlink:title="amunmt::Histories::at">
<polygon fill="white" stroke="black" points="290,-0.5 290,-19.5 401,-19.5 401,-0.5 290,-0.5"/>
<text text-anchor="middle" x="345.5" y="-7.5" font-family="Helvetica,sans-Serif" font-size="10.00">amunmt::Histories::at</text>
</a>
</g>
</g>
<!-- Node4&#45;&gt;Node24 -->
<g id="edge26" class="edge"><title>Node4&#45;&gt;Node24</title>
<path fill="none" stroke="midnightblue" d="M210.331,-198.152C211.893,-168.038 220.835,-76.3634 272,-29 274.659,-26.5388 277.597,-24.3883 280.722,-22.5099"/>
<polygon fill="midnightblue" stroke="midnightblue" points="282.564,-25.5024 289.948,-17.9049 279.437,-19.2393 282.564,-25.5024"/>
</g>
<!-- Node25 -->
<g id="node25" class="node"><title>Node25</title>
<g id="a_node25"><a xlink:href="../../d7/dd3/namespaceamunmt.html#aef108281493b0c3b669c537192eace34" target="_top" xlink:title="amunmt::Printer">
<polygon fill="white" stroke="black" points="302.5,-435.5 302.5,-454.5 388.5,-454.5 388.5,-435.5 302.5,-435.5"/>
<text text-anchor="middle" x="345.5" y="-442.5" font-family="Helvetica,sans-Serif" font-size="10.00">amunmt::Printer</text>
</a>
</g>
</g>
<!-- Node4&#45;&gt;Node25 -->
<g id="edge27" class="edge"><title>Node4&#45;&gt;Node25</title>
<path fill="none" stroke="midnightblue" d="M214.78,-217.593C224.926,-237.84 249.526,-286.335 272,-326 292.544,-362.259 318.268,-403.604 332.898,-426.772"/>
<polygon fill="midnightblue" stroke="midnightblue" points="329.962,-428.678 338.271,-435.252 335.876,-424.932 329.962,-428.678"/>
</g>
<!-- Node6 -->
<g id="node6" class="node"><title>Node6</title>
<g id="a_node6"><a xlink:href="../../da/d4e/classamunmt_1_1Config.html#a5257f41272d06c35bebe8130b5897d23" target="_top" xlink:title="amunmt::Config::Get">
<polygon fill="white" stroke="black" points="667,-313.5 667,-332.5 775,-332.5 775,-313.5 667,-313.5"/>
<text text-anchor="middle" x="721" y="-320.5" font-family="Helvetica,sans-Serif" font-size="10.00">amunmt::Config::Get</text>
</a>
</g>
</g>
<!-- Node5&#45;&gt;Node6 -->
<g id="edge5" class="edge"><title>Node5&#45;&gt;Node6</title>
<path fill="none" stroke="midnightblue" d="M583.399,-229.545C593.858,-232.383 604.358,-236.637 613,-243 638.043,-261.438 624.29,-284.118 649,-303 652.027,-305.313 655.31,-307.359 658.747,-309.168"/>
<polygon fill="midnightblue" stroke="midnightblue" points="657.587,-312.485 668.14,-313.425 660.477,-306.109 657.587,-312.485"/>
</g>
<!-- Node10 -->
<g id="node10" class="node"><title>Node10</title>
<g id="a_node10"><a xlink:href="../../d7/d4e/classamunmt_1_1God.html#a38e952b706c978ecb2b8ad2ab7f7828f" target="_top" xlink:title="amunmt::God::GetSearch">
<polygon fill="white" stroke="black" points="470,-176.5 470,-195.5 598,-195.5 598,-176.5 470,-176.5"/>
<text text-anchor="middle" x="534" y="-183.5" font-family="Helvetica,sans-Serif" font-size="10.00">amunmt::God::GetSearch</text>
</a>
</g>
</g>
<!-- Node9&#45;&gt;Node10 -->
<g id="edge9" class="edge"><title>Node9&#45;&gt;Node10</title>
<path fill="none" stroke="midnightblue" d="M409.64,-186C425.742,-186 443.186,-186 459.747,-186"/>
<polygon fill="midnightblue" stroke="midnightblue" points="459.925,-189.5 469.925,-186 459.925,-182.5 459.925,-189.5"/>
</g>
<!-- Node11 -->
<g id="node11" class="node"><title>Node11</title>
<g id="a_node11"><a xlink:href="../../d7/d92/classamunmt_1_1Search.html#a8a55a67dbc9dab24441767d7b2066b9a" target="_top" xlink:title="amunmt::Search::Translate">
<polygon fill="white" stroke="black" points="466.5,-138.5 466.5,-157.5 601.5,-157.5 601.5,-138.5 466.5,-138.5"/>
<text text-anchor="middle" x="534" y="-145.5" font-family="Helvetica,sans-Serif" font-size="10.00">amunmt::Search::Translate</text>
</a>
</g>
</g>
<!-- Node9&#45;&gt;Node11 -->
<g id="edge10" class="edge"><title>Node9&#45;&gt;Node11</title>
<path fill="none" stroke="midnightblue" d="M393.562,-176.411C418.727,-171.284 449.896,-164.933 476.379,-159.537"/>
<polygon fill="midnightblue" stroke="midnightblue" points="477.177,-162.946 486.277,-157.52 475.779,-156.087 477.177,-162.946"/>
</g>
<!-- Node12 -->
<g id="node12" class="node"><title>Node12</title>
<g id="a_node12"><a xlink:href="../../d7/d92/classamunmt_1_1Search.html#adab7a84cbd820e7395a3f79fc604bb06" target="_top" xlink:title="amunmt::Search::FilterTarget\lVocab">
<polygon fill="white" stroke="black" points="649,-215 649,-245 793,-245 793,-215 649,-215"/>
<text text-anchor="start" x="657" y="-233" font-family="Helvetica,sans-Serif" font-size="10.00">amunmt::Search::FilterTarget</text>
<text text-anchor="middle" x="721" y="-222" font-family="Helvetica,sans-Serif" font-size="10.00">Vocab</text>
</a>
</g>
</g>
<!-- Node11&#45;&gt;Node12 -->
<g id="edge11" class="edge"><title>Node11&#45;&gt;Node12</title>
<path fill="none" stroke="midnightblue" d="M589.594,-157.557C597.693,-160.03 605.746,-163.127 613,-167 632.147,-177.223 630.737,-188.271 649,-200 655.115,-203.927 661.832,-207.538 668.619,-210.791"/>
<polygon fill="midnightblue" stroke="midnightblue" points="667.316,-214.043 677.868,-215 670.216,-207.672 667.316,-214.043"/>
</g>
<!-- Node13 -->
<g id="node13" class="node"><title>Node13</title>
<g id="a_node13"><a xlink:href="../../de/ded/classamunmt_1_1Sentences.html#accf70916436eb80cd7f4df9645fd1da8" target="_top" xlink:title="amunmt::Sentences::size">
<polygon fill="white" stroke="black" points="839.5,-176.5 839.5,-195.5 967.5,-195.5 967.5,-176.5 839.5,-176.5"/>
<text text-anchor="middle" x="903.5" y="-183.5" font-family="Helvetica,sans-Serif" font-size="10.00">amunmt::Sentences::size</text>
</a>
</g>
</g>
<!-- Node11&#45;&gt;Node13 -->
<g id="edge18" class="edge"><title>Node11&#45;&gt;Node13</title>
<path fill="none" stroke="midnightblue" d="M586.216,-157.548C605.802,-160.933 628.382,-164.514 649,-167 709.464,-174.289 778.4,-179.241 829.107,-182.257"/>
<polygon fill="midnightblue" stroke="midnightblue" points="829.132,-185.764 839.319,-182.853 829.539,-178.776 829.132,-185.764"/>
</g>
<!-- Node16 -->
<g id="node16" class="node"><title>Node16</title>
<g id="a_node16"><a xlink:href="../../d7/d92/classamunmt_1_1Search.html#aeca132502f793a9cf8f54ba5e12a333a" target="_top" xlink:title="amunmt::Search::Encode">
<polygon fill="white" stroke="black" points="657,-138.5 657,-157.5 785,-157.5 785,-138.5 657,-138.5"/>
<text text-anchor="middle" x="721" y="-145.5" font-family="Helvetica,sans-Serif" font-size="10.00">amunmt::Search::Encode</text>
</a>
</g>
</g>
<!-- Node11&#45;&gt;Node16 -->
<g id="edge15" class="edge"><title>Node11&#45;&gt;Node16</title>
<path fill="none" stroke="midnightblue" d="M601.528,-148C616.173,-148 631.763,-148 646.66,-148"/>
<polygon fill="midnightblue" stroke="midnightblue" points="646.842,-151.5 656.842,-148 646.842,-144.5 646.842,-151.5"/>
</g>
<!-- Node17 -->
<g id="node17" class="node"><title>Node17</title>
<g id="a_node17"><a xlink:href="../../d7/d92/classamunmt_1_1Search.html#a1cd54cd91f09de25de5967d0704dc77d" target="_top" xlink:title="amunmt::Search::NewStates">
<polygon fill="white" stroke="black" points="649.5,-100.5 649.5,-119.5 792.5,-119.5 792.5,-100.5 649.5,-100.5"/>
<text text-anchor="middle" x="721" y="-107.5" font-family="Helvetica,sans-Serif" font-size="10.00">amunmt::Search::NewStates</text>
</a>
</g>
</g>
<!-- Node11&#45;&gt;Node17 -->
<g id="edge17" class="edge"><title>Node11&#45;&gt;Node17</title>
<path fill="none" stroke="midnightblue" d="M581.683,-138.411C606.646,-133.284 637.564,-126.933 663.834,-121.537"/>
<polygon fill="midnightblue" stroke="midnightblue" points="664.561,-124.961 673.652,-119.52 663.153,-118.104 664.561,-124.961"/>
</g>
<!-- Node18 -->
<g id="node18" class="node"><title>Node18</title>
<g id="a_node18"><a xlink:href="../../de/ded/classamunmt_1_1Sentences.html#a02f0688d10222abd36ef037121a85e72" target="_top" xlink:title="amunmt::Sentences::\lGetMaxLength">
<polygon fill="white" stroke="black" points="666,-51 666,-81 776,-81 776,-51 666,-51"/>
<text text-anchor="start" x="674" y="-69" font-family="Helvetica,sans-Serif" font-size="10.00">amunmt::Sentences::</text>
<text text-anchor="middle" x="721" y="-58" font-family="Helvetica,sans-Serif" font-size="10.00">GetMaxLength</text>
</a>
</g>
</g>
<!-- Node11&#45;&gt;Node18 -->
<g id="edge19" class="edge"><title>Node11&#45;&gt;Node18</title>
<path fill="none" stroke="midnightblue" d="M575.626,-138.471C588.078,-134.644 601.513,-129.553 613,-123 631.595,-112.393 630.558,-101.87 649,-91 652.448,-88.9678 656.087,-87.0641 659.822,-85.2871"/>
<polygon fill="midnightblue" stroke="midnightblue" points="661.512,-88.3672 669.25,-81.1303 658.688,-81.9621 661.512,-88.3672"/>
</g>
<!-- Node19 -->
<g id="node19" class="node"><title>Node19</title>
<g id="a_node19"><a xlink:href="../../d7/d92/classamunmt_1_1Search.html#a80d628a5581c65ebe73fe0b941497eba" target="_top" xlink:title="amunmt::Search::CalcBeam">
<polygon fill="white" stroke="black" points="651,-12.5 651,-31.5 791,-31.5 791,-12.5 651,-12.5"/>
<text text-anchor="middle" x="721" y="-19.5" font-family="Helvetica,sans-Serif" font-size="10.00">amunmt::Search::CalcBeam</text>
</a>
</g>
</g>
<!-- Node11&#45;&gt;Node19 -->
<g id="edge20" class="edge"><title>Node11&#45;&gt;Node19</title>
<path fill="none" stroke="midnightblue" d="M586.175,-138.445C595.898,-134.832 605.395,-129.855 613,-123 642.563,-96.3496 618.797,-66.9229 649,-41 650.991,-39.2911 653.12,-37.7342 655.353,-36.3158"/>
<polygon fill="midnightblue" stroke="midnightblue" points="657.215,-39.2895 664.4,-31.5036 653.928,-33.1093 657.215,-39.2895"/>
</g>
<!-- Node20 -->
<g id="node20" class="node"><title>Node20</title>
<g id="a_node20"><a xlink:href="../../d7/d92/classamunmt_1_1Search.html#acdf0343e135ef26bf53ebb9389b379f6" target="_top" xlink:title="amunmt::Search::CleanAfter\lTranslation">
<polygon fill="white" stroke="black" points="650.5,-264 650.5,-294 791.5,-294 791.5,-264 650.5,-264"/>
<text text-anchor="start" x="658.5" y="-282" font-family="Helvetica,sans-Serif" font-size="10.00">amunmt::Search::CleanAfter</text>
<text text-anchor="middle" x="721" y="-271" font-family="Helvetica,sans-Serif" font-size="10.00">Translation</text>
</a>
</g>
</g>
<!-- Node11&#45;&gt;Node20 -->
<g id="edge21" class="edge"><title>Node11&#45;&gt;Node20</title>
<path fill="none" stroke="midnightblue" d="M598.074,-157.647C603.47,-160.119 608.556,-163.19 613,-167 644.77,-194.235 618.625,-225.217 649,-254 650.657,-255.57 652.419,-257.043 654.263,-258.423"/>
<polygon fill="midnightblue" stroke="midnightblue" points="652.501,-261.451 662.808,-263.906 656.282,-255.56 652.501,-261.451"/>
</g>
<!-- Node12&#45;&gt;Node13 -->
<g id="edge12" class="edge"><title>Node12&#45;&gt;Node13</title>
<path fill="none" stroke="midnightblue" d="M783.613,-214.981C806.448,-209.414 832.011,-203.183 853.565,-197.929"/>
<polygon fill="midnightblue" stroke="midnightblue" points="854.591,-201.281 863.477,-195.512 852.933,-194.48 854.591,-201.281"/>
</g>
<!-- Node14 -->
<g id="node14" class="node"><title>Node14</title>
<g id="a_node14"><a xlink:href="../../de/ded/classamunmt_1_1Sentences.html#afe33dd6de1f3dfbcff4003c32bdd1f4b" target="_top" xlink:title="amunmt::Sentences::at">
<polygon fill="white" stroke="black" points="844,-220.5 844,-239.5 963,-239.5 963,-220.5 844,-220.5"/>
<text text-anchor="middle" x="903.5" y="-227.5" font-family="Helvetica,sans-Serif" font-size="10.00">amunmt::Sentences::at</text>
</a>
</g>
</g>
<!-- Node12&#45;&gt;Node14 -->
<g id="edge13" class="edge"><title>Node12&#45;&gt;Node14</title>
<path fill="none" stroke="midnightblue" d="M793.079,-230C806.522,-230 820.56,-230 833.925,-230"/>
<polygon fill="midnightblue" stroke="midnightblue" points="833.992,-233.5 843.992,-230 833.992,-226.5 833.992,-233.5"/>
</g>
<!-- Node15 -->
<g id="node15" class="node"><title>Node15</title>
<g id="a_node15"><a xlink:href="../../d7/db4/classamunmt_1_1Sentence.html#a929bbcefc70b6bc280bbdadb3be00ec9" target="_top" xlink:title="amunmt::Sentence::GetWords">
<polygon fill="white" stroke="black" points="829,-413.5 829,-432.5 978,-432.5 978,-413.5 829,-413.5"/>
<text text-anchor="middle" x="903.5" y="-420.5" font-family="Helvetica,sans-Serif" font-size="10.00">amunmt::Sentence::GetWords</text>
</a>
</g>
</g>
<!-- Node12&#45;&gt;Node15 -->
<g id="edge14" class="edge"><title>Node12&#45;&gt;Node15</title>
<path fill="none" stroke="midnightblue" d="M778.49,-245.063C783.647,-247.608 788.583,-250.566 793,-254 845.774,-295.036 880.803,-369.059 895.151,-403.895"/>
<polygon fill="midnightblue" stroke="midnightblue" points="891.976,-405.381 898.937,-413.367 898.476,-402.783 891.976,-405.381"/>
</g>
<!-- Node16&#45;&gt;Node13 -->
<g id="edge16" class="edge"><title>Node16&#45;&gt;Node13</title>
<path fill="none" stroke="midnightblue" d="M767.548,-157.589C791.796,-162.694 821.804,-169.011 847.361,-174.392"/>
<polygon fill="midnightblue" stroke="midnightblue" points="846.773,-177.845 857.28,-176.48 848.215,-170.995 846.773,-177.845"/>
</g>
<!-- Node21&#45;&gt;Node22 -->
<g id="edge23" class="edge"><title>Node21&#45;&gt;Node22</title>
<path fill="none" stroke="midnightblue" d="M397.462,-131.616C421.823,-126.653 451.069,-120.694 476.149,-115.584"/>
<polygon fill="midnightblue" stroke="midnightblue" points="477.154,-118.951 486.254,-113.525 475.757,-112.092 477.154,-118.951"/>
</g>
<!-- Node25&#45;&gt;Node5 -->
<g id="edge33" class="edge"><title>Node25&#45;&gt;Node5</title>
<path fill="none" stroke="midnightblue" d="M352.985,-435.391C366.273,-415.489 397.179,-368.097 419,-326 437.504,-290.301 424.253,-268.911 455,-243 460.789,-238.122 467.632,-234.459 474.822,-231.714"/>
<polygon fill="midnightblue" stroke="midnightblue" points="476.326,-234.907 484.774,-228.513 474.183,-228.243 476.326,-234.907"/>
</g>
<!-- Node25&#45;&gt;Node15 -->
<g id="edge35" class="edge"><title>Node25&#45;&gt;Node15</title>
<path fill="none" stroke="midnightblue" d="M388.714,-449.37C399.537,-452.18 410.506,-456.715 419,-464 449.521,-490.177 421.383,-524.938 455,-547 472.169,-558.267 791.285,-540.784 793,-540 839.175,-518.897 875.16,-468.429 892.02,-441.183"/>
<polygon fill="midnightblue" stroke="midnightblue" points="895.026,-442.976 897.171,-432.601 889.024,-439.374 895.026,-442.976"/>
</g>
<!-- Node26 -->
<g id="node26" class="node"><title>Node26</title>
<g id="a_node26"><a xlink:href="../../db/d94/classamunmt_1_1History.html#a1ba4f3d97546a08e25a9c0de1ef02e50" target="_top" xlink:title="amunmt::History::Top">
<polygon fill="white" stroke="black" points="478,-492.5 478,-511.5 590,-511.5 590,-492.5 478,-492.5"/>
<text text-anchor="middle" x="534" y="-499.5" font-family="Helvetica,sans-Serif" font-size="10.00">amunmt::History::Top</text>
</a>
</g>
</g>
<!-- Node25&#45;&gt;Node26 -->
<g id="edge28" class="edge"><title>Node25&#45;&gt;Node26</title>
<path fill="none" stroke="midnightblue" d="M388.809,-454.344C398.848,-457.038 409.42,-460.274 419,-464 435.861,-470.558 438.083,-476.588 455,-483 461.72,-485.547 468.897,-487.839 476.075,-489.875"/>
<polygon fill="midnightblue" stroke="midnightblue" points="475.255,-493.278 485.821,-492.493 477.071,-486.518 475.255,-493.278"/>
</g>
<!-- Node27 -->
<g id="node27" class="node"><title>Node27</title>
<g id="a_node27"><a xlink:href="../../db/d94/classamunmt_1_1History.html#af982104b58a4d8cf3893d39724a120c4" target="_top" xlink:title="amunmt::History::NBest">
<polygon fill="white" stroke="black" points="659.5,-511.5 659.5,-530.5 782.5,-530.5 782.5,-511.5 659.5,-511.5"/>
<text text-anchor="middle" x="721" y="-518.5" font-family="Helvetica,sans-Serif" font-size="10.00">amunmt::History::NBest</text>
</a>
</g>
</g>
<!-- Node25&#45;&gt;Node27 -->
<g id="edge42" class="edge"><title>Node25&#45;&gt;Node27</title>
<path fill="none" stroke="midnightblue" d="M388.761,-450.462C399.343,-453.279 410.18,-457.544 419,-464 443.177,-481.698 428.759,-506.537 455,-521 524.983,-559.573 621.99,-545.804 677.135,-532.963"/>
<polygon fill="midnightblue" stroke="midnightblue" points="678.035,-536.346 686.929,-530.589 676.385,-529.543 678.035,-536.346"/>
</g>
<!-- Node28 -->
<g id="node28" class="node"><title>Node28</title>
<g id="a_node28"><a xlink:href="../../d7/d4e/classamunmt_1_1God.html#a1e2a81202f36d8c2c10e5ee35c3b44ae" target="_top" xlink:title="amunmt::God::Postprocess">
<polygon fill="white" stroke="black" points="465.5,-454.5 465.5,-473.5 602.5,-473.5 602.5,-454.5 465.5,-454.5"/>
<text text-anchor="middle" x="534" y="-461.5" font-family="Helvetica,sans-Serif" font-size="10.00">amunmt::God::Postprocess</text>
</a>
</g>
</g>
<!-- Node25&#45;&gt;Node28 -->
<g id="edge30" class="edge"><title>Node25&#45;&gt;Node28</title>
<path fill="none" stroke="midnightblue" d="M388.82,-449.311C408.479,-451.314 432.496,-453.761 455.246,-456.079"/>
<polygon fill="midnightblue" stroke="midnightblue" points="454.941,-459.566 465.245,-457.097 455.651,-452.602 454.941,-459.566"/>
</g>
<!-- Node29 -->
<g id="node29" class="node"><title>Node29</title>
<g id="a_node29"><a xlink:href="../../d7/d4e/classamunmt_1_1God.html#aabd3caa5eb93346428948ce6639dc931" target="_top" xlink:title="amunmt::God::GetTargetVocab">
<polygon fill="white" stroke="black" points="457.5,-416.5 457.5,-435.5 610.5,-435.5 610.5,-416.5 457.5,-416.5"/>
<text text-anchor="middle" x="534" y="-423.5" font-family="Helvetica,sans-Serif" font-size="10.00">amunmt::God::GetTargetVocab</text>
</a>
</g>
</g>
<!-- Node25&#45;&gt;Node29 -->
<g id="edge31" class="edge"><title>Node25&#45;&gt;Node29</title>
<path fill="none" stroke="midnightblue" d="M388.82,-440.689C406.104,-438.928 426.756,-436.824 446.955,-434.766"/>
<polygon fill="midnightblue" stroke="midnightblue" points="447.541,-438.224 457.135,-433.729 446.832,-431.261 447.541,-438.224"/>
</g>
<!-- Node30 -->
<g id="node30" class="node"><title>Node30</title>
<g id="a_node30"><a xlink:href="../../d7/dd3/namespaceamunmt.html#a24dbaa0ef7dc1f1fcaa131a0f0eacb43" target="_top" xlink:title="amunmt::Join">
<polygon fill="white" stroke="black" points="496,-378.5 496,-397.5 572,-397.5 572,-378.5 496,-378.5"/>
<text text-anchor="middle" x="534" y="-385.5" font-family="Helvetica,sans-Serif" font-size="10.00">amunmt::Join</text>
</a>
</g>
</g>
<!-- Node25&#45;&gt;Node30 -->
<g id="edge32" class="edge"><title>Node25&#45;&gt;Node30</title>
<path fill="none" stroke="midnightblue" d="M371.701,-435.385C393.546,-427.241 426.103,-415.557 455,-407 464.923,-404.062 475.651,-401.229 485.883,-398.689"/>
<polygon fill="midnightblue" stroke="midnightblue" points="487.011,-402.016 495.901,-396.252 485.357,-395.215 487.011,-402.016"/>
</g>
<!-- Node31 -->
<g id="node31" class="node"><title>Node31</title>
<g id="a_node31"><a xlink:href="../../d7/d4e/classamunmt_1_1God.html#a032b43755a3050ee9fb97ad27a91a63b" target="_top" xlink:title="amunmt::God::GetSourceVocab">
<polygon fill="white" stroke="black" points="456,-340.5 456,-359.5 612,-359.5 612,-340.5 456,-340.5"/>
<text text-anchor="middle" x="534" y="-347.5" font-family="Helvetica,sans-Serif" font-size="10.00">amunmt::God::GetSourceVocab</text>
</a>
</g>
</g>
<!-- Node25&#45;&gt;Node31 -->
<g id="edge34" class="edge"><title>Node25&#45;&gt;Node31</title>
<path fill="none" stroke="midnightblue" d="M357.358,-435.277C375.985,-419.111 415.819,-386.732 455,-369 460.369,-366.57 466.092,-364.425 471.906,-362.536"/>
<polygon fill="midnightblue" stroke="midnightblue" points="473.153,-365.816 481.729,-359.595 471.145,-359.11 473.153,-365.816"/>
</g>
<!-- Node32 -->
<g id="node32" class="node"><title>Node32</title>
<g id="a_node32"><a xlink:href="../../d7/dd3/namespaceamunmt.html#a589013f9c66aae2070326dc22d2b547d" target="_top" xlink:title="amunmt::GetNematusAlignment\lString">
<polygon fill="white" stroke="black" points="455.5,-291 455.5,-321 612.5,-321 612.5,-291 455.5,-291"/>
<text text-anchor="start" x="463.5" y="-309" font-family="Helvetica,sans-Serif" font-size="10.00">amunmt::GetNematusAlignment</text>
<text text-anchor="middle" x="534" y="-298" font-family="Helvetica,sans-Serif" font-size="10.00">String</text>
</a>
</g>
</g>
<!-- Node25&#45;&gt;Node32 -->
<g id="edge36" class="edge"><title>Node25&#45;&gt;Node32</title>
<path fill="none" stroke="midnightblue" d="M353.158,-435.189C368.523,-413.282 408.705,-360.033 455,-331 458.36,-328.893 461.914,-326.948 465.579,-325.155"/>
<polygon fill="midnightblue" stroke="midnightblue" points="467.169,-328.279 474.873,-321.006 464.315,-321.887 467.169,-328.279"/>
</g>
<!-- Node33 -->
<g id="node33" class="node"><title>Node33</title>
<g id="a_node33"><a xlink:href="../../db/d94/classamunmt_1_1History.html#aab6c98bebac14e388e23ea849b0bba8b" target="_top" xlink:title="amunmt::History::GetLineNum">
<polygon fill="white" stroke="black" points="459,-252.5 459,-271.5 609,-271.5 609,-252.5 459,-252.5"/>
<text text-anchor="middle" x="534" y="-259.5" font-family="Helvetica,sans-Serif" font-size="10.00">amunmt::History::GetLineNum</text>
</a>
</g>
</g>
<!-- Node25&#45;&gt;Node33 -->
<g id="edge37" class="edge"><title>Node25&#45;&gt;Node33</title>
<path fill="none" stroke="midnightblue" d="M352.232,-435.483C372.424,-402.082 439.848,-291.65 455,-281 457.737,-279.077 460.646,-277.347 463.671,-275.791"/>
<polygon fill="midnightblue" stroke="midnightblue" points="465.322,-278.888 473.038,-271.628 462.479,-272.491 465.322,-278.888"/>
</g>
<!-- Node34 -->
<g id="node34" class="node"><title>Node34</title>
<g id="a_node34"><a xlink:href="../../d7/dd3/namespaceamunmt.html#a33109e5a2b2adf93a3e60ef4197a85f9" target="_top" xlink:title="amunmt::GetAlignmentString">
<polygon fill="white" stroke="black" points="462.5,-732.5 462.5,-751.5 605.5,-751.5 605.5,-732.5 462.5,-732.5"/>
<text text-anchor="middle" x="534" y="-739.5" font-family="Helvetica,sans-Serif" font-size="10.00">amunmt::GetAlignmentString</text>
</a>
</g>
</g>
<!-- Node25&#45;&gt;Node34 -->
<g id="edge38" class="edge"><title>Node25&#45;&gt;Node34</title>
<path fill="none" stroke="midnightblue" d="M388.608,-447.562C399.953,-450.297 411.223,-455.245 419,-464 496.181,-550.889 377.067,-636.785 455,-723 456.189,-724.315 457.452,-725.546 458.779,-726.699"/>
<polygon fill="midnightblue" stroke="midnightblue" points="456.813,-729.595 467.009,-732.475 460.835,-723.866 456.813,-729.595"/>
</g>
<!-- Node35 -->
<g id="node35" class="node"><title>Node35</title>
<g id="a_node35"><a xlink:href="../../d7/dd3/namespaceamunmt.html#acf078c1279ce98077a069ba41811faa6" target="_top" xlink:title="amunmt::GetAlignment">
<polygon fill="white" stroke="black" points="475.5,-694.5 475.5,-713.5 592.5,-713.5 592.5,-694.5 475.5,-694.5"/>
<text text-anchor="middle" x="534" y="-701.5" font-family="Helvetica,sans-Serif" font-size="10.00">amunmt::GetAlignment</text>
</a>
</g>
</g>
<!-- Node25&#45;&gt;Node35 -->
<g id="edge39" class="edge"><title>Node25&#45;&gt;Node35</title>
<path fill="none" stroke="midnightblue" d="M388.858,-447.77C400.072,-450.526 411.209,-455.432 419,-464 485.955,-537.625 387.408,-611.959 455,-685 458.316,-688.584 462.185,-691.542 466.394,-693.98"/>
<polygon fill="midnightblue" stroke="midnightblue" points="464.908,-697.148 475.442,-698.285 467.916,-690.828 464.908,-697.148"/>
</g>
<!-- Node36 -->
<g id="node36" class="node"><title>Node36</title>
<g id="a_node36"><a xlink:href="../../d7/dd3/namespaceamunmt.html#a2cb8f571957aa136afe5b74340ecec52" target="_top" xlink:title="amunmt::GetSoftAlignment\lString">
<polygon fill="white" stroke="black" points="466.5,-645 466.5,-675 601.5,-675 601.5,-645 466.5,-645"/>
<text text-anchor="start" x="474.5" y="-663" font-family="Helvetica,sans-Serif" font-size="10.00">amunmt::GetSoftAlignment</text>
<text text-anchor="middle" x="534" y="-652" font-family="Helvetica,sans-Serif" font-size="10.00">String</text>
</a>
</g>
</g>
<!-- Node25&#45;&gt;Node36 -->
<g id="edge40" class="edge"><title>Node25&#45;&gt;Node36</title>
<path fill="none" stroke="midnightblue" d="M388.609,-448.001C399.818,-450.762 411.014,-455.614 419,-464 472.562,-520.242 402.972,-577.336 455,-635 456.212,-636.343 457.495,-637.614 458.841,-638.817"/>
<polygon fill="midnightblue" stroke="midnightblue" points="457.04,-641.84 467.155,-644.992 461.214,-636.22 457.04,-641.84"/>
</g>
<!-- Node37 -->
<g id="node37" class="node"><title>Node37</title>
<g id="a_node37"><a xlink:href="../../d7/d4e/classamunmt_1_1God.html#a75cb5ca765042d1df858a6eeed330bb7" target="_top" xlink:title="amunmt::God::GetScorerNames">
<polygon fill="white" stroke="black" points="455,-606.5 455,-625.5 613,-625.5 613,-606.5 455,-606.5"/>
<text text-anchor="middle" x="534" y="-613.5" font-family="Helvetica,sans-Serif" font-size="10.00">amunmt::God::GetScorerNames</text>
</a>
</g>
</g>
<!-- Node25&#45;&gt;Node37 -->
<g id="edge41" class="edge"><title>Node25&#45;&gt;Node37</title>
<path fill="none" stroke="midnightblue" d="M388.635,-448.441C399.712,-451.223 410.831,-455.976 419,-464 461.159,-505.412 413.724,-549.707 455,-592 458.739,-595.831 463.073,-599.054 467.745,-601.765"/>
<polygon fill="midnightblue" stroke="midnightblue" points="466.563,-605.084 477.079,-606.372 469.662,-598.807 466.563,-605.084"/>
</g>
<!-- Node26&#45;&gt;Node27 -->
<g id="edge29" class="edge"><title>Node26&#45;&gt;Node27</title>
<path fill="none" stroke="midnightblue" d="M590.005,-507.649C608.599,-509.559 629.625,-511.718 649.264,-513.735"/>
<polygon fill="midnightblue" stroke="midnightblue" points="649.082,-517.235 659.387,-514.775 649.797,-510.271 649.082,-517.235"/>
</g>
</g>
</svg>
        <g id="navigator" transform="translate(0 0)" fill="#404254">
                <rect fill="#f2f5e9" fill-opacity="0.5" stroke="#606060" stroke-width=".5" x="0" y="0" width="60" height="60"/>
                <use id="zoomplus" xlink:href="#zoomPlus" x="17" y="9" onmousedown="handleZoom(evt,'in')"/>
                <use id="zoomminus" xlink:href="#zoomMin" x="42" y="9" onmousedown="handleZoom(evt,'out')"/>
                <use id="reset" xlink:href="#resetDef" x="30" y="36" onmousedown="handleReset()"/>
                <g id="arrowUp" xlink:href="#dirArrow" transform="translate(30 24)" onmousedown="handlePan(0,-1)">
                  <use xlink:href="#rim" fill="#404040">
                        <set attributeName="fill" to="#808080" begin="arrowUp.mouseover" end="arrowUp.mouseout"/>
                  </use>
                  <path fill="none" stroke="white" stroke-width="1.5" d="M0,-3.0v7 M-2.5,-0.5L0,-3.0L2.5,-0.5"/>
                </g>
                <g id="arrowRight" xlink:href="#dirArrow" transform="rotate(90) translate(36 -43)" onmousedown="handlePan(1,0)">
                  <use xlink:href="#rim" fill="#404040">
                        <set attributeName="fill" to="#808080" begin="arrowRight.mouseover" end="arrowRight.mouseout"/>
                  </use>
                  <path fill="none" stroke="white" stroke-width="1.5" d="M0,-3.0v7 M-2.5,-0.5L0,-3.0L2.5,-0.5"/>
                </g>
                <g id="arrowDown" xlink:href="#dirArrow" transform="rotate(180) translate(-30 -48)" onmousedown="handlePan(0,1)">
                  <use xlink:href="#rim" fill="#404040">
                        <set attributeName="fill" to="#808080" begin="arrowDown.mouseover" end="arrowDown.mouseout"/>
                  </use>
                  <path fill="none" stroke="white" stroke-width="1.5" d="M0,-3.0v7 M-2.5,-0.5L0,-3.0L2.5,-0.5"/>
                </g>
                <g id="arrowLeft" xlink:href="#dirArrow" transform="rotate(270) translate(-36 17)" onmousedown="handlePan(-1,0)">
                  <use xlink:href="#rim" fill="#404040">
                        <set attributeName="fill" to="#808080" begin="arrowLeft.mouseover" end="arrowLeft.mouseout"/>
                  </use>
                  <path fill="none" stroke="white" stroke-width="1.5" d="M0,-3.0v7 M-2.5,-0.5L0,-3.0L2.5,-0.5"/>
                </g>
        </g>
        <svg viewBox="0 0 15 15" width="100%" height="30px" preserveAspectRatio="xMaxYMin meet">
         <g id="arrow_out" transform="scale(0.3 0.3)">
          <a xlink:href="amunmt_8cpp_a1fa5ce5d158455cf2d152ebcbcdf29d0_cgraph_org.svg" target="_base">
           <rect id="button" ry="5" rx="5" y="6" x="6" height="38" width="38"
                fill="#f2f5e9" fill-opacity="0.5" stroke="#606060" stroke-width="1.0"/>
           <path id="arrow"
             d="M 11.500037,31.436501 C 11.940474,20.09759 22.043105,11.32322 32.158766,21.979434 L 37.068811,17.246167 C 37.068811,17.246167 37.088388,32 37.088388,32 L 22.160133,31.978069 C 22.160133,31.978069 26.997745,27.140456 26.997745,27.140456 C 18.528582,18.264221 13.291696,25.230495 11.500037,31.436501 z"
             style="fill:#404040;"/>
          </a>
         </g>
        </svg>
</svg>
