<?xml version="1.0" encoding="UTF-8" standalone="no"?>
<!DOCTYPE svg PUBLIC "-//W3C//DTD SVG 1.1//EN"
 "http://www.w3.org/Graphics/SVG/1.1/DTD/svg11.dtd">
<!-- Generated by graphviz version 2.38.0 (20140413.2041)
 -->
<!-- Title: amunmt::GPU::CellState Pages: 1 -->
<svg width="134pt" height="204pt"
 viewBox="0.00 0.00 134.00 204.00" xmlns="http://www.w3.org/2000/svg" xmlns:xlink="http://www.w3.org/1999/xlink">
<g id="graph0" class="graph" transform="scale(1 1) rotate(0) translate(4 200)">
<title>amunmt::GPU::CellState</title>
<polygon fill="white" stroke="none" points="-4,4 -4,-200 130,-200 130,4 -4,4"/>
<!-- Node1 -->
<g id="node1" class="node"><title>Node1</title>
<polygon fill="#bfbfbf" stroke="black" points="0,-0.5 0,-68.5 126,-68.5 126,-0.5 0,-0.5"/>
<text text-anchor="middle" x="63" y="-56.5" font-family="Helvetica,sans-Serif" font-size="10.00">amunmt::GPU::CellState</text>
<polyline fill="none" stroke="black" points="0,-49.5 126,-49.5 "/>
<text text-anchor="middle" x="63" y="-37.5" font-family="Helvetica,sans-Serif" font-size="10.00"> </text>
<polyline fill="none" stroke="black" points="0,-30.5 126,-30.5 "/>
<text text-anchor="start" x="8" y="-18.5" font-family="Helvetica,sans-Serif" font-size="10.00">+ CellState()</text>
<text text-anchor="start" x="8" y="-7.5" font-family="Helvetica,sans-Serif" font-size="10.00">+ CellState()</text>
</g>
<!-- Node2 -->
<g id="node2" class="node"><title>Node2</title>
<polygon fill="white" stroke="#bfbfbf" points="5,-127.5 5,-195.5 121,-195.5 121,-127.5 5,-127.5"/>
<text text-anchor="start" x="13" y="-183.5" font-family="Helvetica,sans-Serif" font-size="10.00">std::unique_ptr&lt; mblas</text>
<text text-anchor="middle" x="63" y="-172.5" font-family="Helvetica,sans-Serif" font-size="10.00">::Matrix &gt;</text>
<polyline fill="none" stroke="#bfbfbf" points="5,-165.5 121,-165.5 "/>
<text text-anchor="middle" x="63" y="-153.5" font-family="Helvetica,sans-Serif" font-size="10.00"> </text>
<polyline fill="none" stroke="#bfbfbf" points="5,-146.5 121,-146.5 "/>
<text text-anchor="middle" x="63" y="-134.5" font-family="Helvetica,sans-Serif" font-size="10.00"> </text>
</g>
<!-- Node2&#45;&gt;Node1 -->
<g id="edge1" class="edge"><title>Node2&#45;&gt;Node1</title>
<path fill="none" stroke="#404040" d="M63,-127.33C63,-113.204 63,-96.492 63,-81.2228"/>
<polygon fill="none" stroke="#404040" points="63.0001,-80.8245 59,-74.8246 63,-68.8245 67,-74.8245 63.0001,-80.8245"/>
<text text-anchor="middle" x="81.5" y="-101" font-family="Helvetica,sans-Serif" font-size="10.00"> +output</text>
<text text-anchor="middle" x="81.5" y="-90" font-family="Helvetica,sans-Serif" font-size="10.00">+cell</text>
</g>
</g>
</svg>
