<?xml version="1.0" encoding="UTF-8" standalone="no"?>
<!DOCTYPE svg PUBLIC "-//W3C//DTD SVG 1.1//EN"
 "http://www.w3.org/Graphics/SVG/1.1/DTD/svg11.dtd">
<!-- Generated by graphviz version 2.38.0 (20140413.2041)
 -->
<!-- Title: FlagsForFile Pages: 1 -->
<svg width="357pt" height="116pt"
 viewBox="0.00 0.00 357.00 116.00" xmlns="http://www.w3.org/2000/svg" xmlns:xlink="http://www.w3.org/1999/xlink">
<g id="graph0" class="graph" transform="scale(1 1) rotate(0) translate(4 112)">
<title>FlagsForFile</title>
<polygon fill="white" stroke="none" points="-4,4 -4,-112 353,-112 353,4 -4,4"/>
<!-- Node1 -->
<g id="node1" class="node"><title>Node1</title>
<polygon fill="#bfbfbf" stroke="black" points="0,-44.5 0,-63.5 71,-63.5 71,-44.5 0,-44.5"/>
<text text-anchor="middle" x="35.5" y="-51.5" font-family="Helvetica,sans-Serif" font-size="10.00">FlagsForFile</text>
</g>
<!-- Node2 -->
<g id="node2" class="node"><title>Node2</title>
<g id="a_node2"><a xlink:href="$d3/d37/_8ycm__extra__conf_8py.html#a42a14573593ce75cd6e385a85326111f" xlink:title="GetCompilationInfoForFile">
<polygon fill="white" stroke="black" points="108.5,-88.5 108.5,-107.5 239.5,-107.5 239.5,-88.5 108.5,-88.5"/>
<text text-anchor="middle" x="174" y="-95.5" font-family="Helvetica,sans-Serif" font-size="10.00">GetCompilationInfoForFile</text>
</a>
</g>
</g>
<!-- Node1&#45;&gt;Node2 -->
<g id="edge1" class="edge"><title>Node1&#45;&gt;Node2</title>
<path fill="none" stroke="midnightblue" d="M62.1564,-63.5185C75.4699,-68.3507 92.0381,-74.1984 107,-79 113.947,-81.2294 121.343,-83.4785 128.578,-85.6105"/>
<polygon fill="midnightblue" stroke="midnightblue" points="127.705,-89.0017 138.285,-88.4324 129.659,-82.28 127.705,-89.0017"/>
</g>
<!-- Node4 -->
<g id="node4" class="node"><title>Node4</title>
<g id="a_node4"><a xlink:href="$d3/d37/_8ycm__extra__conf_8py.html#aa20d30f8cc08fc0ab076b4cf458e0d3d" xlink:title="MakeRelativePathsInFlags\lAbsolute">
<polygon fill="white" stroke="black" points="107,-39 107,-69 241,-69 241,-39 107,-39"/>
<text text-anchor="start" x="115" y="-57" font-family="Helvetica,sans-Serif" font-size="10.00">MakeRelativePathsInFlags</text>
<text text-anchor="middle" x="174" y="-46" font-family="Helvetica,sans-Serif" font-size="10.00">Absolute</text>
</a>
</g>
</g>
<!-- Node1&#45;&gt;Node4 -->
<g id="edge3" class="edge"><title>Node1&#45;&gt;Node4</title>
<path fill="none" stroke="midnightblue" d="M71.2979,-54C79.2176,-54 87.9357,-54 96.8359,-54"/>
<polygon fill="midnightblue" stroke="midnightblue" points="96.9289,-57.5001 106.929,-54 96.9288,-50.5001 96.9289,-57.5001"/>
</g>
<!-- Node5 -->
<g id="node5" class="node"><title>Node5</title>
<g id="a_node5"><a xlink:href="$d3/d37/_8ycm__extra__conf_8py.html#aab283cdb607efa6a1a7aaa3f089c63f1" xlink:title="DirectoryOfThisScript">
<polygon fill="white" stroke="black" points="118.5,-0.5 118.5,-19.5 229.5,-19.5 229.5,-0.5 118.5,-0.5"/>
<text text-anchor="middle" x="174" y="-7.5" font-family="Helvetica,sans-Serif" font-size="10.00">DirectoryOfThisScript</text>
</a>
</g>
</g>
<!-- Node1&#45;&gt;Node5 -->
<g id="edge4" class="edge"><title>Node1&#45;&gt;Node5</title>
<path fill="none" stroke="midnightblue" d="M63.8823,-44.4376C76.9085,-39.9503 92.7222,-34.5921 107,-30 114.779,-27.4981 123.101,-24.9086 131.124,-22.4562"/>
<polygon fill="midnightblue" stroke="midnightblue" points="132.153,-25.8016 140.705,-19.5478 130.12,-19.1034 132.153,-25.8016"/>
</g>
<!-- Node3 -->
<g id="node3" class="node"><title>Node3</title>
<g id="a_node3"><a xlink:href="$d3/d37/_8ycm__extra__conf_8py.html#a6bb59f541be0dcbde53eba606d48ddf8" xlink:title="IsHeaderFile">
<polygon fill="white" stroke="black" points="277,-88.5 277,-107.5 349,-107.5 349,-88.5 277,-88.5"/>
<text text-anchor="middle" x="313" y="-95.5" font-family="Helvetica,sans-Serif" font-size="10.00">IsHeaderFile</text>
</a>
</g>
</g>
<!-- Node2&#45;&gt;Node3 -->
<g id="edge2" class="edge"><title>Node2&#45;&gt;Node3</title>
<path fill="none" stroke="midnightblue" d="M239.889,-98C248.936,-98 258.068,-98 266.65,-98"/>
<polygon fill="midnightblue" stroke="midnightblue" points="266.803,-101.5 276.803,-98 266.802,-94.5001 266.803,-101.5"/>
</g>
</g>
</svg>
