<?xml version="1.0" encoding="UTF-8" standalone="no"?>
<!DOCTYPE svg PUBLIC "-//W3C//DTD SVG 1.1//EN"
 "http://www.w3.org/Graphics/SVG/1.1/DTD/svg11.dtd">
<!-- Generated by graphviz version 2.38.0 (20140413.2041)
 -->
<!-- Title: IsHeaderFile Pages: 1 -->
<svg width="354pt" height="28pt"
 viewBox="0.00 0.00 354.00 28.00" xmlns="http://www.w3.org/2000/svg" xmlns:xlink="http://www.w3.org/1999/xlink">
<g id="graph0" class="graph" transform="scale(1 1) rotate(0) translate(4 24)">
<title>IsHeaderFile</title>
<polygon fill="white" stroke="none" points="-4,4 -4,-24 350,-24 350,4 -4,4"/>
<!-- Node1 -->
<g id="node1" class="node"><title>Node1</title>
<polygon fill="#bfbfbf" stroke="black" points="0,-0.5 0,-19.5 72,-19.5 72,-0.5 0,-0.5"/>
<text text-anchor="middle" x="36" y="-7.5" font-family="Helvetica,sans-Serif" font-size="10.00">IsHeaderFile</text>
</g>
<!-- Node2 -->
<g id="node2" class="node"><title>Node2</title>
<g id="a_node2"><a xlink:href="$d3/d37/_8ycm__extra__conf_8py.html#a42a14573593ce75cd6e385a85326111f" xlink:title="GetCompilationInfoForFile">
<polygon fill="white" stroke="black" points="108,-0.5 108,-19.5 239,-19.5 239,-0.5 108,-0.5"/>
<text text-anchor="middle" x="173.5" y="-7.5" font-family="Helvetica,sans-Serif" font-size="10.00">GetCompilationInfoForFile</text>
</a>
</g>
</g>
<!-- Node1&#45;&gt;Node2 -->
<g id="edge1" class="edge"><title>Node1&#45;&gt;Node2</title>
<path fill="none" stroke="midnightblue" d="M82.3017,-10C90.4803,-10 99.1509,-10 107.757,-10"/>
<polygon fill="midnightblue" stroke="midnightblue" points="82.2473,-6.5001 72.2473,-10 82.2473,-13.5001 82.2473,-6.5001"/>
</g>
<!-- Node3 -->
<g id="node3" class="node"><title>Node3</title>
<g id="a_node3"><a xlink:href="$d3/d37/_8ycm__extra__conf_8py.html#a51f8bcdc9a3b791e6a88d798e6c786b3" xlink:title="FlagsForFile">
<polygon fill="white" stroke="black" points="275,-0.5 275,-19.5 346,-19.5 346,-0.5 275,-0.5"/>
<text text-anchor="middle" x="310.5" y="-7.5" font-family="Helvetica,sans-Serif" font-size="10.00">FlagsForFile</text>
</a>
</g>
</g>
<!-- Node2&#45;&gt;Node3 -->
<g id="edge2" class="edge"><title>Node2&#45;&gt;Node3</title>
<path fill="none" stroke="midnightblue" d="M249.329,-10C258.237,-10 266.972,-10 274.905,-10"/>
<polygon fill="midnightblue" stroke="midnightblue" points="249.232,-6.5001 239.232,-10 249.232,-13.5001 249.232,-6.5001"/>
</g>
</g>
</svg>
