<?xml version="1.0" encoding="UTF-8" standalone="no"?>
<!DOCTYPE svg PUBLIC "-//W3C//DTD SVG 1.1//EN"
 "http://www.w3.org/Graphics/SVG/1.1/DTD/svg11.dtd">
<!-- Generated by graphviz version 2.38.0 (20140413.2041)
 -->
<!-- Title: marian::models::LeNetModel::build Pages: 1 -->
<svg width="629pt" height="458pt"
 viewBox="0.00 0.00 629.00 458.00" xmlns="http://www.w3.org/2000/svg" xmlns:xlink="http://www.w3.org/1999/xlink">
<g id="graph0" class="graph" transform="scale(1 1) rotate(0) translate(4 454)">
<title>marian::models::LeNetModel::build</title>
<polygon fill="white" stroke="none" points="-4,4 -4,-454 625,-454 625,4 -4,4"/>
<!-- Node1 -->
<g id="node1" class="node"><title>Node1</title>
<polygon fill="#bfbfbf" stroke="black" points="0,-204 0,-234 142,-234 142,-204 0,-204"/>
<text text-anchor="start" x="8" y="-222" font-family="Helvetica,sans-Serif" font-size="10.00">marian::models::LeNetModel</text>
<text text-anchor="middle" x="71" y="-211" font-family="Helvetica,sans-Serif" font-size="10.00">::build</text>
</g>
<!-- Node2 -->
<g id="node2" class="node"><title>Node2</title>
<g id="a_node2"><a xlink:href="../../d3/d26/classmarian_1_1models_1_1LeNetModel.html#a7477e8409c126d83dae223d5cbd88f4c" target="_top" xlink:title="Constructs an expression graph representing a feed&#45;forward classifier. ">
<polygon fill="white" stroke="black" points="178,-204 178,-234 320,-234 320,-204 178,-204"/>
<text text-anchor="start" x="186" y="-222" font-family="Helvetica,sans-Serif" font-size="10.00">marian::models::LeNetModel</text>
<text text-anchor="middle" x="249" y="-211" font-family="Helvetica,sans-Serif" font-size="10.00">::FeedforwardClassifier</text>
</a>
</g>
</g>
<!-- Node1&#45;&gt;Node2 -->
<g id="edge1" class="edge"><title>Node1&#45;&gt;Node2</title>
<path fill="none" stroke="midnightblue" d="M142.066,-219C150.54,-219 159.247,-219 167.852,-219"/>
<polygon fill="midnightblue" stroke="midnightblue" points="167.888,-222.5 177.888,-219 167.888,-215.5 167.888,-222.5"/>
</g>
<!-- Node3 -->
<g id="node3" class="node"><title>Node3</title>
<g id="a_node3"><a xlink:href="../../d5/d49/amunmt_8cpp.html#a2e8ddb8bd2f3405f554c9f2c52277f4b" target="_top" xlink:title="init">
<polygon fill="white" stroke="black" points="398,-430.5 398,-449.5 427,-449.5 427,-430.5 398,-430.5"/>
<text text-anchor="middle" x="412.5" y="-437.5" font-family="Helvetica,sans-Serif" font-size="10.00">init</text>
</a>
</g>
</g>
<!-- Node2&#45;&gt;Node3 -->
<g id="edge2" class="edge"><title>Node2&#45;&gt;Node3</title>
<path fill="none" stroke="midnightblue" d="M253.751,-234.109C263.77,-271.366 294.66,-368.416 356,-421 364.931,-428.656 377.1,-433.271 387.768,-436.031"/>
<polygon fill="midnightblue" stroke="midnightblue" points="387.243,-439.499 397.76,-438.216 388.739,-432.66 387.243,-439.499"/>
</g>
<!-- Node5 -->
<g id="node5" class="node"><title>Node5</title>
<g id="a_node5"><a xlink:href="../../d4/dec/namespacemarian_1_1inits.html#ab9566318ddbacd376c74cdbdfac091e4" target="_top" xlink:title="marian::inits::from\l_vector">
<polygon fill="white" stroke="black" points="365,-381 365,-411 460,-411 460,-381 365,-381"/>
<text text-anchor="start" x="373" y="-399" font-family="Helvetica,sans-Serif" font-size="10.00">marian::inits::from</text>
<text text-anchor="middle" x="412.5" y="-388" font-family="Helvetica,sans-Serif" font-size="10.00">_vector</text>
</a>
</g>
</g>
<!-- Node2&#45;&gt;Node5 -->
<g id="edge4" class="edge"><title>Node2&#45;&gt;Node5</title>
<path fill="none" stroke="midnightblue" d="M257.188,-234.416C271.859,-264.407 307.965,-331.15 356,-371 357.993,-372.653 360.112,-374.219 362.316,-375.699"/>
<polygon fill="midnightblue" stroke="midnightblue" points="360.767,-378.851 371.145,-380.984 364.363,-372.845 360.767,-378.851"/>
</g>
<!-- Node6 -->
<g id="node6" class="node"><title>Node6</title>
<g id="a_node6"><a xlink:href="../../da/d22/namespacemarian.html#a6228f7e46aeed337e3886df6446b7840" target="_top" xlink:title="marian::relu">
<polygon fill="white" stroke="black" points="378.5,-342.5 378.5,-361.5 446.5,-361.5 446.5,-342.5 378.5,-342.5"/>
<text text-anchor="middle" x="412.5" y="-349.5" font-family="Helvetica,sans-Serif" font-size="10.00">marian::relu</text>
</a>
</g>
</g>
<!-- Node2&#45;&gt;Node6 -->
<g id="edge5" class="edge"><title>Node2&#45;&gt;Node6</title>
<path fill="none" stroke="midnightblue" d="M260.261,-234.161C277.382,-258.365 314.064,-305.777 356,-333 360.007,-335.601 364.409,-337.887 368.926,-339.886"/>
<polygon fill="midnightblue" stroke="midnightblue" points="367.686,-343.159 378.272,-343.594 370.268,-336.653 367.686,-343.159"/>
</g>
<!-- Node7 -->
<g id="node7" class="node"><title>Node7</title>
<g id="a_node7"><a xlink:href="../../da/d22/namespacemarian.html#aea8d2acadf0d96f6e455addd57cba80d" target="_top" xlink:title="marian::flatten">
<polygon fill="white" stroke="black" points="373,-304.5 373,-323.5 452,-323.5 452,-304.5 373,-304.5"/>
<text text-anchor="middle" x="412.5" y="-311.5" font-family="Helvetica,sans-Serif" font-size="10.00">marian::flatten</text>
</a>
</g>
</g>
<!-- Node2&#45;&gt;Node7 -->
<g id="edge6" class="edge"><title>Node2&#45;&gt;Node7</title>
<path fill="none" stroke="midnightblue" d="M267.703,-234.189C287.937,-250.935 322.588,-277.778 356,-295 360.082,-297.104 364.448,-299.057 368.872,-300.845"/>
<polygon fill="midnightblue" stroke="midnightblue" points="367.967,-304.245 378.558,-304.496 370.435,-297.694 367.967,-304.245"/>
</g>
<!-- Node8 -->
<g id="node8" class="node"><title>Node8</title>
<g id="a_node8"><a xlink:href="../../da/d22/namespacemarian.html#acd984f43188d0ae23c2a6ef13ae5293f" target="_top" xlink:title="marian::reshape">
<polygon fill="white" stroke="black" points="369.5,-266.5 369.5,-285.5 455.5,-285.5 455.5,-266.5 369.5,-266.5"/>
<text text-anchor="middle" x="412.5" y="-273.5" font-family="Helvetica,sans-Serif" font-size="10.00">marian::reshape</text>
</a>
</g>
</g>
<!-- Node2&#45;&gt;Node8 -->
<g id="edge7" class="edge"><title>Node2&#45;&gt;Node8</title>
<path fill="none" stroke="midnightblue" d="M291.483,-234.027C311.033,-241.069 334.691,-249.533 356,-257 361.665,-258.985 367.663,-261.063 373.541,-263.086"/>
<polygon fill="midnightblue" stroke="midnightblue" points="372.644,-266.479 383.239,-266.413 374.915,-259.857 372.644,-266.479"/>
</g>
<!-- Node9 -->
<g id="node9" class="node"><title>Node9</title>
<g id="a_node9"><a xlink:href="../../da/d22/namespacemarian.html#a268400392f22176821c7c4a36733b178" target="_top" xlink:title="marian::dropout">
<polygon fill="white" stroke="black" points="370.5,-228.5 370.5,-247.5 454.5,-247.5 454.5,-228.5 370.5,-228.5"/>
<text text-anchor="middle" x="412.5" y="-235.5" font-family="Helvetica,sans-Serif" font-size="10.00">marian::dropout</text>
</a>
</g>
</g>
<!-- Node2&#45;&gt;Node9 -->
<g id="edge8" class="edge"><title>Node2&#45;&gt;Node9</title>
<path fill="none" stroke="midnightblue" d="M320.366,-227.278C333.648,-228.841 347.311,-230.448 359.885,-231.928"/>
<polygon fill="midnightblue" stroke="midnightblue" points="359.818,-235.444 370.159,-233.136 360.636,-228.492 359.818,-235.444"/>
</g>
<!-- Node15 -->
<g id="node15" class="node"><title>Node15</title>
<g id="a_node15"><a xlink:href="../../da/d22/namespacemarian.html#aefe65d738dc9a0536f3a1f9346b8d47b" target="_top" xlink:title="marian::affine">
<polygon fill="white" stroke="black" points="374.5,-190.5 374.5,-209.5 450.5,-209.5 450.5,-190.5 374.5,-190.5"/>
<text text-anchor="middle" x="412.5" y="-197.5" font-family="Helvetica,sans-Serif" font-size="10.00">marian::affine</text>
</a>
</g>
</g>
<!-- Node2&#45;&gt;Node15 -->
<g id="edge14" class="edge"><title>Node2&#45;&gt;Node15</title>
<path fill="none" stroke="midnightblue" d="M320.366,-210.722C335.133,-208.984 350.37,-207.192 364.059,-205.581"/>
<polygon fill="midnightblue" stroke="midnightblue" points="364.669,-209.034 374.192,-204.389 363.851,-202.082 364.669,-209.034"/>
</g>
<!-- Node16 -->
<g id="node16" class="node"><title>Node16</title>
<g id="a_node16"><a xlink:href="../../d4/dec/namespacemarian_1_1inits.html#a835dcbebcc1ee135e5637b2225eaf9d1" target="_top" xlink:title="marian::inits::uniform">
<polygon fill="white" stroke="black" points="358.5,-152.5 358.5,-171.5 466.5,-171.5 466.5,-152.5 358.5,-152.5"/>
<text text-anchor="middle" x="412.5" y="-159.5" font-family="Helvetica,sans-Serif" font-size="10.00">marian::inits::uniform</text>
</a>
</g>
</g>
<!-- Node2&#45;&gt;Node16 -->
<g id="edge15" class="edge"><title>Node2&#45;&gt;Node16</title>
<path fill="none" stroke="midnightblue" d="M291.483,-203.973C311.033,-196.931 334.691,-188.467 356,-181 361.665,-179.015 367.663,-176.937 373.541,-174.914"/>
<polygon fill="midnightblue" stroke="midnightblue" points="374.915,-178.143 383.239,-171.587 372.644,-171.521 374.915,-178.143"/>
</g>
<!-- Node17 -->
<g id="node17" class="node"><title>Node17</title>
<g id="a_node17"><a xlink:href="../../d4/dec/namespacemarian_1_1inits.html#a1bd34fd256e3df7bb1e27955a7f2b359" target="_top" xlink:title="marian::inits::zeros">
<polygon fill="white" stroke="black" points="362.5,-114.5 362.5,-133.5 462.5,-133.5 462.5,-114.5 362.5,-114.5"/>
<text text-anchor="middle" x="412.5" y="-121.5" font-family="Helvetica,sans-Serif" font-size="10.00">marian::inits::zeros</text>
</a>
</g>
</g>
<!-- Node2&#45;&gt;Node17 -->
<g id="edge16" class="edge"><title>Node2&#45;&gt;Node17</title>
<path fill="none" stroke="midnightblue" d="M267.703,-203.811C287.937,-187.065 322.588,-160.222 356,-143 360.082,-140.896 364.448,-138.943 368.872,-137.155"/>
<polygon fill="midnightblue" stroke="midnightblue" points="370.435,-140.306 378.558,-133.504 367.967,-133.755 370.435,-140.306"/>
</g>
<!-- Node18 -->
<g id="node18" class="node"><title>Node18</title>
<g id="a_node18"><a xlink:href="../../da/d22/namespacemarian.html#a15ec9743709e47180378db974ddbf116" target="_top" xlink:title="marian::mean">
<polygon fill="white" stroke="black" points="374.5,-76.5 374.5,-95.5 450.5,-95.5 450.5,-76.5 374.5,-76.5"/>
<text text-anchor="middle" x="412.5" y="-83.5" font-family="Helvetica,sans-Serif" font-size="10.00">marian::mean</text>
</a>
</g>
</g>
<!-- Node2&#45;&gt;Node18 -->
<g id="edge17" class="edge"><title>Node2&#45;&gt;Node18</title>
<path fill="none" stroke="midnightblue" d="M260.261,-203.839C277.382,-179.635 314.064,-132.223 356,-105 359.086,-102.997 362.406,-101.18 365.833,-99.5384"/>
<polygon fill="midnightblue" stroke="midnightblue" points="367.248,-102.74 375.065,-95.5895 364.495,-96.3041 367.248,-102.74"/>
</g>
<!-- Node19 -->
<g id="node19" class="node"><title>Node19</title>
<g id="a_node19"><a xlink:href="../../da/d22/namespacemarian.html#a37652ca2a00f3c36816fe5fec28104a0" target="_top" xlink:title="marian::cross_entropy">
<polygon fill="white" stroke="black" points="356,-38.5 356,-57.5 469,-57.5 469,-38.5 356,-38.5"/>
<text text-anchor="middle" x="412.5" y="-45.5" font-family="Helvetica,sans-Serif" font-size="10.00">marian::cross_entropy</text>
</a>
</g>
</g>
<!-- Node2&#45;&gt;Node19 -->
<g id="edge18" class="edge"><title>Node2&#45;&gt;Node19</title>
<path fill="none" stroke="midnightblue" d="M256.653,-203.654C270.621,-173.187 305.9,-104.758 356,-67 358.482,-65.1295 361.161,-63.435 363.954,-61.901"/>
<polygon fill="midnightblue" stroke="midnightblue" points="365.632,-64.9789 373.166,-57.5297 362.631,-58.6548 365.632,-64.9789"/>
</g>
<!-- Node20 -->
<g id="node20" class="node"><title>Node20</title>
<g id="a_node20"><a xlink:href="../../da/d22/namespacemarian.html#a471a2cbd15b4094528a1643abc814bb6" target="_top" xlink:title="marian::logsoftmax">
<polygon fill="white" stroke="black" points="362.5,-0.5 362.5,-19.5 462.5,-19.5 462.5,-0.5 362.5,-0.5"/>
<text text-anchor="middle" x="412.5" y="-7.5" font-family="Helvetica,sans-Serif" font-size="10.00">marian::logsoftmax</text>
</a>
</g>
</g>
<!-- Node2&#45;&gt;Node20 -->
<g id="edge19" class="edge"><title>Node2&#45;&gt;Node20</title>
<path fill="none" stroke="midnightblue" d="M254.262,-203.998C265.138,-168.379 297.295,-78.0337 356,-29 358.018,-27.3148 360.193,-25.7762 362.473,-24.3719"/>
<polygon fill="midnightblue" stroke="midnightblue" points="364.414,-27.3075 371.678,-19.5944 361.19,-21.0945 364.414,-27.3075"/>
</g>
<!-- Node4 -->
<g id="node4" class="node"><title>Node4</title>
<g id="a_node4"><a xlink:href="../../d7/d4e/classamunmt_1_1God.html#add49c80e570f5be5b2802565458f1c36" target="_top" xlink:title="amunmt::God::Init">
<polygon fill="white" stroke="black" points="515.5,-430.5 515.5,-449.5 610.5,-449.5 610.5,-430.5 515.5,-430.5"/>
<text text-anchor="middle" x="563" y="-437.5" font-family="Helvetica,sans-Serif" font-size="10.00">amunmt::God::Init</text>
</a>
</g>
</g>
<!-- Node3&#45;&gt;Node4 -->
<g id="edge3" class="edge"><title>Node3&#45;&gt;Node4</title>
<path fill="none" stroke="midnightblue" d="M427.204,-440C444.918,-440 476.857,-440 505.2,-440"/>
<polygon fill="midnightblue" stroke="midnightblue" points="505.447,-443.5 515.447,-440 505.447,-436.5 505.447,-443.5"/>
</g>
<!-- Node10 -->
<g id="node10" class="node"><title>Node10</title>
<g id="a_node10"><a xlink:href="../../d4/d04/namespacemarian_1_1keywords.html#a74d7a2502faafdd421ef3dff629e284f" target="_top" xlink:title="marian::keywords::Get">
<polygon fill="white" stroke="black" points="505,-304.5 505,-323.5 621,-323.5 621,-304.5 505,-304.5"/>
<text text-anchor="middle" x="563" y="-311.5" font-family="Helvetica,sans-Serif" font-size="10.00">marian::keywords::Get</text>
</a>
</g>
</g>
<!-- Node9&#45;&gt;Node10 -->
<g id="edge9" class="edge"><title>Node9&#45;&gt;Node10</title>
<path fill="none" stroke="midnightblue" d="M449.614,-247.522C456.331,-250.07 463.088,-253.201 469,-257 488.572,-269.576 485.377,-282.503 505,-295 508.178,-297.024 511.595,-298.855 515.119,-300.508"/>
<polygon fill="midnightblue" stroke="midnightblue" points="514.032,-303.847 524.608,-304.474 516.732,-297.389 514.032,-303.847"/>
</g>
<!-- Node11 -->
<g id="node11" class="node"><title>Node11</title>
<g id="a_node11"><a xlink:href="../../da/d22/namespacemarian.html#a763e5e9b5d5a329d2420fe9bab95476d" target="_top" xlink:title="marian::shift">
<polygon fill="white" stroke="black" points="527.5,-266.5 527.5,-285.5 598.5,-285.5 598.5,-266.5 527.5,-266.5"/>
<text text-anchor="middle" x="563" y="-273.5" font-family="Helvetica,sans-Serif" font-size="10.00">marian::shift</text>
</a>
</g>
</g>
<!-- Node9&#45;&gt;Node11 -->
<g id="edge10" class="edge"><title>Node9&#45;&gt;Node11</title>
<path fill="none" stroke="midnightblue" d="M450.973,-247.589C471.222,-252.771 496.355,-259.202 517.584,-264.634"/>
<polygon fill="midnightblue" stroke="midnightblue" points="516.786,-268.043 527.342,-267.131 518.521,-261.261 516.786,-268.043"/>
</g>
<!-- Node12 -->
<g id="node12" class="node"><title>Node12</title>
<g id="a_node12"><a xlink:href="../../da/d22/namespacemarian.html#a3dbe8b5eb203876cd08cf3fe75a1c6bc" target="_top" xlink:title="marian::convolution">
<polygon fill="white" stroke="black" points="512.5,-228.5 512.5,-247.5 613.5,-247.5 613.5,-228.5 512.5,-228.5"/>
<text text-anchor="middle" x="563" y="-235.5" font-family="Helvetica,sans-Serif" font-size="10.00">marian::convolution</text>
</a>
</g>
</g>
<!-- Node9&#45;&gt;Node12 -->
<g id="edge11" class="edge"><title>Node9&#45;&gt;Node12</title>
<path fill="none" stroke="midnightblue" d="M454.866,-238C469.509,-238 486.29,-238 502.158,-238"/>
<polygon fill="midnightblue" stroke="midnightblue" points="502.423,-241.5 512.423,-238 502.423,-234.5 502.423,-241.5"/>
</g>
<!-- Node13 -->
<g id="node13" class="node"><title>Node13</title>
<g id="a_node13"><a xlink:href="../../da/d22/namespacemarian.html#a8ee119d3ee4867a3c826de62ea1de4f5" target="_top" xlink:title="marian::avg_pooling">
<polygon fill="white" stroke="black" points="511,-190.5 511,-209.5 615,-209.5 615,-190.5 511,-190.5"/>
<text text-anchor="middle" x="563" y="-197.5" font-family="Helvetica,sans-Serif" font-size="10.00">marian::avg_pooling</text>
</a>
</g>
</g>
<!-- Node9&#45;&gt;Node13 -->
<g id="edge12" class="edge"><title>Node9&#45;&gt;Node13</title>
<path fill="none" stroke="midnightblue" d="M450.973,-228.411C470.392,-223.442 494.302,-217.323 514.954,-212.039"/>
<polygon fill="midnightblue" stroke="midnightblue" points="515.976,-215.39 524.797,-209.52 514.241,-208.608 515.976,-215.39"/>
</g>
<!-- Node14 -->
<g id="node14" class="node"><title>Node14</title>
<g id="a_node14"><a xlink:href="../../da/d22/namespacemarian.html#abfe3b8c37f479da0a31a1e843d8bdedf" target="_top" xlink:title="marian::max_pooling">
<polygon fill="white" stroke="black" points="509.5,-152.5 509.5,-171.5 616.5,-171.5 616.5,-152.5 509.5,-152.5"/>
<text text-anchor="middle" x="563" y="-159.5" font-family="Helvetica,sans-Serif" font-size="10.00">marian::max_pooling</text>
</a>
</g>
</g>
<!-- Node9&#45;&gt;Node14 -->
<g id="edge13" class="edge"><title>Node9&#45;&gt;Node14</title>
<path fill="none" stroke="midnightblue" d="M449.614,-228.478C456.331,-225.93 463.088,-222.799 469,-219 488.572,-206.424 485.377,-193.497 505,-181 508.178,-178.976 511.595,-177.145 515.119,-175.492"/>
<polygon fill="midnightblue" stroke="midnightblue" points="516.732,-178.611 524.608,-171.526 514.032,-172.153 516.732,-178.611"/>
</g>
</g>
</svg>
