<?xml version="1.0" encoding="UTF-8" standalone="no"?>
<!DOCTYPE svg PUBLIC "-//W3C//DTD SVG 1.1//EN"
 "http://www.w3.org/Graphics/SVG/1.1/DTD/svg11.dtd">
<!-- Generated by graphviz version 2.38.0 (20140413.2041)
 -->
<!-- Title: corpus.cpp Pages: 1 -->
<!--zoomable 319 -->
<svg id="main" version="1.1" xmlns="http://www.w3.org/2000/svg" xmlns:xlink="http://www.w3.org/1999/xlink" xml:space="preserve" onload="init(evt)">
<style type="text/css"><![CDATA[
.edge:hover path { stroke: red; }
.edge:hover polygon { stroke: red; fill: red; }
]]></style>
<script type="text/javascript"><![CDATA[
var edges = document.getElementsByTagName('g');
if (edges && edges.length) {
  for (var i=0;i<edges.length;i++) {
    if (edges[i].id.substr(0,4)=='edge') {
      edges[i].setAttribute('class','edge');
    }
  }
}
]]></script>
        <defs>
                <circle id="rim" cx="0" cy="0" r="7"/>
                <circle id="rim2" cx="0" cy="0" r="3.5"/>
                <g id="zoomPlus">
                        <use xlink:href="#rim" fill="#404040">
                                <set attributeName="fill" to="#808080" begin="zoomplus.mouseover" end="zoomplus.mouseout"/>
                        </use>
                        <path d="M-4,0h8M0,-4v8" fill="none" stroke="white" stroke-width="1.5" pointer-events="none"/>
                </g>
                <g id="zoomMin">
                        <use xlink:href="#rim" fill="#404040">
                                <set attributeName="fill" to="#808080" begin="zoomminus.mouseover" end="zoomminus.mouseout"/>
                        </use>
                        <path d="M-4,0h8" fill="none" stroke="white" stroke-width="1.5" pointer-events="none"/>
                </g>
                <g id="dirArrow">
                        <path fill="none" stroke="white" stroke-width="1.5" d="M0,-3.0v7 M-2.5,-0.5L0,-3.0L2.5,-0.5"/>
                </g>
               <g id="resetDef">
                       <use xlink:href="#rim2" fill="#404040">
                               <set attributeName="fill" to="#808080" begin="reset.mouseover" end="reset.mouseout"/>
                       </use>
               </g>
        </defs>

<script type="text/javascript">
var viewWidth = 1008;
var viewHeight = 319;
var sectionId = 'dynsection-0';
</script>
<script xlink:href="../../svgpan.js"/>
<svg id="graph" class="graph">
<g id="viewport">
<title>corpus.cpp</title>
<polygon fill="white" stroke="none" points="-4,4 -4,-315 1003.5,-315 1003.5,4 -4,4"/>
<!-- Node1 -->
<g id="node1" class="node"><title>Node1</title>
<polygon fill="#bfbfbf" stroke="black" points="344,-291.5 344,-310.5 409,-310.5 409,-291.5 344,-291.5"/>
<text text-anchor="middle" x="376.5" y="-298.5" font-family="Helvetica,sans-Serif" font-size="10.00">corpus.cpp</text>
</g>
<!-- Node2 -->
<g id="node2" class="node"><title>Node2</title>
<polygon fill="white" stroke="#bfbfbf" points="0,-174 0,-193 49,-193 49,-174 0,-174"/>
<text text-anchor="middle" x="24.5" y="-181" font-family="Helvetica,sans-Serif" font-size="10.00">random</text>
</g>
<!-- Node1&#45;&gt;Node2 -->
<g id="edge1" class="edge"><title>Node1&#45;&gt;Node2</title>
<path fill="none" stroke="midnightblue" d="M345.779,-291.466C288.462,-275.281 161.602,-238.222 57.5,-199 55.8896,-198.393 54.2444,-197.75 52.5904,-197.084"/>
<polygon fill="midnightblue" stroke="midnightblue" points="53.778,-193.786 43.2033,-193.134 51.0633,-200.239 53.778,-193.786"/>
</g>
<!-- Node3 -->
<g id="node3" class="node"><title>Node3</title>
<g id="a_node3"><a xlink:href="../../dc/d8f/corpus_8h.html" target="_top" xlink:title="data/corpus.h">
<polygon fill="white" stroke="black" points="463.5,-235.5 463.5,-254.5 539.5,-254.5 539.5,-235.5 463.5,-235.5"/>
<text text-anchor="middle" x="501.5" y="-242.5" font-family="Helvetica,sans-Serif" font-size="10.00">data/corpus.h</text>
</a>
</g>
</g>
<!-- Node1&#45;&gt;Node3 -->
<g id="edge2" class="edge"><title>Node1&#45;&gt;Node3</title>
<path fill="none" stroke="midnightblue" d="M396.307,-291.444C416.787,-282.596 448.983,-268.687 472.365,-258.586"/>
<polygon fill="midnightblue" stroke="midnightblue" points="473.994,-261.695 481.786,-254.516 471.218,-255.269 473.994,-261.695"/>
</g>
<!-- Node3&#45;&gt;Node2 -->
<g id="edge5" class="edge"><title>Node3&#45;&gt;Node2</title>
<path fill="none" stroke="midnightblue" d="M463.37,-244.111C385.671,-243.476 203.976,-237.574 57.5,-199 55.2023,-198.395 52.8603,-197.65 50.5376,-196.821"/>
<polygon fill="midnightblue" stroke="midnightblue" points="51.8447,-193.574 41.2617,-193.074 49.2231,-200.065 51.8447,-193.574"/>
</g>
<!-- Node4 -->
<g id="node4" class="node"><title>Node4</title>
<polygon fill="white" stroke="#bfbfbf" points="793.5,-174 793.5,-193 843.5,-193 843.5,-174 793.5,-174"/>
<text text-anchor="middle" x="818.5" y="-181" font-family="Helvetica,sans-Serif" font-size="10.00">fstream</text>
</g>
<!-- Node3&#45;&gt;Node4 -->
<g id="edge3" class="edge"><title>Node3&#45;&gt;Node4</title>
<path fill="none" stroke="midnightblue" d="M539.763,-240.202C593.824,-234.298 695.357,-221.223 779.5,-199 782.315,-198.256 785.211,-197.387 788.092,-196.451"/>
<polygon fill="midnightblue" stroke="midnightblue" points="789.41,-199.698 797.693,-193.092 787.098,-193.091 789.41,-199.698"/>
</g>
<!-- Node5 -->
<g id="node5" class="node"><title>Node5</title>
<polygon fill="white" stroke="#bfbfbf" points="654.5,-0.5 654.5,-19.5 708.5,-19.5 708.5,-0.5 654.5,-0.5"/>
<text text-anchor="middle" x="681.5" y="-7.5" font-family="Helvetica,sans-Serif" font-size="10.00">iostream</text>
</g>
<!-- Node3&#45;&gt;Node5 -->
<g id="edge4" class="edge"><title>Node3&#45;&gt;Node5</title>
<path fill="none" stroke="midnightblue" d="M539.661,-242.726C601.82,-239.759 720.619,-230.067 746.5,-199 761.818,-180.612 796.94,-155.703 744.5,-56 737.3,-42.3112 723.844,-31.8364 711.211,-24.4521"/>
<polygon fill="midnightblue" stroke="midnightblue" points="712.721,-21.2898 702.258,-19.6196 709.396,-27.4497 712.721,-21.2898"/>
</g>
<!-- Node6 -->
<g id="node6" class="node"><title>Node6</title>
<polygon fill="white" stroke="#bfbfbf" points="67,-174 67,-193 196,-193 196,-174 67,-174"/>
<text text-anchor="middle" x="131.5" y="-181" font-family="Helvetica,sans-Serif" font-size="10.00">boost/algorithm/string.hpp</text>
</g>
<!-- Node3&#45;&gt;Node6 -->
<g id="edge6" class="edge"><title>Node3&#45;&gt;Node6</title>
<path fill="none" stroke="midnightblue" d="M463.099,-238.695C406.569,-230.765 297.679,-215.03 205.5,-199 198.317,-197.751 190.758,-196.359 183.326,-194.946"/>
<polygon fill="midnightblue" stroke="midnightblue" points="183.799,-191.473 173.317,-193.017 182.474,-198.346 183.799,-191.473"/>
</g>
<!-- Node7 -->
<g id="node7" class="node"><title>Node7</title>
<polygon fill="white" stroke="#bfbfbf" points="214,-168.5 214,-198.5 321,-198.5 321,-168.5 214,-168.5"/>
<text text-anchor="start" x="222" y="-186.5" font-family="Helvetica,sans-Serif" font-size="10.00">boost/iterator/iterator</text>
<text text-anchor="middle" x="267.5" y="-175.5" font-family="Helvetica,sans-Serif" font-size="10.00">_facade.hpp</text>
</g>
<!-- Node3&#45;&gt;Node7 -->
<g id="edge7" class="edge"><title>Node3&#45;&gt;Node7</title>
<path fill="none" stroke="midnightblue" d="M467.974,-235.475C432.375,-226.423 375.264,-211.901 331.088,-200.669"/>
<polygon fill="midnightblue" stroke="midnightblue" points="331.855,-197.253 321.301,-198.18 330.13,-204.037 331.855,-197.253"/>
</g>
<!-- Node8 -->
<g id="node8" class="node"><title>Node8</title>
<polygon fill="white" stroke="#bfbfbf" points="339.5,-174 339.5,-193 431.5,-193 431.5,-174 339.5,-174"/>
<text text-anchor="middle" x="385.5" y="-181" font-family="Helvetica,sans-Serif" font-size="10.00">common/config.h</text>
</g>
<!-- Node3&#45;&gt;Node8 -->
<g id="edge8" class="edge"><title>Node3&#45;&gt;Node8</title>
<path fill="none" stroke="midnightblue" d="M484.88,-235.475C465.585,-225.578 433.541,-209.142 411.069,-197.615"/>
<polygon fill="midnightblue" stroke="midnightblue" points="412.584,-194.459 402.089,-193.009 409.39,-200.687 412.584,-194.459"/>
</g>
<!-- Node9 -->
<g id="node9" class="node"><title>Node9</title>
<g id="a_node9"><a xlink:href="../../d6/dc2/definitions_8h.html" target="_top" xlink:title="common/definitions.h">
<polygon fill="white" stroke="black" points="448.5,-112.5 448.5,-131.5 558.5,-131.5 558.5,-112.5 448.5,-112.5"/>
<text text-anchor="middle" x="503.5" y="-119.5" font-family="Helvetica,sans-Serif" font-size="10.00">common/definitions.h</text>
</a>
</g>
</g>
<!-- Node3&#45;&gt;Node9 -->
<g id="edge9" class="edge"><title>Node3&#45;&gt;Node9</title>
<path fill="none" stroke="midnightblue" d="M495.862,-235.481C490.446,-226.745 482.636,-212.556 479.5,-199 476.394,-185.577 476.158,-181.366 479.5,-168 481.939,-158.245 486.937,-148.29 491.743,-140.231"/>
<polygon fill="midnightblue" stroke="midnightblue" points="494.713,-142.083 497.133,-131.768 488.809,-138.322 494.713,-142.083"/>
</g>
<!-- Node23 -->
<g id="node23" class="node"><title>Node23</title>
<polygon fill="white" stroke="#bfbfbf" points="488,-174 488,-193 601,-193 601,-174 488,-174"/>
<text text-anchor="middle" x="544.5" y="-181" font-family="Helvetica,sans-Serif" font-size="10.00">common/file_stream.h</text>
</g>
<!-- Node3&#45;&gt;Node23 -->
<g id="edge25" class="edge"><title>Node3&#45;&gt;Node23</title>
<path fill="none" stroke="midnightblue" d="M507.661,-235.475C514.111,-226.55 524.404,-212.307 532.473,-201.143"/>
<polygon fill="midnightblue" stroke="midnightblue" points="535.33,-203.164 538.351,-193.009 529.656,-199.064 535.33,-203.164"/>
</g>
<!-- Node24 -->
<g id="node24" class="node"><title>Node24</title>
<g id="a_node24"><a xlink:href="../../d9/d9b/batch_8h.html" target="_top" xlink:title="data/batch.h">
<polygon fill="white" stroke="black" points="836,-112.5 836,-131.5 907,-131.5 907,-112.5 836,-112.5"/>
<text text-anchor="middle" x="871.5" y="-119.5" font-family="Helvetica,sans-Serif" font-size="10.00">data/batch.h</text>
</a>
</g>
</g>
<!-- Node3&#45;&gt;Node24 -->
<g id="edge26" class="edge"><title>Node3&#45;&gt;Node24</title>
<path fill="none" stroke="midnightblue" d="M539.771,-244.34C620.996,-244.254 806.927,-239.511 852.5,-199 868.51,-184.768 872.012,-159.281 872.337,-141.775"/>
<polygon fill="midnightblue" stroke="midnightblue" points="875.834,-141.571 872.191,-131.622 868.835,-141.671 875.834,-141.571"/>
</g>
<!-- Node25 -->
<g id="node25" class="node"><title>Node25</title>
<g id="a_node25"><a xlink:href="../../de/daf/data_2dataset_8h.html" target="_top" xlink:title="data/dataset.h">
<polygon fill="white" stroke="black" points="658,-174 658,-193 737,-193 737,-174 658,-174"/>
<text text-anchor="middle" x="697.5" y="-181" font-family="Helvetica,sans-Serif" font-size="10.00">data/dataset.h</text>
</a>
</g>
</g>
<!-- Node3&#45;&gt;Node25 -->
<g id="edge28" class="edge"><title>Node3&#45;&gt;Node25</title>
<path fill="none" stroke="midnightblue" d="M529.582,-235.475C563.785,-225.092 621.697,-207.512 659.77,-195.954"/>
<polygon fill="midnightblue" stroke="midnightblue" points="660.918,-199.263 669.47,-193.009 658.885,-192.565 660.918,-199.263"/>
</g>
<!-- Node26 -->
<g id="node26" class="node"><title>Node26</title>
<g id="a_node26"><a xlink:href="../../d8/db3/marian_2src_2data_2vocab_8h.html" target="_top" xlink:title="data/vocab.h">
<polygon fill="white" stroke="black" points="639,-112.5 639,-131.5 712,-131.5 712,-112.5 639,-112.5"/>
<text text-anchor="middle" x="675.5" y="-119.5" font-family="Helvetica,sans-Serif" font-size="10.00">data/vocab.h</text>
</a>
</g>
</g>
<!-- Node3&#45;&gt;Node26 -->
<g id="edge40" class="edge"><title>Node3&#45;&gt;Node26</title>
<path fill="none" stroke="midnightblue" d="M532.61,-235.483C555.566,-228.213 586.799,-216.186 610.5,-199 633.033,-182.661 652.835,-156.982 664.489,-140.068"/>
<polygon fill="midnightblue" stroke="midnightblue" points="667.443,-141.947 670.092,-131.688 661.624,-138.056 667.443,-141.947"/>
</g>
<!-- Node10 -->
<g id="node10" class="node"><title>Node10</title>
<polygon fill="white" stroke="#bfbfbf" points="308,-56.5 308,-75.5 367,-75.5 367,-56.5 308,-56.5"/>
<text text-anchor="middle" x="337.5" y="-63.5" font-family="Helvetica,sans-Serif" font-size="10.00">functional</text>
</g>
<!-- Node9&#45;&gt;Node10 -->
<g id="edge10" class="edge"><title>Node9&#45;&gt;Node10</title>
<path fill="none" stroke="midnightblue" d="M477.197,-112.444C449.149,-103.32 404.556,-88.8133 373.316,-78.6509"/>
<polygon fill="midnightblue" stroke="midnightblue" points="374.272,-75.2816 363.68,-75.5164 372.107,-81.9383 374.272,-75.2816"/>
</g>
<!-- Node11 -->
<g id="node11" class="node"><title>Node11</title>
<polygon fill="white" stroke="#bfbfbf" points="385.5,-56.5 385.5,-75.5 437.5,-75.5 437.5,-56.5 385.5,-56.5"/>
<text text-anchor="middle" x="411.5" y="-63.5" font-family="Helvetica,sans-Serif" font-size="10.00">memory</text>
</g>
<!-- Node9&#45;&gt;Node11 -->
<g id="edge11" class="edge"><title>Node9&#45;&gt;Node11</title>
<path fill="none" stroke="midnightblue" d="M488.719,-112.324C474.233,-103.822 451.927,-90.7288 435.007,-80.7975"/>
<polygon fill="midnightblue" stroke="midnightblue" points="436.641,-77.6981 426.245,-75.6545 433.097,-83.735 436.641,-77.6981"/>
</g>
<!-- Node12 -->
<g id="node12" class="node"><title>Node12</title>
<polygon fill="white" stroke="#bfbfbf" points="595,-0.5 595,-19.5 636,-19.5 636,-0.5 595,-0.5"/>
<text text-anchor="middle" x="615.5" y="-7.5" font-family="Helvetica,sans-Serif" font-size="10.00">string</text>
</g>
<!-- Node9&#45;&gt;Node12 -->
<g id="edge12" class="edge"><title>Node9&#45;&gt;Node12</title>
<path fill="none" stroke="midnightblue" d="M515.867,-112.352C527.821,-103.741 546.177,-89.8448 560.5,-76 576.194,-60.8302 592.081,-41.5357 602.718,-27.9212"/>
<polygon fill="midnightblue" stroke="midnightblue" points="605.569,-29.9548 608.894,-19.8953 600.022,-25.6855 605.569,-29.9548"/>
</g>
<!-- Node13 -->
<g id="node13" class="node"><title>Node13</title>
<polygon fill="white" stroke="#bfbfbf" points="955.5,-0.5 955.5,-19.5 999.5,-19.5 999.5,-0.5 955.5,-0.5"/>
<text text-anchor="middle" x="977.5" y="-7.5" font-family="Helvetica,sans-Serif" font-size="10.00">vector</text>
</g>
<!-- Node9&#45;&gt;Node13 -->
<g id="edge13" class="edge"><title>Node9&#45;&gt;Node13</title>
<path fill="none" stroke="midnightblue" d="M558.553,-117.45C647.878,-111.177 820.172,-96.8003 877.5,-76 886.025,-72.9067 929.716,-43.6049 956.448,-25.4152"/>
<polygon fill="midnightblue" stroke="midnightblue" points="958.5,-28.2528 964.789,-19.7265 954.555,-22.4699 958.5,-28.2528"/>
</g>
<!-- Node14 -->
<g id="node14" class="node"><title>Node14</title>
<polygon fill="white" stroke="#bfbfbf" points="455.5,-56.5 455.5,-75.5 551.5,-75.5 551.5,-56.5 455.5,-56.5"/>
<text text-anchor="middle" x="503.5" y="-63.5" font-family="Helvetica,sans-Serif" font-size="10.00">common/logging.h</text>
</g>
<!-- Node9&#45;&gt;Node14 -->
<g id="edge14" class="edge"><title>Node9&#45;&gt;Node14</title>
<path fill="none" stroke="midnightblue" d="M503.5,-112.083C503.5,-105.006 503.5,-94.8611 503.5,-85.9865"/>
<polygon fill="midnightblue" stroke="midnightblue" points="507,-85.751 503.5,-75.7511 500,-85.7511 507,-85.751"/>
</g>
<!-- Node15 -->
<g id="node15" class="node"><title>Node15</title>
<g id="a_node15"><a xlink:href="../../da/d18/shape_8h.html" target="_top" xlink:title="shape.h">
<polygon fill="white" stroke="black" points="684,-56.5 684,-75.5 735,-75.5 735,-56.5 684,-56.5"/>
<text text-anchor="middle" x="709.5" y="-63.5" font-family="Helvetica,sans-Serif" font-size="10.00">shape.h</text>
</a>
</g>
</g>
<!-- Node9&#45;&gt;Node15 -->
<g id="edge15" class="edge"><title>Node9&#45;&gt;Node15</title>
<path fill="none" stroke="midnightblue" d="M536.141,-112.444C573.737,-102.588 635.289,-86.4533 674.037,-76.2961"/>
<polygon fill="midnightblue" stroke="midnightblue" points="675.059,-79.6464 683.845,-73.7251 673.284,-72.8752 675.059,-79.6464"/>
</g>
<!-- Node17 -->
<g id="node17" class="node"><title>Node17</title>
<g id="a_node17"><a xlink:href="../../d2/db7/keywords_8h.html" target="_top" xlink:title="keywords.h">
<polygon fill="white" stroke="black" points="223,-56.5 223,-75.5 290,-75.5 290,-56.5 223,-56.5"/>
<text text-anchor="middle" x="256.5" y="-63.5" font-family="Helvetica,sans-Serif" font-size="10.00">keywords.h</text>
</a>
</g>
</g>
<!-- Node9&#45;&gt;Node17 -->
<g id="edge19" class="edge"><title>Node9&#45;&gt;Node17</title>
<path fill="none" stroke="midnightblue" d="M464.362,-112.444C419.626,-102.663 346.601,-86.6981 300.085,-76.5286"/>
<polygon fill="midnightblue" stroke="midnightblue" points="300.812,-73.105 290.295,-74.3884 299.317,-79.9435 300.812,-73.105"/>
</g>
<!-- Node15&#45;&gt;Node5 -->
<g id="edge17" class="edge"><title>Node15&#45;&gt;Node5</title>
<path fill="none" stroke="midnightblue" d="M704.876,-56.083C701.044,-48.6913 695.476,-37.9533 690.735,-28.8111"/>
<polygon fill="midnightblue" stroke="midnightblue" points="693.748,-27.0175 686.038,-19.7511 687.534,-30.2398 693.748,-27.0175"/>
</g>
<!-- Node15&#45;&gt;Node12 -->
<g id="edge18" class="edge"><title>Node15&#45;&gt;Node12</title>
<path fill="none" stroke="midnightblue" d="M694.397,-56.324C679.597,-47.8215 656.806,-34.7288 639.518,-24.7975"/>
<polygon fill="midnightblue" stroke="midnightblue" points="640.98,-21.6009 630.565,-19.6545 637.493,-27.6707 640.98,-21.6009"/>
</g>
<!-- Node16 -->
<g id="node16" class="node"><title>Node16</title>
<polygon fill="white" stroke="#bfbfbf" points="726.5,-0.5 726.5,-19.5 772.5,-19.5 772.5,-0.5 726.5,-0.5"/>
<text text-anchor="middle" x="749.5" y="-7.5" font-family="Helvetica,sans-Serif" font-size="10.00">cstdint</text>
</g>
<!-- Node15&#45;&gt;Node16 -->
<g id="edge16" class="edge"><title>Node15&#45;&gt;Node16</title>
<path fill="none" stroke="midnightblue" d="M716.105,-56.083C721.755,-48.4554 730.045,-37.2645 736.951,-27.9408"/>
<polygon fill="midnightblue" stroke="midnightblue" points="739.878,-29.87 743.018,-19.7511 734.253,-25.7034 739.878,-29.87"/>
</g>
<!-- Node18 -->
<g id="node18" class="node"><title>Node18</title>
<polygon fill="white" stroke="#bfbfbf" points="274.5,-0.5 274.5,-19.5 352.5,-19.5 352.5,-0.5 274.5,-0.5"/>
<text text-anchor="middle" x="313.5" y="-7.5" font-family="Helvetica,sans-Serif" font-size="10.00">boost/any.hpp</text>
</g>
<!-- Node17&#45;&gt;Node18 -->
<g id="edge20" class="edge"><title>Node17&#45;&gt;Node18</title>
<path fill="none" stroke="midnightblue" d="M265.658,-56.324C274.001,-48.4196 286.532,-36.5482 296.677,-26.9377"/>
<polygon fill="midnightblue" stroke="midnightblue" points="299.323,-29.2522 304.175,-19.8339 294.509,-24.1705 299.323,-29.2522"/>
</g>
<!-- Node19 -->
<g id="node19" class="node"><title>Node19</title>
<polygon fill="white" stroke="#bfbfbf" points="523,-0.5 523,-19.5 558,-19.5 558,-0.5 523,-0.5"/>
<text text-anchor="middle" x="540.5" y="-7.5" font-family="Helvetica,sans-Serif" font-size="10.00">map</text>
</g>
<!-- Node17&#45;&gt;Node19 -->
<g id="edge21" class="edge"><title>Node17&#45;&gt;Node19</title>
<path fill="none" stroke="midnightblue" d="M290.287,-57.856C293.4,-57.2196 296.507,-56.5925 299.5,-56 376.645,-40.7262 467.972,-24.0589 512.824,-15.9659"/>
<polygon fill="midnightblue" stroke="midnightblue" points="513.715,-19.3617 522.936,-14.1445 512.474,-12.4726 513.715,-19.3617"/>
</g>
<!-- Node20 -->
<g id="node20" class="node"><title>Node20</title>
<polygon fill="white" stroke="#bfbfbf" points="371,-0.5 371,-19.5 430,-19.5 430,-0.5 371,-0.5"/>
<text text-anchor="middle" x="400.5" y="-7.5" font-family="Helvetica,sans-Serif" font-size="10.00">typeindex</text>
</g>
<!-- Node17&#45;&gt;Node20 -->
<g id="edge22" class="edge"><title>Node17&#45;&gt;Node20</title>
<path fill="none" stroke="midnightblue" d="M279.317,-56.4435C303.332,-47.4381 341.329,-33.1891 368.369,-23.049"/>
<polygon fill="midnightblue" stroke="midnightblue" points="369.655,-26.3049 377.79,-19.5164 367.197,-19.7506 369.655,-26.3049"/>
</g>
<!-- Node21 -->
<g id="node21" class="node"><title>Node21</title>
<polygon fill="white" stroke="#bfbfbf" points="76,-0.5 76,-19.5 127,-19.5 127,-0.5 76,-0.5"/>
<text text-anchor="middle" x="101.5" y="-7.5" font-family="Helvetica,sans-Serif" font-size="10.00">typeinfo</text>
</g>
<!-- Node17&#45;&gt;Node21 -->
<g id="edge23" class="edge"><title>Node17&#45;&gt;Node21</title>
<path fill="none" stroke="midnightblue" d="M231.94,-56.4435C205.977,-47.3986 164.832,-33.064 135.703,-22.9158"/>
<polygon fill="midnightblue" stroke="midnightblue" points="136.54,-19.5013 125.945,-19.5164 134.237,-26.1116 136.54,-19.5013"/>
</g>
<!-- Node22 -->
<g id="node22" class="node"><title>Node22</title>
<g id="a_node22"><a xlink:href="../../d3/de0/compile__time__crc32_8h.html" target="_top" xlink:title="compile_time_crc32.h">
<polygon fill="white" stroke="black" points="144.5,-0.5 144.5,-19.5 256.5,-19.5 256.5,-0.5 144.5,-0.5"/>
<text text-anchor="middle" x="200.5" y="-7.5" font-family="Helvetica,sans-Serif" font-size="10.00">compile_time_crc32.h</text>
</a>
</g>
</g>
<!-- Node17&#45;&gt;Node22 -->
<g id="edge24" class="edge"><title>Node17&#45;&gt;Node22</title>
<path fill="none" stroke="midnightblue" d="M247.503,-56.324C239.306,-48.4196 226.994,-36.5482 217.028,-26.9377"/>
<polygon fill="midnightblue" stroke="midnightblue" points="219.289,-24.2558 209.661,-19.8339 214.43,-29.2947 219.289,-24.2558"/>
</g>
<!-- Node24&#45;&gt;Node13 -->
<g id="edge27" class="edge"><title>Node24&#45;&gt;Node13</title>
<path fill="none" stroke="midnightblue" d="M895.724,-112.456C913.281,-105.173 936.484,-93.14 951.5,-76 963.128,-62.7272 969.93,-43.6025 973.639,-29.5326"/>
<polygon fill="midnightblue" stroke="midnightblue" points="977.107,-30.0762 975.984,-19.541 970.292,-28.4767 977.107,-30.0762"/>
</g>
<!-- Node25&#45;&gt;Node9 -->
<g id="edge29" class="edge"><title>Node25&#45;&gt;Node9</title>
<path fill="none" stroke="midnightblue" d="M669.705,-173.975C635.85,-163.592 578.529,-146.012 540.845,-134.454"/>
<polygon fill="midnightblue" stroke="midnightblue" points="541.831,-131.095 531.244,-131.509 539.778,-137.788 541.831,-131.095"/>
</g>
<!-- Node25&#45;&gt;Node24 -->
<g id="edge30" class="edge"><title>Node25&#45;&gt;Node24</title>
<path fill="none" stroke="midnightblue" d="M722.43,-173.975C752.536,-163.68 803.332,-146.31 837.138,-134.75"/>
<polygon fill="midnightblue" stroke="midnightblue" points="838.287,-138.056 846.616,-131.509 836.022,-131.433 838.287,-138.056"/>
</g>
<!-- Node25&#45;&gt;Node26 -->
<g id="edge31" class="edge"><title>Node25&#45;&gt;Node26</title>
<path fill="none" stroke="midnightblue" d="M694.348,-173.975C691.179,-165.404 686.196,-151.927 682.149,-140.983"/>
<polygon fill="midnightblue" stroke="midnightblue" points="685.397,-139.675 678.646,-131.509 678.832,-142.102 685.397,-139.675"/>
</g>
<!-- Node26&#45;&gt;Node12 -->
<g id="edge33" class="edge"><title>Node26&#45;&gt;Node12</title>
<path fill="none" stroke="midnightblue" d="M670.792,-112.368C660.978,-94.376 638.164,-52.5503 625.115,-28.6267"/>
<polygon fill="midnightblue" stroke="midnightblue" points="628.047,-26.6944 620.186,-19.5914 621.902,-30.0464 628.047,-26.6944"/>
</g>
<!-- Node26&#45;&gt;Node13 -->
<g id="edge34" class="edge"><title>Node26&#45;&gt;Node13</title>
<path fill="none" stroke="midnightblue" d="M712.208,-120.628C760.752,-118.714 847.713,-110.268 912.5,-76 934.435,-64.3983 953.702,-42.9118 965.451,-27.8274"/>
<polygon fill="midnightblue" stroke="midnightblue" points="968.265,-29.9094 971.464,-19.809 962.664,-25.7102 968.265,-29.9094"/>
</g>
<!-- Node26&#45;&gt;Node19 -->
<g id="edge32" class="edge"><title>Node26&#45;&gt;Node19</title>
<path fill="none" stroke="midnightblue" d="M664.907,-112.368C642.036,-93.7334 587.79,-49.5324 559.073,-26.1338"/>
<polygon fill="midnightblue" stroke="midnightblue" points="561.007,-23.1949 551.044,-19.5914 556.586,-28.6215 561.007,-23.1949"/>
</g>
<!-- Node27 -->
<g id="node27" class="node"><title>Node27</title>
<g id="a_node27"><a xlink:href="../../d0/d16/marian_2src_2data_2types_8h.html" target="_top" xlink:title="data/types.h">
<polygon fill="white" stroke="black" points="797,-56.5 797,-75.5 868,-75.5 868,-56.5 797,-56.5"/>
<text text-anchor="middle" x="832.5" y="-63.5" font-family="Helvetica,sans-Serif" font-size="10.00">data/types.h</text>
</a>
</g>
</g>
<!-- Node26&#45;&gt;Node27 -->
<g id="edge35" class="edge"><title>Node26&#45;&gt;Node27</title>
<path fill="none" stroke="midnightblue" d="M700.377,-112.444C726.789,-103.359 768.715,-88.9388 798.242,-78.7831"/>
<polygon fill="midnightblue" stroke="midnightblue" points="799.421,-82.0787 807.739,-75.5164 797.145,-75.4593 799.421,-82.0787"/>
</g>
<!-- Node27&#45;&gt;Node13 -->
<g id="edge39" class="edge"><title>Node27&#45;&gt;Node13</title>
<path fill="none" stroke="midnightblue" d="M855.476,-56.4435C879.799,-47.3851 918.369,-33.0213 945.625,-22.8705"/>
<polygon fill="midnightblue" stroke="midnightblue" points="946.959,-26.109 955.108,-19.339 944.516,-19.5491 946.959,-26.109"/>
</g>
<!-- Node27&#45;&gt;Node16 -->
<g id="edge36" class="edge"><title>Node27&#45;&gt;Node16</title>
<path fill="none" stroke="midnightblue" d="M819.165,-56.324C806.338,-47.979 786.715,-35.2122 771.56,-25.3524"/>
<polygon fill="midnightblue" stroke="midnightblue" points="773.093,-22.1742 762.802,-19.6545 769.276,-28.0417 773.093,-22.1742"/>
</g>
<!-- Node28 -->
<g id="node28" class="node"><title>Node28</title>
<polygon fill="white" stroke="#bfbfbf" points="892,-0.5 892,-19.5 937,-19.5 937,-0.5 892,-0.5"/>
<text text-anchor="middle" x="914.5" y="-7.5" font-family="Helvetica,sans-Serif" font-size="10.00">cstdlib</text>
</g>
<!-- Node27&#45;&gt;Node28 -->
<g id="edge37" class="edge"><title>Node27&#45;&gt;Node28</title>
<path fill="none" stroke="midnightblue" d="M845.675,-56.324C858.347,-47.979 877.733,-35.2122 892.706,-25.3524"/>
<polygon fill="midnightblue" stroke="midnightblue" points="894.931,-28.0776 901.358,-19.6545 891.081,-22.2313 894.931,-28.0776"/>
</g>
<!-- Node29 -->
<g id="node29" class="node"><title>Node29</title>
<polygon fill="white" stroke="#bfbfbf" points="791,-0.5 791,-19.5 874,-19.5 874,-0.5 791,-0.5"/>
<text text-anchor="middle" x="832.5" y="-7.5" font-family="Helvetica,sans-Serif" font-size="10.00">unordered_map</text>
</g>
<!-- Node27&#45;&gt;Node29 -->
<g id="edge38" class="edge"><title>Node27&#45;&gt;Node29</title>
<path fill="none" stroke="midnightblue" d="M832.5,-56.083C832.5,-49.0059 832.5,-38.8611 832.5,-29.9865"/>
<polygon fill="midnightblue" stroke="midnightblue" points="836,-29.751 832.5,-19.7511 829,-29.7511 836,-29.751"/>
</g>
</g>
</svg>
        <g id="navigator" transform="translate(0 0)" fill="#404254">
                <rect fill="#f2f5e9" fill-opacity="0.5" stroke="#606060" stroke-width=".5" x="0" y="0" width="60" height="60"/>
                <use id="zoomplus" xlink:href="#zoomPlus" x="17" y="9" onmousedown="handleZoom(evt,'in')"/>
                <use id="zoomminus" xlink:href="#zoomMin" x="42" y="9" onmousedown="handleZoom(evt,'out')"/>
                <use id="reset" xlink:href="#resetDef" x="30" y="36" onmousedown="handleReset()"/>
                <g id="arrowUp" xlink:href="#dirArrow" transform="translate(30 24)" onmousedown="handlePan(0,-1)">
                  <use xlink:href="#rim" fill="#404040">
                        <set attributeName="fill" to="#808080" begin="arrowUp.mouseover" end="arrowUp.mouseout"/>
                  </use>
                  <path fill="none" stroke="white" stroke-width="1.5" d="M0,-3.0v7 M-2.5,-0.5L0,-3.0L2.5,-0.5"/>
                </g>
                <g id="arrowRight" xlink:href="#dirArrow" transform="rotate(90) translate(36 -43)" onmousedown="handlePan(1,0)">
                  <use xlink:href="#rim" fill="#404040">
                        <set attributeName="fill" to="#808080" begin="arrowRight.mouseover" end="arrowRight.mouseout"/>
                  </use>
                  <path fill="none" stroke="white" stroke-width="1.5" d="M0,-3.0v7 M-2.5,-0.5L0,-3.0L2.5,-0.5"/>
                </g>
                <g id="arrowDown" xlink:href="#dirArrow" transform="rotate(180) translate(-30 -48)" onmousedown="handlePan(0,1)">
                  <use xlink:href="#rim" fill="#404040">
                        <set attributeName="fill" to="#808080" begin="arrowDown.mouseover" end="arrowDown.mouseout"/>
                  </use>
                  <path fill="none" stroke="white" stroke-width="1.5" d="M0,-3.0v7 M-2.5,-0.5L0,-3.0L2.5,-0.5"/>
                </g>
                <g id="arrowLeft" xlink:href="#dirArrow" transform="rotate(270) translate(-36 17)" onmousedown="handlePan(-1,0)">
                  <use xlink:href="#rim" fill="#404040">
                        <set attributeName="fill" to="#808080" begin="arrowLeft.mouseover" end="arrowLeft.mouseout"/>
                  </use>
                  <path fill="none" stroke="white" stroke-width="1.5" d="M0,-3.0v7 M-2.5,-0.5L0,-3.0L2.5,-0.5"/>
                </g>
        </g>
        <svg viewBox="0 0 15 15" width="100%" height="30px" preserveAspectRatio="xMaxYMin meet">
         <g id="arrow_out" transform="scale(0.3 0.3)">
          <a xlink:href="corpus_8cpp__incl_org.svg" target="_base">
           <rect id="button" ry="5" rx="5" y="6" x="6" height="38" width="38"
                fill="#f2f5e9" fill-opacity="0.5" stroke="#606060" stroke-width="1.0"/>
           <path id="arrow"
             d="M 11.500037,31.436501 C 11.940474,20.09759 22.043105,11.32322 32.158766,21.979434 L 37.068811,17.246167 C 37.068811,17.246167 37.088388,32 37.088388,32 L 22.160133,31.978069 C 22.160133,31.978069 26.997745,27.140456 26.997745,27.140456 C 18.528582,18.264221 13.291696,25.230495 11.500037,31.436501 z"
             style="fill:#404040;"/>
          </a>
         </g>
        </svg>
</svg>
