<?xml version="1.0" encoding="UTF-8" standalone="no"?>
<!DOCTYPE svg PUBLIC "-//W3C//DTD SVG 1.1//EN"
 "http://www.w3.org/Graphics/SVG/1.1/DTD/svg11.dtd">
<!-- Generated by graphviz version 2.38.0 (20140413.2041)
 -->
<!-- Title: marian::ExpNodeOp Pages: 1 -->
<!--zoomable 990 -->
<svg id="main" version="1.1" xmlns="http://www.w3.org/2000/svg" xmlns:xlink="http://www.w3.org/1999/xlink" xml:space="preserve" onload="init(evt)">
<style type="text/css"><![CDATA[
.edge:hover path { stroke: red; }
.edge:hover polygon { stroke: red; fill: red; }
]]></style>
<script type="text/javascript"><![CDATA[
var edges = document.getElementsByTagName('g');
if (edges && edges.length) {
  for (var i=0;i<edges.length;i++) {
    if (edges[i].id.substr(0,4)=='edge') {
      edges[i].setAttribute('class','edge');
    }
  }
}
]]></script>
        <defs>
                <circle id="rim" cx="0" cy="0" r="7"/>
                <circle id="rim2" cx="0" cy="0" r="3.5"/>
                <g id="zoomPlus">
                        <use xlink:href="#rim" fill="#404040">
                                <set attributeName="fill" to="#808080" begin="zoomplus.mouseover" end="zoomplus.mouseout"/>
                        </use>
                        <path d="M-4,0h8M0,-4v8" fill="none" stroke="white" stroke-width="1.5" pointer-events="none"/>
                </g>
                <g id="zoomMin">
                        <use xlink:href="#rim" fill="#404040">
                                <set attributeName="fill" to="#808080" begin="zoomminus.mouseover" end="zoomminus.mouseout"/>
                        </use>
                        <path d="M-4,0h8" fill="none" stroke="white" stroke-width="1.5" pointer-events="none"/>
                </g>
                <g id="dirArrow">
                        <path fill="none" stroke="white" stroke-width="1.5" d="M0,-3.0v7 M-2.5,-0.5L0,-3.0L2.5,-0.5"/>
                </g>
               <g id="resetDef">
                       <use xlink:href="#rim2" fill="#404040">
                               <set attributeName="fill" to="#808080" begin="reset.mouseover" end="reset.mouseout"/>
                       </use>
               </g>
        </defs>

<script type="text/javascript">
var viewWidth = 832;
var viewHeight = 990;
var sectionId = 'dynsection-1';
</script>
<script xlink:href="../../svgpan.js"/>
<svg id="graph" class="graph">
<g id="viewport">
<title>marian::ExpNodeOp</title>
<polygon fill="white" stroke="none" points="-4,4 -4,-986 828,-986 828,4 -4,4"/>
<!-- Node1 -->
<g id="node1" class="node"><title>Node1</title>
<polygon fill="#bfbfbf" stroke="black" points="374,-0.5 374,-90.5 479,-90.5 479,-0.5 374,-0.5"/>
<text text-anchor="middle" x="426.5" y="-78.5" font-family="Helvetica,sans-Serif" font-size="10.00">marian::ExpNodeOp</text>
<polyline fill="none" stroke="black" points="374,-71.5 479,-71.5 "/>
<text text-anchor="middle" x="426.5" y="-59.5" font-family="Helvetica,sans-Serif" font-size="10.00"> </text>
<polyline fill="none" stroke="black" points="374,-52.5 479,-52.5 "/>
<text text-anchor="start" x="382" y="-40.5" font-family="Helvetica,sans-Serif" font-size="10.00">+ ExpNodeOp()</text>
<text text-anchor="start" x="382" y="-29.5" font-family="Helvetica,sans-Serif" font-size="10.00">+ forwardOps()</text>
<text text-anchor="start" x="382" y="-18.5" font-family="Helvetica,sans-Serif" font-size="10.00">+ backwardOps()</text>
<text text-anchor="start" x="382" y="-7.5" font-family="Helvetica,sans-Serif" font-size="10.00">+ type()</text>
</g>
<!-- Node2 -->
<g id="node2" class="node"><title>Node2</title>
<g id="a_node2"><a xlink:href="../../d9/dd2/structmarian_1_1UnaryNodeOp.html" target="_top" xlink:title="{marian::UnaryNodeOp\n||+ UnaryNodeOp()\l+ color()\l}">
<polygon fill="white" stroke="black" points="369.5,-128.5 369.5,-196.5 483.5,-196.5 483.5,-128.5 369.5,-128.5"/>
<text text-anchor="middle" x="426.5" y="-184.5" font-family="Helvetica,sans-Serif" font-size="10.00">marian::UnaryNodeOp</text>
<polyline fill="none" stroke="black" points="369.5,-177.5 483.5,-177.5 "/>
<text text-anchor="middle" x="426.5" y="-165.5" font-family="Helvetica,sans-Serif" font-size="10.00"> </text>
<polyline fill="none" stroke="black" points="369.5,-158.5 483.5,-158.5 "/>
<text text-anchor="start" x="377.5" y="-146.5" font-family="Helvetica,sans-Serif" font-size="10.00">+ UnaryNodeOp()</text>
<text text-anchor="start" x="377.5" y="-135.5" font-family="Helvetica,sans-Serif" font-size="10.00">+ color()</text>
</a>
</g>
</g>
<!-- Node2&#45;&gt;Node1 -->
<g id="edge1" class="edge"><title>Node2&#45;&gt;Node1</title>
<path fill="none" stroke="midnightblue" d="M426.5,-118.055C426.5,-109.146 426.5,-99.7573 426.5,-90.8181"/>
<polygon fill="none" stroke="midnightblue" points="423,-118.237 426.5,-128.237 430,-118.237 423,-118.237"/>
</g>
<!-- Node3 -->
<g id="node3" class="node"><title>Node3</title>
<g id="a_node3"><a xlink:href="../../d0/da7/structmarian_1_1NaryNodeOp.html" target="_top" xlink:title="{marian::NaryNodeOp\n|+ hash_\l|+ NaryNodeOp()\l+ ~NaryNodeOp()\l+ children()\l+ hash()\l+ remove_children_from\l_top_nodes()\l}">
<polygon fill="white" stroke="black" points="365.5,-234.5 365.5,-346.5 487.5,-346.5 487.5,-234.5 365.5,-234.5"/>
<text text-anchor="middle" x="426.5" y="-334.5" font-family="Helvetica,sans-Serif" font-size="10.00">marian::NaryNodeOp</text>
<polyline fill="none" stroke="black" points="365.5,-327.5 487.5,-327.5 "/>
<text text-anchor="start" x="373.5" y="-315.5" font-family="Helvetica,sans-Serif" font-size="10.00">+ hash_</text>
<polyline fill="none" stroke="black" points="365.5,-308.5 487.5,-308.5 "/>
<text text-anchor="start" x="373.5" y="-296.5" font-family="Helvetica,sans-Serif" font-size="10.00">+ NaryNodeOp()</text>
<text text-anchor="start" x="373.5" y="-285.5" font-family="Helvetica,sans-Serif" font-size="10.00">+ ~NaryNodeOp()</text>
<text text-anchor="start" x="373.5" y="-274.5" font-family="Helvetica,sans-Serif" font-size="10.00">+ children()</text>
<text text-anchor="start" x="373.5" y="-263.5" font-family="Helvetica,sans-Serif" font-size="10.00">+ hash()</text>
<text text-anchor="start" x="373.5" y="-252.5" font-family="Helvetica,sans-Serif" font-size="10.00">+ remove_children_from</text>
<text text-anchor="start" x="373.5" y="-241.5" font-family="Helvetica,sans-Serif" font-size="10.00">_top_nodes()</text>
</a>
</g>
</g>
<!-- Node3&#45;&gt;Node2 -->
<g id="edge2" class="edge"><title>Node3&#45;&gt;Node2</title>
<path fill="none" stroke="midnightblue" d="M426.5,-223.961C426.5,-214.484 426.5,-205.083 426.5,-196.619"/>
<polygon fill="none" stroke="midnightblue" points="423,-224.235 426.5,-234.235 430,-224.235 423,-224.235"/>
</g>
<!-- Node4 -->
<g id="node4" class="node"><title>Node4</title>
<g id="a_node4"><a xlink:href="../../d0/d7a/classmarian_1_1Node.html" target="_top" xlink:title="{marian::Node\n|# id_\l# edges_\l# trainable_\l# destroy_\l# val_\l# adj_\l# markedForDebug_\l|+ Node()\l+ ~Node()\l+ scalar()\l+ forwardOps()\l+ backwardOps()\l+ runForward()\l+ runBackward()\l+ forward()\l+ backward()\l+ trainable()\land 27 more...\l}">
<polygon fill="white" stroke="black" points="374,-384.5 374,-617.5 479,-617.5 479,-384.5 374,-384.5"/>
<text text-anchor="middle" x="426.5" y="-605.5" font-family="Helvetica,sans-Serif" font-size="10.00">marian::Node</text>
<polyline fill="none" stroke="black" points="374,-598.5 479,-598.5 "/>
<text text-anchor="start" x="382" y="-586.5" font-family="Helvetica,sans-Serif" font-size="10.00"># id_</text>
<text text-anchor="start" x="382" y="-575.5" font-family="Helvetica,sans-Serif" font-size="10.00"># edges_</text>
<text text-anchor="start" x="382" y="-564.5" font-family="Helvetica,sans-Serif" font-size="10.00"># trainable_</text>
<text text-anchor="start" x="382" y="-553.5" font-family="Helvetica,sans-Serif" font-size="10.00"># destroy_</text>
<text text-anchor="start" x="382" y="-542.5" font-family="Helvetica,sans-Serif" font-size="10.00"># val_</text>
<text text-anchor="start" x="382" y="-531.5" font-family="Helvetica,sans-Serif" font-size="10.00"># adj_</text>
<text text-anchor="start" x="382" y="-520.5" font-family="Helvetica,sans-Serif" font-size="10.00"># markedForDebug_</text>
<polyline fill="none" stroke="black" points="374,-513.5 479,-513.5 "/>
<text text-anchor="start" x="382" y="-501.5" font-family="Helvetica,sans-Serif" font-size="10.00">+ Node()</text>
<text text-anchor="start" x="382" y="-490.5" font-family="Helvetica,sans-Serif" font-size="10.00">+ ~Node()</text>
<text text-anchor="start" x="382" y="-479.5" font-family="Helvetica,sans-Serif" font-size="10.00">+ scalar()</text>
<text text-anchor="start" x="382" y="-468.5" font-family="Helvetica,sans-Serif" font-size="10.00">+ forwardOps()</text>
<text text-anchor="start" x="382" y="-457.5" font-family="Helvetica,sans-Serif" font-size="10.00">+ backwardOps()</text>
<text text-anchor="start" x="382" y="-446.5" font-family="Helvetica,sans-Serif" font-size="10.00">+ runForward()</text>
<text text-anchor="start" x="382" y="-435.5" font-family="Helvetica,sans-Serif" font-size="10.00">+ runBackward()</text>
<text text-anchor="start" x="382" y="-424.5" font-family="Helvetica,sans-Serif" font-size="10.00">+ forward()</text>
<text text-anchor="start" x="382" y="-413.5" font-family="Helvetica,sans-Serif" font-size="10.00">+ backward()</text>
<text text-anchor="start" x="382" y="-402.5" font-family="Helvetica,sans-Serif" font-size="10.00">+ trainable()</text>
<text text-anchor="start" x="382" y="-391.5" font-family="Helvetica,sans-Serif" font-size="10.00">and 27 more...</text>
</a>
</g>
</g>
<!-- Node4&#45;&gt;Node3 -->
<g id="edge3" class="edge"><title>Node4&#45;&gt;Node3</title>
<path fill="none" stroke="midnightblue" d="M426.5,-374.358C426.5,-364.73 426.5,-355.357 426.5,-346.586"/>
<polygon fill="none" stroke="midnightblue" points="423,-374.469 426.5,-384.469 430,-374.469 423,-374.469"/>
</g>
<!-- Node5 -->
<g id="node5" class="node"><title>Node5</title>
<g id="a_node5"><a xlink:href="../../de/dff/classmarian_1_1Chainable.html" target="_top" xlink:title="{marian::Chainable\&lt;\l Tensor \&gt;\n||+ Chainable()\l+ ~Chainable()\l+ forward()\l+ backward()\l+ forwardOps()\l+ backwardOps()\l+ allocate()\l+ free()\l+ init()\l+ init_dependent()\land 23 more...\l}">
<polygon fill="white" stroke="black" points="0,-682 0,-860 101,-860 101,-682 0,-682"/>
<text text-anchor="start" x="8" y="-848" font-family="Helvetica,sans-Serif" font-size="10.00">marian::Chainable&lt;</text>
<text text-anchor="middle" x="50.5" y="-837" font-family="Helvetica,sans-Serif" font-size="10.00"> Tensor &gt;</text>
<polyline fill="none" stroke="black" points="0,-830 101,-830 "/>
<text text-anchor="middle" x="50.5" y="-818" font-family="Helvetica,sans-Serif" font-size="10.00"> </text>
<polyline fill="none" stroke="black" points="0,-811 101,-811 "/>
<text text-anchor="start" x="8" y="-799" font-family="Helvetica,sans-Serif" font-size="10.00">+ Chainable()</text>
<text text-anchor="start" x="8" y="-788" font-family="Helvetica,sans-Serif" font-size="10.00">+ ~Chainable()</text>
<text text-anchor="start" x="8" y="-777" font-family="Helvetica,sans-Serif" font-size="10.00">+ forward()</text>
<text text-anchor="start" x="8" y="-766" font-family="Helvetica,sans-Serif" font-size="10.00">+ backward()</text>
<text text-anchor="start" x="8" y="-755" font-family="Helvetica,sans-Serif" font-size="10.00">+ forwardOps()</text>
<text text-anchor="start" x="8" y="-744" font-family="Helvetica,sans-Serif" font-size="10.00">+ backwardOps()</text>
<text text-anchor="start" x="8" y="-733" font-family="Helvetica,sans-Serif" font-size="10.00">+ allocate()</text>
<text text-anchor="start" x="8" y="-722" font-family="Helvetica,sans-Serif" font-size="10.00">+ free()</text>
<text text-anchor="start" x="8" y="-711" font-family="Helvetica,sans-Serif" font-size="10.00">+ init()</text>
<text text-anchor="start" x="8" y="-700" font-family="Helvetica,sans-Serif" font-size="10.00">+ init_dependent()</text>
<text text-anchor="start" x="8" y="-689" font-family="Helvetica,sans-Serif" font-size="10.00">and 23 more...</text>
</a>
</g>
</g>
<!-- Node5&#45;&gt;Node4 -->
<g id="edge4" class="edge"><title>Node5&#45;&gt;Node4</title>
<path fill="none" stroke="midnightblue" d="M108.452,-676.999C108.8,-676.664 109.15,-676.33 109.5,-676 188.855,-601.158 306.517,-547.755 373.933,-521.166"/>
<polygon fill="none" stroke="midnightblue" points="105.76,-674.749 101.328,-684.373 110.794,-679.613 105.76,-674.749"/>
</g>
<!-- Node6 -->
<g id="node6" class="node"><title>Node6</title>
<g id="a_node6"><a xlink:href="../../d4/d9b/classmarian_1_1keywords_1_1Keywords.html" target="_top" xlink:title="{marian::keywords::Keywords\n||+ Keywords()\l+ Has()\l+ Get()\l&#45; add()\l&#45; add()\l&#45; add()\l}">
<polygon fill="white" stroke="black" points="119,-715 119,-827 262,-827 262,-715 119,-715"/>
<text text-anchor="middle" x="190.5" y="-815" font-family="Helvetica,sans-Serif" font-size="10.00">marian::keywords::Keywords</text>
<polyline fill="none" stroke="black" points="119,-808 262,-808 "/>
<text text-anchor="middle" x="190.5" y="-796" font-family="Helvetica,sans-Serif" font-size="10.00"> </text>
<polyline fill="none" stroke="black" points="119,-789 262,-789 "/>
<text text-anchor="start" x="127" y="-777" font-family="Helvetica,sans-Serif" font-size="10.00">+ Keywords()</text>
<text text-anchor="start" x="127" y="-766" font-family="Helvetica,sans-Serif" font-size="10.00">+ Has()</text>
<text text-anchor="start" x="127" y="-755" font-family="Helvetica,sans-Serif" font-size="10.00">+ Get()</text>
<text text-anchor="start" x="127" y="-744" font-family="Helvetica,sans-Serif" font-size="10.00">&#45; add()</text>
<text text-anchor="start" x="127" y="-733" font-family="Helvetica,sans-Serif" font-size="10.00">&#45; add()</text>
<text text-anchor="start" x="127" y="-722" font-family="Helvetica,sans-Serif" font-size="10.00">&#45; add()</text>
</a>
</g>
</g>
<!-- Node6&#45;&gt;Node4 -->
<g id="edge5" class="edge"><title>Node6&#45;&gt;Node4</title>
<path fill="none" stroke="midnightblue" d="M244.664,-706.854C253.601,-696.519 262.789,-685.942 271.5,-676 305.358,-637.355 343.77,-594.231 373.884,-560.581"/>
<polygon fill="none" stroke="midnightblue" points="241.779,-704.84 237.891,-714.696 247.076,-709.416 241.779,-704.84"/>
</g>
<!-- Node7 -->
<g id="node7" class="node"><title>Node7</title>
<polygon fill="white" stroke="#bfbfbf" points="137.5,-913.5 137.5,-981.5 243.5,-981.5 243.5,-913.5 137.5,-913.5"/>
<text text-anchor="start" x="145.5" y="-969.5" font-family="Helvetica,sans-Serif" font-size="10.00">std::map&lt; unsigned,</text>
<text text-anchor="middle" x="190.5" y="-958.5" font-family="Helvetica,sans-Serif" font-size="10.00"> boost::any &gt;</text>
<polyline fill="none" stroke="#bfbfbf" points="137.5,-951.5 243.5,-951.5 "/>
<text text-anchor="middle" x="190.5" y="-939.5" font-family="Helvetica,sans-Serif" font-size="10.00"> </text>
<polyline fill="none" stroke="#bfbfbf" points="137.5,-932.5 243.5,-932.5 "/>
<text text-anchor="middle" x="190.5" y="-920.5" font-family="Helvetica,sans-Serif" font-size="10.00"> </text>
</g>
<!-- Node7&#45;&gt;Node6 -->
<g id="edge6" class="edge"><title>Node7&#45;&gt;Node6</title>
<path fill="none" stroke="#404040" d="M190.5,-913.267C190.5,-892.362 190.5,-864.636 190.5,-839.286"/>
<polygon fill="none" stroke="#404040" points="190.5,-839.073 186.5,-833.073 190.5,-827.073 194.5,-833.072 190.5,-839.073"/>
<text text-anchor="middle" x="212.5" y="-887" font-family="Helvetica,sans-Serif" font-size="10.00"> &#45;storage_</text>
</g>
<!-- Node8 -->
<g id="node8" class="node"><title>Node8</title>
<polygon fill="white" stroke="#bfbfbf" points="280.5,-737 280.5,-805 384.5,-805 384.5,-737 280.5,-737"/>
<text text-anchor="start" x="288.5" y="-793" font-family="Helvetica,sans-Serif" font-size="10.00">std::enable_shared</text>
<text text-anchor="middle" x="332.5" y="-782" font-family="Helvetica,sans-Serif" font-size="10.00">_from_this&lt; Node &gt;</text>
<polyline fill="none" stroke="#bfbfbf" points="280.5,-775 384.5,-775 "/>
<text text-anchor="middle" x="332.5" y="-763" font-family="Helvetica,sans-Serif" font-size="10.00"> </text>
<polyline fill="none" stroke="#bfbfbf" points="280.5,-756 384.5,-756 "/>
<text text-anchor="middle" x="332.5" y="-744" font-family="Helvetica,sans-Serif" font-size="10.00"> </text>
</g>
<!-- Node8&#45;&gt;Node4 -->
<g id="edge7" class="edge"><title>Node8&#45;&gt;Node4</title>
<path fill="none" stroke="midnightblue" d="M347.49,-727.263C357.896,-697.593 372.292,-656.55 385.948,-617.617"/>
<polygon fill="none" stroke="midnightblue" points="344.128,-726.274 344.121,-736.869 350.733,-728.591 344.128,-726.274"/>
</g>
<!-- Node9 -->
<g id="node9" class="node"><title>Node9</title>
<g id="a_node9"><a xlink:title="STL class. ">
<polygon fill="white" stroke="#bfbfbf" points="402.5,-742.5 402.5,-799.5 462.5,-799.5 462.5,-742.5 402.5,-742.5"/>
<text text-anchor="middle" x="432.5" y="-787.5" font-family="Helvetica,sans-Serif" font-size="10.00">std::string</text>
<polyline fill="none" stroke="#bfbfbf" points="402.5,-780.5 462.5,-780.5 "/>
<text text-anchor="middle" x="432.5" y="-768.5" font-family="Helvetica,sans-Serif" font-size="10.00"> </text>
<polyline fill="none" stroke="#bfbfbf" points="402.5,-761.5 462.5,-761.5 "/>
<text text-anchor="middle" x="432.5" y="-749.5" font-family="Helvetica,sans-Serif" font-size="10.00"> </text>
</a>
</g>
</g>
<!-- Node9&#45;&gt;Node4 -->
<g id="edge8" class="edge"><title>Node9&#45;&gt;Node4</title>
<path fill="none" stroke="#404040" d="M430.974,-742.394C429.791,-719.731 428.235,-686.797 427.5,-658 427.267,-648.862 427.078,-639.422 426.925,-629.919"/>
<polygon fill="none" stroke="#404040" points="426.925,-629.864 422.838,-623.922 426.751,-617.865 430.837,-623.807 426.925,-629.864"/>
<text text-anchor="middle" x="466" y="-650" font-family="Helvetica,sans-Serif" font-size="10.00"> #name_</text>
<text text-anchor="middle" x="466" y="-639" font-family="Helvetica,sans-Serif" font-size="10.00">#debugMessage_</text>
</g>
<!-- Node10 -->
<g id="node10" class="node"><title>Node10</title>
<polygon fill="white" stroke="#bfbfbf" points="385,-913.5 385,-981.5 480,-981.5 480,-913.5 385,-913.5"/>
<text text-anchor="start" x="393" y="-969.5" font-family="Helvetica,sans-Serif" font-size="10.00">std::basic_string&lt;</text>
<text text-anchor="middle" x="432.5" y="-958.5" font-family="Helvetica,sans-Serif" font-size="10.00"> char &gt;</text>
<polyline fill="none" stroke="#bfbfbf" points="385,-951.5 480,-951.5 "/>
<text text-anchor="middle" x="432.5" y="-939.5" font-family="Helvetica,sans-Serif" font-size="10.00"> </text>
<polyline fill="none" stroke="#bfbfbf" points="385,-932.5 480,-932.5 "/>
<text text-anchor="middle" x="432.5" y="-920.5" font-family="Helvetica,sans-Serif" font-size="10.00"> </text>
</g>
<!-- Node10&#45;&gt;Node9 -->
<g id="edge9" class="edge"><title>Node10&#45;&gt;Node9</title>
<path fill="none" stroke="midnightblue" d="M432.5,-903.169C432.5,-870.783 432.5,-827.474 432.5,-799.652"/>
<polygon fill="none" stroke="midnightblue" points="429,-903.267 432.5,-913.267 436,-903.267 429,-903.267"/>
</g>
<!-- Node11 -->
<g id="node11" class="node"><title>Node11</title>
<g id="a_node11"><a xlink:href="../../d5/d54/structmarian_1_1Shape.html" target="_top" xlink:title="{marian::Shape\n|+ shape_\l+ stride_\l+ bstride_\l|+ Shape()\l+ Shape()\l+ updateStrides()\l+ Shape()\l+ set()\l+ dim()\l+ dim()\l+ operator[]()\l+ operator[]()\l+ stride()\land 12 more...\l}">
<polygon fill="white" stroke="black" points="480.5,-676.5 480.5,-865.5 572.5,-865.5 572.5,-676.5 480.5,-676.5"/>
<text text-anchor="middle" x="526.5" y="-853.5" font-family="Helvetica,sans-Serif" font-size="10.00">marian::Shape</text>
<polyline fill="none" stroke="black" points="480.5,-846.5 572.5,-846.5 "/>
<text text-anchor="start" x="488.5" y="-834.5" font-family="Helvetica,sans-Serif" font-size="10.00">+ shape_</text>
<text text-anchor="start" x="488.5" y="-823.5" font-family="Helvetica,sans-Serif" font-size="10.00">+ stride_</text>
<text text-anchor="start" x="488.5" y="-812.5" font-family="Helvetica,sans-Serif" font-size="10.00">+ bstride_</text>
<polyline fill="none" stroke="black" points="480.5,-805.5 572.5,-805.5 "/>
<text text-anchor="start" x="488.5" y="-793.5" font-family="Helvetica,sans-Serif" font-size="10.00">+ Shape()</text>
<text text-anchor="start" x="488.5" y="-782.5" font-family="Helvetica,sans-Serif" font-size="10.00">+ Shape()</text>
<text text-anchor="start" x="488.5" y="-771.5" font-family="Helvetica,sans-Serif" font-size="10.00">+ updateStrides()</text>
<text text-anchor="start" x="488.5" y="-760.5" font-family="Helvetica,sans-Serif" font-size="10.00">+ Shape()</text>
<text text-anchor="start" x="488.5" y="-749.5" font-family="Helvetica,sans-Serif" font-size="10.00">+ set()</text>
<text text-anchor="start" x="488.5" y="-738.5" font-family="Helvetica,sans-Serif" font-size="10.00">+ dim()</text>
<text text-anchor="start" x="488.5" y="-727.5" font-family="Helvetica,sans-Serif" font-size="10.00">+ dim()</text>
<text text-anchor="start" x="488.5" y="-716.5" font-family="Helvetica,sans-Serif" font-size="10.00">+ operator[]()</text>
<text text-anchor="start" x="488.5" y="-705.5" font-family="Helvetica,sans-Serif" font-size="10.00">+ operator[]()</text>
<text text-anchor="start" x="488.5" y="-694.5" font-family="Helvetica,sans-Serif" font-size="10.00">+ stride()</text>
<text text-anchor="start" x="488.5" y="-683.5" font-family="Helvetica,sans-Serif" font-size="10.00">and 12 more...</text>
</a>
</g>
</g>
<!-- Node11&#45;&gt;Node4 -->
<g id="edge10" class="edge"><title>Node11&#45;&gt;Node4</title>
<path fill="none" stroke="#404040" d="M515.599,-676.254C512.718,-662.544 509.084,-648.757 504.5,-636 499.241,-621.365 492.384,-606.51 484.917,-592.281"/>
<polygon fill="none" stroke="#404040" points="484.814,-592.091 478.441,-588.716 479.104,-581.536 485.477,-584.91 484.814,-592.091"/>
<text text-anchor="middle" x="531.5" y="-644.5" font-family="Helvetica,sans-Serif" font-size="10.00"> #shape_</text>
</g>
<!-- Node12 -->
<g id="node12" class="node"><title>Node12</title>
<polygon fill="white" stroke="#bfbfbf" points="590.5,-737 590.5,-805 704.5,-805 704.5,-737 590.5,-737"/>
<text text-anchor="start" x="598.5" y="-793" font-family="Helvetica,sans-Serif" font-size="10.00">std::weak_ptr&lt; marian</text>
<text text-anchor="middle" x="647.5" y="-782" font-family="Helvetica,sans-Serif" font-size="10.00">::ExpressionGraph &gt;</text>
<polyline fill="none" stroke="#bfbfbf" points="590.5,-775 704.5,-775 "/>
<text text-anchor="middle" x="647.5" y="-763" font-family="Helvetica,sans-Serif" font-size="10.00"> </text>
<polyline fill="none" stroke="#bfbfbf" points="590.5,-756 704.5,-756 "/>
<text text-anchor="middle" x="647.5" y="-744" font-family="Helvetica,sans-Serif" font-size="10.00"> </text>
</g>
<!-- Node12&#45;&gt;Node4 -->
<g id="edge11" class="edge"><title>Node12&#45;&gt;Node4</title>
<path fill="none" stroke="#404040" d="M627,-736.977C609.237,-709.173 582.248,-668.806 555.5,-636 534.693,-610.481 509.996,-584.032 487.809,-561.442"/>
<polygon fill="none" stroke="#404040" points="487.561,-561.192 480.497,-559.74 479.121,-552.662 486.184,-554.114 487.561,-561.192"/>
<text text-anchor="middle" x="591.5" y="-644.5" font-family="Helvetica,sans-Serif" font-size="10.00"> #graph_</text>
</g>
<!-- Node13 -->
<g id="node13" class="node"><title>Node13</title>
<polygon fill="white" stroke="#bfbfbf" points="723,-742.5 723,-799.5 824,-799.5 824,-742.5 723,-742.5"/>
<text text-anchor="middle" x="773.5" y="-787.5" font-family="Helvetica,sans-Serif" font-size="10.00">std::vector&lt; Expr &gt;</text>
<polyline fill="none" stroke="#bfbfbf" points="723,-780.5 824,-780.5 "/>
<text text-anchor="middle" x="773.5" y="-768.5" font-family="Helvetica,sans-Serif" font-size="10.00"> </text>
<polyline fill="none" stroke="#bfbfbf" points="723,-761.5 824,-761.5 "/>
<text text-anchor="middle" x="773.5" y="-749.5" font-family="Helvetica,sans-Serif" font-size="10.00"> </text>
</g>
<!-- Node13&#45;&gt;Node4 -->
<g id="edge12" class="edge"><title>Node13&#45;&gt;Node4</title>
<path fill="none" stroke="#404040" d="M760.1,-742.111C749.473,-722.034 733.163,-695.214 713.5,-676 647.196,-611.21 552.456,-559.746 490.234,-530.069"/>
<polygon fill="none" stroke="#404040" points="489.864,-529.895 482.732,-530.958 479.008,-524.783 486.14,-523.72 489.864,-529.895"/>
<text text-anchor="middle" x="718.5" y="-644.5" font-family="Helvetica,sans-Serif" font-size="10.00"> #children_</text>
</g>
</g>
</svg>
        <g id="navigator" transform="translate(0 0)" fill="#404254">
                <rect fill="#f2f5e9" fill-opacity="0.5" stroke="#606060" stroke-width=".5" x="0" y="0" width="60" height="60"/>
                <use id="zoomplus" xlink:href="#zoomPlus" x="17" y="9" onmousedown="handleZoom(evt,'in')"/>
                <use id="zoomminus" xlink:href="#zoomMin" x="42" y="9" onmousedown="handleZoom(evt,'out')"/>
                <use id="reset" xlink:href="#resetDef" x="30" y="36" onmousedown="handleReset()"/>
                <g id="arrowUp" xlink:href="#dirArrow" transform="translate(30 24)" onmousedown="handlePan(0,-1)">
                  <use xlink:href="#rim" fill="#404040">
                        <set attributeName="fill" to="#808080" begin="arrowUp.mouseover" end="arrowUp.mouseout"/>
                  </use>
                  <path fill="none" stroke="white" stroke-width="1.5" d="M0,-3.0v7 M-2.5,-0.5L0,-3.0L2.5,-0.5"/>
                </g>
                <g id="arrowRight" xlink:href="#dirArrow" transform="rotate(90) translate(36 -43)" onmousedown="handlePan(1,0)">
                  <use xlink:href="#rim" fill="#404040">
                        <set attributeName="fill" to="#808080" begin="arrowRight.mouseover" end="arrowRight.mouseout"/>
                  </use>
                  <path fill="none" stroke="white" stroke-width="1.5" d="M0,-3.0v7 M-2.5,-0.5L0,-3.0L2.5,-0.5"/>
                </g>
                <g id="arrowDown" xlink:href="#dirArrow" transform="rotate(180) translate(-30 -48)" onmousedown="handlePan(0,1)">
                  <use xlink:href="#rim" fill="#404040">
                        <set attributeName="fill" to="#808080" begin="arrowDown.mouseover" end="arrowDown.mouseout"/>
                  </use>
                  <path fill="none" stroke="white" stroke-width="1.5" d="M0,-3.0v7 M-2.5,-0.5L0,-3.0L2.5,-0.5"/>
                </g>
                <g id="arrowLeft" xlink:href="#dirArrow" transform="rotate(270) translate(-36 17)" onmousedown="handlePan(-1,0)">
                  <use xlink:href="#rim" fill="#404040">
                        <set attributeName="fill" to="#808080" begin="arrowLeft.mouseover" end="arrowLeft.mouseout"/>
                  </use>
                  <path fill="none" stroke="white" stroke-width="1.5" d="M0,-3.0v7 M-2.5,-0.5L0,-3.0L2.5,-0.5"/>
                </g>
        </g>
        <svg viewBox="0 0 15 15" width="100%" height="30px" preserveAspectRatio="xMaxYMin meet">
         <g id="arrow_out" transform="scale(0.3 0.3)">
          <a xlink:href="structmarian_1_1ExpNodeOp__coll__graph_org.svg" target="_base">
           <rect id="button" ry="5" rx="5" y="6" x="6" height="38" width="38"
                fill="#f2f5e9" fill-opacity="0.5" stroke="#606060" stroke-width="1.0"/>
           <path id="arrow"
             d="M 11.500037,31.436501 C 11.940474,20.09759 22.043105,11.32322 32.158766,21.979434 L 37.068811,17.246167 C 37.068811,17.246167 37.088388,32 37.088388,32 L 22.160133,31.978069 C 22.160133,31.978069 26.997745,27.140456 26.997745,27.140456 C 18.528582,18.264221 13.291696,25.230495 11.500037,31.436501 z"
             style="fill:#404040;"/>
          </a>
         </g>
        </svg>
</svg>
