<?xml version="1.0" encoding="UTF-8" standalone="no"?>
<!DOCTYPE svg PUBLIC "-//W3C//DTD SVG 1.1//EN"
 "http://www.w3.org/Graphics/SVG/1.1/DTD/svg11.dtd">
<!-- Generated by graphviz version 2.38.0 (20140413.2041)
 -->
<!-- Title: marian::ShiftNodeOp::forwardOps Pages: 1 -->
<svg width="422pt" height="104pt"
 viewBox="0.00 0.00 422.00 104.00" xmlns="http://www.w3.org/2000/svg" xmlns:xlink="http://www.w3.org/1999/xlink">
<g id="graph0" class="graph" transform="scale(1 1) rotate(0) translate(4 100)">
<title>marian::ShiftNodeOp::forwardOps</title>
<polygon fill="white" stroke="none" points="-4,4 -4,-100 418,-100 418,4 -4,4"/>
<!-- Node1 -->
<g id="node1" class="node"><title>Node1</title>
<polygon fill="#bfbfbf" stroke="black" points="0,-33 0,-63 108,-63 108,-33 0,-33"/>
<text text-anchor="start" x="8" y="-51" font-family="Helvetica,sans-Serif" font-size="10.00">marian::ShiftNodeOp</text>
<text text-anchor="middle" x="54" y="-40" font-family="Helvetica,sans-Serif" font-size="10.00">::forwardOps</text>
</g>
<!-- Node2 -->
<g id="node2" class="node"><title>Node2</title>
<g id="a_node2"><a xlink:href="../../da/d22/namespacemarian.html#ab7bd780a3ab8d3147c56bf9ea6e93232" target="_top" xlink:title="marian::Shift">
<polygon fill="white" stroke="black" points="158.5,-76.5 158.5,-95.5 230.5,-95.5 230.5,-76.5 158.5,-76.5"/>
<text text-anchor="middle" x="194.5" y="-83.5" font-family="Helvetica,sans-Serif" font-size="10.00">marian::Shift</text>
</a>
</g>
</g>
<!-- Node1&#45;&gt;Node2 -->
<g id="edge1" class="edge"><title>Node1&#45;&gt;Node2</title>
<path fill="none" stroke="midnightblue" d="M108.152,-62.5831C121.647,-66.2858 136.006,-70.2254 149.02,-73.7961"/>
<polygon fill="midnightblue" stroke="midnightblue" points="148.104,-77.174 158.674,-76.4447 149.956,-70.4235 148.104,-77.174"/>
</g>
<!-- Node3 -->
<g id="node3" class="node"><title>Node3</title>
<g id="a_node3"><a xlink:href="../../d0/d7a/classmarian_1_1Node.html#a71a9c8ad6ba12d421fa97222d74a90b9" target="_top" xlink:title="marian::Node::child">
<polygon fill="white" stroke="black" points="144,-38.5 144,-57.5 245,-57.5 245,-38.5 144,-38.5"/>
<text text-anchor="middle" x="194.5" y="-45.5" font-family="Helvetica,sans-Serif" font-size="10.00">marian::Node::child</text>
</a>
</g>
</g>
<!-- Node1&#45;&gt;Node3 -->
<g id="edge2" class="edge"><title>Node1&#45;&gt;Node3</title>
<path fill="none" stroke="midnightblue" d="M108.152,-48C116.504,-48 125.186,-48 133.676,-48"/>
<polygon fill="midnightblue" stroke="midnightblue" points="133.902,-51.5001 143.902,-48 133.902,-44.5001 133.902,-51.5001"/>
</g>
<!-- Node5 -->
<g id="node5" class="node"><title>Node5</title>
<g id="a_node5"><a xlink:href="../../d0/d7a/classmarian_1_1Node.html#a0df86f2ff4a169111d6ba0865e6fd935" target="_top" xlink:title="marian::Node::val">
<polygon fill="white" stroke="black" points="147.5,-0.5 147.5,-19.5 241.5,-19.5 241.5,-0.5 147.5,-0.5"/>
<text text-anchor="middle" x="194.5" y="-7.5" font-family="Helvetica,sans-Serif" font-size="10.00">marian::Node::val</text>
</a>
</g>
</g>
<!-- Node1&#45;&gt;Node5 -->
<g id="edge4" class="edge"><title>Node1&#45;&gt;Node5</title>
<path fill="none" stroke="midnightblue" d="M108.152,-33.4169C121.647,-29.7142 136.006,-25.7746 149.02,-22.2039"/>
<polygon fill="midnightblue" stroke="midnightblue" points="149.956,-25.5765 158.674,-19.5553 148.104,-18.826 149.956,-25.5765"/>
</g>
<!-- Node4 -->
<g id="node4" class="node"><title>Node4</title>
<g id="a_node4"><a xlink:href="../../d0/d7a/classmarian_1_1Node.html#a4aa5aa482c70595fa5d43c1fbabf5c18" target="_top" xlink:title="marian::Node::getBackend">
<polygon fill="white" stroke="black" points="281,-38.5 281,-57.5 414,-57.5 414,-38.5 281,-38.5"/>
<text text-anchor="middle" x="347.5" y="-45.5" font-family="Helvetica,sans-Serif" font-size="10.00">marian::Node::getBackend</text>
</a>
</g>
</g>
<!-- Node3&#45;&gt;Node4 -->
<g id="edge3" class="edge"><title>Node3&#45;&gt;Node4</title>
<path fill="none" stroke="midnightblue" d="M245.362,-48C253.512,-48 262.114,-48 270.721,-48"/>
<polygon fill="midnightblue" stroke="midnightblue" points="270.801,-51.5001 280.801,-48 270.801,-44.5001 270.801,-51.5001"/>
</g>
</g>
</svg>
