<?xml version="1.0" encoding="UTF-8" standalone="no"?>
<!DOCTYPE svg PUBLIC "-//W3C//DTD SVG 1.1//EN"
 "http://www.w3.org/Graphics/SVG/1.1/DTD/svg11.dtd">
<!-- Generated by graphviz version 2.38.0 (20140413.2041)
 -->
<!-- Title: marian::rnn::lstmOpsO Pages: 1 -->
<svg width="306pt" height="127pt"
 viewBox="0.00 0.00 306.00 126.50" xmlns="http://www.w3.org/2000/svg" xmlns:xlink="http://www.w3.org/1999/xlink">
<g id="graph0" class="graph" transform="scale(1 1) rotate(0) translate(4 122.5)">
<title>marian::rnn::lstmOpsO</title>
<polygon fill="white" stroke="none" points="-4,4 -4,-122.5 302,-122.5 302,4 -4,4"/>
<!-- Node1 -->
<g id="node1" class="node"><title>Node1</title>
<polygon fill="#bfbfbf" stroke="black" points="0,-55 0,-74 116,-74 116,-55 0,-55"/>
<text text-anchor="middle" x="58" y="-62" font-family="Helvetica,sans-Serif" font-size="10.00">marian::rnn::lstmOpsO</text>
</g>
<!-- Node2 -->
<g id="node2" class="node"><title>Node2</title>
<g id="a_node2"><a xlink:href="../../d7/d03/classmarian_1_1rnn_1_1GRU.html#a80e15118ba400b0e393a4b2eb9fcf23d" target="_top" xlink:title="marian::rnn::GRU::applyState">
<polygon fill="white" stroke="black" points="152,-99 152,-118 298,-118 298,-99 152,-99"/>
<text text-anchor="middle" x="225" y="-106" font-family="Helvetica,sans-Serif" font-size="10.00">marian::rnn::GRU::applyState</text>
</a>
</g>
</g>
<!-- Node1&#45;&gt;Node2 -->
<g id="edge1" class="edge"><title>Node1&#45;&gt;Node2</title>
<path fill="none" stroke="midnightblue" d="M104.022,-76.6475C119.253,-80.7451 136.362,-85.3347 152,-89.5 163.618,-92.5944 176.297,-95.9481 187.732,-98.9642"/>
<polygon fill="midnightblue" stroke="midnightblue" points="104.885,-73.2552 94.319,-74.0353 103.065,-80.0146 104.885,-73.2552"/>
</g>
<!-- Node3 -->
<g id="node3" class="node"><title>Node3</title>
<g id="a_node3"><a xlink:href="../../db/df5/classmarian_1_1rnn_1_1FastLSTM.html#a3d1a86ed6706682489aeaeac9e41ee4e" target="_top" xlink:title="marian::rnn::FastLSTM\l::applyState">
<polygon fill="white" stroke="black" points="166.5,-49.5 166.5,-79.5 283.5,-79.5 283.5,-49.5 166.5,-49.5"/>
<text text-anchor="start" x="174.5" y="-67.5" font-family="Helvetica,sans-Serif" font-size="10.00">marian::rnn::FastLSTM</text>
<text text-anchor="middle" x="225" y="-56.5" font-family="Helvetica,sans-Serif" font-size="10.00">::applyState</text>
</a>
</g>
</g>
<!-- Node1&#45;&gt;Node3 -->
<g id="edge2" class="edge"><title>Node1&#45;&gt;Node3</title>
<path fill="none" stroke="midnightblue" d="M126.269,-64.5C139.547,-64.5 153.369,-64.5 166.296,-64.5"/>
<polygon fill="midnightblue" stroke="midnightblue" points="126.246,-61.0001 116.246,-64.5 126.246,-68.0001 126.246,-61.0001"/>
</g>
<!-- Node4 -->
<g id="node4" class="node"><title>Node4</title>
<g id="a_node4"><a xlink:href="../../d7/d30/classmarian_1_1rnn_1_1TestLSTM.html#ac19a0a1f05d7eb0510af4436dfdd40ae" target="_top" xlink:title="marian::rnn::TestLSTM\l::applyState">
<polygon fill="white" stroke="black" points="166.5,-0.5 166.5,-30.5 283.5,-30.5 283.5,-0.5 166.5,-0.5"/>
<text text-anchor="start" x="174.5" y="-18.5" font-family="Helvetica,sans-Serif" font-size="10.00">marian::rnn::TestLSTM</text>
<text text-anchor="middle" x="225" y="-7.5" font-family="Helvetica,sans-Serif" font-size="10.00">::applyState</text>
</a>
</g>
</g>
<!-- Node1&#45;&gt;Node4 -->
<g id="edge3" class="edge"><title>Node1&#45;&gt;Node4</title>
<path fill="none" stroke="midnightblue" d="M100.937,-52.0459C122.977,-45.5008 150.159,-37.4287 173.365,-30.537"/>
<polygon fill="midnightblue" stroke="midnightblue" points="99.7952,-48.7339 91.2054,-54.936 101.788,-55.4443 99.7952,-48.7339"/>
</g>
</g>
</svg>
