<?xml version="1.0" encoding="UTF-8" standalone="no"?>
<!DOCTYPE svg PUBLIC "-//W3C//DTD SVG 1.1//EN"
 "http://www.w3.org/Graphics/SVG/1.1/DTD/svg11.dtd">
<!-- Generated by graphviz version 2.38.0 (20140413.2041)
 -->
<!-- Title: marian::rnn::gruOps Pages: 1 -->
<svg width="452pt" height="225pt"
 viewBox="0.00 0.00 452.00 225.00" xmlns="http://www.w3.org/2000/svg" xmlns:xlink="http://www.w3.org/1999/xlink">
<g id="graph0" class="graph" transform="scale(1 1) rotate(0) translate(4 221)">
<title>marian::rnn::gruOps</title>
<polygon fill="white" stroke="none" points="-4,4 -4,-221 448,-221 448,4 -4,4"/>
<!-- Node1 -->
<g id="node1" class="node"><title>Node1</title>
<polygon fill="#bfbfbf" stroke="black" points="0,-82 0,-101 103,-101 103,-82 0,-82"/>
<text text-anchor="middle" x="51.5" y="-89" font-family="Helvetica,sans-Serif" font-size="10.00">marian::rnn::gruOps</text>
</g>
<!-- Node2 -->
<g id="node2" class="node"><title>Node2</title>
<g id="a_node2"><a xlink:href="../../d0/d1d/classmarian_1_1rnn_1_1Tanh.html#a241e6bcc6cb37c94c8965dea5a5e2e91" target="_top" xlink:title="marian::rnn::Tanh::\lapplyState">
<polygon fill="white" stroke="black" points="162.5,-98.5 162.5,-128.5 261.5,-128.5 261.5,-98.5 162.5,-98.5"/>
<text text-anchor="start" x="170.5" y="-116.5" font-family="Helvetica,sans-Serif" font-size="10.00">marian::rnn::Tanh::</text>
<text text-anchor="middle" x="212" y="-105.5" font-family="Helvetica,sans-Serif" font-size="10.00">applyState</text>
</a>
</g>
</g>
<!-- Node1&#45;&gt;Node2 -->
<g id="edge1" class="edge"><title>Node1&#45;&gt;Node2</title>
<path fill="none" stroke="midnightblue" d="M113.047,-99.9039C129.318,-102.162 146.705,-104.576 162.245,-106.733"/>
<polygon fill="midnightblue" stroke="midnightblue" points="113.472,-96.4296 103.086,-98.5214 112.51,-103.363 113.472,-96.4296"/>
</g>
<!-- Node8 -->
<g id="node8" class="node"><title>Node8</title>
<g id="a_node8"><a xlink:href="../../d7/d03/classmarian_1_1rnn_1_1GRU.html#a80e15118ba400b0e393a4b2eb9fcf23d" target="_top" xlink:title="marian::rnn::GRU::applyState">
<polygon fill="white" stroke="black" points="139,-60 139,-79 285,-79 285,-60 139,-60"/>
<text text-anchor="middle" x="212" y="-67" font-family="Helvetica,sans-Serif" font-size="10.00">marian::rnn::GRU::applyState</text>
</a>
</g>
</g>
<!-- Node1&#45;&gt;Node8 -->
<g id="edge7" class="edge"><title>Node1&#45;&gt;Node8</title>
<path fill="none" stroke="midnightblue" d="M113.254,-83.0673C122.787,-81.7441 132.698,-80.3684 142.392,-79.0228"/>
<polygon fill="midnightblue" stroke="midnightblue" points="112.51,-79.6369 103.086,-84.4786 113.472,-86.5704 112.51,-79.6369"/>
</g>
<!-- Node3 -->
<g id="node3" class="node"><title>Node3</title>
<g id="a_node3"><a xlink:href="../../d0/d1d/classmarian_1_1rnn_1_1Tanh.html#acdaec0ddca02a9bcc45f2b436c64d310" target="_top" xlink:title="marian::rnn::Tanh::\lapply">
<polygon fill="white" stroke="black" points="333,-186.5 333,-216.5 432,-216.5 432,-186.5 333,-186.5"/>
<text text-anchor="start" x="341" y="-204.5" font-family="Helvetica,sans-Serif" font-size="10.00">marian::rnn::Tanh::</text>
<text text-anchor="middle" x="382.5" y="-193.5" font-family="Helvetica,sans-Serif" font-size="10.00">apply</text>
</a>
</g>
</g>
<!-- Node2&#45;&gt;Node3 -->
<g id="edge2" class="edge"><title>Node2&#45;&gt;Node3</title>
<path fill="none" stroke="midnightblue" d="M245.507,-134.025C266.62,-146.963 294.96,-163.6 321,-176.5 327.925,-179.931 335.44,-183.303 342.742,-186.405"/>
<polygon fill="midnightblue" stroke="midnightblue" points="247.276,-131.004 236.928,-128.729 243.598,-136.961 247.276,-131.004"/>
</g>
<!-- Node4 -->
<g id="node4" class="node"><title>Node4</title>
<g id="a_node4"><a xlink:href="../../d7/d03/classmarian_1_1rnn_1_1GRU.html#af8c554f9e899a74dfd897de082ef893e" target="_top" xlink:title="marian::rnn::GRU::apply">
<polygon fill="white" stroke="black" points="321,-148 321,-167 444,-167 444,-148 321,-148"/>
<text text-anchor="middle" x="382.5" y="-155" font-family="Helvetica,sans-Serif" font-size="10.00">marian::rnn::GRU::apply</text>
</a>
</g>
</g>
<!-- Node2&#45;&gt;Node4 -->
<g id="edge3" class="edge"><title>Node2&#45;&gt;Node4</title>
<path fill="none" stroke="midnightblue" d="M271.605,-128.804C295.975,-135.167 323.509,-142.357 344.92,-147.948"/>
<polygon fill="midnightblue" stroke="midnightblue" points="272.297,-125.367 261.737,-126.227 270.528,-132.14 272.297,-125.367"/>
</g>
<!-- Node5 -->
<g id="node5" class="node"><title>Node5</title>
<g id="a_node5"><a xlink:href="../../db/df5/classmarian_1_1rnn_1_1FastLSTM.html#a275238cb651482fac640d18d0a5ed265" target="_top" xlink:title="marian::rnn::FastLSTM\l::apply">
<polygon fill="white" stroke="black" points="324,-98.5 324,-128.5 441,-128.5 441,-98.5 324,-98.5"/>
<text text-anchor="start" x="332" y="-116.5" font-family="Helvetica,sans-Serif" font-size="10.00">marian::rnn::FastLSTM</text>
<text text-anchor="middle" x="382.5" y="-105.5" font-family="Helvetica,sans-Serif" font-size="10.00">::apply</text>
</a>
</g>
</g>
<!-- Node2&#45;&gt;Node5 -->
<g id="edge4" class="edge"><title>Node2&#45;&gt;Node5</title>
<path fill="none" stroke="midnightblue" d="M272.007,-113.5C288.852,-113.5 307.181,-113.5 323.939,-113.5"/>
<polygon fill="midnightblue" stroke="midnightblue" points="271.737,-110 261.737,-113.5 271.737,-117 271.737,-110"/>
</g>
<!-- Node6 -->
<g id="node6" class="node"><title>Node6</title>
<g id="a_node6"><a xlink:href="../../db/ddd/classmarian_1_1rnn_1_1SlowLSTM.html#a70fd0fdd071fd698f82ede70b1479fbb" target="_top" xlink:title="marian::rnn::SlowLSTM\l::apply">
<polygon fill="white" stroke="black" points="323,-49.5 323,-79.5 442,-79.5 442,-49.5 323,-49.5"/>
<text text-anchor="start" x="331" y="-67.5" font-family="Helvetica,sans-Serif" font-size="10.00">marian::rnn::SlowLSTM</text>
<text text-anchor="middle" x="382.5" y="-56.5" font-family="Helvetica,sans-Serif" font-size="10.00">::apply</text>
</a>
</g>
</g>
<!-- Node2&#45;&gt;Node6 -->
<g id="edge5" class="edge"><title>Node2&#45;&gt;Node6</title>
<path fill="none" stroke="midnightblue" d="M271.438,-96.5062C290.367,-91.0015 311.222,-84.9371 329.64,-79.5811"/>
<polygon fill="midnightblue" stroke="midnightblue" points="270.362,-93.174 261.737,-99.3272 272.317,-99.8955 270.362,-93.174"/>
</g>
<!-- Node7 -->
<g id="node7" class="node"><title>Node7</title>
<g id="a_node7"><a xlink:href="../../d7/d30/classmarian_1_1rnn_1_1TestLSTM.html#a1e2524b853677d43eb4425d3e0bf9d97" target="_top" xlink:title="marian::rnn::TestLSTM\l::apply">
<polygon fill="white" stroke="black" points="324,-0.5 324,-30.5 441,-30.5 441,-0.5 324,-0.5"/>
<text text-anchor="start" x="332" y="-18.5" font-family="Helvetica,sans-Serif" font-size="10.00">marian::rnn::TestLSTM</text>
<text text-anchor="middle" x="382.5" y="-7.5" font-family="Helvetica,sans-Serif" font-size="10.00">::apply</text>
</a>
</g>
</g>
<!-- Node2&#45;&gt;Node7 -->
<g id="edge6" class="edge"><title>Node2&#45;&gt;Node7</title>
<path fill="none" stroke="midnightblue" d="M271.29,-96.7356C276.121,-94.3239 280.767,-91.591 285,-88.5 306.536,-72.7734 299.927,-56.8408 321,-40.5 325.85,-36.7393 331.346,-33.4528 336.999,-30.6078"/>
<polygon fill="midnightblue" stroke="midnightblue" points="269.518,-93.6947 261.832,-100.987 272.388,-100.079 269.518,-93.6947"/>
</g>
</g>
</svg>
