<?xml version="1.0" encoding="UTF-8" standalone="no"?>
<!DOCTYPE svg PUBLIC "-//W3C//DTD SVG 1.1//EN"
 "http://www.w3.org/Graphics/SVG/1.1/DTD/svg11.dtd">
<!-- Generated by graphviz version 2.38.0 (20140413.2041)
 -->
<!-- Title: marian::Deconcatenate Pages: 1 -->
<svg width="305pt" height="78pt"
 viewBox="0.00 0.00 305.00 77.50" xmlns="http://www.w3.org/2000/svg" xmlns:xlink="http://www.w3.org/1999/xlink">
<g id="graph0" class="graph" transform="scale(1 1) rotate(0) translate(4 73.5)">
<title>marian::Deconcatenate</title>
<polygon fill="white" stroke="none" points="-4,4 -4,-73.5 301,-73.5 301,4 -4,4"/>
<!-- Node1 -->
<g id="node1" class="node"><title>Node1</title>
<polygon fill="#bfbfbf" stroke="black" points="0,-22.5 0,-41.5 118,-41.5 118,-22.5 0,-22.5"/>
<text text-anchor="middle" x="59" y="-29.5" font-family="Helvetica,sans-Serif" font-size="10.00">marian::Deconcatenate</text>
</g>
<!-- Node2 -->
<g id="node2" class="node"><title>Node2</title>
<g id="a_node2"><a xlink:href="$d5/d3e/structmarian_1_1ConcatenateNodeOp.html#a256bf52a8e098dddcdeddacb39e55929" xlink:title="marian::ConcatenateNodeOp\l::backward">
<polygon fill="white" stroke="black" points="154,-39 154,-69 297,-69 297,-39 154,-39"/>
<text text-anchor="start" x="162" y="-57" font-family="Helvetica,sans-Serif" font-size="10.00">marian::ConcatenateNodeOp</text>
<text text-anchor="middle" x="225.5" y="-46" font-family="Helvetica,sans-Serif" font-size="10.00">::backward</text>
</a>
</g>
</g>
<!-- Node1&#45;&gt;Node2 -->
<g id="edge1" class="edge"><title>Node1&#45;&gt;Node2</title>
<path fill="none" stroke="midnightblue" d="M128.535,-41.1657C136.893,-42.2836 145.446,-43.4274 153.835,-44.5493"/>
<polygon fill="midnightblue" stroke="midnightblue" points="128.835,-37.6749 118.46,-39.8183 127.907,-44.6131 128.835,-37.6749"/>
</g>
<!-- Node3 -->
<g id="node3" class="node"><title>Node3</title>
<g id="a_node3"><a xlink:href="$da/d22/namespacemarian.html#a4dcaa19981e73d7875242f2ae1fdd11c" xlink:title="marian::Pick">
<polygon fill="white" stroke="black" points="190,-0.5 190,-19.5 261,-19.5 261,-0.5 190,-0.5"/>
<text text-anchor="middle" x="225.5" y="-7.5" font-family="Helvetica,sans-Serif" font-size="10.00">marian::Pick</text>
</a>
</g>
</g>
<!-- Node1&#45;&gt;Node3 -->
<g id="edge2" class="edge"><title>Node1&#45;&gt;Node3</title>
<path fill="none" stroke="midnightblue" d="M128.372,-22.856C149.484,-20.0326 171.851,-17.0412 189.692,-14.6551"/>
<polygon fill="midnightblue" stroke="midnightblue" points="127.907,-19.3869 118.46,-24.1817 128.835,-26.3251 127.907,-19.3869"/>
</g>
</g>
</svg>
