<?xml version="1.0" encoding="UTF-8" standalone="no"?>
<!DOCTYPE svg PUBLIC "-//W3C//DTD SVG 1.1//EN"
 "http://www.w3.org/Graphics/SVG/1.1/DTD/svg11.dtd">
<!-- Generated by graphviz version 2.38.0 (20140413.2041)
 -->
<!-- Title: marian::dropout Pages: 1 -->
<svg width="244pt" height="180pt"
 viewBox="0.00 0.00 244.00 180.00" xmlns="http://www.w3.org/2000/svg" xmlns:xlink="http://www.w3.org/1999/xlink">
<g id="graph0" class="graph" transform="scale(1 1) rotate(0) translate(4 176)">
<title>marian::dropout</title>
<polygon fill="white" stroke="none" points="-4,4 -4,-176 240,-176 240,4 -4,4"/>
<!-- Node1 -->
<g id="node1" class="node"><title>Node1</title>
<polygon fill="#bfbfbf" stroke="black" points="0,-76.5 0,-95.5 84,-95.5 84,-76.5 0,-76.5"/>
<text text-anchor="middle" x="42" y="-83.5" font-family="Helvetica,sans-Serif" font-size="10.00">marian::dropout</text>
</g>
<!-- Node2 -->
<g id="node2" class="node"><title>Node2</title>
<g id="a_node2"><a xlink:href="$d4/d04/namespacemarian_1_1keywords.html#a74d7a2502faafdd421ef3dff629e284f" xlink:title="marian::keywords::Get">
<polygon fill="white" stroke="black" points="120,-152.5 120,-171.5 236,-171.5 236,-152.5 120,-152.5"/>
<text text-anchor="middle" x="178" y="-159.5" font-family="Helvetica,sans-Serif" font-size="10.00">marian::keywords::Get</text>
</a>
</g>
</g>
<!-- Node1&#45;&gt;Node2 -->
<g id="edge1" class="edge"><title>Node1&#45;&gt;Node2</title>
<path fill="none" stroke="midnightblue" d="M53.7363,-95.6887C67.9789,-108.114 94.3235,-129.649 120,-143 124.066,-145.114 128.416,-147.063 132.832,-148.84"/>
<polygon fill="midnightblue" stroke="midnightblue" points="131.928,-152.238 142.52,-152.454 134.374,-145.679 131.928,-152.238"/>
</g>
<!-- Node3 -->
<g id="node3" class="node"><title>Node3</title>
<g id="a_node3"><a xlink:href="$da/d22/namespacemarian.html#a763e5e9b5d5a329d2420fe9bab95476d" xlink:title="marian::shift">
<polygon fill="white" stroke="black" points="142.5,-114.5 142.5,-133.5 213.5,-133.5 213.5,-114.5 142.5,-114.5"/>
<text text-anchor="middle" x="178" y="-121.5" font-family="Helvetica,sans-Serif" font-size="10.00">marian::shift</text>
</a>
</g>
</g>
<!-- Node1&#45;&gt;Node3 -->
<g id="edge2" class="edge"><title>Node1&#45;&gt;Node3</title>
<path fill="none" stroke="midnightblue" d="M76.8139,-95.589C94.0326,-100.472 115.164,-106.464 133.573,-111.685"/>
<polygon fill="midnightblue" stroke="midnightblue" points="132.621,-115.053 143.197,-114.414 134.531,-108.319 132.621,-115.053"/>
</g>
<!-- Node4 -->
<g id="node4" class="node"><title>Node4</title>
<g id="a_node4"><a xlink:href="$da/d22/namespacemarian.html#a3dbe8b5eb203876cd08cf3fe75a1c6bc" xlink:title="marian::convolution">
<polygon fill="white" stroke="black" points="127.5,-76.5 127.5,-95.5 228.5,-95.5 228.5,-76.5 127.5,-76.5"/>
<text text-anchor="middle" x="178" y="-83.5" font-family="Helvetica,sans-Serif" font-size="10.00">marian::convolution</text>
</a>
</g>
</g>
<!-- Node1&#45;&gt;Node4 -->
<g id="edge3" class="edge"><title>Node1&#45;&gt;Node4</title>
<path fill="none" stroke="midnightblue" d="M84.2978,-86C94.66,-86 105.989,-86 117.058,-86"/>
<polygon fill="midnightblue" stroke="midnightblue" points="117.115,-89.5001 127.115,-86 117.115,-82.5001 117.115,-89.5001"/>
</g>
<!-- Node5 -->
<g id="node5" class="node"><title>Node5</title>
<g id="a_node5"><a xlink:href="$da/d22/namespacemarian.html#a8ee119d3ee4867a3c826de62ea1de4f5" xlink:title="marian::avg_pooling">
<polygon fill="white" stroke="black" points="126,-38.5 126,-57.5 230,-57.5 230,-38.5 126,-38.5"/>
<text text-anchor="middle" x="178" y="-45.5" font-family="Helvetica,sans-Serif" font-size="10.00">marian::avg_pooling</text>
</a>
</g>
</g>
<!-- Node1&#45;&gt;Node5 -->
<g id="edge4" class="edge"><title>Node1&#45;&gt;Node5</title>
<path fill="none" stroke="midnightblue" d="M76.8139,-76.411C94.0326,-71.5281 115.164,-65.5357 133.573,-60.315"/>
<polygon fill="midnightblue" stroke="midnightblue" points="134.531,-63.6815 143.197,-57.5859 132.621,-56.947 134.531,-63.6815"/>
</g>
<!-- Node6 -->
<g id="node6" class="node"><title>Node6</title>
<g id="a_node6"><a xlink:href="$da/d22/namespacemarian.html#abfe3b8c37f479da0a31a1e843d8bdedf" xlink:title="marian::max_pooling">
<polygon fill="white" stroke="black" points="124.5,-0.5 124.5,-19.5 231.5,-19.5 231.5,-0.5 124.5,-0.5"/>
<text text-anchor="middle" x="178" y="-7.5" font-family="Helvetica,sans-Serif" font-size="10.00">marian::max_pooling</text>
</a>
</g>
</g>
<!-- Node1&#45;&gt;Node6 -->
<g id="edge5" class="edge"><title>Node1&#45;&gt;Node6</title>
<path fill="none" stroke="midnightblue" d="M53.7363,-76.3113C67.9789,-63.8856 94.3235,-42.351 120,-29 124.066,-26.8856 128.416,-24.9374 132.832,-23.1605"/>
<polygon fill="midnightblue" stroke="midnightblue" points="134.374,-26.3207 142.52,-19.5463 131.928,-19.7622 134.374,-26.3207"/>
</g>
</g>
</svg>
