<?xml version="1.0" encoding="UTF-8" standalone="no"?>
<!DOCTYPE svg PUBLIC "-//W3C//DTD SVG 1.1//EN"
 "http://www.w3.org/Graphics/SVG/1.1/DTD/svg11.dtd">
<!-- Generated by graphviz version 2.38.0 (20140413.2041)
 -->
<!-- Title: marian::LogSoftmaxGrad Pages: 1 -->
<svg width="309pt" height="78pt"
 viewBox="0.00 0.00 309.00 77.50" xmlns="http://www.w3.org/2000/svg" xmlns:xlink="http://www.w3.org/1999/xlink">
<g id="graph0" class="graph" transform="scale(1 1) rotate(0) translate(4 73.5)">
<title>marian::LogSoftmaxGrad</title>
<polygon fill="white" stroke="none" points="-4,4 -4,-73.5 305,-73.5 305,4 -4,4"/>
<!-- Node1 -->
<g id="node1" class="node"><title>Node1</title>
<polygon fill="#bfbfbf" stroke="black" points="0,-22.5 0,-41.5 125,-41.5 125,-22.5 0,-22.5"/>
<text text-anchor="middle" x="62.5" y="-29.5" font-family="Helvetica,sans-Serif" font-size="10.00">marian::LogSoftmaxGrad</text>
</g>
<!-- Node2 -->
<g id="node2" class="node"><title>Node2</title>
<g id="a_node2"><a xlink:href="$d3/d92/structmarian_1_1LogSoftmaxNodeOp.html#ab2ae88fe3ba607a32e566c6e0022c9f7" xlink:title="marian::LogSoftmaxNodeOp\l::backwardOps">
<polygon fill="white" stroke="black" points="161,-39 161,-69 301,-69 301,-39 161,-39"/>
<text text-anchor="start" x="169" y="-57" font-family="Helvetica,sans-Serif" font-size="10.00">marian::LogSoftmaxNodeOp</text>
<text text-anchor="middle" x="231" y="-46" font-family="Helvetica,sans-Serif" font-size="10.00">::backwardOps</text>
</a>
</g>
</g>
<!-- Node1&#45;&gt;Node2 -->
<g id="edge1" class="edge"><title>Node1&#45;&gt;Node2</title>
<path fill="none" stroke="midnightblue" d="M134.997,-41.447C143.576,-42.5807 152.326,-43.7368 160.871,-44.8659"/>
<polygon fill="midnightblue" stroke="midnightblue" points="135.398,-37.9697 125.025,-40.1295 134.481,-44.9093 135.398,-37.9697"/>
</g>
<!-- Node3 -->
<g id="node3" class="node"><title>Node3</title>
<g id="a_node3"><a xlink:href="$da/d22/namespacemarian.html#a4dcaa19981e73d7875242f2ae1fdd11c" xlink:title="marian::Pick">
<polygon fill="white" stroke="black" points="195.5,-0.5 195.5,-19.5 266.5,-19.5 266.5,-0.5 195.5,-0.5"/>
<text text-anchor="middle" x="231" y="-7.5" font-family="Helvetica,sans-Serif" font-size="10.00">marian::Pick</text>
</a>
</g>
</g>
<!-- Node1&#45;&gt;Node3 -->
<g id="edge2" class="edge"><title>Node1&#45;&gt;Node3</title>
<path fill="none" stroke="midnightblue" d="M135.157,-22.5319C156.004,-19.7772 177.841,-16.8919 195.299,-14.5851"/>
<polygon fill="midnightblue" stroke="midnightblue" points="134.481,-19.0907 125.025,-23.8705 135.398,-26.0303 134.481,-19.0907"/>
</g>
</g>
</svg>
