<?xml version="1.0" encoding="UTF-8" standalone="no"?>
<!DOCTYPE svg PUBLIC "-//W3C//DTD SVG 1.1//EN"
 "http://www.w3.org/Graphics/SVG/1.1/DTD/svg11.dtd">
<!-- Generated by graphviz version 2.38.0 (20140413.2041)
 -->
<!-- Title: marian::gAddR2Eq Pages: 1 -->
<svg width="463pt" height="104pt"
 viewBox="0.00 0.00 463.00 104.00" xmlns="http://www.w3.org/2000/svg" xmlns:xlink="http://www.w3.org/1999/xlink">
<g id="graph0" class="graph" transform="scale(1 1) rotate(0) translate(4 100)">
<title>marian::gAddR2Eq</title>
<polygon fill="white" stroke="none" points="-4,4 -4,-100 459,-100 459,4 -4,4"/>
<!-- Node1 -->
<g id="node1" class="node"><title>Node1</title>
<polygon fill="#bfbfbf" stroke="black" points="0,-38.5 0,-57.5 99,-57.5 99,-38.5 0,-38.5"/>
<text text-anchor="middle" x="49.5" y="-45.5" font-family="Helvetica,sans-Serif" font-size="10.00">marian::gAddR2Eq</text>
</g>
<!-- Node2 -->
<g id="node2" class="node"><title>Node2</title>
<g id="a_node2"><a xlink:href="$d6/dbf/structmarian_1_1ShapeGPU.html#a4af583e3ce361798a8b84c4f0a058e5d" xlink:title="Gets the total number of elements in a tensor of this shape. ">
<polygon fill="white" stroke="black" points="135,-76.5 135,-95.5 282,-95.5 282,-76.5 135,-76.5"/>
<text text-anchor="middle" x="208.5" y="-83.5" font-family="Helvetica,sans-Serif" font-size="10.00">marian::ShapeGPU::elements</text>
</a>
</g>
</g>
<!-- Node1&#45;&gt;Node2 -->
<g id="edge1" class="edge"><title>Node1&#45;&gt;Node2</title>
<path fill="none" stroke="midnightblue" d="M90.1177,-57.589C110.836,-62.6035 136.388,-68.7881 158.356,-74.1053"/>
<polygon fill="midnightblue" stroke="midnightblue" points="157.624,-77.5292 168.167,-76.4799 159.271,-70.7256 157.624,-77.5292"/>
</g>
<!-- Node3 -->
<g id="node3" class="node"><title>Node3</title>
<g id="a_node3"><a xlink:href="$d6/dbf/structmarian_1_1ShapeGPU.html#a35f26e62cc21105d42ab2e872298d01a" xlink:title="marian::ShapeGPU::dims">
<polygon fill="white" stroke="black" points="144.5,-38.5 144.5,-57.5 272.5,-57.5 272.5,-38.5 144.5,-38.5"/>
<text text-anchor="middle" x="208.5" y="-45.5" font-family="Helvetica,sans-Serif" font-size="10.00">marian::ShapeGPU::dims</text>
</a>
</g>
</g>
<!-- Node1&#45;&gt;Node3 -->
<g id="edge2" class="edge"><title>Node1&#45;&gt;Node3</title>
<path fill="none" stroke="midnightblue" d="M99.3152,-48C110.315,-48 122.227,-48 133.99,-48"/>
<polygon fill="midnightblue" stroke="midnightblue" points="134.261,-51.5001 144.261,-48 134.261,-44.5001 134.261,-51.5001"/>
</g>
<!-- Node4 -->
<g id="node4" class="node"><title>Node4</title>
<g id="a_node4"><a xlink:href="$d6/dbf/structmarian_1_1ShapeGPU.html#abba723039045f88819630d71dc448744" xlink:title="marian::ShapeGPU::bindex">
<polygon fill="white" stroke="black" points="140.5,-0.5 140.5,-19.5 276.5,-19.5 276.5,-0.5 140.5,-0.5"/>
<text text-anchor="middle" x="208.5" y="-7.5" font-family="Helvetica,sans-Serif" font-size="10.00">marian::ShapeGPU::bindex</text>
</a>
</g>
</g>
<!-- Node1&#45;&gt;Node4 -->
<g id="edge3" class="edge"><title>Node1&#45;&gt;Node4</title>
<path fill="none" stroke="midnightblue" d="M90.1177,-38.411C110.836,-33.3965 136.388,-27.2119 158.356,-21.8947"/>
<polygon fill="midnightblue" stroke="midnightblue" points="159.271,-25.2744 168.167,-19.5201 157.624,-18.4708 159.271,-25.2744"/>
</g>
<!-- Node5 -->
<g id="node5" class="node"><title>Node5</title>
<g id="a_node5"><a xlink:href="$d6/dbf/structmarian_1_1ShapeGPU.html#a654ae2347fb721431816e338b1f55292" xlink:title="marian::ShapeGPU::bstride">
<polygon fill="white" stroke="black" points="318,-0.5 318,-19.5 455,-19.5 455,-0.5 318,-0.5"/>
<text text-anchor="middle" x="386.5" y="-7.5" font-family="Helvetica,sans-Serif" font-size="10.00">marian::ShapeGPU::bstride</text>
</a>
</g>
</g>
<!-- Node4&#45;&gt;Node5 -->
<g id="edge4" class="edge"><title>Node4&#45;&gt;Node5</title>
<path fill="none" stroke="midnightblue" d="M276.54,-10C286.667,-10 297.188,-10 307.521,-10"/>
<polygon fill="midnightblue" stroke="midnightblue" points="307.771,-13.5001 317.771,-10 307.771,-6.5001 307.771,-13.5001"/>
</g>
</g>
</svg>
