<?xml version="1.0" encoding="UTF-8" standalone="no"?>
<!DOCTYPE svg PUBLIC "-//W3C//DTD SVG 1.1//EN"
 "http://www.w3.org/Graphics/SVG/1.1/DTD/svg11.dtd">
<!-- Generated by graphviz version 2.38.0 (20140413.2041)
 -->
<!-- Title: marian::convolution Pages: 1 -->
<svg width="615pt" height="802pt"
 viewBox="0.00 0.00 615.00 802.00" xmlns="http://www.w3.org/2000/svg" xmlns:xlink="http://www.w3.org/1999/xlink">
<g id="graph0" class="graph" transform="scale(1 1) rotate(0) translate(4 798)">
<title>marian::convolution</title>
<polygon fill="white" stroke="none" points="-4,4 -4,-798 611,-798 611,4 -4,4"/>
<!-- Node1 -->
<g id="node1" class="node"><title>Node1</title>
<polygon fill="#bfbfbf" stroke="black" points="0,-420 0,-439 101,-439 101,-420 0,-420"/>
<text text-anchor="middle" x="50.5" y="-427" font-family="Helvetica,sans-Serif" font-size="10.00">marian::convolution</text>
</g>
<!-- Node2 -->
<g id="node2" class="node"><title>Node2</title>
<g id="a_node2"><a xlink:href="$d8/d2c/classmarian_1_1Convolution.html#ac5755a44695ec454ca80d8f309a20e80" xlink:title="marian::Convolution\l::operator()">
<polygon fill="white" stroke="black" points="137,-436.5 137,-466.5 241,-466.5 241,-436.5 137,-436.5"/>
<text text-anchor="start" x="145" y="-454.5" font-family="Helvetica,sans-Serif" font-size="10.00">marian::Convolution</text>
<text text-anchor="middle" x="189" y="-443.5" font-family="Helvetica,sans-Serif" font-size="10.00">::operator()</text>
</a>
</g>
</g>
<!-- Node1&#45;&gt;Node2 -->
<g id="edge1" class="edge"><title>Node1&#45;&gt;Node2</title>
<path fill="none" stroke="midnightblue" d="M111.093,-439.105C119.649,-440.484 128.39,-441.893 136.766,-443.242"/>
<polygon fill="midnightblue" stroke="midnightblue" points="111.595,-435.641 101.166,-437.505 110.481,-442.551 111.595,-435.641"/>
</g>
<!-- Node3 -->
<g id="node3" class="node"><title>Node3</title>
<g id="a_node3"><a xlink:href="$da/d22/namespacemarian.html#a268400392f22176821c7c4a36733b178" xlink:title="marian::dropout">
<polygon fill="white" stroke="black" points="147,-398 147,-417 231,-417 231,-398 147,-398"/>
<text text-anchor="middle" x="189" y="-405" font-family="Helvetica,sans-Serif" font-size="10.00">marian::dropout</text>
</a>
</g>
</g>
<!-- Node1&#45;&gt;Node3 -->
<g id="edge2" class="edge"><title>Node1&#45;&gt;Node3</title>
<path fill="none" stroke="midnightblue" d="M111.122,-419.891C123.115,-417.958 135.47,-415.966 146.672,-414.161"/>
<polygon fill="midnightblue" stroke="midnightblue" points="110.481,-416.449 101.166,-421.495 111.595,-423.359 110.481,-416.449"/>
</g>
<!-- Node4 -->
<g id="node4" class="node"><title>Node4</title>
<g id="a_node4"><a xlink:href="$d7/db4/classmarian_1_1rnn_1_1GlobalAttention.html#ab5e4f0df89d2569d44a28696de3ace0f" xlink:title="marian::rnn::GlobalAttention\l::GlobalAttention">
<polygon fill="white" stroke="black" points="281.5,-763.5 281.5,-793.5 419.5,-793.5 419.5,-763.5 281.5,-763.5"/>
<text text-anchor="start" x="289.5" y="-781.5" font-family="Helvetica,sans-Serif" font-size="10.00">marian::rnn::GlobalAttention</text>
<text text-anchor="middle" x="350.5" y="-770.5" font-family="Helvetica,sans-Serif" font-size="10.00">::GlobalAttention</text>
</a>
</g>
</g>
<!-- Node3&#45;&gt;Node4 -->
<g id="edge3" class="edge"><title>Node3&#45;&gt;Node4</title>
<path fill="none" stroke="midnightblue" d="M236.8,-422.966C238.331,-424.35 239.743,-425.857 241,-427.5 329.876,-543.599 185.02,-640.845 277,-754.5 279.752,-757.901 283,-760.824 286.569,-763.336"/>
<polygon fill="midnightblue" stroke="midnightblue" points="238.514,-419.893 228.315,-417.025 234.499,-425.628 238.514,-419.893"/>
</g>
<!-- Node5 -->
<g id="node5" class="node"><title>Node5</title>
<g id="a_node5"><a xlink:href="$d7/db4/classmarian_1_1rnn_1_1GlobalAttention.html#a7f1781d0f0c94222a2b0343cb55915ca" xlink:title="marian::rnn::GlobalAttention\l::apply">
<polygon fill="white" stroke="black" points="281.5,-714.5 281.5,-744.5 419.5,-744.5 419.5,-714.5 281.5,-714.5"/>
<text text-anchor="start" x="289.5" y="-732.5" font-family="Helvetica,sans-Serif" font-size="10.00">marian::rnn::GlobalAttention</text>
<text text-anchor="middle" x="350.5" y="-721.5" font-family="Helvetica,sans-Serif" font-size="10.00">::apply</text>
</a>
</g>
</g>
<!-- Node3&#45;&gt;Node5 -->
<g id="edge4" class="edge"><title>Node3&#45;&gt;Node5</title>
<path fill="none" stroke="midnightblue" d="M236.76,-422.996C238.302,-424.372 239.727,-425.87 241,-427.5 317.674,-525.699 197.701,-609.408 277,-705.5 279.785,-708.875 283.056,-711.778 286.643,-714.276"/>
<polygon fill="midnightblue" stroke="midnightblue" points="238.451,-419.909 228.24,-417.083 234.46,-425.66 238.451,-419.909"/>
</g>
<!-- Node6 -->
<g id="node6" class="node"><title>Node6</title>
<g id="a_node6"><a xlink:href="$d0/d1d/classmarian_1_1rnn_1_1Tanh.html#a27567fac50eea00c776cc76d6f9351df" xlink:title="marian::rnn::Tanh::\lapplyInput">
<polygon fill="white" stroke="black" points="301,-616.5 301,-646.5 400,-646.5 400,-616.5 301,-616.5"/>
<text text-anchor="start" x="309" y="-634.5" font-family="Helvetica,sans-Serif" font-size="10.00">marian::rnn::Tanh::</text>
<text text-anchor="middle" x="350.5" y="-623.5" font-family="Helvetica,sans-Serif" font-size="10.00">applyInput</text>
</a>
</g>
</g>
<!-- Node3&#45;&gt;Node6 -->
<g id="edge5" class="edge"><title>Node3&#45;&gt;Node6</title>
<path fill="none" stroke="midnightblue" d="M236.043,-422.628C237.842,-424.104 239.511,-425.724 241,-427.5 293.139,-489.682 223.577,-545.417 277,-606.5 283.311,-613.716 291.807,-618.85 300.759,-622.503"/>
<polygon fill="midnightblue" stroke="midnightblue" points="237.749,-419.562 227.461,-417.03 233.924,-425.425 237.749,-419.562"/>
</g>
<!-- Node12 -->
<g id="node12" class="node"><title>Node12</title>
<g id="a_node12"><a xlink:href="$d0/d1d/classmarian_1_1rnn_1_1Tanh.html#a241e6bcc6cb37c94c8965dea5a5e2e91" xlink:title="marian::rnn::Tanh::\lapplyState">
<polygon fill="white" stroke="black" points="301,-665.5 301,-695.5 400,-695.5 400,-665.5 301,-665.5"/>
<text text-anchor="start" x="309" y="-683.5" font-family="Helvetica,sans-Serif" font-size="10.00">marian::rnn::Tanh::</text>
<text text-anchor="middle" x="350.5" y="-672.5" font-family="Helvetica,sans-Serif" font-size="10.00">applyState</text>
</a>
</g>
</g>
<!-- Node3&#45;&gt;Node12 -->
<g id="edge11" class="edge"><title>Node3&#45;&gt;Node12</title>
<path fill="none" stroke="midnightblue" d="M236.225,-422.626C237.966,-424.102 239.573,-425.722 241,-427.5 305.502,-507.838 210.351,-577.934 277,-656.5 283.261,-663.881 291.847,-669.004 300.922,-672.556"/>
<polygon fill="midnightblue" stroke="midnightblue" points="238.135,-419.693 227.881,-417.029 234.236,-425.506 238.135,-419.693"/>
</g>
<!-- Node13 -->
<g id="node13" class="node"><title>Node13</title>
<g id="a_node13"><a xlink:href="$d7/d03/classmarian_1_1rnn_1_1GRU.html#a1e68f7a3e40ee5fefa954096e3eb2bdc" xlink:title="marian::rnn::GRU::applyInput">
<polygon fill="white" stroke="black" points="278,-578 278,-597 423,-597 423,-578 278,-578"/>
<text text-anchor="middle" x="350.5" y="-585" font-family="Helvetica,sans-Serif" font-size="10.00">marian::rnn::GRU::applyInput</text>
</a>
</g>
</g>
<!-- Node3&#45;&gt;Node13 -->
<g id="edge17" class="edge"><title>Node3&#45;&gt;Node13</title>
<path fill="none" stroke="midnightblue" d="M235.84,-422.651C237.704,-424.122 239.44,-425.734 241,-427.5 283.818,-475.974 231.411,-522.622 277,-568.5 280.852,-572.377 285.392,-575.492 290.289,-577.993"/>
<polygon fill="midnightblue" stroke="midnightblue" points="237.33,-419.452 227.008,-417.066 233.589,-425.369 237.33,-419.452"/>
</g>
<!-- Node14 -->
<g id="node14" class="node"><title>Node14</title>
<g id="a_node14"><a xlink:href="$d7/d03/classmarian_1_1rnn_1_1GRU.html#a80e15118ba400b0e393a4b2eb9fcf23d" xlink:title="marian::rnn::GRU::applyState">
<polygon fill="white" stroke="black" points="277.5,-540 277.5,-559 423.5,-559 423.5,-540 277.5,-540"/>
<text text-anchor="middle" x="350.5" y="-547" font-family="Helvetica,sans-Serif" font-size="10.00">marian::rnn::GRU::applyState</text>
</a>
</g>
</g>
<!-- Node3&#45;&gt;Node14 -->
<g id="edge18" class="edge"><title>Node3&#45;&gt;Node14</title>
<path fill="none" stroke="midnightblue" d="M235.01,-422.344C237.163,-423.899 239.181,-425.612 241,-427.5 274.641,-462.427 241.367,-497.608 277,-530.5 281.207,-534.383 286.109,-537.493 291.344,-539.98"/>
<polygon fill="midnightblue" stroke="midnightblue" points="236.554,-419.191 226.167,-417.104 232.985,-425.213 236.554,-419.191"/>
</g>
<!-- Node15 -->
<g id="node15" class="node"><title>Node15</title>
<g id="a_node15"><a xlink:href="$db/df5/classmarian_1_1rnn_1_1FastLSTM.html#ab6b81e03d65d3f49f345ddf14a379b38" xlink:title="marian::rnn::FastLSTM\l::applyInput">
<polygon fill="white" stroke="black" points="292,-490.5 292,-520.5 409,-520.5 409,-490.5 292,-490.5"/>
<text text-anchor="start" x="300" y="-508.5" font-family="Helvetica,sans-Serif" font-size="10.00">marian::rnn::FastLSTM</text>
<text text-anchor="middle" x="350.5" y="-497.5" font-family="Helvetica,sans-Serif" font-size="10.00">::applyInput</text>
</a>
</g>
</g>
<!-- Node3&#45;&gt;Node15 -->
<g id="edge19" class="edge"><title>Node3&#45;&gt;Node15</title>
<path fill="none" stroke="midnightblue" d="M232.196,-421.577C235.31,-423.347 238.289,-425.315 241,-427.5 263.46,-445.598 254.059,-464.015 277,-481.5 281.534,-484.956 286.591,-487.928 291.866,-490.481"/>
<polygon fill="midnightblue" stroke="midnightblue" points="233.684,-418.408 223.17,-417.1 230.573,-424.679 233.684,-418.408"/>
</g>
<!-- Node16 -->
<g id="node16" class="node"><title>Node16</title>
<g id="a_node16"><a xlink:href="$db/df5/classmarian_1_1rnn_1_1FastLSTM.html#a3d1a86ed6706682489aeaeac9e41ee4e" xlink:title="marian::rnn::FastLSTM\l::applyState">
<polygon fill="white" stroke="black" points="292,-441.5 292,-471.5 409,-471.5 409,-441.5 292,-441.5"/>
<text text-anchor="start" x="300" y="-459.5" font-family="Helvetica,sans-Serif" font-size="10.00">marian::rnn::FastLSTM</text>
<text text-anchor="middle" x="350.5" y="-448.5" font-family="Helvetica,sans-Serif" font-size="10.00">::applyState</text>
</a>
</g>
</g>
<!-- Node3&#45;&gt;Node16 -->
<g id="edge20" class="edge"><title>Node3&#45;&gt;Node16</title>
<path fill="none" stroke="midnightblue" d="M230.827,-420.043C252.081,-426.572 278.221,-434.602 300.553,-441.463"/>
<polygon fill="midnightblue" stroke="midnightblue" points="231.719,-416.655 221.132,-417.064 229.663,-423.346 231.719,-416.655"/>
</g>
<!-- Node17 -->
<g id="node17" class="node"><title>Node17</title>
<g id="a_node17"><a xlink:href="$d1/dcc/classmarian_1_1DecoderHardAtt.html#ab938d5649fc73437fa39a462330245bf" xlink:title="marian::DecoderHardAtt\l::step">
<polygon fill="white" stroke="black" points="289.5,-392.5 289.5,-422.5 411.5,-422.5 411.5,-392.5 289.5,-392.5"/>
<text text-anchor="start" x="297.5" y="-410.5" font-family="Helvetica,sans-Serif" font-size="10.00">marian::DecoderHardAtt</text>
<text text-anchor="middle" x="350.5" y="-399.5" font-family="Helvetica,sans-Serif" font-size="10.00">::step</text>
</a>
</g>
</g>
<!-- Node3&#45;&gt;Node17 -->
<g id="edge21" class="edge"><title>Node3&#45;&gt;Node17</title>
<path fill="none" stroke="midnightblue" d="M241.365,-407.5C256.646,-407.5 273.525,-407.5 289.314,-407.5"/>
<polygon fill="midnightblue" stroke="midnightblue" points="241.075,-404 231.075,-407.5 241.075,-411 241.075,-404"/>
</g>
<!-- Node18 -->
<g id="node18" class="node"><title>Node18</title>
<g id="a_node18"><a xlink:href="$de/d21/classmarian_1_1DecoderHardSoftAtt.html#aa3331fae45271298ce86ad6f6a5c9cf5" xlink:title="marian::DecoderHardSoftAtt\l::step">
<polygon fill="white" stroke="black" points="280.5,-343.5 280.5,-373.5 420.5,-373.5 420.5,-343.5 280.5,-343.5"/>
<text text-anchor="start" x="288.5" y="-361.5" font-family="Helvetica,sans-Serif" font-size="10.00">marian::DecoderHardSoftAtt</text>
<text text-anchor="middle" x="350.5" y="-350.5" font-family="Helvetica,sans-Serif" font-size="10.00">::step</text>
</a>
</g>
</g>
<!-- Node3&#45;&gt;Node18 -->
<g id="edge22" class="edge"><title>Node3&#45;&gt;Node18</title>
<path fill="none" stroke="midnightblue" d="M230.827,-394.957C252.081,-388.428 278.221,-380.398 300.553,-373.537"/>
<polygon fill="midnightblue" stroke="midnightblue" points="229.663,-391.654 221.132,-397.936 231.719,-398.345 229.663,-391.654"/>
</g>
<!-- Node19 -->
<g id="node19" class="node"><title>Node19</title>
<g id="a_node19"><a xlink:href="$d7/d30/classmarian_1_1MultiDecoderHardSoftAtt.html#a9dc01206082f6b287300c2ee6460d3ba" xlink:title="marian::MultiDecoderHard\lSoftAtt::step">
<polygon fill="white" stroke="black" points="285,-294.5 285,-324.5 416,-324.5 416,-294.5 285,-294.5"/>
<text text-anchor="start" x="293" y="-312.5" font-family="Helvetica,sans-Serif" font-size="10.00">marian::MultiDecoderHard</text>
<text text-anchor="middle" x="350.5" y="-301.5" font-family="Helvetica,sans-Serif" font-size="10.00">SoftAtt::step</text>
</a>
</g>
</g>
<!-- Node3&#45;&gt;Node19 -->
<g id="edge23" class="edge"><title>Node3&#45;&gt;Node19</title>
<path fill="none" stroke="midnightblue" d="M206.529,-390.382C223.061,-374.095 249.868,-349.858 277,-334.5 283.604,-330.762 290.862,-327.448 298.154,-324.557"/>
<polygon fill="midnightblue" stroke="midnightblue" points="203.854,-388.108 199.282,-397.666 208.817,-393.046 203.854,-388.108"/>
</g>
<!-- Node20 -->
<g id="node20" class="node"><title>Node20</title>
<g id="a_node20"><a xlink:href="$d3/d26/classmarian_1_1models_1_1LeNetModel.html#a7477e8409c126d83dae223d5cbd88f4c" xlink:title="Constructs an expression graph representing a feed&#45;forward classifier. ">
<polygon fill="white" stroke="black" points="279.5,-245.5 279.5,-275.5 421.5,-275.5 421.5,-245.5 279.5,-245.5"/>
<text text-anchor="start" x="287.5" y="-263.5" font-family="Helvetica,sans-Serif" font-size="10.00">marian::models::LeNetModel</text>
<text text-anchor="middle" x="350.5" y="-252.5" font-family="Helvetica,sans-Serif" font-size="10.00">::FeedforwardClassifier</text>
</a>
</g>
</g>
<!-- Node3&#45;&gt;Node20 -->
<g id="edge24" class="edge"><title>Node3&#45;&gt;Node20</title>
<path fill="none" stroke="midnightblue" d="M198.446,-388.825C211.523,-361.948 239.164,-312.52 277,-284.5 281.582,-281.107 286.67,-278.177 291.965,-275.65"/>
<polygon fill="midnightblue" stroke="midnightblue" points="195.252,-387.392 194.156,-397.93 201.584,-390.375 195.252,-387.392"/>
</g>
<!-- Node22 -->
<g id="node22" class="node"><title>Node22</title>
<g id="a_node22"><a xlink:href="$dc/d10/classmarian_1_1models_1_1MNISTModel.html#ad6f17d5d5db7302dd4a9daec556ed121" xlink:title="Constructs an expression graph representing a feed&#45;forward classifier. ">
<polygon fill="white" stroke="black" points="277,-196.5 277,-226.5 424,-226.5 424,-196.5 277,-196.5"/>
<text text-anchor="start" x="285" y="-214.5" font-family="Helvetica,sans-Serif" font-size="10.00">marian::models::MNISTModel</text>
<text text-anchor="middle" x="350.5" y="-203.5" font-family="Helvetica,sans-Serif" font-size="10.00">::FeedforwardClassifier</text>
</a>
</g>
</g>
<!-- Node3&#45;&gt;Node22 -->
<g id="edge26" class="edge"><title>Node3&#45;&gt;Node22</title>
<path fill="none" stroke="midnightblue" d="M194.702,-387.594C204.136,-351.952 228.728,-277.083 277,-235.5 281.018,-232.039 285.551,-229.073 290.339,-226.533"/>
<polygon fill="midnightblue" stroke="midnightblue" points="191.206,-387.145 192.161,-397.696 197.995,-388.852 191.206,-387.145"/>
</g>
<!-- Node24 -->
<g id="node24" class="node"><title>Node24</title>
<g id="a_node24"><a xlink:href="$d3/d3b/classmarian_1_1MultiDecoderS2S.html#a6f0421ce42840c6198f3d450b3d55bfb" xlink:title="marian::MultiDecoderS2S\l::step">
<polygon fill="white" stroke="black" points="286.5,-147.5 286.5,-177.5 414.5,-177.5 414.5,-147.5 286.5,-147.5"/>
<text text-anchor="start" x="294.5" y="-165.5" font-family="Helvetica,sans-Serif" font-size="10.00">marian::MultiDecoderS2S</text>
<text text-anchor="middle" x="350.5" y="-154.5" font-family="Helvetica,sans-Serif" font-size="10.00">::step</text>
</a>
</g>
</g>
<!-- Node3&#45;&gt;Node24 -->
<g id="edge28" class="edge"><title>Node3&#45;&gt;Node24</title>
<path fill="none" stroke="midnightblue" d="M192.136,-388.026C197.847,-345.36 217.335,-242.951 277,-186.5 280.66,-183.037 284.831,-180.074 289.28,-177.538"/>
<polygon fill="midnightblue" stroke="midnightblue" points="188.662,-387.605 190.917,-397.957 195.61,-388.458 188.662,-387.605"/>
</g>
<!-- Node25 -->
<g id="node25" class="node"><title>Node25</title>
<g id="a_node25"><a xlink:href="$d3/dbc/classmarian_1_1EncoderS2S.html#ac7066b7a2aabebd2efce08215a1c00c7" xlink:title="marian::EncoderS2S\l::build">
<polygon fill="white" stroke="black" points="297,-98.5 297,-128.5 404,-128.5 404,-98.5 297,-98.5"/>
<text text-anchor="start" x="305" y="-116.5" font-family="Helvetica,sans-Serif" font-size="10.00">marian::EncoderS2S</text>
<text text-anchor="middle" x="350.5" y="-105.5" font-family="Helvetica,sans-Serif" font-size="10.00">::build</text>
</a>
</g>
</g>
<!-- Node3&#45;&gt;Node25 -->
<g id="edge29" class="edge"><title>Node3&#45;&gt;Node25</title>
<path fill="none" stroke="midnightblue" d="M190.547,-387.532C192.992,-338.098 206.196,-208.87 277,-137.5 282.603,-131.853 289.562,-127.534 296.933,-124.232"/>
<polygon fill="midnightblue" stroke="midnightblue" points="187.039,-387.681 190.143,-397.811 194.033,-387.957 187.039,-387.681"/>
</g>
<!-- Node26 -->
<g id="node26" class="node"><title>Node26</title>
<g id="a_node26"><a xlink:href="$d3/d4b/classmarian_1_1DecoderS2S.html#a786a6f2e325d86a8335cc5fc25170518" xlink:title="marian::DecoderS2S\l::step">
<polygon fill="white" stroke="black" points="297,-49.5 297,-79.5 404,-79.5 404,-49.5 297,-49.5"/>
<text text-anchor="start" x="305" y="-67.5" font-family="Helvetica,sans-Serif" font-size="10.00">marian::DecoderS2S</text>
<text text-anchor="middle" x="350.5" y="-56.5" font-family="Helvetica,sans-Serif" font-size="10.00">::step</text>
</a>
</g>
</g>
<!-- Node3&#45;&gt;Node26 -->
<g id="edge30" class="edge"><title>Node3&#45;&gt;Node26</title>
<path fill="none" stroke="midnightblue" d="M189.371,-387.725C188.724,-332.576 194.596,-175.429 277,-88.5 282.473,-82.7266 289.363,-78.3412 296.705,-75.0102"/>
<polygon fill="midnightblue" stroke="midnightblue" points="185.875,-387.959 189.583,-397.883 192.874,-387.813 185.875,-387.959"/>
</g>
<!-- Node27 -->
<g id="node27" class="node"><title>Node27</title>
<g id="a_node27"><a xlink:href="$d5/d22/classmarian_1_1EncoderDecoderRec.html#ac3a359e69278e31f475f4e6b6acf88e4" xlink:title="marian::EncoderDecoderRec\l::reconstructorStep">
<polygon fill="white" stroke="black" points="279,-0.5 279,-30.5 422,-30.5 422,-0.5 279,-0.5"/>
<text text-anchor="start" x="287" y="-18.5" font-family="Helvetica,sans-Serif" font-size="10.00">marian::EncoderDecoderRec</text>
<text text-anchor="middle" x="350.5" y="-7.5" font-family="Helvetica,sans-Serif" font-size="10.00">::reconstructorStep</text>
</a>
</g>
</g>
<!-- Node3&#45;&gt;Node27 -->
<g id="edge31" class="edge"><title>Node3&#45;&gt;Node27</title>
<path fill="none" stroke="midnightblue" d="M192.149,-387.64C199.969,-318.82 229,-91.8961 277,-39.5 280.135,-36.0783 283.767,-33.1435 287.703,-30.6266"/>
<polygon fill="midnightblue" stroke="midnightblue" points="188.631,-387.607 191.005,-397.933 195.588,-388.38 188.631,-387.607"/>
</g>
<!-- Node7 -->
<g id="node7" class="node"><title>Node7</title>
<g id="a_node7"><a xlink:href="$d0/d1d/classmarian_1_1rnn_1_1Tanh.html#acdaec0ddca02a9bcc45f2b436c64d310" xlink:title="marian::rnn::Tanh::\lapply">
<polygon fill="white" stroke="black" points="484,-731.5 484,-761.5 583,-761.5 583,-731.5 484,-731.5"/>
<text text-anchor="start" x="492" y="-749.5" font-family="Helvetica,sans-Serif" font-size="10.00">marian::rnn::Tanh::</text>
<text text-anchor="middle" x="533.5" y="-738.5" font-family="Helvetica,sans-Serif" font-size="10.00">apply</text>
</a>
</g>
</g>
<!-- Node6&#45;&gt;Node7 -->
<g id="edge6" class="edge"><title>Node6&#45;&gt;Node7</title>
<path fill="none" stroke="midnightblue" d="M409.627,-647.069C414.774,-649.741 419.667,-652.861 424,-656.5 449.289,-677.737 434.711,-700.263 460,-721.5 466.933,-727.322 475.298,-731.815 483.846,-735.275"/>
<polygon fill="midnightblue" stroke="midnightblue" points="410.703,-643.712 400.154,-642.725 407.786,-650.075 410.703,-643.712"/>
</g>
<!-- Node8 -->
<g id="node8" class="node"><title>Node8</title>
<g id="a_node8"><a xlink:href="$d7/d03/classmarian_1_1rnn_1_1GRU.html#af8c554f9e899a74dfd897de082ef893e" xlink:title="marian::rnn::GRU::apply">
<polygon fill="white" stroke="black" points="472,-693 472,-712 595,-712 595,-693 472,-693"/>
<text text-anchor="middle" x="533.5" y="-700" font-family="Helvetica,sans-Serif" font-size="10.00">marian::rnn::GRU::apply</text>
</a>
</g>
</g>
<!-- Node6&#45;&gt;Node8 -->
<g id="edge7" class="edge"><title>Node6&#45;&gt;Node8</title>
<path fill="none" stroke="midnightblue" d="M409.81,-649.789C414.693,-651.865 419.485,-654.104 424,-656.5 441.668,-665.873 441.99,-674.802 460,-683.5 467.85,-687.291 476.558,-690.399 485.135,-692.922"/>
<polygon fill="midnightblue" stroke="midnightblue" points="410.939,-646.471 400.354,-646 408.335,-652.969 410.939,-646.471"/>
</g>
<!-- Node9 -->
<g id="node9" class="node"><title>Node9</title>
<g id="a_node9"><a xlink:href="$db/df5/classmarian_1_1rnn_1_1FastLSTM.html#a275238cb651482fac640d18d0a5ed265" xlink:title="marian::rnn::FastLSTM\l::apply">
<polygon fill="white" stroke="black" points="475,-643.5 475,-673.5 592,-673.5 592,-643.5 475,-643.5"/>
<text text-anchor="start" x="483" y="-661.5" font-family="Helvetica,sans-Serif" font-size="10.00">marian::rnn::FastLSTM</text>
<text text-anchor="middle" x="533.5" y="-650.5" font-family="Helvetica,sans-Serif" font-size="10.00">::apply</text>
</a>
</g>
</g>
<!-- Node6&#45;&gt;Node9 -->
<g id="edge8" class="edge"><title>Node6&#45;&gt;Node9</title>
<path fill="none" stroke="midnightblue" d="M409.977,-640.223C430.762,-643.324 454.134,-646.81 474.85,-649.9"/>
<polygon fill="midnightblue" stroke="midnightblue" points="410.412,-636.749 400.005,-638.736 409.379,-643.673 410.412,-636.749"/>
</g>
<!-- Node10 -->
<g id="node10" class="node"><title>Node10</title>
<g id="a_node10"><a xlink:href="$db/ddd/classmarian_1_1rnn_1_1SlowLSTM.html#a70fd0fdd071fd698f82ede70b1479fbb" xlink:title="marian::rnn::SlowLSTM\l::apply">
<polygon fill="white" stroke="black" points="474,-594.5 474,-624.5 593,-624.5 593,-594.5 474,-594.5"/>
<text text-anchor="start" x="482" y="-612.5" font-family="Helvetica,sans-Serif" font-size="10.00">marian::rnn::SlowLSTM</text>
<text text-anchor="middle" x="533.5" y="-601.5" font-family="Helvetica,sans-Serif" font-size="10.00">::apply</text>
</a>
</g>
</g>
<!-- Node6&#45;&gt;Node10 -->
<g id="edge9" class="edge"><title>Node6&#45;&gt;Node10</title>
<path fill="none" stroke="midnightblue" d="M410.118,-624.375C430.538,-621.893 453.44,-619.109 473.861,-616.627"/>
<polygon fill="midnightblue" stroke="midnightblue" points="409.509,-620.923 400.005,-625.604 410.354,-627.872 409.509,-620.923"/>
</g>
<!-- Node11 -->
<g id="node11" class="node"><title>Node11</title>
<g id="a_node11"><a xlink:href="$d7/d30/classmarian_1_1rnn_1_1TestLSTM.html#a1e2524b853677d43eb4425d3e0bf9d97" xlink:title="marian::rnn::TestLSTM\l::apply">
<polygon fill="white" stroke="black" points="475,-545.5 475,-575.5 592,-575.5 592,-545.5 475,-545.5"/>
<text text-anchor="start" x="483" y="-563.5" font-family="Helvetica,sans-Serif" font-size="10.00">marian::rnn::TestLSTM</text>
<text text-anchor="middle" x="533.5" y="-552.5" font-family="Helvetica,sans-Serif" font-size="10.00">::apply</text>
</a>
</g>
</g>
<!-- Node6&#45;&gt;Node11 -->
<g id="edge10" class="edge"><title>Node6&#45;&gt;Node11</title>
<path fill="none" stroke="midnightblue" d="M409.291,-612.73C414.316,-610.75 419.28,-608.665 424,-606.5 440.836,-598.777 443.164,-593.223 460,-585.5 467.745,-581.947 476.149,-578.608 484.398,-575.599"/>
<polygon fill="midnightblue" stroke="midnightblue" points="407.713,-609.585 399.602,-616.401 410.193,-616.131 407.713,-609.585"/>
</g>
<!-- Node12&#45;&gt;Node7 -->
<g id="edge12" class="edge"><title>Node12&#45;&gt;Node7</title>
<path fill="none" stroke="midnightblue" d="M406.767,-699.002C412.611,-701.124 418.445,-703.312 424,-705.5 440.291,-711.915 443.709,-715.085 460,-721.5 468.672,-724.915 478.022,-728.331 487.031,-731.493"/>
<polygon fill="midnightblue" stroke="midnightblue" points="407.564,-695.571 396.969,-695.507 405.211,-702.164 407.564,-695.571"/>
</g>
<!-- Node12&#45;&gt;Node8 -->
<g id="edge13" class="edge"><title>Node12&#45;&gt;Node8</title>
<path fill="none" stroke="midnightblue" d="M410.104,-687.623C429.867,-690.025 451.957,-692.71 471.874,-695.131"/>
<polygon fill="midnightblue" stroke="midnightblue" points="410.354,-684.128 400.005,-686.396 409.509,-691.077 410.354,-684.128"/>
</g>
<!-- Node12&#45;&gt;Node9 -->
<g id="edge14" class="edge"><title>Node12&#45;&gt;Node9</title>
<path fill="none" stroke="midnightblue" d="M409.977,-673.392C430.762,-670.866 454.134,-668.025 474.85,-665.507"/>
<polygon fill="midnightblue" stroke="midnightblue" points="409.509,-669.923 400.005,-674.604 410.354,-676.872 409.509,-669.923"/>
</g>
<!-- Node12&#45;&gt;Node10 -->
<g id="edge15" class="edge"><title>Node12&#45;&gt;Node10</title>
<path fill="none" stroke="midnightblue" d="M409.588,-662.598C414.519,-660.679 419.382,-658.641 424,-656.5 441.012,-648.613 443.037,-642.492 460,-634.5 467.588,-630.925 475.832,-627.595 483.949,-624.607"/>
<polygon fill="midnightblue" stroke="midnightblue" points="408.222,-659.372 400.067,-666.136 410.66,-665.933 408.222,-659.372"/>
</g>
<!-- Node12&#45;&gt;Node11 -->
<g id="edge16" class="edge"><title>Node12&#45;&gt;Node11</title>
<path fill="none" stroke="midnightblue" d="M409.757,-665.934C414.878,-663.292 419.729,-660.176 424,-656.5 450.817,-633.422 433.326,-608.744 460,-585.5 464.417,-581.651 469.457,-578.387 474.776,-575.62"/>
<polygon fill="midnightblue" stroke="midnightblue" points="407.99,-662.892 400.315,-670.195 410.87,-669.272 407.99,-662.892"/>
</g>
<!-- Node21 -->
<g id="node21" class="node"><title>Node21</title>
<g id="a_node21"><a xlink:href="$d3/d26/classmarian_1_1models_1_1LeNetModel.html#a3c8a71b2d5258f947e2745ab4acc706f" xlink:title="marian::models::LeNetModel\l::build">
<polygon fill="white" stroke="black" points="462.5,-245.5 462.5,-275.5 604.5,-275.5 604.5,-245.5 462.5,-245.5"/>
<text text-anchor="start" x="470.5" y="-263.5" font-family="Helvetica,sans-Serif" font-size="10.00">marian::models::LeNetModel</text>
<text text-anchor="middle" x="533.5" y="-252.5" font-family="Helvetica,sans-Serif" font-size="10.00">::build</text>
</a>
</g>
</g>
<!-- Node20&#45;&gt;Node21 -->
<g id="edge25" class="edge"><title>Node20&#45;&gt;Node21</title>
<path fill="none" stroke="midnightblue" d="M431.822,-260.5C441.982,-260.5 452.315,-260.5 462.301,-260.5"/>
<polygon fill="midnightblue" stroke="midnightblue" points="431.738,-257 421.738,-260.5 431.738,-264 431.738,-257"/>
</g>
<!-- Node23 -->
<g id="node23" class="node"><title>Node23</title>
<g id="a_node23"><a xlink:href="$dc/d10/classmarian_1_1models_1_1MNISTModel.html#aacea07dc6d02c753955564f36df0959c" xlink:title="marian::models::MNISTModel\l::build">
<polygon fill="white" stroke="black" points="460,-196.5 460,-226.5 607,-226.5 607,-196.5 460,-196.5"/>
<text text-anchor="start" x="468" y="-214.5" font-family="Helvetica,sans-Serif" font-size="10.00">marian::models::MNISTModel</text>
<text text-anchor="middle" x="533.5" y="-203.5" font-family="Helvetica,sans-Serif" font-size="10.00">::build</text>
</a>
</g>
</g>
<!-- Node22&#45;&gt;Node23 -->
<g id="edge27" class="edge"><title>Node22&#45;&gt;Node23</title>
<path fill="none" stroke="midnightblue" d="M434.116,-211.5C442.722,-211.5 451.424,-211.5 459.907,-211.5"/>
<polygon fill="midnightblue" stroke="midnightblue" points="434.077,-208 424.077,-211.5 434.077,-215 434.077,-208"/>
</g>
<!-- Node28 -->
<g id="node28" class="node"><title>Node28</title>
<g id="a_node28"><a xlink:href="$d5/d22/classmarian_1_1EncoderDecoderRec.html#a5d7be4c554cdd6752a8ee5964ff116c2" xlink:title="marian::EncoderDecoderRec\l::build">
<polygon fill="white" stroke="black" points="462,-0.5 462,-30.5 605,-30.5 605,-0.5 462,-0.5"/>
<text text-anchor="start" x="470" y="-18.5" font-family="Helvetica,sans-Serif" font-size="10.00">marian::EncoderDecoderRec</text>
<text text-anchor="middle" x="533.5" y="-7.5" font-family="Helvetica,sans-Serif" font-size="10.00">::build</text>
</a>
</g>
</g>
<!-- Node27&#45;&gt;Node28 -->
<g id="edge32" class="edge"><title>Node27&#45;&gt;Node28</title>
<path fill="none" stroke="midnightblue" d="M432.397,-15.5C442.199,-15.5 452.153,-15.5 461.792,-15.5"/>
<polygon fill="midnightblue" stroke="midnightblue" points="432.257,-12.0001 422.257,-15.5 432.257,-19.0001 432.257,-12.0001"/>
</g>
</g>
</svg>
