<?xml version="1.0" encoding="UTF-8" standalone="no"?>
<!DOCTYPE svg PUBLIC "-//W3C//DTD SVG 1.1//EN"
 "http://www.w3.org/Graphics/SVG/1.1/DTD/svg11.dtd">
<!-- Generated by graphviz version 2.38.0 (20140413.2041)
 -->
<!-- Title: marian::LayerNormalizationGrad Pages: 1 -->
<svg width="337pt" height="78pt"
 viewBox="0.00 0.00 337.00 77.50" xmlns="http://www.w3.org/2000/svg" xmlns:xlink="http://www.w3.org/1999/xlink">
<g id="graph0" class="graph" transform="scale(1 1) rotate(0) translate(4 73.5)">
<title>marian::LayerNormalizationGrad</title>
<polygon fill="white" stroke="none" points="-4,4 -4,-73.5 333,-73.5 333,4 -4,4"/>
<!-- Node1 -->
<g id="node1" class="node"><title>Node1</title>
<polygon fill="#bfbfbf" stroke="black" points="0,-22.5 0,-41.5 157,-41.5 157,-22.5 0,-22.5"/>
<text text-anchor="middle" x="78.5" y="-29.5" font-family="Helvetica,sans-Serif" font-size="10.00">marian::LayerNormalizationGrad</text>
</g>
<!-- Node2 -->
<g id="node2" class="node"><title>Node2</title>
<g id="a_node2"><a xlink:href="$d8/deb/structmarian_1_1LayerNormalizationOp.html#a31596fee029ef32402528e24376e2c69" xlink:title="marian::LayerNormalization\lOp::backwardOps">
<polygon fill="white" stroke="black" points="193,-39 193,-69 329,-69 329,-39 193,-39"/>
<text text-anchor="start" x="201" y="-57" font-family="Helvetica,sans-Serif" font-size="10.00">marian::LayerNormalization</text>
<text text-anchor="middle" x="261" y="-46" font-family="Helvetica,sans-Serif" font-size="10.00">Op::backwardOps</text>
</a>
</g>
</g>
<!-- Node1&#45;&gt;Node2 -->
<g id="edge1" class="edge"><title>Node1&#45;&gt;Node2</title>
<path fill="none" stroke="midnightblue" d="M167.226,-42.6923C175.883,-43.7476 184.572,-44.8066 192.973,-45.8305"/>
<polygon fill="midnightblue" stroke="midnightblue" points="167.446,-39.1933 157.096,-41.4577 166.599,-46.1419 167.446,-39.1933"/>
</g>
<!-- Node3 -->
<g id="node3" class="node"><title>Node3</title>
<g id="a_node3"><a xlink:href="$da/d22/namespacemarian.html#a4dcaa19981e73d7875242f2ae1fdd11c" xlink:title="marian::Pick">
<polygon fill="white" stroke="black" points="225.5,-0.5 225.5,-19.5 296.5,-19.5 296.5,-0.5 225.5,-0.5"/>
<text text-anchor="middle" x="261" y="-7.5" font-family="Helvetica,sans-Serif" font-size="10.00">marian::Pick</text>
</a>
</g>
</g>
<!-- Node1&#45;&gt;Node3 -->
<g id="edge2" class="edge"><title>Node1&#45;&gt;Node3</title>
<path fill="none" stroke="midnightblue" d="M167.144,-21.3176C187.682,-18.8144 208.399,-16.2894 225.037,-14.2614"/>
<polygon fill="midnightblue" stroke="midnightblue" points="166.599,-17.8581 157.096,-22.5423 167.446,-24.8067 166.599,-17.8581"/>
</g>
</g>
</svg>
