<?xml version="1.0" encoding="UTF-8" standalone="no"?>
<!DOCTYPE svg PUBLIC "-//W3C//DTD SVG 1.1//EN"
 "http://www.w3.org/Graphics/SVG/1.1/DTD/svg11.dtd">
<!-- Generated by graphviz version 2.38.0 (20140413.2041)
 -->
<!-- Title: marian::cross_entropy Pages: 1 -->
<svg width="505pt" height="263pt"
 viewBox="0.00 0.00 505.00 262.50" xmlns="http://www.w3.org/2000/svg" xmlns:xlink="http://www.w3.org/1999/xlink">
<g id="graph0" class="graph" transform="scale(1 1) rotate(0) translate(4 258.5)">
<title>marian::cross_entropy</title>
<polygon fill="white" stroke="none" points="-4,4 -4,-258.5 501,-258.5 501,4 -4,4"/>
<!-- Node1 -->
<g id="node1" class="node"><title>Node1</title>
<polygon fill="#bfbfbf" stroke="black" points="0,-118 0,-137 113,-137 113,-118 0,-118"/>
<text text-anchor="middle" x="56.5" y="-125" font-family="Helvetica,sans-Serif" font-size="10.00">marian::cross_entropy</text>
</g>
<!-- Node2 -->
<g id="node2" class="node"><title>Node2</title>
<g id="a_node2"><a xlink:href="$d7/d2c/classmarian_1_1EncoderDecoder.html#a3a4c9f318d7d21fc4b9eead88a09798b" xlink:title="marian::EncoderDecoder\l\&lt; MultiEncoderS2S, MultiDecoder\lS2S \&gt;::buildToScore">
<polygon fill="white" stroke="black" points="149,-213 149,-254 314,-254 314,-213 149,-213"/>
<text text-anchor="start" x="157" y="-242" font-family="Helvetica,sans-Serif" font-size="10.00">marian::EncoderDecoder</text>
<text text-anchor="start" x="157" y="-231" font-family="Helvetica,sans-Serif" font-size="10.00">&lt; MultiEncoderS2S, MultiDecoder</text>
<text text-anchor="middle" x="231.5" y="-220" font-family="Helvetica,sans-Serif" font-size="10.00">S2S &gt;::buildToScore</text>
</a>
</g>
</g>
<!-- Node1&#45;&gt;Node2 -->
<g id="edge1" class="edge"><title>Node1&#45;&gt;Node2</title>
<path fill="none" stroke="midnightblue" d="M73.9536,-144.178C91.3254,-161.022 120.143,-186.865 149,-203.5 154.878,-206.888 161.208,-210.013 167.649,-212.861"/>
<polygon fill="midnightblue" stroke="midnightblue" points="76.3948,-141.669 66.8183,-137.137 71.4782,-146.652 76.3948,-141.669"/>
</g>
<!-- Node3 -->
<g id="node3" class="node"><title>Node3</title>
<g id="a_node3"><a xlink:href="$da/d22/namespacemarian.html#ae5810f27b42d7d5f9b83ae23ddf544f2" xlink:title="marian::tanh">
<polygon fill="white" stroke="black" points="196,-175 196,-194 267,-194 267,-175 196,-175"/>
<text text-anchor="middle" x="231.5" y="-182" font-family="Helvetica,sans-Serif" font-size="10.00">marian::tanh</text>
</a>
</g>
</g>
<!-- Node1&#45;&gt;Node3 -->
<g id="edge2" class="edge"><title>Node1&#45;&gt;Node3</title>
<path fill="none" stroke="midnightblue" d="M87.0801,-141.242C104.775,-149.093 127.862,-158.698 149,-165.5 164.075,-170.351 181.088,-174.516 195.655,-177.699"/>
<polygon fill="midnightblue" stroke="midnightblue" points="88.4063,-138.001 77.8507,-137.089 85.5342,-144.384 88.4063,-138.001"/>
</g>
<!-- Node4 -->
<g id="node4" class="node"><title>Node4</title>
<g id="a_node4"><a xlink:href="$d2/d88/generic_8h.html#a2c61aac8c1ec585882b5b11755204516" xlink:title="YAML_REGISTER_TYPE">
<polygon fill="white" stroke="black" points="165.5,-137 165.5,-156 297.5,-156 297.5,-137 165.5,-137"/>
<text text-anchor="middle" x="231.5" y="-144" font-family="Helvetica,sans-Serif" font-size="10.00">YAML_REGISTER_TYPE</text>
</a>
</g>
</g>
<!-- Node1&#45;&gt;Node4 -->
<g id="edge3" class="edge"><title>Node1&#45;&gt;Node4</title>
<path fill="none" stroke="midnightblue" d="M123.494,-134.748C137.184,-136.251 151.602,-137.835 165.266,-139.336"/>
<polygon fill="midnightblue" stroke="midnightblue" points="123.513,-131.229 113.191,-133.616 122.749,-138.187 123.513,-131.229"/>
</g>
<!-- Node5 -->
<g id="node5" class="node"><title>Node5</title>
<g id="a_node5"><a xlink:href="$dc/df8/iris_8cpp.html#a229b50266006068cfc6cb91a88fec7bf" xlink:title="buildIrisClassifier">
<polygon fill="white" stroke="black" points="185.5,-99 185.5,-118 277.5,-118 277.5,-99 185.5,-99"/>
<text text-anchor="middle" x="231.5" y="-106" font-family="Helvetica,sans-Serif" font-size="10.00">buildIrisClassifier</text>
</a>
</g>
</g>
<!-- Node1&#45;&gt;Node5 -->
<g id="edge4" class="edge"><title>Node1&#45;&gt;Node5</title>
<path fill="none" stroke="midnightblue" d="M123.206,-120.284C143.931,-118.008 166.349,-115.545 185.308,-113.463"/>
<polygon fill="midnightblue" stroke="midnightblue" points="122.749,-116.813 113.191,-121.384 123.513,-123.771 122.749,-116.813"/>
</g>
<!-- Node7 -->
<g id="node7" class="node"><title>Node7</title>
<g id="a_node7"><a xlink:href="$d3/d26/classmarian_1_1models_1_1LeNetModel.html#a7477e8409c126d83dae223d5cbd88f4c" xlink:title="Constructs an expression graph representing a feed&#45;forward classifier. ">
<polygon fill="white" stroke="black" points="160.5,-49.5 160.5,-79.5 302.5,-79.5 302.5,-49.5 160.5,-49.5"/>
<text text-anchor="start" x="168.5" y="-67.5" font-family="Helvetica,sans-Serif" font-size="10.00">marian::models::LeNetModel</text>
<text text-anchor="middle" x="231.5" y="-56.5" font-family="Helvetica,sans-Serif" font-size="10.00">::FeedforwardClassifier</text>
</a>
</g>
</g>
<!-- Node1&#45;&gt;Node7 -->
<g id="edge6" class="edge"><title>Node1&#45;&gt;Node7</title>
<path fill="none" stroke="midnightblue" d="M88.3119,-113.836C105.923,-106.246 128.518,-96.8754 149,-89.5 158.469,-86.0904 168.658,-82.7282 178.516,-79.6289"/>
<polygon fill="midnightblue" stroke="midnightblue" points="86.8616,-110.65 79.0853,-117.846 89.6517,-117.07 86.8616,-110.65"/>
</g>
<!-- Node9 -->
<g id="node9" class="node"><title>Node9</title>
<g id="a_node9"><a xlink:href="$dc/d10/classmarian_1_1models_1_1MNISTModel.html#ad6f17d5d5db7302dd4a9daec556ed121" xlink:title="Constructs an expression graph representing a feed&#45;forward classifier. ">
<polygon fill="white" stroke="black" points="158,-0.5 158,-30.5 305,-30.5 305,-0.5 158,-0.5"/>
<text text-anchor="start" x="166" y="-18.5" font-family="Helvetica,sans-Serif" font-size="10.00">marian::models::MNISTModel</text>
<text text-anchor="middle" x="231.5" y="-7.5" font-family="Helvetica,sans-Serif" font-size="10.00">::FeedforwardClassifier</text>
</a>
</g>
</g>
<!-- Node1&#45;&gt;Node9 -->
<g id="edge8" class="edge"><title>Node1&#45;&gt;Node9</title>
<path fill="none" stroke="midnightblue" d="M71.373,-109.779C87.8436,-89.8963 117.124,-58.012 149,-39.5 154.867,-36.0926 161.258,-33.1348 167.793,-30.575"/>
<polygon fill="midnightblue" stroke="midnightblue" points="68.5049,-107.759 64.9356,-117.735 73.9467,-112.162 68.5049,-107.759"/>
</g>
<!-- Node6 -->
<g id="node6" class="node"><title>Node6</title>
<g id="a_node6"><a xlink:href="$dc/df8/iris_8cpp.html#ae66f6b31b5ad750f1fe042a706a4e3d4" xlink:title="main">
<polygon fill="white" stroke="black" points="404.5,-99 404.5,-118 442.5,-118 442.5,-99 404.5,-99"/>
<text text-anchor="middle" x="423.5" y="-106" font-family="Helvetica,sans-Serif" font-size="10.00">main</text>
</a>
</g>
</g>
<!-- Node5&#45;&gt;Node6 -->
<g id="edge5" class="edge"><title>Node5&#45;&gt;Node6</title>
<path fill="none" stroke="midnightblue" d="M287.53,-108.5C326.895,-108.5 377.458,-108.5 404.131,-108.5"/>
<polygon fill="midnightblue" stroke="midnightblue" points="287.527,-105 277.527,-108.5 287.527,-112 287.527,-105"/>
</g>
<!-- Node8 -->
<g id="node8" class="node"><title>Node8</title>
<g id="a_node8"><a xlink:href="$d3/d26/classmarian_1_1models_1_1LeNetModel.html#a3c8a71b2d5258f947e2745ab4acc706f" xlink:title="marian::models::LeNetModel\l::build">
<polygon fill="white" stroke="black" points="352.5,-49.5 352.5,-79.5 494.5,-79.5 494.5,-49.5 352.5,-49.5"/>
<text text-anchor="start" x="360.5" y="-67.5" font-family="Helvetica,sans-Serif" font-size="10.00">marian::models::LeNetModel</text>
<text text-anchor="middle" x="423.5" y="-56.5" font-family="Helvetica,sans-Serif" font-size="10.00">::build</text>
</a>
</g>
</g>
<!-- Node7&#45;&gt;Node8 -->
<g id="edge7" class="edge"><title>Node7&#45;&gt;Node8</title>
<path fill="none" stroke="midnightblue" d="M313.062,-64.5C326.095,-64.5 339.499,-64.5 352.262,-64.5"/>
<polygon fill="midnightblue" stroke="midnightblue" points="312.709,-61.0001 302.709,-64.5 312.709,-68.0001 312.709,-61.0001"/>
</g>
<!-- Node10 -->
<g id="node10" class="node"><title>Node10</title>
<g id="a_node10"><a xlink:href="$dc/d10/classmarian_1_1models_1_1MNISTModel.html#aacea07dc6d02c753955564f36df0959c" xlink:title="marian::models::MNISTModel\l::build">
<polygon fill="white" stroke="black" points="350,-0.5 350,-30.5 497,-30.5 497,-0.5 350,-0.5"/>
<text text-anchor="start" x="358" y="-18.5" font-family="Helvetica,sans-Serif" font-size="10.00">marian::models::MNISTModel</text>
<text text-anchor="middle" x="423.5" y="-7.5" font-family="Helvetica,sans-Serif" font-size="10.00">::build</text>
</a>
</g>
</g>
<!-- Node9&#45;&gt;Node10 -->
<g id="edge9" class="edge"><title>Node9&#45;&gt;Node10</title>
<path fill="none" stroke="midnightblue" d="M315.211,-15.5C326.759,-15.5 338.554,-15.5 349.896,-15.5"/>
<polygon fill="midnightblue" stroke="midnightblue" points="315.144,-12.0001 305.144,-15.5 315.144,-19.0001 315.144,-12.0001"/>
</g>
</g>
</svg>
