<?xml version="1.0" encoding="UTF-8" standalone="no"?>
<!DOCTYPE svg PUBLIC "-//W3C//DTD SVG 1.1//EN"
 "http://www.w3.org/Graphics/SVG/1.1/DTD/svg11.dtd">
<!-- Generated by graphviz version 2.38.0 (20140413.2041)
 -->
<!-- Title: marian::Shape::Shape Pages: 1 -->
<svg width="451pt" height="883pt"
 viewBox="0.00 0.00 451.00 882.50" xmlns="http://www.w3.org/2000/svg" xmlns:xlink="http://www.w3.org/1999/xlink">
<g id="graph0" class="graph" transform="scale(1 1) rotate(0) translate(4 878.5)">
<title>marian::Shape::Shape</title>
<polygon fill="white" stroke="none" points="-4,4 -4,-878.5 447,-878.5 447,4 -4,4"/>
<!-- Node1 -->
<g id="node1" class="node"><title>Node1</title>
<polygon fill="#bfbfbf" stroke="black" points="0,-379 0,-398 113,-398 113,-379 0,-379"/>
<text text-anchor="middle" x="56.5" y="-386" font-family="Helvetica,sans-Serif" font-size="10.00">marian::Shape::Shape</text>
</g>
<!-- Node2 -->
<g id="node2" class="node"><title>Node2</title>
<g id="a_node2"><a xlink:href="$d1/d49/namespaceamunmt_1_1GPU_1_1mblas.html#a6531a040aa422fcd149f89b92f6d2585" xlink:title="amunmt::GPU::mblas\l::copy">
<polygon fill="white" stroke="black" points="166,-417.5 166,-447.5 278,-447.5 278,-417.5 166,-417.5"/>
<text text-anchor="start" x="174" y="-435.5" font-family="Helvetica,sans-Serif" font-size="10.00">amunmt::GPU::mblas</text>
<text text-anchor="middle" x="222" y="-424.5" font-family="Helvetica,sans-Serif" font-size="10.00">::copy</text>
</a>
</g>
</g>
<!-- Node1&#45;&gt;Node2 -->
<g id="edge1" class="edge"><title>Node1&#45;&gt;Node2</title>
<path fill="none" stroke="midnightblue" d="M92.9771,-398.047C111.465,-403.023 134.661,-409.265 156.212,-415.065"/>
<polygon fill="midnightblue" stroke="midnightblue" points="155.41,-418.473 165.976,-417.692 157.229,-411.714 155.41,-418.473"/>
</g>
<!-- Node21 -->
<g id="node21" class="node"><title>Node21</title>
<g id="a_node21"><a xlink:href="$d5/d54/structmarian_1_1Shape.html#aec078a9049c1007834e21090a0fcd057" xlink:title="Gets a pointer to an int that specifies the size of the first dimension represented by this object...">
<polygon fill="white" stroke="black" points="167.5,-379 167.5,-398 276.5,-398 276.5,-379 167.5,-379"/>
<text text-anchor="middle" x="222" y="-386" font-family="Helvetica,sans-Serif" font-size="10.00">marian::Shape::begin</text>
</a>
</g>
</g>
<!-- Node1&#45;&gt;Node21 -->
<g id="edge20" class="edge"><title>Node1&#45;&gt;Node21</title>
<path fill="none" stroke="midnightblue" d="M113.31,-388.5C127.379,-388.5 142.592,-388.5 157.028,-388.5"/>
<polygon fill="midnightblue" stroke="midnightblue" points="157.375,-392 167.375,-388.5 157.375,-385 157.375,-392"/>
</g>
<!-- Node22 -->
<g id="node22" class="node"><title>Node22</title>
<g id="a_node22"><a xlink:href="$d5/d54/structmarian_1_1Shape.html#a9cf031011a4b53538dda070a77ad19f9" xlink:title="marian::Shape::updateStrides">
<polygon fill="white" stroke="black" points="149,-341 149,-360 295,-360 295,-341 149,-341"/>
<text text-anchor="middle" x="222" y="-348" font-family="Helvetica,sans-Serif" font-size="10.00">marian::Shape::updateStrides</text>
</a>
</g>
</g>
<!-- Node1&#45;&gt;Node22 -->
<g id="edge21" class="edge"><title>Node1&#45;&gt;Node22</title>
<path fill="none" stroke="midnightblue" d="M98.758,-378.911C120.431,-373.874 147.183,-367.656 170.13,-362.323"/>
<polygon fill="midnightblue" stroke="midnightblue" points="171.091,-365.693 180.039,-360.02 169.506,-358.875 171.091,-365.693"/>
</g>
<!-- Node3 -->
<g id="node3" class="node"><title>Node3</title>
<g id="a_node3"><a xlink:href="$dc/d89/classamunmt_1_1GPU_1_1mblas_1_1CudaStreamHandler.html#aab9046cda40ac3fed5676d5aa680e6c8" xlink:title="amunmt::GPU::mblas\l::CudaStreamHandler\l::GetStream">
<polygon fill="white" stroke="black" points="331,-833 331,-874 443,-874 443,-833 331,-833"/>
<text text-anchor="start" x="339" y="-862" font-family="Helvetica,sans-Serif" font-size="10.00">amunmt::GPU::mblas</text>
<text text-anchor="start" x="339" y="-851" font-family="Helvetica,sans-Serif" font-size="10.00">::CudaStreamHandler</text>
<text text-anchor="middle" x="387" y="-840" font-family="Helvetica,sans-Serif" font-size="10.00">::GetStream</text>
</a>
</g>
</g>
<!-- Node2&#45;&gt;Node3 -->
<g id="edge2" class="edge"><title>Node2&#45;&gt;Node3</title>
<path fill="none" stroke="midnightblue" d="M223.052,-447.532C224.008,-503.716 234.349,-704.295 331,-824.5 331.391,-824.986 331.792,-825.466 332.204,-825.938"/>
<polygon fill="midnightblue" stroke="midnightblue" points="329.95,-828.624 339.609,-832.976 334.772,-823.55 329.95,-828.624"/>
</g>
<!-- Node4 -->
<g id="node4" class="node"><title>Node4</title>
<g id="a_node4"><a xlink:href="$d1/d49/namespaceamunmt_1_1GPU_1_1mblas.html#aae3149752683fc6c3d719c495c161cbc" xlink:title="amunmt::GPU::mblas\l::Fill">
<polygon fill="white" stroke="black" points="331,-784.5 331,-814.5 443,-814.5 443,-784.5 331,-784.5"/>
<text text-anchor="start" x="339" y="-802.5" font-family="Helvetica,sans-Serif" font-size="10.00">amunmt::GPU::mblas</text>
<text text-anchor="middle" x="387" y="-791.5" font-family="Helvetica,sans-Serif" font-size="10.00">::Fill</text>
</a>
</g>
</g>
<!-- Node2&#45;&gt;Node4 -->
<g id="edge3" class="edge"><title>Node2&#45;&gt;Node4</title>
<path fill="none" stroke="midnightblue" d="M223.554,-447.567C226.242,-499.567 241.811,-673.834 331,-774.5 332.172,-775.822 333.427,-777.079 334.75,-778.273"/>
<polygon fill="midnightblue" stroke="midnightblue" points="332.862,-781.232 342.959,-784.443 337.068,-775.636 332.862,-781.232"/>
</g>
<!-- Node5 -->
<g id="node5" class="node"><title>Node5</title>
<g id="a_node5"><a xlink:href="$d1/d49/namespaceamunmt_1_1GPU_1_1mblas.html#a88b723882ca7b614a20e6e9edb5c214b" xlink:title="amunmt::GPU::mblas\l::Swap">
<polygon fill="white" stroke="black" points="331,-735.5 331,-765.5 443,-765.5 443,-735.5 331,-735.5"/>
<text text-anchor="start" x="339" y="-753.5" font-family="Helvetica,sans-Serif" font-size="10.00">amunmt::GPU::mblas</text>
<text text-anchor="middle" x="387" y="-742.5" font-family="Helvetica,sans-Serif" font-size="10.00">::Swap</text>
</a>
</g>
</g>
<!-- Node2&#45;&gt;Node5 -->
<g id="edge4" class="edge"><title>Node2&#45;&gt;Node5</title>
<path fill="none" stroke="midnightblue" d="M224.503,-447.694C229.936,-494.932 252.586,-641.101 331,-725.5 332.339,-726.941 333.776,-728.305 335.291,-729.595"/>
<polygon fill="midnightblue" stroke="midnightblue" points="333.251,-732.439 343.409,-735.452 337.347,-726.763 333.251,-732.439"/>
</g>
<!-- Node6 -->
<g id="node6" class="node"><title>Node6</title>
<g id="a_node6"><a xlink:href="$d1/d49/namespaceamunmt_1_1GPU_1_1mblas.html#ae4b56d534b95189bf183d6008e2d7e45" xlink:title="amunmt::GPU::mblas\l::Mean">
<polygon fill="white" stroke="black" points="331,-686.5 331,-716.5 443,-716.5 443,-686.5 331,-686.5"/>
<text text-anchor="start" x="339" y="-704.5" font-family="Helvetica,sans-Serif" font-size="10.00">amunmt::GPU::mblas</text>
<text text-anchor="middle" x="387" y="-693.5" font-family="Helvetica,sans-Serif" font-size="10.00">::Mean</text>
</a>
</g>
</g>
<!-- Node2&#45;&gt;Node6 -->
<g id="edge5" class="edge"><title>Node2&#45;&gt;Node6</title>
<path fill="none" stroke="midnightblue" d="M225.817,-447.796C234.28,-489.745 263.205,-608.028 331,-676.5 332.411,-677.925 333.919,-679.277 335.5,-680.559"/>
<polygon fill="midnightblue" stroke="midnightblue" points="333.706,-683.574 343.919,-686.394 337.694,-677.821 333.706,-683.574"/>
</g>
<!-- Node7 -->
<g id="node7" class="node"><title>Node7</title>
<g id="a_node7"><a xlink:href="$d1/d49/namespaceamunmt_1_1GPU_1_1mblas.html#a90a5cec147d44d6774e5de8e9e0d696e" xlink:title="amunmt::GPU::mblas\l::WeightedMean">
<polygon fill="white" stroke="black" points="331,-637.5 331,-667.5 443,-667.5 443,-637.5 331,-637.5"/>
<text text-anchor="start" x="339" y="-655.5" font-family="Helvetica,sans-Serif" font-size="10.00">amunmt::GPU::mblas</text>
<text text-anchor="middle" x="387" y="-644.5" font-family="Helvetica,sans-Serif" font-size="10.00">::WeightedMean</text>
</a>
</g>
</g>
<!-- Node2&#45;&gt;Node7 -->
<g id="edge6" class="edge"><title>Node2&#45;&gt;Node7</title>
<path fill="none" stroke="midnightblue" d="M227.637,-447.522C239.364,-483.261 273.437,-574.322 331,-627.5 332.659,-629.032 334.428,-630.484 336.276,-631.857"/>
<polygon fill="midnightblue" stroke="midnightblue" points="334.505,-634.88 344.799,-637.387 338.315,-629.008 334.505,-634.88"/>
</g>
<!-- Node8 -->
<g id="node8" class="node"><title>Node8</title>
<g id="a_node8"><a xlink:href="$d1/d49/namespaceamunmt_1_1GPU_1_1mblas.html#a5b1f45cb5c05d5a9fbedab3e74553e73" xlink:title="amunmt::GPU::mblas\l::Transpose">
<polygon fill="white" stroke="black" points="331,-588.5 331,-618.5 443,-618.5 443,-588.5 331,-588.5"/>
<text text-anchor="start" x="339" y="-606.5" font-family="Helvetica,sans-Serif" font-size="10.00">amunmt::GPU::mblas</text>
<text text-anchor="middle" x="387" y="-595.5" font-family="Helvetica,sans-Serif" font-size="10.00">::Transpose</text>
</a>
</g>
</g>
<!-- Node2&#45;&gt;Node8 -->
<g id="edge7" class="edge"><title>Node2&#45;&gt;Node8</title>
<path fill="none" stroke="midnightblue" d="M230.808,-447.72C246.333,-476.679 283.695,-540.225 331,-578.5 333.033,-580.145 335.193,-581.707 337.434,-583.186"/>
<polygon fill="midnightblue" stroke="midnightblue" points="336.002,-586.406 346.391,-588.483 339.565,-580.381 336.002,-586.406"/>
</g>
<!-- Node9 -->
<g id="node9" class="node"><title>Node9</title>
<g id="a_node9"><a xlink:href="$d1/d49/namespaceamunmt_1_1GPU_1_1mblas.html#a6359878c47a6c3703d7d8b6e9db1d87e" xlink:title="amunmt::GPU::mblas\l::Copy">
<polygon fill="white" stroke="black" points="331,-539.5 331,-569.5 443,-569.5 443,-539.5 331,-539.5"/>
<text text-anchor="start" x="339" y="-557.5" font-family="Helvetica,sans-Serif" font-size="10.00">amunmt::GPU::mblas</text>
<text text-anchor="middle" x="387" y="-546.5" font-family="Helvetica,sans-Serif" font-size="10.00">::Copy</text>
</a>
</g>
</g>
<!-- Node2&#45;&gt;Node9 -->
<g id="edge8" class="edge"><title>Node2&#45;&gt;Node9</title>
<path fill="none" stroke="midnightblue" d="M236.841,-447.535C256.33,-468.06 293.668,-505.083 331,-529.5 333.765,-531.308 336.682,-533.05 339.673,-534.715"/>
<polygon fill="midnightblue" stroke="midnightblue" points="338.298,-537.945 348.783,-539.464 341.534,-531.738 338.298,-537.945"/>
</g>
<!-- Node10 -->
<g id="node10" class="node"><title>Node10</title>
<g id="a_node10"><a xlink:href="$d1/d49/namespaceamunmt_1_1GPU_1_1mblas.html#aff338966a337172d52673594c7a31474" xlink:title="amunmt::GPU::mblas\l::PasteRow">
<polygon fill="white" stroke="black" points="331,-490.5 331,-520.5 443,-520.5 443,-490.5 331,-490.5"/>
<text text-anchor="start" x="339" y="-508.5" font-family="Helvetica,sans-Serif" font-size="10.00">amunmt::GPU::mblas</text>
<text text-anchor="middle" x="387" y="-497.5" font-family="Helvetica,sans-Serif" font-size="10.00">::PasteRow</text>
</a>
</g>
</g>
<!-- Node2&#45;&gt;Node10 -->
<g id="edge9" class="edge"><title>Node2&#45;&gt;Node10</title>
<path fill="none" stroke="midnightblue" d="M256.774,-447.626C281.798,-458.833 316.091,-474.191 343.062,-486.27"/>
<polygon fill="midnightblue" stroke="midnightblue" points="341.712,-489.501 352.27,-490.394 344.574,-483.112 341.712,-489.501"/>
</g>
<!-- Node11 -->
<g id="node11" class="node"><title>Node11</title>
<g id="a_node11"><a xlink:href="$d1/d49/namespaceamunmt_1_1GPU_1_1mblas.html#aea9adf68efb5a26cb9bca66189c1786c" xlink:title="amunmt::GPU::mblas\l::PasteRows">
<polygon fill="white" stroke="black" points="331,-441.5 331,-471.5 443,-471.5 443,-441.5 331,-441.5"/>
<text text-anchor="start" x="339" y="-459.5" font-family="Helvetica,sans-Serif" font-size="10.00">amunmt::GPU::mblas</text>
<text text-anchor="middle" x="387" y="-448.5" font-family="Helvetica,sans-Serif" font-size="10.00">::PasteRows</text>
</a>
</g>
</g>
<!-- Node2&#45;&gt;Node11 -->
<g id="edge10" class="edge"><title>Node2&#45;&gt;Node11</title>
<path fill="none" stroke="midnightblue" d="M278.184,-440.625C291.859,-442.639 306.641,-444.815 320.747,-446.892"/>
<polygon fill="midnightblue" stroke="midnightblue" points="320.469,-450.389 330.872,-448.383 321.489,-443.464 320.469,-450.389"/>
</g>
<!-- Node12 -->
<g id="node12" class="node"><title>Node12</title>
<g id="a_node12"><a xlink:href="$d1/d49/namespaceamunmt_1_1GPU_1_1mblas.html#a4cbcf6af0265debf12e8348d2eea6daa" xlink:title="amunmt::GPU::mblas\l::CopyRow">
<polygon fill="white" stroke="black" points="331,-392.5 331,-422.5 443,-422.5 443,-392.5 331,-392.5"/>
<text text-anchor="start" x="339" y="-410.5" font-family="Helvetica,sans-Serif" font-size="10.00">amunmt::GPU::mblas</text>
<text text-anchor="middle" x="387" y="-399.5" font-family="Helvetica,sans-Serif" font-size="10.00">::CopyRow</text>
</a>
</g>
</g>
<!-- Node2&#45;&gt;Node12 -->
<g id="edge11" class="edge"><title>Node2&#45;&gt;Node12</title>
<path fill="none" stroke="midnightblue" d="M278.184,-424.036C291.859,-421.939 306.641,-419.672 320.747,-417.508"/>
<polygon fill="midnightblue" stroke="midnightblue" points="321.519,-420.931 330.872,-415.955 320.457,-414.012 321.519,-420.931"/>
</g>
<!-- Node13 -->
<g id="node13" class="node"><title>Node13</title>
<g id="a_node13"><a xlink:href="$d1/d49/namespaceamunmt_1_1GPU_1_1mblas.html#af345694ea7f81e67d44c906d2a24b4a9" xlink:title="amunmt::GPU::mblas\l::Concat">
<polygon fill="white" stroke="black" points="331,-343.5 331,-373.5 443,-373.5 443,-343.5 331,-343.5"/>
<text text-anchor="start" x="339" y="-361.5" font-family="Helvetica,sans-Serif" font-size="10.00">amunmt::GPU::mblas</text>
<text text-anchor="middle" x="387" y="-350.5" font-family="Helvetica,sans-Serif" font-size="10.00">::Concat</text>
</a>
</g>
</g>
<!-- Node2&#45;&gt;Node13 -->
<g id="edge12" class="edge"><title>Node2&#45;&gt;Node13</title>
<path fill="none" stroke="midnightblue" d="M272.162,-417.452C279.952,-414.495 287.806,-411.16 295,-407.5 312.362,-398.668 313.992,-391.996 331,-382.5 333.82,-380.926 336.763,-379.381 339.759,-377.881"/>
<polygon fill="midnightblue" stroke="midnightblue" points="341.326,-381.011 348.832,-373.534 338.301,-374.698 341.326,-381.011"/>
</g>
<!-- Node14 -->
<g id="node14" class="node"><title>Node14</title>
<g id="a_node14"><a xlink:href="$d1/d49/namespaceamunmt_1_1GPU_1_1mblas.html#ac4634f9a58b95ccdd997393c75a9fc69" xlink:title="amunmt::GPU::mblas\l::MapMatrix">
<polygon fill="white" stroke="black" points="331,-294.5 331,-324.5 443,-324.5 443,-294.5 331,-294.5"/>
<text text-anchor="start" x="339" y="-312.5" font-family="Helvetica,sans-Serif" font-size="10.00">amunmt::GPU::mblas</text>
<text text-anchor="middle" x="387" y="-301.5" font-family="Helvetica,sans-Serif" font-size="10.00">::MapMatrix</text>
</a>
</g>
</g>
<!-- Node2&#45;&gt;Node14 -->
<g id="edge13" class="edge"><title>Node2&#45;&gt;Node14</title>
<path fill="none" stroke="midnightblue" d="M278.223,-418.522C284.291,-415.523 290.053,-411.893 295,-407.5 322.349,-383.216 304.609,-358.822 331,-333.5 332.104,-332.441 333.263,-331.424 334.466,-330.448"/>
<polygon fill="midnightblue" stroke="midnightblue" points="336.706,-333.154 342.946,-324.591 332.728,-327.394 336.706,-333.154"/>
</g>
<!-- Node15 -->
<g id="node15" class="node"><title>Node15</title>
<g id="a_node15"><a xlink:href="$d1/d49/namespaceamunmt_1_1GPU_1_1mblas.html#ab9e2664595a60723ce6158c22f2ed527" xlink:title="amunmt::GPU::mblas\l::CopyRows">
<polygon fill="white" stroke="black" points="331,-245.5 331,-275.5 443,-275.5 443,-245.5 331,-245.5"/>
<text text-anchor="start" x="339" y="-263.5" font-family="Helvetica,sans-Serif" font-size="10.00">amunmt::GPU::mblas</text>
<text text-anchor="middle" x="387" y="-252.5" font-family="Helvetica,sans-Serif" font-size="10.00">::CopyRows</text>
</a>
</g>
</g>
<!-- Node2&#45;&gt;Node15 -->
<g id="edge14" class="edge"><title>Node2&#45;&gt;Node15</title>
<path fill="none" stroke="midnightblue" d="M278.258,-419.671C284.469,-416.475 290.256,-412.484 295,-407.5 334.268,-366.239 293.354,-327.246 331,-284.5 331.757,-283.64 332.551,-282.81 333.377,-282.008"/>
<polygon fill="midnightblue" stroke="midnightblue" points="335.88,-284.49 341.549,-275.539 331.536,-279.002 335.88,-284.49"/>
</g>
<!-- Node16 -->
<g id="node16" class="node"><title>Node16</title>
<g id="a_node16"><a xlink:href="$d1/d49/namespaceamunmt_1_1GPU_1_1mblas.html#a45e67b812840551fae28c4f7cca2b562" xlink:title="amunmt::GPU::mblas\l::Assemble">
<polygon fill="white" stroke="black" points="331,-196.5 331,-226.5 443,-226.5 443,-196.5 331,-196.5"/>
<text text-anchor="start" x="339" y="-214.5" font-family="Helvetica,sans-Serif" font-size="10.00">amunmt::GPU::mblas</text>
<text text-anchor="middle" x="387" y="-203.5" font-family="Helvetica,sans-Serif" font-size="10.00">::Assemble</text>
</a>
</g>
</g>
<!-- Node2&#45;&gt;Node16 -->
<g id="edge15" class="edge"><title>Node2&#45;&gt;Node16</title>
<path fill="none" stroke="midnightblue" d="M278.282,-420.204C284.568,-416.923 290.368,-412.766 295,-407.5 346.584,-348.859 281.719,-296.09 331,-235.5 331.604,-234.757 332.235,-234.037 332.892,-233.339"/>
<polygon fill="midnightblue" stroke="midnightblue" points="335.396,-235.804 340.744,-226.658 330.859,-230.473 335.396,-235.804"/>
</g>
<!-- Node17 -->
<g id="node17" class="node"><title>Node17</title>
<g id="a_node17"><a xlink:href="$d1/d49/namespaceamunmt_1_1GPU_1_1mblas.html#aacbc57fa7bf5c1fac6abbd44a9832c8d" xlink:title="amunmt::GPU::mblas\l::Slice">
<polygon fill="white" stroke="black" points="331,-147.5 331,-177.5 443,-177.5 443,-147.5 331,-147.5"/>
<text text-anchor="start" x="339" y="-165.5" font-family="Helvetica,sans-Serif" font-size="10.00">amunmt::GPU::mblas</text>
<text text-anchor="middle" x="387" y="-154.5" font-family="Helvetica,sans-Serif" font-size="10.00">::Slice</text>
</a>
</g>
</g>
<!-- Node2&#45;&gt;Node17 -->
<g id="edge16" class="edge"><title>Node2&#45;&gt;Node17</title>
<path fill="none" stroke="midnightblue" d="M278.152,-420.584C284.54,-417.244 290.402,-412.969 295,-407.5 359.037,-331.324 269.952,-265.093 331,-186.5 331.587,-185.744 332.203,-185.012 332.845,-184.302"/>
<polygon fill="midnightblue" stroke="midnightblue" points="335.362,-186.749 340.582,-177.53 330.752,-181.482 335.362,-186.749"/>
</g>
<!-- Node18 -->
<g id="node18" class="node"><title>Node18</title>
<g id="a_node18"><a xlink:href="$d1/d49/namespaceamunmt_1_1GPU_1_1mblas.html#a463b2de180e8ab66bae53d1f8c5bc011" xlink:title="amunmt::GPU::mblas\l::Prod">
<polygon fill="white" stroke="black" points="331,-98.5 331,-128.5 443,-128.5 443,-98.5 331,-98.5"/>
<text text-anchor="start" x="339" y="-116.5" font-family="Helvetica,sans-Serif" font-size="10.00">amunmt::GPU::mblas</text>
<text text-anchor="middle" x="387" y="-105.5" font-family="Helvetica,sans-Serif" font-size="10.00">::Prod</text>
</a>
</g>
</g>
<!-- Node2&#45;&gt;Node18 -->
<g id="edge17" class="edge"><title>Node2&#45;&gt;Node18</title>
<path fill="none" stroke="midnightblue" d="M278.301,-420.707C284.666,-417.348 290.482,-413.035 295,-407.5 371.553,-313.715 258.126,-234.172 331,-137.5 331.562,-136.754 332.153,-136.031 332.769,-135.329"/>
<polygon fill="midnightblue" stroke="midnightblue" points="335.122,-137.92 340.221,-128.633 330.444,-132.714 335.122,-137.92"/>
</g>
<!-- Node19 -->
<g id="node19" class="node"><title>Node19</title>
<g id="a_node19"><a xlink:href="$d1/d49/namespaceamunmt_1_1GPU_1_1mblas.html#ad21070cb29f8c33c03f76e31ef902dfe" xlink:title="amunmt::GPU::mblas\l::Softmax">
<polygon fill="white" stroke="black" points="331,-49.5 331,-79.5 443,-79.5 443,-49.5 331,-49.5"/>
<text text-anchor="start" x="339" y="-67.5" font-family="Helvetica,sans-Serif" font-size="10.00">amunmt::GPU::mblas</text>
<text text-anchor="middle" x="387" y="-56.5" font-family="Helvetica,sans-Serif" font-size="10.00">::Softmax</text>
</a>
</g>
</g>
<!-- Node2&#45;&gt;Node19 -->
<g id="edge18" class="edge"><title>Node2&#45;&gt;Node19</title>
<path fill="none" stroke="midnightblue" d="M278.053,-420.978C284.54,-417.58 290.455,-413.184 295,-407.5 384.102,-296.065 246.268,-203.293 331,-88.5 331.555,-87.7482 332.138,-87.0197 332.748,-86.3137"/>
<polygon fill="midnightblue" stroke="midnightblue" points="335.108,-88.8979 340.148,-79.5784 330.397,-83.7211 335.108,-88.8979"/>
</g>
<!-- Node20 -->
<g id="node20" class="node"><title>Node20</title>
<g id="a_node20"><a xlink:href="$d1/d49/namespaceamunmt_1_1GPU_1_1mblas.html#a25593e31e47b2518b1fc922e3b0a1a77" xlink:title="amunmt::GPU::mblas\l::LogSoftmax">
<polygon fill="white" stroke="black" points="331,-0.5 331,-30.5 443,-30.5 443,-0.5 331,-0.5"/>
<text text-anchor="start" x="339" y="-18.5" font-family="Helvetica,sans-Serif" font-size="10.00">amunmt::GPU::mblas</text>
<text text-anchor="middle" x="387" y="-7.5" font-family="Helvetica,sans-Serif" font-size="10.00">::LogSoftmax</text>
</a>
</g>
</g>
<!-- Node2&#45;&gt;Node20 -->
<g id="edge19" class="edge"><title>Node2&#45;&gt;Node20</title>
<path fill="none" stroke="midnightblue" d="M278.131,-421.04C284.606,-417.632 290.497,-413.218 295,-407.5 396.671,-278.39 234.391,-172.44 331,-39.5 331.471,-38.8521 331.963,-38.2215 332.475,-37.6077"/>
<polygon fill="midnightblue" stroke="midnightblue" points="335.144,-39.906 340.094,-30.5388 330.382,-34.7745 335.144,-39.906"/>
</g>
</g>
</svg>
