<?xml version="1.0" encoding="UTF-8" standalone="no"?>
<!DOCTYPE svg PUBLIC "-//W3C//DTD SVG 1.1//EN"
 "http://www.w3.org/Graphics/SVG/1.1/DTD/svg11.dtd">
<!-- Generated by graphviz version 2.38.0 (20140413.2041)
 -->
<!-- Title: marian::mlp::LayerFactory Pages: 1 -->
<svg width="143pt" height="535pt"
 viewBox="0.00 0.00 143.00 535.00" xmlns="http://www.w3.org/2000/svg" xmlns:xlink="http://www.w3.org/1999/xlink">
<g id="graph0" class="graph" transform="scale(1 1) rotate(0) translate(4 531)">
<title>marian::mlp::LayerFactory</title>
<polygon fill="white" stroke="none" points="-4,4 -4,-531 139,-531 139,4 -4,4"/>
<!-- Node1 -->
<g id="node1" class="node"><title>Node1</title>
<polygon fill="#bfbfbf" stroke="black" points="2,-138.5 2,-261.5 133,-261.5 133,-138.5 2,-138.5"/>
<text text-anchor="middle" x="67.5" y="-249.5" font-family="Helvetica,sans-Serif" font-size="10.00">marian::mlp::LayerFactory</text>
<polyline fill="none" stroke="black" points="2,-242.5 133,-242.5 "/>
<text text-anchor="middle" x="67.5" y="-230.5" font-family="Helvetica,sans-Serif" font-size="10.00"> </text>
<polyline fill="none" stroke="black" points="2,-223.5 133,-223.5 "/>
<text text-anchor="start" x="10" y="-211.5" font-family="Helvetica,sans-Serif" font-size="10.00">+ LayerFactory()</text>
<text text-anchor="start" x="10" y="-200.5" font-family="Helvetica,sans-Serif" font-size="10.00">+ LayerFactory()</text>
<text text-anchor="start" x="10" y="-189.5" font-family="Helvetica,sans-Serif" font-size="10.00">+ LayerFactory()</text>
<text text-anchor="start" x="10" y="-178.5" font-family="Helvetica,sans-Serif" font-size="10.00">+ ~LayerFactory()</text>
<text text-anchor="start" x="10" y="-167.5" font-family="Helvetica,sans-Serif" font-size="10.00">+ as()</text>
<text text-anchor="start" x="10" y="-156.5" font-family="Helvetica,sans-Serif" font-size="10.00">+ is()</text>
<text text-anchor="start" x="10" y="-145.5" font-family="Helvetica,sans-Serif" font-size="10.00">+ construct()</text>
</g>
<!-- Node4 -->
<g id="node4" class="node"><title>Node4</title>
<g id="a_node4"><a xlink:href="$de/d81/classmarian_1_1mlp_1_1DenseFactory.html" xlink:title="{marian::mlp::DenseFactory\n|# tiedParams_\l# tiedParamsTransposed_\l|+ DenseFactory()\l+ tie()\l+ tie_transposed()\l+ construct()\l}">
<polygon fill="white" stroke="black" points="0,-0.5 0,-101.5 135,-101.5 135,-0.5 0,-0.5"/>
<text text-anchor="middle" x="67.5" y="-89.5" font-family="Helvetica,sans-Serif" font-size="10.00">marian::mlp::DenseFactory</text>
<polyline fill="none" stroke="black" points="0,-82.5 135,-82.5 "/>
<text text-anchor="start" x="8" y="-70.5" font-family="Helvetica,sans-Serif" font-size="10.00"># tiedParams_</text>
<text text-anchor="start" x="8" y="-59.5" font-family="Helvetica,sans-Serif" font-size="10.00"># tiedParamsTransposed_</text>
<polyline fill="none" stroke="black" points="0,-52.5 135,-52.5 "/>
<text text-anchor="start" x="8" y="-40.5" font-family="Helvetica,sans-Serif" font-size="10.00">+ DenseFactory()</text>
<text text-anchor="start" x="8" y="-29.5" font-family="Helvetica,sans-Serif" font-size="10.00">+ tie()</text>
<text text-anchor="start" x="8" y="-18.5" font-family="Helvetica,sans-Serif" font-size="10.00">+ tie_transposed()</text>
<text text-anchor="start" x="8" y="-7.5" font-family="Helvetica,sans-Serif" font-size="10.00">+ construct()</text>
</a>
</g>
</g>
<!-- Node1&#45;&gt;Node4 -->
<g id="edge3" class="edge"><title>Node1&#45;&gt;Node4</title>
<path fill="none" stroke="midnightblue" d="M67.5,-128.289C67.5,-119.323 67.5,-110.301 67.5,-101.758"/>
<polygon fill="none" stroke="midnightblue" points="64.0001,-128.361 67.5,-138.361 71.0001,-128.361 64.0001,-128.361"/>
</g>
<!-- Node2 -->
<g id="node2" class="node"><title>Node2</title>
<g id="a_node2"><a xlink:href="$d5/d28/classmarian_1_1Factory.html" xlink:title="{marian::Factory\n|# options_\l# graph_\l|+ Factory()\l+ ~Factory()\l+ getOptions()\l+ str()\l+ opt()\l+ opt()\l}">
<polygon fill="white" stroke="black" points="25,-298.5 25,-421.5 110,-421.5 110,-298.5 25,-298.5"/>
<text text-anchor="middle" x="67.5" y="-409.5" font-family="Helvetica,sans-Serif" font-size="10.00">marian::Factory</text>
<polyline fill="none" stroke="black" points="25,-402.5 110,-402.5 "/>
<text text-anchor="start" x="33" y="-390.5" font-family="Helvetica,sans-Serif" font-size="10.00"># options_</text>
<text text-anchor="start" x="33" y="-379.5" font-family="Helvetica,sans-Serif" font-size="10.00"># graph_</text>
<polyline fill="none" stroke="black" points="25,-372.5 110,-372.5 "/>
<text text-anchor="start" x="33" y="-360.5" font-family="Helvetica,sans-Serif" font-size="10.00">+ Factory()</text>
<text text-anchor="start" x="33" y="-349.5" font-family="Helvetica,sans-Serif" font-size="10.00">+ ~Factory()</text>
<text text-anchor="start" x="33" y="-338.5" font-family="Helvetica,sans-Serif" font-size="10.00">+ getOptions()</text>
<text text-anchor="start" x="33" y="-327.5" font-family="Helvetica,sans-Serif" font-size="10.00">+ str()</text>
<text text-anchor="start" x="33" y="-316.5" font-family="Helvetica,sans-Serif" font-size="10.00">+ opt()</text>
<text text-anchor="start" x="33" y="-305.5" font-family="Helvetica,sans-Serif" font-size="10.00">+ opt()</text>
</a>
</g>
</g>
<!-- Node2&#45;&gt;Node1 -->
<g id="edge1" class="edge"><title>Node2&#45;&gt;Node1</title>
<path fill="none" stroke="midnightblue" d="M67.5,-288.116C67.5,-279.31 67.5,-270.368 67.5,-261.734"/>
<polygon fill="none" stroke="midnightblue" points="64.0001,-288.365 67.5,-298.365 71.0001,-288.365 64.0001,-288.365"/>
</g>
<!-- Node3 -->
<g id="node3" class="node"><title>Node3</title>
<polygon fill="white" stroke="#bfbfbf" points="11,-458.5 11,-526.5 124,-526.5 124,-458.5 11,-458.5"/>
<text text-anchor="start" x="19" y="-514.5" font-family="Helvetica,sans-Serif" font-size="10.00">std::enable_shared</text>
<text text-anchor="middle" x="67.5" y="-503.5" font-family="Helvetica,sans-Serif" font-size="10.00">_from_this&lt; Factory &gt;</text>
<polyline fill="none" stroke="#bfbfbf" points="11,-496.5 124,-496.5 "/>
<text text-anchor="middle" x="67.5" y="-484.5" font-family="Helvetica,sans-Serif" font-size="10.00"> </text>
<polyline fill="none" stroke="#bfbfbf" points="11,-477.5 124,-477.5 "/>
<text text-anchor="middle" x="67.5" y="-465.5" font-family="Helvetica,sans-Serif" font-size="10.00"> </text>
</g>
<!-- Node3&#45;&gt;Node2 -->
<g id="edge2" class="edge"><title>Node3&#45;&gt;Node2</title>
<path fill="none" stroke="midnightblue" d="M67.5,-448.169C67.5,-439.652 67.5,-430.572 67.5,-421.609"/>
<polygon fill="none" stroke="midnightblue" points="64.0001,-448.232 67.5,-458.232 71.0001,-448.232 64.0001,-448.232"/>
</g>
</g>
</svg>
