<?xml version="1.0" encoding="UTF-8" standalone="no"?>
<!DOCTYPE svg PUBLIC "-//W3C//DTD SVG 1.1//EN"
 "http://www.w3.org/Graphics/SVG/1.1/DTD/svg11.dtd">
<!-- Generated by graphviz version 2.38.0 (20140413.2041)
 -->
<!-- Title: amunmt::Filter::GetFilteredVocab Pages: 1 -->
<svg width="494pt" height="165pt"
 viewBox="0.00 0.00 494.00 164.50" xmlns="http://www.w3.org/2000/svg" xmlns:xlink="http://www.w3.org/1999/xlink">
<g id="graph0" class="graph" transform="scale(1 1) rotate(0) translate(4 160.5)">
<title>amunmt::Filter::GetFilteredVocab</title>
<polygon fill="white" stroke="none" points="-4,4 -4,-160.5 490,-160.5 490,4 -4,4"/>
<!-- Node1 -->
<g id="node1" class="node"><title>Node1</title>
<polygon fill="#bfbfbf" stroke="black" points="0,-77 0,-107 134,-107 134,-77 0,-77"/>
<text text-anchor="start" x="8" y="-95" font-family="Helvetica,sans-Serif" font-size="10.00">amunmt::Filter::GetFiltered</text>
<text text-anchor="middle" x="67" y="-84" font-family="Helvetica,sans-Serif" font-size="10.00">Vocab</text>
</g>
<!-- Node2 -->
<g id="node2" class="node"><title>Node2</title>
<g id="a_node2"><a xlink:href="$d6/d0e/classamunmt_1_1Filter.html#a8b4e8daccd3d04c498574647b3493ace" xlink:title="amunmt::Filter::GetNumFirst\lWords">
<polygon fill="white" stroke="black" points="184,-126 184,-156 326,-156 326,-126 184,-126"/>
<text text-anchor="start" x="192" y="-144" font-family="Helvetica,sans-Serif" font-size="10.00">amunmt::Filter::GetNumFirst</text>
<text text-anchor="middle" x="255" y="-133" font-family="Helvetica,sans-Serif" font-size="10.00">Words</text>
</a>
</g>
</g>
<!-- Node1&#45;&gt;Node2 -->
<g id="edge1" class="edge"><title>Node1&#45;&gt;Node2</title>
<path fill="none" stroke="midnightblue" d="M125.07,-107.035C144.709,-112.208 166.874,-118.048 187.217,-123.407"/>
<polygon fill="midnightblue" stroke="midnightblue" points="186.476,-126.831 197.038,-125.994 188.259,-120.062 186.476,-126.831"/>
</g>
<!-- Node3 -->
<g id="node3" class="node"><title>Node3</title>
<g id="a_node3"><a xlink:href="$d6/d0e/classamunmt_1_1Filter.html#afa06c9b88b2a63f4868ce2e5317011d3" xlink:title="amunmt::Filter::SetNumFirst\lWords">
<polygon fill="white" stroke="black" points="184.5,-77 184.5,-107 325.5,-107 325.5,-77 184.5,-77"/>
<text text-anchor="start" x="192.5" y="-95" font-family="Helvetica,sans-Serif" font-size="10.00">amunmt::Filter::SetNumFirst</text>
<text text-anchor="middle" x="255" y="-84" font-family="Helvetica,sans-Serif" font-size="10.00">Words</text>
</a>
</g>
</g>
<!-- Node1&#45;&gt;Node3 -->
<g id="edge2" class="edge"><title>Node1&#45;&gt;Node3</title>
<path fill="none" stroke="midnightblue" d="M134.1,-92C147.081,-92 160.826,-92 174.2,-92"/>
<polygon fill="midnightblue" stroke="midnightblue" points="174.335,-95.5001 184.335,-92 174.335,-88.5001 174.335,-95.5001"/>
</g>
<!-- Node4 -->
<g id="node4" class="node"><title>Node4</title>
<g id="a_node4"><a xlink:href="$d6/d0e/classamunmt_1_1Filter.html#a8577454f5c8aa797f92c53c51d7791bc" xlink:title="amunmt::Filter::ParseAlignmentFile">
<polygon fill="white" stroke="black" points="170,-38.5 170,-57.5 340,-57.5 340,-38.5 170,-38.5"/>
<text text-anchor="middle" x="255" y="-45.5" font-family="Helvetica,sans-Serif" font-size="10.00">amunmt::Filter::ParseAlignmentFile</text>
</a>
</g>
</g>
<!-- Node1&#45;&gt;Node4 -->
<g id="edge3" class="edge"><title>Node1&#45;&gt;Node4</title>
<path fill="none" stroke="midnightblue" d="M131.49,-76.9808C155.127,-71.3892 181.602,-65.1265 203.875,-59.8574"/>
<polygon fill="midnightblue" stroke="midnightblue" points="204.863,-63.2205 213.788,-57.5124 203.251,-56.4086 204.863,-63.2205"/>
</g>
<!-- Node5 -->
<g id="node5" class="node"><title>Node5</title>
<g id="a_node5"><a xlink:href="$d7/dd3/namespaceamunmt.html#a4578e863aaec8293556404432d7e8d04" xlink:title="amunmt::Trim">
<polygon fill="white" stroke="black" points="392.5,-76.5 392.5,-95.5 469.5,-95.5 469.5,-76.5 392.5,-76.5"/>
<text text-anchor="middle" x="431" y="-83.5" font-family="Helvetica,sans-Serif" font-size="10.00">amunmt::Trim</text>
</a>
</g>
</g>
<!-- Node4&#45;&gt;Node5 -->
<g id="edge4" class="edge"><title>Node4&#45;&gt;Node5</title>
<path fill="none" stroke="midnightblue" d="M299.908,-57.589C325.06,-63.0821 356.641,-69.9792 382.389,-75.6021"/>
<polygon fill="midnightblue" stroke="midnightblue" points="381.788,-79.0534 392.305,-77.7677 383.282,-72.2146 381.788,-79.0534"/>
</g>
<!-- Node6 -->
<g id="node6" class="node"><title>Node6</title>
<g id="a_node6"><a xlink:href="$d7/dd3/namespaceamunmt.html#a10b7486d36b130609c77e8356218c0a7" xlink:title="amunmt::Split">
<polygon fill="white" stroke="black" points="392.5,-38.5 392.5,-57.5 469.5,-57.5 469.5,-38.5 392.5,-38.5"/>
<text text-anchor="middle" x="431" y="-45.5" font-family="Helvetica,sans-Serif" font-size="10.00">amunmt::Split</text>
</a>
</g>
</g>
<!-- Node4&#45;&gt;Node6 -->
<g id="edge5" class="edge"><title>Node4&#45;&gt;Node6</title>
<path fill="none" stroke="midnightblue" d="M340.197,-48C354.571,-48 369.047,-48 382.054,-48"/>
<polygon fill="midnightblue" stroke="midnightblue" points="382.14,-51.5001 392.14,-48 382.14,-44.5001 382.14,-51.5001"/>
</g>
<!-- Node7 -->
<g id="node7" class="node"><title>Node7</title>
<g id="a_node7"><a xlink:href="$d4/d9e/classamunmt_1_1Vocab.html#ae48b739add0c08cb29aeef394641dd4b" xlink:title="amunmt::Vocab::size">
<polygon fill="white" stroke="black" points="376,-0.5 376,-19.5 486,-19.5 486,-0.5 376,-0.5"/>
<text text-anchor="middle" x="431" y="-7.5" font-family="Helvetica,sans-Serif" font-size="10.00">amunmt::Vocab::size</text>
</a>
</g>
</g>
<!-- Node4&#45;&gt;Node7 -->
<g id="edge6" class="edge"><title>Node4&#45;&gt;Node7</title>
<path fill="none" stroke="midnightblue" d="M299.908,-38.411C323.179,-33.3287 351.954,-27.0446 376.519,-21.6797"/>
<polygon fill="midnightblue" stroke="midnightblue" points="377.385,-25.0732 386.408,-19.5201 375.892,-18.2343 377.385,-25.0732"/>
</g>
</g>
</svg>
