<?xml version="1.0" encoding="UTF-8" standalone="no"?>
<!DOCTYPE svg PUBLIC "-//W3C//DTD SVG 1.1//EN"
 "http://www.w3.org/Graphics/SVG/1.1/DTD/svg11.dtd">
<!-- Generated by graphviz version 2.38.0 (20140413.2041)
 -->
<!-- Title: expression_operators.h Pages: 1 -->
<!--zoomable 812 -->
<svg id="main" version="1.1" xmlns="http://www.w3.org/2000/svg" xmlns:xlink="http://www.w3.org/1999/xlink" xml:space="preserve" onload="init(evt)">
<style type="text/css"><![CDATA[
.edge:hover path { stroke: red; }
.edge:hover polygon { stroke: red; fill: red; }
]]></style>
<script type="text/javascript"><![CDATA[
var edges = document.getElementsByTagName('g');
if (edges && edges.length) {
  for (var i=0;i<edges.length;i++) {
    if (edges[i].id.substr(0,4)=='edge') {
      edges[i].setAttribute('class','edge');
    }
  }
}
]]></script>
        <defs>
                <circle id="rim" cx="0" cy="0" r="7"/>
                <circle id="rim2" cx="0" cy="0" r="3.5"/>
                <g id="zoomPlus">
                        <use xlink:href="#rim" fill="#404040">
                                <set attributeName="fill" to="#808080" begin="zoomplus.mouseover" end="zoomplus.mouseout"/>
                        </use>
                        <path d="M-4,0h8M0,-4v8" fill="none" stroke="white" stroke-width="1.5" pointer-events="none"/>
                </g>
                <g id="zoomMin">
                        <use xlink:href="#rim" fill="#404040">
                                <set attributeName="fill" to="#808080" begin="zoomminus.mouseover" end="zoomminus.mouseout"/>
                        </use>
                        <path d="M-4,0h8" fill="none" stroke="white" stroke-width="1.5" pointer-events="none"/>
                </g>
                <g id="dirArrow">
                        <path fill="none" stroke="white" stroke-width="1.5" d="M0,-3.0v7 M-2.5,-0.5L0,-3.0L2.5,-0.5"/>
                </g>
               <g id="resetDef">
                       <use xlink:href="#rim2" fill="#404040">
                               <set attributeName="fill" to="#808080" begin="reset.mouseover" end="reset.mouseout"/>
                       </use>
               </g>
        </defs>

<script type="text/javascript">
var viewWidth = 996;
var viewHeight = 812;
var sectionId = 'dynsection-1';
</script>
<script xlink:href="../../svgpan.js"/>
<svg id="graph" class="graph">
<g id="viewport">
<title>expression_operators.h</title>
<polygon fill="white" stroke="none" points="-4,4 -4,-808 992,-808 992,4 -4,4"/>
<!-- Node1 -->
<g id="node1" class="node"><title>Node1</title>
<polygon fill="#bfbfbf" stroke="black" points="619,-784.5 619,-803.5 737,-803.5 737,-784.5 619,-784.5"/>
<text text-anchor="middle" x="678" y="-791.5" font-family="Helvetica,sans-Serif" font-size="10.00">expression_operators.h</text>
</g>
<!-- Node2 -->
<g id="node2" class="node"><title>Node2</title>
<g id="a_node2"><a xlink:href="../../d2/d88/generic_8h.html" target="_top" xlink:title="generic.h">
<polygon fill="white" stroke="black" points="477,-728.5 477,-747.5 533,-747.5 533,-728.5 477,-728.5"/>
<text text-anchor="middle" x="505" y="-735.5" font-family="Helvetica,sans-Serif" font-size="10.00">generic.h</text>
</a>
</g>
</g>
<!-- Node1&#45;&gt;Node2 -->
<g id="edge1" class="edge"><title>Node1&#45;&gt;Node2</title>
<path fill="none" stroke="midnightblue" d="M640.953,-781.436C608.336,-771.255 561.59,-756.664 532.284,-747.516"/>
<polygon fill="midnightblue" stroke="midnightblue" points="639.999,-784.805 650.588,-784.444 642.085,-778.123 639.999,-784.805"/>
</g>
<!-- Node4 -->
<g id="node4" class="node"><title>Node4</title>
<g id="a_node4"><a xlink:href="../../da/dad/marian_8h.html" target="_top" xlink:title="marian.h">
<polygon fill="white" stroke="black" points="530,-504.5 530,-523.5 584,-523.5 584,-504.5 530,-504.5"/>
<text text-anchor="middle" x="557" y="-511.5" font-family="Helvetica,sans-Serif" font-size="10.00">marian.h</text>
</a>
</g>
</g>
<!-- Node1&#45;&gt;Node4 -->
<g id="edge69" class="edge"><title>Node1&#45;&gt;Node4</title>
<path fill="none" stroke="midnightblue" d="M608.501,-789.941C484.504,-782.573 238,-758.438 238,-683 238,-683 238,-683 238,-625 238,-563.489 452.659,-528.874 529.802,-518.42"/>
<polygon fill="midnightblue" stroke="midnightblue" points="608.476,-793.445 618.66,-790.524 608.876,-786.457 608.476,-793.445"/>
</g>
<!-- Node31 -->
<g id="node31" class="node"><title>Node31</title>
<g id="a_node31"><a xlink:href="../../de/d60/rnn_8h.html" target="_top" xlink:title="rnn.h">
<polygon fill="white" stroke="black" points="668,-672.5 668,-691.5 706,-691.5 706,-672.5 668,-672.5"/>
<text text-anchor="middle" x="687" y="-679.5" font-family="Helvetica,sans-Serif" font-size="10.00">rnn.h</text>
</a>
</g>
</g>
<!-- Node1&#45;&gt;Node31 -->
<g id="edge70" class="edge"><title>Node1&#45;&gt;Node31</title>
<path fill="none" stroke="midnightblue" d="M679.526,-774.348C681.497,-750.254 684.848,-709.308 686.297,-691.591"/>
<polygon fill="midnightblue" stroke="midnightblue" points="676.033,-774.116 678.706,-784.368 683.01,-774.687 676.033,-774.116"/>
</g>
<!-- Node34 -->
<g id="node34" class="node"><title>Node34</title>
<g id="a_node34"><a xlink:href="../../d9/de1/cells_8h.html" target="_top" xlink:title="cells.h">
<polygon fill="white" stroke="black" points="610.5,-616.5 610.5,-635.5 655.5,-635.5 655.5,-616.5 610.5,-616.5"/>
<text text-anchor="middle" x="633" y="-623.5" font-family="Helvetica,sans-Serif" font-size="10.00">cells.h</text>
</a>
</g>
</g>
<!-- Node1&#45;&gt;Node34 -->
<g id="edge74" class="edge"><title>Node1&#45;&gt;Node34</title>
<path fill="none" stroke="midnightblue" d="M672.956,-774.395C663.249,-738.585 642.31,-661.342 635.323,-635.568"/>
<polygon fill="midnightblue" stroke="midnightblue" points="669.586,-775.339 675.581,-784.075 676.342,-773.508 669.586,-775.339"/>
</g>
<!-- Node35 -->
<g id="node35" class="node"><title>Node35</title>
<g id="a_node35"><a xlink:href="../../dd/dc0/attention_8h.html" target="_top" xlink:title="attention.h">
<polygon fill="white" stroke="black" points="706,-728.5 706,-747.5 768,-747.5 768,-728.5 706,-728.5"/>
<text text-anchor="middle" x="737" y="-735.5" font-family="Helvetica,sans-Serif" font-size="10.00">attention.h</text>
</a>
</g>
</g>
<!-- Node1&#45;&gt;Node35 -->
<g id="edge71" class="edge"><title>Node1&#45;&gt;Node35</title>
<path fill="none" stroke="midnightblue" d="M694.895,-777.537C705.415,-767.909 718.569,-755.869 727.348,-747.834"/>
<polygon fill="midnightblue" stroke="midnightblue" points="692.493,-774.99 687.479,-784.324 697.219,-780.154 692.493,-774.99"/>
</g>
<!-- Node36 -->
<g id="node36" class="node"><title>Node36</title>
<g id="a_node36"><a xlink:href="../../d9/d05/graph__tests_8cpp.html" target="_top" xlink:title="graph_tests.cpp">
<polygon fill="white" stroke="black" points="786,-728.5 786,-747.5 872,-747.5 872,-728.5 786,-728.5"/>
<text text-anchor="middle" x="829" y="-735.5" font-family="Helvetica,sans-Serif" font-size="10.00">graph_tests.cpp</text>
</a>
</g>
</g>
<!-- Node1&#45;&gt;Node36 -->
<g id="edge75" class="edge"><title>Node1&#45;&gt;Node36</title>
<path fill="none" stroke="midnightblue" d="M711.446,-781.039C739.858,-770.879 779.937,-756.546 805.186,-747.516"/>
<polygon fill="midnightblue" stroke="midnightblue" points="710.164,-777.781 701.926,-784.444 712.521,-784.372 710.164,-777.781"/>
</g>
<!-- Node37 -->
<g id="node37" class="node"><title>Node37</title>
<g id="a_node37"><a xlink:href="../../d7/d92/operator__tests_8cpp.html" target="_top" xlink:title="operator_tests.cpp">
<polygon fill="white" stroke="black" points="890,-728.5 890,-747.5 988,-747.5 988,-728.5 890,-728.5"/>
<text text-anchor="middle" x="939" y="-735.5" font-family="Helvetica,sans-Serif" font-size="10.00">operator_tests.cpp</text>
</a>
</g>
</g>
<!-- Node1&#45;&gt;Node37 -->
<g id="edge76" class="edge"><title>Node1&#45;&gt;Node37</title>
<path fill="none" stroke="midnightblue" d="M729.187,-782.41C778.513,-772.204 852.195,-756.96 897.837,-747.516"/>
<polygon fill="midnightblue" stroke="midnightblue" points="728.44,-778.99 719.356,-784.444 729.858,-785.845 728.44,-778.99"/>
</g>
<!-- Node3 -->
<g id="node3" class="node"><title>Node3</title>
<g id="a_node3"><a xlink:href="../../dc/dc3/layers_2constructors_8h.html" target="_top" xlink:title="constructors.h">
<polygon fill="white" stroke="black" points="517.5,-560.5 517.5,-579.5 596.5,-579.5 596.5,-560.5 517.5,-560.5"/>
<text text-anchor="middle" x="557" y="-567.5" font-family="Helvetica,sans-Serif" font-size="10.00">constructors.h</text>
</a>
</g>
</g>
<!-- Node2&#45;&gt;Node3 -->
<g id="edge2" class="edge"><title>Node2&#45;&gt;Node3</title>
<path fill="none" stroke="midnightblue" d="M485.63,-721.594C472.225,-708.932 457.961,-690.179 465,-672 481.186,-630.196 523.618,-595.067 544.719,-579.543"/>
<polygon fill="midnightblue" stroke="midnightblue" points="483.434,-724.324 493.256,-728.296 488.054,-719.066 483.434,-724.324"/>
</g>
<!-- Node2&#45;&gt;Node4 -->
<g id="edge57" class="edge"><title>Node2&#45;&gt;Node4</title>
<path fill="none" stroke="midnightblue" d="M482.926,-722.686C438.2,-691.934 344.742,-617.673 389,-560 406.05,-537.782 486.601,-524.135 529.673,-518.304"/>
<polygon fill="midnightblue" stroke="midnightblue" points="481.165,-725.72 491.415,-728.403 485.075,-719.914 481.165,-725.72"/>
</g>
<!-- Node27 -->
<g id="node27" class="node"><title>Node27</title>
<g id="a_node27"><a xlink:href="../../df/d9b/convolution_8h.html" target="_top" xlink:title="convolution.h">
<polygon fill="white" stroke="black" points="268,-672.5 268,-691.5 342,-691.5 342,-672.5 268,-672.5"/>
<text text-anchor="middle" x="305" y="-679.5" font-family="Helvetica,sans-Serif" font-size="10.00">convolution.h</text>
</a>
</g>
</g>
<!-- Node2&#45;&gt;Node27 -->
<g id="edge52" class="edge"><title>Node2&#45;&gt;Node27</title>
<path fill="none" stroke="midnightblue" d="M466.67,-726.651C428.935,-716.463 371.983,-701.085 336.717,-691.564"/>
<polygon fill="midnightblue" stroke="midnightblue" points="466.202,-730.15 476.769,-729.378 468.027,-723.392 466.202,-730.15"/>
</g>
<!-- Node29 -->
<g id="node29" class="node"><title>Node29</title>
<g id="a_node29"><a xlink:href="../../de/d67/guided__alignment_8h.html" target="_top" xlink:title="guided_alignment.h">
<polygon fill="white" stroke="black" points="398.5,-560.5 398.5,-579.5 499.5,-579.5 499.5,-560.5 398.5,-560.5"/>
<text text-anchor="middle" x="449" y="-567.5" font-family="Helvetica,sans-Serif" font-size="10.00">guided_alignment.h</text>
</a>
</g>
</g>
<!-- Node2&#45;&gt;Node29 -->
<g id="edge54" class="edge"><title>Node2&#45;&gt;Node29</title>
<path fill="none" stroke="midnightblue" d="M484.31,-721.834C475.248,-714.001 465.454,-703.644 460,-692 441.927,-653.414 445.527,-600.384 447.849,-579.73"/>
<polygon fill="midnightblue" stroke="midnightblue" points="482.305,-724.714 492.281,-728.284 486.709,-719.273 482.305,-724.714"/>
</g>
<!-- Node30 -->
<g id="node30" class="node"><title>Node30</title>
<g id="a_node30"><a xlink:href="../../de/d6a/highway_8h.html" target="_top" xlink:title="highway.h">
<polygon fill="white" stroke="black" points="474.5,-672.5 474.5,-691.5 535.5,-691.5 535.5,-672.5 474.5,-672.5"/>
<text text-anchor="middle" x="505" y="-679.5" font-family="Helvetica,sans-Serif" font-size="10.00">highway.h</text>
</a>
</g>
</g>
<!-- Node2&#45;&gt;Node30 -->
<g id="edge56" class="edge"><title>Node2&#45;&gt;Node30</title>
<path fill="none" stroke="midnightblue" d="M505,-717.805C505,-708.91 505,-698.78 505,-691.751"/>
<polygon fill="midnightblue" stroke="midnightblue" points="501.5,-718.083 505,-728.083 508.5,-718.083 501.5,-718.083"/>
</g>
<!-- Node2&#45;&gt;Node31 -->
<g id="edge58" class="edge"><title>Node2&#45;&gt;Node31</title>
<path fill="none" stroke="midnightblue" d="M542.769,-725.794C580.907,-714.478 638.284,-697.454 667.861,-688.679"/>
<polygon fill="midnightblue" stroke="midnightblue" points="541.63,-722.481 533.039,-728.681 543.621,-729.192 541.63,-722.481"/>
</g>
<!-- Node2&#45;&gt;Node34 -->
<g id="edge68" class="edge"><title>Node2&#45;&gt;Node34</title>
<path fill="none" stroke="midnightblue" d="M524.808,-722.319C536.179,-713.723 550.615,-702.519 563,-692 585.752,-672.675 611.116,-648.391 624.171,-635.675"/>
<polygon fill="midnightblue" stroke="midnightblue" points="522.694,-719.53 516.795,-728.331 526.894,-725.13 522.694,-719.53"/>
</g>
<!-- Node3&#45;&gt;Node4 -->
<g id="edge3" class="edge"><title>Node3&#45;&gt;Node4</title>
<path fill="none" stroke="midnightblue" d="M557,-549.805C557,-540.91 557,-530.78 557,-523.751"/>
<polygon fill="midnightblue" stroke="midnightblue" points="553.5,-550.083 557,-560.083 560.5,-550.083 553.5,-550.083"/>
</g>
<!-- Node5 -->
<g id="node5" class="node"><title>Node5</title>
<g id="a_node5"><a xlink:href="../../d0/d0e/s2s__rescorer_8cpp.html" target="_top" xlink:title="s2s_rescorer.cpp">
<polygon fill="white" stroke="black" points="11,-168.5 11,-187.5 103,-187.5 103,-168.5 11,-168.5"/>
<text text-anchor="middle" x="57" y="-175.5" font-family="Helvetica,sans-Serif" font-size="10.00">s2s_rescorer.cpp</text>
</a>
</g>
</g>
<!-- Node4&#45;&gt;Node5 -->
<g id="edge4" class="edge"><title>Node4&#45;&gt;Node5</title>
<path fill="none" stroke="midnightblue" d="M519.76,-512.635C420.274,-511.179 150.405,-503.932 70,-468 31.2388,-450.678 0,-445.455 0,-403 0,-403 0,-403 0,-289 0,-247.058 33.0723,-205.188 48.8333,-187.616"/>
<polygon fill="midnightblue" stroke="midnightblue" points="519.893,-516.137 529.939,-512.773 519.987,-509.138 519.893,-516.137"/>
</g>
<!-- Node6 -->
<g id="node6" class="node"><title>Node6</title>
<g id="a_node6"><a xlink:href="../../df/df1/s2s__translator_8cpp.html" target="_top" xlink:title="s2s_translator.cpp">
<polygon fill="white" stroke="black" points="457.5,-168.5 457.5,-187.5 554.5,-187.5 554.5,-168.5 457.5,-168.5"/>
<text text-anchor="middle" x="506" y="-175.5" font-family="Helvetica,sans-Serif" font-size="10.00">s2s_translator.cpp</text>
</a>
</g>
</g>
<!-- Node4&#45;&gt;Node6 -->
<g id="edge5" class="edge"><title>Node4&#45;&gt;Node6</title>
<path fill="none" stroke="midnightblue" d="M594.148,-506.15C644.174,-494.533 727,-465.816 727,-403 727,-403 727,-403 727,-289 727,-244.553 689.915,-245.474 651,-224 618.922,-206.299 578.931,-194.554 549.076,-187.515"/>
<polygon fill="midnightblue" stroke="midnightblue" points="593.328,-502.746 584.313,-508.312 594.832,-509.583 593.328,-502.746"/>
</g>
<!-- Node7 -->
<g id="node7" class="node"><title>Node7</title>
<g id="a_node7"><a xlink:href="../../dc/df8/iris_8cpp.html" target="_top" xlink:title="iris.cpp">
<polygon fill="white" stroke="black" points="755,-448.5 755,-467.5 803,-467.5 803,-448.5 755,-448.5"/>
<text text-anchor="middle" x="779" y="-455.5" font-family="Helvetica,sans-Serif" font-size="10.00">iris.cpp</text>
</a>
</g>
</g>
<!-- Node4&#45;&gt;Node7 -->
<g id="edge6" class="edge"><title>Node4&#45;&gt;Node7</title>
<path fill="none" stroke="midnightblue" d="M594.04,-503.99C639.768,-492.867 716.225,-474.27 754.952,-464.85"/>
<polygon fill="midnightblue" stroke="midnightblue" points="593.111,-500.614 584.222,-506.379 594.765,-507.416 593.111,-500.614"/>
</g>
<!-- Node8 -->
<g id="node8" class="node"><title>Node8</title>
<g id="a_node8"><a xlink:href="../../d6/d95/encdec_8h.html" target="_top" xlink:title="encdec.h">
<polygon fill="white" stroke="black" points="529,-448.5 529,-467.5 585,-467.5 585,-448.5 529,-448.5"/>
<text text-anchor="middle" x="557" y="-455.5" font-family="Helvetica,sans-Serif" font-size="10.00">encdec.h</text>
</a>
</g>
</g>
<!-- Node4&#45;&gt;Node8 -->
<g id="edge7" class="edge"><title>Node4&#45;&gt;Node8</title>
<path fill="none" stroke="midnightblue" d="M550.528,-494.101C549.896,-485.136 550.343,-474.858 551.869,-467.751"/>
<polygon fill="midnightblue" stroke="midnightblue" points="547.066,-494.622 551.834,-504.083 554.007,-493.713 547.066,-494.622"/>
</g>
<!-- Node10 -->
<g id="node10" class="node"><title>Node10</title>
<g id="a_node10"><a xlink:href="../../d2/dbf/amun_8h.html" target="_top" xlink:title="amun.h">
<polygon fill="white" stroke="black" points="222.5,-336.5 222.5,-355.5 271.5,-355.5 271.5,-336.5 222.5,-336.5"/>
<text text-anchor="middle" x="247" y="-343.5" font-family="Helvetica,sans-Serif" font-size="10.00">amun.h</text>
</a>
</g>
</g>
<!-- Node4&#45;&gt;Node10 -->
<g id="edge10" class="edge"><title>Node4&#45;&gt;Node10</title>
<path fill="none" stroke="midnightblue" d="M519.867,-510.045C425.355,-501.661 179.845,-474.191 133,-412 107.093,-377.606 181.576,-358.568 222.338,-350.959"/>
<polygon fill="midnightblue" stroke="midnightblue" points="519.576,-513.533 529.841,-510.908 520.18,-506.559 519.576,-513.533"/>
</g>
<!-- Node13 -->
<g id="node13" class="node"><title>Node13</title>
<g id="a_node13"><a xlink:href="../../de/d5d/rescorer_8h.html" target="_top" xlink:title="rescorer.h">
<polygon fill="white" stroke="black" points="84,-224.5 84,-243.5 144,-243.5 144,-224.5 84,-224.5"/>
<text text-anchor="middle" x="114" y="-231.5" font-family="Helvetica,sans-Serif" font-size="10.00">rescorer.h</text>
</a>
</g>
</g>
<!-- Node4&#45;&gt;Node13 -->
<g id="edge49" class="edge"><title>Node4&#45;&gt;Node13</title>
<path fill="none" stroke="midnightblue" d="M519.742,-513.048C400.809,-512.209 38,-501.572 38,-403 38,-403 38,-403 38,-345 38,-300.201 81.1965,-260.429 102.457,-243.567"/>
<polygon fill="midnightblue" stroke="midnightblue" points="519.809,-516.548 529.827,-513.099 519.845,-509.548 519.809,-516.548"/>
</g>
<!-- Node17 -->
<g id="node17" class="node"><title>Node17</title>
<g id="a_node17"><a xlink:href="../../d2/d00/scorers_8h.html" target="_top" xlink:title="scorers.h">
<polygon fill="white" stroke="black" points="470.5,-280.5 470.5,-299.5 527.5,-299.5 527.5,-280.5 470.5,-280.5"/>
<text text-anchor="middle" x="499" y="-287.5" font-family="Helvetica,sans-Serif" font-size="10.00">scorers.h</text>
</a>
</g>
</g>
<!-- Node4&#45;&gt;Node17 -->
<g id="edge51" class="edge"><title>Node4&#45;&gt;Node17</title>
<path fill="none" stroke="midnightblue" d="M582.427,-499.002C593.592,-491.403 605.599,-480.908 612,-468 627.012,-437.729 627.934,-422.783 614,-392 593.728,-347.216 542.699,-314.413 515.953,-299.663"/>
<polygon fill="midnightblue" stroke="midnightblue" points="580.362,-496.166 573.776,-504.465 584.1,-502.085 580.362,-496.166"/>
</g>
<!-- Node18 -->
<g id="node18" class="node"><title>Node18</title>
<g id="a_node18"><a xlink:href="../../d3/ddc/beam__search_8h.html" target="_top" xlink:title="beam_search.h">
<polygon fill="white" stroke="black" points="559.5,-224.5 559.5,-243.5 642.5,-243.5 642.5,-224.5 559.5,-224.5"/>
<text text-anchor="middle" x="601" y="-231.5" font-family="Helvetica,sans-Serif" font-size="10.00">beam_search.h</text>
</a>
</g>
</g>
<!-- Node4&#45;&gt;Node18 -->
<g id="edge50" class="edge"><title>Node4&#45;&gt;Node18</title>
<path fill="none" stroke="midnightblue" d="M592.901,-500.776C631.988,-484.919 689,-453.188 689,-403 689,-403 689,-403 689,-345 689,-298.288 640.014,-260.047 615.139,-243.639"/>
<polygon fill="midnightblue" stroke="midnightblue" points="591.45,-497.585 583.395,-504.467 593.984,-504.11 591.45,-497.585"/>
</g>
<!-- Node22 -->
<g id="node22" class="node"><title>Node22</title>
<g id="a_node22"><a xlink:href="../../d7/d82/hardatt_8h.html" target="_top" xlink:title="hardatt.h">
<polygon fill="white" stroke="black" points="417.5,-336.5 417.5,-355.5 472.5,-355.5 472.5,-336.5 417.5,-336.5"/>
<text text-anchor="middle" x="445" y="-343.5" font-family="Helvetica,sans-Serif" font-size="10.00">hardatt.h</text>
</a>
</g>
</g>
<!-- Node4&#45;&gt;Node22 -->
<g id="edge33" class="edge"><title>Node4&#45;&gt;Node22</title>
<path fill="none" stroke="midnightblue" d="M574.64,-497.152C582.143,-489.231 590.059,-478.997 594,-468 605.394,-436.202 614.138,-419.118 594,-392 566.049,-354.36 507.545,-347.07 472.741,-346.281"/>
<polygon fill="midnightblue" stroke="midnightblue" points="572.108,-494.734 567.438,-504.245 577.019,-499.722 572.108,-494.734"/>
</g>
<!-- Node23 -->
<g id="node23" class="node"><title>Node23</title>
<g id="a_node23"><a xlink:href="../../d5/dde/multi__s2s_8h.html" target="_top" xlink:title="multi_s2s.h">
<polygon fill="white" stroke="black" points="405.5,-392.5 405.5,-411.5 472.5,-411.5 472.5,-392.5 405.5,-392.5"/>
<text text-anchor="middle" x="439" y="-399.5" font-family="Helvetica,sans-Serif" font-size="10.00">multi_s2s.h</text>
</a>
</g>
</g>
<!-- Node4&#45;&gt;Node23 -->
<g id="edge36" class="edge"><title>Node4&#45;&gt;Node23</title>
<path fill="none" stroke="midnightblue" d="M540.385,-497.512C515.171,-474.007 468.081,-430.11 448.216,-411.591"/>
<polygon fill="midnightblue" stroke="midnightblue" points="538.039,-500.11 547.741,-504.368 542.813,-494.99 538.039,-500.11"/>
</g>
<!-- Node24 -->
<g id="node24" class="node"><title>Node24</title>
<g id="a_node24"><a xlink:href="../../da/da6/s2s_8h.html" target="_top" xlink:title="s2s.h">
<polygon fill="white" stroke="black" points="337.5,-448.5 337.5,-467.5 378.5,-467.5 378.5,-448.5 337.5,-448.5"/>
<text text-anchor="middle" x="358" y="-455.5" font-family="Helvetica,sans-Serif" font-size="10.00">s2s.h</text>
</a>
</g>
</g>
<!-- Node4&#45;&gt;Node24 -->
<g id="edge40" class="edge"><title>Node4&#45;&gt;Node24</title>
<path fill="none" stroke="midnightblue" d="M519.962,-502.949C478.244,-491.629 411.929,-473.634 378.58,-464.584"/>
<polygon fill="midnightblue" stroke="midnightblue" points="519.18,-506.364 529.747,-505.605 521.013,-499.608 519.18,-506.364"/>
</g>
<!-- Node8&#45;&gt;Node4 -->
<g id="edge8" class="edge"><title>Node8&#45;&gt;Node4</title>
<path fill="none" stroke="midnightblue" d="M563.458,-477.691C564.106,-486.635 563.676,-496.927 562.166,-504.083"/>
<polygon fill="midnightblue" stroke="midnightblue" points="566.923,-477.2 562.131,-467.751 559.985,-478.126 566.923,-477.2"/>
</g>
<!-- Node9 -->
<g id="node9" class="node"><title>Node9</title>
<g id="a_node9"><a xlink:href="../../d6/d50/pooling_8h.html" target="_top" xlink:title="pooling.h">
<polygon fill="white" stroke="black" points="529,-392.5 529,-411.5 585,-411.5 585,-392.5 529,-392.5"/>
<text text-anchor="middle" x="557" y="-399.5" font-family="Helvetica,sans-Serif" font-size="10.00">pooling.h</text>
</a>
</g>
</g>
<!-- Node8&#45;&gt;Node9 -->
<g id="edge9" class="edge"><title>Node8&#45;&gt;Node9</title>
<path fill="none" stroke="midnightblue" d="M557,-437.805C557,-428.91 557,-418.78 557,-411.751"/>
<polygon fill="midnightblue" stroke="midnightblue" points="553.5,-438.083 557,-448.083 560.5,-438.083 553.5,-438.083"/>
</g>
<!-- Node11 -->
<g id="node11" class="node"><title>Node11</title>
<g id="a_node11"><a xlink:href="../../d1/dd1/model__task_8h.html" target="_top" xlink:title="model_task.h">
<polygon fill="white" stroke="black" points="299.5,-280.5 299.5,-299.5 374.5,-299.5 374.5,-280.5 299.5,-280.5"/>
<text text-anchor="middle" x="337" y="-287.5" font-family="Helvetica,sans-Serif" font-size="10.00">model_task.h</text>
</a>
</g>
</g>
<!-- Node10&#45;&gt;Node11 -->
<g id="edge11" class="edge"><title>Node10&#45;&gt;Node11</title>
<path fill="none" stroke="midnightblue" d="M270.038,-331.177C286.599,-321.241 308.418,-308.149 322.576,-299.655"/>
<polygon fill="midnightblue" stroke="midnightblue" points="268.234,-328.178 261.46,-336.324 271.836,-334.18 268.234,-328.178"/>
</g>
<!-- Node10&#45;&gt;Node13 -->
<g id="edge19" class="edge"><title>Node10&#45;&gt;Node13</title>
<path fill="none" stroke="midnightblue" d="M228.641,-329.816C200.314,-306.387 146.875,-262.19 124.388,-243.591"/>
<polygon fill="midnightblue" stroke="midnightblue" points="226.627,-332.692 236.564,-336.368 231.088,-327.298 226.627,-332.692"/>
</g>
<!-- Node10&#45;&gt;Node17 -->
<g id="edge20" class="edge"><title>Node10&#45;&gt;Node17</title>
<path fill="none" stroke="midnightblue" d="M281.67,-337.571C331.882,-326.811 423.909,-307.091 470.444,-297.119"/>
<polygon fill="midnightblue" stroke="midnightblue" points="280.666,-334.206 271.622,-339.724 282.133,-341.051 280.666,-334.206"/>
</g>
<!-- Node12 -->
<g id="node12" class="node"><title>Node12</title>
<g id="a_node12"><a xlink:href="../../d2/d10/examples_2mnist_2training_8h.html" target="_top" xlink:title="training.h">
<polygon fill="white" stroke="black" points="354,-56.5 354,-75.5 410,-75.5 410,-56.5 354,-56.5"/>
<text text-anchor="middle" x="382" y="-63.5" font-family="Helvetica,sans-Serif" font-size="10.00">training.h</text>
</a>
</g>
</g>
<!-- Node11&#45;&gt;Node12 -->
<g id="edge12" class="edge"><title>Node11&#45;&gt;Node12</title>
<path fill="none" stroke="midnightblue" d="M333.503,-270.411C328.117,-237.227 320.515,-166.195 342,-112 347.933,-97.0358 361.203,-83.7909 370.835,-75.612"/>
<polygon fill="midnightblue" stroke="midnightblue" points="330.093,-271.233 335.264,-280.48 336.989,-270.027 330.093,-271.233"/>
</g>
<!-- Node11&#45;&gt;Node13 -->
<g id="edge13" class="edge"><title>Node11&#45;&gt;Node13</title>
<path fill="none" stroke="midnightblue" d="M291.799,-278.055C247.796,-267.399 182.161,-251.505 144.164,-242.304"/>
<polygon fill="midnightblue" stroke="midnightblue" points="291.122,-281.492 301.665,-280.444 292.77,-274.688 291.122,-281.492"/>
</g>
<!-- Node14 -->
<g id="node14" class="node"><title>Node14</title>
<g id="a_node14"><a xlink:href="../../df/d43/training_2training_8h.html" target="_top" xlink:title="training.h">
<polygon fill="white" stroke="black" points="499,-56.5 499,-75.5 555,-75.5 555,-56.5 499,-56.5"/>
<text text-anchor="middle" x="527" y="-63.5" font-family="Helvetica,sans-Serif" font-size="10.00">training.h</text>
</a>
</g>
</g>
<!-- Node11&#45;&gt;Node14 -->
<g id="edge15" class="edge"><title>Node11&#45;&gt;Node14</title>
<path fill="none" stroke="midnightblue" d="M349.802,-272.284C369.247,-247.584 408.19,-200.734 448,-168 471.727,-148.49 488.149,-156.254 507,-132 520.187,-115.034 524.732,-89.3383 526.258,-75.9008"/>
<polygon fill="midnightblue" stroke="midnightblue" points="346.933,-270.273 343.555,-280.315 352.458,-274.571 346.933,-270.273"/>
</g>
<!-- Node16 -->
<g id="node16" class="node"><title>Node16</title>
<g id="a_node16"><a xlink:href="../../d9/df1/translator_8h.html" target="_top" xlink:title="translator.h">
<polygon fill="white" stroke="black" points="466.5,-224.5 466.5,-243.5 531.5,-243.5 531.5,-224.5 466.5,-224.5"/>
<text text-anchor="middle" x="499" y="-231.5" font-family="Helvetica,sans-Serif" font-size="10.00">translator.h</text>
</a>
</g>
</g>
<!-- Node11&#45;&gt;Node16 -->
<g id="edge17" class="edge"><title>Node11&#45;&gt;Node16</title>
<path fill="none" stroke="midnightblue" d="M372.484,-277.172C402.988,-267.004 446.245,-252.585 473.451,-243.516"/>
<polygon fill="midnightblue" stroke="midnightblue" points="371.049,-273.961 362.669,-280.444 373.263,-280.602 371.049,-273.961"/>
</g>
<!-- Node13&#45;&gt;Node5 -->
<g id="edge14" class="edge"><title>Node13&#45;&gt;Node5</title>
<path fill="none" stroke="midnightblue" d="M97.3785,-217.253C87.266,-207.673 74.7234,-195.791 66.3247,-187.834"/>
<polygon fill="midnightblue" stroke="midnightblue" points="95.1753,-219.987 104.842,-224.324 99.9895,-214.906 95.1753,-219.987"/>
</g>
<!-- Node15 -->
<g id="node15" class="node"><title>Node15</title>
<g id="a_node15"><a xlink:href="../../d8/d9d/graph__group_8h.html" target="_top" xlink:title="graph_group.h">
<polygon fill="white" stroke="black" points="488,-0.5 488,-19.5 566,-19.5 566,-0.5 488,-0.5"/>
<text text-anchor="middle" x="527" y="-7.5" font-family="Helvetica,sans-Serif" font-size="10.00">graph_group.h</text>
</a>
</g>
</g>
<!-- Node14&#45;&gt;Node15 -->
<g id="edge16" class="edge"><title>Node14&#45;&gt;Node15</title>
<path fill="none" stroke="midnightblue" d="M527,-45.8045C527,-36.9102 527,-26.7798 527,-19.7511"/>
<polygon fill="midnightblue" stroke="midnightblue" points="523.5,-46.083 527,-56.083 530.5,-46.083 523.5,-46.083"/>
</g>
<!-- Node16&#45;&gt;Node6 -->
<g id="edge18" class="edge"><title>Node16&#45;&gt;Node6</title>
<path fill="none" stroke="midnightblue" d="M501.45,-214.101C502.612,-205.136 503.944,-194.858 504.866,-187.751"/>
<polygon fill="midnightblue" stroke="midnightblue" points="497.971,-213.716 500.156,-224.083 504.912,-214.616 497.971,-213.716"/>
</g>
<!-- Node17&#45;&gt;Node16 -->
<g id="edge32" class="edge"><title>Node17&#45;&gt;Node16</title>
<path fill="none" stroke="midnightblue" d="M499,-269.805C499,-260.91 499,-250.78 499,-243.751"/>
<polygon fill="midnightblue" stroke="midnightblue" points="495.5,-270.083 499,-280.083 502.5,-270.083 495.5,-270.083"/>
</g>
<!-- Node17&#45;&gt;Node18 -->
<g id="edge21" class="edge"><title>Node17&#45;&gt;Node18</title>
<path fill="none" stroke="midnightblue" d="M524.331,-275.59C543.19,-265.605 568.384,-252.267 584.653,-243.655"/>
<polygon fill="midnightblue" stroke="midnightblue" points="522.588,-272.552 515.388,-280.324 525.864,-278.738 522.588,-272.552"/>
</g>
<!-- Node18&#45;&gt;Node6 -->
<g id="edge22" class="edge"><title>Node18&#45;&gt;Node6</title>
<path fill="none" stroke="midnightblue" d="M576.682,-219.177C559.201,-209.241 536.17,-196.149 521.226,-187.655"/>
<polygon fill="midnightblue" stroke="midnightblue" points="575.313,-222.425 585.737,-224.324 578.773,-216.339 575.313,-222.425"/>
</g>
<!-- Node19 -->
<g id="node19" class="node"><title>Node19</title>
<g id="a_node19"><a xlink:href="../../d7/d7d/training_2validator_8h.html" target="_top" xlink:title="validator.h">
<polygon fill="white" stroke="black" points="572,-168.5 572,-187.5 634,-187.5 634,-168.5 572,-168.5"/>
<text text-anchor="middle" x="603" y="-175.5" font-family="Helvetica,sans-Serif" font-size="10.00">validator.h</text>
</a>
</g>
</g>
<!-- Node18&#45;&gt;Node19 -->
<g id="edge23" class="edge"><title>Node18&#45;&gt;Node19</title>
<path fill="none" stroke="midnightblue" d="M601.711,-213.805C602.04,-204.91 602.416,-194.78 602.676,-187.751"/>
<polygon fill="midnightblue" stroke="midnightblue" points="598.203,-213.96 601.33,-224.083 605.198,-214.219 598.203,-213.96"/>
</g>
<!-- Node19&#45;&gt;Node14 -->
<g id="edge31" class="edge"><title>Node19&#45;&gt;Node14</title>
<path fill="none" stroke="midnightblue" d="M591.225,-159.957C574.755,-136.118 545.453,-93.7088 532.936,-75.5914"/>
<polygon fill="midnightblue" stroke="midnightblue" points="588.472,-162.131 597.036,-168.368 594.232,-158.152 588.472,-162.131"/>
</g>
<!-- Node19&#45;&gt;Node15 -->
<g id="edge26" class="edge"><title>Node19&#45;&gt;Node15</title>
<path fill="none" stroke="midnightblue" d="M599.262,-158.245C593.862,-133.683 582.451,-89.7772 564,-56 556.339,-41.9756 544.04,-28.1211 535.747,-19.569"/>
<polygon fill="midnightblue" stroke="midnightblue" points="595.901,-159.274 601.379,-168.343 602.752,-157.837 595.901,-159.274"/>
</g>
<!-- Node20 -->
<g id="node20" class="node"><title>Node20</title>
<g id="a_node20"><a xlink:href="../../da/d8c/examples_2mnist_2validator_8h.html" target="_top" xlink:title="validator.h">
<polygon fill="white" stroke="black" points="351,-112.5 351,-131.5 413,-131.5 413,-112.5 351,-112.5"/>
<text text-anchor="middle" x="382" y="-119.5" font-family="Helvetica,sans-Serif" font-size="10.00">validator.h</text>
</a>
</g>
</g>
<!-- Node19&#45;&gt;Node20 -->
<g id="edge24" class="edge"><title>Node19&#45;&gt;Node20</title>
<path fill="none" stroke="midnightblue" d="M561.916,-166.961C518.79,-156.424 451.954,-140.093 413.036,-130.584"/>
<polygon fill="midnightblue" stroke="midnightblue" points="561.26,-170.404 571.805,-169.378 562.921,-163.604 561.26,-170.404"/>
</g>
<!-- Node21 -->
<g id="node21" class="node"><title>Node21</title>
<g id="a_node21"><a xlink:href="../../d2/dd8/scheduler_8h.html" target="_top" xlink:title="scheduler.h">
<polygon fill="white" stroke="black" points="431.5,-112.5 431.5,-131.5 498.5,-131.5 498.5,-112.5 431.5,-112.5"/>
<text text-anchor="middle" x="465" y="-119.5" font-family="Helvetica,sans-Serif" font-size="10.00">scheduler.h</text>
</a>
</g>
</g>
<!-- Node19&#45;&gt;Node21 -->
<g id="edge27" class="edge"><title>Node19&#45;&gt;Node21</title>
<path fill="none" stroke="midnightblue" d="M571.751,-164.772C545.829,-154.629 509.638,-140.467 486.764,-131.516"/>
<polygon fill="midnightblue" stroke="midnightblue" points="570.546,-168.059 581.133,-168.444 573.096,-161.54 570.546,-168.059"/>
</g>
<!-- Node20&#45;&gt;Node12 -->
<g id="edge25" class="edge"><title>Node20&#45;&gt;Node12</title>
<path fill="none" stroke="midnightblue" d="M382,-101.805C382,-92.9102 382,-82.7798 382,-75.7511"/>
<polygon fill="midnightblue" stroke="midnightblue" points="378.5,-102.083 382,-112.083 385.5,-102.083 378.5,-102.083"/>
</g>
<!-- Node21&#45;&gt;Node12 -->
<g id="edge28" class="edge"><title>Node21&#45;&gt;Node12</title>
<path fill="none" stroke="midnightblue" d="M442.901,-106.622C427.738,-96.7574 408.117,-83.9919 395.302,-75.6545"/>
<polygon fill="midnightblue" stroke="midnightblue" points="441.374,-109.804 451.665,-112.324 445.191,-103.937 441.374,-109.804"/>
</g>
<!-- Node21&#45;&gt;Node14 -->
<g id="edge30" class="edge"><title>Node21&#45;&gt;Node14</title>
<path fill="none" stroke="midnightblue" d="M482.754,-105.537C493.808,-95.9087 507.631,-83.8694 516.857,-75.8339"/>
<polygon fill="midnightblue" stroke="midnightblue" points="480.203,-103.117 474.961,-112.324 484.801,-108.395 480.203,-103.117"/>
</g>
<!-- Node21&#45;&gt;Node15 -->
<g id="edge29" class="edge"><title>Node21&#45;&gt;Node15</title>
<path fill="none" stroke="midnightblue" d="M470.44,-102.244C474.74,-88.8546 481.439,-70.6899 490,-56 498.046,-42.193 510.255,-28.2876 518.422,-19.6646"/>
<polygon fill="midnightblue" stroke="midnightblue" points="466.977,-101.601 467.405,-112.187 473.672,-103.645 466.977,-101.601"/>
</g>
<!-- Node22&#45;&gt;Node11 -->
<g id="edge34" class="edge"><title>Node22&#45;&gt;Node11</title>
<path fill="none" stroke="midnightblue" d="M418.452,-331.726C398.454,-321.727 371.613,-308.307 354.309,-299.655"/>
<polygon fill="midnightblue" stroke="midnightblue" points="417.138,-334.982 427.648,-336.324 420.269,-328.721 417.138,-334.982"/>
</g>
<!-- Node22&#45;&gt;Node17 -->
<g id="edge35" class="edge"><title>Node22&#45;&gt;Node17</title>
<path fill="none" stroke="midnightblue" d="M460.998,-329.002C470.567,-319.433 482.361,-307.639 490.249,-299.751"/>
<polygon fill="midnightblue" stroke="midnightblue" points="458.513,-326.537 453.917,-336.083 463.463,-331.487 458.513,-326.537"/>
</g>
<!-- Node23&#45;&gt;Node11 -->
<g id="edge38" class="edge"><title>Node23&#45;&gt;Node11</title>
<path fill="none" stroke="midnightblue" d="M424.068,-384.897C402.14,-361.249 361.989,-317.949 344.967,-299.591"/>
<polygon fill="midnightblue" stroke="midnightblue" points="421.63,-387.416 430.996,-392.368 426.763,-382.656 421.63,-387.416"/>
</g>
<!-- Node23&#45;&gt;Node17 -->
<g id="edge39" class="edge"><title>Node23&#45;&gt;Node17</title>
<path fill="none" stroke="midnightblue" d="M422.144,-384.737C410.296,-371.264 398.167,-351.831 408,-336 421.483,-314.291 448.887,-302.737 470.116,-296.8"/>
<polygon fill="midnightblue" stroke="midnightblue" points="419.866,-387.421 429.286,-392.27 424.946,-382.605 419.866,-387.421"/>
</g>
<!-- Node23&#45;&gt;Node22 -->
<g id="edge37" class="edge"><title>Node23&#45;&gt;Node22</title>
<path fill="none" stroke="midnightblue" d="M441.1,-382.101C442.096,-373.136 443.238,-362.858 444.028,-355.751"/>
<polygon fill="midnightblue" stroke="midnightblue" points="437.617,-381.758 439.991,-392.083 444.574,-382.531 437.617,-381.758"/>
</g>
<!-- Node24&#45;&gt;Node9 -->
<g id="edge42" class="edge"><title>Node24&#45;&gt;Node9</title>
<path fill="none" stroke="midnightblue" d="M388.589,-448.699C426.87,-438.312 491.891,-420.668 528.945,-410.613"/>
<polygon fill="midnightblue" stroke="midnightblue" points="387.281,-445.428 378.547,-451.424 389.115,-452.183 387.281,-445.428"/>
</g>
<!-- Node24&#45;&gt;Node10 -->
<g id="edge41" class="edge"><title>Node24&#45;&gt;Node10</title>
<path fill="none" stroke="midnightblue" d="M330.195,-443.666C315.834,-435.838 298.708,-424.941 286,-412 269.218,-394.911 256.586,-369.267 250.686,-355.87"/>
<polygon fill="midnightblue" stroke="midnightblue" points="328.675,-446.822 339.158,-448.358 331.921,-440.62 328.675,-446.822"/>
</g>
<!-- Node24&#45;&gt;Node11 -->
<g id="edge45" class="edge"><title>Node24&#45;&gt;Node11</title>
<path fill="none" stroke="midnightblue" d="M339.424,-441.324C331.52,-433.44 323.173,-423.188 319,-412 304.006,-371.805 323.881,-319.706 332.934,-299.515"/>
<polygon fill="midnightblue" stroke="midnightblue" points="337.299,-444.128 347.01,-448.365 342.062,-438.997 337.299,-444.128"/>
</g>
<!-- Node24&#45;&gt;Node13 -->
<g id="edge47" class="edge"><title>Node24&#45;&gt;Node13</title>
<path fill="none" stroke="midnightblue" d="M327.03,-455.218C271.571,-451.343 158.691,-440.126 133,-412 88.3956,-363.167 105.087,-272.29 111.765,-243.786"/>
<polygon fill="midnightblue" stroke="midnightblue" points="327.104,-458.73 337.313,-455.898 327.566,-451.746 327.104,-458.73"/>
</g>
<!-- Node24&#45;&gt;Node17 -->
<g id="edge48" class="edge"><title>Node24&#45;&gt;Node17</title>
<path fill="none" stroke="midnightblue" d="M388.866,-454.427C417.32,-450.321 458.452,-439.663 481,-412 508.373,-378.417 503.551,-321.521 500.462,-299.792"/>
<polygon fill="midnightblue" stroke="midnightblue" points="388.136,-450.99 378.646,-455.701 389.002,-457.937 388.136,-450.99"/>
</g>
<!-- Node24&#45;&gt;Node23 -->
<g id="edge46" class="edge"><title>Node24&#45;&gt;Node23</title>
<path fill="none" stroke="midnightblue" d="M379.567,-442.622C394.364,-432.757 413.512,-419.992 426.018,-411.655"/>
<polygon fill="midnightblue" stroke="midnightblue" points="377.393,-439.865 371.014,-448.324 381.276,-445.689 377.393,-439.865"/>
</g>
<!-- Node25 -->
<g id="node25" class="node"><title>Node25</title>
<g id="a_node25"><a xlink:href="../../d8/d64/s2s__rec_8h.html" target="_top" xlink:title="s2s_rec.h">
<polygon fill="white" stroke="black" points="328.5,-392.5 328.5,-411.5 387.5,-411.5 387.5,-392.5 328.5,-392.5"/>
<text text-anchor="middle" x="358" y="-399.5" font-family="Helvetica,sans-Serif" font-size="10.00">s2s_rec.h</text>
</a>
</g>
</g>
<!-- Node24&#45;&gt;Node25 -->
<g id="edge43" class="edge"><title>Node24&#45;&gt;Node25</title>
<path fill="none" stroke="midnightblue" d="M358,-437.805C358,-428.91 358,-418.78 358,-411.751"/>
<polygon fill="midnightblue" stroke="midnightblue" points="354.5,-438.083 358,-448.083 361.5,-438.083 354.5,-438.083"/>
</g>
<!-- Node26 -->
<g id="node26" class="node"><title>Node26</title>
<g id="a_node26"><a xlink:href="../../d0/d19/s2s__symmetric_8h.html" target="_top" xlink:title="s2s_symmetric.h">
<polygon fill="white" stroke="black" points="142,-392.5 142,-411.5 234,-411.5 234,-392.5 142,-392.5"/>
<text text-anchor="middle" x="188" y="-399.5" font-family="Helvetica,sans-Serif" font-size="10.00">s2s_symmetric.h</text>
</a>
</g>
</g>
<!-- Node24&#45;&gt;Node26 -->
<g id="edge44" class="edge"><title>Node24&#45;&gt;Node26</title>
<path fill="none" stroke="midnightblue" d="M327.788,-447.403C295.793,-437.24 245.751,-421.345 215.023,-411.584"/>
<polygon fill="midnightblue" stroke="midnightblue" points="326.904,-450.795 337.494,-450.486 329.023,-444.123 326.904,-450.795"/>
</g>
<!-- Node28 -->
<g id="node28" class="node"><title>Node28</title>
<g id="a_node28"><a xlink:href="../../df/d25/lenet__mnist_8h.html" target="_top" xlink:title="lenet_mnist.h">
<polygon fill="white" stroke="black" points="266.5,-616.5 266.5,-635.5 341.5,-635.5 341.5,-616.5 266.5,-616.5"/>
<text text-anchor="middle" x="304" y="-623.5" font-family="Helvetica,sans-Serif" font-size="10.00">lenet_mnist.h</text>
</a>
</g>
</g>
<!-- Node27&#45;&gt;Node28 -->
<g id="edge53" class="edge"><title>Node27&#45;&gt;Node28</title>
<path fill="none" stroke="midnightblue" d="M304.645,-661.805C304.48,-652.91 304.292,-642.78 304.162,-635.751"/>
<polygon fill="midnightblue" stroke="midnightblue" points="301.15,-662.15 304.835,-672.083 308.149,-662.02 301.15,-662.15"/>
</g>
<!-- Node29&#45;&gt;Node4 -->
<g id="edge55" class="edge"><title>Node29&#45;&gt;Node4</title>
<path fill="none" stroke="midnightblue" d="M475.548,-555.726C495.546,-545.727 522.387,-532.307 539.691,-523.655"/>
<polygon fill="midnightblue" stroke="midnightblue" points="473.731,-552.721 466.352,-560.324 476.862,-558.982 473.731,-552.721"/>
</g>
<!-- Node31&#45;&gt;Node4 -->
<g id="edge64" class="edge"><title>Node31&#45;&gt;Node4</title>
<path fill="none" stroke="midnightblue" d="M696.296,-663.151C708.132,-637.665 724.511,-590.556 702,-560 674.876,-523.181 617.915,-515.6 584.02,-514.537"/>
<polygon fill="midnightblue" stroke="midnightblue" points="693.042,-661.835 691.776,-672.354 699.326,-664.921 693.042,-661.835"/>
</g>
<!-- Node32 -->
<g id="node32" class="node"><title>Node32</title>
<g id="a_node32"><a xlink:href="../../de/d06/factory_8h.html" target="_top" xlink:title="factory.h">
<polygon fill="white" stroke="black" points="536.5,-616.5 536.5,-635.5 591.5,-635.5 591.5,-616.5 536.5,-616.5"/>
<text text-anchor="middle" x="564" y="-623.5" font-family="Helvetica,sans-Serif" font-size="10.00">factory.h</text>
</a>
</g>
</g>
<!-- Node31&#45;&gt;Node32 -->
<g id="edge59" class="edge"><title>Node31&#45;&gt;Node32</title>
<path fill="none" stroke="midnightblue" d="M658.511,-668.493C635.488,-658.385 603.695,-644.427 583.49,-635.556"/>
<polygon fill="midnightblue" stroke="midnightblue" points="657.218,-671.747 667.781,-672.562 660.032,-665.338 657.218,-671.747"/>
</g>
<!-- Node33 -->
<g id="node33" class="node"><title>Node33</title>
<g id="a_node33"><a xlink:href="../../d7/d3a/rnn_2constructors_8h.html" target="_top" xlink:title="constructors.h">
<polygon fill="white" stroke="black" points="614.5,-560.5 614.5,-579.5 693.5,-579.5 693.5,-560.5 614.5,-560.5"/>
<text text-anchor="middle" x="654" y="-567.5" font-family="Helvetica,sans-Serif" font-size="10.00">constructors.h</text>
</a>
</g>
</g>
<!-- Node31&#45;&gt;Node33 -->
<g id="edge65" class="edge"><title>Node31&#45;&gt;Node33</title>
<path fill="none" stroke="midnightblue" d="M681.502,-662.674C674.287,-638.625 661.916,-597.388 656.577,-579.591"/>
<polygon fill="midnightblue" stroke="midnightblue" points="678.185,-663.796 684.411,-672.368 684.889,-661.784 678.185,-663.796"/>
</g>
<!-- Node31&#45;&gt;Node34 -->
<g id="edge66" class="edge"><title>Node31&#45;&gt;Node34</title>
<path fill="none" stroke="midnightblue" d="M665.368,-665.537C654.709,-655.909 643.01,-643.869 636.685,-635.834"/>
<polygon fill="midnightblue" stroke="midnightblue" points="663.357,-668.426 673.209,-672.324 667.938,-663.133 663.357,-668.426"/>
</g>
<!-- Node32&#45;&gt;Node2 -->
<g id="edge61" class="edge"><title>Node32&#45;&gt;Node2</title>
<path fill="none" stroke="midnightblue" d="M560.381,-645.859C557.292,-659.298 552.052,-677.48 544,-692 536.179,-706.104 523.408,-719.729 514.623,-728.222"/>
<polygon fill="midnightblue" stroke="midnightblue" points="563.849,-646.377 562.483,-635.871 556.999,-644.935 563.849,-646.377"/>
</g>
<!-- Node32&#45;&gt;Node3 -->
<g id="edge60" class="edge"><title>Node32&#45;&gt;Node3</title>
<path fill="none" stroke="midnightblue" d="M561.55,-606.101C560.388,-597.136 559.056,-586.858 558.134,-579.751"/>
<polygon fill="midnightblue" stroke="midnightblue" points="558.088,-606.616 562.844,-616.083 565.029,-605.716 558.088,-606.616"/>
</g>
<!-- Node32&#45;&gt;Node33 -->
<g id="edge62" class="edge"><title>Node32&#45;&gt;Node33</title>
<path fill="none" stroke="midnightblue" d="M587.038,-611.177C603.599,-601.241 625.418,-588.149 639.576,-579.655"/>
<polygon fill="midnightblue" stroke="midnightblue" points="585.234,-608.178 578.46,-616.324 588.836,-614.18 585.234,-608.178"/>
</g>
<!-- Node33&#45;&gt;Node4 -->
<g id="edge63" class="edge"><title>Node33&#45;&gt;Node4</title>
<path fill="none" stroke="midnightblue" d="M629.665,-555.453C611.757,-545.483 587.946,-532.228 572.546,-523.655"/>
<polygon fill="midnightblue" stroke="midnightblue" points="627.975,-558.518 638.415,-560.324 631.38,-552.402 627.975,-558.518"/>
</g>
<!-- Node34&#45;&gt;Node31 -->
<g id="edge67" class="edge"><title>Node34&#45;&gt;Node31</title>
<path fill="none" stroke="midnightblue" d="M654.69,-642.515C665.296,-652.101 676.921,-664.062 683.249,-672.083"/>
<polygon fill="midnightblue" stroke="midnightblue" points="656.732,-639.653 646.882,-635.751 652.149,-644.944 656.732,-639.653"/>
</g>
<!-- Node35&#45;&gt;Node4 -->
<g id="edge73" class="edge"><title>Node35&#45;&gt;Node4</title>
<path fill="none" stroke="midnightblue" d="M741.5,-718.472C748.888,-683.165 759.226,-605.701 721,-560 703.525,-539.108 626.055,-524.957 584.144,-518.681"/>
<polygon fill="midnightblue" stroke="midnightblue" points="738.056,-717.835 739.27,-728.36 744.884,-719.375 738.056,-717.835"/>
</g>
<!-- Node35&#45;&gt;Node31 -->
<g id="edge72" class="edge"><title>Node35&#45;&gt;Node31</title>
<path fill="none" stroke="midnightblue" d="M721.924,-720.718C713.111,-711.2 702.334,-699.561 695.103,-691.751"/>
<polygon fill="midnightblue" stroke="midnightblue" points="719.381,-723.123 728.744,-728.083 724.518,-718.367 719.381,-723.123"/>
</g>
</g>
</svg>
        <g id="navigator" transform="translate(0 0)" fill="#404254">
                <rect fill="#f2f5e9" fill-opacity="0.5" stroke="#606060" stroke-width=".5" x="0" y="0" width="60" height="60"/>
                <use id="zoomplus" xlink:href="#zoomPlus" x="17" y="9" onmousedown="handleZoom(evt,'in')"/>
                <use id="zoomminus" xlink:href="#zoomMin" x="42" y="9" onmousedown="handleZoom(evt,'out')"/>
                <use id="reset" xlink:href="#resetDef" x="30" y="36" onmousedown="handleReset()"/>
                <g id="arrowUp" xlink:href="#dirArrow" transform="translate(30 24)" onmousedown="handlePan(0,-1)">
                  <use xlink:href="#rim" fill="#404040">
                        <set attributeName="fill" to="#808080" begin="arrowUp.mouseover" end="arrowUp.mouseout"/>
                  </use>
                  <path fill="none" stroke="white" stroke-width="1.5" d="M0,-3.0v7 M-2.5,-0.5L0,-3.0L2.5,-0.5"/>
                </g>
                <g id="arrowRight" xlink:href="#dirArrow" transform="rotate(90) translate(36 -43)" onmousedown="handlePan(1,0)">
                  <use xlink:href="#rim" fill="#404040">
                        <set attributeName="fill" to="#808080" begin="arrowRight.mouseover" end="arrowRight.mouseout"/>
                  </use>
                  <path fill="none" stroke="white" stroke-width="1.5" d="M0,-3.0v7 M-2.5,-0.5L0,-3.0L2.5,-0.5"/>
                </g>
                <g id="arrowDown" xlink:href="#dirArrow" transform="rotate(180) translate(-30 -48)" onmousedown="handlePan(0,1)">
                  <use xlink:href="#rim" fill="#404040">
                        <set attributeName="fill" to="#808080" begin="arrowDown.mouseover" end="arrowDown.mouseout"/>
                  </use>
                  <path fill="none" stroke="white" stroke-width="1.5" d="M0,-3.0v7 M-2.5,-0.5L0,-3.0L2.5,-0.5"/>
                </g>
                <g id="arrowLeft" xlink:href="#dirArrow" transform="rotate(270) translate(-36 17)" onmousedown="handlePan(-1,0)">
                  <use xlink:href="#rim" fill="#404040">
                        <set attributeName="fill" to="#808080" begin="arrowLeft.mouseover" end="arrowLeft.mouseout"/>
                  </use>
                  <path fill="none" stroke="white" stroke-width="1.5" d="M0,-3.0v7 M-2.5,-0.5L0,-3.0L2.5,-0.5"/>
                </g>
        </g>
        <svg viewBox="0 0 15 15" width="100%" height="30px" preserveAspectRatio="xMaxYMin meet">
         <g id="arrow_out" transform="scale(0.3 0.3)">
          <a xlink:href="expression__operators_8h__dep__incl_org.svg" target="_base">
           <rect id="button" ry="5" rx="5" y="6" x="6" height="38" width="38"
                fill="#f2f5e9" fill-opacity="0.5" stroke="#606060" stroke-width="1.0"/>
           <path id="arrow"
             d="M 11.500037,31.436501 C 11.940474,20.09759 22.043105,11.32322 32.158766,21.979434 L 37.068811,17.246167 C 37.068811,17.246167 37.088388,32 37.088388,32 L 22.160133,31.978069 C 22.160133,31.978069 26.997745,27.140456 26.997745,27.140456 C 18.528582,18.264221 13.291696,25.230495 11.500037,31.436501 z"
             style="fill:#404040;"/>
          </a>
         </g>
        </svg>
</svg>
