<?xml version="1.0" encoding="UTF-8" standalone="no"?>
<!DOCTYPE svg PUBLIC "-//W3C//DTD SVG 1.1//EN"
 "http://www.w3.org/Graphics/SVG/1.1/DTD/svg11.dtd">
<!-- Generated by graphviz version 2.38.0 (20140413.2041)
 -->
<!-- Title: amunmt::BPE::Encode Pages: 1 -->
<svg width="468pt" height="192pt"
 viewBox="0.00 0.00 468.00 192.00" xmlns="http://www.w3.org/2000/svg" xmlns:xlink="http://www.w3.org/1999/xlink">
<g id="graph0" class="graph" transform="scale(1 1) rotate(0) translate(4 188)">
<title>amunmt::BPE::Encode</title>
<polygon fill="white" stroke="none" points="-4,4 -4,-188 464,-188 464,4 -4,4"/>
<!-- Node1 -->
<g id="node1" class="node"><title>Node1</title>
<polygon fill="#bfbfbf" stroke="black" points="0,-76.5 0,-95.5 117,-95.5 117,-76.5 0,-76.5"/>
<text text-anchor="middle" x="58.5" y="-83.5" font-family="Helvetica,sans-Serif" font-size="10.00">amunmt::BPE::Encode</text>
</g>
<!-- Node2 -->
<g id="node2" class="node"><title>Node2</title>
<g id="a_node2"><a xlink:href="$da/d75/classamunmt_1_1BPE.html#a31bddda15c8e822540612885885e3a3a" xlink:title="amunmt::BPE::Encode">
<polygon fill="white" stroke="black" points="153,-76.5 153,-95.5 270,-95.5 270,-76.5 153,-76.5"/>
<text text-anchor="middle" x="211.5" y="-83.5" font-family="Helvetica,sans-Serif" font-size="10.00">amunmt::BPE::Encode</text>
</a>
</g>
</g>
<!-- Node1&#45;&gt;Node2 -->
<g id="edge1" class="edge"><title>Node1&#45;&gt;Node2</title>
<path fill="none" stroke="midnightblue" d="M117.017,-86C125.464,-86 134.229,-86 142.856,-86"/>
<polygon fill="midnightblue" stroke="midnightblue" points="142.893,-89.5001 152.893,-86 142.892,-82.5001 142.893,-89.5001"/>
</g>
<!-- Node3 -->
<g id="node3" class="node"><title>Node3</title>
<g id="a_node3"><a xlink:href="$da/d75/classamunmt_1_1BPE.html#a7840a80bf09596f2b3415070f3324b4b" xlink:title="amunmt::BPE::IsCached">
<polygon fill="white" stroke="black" points="320,-164.5 320,-183.5 446,-183.5 446,-164.5 320,-164.5"/>
<text text-anchor="middle" x="383" y="-171.5" font-family="Helvetica,sans-Serif" font-size="10.00">amunmt::BPE::IsCached</text>
</a>
</g>
</g>
<!-- Node2&#45;&gt;Node3 -->
<g id="edge2" class="edge"><title>Node2&#45;&gt;Node3</title>
<path fill="none" stroke="midnightblue" d="M222.559,-95.5489C238.81,-110.454 272.421,-139.177 306,-155 311.202,-157.451 316.759,-159.611 322.411,-161.509"/>
<polygon fill="midnightblue" stroke="midnightblue" points="321.381,-164.854 331.968,-164.461 323.446,-158.166 321.381,-164.854"/>
</g>
<!-- Node4 -->
<g id="node4" class="node"><title>Node4</title>
<g id="a_node4"><a xlink:href="$da/d75/classamunmt_1_1BPE.html#a6089b76990dd5e462f8bcc7249fcb912" xlink:title="amunmt::BPE::SplitWordInto\lLetters">
<polygon fill="white" stroke="black" points="311.5,-115 311.5,-145 454.5,-145 454.5,-115 311.5,-115"/>
<text text-anchor="start" x="319.5" y="-133" font-family="Helvetica,sans-Serif" font-size="10.00">amunmt::BPE::SplitWordInto</text>
<text text-anchor="middle" x="383" y="-122" font-family="Helvetica,sans-Serif" font-size="10.00">Letters</text>
</a>
</g>
</g>
<!-- Node2&#45;&gt;Node4 -->
<g id="edge3" class="edge"><title>Node2&#45;&gt;Node4</title>
<path fill="none" stroke="midnightblue" d="M249.279,-95.5473C268.277,-100.479 292.072,-106.656 314.247,-112.412"/>
<polygon fill="midnightblue" stroke="midnightblue" points="313.405,-115.81 323.964,-114.935 315.164,-109.034 313.405,-115.81"/>
</g>
<!-- Node5 -->
<g id="node5" class="node"><title>Node5</title>
<g id="a_node5"><a xlink:href="$da/d75/classamunmt_1_1BPE.html#a98b27329dd9a9146202d2bd732ce4ba3" xlink:title="amunmt::BPE::GetPairs">
<polygon fill="white" stroke="black" points="322,-76.5 322,-95.5 444,-95.5 444,-76.5 322,-76.5"/>
<text text-anchor="middle" x="383" y="-83.5" font-family="Helvetica,sans-Serif" font-size="10.00">amunmt::BPE::GetPairs</text>
</a>
</g>
</g>
<!-- Node2&#45;&gt;Node5 -->
<g id="edge4" class="edge"><title>Node2&#45;&gt;Node5</title>
<path fill="none" stroke="midnightblue" d="M270.358,-86C283.579,-86 297.775,-86 311.461,-86"/>
<polygon fill="midnightblue" stroke="midnightblue" points="311.804,-89.5001 321.803,-86 311.803,-82.5001 311.804,-89.5001"/>
</g>
<!-- Node6 -->
<g id="node6" class="node"><title>Node6</title>
<g id="a_node6"><a xlink:href="$da/d75/classamunmt_1_1BPE.html#ab1ad9af2c5806b7e2ee2bf91bd38d80b" xlink:title="amunmt::BPE::FindBestBigram">
<polygon fill="white" stroke="black" points="306,-38.5 306,-57.5 460,-57.5 460,-38.5 306,-38.5"/>
<text text-anchor="middle" x="383" y="-45.5" font-family="Helvetica,sans-Serif" font-size="10.00">amunmt::BPE::FindBestBigram</text>
</a>
</g>
</g>
<!-- Node2&#45;&gt;Node6 -->
<g id="edge5" class="edge"><title>Node2&#45;&gt;Node6</title>
<path fill="none" stroke="midnightblue" d="M255.272,-76.411C277.841,-71.3513 305.723,-65.1004 329.583,-59.7512"/>
<polygon fill="midnightblue" stroke="midnightblue" points="330.543,-63.1229 339.536,-57.5201 329.012,-56.2925 330.543,-63.1229"/>
</g>
<!-- Node7 -->
<g id="node7" class="node"><title>Node7</title>
<g id="a_node7"><a xlink:href="$da/d75/classamunmt_1_1BPE.html#a21b9fe0b9cd1782985a5917bed7eb5f2" xlink:title="amunmt::BPE::EndsWith">
<polygon fill="white" stroke="black" points="319.5,-0.5 319.5,-19.5 446.5,-19.5 446.5,-0.5 319.5,-0.5"/>
<text text-anchor="middle" x="383" y="-7.5" font-family="Helvetica,sans-Serif" font-size="10.00">amunmt::BPE::EndsWith</text>
</a>
</g>
</g>
<!-- Node2&#45;&gt;Node7 -->
<g id="edge6" class="edge"><title>Node2&#45;&gt;Node7</title>
<path fill="none" stroke="midnightblue" d="M225.44,-76.3481C242.885,-63.7614 275.308,-41.84 306,-29 311.846,-26.5543 318.082,-24.3695 324.371,-22.4316"/>
<polygon fill="midnightblue" stroke="midnightblue" points="325.61,-25.7173 334.252,-19.5876 323.674,-18.9904 325.61,-25.7173"/>
</g>
</g>
</svg>
