<?xml version="1.0" encoding="UTF-8" standalone="no"?>
<!DOCTYPE svg PUBLIC "-//W3C//DTD SVG 1.1//EN"
 "http://www.w3.org/Graphics/SVG/1.1/DTD/svg11.dtd">
<!-- Generated by graphviz version 2.38.0 (20140413.2041)
 -->
<!-- Title: sentence.h Pages: 1 -->
<svg width="1384pt" height="476pt"
 viewBox="0.00 0.00 1383.50 476.00" xmlns="http://www.w3.org/2000/svg" xmlns:xlink="http://www.w3.org/1999/xlink">
<g id="graph0" class="graph" transform="scale(1 1) rotate(0) translate(4 472)">
<title>sentence.h</title>
<polygon fill="white" stroke="none" points="-4,4 -4,-472 1379.5,-472 1379.5,4 -4,4"/>
<!-- Node1 -->
<g id="node1" class="node"><title>Node1</title>
<polygon fill="#bfbfbf" stroke="black" points="737.5,-448.5 737.5,-467.5 802.5,-467.5 802.5,-448.5 737.5,-448.5"/>
<text text-anchor="middle" x="770" y="-455.5" font-family="Helvetica,sans-Serif" font-size="10.00">sentence.h</text>
</g>
<!-- Node2 -->
<g id="node2" class="node"><title>Node2</title>
<g id="a_node2"><a xlink:href="$da/d3b/scorer_8h.html" xlink:title="scorer.h">
<polygon fill="white" stroke="black" points="744,-392.5 744,-411.5 796,-411.5 796,-392.5 744,-392.5"/>
<text text-anchor="middle" x="770" y="-399.5" font-family="Helvetica,sans-Serif" font-size="10.00">scorer.h</text>
</a>
</g>
</g>
<!-- Node1&#45;&gt;Node2 -->
<g id="edge1" class="edge"><title>Node1&#45;&gt;Node2</title>
<path fill="none" stroke="midnightblue" d="M770,-437.805C770,-428.91 770,-418.78 770,-411.751"/>
<polygon fill="midnightblue" stroke="midnightblue" points="766.5,-438.083 770,-448.083 773.5,-438.083 766.5,-438.083"/>
</g>
<!-- Node5 -->
<g id="node5" class="node"><title>Node5</title>
<g id="a_node5"><a xlink:href="$d0/d73/decoder__main_8cpp.html" xlink:title="decoder_main.cpp">
<polygon fill="white" stroke="black" points="143,-112.5 143,-131.5 239,-131.5 239,-112.5 143,-112.5"/>
<text text-anchor="middle" x="191" y="-119.5" font-family="Helvetica,sans-Serif" font-size="10.00">decoder_main.cpp</text>
</a>
</g>
</g>
<!-- Node1&#45;&gt;Node5 -->
<g id="edge54" class="edge"><title>Node1&#45;&gt;Node5</title>
<path fill="none" stroke="midnightblue" d="M727.355,-455.442C565.733,-448.982 0,-421.079 0,-347 0,-347 0,-347 0,-233 0,-167.183 86.2205,-140.152 142.803,-129.499"/>
<polygon fill="midnightblue" stroke="midnightblue" points="727.276,-458.942 737.406,-455.837 727.551,-451.947 727.276,-458.942"/>
</g>
<!-- Node8 -->
<g id="node8" class="node"><title>Node8</title>
<g id="a_node8"><a xlink:href="$d5/dc4/amun_2common_2printer_8h.html" xlink:title="printer.h">
<polygon fill="white" stroke="black" points="286,-168.5 286,-187.5 338,-187.5 338,-168.5 286,-168.5"/>
<text text-anchor="middle" x="312" y="-175.5" font-family="Helvetica,sans-Serif" font-size="10.00">printer.h</text>
</a>
</g>
</g>
<!-- Node1&#45;&gt;Node8 -->
<g id="edge63" class="edge"><title>Node1&#45;&gt;Node8</title>
<path fill="none" stroke="midnightblue" d="M727.082,-456.675C605.753,-454.607 269,-440.451 269,-347 269,-347 269,-347 269,-289 269,-248.811 294.206,-205.682 306.021,-187.672"/>
<polygon fill="midnightblue" stroke="midnightblue" points="727.076,-460.175 737.128,-456.827 727.182,-453.176 727.076,-460.175"/>
</g>
<!-- Node11 -->
<g id="node11" class="node"><title>Node11</title>
<g id="a_node11"><a xlink:href="$d5/d49/amunmt_8cpp.html" xlink:title="amunmt.cpp">
<polygon fill="white" stroke="black" points="490.5,-112.5 490.5,-131.5 561.5,-131.5 561.5,-112.5 490.5,-112.5"/>
<text text-anchor="middle" x="526" y="-119.5" font-family="Helvetica,sans-Serif" font-size="10.00">amunmt.cpp</text>
</a>
</g>
</g>
<!-- Node1&#45;&gt;Node11 -->
<g id="edge69" class="edge"><title>Node1&#45;&gt;Node11</title>
<path fill="none" stroke="midnightblue" d="M813.076,-456.983C937.398,-455.782 1288,-443.814 1288,-347 1288,-347 1288,-347 1288,-233 1288,-192.769 1261.52,-184.868 1225,-168 1164.56,-140.085 695.981,-126.998 561.796,-123.799"/>
<polygon fill="midnightblue" stroke="midnightblue" points="812.769,-453.485 802.796,-457.062 812.823,-460.485 812.769,-453.485"/>
</g>
<!-- Node13 -->
<g id="node13" class="node"><title>Node13</title>
<g id="a_node13"><a xlink:href="$d7/d57/sentence_8cpp.html" xlink:title="sentence.cpp">
<polygon fill="white" stroke="black" points="1141.5,-168.5 1141.5,-187.5 1216.5,-187.5 1216.5,-168.5 1141.5,-168.5"/>
<text text-anchor="middle" x="1179" y="-175.5" font-family="Helvetica,sans-Serif" font-size="10.00">sentence.cpp</text>
</a>
</g>
</g>
<!-- Node1&#45;&gt;Node13 -->
<g id="edge65" class="edge"><title>Node1&#45;&gt;Node13</title>
<path fill="none" stroke="midnightblue" d="M813.147,-454.664C894.952,-449.722 1069.32,-436.593 1124,-412 1158.47,-396.497 1172.38,-390.418 1188,-356 1214.95,-296.599 1191.09,-214.196 1182.09,-187.625"/>
<polygon fill="midnightblue" stroke="midnightblue" points="812.483,-451.197 802.707,-455.28 812.896,-458.185 812.483,-451.197"/>
</g>
<!-- Node19 -->
<g id="node19" class="node"><title>Node19</title>
<g id="a_node19"><a xlink:href="$da/d6d/nmt_8h.html" xlink:title="nmt.h">
<polygon fill="white" stroke="black" points="1077.5,-168.5 1077.5,-187.5 1118.5,-187.5 1118.5,-168.5 1077.5,-168.5"/>
<text text-anchor="middle" x="1098" y="-175.5" font-family="Helvetica,sans-Serif" font-size="10.00">nmt.h</text>
</a>
</g>
</g>
<!-- Node1&#45;&gt;Node19 -->
<g id="edge68" class="edge"><title>Node1&#45;&gt;Node19</title>
<path fill="none" stroke="midnightblue" d="M812.874,-454.432C916.863,-447.033 1174,-421.232 1174,-347 1174,-347 1174,-347 1174,-289 1174,-244.201 1130.8,-204.429 1109.54,-187.567"/>
<polygon fill="midnightblue" stroke="midnightblue" points="812.455,-450.952 802.719,-455.13 812.935,-457.936 812.455,-450.952"/>
</g>
<!-- Node26 -->
<g id="node26" class="node"><title>Node26</title>
<g id="a_node26"><a xlink:href="$d9/d85/search_8h.html" xlink:title="search.h">
<polygon fill="white" stroke="black" points="336,-224.5 336,-243.5 390,-243.5 390,-224.5 336,-224.5"/>
<text text-anchor="middle" x="363" y="-231.5" font-family="Helvetica,sans-Serif" font-size="10.00">search.h</text>
</a>
</g>
</g>
<!-- Node1&#45;&gt;Node26 -->
<g id="edge64" class="edge"><title>Node1&#45;&gt;Node26</title>
<path fill="none" stroke="midnightblue" d="M727.134,-452.961C630.137,-442.882 398.407,-413.227 349,-356 320.67,-323.186 346.69,-265.334 358.181,-243.586"/>
<polygon fill="midnightblue" stroke="midnightblue" points="726.882,-456.453 737.185,-453.985 727.592,-449.489 726.882,-456.453"/>
</g>
<!-- Node32 -->
<g id="node32" class="node"><title>Node32</title>
<g id="a_node32"><a xlink:href="$d3/ddf/sentences_8h.html" xlink:title="sentences.h">
<polygon fill="white" stroke="black" points="171,-224.5 171,-243.5 241,-243.5 241,-224.5 171,-224.5"/>
<text text-anchor="middle" x="206" y="-231.5" font-family="Helvetica,sans-Serif" font-size="10.00">sentences.h</text>
</a>
</g>
</g>
<!-- Node1&#45;&gt;Node32 -->
<g id="edge55" class="edge"><title>Node1&#45;&gt;Node32</title>
<path fill="none" stroke="midnightblue" d="M727.442,-456.026C610.578,-452.975 290.998,-441.95 255,-412 202.301,-368.156 203.558,-273.111 205.313,-243.792"/>
<polygon fill="midnightblue" stroke="midnightblue" points="727.37,-459.526 737.456,-456.281 727.548,-452.528 727.37,-459.526"/>
</g>
<!-- Node35 -->
<g id="node35" class="node"><title>Node35</title>
<g id="a_node35"><a xlink:href="$d1/d79/encoder_8h.html" xlink:title="encoder.h">
<polygon fill="white" stroke="black" points="1316.5,-392.5 1316.5,-411.5 1375.5,-411.5 1375.5,-392.5 1316.5,-392.5"/>
<text text-anchor="middle" x="1346" y="-399.5" font-family="Helvetica,sans-Serif" font-size="10.00">encoder.h</text>
</a>
</g>
</g>
<!-- Node1&#45;&gt;Node35 -->
<g id="edge66" class="edge"><title>Node1&#45;&gt;Node35</title>
<path fill="none" stroke="midnightblue" d="M812.683,-455.093C903.228,-450.674 1121.09,-438.062 1302,-412 1306.63,-411.333 1311.51,-410.484 1316.26,-409.576"/>
<polygon fill="midnightblue" stroke="midnightblue" points="812.357,-451.604 802.537,-455.58 812.693,-458.596 812.357,-451.604"/>
</g>
<!-- Node3 -->
<g id="node3" class="node"><title>Node3</title>
<g id="a_node3"><a xlink:href="$d5/dbc/base__best__hyps_8h.html" xlink:title="base_best_hyps.h">
<polygon fill="white" stroke="black" points="684,-336.5 684,-355.5 780,-355.5 780,-336.5 684,-336.5"/>
<text text-anchor="middle" x="732" y="-343.5" font-family="Helvetica,sans-Serif" font-size="10.00">base_best_hyps.h</text>
</a>
</g>
</g>
<!-- Node2&#45;&gt;Node3 -->
<g id="edge2" class="edge"><title>Node2&#45;&gt;Node3</title>
<path fill="none" stroke="midnightblue" d="M757.935,-383.855C751.355,-374.505 743.489,-363.327 738.158,-355.751"/>
<polygon fill="midnightblue" stroke="midnightblue" points="755.108,-385.919 763.725,-392.083 760.832,-381.891 755.108,-385.919"/>
</g>
<!-- Node4 -->
<g id="node4" class="node"><title>Node4</title>
<g id="a_node4"><a xlink:href="$d4/d57/god_8h.html" xlink:title="god.h">
<polygon fill="white" stroke="black" points="914.5,-224.5 914.5,-243.5 955.5,-243.5 955.5,-224.5 914.5,-224.5"/>
<text text-anchor="middle" x="935" y="-231.5" font-family="Helvetica,sans-Serif" font-size="10.00">god.h</text>
</a>
</g>
</g>
<!-- Node2&#45;&gt;Node4 -->
<g id="edge40" class="edge"><title>Node2&#45;&gt;Node4</title>
<path fill="none" stroke="midnightblue" d="M777.721,-382.775C791.354,-350.892 819.006,-287.639 827,-280 839.997,-267.581 886.65,-250.823 914.206,-241.663"/>
<polygon fill="midnightblue" stroke="midnightblue" points="774.381,-381.687 773.684,-392.259 780.821,-384.429 774.381,-381.687"/>
</g>
<!-- Node7 -->
<g id="node7" class="node"><title>Node7</title>
<g id="a_node7"><a xlink:href="$d3/d73/god_8cpp.html" xlink:title="god.cpp">
<polygon fill="white" stroke="black" points="554.5,-168.5 554.5,-187.5 605.5,-187.5 605.5,-168.5 554.5,-168.5"/>
<text text-anchor="middle" x="580" y="-175.5" font-family="Helvetica,sans-Serif" font-size="10.00">god.cpp</text>
</a>
</g>
</g>
<!-- Node2&#45;&gt;Node7 -->
<g id="edge39" class="edge"><title>Node2&#45;&gt;Node7</title>
<path fill="none" stroke="midnightblue" d="M733.782,-397.599C692.51,-392.667 623.818,-381.195 570,-356 532.966,-338.663 523.253,-331.351 497,-300 473.789,-272.282 447.754,-253.953 468,-224 478.033,-209.156 524.635,-194.064 554.476,-185.679"/>
<polygon fill="midnightblue" stroke="midnightblue" points="733.578,-401.099 743.908,-398.743 734.364,-394.143 733.578,-401.099"/>
</g>
<!-- Node14 -->
<g id="node14" class="node"><title>Node14</title>
<g id="a_node14"><a xlink:href="$d0/d90/best__hyps_8h.html" xlink:title="best_hyps.h">
<polygon fill="white" stroke="black" points="985,-168.5 985,-187.5 1055,-187.5 1055,-168.5 985,-168.5"/>
<text text-anchor="middle" x="1020" y="-175.5" font-family="Helvetica,sans-Serif" font-size="10.00">best_hyps.h</text>
</a>
</g>
</g>
<!-- Node2&#45;&gt;Node14 -->
<g id="edge46" class="edge"><title>Node2&#45;&gt;Node14</title>
<path fill="none" stroke="midnightblue" d="M799.29,-388.115C835.666,-371.231 898.477,-339.12 944,-300 968.216,-279.19 972.014,-271.036 989,-244 1000.97,-224.945 1011.43,-200.551 1016.59,-187.747"/>
<polygon fill="midnightblue" stroke="midnightblue" points="797.407,-385.127 789.767,-392.466 800.317,-391.493 797.407,-385.127"/>
</g>
<!-- Node17 -->
<g id="node17" class="node"><title>Node17</title>
<g id="a_node17"><a xlink:href="$d6/da3/language__model_8h.html" xlink:title="language_model.h">
<polygon fill="white" stroke="black" points="1228.5,-56.5 1228.5,-75.5 1323.5,-75.5 1323.5,-56.5 1228.5,-56.5"/>
<text text-anchor="middle" x="1276" y="-63.5" font-family="Helvetica,sans-Serif" font-size="10.00">language_model.h</text>
</a>
</g>
</g>
<!-- Node2&#45;&gt;Node17 -->
<g id="edge47" class="edge"><title>Node2&#45;&gt;Node17</title>
<path fill="none" stroke="midnightblue" d="M806.037,-397.395C851.782,-392.032 932.612,-379.91 998,-356 1010.05,-351.593 1088.53,-307.419 1099,-300 1160.13,-256.682 1181.37,-248.914 1225,-188 1251.95,-150.377 1268.23,-96.337 1273.81,-75.5736"/>
<polygon fill="midnightblue" stroke="midnightblue" points="805.554,-393.927 796.01,-398.527 806.339,-400.883 805.554,-393.927"/>
</g>
<!-- Node2&#45;&gt;Node19 -->
<g id="edge53" class="edge"><title>Node2&#45;&gt;Node19</title>
<path fill="none" stroke="midnightblue" d="M806.364,-398.959C891.222,-393.825 1096.69,-379.112 1117,-356 1160.66,-306.317 1118.05,-216.012 1102.89,-187.718"/>
<polygon fill="midnightblue" stroke="midnightblue" points="805.936,-395.478 796.161,-399.565 806.351,-402.466 805.936,-395.478"/>
</g>
<!-- Node20 -->
<g id="node20" class="node"><title>Node20</title>
<g id="a_node20"><a xlink:href="$db/db8/loader_8h.html" xlink:title="loader.h">
<polygon fill="white" stroke="black" points="690.5,-280.5 690.5,-299.5 741.5,-299.5 741.5,-280.5 690.5,-280.5"/>
<text text-anchor="middle" x="716" y="-287.5" font-family="Helvetica,sans-Serif" font-size="10.00">loader.h</text>
</a>
</g>
</g>
<!-- Node2&#45;&gt;Node20 -->
<g id="edge41" class="edge"><title>Node2&#45;&gt;Node20</title>
<path fill="none" stroke="midnightblue" d="M734.245,-394.015C713.094,-387.846 687.974,-376.502 675,-356 662.229,-335.819 687.363,-312.081 703.637,-299.627"/>
<polygon fill="midnightblue" stroke="midnightblue" points="733.369,-397.403 743.931,-396.572 735.156,-390.635 733.369,-397.403"/>
</g>
<!-- Node22 -->
<g id="node22" class="node"><title>Node22</title>
<g id="a_node22"><a xlink:href="$dc/dec/loader__factory_8cpp.html" xlink:title="loader_factory.cpp">
<polygon fill="white" stroke="black" points="623.5,-168.5 623.5,-187.5 720.5,-187.5 720.5,-168.5 623.5,-168.5"/>
<text text-anchor="middle" x="672" y="-175.5" font-family="Helvetica,sans-Serif" font-size="10.00">loader_factory.cpp</text>
</a>
</g>
</g>
<!-- Node2&#45;&gt;Node22 -->
<g id="edge42" class="edge"><title>Node2&#45;&gt;Node22</title>
<path fill="none" stroke="midnightblue" d="M733.832,-395.011C667.119,-381.727 526.788,-342.764 475,-244 470.872,-236.128 469.458,-230.95 475,-224 484.295,-212.342 568.118,-196.323 623.388,-186.876"/>
<polygon fill="midnightblue" stroke="midnightblue" points="733.403,-398.492 743.882,-396.928 734.714,-391.616 733.403,-398.492"/>
</g>
<!-- Node24 -->
<g id="node24" class="node"><title>Node24</title>
<g id="a_node24"><a xlink:href="$df/d0c/ape__penalty_8h.html" xlink:title="ape_penalty.h">
<polygon fill="white" stroke="black" points="484.5,-224.5 484.5,-243.5 561.5,-243.5 561.5,-224.5 484.5,-224.5"/>
<text text-anchor="middle" x="523" y="-231.5" font-family="Helvetica,sans-Serif" font-size="10.00">ape_penalty.h</text>
</a>
</g>
</g>
<!-- Node2&#45;&gt;Node24 -->
<g id="edge45" class="edge"><title>Node2&#45;&gt;Node24</title>
<path fill="none" stroke="midnightblue" d="M736.026,-388.785C715.598,-380.775 689.482,-369.332 668,-356 611.17,-320.729 552.836,-264.835 531.483,-243.583"/>
<polygon fill="midnightblue" stroke="midnightblue" points="734.962,-392.126 745.552,-392.435 737.466,-385.589 734.962,-392.126"/>
</g>
<!-- Node2&#45;&gt;Node26 -->
<g id="edge44" class="edge"><title>Node2&#45;&gt;Node26</title>
<path fill="none" stroke="midnightblue" d="M733.761,-399.679C638.844,-395.849 388.591,-383.24 364,-356 335.142,-324.033 351.861,-265.672 359.667,-243.687"/>
<polygon fill="midnightblue" stroke="midnightblue" points="733.63,-403.176 743.76,-400.073 733.906,-396.182 733.63,-403.176"/>
</g>
<!-- Node27 -->
<g id="node27" class="node"><title>Node27</title>
<g id="a_node27"><a xlink:href="$d2/d86/encoder__decoder_8h.html" xlink:title="encoder_decoder.h">
<polygon fill="white" stroke="black" points="836.5,-280.5 836.5,-299.5 935.5,-299.5 935.5,-280.5 836.5,-280.5"/>
<text text-anchor="middle" x="886" y="-287.5" font-family="Helvetica,sans-Serif" font-size="10.00">encoder_decoder.h</text>
</a>
</g>
</g>
<!-- Node2&#45;&gt;Node27 -->
<g id="edge48" class="edge"><title>Node2&#45;&gt;Node27</title>
<path fill="none" stroke="midnightblue" d="M788.362,-385.728C798.461,-377.176 811.114,-366.208 822,-356 842.794,-336.501 865.987,-312.288 877.925,-299.629"/>
<polygon fill="midnightblue" stroke="midnightblue" points="785.977,-383.16 780.575,-392.274 790.482,-388.519 785.977,-383.16"/>
</g>
<!-- Node28 -->
<g id="node28" class="node"><title>Node28</title>
<g id="a_node28"><a xlink:href="$d3/d00/scorer_8cpp.html" xlink:title="scorer.cpp">
<polygon fill="white" stroke="black" points="1046,-336.5 1046,-355.5 1108,-355.5 1108,-336.5 1046,-336.5"/>
<text text-anchor="middle" x="1077" y="-343.5" font-family="Helvetica,sans-Serif" font-size="10.00">scorer.cpp</text>
</a>
</g>
</g>
<!-- Node2&#45;&gt;Node28 -->
<g id="edge43" class="edge"><title>Node2&#45;&gt;Node28</title>
<path fill="none" stroke="midnightblue" d="M806.179,-395.107C856.775,-386.792 951.512,-370.958 1032,-356 1036.39,-355.185 1041.01,-354.296 1045.55,-353.404"/>
<polygon fill="midnightblue" stroke="midnightblue" points="805.375,-391.692 796.073,-396.764 806.508,-398.6 805.375,-391.692"/>
</g>
<!-- Node29 -->
<g id="node29" class="node"><title>Node29</title>
<g id="a_node29"><a xlink:href="$d0/d1e/encoder__decoder__state_8h.html" xlink:title="encoder_decoder_state.h">
<polygon fill="white" stroke="black" points="373,-336.5 373,-355.5 499,-355.5 499,-336.5 373,-336.5"/>
<text text-anchor="middle" x="436" y="-343.5" font-family="Helvetica,sans-Serif" font-size="10.00">encoder_decoder_state.h</text>
</a>
</g>
</g>
<!-- Node2&#45;&gt;Node29 -->
<g id="edge49" class="edge"><title>Node2&#45;&gt;Node29</title>
<path fill="none" stroke="midnightblue" d="M733.798,-395.147C674.679,-385.589 557.16,-366.589 488.756,-355.529"/>
<polygon fill="midnightblue" stroke="midnightblue" points="733.361,-398.622 743.792,-396.763 734.478,-391.711 733.361,-398.622"/>
</g>
<!-- Node30 -->
<g id="node30" class="node"><title>Node30</title>
<g id="a_node30"><a xlink:href="$dd/df3/hypo__info_8h.html" xlink:title="hypo_info.h">
<polygon fill="white" stroke="black" points="922.5,-336.5 922.5,-355.5 989.5,-355.5 989.5,-336.5 922.5,-336.5"/>
<text text-anchor="middle" x="956" y="-343.5" font-family="Helvetica,sans-Serif" font-size="10.00">hypo_info.h</text>
</a>
</g>
</g>
<!-- Node2&#45;&gt;Node30 -->
<g id="edge50" class="edge"><title>Node2&#45;&gt;Node30</title>
<path fill="none" stroke="midnightblue" d="M806.098,-390.52C841.192,-380.331 893.846,-365.045 926.503,-355.564"/>
<polygon fill="midnightblue" stroke="midnightblue" points="804.882,-387.228 796.255,-393.378 806.834,-393.951 804.882,-387.228"/>
</g>
<!-- Node3&#45;&gt;Node4 -->
<g id="edge3" class="edge"><title>Node3&#45;&gt;Node4</title>
<path fill="none" stroke="midnightblue" d="M744.349,-327.866C755.725,-313.23 773.854,-292.602 794,-280 799.242,-276.721 876.327,-252.929 914.245,-241.327"/>
<polygon fill="midnightblue" stroke="midnightblue" points="741.388,-325.981 738.181,-336.079 746.985,-330.184 741.388,-325.981"/>
</g>
<!-- Node3&#45;&gt;Node20 -->
<g id="edge21" class="edge"><title>Node3&#45;&gt;Node20</title>
<path fill="none" stroke="midnightblue" d="M726.488,-326.396C723.811,-317.362 720.722,-306.936 718.593,-299.751"/>
<polygon fill="midnightblue" stroke="midnightblue" points="723.161,-327.489 729.358,-336.083 729.873,-325.501 723.161,-327.489"/>
</g>
<!-- Node3&#45;&gt;Node24 -->
<g id="edge35" class="edge"><title>Node3&#45;&gt;Node24</title>
<path fill="none" stroke="midnightblue" d="M713.131,-329.993C694.723,-315.836 665.546,-294.657 638,-280 609.042,-264.592 573.621,-251.527 549.805,-243.509"/>
<polygon fill="midnightblue" stroke="midnightblue" points="711.209,-332.932 721.248,-336.319 715.512,-327.411 711.209,-332.932"/>
</g>
<!-- Node3&#45;&gt;Node26 -->
<g id="edge29" class="edge"><title>Node3&#45;&gt;Node26</title>
<path fill="none" stroke="midnightblue" d="M693.393,-333.491C618.519,-311.171 455.248,-262.499 390.372,-243.16"/>
<polygon fill="midnightblue" stroke="midnightblue" points="692.769,-336.957 703.352,-336.46 694.769,-330.249 692.769,-336.957"/>
</g>
<!-- Node3&#45;&gt;Node27 -->
<g id="edge36" class="edge"><title>Node3&#45;&gt;Node27</title>
<path fill="none" stroke="midnightblue" d="M766.111,-333.039C795.087,-322.879 835.962,-308.546 861.712,-299.516"/>
<polygon fill="midnightblue" stroke="midnightblue" points="764.68,-329.832 756.402,-336.444 766.997,-336.437 764.68,-329.832"/>
</g>
<!-- Node4&#45;&gt;Node5 -->
<g id="edge4" class="edge"><title>Node4&#45;&gt;Node5</title>
<path fill="none" stroke="midnightblue" d="M904.479,-223.934C845.227,-207.37 827.972,-207.287 774,-188 753.39,-180.635 750.225,-173.34 729,-168 521.103,-115.697 460.944,-156.738 248,-132 245.114,-131.665 242.151,-131.29 239.164,-130.889"/>
<polygon fill="midnightblue" stroke="midnightblue" points="903.786,-227.376 914.362,-226.74 905.698,-220.642 903.786,-227.376"/>
</g>
<!-- Node6 -->
<g id="node6" class="node"><title>Node6</title>
<g id="a_node6"><a xlink:href="$de/d63/filter_8cpp.html" xlink:title="filter.cpp">
<polygon fill="white" stroke="black" points="835,-168.5 835,-187.5 889,-187.5 889,-168.5 835,-168.5"/>
<text text-anchor="middle" x="862" y="-175.5" font-family="Helvetica,sans-Serif" font-size="10.00">filter.cpp</text>
</a>
</g>
</g>
<!-- Node4&#45;&gt;Node6 -->
<g id="edge5" class="edge"><title>Node4&#45;&gt;Node6</title>
<path fill="none" stroke="midnightblue" d="M914.858,-218.101C901.721,-208.382 885.018,-196.027 873.942,-187.834"/>
<polygon fill="midnightblue" stroke="midnightblue" points="913.15,-221.191 923.271,-224.324 917.313,-215.563 913.15,-221.191"/>
</g>
<!-- Node4&#45;&gt;Node7 -->
<g id="edge6" class="edge"><title>Node4&#45;&gt;Node7</title>
<path fill="none" stroke="midnightblue" d="M904.606,-224.284C775.681,-197.917 738.827,-212.127 614,-188 611.242,-187.467 608.378,-186.835 605.534,-186.157"/>
<polygon fill="midnightblue" stroke="midnightblue" points="903.957,-227.724 914.461,-226.341 905.387,-220.872 903.957,-227.724"/>
</g>
<!-- Node4&#45;&gt;Node8 -->
<g id="edge7" class="edge"><title>Node4&#45;&gt;Node8</title>
<path fill="none" stroke="midnightblue" d="M904.576,-224.373C692.019,-185.497 633.928,-204.428 423,-188 393.894,-185.733 360.505,-183.009 338.013,-181.156"/>
<polygon fill="midnightblue" stroke="midnightblue" points="904.017,-227.829 914.487,-226.207 905.291,-220.946 904.017,-227.829"/>
</g>
<!-- Node4&#45;&gt;Node11 -->
<g id="edge20" class="edge"><title>Node4&#45;&gt;Node11</title>
<path fill="none" stroke="midnightblue" d="M904.949,-220.481C862.084,-202.683 787.096,-171.789 774,-168 700.018,-146.598 610.543,-133.354 561.845,-127.167"/>
<polygon fill="midnightblue" stroke="midnightblue" points="903.76,-223.777 914.337,-224.383 906.446,-217.313 903.76,-223.777"/>
</g>
<!-- Node12 -->
<g id="node12" class="node"><title>Node12</title>
<g id="a_node12"><a xlink:href="$d9/def/search_8cpp.html" xlink:title="search.cpp">
<polygon fill="white" stroke="black" points="432.5,-168.5 432.5,-187.5 497.5,-187.5 497.5,-168.5 432.5,-168.5"/>
<text text-anchor="middle" x="465" y="-175.5" font-family="Helvetica,sans-Serif" font-size="10.00">search.cpp</text>
</a>
</g>
</g>
<!-- Node4&#45;&gt;Node12 -->
<g id="edge12" class="edge"><title>Node4&#45;&gt;Node12</title>
<path fill="none" stroke="midnightblue" d="M904.342,-224.271C745.48,-193.243 701.619,-204.64 545,-188 529.434,-186.346 512.176,-184.417 497.685,-182.77"/>
<polygon fill="midnightblue" stroke="midnightblue" points="903.985,-227.768 914.474,-226.276 905.344,-220.901 903.985,-227.768"/>
</g>
<!-- Node4&#45;&gt;Node13 -->
<g id="edge13" class="edge"><title>Node4&#45;&gt;Node13</title>
<path fill="none" stroke="midnightblue" d="M965.772,-226.19C1010.42,-216.308 1093.09,-198.012 1141.33,-187.337"/>
<polygon fill="midnightblue" stroke="midnightblue" points="964.811,-222.818 955.803,-228.396 966.323,-229.652 964.811,-222.818"/>
</g>
<!-- Node4&#45;&gt;Node14 -->
<g id="edge14" class="edge"><title>Node4&#45;&gt;Node14</title>
<path fill="none" stroke="midnightblue" d="M957.194,-218.901C972.78,-208.999 993.13,-196.071 1006.38,-187.655"/>
<polygon fill="midnightblue" stroke="midnightblue" points="955.221,-216.007 948.657,-224.324 958.974,-221.916 955.221,-216.007"/>
</g>
<!-- Node15 -->
<g id="node15" class="node"><title>Node15</title>
<g id="a_node15"><a xlink:href="$d6/d72/decoder_8h.html" xlink:title="decoder.h">
<polygon fill="white" stroke="black" points="907.5,-168.5 907.5,-187.5 966.5,-187.5 966.5,-168.5 907.5,-168.5"/>
<text text-anchor="middle" x="937" y="-175.5" font-family="Helvetica,sans-Serif" font-size="10.00">decoder.h</text>
</a>
</g>
</g>
<!-- Node4&#45;&gt;Node15 -->
<g id="edge15" class="edge"><title>Node4&#45;&gt;Node15</title>
<path fill="none" stroke="midnightblue" d="M935.711,-213.805C936.04,-204.91 936.416,-194.78 936.676,-187.751"/>
<polygon fill="midnightblue" stroke="midnightblue" points="932.203,-213.96 935.33,-224.083 939.198,-214.219 932.203,-213.96"/>
</g>
<!-- Node4&#45;&gt;Node19 -->
<g id="edge19" class="edge"><title>Node4&#45;&gt;Node19</title>
<path fill="none" stroke="midnightblue" d="M965.547,-222.88C998.178,-212.07 1049,-195.232 1077.27,-185.869"/>
<polygon fill="midnightblue" stroke="midnightblue" points="964.036,-219.694 955.644,-226.161 966.237,-226.338 964.036,-219.694"/>
</g>
<!-- Node8&#45;&gt;Node5 -->
<g id="edge8" class="edge"><title>Node8&#45;&gt;Node5</title>
<path fill="none" stroke="midnightblue" d="M283.694,-164.368C261.035,-154.255 229.874,-140.349 210.083,-131.516"/>
<polygon fill="midnightblue" stroke="midnightblue" points="282.269,-167.564 292.827,-168.444 285.122,-161.172 282.269,-167.564"/>
</g>
<!-- Node9 -->
<g id="node9" class="node"><title>Node9</title>
<g id="a_node9"><a xlink:href="$d3/db8/amun_2common_2printer_8cpp.html" xlink:title="printer.cpp">
<polygon fill="white" stroke="black" points="257,-112.5 257,-131.5 319,-131.5 319,-112.5 257,-112.5"/>
<text text-anchor="middle" x="288" y="-119.5" font-family="Helvetica,sans-Serif" font-size="10.00">printer.cpp</text>
</a>
</g>
</g>
<!-- Node8&#45;&gt;Node9 -->
<g id="edge9" class="edge"><title>Node8&#45;&gt;Node9</title>
<path fill="none" stroke="midnightblue" d="M303.862,-158.69C299.817,-149.589 295.117,-139.014 291.889,-131.751"/>
<polygon fill="midnightblue" stroke="midnightblue" points="300.777,-160.366 308.037,-168.083 307.174,-157.523 300.777,-160.366"/>
</g>
<!-- Node10 -->
<g id="node10" class="node"><title>Node10</title>
<g id="a_node10"><a xlink:href="$df/d6f/translation__task_8cpp.html" xlink:title="translation_task.cpp">
<polygon fill="white" stroke="black" points="337,-112.5 337,-131.5 441,-131.5 441,-112.5 337,-112.5"/>
<text text-anchor="middle" x="389" y="-119.5" font-family="Helvetica,sans-Serif" font-size="10.00">translation_task.cpp</text>
</a>
</g>
</g>
<!-- Node8&#45;&gt;Node10 -->
<g id="edge10" class="edge"><title>Node8&#45;&gt;Node10</title>
<path fill="none" stroke="midnightblue" d="M332.901,-162.342C346.911,-152.517 364.883,-139.913 376.659,-131.655"/>
<polygon fill="midnightblue" stroke="midnightblue" points="330.549,-159.717 324.371,-168.324 334.568,-165.448 330.549,-159.717"/>
</g>
<!-- Node8&#45;&gt;Node11 -->
<g id="edge11" class="edge"><title>Node8&#45;&gt;Node11</title>
<path fill="none" stroke="midnightblue" d="M348.161,-167.875C388.386,-157.725 452.863,-141.455 492.135,-131.545"/>
<polygon fill="midnightblue" stroke="midnightblue" points="347.08,-164.538 338.241,-170.379 348.793,-171.325 347.08,-164.538"/>
</g>
<!-- Node16 -->
<g id="node16" class="node"><title>Node16</title>
<g id="a_node16"><a xlink:href="$db/d89/dl4mt_8h.html" xlink:title="dl4mt.h">
<polygon fill="white" stroke="black" points="1278.5,-112.5 1278.5,-131.5 1327.5,-131.5 1327.5,-112.5 1278.5,-112.5"/>
<text text-anchor="middle" x="1303" y="-119.5" font-family="Helvetica,sans-Serif" font-size="10.00">dl4mt.h</text>
</a>
</g>
</g>
<!-- Node15&#45;&gt;Node16 -->
<g id="edge16" class="edge"><title>Node15&#45;&gt;Node16</title>
<path fill="none" stroke="midnightblue" d="M976.742,-168.016C1095.5,-146.53 1225.04,-131.464 1278.27,-125.633"/>
<polygon fill="midnightblue" stroke="midnightblue" points="975.96,-164.601 966.753,-169.843 977.22,-171.487 975.96,-164.601"/>
</g>
<!-- Node16&#45;&gt;Node17 -->
<g id="edge17" class="edge"><title>Node16&#45;&gt;Node17</title>
<path fill="none" stroke="midnightblue" d="M1293.99,-102.983C1289.41,-93.8168 1284.05,-83.0922 1280.38,-75.7511"/>
<polygon fill="midnightblue" stroke="midnightblue" points="1290.94,-104.704 1298.54,-112.083 1297.2,-101.573 1290.94,-104.704"/>
</g>
<!-- Node18 -->
<g id="node18" class="node"><title>Node18</title>
<g id="a_node18"><a xlink:href="$d3/d17/class__language__model_8h.html" xlink:title="class_language_model.h">
<polygon fill="white" stroke="black" points="1214,-0.5 1214,-19.5 1338,-19.5 1338,-0.5 1214,-0.5"/>
<text text-anchor="middle" x="1276" y="-7.5" font-family="Helvetica,sans-Serif" font-size="10.00">class_language_model.h</text>
</a>
</g>
</g>
<!-- Node17&#45;&gt;Node18 -->
<g id="edge18" class="edge"><title>Node17&#45;&gt;Node18</title>
<path fill="none" stroke="midnightblue" d="M1276,-45.8045C1276,-36.9102 1276,-26.7798 1276,-19.7511"/>
<polygon fill="midnightblue" stroke="midnightblue" points="1272.5,-46.083 1276,-56.083 1279.5,-46.083 1272.5,-46.083"/>
</g>
<!-- Node20&#45;&gt;Node4 -->
<g id="edge25" class="edge"><title>Node20&#45;&gt;Node4</title>
<path fill="none" stroke="midnightblue" d="M751.666,-280.767C798.011,-270.025 876.382,-251.693 905,-244 908.046,-243.181 911.251,-242.272 914.388,-241.354"/>
<polygon fill="midnightblue" stroke="midnightblue" points="750.689,-277.401 741.736,-283.067 752.268,-284.221 750.689,-277.401"/>
</g>
<!-- Node21 -->
<g id="node21" class="node"><title>Node21</title>
<g id="a_node21"><a xlink:href="$de/d2b/loader__factory_8h.html" xlink:title="loader_factory.h">
<polygon fill="white" stroke="black" points="580,-224.5 580,-243.5 666,-243.5 666,-224.5 580,-224.5"/>
<text text-anchor="middle" x="623" y="-231.5" font-family="Helvetica,sans-Serif" font-size="10.00">loader_factory.h</text>
</a>
</g>
</g>
<!-- Node20&#45;&gt;Node21 -->
<g id="edge22" class="edge"><title>Node20&#45;&gt;Node21</title>
<path fill="none" stroke="midnightblue" d="M692.194,-275.177C675.081,-265.241 652.535,-252.149 637.905,-243.655"/>
<polygon fill="midnightblue" stroke="midnightblue" points="690.653,-278.329 701.058,-280.324 694.168,-272.276 690.653,-278.329"/>
</g>
<!-- Node23 -->
<g id="node23" class="node"><title>Node23</title>
<g id="a_node23"><a xlink:href="$d2/d2b/loader_8cpp.html" xlink:title="loader.cpp">
<polygon fill="white" stroke="black" points="834,-224.5 834,-243.5 896,-243.5 896,-224.5 834,-224.5"/>
<text text-anchor="middle" x="865" y="-231.5" font-family="Helvetica,sans-Serif" font-size="10.00">loader.cpp</text>
</a>
</g>
</g>
<!-- Node20&#45;&gt;Node23 -->
<g id="edge26" class="edge"><title>Node20&#45;&gt;Node23</title>
<path fill="none" stroke="midnightblue" d="M749.371,-276.906C777.384,-266.754 816.696,-252.506 841.501,-243.516"/>
<polygon fill="midnightblue" stroke="midnightblue" points="747.819,-273.746 739.609,-280.444 750.204,-280.327 747.819,-273.746"/>
</g>
<!-- Node20&#45;&gt;Node24 -->
<g id="edge27" class="edge"><title>Node20&#45;&gt;Node24</title>
<path fill="none" stroke="midnightblue" d="M680.658,-279.111C644.239,-268.922 588.053,-253.201 553.512,-243.537"/>
<polygon fill="midnightblue" stroke="midnightblue" points="679.798,-282.505 690.371,-281.829 681.684,-275.764 679.798,-282.505"/>
</g>
<!-- Node25 -->
<g id="node25" class="node"><title>Node25</title>
<g id="a_node25"><a xlink:href="$da/d6b/encoder__decoder__loader_8h.html" xlink:title="encoder_decoder_loader.h">
<polygon fill="white" stroke="black" points="684.5,-224.5 684.5,-243.5 815.5,-243.5 815.5,-224.5 684.5,-224.5"/>
<text text-anchor="middle" x="750" y="-231.5" font-family="Helvetica,sans-Serif" font-size="10.00">encoder_decoder_loader.h</text>
</a>
</g>
</g>
<!-- Node20&#45;&gt;Node25 -->
<g id="edge28" class="edge"><title>Node20&#45;&gt;Node25</title>
<path fill="none" stroke="midnightblue" d="M726.977,-271.566C732.827,-262.275 739.77,-251.248 744.49,-243.751"/>
<polygon fill="midnightblue" stroke="midnightblue" points="723.981,-269.756 721.614,-280.083 729.904,-273.486 723.981,-269.756"/>
</g>
<!-- Node21&#45;&gt;Node7 -->
<g id="edge23" class="edge"><title>Node21&#45;&gt;Node7</title>
<path fill="none" stroke="midnightblue" d="M609.578,-216.144C602.086,-206.736 593.063,-195.405 586.968,-187.751"/>
<polygon fill="midnightblue" stroke="midnightblue" points="606.932,-218.44 615.899,-224.083 612.408,-214.08 606.932,-218.44"/>
</g>
<!-- Node21&#45;&gt;Node22 -->
<g id="edge24" class="edge"><title>Node21&#45;&gt;Node22</title>
<path fill="none" stroke="midnightblue" d="M638.034,-216.431C646.622,-206.967 657.043,-195.483 664.059,-187.751"/>
<polygon fill="midnightblue" stroke="midnightblue" points="635.219,-214.325 631.091,-224.083 640.403,-219.029 635.219,-214.325"/>
</g>
<!-- Node26&#45;&gt;Node5 -->
<g id="edge30" class="edge"><title>Node26&#45;&gt;Node5</title>
<path fill="none" stroke="midnightblue" d="M334.945,-219.787C317.813,-211.362 295.683,-199.834 277,-188 248.225,-169.773 216.897,-144.609 201.19,-131.585"/>
<polygon fill="midnightblue" stroke="midnightblue" points="333.865,-223.153 344.39,-224.367 336.92,-216.855 333.865,-223.153"/>
</g>
<!-- Node26&#45;&gt;Node7 -->
<g id="edge31" class="edge"><title>Node26&#45;&gt;Node7</title>
<path fill="none" stroke="midnightblue" d="M399.759,-223.853C443.668,-212.926 515.983,-194.93 554.306,-185.394"/>
<polygon fill="midnightblue" stroke="midnightblue" points="398.903,-220.459 390.044,-226.27 400.594,-227.252 398.903,-220.459"/>
</g>
<!-- Node26&#45;&gt;Node10 -->
<g id="edge33" class="edge"><title>Node26&#45;&gt;Node10</title>
<path fill="none" stroke="midnightblue" d="M367.409,-214.348C373.104,-190.254 382.782,-149.308 386.969,-131.591"/>
<polygon fill="midnightblue" stroke="midnightblue" points="363.934,-213.832 365.04,-224.368 370.747,-215.442 363.934,-213.832"/>
</g>
<!-- Node26&#45;&gt;Node11 -->
<g id="edge34" class="edge"><title>Node26&#45;&gt;Node11</title>
<path fill="none" stroke="midnightblue" d="M399.828,-223.322C439.596,-212.574 498.326,-195.723 506,-188 521.313,-172.59 524.945,-145.753 525.778,-131.876"/>
<polygon fill="midnightblue" stroke="midnightblue" points="398.92,-219.941 390.168,-225.913 400.734,-226.702 398.92,-219.941"/>
</g>
<!-- Node26&#45;&gt;Node12 -->
<g id="edge32" class="edge"><title>Node26&#45;&gt;Node12</title>
<path fill="none" stroke="midnightblue" d="M388.331,-219.59C407.19,-209.605 432.384,-196.267 448.653,-187.655"/>
<polygon fill="midnightblue" stroke="midnightblue" points="386.588,-216.552 379.388,-224.324 389.864,-222.738 386.588,-216.552"/>
</g>
<!-- Node27&#45;&gt;Node14 -->
<g id="edge37" class="edge"><title>Node27&#45;&gt;Node14</title>
<path fill="none" stroke="midnightblue" d="M913.916,-275.824C929.48,-267.782 948.741,-256.631 964,-244 984.883,-226.713 1004.38,-201.153 1013.9,-187.82"/>
<polygon fill="midnightblue" stroke="midnightblue" points="912.138,-272.8 904.771,-280.415 915.279,-279.056 912.138,-272.8"/>
</g>
<!-- Node27&#45;&gt;Node19 -->
<g id="edge38" class="edge"><title>Node27&#45;&gt;Node19</title>
<path fill="none" stroke="midnightblue" d="M916.938,-276.679C937.641,-268.145 965.327,-256.168 989,-244 1024.66,-225.668 1064.71,-200.548 1084.88,-187.558"/>
<polygon fill="midnightblue" stroke="midnightblue" points="915.606,-273.442 907.671,-280.462 918.252,-279.923 915.606,-273.442"/>
</g>
<!-- Node30&#45;&gt;Node19 -->
<g id="edge52" class="edge"><title>Node30&#45;&gt;Node19</title>
<path fill="none" stroke="midnightblue" d="M999.437,-333.959C1030.14,-325.268 1067.62,-312.562 1078,-300 1105.67,-266.518 1101.94,-209.562 1099.28,-187.805"/>
<polygon fill="midnightblue" stroke="midnightblue" points="998.456,-330.599 989.748,-336.635 1000.32,-337.347 998.456,-330.599"/>
</g>
<!-- Node31 -->
<g id="node31" class="node"><title>Node31</title>
<g id="a_node31"><a xlink:href="$da/d47/hypo__info_8cpp.html" xlink:title="hypo_info.cpp">
<polygon fill="white" stroke="black" points="992.5,-280.5 992.5,-299.5 1069.5,-299.5 1069.5,-280.5 992.5,-280.5"/>
<text text-anchor="middle" x="1031" y="-287.5" font-family="Helvetica,sans-Serif" font-size="10.00">hypo_info.cpp</text>
</a>
</g>
</g>
<!-- Node30&#45;&gt;Node31 -->
<g id="edge51" class="edge"><title>Node30&#45;&gt;Node31</title>
<path fill="none" stroke="midnightblue" d="M976.305,-330.38C989.861,-320.62 1007.24,-308.106 1018.73,-299.834"/>
<polygon fill="midnightblue" stroke="midnightblue" points="974.12,-327.641 968.05,-336.324 978.21,-333.321 974.12,-327.641"/>
</g>
<!-- Node32&#45;&gt;Node5 -->
<g id="edge56" class="edge"><title>Node32&#45;&gt;Node5</title>
<path fill="none" stroke="midnightblue" d="M160.394,-232.78C125.899,-229.906 80.5789,-219.752 57,-188 31.5647,-153.748 94.5835,-136.647 142.6,-128.817"/>
<polygon fill="midnightblue" stroke="midnightblue" points="160.509,-236.295 170.715,-233.454 160.965,-229.31 160.509,-236.295"/>
</g>
<!-- Node32&#45;&gt;Node7 -->
<g id="edge57" class="edge"><title>Node32&#45;&gt;Node7</title>
<path fill="none" stroke="midnightblue" d="M251.347,-226.453C330.596,-215.01 491.806,-191.734 554.373,-182.7"/>
<polygon fill="midnightblue" stroke="midnightblue" points="250.582,-223.027 241.185,-227.92 251.583,-229.955 250.582,-223.027"/>
</g>
<!-- Node32&#45;&gt;Node8 -->
<g id="edge59" class="edge"><title>Node32&#45;&gt;Node8</title>
<path fill="none" stroke="midnightblue" d="M232.056,-219.726C251.684,-209.727 278.028,-196.307 295.012,-187.655"/>
<polygon fill="midnightblue" stroke="midnightblue" points="230.352,-216.666 223.031,-224.324 233.53,-222.903 230.352,-216.666"/>
</g>
<!-- Node32&#45;&gt;Node11 -->
<g id="edge62" class="edge"><title>Node32&#45;&gt;Node11</title>
<path fill="none" stroke="midnightblue" d="M243.494,-221.475C271.982,-212.612 312.082,-199.907 347,-188 403.483,-168.74 469.303,-144.326 503.214,-131.6"/>
<polygon fill="midnightblue" stroke="midnightblue" points="242.444,-218.136 233.93,-224.442 244.518,-224.822 242.444,-218.136"/>
</g>
<!-- Node32&#45;&gt;Node12 -->
<g id="edge60" class="edge"><title>Node32&#45;&gt;Node12</title>
<path fill="none" stroke="midnightblue" d="M251.105,-223.596C302.861,-212.805 386.478,-195.371 432.331,-185.811"/>
<polygon fill="midnightblue" stroke="midnightblue" points="250.275,-220.194 241.199,-225.661 251.703,-227.046 250.275,-220.194"/>
</g>
<!-- Node33 -->
<g id="node33" class="node"><title>Node33</title>
<g id="a_node33"><a xlink:href="$d9/ddc/amun_2common_2history_8cpp.html" xlink:title="history.cpp">
<polygon fill="white" stroke="black" points="66.5,-168.5 66.5,-187.5 131.5,-187.5 131.5,-168.5 66.5,-168.5"/>
<text text-anchor="middle" x="99" y="-175.5" font-family="Helvetica,sans-Serif" font-size="10.00">history.cpp</text>
</a>
</g>
</g>
<!-- Node32&#45;&gt;Node33 -->
<g id="edge58" class="edge"><title>Node32&#45;&gt;Node33</title>
<path fill="none" stroke="midnightblue" d="M179.698,-219.726C159.885,-209.727 133.293,-196.307 116.149,-187.655"/>
<polygon fill="midnightblue" stroke="midnightblue" points="178.304,-222.943 188.809,-224.324 181.458,-216.694 178.304,-222.943"/>
</g>
<!-- Node34 -->
<g id="node34" class="node"><title>Node34</title>
<g id="a_node34"><a xlink:href="$d0/da3/sentences_8cpp.html" xlink:title="sentences.cpp">
<polygon fill="white" stroke="black" points="150,-168.5 150,-187.5 230,-187.5 230,-168.5 150,-168.5"/>
<text text-anchor="middle" x="190" y="-175.5" font-family="Helvetica,sans-Serif" font-size="10.00">sentences.cpp</text>
</a>
</g>
</g>
<!-- Node32&#45;&gt;Node34 -->
<g id="edge61" class="edge"><title>Node32&#45;&gt;Node34</title>
<path fill="none" stroke="midnightblue" d="M200.488,-214.396C197.811,-205.362 194.722,-194.936 192.593,-187.751"/>
<polygon fill="midnightblue" stroke="midnightblue" points="197.161,-215.489 203.358,-224.083 203.873,-213.501 197.161,-215.489"/>
</g>
<!-- Node35&#45;&gt;Node16 -->
<g id="edge67" class="edge"><title>Node35&#45;&gt;Node16</title>
<path fill="none" stroke="midnightblue" d="M1343.26,-382.298C1340.3,-360.448 1336,-323.184 1336,-291 1336,-291 1336,-291 1336,-233 1336,-193.722 1316.46,-149.756 1307.45,-131.576"/>
<polygon fill="midnightblue" stroke="midnightblue" points="1339.83,-383.053 1344.69,-392.466 1346.76,-382.075 1339.83,-383.053"/>
</g>
</g>
</svg>
