<?xml version="1.0" encoding="UTF-8" standalone="no"?>
<!DOCTYPE svg PUBLIC "-//W3C//DTD SVG 1.1//EN"
 "http://www.w3.org/Graphics/SVG/1.1/DTD/svg11.dtd">
<!-- Generated by graphviz version 2.38.0 (20140413.2041)
 -->
<!-- Title: amunmt::Config::Has Pages: 1 -->
<svg width="671pt" height="154pt"
 viewBox="0.00 0.00 671.00 153.50" xmlns="http://www.w3.org/2000/svg" xmlns:xlink="http://www.w3.org/1999/xlink">
<g id="graph0" class="graph" transform="scale(1 1) rotate(0) translate(4 149.5)">
<title>amunmt::Config::Has</title>
<polygon fill="white" stroke="none" points="-4,4 -4,-149.5 667,-149.5 667,4 -4,4"/>
<!-- Node1 -->
<g id="node1" class="node"><title>Node1</title>
<polygon fill="#bfbfbf" stroke="black" points="0,-69 0,-88 110,-88 110,-69 0,-69"/>
<text text-anchor="middle" x="55" y="-76" font-family="Helvetica,sans-Serif" font-size="10.00">amunmt::Config::Has</text>
</g>
<!-- Node2 -->
<g id="node2" class="node"><title>Node2</title>
<g id="a_node2"><a xlink:href="../../da/d4e/classamunmt_1_1Config.html#ae621721651f919b18e8719a6f30ad568" target="_top" xlink:title="amunmt::Config::AddOptions">
<polygon fill="white" stroke="black" points="146,-88 146,-107 289,-107 289,-88 146,-88"/>
<text text-anchor="middle" x="217.5" y="-95" font-family="Helvetica,sans-Serif" font-size="10.00">amunmt::Config::AddOptions</text>
</a>
</g>
</g>
<!-- Node1&#45;&gt;Node2 -->
<g id="edge1" class="edge"><title>Node1&#45;&gt;Node2</title>
<path fill="none" stroke="midnightblue" d="M120.365,-86.1196C128.704,-87.1067 137.28,-88.122 145.715,-89.1205"/>
<polygon fill="midnightblue" stroke="midnightblue" points="120.68,-82.6325 110.338,-84.9325 119.857,-89.5839 120.68,-82.6325"/>
</g>
<!-- Node5 -->
<g id="node5" class="node"><title>Node5</title>
<g id="a_node5"><a xlink:href="../../d7/d4e/classamunmt_1_1God.html#a5c284bd5bdde636f02dbb86af55744ae" target="_top" xlink:title="amunmt::God::Has">
<polygon fill="white" stroke="black" points="167.5,-50 167.5,-69 267.5,-69 267.5,-50 167.5,-50"/>
<text text-anchor="middle" x="217.5" y="-57" font-family="Helvetica,sans-Serif" font-size="10.00">amunmt::God::Has</text>
</a>
</g>
</g>
<!-- Node1&#45;&gt;Node5 -->
<g id="edge4" class="edge"><title>Node1&#45;&gt;Node5</title>
<path fill="none" stroke="midnightblue" d="M120.462,-70.869C136.09,-69.0189 152.55,-67.0704 167.343,-65.3192"/>
<polygon fill="midnightblue" stroke="midnightblue" points="119.857,-67.4161 110.338,-72.0675 120.68,-74.3675 119.857,-67.4161"/>
</g>
<!-- Node3 -->
<g id="node3" class="node"><title>Node3</title>
<g id="a_node3"><a xlink:href="../../da/d4e/classamunmt_1_1Config.html#aa7e531efa35245ae0dd6ccbe02e98006" target="_top" xlink:title="amunmt::Config::Get">
<polygon fill="white" stroke="black" points="340,-126 340,-145 448,-145 448,-126 340,-126"/>
<text text-anchor="middle" x="394" y="-133" font-family="Helvetica,sans-Serif" font-size="10.00">amunmt::Config::Get</text>
</a>
</g>
</g>
<!-- Node2&#45;&gt;Node3 -->
<g id="edge2" class="edge"><title>Node2&#45;&gt;Node3</title>
<path fill="none" stroke="midnightblue" d="M272.469,-109.253C297.143,-114.626 325.995,-120.909 349.283,-125.98"/>
<polygon fill="midnightblue" stroke="midnightblue" points="273.049,-105.797 262.534,-107.089 271.56,-112.637 273.049,-105.797"/>
</g>
<!-- Node4 -->
<g id="node4" class="node"><title>Node4</title>
<g id="a_node4"><a xlink:href="../../d7/d4e/classamunmt_1_1God.html#a7a424275f1192499979b2f58ac250559" target="_top" xlink:title="amunmt::God::Init">
<polygon fill="white" stroke="black" points="533.5,-50 533.5,-69 628.5,-69 628.5,-50 533.5,-50"/>
<text text-anchor="middle" x="581" y="-57" font-family="Helvetica,sans-Serif" font-size="10.00">amunmt::God::Init</text>
</a>
</g>
</g>
<!-- Node2&#45;&gt;Node4 -->
<g id="edge3" class="edge"><title>Node2&#45;&gt;Node4</title>
<path fill="none" stroke="midnightblue" d="M299.115,-90.0211C346.803,-85.4886 408.372,-79.4488 463,-73.5 486.184,-70.9753 511.922,-67.9229 533.341,-65.3135"/>
<polygon fill="midnightblue" stroke="midnightblue" points="298.782,-86.5368 289.157,-90.9648 299.443,-93.5056 298.782,-86.5368"/>
</g>
<!-- Node5&#45;&gt;Node4 -->
<g id="edge5" class="edge"><title>Node5&#45;&gt;Node4</title>
<path fill="none" stroke="midnightblue" d="M277.823,-59.5C349.311,-59.5 467.942,-59.5 533.271,-59.5"/>
<polygon fill="midnightblue" stroke="midnightblue" points="277.63,-56.0001 267.63,-59.5 277.63,-63.0001 277.63,-56.0001"/>
</g>
<!-- Node6 -->
<g id="node6" class="node"><title>Node6</title>
<g id="a_node6"><a xlink:href="../../d7/d4e/classamunmt_1_1God.html#a9fd4b0bf9cb28b74651640055f488484" target="_top" xlink:title="amunmt::God::LoadPrePost\lProcessing">
<polygon fill="white" stroke="black" points="325,-0.5 325,-30.5 463,-30.5 463,-0.5 325,-0.5"/>
<text text-anchor="start" x="333" y="-18.5" font-family="Helvetica,sans-Serif" font-size="10.00">amunmt::God::LoadPrePost</text>
<text text-anchor="middle" x="394" y="-7.5" font-family="Helvetica,sans-Serif" font-size="10.00">Processing</text>
</a>
</g>
</g>
<!-- Node5&#45;&gt;Node6 -->
<g id="edge6" class="edge"><title>Node5&#45;&gt;Node6</title>
<path fill="none" stroke="midnightblue" d="M266.195,-47.4739C286.893,-42.2547 311.359,-36.0856 333.252,-30.5654"/>
<polygon fill="midnightblue" stroke="midnightblue" points="265.205,-44.1138 256.364,-49.9527 266.916,-50.9014 265.205,-44.1138"/>
</g>
<!-- Node6&#45;&gt;Node4 -->
<g id="edge7" class="edge"><title>Node6&#45;&gt;Node4</title>
<path fill="none" stroke="midnightblue" d="M468.144,-32.8964C492.632,-38.7206 519.015,-44.9954 540.005,-49.9876"/>
<polygon fill="midnightblue" stroke="midnightblue" points="468.688,-29.4281 458.149,-30.5192 467.068,-36.2382 468.688,-29.4281"/>
</g>
<!-- Node7 -->
<g id="node7" class="node"><title>Node7</title>
<g id="a_node7"><a xlink:href="../../d7/d4e/classamunmt_1_1God.html#a84dbb75205f93a9a769d05f51e4b9f26" target="_top" xlink:title="amunmt::God::UseFusedSoftmax">
<polygon fill="white" stroke="black" points="499,-6 499,-25 663,-25 663,-6 499,-6"/>
<text text-anchor="middle" x="581" y="-13" font-family="Helvetica,sans-Serif" font-size="10.00">amunmt::God::UseFusedSoftmax</text>
</a>
</g>
</g>
<!-- Node6&#45;&gt;Node7 -->
<g id="edge8" class="edge"><title>Node6&#45;&gt;Node7</title>
<path fill="none" stroke="midnightblue" d="M473.314,-15.5C481.771,-15.5 490.39,-15.5 498.879,-15.5"/>
<polygon fill="midnightblue" stroke="midnightblue" points="473.099,-12.0001 463.099,-15.5 473.099,-19.0001 473.099,-12.0001"/>
</g>
</g>
</svg>
