<?xml version="1.0" encoding="UTF-8" standalone="no"?>
<!DOCTYPE svg PUBLIC "-//W3C//DTD SVG 1.1//EN"
 "http://www.w3.org/Graphics/SVG/1.1/DTD/svg11.dtd">
<!-- Generated by graphviz version 2.38.0 (20140413.2041)
 -->
<!-- Title: amunmt::Config::Get Pages: 1 -->
<!--zoomable 382 -->
<svg id="main" version="1.1" xmlns="http://www.w3.org/2000/svg" xmlns:xlink="http://www.w3.org/1999/xlink" xml:space="preserve" onload="init(evt)">
<style type="text/css"><![CDATA[
.edge:hover path { stroke: red; }
.edge:hover polygon { stroke: red; fill: red; }
]]></style>
<script type="text/javascript"><![CDATA[
var edges = document.getElementsByTagName('g');
if (edges && edges.length) {
  for (var i=0;i<edges.length;i++) {
    if (edges[i].id.substr(0,4)=='edge') {
      edges[i].setAttribute('class','edge');
    }
  }
}
]]></script>
        <defs>
                <circle id="rim" cx="0" cy="0" r="7"/>
                <circle id="rim2" cx="0" cy="0" r="3.5"/>
                <g id="zoomPlus">
                        <use xlink:href="#rim" fill="#404040">
                                <set attributeName="fill" to="#808080" begin="zoomplus.mouseover" end="zoomplus.mouseout"/>
                        </use>
                        <path d="M-4,0h8M0,-4v8" fill="none" stroke="white" stroke-width="1.5" pointer-events="none"/>
                </g>
                <g id="zoomMin">
                        <use xlink:href="#rim" fill="#404040">
                                <set attributeName="fill" to="#808080" begin="zoomminus.mouseover" end="zoomminus.mouseout"/>
                        </use>
                        <path d="M-4,0h8" fill="none" stroke="white" stroke-width="1.5" pointer-events="none"/>
                </g>
                <g id="dirArrow">
                        <path fill="none" stroke="white" stroke-width="1.5" d="M0,-3.0v7 M-2.5,-0.5L0,-3.0L2.5,-0.5"/>
                </g>
               <g id="resetDef">
                       <use xlink:href="#rim2" fill="#404040">
                               <set attributeName="fill" to="#808080" begin="reset.mouseover" end="reset.mouseout"/>
                       </use>
               </g>
        </defs>

<script type="text/javascript">
var viewWidth = 651;
var viewHeight = 382;
var sectionId = 'dynsection-4';
</script>
<script xlink:href="../../svgpan.js"/>
<svg id="graph" class="graph">
<g id="viewport">
<title>amunmt::Config::Get</title>
<polygon fill="white" stroke="none" points="-4,4 -4,-378 647,-378 647,4 -4,4"/>
<!-- Node1 -->
<g id="node1" class="node"><title>Node1</title>
<polygon fill="#bfbfbf" stroke="black" points="0,-202.5 0,-221.5 108,-221.5 108,-202.5 0,-202.5"/>
<text text-anchor="middle" x="54" y="-209.5" font-family="Helvetica,sans-Serif" font-size="10.00">amunmt::Config::Get</text>
</g>
<!-- Node2 -->
<g id="node2" class="node"><title>Node2</title>
<g id="a_node2"><a xlink:href="../../da/d4e/classamunmt_1_1Config.html#a76c3003096368571fd19e3621691e734" target="_top" xlink:title="amunmt::Config::Get">
<polygon fill="white" stroke="black" points="161.5,-221.5 161.5,-240.5 269.5,-240.5 269.5,-221.5 161.5,-221.5"/>
<text text-anchor="middle" x="215.5" y="-228.5" font-family="Helvetica,sans-Serif" font-size="10.00">amunmt::Config::Get</text>
</a>
</g>
</g>
<!-- Node1&#45;&gt;Node2 -->
<g id="edge1" class="edge"><title>Node1&#45;&gt;Node2</title>
<path fill="none" stroke="midnightblue" d="M108.111,-218.327C121.894,-219.969 136.875,-221.753 151.128,-223.451"/>
<polygon fill="midnightblue" stroke="midnightblue" points="151.005,-226.961 161.349,-224.669 151.833,-220.01 151.005,-226.961"/>
</g>
<!-- Node3 -->
<g id="node3" class="node"><title>Node3</title>
<g id="a_node3"><a xlink:href="../../da/d4e/classamunmt_1_1Config.html#ae621721651f919b18e8719a6f30ad568" target="_top" xlink:title="amunmt::Config::AddOptions">
<polygon fill="white" stroke="black" points="144,-183.5 144,-202.5 287,-202.5 287,-183.5 144,-183.5"/>
<text text-anchor="middle" x="215.5" y="-190.5" font-family="Helvetica,sans-Serif" font-size="10.00">amunmt::Config::AddOptions</text>
</a>
</g>
</g>
<!-- Node1&#45;&gt;Node3 -->
<g id="edge2" class="edge"><title>Node1&#45;&gt;Node3</title>
<path fill="none" stroke="midnightblue" d="M108.111,-205.673C116.318,-204.696 124.95,-203.667 133.601,-202.637"/>
<polygon fill="midnightblue" stroke="midnightblue" points="134.223,-206.088 143.739,-201.429 133.395,-199.137 134.223,-206.088"/>
</g>
<!-- Node4 -->
<g id="node4" class="node"><title>Node4</title>
<g id="a_node4"><a xlink:href="../../da/d4e/classamunmt_1_1Config.html#aea1c78c5d37a811d86d8b49b8dac94d1" target="_top" xlink:title="amunmt::Config::Has">
<polygon fill="white" stroke="black" points="350,-354.5 350,-373.5 460,-373.5 460,-354.5 350,-354.5"/>
<text text-anchor="middle" x="405" y="-361.5" font-family="Helvetica,sans-Serif" font-size="10.00">amunmt::Config::Has</text>
</a>
</g>
</g>
<!-- Node3&#45;&gt;Node4 -->
<g id="edge3" class="edge"><title>Node3&#45;&gt;Node4</title>
<path fill="none" stroke="midnightblue" d="M273.692,-202.572C278.594,-205.054 283.144,-208.148 287,-212 330.326,-255.278 278.969,-302.439 323,-345 327.954,-349.789 333.875,-353.453 340.229,-356.245"/>
<polygon fill="midnightblue" stroke="midnightblue" points="339.194,-359.593 349.788,-359.74 341.598,-353.019 339.194,-359.593"/>
</g>
<!-- Node5 -->
<g id="node5" class="node"><title>Node5</title>
<g id="a_node5"><a xlink:href="../../d7/dd3/namespaceamunmt.html#a18aa660f48877e9279fb9e91dee85ce2" target="_top" xlink:title="amunmt::LoadWeights">
<polygon fill="white" stroke="black" points="347.5,-316.5 347.5,-335.5 462.5,-335.5 462.5,-316.5 347.5,-316.5"/>
<text text-anchor="middle" x="405" y="-323.5" font-family="Helvetica,sans-Serif" font-size="10.00">amunmt::LoadWeights</text>
</a>
</g>
</g>
<!-- Node3&#45;&gt;Node5 -->
<g id="edge4" class="edge"><title>Node3&#45;&gt;Node5</title>
<path fill="none" stroke="midnightblue" d="M272.614,-202.641C277.852,-205.101 282.772,-208.171 287,-212 320.468,-242.309 289.039,-277.245 323,-307 327.454,-310.903 332.559,-314.043 337.993,-316.564"/>
<polygon fill="midnightblue" stroke="midnightblue" points="336.802,-319.856 347.39,-320.249 339.358,-313.34 336.802,-319.856"/>
</g>
<!-- Node6 -->
<g id="node6" class="node"><title>Node6</title>
<g id="a_node6"><a xlink:href="../../d7/dd3/namespaceamunmt.html#a223f2f561452f574093618cd336c43de" target="_top" xlink:title="amunmt::OverwriteModels">
<polygon fill="white" stroke="black" points="339.5,-278.5 339.5,-297.5 470.5,-297.5 470.5,-278.5 339.5,-278.5"/>
<text text-anchor="middle" x="405" y="-285.5" font-family="Helvetica,sans-Serif" font-size="10.00">amunmt::OverwriteModels</text>
</a>
</g>
</g>
<!-- Node3&#45;&gt;Node6 -->
<g id="edge5" class="edge"><title>Node3&#45;&gt;Node6</title>
<path fill="none" stroke="midnightblue" d="M269.348,-202.514C275.636,-204.981 281.695,-208.088 287,-212 311.116,-229.782 298.595,-251.616 323,-269 325.706,-270.927 328.579,-272.662 331.569,-274.223"/>
<polygon fill="midnightblue" stroke="midnightblue" points="330.276,-277.479 340.831,-278.402 333.155,-271.099 330.276,-277.479"/>
</g>
<!-- Node7 -->
<g id="node7" class="node"><title>Node7</title>
<g id="a_node7"><a xlink:href="../../d7/dd3/namespaceamunmt.html#a343a63d53ad92c670141e5740f3eab7a" target="_top" xlink:title="amunmt::OverwriteSourceVocabs">
<polygon fill="white" stroke="black" points="323,-240.5 323,-259.5 487,-259.5 487,-240.5 323,-240.5"/>
<text text-anchor="middle" x="405" y="-247.5" font-family="Helvetica,sans-Serif" font-size="10.00">amunmt::OverwriteSourceVocabs</text>
</a>
</g>
</g>
<!-- Node3&#45;&gt;Node7 -->
<g id="edge6" class="edge"><title>Node3&#45;&gt;Node7</title>
<path fill="none" stroke="midnightblue" d="M258.007,-202.538C267.658,-205.207 277.798,-208.384 287,-212 303.838,-218.617 306.055,-224.66 323,-231 329.79,-233.54 337.03,-235.815 344.284,-237.83"/>
<polygon fill="midnightblue" stroke="midnightblue" points="343.581,-241.264 354.142,-240.418 345.359,-234.493 343.581,-241.264"/>
</g>
<!-- Node8 -->
<g id="node8" class="node"><title>Node8</title>
<g id="a_node8"><a xlink:href="../../d7/dd3/namespaceamunmt.html#a1b4b3e3a5cfcb79de4fd92c34e3fa4e3" target="_top" xlink:title="amunmt::OverwriteTargetVocab">
<polygon fill="white" stroke="black" points="327.5,-202.5 327.5,-221.5 482.5,-221.5 482.5,-202.5 327.5,-202.5"/>
<text text-anchor="middle" x="405" y="-209.5" font-family="Helvetica,sans-Serif" font-size="10.00">amunmt::OverwriteTargetVocab</text>
</a>
</g>
</g>
<!-- Node3&#45;&gt;Node8 -->
<g id="edge7" class="edge"><title>Node3&#45;&gt;Node8</title>
<path fill="none" stroke="midnightblue" d="M287.119,-200.156C297.006,-201.158 307.26,-202.197 317.402,-203.225"/>
<polygon fill="midnightblue" stroke="midnightblue" points="317.187,-206.721 327.489,-204.247 317.893,-199.756 317.187,-206.721"/>
</g>
<!-- Node9 -->
<g id="node9" class="node"><title>Node9</title>
<g id="a_node9"><a xlink:href="../../d7/dd3/namespaceamunmt.html#a3d7f2e636dd3e33b80855722d08f9a18" target="_top" xlink:title="amunmt::OverwriteBPE">
<polygon fill="white" stroke="black" points="345,-164.5 345,-183.5 465,-183.5 465,-164.5 345,-164.5"/>
<text text-anchor="middle" x="405" y="-171.5" font-family="Helvetica,sans-Serif" font-size="10.00">amunmt::OverwriteBPE</text>
</a>
</g>
</g>
<!-- Node3&#45;&gt;Node9 -->
<g id="edge8" class="edge"><title>Node3&#45;&gt;Node9</title>
<path fill="none" stroke="midnightblue" d="M287.119,-185.844C302.702,-184.265 319.195,-182.594 334.725,-181.02"/>
<polygon fill="midnightblue" stroke="midnightblue" points="335.176,-184.492 344.772,-180.002 334.47,-177.528 335.176,-184.492"/>
</g>
<!-- Node10 -->
<g id="node10" class="node"><title>Node10</title>
<g id="a_node10"><a xlink:href="../../d7/dd3/namespaceamunmt.html#aa294dffea2547350d8ba90401bbe85d1" target="_top" xlink:title="amunmt::ProcessPaths">
<polygon fill="white" stroke="black" points="345.5,-126.5 345.5,-145.5 464.5,-145.5 464.5,-126.5 345.5,-126.5"/>
<text text-anchor="middle" x="405" y="-133.5" font-family="Helvetica,sans-Serif" font-size="10.00">amunmt::ProcessPaths</text>
</a>
</g>
</g>
<!-- Node3&#45;&gt;Node10 -->
<g id="edge9" class="edge"><title>Node3&#45;&gt;Node10</title>
<path fill="none" stroke="midnightblue" d="M240.777,-183.457C262.199,-175.249 294.377,-163.434 323,-155 331.456,-152.508 340.484,-150.125 349.33,-147.939"/>
<polygon fill="midnightblue" stroke="midnightblue" points="350.299,-151.306 359.201,-145.561 348.659,-144.501 350.299,-151.306"/>
</g>
<!-- Node11 -->
<g id="node11" class="node"><title>Node11</title>
<g id="a_node11"><a xlink:href="../../d7/dd3/namespaceamunmt.html#ad51b66163a1437dc0ffd4aedbb0bd067" target="_top" xlink:title="amunmt::Validate">
<polygon fill="white" stroke="black" points="358.5,-88.5 358.5,-107.5 451.5,-107.5 451.5,-88.5 358.5,-88.5"/>
<text text-anchor="middle" x="405" y="-95.5" font-family="Helvetica,sans-Serif" font-size="10.00">amunmt::Validate</text>
</a>
</g>
</g>
<!-- Node3&#45;&gt;Node11 -->
<g id="edge10" class="edge"><title>Node3&#45;&gt;Node11</title>
<path fill="none" stroke="midnightblue" d="M226.816,-183.49C244.897,-167.343 284.097,-134.612 323,-117 331.031,-113.364 339.836,-110.382 348.591,-107.949"/>
<polygon fill="midnightblue" stroke="midnightblue" points="349.593,-111.305 358.409,-105.429 347.852,-104.525 349.593,-111.305"/>
</g>
<!-- Node12 -->
<g id="node12" class="node"><title>Node12</title>
<g id="a_node12"><a xlink:href="../../da/d08/classamunmt_1_1util_1_1Exception.html#aebd0e9aca70ad9db18a9c024242fe0de" target="_top" xlink:title="amunmt::util::Exception\l::what">
<polygon fill="white" stroke="black" points="345,-39 345,-69 465,-69 465,-39 345,-39"/>
<text text-anchor="start" x="353" y="-57" font-family="Helvetica,sans-Serif" font-size="10.00">amunmt::util::Exception</text>
<text text-anchor="middle" x="405" y="-46" font-family="Helvetica,sans-Serif" font-size="10.00">::what</text>
</a>
</g>
</g>
<!-- Node3&#45;&gt;Node12 -->
<g id="edge11" class="edge"><title>Node3&#45;&gt;Node12</title>
<path fill="none" stroke="midnightblue" d="M222.746,-183.475C237.519,-161.691 276.858,-107.889 323,-79 326.894,-76.5619 331.043,-74.3466 335.327,-72.3361"/>
<polygon fill="midnightblue" stroke="midnightblue" points="337.054,-75.4041 344.873,-68.2549 334.303,-68.9677 337.054,-75.4041"/>
</g>
<!-- Node14 -->
<g id="node14" class="node"><title>Node14</title>
<g id="a_node14"><a xlink:href="../../d7/dd3/namespaceamunmt.html#aef479ee5514fb431474e91580190fd39" target="_top" xlink:title="amunmt::OutputRec">
<polygon fill="white" stroke="black" points="352.5,-0.5 352.5,-19.5 457.5,-19.5 457.5,-0.5 352.5,-0.5"/>
<text text-anchor="middle" x="405" y="-7.5" font-family="Helvetica,sans-Serif" font-size="10.00">amunmt::OutputRec</text>
</a>
</g>
</g>
<!-- Node3&#45;&gt;Node14 -->
<g id="edge13" class="edge"><title>Node3&#45;&gt;Node14</title>
<path fill="none" stroke="midnightblue" d="M219.823,-183.487C230.2,-155.241 264.828,-71.2718 323,-30 328.929,-25.7935 335.646,-22.4677 342.615,-19.8389"/>
<polygon fill="midnightblue" stroke="midnightblue" points="343.824,-23.1258 352.223,-16.6689 341.63,-16.4783 343.824,-23.1258"/>
</g>
<!-- Node13 -->
<g id="node13" class="node"><title>Node13</title>
<g id="a_node13"><a xlink:href="../../da/d08/classamunmt_1_1util_1_1Exception.html#a09d9f9239f89076d5f72e5b2be946896" target="_top" xlink:title="amunmt::util::Exception\l::SetLocation">
<polygon fill="white" stroke="black" points="523,-39 523,-69 643,-69 643,-39 523,-39"/>
<text text-anchor="start" x="531" y="-57" font-family="Helvetica,sans-Serif" font-size="10.00">amunmt::util::Exception</text>
<text text-anchor="middle" x="583" y="-46" font-family="Helvetica,sans-Serif" font-size="10.00">::SetLocation</text>
</a>
</g>
</g>
<!-- Node12&#45;&gt;Node13 -->
<g id="edge12" class="edge"><title>Node12&#45;&gt;Node13</title>
<path fill="none" stroke="midnightblue" d="M465.095,-54C480.332,-54 496.869,-54 512.579,-54"/>
<polygon fill="midnightblue" stroke="midnightblue" points="512.761,-57.5001 522.761,-54 512.761,-50.5001 512.761,-57.5001"/>
</g>
</g>
</svg>
        <g id="navigator" transform="translate(0 0)" fill="#404254">
                <rect fill="#f2f5e9" fill-opacity="0.5" stroke="#606060" stroke-width=".5" x="0" y="0" width="60" height="60"/>
                <use id="zoomplus" xlink:href="#zoomPlus" x="17" y="9" onmousedown="handleZoom(evt,'in')"/>
                <use id="zoomminus" xlink:href="#zoomMin" x="42" y="9" onmousedown="handleZoom(evt,'out')"/>
                <use id="reset" xlink:href="#resetDef" x="30" y="36" onmousedown="handleReset()"/>
                <g id="arrowUp" xlink:href="#dirArrow" transform="translate(30 24)" onmousedown="handlePan(0,-1)">
                  <use xlink:href="#rim" fill="#404040">
                        <set attributeName="fill" to="#808080" begin="arrowUp.mouseover" end="arrowUp.mouseout"/>
                  </use>
                  <path fill="none" stroke="white" stroke-width="1.5" d="M0,-3.0v7 M-2.5,-0.5L0,-3.0L2.5,-0.5"/>
                </g>
                <g id="arrowRight" xlink:href="#dirArrow" transform="rotate(90) translate(36 -43)" onmousedown="handlePan(1,0)">
                  <use xlink:href="#rim" fill="#404040">
                        <set attributeName="fill" to="#808080" begin="arrowRight.mouseover" end="arrowRight.mouseout"/>
                  </use>
                  <path fill="none" stroke="white" stroke-width="1.5" d="M0,-3.0v7 M-2.5,-0.5L0,-3.0L2.5,-0.5"/>
                </g>
                <g id="arrowDown" xlink:href="#dirArrow" transform="rotate(180) translate(-30 -48)" onmousedown="handlePan(0,1)">
                  <use xlink:href="#rim" fill="#404040">
                        <set attributeName="fill" to="#808080" begin="arrowDown.mouseover" end="arrowDown.mouseout"/>
                  </use>
                  <path fill="none" stroke="white" stroke-width="1.5" d="M0,-3.0v7 M-2.5,-0.5L0,-3.0L2.5,-0.5"/>
                </g>
                <g id="arrowLeft" xlink:href="#dirArrow" transform="rotate(270) translate(-36 17)" onmousedown="handlePan(-1,0)">
                  <use xlink:href="#rim" fill="#404040">
                        <set attributeName="fill" to="#808080" begin="arrowLeft.mouseover" end="arrowLeft.mouseout"/>
                  </use>
                  <path fill="none" stroke="white" stroke-width="1.5" d="M0,-3.0v7 M-2.5,-0.5L0,-3.0L2.5,-0.5"/>
                </g>
        </g>
        <svg viewBox="0 0 15 15" width="100%" height="30px" preserveAspectRatio="xMaxYMin meet">
         <g id="arrow_out" transform="scale(0.3 0.3)">
          <a xlink:href="classamunmt_1_1Config_aa7e531efa35245ae0dd6ccbe02e98006_cgraph_org.svg" target="_base">
           <rect id="button" ry="5" rx="5" y="6" x="6" height="38" width="38"
                fill="#f2f5e9" fill-opacity="0.5" stroke="#606060" stroke-width="1.0"/>
           <path id="arrow"
             d="M 11.500037,31.436501 C 11.940474,20.09759 22.043105,11.32322 32.158766,21.979434 L 37.068811,17.246167 C 37.068811,17.246167 37.088388,32 37.088388,32 L 22.160133,31.978069 C 22.160133,31.978069 26.997745,27.140456 26.997745,27.140456 C 18.528582,18.264221 13.291696,25.230495 11.500037,31.436501 z"
             style="fill:#404040;"/>
          </a>
         </g>
        </svg>
</svg>
