<?xml version="1.0" encoding="UTF-8" standalone="no"?>
<!DOCTYPE svg PUBLIC "-//W3C//DTD SVG 1.1//EN"
 "http://www.w3.org/Graphics/SVG/1.1/DTD/svg11.dtd">
<!-- Generated by graphviz version 2.38.0 (20140413.2041)
 -->
<!-- Title: amunmt::Config::AddOptions Pages: 1 -->
<!--zoomable 382 -->
<svg id="main" version="1.1" xmlns="http://www.w3.org/2000/svg" xmlns:xlink="http://www.w3.org/1999/xlink" xml:space="preserve" onload="init(evt)">
<style type="text/css"><![CDATA[
.edge:hover path { stroke: red; }
.edge:hover polygon { stroke: red; fill: red; }
]]></style>
<script type="text/javascript"><![CDATA[
var edges = document.getElementsByTagName('g');
if (edges && edges.length) {
  for (var i=0;i<edges.length;i++) {
    if (edges[i].id.substr(0,4)=='edge') {
      edges[i].setAttribute('class','edge');
    }
  }
}
]]></script>
        <defs>
                <circle id="rim" cx="0" cy="0" r="7"/>
                <circle id="rim2" cx="0" cy="0" r="3.5"/>
                <g id="zoomPlus">
                        <use xlink:href="#rim" fill="#404040">
                                <set attributeName="fill" to="#808080" begin="zoomplus.mouseover" end="zoomplus.mouseout"/>
                        </use>
                        <path d="M-4,0h8M0,-4v8" fill="none" stroke="white" stroke-width="1.5" pointer-events="none"/>
                </g>
                <g id="zoomMin">
                        <use xlink:href="#rim" fill="#404040">
                                <set attributeName="fill" to="#808080" begin="zoomminus.mouseover" end="zoomminus.mouseout"/>
                        </use>
                        <path d="M-4,0h8" fill="none" stroke="white" stroke-width="1.5" pointer-events="none"/>
                </g>
                <g id="dirArrow">
                        <path fill="none" stroke="white" stroke-width="1.5" d="M0,-3.0v7 M-2.5,-0.5L0,-3.0L2.5,-0.5"/>
                </g>
               <g id="resetDef">
                       <use xlink:href="#rim2" fill="#404040">
                               <set attributeName="fill" to="#808080" begin="reset.mouseover" end="reset.mouseout"/>
                       </use>
               </g>
        </defs>

<script type="text/javascript">
var viewWidth = 507;
var viewHeight = 382;
var sectionId = 'dynsection-1';
</script>
<script xlink:href="../../svgpan.js"/>
<svg id="graph" class="graph">
<g id="viewport">
<title>amunmt::Config::AddOptions</title>
<polygon fill="white" stroke="none" points="-4,4 -4,-378 503,-378 503,4 -4,4"/>
<!-- Node1 -->
<g id="node1" class="node"><title>Node1</title>
<polygon fill="#bfbfbf" stroke="black" points="0,-183.5 0,-202.5 143,-202.5 143,-183.5 0,-183.5"/>
<text text-anchor="middle" x="71.5" y="-190.5" font-family="Helvetica,sans-Serif" font-size="10.00">amunmt::Config::AddOptions</text>
</g>
<!-- Node2 -->
<g id="node2" class="node"><title>Node2</title>
<g id="a_node2"><a xlink:href="../../da/d4e/classamunmt_1_1Config.html#aea1c78c5d37a811d86d8b49b8dac94d1" target="_top" xlink:title="amunmt::Config::Has">
<polygon fill="white" stroke="black" points="206,-354.5 206,-373.5 316,-373.5 316,-354.5 206,-354.5"/>
<text text-anchor="middle" x="261" y="-361.5" font-family="Helvetica,sans-Serif" font-size="10.00">amunmt::Config::Has</text>
</a>
</g>
</g>
<!-- Node1&#45;&gt;Node2 -->
<g id="edge1" class="edge"><title>Node1&#45;&gt;Node2</title>
<path fill="none" stroke="midnightblue" d="M76.3117,-202.672C87.5378,-229.829 123.23,-307.253 179,-345 184.259,-348.56 190.102,-351.457 196.171,-353.815"/>
<polygon fill="midnightblue" stroke="midnightblue" points="195.251,-357.199 205.846,-357.093 197.498,-350.569 195.251,-357.199"/>
</g>
<!-- Node3 -->
<g id="node3" class="node"><title>Node3</title>
<g id="a_node3"><a xlink:href="../../d7/dd3/namespaceamunmt.html#a18aa660f48877e9279fb9e91dee85ce2" target="_top" xlink:title="amunmt::LoadWeights">
<polygon fill="white" stroke="black" points="203.5,-316.5 203.5,-335.5 318.5,-335.5 318.5,-316.5 203.5,-316.5"/>
<text text-anchor="middle" x="261" y="-323.5" font-family="Helvetica,sans-Serif" font-size="10.00">amunmt::LoadWeights</text>
</a>
</g>
</g>
<!-- Node1&#45;&gt;Node3 -->
<g id="edge2" class="edge"><title>Node1&#45;&gt;Node3</title>
<path fill="none" stroke="midnightblue" d="M78.6115,-202.747C93.1029,-225 131.889,-279.719 179,-307 183.687,-309.714 188.74,-312.041 193.949,-314.036"/>
<polygon fill="midnightblue" stroke="midnightblue" points="192.857,-317.361 203.451,-317.279 195.118,-310.737 192.857,-317.361"/>
</g>
<!-- Node4 -->
<g id="node4" class="node"><title>Node4</title>
<g id="a_node4"><a xlink:href="../../d7/dd3/namespaceamunmt.html#a223f2f561452f574093618cd336c43de" target="_top" xlink:title="amunmt::OverwriteModels">
<polygon fill="white" stroke="black" points="195.5,-278.5 195.5,-297.5 326.5,-297.5 326.5,-278.5 195.5,-278.5"/>
<text text-anchor="middle" x="261" y="-285.5" font-family="Helvetica,sans-Serif" font-size="10.00">amunmt::OverwriteModels</text>
</a>
</g>
</g>
<!-- Node1&#45;&gt;Node4 -->
<g id="edge3" class="edge"><title>Node1&#45;&gt;Node4</title>
<path fill="none" stroke="midnightblue" d="M82.8163,-202.51C100.897,-218.657 140.097,-251.388 179,-269 184.395,-271.442 190.14,-273.59 195.983,-275.474"/>
<polygon fill="midnightblue" stroke="midnightblue" points="195.285,-278.918 205.868,-278.402 197.274,-272.206 195.285,-278.918"/>
</g>
<!-- Node5 -->
<g id="node5" class="node"><title>Node5</title>
<g id="a_node5"><a xlink:href="../../d7/dd3/namespaceamunmt.html#a343a63d53ad92c670141e5740f3eab7a" target="_top" xlink:title="amunmt::OverwriteSourceVocabs">
<polygon fill="white" stroke="black" points="179,-240.5 179,-259.5 343,-259.5 343,-240.5 179,-240.5"/>
<text text-anchor="middle" x="261" y="-247.5" font-family="Helvetica,sans-Serif" font-size="10.00">amunmt::OverwriteSourceVocabs</text>
</a>
</g>
</g>
<!-- Node1&#45;&gt;Node5 -->
<g id="edge4" class="edge"><title>Node1&#45;&gt;Node5</title>
<path fill="none" stroke="midnightblue" d="M96.7773,-202.543C118.199,-210.751 150.377,-222.566 179,-231 187.456,-233.492 196.484,-235.875 205.33,-238.061"/>
<polygon fill="midnightblue" stroke="midnightblue" points="204.659,-241.499 215.201,-240.439 206.299,-234.694 204.659,-241.499"/>
</g>
<!-- Node6 -->
<g id="node6" class="node"><title>Node6</title>
<g id="a_node6"><a xlink:href="../../d7/dd3/namespaceamunmt.html#a1b4b3e3a5cfcb79de4fd92c34e3fa4e3" target="_top" xlink:title="amunmt::OverwriteTargetVocab">
<polygon fill="white" stroke="black" points="183.5,-202.5 183.5,-221.5 338.5,-221.5 338.5,-202.5 183.5,-202.5"/>
<text text-anchor="middle" x="261" y="-209.5" font-family="Helvetica,sans-Serif" font-size="10.00">amunmt::OverwriteTargetVocab</text>
</a>
</g>
</g>
<!-- Node1&#45;&gt;Node6 -->
<g id="edge5" class="edge"><title>Node1&#45;&gt;Node6</title>
<path fill="none" stroke="midnightblue" d="M143.119,-200.156C153.006,-201.158 163.26,-202.197 173.402,-203.225"/>
<polygon fill="midnightblue" stroke="midnightblue" points="173.187,-206.721 183.489,-204.247 173.893,-199.756 173.187,-206.721"/>
</g>
<!-- Node7 -->
<g id="node7" class="node"><title>Node7</title>
<g id="a_node7"><a xlink:href="../../d7/dd3/namespaceamunmt.html#a3d7f2e636dd3e33b80855722d08f9a18" target="_top" xlink:title="amunmt::OverwriteBPE">
<polygon fill="white" stroke="black" points="201,-164.5 201,-183.5 321,-183.5 321,-164.5 201,-164.5"/>
<text text-anchor="middle" x="261" y="-171.5" font-family="Helvetica,sans-Serif" font-size="10.00">amunmt::OverwriteBPE</text>
</a>
</g>
</g>
<!-- Node1&#45;&gt;Node7 -->
<g id="edge6" class="edge"><title>Node1&#45;&gt;Node7</title>
<path fill="none" stroke="midnightblue" d="M143.119,-185.844C158.702,-184.265 175.195,-182.594 190.725,-181.02"/>
<polygon fill="midnightblue" stroke="midnightblue" points="191.176,-184.492 200.772,-180.002 190.47,-177.528 191.176,-184.492"/>
</g>
<!-- Node8 -->
<g id="node8" class="node"><title>Node8</title>
<g id="a_node8"><a xlink:href="../../d7/dd3/namespaceamunmt.html#aa294dffea2547350d8ba90401bbe85d1" target="_top" xlink:title="amunmt::ProcessPaths">
<polygon fill="white" stroke="black" points="201.5,-126.5 201.5,-145.5 320.5,-145.5 320.5,-126.5 201.5,-126.5"/>
<text text-anchor="middle" x="261" y="-133.5" font-family="Helvetica,sans-Serif" font-size="10.00">amunmt::ProcessPaths</text>
</a>
</g>
</g>
<!-- Node1&#45;&gt;Node8 -->
<g id="edge7" class="edge"><title>Node1&#45;&gt;Node8</title>
<path fill="none" stroke="midnightblue" d="M96.7773,-183.457C118.199,-175.249 150.377,-163.434 179,-155 187.456,-152.508 196.484,-150.125 205.33,-147.939"/>
<polygon fill="midnightblue" stroke="midnightblue" points="206.299,-151.306 215.201,-145.561 204.659,-144.501 206.299,-151.306"/>
</g>
<!-- Node9 -->
<g id="node9" class="node"><title>Node9</title>
<g id="a_node9"><a xlink:href="../../d7/dd3/namespaceamunmt.html#ad51b66163a1437dc0ffd4aedbb0bd067" target="_top" xlink:title="amunmt::Validate">
<polygon fill="white" stroke="black" points="214.5,-88.5 214.5,-107.5 307.5,-107.5 307.5,-88.5 214.5,-88.5"/>
<text text-anchor="middle" x="261" y="-95.5" font-family="Helvetica,sans-Serif" font-size="10.00">amunmt::Validate</text>
</a>
</g>
</g>
<!-- Node1&#45;&gt;Node9 -->
<g id="edge8" class="edge"><title>Node1&#45;&gt;Node9</title>
<path fill="none" stroke="midnightblue" d="M82.8163,-183.49C100.897,-167.343 140.097,-134.612 179,-117 187.031,-113.364 195.836,-110.382 204.591,-107.949"/>
<polygon fill="midnightblue" stroke="midnightblue" points="205.593,-111.305 214.409,-105.429 203.852,-104.525 205.593,-111.305"/>
</g>
<!-- Node10 -->
<g id="node10" class="node"><title>Node10</title>
<g id="a_node10"><a xlink:href="../../da/d08/classamunmt_1_1util_1_1Exception.html#aebd0e9aca70ad9db18a9c024242fe0de" target="_top" xlink:title="amunmt::util::Exception\l::what">
<polygon fill="white" stroke="black" points="201,-39 201,-69 321,-69 321,-39 201,-39"/>
<text text-anchor="start" x="209" y="-57" font-family="Helvetica,sans-Serif" font-size="10.00">amunmt::util::Exception</text>
<text text-anchor="middle" x="261" y="-46" font-family="Helvetica,sans-Serif" font-size="10.00">::what</text>
</a>
</g>
</g>
<!-- Node1&#45;&gt;Node10 -->
<g id="edge9" class="edge"><title>Node1&#45;&gt;Node10</title>
<path fill="none" stroke="midnightblue" d="M78.7457,-183.475C93.5191,-161.691 132.858,-107.889 179,-79 182.894,-76.5619 187.043,-74.3466 191.327,-72.3361"/>
<polygon fill="midnightblue" stroke="midnightblue" points="193.054,-75.4041 200.873,-68.2549 190.303,-68.9677 193.054,-75.4041"/>
</g>
<!-- Node12 -->
<g id="node12" class="node"><title>Node12</title>
<g id="a_node12"><a xlink:href="../../d7/dd3/namespaceamunmt.html#aef479ee5514fb431474e91580190fd39" target="_top" xlink:title="amunmt::OutputRec">
<polygon fill="white" stroke="black" points="208.5,-0.5 208.5,-19.5 313.5,-19.5 313.5,-0.5 208.5,-0.5"/>
<text text-anchor="middle" x="261" y="-7.5" font-family="Helvetica,sans-Serif" font-size="10.00">amunmt::OutputRec</text>
</a>
</g>
</g>
<!-- Node1&#45;&gt;Node12 -->
<g id="edge11" class="edge"><title>Node1&#45;&gt;Node12</title>
<path fill="none" stroke="midnightblue" d="M75.823,-183.487C86.1997,-155.241 120.828,-71.2718 179,-30 184.929,-25.7935 191.646,-22.4677 198.615,-19.8389"/>
<polygon fill="midnightblue" stroke="midnightblue" points="199.824,-23.1258 208.223,-16.6689 197.63,-16.4783 199.824,-23.1258"/>
</g>
<!-- Node11 -->
<g id="node11" class="node"><title>Node11</title>
<g id="a_node11"><a xlink:href="../../da/d08/classamunmt_1_1util_1_1Exception.html#a09d9f9239f89076d5f72e5b2be946896" target="_top" xlink:title="amunmt::util::Exception\l::SetLocation">
<polygon fill="white" stroke="black" points="379,-39 379,-69 499,-69 499,-39 379,-39"/>
<text text-anchor="start" x="387" y="-57" font-family="Helvetica,sans-Serif" font-size="10.00">amunmt::util::Exception</text>
<text text-anchor="middle" x="439" y="-46" font-family="Helvetica,sans-Serif" font-size="10.00">::SetLocation</text>
</a>
</g>
</g>
<!-- Node10&#45;&gt;Node11 -->
<g id="edge10" class="edge"><title>Node10&#45;&gt;Node11</title>
<path fill="none" stroke="midnightblue" d="M321.095,-54C336.332,-54 352.869,-54 368.579,-54"/>
<polygon fill="midnightblue" stroke="midnightblue" points="368.761,-57.5001 378.761,-54 368.761,-50.5001 368.761,-57.5001"/>
</g>
</g>
</svg>
        <g id="navigator" transform="translate(0 0)" fill="#404254">
                <rect fill="#f2f5e9" fill-opacity="0.5" stroke="#606060" stroke-width=".5" x="0" y="0" width="60" height="60"/>
                <use id="zoomplus" xlink:href="#zoomPlus" x="17" y="9" onmousedown="handleZoom(evt,'in')"/>
                <use id="zoomminus" xlink:href="#zoomMin" x="42" y="9" onmousedown="handleZoom(evt,'out')"/>
                <use id="reset" xlink:href="#resetDef" x="30" y="36" onmousedown="handleReset()"/>
                <g id="arrowUp" xlink:href="#dirArrow" transform="translate(30 24)" onmousedown="handlePan(0,-1)">
                  <use xlink:href="#rim" fill="#404040">
                        <set attributeName="fill" to="#808080" begin="arrowUp.mouseover" end="arrowUp.mouseout"/>
                  </use>
                  <path fill="none" stroke="white" stroke-width="1.5" d="M0,-3.0v7 M-2.5,-0.5L0,-3.0L2.5,-0.5"/>
                </g>
                <g id="arrowRight" xlink:href="#dirArrow" transform="rotate(90) translate(36 -43)" onmousedown="handlePan(1,0)">
                  <use xlink:href="#rim" fill="#404040">
                        <set attributeName="fill" to="#808080" begin="arrowRight.mouseover" end="arrowRight.mouseout"/>
                  </use>
                  <path fill="none" stroke="white" stroke-width="1.5" d="M0,-3.0v7 M-2.5,-0.5L0,-3.0L2.5,-0.5"/>
                </g>
                <g id="arrowDown" xlink:href="#dirArrow" transform="rotate(180) translate(-30 -48)" onmousedown="handlePan(0,1)">
                  <use xlink:href="#rim" fill="#404040">
                        <set attributeName="fill" to="#808080" begin="arrowDown.mouseover" end="arrowDown.mouseout"/>
                  </use>
                  <path fill="none" stroke="white" stroke-width="1.5" d="M0,-3.0v7 M-2.5,-0.5L0,-3.0L2.5,-0.5"/>
                </g>
                <g id="arrowLeft" xlink:href="#dirArrow" transform="rotate(270) translate(-36 17)" onmousedown="handlePan(-1,0)">
                  <use xlink:href="#rim" fill="#404040">
                        <set attributeName="fill" to="#808080" begin="arrowLeft.mouseover" end="arrowLeft.mouseout"/>
                  </use>
                  <path fill="none" stroke="white" stroke-width="1.5" d="M0,-3.0v7 M-2.5,-0.5L0,-3.0L2.5,-0.5"/>
                </g>
        </g>
        <svg viewBox="0 0 15 15" width="100%" height="30px" preserveAspectRatio="xMaxYMin meet">
         <g id="arrow_out" transform="scale(0.3 0.3)">
          <a xlink:href="classamunmt_1_1Config_ae621721651f919b18e8719a6f30ad568_cgraph_org.svg" target="_base">
           <rect id="button" ry="5" rx="5" y="6" x="6" height="38" width="38"
                fill="#f2f5e9" fill-opacity="0.5" stroke="#606060" stroke-width="1.0"/>
           <path id="arrow"
             d="M 11.500037,31.436501 C 11.940474,20.09759 22.043105,11.32322 32.158766,21.979434 L 37.068811,17.246167 C 37.068811,17.246167 37.088388,32 37.088388,32 L 22.160133,31.978069 C 22.160133,31.978069 26.997745,27.140456 26.997745,27.140456 C 18.528582,18.264221 13.291696,25.230495 11.500037,31.436501 z"
             style="fill:#404040;"/>
          </a>
         </g>
        </svg>
</svg>
