<?xml version="1.0" encoding="UTF-8" standalone="no"?>
<!DOCTYPE svg PUBLIC "-//W3C//DTD SVG 1.1//EN"
 "http://www.w3.org/Graphics/SVG/1.1/DTD/svg11.dtd">
<!-- Generated by graphviz version 2.38.0 (20140413.2041)
 -->
<!-- Title: marian::FilterInfo Pages: 1 -->
<svg width="141pt" height="237pt"
 viewBox="0.00 0.00 141.00 237.00" xmlns="http://www.w3.org/2000/svg" xmlns:xlink="http://www.w3.org/1999/xlink">
<g id="graph0" class="graph" transform="scale(1 1) rotate(0) translate(4 233)">
<title>marian::FilterInfo</title>
<polygon fill="white" stroke="none" points="-4,4 -4,-233 137,-233 137,4 -4,4"/>
<!-- Node1 -->
<g id="node1" class="node"><title>Node1</title>
<polygon fill="#bfbfbf" stroke="black" points="1.5,-0.5 1.5,-101.5 102.5,-101.5 102.5,-0.5 1.5,-0.5"/>
<text text-anchor="middle" x="52" y="-89.5" font-family="Helvetica,sans-Serif" font-size="10.00">marian::FilterInfo</text>
<polyline fill="none" stroke="black" points="1.5,-82.5 102.5,-82.5 "/>
<text text-anchor="start" x="9.5" y="-70.5" font-family="Helvetica,sans-Serif" font-size="10.00">&#45; probs_</text>
<polyline fill="none" stroke="black" points="1.5,-63.5 102.5,-63.5 "/>
<text text-anchor="start" x="9.5" y="-51.5" font-family="Helvetica,sans-Serif" font-size="10.00">+ FilterInfo()</text>
<text text-anchor="start" x="9.5" y="-40.5" font-family="Helvetica,sans-Serif" font-size="10.00">+ indeces()</text>
<text text-anchor="start" x="9.5" y="-29.5" font-family="Helvetica,sans-Serif" font-size="10.00">+ mappedIndeces()</text>
<text text-anchor="start" x="9.5" y="-18.5" font-family="Helvetica,sans-Serif" font-size="10.00">+ reverseMap()</text>
<text text-anchor="start" x="9.5" y="-7.5" font-family="Helvetica,sans-Serif" font-size="10.00">+ probs()</text>
</g>
<!-- Node2 -->
<g id="node2" class="node"><title>Node2</title>
<polygon fill="white" stroke="#bfbfbf" points="0,-171.5 0,-228.5 104,-228.5 104,-171.5 0,-171.5"/>
<text text-anchor="middle" x="52" y="-216.5" font-family="Helvetica,sans-Serif" font-size="10.00">std::vector&lt; Word &gt;</text>
<polyline fill="none" stroke="#bfbfbf" points="0,-209.5 104,-209.5 "/>
<text text-anchor="middle" x="52" y="-197.5" font-family="Helvetica,sans-Serif" font-size="10.00"> </text>
<polyline fill="none" stroke="#bfbfbf" points="0,-190.5 104,-190.5 "/>
<text text-anchor="middle" x="52" y="-178.5" font-family="Helvetica,sans-Serif" font-size="10.00"> </text>
</g>
<!-- Node2&#45;&gt;Node1 -->
<g id="edge1" class="edge"><title>Node2&#45;&gt;Node1</title>
<path fill="none" stroke="#404040" d="M52,-171.35C52,-155.096 52,-133.861 52,-113.815"/>
<polygon fill="none" stroke="#404040" points="52.0001,-113.543 48,-107.543 52,-101.543 56,-107.543 52.0001,-113.543"/>
<text text-anchor="middle" x="92.5" y="-145" font-family="Helvetica,sans-Serif" font-size="10.00"> &#45;mappedIndeces_</text>
<text text-anchor="middle" x="92.5" y="-134" font-family="Helvetica,sans-Serif" font-size="10.00">&#45;indeces_</text>
<text text-anchor="middle" x="92.5" y="-123" font-family="Helvetica,sans-Serif" font-size="10.00">&#45;reverseMap_</text>
</g>
</g>
</svg>
