<?xml version="1.0" encoding="UTF-8" standalone="no"?>
<!DOCTYPE svg PUBLIC "-//W3C//DTD SVG 1.1//EN"
 "http://www.w3.org/Graphics/SVG/1.1/DTD/svg11.dtd">
<!-- Generated by graphviz version 2.38.0 (20140413.2041)
 -->
<!-- Title: marian::TensorBase::scalar Pages: 1 -->
<svg width="413pt" height="39pt"
 viewBox="0.00 0.00 413.00 39.00" xmlns="http://www.w3.org/2000/svg" xmlns:xlink="http://www.w3.org/1999/xlink">
<g id="graph0" class="graph" transform="scale(1 1) rotate(0) translate(4 35)">
<title>marian::TensorBase::scalar</title>
<polygon fill="white" stroke="none" points="-4,4 -4,-35 409,-35 409,4 -4,4"/>
<!-- Node1 -->
<g id="node1" class="node"><title>Node1</title>
<polygon fill="#bfbfbf" stroke="black" points="0,-0.5 0,-30.5 104,-30.5 104,-0.5 0,-0.5"/>
<text text-anchor="start" x="8" y="-18.5" font-family="Helvetica,sans-Serif" font-size="10.00">marian::TensorBase</text>
<text text-anchor="middle" x="52" y="-7.5" font-family="Helvetica,sans-Serif" font-size="10.00">::scalar</text>
</g>
<!-- Node2 -->
<g id="node2" class="node"><title>Node2</title>
<g id="a_node2"><a xlink:href="../../dd/d3c/classmarian_1_1TensorBase.html#ae4a6d6a80b85704484a5f21b9c1506d0" target="_top" xlink:title="marian::TensorBase\l::size">
<polygon fill="white" stroke="black" points="140,-0.5 140,-30.5 244,-30.5 244,-0.5 140,-0.5"/>
<text text-anchor="start" x="148" y="-18.5" font-family="Helvetica,sans-Serif" font-size="10.00">marian::TensorBase</text>
<text text-anchor="middle" x="192" y="-7.5" font-family="Helvetica,sans-Serif" font-size="10.00">::size</text>
</a>
</g>
</g>
<!-- Node1&#45;&gt;Node2 -->
<g id="edge1" class="edge"><title>Node1&#45;&gt;Node2</title>
<path fill="none" stroke="midnightblue" d="M104.386,-15.5C112.558,-15.5 121.083,-15.5 129.46,-15.5"/>
<polygon fill="midnightblue" stroke="midnightblue" points="129.571,-19.0001 139.571,-15.5 129.571,-12.0001 129.571,-19.0001"/>
</g>
<!-- Node3 -->
<g id="node3" class="node"><title>Node3</title>
<g id="a_node3"><a xlink:href="../../d5/d54/structmarian_1_1Shape.html#ac5b429b8024a6de2e2b4c089757f398f" target="_top" xlink:title="Gets the total number of elements in a tensor of this shape. ">
<polygon fill="white" stroke="black" points="280,-6 280,-25 405,-25 405,-6 280,-6"/>
<text text-anchor="middle" x="342.5" y="-13" font-family="Helvetica,sans-Serif" font-size="10.00">marian::Shape::elements</text>
</a>
</g>
</g>
<!-- Node2&#45;&gt;Node3 -->
<g id="edge2" class="edge"><title>Node2&#45;&gt;Node3</title>
<path fill="none" stroke="midnightblue" d="M244.105,-15.5C252.367,-15.5 261.053,-15.5 269.695,-15.5"/>
<polygon fill="midnightblue" stroke="midnightblue" points="269.791,-19.0001 279.791,-15.5 269.791,-12.0001 269.791,-19.0001"/>
</g>
</g>
</svg>
