<?xml version="1.0" encoding="UTF-8" standalone="no"?>
<!DOCTYPE svg PUBLIC "-//W3C//DTD SVG 1.1//EN"
 "http://www.w3.org/Graphics/SVG/1.1/DTD/svg11.dtd">
<!-- Generated by graphviz version 2.38.0 (20140413.2041)
 -->
<!-- Title: marian::TensorBase::size Pages: 1 -->
<svg width="271pt" height="214pt"
 viewBox="0.00 0.00 271.00 214.00" xmlns="http://www.w3.org/2000/svg" xmlns:xlink="http://www.w3.org/1999/xlink">
<g id="graph0" class="graph" transform="scale(1 1) rotate(0) translate(4 210)">
<title>marian::TensorBase::size</title>
<polygon fill="white" stroke="none" points="-4,4 -4,-210 267,-210 267,4 -4,4"/>
<!-- Node1 -->
<g id="node1" class="node"><title>Node1</title>
<polygon fill="#bfbfbf" stroke="black" points="0,-82.5 0,-112.5 104,-112.5 104,-82.5 0,-82.5"/>
<text text-anchor="start" x="8" y="-100.5" font-family="Helvetica,sans-Serif" font-size="10.00">marian::TensorBase</text>
<text text-anchor="middle" x="52" y="-89.5" font-family="Helvetica,sans-Serif" font-size="10.00">::size</text>
</g>
<!-- Node2 -->
<g id="node2" class="node"><title>Node2</title>
<g id="a_node2"><a xlink:href="../../dd/d3c/classmarian_1_1TensorBase.html#aa627fcb0c643d0ef671973ca2c9ecd3b" target="_top" xlink:title="marian::TensorBase\l::scalar">
<polygon fill="white" stroke="black" points="149.5,-175.5 149.5,-205.5 253.5,-205.5 253.5,-175.5 149.5,-175.5"/>
<text text-anchor="start" x="157.5" y="-193.5" font-family="Helvetica,sans-Serif" font-size="10.00">marian::TensorBase</text>
<text text-anchor="middle" x="201.5" y="-182.5" font-family="Helvetica,sans-Serif" font-size="10.00">::scalar</text>
</a>
</g>
</g>
<!-- Node1&#45;&gt;Node2 -->
<g id="edge1" class="edge"><title>Node1&#45;&gt;Node2</title>
<path fill="none" stroke="midnightblue" d="M76.6011,-119.365C93.3632,-134.077 116.907,-153.152 140,-166.5 145.576,-169.723 151.669,-172.701 157.771,-175.383"/>
<polygon fill="midnightblue" stroke="midnightblue" points="78.7407,-116.583 68.9489,-112.537 74.0803,-121.806 78.7407,-116.583"/>
</g>
<!-- Node3 -->
<g id="node3" class="node"><title>Node3</title>
<g id="a_node3"><a xlink:href="../../dd/d3c/classmarian_1_1TensorBase.html#ac2b98828c27c5900889acab2c6887ae0" target="_top" xlink:title="marian::TensorBase\l::subtensor">
<polygon fill="white" stroke="black" points="149.5,-126.5 149.5,-156.5 253.5,-156.5 253.5,-126.5 149.5,-126.5"/>
<text text-anchor="start" x="157.5" y="-144.5" font-family="Helvetica,sans-Serif" font-size="10.00">marian::TensorBase</text>
<text text-anchor="middle" x="201.5" y="-133.5" font-family="Helvetica,sans-Serif" font-size="10.00">::subtensor</text>
</a>
</g>
</g>
<!-- Node1&#45;&gt;Node3 -->
<g id="edge2" class="edge"><title>Node1&#45;&gt;Node3</title>
<path fill="none" stroke="midnightblue" d="M113.075,-115.421C125.378,-119.091 138.208,-122.918 150.128,-126.474"/>
<polygon fill="midnightblue" stroke="midnightblue" points="113.932,-112.024 103.349,-112.519 111.931,-118.732 113.932,-112.024"/>
</g>
<!-- Node4 -->
<g id="node4" class="node"><title>Node4</title>
<g id="a_node4"><a xlink:href="../../d0/d5b/classmarian_1_1TensorCPU.html#a783de048c2d0a6400359bac0f3268080" target="_top" xlink:title="marian::TensorCPU::get">
<polygon fill="white" stroke="black" points="140,-88 140,-107 263,-107 263,-88 140,-88"/>
<text text-anchor="middle" x="201.5" y="-95" font-family="Helvetica,sans-Serif" font-size="10.00">marian::TensorCPU::get</text>
</a>
</g>
</g>
<!-- Node1&#45;&gt;Node4 -->
<g id="edge3" class="edge"><title>Node1&#45;&gt;Node4</title>
<path fill="none" stroke="midnightblue" d="M114.304,-97.5C122.724,-97.5 131.367,-97.5 139.776,-97.5"/>
<polygon fill="midnightblue" stroke="midnightblue" points="114.174,-94.0001 104.174,-97.5 114.174,-101 114.174,-94.0001"/>
</g>
<!-- Node5 -->
<g id="node5" class="node"><title>Node5</title>
<g id="a_node5"><a xlink:href="../../d0/d5b/classmarian_1_1TensorCPU.html#ac5ce20b62588fe95e38d2edaa2fb3c5b" target="_top" xlink:title="marian::TensorCPU::set">
<polygon fill="white" stroke="black" points="140,-50 140,-69 263,-69 263,-50 140,-50"/>
<text text-anchor="middle" x="201.5" y="-57" font-family="Helvetica,sans-Serif" font-size="10.00">marian::TensorCPU::set</text>
</a>
</g>
</g>
<!-- Node1&#45;&gt;Node5 -->
<g id="edge4" class="edge"><title>Node1&#45;&gt;Node5</title>
<path fill="none" stroke="midnightblue" d="M113.918,-81.806C130.692,-77.4846 148.379,-72.9278 163.364,-69.0672"/>
<polygon fill="midnightblue" stroke="midnightblue" points="112.985,-78.4319 104.174,-84.3161 114.731,-85.2105 112.985,-78.4319"/>
</g>
<!-- Node6 -->
<g id="node6" class="node"><title>Node6</title>
<g id="a_node6"><a xlink:href="../../d6/d2d/classmarian_1_1DeviceCPU.html#abdcf01c5e5c8e4aa89f8a16fc6c357e6" target="_top" xlink:title="marian::DeviceCPU::\lreserve">
<polygon fill="white" stroke="black" points="146.5,-0.5 146.5,-30.5 256.5,-30.5 256.5,-0.5 146.5,-0.5"/>
<text text-anchor="start" x="154.5" y="-18.5" font-family="Helvetica,sans-Serif" font-size="10.00">marian::DeviceCPU::</text>
<text text-anchor="middle" x="201.5" y="-7.5" font-family="Helvetica,sans-Serif" font-size="10.00">reserve</text>
</a>
</g>
</g>
<!-- Node1&#45;&gt;Node6 -->
<g id="edge5" class="edge"><title>Node1&#45;&gt;Node6</title>
<path fill="none" stroke="midnightblue" d="M82.3996,-76.2451C98.8735,-64.8508 120.061,-51.031 140,-40.5 146.633,-36.9969 153.866,-33.6384 160.951,-30.5828"/>
<polygon fill="midnightblue" stroke="midnightblue" points="79.9528,-73.6857 73.7702,-82.2895 83.9688,-79.4191 79.9528,-73.6857"/>
</g>
</g>
</svg>
