<?xml version="1.0" encoding="UTF-8" standalone="no"?>
<!DOCTYPE svg PUBLIC "-//W3C//DTD SVG 1.1//EN"
 "http://www.w3.org/Graphics/SVG/1.1/DTD/svg11.dtd">
<!-- Generated by graphviz version 2.38.0 (20140413.2041)
 -->
<!-- Title: marian::TensorBase::subtensor Pages: 1 -->
<svg width="413pt" height="274pt"
 viewBox="0.00 0.00 413.00 273.50" xmlns="http://www.w3.org/2000/svg" xmlns:xlink="http://www.w3.org/1999/xlink">
<g id="graph0" class="graph" transform="scale(1 1) rotate(0) translate(4 269.5)">
<title>marian::TensorBase::subtensor</title>
<polygon fill="white" stroke="none" points="-4,4 -4,-269.5 409,-269.5 409,4 -4,4"/>
<!-- Node1 -->
<g id="node1" class="node"><title>Node1</title>
<polygon fill="#bfbfbf" stroke="black" points="0,-112 0,-142 104,-142 104,-112 0,-112"/>
<text text-anchor="start" x="8" y="-130" font-family="Helvetica,sans-Serif" font-size="10.00">marian::TensorBase</text>
<text text-anchor="middle" x="52" y="-119" font-family="Helvetica,sans-Serif" font-size="10.00">::subtensor</text>
</g>
<!-- Node2 -->
<g id="node2" class="node"><title>Node2</title>
<g id="a_node2"><a xlink:href="../../dd/d3c/classmarian_1_1TensorBase.html#ae4a6d6a80b85704484a5f21b9c1506d0" target="_top" xlink:title="marian::TensorBase\l::size">
<polygon fill="white" stroke="black" points="140,-235 140,-265 244,-265 244,-235 140,-235"/>
<text text-anchor="start" x="148" y="-253" font-family="Helvetica,sans-Serif" font-size="10.00">marian::TensorBase</text>
<text text-anchor="middle" x="192" y="-242" font-family="Helvetica,sans-Serif" font-size="10.00">::size</text>
</a>
</g>
</g>
<!-- Node1&#45;&gt;Node2 -->
<g id="edge1" class="edge"><title>Node1&#45;&gt;Node2</title>
<path fill="none" stroke="midnightblue" d="M63.2428,-142.153C78.1038,-163.22 107.45,-201.52 140,-226 141.779,-227.338 143.645,-228.628 145.568,-229.867"/>
<polygon fill="midnightblue" stroke="midnightblue" points="143.876,-232.933 154.273,-234.974 147.418,-226.895 143.876,-232.933"/>
</g>
<!-- Node4 -->
<g id="node4" class="node"><title>Node4</title>
<g id="a_node4"><a xlink:href="../../dd/d3c/classmarian_1_1TensorBase.html#a1542be522ca1bdfb1c314580859b8982" target="_top" xlink:title="marian::TensorBase\l::TensorBase">
<polygon fill="white" stroke="black" points="140,-186 140,-216 244,-216 244,-186 140,-186"/>
<text text-anchor="start" x="148" y="-204" font-family="Helvetica,sans-Serif" font-size="10.00">marian::TensorBase</text>
<text text-anchor="middle" x="192" y="-193" font-family="Helvetica,sans-Serif" font-size="10.00">::TensorBase</text>
</a>
</g>
</g>
<!-- Node1&#45;&gt;Node4 -->
<g id="edge3" class="edge"><title>Node1&#45;&gt;Node4</title>
<path fill="none" stroke="midnightblue" d="M78.2019,-142.213C95.4103,-152.42 118.838,-165.963 140,-177 142.863,-178.493 145.836,-180 148.842,-181.493"/>
<polygon fill="midnightblue" stroke="midnightblue" points="147.362,-184.665 157.885,-185.899 150.428,-178.372 147.362,-184.665"/>
</g>
<!-- Node5 -->
<g id="node5" class="node"><title>Node5</title>
<g id="a_node5"><a xlink:href="../../dd/d3c/classmarian_1_1TensorBase.html#a86fbac9f53e727f7c1777cfc91a0d4c5" target="_top" xlink:title="marian::TensorBase\l::setSparse">
<polygon fill="white" stroke="black" points="140,-137 140,-167 244,-167 244,-137 140,-137"/>
<text text-anchor="start" x="148" y="-155" font-family="Helvetica,sans-Serif" font-size="10.00">marian::TensorBase</text>
<text text-anchor="middle" x="192" y="-144" font-family="Helvetica,sans-Serif" font-size="10.00">::setSparse</text>
</a>
</g>
</g>
<!-- Node1&#45;&gt;Node5 -->
<g id="edge4" class="edge"><title>Node1&#45;&gt;Node5</title>
<path fill="none" stroke="midnightblue" d="M104.386,-136.309C112.558,-137.79 121.083,-139.334 129.46,-140.852"/>
<polygon fill="midnightblue" stroke="midnightblue" points="129.107,-144.344 139.571,-142.683 130.355,-137.457 129.107,-144.344"/>
</g>
<!-- Node6 -->
<g id="node6" class="node"><title>Node6</title>
<g id="a_node6"><a xlink:href="../../dd/d3c/classmarian_1_1TensorBase.html#a4a485c5ed143b21af0984875094dd020" target="_top" xlink:title="marian::TensorBase\l::copyFrom">
<polygon fill="white" stroke="black" points="140,-88 140,-118 244,-118 244,-88 140,-88"/>
<text text-anchor="start" x="148" y="-106" font-family="Helvetica,sans-Serif" font-size="10.00">marian::TensorBase</text>
<text text-anchor="middle" x="192" y="-95" font-family="Helvetica,sans-Serif" font-size="10.00">::copyFrom</text>
</a>
</g>
</g>
<!-- Node1&#45;&gt;Node6 -->
<g id="edge5" class="edge"><title>Node1&#45;&gt;Node6</title>
<path fill="none" stroke="midnightblue" d="M104.386,-118.063C112.558,-116.642 121.083,-115.159 129.46,-113.703"/>
<polygon fill="midnightblue" stroke="midnightblue" points="130.319,-117.106 139.571,-111.944 129.119,-110.209 130.319,-117.106"/>
</g>
<!-- Node7 -->
<g id="node7" class="node"><title>Node7</title>
<g id="a_node7"><a xlink:href="../../dd/d3c/classmarian_1_1TensorBase.html#a87368e8344d51db32558263242e6343e" target="_top" xlink:title="marian::TensorBase\l::debug">
<polygon fill="white" stroke="black" points="140,-39 140,-69 244,-69 244,-39 140,-39"/>
<text text-anchor="start" x="148" y="-57" font-family="Helvetica,sans-Serif" font-size="10.00">marian::TensorBase</text>
<text text-anchor="middle" x="192" y="-46" font-family="Helvetica,sans-Serif" font-size="10.00">::debug</text>
</a>
</g>
</g>
<!-- Node1&#45;&gt;Node7 -->
<g id="edge6" class="edge"><title>Node1&#45;&gt;Node7</title>
<path fill="none" stroke="midnightblue" d="M79.4737,-111.959C96.6204,-102.325 119.496,-89.6737 140,-79 143.346,-77.2584 146.83,-75.4791 150.337,-73.7123"/>
<polygon fill="midnightblue" stroke="midnightblue" points="152.204,-76.6922 159.593,-69.099 149.082,-70.4272 152.204,-76.6922"/>
</g>
<!-- Node8 -->
<g id="node8" class="node"><title>Node8</title>
<g id="a_node8"><a xlink:href="../../da/d22/namespacemarian.html#ae120a5a7c3d0061ee7ba93a70537dc4b" target="_top" xlink:title="marian::operator\&gt;\&gt;">
<polygon fill="white" stroke="black" points="142.5,-0.5 142.5,-19.5 241.5,-19.5 241.5,-0.5 142.5,-0.5"/>
<text text-anchor="middle" x="192" y="-7.5" font-family="Helvetica,sans-Serif" font-size="10.00">marian::operator&gt;&gt;</text>
</a>
</g>
</g>
<!-- Node1&#45;&gt;Node8 -->
<g id="edge7" class="edge"><title>Node1&#45;&gt;Node8</title>
<path fill="none" stroke="midnightblue" d="M63.0953,-111.867C77.781,-90.8859 106.92,-52.9585 140,-30 143.29,-27.7165 146.878,-25.6432 150.576,-23.7725"/>
<polygon fill="midnightblue" stroke="midnightblue" points="152.237,-26.8623 159.89,-19.5361 149.339,-20.4904 152.237,-26.8623"/>
</g>
<!-- Node3 -->
<g id="node3" class="node"><title>Node3</title>
<g id="a_node3"><a xlink:href="../../d5/d54/structmarian_1_1Shape.html#ac5b429b8024a6de2e2b4c089757f398f" target="_top" xlink:title="Gets the total number of elements in a tensor of this shape. ">
<polygon fill="white" stroke="black" points="280,-240.5 280,-259.5 405,-259.5 405,-240.5 280,-240.5"/>
<text text-anchor="middle" x="342.5" y="-247.5" font-family="Helvetica,sans-Serif" font-size="10.00">marian::Shape::elements</text>
</a>
</g>
</g>
<!-- Node2&#45;&gt;Node3 -->
<g id="edge2" class="edge"><title>Node2&#45;&gt;Node3</title>
<path fill="none" stroke="midnightblue" d="M244.105,-250C252.367,-250 261.053,-250 269.695,-250"/>
<polygon fill="midnightblue" stroke="midnightblue" points="269.791,-253.5 279.791,-250 269.791,-246.5 269.791,-253.5"/>
</g>
</g>
</svg>
