<?xml version="1.0" encoding="UTF-8" standalone="no"?>
<!DOCTYPE svg PUBLIC "-//W3C//DTD SVG 1.1//EN"
 "http://www.w3.org/Graphics/SVG/1.1/DTD/svg11.dtd">
<!-- Generated by graphviz version 2.38.0 (20140413.2041)
 -->
<!-- Title: amunmt::God::GetScorerNames Pages: 1 -->
<svg width="819pt" height="208pt"
 viewBox="0.00 0.00 819.00 207.50" xmlns="http://www.w3.org/2000/svg" xmlns:xlink="http://www.w3.org/1999/xlink">
<g id="graph0" class="graph" transform="scale(1 1) rotate(0) translate(4 203.5)">
<title>amunmt::God::GetScorerNames</title>
<polygon fill="white" stroke="none" points="-4,4 -4,-203.5 815,-203.5 815,4 -4,4"/>
<!-- Node1 -->
<g id="node1" class="node"><title>Node1</title>
<polygon fill="#bfbfbf" stroke="black" points="0,-72 0,-91 158,-91 158,-72 0,-72"/>
<text text-anchor="middle" x="79" y="-79" font-family="Helvetica,sans-Serif" font-size="10.00">amunmt::God::GetScorerNames</text>
</g>
<!-- Node2 -->
<g id="node2" class="node"><title>Node2</title>
<g id="a_node2"><a xlink:href="$d7/d4e/classamunmt_1_1God.html#acbdecb98f98edf71cc8a81493df2c56a" xlink:title="amunmt::God::Get">
<polygon fill="white" stroke="black" points="194,-91 194,-110 292,-110 292,-91 194,-91"/>
<text text-anchor="middle" x="243" y="-98" font-family="Helvetica,sans-Serif" font-size="10.00">amunmt::God::Get</text>
</a>
</g>
</g>
<!-- Node1&#45;&gt;Node2 -->
<g id="edge1" class="edge"><title>Node1&#45;&gt;Node2</title>
<path fill="none" stroke="midnightblue" d="M168.106,-91.8334C176.898,-92.8646 185.578,-93.8826 193.727,-94.8384"/>
<polygon fill="midnightblue" stroke="midnightblue" points="168.493,-88.3548 158.153,-90.6661 167.677,-95.3072 168.493,-88.3548"/>
</g>
<!-- Node3 -->
<g id="node3" class="node"><title>Node3</title>
<g id="a_node3"><a xlink:href="$d7/dd3/namespaceamunmt.html#aef108281493b0c3b669c537192eace34" xlink:title="amunmt::Printer">
<polygon fill="white" stroke="black" points="200,-53 200,-72 286,-72 286,-53 200,-53"/>
<text text-anchor="middle" x="243" y="-60" font-family="Helvetica,sans-Serif" font-size="10.00">amunmt::Printer</text>
</a>
</g>
</g>
<!-- Node1&#45;&gt;Node3 -->
<g id="edge2" class="edge"><title>Node1&#45;&gt;Node3</title>
<path fill="none" stroke="midnightblue" d="M168.276,-71.1467C179.269,-69.8574 190.082,-68.5892 199.896,-67.4382"/>
<polygon fill="midnightblue" stroke="midnightblue" points="167.677,-67.6928 158.153,-72.3339 168.493,-74.6452 167.677,-67.6928"/>
</g>
<!-- Node4 -->
<g id="node4" class="node"><title>Node4</title>
<g id="a_node4"><a xlink:href="$d5/d49/amunmt_8cpp.html#a86ebd9110196f3b5328ad3c3d31cd007" xlink:title="translate">
<polygon fill="white" stroke="black" points="373.5,-92 373.5,-111 427.5,-111 427.5,-92 373.5,-92"/>
<text text-anchor="middle" x="400.5" y="-99" font-family="Helvetica,sans-Serif" font-size="10.00">translate</text>
</a>
</g>
</g>
<!-- Node3&#45;&gt;Node4 -->
<g id="edge3" class="edge"><title>Node3&#45;&gt;Node4</title>
<path fill="none" stroke="midnightblue" d="M291.969,-74.5309C318.668,-81.2271 350.886,-89.3075 373.054,-94.8673"/>
<polygon fill="midnightblue" stroke="midnightblue" points="292.591,-71.0784 282.04,-72.0405 290.888,-77.8681 292.591,-71.0784"/>
</g>
<!-- Node12 -->
<g id="node12" class="node"><title>Node12</title>
<g id="a_node12"><a xlink:href="$d7/dd3/namespaceamunmt.html#a10b27c18333dd8e5b6652acfea64d7d2" xlink:title="amunmt::Printer">
<polygon fill="white" stroke="black" points="357.5,-53 357.5,-72 443.5,-72 443.5,-53 357.5,-53"/>
<text text-anchor="middle" x="400.5" y="-60" font-family="Helvetica,sans-Serif" font-size="10.00">amunmt::Printer</text>
</a>
</g>
</g>
<!-- Node3&#45;&gt;Node12 -->
<g id="edge11" class="edge"><title>Node3&#45;&gt;Node12</title>
<path fill="none" stroke="midnightblue" d="M296.227,-62.5C316.128,-62.5 338.539,-62.5 357.386,-62.5"/>
<polygon fill="midnightblue" stroke="midnightblue" points="296.081,-59.0001 286.081,-62.5 296.081,-66.0001 296.081,-59.0001"/>
</g>
<!-- Node13 -->
<g id="node13" class="node"><title>Node13</title>
<g id="a_node13"><a xlink:href="$d7/dd3/namespaceamunmt.html#aac616d7d6dd75bad96a6dcf3afe74e85" xlink:title="amunmt::TranslationTaskAnd\lOutput">
<polygon fill="white" stroke="black" points="328,-0.5 328,-30.5 473,-30.5 473,-0.5 328,-0.5"/>
<text text-anchor="start" x="336" y="-18.5" font-family="Helvetica,sans-Serif" font-size="10.00">amunmt::TranslationTaskAnd</text>
<text text-anchor="middle" x="400.5" y="-7.5" font-family="Helvetica,sans-Serif" font-size="10.00">Output</text>
</a>
</g>
</g>
<!-- Node3&#45;&gt;Node13 -->
<g id="edge12" class="edge"><title>Node3&#45;&gt;Node13</title>
<path fill="none" stroke="midnightblue" d="M285.125,-50.0701C304.941,-44.0805 328.872,-36.8475 349.711,-30.5488"/>
<polygon fill="midnightblue" stroke="midnightblue" points="284.027,-46.7452 275.468,-52.9888 286.053,-53.4458 284.027,-46.7452"/>
</g>
<!-- Node5 -->
<g id="node5" class="node"><title>Node5</title>
<g id="a_node5"><a xlink:href="$d5/d49/amunmt_8cpp.html#a1fa5ce5d158455cf2d152ebcbcdf29d0" xlink:title="BOOST_PYTHON_MODULE">
<polygon fill="white" stroke="black" points="509,-180 509,-199 655,-199 655,-180 509,-180"/>
<text text-anchor="middle" x="582" y="-187" font-family="Helvetica,sans-Serif" font-size="10.00">BOOST_PYTHON_MODULE</text>
</a>
</g>
</g>
<!-- Node4&#45;&gt;Node5 -->
<g id="edge4" class="edge"><title>Node4&#45;&gt;Node5</title>
<path fill="none" stroke="midnightblue" d="M421.762,-117.269C442.594,-132.797 476.494,-156.205 509,-170.5 517.521,-174.247 526.944,-177.389 536.087,-179.971"/>
<polygon fill="midnightblue" stroke="midnightblue" points="423.761,-114.393 413.676,-111.147 419.536,-119.974 423.761,-114.393"/>
</g>
<!-- Node6 -->
<g id="node6" class="node"><title>Node6</title>
<g id="a_node6"><a xlink:href="$d6/d38/classmarian_1_1ConfigParser.html#a07165d2c1c885c858d8127eb09f00e71" xlink:title="marian::ConfigParser\l::addOptionsTranslate">
<polygon fill="white" stroke="black" points="525.5,-130.5 525.5,-160.5 638.5,-160.5 638.5,-130.5 525.5,-130.5"/>
<text text-anchor="start" x="533.5" y="-148.5" font-family="Helvetica,sans-Serif" font-size="10.00">marian::ConfigParser</text>
<text text-anchor="middle" x="582" y="-137.5" font-family="Helvetica,sans-Serif" font-size="10.00">::addOptionsTranslate</text>
</a>
</g>
</g>
<!-- Node4&#45;&gt;Node6 -->
<g id="edge5" class="edge"><title>Node4&#45;&gt;Node6</title>
<path fill="none" stroke="midnightblue" d="M437.438,-110.309C462.557,-116.467 496.592,-124.809 525.218,-131.826"/>
<polygon fill="midnightblue" stroke="midnightblue" points="438.147,-106.879 427.601,-107.898 436.48,-113.678 438.147,-106.879"/>
</g>
<!-- Node7 -->
<g id="node7" class="node"><title>Node7</title>
<g id="a_node7"><a xlink:href="$d2/d47/marian_2src_2common_2logging_8h.html#a32a13f91eb216c334ec310b2a8a2f10c" xlink:title="createLoggers">
<polygon fill="white" stroke="black" points="543,-92 543,-111 621,-111 621,-92 543,-92"/>
<text text-anchor="middle" x="582" y="-99" font-family="Helvetica,sans-Serif" font-size="10.00">createLoggers</text>
</a>
</g>
</g>
<!-- Node4&#45;&gt;Node7 -->
<g id="edge6" class="edge"><title>Node4&#45;&gt;Node7</title>
<path fill="none" stroke="midnightblue" d="M437.825,-101.5C468.38,-101.5 511.923,-101.5 542.953,-101.5"/>
<polygon fill="midnightblue" stroke="midnightblue" points="437.601,-98.0001 427.601,-101.5 437.601,-105 437.601,-98.0001"/>
</g>
<!-- Node10 -->
<g id="node10" class="node"><title>Node10</title>
<g id="a_node10"><a xlink:href="$db/de8/classmarian_1_1OutputCollector.html#aac7fb8a5e89ce5a9bac56a6a414e7fe5" xlink:title="marian::OutputCollector\l::Write">
<polygon fill="white" stroke="black" points="522,-42.5 522,-72.5 642,-72.5 642,-42.5 522,-42.5"/>
<text text-anchor="start" x="530" y="-60.5" font-family="Helvetica,sans-Serif" font-size="10.00">marian::OutputCollector</text>
<text text-anchor="middle" x="582" y="-49.5" font-family="Helvetica,sans-Serif" font-size="10.00">::Write</text>
</a>
</g>
</g>
<!-- Node4&#45;&gt;Node10 -->
<g id="edge9" class="edge"><title>Node4&#45;&gt;Node10</title>
<path fill="none" stroke="midnightblue" d="M437.405,-92.6988C461.546,-86.7813 493.932,-78.8426 521.837,-72.0023"/>
<polygon fill="midnightblue" stroke="midnightblue" points="436.48,-89.3218 427.601,-95.102 438.147,-96.1205 436.48,-89.3218"/>
</g>
<!-- Node8 -->
<g id="node8" class="node"><title>Node8</title>
<g id="a_node8"><a xlink:href="$d6/dba/classmarian_1_1Config.html#aa953cca7c4650e7e0538f00388d9f385" xlink:title="marian::Config::Config">
<polygon fill="white" stroke="black" points="693.5,-130 693.5,-149 808.5,-149 808.5,-130 693.5,-130"/>
<text text-anchor="middle" x="751" y="-137" font-family="Helvetica,sans-Serif" font-size="10.00">marian::Config::Config</text>
</a>
</g>
</g>
<!-- Node7&#45;&gt;Node8 -->
<g id="edge7" class="edge"><title>Node7&#45;&gt;Node8</title>
<path fill="none" stroke="midnightblue" d="M631.385,-112.51C655.65,-118.031 684.753,-124.653 708.058,-129.956"/>
<polygon fill="midnightblue" stroke="midnightblue" points="631.841,-109.024 621.313,-110.218 630.287,-115.85 631.841,-109.024"/>
</g>
<!-- Node9 -->
<g id="node9" class="node"><title>Node9</title>
<g id="a_node9"><a xlink:href="$dc/df8/iris_8cpp.html#ae66f6b31b5ad750f1fe042a706a4e3d4" xlink:title="main">
<polygon fill="white" stroke="black" points="732,-92 732,-111 770,-111 770,-92 732,-92"/>
<text text-anchor="middle" x="751" y="-99" font-family="Helvetica,sans-Serif" font-size="10.00">main</text>
</a>
</g>
</g>
<!-- Node7&#45;&gt;Node9 -->
<g id="edge8" class="edge"><title>Node7&#45;&gt;Node9</title>
<path fill="none" stroke="midnightblue" d="M631.424,-101.5C665.065,-101.5 707.988,-101.5 731.875,-101.5"/>
<polygon fill="midnightblue" stroke="midnightblue" points="631.313,-98.0001 621.313,-101.5 631.313,-105 631.313,-98.0001"/>
</g>
<!-- Node11 -->
<g id="node11" class="node"><title>Node11</title>
<g id="a_node11"><a xlink:href="$db/de8/classmarian_1_1OutputCollector.html#a6b877d0629db1fe8d5f5c920025cc859" xlink:title="marian::OutputCollector\l::OutputCollector">
<polygon fill="white" stroke="black" points="691,-42.5 691,-72.5 811,-72.5 811,-42.5 691,-42.5"/>
<text text-anchor="start" x="699" y="-60.5" font-family="Helvetica,sans-Serif" font-size="10.00">marian::OutputCollector</text>
<text text-anchor="middle" x="751" y="-49.5" font-family="Helvetica,sans-Serif" font-size="10.00">::OutputCollector</text>
</a>
</g>
</g>
<!-- Node10&#45;&gt;Node11 -->
<g id="edge10" class="edge"><title>Node10&#45;&gt;Node11</title>
<path fill="none" stroke="midnightblue" d="M652.459,-57.5C665.216,-57.5 678.423,-57.5 690.843,-57.5"/>
<polygon fill="midnightblue" stroke="midnightblue" points="652.348,-54.0001 642.348,-57.5 652.348,-61.0001 652.348,-54.0001"/>
</g>
<!-- Node14 -->
<g id="node14" class="node"><title>Node14</title>
<g id="a_node14"><a xlink:href="$d0/d73/decoder__main_8cpp.html#a0ddf1224851353fc92bfbff6f499fa97" xlink:title="main">
<polygon fill="white" stroke="black" points="563,-4 563,-23 601,-23 601,-4 563,-4"/>
<text text-anchor="middle" x="582" y="-11" font-family="Helvetica,sans-Serif" font-size="10.00">main</text>
</a>
</g>
</g>
<!-- Node13&#45;&gt;Node14 -->
<g id="edge13" class="edge"><title>Node13&#45;&gt;Node14</title>
<path fill="none" stroke="midnightblue" d="M483.238,-14.5893C512.977,-14.2579 543.899,-13.9134 562.803,-13.7028"/>
<polygon fill="midnightblue" stroke="midnightblue" points="483.177,-11.0896 473.217,-14.7009 483.255,-18.0892 483.177,-11.0896"/>
</g>
</g>
</svg>
