<?xml version="1.0" encoding="UTF-8" standalone="no"?>
<!DOCTYPE svg PUBLIC "-//W3C//DTD SVG 1.1//EN"
 "http://www.w3.org/Graphics/SVG/1.1/DTD/svg11.dtd">
<!-- Generated by graphviz version 2.38.0 (20140413.2041)
 -->
<!-- Title: hardatt.h Pages: 1 -->
<svg width="348pt" height="364pt"
 viewBox="0.00 0.00 348.00 364.00" xmlns="http://www.w3.org/2000/svg" xmlns:xlink="http://www.w3.org/1999/xlink">
<g id="graph0" class="graph" transform="scale(1 1) rotate(0) translate(4 360)">
<title>hardatt.h</title>
<polygon fill="white" stroke="none" points="-4,4 -4,-360 344,-360 344,4 -4,4"/>
<!-- Node1 -->
<g id="node1" class="node"><title>Node1</title>
<polygon fill="#bfbfbf" stroke="black" points="141.5,-336.5 141.5,-355.5 196.5,-355.5 196.5,-336.5 141.5,-336.5"/>
<text text-anchor="middle" x="169" y="-343.5" font-family="Helvetica,sans-Serif" font-size="10.00">hardatt.h</text>
</g>
<!-- Node2 -->
<g id="node2" class="node"><title>Node2</title>
<g id="a_node2"><a xlink:href="$d1/dd1/model__task_8h.html" xlink:title="model_task.h">
<polygon fill="white" stroke="black" points="89.5,-280.5 89.5,-299.5 164.5,-299.5 164.5,-280.5 89.5,-280.5"/>
<text text-anchor="middle" x="127" y="-287.5" font-family="Helvetica,sans-Serif" font-size="10.00">model_task.h</text>
</a>
</g>
</g>
<!-- Node1&#45;&gt;Node2 -->
<g id="edge1" class="edge"><title>Node1&#45;&gt;Node2</title>
<path fill="none" stroke="midnightblue" d="M155.89,-328.144C148.572,-318.736 139.759,-307.405 133.806,-299.751"/>
<polygon fill="midnightblue" stroke="midnightblue" points="153.162,-330.338 162.065,-336.083 158.688,-326.041 153.162,-330.338"/>
</g>
<!-- Node10 -->
<g id="node10" class="node"><title>Node10</title>
<g id="a_node10"><a xlink:href="$d2/d00/scorers_8h.html" xlink:title="scorers.h">
<polygon fill="white" stroke="black" points="182.5,-280.5 182.5,-299.5 239.5,-299.5 239.5,-280.5 182.5,-280.5"/>
<text text-anchor="middle" x="211" y="-287.5" font-family="Helvetica,sans-Serif" font-size="10.00">scorers.h</text>
</a>
</g>
</g>
<!-- Node1&#45;&gt;Node10 -->
<g id="edge9" class="edge"><title>Node1&#45;&gt;Node10</title>
<path fill="none" stroke="midnightblue" d="M182.11,-328.144C189.428,-318.736 198.241,-307.405 204.194,-299.751"/>
<polygon fill="midnightblue" stroke="midnightblue" points="179.312,-326.041 175.935,-336.083 184.838,-330.338 179.312,-326.041"/>
</g>
<!-- Node3 -->
<g id="node3" class="node"><title>Node3</title>
<g id="a_node3"><a xlink:href="$d2/d10/examples_2mnist_2training_8h.html" xlink:title="training.h">
<polygon fill="white" stroke="black" points="121,-56.5 121,-75.5 177,-75.5 177,-56.5 121,-56.5"/>
<text text-anchor="middle" x="149" y="-63.5" font-family="Helvetica,sans-Serif" font-size="10.00">training.h</text>
</a>
</g>
</g>
<!-- Node2&#45;&gt;Node3 -->
<g id="edge2" class="edge"><title>Node2&#45;&gt;Node3</title>
<path fill="none" stroke="midnightblue" d="M128.854,-270.295C133.378,-224.644 144.852,-108.854 148.12,-75.8837"/>
<polygon fill="midnightblue" stroke="midnightblue" points="125.366,-270.001 127.862,-280.297 132.332,-270.691 125.366,-270.001"/>
</g>
<!-- Node4 -->
<g id="node4" class="node"><title>Node4</title>
<g id="a_node4"><a xlink:href="$de/d5d/rescorer_8h.html" xlink:title="rescorer.h">
<polygon fill="white" stroke="black" points="39,-224.5 39,-243.5 99,-243.5 99,-224.5 39,-224.5"/>
<text text-anchor="middle" x="69" y="-231.5" font-family="Helvetica,sans-Serif" font-size="10.00">rescorer.h</text>
</a>
</g>
</g>
<!-- Node2&#45;&gt;Node4 -->
<g id="edge3" class="edge"><title>Node2&#45;&gt;Node4</title>
<path fill="none" stroke="midnightblue" d="M110.087,-273.253C99.797,-263.673 87.0343,-251.791 78.4883,-243.834"/>
<polygon fill="midnightblue" stroke="midnightblue" points="107.977,-276.071 117.681,-280.324 112.747,-270.948 107.977,-276.071"/>
</g>
<!-- Node6 -->
<g id="node6" class="node"><title>Node6</title>
<g id="a_node6"><a xlink:href="$df/d43/training_2training_8h.html" xlink:title="training.h">
<polygon fill="white" stroke="black" points="0,-56.5 0,-75.5 56,-75.5 56,-56.5 0,-56.5"/>
<text text-anchor="middle" x="28" y="-63.5" font-family="Helvetica,sans-Serif" font-size="10.00">training.h</text>
</a>
</g>
</g>
<!-- Node2&#45;&gt;Node6 -->
<g id="edge5" class="edge"><title>Node2&#45;&gt;Node6</title>
<path fill="none" stroke="midnightblue" d="M84.6522,-277.016C65.9423,-269.946 44.8668,-259.312 30,-244 -16.0263,-196.597 13.8465,-103.971 24.5957,-75.5182"/>
<polygon fill="midnightblue" stroke="midnightblue" points="83.5805,-280.35 94.1752,-280.395 85.9209,-273.753 83.5805,-280.35"/>
</g>
<!-- Node8 -->
<g id="node8" class="node"><title>Node8</title>
<g id="a_node8"><a xlink:href="$d9/df1/translator_8h.html" xlink:title="translator.h">
<polygon fill="white" stroke="black" points="171.5,-224.5 171.5,-243.5 236.5,-243.5 236.5,-224.5 171.5,-224.5"/>
<text text-anchor="middle" x="204" y="-231.5" font-family="Helvetica,sans-Serif" font-size="10.00">translator.h</text>
</a>
</g>
</g>
<!-- Node2&#45;&gt;Node8 -->
<g id="edge7" class="edge"><title>Node2&#45;&gt;Node8</title>
<path fill="none" stroke="midnightblue" d="M147.901,-274.342C161.911,-264.517 179.883,-251.913 191.659,-243.655"/>
<polygon fill="midnightblue" stroke="midnightblue" points="145.549,-271.717 139.371,-280.324 149.568,-277.448 145.549,-271.717"/>
</g>
<!-- Node5 -->
<g id="node5" class="node"><title>Node5</title>
<g id="a_node5"><a xlink:href="$d0/d0e/s2s__rescorer_8cpp.html" xlink:title="s2s_rescorer.cpp">
<polygon fill="white" stroke="black" points="15,-168.5 15,-187.5 107,-187.5 107,-168.5 15,-168.5"/>
<text text-anchor="middle" x="61" y="-175.5" font-family="Helvetica,sans-Serif" font-size="10.00">s2s_rescorer.cpp</text>
</a>
</g>
</g>
<!-- Node4&#45;&gt;Node5 -->
<g id="edge4" class="edge"><title>Node4&#45;&gt;Node5</title>
<path fill="none" stroke="midnightblue" d="M66.2001,-214.101C64.872,-205.136 63.3493,-194.858 62.2965,-187.751"/>
<polygon fill="midnightblue" stroke="midnightblue" points="62.7512,-214.704 67.679,-224.083 69.6756,-213.678 62.7512,-214.704"/>
</g>
<!-- Node7 -->
<g id="node7" class="node"><title>Node7</title>
<g id="a_node7"><a xlink:href="$d8/d9d/graph__group_8h.html" xlink:title="graph_group.h">
<polygon fill="white" stroke="black" points="48,-0.5 48,-19.5 126,-19.5 126,-0.5 48,-0.5"/>
<text text-anchor="middle" x="87" y="-7.5" font-family="Helvetica,sans-Serif" font-size="10.00">graph_group.h</text>
</a>
</g>
</g>
<!-- Node6&#45;&gt;Node7 -->
<g id="edge6" class="edge"><title>Node6&#45;&gt;Node7</title>
<path fill="none" stroke="midnightblue" d="M44.8945,-49.5372C55.4145,-39.9087 68.5687,-27.8694 77.3481,-19.8339"/>
<polygon fill="midnightblue" stroke="midnightblue" points="42.4931,-46.9905 37.4794,-56.324 47.2192,-52.1542 42.4931,-46.9905"/>
</g>
<!-- Node9 -->
<g id="node9" class="node"><title>Node9</title>
<g id="a_node9"><a xlink:href="$df/df1/s2s__translator_8cpp.html" xlink:title="s2s_translator.cpp">
<polygon fill="white" stroke="black" points="163.5,-168.5 163.5,-187.5 260.5,-187.5 260.5,-168.5 163.5,-168.5"/>
<text text-anchor="middle" x="212" y="-175.5" font-family="Helvetica,sans-Serif" font-size="10.00">s2s_translator.cpp</text>
</a>
</g>
</g>
<!-- Node8&#45;&gt;Node9 -->
<g id="edge8" class="edge"><title>Node8&#45;&gt;Node9</title>
<path fill="none" stroke="midnightblue" d="M206.8,-214.101C208.128,-205.136 209.651,-194.858 210.704,-187.751"/>
<polygon fill="midnightblue" stroke="midnightblue" points="203.324,-213.678 205.321,-224.083 210.249,-214.704 203.324,-213.678"/>
</g>
<!-- Node10&#45;&gt;Node8 -->
<g id="edge21" class="edge"><title>Node10&#45;&gt;Node8</title>
<path fill="none" stroke="midnightblue" d="M208.55,-270.101C207.388,-261.136 206.056,-250.858 205.134,-243.751"/>
<polygon fill="midnightblue" stroke="midnightblue" points="205.088,-270.616 209.844,-280.083 212.029,-269.716 205.088,-270.616"/>
</g>
<!-- Node11 -->
<g id="node11" class="node"><title>Node11</title>
<g id="a_node11"><a xlink:href="$d3/ddc/beam__search_8h.html" xlink:title="beam_search.h">
<polygon fill="white" stroke="black" points="254.5,-224.5 254.5,-243.5 337.5,-243.5 337.5,-224.5 254.5,-224.5"/>
<text text-anchor="middle" x="296" y="-231.5" font-family="Helvetica,sans-Serif" font-size="10.00">beam_search.h</text>
</a>
</g>
</g>
<!-- Node10&#45;&gt;Node11 -->
<g id="edge10" class="edge"><title>Node10&#45;&gt;Node11</title>
<path fill="none" stroke="midnightblue" d="M233.194,-274.901C248.78,-264.999 269.13,-252.071 282.377,-243.655"/>
<polygon fill="midnightblue" stroke="midnightblue" points="231.221,-272.007 224.657,-280.324 234.974,-277.916 231.221,-272.007"/>
</g>
<!-- Node11&#45;&gt;Node9 -->
<g id="edge11" class="edge"><title>Node11&#45;&gt;Node9</title>
<path fill="none" stroke="midnightblue" d="M274.068,-218.901C258.665,-208.999 238.554,-196.071 225.463,-187.655"/>
<polygon fill="midnightblue" stroke="midnightblue" points="272.199,-221.86 282.504,-224.324 275.985,-215.972 272.199,-221.86"/>
</g>
<!-- Node12 -->
<g id="node12" class="node"><title>Node12</title>
<g id="a_node12"><a xlink:href="$d7/d7d/training_2validator_8h.html" xlink:title="validator.h">
<polygon fill="white" stroke="black" points="278,-168.5 278,-187.5 340,-187.5 340,-168.5 278,-168.5"/>
<text text-anchor="middle" x="309" y="-175.5" font-family="Helvetica,sans-Serif" font-size="10.00">validator.h</text>
</a>
</g>
</g>
<!-- Node11&#45;&gt;Node12 -->
<g id="edge12" class="edge"><title>Node11&#45;&gt;Node12</title>
<path fill="none" stroke="midnightblue" d="M300.55,-214.101C302.708,-205.136 305.182,-194.858 306.893,-187.751"/>
<polygon fill="midnightblue" stroke="midnightblue" points="297.085,-213.542 298.147,-224.083 303.89,-215.18 297.085,-213.542"/>
</g>
<!-- Node12&#45;&gt;Node6 -->
<g id="edge20" class="edge"><title>Node12&#45;&gt;Node6</title>
<path fill="none" stroke="midnightblue" d="M267.342,-168.047C204.48,-159.171 79.2172,-164.419 44,-132 28.0963,-117.36 26.8564,-89.6807 27.3674,-75.6382"/>
<polygon fill="midnightblue" stroke="midnightblue" points="267.16,-171.564 277.596,-169.739 268.299,-164.657 267.16,-171.564"/>
</g>
<!-- Node12&#45;&gt;Node7 -->
<g id="edge15" class="edge"><title>Node12&#45;&gt;Node7</title>
<path fill="none" stroke="midnightblue" d="M300.673,-159.173C293.586,-145.26 282.431,-126.006 269,-112 223.479,-64.5309 150.694,-33.5083 112.42,-19.5397"/>
<polygon fill="midnightblue" stroke="midnightblue" points="297.554,-160.762 305.089,-168.209 303.843,-157.688 297.554,-160.762"/>
</g>
<!-- Node13 -->
<g id="node13" class="node"><title>Node13</title>
<g id="a_node13"><a xlink:href="$da/d8c/examples_2mnist_2validator_8h.html" xlink:title="validator.h">
<polygon fill="white" stroke="black" points="198,-112.5 198,-131.5 260,-131.5 260,-112.5 198,-112.5"/>
<text text-anchor="middle" x="229" y="-119.5" font-family="Helvetica,sans-Serif" font-size="10.00">validator.h</text>
</a>
</g>
</g>
<!-- Node12&#45;&gt;Node13 -->
<g id="edge13" class="edge"><title>Node12&#45;&gt;Node13</title>
<path fill="none" stroke="midnightblue" d="M287.699,-162.622C273.085,-152.757 254.173,-139.992 241.821,-131.655"/>
<polygon fill="midnightblue" stroke="midnightblue" points="285.9,-165.63 296.147,-168.324 289.816,-159.828 285.9,-165.63"/>
</g>
<!-- Node14 -->
<g id="node14" class="node"><title>Node14</title>
<g id="a_node14"><a xlink:href="$d2/dd8/scheduler_8h.html" xlink:title="scheduler.h">
<polygon fill="white" stroke="black" points="53.5,-112.5 53.5,-131.5 120.5,-131.5 120.5,-112.5 53.5,-112.5"/>
<text text-anchor="middle" x="87" y="-119.5" font-family="Helvetica,sans-Serif" font-size="10.00">scheduler.h</text>
</a>
</g>
</g>
<!-- Node12&#45;&gt;Node14 -->
<g id="edge16" class="edge"><title>Node12&#45;&gt;Node14</title>
<path fill="none" stroke="midnightblue" d="M267.936,-167.012C225.545,-156.7 160.192,-140.803 120.72,-131.202"/>
<polygon fill="midnightblue" stroke="midnightblue" points="267.12,-170.415 277.664,-169.378 268.774,-163.613 267.12,-170.415"/>
</g>
<!-- Node13&#45;&gt;Node3 -->
<g id="edge14" class="edge"><title>Node13&#45;&gt;Node3</title>
<path fill="none" stroke="midnightblue" d="M207.699,-106.622C193.085,-96.7574 174.173,-83.9919 161.821,-75.6545"/>
<polygon fill="midnightblue" stroke="midnightblue" points="205.9,-109.63 216.147,-112.324 209.816,-103.828 205.9,-109.63"/>
</g>
<!-- Node14&#45;&gt;Node3 -->
<g id="edge17" class="edge"><title>Node14&#45;&gt;Node3</title>
<path fill="none" stroke="midnightblue" d="M104.754,-105.537C115.808,-95.9087 129.631,-83.8694 138.857,-75.8339"/>
<polygon fill="midnightblue" stroke="midnightblue" points="102.203,-103.117 96.9614,-112.324 106.801,-108.395 102.203,-103.117"/>
</g>
<!-- Node14&#45;&gt;Node6 -->
<g id="edge19" class="edge"><title>Node14&#45;&gt;Node6</title>
<path fill="none" stroke="midnightblue" d="M70.1055,-105.537C59.5855,-95.9087 46.4313,-83.8694 37.6519,-75.8339"/>
<polygon fill="midnightblue" stroke="midnightblue" points="67.7808,-108.154 77.5206,-112.324 72.5069,-102.99 67.7808,-108.154"/>
</g>
<!-- Node14&#45;&gt;Node7 -->
<g id="edge18" class="edge"><title>Node14&#45;&gt;Node7</title>
<path fill="none" stroke="midnightblue" d="M87,-102.348C87,-78.2538 87,-37.3079 87,-19.5914"/>
<polygon fill="midnightblue" stroke="midnightblue" points="83.5001,-102.368 87,-112.368 90.5001,-102.369 83.5001,-102.368"/>
</g>
</g>
</svg>
