<?xml version="1.0" encoding="UTF-8" standalone="no"?>
<!DOCTYPE svg PUBLIC "-//W3C//DTD SVG 1.1//EN"
 "http://www.w3.org/Graphics/SVG/1.1/DTD/svg11.dtd">
<!-- Generated by graphviz version 2.38.0 (20140413.2041)
 -->
<!-- Title: marian::ScorerWrapper&lt; EncoderDecoder &gt; Pages: 1 -->
<svg width="125pt" height="314pt"
 viewBox="0.00 0.00 125.00 314.00" xmlns="http://www.w3.org/2000/svg" xmlns:xlink="http://www.w3.org/1999/xlink">
<g id="graph0" class="graph" transform="scale(1 1) rotate(0) translate(4 310)">
<title>marian::ScorerWrapper&lt; EncoderDecoder &gt;</title>
<polygon fill="white" stroke="none" points="-4,4 -4,-310 121,-310 121,4 -4,4"/>
<!-- Node1 -->
<g id="node1" class="node"><title>Node1</title>
<polygon fill="#bfbfbf" stroke="black" points="0,-0.5 0,-134.5 117,-134.5 117,-0.5 0,-0.5"/>
<text text-anchor="start" x="8" y="-122.5" font-family="Helvetica,sans-Serif" font-size="10.00">marian::ScorerWrapper</text>
<text text-anchor="middle" x="58.5" y="-111.5" font-family="Helvetica,sans-Serif" font-size="10.00">&lt; EncoderDecoder &gt;</text>
<polyline fill="none" stroke="black" points="0,-104.5 117,-104.5 "/>
<text text-anchor="start" x="8" y="-92.5" font-family="Helvetica,sans-Serif" font-size="10.00">&#45; encdec_</text>
<text text-anchor="start" x="8" y="-81.5" font-family="Helvetica,sans-Serif" font-size="10.00">&#45; fname_</text>
<polyline fill="none" stroke="black" points="0,-74.5 117,-74.5 "/>
<text text-anchor="start" x="8" y="-62.5" font-family="Helvetica,sans-Serif" font-size="10.00">+ ScorerWrapper()</text>
<text text-anchor="start" x="8" y="-51.5" font-family="Helvetica,sans-Serif" font-size="10.00">+ ScorerWrapper()</text>
<text text-anchor="start" x="8" y="-40.5" font-family="Helvetica,sans-Serif" font-size="10.00">+ init()</text>
<text text-anchor="start" x="8" y="-29.5" font-family="Helvetica,sans-Serif" font-size="10.00">+ clear()</text>
<text text-anchor="start" x="8" y="-18.5" font-family="Helvetica,sans-Serif" font-size="10.00">+ startState()</text>
<text text-anchor="start" x="8" y="-7.5" font-family="Helvetica,sans-Serif" font-size="10.00">+ step()</text>
</g>
<!-- Node2 -->
<g id="node2" class="node"><title>Node2</title>
<g id="a_node2"><a xlink:href="$dd/dbc/classmarian_1_1Scorer.html" xlink:title="{marian::Scorer\n|# name_\l# weight_\l|+ Scorer()\l+ getName()\l+ getWeight()\l+ clear()\l+ startState()\l+ step()\l+ init()\l}">
<polygon fill="white" stroke="black" points="18.5,-171.5 18.5,-305.5 98.5,-305.5 98.5,-171.5 18.5,-171.5"/>
<text text-anchor="middle" x="58.5" y="-293.5" font-family="Helvetica,sans-Serif" font-size="10.00">marian::Scorer</text>
<polyline fill="none" stroke="black" points="18.5,-286.5 98.5,-286.5 "/>
<text text-anchor="start" x="26.5" y="-274.5" font-family="Helvetica,sans-Serif" font-size="10.00"># name_</text>
<text text-anchor="start" x="26.5" y="-263.5" font-family="Helvetica,sans-Serif" font-size="10.00"># weight_</text>
<polyline fill="none" stroke="black" points="18.5,-256.5 98.5,-256.5 "/>
<text text-anchor="start" x="26.5" y="-244.5" font-family="Helvetica,sans-Serif" font-size="10.00">+ Scorer()</text>
<text text-anchor="start" x="26.5" y="-233.5" font-family="Helvetica,sans-Serif" font-size="10.00">+ getName()</text>
<text text-anchor="start" x="26.5" y="-222.5" font-family="Helvetica,sans-Serif" font-size="10.00">+ getWeight()</text>
<text text-anchor="start" x="26.5" y="-211.5" font-family="Helvetica,sans-Serif" font-size="10.00">+ clear()</text>
<text text-anchor="start" x="26.5" y="-200.5" font-family="Helvetica,sans-Serif" font-size="10.00">+ startState()</text>
<text text-anchor="start" x="26.5" y="-189.5" font-family="Helvetica,sans-Serif" font-size="10.00">+ step()</text>
<text text-anchor="start" x="26.5" y="-178.5" font-family="Helvetica,sans-Serif" font-size="10.00">+ init()</text>
</a>
</g>
</g>
<!-- Node2&#45;&gt;Node1 -->
<g id="edge1" class="edge"><title>Node2&#45;&gt;Node1</title>
<path fill="none" stroke="midnightblue" d="M58.5,-160.949C58.5,-152.159 58.5,-143.254 58.5,-134.617"/>
<polygon fill="none" stroke="midnightblue" points="55.0001,-161.192 58.5,-171.192 62.0001,-161.192 55.0001,-161.192"/>
</g>
</g>
</svg>
