<?xml version="1.0" encoding="UTF-8" standalone="no"?>
<!DOCTYPE svg PUBLIC "-//W3C//DTD SVG 1.1//EN"
 "http://www.w3.org/Graphics/SVG/1.1/DTD/svg11.dtd">
<!-- Generated by graphviz version 2.38.0 (20140413.2041)
 -->
<!-- Title: marian::Chainable::val Pages: 1 -->
<svg width="260pt" height="50pt"
 viewBox="0.00 0.00 260.00 50.00" xmlns="http://www.w3.org/2000/svg" xmlns:xlink="http://www.w3.org/1999/xlink">
<g id="graph0" class="graph" transform="scale(1 1) rotate(0) translate(4 46)">
<title>marian::Chainable::val</title>
<polygon fill="white" stroke="none" points="-4,4 -4,-46 256,-46 256,4 -4,4"/>
<!-- Node1 -->
<g id="node1" class="node"><title>Node1</title>
<polygon fill="#bfbfbf" stroke="black" points="0,-11.5 0,-30.5 114,-30.5 114,-11.5 0,-11.5"/>
<text text-anchor="middle" x="57" y="-18.5" font-family="Helvetica,sans-Serif" font-size="10.00">marian::Chainable::val</text>
</g>
<!-- Node2 -->
<g id="node2" class="node"><title>Node2</title>
<g id="a_node2"><a xlink:href="../../de/dff/classmarian_1_1Chainable.html#ab8d92dd0145cc2fdf9c634f3493afa3e" target="_top" xlink:title="marian::Chainable\&lt;\l Tensor \&gt;::set_zero\l_adjoint">
<polygon fill="white" stroke="black" points="150,-0.5 150,-41.5 252,-41.5 252,-0.5 150,-0.5"/>
<text text-anchor="start" x="158" y="-29.5" font-family="Helvetica,sans-Serif" font-size="10.00">marian::Chainable&lt;</text>
<text text-anchor="start" x="158" y="-18.5" font-family="Helvetica,sans-Serif" font-size="10.00"> Tensor &gt;::set_zero</text>
<text text-anchor="middle" x="201" y="-7.5" font-family="Helvetica,sans-Serif" font-size="10.00">_adjoint</text>
</a>
</g>
</g>
<!-- Node1&#45;&gt;Node2 -->
<g id="edge1" class="edge"><title>Node1&#45;&gt;Node2</title>
<path fill="none" stroke="midnightblue" d="M124.17,-21C132.792,-21 141.51,-21 149.811,-21"/>
<polygon fill="midnightblue" stroke="midnightblue" points="124.122,-17.5001 114.122,-21 124.122,-24.5001 124.122,-17.5001"/>
</g>
</g>
</svg>
