<?xml version="1.0" encoding="UTF-8" standalone="no"?>
<!DOCTYPE svg PUBLIC "-//W3C//DTD SVG 1.1//EN"
 "http://www.w3.org/Graphics/SVG/1.1/DTD/svg11.dtd">
<!-- Generated by graphviz version 2.38.0 (20140413.2041)
 -->
<!-- Title: logging.cpp Pages: 1 -->
<svg width="328pt" height="140pt"
 viewBox="0.00 0.00 328.00 140.00" xmlns="http://www.w3.org/2000/svg" xmlns:xlink="http://www.w3.org/1999/xlink">
<g id="graph0" class="graph" transform="scale(1 1) rotate(0) translate(4 136)">
<title>logging.cpp</title>
<polygon fill="white" stroke="none" points="-4,4 -4,-136 324,-136 324,4 -4,4"/>
<!-- Node1 -->
<g id="node1" class="node"><title>Node1</title>
<polygon fill="#bfbfbf" stroke="black" points="101.5,-112.5 101.5,-131.5 167.5,-131.5 167.5,-112.5 101.5,-112.5"/>
<text text-anchor="middle" x="134.5" y="-119.5" font-family="Helvetica,sans-Serif" font-size="10.00">logging.cpp</text>
</g>
<!-- Node2 -->
<g id="node2" class="node"><title>Node2</title>
<g id="a_node2"><a xlink:href="../../d2/d47/marian_2src_2common_2logging_8h.html" target="_top" xlink:title="logging.h">
<polygon fill="white" stroke="black" points="14.5,-56.5 14.5,-75.5 70.5,-75.5 70.5,-56.5 14.5,-56.5"/>
<text text-anchor="middle" x="42.5" y="-63.5" font-family="Helvetica,sans-Serif" font-size="10.00">logging.h</text>
</a>
</g>
</g>
<!-- Node1&#45;&gt;Node2 -->
<g id="edge1" class="edge"><title>Node1&#45;&gt;Node2</title>
<path fill="none" stroke="midnightblue" d="M119.719,-112.324C105.233,-103.822 82.9269,-90.7288 66.0068,-80.7975"/>
<polygon fill="midnightblue" stroke="midnightblue" points="67.6406,-77.6981 57.2447,-75.6545 64.0972,-83.735 67.6406,-77.6981"/>
</g>
<!-- Node4 -->
<g id="node4" class="node"><title>Node4</title>
<polygon fill="white" stroke="#bfbfbf" points="88.5,-56.5 88.5,-75.5 180.5,-75.5 180.5,-56.5 88.5,-56.5"/>
<text text-anchor="middle" x="134.5" y="-63.5" font-family="Helvetica,sans-Serif" font-size="10.00">common/config.h</text>
</g>
<!-- Node1&#45;&gt;Node4 -->
<g id="edge3" class="edge"><title>Node1&#45;&gt;Node4</title>
<path fill="none" stroke="midnightblue" d="M134.5,-112.083C134.5,-105.006 134.5,-94.8611 134.5,-85.9865"/>
<polygon fill="midnightblue" stroke="midnightblue" points="138,-85.751 134.5,-75.7511 131,-85.7511 138,-85.751"/>
</g>
<!-- Node5 -->
<g id="node5" class="node"><title>Node5</title>
<polygon fill="white" stroke="#bfbfbf" points="199,-56.5 199,-75.5 320,-75.5 320,-56.5 199,-56.5"/>
<text text-anchor="middle" x="259.5" y="-63.5" font-family="Helvetica,sans-Serif" font-size="10.00">spdlog/sinks/null_sink.h</text>
</g>
<!-- Node1&#45;&gt;Node5 -->
<g id="edge4" class="edge"><title>Node1&#45;&gt;Node5</title>
<path fill="none" stroke="midnightblue" d="M154.307,-112.444C174.787,-103.596 206.983,-89.6875 230.365,-79.5865"/>
<polygon fill="midnightblue" stroke="midnightblue" points="231.994,-82.6953 239.786,-75.5164 229.218,-76.2692 231.994,-82.6953"/>
</g>
<!-- Node3 -->
<g id="node3" class="node"><title>Node3</title>
<polygon fill="white" stroke="#bfbfbf" points="0,-0.5 0,-19.5 85,-19.5 85,-0.5 0,-0.5"/>
<text text-anchor="middle" x="42.5" y="-7.5" font-family="Helvetica,sans-Serif" font-size="10.00">spdlog/spdlog.h</text>
</g>
<!-- Node2&#45;&gt;Node3 -->
<g id="edge2" class="edge"><title>Node2&#45;&gt;Node3</title>
<path fill="none" stroke="midnightblue" d="M42.5,-56.083C42.5,-49.0059 42.5,-38.8611 42.5,-29.9865"/>
<polygon fill="midnightblue" stroke="midnightblue" points="46.0001,-29.751 42.5,-19.7511 39.0001,-29.7511 46.0001,-29.751"/>
</g>
</g>
</svg>
