<?xml version="1.0" encoding="UTF-8" standalone="no"?>
<!DOCTYPE svg PUBLIC "-//W3C//DTD SVG 1.1//EN"
 "http://www.w3.org/Graphics/SVG/1.1/DTD/svg11.dtd">
<!-- Generated by graphviz version 2.38.0 (20140413.2041)
 -->
<!-- Title: output_collector.h Pages: 1 -->
<svg width="742pt" height="308pt"
 viewBox="0.00 0.00 742.11 308.00" xmlns="http://www.w3.org/2000/svg" xmlns:xlink="http://www.w3.org/1999/xlink">
<g id="graph0" class="graph" transform="scale(1 1) rotate(0) translate(4 304)">
<title>output_collector.h</title>
<polygon fill="white" stroke="none" points="-4,4 -4,-304 738.107,-304 738.107,4 -4,4"/>
<!-- Node1 -->
<g id="node1" class="node"><title>Node1</title>
<polygon fill="#bfbfbf" stroke="black" points="321.107,-280.5 321.107,-299.5 415.107,-299.5 415.107,-280.5 321.107,-280.5"/>
<text text-anchor="middle" x="368.107" y="-287.5" font-family="Helvetica,sans-Serif" font-size="10.00">output_collector.h</text>
</g>
<!-- Node2 -->
<g id="node2" class="node"><title>Node2</title>
<g id="a_node2"><a xlink:href="../../d4/d57/god_8h.html" target="_top" xlink:title="god.h">
<polygon fill="white" stroke="black" points="347.607,-224.5 347.607,-243.5 388.607,-243.5 388.607,-224.5 347.607,-224.5"/>
<text text-anchor="middle" x="368.107" y="-231.5" font-family="Helvetica,sans-Serif" font-size="10.00">god.h</text>
</a>
</g>
</g>
<!-- Node1&#45;&gt;Node2 -->
<g id="edge1" class="edge"><title>Node1&#45;&gt;Node2</title>
<path fill="none" stroke="midnightblue" d="M368.107,-269.805C368.107,-260.91 368.107,-250.78 368.107,-243.751"/>
<polygon fill="midnightblue" stroke="midnightblue" points="364.607,-270.083 368.107,-280.083 371.607,-270.083 364.607,-270.083"/>
</g>
<!-- Node8 -->
<g id="node8" class="node"><title>Node8</title>
<g id="a_node8"><a xlink:href="../../df/d6f/translation__task_8cpp.html" target="_top" xlink:title="translation_task.cpp">
<polygon fill="white" stroke="black" points="81.1069,-112.5 81.1069,-131.5 185.107,-131.5 185.107,-112.5 81.1069,-112.5"/>
<text text-anchor="middle" x="133.107" y="-119.5" font-family="Helvetica,sans-Serif" font-size="10.00">translation_task.cpp</text>
</a>
</g>
</g>
<!-- Node1&#45;&gt;Node8 -->
<g id="edge20" class="edge"><title>Node1&#45;&gt;Node8</title>
<path fill="none" stroke="midnightblue" d="M311.057,-281.479C218.678,-268.001 42.9463,-236.525 6.10687,-188 -17.4818,-156.929 36.0258,-139.487 80.6938,-130.664"/>
<polygon fill="midnightblue" stroke="midnightblue" points="310.686,-284.961 321.082,-282.919 311.682,-278.033 310.686,-284.961"/>
</g>
<!-- Node18 -->
<g id="node18" class="node"><title>Node18</title>
<g id="a_node18"><a xlink:href="../../d5/df4/amun_2common_2output__collector_8cpp.html" target="_top" xlink:title="output_collector.cpp">
<polygon fill="white" stroke="black" points="407.107,-224.5 407.107,-243.5 511.107,-243.5 511.107,-224.5 407.107,-224.5"/>
<text text-anchor="middle" x="459.107" y="-231.5" font-family="Helvetica,sans-Serif" font-size="10.00">output_collector.cpp</text>
</a>
</g>
</g>
<!-- Node1&#45;&gt;Node18 -->
<g id="edge19" class="edge"><title>Node1&#45;&gt;Node18</title>
<path fill="none" stroke="midnightblue" d="M391.401,-275.177C408.146,-265.241 430.207,-252.149 444.522,-243.655"/>
<polygon fill="midnightblue" stroke="midnightblue" points="389.541,-272.211 382.728,-280.324 393.114,-278.231 389.541,-272.211"/>
</g>
<!-- Node3 -->
<g id="node3" class="node"><title>Node3</title>
<g id="a_node3"><a xlink:href="../../d0/d73/decoder__main_8cpp.html" target="_top" xlink:title="decoder_main.cpp">
<polygon fill="white" stroke="black" points="444.107,-112.5 444.107,-131.5 540.107,-131.5 540.107,-112.5 444.107,-112.5"/>
<text text-anchor="middle" x="492.107" y="-119.5" font-family="Helvetica,sans-Serif" font-size="10.00">decoder_main.cpp</text>
</a>
</g>
</g>
<!-- Node2&#45;&gt;Node3 -->
<g id="edge2" class="edge"><title>Node2&#45;&gt;Node3</title>
<path fill="none" stroke="midnightblue" d="M398.718,-224.191C464.995,-209.497 502.705,-237.268 541.107,-188 556.658,-168.049 526.505,-144.219 506.96,-131.689"/>
<polygon fill="midnightblue" stroke="midnightblue" points="397.585,-220.866 388.729,-226.681 399.278,-227.658 397.585,-220.866"/>
</g>
<!-- Node4 -->
<g id="node4" class="node"><title>Node4</title>
<g id="a_node4"><a xlink:href="../../de/d63/filter_8cpp.html" target="_top" xlink:title="filter.cpp">
<polygon fill="white" stroke="black" points="15.1069,-168.5 15.1069,-187.5 69.1069,-187.5 69.1069,-168.5 15.1069,-168.5"/>
<text text-anchor="middle" x="42.1069" y="-175.5" font-family="Helvetica,sans-Serif" font-size="10.00">filter.cpp</text>
</a>
</g>
</g>
<!-- Node2&#45;&gt;Node4 -->
<g id="edge3" class="edge"><title>Node2&#45;&gt;Node4</title>
<path fill="none" stroke="midnightblue" d="M337.504,-229.184C284.437,-222.359 172.016,-206.984 78.1069,-188 75.2021,-187.413 72.179,-186.746 69.1737,-186.047"/>
<polygon fill="midnightblue" stroke="midnightblue" points="337.239,-232.678 347.601,-230.471 338.124,-225.734 337.239,-232.678"/>
</g>
<!-- Node5 -->
<g id="node5" class="node"><title>Node5</title>
<g id="a_node5"><a xlink:href="../../d3/d73/god_8cpp.html" target="_top" xlink:title="god.cpp">
<polygon fill="white" stroke="black" points="87.6069,-168.5 87.6069,-187.5 138.607,-187.5 138.607,-168.5 87.6069,-168.5"/>
<text text-anchor="middle" x="113.107" y="-175.5" font-family="Helvetica,sans-Serif" font-size="10.00">god.cpp</text>
</a>
</g>
</g>
<!-- Node2&#45;&gt;Node5 -->
<g id="edge4" class="edge"><title>Node2&#45;&gt;Node5</title>
<path fill="none" stroke="midnightblue" d="M337.572,-227.362C294.82,-219.337 214.765,-203.829 147.107,-188 144.372,-187.36 141.522,-186.66 138.687,-185.941"/>
<polygon fill="midnightblue" stroke="midnightblue" points="337.134,-230.841 347.607,-229.237 338.42,-223.96 337.134,-230.841"/>
</g>
<!-- Node6 -->
<g id="node6" class="node"><title>Node6</title>
<g id="a_node6"><a xlink:href="../../d5/dc4/amun_2common_2printer_8h.html" target="_top" xlink:title="printer.h">
<polygon fill="white" stroke="black" points="421.107,-168.5 421.107,-187.5 473.107,-187.5 473.107,-168.5 421.107,-168.5"/>
<text text-anchor="middle" x="447.107" y="-175.5" font-family="Helvetica,sans-Serif" font-size="10.00">printer.h</text>
</a>
</g>
</g>
<!-- Node2&#45;&gt;Node6 -->
<g id="edge5" class="edge"><title>Node2&#45;&gt;Node6</title>
<path fill="none" stroke="midnightblue" d="M389.141,-218.622C403.573,-208.757 422.248,-195.992 434.446,-187.655"/>
<polygon fill="midnightblue" stroke="midnightblue" points="387.08,-215.791 380.8,-224.324 391.03,-221.57 387.08,-215.791"/>
</g>
<!-- Node9 -->
<g id="node9" class="node"><title>Node9</title>
<g id="a_node9"><a xlink:href="../../d5/d49/amunmt_8cpp.html" target="_top" xlink:title="amunmt.cpp">
<polygon fill="white" stroke="black" points="558.607,-112.5 558.607,-131.5 629.607,-131.5 629.607,-112.5 558.607,-112.5"/>
<text text-anchor="middle" x="594.107" y="-119.5" font-family="Helvetica,sans-Serif" font-size="10.00">amunmt.cpp</text>
</a>
</g>
</g>
<!-- Node2&#45;&gt;Node9 -->
<g id="edge18" class="edge"><title>Node2&#45;&gt;Node9</title>
<path fill="none" stroke="midnightblue" d="M398.746,-224.145C471.342,-207.639 502.287,-229.835 558.107,-188 577.307,-173.61 587.611,-145.818 591.811,-131.694"/>
<polygon fill="midnightblue" stroke="midnightblue" points="397.586,-220.826 388.71,-226.612 399.256,-227.624 397.586,-220.826"/>
</g>
<!-- Node10 -->
<g id="node10" class="node"><title>Node10</title>
<g id="a_node10"><a xlink:href="../../d9/def/search_8cpp.html" target="_top" xlink:title="search.cpp">
<polygon fill="white" stroke="black" points="156.607,-168.5 156.607,-187.5 221.607,-187.5 221.607,-168.5 156.607,-168.5"/>
<text text-anchor="middle" x="189.107" y="-175.5" font-family="Helvetica,sans-Serif" font-size="10.00">search.cpp</text>
</a>
</g>
</g>
<!-- Node2&#45;&gt;Node10 -->
<g id="edge10" class="edge"><title>Node2&#45;&gt;Node10</title>
<path fill="none" stroke="midnightblue" d="M337.816,-223.862C304.128,-213.699 250.143,-197.413 217.319,-187.511"/>
<polygon fill="midnightblue" stroke="midnightblue" points="336.989,-227.268 347.573,-226.806 339.01,-220.566 336.989,-227.268"/>
</g>
<!-- Node11 -->
<g id="node11" class="node"><title>Node11</title>
<g id="a_node11"><a xlink:href="../../d7/d57/sentence_8cpp.html" target="_top" xlink:title="sentence.cpp">
<polygon fill="white" stroke="black" points="239.607,-168.5 239.607,-187.5 314.607,-187.5 314.607,-168.5 239.607,-168.5"/>
<text text-anchor="middle" x="277.107" y="-175.5" font-family="Helvetica,sans-Serif" font-size="10.00">sentence.cpp</text>
</a>
</g>
</g>
<!-- Node2&#45;&gt;Node11 -->
<g id="edge11" class="edge"><title>Node2&#45;&gt;Node11</title>
<path fill="none" stroke="midnightblue" d="M344.813,-219.177C328.068,-209.241 306.006,-196.149 291.691,-187.655"/>
<polygon fill="midnightblue" stroke="midnightblue" points="343.1,-222.231 353.486,-224.324 346.672,-216.211 343.1,-222.231"/>
</g>
<!-- Node12 -->
<g id="node12" class="node"><title>Node12</title>
<g id="a_node12"><a xlink:href="../../d0/d90/best__hyps_8h.html" target="_top" xlink:title="best_hyps.h">
<polygon fill="white" stroke="black" points="333.107,-168.5 333.107,-187.5 403.107,-187.5 403.107,-168.5 333.107,-168.5"/>
<text text-anchor="middle" x="368.107" y="-175.5" font-family="Helvetica,sans-Serif" font-size="10.00">best_hyps.h</text>
</a>
</g>
</g>
<!-- Node2&#45;&gt;Node12 -->
<g id="edge12" class="edge"><title>Node2&#45;&gt;Node12</title>
<path fill="none" stroke="midnightblue" d="M368.107,-213.805C368.107,-204.91 368.107,-194.78 368.107,-187.751"/>
<polygon fill="midnightblue" stroke="midnightblue" points="364.607,-214.083 368.107,-224.083 371.607,-214.083 364.607,-214.083"/>
</g>
<!-- Node13 -->
<g id="node13" class="node"><title>Node13</title>
<g id="a_node13"><a xlink:href="../../d6/d72/decoder_8h.html" target="_top" xlink:title="decoder.h">
<polygon fill="white" stroke="black" points="637.607,-168.5 637.607,-187.5 696.607,-187.5 696.607,-168.5 637.607,-168.5"/>
<text text-anchor="middle" x="667.107" y="-175.5" font-family="Helvetica,sans-Serif" font-size="10.00">decoder.h</text>
</a>
</g>
</g>
<!-- Node2&#45;&gt;Node13 -->
<g id="edge13" class="edge"><title>Node2&#45;&gt;Node13</title>
<path fill="none" stroke="midnightblue" d="M398.576,-224.5C437.658,-217.301 576.018,-194.201 637.479,-183.944"/>
<polygon fill="midnightblue" stroke="midnightblue" points="397.803,-221.085 388.672,-226.459 399.161,-227.952 397.803,-221.085"/>
</g>
<!-- Node17 -->
<g id="node17" class="node"><title>Node17</title>
<g id="a_node17"><a xlink:href="../../da/d6d/nmt_8h.html" target="_top" xlink:title="nmt.h">
<polygon fill="white" stroke="black" points="491.607,-168.5 491.607,-187.5 532.607,-187.5 532.607,-168.5 491.607,-168.5"/>
<text text-anchor="middle" x="512.107" y="-175.5" font-family="Helvetica,sans-Serif" font-size="10.00">nmt.h</text>
</a>
</g>
</g>
<!-- Node2&#45;&gt;Node17 -->
<g id="edge17" class="edge"><title>Node2&#45;&gt;Node17</title>
<path fill="none" stroke="midnightblue" d="M398.409,-221.637C426.375,-211.149 467.15,-195.859 491.513,-186.723"/>
<polygon fill="midnightblue" stroke="midnightblue" points="396.873,-218.475 388.739,-225.263 399.331,-225.029 396.873,-218.475"/>
</g>
<!-- Node6&#45;&gt;Node3 -->
<g id="edge6" class="edge"><title>Node6&#45;&gt;Node3</title>
<path fill="none" stroke="midnightblue" d="M461.154,-160.144C468.994,-150.736 478.436,-139.405 484.814,-131.751"/>
<polygon fill="midnightblue" stroke="midnightblue" points="458.251,-158.16 454.538,-168.083 463.628,-162.641 458.251,-158.16"/>
</g>
<!-- Node7 -->
<g id="node7" class="node"><title>Node7</title>
<g id="a_node7"><a xlink:href="../../d3/db8/amun_2common_2printer_8cpp.html" target="_top" xlink:title="printer.cpp">
<polygon fill="white" stroke="black" points="364.107,-112.5 364.107,-131.5 426.107,-131.5 426.107,-112.5 364.107,-112.5"/>
<text text-anchor="middle" x="395.107" y="-119.5" font-family="Helvetica,sans-Serif" font-size="10.00">printer.cpp</text>
</a>
</g>
</g>
<!-- Node6&#45;&gt;Node7 -->
<g id="edge7" class="edge"><title>Node6&#45;&gt;Node7</title>
<path fill="none" stroke="midnightblue" d="M431.427,-160.718C422.262,-151.2 411.054,-139.561 403.534,-131.751"/>
<polygon fill="midnightblue" stroke="midnightblue" points="429.063,-163.308 438.52,-168.083 434.105,-158.452 429.063,-163.308"/>
</g>
<!-- Node6&#45;&gt;Node8 -->
<g id="edge8" class="edge"><title>Node6&#45;&gt;Node8</title>
<path fill="none" stroke="midnightblue" d="M410.811,-167.881C326.623,-150.564 239.413,-137.499 185.304,-129.959"/>
<polygon fill="midnightblue" stroke="midnightblue" points="410.291,-171.348 420.794,-169.958 411.717,-164.495 410.291,-171.348"/>
</g>
<!-- Node6&#45;&gt;Node9 -->
<g id="edge9" class="edge"><title>Node6&#45;&gt;Node9</title>
<path fill="none" stroke="midnightblue" d="M480.03,-164.906C507.667,-154.754 546.451,-140.506 570.923,-131.516"/>
<polygon fill="midnightblue" stroke="midnightblue" points="478.579,-161.71 470.399,-168.444 480.993,-168.281 478.579,-161.71"/>
</g>
<!-- Node14 -->
<g id="node14" class="node"><title>Node14</title>
<g id="a_node14"><a xlink:href="../../db/d89/dl4mt_8h.html" target="_top" xlink:title="dl4mt.h">
<polygon fill="white" stroke="black" points="647.607,-112.5 647.607,-131.5 696.607,-131.5 696.607,-112.5 647.607,-112.5"/>
<text text-anchor="middle" x="672.107" y="-119.5" font-family="Helvetica,sans-Serif" font-size="10.00">dl4mt.h</text>
</a>
</g>
</g>
<!-- Node13&#45;&gt;Node14 -->
<g id="edge14" class="edge"><title>Node13&#45;&gt;Node14</title>
<path fill="none" stroke="midnightblue" d="M668.857,-158.101C669.687,-149.136 670.639,-138.858 671.297,-131.751"/>
<polygon fill="midnightblue" stroke="midnightblue" points="665.37,-157.803 667.933,-168.083 672.34,-158.448 665.37,-157.803"/>
</g>
<!-- Node15 -->
<g id="node15" class="node"><title>Node15</title>
<g id="a_node15"><a xlink:href="../../d6/da3/language__model_8h.html" target="_top" xlink:title="language_model.h">
<polygon fill="white" stroke="black" points="624.607,-56.5 624.607,-75.5 719.607,-75.5 719.607,-56.5 624.607,-56.5"/>
<text text-anchor="middle" x="672.107" y="-63.5" font-family="Helvetica,sans-Serif" font-size="10.00">language_model.h</text>
</a>
</g>
</g>
<!-- Node14&#45;&gt;Node15 -->
<g id="edge15" class="edge"><title>Node14&#45;&gt;Node15</title>
<path fill="none" stroke="midnightblue" d="M672.107,-101.805C672.107,-92.9102 672.107,-82.7798 672.107,-75.7511"/>
<polygon fill="midnightblue" stroke="midnightblue" points="668.607,-102.083 672.107,-112.083 675.607,-102.083 668.607,-102.083"/>
</g>
<!-- Node16 -->
<g id="node16" class="node"><title>Node16</title>
<g id="a_node16"><a xlink:href="../../d3/d17/class__language__model_8h.html" target="_top" xlink:title="class_language_model.h">
<polygon fill="white" stroke="black" points="610.107,-0.5 610.107,-19.5 734.107,-19.5 734.107,-0.5 610.107,-0.5"/>
<text text-anchor="middle" x="672.107" y="-7.5" font-family="Helvetica,sans-Serif" font-size="10.00">class_language_model.h</text>
</a>
</g>
</g>
<!-- Node15&#45;&gt;Node16 -->
<g id="edge16" class="edge"><title>Node15&#45;&gt;Node16</title>
<path fill="none" stroke="midnightblue" d="M672.107,-45.8045C672.107,-36.9102 672.107,-26.7798 672.107,-19.7511"/>
<polygon fill="midnightblue" stroke="midnightblue" points="668.607,-46.083 672.107,-56.083 675.607,-46.083 668.607,-46.083"/>
</g>
</g>
</svg>
