<?xml version="1.0" encoding="UTF-8" standalone="no"?>
<!DOCTYPE svg PUBLIC "-//W3C//DTD SVG 1.1//EN"
 "http://www.w3.org/Graphics/SVG/1.1/DTD/svg11.dtd">
<!-- Generated by graphviz version 2.38.0 (20140413.2041)
 -->
<!-- Title: model_task.h Pages: 1 -->
<svg width="343pt" height="140pt"
 viewBox="0.00 0.00 342.50 140.00" xmlns="http://www.w3.org/2000/svg" xmlns:xlink="http://www.w3.org/1999/xlink">
<g id="graph0" class="graph" transform="scale(1 1) rotate(0) translate(4 136)">
<title>model_task.h</title>
<polygon fill="white" stroke="none" points="-4,4 -4,-136 338.5,-136 338.5,4 -4,4"/>
<!-- Node1 -->
<g id="node1" class="node"><title>Node1</title>
<polygon fill="#bfbfbf" stroke="black" points="104.5,-112.5 104.5,-131.5 179.5,-131.5 179.5,-112.5 104.5,-112.5"/>
<text text-anchor="middle" x="142" y="-119.5" font-family="Helvetica,sans-Serif" font-size="10.00">model_task.h</text>
</g>
<!-- Node2 -->
<g id="node2" class="node"><title>Node2</title>
<g id="a_node2"><a xlink:href="$d2/d10/examples_2mnist_2training_8h.html" xlink:title="training.h">
<polygon fill="white" stroke="black" points="0,-56.5 0,-75.5 56,-75.5 56,-56.5 0,-56.5"/>
<text text-anchor="middle" x="28" y="-63.5" font-family="Helvetica,sans-Serif" font-size="10.00">training.h</text>
</a>
</g>
</g>
<!-- Node1&#45;&gt;Node2 -->
<g id="edge1" class="edge"><title>Node1&#45;&gt;Node2</title>
<path fill="none" stroke="midnightblue" d="M114.758,-108.096C93.4599,-98.0073 64.4583,-84.2697 45.9791,-75.5164"/>
<polygon fill="midnightblue" stroke="midnightblue" points="113.401,-111.326 123.936,-112.444 116.397,-105 113.401,-111.326"/>
</g>
<!-- Node3 -->
<g id="node3" class="node"><title>Node3</title>
<g id="a_node3"><a xlink:href="$de/d5d/rescorer_8h.html" xlink:title="rescorer.h">
<polygon fill="white" stroke="black" points="74,-56.5 74,-75.5 134,-75.5 134,-56.5 74,-56.5"/>
<text text-anchor="middle" x="104" y="-63.5" font-family="Helvetica,sans-Serif" font-size="10.00">rescorer.h</text>
</a>
</g>
</g>
<!-- Node1&#45;&gt;Node3 -->
<g id="edge2" class="edge"><title>Node1&#45;&gt;Node3</title>
<path fill="none" stroke="midnightblue" d="M129.935,-103.855C123.355,-94.5048 115.489,-83.3265 110.158,-75.7511"/>
<polygon fill="midnightblue" stroke="midnightblue" points="127.108,-105.919 135.725,-112.083 132.832,-101.891 127.108,-105.919"/>
</g>
<!-- Node5 -->
<g id="node5" class="node"><title>Node5</title>
<g id="a_node5"><a xlink:href="$df/d43/training_2training_8h.html" xlink:title="training.h">
<polygon fill="white" stroke="black" points="152,-56.5 152,-75.5 208,-75.5 208,-56.5 152,-56.5"/>
<text text-anchor="middle" x="180" y="-63.5" font-family="Helvetica,sans-Serif" font-size="10.00">training.h</text>
</a>
</g>
</g>
<!-- Node1&#45;&gt;Node5 -->
<g id="edge4" class="edge"><title>Node1&#45;&gt;Node5</title>
<path fill="none" stroke="midnightblue" d="M154.065,-103.855C160.645,-94.5048 168.511,-83.3265 173.842,-75.7511"/>
<polygon fill="midnightblue" stroke="midnightblue" points="151.168,-101.891 148.275,-112.083 156.892,-105.919 151.168,-101.891"/>
</g>
<!-- Node7 -->
<g id="node7" class="node"><title>Node7</title>
<g id="a_node7"><a xlink:href="$d9/df1/translator_8h.html" xlink:title="translator.h">
<polygon fill="white" stroke="black" points="239.5,-56.5 239.5,-75.5 304.5,-75.5 304.5,-56.5 239.5,-56.5"/>
<text text-anchor="middle" x="272" y="-63.5" font-family="Helvetica,sans-Serif" font-size="10.00">translator.h</text>
</a>
</g>
</g>
<!-- Node1&#45;&gt;Node7 -->
<g id="edge6" class="edge"><title>Node1&#45;&gt;Node7</title>
<path fill="none" stroke="midnightblue" d="M172.085,-108.503C196.457,-98.3795 230.14,-84.388 251.497,-75.5164"/>
<polygon fill="midnightblue" stroke="midnightblue" points="170.491,-105.375 162.599,-112.444 173.177,-111.84 170.491,-105.375"/>
</g>
<!-- Node4 -->
<g id="node4" class="node"><title>Node4</title>
<g id="a_node4"><a xlink:href="$d0/d0e/s2s__rescorer_8cpp.html" xlink:title="s2s_rescorer.cpp">
<polygon fill="white" stroke="black" points="31,-0.5 31,-19.5 123,-19.5 123,-0.5 31,-0.5"/>
<text text-anchor="middle" x="77" y="-7.5" font-family="Helvetica,sans-Serif" font-size="10.00">s2s_rescorer.cpp</text>
</a>
</g>
</g>
<!-- Node3&#45;&gt;Node4 -->
<g id="edge3" class="edge"><title>Node3&#45;&gt;Node4</title>
<path fill="none" stroke="midnightblue" d="M94.9914,-46.9827C90.4084,-37.8168 85.0461,-27.0922 81.3755,-19.7511"/>
<polygon fill="midnightblue" stroke="midnightblue" points="91.9388,-48.704 99.5415,-56.083 98.1998,-45.5734 91.9388,-48.704"/>
</g>
<!-- Node6 -->
<g id="node6" class="node"><title>Node6</title>
<g id="a_node6"><a xlink:href="$d8/d9d/graph__group_8h.html" xlink:title="graph_group.h">
<polygon fill="white" stroke="black" points="141,-0.5 141,-19.5 219,-19.5 219,-0.5 141,-0.5"/>
<text text-anchor="middle" x="180" y="-7.5" font-family="Helvetica,sans-Serif" font-size="10.00">graph_group.h</text>
</a>
</g>
</g>
<!-- Node5&#45;&gt;Node6 -->
<g id="edge5" class="edge"><title>Node5&#45;&gt;Node6</title>
<path fill="none" stroke="midnightblue" d="M180,-45.8045C180,-36.9102 180,-26.7798 180,-19.7511"/>
<polygon fill="midnightblue" stroke="midnightblue" points="176.5,-46.083 180,-56.083 183.5,-46.083 176.5,-46.083"/>
</g>
<!-- Node8 -->
<g id="node8" class="node"><title>Node8</title>
<g id="a_node8"><a xlink:href="$df/df1/s2s__translator_8cpp.html" xlink:title="s2s_translator.cpp">
<polygon fill="white" stroke="black" points="237.5,-0.5 237.5,-19.5 334.5,-19.5 334.5,-0.5 237.5,-0.5"/>
<text text-anchor="middle" x="286" y="-7.5" font-family="Helvetica,sans-Serif" font-size="10.00">s2s_translator.cpp</text>
</a>
</g>
</g>
<!-- Node7&#45;&gt;Node8 -->
<g id="edge7" class="edge"><title>Node7&#45;&gt;Node8</title>
<path fill="none" stroke="midnightblue" d="M276.823,-46.3956C279.165,-37.362 281.868,-26.936 283.731,-19.7511"/>
<polygon fill="midnightblue" stroke="midnightblue" points="273.434,-45.5246 274.312,-56.083 280.21,-47.2814 273.434,-45.5246"/>
</g>
</g>
</svg>
