<?xml version="1.0" encoding="UTF-8" standalone="no"?>
<!DOCTYPE svg PUBLIC "-//W3C//DTD SVG 1.1//EN"
 "http://www.w3.org/Graphics/SVG/1.1/DTD/svg11.dtd">
<!-- Generated by graphviz version 2.38.0 (20140413.2041)
 -->
<!-- Title: loader_factory.cpp Pages: 1 -->
<!--zoomable 420 -->
<svg id="main" version="1.1" xmlns="http://www.w3.org/2000/svg" xmlns:xlink="http://www.w3.org/1999/xlink" xml:space="preserve" onload="init(evt)">
<style type="text/css"><![CDATA[
.edge:hover path { stroke: red; }
.edge:hover polygon { stroke: red; fill: red; }
]]></style>
<script type="text/javascript"><![CDATA[
var edges = document.getElementsByTagName('g');
if (edges && edges.length) {
  for (var i=0;i<edges.length;i++) {
    if (edges[i].id.substr(0,4)=='edge') {
      edges[i].setAttribute('class','edge');
    }
  }
}
]]></script>
        <defs>
                <circle id="rim" cx="0" cy="0" r="7"/>
                <circle id="rim2" cx="0" cy="0" r="3.5"/>
                <g id="zoomPlus">
                        <use xlink:href="#rim" fill="#404040">
                                <set attributeName="fill" to="#808080" begin="zoomplus.mouseover" end="zoomplus.mouseout"/>
                        </use>
                        <path d="M-4,0h8M0,-4v8" fill="none" stroke="white" stroke-width="1.5" pointer-events="none"/>
                </g>
                <g id="zoomMin">
                        <use xlink:href="#rim" fill="#404040">
                                <set attributeName="fill" to="#808080" begin="zoomminus.mouseover" end="zoomminus.mouseout"/>
                        </use>
                        <path d="M-4,0h8" fill="none" stroke="white" stroke-width="1.5" pointer-events="none"/>
                </g>
                <g id="dirArrow">
                        <path fill="none" stroke="white" stroke-width="1.5" d="M0,-3.0v7 M-2.5,-0.5L0,-3.0L2.5,-0.5"/>
                </g>
               <g id="resetDef">
                       <use xlink:href="#rim2" fill="#404040">
                               <set attributeName="fill" to="#808080" begin="reset.mouseover" end="reset.mouseout"/>
                       </use>
               </g>
        </defs>

<script type="text/javascript">
var viewWidth = 967;
var viewHeight = 420;
var sectionId = 'dynsection-0';
</script>
<script xlink:href="../../svgpan.js"/>
<svg id="graph" class="graph">
<g id="viewport">
<title>loader_factory.cpp</title>
<polygon fill="white" stroke="none" points="-4,4 -4,-416 962.569,-416 962.569,4 -4,4"/>
<!-- Node1 -->
<g id="node1" class="node"><title>Node1</title>
<polygon fill="#bfbfbf" stroke="black" points="525.069,-392.5 525.069,-411.5 622.069,-411.5 622.069,-392.5 525.069,-392.5"/>
<text text-anchor="middle" x="573.569" y="-399.5" font-family="Helvetica,sans-Serif" font-size="10.00">loader_factory.cpp</text>
</g>
<!-- Node2 -->
<g id="node2" class="node"><title>Node2</title>
<g id="a_node2"><a xlink:href="../../de/d2b/loader__factory_8h.html" target="_top" xlink:title="common/loader_factory.h">
<polygon fill="white" stroke="black" points="510.069,-336.5 510.069,-355.5 637.069,-355.5 637.069,-336.5 510.069,-336.5"/>
<text text-anchor="middle" x="573.569" y="-343.5" font-family="Helvetica,sans-Serif" font-size="10.00">common/loader_factory.h</text>
</a>
</g>
</g>
<!-- Node1&#45;&gt;Node2 -->
<g id="edge1" class="edge"><title>Node1&#45;&gt;Node2</title>
<path fill="none" stroke="midnightblue" d="M573.569,-392.083C573.569,-385.006 573.569,-374.861 573.569,-365.986"/>
<polygon fill="midnightblue" stroke="midnightblue" points="577.069,-365.751 573.569,-355.751 570.069,-365.751 577.069,-365.751"/>
</g>
<!-- Node12 -->
<g id="node12" class="node"><title>Node12</title>
<g id="a_node12"><a xlink:href="../../da/d3b/scorer_8h.html" target="_top" xlink:title="scorer.h">
<polygon fill="white" stroke="black" points="363.569,-168.5 363.569,-187.5 415.569,-187.5 415.569,-168.5 363.569,-168.5"/>
<text text-anchor="middle" x="389.569" y="-175.5" font-family="Helvetica,sans-Serif" font-size="10.00">scorer.h</text>
</a>
</g>
</g>
<!-- Node1&#45;&gt;Node12 -->
<g id="edge43" class="edge"><title>Node1&#45;&gt;Node12</title>
<path fill="none" stroke="midnightblue" d="M557.195,-392.358C541.911,-383.962 518.789,-370.403 500.569,-356 472.956,-334.173 464.618,-328.93 444.569,-300 421.441,-266.627 404.123,-221.966 395.554,-197.301"/>
<polygon fill="midnightblue" stroke="midnightblue" points="398.85,-196.121 392.334,-187.766 392.218,-198.36 398.85,-196.121"/>
</g>
<!-- Node26 -->
<g id="node26" class="node"><title>Node26</title>
<polygon fill="white" stroke="#bfbfbf" points="655.569,-336.5 655.569,-355.5 751.569,-355.5 751.569,-336.5 655.569,-336.5"/>
<text text-anchor="middle" x="703.569" y="-343.5" font-family="Helvetica,sans-Serif" font-size="10.00">common/logging.h</text>
</g>
<!-- Node1&#45;&gt;Node26 -->
<g id="edge44" class="edge"><title>Node1&#45;&gt;Node26</title>
<path fill="none" stroke="midnightblue" d="M594.168,-392.444C615.562,-383.557 649.25,-369.563 673.593,-359.451"/>
<polygon fill="midnightblue" stroke="midnightblue" points="675.174,-362.585 683.066,-355.516 672.489,-356.12 675.174,-362.585"/>
</g>
<!-- Node3 -->
<g id="node3" class="node"><title>Node3</title>
<polygon fill="white" stroke="#bfbfbf" points="524.569,-0.5 524.569,-19.5 568.569,-19.5 568.569,-0.5 524.569,-0.5"/>
<text text-anchor="middle" x="546.569" y="-7.5" font-family="Helvetica,sans-Serif" font-size="10.00">vector</text>
</g>
<!-- Node2&#45;&gt;Node3 -->
<g id="edge2" class="edge"><title>Node2&#45;&gt;Node3</title>
<path fill="none" stroke="midnightblue" d="M631.886,-336.459C677.958,-328.979 743.595,-316.689 799.569,-300 863.395,-280.97 877.3,-270.115 938.569,-244 947.536,-240.178 958.569,-244.747 958.569,-235 958.569,-235 958.569,-235 958.569,-121 958.569,-42.5059 675.888,-18.5756 578.828,-12.6726"/>
<polygon fill="midnightblue" stroke="midnightblue" points="578.907,-9.17128 568.72,-12.0828 578.499,-16.1594 578.907,-9.17128"/>
</g>
<!-- Node4 -->
<g id="node4" class="node"><title>Node4</title>
<polygon fill="white" stroke="#bfbfbf" points="529.069,-224.5 529.069,-243.5 618.069,-243.5 618.069,-224.5 529.069,-224.5"/>
<text text-anchor="middle" x="573.569" y="-231.5" font-family="Helvetica,sans-Serif" font-size="10.00">yaml&#45;cpp/yaml.h</text>
</g>
<!-- Node2&#45;&gt;Node4 -->
<g id="edge3" class="edge"><title>Node2&#45;&gt;Node4</title>
<path fill="none" stroke="midnightblue" d="M573.569,-336.368C573.569,-318.617 573.569,-277.666 573.569,-253.597"/>
<polygon fill="midnightblue" stroke="midnightblue" points="577.069,-253.591 573.569,-243.591 570.069,-253.591 577.069,-253.591"/>
</g>
<!-- Node5 -->
<g id="node5" class="node"><title>Node5</title>
<g id="a_node5"><a xlink:href="../../dd/d2d/exception_8h.html" target="_top" xlink:title="common/exception.h">
<polygon fill="white" stroke="black" points="684.069,-280.5 684.069,-299.5 791.069,-299.5 791.069,-280.5 684.069,-280.5"/>
<text text-anchor="middle" x="737.569" y="-287.5" font-family="Helvetica,sans-Serif" font-size="10.00">common/exception.h</text>
</a>
</g>
</g>
<!-- Node2&#45;&gt;Node5 -->
<g id="edge4" class="edge"><title>Node2&#45;&gt;Node5</title>
<path fill="none" stroke="midnightblue" d="M599.555,-336.444C627.265,-327.32 671.321,-312.813 702.185,-302.651"/>
<polygon fill="midnightblue" stroke="midnightblue" points="703.301,-305.968 711.704,-299.516 701.111,-299.32 703.301,-305.968"/>
</g>
<!-- Node11 -->
<g id="node11" class="node"><title>Node11</title>
<g id="a_node11"><a xlink:href="../../db/db8/loader_8h.html" target="_top" xlink:title="common/loader.h">
<polygon fill="white" stroke="black" points="453.569,-280.5 453.569,-299.5 545.569,-299.5 545.569,-280.5 453.569,-280.5"/>
<text text-anchor="middle" x="499.569" y="-287.5" font-family="Helvetica,sans-Serif" font-size="10.00">common/loader.h</text>
</a>
</g>
</g>
<!-- Node2&#45;&gt;Node11 -->
<g id="edge10" class="edge"><title>Node2&#45;&gt;Node11</title>
<path fill="none" stroke="midnightblue" d="M561.68,-336.324C550.419,-328.107 533.282,-315.602 519.86,-305.807"/>
<polygon fill="midnightblue" stroke="midnightblue" points="521.816,-302.901 511.675,-299.834 517.689,-308.556 521.816,-302.901"/>
</g>
<!-- Node6 -->
<g id="node6" class="node"><title>Node6</title>
<polygon fill="white" stroke="#bfbfbf" points="674.569,-224.5 674.569,-243.5 726.569,-243.5 726.569,-224.5 674.569,-224.5"/>
<text text-anchor="middle" x="700.569" y="-231.5" font-family="Helvetica,sans-Serif" font-size="10.00">sstream</text>
</g>
<!-- Node5&#45;&gt;Node6 -->
<g id="edge5" class="edge"><title>Node5&#45;&gt;Node6</title>
<path fill="none" stroke="midnightblue" d="M731.459,-280.083C726.287,-272.534 718.723,-261.495 712.375,-252.23"/>
<polygon fill="midnightblue" stroke="midnightblue" points="715.105,-250.022 706.565,-243.751 709.33,-253.979 715.105,-250.022"/>
</g>
<!-- Node7 -->
<g id="node7" class="node"><title>Node7</title>
<polygon fill="white" stroke="#bfbfbf" points="745.069,-224.5 745.069,-243.5 804.069,-243.5 804.069,-224.5 745.069,-224.5"/>
<text text-anchor="middle" x="774.569" y="-231.5" font-family="Helvetica,sans-Serif" font-size="10.00">exception</text>
</g>
<!-- Node5&#45;&gt;Node7 -->
<g id="edge6" class="edge"><title>Node5&#45;&gt;Node7</title>
<path fill="none" stroke="midnightblue" d="M743.679,-280.083C748.851,-272.534 756.415,-261.495 762.763,-252.23"/>
<polygon fill="midnightblue" stroke="midnightblue" points="765.808,-253.979 768.573,-243.751 760.033,-250.022 765.808,-253.979"/>
</g>
<!-- Node8 -->
<g id="node8" class="node"><title>Node8</title>
<polygon fill="white" stroke="#bfbfbf" points="822.569,-224.5 822.569,-243.5 862.569,-243.5 862.569,-224.5 822.569,-224.5"/>
<text text-anchor="middle" x="842.569" y="-231.5" font-family="Helvetica,sans-Serif" font-size="10.00">limits</text>
</g>
<!-- Node5&#45;&gt;Node8 -->
<g id="edge7" class="edge"><title>Node5&#45;&gt;Node8</title>
<path fill="none" stroke="midnightblue" d="M754.439,-280.324C771.278,-271.664 797.376,-258.242 816.807,-248.249"/>
<polygon fill="midnightblue" stroke="midnightblue" points="818.449,-251.341 825.741,-243.655 815.247,-245.116 818.449,-251.341"/>
</g>
<!-- Node9 -->
<g id="node9" class="node"><title>Node9</title>
<polygon fill="white" stroke="#bfbfbf" points="521.069,-56.5 521.069,-75.5 562.069,-75.5 562.069,-56.5 521.069,-56.5"/>
<text text-anchor="middle" x="541.569" y="-63.5" font-family="Helvetica,sans-Serif" font-size="10.00">string</text>
</g>
<!-- Node5&#45;&gt;Node9 -->
<g id="edge8" class="edge"><title>Node5&#45;&gt;Node9</title>
<path fill="none" stroke="midnightblue" d="M719.623,-280.39C704.158,-272.395 681.823,-259.422 665.569,-244 651.681,-230.823 581.118,-126.149 553.079,-84.2492"/>
<polygon fill="midnightblue" stroke="midnightblue" points="555.814,-82.0429 547.348,-75.6736 549.994,-85.9326 555.814,-82.0429"/>
</g>
<!-- Node10 -->
<g id="node10" class="node"><title>Node10</title>
<polygon fill="white" stroke="#bfbfbf" points="881.069,-224.5 881.069,-243.5 930.069,-243.5 930.069,-224.5 881.069,-224.5"/>
<text text-anchor="middle" x="905.569" y="-231.5" font-family="Helvetica,sans-Serif" font-size="10.00">stdint.h</text>
</g>
<!-- Node5&#45;&gt;Node10 -->
<g id="edge9" class="edge"><title>Node5&#45;&gt;Node10</title>
<path fill="none" stroke="midnightblue" d="M764.189,-280.444C793.159,-271.132 839.571,-256.214 871.257,-246.029"/>
<polygon fill="midnightblue" stroke="midnightblue" points="872.537,-249.294 880.986,-242.902 870.395,-242.63 872.537,-249.294"/>
</g>
<!-- Node11&#45;&gt;Node3 -->
<g id="edge11" class="edge"><title>Node11&#45;&gt;Node3</title>
<path fill="none" stroke="midnightblue" d="M500.87,-280.48C503.128,-267.541 508.615,-242.487 519.569,-224 534.069,-199.528 597.923,-158.378 608.569,-132 613.723,-119.229 620.511,-81.0718 607.569,-56 600.642,-42.5812 587.669,-32.1507 575.461,-24.7256"/>
<polygon fill="midnightblue" stroke="midnightblue" points="576.822,-21.4757 566.389,-19.6338 573.396,-27.5801 576.822,-21.4757"/>
</g>
<!-- Node11&#45;&gt;Node4 -->
<g id="edge12" class="edge"><title>Node11&#45;&gt;Node4</title>
<path fill="none" stroke="midnightblue" d="M511.458,-280.324C522.719,-272.107 539.856,-259.602 553.278,-249.807"/>
<polygon fill="midnightblue" stroke="midnightblue" points="555.448,-252.556 561.463,-243.834 551.322,-246.901 555.448,-252.556"/>
</g>
<!-- Node11&#45;&gt;Node12 -->
<g id="edge13" class="edge"><title>Node11&#45;&gt;Node12</title>
<path fill="none" stroke="midnightblue" d="M491.869,-280.395C480.485,-267.767 458.372,-243.591 438.569,-224 428.408,-213.948 416.62,-203.099 407.153,-194.572"/>
<polygon fill="midnightblue" stroke="midnightblue" points="409.318,-191.812 399.53,-187.755 404.652,-197.03 409.318,-191.812"/>
</g>
<!-- Node23 -->
<g id="node23" class="node"><title>Node23</title>
<g id="a_node23"><a xlink:href="../../d5/dbc/base__best__hyps_8h.html" target="_top" xlink:title="common/base_best_hyps.h">
<polygon fill="white" stroke="black" points="259.069,-224.5 259.069,-243.5 396.069,-243.5 396.069,-224.5 259.069,-224.5"/>
<text text-anchor="middle" x="327.569" y="-231.5" font-family="Helvetica,sans-Serif" font-size="10.00">common/base_best_hyps.h</text>
</a>
</g>
</g>
<!-- Node11&#45;&gt;Node23 -->
<g id="edge37" class="edge"><title>Node11&#45;&gt;Node23</title>
<path fill="none" stroke="midnightblue" d="M472.315,-280.444C443.128,-271.28 396.648,-256.688 364.26,-246.519"/>
<polygon fill="midnightblue" stroke="midnightblue" points="365.285,-243.173 354.695,-243.516 363.188,-249.851 365.285,-243.173"/>
</g>
<!-- Node12&#45;&gt;Node3 -->
<g id="edge14" class="edge"><title>Node12&#45;&gt;Node3</title>
<path fill="none" stroke="midnightblue" d="M415.679,-174.401C461.097,-169.283 551.622,-156.234 570.569,-132 594.43,-101.481 572.587,-53.6774 557.716,-28.2541"/>
<polygon fill="midnightblue" stroke="midnightblue" points="560.677,-26.3869 552.468,-19.6888 554.709,-30.0441 560.677,-26.3869"/>
</g>
<!-- Node13 -->
<g id="node13" class="node"><title>Node13</title>
<polygon fill="white" stroke="#bfbfbf" points="87.569,-0.5 87.569,-19.5 139.569,-19.5 139.569,-0.5 87.569,-0.5"/>
<text text-anchor="middle" x="113.569" y="-7.5" font-family="Helvetica,sans-Serif" font-size="10.00">memory</text>
</g>
<!-- Node12&#45;&gt;Node13 -->
<g id="edge15" class="edge"><title>Node12&#45;&gt;Node13</title>
<path fill="none" stroke="midnightblue" d="M363.315,-169.983C360.048,-169.244 356.741,-168.56 353.569,-168 277.876,-154.646 61.0124,-189.108 9.56898,-132 -25.0026,-93.6216 45.9722,-46.9527 87.0734,-24.4343"/>
<polygon fill="midnightblue" stroke="midnightblue" points="88.8998,-27.4268 96.0703,-19.6271 85.6009,-21.2528 88.8998,-27.4268"/>
</g>
<!-- Node14 -->
<g id="node14" class="node"><title>Node14</title>
<g id="a_node14"><a xlink:href="../../d6/d52/amun_2common_2hypothesis_8h.html" target="_top" xlink:title="common/hypothesis.h">
<polygon fill="white" stroke="black" points="19.069,-112.5 19.069,-131.5 132.069,-131.5 132.069,-112.5 19.069,-112.5"/>
<text text-anchor="middle" x="75.569" y="-119.5" font-family="Helvetica,sans-Serif" font-size="10.00">common/hypothesis.h</text>
</a>
</g>
</g>
<!-- Node12&#45;&gt;Node14 -->
<g id="edge16" class="edge"><title>Node12&#45;&gt;Node14</title>
<path fill="none" stroke="midnightblue" d="M363.282,-170.156C360.02,-169.387 356.724,-168.649 353.569,-168 281.884,-153.265 198.986,-140.377 142.495,-132.213"/>
<polygon fill="midnightblue" stroke="midnightblue" points="142.659,-128.701 132.263,-130.744 141.664,-135.63 142.659,-128.701"/>
</g>
<!-- Node20 -->
<g id="node20" class="node"><title>Node20</title>
<g id="a_node20"><a xlink:href="../../d6/df4/sentence_8h.html" target="_top" xlink:title="common/sentence.h">
<polygon fill="white" stroke="black" points="457.069,-112.5 457.069,-131.5 562.069,-131.5 562.069,-112.5 457.069,-112.5"/>
<text text-anchor="middle" x="509.569" y="-119.5" font-family="Helvetica,sans-Serif" font-size="10.00">common/sentence.h</text>
</a>
</g>
</g>
<!-- Node12&#45;&gt;Node20 -->
<g id="edge26" class="edge"><title>Node12&#45;&gt;Node20</title>
<path fill="none" stroke="midnightblue" d="M408.583,-168.444C428.157,-159.636 458.877,-145.812 481.298,-135.722"/>
<polygon fill="midnightblue" stroke="midnightblue" points="482.961,-138.812 490.644,-131.516 480.088,-132.428 482.961,-138.812"/>
</g>
<!-- Node21 -->
<g id="node21" class="node"><title>Node21</title>
<g id="a_node21"><a xlink:href="../../d3/d75/base__matrix_8h.html" target="_top" xlink:title="common/base_matrix.h">
<polygon fill="white" stroke="black" points="189.069,-112.5 189.069,-131.5 308.069,-131.5 308.069,-112.5 189.069,-112.5"/>
<text text-anchor="middle" x="248.569" y="-119.5" font-family="Helvetica,sans-Serif" font-size="10.00">common/base_matrix.h</text>
</a>
</g>
</g>
<!-- Node12&#45;&gt;Node21 -->
<g id="edge31" class="edge"><title>Node12&#45;&gt;Node21</title>
<path fill="none" stroke="midnightblue" d="M367.227,-168.444C343.816,-159.478 306.833,-145.314 280.379,-135.183"/>
<polygon fill="midnightblue" stroke="midnightblue" points="281.397,-131.824 270.806,-131.516 278.893,-138.361 281.397,-131.824"/>
</g>
<!-- Node22 -->
<g id="node22" class="node"><title>Node22</title>
<polygon fill="white" stroke="#bfbfbf" points="326.069,-112.5 326.069,-131.5 439.069,-131.5 439.069,-112.5 326.069,-112.5"/>
<text text-anchor="middle" x="382.569" y="-119.5" font-family="Helvetica,sans-Serif" font-size="10.00">yaml&#45;cpp/node/node.h</text>
</g>
<!-- Node12&#45;&gt;Node22 -->
<g id="edge36" class="edge"><title>Node12&#45;&gt;Node22</title>
<path fill="none" stroke="midnightblue" d="M388.413,-168.083C387.485,-160.927 386.151,-150.635 384.992,-141.691"/>
<polygon fill="midnightblue" stroke="midnightblue" points="388.46,-141.218 383.703,-131.751 381.518,-142.118 388.46,-141.218"/>
</g>
<!-- Node14&#45;&gt;Node13 -->
<g id="edge17" class="edge"><title>Node14&#45;&gt;Node13</title>
<path fill="none" stroke="midnightblue" d="M78.5508,-112.368C84.7109,-94.5366 98.9579,-53.2953 107.257,-29.2717"/>
<polygon fill="midnightblue" stroke="midnightblue" points="110.644,-30.1862 110.601,-19.5914 104.028,-27.9005 110.644,-30.1862"/>
</g>
<!-- Node15 -->
<g id="node15" class="node"><title>Node15</title>
<g id="a_node15"><a xlink:href="../../dc/de7/amun_2common_2types_8h.html" target="_top" xlink:title="common/types.h">
<polygon fill="white" stroke="black" points="327.069,-56.5 327.069,-75.5 416.069,-75.5 416.069,-56.5 327.069,-56.5"/>
<text text-anchor="middle" x="371.569" y="-63.5" font-family="Helvetica,sans-Serif" font-size="10.00">common/types.h</text>
</a>
</g>
</g>
<!-- Node14&#45;&gt;Node15 -->
<g id="edge18" class="edge"><title>Node14&#45;&gt;Node15</title>
<path fill="none" stroke="midnightblue" d="M122.471,-112.444C175.263,-102.813 260.928,-87.1846 316.761,-76.9988"/>
<polygon fill="midnightblue" stroke="midnightblue" points="317.614,-80.4009 326.824,-75.1629 316.358,-73.5146 317.614,-80.4009"/>
</g>
<!-- Node19 -->
<g id="node19" class="node"><title>Node19</title>
<g id="a_node19"><a xlink:href="../../d3/d59/soft__alignment_8h.html" target="_top" xlink:title="common/soft_alignment.h">
<polygon fill="white" stroke="black" points="180.069,-56.5 180.069,-75.5 309.069,-75.5 309.069,-56.5 180.069,-56.5"/>
<text text-anchor="middle" x="244.569" y="-63.5" font-family="Helvetica,sans-Serif" font-size="10.00">common/soft_alignment.h</text>
</a>
</g>
</g>
<!-- Node14&#45;&gt;Node19 -->
<g id="edge23" class="edge"><title>Node14&#45;&gt;Node19</title>
<path fill="none" stroke="midnightblue" d="M102.348,-112.444C130.902,-103.32 176.302,-88.8133 208.106,-78.6509"/>
<polygon fill="midnightblue" stroke="midnightblue" points="209.455,-81.8941 217.916,-75.5164 207.325,-75.2262 209.455,-81.8941"/>
</g>
<!-- Node15&#45;&gt;Node3 -->
<g id="edge21" class="edge"><title>Node15&#45;&gt;Node3</title>
<path fill="none" stroke="midnightblue" d="M399.298,-56.4435C430.741,-46.7411 481.91,-30.952 514.898,-20.7727"/>
<polygon fill="midnightblue" stroke="midnightblue" points="515.987,-24.0997 524.51,-17.8067 513.923,-17.4109 515.987,-24.0997"/>
</g>
<!-- Node16 -->
<g id="node16" class="node"><title>Node16</title>
<polygon fill="white" stroke="#bfbfbf" points="417.069,-0.5 417.069,-19.5 462.069,-19.5 462.069,-0.5 417.069,-0.5"/>
<text text-anchor="middle" x="439.569" y="-7.5" font-family="Helvetica,sans-Serif" font-size="10.00">cstdlib</text>
</g>
<!-- Node15&#45;&gt;Node16 -->
<g id="edge19" class="edge"><title>Node15&#45;&gt;Node16</title>
<path fill="none" stroke="midnightblue" d="M382.494,-56.324C392.744,-48.1849 408.29,-35.8395 420.57,-26.0874"/>
<polygon fill="midnightblue" stroke="midnightblue" points="422.79,-28.7937 428.445,-19.8339 418.437,-23.3119 422.79,-28.7937"/>
</g>
<!-- Node17 -->
<g id="node17" class="node"><title>Node17</title>
<polygon fill="white" stroke="#bfbfbf" points="280.569,-0.5 280.569,-19.5 326.569,-19.5 326.569,-0.5 280.569,-0.5"/>
<text text-anchor="middle" x="303.569" y="-7.5" font-family="Helvetica,sans-Serif" font-size="10.00">cstdint</text>
</g>
<!-- Node15&#45;&gt;Node17 -->
<g id="edge20" class="edge"><title>Node15&#45;&gt;Node17</title>
<path fill="none" stroke="midnightblue" d="M360.644,-56.324C350.394,-48.1849 334.848,-35.8395 322.568,-26.0874"/>
<polygon fill="midnightblue" stroke="midnightblue" points="324.701,-23.3119 314.693,-19.8339 320.348,-28.7937 324.701,-23.3119"/>
</g>
<!-- Node18 -->
<g id="node18" class="node"><title>Node18</title>
<polygon fill="white" stroke="#bfbfbf" points="344.569,-0.5 344.569,-19.5 398.569,-19.5 398.569,-0.5 344.569,-0.5"/>
<text text-anchor="middle" x="371.569" y="-7.5" font-family="Helvetica,sans-Serif" font-size="10.00">iostream</text>
</g>
<!-- Node15&#45;&gt;Node18 -->
<g id="edge22" class="edge"><title>Node15&#45;&gt;Node18</title>
<path fill="none" stroke="midnightblue" d="M371.569,-56.083C371.569,-49.0059 371.569,-38.8611 371.569,-29.9865"/>
<polygon fill="midnightblue" stroke="midnightblue" points="375.069,-29.751 371.569,-19.7511 368.069,-29.7511 375.069,-29.751"/>
</g>
<!-- Node19&#45;&gt;Node3 -->
<g id="edge24" class="edge"><title>Node19&#45;&gt;Node3</title>
<path fill="none" stroke="midnightblue" d="M292.422,-56.4435C354.48,-45.3471 461.062,-26.2893 514.316,-16.7672"/>
<polygon fill="midnightblue" stroke="midnightblue" points="514.998,-20.2007 524.226,-14.9951 513.766,-13.31 514.998,-20.2007"/>
</g>
<!-- Node19&#45;&gt;Node13 -->
<g id="edge25" class="edge"><title>Node19&#45;&gt;Node13</title>
<path fill="none" stroke="midnightblue" d="M223.812,-56.4435C202.253,-47.5566 168.306,-33.5632 143.775,-23.4514"/>
<polygon fill="midnightblue" stroke="midnightblue" points="144.808,-20.0917 134.229,-19.5164 142.141,-26.5634 144.808,-20.0917"/>
</g>
<!-- Node20&#45;&gt;Node3 -->
<g id="edge28" class="edge"><title>Node20&#45;&gt;Node3</title>
<path fill="none" stroke="midnightblue" d="M508.171,-112.27C506.489,-99.4866 504.679,-75.1184 511.569,-56 515.454,-45.2194 522.984,-34.9857 530.068,-27.0092"/>
<polygon fill="midnightblue" stroke="midnightblue" points="532.769,-29.2476 537.116,-19.5858 527.692,-24.4278 532.769,-29.2476"/>
</g>
<!-- Node20&#45;&gt;Node9 -->
<g id="edge29" class="edge"><title>Node20&#45;&gt;Node9</title>
<path fill="none" stroke="midnightblue" d="M514.853,-112.083C519.28,-104.613 525.732,-93.7244 531.187,-84.5199"/>
<polygon fill="midnightblue" stroke="midnightblue" points="534.296,-86.1383 536.383,-75.7511 528.274,-82.5697 534.296,-86.1383"/>
</g>
<!-- Node20&#45;&gt;Node13 -->
<g id="edge27" class="edge"><title>Node20&#45;&gt;Node13</title>
<path fill="none" stroke="midnightblue" d="M456.811,-113.287C453.685,-112.847 450.586,-112.415 447.569,-112 324.581,-95.0824 280.104,-134.433 170.569,-76 149.952,-65.0015 133.33,-43.3403 123.469,-28.0532"/>
<polygon fill="midnightblue" stroke="midnightblue" points="126.441,-26.204 118.228,-19.5109 120.474,-29.8648 126.441,-26.204"/>
</g>
<!-- Node20&#45;&gt;Node15 -->
<g id="edge30" class="edge"><title>Node20&#45;&gt;Node15</title>
<path fill="none" stroke="midnightblue" d="M487.702,-112.444C464.79,-103.478 428.594,-89.314 402.703,-79.1827"/>
<polygon fill="midnightblue" stroke="midnightblue" points="403.921,-75.9011 393.333,-75.5164 401.37,-82.4198 403.921,-75.9011"/>
</g>
<!-- Node21&#45;&gt;Node3 -->
<g id="edge33" class="edge"><title>Node21&#45;&gt;Node3</title>
<path fill="none" stroke="midnightblue" d="M294.349,-112.436C330.43,-104.943 381.638,-92.6478 424.569,-76 461.113,-61.829 500.684,-39.284 524.546,-24.8174"/>
<polygon fill="midnightblue" stroke="midnightblue" points="526.482,-27.7357 533.174,-19.5218 522.82,-21.7697 526.482,-27.7357"/>
</g>
<!-- Node21&#45;&gt;Node9 -->
<g id="edge32" class="edge"><title>Node21&#45;&gt;Node9</title>
<path fill="none" stroke="midnightblue" d="M294.996,-112.444C355.532,-101.287 459.737,-82.0817 511.115,-72.6127"/>
<polygon fill="midnightblue" stroke="midnightblue" points="511.75,-76.0546 520.95,-70.8 510.482,-69.1706 511.75,-76.0546"/>
</g>
<!-- Node21&#45;&gt;Node13 -->
<g id="edge34" class="edge"><title>Node21&#45;&gt;Node13</title>
<path fill="none" stroke="midnightblue" d="M205.601,-112.451C182.761,-105.922 155.73,-94.7411 137.569,-76 125.415,-63.4576 119.327,-44.2347 116.335,-29.9431"/>
<polygon fill="midnightblue" stroke="midnightblue" points="119.723,-29.0019 114.541,-19.7606 112.829,-30.2162 119.723,-29.0019"/>
</g>
<!-- Node21&#45;&gt;Node15 -->
<g id="edge35" class="edge"><title>Node21&#45;&gt;Node15</title>
<path fill="none" stroke="midnightblue" d="M268.059,-112.444C288.211,-103.596 319.892,-89.6875 342.9,-79.5865"/>
<polygon fill="midnightblue" stroke="midnightblue" points="344.421,-82.7411 352.17,-75.5164 341.607,-76.3316 344.421,-82.7411"/>
</g>
<!-- Node23&#45;&gt;Node3 -->
<g id="edge39" class="edge"><title>Node23&#45;&gt;Node3</title>
<path fill="none" stroke="midnightblue" d="M396.275,-227.553C458.38,-218.569 546.47,-194.804 589.569,-132 608.681,-104.149 602.14,-87.3514 589.569,-56 584.889,-44.328 575.578,-33.9687 566.813,-26.1405"/>
<polygon fill="midnightblue" stroke="midnightblue" points="568.993,-23.4011 559.066,-19.698 564.517,-28.7832 568.993,-23.4011"/>
</g>
<!-- Node23&#45;&gt;Node12 -->
<g id="edge42" class="edge"><title>Node23&#45;&gt;Node12</title>
<path fill="none" stroke="midnightblue" d="M337.53,-224.324C346.696,-216.341 360.506,-204.313 371.597,-194.653"/>
<polygon fill="midnightblue" stroke="midnightblue" points="374.184,-197.041 379.426,-187.834 369.587,-191.762 374.184,-197.041"/>
</g>
<!-- Node23&#45;&gt;Node15 -->
<g id="edge41" class="edge"><title>Node23&#45;&gt;Node15</title>
<path fill="none" stroke="midnightblue" d="M299.925,-224.44C246.831,-206.599 139.262,-162.846 179.569,-112 188.211,-101.099 263.266,-85.9019 316.924,-76.2573"/>
<polygon fill="midnightblue" stroke="midnightblue" points="317.776,-79.6608 327.009,-74.4643 316.551,-72.7689 317.776,-79.6608"/>
</g>
<!-- Node24 -->
<g id="node24" class="node"><title>Node24</title>
<polygon fill="white" stroke="#bfbfbf" points="233.069,-168.5 233.069,-187.5 292.069,-187.5 292.069,-168.5 233.069,-168.5"/>
<text text-anchor="middle" x="262.569" y="-175.5" font-family="Helvetica,sans-Serif" font-size="10.00">functional</text>
</g>
<!-- Node23&#45;&gt;Node24 -->
<g id="edge38" class="edge"><title>Node23&#45;&gt;Node24</title>
<path fill="none" stroke="midnightblue" d="M317.126,-224.324C307.423,-216.263 292.754,-204.077 281.069,-194.369"/>
<polygon fill="midnightblue" stroke="midnightblue" points="283.131,-191.532 273.202,-187.834 278.658,-196.916 283.131,-191.532"/>
</g>
<!-- Node25 -->
<g id="node25" class="node"><title>Node25</title>
<polygon fill="white" stroke="#bfbfbf" points="310.069,-168.5 310.069,-187.5 345.069,-187.5 345.069,-168.5 310.069,-168.5"/>
<text text-anchor="middle" x="327.569" y="-175.5" font-family="Helvetica,sans-Serif" font-size="10.00">map</text>
</g>
<!-- Node23&#45;&gt;Node25 -->
<g id="edge40" class="edge"><title>Node23&#45;&gt;Node25</title>
<path fill="none" stroke="midnightblue" d="M327.569,-224.083C327.569,-217.006 327.569,-206.861 327.569,-197.986"/>
<polygon fill="midnightblue" stroke="midnightblue" points="331.069,-197.751 327.569,-187.751 324.069,-197.751 331.069,-197.751"/>
</g>
</g>
</svg>
        <g id="navigator" transform="translate(0 0)" fill="#404254">
                <rect fill="#f2f5e9" fill-opacity="0.5" stroke="#606060" stroke-width=".5" x="0" y="0" width="60" height="60"/>
                <use id="zoomplus" xlink:href="#zoomPlus" x="17" y="9" onmousedown="handleZoom(evt,'in')"/>
                <use id="zoomminus" xlink:href="#zoomMin" x="42" y="9" onmousedown="handleZoom(evt,'out')"/>
                <use id="reset" xlink:href="#resetDef" x="30" y="36" onmousedown="handleReset()"/>
                <g id="arrowUp" xlink:href="#dirArrow" transform="translate(30 24)" onmousedown="handlePan(0,-1)">
                  <use xlink:href="#rim" fill="#404040">
                        <set attributeName="fill" to="#808080" begin="arrowUp.mouseover" end="arrowUp.mouseout"/>
                  </use>
                  <path fill="none" stroke="white" stroke-width="1.5" d="M0,-3.0v7 M-2.5,-0.5L0,-3.0L2.5,-0.5"/>
                </g>
                <g id="arrowRight" xlink:href="#dirArrow" transform="rotate(90) translate(36 -43)" onmousedown="handlePan(1,0)">
                  <use xlink:href="#rim" fill="#404040">
                        <set attributeName="fill" to="#808080" begin="arrowRight.mouseover" end="arrowRight.mouseout"/>
                  </use>
                  <path fill="none" stroke="white" stroke-width="1.5" d="M0,-3.0v7 M-2.5,-0.5L0,-3.0L2.5,-0.5"/>
                </g>
                <g id="arrowDown" xlink:href="#dirArrow" transform="rotate(180) translate(-30 -48)" onmousedown="handlePan(0,1)">
                  <use xlink:href="#rim" fill="#404040">
                        <set attributeName="fill" to="#808080" begin="arrowDown.mouseover" end="arrowDown.mouseout"/>
                  </use>
                  <path fill="none" stroke="white" stroke-width="1.5" d="M0,-3.0v7 M-2.5,-0.5L0,-3.0L2.5,-0.5"/>
                </g>
                <g id="arrowLeft" xlink:href="#dirArrow" transform="rotate(270) translate(-36 17)" onmousedown="handlePan(-1,0)">
                  <use xlink:href="#rim" fill="#404040">
                        <set attributeName="fill" to="#808080" begin="arrowLeft.mouseover" end="arrowLeft.mouseout"/>
                  </use>
                  <path fill="none" stroke="white" stroke-width="1.5" d="M0,-3.0v7 M-2.5,-0.5L0,-3.0L2.5,-0.5"/>
                </g>
        </g>
        <svg viewBox="0 0 15 15" width="100%" height="30px" preserveAspectRatio="xMaxYMin meet">
         <g id="arrow_out" transform="scale(0.3 0.3)">
          <a xlink:href="loader__factory_8cpp__incl_org.svg" target="_base">
           <rect id="button" ry="5" rx="5" y="6" x="6" height="38" width="38"
                fill="#f2f5e9" fill-opacity="0.5" stroke="#606060" stroke-width="1.0"/>
           <path id="arrow"
             d="M 11.500037,31.436501 C 11.940474,20.09759 22.043105,11.32322 32.158766,21.979434 L 37.068811,17.246167 C 37.068811,17.246167 37.088388,32 37.088388,32 L 22.160133,31.978069 C 22.160133,31.978069 26.997745,27.140456 26.997745,27.140456 C 18.528582,18.264221 13.291696,25.230495 11.500037,31.436501 z"
             style="fill:#404040;"/>
          </a>
         </g>
        </svg>
</svg>
