<?xml version="1.0" encoding="UTF-8" standalone="no"?>
<!DOCTYPE svg PUBLIC "-//W3C//DTD SVG 1.1//EN"
 "http://www.w3.org/Graphics/SVG/1.1/DTD/svg11.dtd">
<!-- Generated by graphviz version 2.38.0 (20140413.2041)
 -->
<!-- Title: chainable.h Pages: 1 -->
<!--zoomable 196 -->
<svg id="main" version="1.1" xmlns="http://www.w3.org/2000/svg" xmlns:xlink="http://www.w3.org/1999/xlink" xml:space="preserve" onload="init(evt)">
<style type="text/css"><![CDATA[
.edge:hover path { stroke: red; }
.edge:hover polygon { stroke: red; fill: red; }
]]></style>
<script type="text/javascript"><![CDATA[
var edges = document.getElementsByTagName('g');
if (edges && edges.length) {
  for (var i=0;i<edges.length;i++) {
    if (edges[i].id.substr(0,4)=='edge') {
      edges[i].setAttribute('class','edge');
    }
  }
}
]]></script>
        <defs>
                <circle id="rim" cx="0" cy="0" r="7"/>
                <circle id="rim2" cx="0" cy="0" r="3.5"/>
                <g id="zoomPlus">
                        <use xlink:href="#rim" fill="#404040">
                                <set attributeName="fill" to="#808080" begin="zoomplus.mouseover" end="zoomplus.mouseout"/>
                        </use>
                        <path d="M-4,0h8M0,-4v8" fill="none" stroke="white" stroke-width="1.5" pointer-events="none"/>
                </g>
                <g id="zoomMin">
                        <use xlink:href="#rim" fill="#404040">
                                <set attributeName="fill" to="#808080" begin="zoomminus.mouseover" end="zoomminus.mouseout"/>
                        </use>
                        <path d="M-4,0h8" fill="none" stroke="white" stroke-width="1.5" pointer-events="none"/>
                </g>
                <g id="dirArrow">
                        <path fill="none" stroke="white" stroke-width="1.5" d="M0,-3.0v7 M-2.5,-0.5L0,-3.0L2.5,-0.5"/>
                </g>
               <g id="resetDef">
                       <use xlink:href="#rim2" fill="#404040">
                               <set attributeName="fill" to="#808080" begin="reset.mouseover" end="reset.mouseout"/>
                       </use>
               </g>
        </defs>

<script type="text/javascript">
var viewWidth = 624;
var viewHeight = 196;
var sectionId = 'dynsection-0';
</script>
<script xlink:href="../../svgpan.js"/>
<svg id="graph" class="graph">
<g id="viewport">
<title>chainable.h</title>
<polygon fill="white" stroke="none" points="-4,4 -4,-192 620,-192 620,4 -4,4"/>
<!-- Node1 -->
<g id="node1" class="node"><title>Node1</title>
<polygon fill="#bfbfbf" stroke="black" points="161,-168.5 161,-187.5 227,-187.5 227,-168.5 161,-168.5"/>
<text text-anchor="middle" x="194" y="-175.5" font-family="Helvetica,sans-Serif" font-size="10.00">chainable.h</text>
</g>
<!-- Node2 -->
<g id="node2" class="node"><title>Node2</title>
<polygon fill="white" stroke="#bfbfbf" points="0,-112.5 0,-131.5 128,-131.5 128,-112.5 0,-112.5"/>
<text text-anchor="middle" x="64" y="-119.5" font-family="Helvetica,sans-Serif" font-size="10.00">boost/functional/hash.hpp</text>
</g>
<!-- Node1&#45;&gt;Node2 -->
<g id="edge1" class="edge"><title>Node1&#45;&gt;Node2</title>
<path fill="none" stroke="midnightblue" d="M173.401,-168.444C152.007,-159.557 118.319,-145.563 93.9756,-135.451"/>
<polygon fill="midnightblue" stroke="midnightblue" points="95.0801,-132.12 84.5025,-131.516 92.3948,-138.585 95.0801,-132.12"/>
</g>
<!-- Node3 -->
<g id="node3" class="node"><title>Node3</title>
<polygon fill="white" stroke="#bfbfbf" points="102,-56.5 102,-75.5 154,-75.5 154,-56.5 102,-56.5"/>
<text text-anchor="middle" x="128" y="-63.5" font-family="Helvetica,sans-Serif" font-size="10.00">memory</text>
</g>
<!-- Node1&#45;&gt;Node3 -->
<g id="edge2" class="edge"><title>Node1&#45;&gt;Node3</title>
<path fill="none" stroke="midnightblue" d="M188.821,-168.368C177.977,-150.296 152.706,-108.176 138.384,-84.3074"/>
<polygon fill="midnightblue" stroke="midnightblue" points="141.301,-82.3656 133.155,-75.5914 135.299,-85.9671 141.301,-82.3656"/>
</g>
<!-- Node4 -->
<g id="node4" class="node"><title>Node4</title>
<polygon fill="white" stroke="#bfbfbf" points="172,-56.5 172,-75.5 216,-75.5 216,-56.5 172,-56.5"/>
<text text-anchor="middle" x="194" y="-63.5" font-family="Helvetica,sans-Serif" font-size="10.00">vector</text>
</g>
<!-- Node1&#45;&gt;Node4 -->
<g id="edge3" class="edge"><title>Node1&#45;&gt;Node4</title>
<path fill="none" stroke="midnightblue" d="M194,-168.368C194,-150.617 194,-109.666 194,-85.5974"/>
<polygon fill="midnightblue" stroke="midnightblue" points="197.5,-85.5914 194,-75.5914 190.5,-85.5915 197.5,-85.5914"/>
</g>
<!-- Node5 -->
<g id="node5" class="node"><title>Node5</title>
<polygon fill="white" stroke="#bfbfbf" points="350,-112.5 350,-131.5 460,-131.5 460,-112.5 350,-112.5"/>
<text text-anchor="middle" x="405" y="-119.5" font-family="Helvetica,sans-Serif" font-size="10.00">3rd_party/exception.h</text>
</g>
<!-- Node1&#45;&gt;Node5 -->
<g id="edge4" class="edge"><title>Node1&#45;&gt;Node5</title>
<path fill="none" stroke="midnightblue" d="M227.434,-168.444C263.856,-159.122 322.23,-144.183 362.029,-133.997"/>
<polygon fill="midnightblue" stroke="midnightblue" points="362.903,-137.387 371.723,-131.516 361.167,-130.605 362.903,-137.387"/>
</g>
<!-- Node6 -->
<g id="node6" class="node"><title>Node6</title>
<g id="a_node6"><a xlink:href="../../d6/dc2/definitions_8h.html" target="_top" xlink:title="common/definitions.h">
<polygon fill="white" stroke="black" points="222,-112.5 222,-131.5 332,-131.5 332,-112.5 222,-112.5"/>
<text text-anchor="middle" x="277" y="-119.5" font-family="Helvetica,sans-Serif" font-size="10.00">common/definitions.h</text>
</a>
</g>
</g>
<!-- Node1&#45;&gt;Node6 -->
<g id="edge5" class="edge"><title>Node1&#45;&gt;Node6</title>
<path fill="none" stroke="midnightblue" d="M207.335,-168.324C220.162,-159.979 239.785,-147.212 254.94,-137.352"/>
<polygon fill="midnightblue" stroke="midnightblue" points="257.224,-140.042 263.698,-131.655 253.407,-134.174 257.224,-140.042"/>
</g>
<!-- Node6&#45;&gt;Node3 -->
<g id="edge7" class="edge"><title>Node6&#45;&gt;Node3</title>
<path fill="none" stroke="midnightblue" d="M253.391,-112.444C228.542,-103.438 189.226,-89.1891 161.246,-79.049"/>
<polygon fill="midnightblue" stroke="midnightblue" points="162.093,-75.6332 151.499,-75.5164 159.708,-82.2144 162.093,-75.6332"/>
</g>
<!-- Node6&#45;&gt;Node4 -->
<g id="edge9" class="edge"><title>Node6&#45;&gt;Node4</title>
<path fill="none" stroke="midnightblue" d="M263.665,-112.324C250.838,-103.979 231.215,-91.2122 216.06,-81.3524"/>
<polygon fill="midnightblue" stroke="midnightblue" points="217.593,-78.1742 207.302,-75.6545 213.776,-84.0417 217.593,-78.1742"/>
</g>
<!-- Node7 -->
<g id="node7" class="node"><title>Node7</title>
<polygon fill="white" stroke="#bfbfbf" points="319.5,-56.5 319.5,-75.5 378.5,-75.5 378.5,-56.5 319.5,-56.5"/>
<text text-anchor="middle" x="349" y="-63.5" font-family="Helvetica,sans-Serif" font-size="10.00">functional</text>
</g>
<!-- Node6&#45;&gt;Node7 -->
<g id="edge6" class="edge"><title>Node6&#45;&gt;Node7</title>
<path fill="none" stroke="midnightblue" d="M288.568,-112.324C299.42,-104.185 315.881,-91.8395 328.883,-82.0874"/>
<polygon fill="midnightblue" stroke="midnightblue" points="331.321,-84.6339 337.221,-75.8339 327.121,-79.0339 331.321,-84.6339"/>
</g>
<!-- Node8 -->
<g id="node8" class="node"><title>Node8</title>
<polygon fill="white" stroke="#bfbfbf" points="438.5,-0.5 438.5,-19.5 479.5,-19.5 479.5,-0.5 438.5,-0.5"/>
<text text-anchor="middle" x="459" y="-7.5" font-family="Helvetica,sans-Serif" font-size="10.00">string</text>
</g>
<!-- Node6&#45;&gt;Node8 -->
<g id="edge8" class="edge"><title>Node6&#45;&gt;Node8</title>
<path fill="none" stroke="midnightblue" d="M305.411,-112.41C328.423,-104.756 361.149,-92.2556 387,-76 408.928,-62.2117 430.497,-41.5275 444.224,-27.2114"/>
<polygon fill="midnightblue" stroke="midnightblue" points="447.056,-29.3075 451.342,-19.6185 441.949,-24.5198 447.056,-29.3075"/>
</g>
<!-- Node9 -->
<g id="node9" class="node"><title>Node9</title>
<polygon fill="white" stroke="#bfbfbf" points="505,-56.5 505,-75.5 601,-75.5 601,-56.5 505,-56.5"/>
<text text-anchor="middle" x="553" y="-63.5" font-family="Helvetica,sans-Serif" font-size="10.00">common/logging.h</text>
</g>
<!-- Node6&#45;&gt;Node9 -->
<g id="edge10" class="edge"><title>Node6&#45;&gt;Node9</title>
<path fill="none" stroke="midnightblue" d="M320.733,-112.444C369.183,-102.964 447.329,-87.6747 499.418,-77.4835"/>
<polygon fill="midnightblue" stroke="midnightblue" points="500.33,-80.8715 509.472,-75.5164 498.986,-74.0017 500.33,-80.8715"/>
</g>
<!-- Node10 -->
<g id="node10" class="node"><title>Node10</title>
<g id="a_node10"><a xlink:href="../../da/d18/shape_8h.html" target="_top" xlink:title="shape.h">
<polygon fill="white" stroke="black" points="435.5,-56.5 435.5,-75.5 486.5,-75.5 486.5,-56.5 435.5,-56.5"/>
<text text-anchor="middle" x="461" y="-63.5" font-family="Helvetica,sans-Serif" font-size="10.00">shape.h</text>
</a>
</g>
</g>
<!-- Node6&#45;&gt;Node10 -->
<g id="edge11" class="edge"><title>Node6&#45;&gt;Node10</title>
<path fill="none" stroke="midnightblue" d="M306.155,-112.444C338.528,-102.943 390.787,-87.6061 425.512,-77.415"/>
<polygon fill="midnightblue" stroke="midnightblue" points="426.637,-80.7324 435.247,-74.558 424.666,-74.0157 426.637,-80.7324"/>
</g>
<!-- Node13 -->
<g id="node13" class="node"><title>Node13</title>
<g id="a_node13"><a xlink:href="../../d2/db7/keywords_8h.html" target="_top" xlink:title="keywords.h">
<polygon fill="white" stroke="black" points="234.5,-56.5 234.5,-75.5 301.5,-75.5 301.5,-56.5 234.5,-56.5"/>
<text text-anchor="middle" x="268" y="-63.5" font-family="Helvetica,sans-Serif" font-size="10.00">keywords.h</text>
</a>
</g>
</g>
<!-- Node6&#45;&gt;Node13 -->
<g id="edge15" class="edge"><title>Node6&#45;&gt;Node13</title>
<path fill="none" stroke="midnightblue" d="M275.514,-112.083C274.321,-104.927 272.606,-94.6353 271.115,-85.6911"/>
<polygon fill="midnightblue" stroke="midnightblue" points="274.555,-85.0396 269.459,-75.7511 267.65,-86.1904 274.555,-85.0396"/>
</g>
<!-- Node10&#45;&gt;Node8 -->
<g id="edge14" class="edge"><title>Node10&#45;&gt;Node8</title>
<path fill="none" stroke="midnightblue" d="M460.67,-56.083C460.408,-49.0059 460.032,-38.8611 459.703,-29.9865"/>
<polygon fill="midnightblue" stroke="midnightblue" points="463.192,-29.6147 459.324,-19.7511 456.197,-29.8738 463.192,-29.6147"/>
</g>
<!-- Node11 -->
<g id="node11" class="node"><title>Node11</title>
<polygon fill="white" stroke="#bfbfbf" points="570,-0.5 570,-19.5 616,-19.5 616,-0.5 570,-0.5"/>
<text text-anchor="middle" x="593" y="-7.5" font-family="Helvetica,sans-Serif" font-size="10.00">cstdint</text>
</g>
<!-- Node10&#45;&gt;Node11 -->
<g id="edge12" class="edge"><title>Node10&#45;&gt;Node11</title>
<path fill="none" stroke="midnightblue" d="M481.916,-56.4435C503.736,-47.5171 538.15,-33.4387 562.892,-23.3168"/>
<polygon fill="midnightblue" stroke="midnightblue" points="564.252,-26.5422 572.182,-19.5164 561.601,-20.0634 564.252,-26.5422"/>
</g>
<!-- Node12 -->
<g id="node12" class="node"><title>Node12</title>
<polygon fill="white" stroke="#bfbfbf" points="498,-0.5 498,-19.5 552,-19.5 552,-0.5 498,-0.5"/>
<text text-anchor="middle" x="525" y="-7.5" font-family="Helvetica,sans-Serif" font-size="10.00">iostream</text>
</g>
<!-- Node10&#45;&gt;Node12 -->
<g id="edge13" class="edge"><title>Node10&#45;&gt;Node12</title>
<path fill="none" stroke="midnightblue" d="M471.283,-56.324C480.836,-48.2631 495.28,-36.0765 506.784,-26.3695"/>
<polygon fill="midnightblue" stroke="midnightblue" points="509.144,-28.9577 514.53,-19.8339 504.63,-23.6076 509.144,-28.9577"/>
</g>
<!-- Node14 -->
<g id="node14" class="node"><title>Node14</title>
<polygon fill="white" stroke="#bfbfbf" points="342,-0.5 342,-19.5 420,-19.5 420,-0.5 342,-0.5"/>
<text text-anchor="middle" x="381" y="-7.5" font-family="Helvetica,sans-Serif" font-size="10.00">boost/any.hpp</text>
</g>
<!-- Node13&#45;&gt;Node14 -->
<g id="edge16" class="edge"><title>Node13&#45;&gt;Node14</title>
<path fill="none" stroke="midnightblue" d="M285.905,-56.4435C304.254,-47.6751 333.005,-33.9355 354.094,-23.8579"/>
<polygon fill="midnightblue" stroke="midnightblue" points="355.665,-26.9862 363.179,-19.5164 352.647,-20.6703 355.665,-26.9862"/>
</g>
<!-- Node15 -->
<g id="node15" class="node"><title>Node15</title>
<polygon fill="white" stroke="#bfbfbf" points="90.5,-0.5 90.5,-19.5 125.5,-19.5 125.5,-0.5 90.5,-0.5"/>
<text text-anchor="middle" x="108" y="-7.5" font-family="Helvetica,sans-Serif" font-size="10.00">map</text>
</g>
<!-- Node13&#45;&gt;Node15 -->
<g id="edge17" class="edge"><title>Node13&#45;&gt;Node15</title>
<path fill="none" stroke="midnightblue" d="M242.287,-56.4437C217.192,-48.0756 177.687,-34.8576 135.281,-20.4177"/>
<polygon fill="midnightblue" stroke="midnightblue" points="136.209,-17.0364 125.615,-17.122 133.95,-23.6619 136.209,-17.0364"/>
</g>
<!-- Node16 -->
<g id="node16" class="node"><title>Node16</title>
<polygon fill="white" stroke="#bfbfbf" points="13.5,-0.5 13.5,-19.5 72.5,-19.5 72.5,-0.5 13.5,-0.5"/>
<text text-anchor="middle" x="43" y="-7.5" font-family="Helvetica,sans-Serif" font-size="10.00">typeindex</text>
</g>
<!-- Node13&#45;&gt;Node16 -->
<g id="edge18" class="edge"><title>Node13&#45;&gt;Node16</title>
<path fill="none" stroke="midnightblue" d="M234.315,-56.9157C193.684,-47.1642 125.49,-30.7975 82.4421,-20.4661"/>
<polygon fill="midnightblue" stroke="midnightblue" points="83.1417,-17.0347 72.6009,-18.1042 81.508,-23.8414 83.1417,-17.0347"/>
</g>
<!-- Node17 -->
<g id="node17" class="node"><title>Node17</title>
<polygon fill="white" stroke="#bfbfbf" points="143.5,-0.5 143.5,-19.5 194.5,-19.5 194.5,-0.5 143.5,-0.5"/>
<text text-anchor="middle" x="169" y="-7.5" font-family="Helvetica,sans-Serif" font-size="10.00">typeinfo</text>
</g>
<!-- Node13&#45;&gt;Node17 -->
<g id="edge19" class="edge"><title>Node13&#45;&gt;Node17</title>
<path fill="none" stroke="midnightblue" d="M252.094,-56.324C236.362,-47.7428 212.058,-34.486 193.791,-24.5224"/>
<polygon fill="midnightblue" stroke="midnightblue" points="195.322,-21.3704 184.867,-19.6545 191.97,-27.5157 195.322,-21.3704"/>
</g>
<!-- Node18 -->
<g id="node18" class="node"><title>Node18</title>
<g id="a_node18"><a xlink:href="../../d3/de0/compile__time__crc32_8h.html" target="_top" xlink:title="compile_time_crc32.h">
<polygon fill="white" stroke="black" points="212,-0.5 212,-19.5 324,-19.5 324,-0.5 212,-0.5"/>
<text text-anchor="middle" x="268" y="-7.5" font-family="Helvetica,sans-Serif" font-size="10.00">compile_time_crc32.h</text>
</a>
</g>
</g>
<!-- Node13&#45;&gt;Node18 -->
<g id="edge20" class="edge"><title>Node13&#45;&gt;Node18</title>
<path fill="none" stroke="midnightblue" d="M268,-56.083C268,-49.0059 268,-38.8611 268,-29.9865"/>
<polygon fill="midnightblue" stroke="midnightblue" points="271.5,-29.751 268,-19.7511 264.5,-29.7511 271.5,-29.751"/>
</g>
</g>
</svg>
        <g id="navigator" transform="translate(0 0)" fill="#404254">
                <rect fill="#f2f5e9" fill-opacity="0.5" stroke="#606060" stroke-width=".5" x="0" y="0" width="60" height="60"/>
                <use id="zoomplus" xlink:href="#zoomPlus" x="17" y="9" onmousedown="handleZoom(evt,'in')"/>
                <use id="zoomminus" xlink:href="#zoomMin" x="42" y="9" onmousedown="handleZoom(evt,'out')"/>
                <use id="reset" xlink:href="#resetDef" x="30" y="36" onmousedown="handleReset()"/>
                <g id="arrowUp" xlink:href="#dirArrow" transform="translate(30 24)" onmousedown="handlePan(0,-1)">
                  <use xlink:href="#rim" fill="#404040">
                        <set attributeName="fill" to="#808080" begin="arrowUp.mouseover" end="arrowUp.mouseout"/>
                  </use>
                  <path fill="none" stroke="white" stroke-width="1.5" d="M0,-3.0v7 M-2.5,-0.5L0,-3.0L2.5,-0.5"/>
                </g>
                <g id="arrowRight" xlink:href="#dirArrow" transform="rotate(90) translate(36 -43)" onmousedown="handlePan(1,0)">
                  <use xlink:href="#rim" fill="#404040">
                        <set attributeName="fill" to="#808080" begin="arrowRight.mouseover" end="arrowRight.mouseout"/>
                  </use>
                  <path fill="none" stroke="white" stroke-width="1.5" d="M0,-3.0v7 M-2.5,-0.5L0,-3.0L2.5,-0.5"/>
                </g>
                <g id="arrowDown" xlink:href="#dirArrow" transform="rotate(180) translate(-30 -48)" onmousedown="handlePan(0,1)">
                  <use xlink:href="#rim" fill="#404040">
                        <set attributeName="fill" to="#808080" begin="arrowDown.mouseover" end="arrowDown.mouseout"/>
                  </use>
                  <path fill="none" stroke="white" stroke-width="1.5" d="M0,-3.0v7 M-2.5,-0.5L0,-3.0L2.5,-0.5"/>
                </g>
                <g id="arrowLeft" xlink:href="#dirArrow" transform="rotate(270) translate(-36 17)" onmousedown="handlePan(-1,0)">
                  <use xlink:href="#rim" fill="#404040">
                        <set attributeName="fill" to="#808080" begin="arrowLeft.mouseover" end="arrowLeft.mouseout"/>
                  </use>
                  <path fill="none" stroke="white" stroke-width="1.5" d="M0,-3.0v7 M-2.5,-0.5L0,-3.0L2.5,-0.5"/>
                </g>
        </g>
        <svg viewBox="0 0 15 15" width="100%" height="30px" preserveAspectRatio="xMaxYMin meet">
         <g id="arrow_out" transform="scale(0.3 0.3)">
          <a xlink:href="chainable_8h__incl_org.svg" target="_base">
           <rect id="button" ry="5" rx="5" y="6" x="6" height="38" width="38"
                fill="#f2f5e9" fill-opacity="0.5" stroke="#606060" stroke-width="1.0"/>
           <path id="arrow"
             d="M 11.500037,31.436501 C 11.940474,20.09759 22.043105,11.32322 32.158766,21.979434 L 37.068811,17.246167 C 37.068811,17.246167 37.088388,32 37.088388,32 L 22.160133,31.978069 C 22.160133,31.978069 26.997745,27.140456 26.997745,27.140456 C 18.528582,18.264221 13.291696,25.230495 11.500037,31.436501 z"
             style="fill:#404040;"/>
          </a>
         </g>
        </svg>
</svg>
