<?xml version="1.0" encoding="UTF-8" standalone="no"?>
<!DOCTYPE svg PUBLIC "-//W3C//DTD SVG 1.1//EN"
 "http://www.w3.org/Graphics/SVG/1.1/DTD/svg11.dtd">
<!-- Generated by graphviz version 2.38.0 (20140413.2041)
 -->
<!-- Title: amunmt::God::GetTargetVocab Pages: 1 -->
<svg width="872pt" height="207pt"
 viewBox="0.00 0.00 872.00 206.50" xmlns="http://www.w3.org/2000/svg" xmlns:xlink="http://www.w3.org/1999/xlink">
<g id="graph0" class="graph" transform="scale(1 1) rotate(0) translate(4 202.5)">
<title>amunmt::God::GetTargetVocab</title>
<polygon fill="white" stroke="none" points="-4,4 -4,-202.5 868,-202.5 868,4 -4,4"/>
<!-- Node1 -->
<g id="node1" class="node"><title>Node1</title>
<polygon fill="#bfbfbf" stroke="black" points="0,-91 0,-110 153,-110 153,-91 0,-91"/>
<text text-anchor="middle" x="76.5" y="-98" font-family="Helvetica,sans-Serif" font-size="10.00">amunmt::God::GetTargetVocab</text>
</g>
<!-- Node2 -->
<g id="node2" class="node"><title>Node2</title>
<g id="a_node2"><a xlink:href="../../d7/d4e/classamunmt_1_1God.html#a112ca45757470e5bca5ec924538b5b80" target="_top" xlink:title="amunmt::God::LoadFiltering">
<polygon fill="white" stroke="black" points="189,-129 189,-148 326,-148 326,-129 189,-129"/>
<text text-anchor="middle" x="257.5" y="-136" font-family="Helvetica,sans-Serif" font-size="10.00">amunmt::God::LoadFiltering</text>
</a>
</g>
</g>
<!-- Node1&#45;&gt;Node2 -->
<g id="edge1" class="edge"><title>Node1&#45;&gt;Node2</title>
<path fill="none" stroke="midnightblue" d="M132.524,-112.181C157.908,-117.57 187.661,-123.886 211.656,-128.98"/>
<polygon fill="midnightblue" stroke="midnightblue" points="133.178,-108.742 122.669,-110.089 131.724,-115.589 133.178,-108.742"/>
</g>
<!-- Node5 -->
<g id="node5" class="node"><title>Node5</title>
<g id="a_node5"><a xlink:href="../../d7/d4e/classamunmt_1_1God.html#acbdecb98f98edf71cc8a81493df2c56a" target="_top" xlink:title="amunmt::God::Get">
<polygon fill="white" stroke="black" points="208.5,-91 208.5,-110 306.5,-110 306.5,-91 208.5,-91"/>
<text text-anchor="middle" x="257.5" y="-98" font-family="Helvetica,sans-Serif" font-size="10.00">amunmt::God::Get</text>
</a>
</g>
</g>
<!-- Node1&#45;&gt;Node5 -->
<g id="edge4" class="edge"><title>Node1&#45;&gt;Node5</title>
<path fill="none" stroke="midnightblue" d="M163.294,-100.5C178.79,-100.5 194.434,-100.5 208.364,-100.5"/>
<polygon fill="midnightblue" stroke="midnightblue" points="163.153,-97.0001 153.153,-100.5 163.153,-104 163.153,-97.0001"/>
</g>
<!-- Node6 -->
<g id="node6" class="node"><title>Node6</title>
<g id="a_node6"><a xlink:href="../../d7/dd3/namespaceamunmt.html#aef108281493b0c3b669c537192eace34" target="_top" xlink:title="amunmt::Printer">
<polygon fill="white" stroke="black" points="214.5,-53 214.5,-72 300.5,-72 300.5,-53 214.5,-53"/>
<text text-anchor="middle" x="257.5" y="-60" font-family="Helvetica,sans-Serif" font-size="10.00">amunmt::Printer</text>
</a>
</g>
</g>
<!-- Node1&#45;&gt;Node6 -->
<g id="edge5" class="edge"><title>Node1&#45;&gt;Node6</title>
<path fill="none" stroke="midnightblue" d="M132.521,-88.8196C158.89,-83.2216 189.973,-76.623 214.419,-71.4333"/>
<polygon fill="midnightblue" stroke="midnightblue" points="131.724,-85.4106 122.669,-90.911 133.178,-92.258 131.724,-85.4106"/>
</g>
<!-- Node3 -->
<g id="node3" class="node"><title>Node3</title>
<g id="a_node3"><a xlink:href="../../d7/d4e/classamunmt_1_1God.html#a7a424275f1192499979b2f58ac250559" target="_top" xlink:title="amunmt::God::Init">
<polygon fill="white" stroke="black" points="396.5,-167 396.5,-186 491.5,-186 491.5,-167 396.5,-167"/>
<text text-anchor="middle" x="444" y="-174" font-family="Helvetica,sans-Serif" font-size="10.00">amunmt::God::Init</text>
</a>
</g>
</g>
<!-- Node2&#45;&gt;Node3 -->
<g id="edge2" class="edge"><title>Node2&#45;&gt;Node3</title>
<path fill="none" stroke="midnightblue" d="M314.867,-150.11C341.107,-155.514 371.936,-161.864 396.778,-166.98"/>
<polygon fill="midnightblue" stroke="midnightblue" points="315.558,-146.678 305.057,-148.089 314.145,-153.534 315.558,-146.678"/>
</g>
<!-- Node4 -->
<g id="node4" class="node"><title>Node4</title>
<g id="a_node4"><a xlink:href="../../d7/d4e/classamunmt_1_1God.html#a84dbb75205f93a9a769d05f51e4b9f26" target="_top" xlink:title="amunmt::God::UseFusedSoftmax">
<polygon fill="white" stroke="black" points="362,-129 362,-148 526,-148 526,-129 362,-129"/>
<text text-anchor="middle" x="444" y="-136" font-family="Helvetica,sans-Serif" font-size="10.00">amunmt::God::UseFusedSoftmax</text>
</a>
</g>
</g>
<!-- Node2&#45;&gt;Node4 -->
<g id="edge3" class="edge"><title>Node2&#45;&gt;Node4</title>
<path fill="none" stroke="midnightblue" d="M336.352,-138.5C344.797,-138.5 353.407,-138.5 361.889,-138.5"/>
<polygon fill="midnightblue" stroke="midnightblue" points="336.153,-135 326.153,-138.5 336.153,-142 336.153,-135"/>
</g>
<!-- Node7 -->
<g id="node7" class="node"><title>Node7</title>
<g id="a_node7"><a xlink:href="../../d5/d49/amunmt_8cpp.html#a86ebd9110196f3b5328ad3c3d31cd007" target="_top" xlink:title="translate">
<polygon fill="white" stroke="black" points="417,-91 417,-110 471,-110 471,-91 417,-91"/>
<text text-anchor="middle" x="444" y="-98" font-family="Helvetica,sans-Serif" font-size="10.00">translate</text>
</a>
</g>
</g>
<!-- Node6&#45;&gt;Node7 -->
<g id="edge6" class="edge"><title>Node6&#45;&gt;Node7</title>
<path fill="none" stroke="midnightblue" d="M310.785,-73.2686C345.409,-80.3999 389.344,-89.449 416.823,-95.1085"/>
<polygon fill="midnightblue" stroke="midnightblue" points="311.329,-69.8073 300.828,-71.218 309.916,-76.6634 311.329,-69.8073"/>
</g>
<!-- Node15 -->
<g id="node15" class="node"><title>Node15</title>
<g id="a_node15"><a xlink:href="../../d7/dd3/namespaceamunmt.html#a10b27c18333dd8e5b6652acfea64d7d2" target="_top" xlink:title="amunmt::Printer">
<polygon fill="white" stroke="black" points="401,-53 401,-72 487,-72 487,-53 401,-53"/>
<text text-anchor="middle" x="444" y="-60" font-family="Helvetica,sans-Serif" font-size="10.00">amunmt::Printer</text>
</a>
</g>
</g>
<!-- Node6&#45;&gt;Node15 -->
<g id="edge14" class="edge"><title>Node6&#45;&gt;Node15</title>
<path fill="none" stroke="midnightblue" d="M311.008,-62.5C339.476,-62.5 374.188,-62.5 400.869,-62.5"/>
<polygon fill="midnightblue" stroke="midnightblue" points="310.828,-59.0001 300.828,-62.5 310.828,-66.0001 310.828,-59.0001"/>
</g>
<!-- Node16 -->
<g id="node16" class="node"><title>Node16</title>
<g id="a_node16"><a xlink:href="../../d7/dd3/namespaceamunmt.html#aac616d7d6dd75bad96a6dcf3afe74e85" target="_top" xlink:title="amunmt::TranslationTaskAnd\lOutput">
<polygon fill="white" stroke="black" points="371.5,-0.5 371.5,-30.5 516.5,-30.5 516.5,-0.5 371.5,-0.5"/>
<text text-anchor="start" x="379.5" y="-18.5" font-family="Helvetica,sans-Serif" font-size="10.00">amunmt::TranslationTaskAnd</text>
<text text-anchor="middle" x="444" y="-7.5" font-family="Helvetica,sans-Serif" font-size="10.00">Output</text>
</a>
</g>
</g>
<!-- Node6&#45;&gt;Node16 -->
<g id="edge15" class="edge"><title>Node6&#45;&gt;Node16</title>
<path fill="none" stroke="midnightblue" d="M305.691,-50.4783C329.508,-44.4113 358.635,-36.9913 383.925,-30.5488"/>
<polygon fill="midnightblue" stroke="midnightblue" points="304.663,-47.1285 295.836,-52.9888 306.391,-53.9119 304.663,-47.1285"/>
</g>
<!-- Node8 -->
<g id="node8" class="node"><title>Node8</title>
<g id="a_node8"><a xlink:href="../../d5/d49/amunmt_8cpp.html#a1fa5ce5d158455cf2d152ebcbcdf29d0" target="_top" xlink:title="BOOST_PYTHON_MODULE">
<polygon fill="white" stroke="black" points="562,-179 562,-198 708,-198 708,-179 562,-179"/>
<text text-anchor="middle" x="635" y="-186" font-family="Helvetica,sans-Serif" font-size="10.00">BOOST_PYTHON_MODULE</text>
</a>
</g>
</g>
<!-- Node7&#45;&gt;Node8 -->
<g id="edge7" class="edge"><title>Node7&#45;&gt;Node8</title>
<path fill="none" stroke="midnightblue" d="M481.219,-103.405C496.067,-105.957 512.823,-110.704 526,-119.5 548.775,-134.703 539.437,-153.984 562,-169.5 567.646,-173.382 574.04,-176.471 580.631,-178.93"/>
<polygon fill="midnightblue" stroke="midnightblue" points="481.711,-99.9398 471.311,-101.966 480.704,-106.867 481.711,-99.9398"/>
</g>
<!-- Node9 -->
<g id="node9" class="node"><title>Node9</title>
<g id="a_node9"><a xlink:href="../../d6/d38/classmarian_1_1ConfigParser.html#a07165d2c1c885c858d8127eb09f00e71" target="_top" xlink:title="marian::ConfigParser\l::addOptionsTranslate">
<polygon fill="white" stroke="black" points="578.5,-129.5 578.5,-159.5 691.5,-159.5 691.5,-129.5 578.5,-129.5"/>
<text text-anchor="start" x="586.5" y="-147.5" font-family="Helvetica,sans-Serif" font-size="10.00">marian::ConfigParser</text>
<text text-anchor="middle" x="635" y="-136.5" font-family="Helvetica,sans-Serif" font-size="10.00">::addOptionsTranslate</text>
</a>
</g>
</g>
<!-- Node7&#45;&gt;Node9 -->
<g id="edge8" class="edge"><title>Node7&#45;&gt;Node9</title>
<path fill="none" stroke="midnightblue" d="M481.258,-108.941C508.769,-115.346 547.076,-124.264 578.443,-131.566"/>
<polygon fill="midnightblue" stroke="midnightblue" points="481.813,-105.477 471.28,-106.618 480.226,-112.294 481.813,-105.477"/>
</g>
<!-- Node10 -->
<g id="node10" class="node"><title>Node10</title>
<g id="a_node10"><a xlink:href="../../d2/d47/marian_2src_2common_2logging_8h.html#a32a13f91eb216c334ec310b2a8a2f10c" target="_top" xlink:title="createLoggers">
<polygon fill="white" stroke="black" points="596,-91 596,-110 674,-110 674,-91 596,-91"/>
<text text-anchor="middle" x="635" y="-98" font-family="Helvetica,sans-Serif" font-size="10.00">createLoggers</text>
</a>
</g>
</g>
<!-- Node7&#45;&gt;Node10 -->
<g id="edge9" class="edge"><title>Node7&#45;&gt;Node10</title>
<path fill="none" stroke="midnightblue" d="M481.374,-100.5C514.244,-100.5 562.454,-100.5 595.86,-100.5"/>
<polygon fill="midnightblue" stroke="midnightblue" points="481.28,-97.0001 471.28,-100.5 481.28,-104 481.28,-97.0001"/>
</g>
<!-- Node13 -->
<g id="node13" class="node"><title>Node13</title>
<g id="a_node13"><a xlink:href="../../db/de8/classmarian_1_1OutputCollector.html#aac7fb8a5e89ce5a9bac56a6a414e7fe5" target="_top" xlink:title="marian::OutputCollector\l::Write">
<polygon fill="white" stroke="black" points="575,-41.5 575,-71.5 695,-71.5 695,-41.5 575,-41.5"/>
<text text-anchor="start" x="583" y="-59.5" font-family="Helvetica,sans-Serif" font-size="10.00">marian::OutputCollector</text>
<text text-anchor="middle" x="635" y="-48.5" font-family="Helvetica,sans-Serif" font-size="10.00">::Write</text>
</a>
</g>
</g>
<!-- Node7&#45;&gt;Node13 -->
<g id="edge12" class="edge"><title>Node7&#45;&gt;Node13</title>
<path fill="none" stroke="midnightblue" d="M481.261,-92.0583C507.745,-85.8927 544.233,-77.3982 574.904,-70.2578"/>
<polygon fill="midnightblue" stroke="midnightblue" points="480.226,-88.7057 471.28,-94.382 481.813,-95.5233 480.226,-88.7057"/>
</g>
<!-- Node11 -->
<g id="node11" class="node"><title>Node11</title>
<g id="a_node11"><a xlink:href="../../d6/dba/classmarian_1_1Config.html#aa953cca7c4650e7e0538f00388d9f385" target="_top" xlink:title="marian::Config::Config">
<polygon fill="white" stroke="black" points="746.5,-129 746.5,-148 861.5,-148 861.5,-129 746.5,-129"/>
<text text-anchor="middle" x="804" y="-136" font-family="Helvetica,sans-Serif" font-size="10.00">marian::Config::Config</text>
</a>
</g>
</g>
<!-- Node10&#45;&gt;Node11 -->
<g id="edge10" class="edge"><title>Node10&#45;&gt;Node11</title>
<path fill="none" stroke="midnightblue" d="M684.385,-111.51C708.65,-117.031 737.753,-123.653 761.058,-128.956"/>
<polygon fill="midnightblue" stroke="midnightblue" points="684.841,-108.024 674.313,-109.218 683.287,-114.85 684.841,-108.024"/>
</g>
<!-- Node12 -->
<g id="node12" class="node"><title>Node12</title>
<g id="a_node12"><a xlink:href="../../dc/df8/iris_8cpp.html#ae66f6b31b5ad750f1fe042a706a4e3d4" target="_top" xlink:title="main">
<polygon fill="white" stroke="black" points="785,-91 785,-110 823,-110 823,-91 785,-91"/>
<text text-anchor="middle" x="804" y="-98" font-family="Helvetica,sans-Serif" font-size="10.00">main</text>
</a>
</g>
</g>
<!-- Node10&#45;&gt;Node12 -->
<g id="edge11" class="edge"><title>Node10&#45;&gt;Node12</title>
<path fill="none" stroke="midnightblue" d="M684.424,-100.5C718.065,-100.5 760.988,-100.5 784.875,-100.5"/>
<polygon fill="midnightblue" stroke="midnightblue" points="684.313,-97.0001 674.313,-100.5 684.313,-104 684.313,-97.0001"/>
</g>
<!-- Node14 -->
<g id="node14" class="node"><title>Node14</title>
<g id="a_node14"><a xlink:href="../../db/de8/classmarian_1_1OutputCollector.html#a6b877d0629db1fe8d5f5c920025cc859" target="_top" xlink:title="marian::OutputCollector\l::OutputCollector">
<polygon fill="white" stroke="black" points="744,-41.5 744,-71.5 864,-71.5 864,-41.5 744,-41.5"/>
<text text-anchor="start" x="752" y="-59.5" font-family="Helvetica,sans-Serif" font-size="10.00">marian::OutputCollector</text>
<text text-anchor="middle" x="804" y="-48.5" font-family="Helvetica,sans-Serif" font-size="10.00">::OutputCollector</text>
</a>
</g>
</g>
<!-- Node13&#45;&gt;Node14 -->
<g id="edge13" class="edge"><title>Node13&#45;&gt;Node14</title>
<path fill="none" stroke="midnightblue" d="M705.459,-56.5C718.216,-56.5 731.423,-56.5 743.843,-56.5"/>
<polygon fill="midnightblue" stroke="midnightblue" points="705.348,-53.0001 695.348,-56.5 705.348,-60.0001 705.348,-53.0001"/>
</g>
<!-- Node17 -->
<g id="node17" class="node"><title>Node17</title>
<g id="a_node17"><a xlink:href="../../d0/d73/decoder__main_8cpp.html#a0ddf1224851353fc92bfbff6f499fa97" target="_top" xlink:title="main">
<polygon fill="white" stroke="black" points="616,-3 616,-22 654,-22 654,-3 616,-3"/>
<text text-anchor="middle" x="635" y="-10" font-family="Helvetica,sans-Serif" font-size="10.00">main</text>
</a>
</g>
</g>
<!-- Node16&#45;&gt;Node17 -->
<g id="edge16" class="edge"><title>Node16&#45;&gt;Node17</title>
<path fill="none" stroke="midnightblue" d="M526.87,-14.2005C559.844,-13.6771 594.908,-13.1205 615.61,-12.7919"/>
<polygon fill="midnightblue" stroke="midnightblue" points="526.665,-10.7032 516.722,-14.3616 526.777,-17.7023 526.665,-10.7032"/>
</g>
</g>
</svg>
