<?xml version="1.0" encoding="UTF-8" standalone="no"?>
<!DOCTYPE svg PUBLIC "-//W3C//DTD SVG 1.1//EN"
 "http://www.w3.org/Graphics/SVG/1.1/DTD/svg11.dtd">
<!-- Generated by graphviz version 2.38.0 (20140413.2041)
 -->
<!-- Title: amunmt::God::LoadFiltering Pages: 1 -->
<svg width="481pt" height="104pt"
 viewBox="0.00 0.00 481.00 104.00" xmlns="http://www.w3.org/2000/svg" xmlns:xlink="http://www.w3.org/1999/xlink">
<g id="graph0" class="graph" transform="scale(1 1) rotate(0) translate(4 100)">
<title>amunmt::God::LoadFiltering</title>
<polygon fill="white" stroke="none" points="-4,4 -4,-100 477,-100 477,4 -4,4"/>
<!-- Node1 -->
<g id="node1" class="node"><title>Node1</title>
<polygon fill="#bfbfbf" stroke="black" points="0,-38.5 0,-57.5 137,-57.5 137,-38.5 0,-38.5"/>
<text text-anchor="middle" x="68.5" y="-45.5" font-family="Helvetica,sans-Serif" font-size="10.00">amunmt::God::LoadFiltering</text>
</g>
<!-- Node2 -->
<g id="node2" class="node"><title>Node2</title>
<g id="a_node2"><a xlink:href="../../d7/d4e/classamunmt_1_1God.html#ad0d3efbdf165ba0bc4de9052a826f7b6" target="_top" xlink:title="amunmt::God::Get">
<polygon fill="white" stroke="black" points="202,-76.5 202,-95.5 300,-95.5 300,-76.5 202,-76.5"/>
<text text-anchor="middle" x="251" y="-83.5" font-family="Helvetica,sans-Serif" font-size="10.00">amunmt::God::Get</text>
</a>
</g>
</g>
<!-- Node1&#45;&gt;Node2 -->
<g id="edge1" class="edge"><title>Node1&#45;&gt;Node2</title>
<path fill="none" stroke="midnightblue" d="M115.048,-57.589C139.296,-62.6939 169.304,-69.0113 194.861,-74.3918"/>
<polygon fill="midnightblue" stroke="midnightblue" points="194.273,-77.8447 204.78,-76.4799 195.715,-70.9948 194.273,-77.8447"/>
</g>
<!-- Node4 -->
<g id="node4" class="node"><title>Node4</title>
<g id="a_node4"><a xlink:href="../../d7/d4e/classamunmt_1_1God.html#a032b43755a3050ee9fb97ad27a91a63b" target="_top" xlink:title="amunmt::God::GetSourceVocab">
<polygon fill="white" stroke="black" points="173,-38.5 173,-57.5 329,-57.5 329,-38.5 173,-38.5"/>
<text text-anchor="middle" x="251" y="-45.5" font-family="Helvetica,sans-Serif" font-size="10.00">amunmt::God::GetSourceVocab</text>
</a>
</g>
</g>
<!-- Node1&#45;&gt;Node4 -->
<g id="edge3" class="edge"><title>Node1&#45;&gt;Node4</title>
<path fill="none" stroke="midnightblue" d="M137.225,-48C145.565,-48 154.18,-48 162.758,-48"/>
<polygon fill="midnightblue" stroke="midnightblue" points="162.793,-51.5001 172.793,-48 162.793,-44.5001 162.793,-51.5001"/>
</g>
<!-- Node5 -->
<g id="node5" class="node"><title>Node5</title>
<g id="a_node5"><a xlink:href="../../d7/d4e/classamunmt_1_1God.html#aabd3caa5eb93346428948ce6639dc931" target="_top" xlink:title="amunmt::God::GetTargetVocab">
<polygon fill="white" stroke="black" points="174.5,-0.5 174.5,-19.5 327.5,-19.5 327.5,-0.5 174.5,-0.5"/>
<text text-anchor="middle" x="251" y="-7.5" font-family="Helvetica,sans-Serif" font-size="10.00">amunmt::God::GetTargetVocab</text>
</a>
</g>
</g>
<!-- Node1&#45;&gt;Node5 -->
<g id="edge4" class="edge"><title>Node1&#45;&gt;Node5</title>
<path fill="none" stroke="midnightblue" d="M115.048,-38.411C139.296,-33.3061 169.304,-26.9887 194.861,-21.6082"/>
<polygon fill="midnightblue" stroke="midnightblue" points="195.715,-25.0052 204.78,-19.5201 194.273,-18.1553 195.715,-25.0052"/>
</g>
<!-- Node3 -->
<g id="node3" class="node"><title>Node3</title>
<g id="a_node3"><a xlink:href="../../da/d4e/classamunmt_1_1Config.html#a5257f41272d06c35bebe8130b5897d23" target="_top" xlink:title="amunmt::Config::Get">
<polygon fill="white" stroke="black" points="365,-76.5 365,-95.5 473,-95.5 473,-76.5 365,-76.5"/>
<text text-anchor="middle" x="419" y="-83.5" font-family="Helvetica,sans-Serif" font-size="10.00">amunmt::Config::Get</text>
</a>
</g>
</g>
<!-- Node2&#45;&gt;Node3 -->
<g id="edge2" class="edge"><title>Node2&#45;&gt;Node3</title>
<path fill="none" stroke="midnightblue" d="M300.014,-86C317.063,-86 336.522,-86 354.654,-86"/>
<polygon fill="midnightblue" stroke="midnightblue" points="354.856,-89.5001 364.856,-86 354.856,-82.5001 354.856,-89.5001"/>
</g>
</g>
</svg>
