<?xml version="1.0" encoding="UTF-8" standalone="no"?>
<!DOCTYPE svg PUBLIC "-//W3C//DTD SVG 1.1//EN"
 "http://www.w3.org/Graphics/SVG/1.1/DTD/svg11.dtd">
<!-- Generated by graphviz version 2.38.0 (20140413.2041)
 -->
<!-- Title: marian::rnn::GlobalAttention::GlobalAttention Pages: 1 -->
<svg width="434pt" height="356pt"
 viewBox="0.00 0.00 434.00 355.50" xmlns="http://www.w3.org/2000/svg" xmlns:xlink="http://www.w3.org/1999/xlink">
<g id="graph0" class="graph" transform="scale(1 1) rotate(0) translate(4 351.5)">
<title>marian::rnn::GlobalAttention::GlobalAttention</title>
<polygon fill="white" stroke="none" points="-4,4 -4,-351.5 430,-351.5 430,4 -4,4"/>
<!-- Node1 -->
<g id="node1" class="node"><title>Node1</title>
<polygon fill="#bfbfbf" stroke="black" points="0,-147 0,-177 138,-177 138,-147 0,-147"/>
<text text-anchor="start" x="8" y="-165" font-family="Helvetica,sans-Serif" font-size="10.00">marian::rnn::GlobalAttention</text>
<text text-anchor="middle" x="69" y="-154" font-family="Helvetica,sans-Serif" font-size="10.00">::GlobalAttention</text>
</g>
<!-- Node2 -->
<g id="node2" class="node"><title>Node2</title>
<g id="a_node2"><a xlink:href="$d4/dec/namespacemarian_1_1inits.html#a8838c47537f434b855491cd3ed97ccd1" xlink:title="marian::inits::glorot\l_uniform">
<polygon fill="white" stroke="black" points="174,-317 174,-347 274,-347 274,-317 174,-317"/>
<text text-anchor="start" x="182" y="-335" font-family="Helvetica,sans-Serif" font-size="10.00">marian::inits::glorot</text>
<text text-anchor="middle" x="224" y="-324" font-family="Helvetica,sans-Serif" font-size="10.00">_uniform</text>
</a>
</g>
</g>
<!-- Node1&#45;&gt;Node2 -->
<g id="edge1" class="edge"><title>Node1&#45;&gt;Node2</title>
<path fill="none" stroke="midnightblue" d="M77.7937,-177.385C92.9498,-206.048 128.9,-268.22 174,-307 175.736,-308.492 177.576,-309.925 179.486,-311.295"/>
<polygon fill="midnightblue" stroke="midnightblue" points="177.894,-314.432 188.198,-316.898 181.681,-308.545 177.894,-314.432"/>
</g>
<!-- Node3 -->
<g id="node3" class="node"><title>Node3</title>
<g id="a_node3"><a xlink:href="$d4/dec/namespacemarian_1_1inits.html#a1bd34fd256e3df7bb1e27955a7f2b359" xlink:title="marian::inits::zeros">
<polygon fill="white" stroke="black" points="174,-278.5 174,-297.5 274,-297.5 274,-278.5 174,-278.5"/>
<text text-anchor="middle" x="224" y="-285.5" font-family="Helvetica,sans-Serif" font-size="10.00">marian::inits::zeros</text>
</a>
</g>
</g>
<!-- Node1&#45;&gt;Node3 -->
<g id="edge2" class="edge"><title>Node1&#45;&gt;Node3</title>
<path fill="none" stroke="midnightblue" d="M81.1911,-177.129C98.7068,-199.873 134.686,-242.974 174,-269 176.903,-270.922 180.029,-272.693 183.247,-274.315"/>
<polygon fill="midnightblue" stroke="midnightblue" points="181.9,-277.547 192.453,-278.496 184.795,-271.174 181.9,-277.547"/>
</g>
<!-- Node4 -->
<g id="node4" class="node"><title>Node4</title>
<g id="a_node4"><a xlink:href="$da/d22/namespacemarian.html#a268400392f22176821c7c4a36733b178" xlink:title="marian::dropout">
<polygon fill="white" stroke="black" points="182,-240.5 182,-259.5 266,-259.5 266,-240.5 182,-240.5"/>
<text text-anchor="middle" x="224" y="-247.5" font-family="Helvetica,sans-Serif" font-size="10.00">marian::dropout</text>
</a>
</g>
</g>
<!-- Node1&#45;&gt;Node4 -->
<g id="edge3" class="edge"><title>Node1&#45;&gt;Node4</title>
<path fill="none" stroke="midnightblue" d="M89.9186,-177.106C110.286,-192.09 143.214,-215.057 174,-231 177.783,-232.959 181.815,-234.835 185.881,-236.594"/>
<polygon fill="midnightblue" stroke="midnightblue" points="184.745,-239.911 195.326,-240.468 187.402,-233.435 184.745,-239.911"/>
</g>
<!-- Node10 -->
<g id="node10" class="node"><title>Node10</title>
<g id="a_node10"><a xlink:href="$d4/dec/namespacemarian_1_1inits.html#a03723a199ab72a38a13b2b8644e8e1c2" xlink:title="marian::inits::from\l_value">
<polygon fill="white" stroke="black" points="176.5,-191 176.5,-221 271.5,-221 271.5,-191 176.5,-191"/>
<text text-anchor="start" x="184.5" y="-209" font-family="Helvetica,sans-Serif" font-size="10.00">marian::inits::from</text>
<text text-anchor="middle" x="224" y="-198" font-family="Helvetica,sans-Serif" font-size="10.00">_value</text>
</a>
</g>
</g>
<!-- Node1&#45;&gt;Node10 -->
<g id="edge9" class="edge"><title>Node1&#45;&gt;Node10</title>
<path fill="none" stroke="midnightblue" d="M122.226,-177.019C136.504,-181.125 152.041,-185.594 166.544,-189.764"/>
<polygon fill="midnightblue" stroke="midnightblue" points="165.813,-193.196 176.391,-192.596 167.748,-186.469 165.813,-193.196"/>
</g>
<!-- Node11 -->
<g id="node11" class="node"><title>Node11</title>
<g id="a_node11"><a xlink:href="$da/d22/namespacemarian.html#a6202278a9da8ca8a281a6a96e75082f6" xlink:title="marian::layer_norm">
<polygon fill="white" stroke="black" points="174,-152.5 174,-171.5 274,-171.5 274,-152.5 174,-152.5"/>
<text text-anchor="middle" x="224" y="-159.5" font-family="Helvetica,sans-Serif" font-size="10.00">marian::layer_norm</text>
</a>
</g>
</g>
<!-- Node1&#45;&gt;Node11 -->
<g id="edge10" class="edge"><title>Node1&#45;&gt;Node11</title>
<path fill="none" stroke="midnightblue" d="M138.445,-162C146.837,-162 155.359,-162 163.602,-162"/>
<polygon fill="midnightblue" stroke="midnightblue" points="163.863,-165.5 173.863,-162 163.863,-158.5 163.863,-165.5"/>
</g>
<!-- Node12 -->
<g id="node12" class="node"><title>Node12</title>
<g id="a_node12"><a xlink:href="$da/d22/namespacemarian.html#ad7fbf1ba8e2e04ffdc7d5e4841b5e691" xlink:title="marian::dot">
<polygon fill="white" stroke="black" points="191.5,-114.5 191.5,-133.5 256.5,-133.5 256.5,-114.5 191.5,-114.5"/>
<text text-anchor="middle" x="224" y="-121.5" font-family="Helvetica,sans-Serif" font-size="10.00">marian::dot</text>
</a>
</g>
</g>
<!-- Node1&#45;&gt;Node12 -->
<g id="edge11" class="edge"><title>Node1&#45;&gt;Node12</title>
<path fill="none" stroke="midnightblue" d="M130.47,-146.981C147.462,-142.761 165.56,-138.266 181.201,-134.381"/>
<polygon fill="midnightblue" stroke="midnightblue" points="182.228,-137.733 191.089,-131.926 180.54,-130.939 182.228,-137.733"/>
</g>
<!-- Node13 -->
<g id="node13" class="node"><title>Node13</title>
<g id="a_node13"><a xlink:href="$da/d22/namespacemarian.html#aefe65d738dc9a0536f3a1f9346b8d47b" xlink:title="marian::affine">
<polygon fill="white" stroke="black" points="186,-76.5 186,-95.5 262,-95.5 262,-76.5 186,-76.5"/>
<text text-anchor="middle" x="224" y="-83.5" font-family="Helvetica,sans-Serif" font-size="10.00">marian::affine</text>
</a>
</g>
</g>
<!-- Node1&#45;&gt;Node13 -->
<g id="edge12" class="edge"><title>Node1&#45;&gt;Node13</title>
<path fill="none" stroke="midnightblue" d="M95.1609,-146.991C115.93,-134.901 146.374,-117.859 174,-105 178.161,-103.063 182.578,-101.154 186.99,-99.3369"/>
<polygon fill="midnightblue" stroke="midnightblue" points="188.548,-102.484 196.54,-95.5289 185.955,-95.9817 188.548,-102.484"/>
</g>
<!-- Node14 -->
<g id="node14" class="node"><title>Node14</title>
<g id="a_node14"><a xlink:href="$da/d22/namespacemarian.html#a00669690ef16ce9b1bde5ee9d1b77ac6" xlink:title="marian::transpose">
<polygon fill="white" stroke="black" points="176.5,-38.5 176.5,-57.5 271.5,-57.5 271.5,-38.5 176.5,-38.5"/>
<text text-anchor="middle" x="224" y="-45.5" font-family="Helvetica,sans-Serif" font-size="10.00">marian::transpose</text>
</a>
</g>
</g>
<!-- Node1&#45;&gt;Node14 -->
<g id="edge13" class="edge"><title>Node1&#45;&gt;Node14</title>
<path fill="none" stroke="midnightblue" d="M83.0897,-146.96C101.58,-126.492 137.214,-89.8105 174,-67 177.131,-65.0586 180.493,-63.2571 183.935,-61.5994"/>
<polygon fill="midnightblue" stroke="midnightblue" points="185.39,-64.7832 193.132,-57.5507 182.57,-58.3766 185.39,-64.7832"/>
</g>
<!-- Node15 -->
<g id="node15" class="node"><title>Node15</title>
<g id="a_node15"><a xlink:href="$da/d22/namespacemarian.html#acd984f43188d0ae23c2a6ef13ae5293f" xlink:title="marian::reshape">
<polygon fill="white" stroke="black" points="181,-0.5 181,-19.5 267,-19.5 267,-0.5 181,-0.5"/>
<text text-anchor="middle" x="224" y="-7.5" font-family="Helvetica,sans-Serif" font-size="10.00">marian::reshape</text>
</a>
</g>
</g>
<!-- Node1&#45;&gt;Node15 -->
<g id="edge14" class="edge"><title>Node1&#45;&gt;Node15</title>
<path fill="none" stroke="midnightblue" d="M78.2564,-146.657C93.6542,-119.377 129.281,-62.1933 174,-29 176.449,-27.1825 179.093,-25.5157 181.84,-23.9912"/>
<polygon fill="midnightblue" stroke="midnightblue" points="183.398,-27.1257 190.852,-19.5967 180.33,-20.8339 183.398,-27.1257"/>
</g>
<!-- Node5 -->
<g id="node5" class="node"><title>Node5</title>
<g id="a_node5"><a xlink:href="$d4/d04/namespacemarian_1_1keywords.html#a74d7a2502faafdd421ef3dff629e284f" xlink:title="marian::keywords::Get">
<polygon fill="white" stroke="black" points="310,-316.5 310,-335.5 426,-335.5 426,-316.5 310,-316.5"/>
<text text-anchor="middle" x="368" y="-323.5" font-family="Helvetica,sans-Serif" font-size="10.00">marian::keywords::Get</text>
</a>
</g>
</g>
<!-- Node4&#45;&gt;Node5 -->
<g id="edge4" class="edge"><title>Node4&#45;&gt;Node5</title>
<path fill="none" stroke="midnightblue" d="M255.841,-259.556C262.109,-262.148 268.47,-265.288 274,-269 293.316,-281.966 290.377,-294.503 310,-307 313.178,-309.024 316.595,-310.855 320.119,-312.508"/>
<polygon fill="midnightblue" stroke="midnightblue" points="319.032,-315.847 329.608,-316.474 321.732,-309.389 319.032,-315.847"/>
</g>
<!-- Node6 -->
<g id="node6" class="node"><title>Node6</title>
<g id="a_node6"><a xlink:href="$da/d22/namespacemarian.html#a763e5e9b5d5a329d2420fe9bab95476d" xlink:title="marian::shift">
<polygon fill="white" stroke="black" points="332.5,-278.5 332.5,-297.5 403.5,-297.5 403.5,-278.5 332.5,-278.5"/>
<text text-anchor="middle" x="368" y="-285.5" font-family="Helvetica,sans-Serif" font-size="10.00">marian::shift</text>
</a>
</g>
</g>
<!-- Node4&#45;&gt;Node6 -->
<g id="edge5" class="edge"><title>Node4&#45;&gt;Node6</title>
<path fill="none" stroke="midnightblue" d="M260.833,-259.589C279.529,-264.592 302.577,-270.76 322.416,-276.069"/>
<polygon fill="midnightblue" stroke="midnightblue" points="321.596,-279.473 332.161,-278.677 323.405,-272.711 321.596,-279.473"/>
</g>
<!-- Node7 -->
<g id="node7" class="node"><title>Node7</title>
<g id="a_node7"><a xlink:href="$da/d22/namespacemarian.html#a3dbe8b5eb203876cd08cf3fe75a1c6bc" xlink:title="marian::convolution">
<polygon fill="white" stroke="black" points="317.5,-240.5 317.5,-259.5 418.5,-259.5 418.5,-240.5 317.5,-240.5"/>
<text text-anchor="middle" x="368" y="-247.5" font-family="Helvetica,sans-Serif" font-size="10.00">marian::convolution</text>
</a>
</g>
</g>
<!-- Node4&#45;&gt;Node7 -->
<g id="edge6" class="edge"><title>Node4&#45;&gt;Node7</title>
<path fill="none" stroke="midnightblue" d="M266.072,-250C278.991,-250 293.528,-250 307.46,-250"/>
<polygon fill="midnightblue" stroke="midnightblue" points="307.466,-253.5 317.466,-250 307.466,-246.5 307.466,-253.5"/>
</g>
<!-- Node8 -->
<g id="node8" class="node"><title>Node8</title>
<g id="a_node8"><a xlink:href="$da/d22/namespacemarian.html#a8ee119d3ee4867a3c826de62ea1de4f5" xlink:title="marian::avg_pooling">
<polygon fill="white" stroke="black" points="316,-202.5 316,-221.5 420,-221.5 420,-202.5 316,-202.5"/>
<text text-anchor="middle" x="368" y="-209.5" font-family="Helvetica,sans-Serif" font-size="10.00">marian::avg_pooling</text>
</a>
</g>
</g>
<!-- Node4&#45;&gt;Node8 -->
<g id="edge7" class="edge"><title>Node4&#45;&gt;Node8</title>
<path fill="none" stroke="midnightblue" d="M260.833,-240.411C279.163,-235.506 301.678,-229.48 321.25,-224.243"/>
<polygon fill="midnightblue" stroke="midnightblue" points="322.424,-227.552 331.179,-221.586 320.614,-220.79 322.424,-227.552"/>
</g>
<!-- Node9 -->
<g id="node9" class="node"><title>Node9</title>
<g id="a_node9"><a xlink:href="$da/d22/namespacemarian.html#abfe3b8c37f479da0a31a1e843d8bdedf" xlink:title="marian::max_pooling">
<polygon fill="white" stroke="black" points="314.5,-164.5 314.5,-183.5 421.5,-183.5 421.5,-164.5 314.5,-164.5"/>
<text text-anchor="middle" x="368" y="-171.5" font-family="Helvetica,sans-Serif" font-size="10.00">marian::max_pooling</text>
</a>
</g>
</g>
<!-- Node4&#45;&gt;Node9 -->
<g id="edge8" class="edge"><title>Node4&#45;&gt;Node9</title>
<path fill="none" stroke="midnightblue" d="M255.841,-240.444C262.109,-237.852 268.47,-234.712 274,-231 293.316,-218.034 290.377,-205.497 310,-193 313.178,-190.976 316.595,-189.145 320.119,-187.492"/>
<polygon fill="midnightblue" stroke="midnightblue" points="321.732,-190.611 329.608,-183.526 319.032,-184.153 321.732,-190.611"/>
</g>
</g>
</svg>
