<?xml version="1.0" encoding="UTF-8" standalone="no"?>
<!DOCTYPE svg PUBLIC "-//W3C//DTD SVG 1.1//EN"
 "http://www.w3.org/Graphics/SVG/1.1/DTD/svg11.dtd">
<!-- Generated by graphviz version 2.38.0 (20140413.2041)
 -->
<!-- Title: amunmt::Sentence::Sentence Pages: 1 -->
<svg width="346pt" height="66pt"
 viewBox="0.00 0.00 346.00 66.00" xmlns="http://www.w3.org/2000/svg" xmlns:xlink="http://www.w3.org/1999/xlink">
<g id="graph0" class="graph" transform="scale(1 1) rotate(0) translate(4 62)">
<title>amunmt::Sentence::Sentence</title>
<polygon fill="white" stroke="none" points="-4,4 -4,-62 342,-62 342,4 -4,4"/>
<!-- Node1 -->
<g id="node1" class="node"><title>Node1</title>
<polygon fill="#bfbfbf" stroke="black" points="0,-19.5 0,-38.5 146,-38.5 146,-19.5 0,-19.5"/>
<text text-anchor="middle" x="73" y="-26.5" font-family="Helvetica,sans-Serif" font-size="10.00">amunmt::Sentence::Sentence</text>
</g>
<!-- Node2 -->
<g id="node2" class="node"><title>Node2</title>
<g id="a_node2"><a xlink:href="$d7/d4e/classamunmt_1_1God.html#a98a2f57d4f28a7e7d58f3b68680dbdb1" xlink:title="amunmt::God::Preprocess">
<polygon fill="white" stroke="black" points="194.5,-38.5 194.5,-57.5 325.5,-57.5 325.5,-38.5 194.5,-38.5"/>
<text text-anchor="middle" x="260" y="-45.5" font-family="Helvetica,sans-Serif" font-size="10.00">amunmt::God::Preprocess</text>
</a>
</g>
</g>
<!-- Node1&#45;&gt;Node2 -->
<g id="edge1" class="edge"><title>Node1&#45;&gt;Node2</title>
<path fill="none" stroke="midnightblue" d="M146.056,-36.4003C158.624,-37.6911 171.723,-39.0364 184.359,-40.3342"/>
<polygon fill="midnightblue" stroke="midnightblue" points="184.07,-43.8228 194.375,-41.3629 184.785,-36.8594 184.07,-43.8228"/>
</g>
<!-- Node3 -->
<g id="node3" class="node"><title>Node3</title>
<g id="a_node3"><a xlink:href="$d7/d4e/classamunmt_1_1God.html#a032b43755a3050ee9fb97ad27a91a63b" xlink:title="amunmt::God::GetSourceVocab">
<polygon fill="white" stroke="black" points="182,-0.5 182,-19.5 338,-19.5 338,-0.5 182,-0.5"/>
<text text-anchor="middle" x="260" y="-7.5" font-family="Helvetica,sans-Serif" font-size="10.00">amunmt::God::GetSourceVocab</text>
</a>
</g>
</g>
<!-- Node1&#45;&gt;Node3 -->
<g id="edge2" class="edge"><title>Node1&#45;&gt;Node3</title>
<path fill="none" stroke="midnightblue" d="M146.056,-21.5997C154.514,-20.731 163.213,-19.8376 171.85,-18.9506"/>
<polygon fill="midnightblue" stroke="midnightblue" points="172.351,-22.4175 181.942,-17.9141 171.636,-15.4542 172.351,-22.4175"/>
</g>
</g>
</svg>
