<?xml version="1.0" encoding="UTF-8" standalone="no"?>
<!DOCTYPE svg PUBLIC "-//W3C//DTD SVG 1.1//EN"
 "http://www.w3.org/Graphics/SVG/1.1/DTD/svg11.dtd">
<!-- Generated by graphviz version 2.38.0 (20140413.2041)
 -->
<!-- Title: marian::SingletonGraph&lt; Builder &gt; Pages: 1 -->
<svg width="133pt" height="380pt"
 viewBox="0.00 0.00 133.00 380.00" xmlns="http://www.w3.org/2000/svg" xmlns:xlink="http://www.w3.org/1999/xlink">
<g id="graph0" class="graph" transform="scale(1 1) rotate(0) translate(4 376)">
<title>marian::SingletonGraph&lt; Builder &gt;</title>
<polygon fill="white" stroke="none" points="-4,4 -4,-376 129,-376 129,4 -4,4"/>
<!-- Node1 -->
<g id="node1" class="node"><title>Node1</title>
<polygon fill="#bfbfbf" stroke="black" points="-7.10543e-15,-0.5 -7.10543e-15,-211.5 125,-211.5 125,-0.5 -7.10543e-15,-0.5"/>
<text text-anchor="start" x="8" y="-199.5" font-family="Helvetica,sans-Serif" font-size="10.00">marian::SingletonGraph</text>
<text text-anchor="middle" x="62.5" y="-188.5" font-family="Helvetica,sans-Serif" font-size="10.00">&lt; Builder &gt;</text>
<polyline fill="none" stroke="black" points="-7.10543e-15,-181.5 125,-181.5 "/>
<text text-anchor="start" x="8" y="-169.5" font-family="Helvetica,sans-Serif" font-size="10.00">&#45; builder_</text>
<text text-anchor="start" x="8" y="-158.5" font-family="Helvetica,sans-Serif" font-size="10.00">&#45; graph_</text>
<text text-anchor="start" x="8" y="-147.5" font-family="Helvetica,sans-Serif" font-size="10.00">&#45; scheduler_</text>
<text text-anchor="start" x="8" y="-136.5" font-family="Helvetica,sans-Serif" font-size="10.00">&#45; mvAvgGraph_</text>
<text text-anchor="start" x="8" y="-125.5" font-family="Helvetica,sans-Serif" font-size="10.00">&#45; mvAvg_</text>
<text text-anchor="start" x="8" y="-114.5" font-family="Helvetica,sans-Serif" font-size="10.00">&#45; mvDecay_</text>
<polyline fill="none" stroke="black" points="-7.10543e-15,-107.5 125,-107.5 "/>
<text text-anchor="start" x="8" y="-95.5" font-family="Helvetica,sans-Serif" font-size="10.00">+ setScheduler()</text>
<text text-anchor="start" x="8" y="-84.5" font-family="Helvetica,sans-Serif" font-size="10.00">+ SingletonGraph()</text>
<text text-anchor="start" x="8" y="-73.5" font-family="Helvetica,sans-Serif" font-size="10.00">+ update()</text>
<text text-anchor="start" x="8" y="-62.5" font-family="Helvetica,sans-Serif" font-size="10.00">+ load()</text>
<text text-anchor="start" x="8" y="-51.5" font-family="Helvetica,sans-Serif" font-size="10.00">+ save()</text>
<text text-anchor="start" x="8" y="-40.5" font-family="Helvetica,sans-Serif" font-size="10.00">+ save()</text>
<text text-anchor="start" x="8" y="-29.5" font-family="Helvetica,sans-Serif" font-size="10.00">+ collectStats()</text>
<text text-anchor="start" x="8" y="-18.5" font-family="Helvetica,sans-Serif" font-size="10.00">&#45; updateMovingAverage()</text>
<text text-anchor="start" x="8" y="-7.5" font-family="Helvetica,sans-Serif" font-size="10.00">&#45; execute()</text>
</g>
<!-- Node2 -->
<g id="node2" class="node"><title>Node2</title>
<g id="a_node2"><a xlink:href="../../d9/dbe/classmarian_1_1GraphGroup.html" target="_top" xlink:title="{marian::GraphGroup\n|# options_\l# opt_\l|+ GraphGroup()\l+ ~GraphGroup()\l+ update()\l+ load()\l+ save()\l+ collectStats()\l}">
<polygon fill="white" stroke="black" points="10.5,-248.5 10.5,-371.5 114.5,-371.5 114.5,-248.5 10.5,-248.5"/>
<text text-anchor="middle" x="62.5" y="-359.5" font-family="Helvetica,sans-Serif" font-size="10.00">marian::GraphGroup</text>
<polyline fill="none" stroke="black" points="10.5,-352.5 114.5,-352.5 "/>
<text text-anchor="start" x="18.5" y="-340.5" font-family="Helvetica,sans-Serif" font-size="10.00"># options_</text>
<text text-anchor="start" x="18.5" y="-329.5" font-family="Helvetica,sans-Serif" font-size="10.00"># opt_</text>
<polyline fill="none" stroke="black" points="10.5,-322.5 114.5,-322.5 "/>
<text text-anchor="start" x="18.5" y="-310.5" font-family="Helvetica,sans-Serif" font-size="10.00">+ GraphGroup()</text>
<text text-anchor="start" x="18.5" y="-299.5" font-family="Helvetica,sans-Serif" font-size="10.00">+ ~GraphGroup()</text>
<text text-anchor="start" x="18.5" y="-288.5" font-family="Helvetica,sans-Serif" font-size="10.00">+ update()</text>
<text text-anchor="start" x="18.5" y="-277.5" font-family="Helvetica,sans-Serif" font-size="10.00">+ load()</text>
<text text-anchor="start" x="18.5" y="-266.5" font-family="Helvetica,sans-Serif" font-size="10.00">+ save()</text>
<text text-anchor="start" x="18.5" y="-255.5" font-family="Helvetica,sans-Serif" font-size="10.00">+ collectStats()</text>
</a>
</g>
</g>
<!-- Node2&#45;&gt;Node1 -->
<g id="edge1" class="edge"><title>Node2&#45;&gt;Node1</title>
<path fill="none" stroke="midnightblue" d="M62.5,-238.12C62.5,-229.553 62.5,-220.668 62.5,-211.744"/>
<polygon fill="none" stroke="midnightblue" points="59.0001,-238.393 62.5,-248.393 66.0001,-238.393 59.0001,-238.393"/>
</g>
</g>
</svg>
