<?xml version="1.0" encoding="UTF-8" standalone="no"?>
<!DOCTYPE svg PUBLIC "-//W3C//DTD SVG 1.1//EN"
 "http://www.w3.org/Graphics/SVG/1.1/DTD/svg11.dtd">
<!-- Generated by graphviz version 2.38.0 (20140413.2041)
 -->
<!-- Title: amunmt::Preprocessor Pages: 1 -->
<svg width="126pt" height="441pt"
 viewBox="0.00 0.00 126.00 441.00" xmlns="http://www.w3.org/2000/svg" xmlns:xlink="http://www.w3.org/1999/xlink">
<g id="graph0" class="graph" transform="scale(1 1) rotate(0) translate(4 437)">
<title>amunmt::Preprocessor</title>
<polygon fill="white" stroke="none" points="-4,4 -4,-437 122,-437 122,4 -4,4"/>
<!-- Node1 -->
<g id="node1" class="node"><title>Node1</title>
<polygon fill="#bfbfbf" stroke="black" points="1,-364.5 1,-432.5 117,-432.5 117,-364.5 1,-364.5"/>
<text text-anchor="middle" x="59" y="-420.5" font-family="Helvetica,sans-Serif" font-size="10.00">amunmt::Preprocessor</text>
<polyline fill="none" stroke="black" points="1,-413.5 117,-413.5 "/>
<text text-anchor="middle" x="59" y="-401.5" font-family="Helvetica,sans-Serif" font-size="10.00"> </text>
<polyline fill="none" stroke="black" points="1,-394.5 117,-394.5 "/>
<text text-anchor="start" x="9" y="-382.5" font-family="Helvetica,sans-Serif" font-size="10.00">+ Preprocess()</text>
<text text-anchor="start" x="9" y="-371.5" font-family="Helvetica,sans-Serif" font-size="10.00">+ ~Preprocessor()</text>
</g>
<!-- Node2 -->
<g id="node2" class="node"><title>Node2</title>
<g id="a_node2"><a xlink:href="$d1/db0/classamunmt_1_1Processor.html" xlink:title="{amunmt::Processor\n||+ ~Processor()\l}">
<polygon fill="white" stroke="black" points="8,-270.5 8,-327.5 110,-327.5 110,-270.5 8,-270.5"/>
<text text-anchor="middle" x="59" y="-315.5" font-family="Helvetica,sans-Serif" font-size="10.00">amunmt::Processor</text>
<polyline fill="none" stroke="black" points="8,-308.5 110,-308.5 "/>
<text text-anchor="middle" x="59" y="-296.5" font-family="Helvetica,sans-Serif" font-size="10.00"> </text>
<polyline fill="none" stroke="black" points="8,-289.5 110,-289.5 "/>
<text text-anchor="start" x="16" y="-277.5" font-family="Helvetica,sans-Serif" font-size="10.00">+ ~Processor()</text>
</a>
</g>
</g>
<!-- Node1&#45;&gt;Node2 -->
<g id="edge1" class="edge"><title>Node1&#45;&gt;Node2</title>
<path fill="none" stroke="midnightblue" d="M59,-354.454C59,-345.404 59,-336.088 59,-327.777"/>
<polygon fill="none" stroke="midnightblue" points="55.5001,-354.491 59,-364.491 62.5001,-354.491 55.5001,-354.491"/>
</g>
<!-- Node3 -->
<g id="node3" class="node"><title>Node3</title>
<g id="a_node3"><a xlink:href="$da/d75/classamunmt_1_1BPE.html" xlink:title="{amunmt::BPE\n|&#45; bpeCodes_\l&#45; sep_\l&#45; cache_\l|+ BPE()\l+ BPE()\l+ BPE()\l+ Segment()\l+ PrintSegment()\l+ Encode()\l+ Encode()\l+ Preprocess()\l+ Postprocess()\l+ ~BPE()\l&#45; GetPairs()\l&#45; FindBestBigram()\l&#45; IsCached()\l&#45; SplitWordIntoLetters()\l&#45; EndsWith()\l}">
<polygon fill="white" stroke="black" points="0,-0.5 0,-233.5 118,-233.5 118,-0.5 0,-0.5"/>
<text text-anchor="middle" x="59" y="-221.5" font-family="Helvetica,sans-Serif" font-size="10.00">amunmt::BPE</text>
<polyline fill="none" stroke="black" points="0,-214.5 118,-214.5 "/>
<text text-anchor="start" x="8" y="-202.5" font-family="Helvetica,sans-Serif" font-size="10.00">&#45; bpeCodes_</text>
<text text-anchor="start" x="8" y="-191.5" font-family="Helvetica,sans-Serif" font-size="10.00">&#45; sep_</text>
<text text-anchor="start" x="8" y="-180.5" font-family="Helvetica,sans-Serif" font-size="10.00">&#45; cache_</text>
<polyline fill="none" stroke="black" points="0,-173.5 118,-173.5 "/>
<text text-anchor="start" x="8" y="-161.5" font-family="Helvetica,sans-Serif" font-size="10.00">+ BPE()</text>
<text text-anchor="start" x="8" y="-150.5" font-family="Helvetica,sans-Serif" font-size="10.00">+ BPE()</text>
<text text-anchor="start" x="8" y="-139.5" font-family="Helvetica,sans-Serif" font-size="10.00">+ BPE()</text>
<text text-anchor="start" x="8" y="-128.5" font-family="Helvetica,sans-Serif" font-size="10.00">+ Segment()</text>
<text text-anchor="start" x="8" y="-117.5" font-family="Helvetica,sans-Serif" font-size="10.00">+ PrintSegment()</text>
<text text-anchor="start" x="8" y="-106.5" font-family="Helvetica,sans-Serif" font-size="10.00">+ Encode()</text>
<text text-anchor="start" x="8" y="-95.5" font-family="Helvetica,sans-Serif" font-size="10.00">+ Encode()</text>
<text text-anchor="start" x="8" y="-84.5" font-family="Helvetica,sans-Serif" font-size="10.00">+ Preprocess()</text>
<text text-anchor="start" x="8" y="-73.5" font-family="Helvetica,sans-Serif" font-size="10.00">+ Postprocess()</text>
<text text-anchor="start" x="8" y="-62.5" font-family="Helvetica,sans-Serif" font-size="10.00">+ ~BPE()</text>
<text text-anchor="start" x="8" y="-51.5" font-family="Helvetica,sans-Serif" font-size="10.00">&#45; GetPairs()</text>
<text text-anchor="start" x="8" y="-40.5" font-family="Helvetica,sans-Serif" font-size="10.00">&#45; FindBestBigram()</text>
<text text-anchor="start" x="8" y="-29.5" font-family="Helvetica,sans-Serif" font-size="10.00">&#45; IsCached()</text>
<text text-anchor="start" x="8" y="-18.5" font-family="Helvetica,sans-Serif" font-size="10.00">&#45; SplitWordIntoLetters()</text>
<text text-anchor="start" x="8" y="-7.5" font-family="Helvetica,sans-Serif" font-size="10.00">&#45; EndsWith()</text>
</a>
</g>
</g>
<!-- Node2&#45;&gt;Node3 -->
<g id="edge2" class="edge"><title>Node2&#45;&gt;Node3</title>
<path fill="none" stroke="midnightblue" d="M59,-260.141C59,-252.029 59,-243.054 59,-233.673"/>
<polygon fill="none" stroke="midnightblue" points="55.5001,-260.269 59,-270.269 62.5001,-260.27 55.5001,-260.269"/>
</g>
</g>
</svg>
