<?xml version="1.0" encoding="UTF-8" standalone="no"?>
<!DOCTYPE svg PUBLIC "-//W3C//DTD SVG 1.1//EN"
 "http://www.w3.org/Graphics/SVG/1.1/DTD/svg11.dtd">
<!-- Generated by graphviz version 2.38.0 (20140413.2041)
 -->
<!-- Title: marian::MinusNodeOp Pages: 1 -->
<!--zoomable 1001 -->
<svg id="main" version="1.1" xmlns="http://www.w3.org/2000/svg" xmlns:xlink="http://www.w3.org/1999/xlink" xml:space="preserve" onload="init(evt)">
<style type="text/css"><![CDATA[
.edge:hover path { stroke: red; }
.edge:hover polygon { stroke: red; fill: red; }
]]></style>
<script type="text/javascript"><![CDATA[
var edges = document.getElementsByTagName('g');
if (edges && edges.length) {
  for (var i=0;i<edges.length;i++) {
    if (edges[i].id.substr(0,4)=='edge') {
      edges[i].setAttribute('class','edge');
    }
  }
}
]]></script>
        <defs>
                <circle id="rim" cx="0" cy="0" r="7"/>
                <circle id="rim2" cx="0" cy="0" r="3.5"/>
                <g id="zoomPlus">
                        <use xlink:href="#rim" fill="#404040">
                                <set attributeName="fill" to="#808080" begin="zoomplus.mouseover" end="zoomplus.mouseout"/>
                        </use>
                        <path d="M-4,0h8M0,-4v8" fill="none" stroke="white" stroke-width="1.5" pointer-events="none"/>
                </g>
                <g id="zoomMin">
                        <use xlink:href="#rim" fill="#404040">
                                <set attributeName="fill" to="#808080" begin="zoomminus.mouseover" end="zoomminus.mouseout"/>
                        </use>
                        <path d="M-4,0h8" fill="none" stroke="white" stroke-width="1.5" pointer-events="none"/>
                </g>
                <g id="dirArrow">
                        <path fill="none" stroke="white" stroke-width="1.5" d="M0,-3.0v7 M-2.5,-0.5L0,-3.0L2.5,-0.5"/>
                </g>
               <g id="resetDef">
                       <use xlink:href="#rim2" fill="#404040">
                               <set attributeName="fill" to="#808080" begin="reset.mouseover" end="reset.mouseout"/>
                       </use>
               </g>
        </defs>

<script type="text/javascript">
var viewWidth = 832;
var viewHeight = 1001;
var sectionId = 'dynsection-1';
</script>
<script xlink:href="../../svgpan.js"/>
<svg id="graph" class="graph">
<g id="viewport">
<title>marian::MinusNodeOp</title>
<polygon fill="white" stroke="none" points="-4,4 -4,-997 828,-997 828,4 -4,4"/>
<!-- Node1 -->
<g id="node1" class="node"><title>Node1</title>
<polygon fill="#bfbfbf" stroke="black" points="369.5,-0.5 369.5,-90.5 483.5,-90.5 483.5,-0.5 369.5,-0.5"/>
<text text-anchor="middle" x="426.5" y="-78.5" font-family="Helvetica,sans-Serif" font-size="10.00">marian::MinusNodeOp</text>
<polyline fill="none" stroke="black" points="369.5,-71.5 483.5,-71.5 "/>
<text text-anchor="middle" x="426.5" y="-59.5" font-family="Helvetica,sans-Serif" font-size="10.00"> </text>
<polyline fill="none" stroke="black" points="369.5,-52.5 483.5,-52.5 "/>
<text text-anchor="start" x="377.5" y="-40.5" font-family="Helvetica,sans-Serif" font-size="10.00">+ MinusNodeOp()</text>
<text text-anchor="start" x="377.5" y="-29.5" font-family="Helvetica,sans-Serif" font-size="10.00">+ forwardOps()</text>
<text text-anchor="start" x="377.5" y="-18.5" font-family="Helvetica,sans-Serif" font-size="10.00">+ backwardOps()</text>
<text text-anchor="start" x="377.5" y="-7.5" font-family="Helvetica,sans-Serif" font-size="10.00">+ type()</text>
</g>
<!-- Node2 -->
<g id="node2" class="node"><title>Node2</title>
<g id="a_node2"><a xlink:href="../../d1/dff/structmarian_1_1ElementBinaryNodeOp.html" target="_top" xlink:title="{marian::ElementBinaryNodeOp\n||+ ElementBinaryNodeOp()\l+ newShape()\l+ color()\l}">
<polygon fill="white" stroke="black" points="350.5,-128.5 350.5,-207.5 502.5,-207.5 502.5,-128.5 350.5,-128.5"/>
<text text-anchor="middle" x="426.5" y="-195.5" font-family="Helvetica,sans-Serif" font-size="10.00">marian::ElementBinaryNodeOp</text>
<polyline fill="none" stroke="black" points="350.5,-188.5 502.5,-188.5 "/>
<text text-anchor="middle" x="426.5" y="-176.5" font-family="Helvetica,sans-Serif" font-size="10.00"> </text>
<polyline fill="none" stroke="black" points="350.5,-169.5 502.5,-169.5 "/>
<text text-anchor="start" x="358.5" y="-157.5" font-family="Helvetica,sans-Serif" font-size="10.00">+ ElementBinaryNodeOp()</text>
<text text-anchor="start" x="358.5" y="-146.5" font-family="Helvetica,sans-Serif" font-size="10.00">+ newShape()</text>
<text text-anchor="start" x="358.5" y="-135.5" font-family="Helvetica,sans-Serif" font-size="10.00">+ color()</text>
</a>
</g>
</g>
<!-- Node2&#45;&gt;Node1 -->
<g id="edge1" class="edge"><title>Node2&#45;&gt;Node1</title>
<path fill="none" stroke="midnightblue" d="M426.5,-118.144C426.5,-109.053 426.5,-99.6021 426.5,-90.6615"/>
<polygon fill="none" stroke="midnightblue" points="423,-118.21 426.5,-128.21 430,-118.21 423,-118.21"/>
</g>
<!-- Node3 -->
<g id="node3" class="node"><title>Node3</title>
<g id="a_node3"><a xlink:href="../../d0/da7/structmarian_1_1NaryNodeOp.html" target="_top" xlink:title="{marian::NaryNodeOp\n|+ hash_\l|+ NaryNodeOp()\l+ ~NaryNodeOp()\l+ children()\l+ hash()\l+ remove_children_from\l_top_nodes()\l}">
<polygon fill="white" stroke="black" points="365.5,-245.5 365.5,-357.5 487.5,-357.5 487.5,-245.5 365.5,-245.5"/>
<text text-anchor="middle" x="426.5" y="-345.5" font-family="Helvetica,sans-Serif" font-size="10.00">marian::NaryNodeOp</text>
<polyline fill="none" stroke="black" points="365.5,-338.5 487.5,-338.5 "/>
<text text-anchor="start" x="373.5" y="-326.5" font-family="Helvetica,sans-Serif" font-size="10.00">+ hash_</text>
<polyline fill="none" stroke="black" points="365.5,-319.5 487.5,-319.5 "/>
<text text-anchor="start" x="373.5" y="-307.5" font-family="Helvetica,sans-Serif" font-size="10.00">+ NaryNodeOp()</text>
<text text-anchor="start" x="373.5" y="-296.5" font-family="Helvetica,sans-Serif" font-size="10.00">+ ~NaryNodeOp()</text>
<text text-anchor="start" x="373.5" y="-285.5" font-family="Helvetica,sans-Serif" font-size="10.00">+ children()</text>
<text text-anchor="start" x="373.5" y="-274.5" font-family="Helvetica,sans-Serif" font-size="10.00">+ hash()</text>
<text text-anchor="start" x="373.5" y="-263.5" font-family="Helvetica,sans-Serif" font-size="10.00">+ remove_children_from</text>
<text text-anchor="start" x="373.5" y="-252.5" font-family="Helvetica,sans-Serif" font-size="10.00">_top_nodes()</text>
</a>
</g>
</g>
<!-- Node3&#45;&gt;Node2 -->
<g id="edge2" class="edge"><title>Node3&#45;&gt;Node2</title>
<path fill="none" stroke="midnightblue" d="M426.5,-235.32C426.5,-225.904 426.5,-216.473 426.5,-207.799"/>
<polygon fill="none" stroke="midnightblue" points="423,-235.494 426.5,-245.494 430,-235.494 423,-235.494"/>
</g>
<!-- Node4 -->
<g id="node4" class="node"><title>Node4</title>
<g id="a_node4"><a xlink:href="../../d0/d7a/classmarian_1_1Node.html" target="_top" xlink:title="{marian::Node\n|# id_\l# edges_\l# trainable_\l# destroy_\l# val_\l# adj_\l# markedForDebug_\l|+ Node()\l+ ~Node()\l+ scalar()\l+ forwardOps()\l+ backwardOps()\l+ runForward()\l+ runBackward()\l+ forward()\l+ backward()\l+ trainable()\land 27 more...\l}">
<polygon fill="white" stroke="black" points="374,-395.5 374,-628.5 479,-628.5 479,-395.5 374,-395.5"/>
<text text-anchor="middle" x="426.5" y="-616.5" font-family="Helvetica,sans-Serif" font-size="10.00">marian::Node</text>
<polyline fill="none" stroke="black" points="374,-609.5 479,-609.5 "/>
<text text-anchor="start" x="382" y="-597.5" font-family="Helvetica,sans-Serif" font-size="10.00"># id_</text>
<text text-anchor="start" x="382" y="-586.5" font-family="Helvetica,sans-Serif" font-size="10.00"># edges_</text>
<text text-anchor="start" x="382" y="-575.5" font-family="Helvetica,sans-Serif" font-size="10.00"># trainable_</text>
<text text-anchor="start" x="382" y="-564.5" font-family="Helvetica,sans-Serif" font-size="10.00"># destroy_</text>
<text text-anchor="start" x="382" y="-553.5" font-family="Helvetica,sans-Serif" font-size="10.00"># val_</text>
<text text-anchor="start" x="382" y="-542.5" font-family="Helvetica,sans-Serif" font-size="10.00"># adj_</text>
<text text-anchor="start" x="382" y="-531.5" font-family="Helvetica,sans-Serif" font-size="10.00"># markedForDebug_</text>
<polyline fill="none" stroke="black" points="374,-524.5 479,-524.5 "/>
<text text-anchor="start" x="382" y="-512.5" font-family="Helvetica,sans-Serif" font-size="10.00">+ Node()</text>
<text text-anchor="start" x="382" y="-501.5" font-family="Helvetica,sans-Serif" font-size="10.00">+ ~Node()</text>
<text text-anchor="start" x="382" y="-490.5" font-family="Helvetica,sans-Serif" font-size="10.00">+ scalar()</text>
<text text-anchor="start" x="382" y="-479.5" font-family="Helvetica,sans-Serif" font-size="10.00">+ forwardOps()</text>
<text text-anchor="start" x="382" y="-468.5" font-family="Helvetica,sans-Serif" font-size="10.00">+ backwardOps()</text>
<text text-anchor="start" x="382" y="-457.5" font-family="Helvetica,sans-Serif" font-size="10.00">+ runForward()</text>
<text text-anchor="start" x="382" y="-446.5" font-family="Helvetica,sans-Serif" font-size="10.00">+ runBackward()</text>
<text text-anchor="start" x="382" y="-435.5" font-family="Helvetica,sans-Serif" font-size="10.00">+ forward()</text>
<text text-anchor="start" x="382" y="-424.5" font-family="Helvetica,sans-Serif" font-size="10.00">+ backward()</text>
<text text-anchor="start" x="382" y="-413.5" font-family="Helvetica,sans-Serif" font-size="10.00">+ trainable()</text>
<text text-anchor="start" x="382" y="-402.5" font-family="Helvetica,sans-Serif" font-size="10.00">and 27 more...</text>
</a>
</g>
</g>
<!-- Node4&#45;&gt;Node3 -->
<g id="edge3" class="edge"><title>Node4&#45;&gt;Node3</title>
<path fill="none" stroke="midnightblue" d="M426.5,-385.358C426.5,-375.73 426.5,-366.357 426.5,-357.586"/>
<polygon fill="none" stroke="midnightblue" points="423,-385.469 426.5,-395.469 430,-385.469 423,-385.469"/>
</g>
<!-- Node5 -->
<g id="node5" class="node"><title>Node5</title>
<g id="a_node5"><a xlink:href="../../de/dff/classmarian_1_1Chainable.html" target="_top" xlink:title="{marian::Chainable\&lt;\l Tensor \&gt;\n||+ Chainable()\l+ ~Chainable()\l+ forward()\l+ backward()\l+ forwardOps()\l+ backwardOps()\l+ allocate()\l+ free()\l+ init()\l+ init_dependent()\land 23 more...\l}">
<polygon fill="white" stroke="black" points="0,-693 0,-871 101,-871 101,-693 0,-693"/>
<text text-anchor="start" x="8" y="-859" font-family="Helvetica,sans-Serif" font-size="10.00">marian::Chainable&lt;</text>
<text text-anchor="middle" x="50.5" y="-848" font-family="Helvetica,sans-Serif" font-size="10.00"> Tensor &gt;</text>
<polyline fill="none" stroke="black" points="0,-841 101,-841 "/>
<text text-anchor="middle" x="50.5" y="-829" font-family="Helvetica,sans-Serif" font-size="10.00"> </text>
<polyline fill="none" stroke="black" points="0,-822 101,-822 "/>
<text text-anchor="start" x="8" y="-810" font-family="Helvetica,sans-Serif" font-size="10.00">+ Chainable()</text>
<text text-anchor="start" x="8" y="-799" font-family="Helvetica,sans-Serif" font-size="10.00">+ ~Chainable()</text>
<text text-anchor="start" x="8" y="-788" font-family="Helvetica,sans-Serif" font-size="10.00">+ forward()</text>
<text text-anchor="start" x="8" y="-777" font-family="Helvetica,sans-Serif" font-size="10.00">+ backward()</text>
<text text-anchor="start" x="8" y="-766" font-family="Helvetica,sans-Serif" font-size="10.00">+ forwardOps()</text>
<text text-anchor="start" x="8" y="-755" font-family="Helvetica,sans-Serif" font-size="10.00">+ backwardOps()</text>
<text text-anchor="start" x="8" y="-744" font-family="Helvetica,sans-Serif" font-size="10.00">+ allocate()</text>
<text text-anchor="start" x="8" y="-733" font-family="Helvetica,sans-Serif" font-size="10.00">+ free()</text>
<text text-anchor="start" x="8" y="-722" font-family="Helvetica,sans-Serif" font-size="10.00">+ init()</text>
<text text-anchor="start" x="8" y="-711" font-family="Helvetica,sans-Serif" font-size="10.00">+ init_dependent()</text>
<text text-anchor="start" x="8" y="-700" font-family="Helvetica,sans-Serif" font-size="10.00">and 23 more...</text>
</a>
</g>
</g>
<!-- Node5&#45;&gt;Node4 -->
<g id="edge4" class="edge"><title>Node5&#45;&gt;Node4</title>
<path fill="none" stroke="midnightblue" d="M108.452,-687.999C108.8,-687.664 109.15,-687.33 109.5,-687 188.855,-612.158 306.517,-558.755 373.933,-532.166"/>
<polygon fill="none" stroke="midnightblue" points="105.76,-685.749 101.328,-695.373 110.794,-690.613 105.76,-685.749"/>
</g>
<!-- Node6 -->
<g id="node6" class="node"><title>Node6</title>
<g id="a_node6"><a xlink:href="../../d4/d9b/classmarian_1_1keywords_1_1Keywords.html" target="_top" xlink:title="{marian::keywords::Keywords\n||+ Keywords()\l+ Has()\l+ Get()\l&#45; add()\l&#45; add()\l&#45; add()\l}">
<polygon fill="white" stroke="black" points="119,-726 119,-838 262,-838 262,-726 119,-726"/>
<text text-anchor="middle" x="190.5" y="-826" font-family="Helvetica,sans-Serif" font-size="10.00">marian::keywords::Keywords</text>
<polyline fill="none" stroke="black" points="119,-819 262,-819 "/>
<text text-anchor="middle" x="190.5" y="-807" font-family="Helvetica,sans-Serif" font-size="10.00"> </text>
<polyline fill="none" stroke="black" points="119,-800 262,-800 "/>
<text text-anchor="start" x="127" y="-788" font-family="Helvetica,sans-Serif" font-size="10.00">+ Keywords()</text>
<text text-anchor="start" x="127" y="-777" font-family="Helvetica,sans-Serif" font-size="10.00">+ Has()</text>
<text text-anchor="start" x="127" y="-766" font-family="Helvetica,sans-Serif" font-size="10.00">+ Get()</text>
<text text-anchor="start" x="127" y="-755" font-family="Helvetica,sans-Serif" font-size="10.00">&#45; add()</text>
<text text-anchor="start" x="127" y="-744" font-family="Helvetica,sans-Serif" font-size="10.00">&#45; add()</text>
<text text-anchor="start" x="127" y="-733" font-family="Helvetica,sans-Serif" font-size="10.00">&#45; add()</text>
</a>
</g>
</g>
<!-- Node6&#45;&gt;Node4 -->
<g id="edge5" class="edge"><title>Node6&#45;&gt;Node4</title>
<path fill="none" stroke="midnightblue" d="M244.664,-717.854C253.601,-707.519 262.789,-696.942 271.5,-687 305.358,-648.355 343.77,-605.231 373.884,-571.581"/>
<polygon fill="none" stroke="midnightblue" points="241.779,-715.84 237.891,-725.696 247.076,-720.416 241.779,-715.84"/>
</g>
<!-- Node7 -->
<g id="node7" class="node"><title>Node7</title>
<polygon fill="white" stroke="#bfbfbf" points="137.5,-924.5 137.5,-992.5 243.5,-992.5 243.5,-924.5 137.5,-924.5"/>
<text text-anchor="start" x="145.5" y="-980.5" font-family="Helvetica,sans-Serif" font-size="10.00">std::map&lt; unsigned,</text>
<text text-anchor="middle" x="190.5" y="-969.5" font-family="Helvetica,sans-Serif" font-size="10.00"> boost::any &gt;</text>
<polyline fill="none" stroke="#bfbfbf" points="137.5,-962.5 243.5,-962.5 "/>
<text text-anchor="middle" x="190.5" y="-950.5" font-family="Helvetica,sans-Serif" font-size="10.00"> </text>
<polyline fill="none" stroke="#bfbfbf" points="137.5,-943.5 243.5,-943.5 "/>
<text text-anchor="middle" x="190.5" y="-931.5" font-family="Helvetica,sans-Serif" font-size="10.00"> </text>
</g>
<!-- Node7&#45;&gt;Node6 -->
<g id="edge6" class="edge"><title>Node7&#45;&gt;Node6</title>
<path fill="none" stroke="#404040" d="M190.5,-924.267C190.5,-903.362 190.5,-875.636 190.5,-850.286"/>
<polygon fill="none" stroke="#404040" points="190.5,-850.073 186.5,-844.073 190.5,-838.073 194.5,-844.072 190.5,-850.073"/>
<text text-anchor="middle" x="212.5" y="-898" font-family="Helvetica,sans-Serif" font-size="10.00"> &#45;storage_</text>
</g>
<!-- Node8 -->
<g id="node8" class="node"><title>Node8</title>
<polygon fill="white" stroke="#bfbfbf" points="280.5,-748 280.5,-816 384.5,-816 384.5,-748 280.5,-748"/>
<text text-anchor="start" x="288.5" y="-804" font-family="Helvetica,sans-Serif" font-size="10.00">std::enable_shared</text>
<text text-anchor="middle" x="332.5" y="-793" font-family="Helvetica,sans-Serif" font-size="10.00">_from_this&lt; Node &gt;</text>
<polyline fill="none" stroke="#bfbfbf" points="280.5,-786 384.5,-786 "/>
<text text-anchor="middle" x="332.5" y="-774" font-family="Helvetica,sans-Serif" font-size="10.00"> </text>
<polyline fill="none" stroke="#bfbfbf" points="280.5,-767 384.5,-767 "/>
<text text-anchor="middle" x="332.5" y="-755" font-family="Helvetica,sans-Serif" font-size="10.00"> </text>
</g>
<!-- Node8&#45;&gt;Node4 -->
<g id="edge7" class="edge"><title>Node8&#45;&gt;Node4</title>
<path fill="none" stroke="midnightblue" d="M347.49,-738.263C357.896,-708.593 372.292,-667.55 385.948,-628.617"/>
<polygon fill="none" stroke="midnightblue" points="344.128,-737.274 344.121,-747.869 350.733,-739.591 344.128,-737.274"/>
</g>
<!-- Node9 -->
<g id="node9" class="node"><title>Node9</title>
<g id="a_node9"><a xlink:title="STL class. ">
<polygon fill="white" stroke="#bfbfbf" points="402.5,-753.5 402.5,-810.5 462.5,-810.5 462.5,-753.5 402.5,-753.5"/>
<text text-anchor="middle" x="432.5" y="-798.5" font-family="Helvetica,sans-Serif" font-size="10.00">std::string</text>
<polyline fill="none" stroke="#bfbfbf" points="402.5,-791.5 462.5,-791.5 "/>
<text text-anchor="middle" x="432.5" y="-779.5" font-family="Helvetica,sans-Serif" font-size="10.00"> </text>
<polyline fill="none" stroke="#bfbfbf" points="402.5,-772.5 462.5,-772.5 "/>
<text text-anchor="middle" x="432.5" y="-760.5" font-family="Helvetica,sans-Serif" font-size="10.00"> </text>
</a>
</g>
</g>
<!-- Node9&#45;&gt;Node4 -->
<g id="edge8" class="edge"><title>Node9&#45;&gt;Node4</title>
<path fill="none" stroke="#404040" d="M430.974,-753.394C429.791,-730.731 428.235,-697.797 427.5,-669 427.267,-659.862 427.078,-650.422 426.925,-640.919"/>
<polygon fill="none" stroke="#404040" points="426.925,-640.864 422.838,-634.922 426.751,-628.865 430.837,-634.807 426.925,-640.864"/>
<text text-anchor="middle" x="466" y="-661" font-family="Helvetica,sans-Serif" font-size="10.00"> #name_</text>
<text text-anchor="middle" x="466" y="-650" font-family="Helvetica,sans-Serif" font-size="10.00">#debugMessage_</text>
</g>
<!-- Node10 -->
<g id="node10" class="node"><title>Node10</title>
<polygon fill="white" stroke="#bfbfbf" points="385,-924.5 385,-992.5 480,-992.5 480,-924.5 385,-924.5"/>
<text text-anchor="start" x="393" y="-980.5" font-family="Helvetica,sans-Serif" font-size="10.00">std::basic_string&lt;</text>
<text text-anchor="middle" x="432.5" y="-969.5" font-family="Helvetica,sans-Serif" font-size="10.00"> char &gt;</text>
<polyline fill="none" stroke="#bfbfbf" points="385,-962.5 480,-962.5 "/>
<text text-anchor="middle" x="432.5" y="-950.5" font-family="Helvetica,sans-Serif" font-size="10.00"> </text>
<polyline fill="none" stroke="#bfbfbf" points="385,-943.5 480,-943.5 "/>
<text text-anchor="middle" x="432.5" y="-931.5" font-family="Helvetica,sans-Serif" font-size="10.00"> </text>
</g>
<!-- Node10&#45;&gt;Node9 -->
<g id="edge9" class="edge"><title>Node10&#45;&gt;Node9</title>
<path fill="none" stroke="midnightblue" d="M432.5,-914.169C432.5,-881.783 432.5,-838.474 432.5,-810.652"/>
<polygon fill="none" stroke="midnightblue" points="429,-914.267 432.5,-924.267 436,-914.267 429,-914.267"/>
</g>
<!-- Node11 -->
<g id="node11" class="node"><title>Node11</title>
<g id="a_node11"><a xlink:href="../../d5/d54/structmarian_1_1Shape.html" target="_top" xlink:title="{marian::Shape\n|+ shape_\l+ stride_\l+ bstride_\l|+ Shape()\l+ Shape()\l+ updateStrides()\l+ Shape()\l+ set()\l+ dim()\l+ dim()\l+ operator[]()\l+ operator[]()\l+ stride()\land 12 more...\l}">
<polygon fill="white" stroke="black" points="480.5,-687.5 480.5,-876.5 572.5,-876.5 572.5,-687.5 480.5,-687.5"/>
<text text-anchor="middle" x="526.5" y="-864.5" font-family="Helvetica,sans-Serif" font-size="10.00">marian::Shape</text>
<polyline fill="none" stroke="black" points="480.5,-857.5 572.5,-857.5 "/>
<text text-anchor="start" x="488.5" y="-845.5" font-family="Helvetica,sans-Serif" font-size="10.00">+ shape_</text>
<text text-anchor="start" x="488.5" y="-834.5" font-family="Helvetica,sans-Serif" font-size="10.00">+ stride_</text>
<text text-anchor="start" x="488.5" y="-823.5" font-family="Helvetica,sans-Serif" font-size="10.00">+ bstride_</text>
<polyline fill="none" stroke="black" points="480.5,-816.5 572.5,-816.5 "/>
<text text-anchor="start" x="488.5" y="-804.5" font-family="Helvetica,sans-Serif" font-size="10.00">+ Shape()</text>
<text text-anchor="start" x="488.5" y="-793.5" font-family="Helvetica,sans-Serif" font-size="10.00">+ Shape()</text>
<text text-anchor="start" x="488.5" y="-782.5" font-family="Helvetica,sans-Serif" font-size="10.00">+ updateStrides()</text>
<text text-anchor="start" x="488.5" y="-771.5" font-family="Helvetica,sans-Serif" font-size="10.00">+ Shape()</text>
<text text-anchor="start" x="488.5" y="-760.5" font-family="Helvetica,sans-Serif" font-size="10.00">+ set()</text>
<text text-anchor="start" x="488.5" y="-749.5" font-family="Helvetica,sans-Serif" font-size="10.00">+ dim()</text>
<text text-anchor="start" x="488.5" y="-738.5" font-family="Helvetica,sans-Serif" font-size="10.00">+ dim()</text>
<text text-anchor="start" x="488.5" y="-727.5" font-family="Helvetica,sans-Serif" font-size="10.00">+ operator[]()</text>
<text text-anchor="start" x="488.5" y="-716.5" font-family="Helvetica,sans-Serif" font-size="10.00">+ operator[]()</text>
<text text-anchor="start" x="488.5" y="-705.5" font-family="Helvetica,sans-Serif" font-size="10.00">+ stride()</text>
<text text-anchor="start" x="488.5" y="-694.5" font-family="Helvetica,sans-Serif" font-size="10.00">and 12 more...</text>
</a>
</g>
</g>
<!-- Node11&#45;&gt;Node4 -->
<g id="edge10" class="edge"><title>Node11&#45;&gt;Node4</title>
<path fill="none" stroke="#404040" d="M515.599,-687.254C512.718,-673.544 509.084,-659.757 504.5,-647 499.241,-632.365 492.384,-617.51 484.917,-603.281"/>
<polygon fill="none" stroke="#404040" points="484.814,-603.091 478.441,-599.716 479.104,-592.536 485.477,-595.91 484.814,-603.091"/>
<text text-anchor="middle" x="531.5" y="-655.5" font-family="Helvetica,sans-Serif" font-size="10.00"> #shape_</text>
</g>
<!-- Node12 -->
<g id="node12" class="node"><title>Node12</title>
<polygon fill="white" stroke="#bfbfbf" points="590.5,-748 590.5,-816 704.5,-816 704.5,-748 590.5,-748"/>
<text text-anchor="start" x="598.5" y="-804" font-family="Helvetica,sans-Serif" font-size="10.00">std::weak_ptr&lt; marian</text>
<text text-anchor="middle" x="647.5" y="-793" font-family="Helvetica,sans-Serif" font-size="10.00">::ExpressionGraph &gt;</text>
<polyline fill="none" stroke="#bfbfbf" points="590.5,-786 704.5,-786 "/>
<text text-anchor="middle" x="647.5" y="-774" font-family="Helvetica,sans-Serif" font-size="10.00"> </text>
<polyline fill="none" stroke="#bfbfbf" points="590.5,-767 704.5,-767 "/>
<text text-anchor="middle" x="647.5" y="-755" font-family="Helvetica,sans-Serif" font-size="10.00"> </text>
</g>
<!-- Node12&#45;&gt;Node4 -->
<g id="edge11" class="edge"><title>Node12&#45;&gt;Node4</title>
<path fill="none" stroke="#404040" d="M627,-747.977C609.237,-720.173 582.248,-679.806 555.5,-647 534.693,-621.481 509.996,-595.032 487.809,-572.442"/>
<polygon fill="none" stroke="#404040" points="487.561,-572.192 480.497,-570.74 479.121,-563.662 486.184,-565.114 487.561,-572.192"/>
<text text-anchor="middle" x="591.5" y="-655.5" font-family="Helvetica,sans-Serif" font-size="10.00"> #graph_</text>
</g>
<!-- Node13 -->
<g id="node13" class="node"><title>Node13</title>
<polygon fill="white" stroke="#bfbfbf" points="723,-753.5 723,-810.5 824,-810.5 824,-753.5 723,-753.5"/>
<text text-anchor="middle" x="773.5" y="-798.5" font-family="Helvetica,sans-Serif" font-size="10.00">std::vector&lt; Expr &gt;</text>
<polyline fill="none" stroke="#bfbfbf" points="723,-791.5 824,-791.5 "/>
<text text-anchor="middle" x="773.5" y="-779.5" font-family="Helvetica,sans-Serif" font-size="10.00"> </text>
<polyline fill="none" stroke="#bfbfbf" points="723,-772.5 824,-772.5 "/>
<text text-anchor="middle" x="773.5" y="-760.5" font-family="Helvetica,sans-Serif" font-size="10.00"> </text>
</g>
<!-- Node13&#45;&gt;Node4 -->
<g id="edge12" class="edge"><title>Node13&#45;&gt;Node4</title>
<path fill="none" stroke="#404040" d="M760.1,-753.111C749.473,-733.034 733.163,-706.214 713.5,-687 647.196,-622.21 552.456,-570.746 490.234,-541.069"/>
<polygon fill="none" stroke="#404040" points="489.864,-540.895 482.732,-541.958 479.008,-535.783 486.14,-534.72 489.864,-540.895"/>
<text text-anchor="middle" x="718.5" y="-655.5" font-family="Helvetica,sans-Serif" font-size="10.00"> #children_</text>
</g>
</g>
</svg>
        <g id="navigator" transform="translate(0 0)" fill="#404254">
                <rect fill="#f2f5e9" fill-opacity="0.5" stroke="#606060" stroke-width=".5" x="0" y="0" width="60" height="60"/>
                <use id="zoomplus" xlink:href="#zoomPlus" x="17" y="9" onmousedown="handleZoom(evt,'in')"/>
                <use id="zoomminus" xlink:href="#zoomMin" x="42" y="9" onmousedown="handleZoom(evt,'out')"/>
                <use id="reset" xlink:href="#resetDef" x="30" y="36" onmousedown="handleReset()"/>
                <g id="arrowUp" xlink:href="#dirArrow" transform="translate(30 24)" onmousedown="handlePan(0,-1)">
                  <use xlink:href="#rim" fill="#404040">
                        <set attributeName="fill" to="#808080" begin="arrowUp.mouseover" end="arrowUp.mouseout"/>
                  </use>
                  <path fill="none" stroke="white" stroke-width="1.5" d="M0,-3.0v7 M-2.5,-0.5L0,-3.0L2.5,-0.5"/>
                </g>
                <g id="arrowRight" xlink:href="#dirArrow" transform="rotate(90) translate(36 -43)" onmousedown="handlePan(1,0)">
                  <use xlink:href="#rim" fill="#404040">
                        <set attributeName="fill" to="#808080" begin="arrowRight.mouseover" end="arrowRight.mouseout"/>
                  </use>
                  <path fill="none" stroke="white" stroke-width="1.5" d="M0,-3.0v7 M-2.5,-0.5L0,-3.0L2.5,-0.5"/>
                </g>
                <g id="arrowDown" xlink:href="#dirArrow" transform="rotate(180) translate(-30 -48)" onmousedown="handlePan(0,1)">
                  <use xlink:href="#rim" fill="#404040">
                        <set attributeName="fill" to="#808080" begin="arrowDown.mouseover" end="arrowDown.mouseout"/>
                  </use>
                  <path fill="none" stroke="white" stroke-width="1.5" d="M0,-3.0v7 M-2.5,-0.5L0,-3.0L2.5,-0.5"/>
                </g>
                <g id="arrowLeft" xlink:href="#dirArrow" transform="rotate(270) translate(-36 17)" onmousedown="handlePan(-1,0)">
                  <use xlink:href="#rim" fill="#404040">
                        <set attributeName="fill" to="#808080" begin="arrowLeft.mouseover" end="arrowLeft.mouseout"/>
                  </use>
                  <path fill="none" stroke="white" stroke-width="1.5" d="M0,-3.0v7 M-2.5,-0.5L0,-3.0L2.5,-0.5"/>
                </g>
        </g>
        <svg viewBox="0 0 15 15" width="100%" height="30px" preserveAspectRatio="xMaxYMin meet">
         <g id="arrow_out" transform="scale(0.3 0.3)">
          <a xlink:href="structmarian_1_1MinusNodeOp__coll__graph_org.svg" target="_base">
           <rect id="button" ry="5" rx="5" y="6" x="6" height="38" width="38"
                fill="#f2f5e9" fill-opacity="0.5" stroke="#606060" stroke-width="1.0"/>
           <path id="arrow"
             d="M 11.500037,31.436501 C 11.940474,20.09759 22.043105,11.32322 32.158766,21.979434 L 37.068811,17.246167 C 37.068811,17.246167 37.088388,32 37.088388,32 L 22.160133,31.978069 C 22.160133,31.978069 26.997745,27.140456 26.997745,27.140456 C 18.528582,18.264221 13.291696,25.230495 11.500037,31.436501 z"
             style="fill:#404040;"/>
          </a>
         </g>
        </svg>
</svg>
