<?xml version="1.0" encoding="UTF-8" standalone="no"?>
<!DOCTYPE svg PUBLIC "-//W3C//DTD SVG 1.1//EN"
 "http://www.w3.org/Graphics/SVG/1.1/DTD/svg11.dtd">
<!-- Generated by graphviz version 2.38.0 (20140413.2041)
 -->
<!-- Title: cuda_helpers.h Pages: 1 -->
<svg width="355pt" height="196pt"
 viewBox="0.00 0.00 354.50 196.00" xmlns="http://www.w3.org/2000/svg" xmlns:xlink="http://www.w3.org/1999/xlink">
<g id="graph0" class="graph" transform="scale(1 1) rotate(0) translate(4 192)">
<title>cuda_helpers.h</title>
<polygon fill="white" stroke="none" points="-4,4 -4,-192 350.5,-192 350.5,4 -4,4"/>
<!-- Node1 -->
<g id="node1" class="node"><title>Node1</title>
<polygon fill="#bfbfbf" stroke="black" points="191,-168.5 191,-187.5 274,-187.5 274,-168.5 191,-168.5"/>
<text text-anchor="middle" x="232.5" y="-175.5" font-family="Helvetica,sans-Serif" font-size="10.00">cuda_helpers.h</text>
</g>
<!-- Node2 -->
<g id="node2" class="node"><title>Node2</title>
<g id="a_node2"><a xlink:href="../../d1/dd7/sparse_8h.html" target="_top" xlink:title="sparse.h">
<polygon fill="white" stroke="black" points="145.5,-112.5 145.5,-131.5 199.5,-131.5 199.5,-112.5 145.5,-112.5"/>
<text text-anchor="middle" x="172.5" y="-119.5" font-family="Helvetica,sans-Serif" font-size="10.00">sparse.h</text>
</a>
</g>
</g>
<!-- Node1&#45;&gt;Node2 -->
<g id="edge1" class="edge"><title>Node1&#45;&gt;Node2</title>
<path fill="none" stroke="midnightblue" d="M215.319,-161.537C204.621,-151.909 191.244,-139.869 182.315,-131.834"/>
<polygon fill="midnightblue" stroke="midnightblue" points="213.086,-164.236 222.86,-168.324 217.768,-159.033 213.086,-164.236"/>
</g>
<!-- Node5 -->
<g id="node5" class="node"><title>Node5</title>
<g id="a_node5"><a xlink:href="../../d3/d5a/dropper_8h.html" target="_top" xlink:title="dropper.h">
<polygon fill="white" stroke="black" points="224,-56.5 224,-75.5 281,-75.5 281,-56.5 224,-56.5"/>
<text text-anchor="middle" x="252.5" y="-63.5" font-family="Helvetica,sans-Serif" font-size="10.00">dropper.h</text>
</a>
</g>
</g>
<!-- Node1&#45;&gt;Node5 -->
<g id="edge4" class="edge"><title>Node1&#45;&gt;Node5</title>
<path fill="none" stroke="midnightblue" d="M235.891,-158.348C240.272,-134.254 247.717,-93.3079 250.938,-75.5914"/>
<polygon fill="midnightblue" stroke="midnightblue" points="232.415,-157.904 234.069,-168.368 239.302,-159.156 232.415,-157.904"/>
</g>
<!-- Node7 -->
<g id="node7" class="node"><title>Node7</title>
<g id="a_node7"><a xlink:href="../../d2/dcf/sparse__tensor_8h.html" target="_top" xlink:title="sparse_tensor.h">
<polygon fill="white" stroke="black" points="260.5,-112.5 260.5,-131.5 346.5,-131.5 346.5,-112.5 260.5,-112.5"/>
<text text-anchor="middle" x="303.5" y="-119.5" font-family="Helvetica,sans-Serif" font-size="10.00">sparse_tensor.h</text>
</a>
</g>
</g>
<!-- Node1&#45;&gt;Node7 -->
<g id="edge6" class="edge"><title>Node1&#45;&gt;Node7</title>
<path fill="none" stroke="midnightblue" d="M252.09,-162.101C264.868,-152.382 281.113,-140.027 291.885,-131.834"/>
<polygon fill="midnightblue" stroke="midnightblue" points="249.748,-159.484 243.907,-168.324 253.986,-165.056 249.748,-159.484"/>
</g>
<!-- Node3 -->
<g id="node3" class="node"><title>Node3</title>
<g id="a_node3"><a xlink:href="../../df/d9b/node__operators__unary_8h.html" target="_top" xlink:title="node_operators_unary.h">
<polygon fill="white" stroke="black" points="0,-56.5 0,-75.5 121,-75.5 121,-56.5 0,-56.5"/>
<text text-anchor="middle" x="60.5" y="-63.5" font-family="Helvetica,sans-Serif" font-size="10.00">node_operators_unary.h</text>
</a>
</g>
</g>
<!-- Node2&#45;&gt;Node3 -->
<g id="edge2" class="edge"><title>Node2&#45;&gt;Node3</title>
<path fill="none" stroke="midnightblue" d="M145.251,-107.862C124.484,-97.8492 96.4766,-84.3458 78.4501,-75.6545"/>
<polygon fill="midnightblue" stroke="midnightblue" points="143.977,-111.134 154.505,-112.324 147.018,-104.828 143.977,-111.134"/>
</g>
<!-- Node4 -->
<g id="node4" class="node"><title>Node4</title>
<g id="a_node4"><a xlink:href="../../d9/dc2/lex__probs_8h.html" target="_top" xlink:title="lex_probs.h">
<polygon fill="white" stroke="black" points="139,-56.5 139,-75.5 206,-75.5 206,-56.5 139,-56.5"/>
<text text-anchor="middle" x="172.5" y="-63.5" font-family="Helvetica,sans-Serif" font-size="10.00">lex_probs.h</text>
</a>
</g>
</g>
<!-- Node2&#45;&gt;Node4 -->
<g id="edge3" class="edge"><title>Node2&#45;&gt;Node4</title>
<path fill="none" stroke="midnightblue" d="M172.5,-101.805C172.5,-92.9102 172.5,-82.7798 172.5,-75.7511"/>
<polygon fill="midnightblue" stroke="midnightblue" points="169,-102.083 172.5,-112.083 176,-102.083 169,-102.083"/>
</g>
<!-- Node6 -->
<g id="node6" class="node"><title>Node6</title>
<g id="a_node6"><a xlink:href="../../d8/d9d/graph__group_8h.html" target="_top" xlink:title="graph_group.h">
<polygon fill="white" stroke="black" points="241.5,-0.5 241.5,-19.5 319.5,-19.5 319.5,-0.5 241.5,-0.5"/>
<text text-anchor="middle" x="280.5" y="-7.5" font-family="Helvetica,sans-Serif" font-size="10.00">graph_group.h</text>
</a>
</g>
</g>
<!-- Node5&#45;&gt;Node6 -->
<g id="edge5" class="edge"><title>Node5&#45;&gt;Node6</title>
<path fill="none" stroke="midnightblue" d="M261.842,-46.9827C266.595,-37.8168 272.156,-27.0922 275.962,-19.7511"/>
<polygon fill="midnightblue" stroke="midnightblue" points="258.62,-45.5943 257.124,-56.083 264.834,-48.8166 258.62,-45.5943"/>
</g>
<!-- Node7&#45;&gt;Node5 -->
<g id="edge7" class="edge"><title>Node7&#45;&gt;Node5</title>
<path fill="none" stroke="midnightblue" d="M288.122,-104.718C279.133,-95.1997 268.141,-83.5608 260.765,-75.7511"/>
<polygon fill="midnightblue" stroke="midnightblue" points="285.668,-107.216 295.078,-112.083 290.757,-102.41 285.668,-107.216"/>
</g>
<!-- Node7&#45;&gt;Node6 -->
<g id="edge8" class="edge"><title>Node7&#45;&gt;Node6</title>
<path fill="none" stroke="midnightblue" d="M299.6,-102.348C294.562,-78.2538 286.001,-37.3079 282.296,-19.5914"/>
<polygon fill="midnightblue" stroke="midnightblue" points="296.223,-103.297 301.695,-112.368 303.074,-101.864 296.223,-103.297"/>
</g>
</g>
</svg>
