<?xml version="1.0" encoding="UTF-8" standalone="no"?>
<!DOCTYPE svg PUBLIC "-//W3C//DTD SVG 1.1//EN"
 "http://www.w3.org/Graphics/SVG/1.1/DTD/svg11.dtd">
<!-- Generated by graphviz version 2.38.0 (20140413.2041)
 -->
<!-- Title: rescorer Pages: 1 -->
<svg width="193pt" height="367pt"
 viewBox="0.00 0.00 193.41 367.00" xmlns="http://www.w3.org/2000/svg" xmlns:xlink="http://www.w3.org/1999/xlink">
<g id="graph0" class="graph" transform="scale(1 1) rotate(0) translate(4 363)">
<title>rescorer</title>
<polygon fill="white" stroke="none" points="-4,4 -4,-363 189.411,-363 189.411,4 -4,4"/>
<g id="clust1" class="cluster"><title>clusterdir_880d52d109336948b38801ae7422e1dc</title>
<g id="a_clust1"><a xlink:href="dir_880d52d109336948b38801ae7422e1dc.html" xlink:title="src">
<polygon fill="#ddddee" stroke="black" points="40.4108,-280 40.4108,-351 110.411,-351 110.411,-280 40.4108,-280"/>
<text text-anchor="middle" x="75.4108" y="-339" font-family="Helvetica,sans-Serif" font-size="10.00">src</text>
</a>
</g>
</g>
<!-- dir_38c248e59202b0310d0638e1b4057d15 -->
<g id="node1" class="node"><title>dir_38c248e59202b0310d0638e1b4057d15</title>
<g id="a_node1"><a xlink:href="dir_38c248e59202b0310d0638e1b4057d15.html" xlink:title="rescorer">
<polygon fill="#eeeeff" stroke="black" points="102.411,-324 48.4108,-324 48.4108,-288 102.411,-288 102.411,-324"/>
<text text-anchor="middle" x="75.4108" y="-303.5" font-family="Helvetica,sans-Serif" font-size="10.00">rescorer</text>
</a>
</g>
</g>
<!-- dir_2a32d600618e8f4da12af9817e65f799 -->
<g id="node2" class="node"><title>dir_2a32d600618e8f4da12af9817e65f799</title>
<g id="a_node2"><a xlink:href="dir_2a32d600618e8f4da12af9817e65f799.html" xlink:title="models">
<polygon fill="white" stroke="red" points="75.4108,-252 21.4108,-252 21.4108,-216 75.4108,-216 75.4108,-252"/>
<text text-anchor="middle" x="48.4108" y="-231.5" font-family="Helvetica,sans-Serif" font-size="10.00">models</text>
</a>
</g>
</g>
<!-- dir_38c248e59202b0310d0638e1b4057d15&#45;&gt;dir_2a32d600618e8f4da12af9817e65f799 -->
<g id="edge5" class="edge"><title>dir_38c248e59202b0310d0638e1b4057d15&#45;&gt;dir_2a32d600618e8f4da12af9817e65f799</title>
<path fill="none" stroke="black" d="M68.7366,-287.697C65.6959,-279.813 62.0281,-270.304 58.6501,-261.546"/>
<polygon fill="black" stroke="black" points="61.8725,-260.175 55.0082,-252.104 55.3414,-262.694 61.8725,-260.175"/>
<g id="a_edge5&#45;headlabel"><a xlink:href="dir_000034_000008.html" xlink:title="3">
<text text-anchor="middle" x="65.815" y="-260.007" font-family="Helvetica,sans-Serif" font-size="10.00">3</text>
</a>
</g>
</g>
<!-- dir_518b1046d4ba71ae05f3cf7bfff9fec7 -->
<g id="node3" class="node"><title>dir_518b1046d4ba71ae05f3cf7bfff9fec7</title>
<g id="a_node3"><a xlink:href="dir_518b1046d4ba71ae05f3cf7bfff9fec7.html" xlink:title="data">
<polygon fill="none" stroke="black" points="119.411,-108 65.4108,-108 65.4108,-72 119.411,-72 119.411,-108"/>
<text text-anchor="middle" x="92.4108" y="-87.5" font-family="Helvetica,sans-Serif" font-size="10.00">data</text>
</a>
</g>
</g>
<!-- dir_38c248e59202b0310d0638e1b4057d15&#45;&gt;dir_518b1046d4ba71ae05f3cf7bfff9fec7 -->
<g id="edge6" class="edge"><title>dir_38c248e59202b0310d0638e1b4057d15&#45;&gt;dir_518b1046d4ba71ae05f3cf7bfff9fec7</title>
<path fill="none" stroke="black" d="M78.8467,-287.886C80.7915,-277.54 83.0918,-264.061 84.4108,-252 89.5,-205.463 91.3541,-151.002 92.028,-118.841"/>
<polygon fill="black" stroke="black" points="95.5346,-118.509 92.2205,-108.446 88.5358,-118.379 95.5346,-118.509"/>
<g id="a_edge6&#45;headlabel"><a xlink:href="dir_000034_000017.html" xlink:title="2">
<text text-anchor="middle" x="98.307" y="-119.655" font-family="Helvetica,sans-Serif" font-size="10.00">2</text>
</a>
</g>
</g>
<!-- dir_76e813e510703f19869a2c0b3c186be0 -->
<g id="node4" class="node"><title>dir_76e813e510703f19869a2c0b3c186be0</title>
<g id="a_node4"><a xlink:href="dir_76e813e510703f19869a2c0b3c186be0.html" xlink:title="graph">
<polygon fill="none" stroke="black" points="185.411,-180 131.411,-180 131.411,-144 185.411,-144 185.411,-180"/>
<text text-anchor="middle" x="158.411" y="-159.5" font-family="Helvetica,sans-Serif" font-size="10.00">graph</text>
</a>
</g>
</g>
<!-- dir_38c248e59202b0310d0638e1b4057d15&#45;&gt;dir_76e813e510703f19869a2c0b3c186be0 -->
<g id="edge7" class="edge"><title>dir_38c248e59202b0310d0638e1b4057d15&#45;&gt;dir_76e813e510703f19869a2c0b3c186be0</title>
<path fill="none" stroke="black" d="M90.9124,-287.63C99.3719,-277.64 109.667,-264.604 117.411,-252 129.733,-231.942 140.713,-207.565 148.202,-189.398"/>
<polygon fill="black" stroke="black" points="151.494,-190.594 151.99,-180.011 145.002,-187.975 151.494,-190.594"/>
<g id="a_edge7&#45;headlabel"><a xlink:href="dir_000034_000015.html" xlink:title="1">
<text text-anchor="middle" x="152.782" y="-192.49" font-family="Helvetica,sans-Serif" font-size="10.00">1</text>
</a>
</g>
</g>
<!-- dir_4789c1aed63d8d10e4697371f4406b1d -->
<g id="node5" class="node"><title>dir_4789c1aed63d8d10e4697371f4406b1d</title>
<g id="a_node5"><a xlink:href="dir_4789c1aed63d8d10e4697371f4406b1d.html" xlink:title="common">
<polygon fill="none" stroke="black" points="86.4108,-36 32.4108,-36 32.4108,-0 86.4108,-0 86.4108,-36"/>
<text text-anchor="middle" x="59.4108" y="-15.5" font-family="Helvetica,sans-Serif" font-size="10.00">common</text>
</a>
</g>
</g>
<!-- dir_38c248e59202b0310d0638e1b4057d15&#45;&gt;dir_4789c1aed63d8d10e4697371f4406b1d -->
<g id="edge8" class="edge"><title>dir_38c248e59202b0310d0638e1b4057d15&#45;&gt;dir_4789c1aed63d8d10e4697371f4406b1d</title>
<path fill="none" stroke="black" d="M48.4008,-290.074C34.9056,-281.005 19.8908,-268.068 12.4108,-252 -20.2025,-181.944 20.0446,-89.707 44.01,-45.2235"/>
<polygon fill="black" stroke="black" points="47.2071,-46.6747 48.9873,-36.2305 41.0825,-43.285 47.2071,-46.6747"/>
<g id="a_edge8&#45;headlabel"><a xlink:href="dir_000034_000022.html" xlink:title="1">
<text text-anchor="middle" x="47.9507" y="-48.6946" font-family="Helvetica,sans-Serif" font-size="10.00">1</text>
</a>
</g>
</g>
<!-- dir_2a32d600618e8f4da12af9817e65f799&#45;&gt;dir_518b1046d4ba71ae05f3cf7bfff9fec7 -->
<g id="edge1" class="edge"><title>dir_2a32d600618e8f4da12af9817e65f799&#45;&gt;dir_518b1046d4ba71ae05f3cf7bfff9fec7</title>
<path fill="none" stroke="black" d="M53.7182,-215.871C61.2502,-191.564 75.1148,-146.819 84.0405,-118.013"/>
<polygon fill="black" stroke="black" points="87.4679,-118.777 87.0845,-108.189 80.7815,-116.705 87.4679,-118.777"/>
<g id="a_edge1&#45;headlabel"><a xlink:href="dir_000008_000017.html" xlink:title="2">
<text text-anchor="middle" x="89.1161" y="-120.551" font-family="Helvetica,sans-Serif" font-size="10.00">2</text>
</a>
</g>
</g>
<!-- dir_2a32d600618e8f4da12af9817e65f799&#45;&gt;dir_76e813e510703f19869a2c0b3c186be0 -->
<g id="edge2" class="edge"><title>dir_2a32d600618e8f4da12af9817e65f799&#45;&gt;dir_76e813e510703f19869a2c0b3c186be0</title>
<path fill="none" stroke="black" d="M75.3198,-215.876C89.5691,-206.808 107.257,-195.552 122.646,-185.759"/>
<polygon fill="black" stroke="black" points="124.841,-188.511 131.398,-180.19 121.083,-182.606 124.841,-188.511"/>
<g id="a_edge2&#45;headlabel"><a xlink:href="dir_000008_000015.html" xlink:title="1">
<text text-anchor="middle" x="123.332" y="-190.337" font-family="Helvetica,sans-Serif" font-size="10.00">1</text>
</a>
</g>
</g>
<!-- dir_2a32d600618e8f4da12af9817e65f799&#45;&gt;dir_4789c1aed63d8d10e4697371f4406b1d -->
<g id="edge3" class="edge"><title>dir_2a32d600618e8f4da12af9817e65f799&#45;&gt;dir_4789c1aed63d8d10e4697371f4406b1d</title>
<path fill="none" stroke="black" d="M49.2357,-215.606C50.6449,-186.078 53.6334,-124.26 56.4108,-72 56.8529,-63.6812 57.3568,-54.6294 57.8238,-46.3993"/>
<polygon fill="black" stroke="black" points="61.3312,-46.3677 58.408,-36.1841 54.3426,-45.9679 61.3312,-46.3677"/>
<g id="a_edge3&#45;headlabel"><a xlink:href="dir_000008_000022.html" xlink:title="2">
<text text-anchor="middle" x="63.9607" y="-47.6185" font-family="Helvetica,sans-Serif" font-size="10.00">2</text>
</a>
</g>
</g>
<!-- dir_518b1046d4ba71ae05f3cf7bfff9fec7&#45;&gt;dir_4789c1aed63d8d10e4697371f4406b1d -->
<g id="edge4" class="edge"><title>dir_518b1046d4ba71ae05f3cf7bfff9fec7&#45;&gt;dir_4789c1aed63d8d10e4697371f4406b1d</title>
<path fill="none" stroke="black" d="M84.2535,-71.6966C80.497,-63.7284 75.9577,-54.0995 71.7924,-45.2641"/>
<polygon fill="black" stroke="black" points="74.9043,-43.6571 67.4742,-36.1043 68.5727,-46.6421 74.9043,-43.6571"/>
<g id="a_edge4&#45;headlabel"><a xlink:href="dir_000017_000022.html" xlink:title="3">
<text text-anchor="middle" x="79.0053" y="-43.1978" font-family="Helvetica,sans-Serif" font-size="10.00">3</text>
</a>
</g>
</g>
<!-- dir_76e813e510703f19869a2c0b3c186be0&#45;&gt;dir_518b1046d4ba71ae05f3cf7bfff9fec7 -->
<g id="edge9" class="edge"><title>dir_76e813e510703f19869a2c0b3c186be0&#45;&gt;dir_518b1046d4ba71ae05f3cf7bfff9fec7</title>
<path fill="none" stroke="black" d="M142.096,-143.697C134.104,-135.22 124.339,-124.864 115.589,-115.583"/>
<polygon fill="black" stroke="black" points="117.944,-112.979 108.538,-108.104 112.851,-117.781 117.944,-112.979"/>
<g id="a_edge9&#45;headlabel"><a xlink:href="dir_000015_000017.html" xlink:title="1">
<text text-anchor="middle" x="122.476" y="-111.147" font-family="Helvetica,sans-Serif" font-size="10.00">1</text>
</a>
</g>
</g>
<!-- dir_76e813e510703f19869a2c0b3c186be0&#45;&gt;dir_4789c1aed63d8d10e4697371f4406b1d -->
<g id="edge10" class="edge"><title>dir_76e813e510703f19869a2c0b3c186be0&#45;&gt;dir_4789c1aed63d8d10e4697371f4406b1d</title>
<path fill="none" stroke="black" d="M155.729,-143.9C152.09,-124.906 144.148,-94.0222 128.411,-72 119.577,-59.6383 107.033,-48.8085 95.0576,-40.2153"/>
<polygon fill="black" stroke="black" points="96.7299,-37.1188 86.4996,-34.3634 92.7787,-42.8971 96.7299,-37.1188"/>
<g id="a_edge10&#45;headlabel"><a xlink:href="dir_000015_000022.html" xlink:title="4">
<text text-anchor="middle" x="101.3" y="-34.304" font-family="Helvetica,sans-Serif" font-size="10.00">4</text>
</a>
</g>
</g>
</g>
</svg>
