<?xml version="1.0" encoding="UTF-8" standalone="no"?>
<!DOCTYPE svg PUBLIC "-//W3C//DTD SVG 1.1//EN"
 "http://www.w3.org/Graphics/SVG/1.1/DTD/svg11.dtd">
<!-- Generated by graphviz version 2.38.0 (20140413.2041)
 -->
<!-- Title: marian::rnn::Tanh Pages: 1 -->
<svg width="307pt" height="636pt"
 viewBox="0.00 0.00 306.50 636.00" xmlns="http://www.w3.org/2000/svg" xmlns:xlink="http://www.w3.org/1999/xlink">
<g id="graph0" class="graph" transform="scale(1 1) rotate(0) translate(4 632)">
<title>marian::rnn::Tanh</title>
<polygon fill="white" stroke="none" points="-4,4 -4,-632 302.5,-632 302.5,4 -4,4"/>
<!-- Node1 -->
<g id="node1" class="node"><title>Node1</title>
<polygon fill="#bfbfbf" stroke="black" points="132.5,-0.5 132.5,-178.5 225.5,-178.5 225.5,-0.5 132.5,-0.5"/>
<text text-anchor="middle" x="179" y="-166.5" font-family="Helvetica,sans-Serif" font-size="10.00">marian::rnn::Tanh</text>
<polyline fill="none" stroke="black" points="132.5,-159.5 225.5,-159.5 "/>
<text text-anchor="start" x="140.5" y="-147.5" font-family="Helvetica,sans-Serif" font-size="10.00">&#45; U_</text>
<text text-anchor="start" x="140.5" y="-136.5" font-family="Helvetica,sans-Serif" font-size="10.00">&#45; W_</text>
<text text-anchor="start" x="140.5" y="-125.5" font-family="Helvetica,sans-Serif" font-size="10.00">&#45; b_</text>
<text text-anchor="start" x="140.5" y="-114.5" font-family="Helvetica,sans-Serif" font-size="10.00">&#45; gamma1_</text>
<text text-anchor="start" x="140.5" y="-103.5" font-family="Helvetica,sans-Serif" font-size="10.00">&#45; gamma2_</text>
<text text-anchor="start" x="140.5" y="-92.5" font-family="Helvetica,sans-Serif" font-size="10.00">&#45; layerNorm_</text>
<text text-anchor="start" x="140.5" y="-81.5" font-family="Helvetica,sans-Serif" font-size="10.00">&#45; dropout_</text>
<text text-anchor="start" x="140.5" y="-70.5" font-family="Helvetica,sans-Serif" font-size="10.00">&#45; dropMaskX_</text>
<text text-anchor="start" x="140.5" y="-59.5" font-family="Helvetica,sans-Serif" font-size="10.00">&#45; dropMaskS_</text>
<polyline fill="none" stroke="black" points="132.5,-52.5 225.5,-52.5 "/>
<text text-anchor="start" x="140.5" y="-40.5" font-family="Helvetica,sans-Serif" font-size="10.00">+ Tanh()</text>
<text text-anchor="start" x="140.5" y="-29.5" font-family="Helvetica,sans-Serif" font-size="10.00">+ apply()</text>
<text text-anchor="start" x="140.5" y="-18.5" font-family="Helvetica,sans-Serif" font-size="10.00">+ applyInput()</text>
<text text-anchor="start" x="140.5" y="-7.5" font-family="Helvetica,sans-Serif" font-size="10.00">+ applyState()</text>
</g>
<!-- Node2 -->
<g id="node2" class="node"><title>Node2</title>
<g id="a_node2"><a xlink:href="$d5/de5/classmarian_1_1rnn_1_1Cell.html" xlink:title="{marian::rnn::Cell\n||+ Cell()\l+ apply()\l+ getLazyInputs()\l+ setLazyInputs()\l+ applyInput()\l+ applyState()\l+ clear()\l}">
<polygon fill="white" stroke="black" points="132.5,-216.5 132.5,-339.5 225.5,-339.5 225.5,-216.5 132.5,-216.5"/>
<text text-anchor="middle" x="179" y="-327.5" font-family="Helvetica,sans-Serif" font-size="10.00">marian::rnn::Cell</text>
<polyline fill="none" stroke="black" points="132.5,-320.5 225.5,-320.5 "/>
<text text-anchor="middle" x="179" y="-308.5" font-family="Helvetica,sans-Serif" font-size="10.00"> </text>
<polyline fill="none" stroke="black" points="132.5,-301.5 225.5,-301.5 "/>
<text text-anchor="start" x="140.5" y="-289.5" font-family="Helvetica,sans-Serif" font-size="10.00">+ Cell()</text>
<text text-anchor="start" x="140.5" y="-278.5" font-family="Helvetica,sans-Serif" font-size="10.00">+ apply()</text>
<text text-anchor="start" x="140.5" y="-267.5" font-family="Helvetica,sans-Serif" font-size="10.00">+ getLazyInputs()</text>
<text text-anchor="start" x="140.5" y="-256.5" font-family="Helvetica,sans-Serif" font-size="10.00">+ setLazyInputs()</text>
<text text-anchor="start" x="140.5" y="-245.5" font-family="Helvetica,sans-Serif" font-size="10.00">+ applyInput()</text>
<text text-anchor="start" x="140.5" y="-234.5" font-family="Helvetica,sans-Serif" font-size="10.00">+ applyState()</text>
<text text-anchor="start" x="140.5" y="-223.5" font-family="Helvetica,sans-Serif" font-size="10.00">+ clear()</text>
</a>
</g>
</g>
<!-- Node2&#45;&gt;Node1 -->
<g id="edge1" class="edge"><title>Node2&#45;&gt;Node1</title>
<path fill="none" stroke="midnightblue" d="M179,-206.333C179,-197.241 179,-187.844 179,-178.517"/>
<polygon fill="none" stroke="midnightblue" points="175.5,-206.449 179,-216.449 182.5,-206.449 175.5,-206.449"/>
</g>
<!-- Node3 -->
<g id="node3" class="node"><title>Node3</title>
<g id="a_node3"><a xlink:href="$d4/d04/classmarian_1_1rnn_1_1Stackable.html" xlink:title="{marian::rnn::Stackable\n|# options_\l|+ Stackable()\l+ ~Stackable()\l+ as()\l+ is()\l+ getOptions()\l+ opt()\l+ opt()\l+ clear()\l}">
<polygon fill="white" stroke="black" points="4.5,-387.5 4.5,-521.5 119.5,-521.5 119.5,-387.5 4.5,-387.5"/>
<text text-anchor="middle" x="62" y="-509.5" font-family="Helvetica,sans-Serif" font-size="10.00">marian::rnn::Stackable</text>
<polyline fill="none" stroke="black" points="4.5,-502.5 119.5,-502.5 "/>
<text text-anchor="start" x="12.5" y="-490.5" font-family="Helvetica,sans-Serif" font-size="10.00"># options_</text>
<polyline fill="none" stroke="black" points="4.5,-483.5 119.5,-483.5 "/>
<text text-anchor="start" x="12.5" y="-471.5" font-family="Helvetica,sans-Serif" font-size="10.00">+ Stackable()</text>
<text text-anchor="start" x="12.5" y="-460.5" font-family="Helvetica,sans-Serif" font-size="10.00">+ ~Stackable()</text>
<text text-anchor="start" x="12.5" y="-449.5" font-family="Helvetica,sans-Serif" font-size="10.00">+ as()</text>
<text text-anchor="start" x="12.5" y="-438.5" font-family="Helvetica,sans-Serif" font-size="10.00">+ is()</text>
<text text-anchor="start" x="12.5" y="-427.5" font-family="Helvetica,sans-Serif" font-size="10.00">+ getOptions()</text>
<text text-anchor="start" x="12.5" y="-416.5" font-family="Helvetica,sans-Serif" font-size="10.00">+ opt()</text>
<text text-anchor="start" x="12.5" y="-405.5" font-family="Helvetica,sans-Serif" font-size="10.00">+ opt()</text>
<text text-anchor="start" x="12.5" y="-394.5" font-family="Helvetica,sans-Serif" font-size="10.00">+ clear()</text>
</a>
</g>
</g>
<!-- Node3&#45;&gt;Node2 -->
<g id="edge2" class="edge"><title>Node3&#45;&gt;Node2</title>
<path fill="none" stroke="midnightblue" d="M112.259,-378.541C120.988,-365.522 129.968,-352.129 138.398,-339.555"/>
<polygon fill="none" stroke="midnightblue" points="109.228,-376.776 106.566,-387.031 115.042,-380.675 109.228,-376.776"/>
</g>
<!-- Node4 -->
<g id="node4" class="node"><title>Node4</title>
<polygon fill="white" stroke="#bfbfbf" points="0,-559.5 0,-627.5 124,-627.5 124,-559.5 0,-559.5"/>
<text text-anchor="start" x="8" y="-615.5" font-family="Helvetica,sans-Serif" font-size="10.00">std::enable_shared</text>
<text text-anchor="middle" x="62" y="-604.5" font-family="Helvetica,sans-Serif" font-size="10.00">_from_this&lt; Stackable &gt;</text>
<polyline fill="none" stroke="#bfbfbf" points="0,-597.5 124,-597.5 "/>
<text text-anchor="middle" x="62" y="-585.5" font-family="Helvetica,sans-Serif" font-size="10.00"> </text>
<polyline fill="none" stroke="#bfbfbf" points="0,-578.5 124,-578.5 "/>
<text text-anchor="middle" x="62" y="-566.5" font-family="Helvetica,sans-Serif" font-size="10.00"> </text>
</g>
<!-- Node4&#45;&gt;Node3 -->
<g id="edge3" class="edge"><title>Node4&#45;&gt;Node3</title>
<path fill="none" stroke="midnightblue" d="M62,-549.33C62,-540.515 62,-531.049 62,-521.642"/>
<polygon fill="none" stroke="midnightblue" points="58.5001,-549.336 62,-559.336 65.5001,-549.336 58.5001,-549.336"/>
</g>
<!-- Node5 -->
<g id="node5" class="node"><title>Node5</title>
<polygon fill="white" stroke="#bfbfbf" points="137.5,-415 137.5,-494 298.5,-494 298.5,-415 137.5,-415"/>
<text text-anchor="start" x="145.5" y="-482" font-family="Helvetica,sans-Serif" font-size="10.00">std::vector&lt; std::function</text>
<text text-anchor="start" x="145.5" y="-471" font-family="Helvetica,sans-Serif" font-size="10.00">&lt; Expr(Ptr&lt; marian::Accumulator</text>
<text text-anchor="middle" x="218" y="-460" font-family="Helvetica,sans-Serif" font-size="10.00">::RNN &gt;)&gt; &gt;</text>
<polyline fill="none" stroke="#bfbfbf" points="137.5,-453 298.5,-453 "/>
<text text-anchor="middle" x="218" y="-441" font-family="Helvetica,sans-Serif" font-size="10.00"> </text>
<polyline fill="none" stroke="#bfbfbf" points="137.5,-434 298.5,-434 "/>
<text text-anchor="middle" x="218" y="-422" font-family="Helvetica,sans-Serif" font-size="10.00"> </text>
</g>
<!-- Node5&#45;&gt;Node2 -->
<g id="edge4" class="edge"><title>Node5&#45;&gt;Node2</title>
<path fill="none" stroke="#404040" d="M209.345,-414.773C205.179,-396.134 200.045,-373.165 195.193,-351.454"/>
<polygon fill="none" stroke="#404040" points="195.152,-351.268 189.939,-346.285 192.534,-339.557 197.747,-344.54 195.152,-351.268"/>
<text text-anchor="middle" x="227.5" y="-361" font-family="Helvetica,sans-Serif" font-size="10.00"> #lazyInputs_</text>
</g>
</g>
</svg>
