<?xml version="1.0" encoding="UTF-8" standalone="no"?>
<!DOCTYPE svg PUBLIC "-//W3C//DTD SVG 1.1//EN"
 "http://www.w3.org/Graphics/SVG/1.1/DTD/svg11.dtd">
<!-- Generated by graphviz version 2.38.0 (20140413.2041)
 -->
<!-- Title: marian::rnn::FastLSTM::apply Pages: 1 -->
<!--zoomable 256 -->
<svg id="main" version="1.1" xmlns="http://www.w3.org/2000/svg" xmlns:xlink="http://www.w3.org/1999/xlink" xml:space="preserve" onload="init(evt)">
<style type="text/css"><![CDATA[
.edge:hover path { stroke: red; }
.edge:hover polygon { stroke: red; fill: red; }
]]></style>
<script type="text/javascript"><![CDATA[
var edges = document.getElementsByTagName('g');
if (edges && edges.length) {
  for (var i=0;i<edges.length;i++) {
    if (edges[i].id.substr(0,4)=='edge') {
      edges[i].setAttribute('class','edge');
    }
  }
}
]]></script>
        <defs>
                <circle id="rim" cx="0" cy="0" r="7"/>
                <circle id="rim2" cx="0" cy="0" r="3.5"/>
                <g id="zoomPlus">
                        <use xlink:href="#rim" fill="#404040">
                                <set attributeName="fill" to="#808080" begin="zoomplus.mouseover" end="zoomplus.mouseout"/>
                        </use>
                        <path d="M-4,0h8M0,-4v8" fill="none" stroke="white" stroke-width="1.5" pointer-events="none"/>
                </g>
                <g id="zoomMin">
                        <use xlink:href="#rim" fill="#404040">
                                <set attributeName="fill" to="#808080" begin="zoomminus.mouseover" end="zoomminus.mouseout"/>
                        </use>
                        <path d="M-4,0h8" fill="none" stroke="white" stroke-width="1.5" pointer-events="none"/>
                </g>
                <g id="dirArrow">
                        <path fill="none" stroke="white" stroke-width="1.5" d="M0,-3.0v7 M-2.5,-0.5L0,-3.0L2.5,-0.5"/>
                </g>
               <g id="resetDef">
                       <use xlink:href="#rim2" fill="#404040">
                               <set attributeName="fill" to="#808080" begin="reset.mouseover" end="reset.mouseout"/>
                       </use>
               </g>
        </defs>

<script type="text/javascript">
var viewWidth = 553;
var viewHeight = 256;
var sectionId = 'dynsection-3';
</script>
<script xlink:href="../../svgpan.js"/>
<svg id="graph" class="graph">
<g id="viewport">
<title>marian::rnn::FastLSTM::apply</title>
<polygon fill="white" stroke="none" points="-4,4 -4,-252 549,-252 549,4 -4,4"/>
<!-- Node1 -->
<g id="node1" class="node"><title>Node1</title>
<polygon fill="#bfbfbf" stroke="black" points="0,-95 0,-125 117,-125 117,-95 0,-95"/>
<text text-anchor="start" x="8" y="-113" font-family="Helvetica,sans-Serif" font-size="10.00">marian::rnn::FastLSTM</text>
<text text-anchor="middle" x="58.5" y="-102" font-family="Helvetica,sans-Serif" font-size="10.00">::apply</text>
</g>
<!-- Node2 -->
<g id="node2" class="node"><title>Node2</title>
<g id="a_node2"><a xlink:href="../../d0/d1d/classmarian_1_1rnn_1_1Tanh.html#a241e6bcc6cb37c94c8965dea5a5e2e91" target="_top" xlink:title="marian::rnn::Tanh::\lapplyState">
<polygon fill="white" stroke="black" points="153,-71 153,-101 252,-101 252,-71 153,-71"/>
<text text-anchor="start" x="161" y="-89" font-family="Helvetica,sans-Serif" font-size="10.00">marian::rnn::Tanh::</text>
<text text-anchor="middle" x="202.5" y="-78" font-family="Helvetica,sans-Serif" font-size="10.00">applyState</text>
</a>
</g>
</g>
<!-- Node1&#45;&gt;Node2 -->
<g id="edge1" class="edge"><title>Node1&#45;&gt;Node2</title>
<path fill="none" stroke="midnightblue" d="M117.257,-100.238C125.663,-98.8174 134.327,-97.3532 142.753,-95.9291"/>
<polygon fill="midnightblue" stroke="midnightblue" points="143.603,-99.3351 152.88,-94.2175 142.436,-92.433 143.603,-99.3351"/>
</g>
<!-- Node13 -->
<g id="node13" class="node"><title>Node13</title>
<g id="a_node13"><a xlink:href="../../d0/d1d/classmarian_1_1rnn_1_1Tanh.html#a27567fac50eea00c776cc76d6f9351df" target="_top" xlink:title="marian::rnn::Tanh::\lapplyInput">
<polygon fill="white" stroke="black" points="153,-120 153,-150 252,-150 252,-120 153,-120"/>
<text text-anchor="start" x="161" y="-138" font-family="Helvetica,sans-Serif" font-size="10.00">marian::rnn::Tanh::</text>
<text text-anchor="middle" x="202.5" y="-127" font-family="Helvetica,sans-Serif" font-size="10.00">applyInput</text>
</a>
</g>
</g>
<!-- Node1&#45;&gt;Node13 -->
<g id="edge12" class="edge"><title>Node1&#45;&gt;Node13</title>
<path fill="none" stroke="midnightblue" d="M117.257,-120.168C125.756,-121.665 134.517,-123.207 143.031,-124.706"/>
<polygon fill="midnightblue" stroke="midnightblue" points="142.425,-128.153 152.88,-126.44 143.638,-121.259 142.425,-128.153"/>
</g>
<!-- Node3 -->
<g id="node3" class="node"><title>Node3</title>
<g id="a_node3"><a xlink:href="../../da/d22/namespacemarian.html#a268400392f22176821c7c4a36733b178" target="_top" xlink:title="marian::dropout">
<polygon fill="white" stroke="black" points="298.5,-152.5 298.5,-171.5 382.5,-171.5 382.5,-152.5 298.5,-152.5"/>
<text text-anchor="middle" x="340.5" y="-159.5" font-family="Helvetica,sans-Serif" font-size="10.00">marian::dropout</text>
</a>
</g>
</g>
<!-- Node2&#45;&gt;Node3 -->
<g id="edge2" class="edge"><title>Node2&#45;&gt;Node3</title>
<path fill="none" stroke="midnightblue" d="M235.472,-101.027C241.124,-104.088 246.844,-107.463 252,-111 269.653,-123.11 269.639,-131.993 288,-143 291.353,-145.01 294.953,-146.863 298.635,-148.559"/>
<polygon fill="midnightblue" stroke="midnightblue" points="297.29,-151.79 307.864,-152.448 300.008,-145.339 297.29,-151.79"/>
</g>
<!-- Node9 -->
<g id="node9" class="node"><title>Node9</title>
<g id="a_node9"><a xlink:href="../../da/d22/namespacemarian.html#ad7fbf1ba8e2e04ffdc7d5e4841b5e691" target="_top" xlink:title="marian::dot">
<polygon fill="white" stroke="black" points="308,-114.5 308,-133.5 373,-133.5 373,-114.5 308,-114.5"/>
<text text-anchor="middle" x="340.5" y="-121.5" font-family="Helvetica,sans-Serif" font-size="10.00">marian::dot</text>
</a>
</g>
</g>
<!-- Node2&#45;&gt;Node9 -->
<g id="edge8" class="edge"><title>Node2&#45;&gt;Node9</title>
<path fill="none" stroke="midnightblue" d="M252.215,-99.6115C267.201,-103.799 283.55,-108.367 298.005,-112.406"/>
<polygon fill="midnightblue" stroke="midnightblue" points="297.096,-115.786 307.669,-115.106 298.98,-109.044 297.096,-115.786"/>
</g>
<!-- Node10 -->
<g id="node10" class="node"><title>Node10</title>
<g id="a_node10"><a xlink:href="../../da/d22/namespacemarian.html#a6202278a9da8ca8a281a6a96e75082f6" target="_top" xlink:title="marian::layer_norm">
<polygon fill="white" stroke="black" points="290.5,-76.5 290.5,-95.5 390.5,-95.5 390.5,-76.5 290.5,-76.5"/>
<text text-anchor="middle" x="340.5" y="-83.5" font-family="Helvetica,sans-Serif" font-size="10.00">marian::layer_norm</text>
</a>
</g>
</g>
<!-- Node2&#45;&gt;Node10 -->
<g id="edge9" class="edge"><title>Node2&#45;&gt;Node10</title>
<path fill="none" stroke="midnightblue" d="M252.215,-86C261.283,-86 270.849,-86 280.193,-86"/>
<polygon fill="midnightblue" stroke="midnightblue" points="280.21,-89.5001 290.21,-86 280.21,-82.5001 280.21,-89.5001"/>
</g>
<!-- Node11 -->
<g id="node11" class="node"><title>Node11</title>
<g id="a_node11"><a xlink:href="../../da/d22/namespacemarian.html#ab84fcdb2b1fa95f89e3921aea4027957" target="_top" xlink:title="marian::tanh">
<polygon fill="white" stroke="black" points="305,-38.5 305,-57.5 376,-57.5 376,-38.5 305,-38.5"/>
<text text-anchor="middle" x="340.5" y="-45.5" font-family="Helvetica,sans-Serif" font-size="10.00">marian::tanh</text>
</a>
</g>
</g>
<!-- Node2&#45;&gt;Node11 -->
<g id="edge10" class="edge"><title>Node2&#45;&gt;Node11</title>
<path fill="none" stroke="midnightblue" d="M252.215,-72.3885C266.321,-68.447 281.635,-64.1682 295.439,-60.3111"/>
<polygon fill="midnightblue" stroke="midnightblue" points="296.496,-63.6499 305.186,-57.5879 294.613,-56.9081 296.496,-63.6499"/>
</g>
<!-- Node12 -->
<g id="node12" class="node"><title>Node12</title>
<g id="a_node12"><a xlink:href="../../dd/d18/namespacemarian_1_1rnn.html#aebb005fe050e8538752175401598a47a" target="_top" xlink:title="marian::rnn::gruOps">
<polygon fill="white" stroke="black" points="289,-0.5 289,-19.5 392,-19.5 392,-0.5 289,-0.5"/>
<text text-anchor="middle" x="340.5" y="-7.5" font-family="Helvetica,sans-Serif" font-size="10.00">marian::rnn::gruOps</text>
</a>
</g>
</g>
<!-- Node2&#45;&gt;Node12 -->
<g id="edge11" class="edge"><title>Node2&#45;&gt;Node12</title>
<path fill="none" stroke="midnightblue" d="M223.147,-70.7514C239.758,-58.359 264.534,-41.022 288,-29 291.972,-26.9652 296.214,-25.0391 300.494,-23.2499"/>
<polygon fill="midnightblue" stroke="midnightblue" points="301.819,-26.4898 309.836,-19.5631 299.249,-19.9785 301.819,-26.4898"/>
</g>
<!-- Node4 -->
<g id="node4" class="node"><title>Node4</title>
<g id="a_node4"><a xlink:href="../../d4/d04/namespacemarian_1_1keywords.html#a74d7a2502faafdd421ef3dff629e284f" target="_top" xlink:title="marian::keywords::Get">
<polygon fill="white" stroke="black" points="429,-228.5 429,-247.5 545,-247.5 545,-228.5 429,-228.5"/>
<text text-anchor="middle" x="487" y="-235.5" font-family="Helvetica,sans-Serif" font-size="10.00">marian::keywords::Get</text>
</a>
</g>
</g>
<!-- Node3&#45;&gt;Node4 -->
<g id="edge3" class="edge"><title>Node3&#45;&gt;Node4</title>
<path fill="none" stroke="midnightblue" d="M374.463,-171.591C380.874,-174.155 387.351,-177.275 393,-181 412.422,-193.806 409.377,-206.503 429,-219 432.178,-221.024 435.595,-222.855 439.119,-224.508"/>
<polygon fill="midnightblue" stroke="midnightblue" points="438.032,-227.847 448.608,-228.474 440.732,-221.389 438.032,-227.847"/>
</g>
<!-- Node5 -->
<g id="node5" class="node"><title>Node5</title>
<g id="a_node5"><a xlink:href="../../da/d22/namespacemarian.html#a763e5e9b5d5a329d2420fe9bab95476d" target="_top" xlink:title="marian::shift">
<polygon fill="white" stroke="black" points="451.5,-190.5 451.5,-209.5 522.5,-209.5 522.5,-190.5 451.5,-190.5"/>
<text text-anchor="middle" x="487" y="-197.5" font-family="Helvetica,sans-Serif" font-size="10.00">marian::shift</text>
</a>
</g>
</g>
<!-- Node3&#45;&gt;Node5 -->
<g id="edge4" class="edge"><title>Node3&#45;&gt;Node5</title>
<path fill="none" stroke="midnightblue" d="M377.963,-171.589C397.219,-176.653 421.012,-182.91 441.364,-188.262"/>
<polygon fill="midnightblue" stroke="midnightblue" points="440.482,-191.649 451.044,-190.807 442.263,-184.879 440.482,-191.649"/>
</g>
<!-- Node6 -->
<g id="node6" class="node"><title>Node6</title>
<g id="a_node6"><a xlink:href="../../da/d22/namespacemarian.html#a3dbe8b5eb203876cd08cf3fe75a1c6bc" target="_top" xlink:title="marian::convolution">
<polygon fill="white" stroke="black" points="436.5,-152.5 436.5,-171.5 537.5,-171.5 537.5,-152.5 436.5,-152.5"/>
<text text-anchor="middle" x="487" y="-159.5" font-family="Helvetica,sans-Serif" font-size="10.00">marian::convolution</text>
</a>
</g>
</g>
<!-- Node3&#45;&gt;Node6 -->
<g id="edge5" class="edge"><title>Node3&#45;&gt;Node6</title>
<path fill="none" stroke="midnightblue" d="M382.521,-162C396.148,-162 411.61,-162 426.349,-162"/>
<polygon fill="midnightblue" stroke="midnightblue" points="426.407,-165.5 436.407,-162 426.407,-158.5 426.407,-165.5"/>
</g>
<!-- Node7 -->
<g id="node7" class="node"><title>Node7</title>
<g id="a_node7"><a xlink:href="../../da/d22/namespacemarian.html#a8ee119d3ee4867a3c826de62ea1de4f5" target="_top" xlink:title="marian::avg_pooling">
<polygon fill="white" stroke="black" points="435,-114.5 435,-133.5 539,-133.5 539,-114.5 435,-114.5"/>
<text text-anchor="middle" x="487" y="-121.5" font-family="Helvetica,sans-Serif" font-size="10.00">marian::avg_pooling</text>
</a>
</g>
</g>
<!-- Node3&#45;&gt;Node7 -->
<g id="edge6" class="edge"><title>Node3&#45;&gt;Node7</title>
<path fill="none" stroke="midnightblue" d="M377.963,-152.411C396.774,-147.464 419.915,-141.379 439.947,-136.111"/>
<polygon fill="midnightblue" stroke="midnightblue" points="441.018,-139.448 449.799,-133.52 439.237,-132.678 441.018,-139.448"/>
</g>
<!-- Node8 -->
<g id="node8" class="node"><title>Node8</title>
<g id="a_node8"><a xlink:href="../../da/d22/namespacemarian.html#abfe3b8c37f479da0a31a1e843d8bdedf" target="_top" xlink:title="marian::max_pooling">
<polygon fill="white" stroke="black" points="433.5,-76.5 433.5,-95.5 540.5,-95.5 540.5,-76.5 433.5,-76.5"/>
<text text-anchor="middle" x="487" y="-83.5" font-family="Helvetica,sans-Serif" font-size="10.00">marian::max_pooling</text>
</a>
</g>
</g>
<!-- Node3&#45;&gt;Node8 -->
<g id="edge7" class="edge"><title>Node3&#45;&gt;Node8</title>
<path fill="none" stroke="midnightblue" d="M374.463,-152.409C380.874,-149.845 387.351,-146.725 393,-143 412.422,-130.194 409.377,-117.497 429,-105 432.178,-102.976 435.595,-101.145 439.119,-99.4921"/>
<polygon fill="midnightblue" stroke="midnightblue" points="440.732,-102.611 448.608,-95.5257 438.032,-96.1528 440.732,-102.611"/>
</g>
<!-- Node13&#45;&gt;Node3 -->
<g id="edge14" class="edge"><title>Node13&#45;&gt;Node3</title>
<path fill="none" stroke="midnightblue" d="M252.215,-144.671C263.887,-146.989 276.386,-149.47 288.172,-151.81"/>
<polygon fill="midnightblue" stroke="midnightblue" points="287.818,-155.308 298.308,-153.822 289.181,-148.442 287.818,-155.308"/>
</g>
<!-- Node13&#45;&gt;Node9 -->
<g id="edge15" class="edge"><title>Node13&#45;&gt;Node9</title>
<path fill="none" stroke="midnightblue" d="M252.215,-131.06C267.057,-129.859 283.236,-128.551 297.587,-127.39"/>
<polygon fill="midnightblue" stroke="midnightblue" points="297.984,-130.869 307.669,-126.575 297.419,-123.892 297.984,-130.869"/>
</g>
<!-- Node13&#45;&gt;Node10 -->
<g id="edge16" class="edge"><title>Node13&#45;&gt;Node10</title>
<path fill="none" stroke="midnightblue" d="M245.414,-119.899C263.984,-113.208 285.614,-105.415 303.449,-98.989"/>
<polygon fill="midnightblue" stroke="midnightblue" points="304.702,-102.258 312.923,-95.5754 302.329,-95.6723 304.702,-102.258"/>
</g>
<!-- Node14 -->
<g id="node14" class="node"><title>Node14</title>
<g id="a_node14"><a xlink:href="../../da/d22/namespacemarian.html#a2791a2c8f79a938f5cb22ae613680675" target="_top" xlink:title="marian::concatenate">
<polygon fill="white" stroke="black" points="288,-190.5 288,-209.5 393,-209.5 393,-190.5 288,-190.5"/>
<text text-anchor="middle" x="340.5" y="-197.5" font-family="Helvetica,sans-Serif" font-size="10.00">marian::concatenate</text>
</a>
</g>
</g>
<!-- Node13&#45;&gt;Node14 -->
<g id="edge13" class="edge"><title>Node13&#45;&gt;Node14</title>
<path fill="none" stroke="midnightblue" d="M228.895,-150.083C245.422,-159.582 267.618,-171.751 288,-181 292.431,-183.011 297.144,-184.975 301.849,-186.832"/>
<polygon fill="midnightblue" stroke="midnightblue" points="300.814,-190.183 311.405,-190.472 303.306,-183.642 300.814,-190.183"/>
</g>
</g>
</svg>
        <g id="navigator" transform="translate(0 0)" fill="#404254">
                <rect fill="#f2f5e9" fill-opacity="0.5" stroke="#606060" stroke-width=".5" x="0" y="0" width="60" height="60"/>
                <use id="zoomplus" xlink:href="#zoomPlus" x="17" y="9" onmousedown="handleZoom(evt,'in')"/>
                <use id="zoomminus" xlink:href="#zoomMin" x="42" y="9" onmousedown="handleZoom(evt,'out')"/>
                <use id="reset" xlink:href="#resetDef" x="30" y="36" onmousedown="handleReset()"/>
                <g id="arrowUp" xlink:href="#dirArrow" transform="translate(30 24)" onmousedown="handlePan(0,-1)">
                  <use xlink:href="#rim" fill="#404040">
                        <set attributeName="fill" to="#808080" begin="arrowUp.mouseover" end="arrowUp.mouseout"/>
                  </use>
                  <path fill="none" stroke="white" stroke-width="1.5" d="M0,-3.0v7 M-2.5,-0.5L0,-3.0L2.5,-0.5"/>
                </g>
                <g id="arrowRight" xlink:href="#dirArrow" transform="rotate(90) translate(36 -43)" onmousedown="handlePan(1,0)">
                  <use xlink:href="#rim" fill="#404040">
                        <set attributeName="fill" to="#808080" begin="arrowRight.mouseover" end="arrowRight.mouseout"/>
                  </use>
                  <path fill="none" stroke="white" stroke-width="1.5" d="M0,-3.0v7 M-2.5,-0.5L0,-3.0L2.5,-0.5"/>
                </g>
                <g id="arrowDown" xlink:href="#dirArrow" transform="rotate(180) translate(-30 -48)" onmousedown="handlePan(0,1)">
                  <use xlink:href="#rim" fill="#404040">
                        <set attributeName="fill" to="#808080" begin="arrowDown.mouseover" end="arrowDown.mouseout"/>
                  </use>
                  <path fill="none" stroke="white" stroke-width="1.5" d="M0,-3.0v7 M-2.5,-0.5L0,-3.0L2.5,-0.5"/>
                </g>
                <g id="arrowLeft" xlink:href="#dirArrow" transform="rotate(270) translate(-36 17)" onmousedown="handlePan(-1,0)">
                  <use xlink:href="#rim" fill="#404040">
                        <set attributeName="fill" to="#808080" begin="arrowLeft.mouseover" end="arrowLeft.mouseout"/>
                  </use>
                  <path fill="none" stroke="white" stroke-width="1.5" d="M0,-3.0v7 M-2.5,-0.5L0,-3.0L2.5,-0.5"/>
                </g>
        </g>
        <svg viewBox="0 0 15 15" width="100%" height="30px" preserveAspectRatio="xMaxYMin meet">
         <g id="arrow_out" transform="scale(0.3 0.3)">
          <a xlink:href="classmarian_1_1rnn_1_1FastLSTM_a275238cb651482fac640d18d0a5ed265_cgraph_org.svg" target="_base">
           <rect id="button" ry="5" rx="5" y="6" x="6" height="38" width="38"
                fill="#f2f5e9" fill-opacity="0.5" stroke="#606060" stroke-width="1.0"/>
           <path id="arrow"
             d="M 11.500037,31.436501 C 11.940474,20.09759 22.043105,11.32322 32.158766,21.979434 L 37.068811,17.246167 C 37.068811,17.246167 37.088388,32 37.088388,32 L 22.160133,31.978069 C 22.160133,31.978069 26.997745,27.140456 26.997745,27.140456 C 18.528582,18.264221 13.291696,25.230495 11.500037,31.436501 z"
             style="fill:#404040;"/>
          </a>
         </g>
        </svg>
</svg>
