<?xml version="1.0" encoding="UTF-8" standalone="no"?>
<!DOCTYPE svg PUBLIC "-//W3C//DTD SVG 1.1//EN"
 "http://www.w3.org/Graphics/SVG/1.1/DTD/svg11.dtd">
<!-- Generated by graphviz version 2.38.0 (20140413.2041)
 -->
<!-- Title: marian::ShapeGPU::elements Pages: 1 -->
<svg width="301pt" height="446pt"
 viewBox="0.00 0.00 301.00 446.00" xmlns="http://www.w3.org/2000/svg" xmlns:xlink="http://www.w3.org/1999/xlink">
<g id="graph0" class="graph" transform="scale(1 1) rotate(0) translate(4 442)">
<title>marian::ShapeGPU::elements</title>
<polygon fill="white" stroke="none" points="-4,4 -4,-442 297,-442 297,4 -4,4"/>
<!-- Node1 -->
<g id="node1" class="node"><title>Node1</title>
<polygon fill="#bfbfbf" stroke="black" points="0,-209.5 0,-228.5 147,-228.5 147,-209.5 0,-209.5"/>
<text text-anchor="middle" x="73.5" y="-216.5" font-family="Helvetica,sans-Serif" font-size="10.00">marian::ShapeGPU::elements</text>
</g>
<!-- Node2 -->
<g id="node2" class="node"><title>Node2</title>
<g id="a_node2"><a xlink:href="../../da/d22/namespacemarian.html#a6e23ca23d59f5e88256ee5257c412f2f" target="_top" xlink:title="marian::gAddR2">
<polygon fill="white" stroke="black" points="194.5,-418.5 194.5,-437.5 281.5,-437.5 281.5,-418.5 194.5,-418.5"/>
<text text-anchor="middle" x="238" y="-425.5" font-family="Helvetica,sans-Serif" font-size="10.00">marian::gAddR2</text>
</a>
</g>
</g>
<!-- Node1&#45;&gt;Node2 -->
<g id="edge1" class="edge"><title>Node1&#45;&gt;Node2</title>
<path fill="none" stroke="midnightblue" d="M80.5781,-238.811C93.3249,-277.144 126.446,-361.835 183,-409 187.656,-412.883 193.159,-415.994 198.841,-418.481"/>
<polygon fill="midnightblue" stroke="midnightblue" points="83.7841,-237.347 77.3959,-228.895 77.1189,-239.486 83.7841,-237.347"/>
</g>
<!-- Node3 -->
<g id="node3" class="node"><title>Node3</title>
<g id="a_node3"><a xlink:href="../../da/d22/namespacemarian.html#a35418d90c9b90cff0b6a21d2e00c045a" target="_top" xlink:title="marian::gAddR2Eq">
<polygon fill="white" stroke="black" points="188.5,-380.5 188.5,-399.5 287.5,-399.5 287.5,-380.5 188.5,-380.5"/>
<text text-anchor="middle" x="238" y="-387.5" font-family="Helvetica,sans-Serif" font-size="10.00">marian::gAddR2Eq</text>
</a>
</g>
</g>
<!-- Node1&#45;&gt;Node3 -->
<g id="edge2" class="edge"><title>Node1&#45;&gt;Node3</title>
<path fill="none" stroke="midnightblue" d="M83.1636,-237.883C98.7197,-269.784 134.358,-334.436 183,-371 188.084,-374.822 194.001,-377.92 200.017,-380.418"/>
<polygon fill="midnightblue" stroke="midnightblue" points="86.2793,-236.285 78.8275,-228.754 79.9563,-239.288 86.2793,-236.285"/>
</g>
<!-- Node4 -->
<g id="node4" class="node"><title>Node4</title>
<g id="a_node4"><a xlink:href="../../da/d22/namespacemarian.html#a0e46ef4c37b91562f6b1debd5d1e3d8f" target="_top" xlink:title="marian::gAdd1R2">
<polygon fill="white" stroke="black" points="192,-342.5 192,-361.5 284,-361.5 284,-342.5 192,-342.5"/>
<text text-anchor="middle" x="238" y="-349.5" font-family="Helvetica,sans-Serif" font-size="10.00">marian::gAdd1R2</text>
</a>
</g>
</g>
<!-- Node1&#45;&gt;Node4 -->
<g id="edge3" class="edge"><title>Node1&#45;&gt;Node4</title>
<path fill="none" stroke="midnightblue" d="M87.1683,-236.891C105.61,-261.725 142.137,-306.564 183,-333 188.841,-336.779 195.525,-339.912 202.155,-342.469"/>
<polygon fill="midnightblue" stroke="midnightblue" points="89.9332,-234.742 81.2177,-228.718 84.2742,-238.862 89.9332,-234.742"/>
</g>
<!-- Node5 -->
<g id="node5" class="node"><title>Node5</title>
<g id="a_node5"><a xlink:href="../../da/d22/namespacemarian.html#a690541df38dba6c9e5fbd9237945f673" target="_top" xlink:title="marian::gAddR3">
<polygon fill="white" stroke="black" points="194.5,-304.5 194.5,-323.5 281.5,-323.5 281.5,-304.5 194.5,-304.5"/>
<text text-anchor="middle" x="238" y="-311.5" font-family="Helvetica,sans-Serif" font-size="10.00">marian::gAddR3</text>
</a>
</g>
</g>
<!-- Node1&#45;&gt;Node5 -->
<g id="edge4" class="edge"><title>Node1&#45;&gt;Node5</title>
<path fill="none" stroke="midnightblue" d="M93.6694,-234.873C114.584,-251.587 149.56,-277.816 183,-295 189.983,-298.588 197.799,-301.772 205.268,-304.458"/>
<polygon fill="midnightblue" stroke="midnightblue" points="95.8406,-232.127 85.8664,-228.554 91.4355,-237.567 95.8406,-232.127"/>
</g>
<!-- Node6 -->
<g id="node6" class="node"><title>Node6</title>
<g id="a_node6"><a xlink:href="../../da/d22/namespacemarian.html#a0a08b33ffd2a9dfa67f0994a15685cd0" target="_top" xlink:title="marian::gAddR3Eq">
<polygon fill="white" stroke="black" points="188.5,-266.5 188.5,-285.5 287.5,-285.5 287.5,-266.5 188.5,-266.5"/>
<text text-anchor="middle" x="238" y="-273.5" font-family="Helvetica,sans-Serif" font-size="10.00">marian::gAddR3Eq</text>
</a>
</g>
</g>
<!-- Node1&#45;&gt;Node6 -->
<g id="edge5" class="edge"><title>Node1&#45;&gt;Node6</title>
<path fill="none" stroke="midnightblue" d="M111.357,-231.928C141.257,-242.416 182.731,-256.964 209.712,-266.428"/>
<polygon fill="midnightblue" stroke="midnightblue" points="112.294,-228.548 101.699,-228.541 109.977,-235.153 112.294,-228.548"/>
</g>
<!-- Node7 -->
<g id="node7" class="node"><title>Node7</title>
<g id="a_node7"><a xlink:href="../../da/d22/namespacemarian.html#a44155273ebd81acda4f4878c7c9b6077" target="_top" xlink:title="marian::gAdd1R3">
<polygon fill="white" stroke="black" points="192,-228.5 192,-247.5 284,-247.5 284,-228.5 192,-228.5"/>
<text text-anchor="middle" x="238" y="-235.5" font-family="Helvetica,sans-Serif" font-size="10.00">marian::gAdd1R3</text>
</a>
</g>
</g>
<!-- Node1&#45;&gt;Node7 -->
<g id="edge6" class="edge"><title>Node1&#45;&gt;Node7</title>
<path fill="none" stroke="midnightblue" d="M157.212,-228.671C169.153,-230.067 181.052,-231.458 191.876,-232.724"/>
<polygon fill="midnightblue" stroke="midnightblue" points="157.534,-225.185 147.195,-227.5 156.721,-232.137 157.534,-225.185"/>
</g>
<!-- Node8 -->
<g id="node8" class="node"><title>Node8</title>
<g id="a_node8"><a xlink:href="../../da/d22/namespacemarian.html#a07c7c2280aabd4e48cdba0d2cf4a917d" target="_top" xlink:title="marian::gAddR4">
<polygon fill="white" stroke="black" points="194.5,-190.5 194.5,-209.5 281.5,-209.5 281.5,-190.5 194.5,-190.5"/>
<text text-anchor="middle" x="238" y="-197.5" font-family="Helvetica,sans-Serif" font-size="10.00">marian::gAddR4</text>
</a>
</g>
</g>
<!-- Node1&#45;&gt;Node8 -->
<g id="edge7" class="edge"><title>Node1&#45;&gt;Node8</title>
<path fill="none" stroke="midnightblue" d="M157.391,-209.308C170.121,-207.82 182.797,-206.338 194.169,-205.008"/>
<polygon fill="midnightblue" stroke="midnightblue" points="156.721,-205.863 147.195,-210.5 157.534,-212.815 156.721,-205.863"/>
</g>
<!-- Node9 -->
<g id="node9" class="node"><title>Node9</title>
<g id="a_node9"><a xlink:href="../../da/d22/namespacemarian.html#a7caa3e7e7bc68c5174a625bd23f2ff8d" target="_top" xlink:title="marian::gAdd1R4">
<polygon fill="white" stroke="black" points="192,-152.5 192,-171.5 284,-171.5 284,-152.5 192,-152.5"/>
<text text-anchor="middle" x="238" y="-159.5" font-family="Helvetica,sans-Serif" font-size="10.00">marian::gAdd1R4</text>
</a>
</g>
</g>
<!-- Node1&#45;&gt;Node9 -->
<g id="edge8" class="edge"><title>Node1&#45;&gt;Node9</title>
<path fill="none" stroke="midnightblue" d="M111.357,-206.072C141.257,-195.584 182.731,-181.036 209.712,-171.572"/>
<polygon fill="midnightblue" stroke="midnightblue" points="109.977,-202.847 101.699,-209.459 112.294,-209.452 109.977,-202.847"/>
</g>
<!-- Node10 -->
<g id="node10" class="node"><title>Node10</title>
<g id="a_node10"><a xlink:href="../../da/d22/namespacemarian.html#a5b77f356db43dd0f5ca6eeb10b3ed27b" target="_top" xlink:title="marian::gAddR4Eq">
<polygon fill="white" stroke="black" points="188.5,-114.5 188.5,-133.5 287.5,-133.5 287.5,-114.5 188.5,-114.5"/>
<text text-anchor="middle" x="238" y="-121.5" font-family="Helvetica,sans-Serif" font-size="10.00">marian::gAddR4Eq</text>
</a>
</g>
</g>
<!-- Node1&#45;&gt;Node10 -->
<g id="edge9" class="edge"><title>Node1&#45;&gt;Node10</title>
<path fill="none" stroke="midnightblue" d="M93.6694,-203.127C114.584,-186.413 149.56,-160.184 183,-143 189.983,-139.412 197.799,-136.228 205.268,-133.542"/>
<polygon fill="midnightblue" stroke="midnightblue" points="91.4355,-200.433 85.8664,-209.446 95.8406,-205.873 91.4355,-200.433"/>
</g>
<!-- Node11 -->
<g id="node11" class="node"><title>Node11</title>
<g id="a_node11"><a xlink:href="../../da/d22/namespacemarian.html#aea1055f9f625245cb25935ac339ec283" target="_top" xlink:title="marian::gElement">
<polygon fill="white" stroke="black" points="191.5,-76.5 191.5,-95.5 284.5,-95.5 284.5,-76.5 191.5,-76.5"/>
<text text-anchor="middle" x="238" y="-83.5" font-family="Helvetica,sans-Serif" font-size="10.00">marian::gElement</text>
</a>
</g>
</g>
<!-- Node1&#45;&gt;Node11 -->
<g id="edge10" class="edge"><title>Node1&#45;&gt;Node11</title>
<path fill="none" stroke="midnightblue" d="M87.1683,-201.109C105.61,-176.275 142.137,-131.436 183,-105 188.841,-101.221 195.525,-98.0883 202.155,-95.5307"/>
<polygon fill="midnightblue" stroke="midnightblue" points="84.2742,-199.138 81.2177,-209.282 89.9332,-203.258 84.2742,-199.138"/>
</g>
<!-- Node12 -->
<g id="node12" class="node"><title>Node12</title>
<g id="a_node12"><a xlink:href="../../da/d22/namespacemarian.html#a10cae6ac3354fc0097e75cbbba277323" target="_top" xlink:title="marian::gPick">
<polygon fill="white" stroke="black" points="199.5,-38.5 199.5,-57.5 276.5,-57.5 276.5,-38.5 199.5,-38.5"/>
<text text-anchor="middle" x="238" y="-45.5" font-family="Helvetica,sans-Serif" font-size="10.00">marian::gPick</text>
</a>
</g>
</g>
<!-- Node1&#45;&gt;Node12 -->
<g id="edge11" class="edge"><title>Node1&#45;&gt;Node12</title>
<path fill="none" stroke="midnightblue" d="M83.1636,-200.117C98.7197,-168.216 134.358,-103.564 183,-67 188.084,-63.1781 194.001,-60.0797 200.017,-57.5818"/>
<polygon fill="midnightblue" stroke="midnightblue" points="79.9563,-198.712 78.8275,-209.246 86.2793,-201.715 79.9563,-198.712"/>
</g>
<!-- Node13 -->
<g id="node13" class="node"><title>Node13</title>
<g id="a_node13"><a xlink:href="../../da/d22/namespacemarian.html#ababfcb483a7f3ca788a8b2d58f30cc9d" target="_top" xlink:title="marian::gPickReduce">
<polygon fill="white" stroke="black" points="183,-0.5 183,-19.5 293,-19.5 293,-0.5 183,-0.5"/>
<text text-anchor="middle" x="238" y="-7.5" font-family="Helvetica,sans-Serif" font-size="10.00">marian::gPickReduce</text>
</a>
</g>
</g>
<!-- Node1&#45;&gt;Node13 -->
<g id="edge12" class="edge"><title>Node1&#45;&gt;Node13</title>
<path fill="none" stroke="midnightblue" d="M80.5781,-199.189C93.3249,-160.856 126.446,-76.1654 183,-29 187.656,-25.1171 193.159,-22.0059 198.841,-19.519"/>
<polygon fill="midnightblue" stroke="midnightblue" points="77.1189,-198.514 77.3959,-209.105 83.7841,-200.653 77.1189,-198.514"/>
</g>
</g>
</svg>
