<?xml version="1.0" encoding="UTF-8" standalone="no"?>
<!DOCTYPE svg PUBLIC "-//W3C//DTD SVG 1.1//EN"
 "http://www.w3.org/Graphics/SVG/1.1/DTD/svg11.dtd">
<!-- Generated by graphviz version 2.38.0 (20140413.2041)
 -->
<!-- Title: marian::ShapeGPU::updateStrides Pages: 1 -->
<svg width="338pt" height="66pt"
 viewBox="0.00 0.00 338.00 66.00" xmlns="http://www.w3.org/2000/svg" xmlns:xlink="http://www.w3.org/1999/xlink">
<g id="graph0" class="graph" transform="scale(1 1) rotate(0) translate(4 62)">
<title>marian::ShapeGPU::updateStrides</title>
<polygon fill="white" stroke="none" points="-4,4 -4,-62 334,-62 334,4 -4,4"/>
<!-- Node1 -->
<g id="node1" class="node"><title>Node1</title>
<polygon fill="#bfbfbf" stroke="black" points="0,-14 0,-44 137,-44 137,-14 0,-14"/>
<text text-anchor="start" x="8" y="-32" font-family="Helvetica,sans-Serif" font-size="10.00">marian::ShapeGPU::update</text>
<text text-anchor="middle" x="68.5" y="-21" font-family="Helvetica,sans-Serif" font-size="10.00">Strides</text>
</g>
<!-- Node2 -->
<g id="node2" class="node"><title>Node2</title>
<g id="a_node2"><a xlink:href="../../d6/dbf/structmarian_1_1ShapeGPU.html#a13529f654e08e8b5b5a74f6e66c22fdc" target="_top" xlink:title="Constructs a shape. ">
<polygon fill="white" stroke="black" points="173,-38.5 173,-57.5 330,-57.5 330,-38.5 173,-38.5"/>
<text text-anchor="middle" x="251.5" y="-45.5" font-family="Helvetica,sans-Serif" font-size="10.00">marian::ShapeGPU::ShapeGPU</text>
</a>
</g>
</g>
<!-- Node1&#45;&gt;Node2 -->
<g id="edge1" class="edge"><title>Node1&#45;&gt;Node2</title>
<path fill="none" stroke="midnightblue" d="M147.371,-37.1743C155.824,-38.0616 164.426,-38.9646 172.876,-39.8516"/>
<polygon fill="midnightblue" stroke="midnightblue" points="147.466,-33.6651 137.155,-36.1019 146.735,-40.6269 147.466,-33.6651"/>
</g>
<!-- Node3 -->
<g id="node3" class="node"><title>Node3</title>
<g id="a_node3"><a xlink:href="../../d6/dbf/structmarian_1_1ShapeGPU.html#aabf629e515546d98185f54651936fa4e" target="_top" xlink:title="marian::ShapeGPU::set">
<polygon fill="white" stroke="black" points="191,-0.5 191,-19.5 312,-19.5 312,-0.5 191,-0.5"/>
<text text-anchor="middle" x="251.5" y="-7.5" font-family="Helvetica,sans-Serif" font-size="10.00">marian::ShapeGPU::set</text>
</a>
</g>
</g>
<!-- Node1&#45;&gt;Node3 -->
<g id="edge2" class="edge"><title>Node1&#45;&gt;Node3</title>
<path fill="none" stroke="midnightblue" d="M147.208,-20.8429C161.861,-19.3046 176.971,-17.7185 190.96,-16.2501"/>
<polygon fill="midnightblue" stroke="midnightblue" points="146.735,-17.3731 137.155,-21.8981 147.466,-24.3349 146.735,-17.3731"/>
</g>
</g>
</svg>
