<?xml version="1.0" encoding="UTF-8" standalone="no"?>
<!DOCTYPE svg PUBLIC "-//W3C//DTD SVG 1.1//EN"
 "http://www.w3.org/Graphics/SVG/1.1/DTD/svg11.dtd">
<!-- Generated by graphviz version 2.38.0 (20140413.2041)
 -->
<!-- Title: marian::ShapeGPU::set Pages: 1 -->
<svg width="302pt" height="78pt"
 viewBox="0.00 0.00 302.00 77.50" xmlns="http://www.w3.org/2000/svg" xmlns:xlink="http://www.w3.org/1999/xlink">
<g id="graph0" class="graph" transform="scale(1 1) rotate(0) translate(4 73.5)">
<title>marian::ShapeGPU::set</title>
<polygon fill="white" stroke="none" points="-4,4 -4,-73.5 298,-73.5 298,4 -4,4"/>
<!-- Node1 -->
<g id="node1" class="node"><title>Node1</title>
<polygon fill="#bfbfbf" stroke="black" points="0,-28 0,-47 121,-47 121,-28 0,-28"/>
<text text-anchor="middle" x="60.5" y="-35" font-family="Helvetica,sans-Serif" font-size="10.00">marian::ShapeGPU::set</text>
</g>
<!-- Node2 -->
<g id="node2" class="node"><title>Node2</title>
<g id="a_node2"><a xlink:href="../../d6/dbf/structmarian_1_1ShapeGPU.html#a5a960d13af52f0b02aa1ba0e6d29a734" target="_top" xlink:title="Gets a reference to the int representing the size of the ith dimension represented by this object...">
<polygon fill="white" stroke="black" points="164,-50 164,-69 287,-69 287,-50 164,-50"/>
<text text-anchor="middle" x="225.5" y="-57" font-family="Helvetica,sans-Serif" font-size="10.00">marian::ShapeGPU::dim</text>
</a>
</g>
</g>
<!-- Node1&#45;&gt;Node2 -->
<g id="edge1" class="edge"><title>Node1&#45;&gt;Node2</title>
<path fill="none" stroke="midnightblue" d="M121.27,-45.5671C131.913,-47.0036 143.09,-48.5121 153.999,-49.9845"/>
<polygon fill="midnightblue" stroke="midnightblue" points="153.541,-53.4543 163.919,-51.3234 154.477,-46.5172 153.541,-53.4543"/>
</g>
<!-- Node3 -->
<g id="node3" class="node"><title>Node3</title>
<g id="a_node3"><a xlink:href="../../d6/dbf/structmarian_1_1ShapeGPU.html#ac0dcb3abcea0f59dafd339cd49249547" target="_top" xlink:title="marian::ShapeGPU::update\lStrides">
<polygon fill="white" stroke="black" points="157,-0.5 157,-30.5 294,-30.5 294,-0.5 157,-0.5"/>
<text text-anchor="start" x="165" y="-18.5" font-family="Helvetica,sans-Serif" font-size="10.00">marian::ShapeGPU::update</text>
<text text-anchor="middle" x="225.5" y="-7.5" font-family="Helvetica,sans-Serif" font-size="10.00">Strides</text>
</a>
</g>
</g>
<!-- Node1&#45;&gt;Node3 -->
<g id="edge2" class="edge"><title>Node1&#45;&gt;Node3</title>
<path fill="none" stroke="midnightblue" d="M121.27,-29.4329C129.563,-28.3135 138.181,-27.1504 146.744,-25.9947"/>
<polygon fill="midnightblue" stroke="midnightblue" points="147.305,-29.4508 156.747,-24.6446 146.369,-22.5137 147.305,-29.4508"/>
</g>
</g>
</svg>
