<?xml version="1.0" encoding="UTF-8" standalone="no"?>
<!DOCTYPE svg PUBLIC "-//W3C//DTD SVG 1.1//EN"
 "http://www.w3.org/Graphics/SVG/1.1/DTD/svg11.dtd">
<!-- Generated by graphviz version 2.38.0 (20140413.2041)
 -->
<!-- Title: marian::ShapeGPU::dim Pages: 1 -->
<svg width="316pt" height="104pt"
 viewBox="0.00 0.00 316.00 104.00" xmlns="http://www.w3.org/2000/svg" xmlns:xlink="http://www.w3.org/1999/xlink">
<g id="graph0" class="graph" transform="scale(1 1) rotate(0) translate(4 100)">
<title>marian::ShapeGPU::dim</title>
<polygon fill="white" stroke="none" points="-4,4 -4,-100 312,-100 312,4 -4,4"/>
<!-- Node1 -->
<g id="node1" class="node"><title>Node1</title>
<polygon fill="#bfbfbf" stroke="black" points="0,-38.5 0,-57.5 123,-57.5 123,-38.5 0,-38.5"/>
<text text-anchor="middle" x="61.5" y="-45.5" font-family="Helvetica,sans-Serif" font-size="10.00">marian::ShapeGPU::dim</text>
</g>
<!-- Node2 -->
<g id="node2" class="node"><title>Node2</title>
<g id="a_node2"><a xlink:href="../../d6/dbf/structmarian_1_1ShapeGPU.html#aabf629e515546d98185f54651936fa4e" target="_top" xlink:title="marian::ShapeGPU::set">
<polygon fill="white" stroke="black" points="173,-76.5 173,-95.5 294,-95.5 294,-76.5 173,-76.5"/>
<text text-anchor="middle" x="233.5" y="-83.5" font-family="Helvetica,sans-Serif" font-size="10.00">marian::ShapeGPU::set</text>
</a>
</g>
</g>
<!-- Node1&#45;&gt;Node2 -->
<g id="edge1" class="edge"><title>Node1&#45;&gt;Node2</title>
<path fill="none" stroke="midnightblue" d="M115.398,-59.8243C139.365,-65.1816 167.324,-71.4311 189.91,-76.4799"/>
<polygon fill="midnightblue" stroke="midnightblue" points="115.921,-56.3548 105.398,-57.589 114.394,-63.1862 115.921,-56.3548"/>
</g>
<!-- Node3 -->
<g id="node3" class="node"><title>Node3</title>
<g id="a_node3"><a xlink:href="../../d6/dbf/structmarian_1_1ShapeGPU.html#a081cd10d19ea282349cd6258d1b438a1" target="_top" xlink:title="Gets the size of the ith dimension represented by this object. ">
<polygon fill="white" stroke="black" points="172,-38.5 172,-57.5 295,-57.5 295,-38.5 172,-38.5"/>
<text text-anchor="middle" x="233.5" y="-45.5" font-family="Helvetica,sans-Serif" font-size="10.00">marian::ShapeGPU::dim</text>
</a>
</g>
</g>
<!-- Node1&#45;&gt;Node3 -->
<g id="edge2" class="edge"><title>Node1&#45;&gt;Node3</title>
<path fill="none" stroke="midnightblue" d="M133.479,-48C146.198,-48 159.347,-48 171.746,-48"/>
<polygon fill="midnightblue" stroke="midnightblue" points="133.394,-44.5001 123.394,-48 133.394,-51.5001 133.394,-44.5001"/>
</g>
<!-- Node4 -->
<g id="node4" class="node"><title>Node4</title>
<g id="a_node4"><a xlink:href="../../d6/dbf/structmarian_1_1ShapeGPU.html#aa055cb9851f538831c1ffdd6b7b9f06a" target="_top" xlink:title="Gets a reference to the int representing the size of the ith dimension represented by this object...">
<polygon fill="white" stroke="black" points="159,-0.5 159,-19.5 308,-19.5 308,-0.5 159,-0.5"/>
<text text-anchor="middle" x="233.5" y="-7.5" font-family="Helvetica,sans-Serif" font-size="10.00">marian::ShapeGPU::operator[]</text>
</a>
</g>
</g>
<!-- Node1&#45;&gt;Node4 -->
<g id="edge3" class="edge"><title>Node1&#45;&gt;Node4</title>
<path fill="none" stroke="midnightblue" d="M115.398,-36.1757C139.365,-30.8184 167.324,-24.5689 189.91,-19.5201"/>
<polygon fill="midnightblue" stroke="midnightblue" points="114.394,-32.8138 105.398,-38.411 115.921,-39.6452 114.394,-32.8138"/>
</g>
</g>
</svg>
