<?xml version="1.0" encoding="UTF-8" standalone="no"?>
<!DOCTYPE svg PUBLIC "-//W3C//DTD SVG 1.1//EN"
 "http://www.w3.org/Graphics/SVG/1.1/DTD/svg11.dtd">
<!-- Generated by graphviz version 2.38.0 (20140413.2041)
 -->
<!-- Title: marian::rnn::SlowLSTM::applyState Pages: 1 -->
<svg width="239pt" height="104pt"
 viewBox="0.00 0.00 239.00 104.00" xmlns="http://www.w3.org/2000/svg" xmlns:xlink="http://www.w3.org/1999/xlink">
<g id="graph0" class="graph" transform="scale(1 1) rotate(0) translate(4 100)">
<title>marian::rnn::SlowLSTM::applyState</title>
<polygon fill="white" stroke="none" points="-4,4 -4,-100 235,-100 235,4 -4,4"/>
<!-- Node1 -->
<g id="node1" class="node"><title>Node1</title>
<polygon fill="#bfbfbf" stroke="black" points="0,-33 0,-63 119,-63 119,-33 0,-33"/>
<text text-anchor="start" x="8" y="-51" font-family="Helvetica,sans-Serif" font-size="10.00">marian::rnn::SlowLSTM</text>
<text text-anchor="middle" x="59.5" y="-40" font-family="Helvetica,sans-Serif" font-size="10.00">::applyState</text>
</g>
<!-- Node2 -->
<g id="node2" class="node"><title>Node2</title>
<g id="a_node2"><a xlink:href="../../da/d22/namespacemarian.html#aefe65d738dc9a0536f3a1f9346b8d47b" target="_top" xlink:title="marian::affine">
<polygon fill="white" stroke="black" points="155,-76.5 155,-95.5 231,-95.5 231,-76.5 155,-76.5"/>
<text text-anchor="middle" x="193" y="-83.5" font-family="Helvetica,sans-Serif" font-size="10.00">marian::affine</text>
</a>
</g>
</g>
<!-- Node1&#45;&gt;Node2 -->
<g id="edge1" class="edge"><title>Node1&#45;&gt;Node2</title>
<path fill="none" stroke="midnightblue" d="M112.472,-63.0186C124.577,-66.5165 137.334,-70.2028 149,-73.5742"/>
<polygon fill="midnightblue" stroke="midnightblue" points="148.35,-77.0294 158.928,-76.4432 150.293,-70.3046 148.35,-77.0294"/>
</g>
<!-- Node3 -->
<g id="node3" class="node"><title>Node3</title>
<g id="a_node3"><a xlink:href="../../da/d22/namespacemarian.html#a72a6c5cedeadde602b3621a3450dbebe" target="_top" xlink:title="marian::logit">
<polygon fill="white" stroke="black" points="158,-38.5 158,-57.5 228,-57.5 228,-38.5 158,-38.5"/>
<text text-anchor="middle" x="193" y="-45.5" font-family="Helvetica,sans-Serif" font-size="10.00">marian::logit</text>
</a>
</g>
</g>
<!-- Node1&#45;&gt;Node3 -->
<g id="edge2" class="edge"><title>Node1&#45;&gt;Node3</title>
<path fill="none" stroke="midnightblue" d="M119.327,-48C128.764,-48 138.393,-48 147.426,-48"/>
<polygon fill="midnightblue" stroke="midnightblue" points="147.708,-51.5001 157.707,-48 147.707,-44.5001 147.708,-51.5001"/>
</g>
<!-- Node4 -->
<g id="node4" class="node"><title>Node4</title>
<g id="a_node4"><a xlink:href="../../da/d22/namespacemarian.html#ab84fcdb2b1fa95f89e3921aea4027957" target="_top" xlink:title="marian::tanh">
<polygon fill="white" stroke="black" points="157.5,-0.5 157.5,-19.5 228.5,-19.5 228.5,-0.5 157.5,-0.5"/>
<text text-anchor="middle" x="193" y="-7.5" font-family="Helvetica,sans-Serif" font-size="10.00">marian::tanh</text>
</a>
</g>
</g>
<!-- Node1&#45;&gt;Node4 -->
<g id="edge3" class="edge"><title>Node1&#45;&gt;Node4</title>
<path fill="none" stroke="midnightblue" d="M112.472,-32.9814C124.577,-29.4835 137.334,-25.7972 149,-22.4258"/>
<polygon fill="midnightblue" stroke="midnightblue" points="150.293,-25.6954 158.928,-19.5568 148.35,-18.9706 150.293,-25.6954"/>
</g>
</g>
</svg>
