<?xml version="1.0" encoding="UTF-8" standalone="no"?>
<!DOCTYPE svg PUBLIC "-//W3C//DTD SVG 1.1//EN"
 "http://www.w3.org/Graphics/SVG/1.1/DTD/svg11.dtd">
<!-- Generated by graphviz version 2.38.0 (20140413.2041)
 -->
<!-- Title: marian::Config::getModelParameters Pages: 1 -->
<svg width="440pt" height="61pt"
 viewBox="0.00 0.00 440.00 61.00" xmlns="http://www.w3.org/2000/svg" xmlns:xlink="http://www.w3.org/1999/xlink">
<g id="graph0" class="graph" transform="scale(1 1) rotate(0) translate(4 57)">
<title>marian::Config::getModelParameters</title>
<polygon fill="white" stroke="none" points="-4,4 -4,-57 436,-57 436,4 -4,4"/>
<!-- Node1 -->
<g id="node1" class="node"><title>Node1</title>
<polygon fill="#bfbfbf" stroke="black" points="0,-0.5 0,-30.5 126,-30.5 126,-0.5 0,-0.5"/>
<text text-anchor="start" x="8" y="-18.5" font-family="Helvetica,sans-Serif" font-size="10.00">marian::Config::getModel</text>
<text text-anchor="middle" x="63" y="-7.5" font-family="Helvetica,sans-Serif" font-size="10.00">Parameters</text>
</g>
<!-- Node2 -->
<g id="node2" class="node"><title>Node2</title>
<g id="a_node2"><a xlink:href="$d6/dba/classmarian_1_1Config.html#a34c944633d8c66e513bf50da4469de39" xlink:title="marian::Config::saveModel\lParameters">
<polygon fill="white" stroke="black" points="162,-22.5 162,-52.5 296,-52.5 296,-22.5 162,-22.5"/>
<text text-anchor="start" x="170" y="-40.5" font-family="Helvetica,sans-Serif" font-size="10.00">marian::Config::saveModel</text>
<text text-anchor="middle" x="229" y="-29.5" font-family="Helvetica,sans-Serif" font-size="10.00">Parameters</text>
</a>
</g>
</g>
<!-- Node1&#45;&gt;Node2 -->
<g id="edge1" class="edge"><title>Node1&#45;&gt;Node2</title>
<path fill="none" stroke="midnightblue" d="M135.989,-25.157C144.574,-26.3087 153.308,-27.4803 161.806,-28.6204"/>
<polygon fill="midnightblue" stroke="midnightblue" points="136.378,-21.678 126.001,-23.8173 135.447,-28.6158 136.378,-21.678"/>
</g>
<!-- Node3 -->
<g id="node3" class="node"><title>Node3</title>
<g id="a_node3"><a xlink:href="$d6/dba/classmarian_1_1Config.html#a024ad20b2fa0be8112bb29aeef448d29" xlink:title="marian::Config::set">
<polygon fill="white" stroke="black" points="332,-6 332,-25 432,-25 432,-6 332,-6"/>
<text text-anchor="middle" x="382" y="-13" font-family="Helvetica,sans-Serif" font-size="10.00">marian::Config::set</text>
</a>
</g>
</g>
<!-- Node1&#45;&gt;Node3 -->
<g id="edge3" class="edge"><title>Node1&#45;&gt;Node3</title>
<path fill="none" stroke="midnightblue" d="M136.315,-13.8575C144.97,-13.7102 153.683,-13.5849 162,-13.5 221.552,-12.8924 236.449,-12.7995 296,-13.5 307.513,-13.6354 319.901,-13.874 331.562,-14.1403"/>
<polygon fill="midnightblue" stroke="midnightblue" points="136.144,-10.3599 126.208,-14.0394 136.27,-17.3588 136.144,-10.3599"/>
</g>
<!-- Node2&#45;&gt;Node3 -->
<g id="edge2" class="edge"><title>Node2&#45;&gt;Node3</title>
<path fill="none" stroke="midnightblue" d="M306.307,-26.3824C314.908,-25.1294 323.494,-23.8783 331.621,-22.6943"/>
<polygon fill="midnightblue" stroke="midnightblue" points="305.622,-22.9452 296.231,-27.8505 306.631,-29.8721 305.622,-22.9452"/>
</g>
</g>
</svg>
