<?xml version="1.0" encoding="UTF-8" standalone="no"?>
<!DOCTYPE svg PUBLIC "-//W3C//DTD SVG 1.1//EN"
 "http://www.w3.org/Graphics/SVG/1.1/DTD/svg11.dtd">
<!-- Generated by graphviz version 2.38.0 (20140413.2041)
 -->
<!-- Title: marian::Config::GetYamlFromNpz Pages: 1 -->
<svg width="491pt" height="66pt"
 viewBox="0.00 0.00 491.00 66.00" xmlns="http://www.w3.org/2000/svg" xmlns:xlink="http://www.w3.org/1999/xlink">
<g id="graph0" class="graph" transform="scale(1 1) rotate(0) translate(4 62)">
<title>marian::Config::GetYamlFromNpz</title>
<polygon fill="white" stroke="none" points="-4,4 -4,-62 487,-62 487,4 -4,4"/>
<!-- Node1 -->
<g id="node1" class="node"><title>Node1</title>
<polygon fill="#bfbfbf" stroke="black" points="0,-19.5 0,-38.5 165,-38.5 165,-19.5 0,-19.5"/>
<text text-anchor="middle" x="82.5" y="-26.5" font-family="Helvetica,sans-Serif" font-size="10.00">marian::Config::GetYamlFromNpz</text>
</g>
<!-- Node2 -->
<g id="node2" class="node"><title>Node2</title>
<g id="a_node2"><a xlink:href="$d6/dba/classmarian_1_1Config.html#a88b17725ec749ce6fa43e8722dbe0f7b" xlink:title="marian::Config::loadModel\lParameters">
<polygon fill="white" stroke="black" points="201,-14 201,-44 332,-44 332,-14 201,-14"/>
<text text-anchor="start" x="209" y="-32" font-family="Helvetica,sans-Serif" font-size="10.00">marian::Config::loadModel</text>
<text text-anchor="middle" x="266.5" y="-21" font-family="Helvetica,sans-Serif" font-size="10.00">Parameters</text>
</a>
</g>
</g>
<!-- Node1&#45;&gt;Node2 -->
<g id="edge1" class="edge"><title>Node1&#45;&gt;Node2</title>
<path fill="none" stroke="midnightblue" d="M175.343,-29C184.009,-29 192.665,-29 200.996,-29"/>
<polygon fill="midnightblue" stroke="midnightblue" points="175.184,-25.5001 165.183,-29 175.183,-32.5001 175.184,-25.5001"/>
</g>
<!-- Node3 -->
<g id="node3" class="node"><title>Node3</title>
<g id="a_node3"><a xlink:href="$d6/dba/classmarian_1_1Config.html#aa953cca7c4650e7e0538f00388d9f385" xlink:title="marian::Config::Config">
<polygon fill="white" stroke="black" points="368,-38.5 368,-57.5 483,-57.5 483,-38.5 368,-38.5"/>
<text text-anchor="middle" x="425.5" y="-45.5" font-family="Helvetica,sans-Serif" font-size="10.00">marian::Config::Config</text>
</a>
</g>
</g>
<!-- Node2&#45;&gt;Node3 -->
<g id="edge2" class="edge"><title>Node2&#45;&gt;Node3</title>
<path fill="none" stroke="midnightblue" d="M342.319,-38.0545C350.929,-39.0964 359.597,-40.1455 367.91,-41.1515"/>
<polygon fill="midnightblue" stroke="midnightblue" points="342.612,-34.5646 332.264,-36.8377 341.771,-41.5139 342.612,-34.5646"/>
</g>
<!-- Node4 -->
<g id="node4" class="node"><title>Node4</title>
<g id="a_node4"><a xlink:href="$d6/dba/classmarian_1_1Config.html#a024ad20b2fa0be8112bb29aeef448d29" xlink:title="marian::Config::set">
<polygon fill="white" stroke="black" points="375.5,-0.5 375.5,-19.5 475.5,-19.5 475.5,-0.5 375.5,-0.5"/>
<text text-anchor="middle" x="425.5" y="-7.5" font-family="Helvetica,sans-Serif" font-size="10.00">marian::Config::set</text>
</a>
</g>
</g>
<!-- Node2&#45;&gt;Node4 -->
<g id="edge3" class="edge"><title>Node2&#45;&gt;Node4</title>
<path fill="none" stroke="midnightblue" d="M342.439,-19.9309C353.576,-18.5831 364.809,-17.2238 375.238,-15.9616"/>
<polygon fill="midnightblue" stroke="midnightblue" points="341.771,-16.4861 332.264,-21.1623 342.612,-23.4354 341.771,-16.4861"/>
</g>
</g>
</svg>
