<?xml version="1.0" encoding="UTF-8" standalone="no"?>
<!DOCTYPE svg PUBLIC "-//W3C//DTD SVG 1.1//EN"
 "http://www.w3.org/Graphics/SVG/1.1/DTD/svg11.dtd">
<!-- Generated by graphviz version 2.38.0 (20140413.2041)
 -->
<!-- Title: marian::Config::set Pages: 1 -->
<svg width="619pt" height="127pt"
 viewBox="0.00 0.00 619.00 127.00" xmlns="http://www.w3.org/2000/svg" xmlns:xlink="http://www.w3.org/1999/xlink">
<g id="graph0" class="graph" transform="scale(1 1) rotate(0) translate(4 123)">
<title>marian::Config::set</title>
<polygon fill="white" stroke="none" points="-4,4 -4,-123 615,-123 615,4 -4,4"/>
<!-- Node1 -->
<g id="node1" class="node"><title>Node1</title>
<polygon fill="#bfbfbf" stroke="black" points="0,-50 0,-69 100,-69 100,-50 0,-50"/>
<text text-anchor="middle" x="50" y="-57" font-family="Helvetica,sans-Serif" font-size="10.00">marian::Config::set</text>
</g>
<!-- Node2 -->
<g id="node2" class="node"><title>Node2</title>
<g id="a_node2"><a xlink:href="$d6/dba/classmarian_1_1Config.html#a8bb35987743e02b1752b4598337510e4" xlink:title="marian::Config::getModel\lParameters">
<polygon fill="white" stroke="black" points="325.5,-44.5 325.5,-74.5 451.5,-74.5 451.5,-44.5 325.5,-44.5"/>
<text text-anchor="start" x="333.5" y="-62.5" font-family="Helvetica,sans-Serif" font-size="10.00">marian::Config::getModel</text>
<text text-anchor="middle" x="388.5" y="-51.5" font-family="Helvetica,sans-Serif" font-size="10.00">Parameters</text>
</a>
</g>
</g>
<!-- Node1&#45;&gt;Node2 -->
<g id="edge1" class="edge"><title>Node1&#45;&gt;Node2</title>
<path fill="none" stroke="midnightblue" d="M100.29,-59.5C156.953,-59.5 250.471,-59.5 315.332,-59.5"/>
<polygon fill="midnightblue" stroke="midnightblue" points="315.486,-63.0001 325.486,-59.5 315.486,-56.0001 315.486,-63.0001"/>
</g>
<!-- Node3 -->
<g id="node3" class="node"><title>Node3</title>
<g id="a_node3"><a xlink:href="$d6/dba/classmarian_1_1Config.html#a88b17725ec749ce6fa43e8722dbe0f7b" xlink:title="marian::Config::loadModel\lParameters">
<polygon fill="white" stroke="black" points="137.5,-88.5 137.5,-118.5 268.5,-118.5 268.5,-88.5 137.5,-88.5"/>
<text text-anchor="start" x="145.5" y="-106.5" font-family="Helvetica,sans-Serif" font-size="10.00">marian::Config::loadModel</text>
<text text-anchor="middle" x="203" y="-95.5" font-family="Helvetica,sans-Serif" font-size="10.00">Parameters</text>
</a>
</g>
</g>
<!-- Node1&#45;&gt;Node3 -->
<g id="edge2" class="edge"><title>Node1&#45;&gt;Node3</title>
<path fill="none" stroke="midnightblue" d="M83.7648,-69.0473C100.386,-73.8906 121.128,-79.9346 140.577,-85.602"/>
<polygon fill="midnightblue" stroke="midnightblue" points="139.719,-88.9973 150.298,-88.4346 141.677,-82.2768 139.719,-88.9973"/>
</g>
<!-- Node5 -->
<g id="node5" class="node"><title>Node5</title>
<g id="a_node5"><a xlink:href="$d6/dba/classmarian_1_1Config.html#a34c944633d8c66e513bf50da4469de39" xlink:title="marian::Config::saveModel\lParameters">
<polygon fill="white" stroke="black" points="136,-0.5 136,-30.5 270,-30.5 270,-0.5 136,-0.5"/>
<text text-anchor="start" x="144" y="-18.5" font-family="Helvetica,sans-Serif" font-size="10.00">marian::Config::saveModel</text>
<text text-anchor="middle" x="203" y="-7.5" font-family="Helvetica,sans-Serif" font-size="10.00">Parameters</text>
</a>
</g>
</g>
<!-- Node1&#45;&gt;Node5 -->
<g id="edge4" class="edge"><title>Node1&#45;&gt;Node5</title>
<path fill="none" stroke="midnightblue" d="M83.7648,-49.9527C100.386,-45.1094 121.128,-39.0654 140.577,-33.398"/>
<polygon fill="midnightblue" stroke="midnightblue" points="141.677,-36.7232 150.298,-30.5654 139.719,-30.0027 141.677,-36.7232"/>
</g>
<!-- Node4 -->
<g id="node4" class="node"><title>Node4</title>
<g id="a_node4"><a xlink:href="$d6/dba/classmarian_1_1Config.html#a2e2137806bbb54f3e8aab100680d62f0" xlink:title="marian::Config::GetYamlFromNpz">
<polygon fill="white" stroke="black" points="306,-94 306,-113 471,-113 471,-94 306,-94"/>
<text text-anchor="middle" x="388.5" y="-101" font-family="Helvetica,sans-Serif" font-size="10.00">marian::Config::GetYamlFromNpz</text>
</a>
</g>
</g>
<!-- Node3&#45;&gt;Node4 -->
<g id="edge3" class="edge"><title>Node3&#45;&gt;Node4</title>
<path fill="none" stroke="midnightblue" d="M268.695,-103.5C277.392,-103.5 286.445,-103.5 295.5,-103.5"/>
<polygon fill="midnightblue" stroke="midnightblue" points="295.708,-107 305.707,-103.5 295.707,-100 295.708,-107"/>
</g>
<!-- Node5&#45;&gt;Node2 -->
<g id="edge7" class="edge"><title>Node5&#45;&gt;Node2</title>
<path fill="none" stroke="midnightblue" d="M266.637,-30.5192C282.371,-34.2921 299.38,-38.3705 315.53,-42.243"/>
<polygon fill="midnightblue" stroke="midnightblue" points="314.916,-45.6947 325.456,-44.623 316.548,-38.8877 314.916,-45.6947"/>
</g>
<!-- Node6 -->
<g id="node6" class="node"><title>Node6</title>
<g id="a_node6"><a xlink:href="$d6/dba/classmarian_1_1Config.html#a1dd63c638735224839b6faa7050c7f7a" xlink:title="marian::Config::AddYamlToNpz">
<polygon fill="white" stroke="black" points="311,-6 311,-25 466,-25 466,-6 311,-6"/>
<text text-anchor="middle" x="388.5" y="-13" font-family="Helvetica,sans-Serif" font-size="10.00">marian::Config::AddYamlToNpz</text>
</a>
</g>
</g>
<!-- Node5&#45;&gt;Node6 -->
<g id="edge5" class="edge"><title>Node5&#45;&gt;Node6</title>
<path fill="none" stroke="midnightblue" d="M270.248,-15.5C280.103,-15.5 290.385,-15.5 300.586,-15.5"/>
<polygon fill="midnightblue" stroke="midnightblue" points="300.743,-19.0001 310.743,-15.5 300.743,-12.0001 300.743,-19.0001"/>
</g>
<!-- Node7 -->
<g id="node7" class="node"><title>Node7</title>
<g id="a_node7"><a xlink:href="$da/d22/namespacemarian.html#a4017daa42159d6a6465637380fb81bbf" xlink:title="marian::OutputYaml">
<polygon fill="white" stroke="black" points="507,-6 507,-25 611,-25 611,-6 507,-6"/>
<text text-anchor="middle" x="559" y="-13" font-family="Helvetica,sans-Serif" font-size="10.00">marian::OutputYaml</text>
</a>
</g>
</g>
<!-- Node6&#45;&gt;Node7 -->
<g id="edge6" class="edge"><title>Node6&#45;&gt;Node7</title>
<path fill="none" stroke="midnightblue" d="M466.354,-15.5C476.532,-15.5 486.855,-15.5 496.724,-15.5"/>
<polygon fill="midnightblue" stroke="midnightblue" points="496.817,-19.0001 506.817,-15.5 496.817,-12.0001 496.817,-19.0001"/>
</g>
</g>
</svg>
