<?xml version="1.0" encoding="UTF-8" standalone="no"?>
<!DOCTYPE svg PUBLIC "-//W3C//DTD SVG 1.1//EN"
 "http://www.w3.org/Graphics/SVG/1.1/DTD/svg11.dtd">
<!-- Generated by graphviz version 2.38.0 (20140413.2041)
 -->
<!-- Title: amunmt::ThreadPool::enqueue Pages: 1 -->
<svg width="642pt" height="182pt"
 viewBox="0.00 0.00 642.00 182.00" xmlns="http://www.w3.org/2000/svg" xmlns:xlink="http://www.w3.org/1999/xlink">
<g id="graph0" class="graph" transform="scale(1 1) rotate(0) translate(4 178)">
<title>amunmt::ThreadPool::enqueue</title>
<polygon fill="white" stroke="none" points="-4,4 -4,-178 638,-178 638,4 -4,4"/>
<!-- Node1 -->
<g id="node1" class="node"><title>Node1</title>
<polygon fill="#bfbfbf" stroke="black" points="0,-39 0,-69 107,-69 107,-39 0,-39"/>
<text text-anchor="start" x="8" y="-57" font-family="Helvetica,sans-Serif" font-size="10.00">amunmt::ThreadPool</text>
<text text-anchor="middle" x="53.5" y="-46" font-family="Helvetica,sans-Serif" font-size="10.00">::enqueue</text>
</g>
<!-- Node2 -->
<g id="node2" class="node"><title>Node2</title>
<g id="a_node2"><a xlink:href="../../d5/d49/amunmt_8cpp.html#a86ebd9110196f3b5328ad3c3d31cd007" target="_top" xlink:title="translate">
<polygon fill="white" stroke="black" points="192.5,-88.5 192.5,-107.5 246.5,-107.5 246.5,-88.5 192.5,-88.5"/>
<text text-anchor="middle" x="219.5" y="-95.5" font-family="Helvetica,sans-Serif" font-size="10.00">translate</text>
</a>
</g>
</g>
<!-- Node1&#45;&gt;Node2 -->
<g id="edge1" class="edge"><title>Node1&#45;&gt;Node2</title>
<path fill="none" stroke="midnightblue" d="M117.103,-71.026C125.799,-73.3768 134.621,-75.7541 143,-78 159.372,-82.3883 177.756,-87.2595 192.284,-91.0958"/>
<polygon fill="midnightblue" stroke="midnightblue" points="117.935,-67.6253 107.368,-68.3914 116.106,-74.3822 117.935,-67.6253"/>
</g>
<!-- Node10 -->
<g id="node10" class="node"><title>Node10</title>
<g id="a_node10"><a xlink:href="../../d0/dd3/classamunmt_1_1GPU_1_1ClassLanguageModel.html#a0cbf0d5fec22724b1e8e33e4aa6f779c" target="_top" xlink:title="amunmt::GPU::ClassLanguage\lModel::Score">
<polygon fill="white" stroke="black" points="143,-39 143,-69 296,-69 296,-39 143,-39"/>
<text text-anchor="start" x="151" y="-57" font-family="Helvetica,sans-Serif" font-size="10.00">amunmt::GPU::ClassLanguage</text>
<text text-anchor="middle" x="219.5" y="-46" font-family="Helvetica,sans-Serif" font-size="10.00">Model::Score</text>
</a>
</g>
</g>
<!-- Node1&#45;&gt;Node10 -->
<g id="edge9" class="edge"><title>Node1&#45;&gt;Node10</title>
<path fill="none" stroke="midnightblue" d="M117.308,-54C125.653,-54 134.279,-54 142.814,-54"/>
<polygon fill="midnightblue" stroke="midnightblue" points="117.293,-50.5001 107.293,-54 117.293,-57.5001 117.293,-50.5001"/>
</g>
<!-- Node11 -->
<g id="node11" class="node"><title>Node11</title>
<g id="a_node11"><a xlink:href="../../d0/d73/decoder__main_8cpp.html#a0ddf1224851353fc92bfbff6f499fa97" target="_top" xlink:title="main">
<polygon fill="white" stroke="black" points="200.5,-0.5 200.5,-19.5 238.5,-19.5 238.5,-0.5 200.5,-0.5"/>
<text text-anchor="middle" x="219.5" y="-7.5" font-family="Helvetica,sans-Serif" font-size="10.00">main</text>
</a>
</g>
</g>
<!-- Node1&#45;&gt;Node11 -->
<g id="edge10" class="edge"><title>Node1&#45;&gt;Node11</title>
<path fill="none" stroke="midnightblue" d="M116.705,-36.1847C125.522,-33.7307 134.482,-31.2743 143,-29 162.588,-23.7697 185.142,-18.1455 200.462,-14.3847"/>
<polygon fill="midnightblue" stroke="midnightblue" points="115.531,-32.8788 106.844,-38.9445 117.417,-39.6198 115.531,-32.8788"/>
</g>
<!-- Node3 -->
<g id="node3" class="node"><title>Node3</title>
<g id="a_node3"><a xlink:href="../../d5/d49/amunmt_8cpp.html#a1fa5ce5d158455cf2d152ebcbcdf29d0" target="_top" xlink:title="BOOST_PYTHON_MODULE">
<polygon fill="white" stroke="black" points="332,-154.5 332,-173.5 478,-173.5 478,-154.5 332,-154.5"/>
<text text-anchor="middle" x="405" y="-161.5" font-family="Helvetica,sans-Serif" font-size="10.00">BOOST_PYTHON_MODULE</text>
</a>
</g>
</g>
<!-- Node2&#45;&gt;Node3 -->
<g id="edge2" class="edge"><title>Node2&#45;&gt;Node3</title>
<path fill="none" stroke="midnightblue" d="M249.94,-111.753C272.169,-121.806 303.594,-135.319 332,-145 342.157,-148.461 353.296,-151.676 363.713,-154.439"/>
<polygon fill="midnightblue" stroke="midnightblue" points="251.266,-108.511 240.716,-107.541 248.359,-114.879 251.266,-108.511"/>
</g>
<!-- Node4 -->
<g id="node4" class="node"><title>Node4</title>
<g id="a_node4"><a xlink:href="../../d6/d38/classmarian_1_1ConfigParser.html#a07165d2c1c885c858d8127eb09f00e71" target="_top" xlink:title="marian::ConfigParser\l::addOptionsTranslate">
<polygon fill="white" stroke="black" points="348.5,-105 348.5,-135 461.5,-135 461.5,-105 348.5,-105"/>
<text text-anchor="start" x="356.5" y="-123" font-family="Helvetica,sans-Serif" font-size="10.00">marian::ConfigParser</text>
<text text-anchor="middle" x="405" y="-112" font-family="Helvetica,sans-Serif" font-size="10.00">::addOptionsTranslate</text>
</a>
</g>
</g>
<!-- Node2&#45;&gt;Node4 -->
<g id="edge3" class="edge"><title>Node2&#45;&gt;Node4</title>
<path fill="none" stroke="midnightblue" d="M256.989,-102.375C283.066,-105.501 318.636,-109.766 348.255,-113.317"/>
<polygon fill="midnightblue" stroke="midnightblue" points="257.137,-98.8674 246.791,-101.152 256.303,-105.818 257.137,-98.8674"/>
</g>
<!-- Node5 -->
<g id="node5" class="node"><title>Node5</title>
<g id="a_node5"><a xlink:href="../../d2/d47/marian_2src_2common_2logging_8h.html#a32a13f91eb216c334ec310b2a8a2f10c" target="_top" xlink:title="createLoggers">
<polygon fill="white" stroke="black" points="366,-66.5 366,-85.5 444,-85.5 444,-66.5 366,-66.5"/>
<text text-anchor="middle" x="405" y="-73.5" font-family="Helvetica,sans-Serif" font-size="10.00">createLoggers</text>
</a>
</g>
</g>
<!-- Node2&#45;&gt;Node5 -->
<g id="edge4" class="edge"><title>Node2&#45;&gt;Node5</title>
<path fill="none" stroke="midnightblue" d="M256.916,-93.6341C288.461,-89.852 333.938,-84.3998 365.953,-80.5615"/>
<polygon fill="midnightblue" stroke="midnightblue" points="256.303,-90.1824 246.791,-94.8479 257.137,-97.1326 256.303,-90.1824"/>
</g>
<!-- Node8 -->
<g id="node8" class="node"><title>Node8</title>
<g id="a_node8"><a xlink:href="../../db/de8/classmarian_1_1OutputCollector.html#aac7fb8a5e89ce5a9bac56a6a414e7fe5" target="_top" xlink:title="marian::OutputCollector\l::Write">
<polygon fill="white" stroke="black" points="345,-17 345,-47 465,-47 465,-17 345,-17"/>
<text text-anchor="start" x="353" y="-35" font-family="Helvetica,sans-Serif" font-size="10.00">marian::OutputCollector</text>
<text text-anchor="middle" x="405" y="-24" font-family="Helvetica,sans-Serif" font-size="10.00">::Write</text>
</a>
</g>
</g>
<!-- Node2&#45;&gt;Node8 -->
<g id="edge7" class="edge"><title>Node2&#45;&gt;Node8</title>
<path fill="none" stroke="midnightblue" d="M256.407,-90.5832C269.157,-87.4061 283.45,-83.2103 296,-78 313.107,-70.8975 315.172,-64.7409 332,-57 339.694,-53.461 348.04,-50.129 356.233,-47.1216"/>
<polygon fill="midnightblue" stroke="midnightblue" points="255.5,-87.2012 246.577,-92.9128 257.114,-94.0126 255.5,-87.2012"/>
</g>
<!-- Node6 -->
<g id="node6" class="node"><title>Node6</title>
<g id="a_node6"><a xlink:href="../../d6/dba/classmarian_1_1Config.html#aa953cca7c4650e7e0538f00388d9f385" target="_top" xlink:title="marian::Config::Config">
<polygon fill="white" stroke="black" points="516.5,-104.5 516.5,-123.5 631.5,-123.5 631.5,-104.5 516.5,-104.5"/>
<text text-anchor="middle" x="574" y="-111.5" font-family="Helvetica,sans-Serif" font-size="10.00">marian::Config::Config</text>
</a>
</g>
</g>
<!-- Node5&#45;&gt;Node6 -->
<g id="edge5" class="edge"><title>Node5&#45;&gt;Node6</title>
<path fill="none" stroke="midnightblue" d="M454.385,-87.0098C478.65,-92.5312 507.753,-99.1534 531.058,-104.456"/>
<polygon fill="midnightblue" stroke="midnightblue" points="454.841,-83.524 444.313,-84.718 453.287,-90.3495 454.841,-83.524"/>
</g>
<!-- Node7 -->
<g id="node7" class="node"><title>Node7</title>
<g id="a_node7"><a xlink:href="../../dc/df8/iris_8cpp.html#ae66f6b31b5ad750f1fe042a706a4e3d4" target="_top" xlink:title="main">
<polygon fill="white" stroke="black" points="555,-66.5 555,-85.5 593,-85.5 593,-66.5 555,-66.5"/>
<text text-anchor="middle" x="574" y="-73.5" font-family="Helvetica,sans-Serif" font-size="10.00">main</text>
</a>
</g>
</g>
<!-- Node5&#45;&gt;Node7 -->
<g id="edge6" class="edge"><title>Node5&#45;&gt;Node7</title>
<path fill="none" stroke="midnightblue" d="M454.424,-76C488.065,-76 530.988,-76 554.875,-76"/>
<polygon fill="midnightblue" stroke="midnightblue" points="454.313,-72.5001 444.313,-76 454.313,-79.5001 454.313,-72.5001"/>
</g>
<!-- Node9 -->
<g id="node9" class="node"><title>Node9</title>
<g id="a_node9"><a xlink:href="../../db/de8/classmarian_1_1OutputCollector.html#a6b877d0629db1fe8d5f5c920025cc859" target="_top" xlink:title="marian::OutputCollector\l::OutputCollector">
<polygon fill="white" stroke="black" points="514,-17 514,-47 634,-47 634,-17 514,-17"/>
<text text-anchor="start" x="522" y="-35" font-family="Helvetica,sans-Serif" font-size="10.00">marian::OutputCollector</text>
<text text-anchor="middle" x="574" y="-24" font-family="Helvetica,sans-Serif" font-size="10.00">::OutputCollector</text>
</a>
</g>
</g>
<!-- Node8&#45;&gt;Node9 -->
<g id="edge8" class="edge"><title>Node8&#45;&gt;Node9</title>
<path fill="none" stroke="midnightblue" d="M475.459,-32C488.216,-32 501.423,-32 513.843,-32"/>
<polygon fill="midnightblue" stroke="midnightblue" points="475.348,-28.5001 465.348,-32 475.348,-35.5001 475.348,-28.5001"/>
</g>
</g>
</svg>
