<?xml version="1.0" encoding="UTF-8" standalone="no"?>
<!DOCTYPE svg PUBLIC "-//W3C//DTD SVG 1.1//EN"
 "http://www.w3.org/Graphics/SVG/1.1/DTD/svg11.dtd">
<!-- Generated by graphviz version 2.38.0 (20140413.2041)
 -->
<!-- Title: marian::rnn::Cell Pages: 1 -->
<svg width="307pt" height="420pt"
 viewBox="0.00 0.00 306.50 420.00" xmlns="http://www.w3.org/2000/svg" xmlns:xlink="http://www.w3.org/1999/xlink">
<g id="graph0" class="graph" transform="scale(1 1) rotate(0) translate(4 416)">
<title>marian::rnn::Cell</title>
<polygon fill="white" stroke="none" points="-4,4 -4,-416 302.5,-416 302.5,4 -4,4"/>
<!-- Node1 -->
<g id="node1" class="node"><title>Node1</title>
<polygon fill="#bfbfbf" stroke="black" points="132.5,-0.5 132.5,-123.5 225.5,-123.5 225.5,-0.5 132.5,-0.5"/>
<text text-anchor="middle" x="179" y="-111.5" font-family="Helvetica,sans-Serif" font-size="10.00">marian::rnn::Cell</text>
<polyline fill="none" stroke="black" points="132.5,-104.5 225.5,-104.5 "/>
<text text-anchor="middle" x="179" y="-92.5" font-family="Helvetica,sans-Serif" font-size="10.00"> </text>
<polyline fill="none" stroke="black" points="132.5,-85.5 225.5,-85.5 "/>
<text text-anchor="start" x="140.5" y="-73.5" font-family="Helvetica,sans-Serif" font-size="10.00">+ Cell()</text>
<text text-anchor="start" x="140.5" y="-62.5" font-family="Helvetica,sans-Serif" font-size="10.00">+ apply()</text>
<text text-anchor="start" x="140.5" y="-51.5" font-family="Helvetica,sans-Serif" font-size="10.00">+ getLazyInputs()</text>
<text text-anchor="start" x="140.5" y="-40.5" font-family="Helvetica,sans-Serif" font-size="10.00">+ setLazyInputs()</text>
<text text-anchor="start" x="140.5" y="-29.5" font-family="Helvetica,sans-Serif" font-size="10.00">+ applyInput()</text>
<text text-anchor="start" x="140.5" y="-18.5" font-family="Helvetica,sans-Serif" font-size="10.00">+ applyState()</text>
<text text-anchor="start" x="140.5" y="-7.5" font-family="Helvetica,sans-Serif" font-size="10.00">+ clear()</text>
</g>
<!-- Node2 -->
<g id="node2" class="node"><title>Node2</title>
<g id="a_node2"><a xlink:href="../../d4/d04/classmarian_1_1rnn_1_1Stackable.html" target="_top" xlink:title="{marian::rnn::Stackable\n|# options_\l|+ Stackable()\l+ ~Stackable()\l+ as()\l+ is()\l+ getOptions()\l+ opt()\l+ opt()\l+ clear()\l}">
<polygon fill="white" stroke="black" points="4.5,-171.5 4.5,-305.5 119.5,-305.5 119.5,-171.5 4.5,-171.5"/>
<text text-anchor="middle" x="62" y="-293.5" font-family="Helvetica,sans-Serif" font-size="10.00">marian::rnn::Stackable</text>
<polyline fill="none" stroke="black" points="4.5,-286.5 119.5,-286.5 "/>
<text text-anchor="start" x="12.5" y="-274.5" font-family="Helvetica,sans-Serif" font-size="10.00"># options_</text>
<polyline fill="none" stroke="black" points="4.5,-267.5 119.5,-267.5 "/>
<text text-anchor="start" x="12.5" y="-255.5" font-family="Helvetica,sans-Serif" font-size="10.00">+ Stackable()</text>
<text text-anchor="start" x="12.5" y="-244.5" font-family="Helvetica,sans-Serif" font-size="10.00">+ ~Stackable()</text>
<text text-anchor="start" x="12.5" y="-233.5" font-family="Helvetica,sans-Serif" font-size="10.00">+ as()</text>
<text text-anchor="start" x="12.5" y="-222.5" font-family="Helvetica,sans-Serif" font-size="10.00">+ is()</text>
<text text-anchor="start" x="12.5" y="-211.5" font-family="Helvetica,sans-Serif" font-size="10.00">+ getOptions()</text>
<text text-anchor="start" x="12.5" y="-200.5" font-family="Helvetica,sans-Serif" font-size="10.00">+ opt()</text>
<text text-anchor="start" x="12.5" y="-189.5" font-family="Helvetica,sans-Serif" font-size="10.00">+ opt()</text>
<text text-anchor="start" x="12.5" y="-178.5" font-family="Helvetica,sans-Serif" font-size="10.00">+ clear()</text>
</a>
</g>
</g>
<!-- Node2&#45;&gt;Node1 -->
<g id="edge1" class="edge"><title>Node2&#45;&gt;Node1</title>
<path fill="none" stroke="midnightblue" d="M112.259,-162.541C120.988,-149.522 129.968,-136.129 138.398,-123.555"/>
<polygon fill="none" stroke="midnightblue" points="109.228,-160.776 106.566,-171.031 115.042,-164.675 109.228,-160.776"/>
</g>
<!-- Node3 -->
<g id="node3" class="node"><title>Node3</title>
<polygon fill="white" stroke="#bfbfbf" points="0,-343.5 0,-411.5 124,-411.5 124,-343.5 0,-343.5"/>
<text text-anchor="start" x="8" y="-399.5" font-family="Helvetica,sans-Serif" font-size="10.00">std::enable_shared</text>
<text text-anchor="middle" x="62" y="-388.5" font-family="Helvetica,sans-Serif" font-size="10.00">_from_this&lt; Stackable &gt;</text>
<polyline fill="none" stroke="#bfbfbf" points="0,-381.5 124,-381.5 "/>
<text text-anchor="middle" x="62" y="-369.5" font-family="Helvetica,sans-Serif" font-size="10.00"> </text>
<polyline fill="none" stroke="#bfbfbf" points="0,-362.5 124,-362.5 "/>
<text text-anchor="middle" x="62" y="-350.5" font-family="Helvetica,sans-Serif" font-size="10.00"> </text>
</g>
<!-- Node3&#45;&gt;Node2 -->
<g id="edge2" class="edge"><title>Node3&#45;&gt;Node2</title>
<path fill="none" stroke="midnightblue" d="M62,-333.33C62,-324.515 62,-315.049 62,-305.642"/>
<polygon fill="none" stroke="midnightblue" points="58.5001,-333.336 62,-343.336 65.5001,-333.336 58.5001,-333.336"/>
</g>
<!-- Node4 -->
<g id="node4" class="node"><title>Node4</title>
<polygon fill="white" stroke="#bfbfbf" points="137.5,-199 137.5,-278 298.5,-278 298.5,-199 137.5,-199"/>
<text text-anchor="start" x="145.5" y="-266" font-family="Helvetica,sans-Serif" font-size="10.00">std::vector&lt; std::function</text>
<text text-anchor="start" x="145.5" y="-255" font-family="Helvetica,sans-Serif" font-size="10.00">&lt; Expr(Ptr&lt; marian::Accumulator</text>
<text text-anchor="middle" x="218" y="-244" font-family="Helvetica,sans-Serif" font-size="10.00">::RNN &gt;)&gt; &gt;</text>
<polyline fill="none" stroke="#bfbfbf" points="137.5,-237 298.5,-237 "/>
<text text-anchor="middle" x="218" y="-225" font-family="Helvetica,sans-Serif" font-size="10.00"> </text>
<polyline fill="none" stroke="#bfbfbf" points="137.5,-218 298.5,-218 "/>
<text text-anchor="middle" x="218" y="-206" font-family="Helvetica,sans-Serif" font-size="10.00"> </text>
</g>
<!-- Node4&#45;&gt;Node1 -->
<g id="edge3" class="edge"><title>Node4&#45;&gt;Node1</title>
<path fill="none" stroke="#404040" d="M209.345,-198.773C205.179,-180.134 200.045,-157.165 195.193,-135.454"/>
<polygon fill="none" stroke="#404040" points="195.152,-135.268 189.939,-130.285 192.534,-123.557 197.747,-128.54 195.152,-135.268"/>
<text text-anchor="middle" x="227.5" y="-145" font-family="Helvetica,sans-Serif" font-size="10.00"> #lazyInputs_</text>
</g>
</g>
</svg>
