<?xml version="1.0" encoding="UTF-8" standalone="no"?>
<!DOCTYPE svg PUBLIC "-//W3C//DTD SVG 1.1//EN"
 "http://www.w3.org/Graphics/SVG/1.1/DTD/svg11.dtd">
<!-- Generated by graphviz version 2.38.0 (20140413.2041)
 -->
<!-- Title: marian::rnn::MultiCellInput Pages: 1 -->
<!--zoomable 515 -->
<svg id="main" version="1.1" xmlns="http://www.w3.org/2000/svg" xmlns:xlink="http://www.w3.org/1999/xlink" xml:space="preserve" onload="init(evt)">
<style type="text/css"><![CDATA[
.edge:hover path { stroke: red; }
.edge:hover polygon { stroke: red; fill: red; }
]]></style>
<script type="text/javascript"><![CDATA[
var edges = document.getElementsByTagName('g');
if (edges && edges.length) {
  for (var i=0;i<edges.length;i++) {
    if (edges[i].id.substr(0,4)=='edge') {
      edges[i].setAttribute('class','edge');
    }
  }
}
]]></script>
        <defs>
                <circle id="rim" cx="0" cy="0" r="7"/>
                <circle id="rim2" cx="0" cy="0" r="3.5"/>
                <g id="zoomPlus">
                        <use xlink:href="#rim" fill="#404040">
                                <set attributeName="fill" to="#808080" begin="zoomplus.mouseover" end="zoomplus.mouseout"/>
                        </use>
                        <path d="M-4,0h8M0,-4v8" fill="none" stroke="white" stroke-width="1.5" pointer-events="none"/>
                </g>
                <g id="zoomMin">
                        <use xlink:href="#rim" fill="#404040">
                                <set attributeName="fill" to="#808080" begin="zoomminus.mouseover" end="zoomminus.mouseout"/>
                        </use>
                        <path d="M-4,0h8" fill="none" stroke="white" stroke-width="1.5" pointer-events="none"/>
                </g>
                <g id="dirArrow">
                        <path fill="none" stroke="white" stroke-width="1.5" d="M0,-3.0v7 M-2.5,-0.5L0,-3.0L2.5,-0.5"/>
                </g>
               <g id="resetDef">
                       <use xlink:href="#rim2" fill="#404040">
                               <set attributeName="fill" to="#808080" begin="reset.mouseover" end="reset.mouseout"/>
                       </use>
               </g>
        </defs>

<script type="text/javascript">
var viewWidth = 267;
var viewHeight = 515;
var sectionId = 'dynsection-1';
</script>
<script xlink:href="../../svgpan.js"/>
<svg id="graph" class="graph">
<g id="viewport">
<title>marian::rnn::MultiCellInput</title>
<polygon fill="white" stroke="none" points="-4,4 -4,-511 262.5,-511 262.5,4 -4,4"/>
<!-- Node1 -->
<g id="node1" class="node"><title>Node1</title>
<polygon fill="#bfbfbf" stroke="black" points="97.5,-0.5 97.5,-101.5 228.5,-101.5 228.5,-0.5 97.5,-0.5"/>
<text text-anchor="middle" x="163" y="-89.5" font-family="Helvetica,sans-Serif" font-size="10.00">marian::rnn::MultiCellInput</text>
<polyline fill="none" stroke="black" points="97.5,-82.5 228.5,-82.5 "/>
<text text-anchor="middle" x="163" y="-70.5" font-family="Helvetica,sans-Serif" font-size="10.00"> </text>
<polyline fill="none" stroke="black" points="97.5,-63.5 228.5,-63.5 "/>
<text text-anchor="start" x="105.5" y="-51.5" font-family="Helvetica,sans-Serif" font-size="10.00">+ MultiCellInput()</text>
<text text-anchor="start" x="105.5" y="-40.5" font-family="Helvetica,sans-Serif" font-size="10.00">+ push_back()</text>
<text text-anchor="start" x="105.5" y="-29.5" font-family="Helvetica,sans-Serif" font-size="10.00">+ apply()</text>
<text text-anchor="start" x="105.5" y="-18.5" font-family="Helvetica,sans-Serif" font-size="10.00">+ dimOutput()</text>
<text text-anchor="start" x="105.5" y="-7.5" font-family="Helvetica,sans-Serif" font-size="10.00">+ clear()</text>
</g>
<!-- Node2 -->
<g id="node2" class="node"><title>Node2</title>
<g id="a_node2"><a xlink:href="../../dd/d5d/classmarian_1_1rnn_1_1CellInput.html" target="_top" xlink:title="{marian::rnn::CellInput\n||+ CellInput()\l+ apply()\l+ dimOutput()\l}">
<polygon fill="white" stroke="black" points="7,-149.5 7,-228.5 117,-228.5 117,-149.5 7,-149.5"/>
<text text-anchor="middle" x="62" y="-216.5" font-family="Helvetica,sans-Serif" font-size="10.00">marian::rnn::CellInput</text>
<polyline fill="none" stroke="black" points="7,-209.5 117,-209.5 "/>
<text text-anchor="middle" x="62" y="-197.5" font-family="Helvetica,sans-Serif" font-size="10.00"> </text>
<polyline fill="none" stroke="black" points="7,-190.5 117,-190.5 "/>
<text text-anchor="start" x="15" y="-178.5" font-family="Helvetica,sans-Serif" font-size="10.00">+ CellInput()</text>
<text text-anchor="start" x="15" y="-167.5" font-family="Helvetica,sans-Serif" font-size="10.00">+ apply()</text>
<text text-anchor="start" x="15" y="-156.5" font-family="Helvetica,sans-Serif" font-size="10.00">+ dimOutput()</text>
</a>
</g>
</g>
<!-- Node2&#45;&gt;Node1 -->
<g id="edge1" class="edge"><title>Node2&#45;&gt;Node1</title>
<path fill="none" stroke="midnightblue" d="M96.7316,-141.233C106.155,-128.544 116.392,-114.76 125.938,-101.905"/>
<polygon fill="none" stroke="midnightblue" points="93.8247,-139.277 90.6724,-149.392 99.4445,-143.45 93.8247,-139.277"/>
</g>
<!-- Node3 -->
<g id="node3" class="node"><title>Node3</title>
<g id="a_node3"><a xlink:href="../../d4/d04/classmarian_1_1rnn_1_1Stackable.html" target="_top" xlink:title="{marian::rnn::Stackable\n|# options_\l|+ Stackable()\l+ ~Stackable()\l+ as()\l+ is()\l+ getOptions()\l+ opt()\l+ opt()\l+ clear()\l}">
<polygon fill="white" stroke="black" points="4.5,-266.5 4.5,-400.5 119.5,-400.5 119.5,-266.5 4.5,-266.5"/>
<text text-anchor="middle" x="62" y="-388.5" font-family="Helvetica,sans-Serif" font-size="10.00">marian::rnn::Stackable</text>
<polyline fill="none" stroke="black" points="4.5,-381.5 119.5,-381.5 "/>
<text text-anchor="start" x="12.5" y="-369.5" font-family="Helvetica,sans-Serif" font-size="10.00"># options_</text>
<polyline fill="none" stroke="black" points="4.5,-362.5 119.5,-362.5 "/>
<text text-anchor="start" x="12.5" y="-350.5" font-family="Helvetica,sans-Serif" font-size="10.00">+ Stackable()</text>
<text text-anchor="start" x="12.5" y="-339.5" font-family="Helvetica,sans-Serif" font-size="10.00">+ ~Stackable()</text>
<text text-anchor="start" x="12.5" y="-328.5" font-family="Helvetica,sans-Serif" font-size="10.00">+ as()</text>
<text text-anchor="start" x="12.5" y="-317.5" font-family="Helvetica,sans-Serif" font-size="10.00">+ is()</text>
<text text-anchor="start" x="12.5" y="-306.5" font-family="Helvetica,sans-Serif" font-size="10.00">+ getOptions()</text>
<text text-anchor="start" x="12.5" y="-295.5" font-family="Helvetica,sans-Serif" font-size="10.00">+ opt()</text>
<text text-anchor="start" x="12.5" y="-284.5" font-family="Helvetica,sans-Serif" font-size="10.00">+ opt()</text>
<text text-anchor="start" x="12.5" y="-273.5" font-family="Helvetica,sans-Serif" font-size="10.00">+ clear()</text>
</a>
</g>
</g>
<!-- Node3&#45;&gt;Node2 -->
<g id="edge2" class="edge"><title>Node3&#45;&gt;Node2</title>
<path fill="none" stroke="midnightblue" d="M62,-256.048C62,-246.655 62,-237.384 62,-228.892"/>
<polygon fill="none" stroke="midnightblue" points="58.5001,-256.256 62,-266.256 65.5001,-256.256 58.5001,-256.256"/>
</g>
<!-- Node4 -->
<g id="node4" class="node"><title>Node4</title>
<polygon fill="white" stroke="#bfbfbf" points="0,-438.5 0,-506.5 124,-506.5 124,-438.5 0,-438.5"/>
<text text-anchor="start" x="8" y="-494.5" font-family="Helvetica,sans-Serif" font-size="10.00">std::enable_shared</text>
<text text-anchor="middle" x="62" y="-483.5" font-family="Helvetica,sans-Serif" font-size="10.00">_from_this&lt; Stackable &gt;</text>
<polyline fill="none" stroke="#bfbfbf" points="0,-476.5 124,-476.5 "/>
<text text-anchor="middle" x="62" y="-464.5" font-family="Helvetica,sans-Serif" font-size="10.00"> </text>
<polyline fill="none" stroke="#bfbfbf" points="0,-457.5 124,-457.5 "/>
<text text-anchor="middle" x="62" y="-445.5" font-family="Helvetica,sans-Serif" font-size="10.00"> </text>
</g>
<!-- Node4&#45;&gt;Node3 -->
<g id="edge3" class="edge"><title>Node4&#45;&gt;Node3</title>
<path fill="none" stroke="midnightblue" d="M62,-428.33C62,-419.515 62,-410.049 62,-400.642"/>
<polygon fill="none" stroke="midnightblue" points="58.5001,-428.336 62,-438.336 65.5001,-428.336 58.5001,-428.336"/>
</g>
<!-- Node5 -->
<g id="node5" class="node"><title>Node5</title>
<polygon fill="white" stroke="#bfbfbf" points="135.5,-155 135.5,-223 258.5,-223 258.5,-155 135.5,-155"/>
<text text-anchor="start" x="143.5" y="-211" font-family="Helvetica,sans-Serif" font-size="10.00">std::vector&lt; Ptr&lt; marian</text>
<text text-anchor="middle" x="197" y="-200" font-family="Helvetica,sans-Serif" font-size="10.00">::rnn::CellInput &gt; &gt;</text>
<polyline fill="none" stroke="#bfbfbf" points="135.5,-193 258.5,-193 "/>
<text text-anchor="middle" x="197" y="-181" font-family="Helvetica,sans-Serif" font-size="10.00"> </text>
<polyline fill="none" stroke="#bfbfbf" points="135.5,-174 258.5,-174 "/>
<text text-anchor="middle" x="197" y="-162" font-family="Helvetica,sans-Serif" font-size="10.00"> </text>
</g>
<!-- Node5&#45;&gt;Node1 -->
<g id="edge4" class="edge"><title>Node5&#45;&gt;Node1</title>
<path fill="none" stroke="#404040" d="M188.683,-154.731C185.565,-142.259 181.914,-127.657 178.36,-113.441"/>
<polygon fill="none" stroke="#404040" points="178.322,-113.287 172.986,-108.437 175.411,-101.646 180.747,-106.496 178.322,-113.287"/>
<text text-anchor="middle" x="203" y="-123" font-family="Helvetica,sans-Serif" font-size="10.00"> #inputs_</text>
</g>
</g>
</svg>
        <g id="navigator" transform="translate(0 0)" fill="#404254">
                <rect fill="#f2f5e9" fill-opacity="0.5" stroke="#606060" stroke-width=".5" x="0" y="0" width="60" height="60"/>
                <use id="zoomplus" xlink:href="#zoomPlus" x="17" y="9" onmousedown="handleZoom(evt,'in')"/>
                <use id="zoomminus" xlink:href="#zoomMin" x="42" y="9" onmousedown="handleZoom(evt,'out')"/>
                <use id="reset" xlink:href="#resetDef" x="30" y="36" onmousedown="handleReset()"/>
                <g id="arrowUp" xlink:href="#dirArrow" transform="translate(30 24)" onmousedown="handlePan(0,-1)">
                  <use xlink:href="#rim" fill="#404040">
                        <set attributeName="fill" to="#808080" begin="arrowUp.mouseover" end="arrowUp.mouseout"/>
                  </use>
                  <path fill="none" stroke="white" stroke-width="1.5" d="M0,-3.0v7 M-2.5,-0.5L0,-3.0L2.5,-0.5"/>
                </g>
                <g id="arrowRight" xlink:href="#dirArrow" transform="rotate(90) translate(36 -43)" onmousedown="handlePan(1,0)">
                  <use xlink:href="#rim" fill="#404040">
                        <set attributeName="fill" to="#808080" begin="arrowRight.mouseover" end="arrowRight.mouseout"/>
                  </use>
                  <path fill="none" stroke="white" stroke-width="1.5" d="M0,-3.0v7 M-2.5,-0.5L0,-3.0L2.5,-0.5"/>
                </g>
                <g id="arrowDown" xlink:href="#dirArrow" transform="rotate(180) translate(-30 -48)" onmousedown="handlePan(0,1)">
                  <use xlink:href="#rim" fill="#404040">
                        <set attributeName="fill" to="#808080" begin="arrowDown.mouseover" end="arrowDown.mouseout"/>
                  </use>
                  <path fill="none" stroke="white" stroke-width="1.5" d="M0,-3.0v7 M-2.5,-0.5L0,-3.0L2.5,-0.5"/>
                </g>
                <g id="arrowLeft" xlink:href="#dirArrow" transform="rotate(270) translate(-36 17)" onmousedown="handlePan(-1,0)">
                  <use xlink:href="#rim" fill="#404040">
                        <set attributeName="fill" to="#808080" begin="arrowLeft.mouseover" end="arrowLeft.mouseout"/>
                  </use>
                  <path fill="none" stroke="white" stroke-width="1.5" d="M0,-3.0v7 M-2.5,-0.5L0,-3.0L2.5,-0.5"/>
                </g>
        </g>
        <svg viewBox="0 0 15 15" width="100%" height="30px" preserveAspectRatio="xMaxYMin meet">
         <g id="arrow_out" transform="scale(0.3 0.3)">
          <a xlink:href="classmarian_1_1rnn_1_1MultiCellInput__coll__graph_org.svg" target="_base">
           <rect id="button" ry="5" rx="5" y="6" x="6" height="38" width="38"
                fill="#f2f5e9" fill-opacity="0.5" stroke="#606060" stroke-width="1.0"/>
           <path id="arrow"
             d="M 11.500037,31.436501 C 11.940474,20.09759 22.043105,11.32322 32.158766,21.979434 L 37.068811,17.246167 C 37.068811,17.246167 37.088388,32 37.088388,32 L 22.160133,31.978069 C 22.160133,31.978069 26.997745,27.140456 26.997745,27.140456 C 18.528582,18.264221 13.291696,25.230495 11.500037,31.436501 z"
             style="fill:#404040;"/>
          </a>
         </g>
        </svg>
</svg>
