<?xml version="1.0" encoding="UTF-8" standalone="no"?>
<!DOCTYPE svg PUBLIC "-//W3C//DTD SVG 1.1//EN"
 "http://www.w3.org/Graphics/SVG/1.1/DTD/svg11.dtd">
<!-- Generated by graphviz version 2.38.0 (20140413.2041)
 -->
<!-- Title: threadpool.h Pages: 1 -->
<svg width="707pt" height="84pt"
 viewBox="0.00 0.00 706.50 84.00" xmlns="http://www.w3.org/2000/svg" xmlns:xlink="http://www.w3.org/1999/xlink">
<g id="graph0" class="graph" transform="scale(1 1) rotate(0) translate(4 80)">
<title>threadpool.h</title>
<polygon fill="white" stroke="none" points="-4,4 -4,-80 702.5,-80 702.5,4 -4,4"/>
<!-- Node1 -->
<g id="node1" class="node"><title>Node1</title>
<polygon fill="#bfbfbf" stroke="black" points="284,-56.5 284,-75.5 354,-75.5 354,-56.5 284,-56.5"/>
<text text-anchor="middle" x="319" y="-63.5" font-family="Helvetica,sans-Serif" font-size="10.00">threadpool.h</text>
</g>
<!-- Node2 -->
<g id="node2" class="node"><title>Node2</title>
<polygon fill="white" stroke="#bfbfbf" points="0,-0.5 0,-19.5 54,-19.5 54,-0.5 0,-0.5"/>
<text text-anchor="middle" x="27" y="-7.5" font-family="Helvetica,sans-Serif" font-size="10.00">iostream</text>
</g>
<!-- Node1&#45;&gt;Node2 -->
<g id="edge1" class="edge"><title>Node1&#45;&gt;Node2</title>
<path fill="none" stroke="midnightblue" d="M283.649,-59.5999C236.007,-52.1445 148.351,-37.8038 64.0713,-20.1063"/>
<polygon fill="midnightblue" stroke="midnightblue" points="64.5874,-16.638 54.079,-17.9885 63.136,-23.4859 64.5874,-16.638"/>
</g>
<!-- Node3 -->
<g id="node3" class="node"><title>Node3</title>
<polygon fill="white" stroke="#bfbfbf" points="72,-0.5 72,-19.5 116,-19.5 116,-0.5 72,-0.5"/>
<text text-anchor="middle" x="94" y="-7.5" font-family="Helvetica,sans-Serif" font-size="10.00">vector</text>
</g>
<!-- Node1&#45;&gt;Node3 -->
<g id="edge2" class="edge"><title>Node1&#45;&gt;Node3</title>
<path fill="none" stroke="midnightblue" d="M283.812,-57.4441C246.815,-49.3661 186.698,-35.8637 126.046,-20.1719"/>
<polygon fill="midnightblue" stroke="midnightblue" points="126.87,-16.7698 116.311,-17.6352 125.105,-23.5437 126.87,-16.7698"/>
</g>
<!-- Node4 -->
<g id="node4" class="node"><title>Node4</title>
<polygon fill="white" stroke="#bfbfbf" points="134.5,-0.5 134.5,-19.5 177.5,-19.5 177.5,-0.5 134.5,-0.5"/>
<text text-anchor="middle" x="156" y="-7.5" font-family="Helvetica,sans-Serif" font-size="10.00">queue</text>
</g>
<!-- Node1&#45;&gt;Node4 -->
<g id="edge3" class="edge"><title>Node1&#45;&gt;Node4</title>
<path fill="none" stroke="midnightblue" d="M293.172,-56.4435C264.46,-46.9316 218.09,-31.5697 187.328,-21.3787"/>
<polygon fill="midnightblue" stroke="midnightblue" points="188.136,-17.9593 177.543,-18.1368 185.935,-24.6041 188.136,-17.9593"/>
</g>
<!-- Node5 -->
<g id="node5" class="node"><title>Node5</title>
<polygon fill="white" stroke="#bfbfbf" points="196,-0.5 196,-19.5 248,-19.5 248,-0.5 196,-0.5"/>
<text text-anchor="middle" x="222" y="-7.5" font-family="Helvetica,sans-Serif" font-size="10.00">memory</text>
</g>
<!-- Node1&#45;&gt;Node5 -->
<g id="edge4" class="edge"><title>Node1&#45;&gt;Node5</title>
<path fill="none" stroke="midnightblue" d="M303.415,-56.324C288.001,-47.7428 264.188,-34.486 246.29,-24.5224"/>
<polygon fill="midnightblue" stroke="midnightblue" points="247.986,-21.4606 237.546,-19.6545 244.581,-27.5767 247.986,-21.4606"/>
</g>
<!-- Node6 -->
<g id="node6" class="node"><title>Node6</title>
<polygon fill="white" stroke="#bfbfbf" points="266,-0.5 266,-19.5 310,-19.5 310,-0.5 266,-0.5"/>
<text text-anchor="middle" x="288" y="-7.5" font-family="Helvetica,sans-Serif" font-size="10.00">thread</text>
</g>
<!-- Node1&#45;&gt;Node6 -->
<g id="edge5" class="edge"><title>Node1&#45;&gt;Node6</title>
<path fill="none" stroke="midnightblue" d="M313.881,-56.083C309.592,-48.6127 303.342,-37.7244 298.058,-28.5199"/>
<polygon fill="midnightblue" stroke="midnightblue" points="301.038,-26.6811 293.024,-19.7511 294.967,-30.1662 301.038,-26.6811"/>
</g>
<!-- Node7 -->
<g id="node7" class="node"><title>Node7</title>
<polygon fill="white" stroke="#bfbfbf" points="328,-0.5 328,-19.5 372,-19.5 372,-0.5 328,-0.5"/>
<text text-anchor="middle" x="350" y="-7.5" font-family="Helvetica,sans-Serif" font-size="10.00">mutex</text>
</g>
<!-- Node1&#45;&gt;Node7 -->
<g id="edge6" class="edge"><title>Node1&#45;&gt;Node7</title>
<path fill="none" stroke="midnightblue" d="M324.119,-56.083C328.408,-48.6127 334.658,-37.7244 339.942,-28.5199"/>
<polygon fill="midnightblue" stroke="midnightblue" points="343.033,-30.1662 344.976,-19.7511 336.962,-26.6811 343.033,-30.1662"/>
</g>
<!-- Node8 -->
<g id="node8" class="node"><title>Node8</title>
<polygon fill="white" stroke="#bfbfbf" points="390.5,-0.5 390.5,-19.5 485.5,-19.5 485.5,-0.5 390.5,-0.5"/>
<text text-anchor="middle" x="438" y="-7.5" font-family="Helvetica,sans-Serif" font-size="10.00">condition_variable</text>
</g>
<!-- Node1&#45;&gt;Node8 -->
<g id="edge7" class="edge"><title>Node1&#45;&gt;Node8</title>
<path fill="none" stroke="midnightblue" d="M337.856,-56.4435C357.266,-47.6356 387.73,-33.8116 409.965,-23.722"/>
<polygon fill="midnightblue" stroke="midnightblue" points="411.572,-26.836 419.232,-19.5164 408.68,-20.4615 411.572,-26.836"/>
</g>
<!-- Node9 -->
<g id="node9" class="node"><title>Node9</title>
<polygon fill="white" stroke="#bfbfbf" points="503.5,-0.5 503.5,-19.5 544.5,-19.5 544.5,-0.5 503.5,-0.5"/>
<text text-anchor="middle" x="524" y="-7.5" font-family="Helvetica,sans-Serif" font-size="10.00">future</text>
</g>
<!-- Node1&#45;&gt;Node9 -->
<g id="edge8" class="edge"><title>Node1&#45;&gt;Node9</title>
<path fill="none" stroke="midnightblue" d="M354.203,-56.5552C387.814,-48.3692 440.097,-35.3176 493.765,-20.2549"/>
<polygon fill="midnightblue" stroke="midnightblue" points="494.771,-23.6076 503.443,-17.5206 492.868,-16.8713 494.771,-23.6076"/>
</g>
<!-- Node10 -->
<g id="node10" class="node"><title>Node10</title>
<polygon fill="white" stroke="#bfbfbf" points="562.5,-0.5 562.5,-19.5 621.5,-19.5 621.5,-0.5 562.5,-0.5"/>
<text text-anchor="middle" x="592" y="-7.5" font-family="Helvetica,sans-Serif" font-size="10.00">functional</text>
</g>
<!-- Node1&#45;&gt;Node10 -->
<g id="edge9" class="edge"><title>Node1&#45;&gt;Node10</title>
<path fill="none" stroke="midnightblue" d="M354.132,-58.7636C398.18,-50.837 476.243,-36.4357 551.974,-20.3706"/>
<polygon fill="midnightblue" stroke="midnightblue" points="553.108,-23.7075 562.157,-18.1971 551.647,-16.8617 553.108,-23.7075"/>
</g>
<!-- Node11 -->
<g id="node11" class="node"><title>Node11</title>
<polygon fill="white" stroke="#bfbfbf" points="639.5,-0.5 639.5,-19.5 698.5,-19.5 698.5,-0.5 639.5,-0.5"/>
<text text-anchor="middle" x="669" y="-7.5" font-family="Helvetica,sans-Serif" font-size="10.00">stdexcept</text>
</g>
<!-- Node1&#45;&gt;Node11 -->
<g id="edge10" class="edge"><title>Node1&#45;&gt;Node11</title>
<path fill="none" stroke="midnightblue" d="M354.263,-60.9558C410.496,-54.2807 524.118,-39.8706 629.354,-20.1865"/>
<polygon fill="midnightblue" stroke="midnightblue" points="630.008,-23.6249 639.183,-18.3276 628.707,-16.7468 630.008,-23.6249"/>
</g>
</g>
</svg>
