<?xml version="1.0" encoding="UTF-8" standalone="no"?>
<!DOCTYPE svg PUBLIC "-//W3C//DTD SVG 1.1//EN"
 "http://www.w3.org/Graphics/SVG/1.1/DTD/svg11.dtd">
<!-- Generated by graphviz version 2.38.0 (20140413.2041)
 -->
<!-- Title: command Pages: 1 -->
<svg width="138pt" height="151pt"
 viewBox="0.00 0.00 137.50 151.00" xmlns="http://www.w3.org/2000/svg" xmlns:xlink="http://www.w3.org/1999/xlink">
<g id="graph0" class="graph" transform="scale(1 1) rotate(0) translate(4 147)">
<title>command</title>
<polygon fill="white" stroke="none" points="-4,4 -4,-147 133.5,-147 133.5,4 -4,4"/>
<g id="clust1" class="cluster"><title>clusterdir_880d52d109336948b38801ae7422e1dc</title>
<g id="a_clust1"><a xlink:href="dir_880d52d109336948b38801ae7422e1dc.html" xlink:title="src">
<polygon fill="#ddddee" stroke="black" points="26,-64 26,-135 102,-135 102,-64 26,-64"/>
<text text-anchor="middle" x="64" y="-123" font-family="Helvetica,sans-Serif" font-size="10.00">src</text>
</a>
</g>
</g>
<!-- dir_b624a331aff84443114e052eac2bb27a -->
<g id="node1" class="node"><title>dir_b624a331aff84443114e052eac2bb27a</title>
<g id="a_node1"><a xlink:href="dir_b624a331aff84443114e052eac2bb27a.html" xlink:title="command">
<polygon fill="#eeeeff" stroke="black" points="93.5,-108 34.5,-108 34.5,-72 93.5,-72 93.5,-108"/>
<text text-anchor="middle" x="64" y="-87.5" font-family="Helvetica,sans-Serif" font-size="10.00">command</text>
</a>
</g>
</g>
<!-- dir_38c248e59202b0310d0638e1b4057d15 -->
<g id="node2" class="node"><title>dir_38c248e59202b0310d0638e1b4057d15</title>
<g id="a_node2"><a xlink:href="dir_38c248e59202b0310d0638e1b4057d15.html" xlink:title="rescorer">
<polygon fill="none" stroke="black" points="54,-36 0,-36 0,-0 54,-0 54,-36"/>
<text text-anchor="middle" x="27" y="-15.5" font-family="Helvetica,sans-Serif" font-size="10.00">rescorer</text>
</a>
</g>
</g>
<!-- dir_b624a331aff84443114e052eac2bb27a&#45;&gt;dir_38c248e59202b0310d0638e1b4057d15 -->
<g id="edge1" class="edge"><title>dir_b624a331aff84443114e052eac2bb27a&#45;&gt;dir_38c248e59202b0310d0638e1b4057d15</title>
<path fill="none" stroke="black" d="M54.8539,-71.6966C50.5974,-63.6436 45.4442,-53.8945 40.7336,-44.9824"/>
<polygon fill="black" stroke="black" points="43.8083,-43.3097 36.0409,-36.1043 37.6197,-46.5809 43.8083,-43.3097"/>
<g id="a_edge1&#45;headlabel"><a xlink:href="dir_000035_000034.html" xlink:title="1">
<text text-anchor="middle" x="47.9982" y="-42.6609" font-family="Helvetica,sans-Serif" font-size="10.00">1</text>
</a>
</g>
</g>
<!-- dir_749f02635bffbc7a800d0e203e16ca18 -->
<g id="node3" class="node"><title>dir_749f02635bffbc7a800d0e203e16ca18</title>
<g id="a_node3"><a xlink:href="dir_749f02635bffbc7a800d0e203e16ca18.html" xlink:title="translator">
<polygon fill="none" stroke="black" points="129.5,-36 72.5,-36 72.5,-0 129.5,-0 129.5,-36"/>
<text text-anchor="middle" x="101" y="-15.5" font-family="Helvetica,sans-Serif" font-size="10.00">translator</text>
</a>
</g>
</g>
<!-- dir_b624a331aff84443114e052eac2bb27a&#45;&gt;dir_749f02635bffbc7a800d0e203e16ca18 -->
<g id="edge2" class="edge"><title>dir_b624a331aff84443114e052eac2bb27a&#45;&gt;dir_749f02635bffbc7a800d0e203e16ca18</title>
<path fill="none" stroke="black" d="M73.1461,-71.6966C77.4026,-63.6436 82.5558,-53.8945 87.2664,-44.9824"/>
<polygon fill="black" stroke="black" points="90.3803,-46.5809 91.9591,-36.1043 84.1917,-43.3097 90.3803,-46.5809"/>
<g id="a_edge2&#45;headlabel"><a xlink:href="dir_000035_000018.html" xlink:title="2">
<text text-anchor="middle" x="91.2108" y="-48.5857" font-family="Helvetica,sans-Serif" font-size="10.00">2</text>
</a>
</g>
</g>
</g>
</svg>
