<?xml version="1.0" encoding="UTF-8" standalone="no"?>
<!DOCTYPE svg PUBLIC "-//W3C//DTD SVG 1.1//EN"
 "http://www.w3.org/Graphics/SVG/1.1/DTD/svg11.dtd">
<!-- Generated by graphviz version 2.38.0 (20140413.2041)
 -->
<!-- Title: decoder Pages: 1 -->
<svg width="124pt" height="295pt"
 viewBox="0.00 0.00 124.00 295.00" xmlns="http://www.w3.org/2000/svg" xmlns:xlink="http://www.w3.org/1999/xlink">
<g id="graph0" class="graph" transform="scale(1 1) rotate(0) translate(4 291)">
<title>decoder</title>
<polygon fill="white" stroke="none" points="-4,4 -4,-291 120,-291 120,4 -4,4"/>
<g id="clust1" class="cluster"><title>clusterdir_3216ca6c3d26d6e3527da1099619bbed</title>
<g id="a_clust1"><a xlink:href="dir_3216ca6c3d26d6e3527da1099619bbed.html" xlink:title="gpu">
<polygon fill="#ddddee" stroke="black" points="8,-208 8,-279 78,-279 78,-208 8,-208"/>
<text text-anchor="middle" x="43" y="-267" font-family="Helvetica,sans-Serif" font-size="10.00">gpu</text>
</a>
</g>
</g>
<!-- dir_0f83273dae6e08541d6a2add20f56a4d -->
<g id="node1" class="node"><title>dir_0f83273dae6e08541d6a2add20f56a4d</title>
<g id="a_node1"><a xlink:href="dir_0f83273dae6e08541d6a2add20f56a4d.html" xlink:title="decoder">
<polygon fill="#eeeeff" stroke="black" points="70,-252 16,-252 16,-216 70,-216 70,-252"/>
<text text-anchor="middle" x="43" y="-231.5" font-family="Helvetica,sans-Serif" font-size="10.00">decoder</text>
</a>
</g>
</g>
<!-- dir_d2948c0e681050f4d7d5dad478012d4d -->
<g id="node2" class="node"><title>dir_d2948c0e681050f4d7d5dad478012d4d</title>
<g id="a_node2"><a xlink:href="dir_d2948c0e681050f4d7d5dad478012d4d.html" xlink:title="common">
<polygon fill="white" stroke="red" points="61,-36 7,-36 7,-0 61,-0 61,-36"/>
<text text-anchor="middle" x="34" y="-15.5" font-family="Helvetica,sans-Serif" font-size="10.00">common</text>
</a>
</g>
</g>
<!-- dir_0f83273dae6e08541d6a2add20f56a4d&#45;&gt;dir_d2948c0e681050f4d7d5dad478012d4d -->
<g id="edge3" class="edge"><title>dir_0f83273dae6e08541d6a2add20f56a4d&#45;&gt;dir_d2948c0e681050f4d7d5dad478012d4d</title>
<path fill="none" stroke="black" d="M27.3901,-215.774C19.6271,-206.03 11.0541,-193.184 7,-180 -7.13162,-134.045 9.32179,-78.297 22.0308,-45.9146"/>
<polygon fill="black" stroke="black" points="25.432,-46.8445 25.982,-36.264 18.9539,-44.1922 25.432,-46.8445"/>
<g id="a_edge3&#45;headlabel"><a xlink:href="dir_000012_000016.html" xlink:title="14">
<text text-anchor="middle" x="26.6977" y="-48.7469" font-family="Helvetica,sans-Serif" font-size="10.00">14</text>
</a>
</g>
</g>
<!-- dir_fc5c53a037d8975bde649bceb0192e24 -->
<g id="node3" class="node"><title>dir_fc5c53a037d8975bde649bceb0192e24</title>
<g id="a_node3"><a xlink:href="dir_fc5c53a037d8975bde649bceb0192e24.html" xlink:title="dl4mt">
<polygon fill="none" stroke="black" points="70,-180 16,-180 16,-144 70,-144 70,-180"/>
<text text-anchor="middle" x="43" y="-159.5" font-family="Helvetica,sans-Serif" font-size="10.00">dl4mt</text>
</a>
</g>
</g>
<!-- dir_0f83273dae6e08541d6a2add20f56a4d&#45;&gt;dir_fc5c53a037d8975bde649bceb0192e24 -->
<g id="edge4" class="edge"><title>dir_0f83273dae6e08541d6a2add20f56a4d&#45;&gt;dir_fc5c53a037d8975bde649bceb0192e24</title>
<path fill="none" stroke="black" d="M43,-215.697C43,-207.983 43,-198.712 43,-190.112"/>
<polygon fill="black" stroke="black" points="46.5001,-190.104 43,-180.104 39.5001,-190.104 46.5001,-190.104"/>
<g id="a_edge4&#45;headlabel"><a xlink:href="dir_000012_000020.html" xlink:title="3">
<text text-anchor="middle" x="49.3393" y="-191.199" font-family="Helvetica,sans-Serif" font-size="10.00">3</text>
</a>
</g>
</g>
<!-- dir_86c2e4f6289ec2f1756d945b8ebc975b -->
<g id="node4" class="node"><title>dir_86c2e4f6289ec2f1756d945b8ebc975b</title>
<g id="a_node4"><a xlink:href="dir_86c2e4f6289ec2f1756d945b8ebc975b.html" xlink:title="mblas">
<polygon fill="none" stroke="black" points="116,-108 62,-108 62,-72 116,-72 116,-108"/>
<text text-anchor="middle" x="89" y="-87.5" font-family="Helvetica,sans-Serif" font-size="10.00">mblas</text>
</a>
</g>
</g>
<!-- dir_0f83273dae6e08541d6a2add20f56a4d&#45;&gt;dir_86c2e4f6289ec2f1756d945b8ebc975b -->
<g id="edge5" class="edge"><title>dir_0f83273dae6e08541d6a2add20f56a4d&#45;&gt;dir_86c2e4f6289ec2f1756d945b8ebc975b</title>
<path fill="none" stroke="black" d="M58.027,-215.576C65.6193,-205.775 74.2151,-192.936 79,-180 86.3154,-160.222 88.6864,-136.422 89.2987,-118.411"/>
<polygon fill="black" stroke="black" points="92.8002,-118.353 89.4807,-108.292 85.8013,-118.227 92.8002,-118.353"/>
<g id="a_edge5&#45;headlabel"><a xlink:href="dir_000012_000013.html" xlink:title="8">
<text text-anchor="middle" x="95.5744" y="-119.498" font-family="Helvetica,sans-Serif" font-size="10.00">8</text>
</a>
</g>
</g>
<!-- dir_fc5c53a037d8975bde649bceb0192e24&#45;&gt;dir_d2948c0e681050f4d7d5dad478012d4d -->
<g id="edge1" class="edge"><title>dir_fc5c53a037d8975bde649bceb0192e24&#45;&gt;dir_d2948c0e681050f4d7d5dad478012d4d</title>
<path fill="none" stroke="black" d="M41.9144,-143.871C40.3805,-119.67 37.5627,-75.2108 35.7362,-46.3932"/>
<polygon fill="black" stroke="black" points="39.2151,-45.9478 35.0895,-36.1893 32.2291,-46.3907 39.2151,-45.9478"/>
<g id="a_edge1&#45;headlabel"><a xlink:href="dir_000020_000016.html" xlink:title="2">
<text text-anchor="middle" x="42.2759" y="-46.8557" font-family="Helvetica,sans-Serif" font-size="10.00">2</text>
</a>
</g>
</g>
<!-- dir_fc5c53a037d8975bde649bceb0192e24&#45;&gt;dir_86c2e4f6289ec2f1756d945b8ebc975b -->
<g id="edge2" class="edge"><title>dir_fc5c53a037d8975bde649bceb0192e24&#45;&gt;dir_86c2e4f6289ec2f1756d945b8ebc975b</title>
<path fill="none" stroke="black" d="M54.3708,-143.697C59.7185,-135.559 66.2043,-125.689 72.1106,-116.701"/>
<polygon fill="black" stroke="black" points="75.1932,-118.384 77.76,-108.104 69.3432,-114.539 75.1932,-118.384"/>
<g id="a_edge2&#45;headlabel"><a xlink:href="dir_000020_000013.html" xlink:title="19">
<text text-anchor="middle" x="75.5919" y="-120.447" font-family="Helvetica,sans-Serif" font-size="10.00">19</text>
</a>
</g>
</g>
<!-- dir_86c2e4f6289ec2f1756d945b8ebc975b&#45;&gt;dir_d2948c0e681050f4d7d5dad478012d4d -->
<g id="edge6" class="edge"><title>dir_86c2e4f6289ec2f1756d945b8ebc975b&#45;&gt;dir_d2948c0e681050f4d7d5dad478012d4d</title>
<path fill="none" stroke="black" d="M75.4045,-71.6966C68.8773,-63.3893 60.932,-53.2771 53.7534,-44.1407"/>
<polygon fill="black" stroke="black" points="56.3695,-41.8051 47.4391,-36.1043 50.8653,-46.1299 56.3695,-41.8051"/>
<g id="a_edge6&#45;headlabel"><a xlink:href="dir_000013_000016.html" xlink:title="2">
<text text-anchor="middle" x="60.8229" y="-40.3775" font-family="Helvetica,sans-Serif" font-size="10.00">2</text>
</a>
</g>
</g>
</g>
</svg>
