<?xml version="1.0" encoding="UTF-8" standalone="no"?>
<!DOCTYPE svg PUBLIC "-//W3C//DTD SVG 1.1//EN"
 "http://www.w3.org/Graphics/SVG/1.1/DTD/svg11.dtd">
<!-- Generated by graphviz version 2.38.0 (20140413.2041)
 -->
<!-- Title: scripts Pages: 1 -->
<svg width="270pt" height="111pt"
 viewBox="0.00 0.00 270.00 111.00" xmlns="http://www.w3.org/2000/svg" xmlns:xlink="http://www.w3.org/1999/xlink">
<g id="graph0" class="graph" transform="scale(1 1) rotate(0) translate(4 107)">
<title>scripts</title>
<polygon fill="white" stroke="none" points="-4,4 -4,-107 266,-107 266,4 -4,4"/>
<g id="clust1" class="cluster"><title>clusterdir_b868f09ead81b7d88f7d496d6a7c431e</title>
<g id="a_clust1"><a xlink:href="dir_b868f09ead81b7d88f7d496d6a7c431e.html" xlink:title="marian">
<polygon fill="#ddddee" stroke="black" points="8,-8 8,-95 254,-95 254,-8 8,-8"/>
<text text-anchor="middle" x="131" y="-83" font-family="Helvetica,sans-Serif" font-size="10.00">marian</text>
</a>
</g>
</g>
<g id="clust2" class="cluster"><title>clusterdir_6bb08b3d78c7c6163fd8d6712b34c26f</title>
<g id="a_clust2"><a xlink:href="dir_6bb08b3d78c7c6163fd8d6712b34c26f.html">
<polygon fill="#eeeeff" stroke="black" points="16,-16 16,-68 246,-68 246,-16 16,-16"/>
</a>
</g>
</g>
<!-- dir_6bb08b3d78c7c6163fd8d6712b34c26f -->
<g id="node1" class="node"><title>dir_6bb08b3d78c7c6163fd8d6712b34c26f</title>
<text text-anchor="middle" x="211" y="-39.5" font-family="Helvetica,sans-Serif" font-size="10.00">scripts</text>
</g>
<!-- dir_bdce86520e0c0986467863f1b6422748 -->
<g id="node2" class="node"><title>dir_bdce86520e0c0986467863f1b6422748</title>
<g id="a_node2"><a xlink:href="dir_bdce86520e0c0986467863f1b6422748.html" xlink:title="contrib">
<polygon fill="white" stroke="black" points="166,-60 112,-60 112,-24 166,-24 166,-60"/>
<text text-anchor="middle" x="139" y="-39.5" font-family="Helvetica,sans-Serif" font-size="10.00">contrib</text>
</a>
</g>
</g>
<!-- dir_e3459107287aa5d0e229690a1a55d0c5 -->
<g id="node3" class="node"><title>dir_e3459107287aa5d0e229690a1a55d0c5</title>
<g id="a_node3"><a xlink:href="dir_e3459107287aa5d0e229690a1a55d0c5.html" xlink:title="embeddings">
<polygon fill="white" stroke="black" points="93.5,-60 24.5,-60 24.5,-24 93.5,-24 93.5,-60"/>
<text text-anchor="middle" x="59" y="-39.5" font-family="Helvetica,sans-Serif" font-size="10.00">embeddings</text>
</a>
</g>
</g>
</g>
</svg>
