<?xml version="1.0" encoding="UTF-8" standalone="no"?>
<!DOCTYPE svg PUBLIC "-//W3C//DTD SVG 1.1//EN"
 "http://www.w3.org/Graphics/SVG/1.1/DTD/svg11.dtd">
<!-- Generated by graphviz version 2.38.0 (20140413.2041)
 -->
<!-- Title: thrust_functions.h Pages: 1 -->
<svg width="384pt" height="84pt"
 viewBox="0.00 0.00 383.50 84.00" xmlns="http://www.w3.org/2000/svg" xmlns:xlink="http://www.w3.org/1999/xlink">
<g id="graph0" class="graph" transform="scale(1 1) rotate(0) translate(4 80)">
<title>thrust_functions.h</title>
<polygon fill="white" stroke="none" points="-4,4 -4,-80 379.5,-80 379.5,4 -4,4"/>
<!-- Node1 -->
<g id="node1" class="node"><title>Node1</title>
<polygon fill="#bfbfbf" stroke="black" points="157,-56.5 157,-75.5 252,-75.5 252,-56.5 157,-56.5"/>
<text text-anchor="middle" x="204.5" y="-63.5" font-family="Helvetica,sans-Serif" font-size="10.00">thrust_functions.h</text>
</g>
<!-- Node2 -->
<g id="node2" class="node"><title>Node2</title>
<polygon fill="white" stroke="#bfbfbf" points="0,-0.5 0,-19.5 69,-19.5 69,-0.5 0,-0.5"/>
<text text-anchor="middle" x="34.5" y="-7.5" font-family="Helvetica,sans-Serif" font-size="10.00">cublas_v2.h</text>
</g>
<!-- Node1&#45;&gt;Node2 -->
<g id="edge1" class="edge"><title>Node1&#45;&gt;Node2</title>
<path fill="none" stroke="midnightblue" d="M177.563,-56.4435C148.84,-47.3196 103.171,-32.8133 71.1788,-22.6509"/>
<polygon fill="midnightblue" stroke="midnightblue" points="71.9013,-19.2081 61.311,-19.5164 69.7821,-25.8797 71.9013,-19.2081"/>
</g>
<!-- Node3 -->
<g id="node3" class="node"><title>Node3</title>
<polygon fill="white" stroke="#bfbfbf" points="87,-0.5 87,-19.5 200,-19.5 200,-0.5 87,-0.5"/>
<text text-anchor="middle" x="143.5" y="-7.5" font-family="Helvetica,sans-Serif" font-size="10.00">thrust/device_vector.h</text>
</g>
<!-- Node1&#45;&gt;Node3 -->
<g id="edge2" class="edge"><title>Node1&#45;&gt;Node3</title>
<path fill="none" stroke="midnightblue" d="M194.699,-56.324C185.682,-48.3414 172.094,-36.3128 161.182,-26.6529"/>
<polygon fill="midnightblue" stroke="midnightblue" points="163.287,-23.8416 153.479,-19.8339 158.647,-29.083 163.287,-23.8416"/>
</g>
<!-- Node4 -->
<g id="node4" class="node"><title>Node4</title>
<polygon fill="white" stroke="#bfbfbf" points="218,-0.5 218,-19.5 313,-19.5 313,-0.5 218,-0.5"/>
<text text-anchor="middle" x="265.5" y="-7.5" font-family="Helvetica,sans-Serif" font-size="10.00">thrust/functional.h</text>
</g>
<!-- Node1&#45;&gt;Node4 -->
<g id="edge3" class="edge"><title>Node1&#45;&gt;Node4</title>
<path fill="none" stroke="midnightblue" d="M214.301,-56.324C223.318,-48.3414 236.906,-36.3128 247.818,-26.6529"/>
<polygon fill="midnightblue" stroke="midnightblue" points="250.353,-29.083 255.521,-19.8339 245.713,-23.8416 250.353,-29.083"/>
</g>
<!-- Node5 -->
<g id="node5" class="node"><title>Node5</title>
<polygon fill="white" stroke="#bfbfbf" points="331.5,-0.5 331.5,-19.5 375.5,-19.5 375.5,-0.5 331.5,-0.5"/>
<text text-anchor="middle" x="353.5" y="-7.5" font-family="Helvetica,sans-Serif" font-size="10.00">cmath</text>
</g>
<!-- Node1&#45;&gt;Node5 -->
<g id="edge4" class="edge"><title>Node1&#45;&gt;Node5</title>
<path fill="none" stroke="midnightblue" d="M228.109,-56.4435C253.396,-47.2792 293.667,-32.6846 321.724,-22.5161"/>
<polygon fill="midnightblue" stroke="midnightblue" points="323.249,-25.6862 331.458,-18.9883 320.864,-19.1051 323.249,-25.6862"/>
</g>
</g>
</svg>
