<?xml version="1.0" encoding="UTF-8" standalone="no"?>
<!DOCTYPE svg PUBLIC "-//W3C//DTD SVG 1.1//EN"
 "http://www.w3.org/Graphics/SVG/1.1/DTD/svg11.dtd">
<!-- Generated by graphviz version 2.38.0 (20140413.2041)
 -->
<!-- Title: LanguageModelState::GetStates Pages: 1 -->
<svg width="305pt" height="39pt"
 viewBox="0.00 0.00 305.00 39.00" xmlns="http://www.w3.org/2000/svg" xmlns:xlink="http://www.w3.org/1999/xlink">
<g id="graph0" class="graph" transform="scale(1 1) rotate(0) translate(4 35)">
<title>LanguageModelState::GetStates</title>
<polygon fill="white" stroke="none" points="-4,4 -4,-35 301,-35 301,4 -4,4"/>
<!-- Node1 -->
<g id="node1" class="node"><title>Node1</title>
<polygon fill="#bfbfbf" stroke="black" points="0,-0.5 0,-30.5 108,-30.5 108,-0.5 0,-0.5"/>
<text text-anchor="start" x="8" y="-18.5" font-family="Helvetica,sans-Serif" font-size="10.00">LanguageModelState</text>
<text text-anchor="middle" x="54" y="-7.5" font-family="Helvetica,sans-Serif" font-size="10.00">::GetStates</text>
</g>
<!-- Node2 -->
<g id="node2" class="node"><title>Node2</title>
<g id="a_node2"><a xlink:href="$d0/dd3/classamunmt_1_1GPU_1_1ClassLanguageModel.html#a0cbf0d5fec22724b1e8e33e4aa6f779c" xlink:title="amunmt::GPU::ClassLanguage\lModel::Score">
<polygon fill="white" stroke="black" points="144,-0.5 144,-30.5 297,-30.5 297,-0.5 144,-0.5"/>
<text text-anchor="start" x="152" y="-18.5" font-family="Helvetica,sans-Serif" font-size="10.00">amunmt::GPU::ClassLanguage</text>
<text text-anchor="middle" x="220.5" y="-7.5" font-family="Helvetica,sans-Serif" font-size="10.00">Model::Score</text>
</a>
</g>
</g>
<!-- Node1&#45;&gt;Node2 -->
<g id="edge1" class="edge"><title>Node1&#45;&gt;Node2</title>
<path fill="none" stroke="midnightblue" d="M118.438,-15.5C126.792,-15.5 135.419,-15.5 143.95,-15.5"/>
<polygon fill="midnightblue" stroke="midnightblue" points="118.408,-12.0001 108.408,-15.5 118.408,-19.0001 118.408,-12.0001"/>
</g>
</g>
</svg>
