<?xml version="1.0" encoding="UTF-8" standalone="no"?>
<!DOCTYPE svg PUBLIC "-//W3C//DTD SVG 1.1//EN"
 "http://www.w3.org/Graphics/SVG/1.1/DTD/svg11.dtd">
<!-- Generated by graphviz version 2.38.0 (20140413.2041)
 -->
<!-- Title: marian::ExpressionGraph::load Pages: 1 -->
<svg width="483pt" height="250pt"
 viewBox="0.00 0.00 483.00 249.50" xmlns="http://www.w3.org/2000/svg" xmlns:xlink="http://www.w3.org/1999/xlink">
<g id="graph0" class="graph" transform="scale(1 1) rotate(0) translate(4 245.5)">
<title>marian::ExpressionGraph::load</title>
<polygon fill="white" stroke="none" points="-4,4 -4,-245.5 479,-245.5 479,4 -4,4"/>
<!-- Node1 -->
<g id="node1" class="node"><title>Node1</title>
<polygon fill="#bfbfbf" stroke="black" points="0,-93.5 0,-123.5 127,-123.5 127,-93.5 0,-93.5"/>
<text text-anchor="start" x="8" y="-111.5" font-family="Helvetica,sans-Serif" font-size="10.00">marian::ExpressionGraph</text>
<text text-anchor="middle" x="63.5" y="-100.5" font-family="Helvetica,sans-Serif" font-size="10.00">::load</text>
</g>
<!-- Node2 -->
<g id="node2" class="node"><title>Node2</title>
<g id="a_node2"><a xlink:href="$d5/d54/structmarian_1_1Shape.html#a2849bb218aa2214bbab47256a9452caf" xlink:title="marian::Shape::set">
<polygon fill="white" stroke="black" points="177,-187 177,-206 276,-206 276,-187 177,-187"/>
<text text-anchor="middle" x="226.5" y="-194" font-family="Helvetica,sans-Serif" font-size="10.00">marian::Shape::set</text>
</a>
</g>
</g>
<!-- Node1&#45;&gt;Node2 -->
<g id="edge1" class="edge"><title>Node1&#45;&gt;Node2</title>
<path fill="none" stroke="midnightblue" d="M82.2878,-123.588C101.222,-138.995 132.589,-162.694 163,-177.5 167.598,-179.739 172.515,-181.778 177.497,-183.619"/>
<polygon fill="midnightblue" stroke="midnightblue" points="176.494,-186.976 187.089,-186.915 178.769,-180.356 176.494,-186.976"/>
</g>
<!-- Node5 -->
<g id="node5" class="node"><title>Node5</title>
<g id="a_node5"><a xlink:href="$da/db9/classmarian_1_1ExpressionGraph.html#afbda84b9c30ce21ba27f2283b6e9db2d" xlink:title="Constructs a new node representing a parameter in an expression graph. ">
<polygon fill="white" stroke="black" points="163,-137.5 163,-167.5 290,-167.5 290,-137.5 163,-137.5"/>
<text text-anchor="start" x="171" y="-155.5" font-family="Helvetica,sans-Serif" font-size="10.00">marian::ExpressionGraph</text>
<text text-anchor="middle" x="226.5" y="-144.5" font-family="Helvetica,sans-Serif" font-size="10.00">::param</text>
</a>
</g>
</g>
<!-- Node1&#45;&gt;Node5 -->
<g id="edge4" class="edge"><title>Node1&#45;&gt;Node5</title>
<path fill="none" stroke="midnightblue" d="M119.457,-123.519C132.725,-127.145 147.025,-131.053 160.697,-134.79"/>
<polygon fill="midnightblue" stroke="midnightblue" points="159.949,-138.214 170.518,-137.474 161.794,-131.461 159.949,-138.214"/>
</g>
<!-- Node7 -->
<g id="node7" class="node"><title>Node7</title>
<g id="a_node7"><a xlink:href="$d5/d49/amunmt_8cpp.html#a2e8ddb8bd2f3405f554c9f2c52277f4b" xlink:title="init">
<polygon fill="white" stroke="black" points="212,-99 212,-118 241,-118 241,-99 212,-99"/>
<text text-anchor="middle" x="226.5" y="-106" font-family="Helvetica,sans-Serif" font-size="10.00">init</text>
</a>
</g>
</g>
<!-- Node1&#45;&gt;Node7 -->
<g id="edge6" class="edge"><title>Node1&#45;&gt;Node7</title>
<path fill="none" stroke="midnightblue" d="M127.208,-108.5C153.309,-108.5 182.038,-108.5 201.658,-108.5"/>
<polygon fill="midnightblue" stroke="midnightblue" points="201.808,-112 211.808,-108.5 201.808,-105 201.808,-112"/>
</g>
<!-- Node9 -->
<g id="node9" class="node"><title>Node9</title>
<g id="a_node9"><a xlink:href="$d4/dec/namespacemarian_1_1inits.html#a466e51fe497018f864f0fb9c0dd05200" xlink:title="marian::inits::from\l_numpy">
<polygon fill="white" stroke="black" points="179,-49.5 179,-79.5 274,-79.5 274,-49.5 179,-49.5"/>
<text text-anchor="start" x="187" y="-67.5" font-family="Helvetica,sans-Serif" font-size="10.00">marian::inits::from</text>
<text text-anchor="middle" x="226.5" y="-56.5" font-family="Helvetica,sans-Serif" font-size="10.00">_numpy</text>
</a>
</g>
</g>
<!-- Node1&#45;&gt;Node9 -->
<g id="edge8" class="edge"><title>Node1&#45;&gt;Node9</title>
<path fill="none" stroke="midnightblue" d="M119.457,-93.4808C135.45,-89.1101 152.943,-84.3293 169.027,-79.9335"/>
<polygon fill="midnightblue" stroke="midnightblue" points="170.111,-83.2659 178.834,-77.2534 168.265,-76.5135 170.111,-83.2659"/>
</g>
<!-- Node10 -->
<g id="node10" class="node"><title>Node10</title>
<g id="a_node10"><a xlink:href="$da/db9/classmarian_1_1ExpressionGraph.html#ae3a2ead5df1981b78a78f72c363b5a47" xlink:title="marian::ExpressionGraph\l::setReloaded">
<polygon fill="white" stroke="black" points="163,-0.5 163,-30.5 290,-30.5 290,-0.5 163,-0.5"/>
<text text-anchor="start" x="171" y="-18.5" font-family="Helvetica,sans-Serif" font-size="10.00">marian::ExpressionGraph</text>
<text text-anchor="middle" x="226.5" y="-7.5" font-family="Helvetica,sans-Serif" font-size="10.00">::setReloaded</text>
</a>
</g>
</g>
<!-- Node1&#45;&gt;Node10 -->
<g id="edge9" class="edge"><title>Node1&#45;&gt;Node10</title>
<path fill="none" stroke="midnightblue" d="M83.6679,-93.3371C102.939,-78.5673 133.885,-56.1184 163,-40.5 166.707,-38.5112 170.608,-36.5874 174.574,-34.7496"/>
<polygon fill="midnightblue" stroke="midnightblue" points="176.16,-37.8753 183.888,-30.6274 173.327,-31.4743 176.16,-37.8753"/>
</g>
<!-- Node3 -->
<g id="node3" class="node"><title>Node3</title>
<g id="a_node3"><a xlink:href="$d5/d54/structmarian_1_1Shape.html#af416da295388777386ae8b834115066f" xlink:title="Gets a reference to the int representing the size of the ith dimension represented by this object...">
<polygon fill="white" stroke="black" points="350,-222 350,-241 451,-241 451,-222 350,-222"/>
<text text-anchor="middle" x="400.5" y="-229" font-family="Helvetica,sans-Serif" font-size="10.00">marian::Shape::dim</text>
</a>
</g>
</g>
<!-- Node2&#45;&gt;Node3 -->
<g id="edge2" class="edge"><title>Node2&#45;&gt;Node3</title>
<path fill="none" stroke="midnightblue" d="M274.5,-206.064C295.546,-210.347 320.546,-215.434 342.637,-219.929"/>
<polygon fill="midnightblue" stroke="midnightblue" points="342.06,-223.383 352.557,-221.948 343.456,-216.524 342.06,-223.383"/>
</g>
<!-- Node4 -->
<g id="node4" class="node"><title>Node4</title>
<g id="a_node4"><a xlink:href="$d5/d54/structmarian_1_1Shape.html#a9cf031011a4b53538dda070a77ad19f9" xlink:title="marian::Shape::updateStrides">
<polygon fill="white" stroke="black" points="327.5,-184 327.5,-203 473.5,-203 473.5,-184 327.5,-184"/>
<text text-anchor="middle" x="400.5" y="-191" font-family="Helvetica,sans-Serif" font-size="10.00">marian::Shape::updateStrides</text>
</a>
</g>
</g>
<!-- Node2&#45;&gt;Node4 -->
<g id="edge3" class="edge"><title>Node2&#45;&gt;Node4</title>
<path fill="none" stroke="midnightblue" d="M276.328,-195.648C289.115,-195.425 303.26,-195.179 317.271,-194.934"/>
<polygon fill="midnightblue" stroke="midnightblue" points="317.491,-198.431 327.429,-194.757 317.369,-191.432 317.491,-198.431"/>
</g>
<!-- Node6 -->
<g id="node6" class="node"><title>Node6</title>
<g id="a_node6"><a xlink:href="$da/db9/classmarian_1_1ExpressionGraph.html#a95bb5e6efbc99952867e46f5db9dc461" xlink:title="marian::ExpressionGraph::add">
<polygon fill="white" stroke="black" points="326,-143 326,-162 475,-162 475,-143 326,-143"/>
<text text-anchor="middle" x="400.5" y="-150" font-family="Helvetica,sans-Serif" font-size="10.00">marian::ExpressionGraph::add</text>
</a>
</g>
</g>
<!-- Node5&#45;&gt;Node6 -->
<g id="edge5" class="edge"><title>Node5&#45;&gt;Node6</title>
<path fill="none" stroke="midnightblue" d="M290.083,-152.5C298.436,-152.5 307.109,-152.5 315.751,-152.5"/>
<polygon fill="midnightblue" stroke="midnightblue" points="315.862,-156 325.862,-152.5 315.862,-149 315.862,-156"/>
</g>
<!-- Node8 -->
<g id="node8" class="node"><title>Node8</title>
<g id="a_node8"><a xlink:href="$d7/d4e/classamunmt_1_1God.html#add49c80e570f5be5b2802565458f1c36" xlink:title="amunmt::God::Init">
<polygon fill="white" stroke="black" points="353,-99 353,-118 448,-118 448,-99 353,-99"/>
<text text-anchor="middle" x="400.5" y="-106" font-family="Helvetica,sans-Serif" font-size="10.00">amunmt::God::Init</text>
</a>
</g>
</g>
<!-- Node7&#45;&gt;Node8 -->
<g id="edge7" class="edge"><title>Node7&#45;&gt;Node8</title>
<path fill="none" stroke="midnightblue" d="M241.285,-108.5C263.051,-108.5 306.599,-108.5 342.505,-108.5"/>
<polygon fill="midnightblue" stroke="midnightblue" points="342.887,-112 352.887,-108.5 342.887,-105 342.887,-112"/>
</g>
</g>
</svg>
