<?xml version="1.0" encoding="UTF-8" standalone="no"?>
<!DOCTYPE svg PUBLIC "-//W3C//DTD SVG 1.1//EN"
 "http://www.w3.org/Graphics/SVG/1.1/DTD/svg11.dtd">
<!-- Generated by graphviz version 2.38.0 (20140413.2041)
 -->
<!-- Title: marian::ExpressionGraph::zeros Pages: 1 -->
<svg width="298pt" height="165pt"
 viewBox="0.00 0.00 298.00 165.00" xmlns="http://www.w3.org/2000/svg" xmlns:xlink="http://www.w3.org/1999/xlink">
<g id="graph0" class="graph" transform="scale(1 1) rotate(0) translate(4 161)">
<title>marian::ExpressionGraph::zeros</title>
<polygon fill="white" stroke="none" points="-4,4 -4,-161 294,-161 294,4 -4,4"/>
<!-- Node1 -->
<g id="node1" class="node"><title>Node1</title>
<polygon fill="#bfbfbf" stroke="black" points="0,-63 0,-93 127,-93 127,-63 0,-63"/>
<text text-anchor="start" x="8" y="-81" font-family="Helvetica,sans-Serif" font-size="10.00">marian::ExpressionGraph</text>
<text text-anchor="middle" x="63.5" y="-70" font-family="Helvetica,sans-Serif" font-size="10.00">::zeros</text>
</g>
<!-- Node2 -->
<g id="node2" class="node"><title>Node2</title>
<g id="a_node2"><a xlink:href="$d4/dec/namespacemarian_1_1inits.html#a1bd34fd256e3df7bb1e27955a7f2b359" xlink:title="marian::inits::zeros">
<polygon fill="white" stroke="black" points="176.5,-137.5 176.5,-156.5 276.5,-156.5 276.5,-137.5 176.5,-137.5"/>
<text text-anchor="middle" x="226.5" y="-144.5" font-family="Helvetica,sans-Serif" font-size="10.00">marian::inits::zeros</text>
</a>
</g>
</g>
<!-- Node1&#45;&gt;Node2 -->
<g id="edge1" class="edge"><title>Node1&#45;&gt;Node2</title>
<path fill="none" stroke="midnightblue" d="M91.0852,-93.0957C110.58,-103.766 137.913,-117.909 163,-128 168.527,-130.223 174.418,-132.334 180.29,-134.285"/>
<polygon fill="midnightblue" stroke="midnightblue" points="179.496,-137.706 190.087,-137.409 181.623,-131.036 179.496,-137.706"/>
</g>
<!-- Node3 -->
<g id="node3" class="node"><title>Node3</title>
<g id="a_node3"><a xlink:href="$da/db9/classmarian_1_1ExpressionGraph.html#a187a176cd6a6b793b6b65dc1a13814e5" xlink:title="marian::ExpressionGraph\l::dropout">
<polygon fill="white" stroke="black" points="163,-88 163,-118 290,-118 290,-88 163,-88"/>
<text text-anchor="start" x="171" y="-106" font-family="Helvetica,sans-Serif" font-size="10.00">marian::ExpressionGraph</text>
<text text-anchor="middle" x="226.5" y="-95" font-family="Helvetica,sans-Serif" font-size="10.00">::dropout</text>
</a>
</g>
</g>
<!-- Node1&#45;&gt;Node3 -->
<g id="edge2" class="edge"><title>Node1&#45;&gt;Node3</title>
<path fill="none" stroke="midnightblue" d="M127.208,-87.7372C135.648,-89.0478 144.363,-90.4011 152.956,-91.7354"/>
<polygon fill="midnightblue" stroke="midnightblue" points="152.545,-95.2134 162.963,-93.2893 153.619,-88.2963 152.545,-95.2134"/>
</g>
<!-- Node4 -->
<g id="node4" class="node"><title>Node4</title>
<g id="a_node4"><a xlink:href="$da/db9/classmarian_1_1ExpressionGraph.html#a0816bd611240498f346c3557593b2538" xlink:title="marian::ExpressionGraph\l::gaussian">
<polygon fill="white" stroke="black" points="163,-39 163,-69 290,-69 290,-39 163,-39"/>
<text text-anchor="start" x="171" y="-57" font-family="Helvetica,sans-Serif" font-size="10.00">marian::ExpressionGraph</text>
<text text-anchor="middle" x="226.5" y="-46" font-family="Helvetica,sans-Serif" font-size="10.00">::gaussian</text>
</a>
</g>
</g>
<!-- Node1&#45;&gt;Node4 -->
<g id="edge3" class="edge"><title>Node1&#45;&gt;Node4</title>
<path fill="none" stroke="midnightblue" d="M127.208,-68.6523C135.648,-67.3941 144.363,-66.0949 152.956,-64.814"/>
<polygon fill="midnightblue" stroke="midnightblue" points="153.589,-68.2585 162.963,-63.3222 152.557,-61.335 153.589,-68.2585"/>
</g>
<!-- Node5 -->
<g id="node5" class="node"><title>Node5</title>
<g id="a_node5"><a xlink:href="$da/d22/namespacemarian.html#a15ec9743709e47180378db974ddbf116" xlink:title="marian::mean">
<polygon fill="white" stroke="black" points="188.5,-0.5 188.5,-19.5 264.5,-19.5 264.5,-0.5 188.5,-0.5"/>
<text text-anchor="middle" x="226.5" y="-7.5" font-family="Helvetica,sans-Serif" font-size="10.00">marian::mean</text>
</a>
</g>
</g>
<!-- Node1&#45;&gt;Node5 -->
<g id="edge4" class="edge"><title>Node1&#45;&gt;Node5</title>
<path fill="none" stroke="midnightblue" d="M92.8851,-62.8182C112.304,-52.7693 138.813,-39.7049 163,-30 169.394,-27.4347 176.254,-24.9653 183.004,-22.6898"/>
<polygon fill="midnightblue" stroke="midnightblue" points="184.328,-25.9391 192.746,-19.506 182.154,-19.2854 184.328,-25.9391"/>
</g>
</g>
</svg>
