<?xml version="1.0" encoding="UTF-8" standalone="no"?>
<!DOCTYPE svg PUBLIC "-//W3C//DTD SVG 1.1//EN"
 "http://www.w3.org/Graphics/SVG/1.1/DTD/svg11.dtd">
<!-- Generated by graphviz version 2.38.0 (20140413.2041)
 -->
<!-- Title: marian::data::CorpusBatch Pages: 1 -->
<svg width="142pt" height="325pt"
 viewBox="0.00 0.00 142.00 325.00" xmlns="http://www.w3.org/2000/svg" xmlns:xlink="http://www.w3.org/1999/xlink">
<g id="graph0" class="graph" transform="scale(1 1) rotate(0) translate(4 321)">
<title>marian::data::CorpusBatch</title>
<polygon fill="white" stroke="none" points="-4,4 -4,-321 138,-321 138,4 -4,4"/>
<!-- Node1 -->
<g id="node1" class="node"><title>Node1</title>
<polygon fill="#bfbfbf" stroke="black" points="0,-0.5 0,-189.5 134,-189.5 134,-0.5 0,-0.5"/>
<text text-anchor="middle" x="67" y="-177.5" font-family="Helvetica,sans-Serif" font-size="10.00">marian::data::CorpusBatch</text>
<polyline fill="none" stroke="black" points="0,-170.5 134,-170.5 "/>
<text text-anchor="start" x="8" y="-158.5" font-family="Helvetica,sans-Serif" font-size="10.00">&#45; batches_</text>
<text text-anchor="start" x="8" y="-147.5" font-family="Helvetica,sans-Serif" font-size="10.00">&#45; sentenceIds_</text>
<text text-anchor="start" x="8" y="-136.5" font-family="Helvetica,sans-Serif" font-size="10.00">&#45; guidedAlignment_</text>
<polyline fill="none" stroke="black" points="0,-129.5 134,-129.5 "/>
<text text-anchor="start" x="8" y="-117.5" font-family="Helvetica,sans-Serif" font-size="10.00">+ CorpusBatch()</text>
<text text-anchor="start" x="8" y="-106.5" font-family="Helvetica,sans-Serif" font-size="10.00">+ operator[]()</text>
<text text-anchor="start" x="8" y="-95.5" font-family="Helvetica,sans-Serif" font-size="10.00">+ front()</text>
<text text-anchor="start" x="8" y="-84.5" font-family="Helvetica,sans-Serif" font-size="10.00">+ back()</text>
<text text-anchor="start" x="8" y="-73.5" font-family="Helvetica,sans-Serif" font-size="10.00">+ debug()</text>
<text text-anchor="start" x="8" y="-62.5" font-family="Helvetica,sans-Serif" font-size="10.00">+ size()</text>
<text text-anchor="start" x="8" y="-51.5" font-family="Helvetica,sans-Serif" font-size="10.00">+ words()</text>
<text text-anchor="start" x="8" y="-40.5" font-family="Helvetica,sans-Serif" font-size="10.00">+ sets()</text>
<text text-anchor="start" x="8" y="-29.5" font-family="Helvetica,sans-Serif" font-size="10.00">+ getGuidedAlignment()</text>
<text text-anchor="start" x="8" y="-18.5" font-family="Helvetica,sans-Serif" font-size="10.00">+ setGuidedAlignment()</text>
<text text-anchor="start" x="8" y="-7.5" font-family="Helvetica,sans-Serif" font-size="10.00">+ fakeBatch()</text>
</g>
<!-- Node2 -->
<g id="node2" class="node"><title>Node2</title>
<g id="a_node2"><a xlink:href="../../d7/db1/classmarian_1_1data_1_1Batch.html" target="_top" xlink:title="{marian::data::Batch\n|# sentenceIds_\l|+ size()\l+ words()\l+ getSentenceIds()\l+ setSentenceIds()\l}">
<polygon fill="white" stroke="black" points="16,-226.5 16,-316.5 118,-316.5 118,-226.5 16,-226.5"/>
<text text-anchor="middle" x="67" y="-304.5" font-family="Helvetica,sans-Serif" font-size="10.00">marian::data::Batch</text>
<polyline fill="none" stroke="black" points="16,-297.5 118,-297.5 "/>
<text text-anchor="start" x="24" y="-285.5" font-family="Helvetica,sans-Serif" font-size="10.00"># sentenceIds_</text>
<polyline fill="none" stroke="black" points="16,-278.5 118,-278.5 "/>
<text text-anchor="start" x="24" y="-266.5" font-family="Helvetica,sans-Serif" font-size="10.00">+ size()</text>
<text text-anchor="start" x="24" y="-255.5" font-family="Helvetica,sans-Serif" font-size="10.00">+ words()</text>
<text text-anchor="start" x="24" y="-244.5" font-family="Helvetica,sans-Serif" font-size="10.00">+ getSentenceIds()</text>
<text text-anchor="start" x="24" y="-233.5" font-family="Helvetica,sans-Serif" font-size="10.00">+ setSentenceIds()</text>
</a>
</g>
</g>
<!-- Node2&#45;&gt;Node1 -->
<g id="edge1" class="edge"><title>Node2&#45;&gt;Node1</title>
<path fill="none" stroke="midnightblue" d="M67,-216.362C67,-207.856 67,-198.857 67,-189.763"/>
<polygon fill="none" stroke="midnightblue" points="63.5001,-216.466 67,-226.466 70.5001,-216.466 63.5001,-216.466"/>
</g>
</g>
</svg>
