<?xml version="1.0" encoding="UTF-8" standalone="no"?>
<!DOCTYPE svg PUBLIC "-//W3C//DTD SVG 1.1//EN"
 "http://www.w3.org/Graphics/SVG/1.1/DTD/svg11.dtd">
<!-- Generated by graphviz version 2.38.0 (20140413.2041)
 -->
<!-- Title: amunmt::Vocab::size Pages: 1 -->
<svg width="494pt" height="39pt"
 viewBox="0.00 0.00 494.00 39.00" xmlns="http://www.w3.org/2000/svg" xmlns:xlink="http://www.w3.org/1999/xlink">
<g id="graph0" class="graph" transform="scale(1 1) rotate(0) translate(4 35)">
<title>amunmt::Vocab::size</title>
<polygon fill="white" stroke="none" points="-4,4 -4,-35 490,-35 490,4 -4,4"/>
<!-- Node1 -->
<g id="node1" class="node"><title>Node1</title>
<polygon fill="#bfbfbf" stroke="black" points="0,-6 0,-25 110,-25 110,-6 0,-6"/>
<text text-anchor="middle" x="55" y="-13" font-family="Helvetica,sans-Serif" font-size="10.00">amunmt::Vocab::size</text>
</g>
<!-- Node2 -->
<g id="node2" class="node"><title>Node2</title>
<g id="a_node2"><a xlink:href="$d6/d0e/classamunmt_1_1Filter.html#a8577454f5c8aa797f92c53c51d7791bc" xlink:title="amunmt::Filter::ParseAlignmentFile">
<polygon fill="white" stroke="black" points="146,-6 146,-25 316,-25 316,-6 146,-6"/>
<text text-anchor="middle" x="231" y="-13" font-family="Helvetica,sans-Serif" font-size="10.00">amunmt::Filter::ParseAlignmentFile</text>
</a>
</g>
</g>
<!-- Node1&#45;&gt;Node2 -->
<g id="edge1" class="edge"><title>Node1&#45;&gt;Node2</title>
<path fill="none" stroke="midnightblue" d="M120.161,-15.5C128.551,-15.5 137.246,-15.5 145.903,-15.5"/>
<polygon fill="midnightblue" stroke="midnightblue" points="120.101,-12.0001 110.101,-15.5 120.101,-19.0001 120.101,-12.0001"/>
</g>
<!-- Node3 -->
<g id="node3" class="node"><title>Node3</title>
<g id="a_node3"><a xlink:href="$d6/d0e/classamunmt_1_1Filter.html#a2590b529fb636d351730f2fae05a78e9" xlink:title="amunmt::Filter::GetFiltered\lVocab">
<polygon fill="white" stroke="black" points="352,-0.5 352,-30.5 486,-30.5 486,-0.5 352,-0.5"/>
<text text-anchor="start" x="360" y="-18.5" font-family="Helvetica,sans-Serif" font-size="10.00">amunmt::Filter::GetFiltered</text>
<text text-anchor="middle" x="419" y="-7.5" font-family="Helvetica,sans-Serif" font-size="10.00">Vocab</text>
</a>
</g>
</g>
<!-- Node2&#45;&gt;Node3 -->
<g id="edge2" class="edge"><title>Node2&#45;&gt;Node3</title>
<path fill="none" stroke="midnightblue" d="M326.205,-15.5C334.89,-15.5 343.561,-15.5 351.914,-15.5"/>
<polygon fill="midnightblue" stroke="midnightblue" points="326.021,-12.0001 316.021,-15.5 326.021,-19.0001 326.021,-12.0001"/>
</g>
</g>
</svg>
