<?xml version="1.0" encoding="UTF-8" standalone="no"?>
<!DOCTYPE svg PUBLIC "-//W3C//DTD SVG 1.1//EN"
 "http://www.w3.org/Graphics/SVG/1.1/DTD/svg11.dtd">
<!-- Generated by graphviz version 2.38.0 (20140413.2041)
 -->
<!-- Title: marian::inits::from_value Pages: 1 -->
<svg width="277pt" height="302pt"
 viewBox="0.00 0.00 277.00 301.50" xmlns="http://www.w3.org/2000/svg" xmlns:xlink="http://www.w3.org/1999/xlink">
<g id="graph0" class="graph" transform="scale(1 1) rotate(0) translate(4 297.5)">
<title>marian::inits::from_value</title>
<polygon fill="white" stroke="none" points="-4,4 -4,-297.5 273,-297.5 273,4 -4,4"/>
<!-- Node1 -->
<g id="node1" class="node"><title>Node1</title>
<polygon fill="#bfbfbf" stroke="black" points="0,-132 0,-162 95,-162 95,-132 0,-132"/>
<text text-anchor="start" x="8" y="-150" font-family="Helvetica,sans-Serif" font-size="10.00">marian::inits::from</text>
<text text-anchor="middle" x="47.5" y="-139" font-family="Helvetica,sans-Serif" font-size="10.00">_value</text>
</g>
<!-- Node2 -->
<g id="node2" class="node"><title>Node2</title>
<g id="a_node2"><a xlink:href="../../d7/db4/classmarian_1_1rnn_1_1GlobalAttention.html#ab5e4f0df89d2569d44a28696de3ace0f" target="_top" xlink:title="marian::rnn::GlobalAttention\l::GlobalAttention">
<polygon fill="white" stroke="black" points="131,-263 131,-293 269,-293 269,-263 131,-263"/>
<text text-anchor="start" x="139" y="-281" font-family="Helvetica,sans-Serif" font-size="10.00">marian::rnn::GlobalAttention</text>
<text text-anchor="middle" x="200" y="-270" font-family="Helvetica,sans-Serif" font-size="10.00">::GlobalAttention</text>
</a>
</g>
</g>
<!-- Node1&#45;&gt;Node2 -->
<g id="edge1" class="edge"><title>Node1&#45;&gt;Node2</title>
<path fill="none" stroke="midnightblue" d="M61.6001,-171.267C75.7664,-195.391 100.472,-231.899 131,-254 135.665,-257.377 140.849,-260.315 146.214,-262.864"/>
<polygon fill="midnightblue" stroke="midnightblue" points="64.5232,-169.328 56.5268,-162.377 58.4436,-172.797 64.5232,-169.328"/>
</g>
<!-- Node3 -->
<g id="node3" class="node"><title>Node3</title>
<g id="a_node3"><a xlink:href="../../db/d4b/classmarian_1_1BeamSearch.html#a6ee0fce9e694269a4c59f6afe48a4075" target="_top" xlink:title="marian::BeamSearch\l::search">
<polygon fill="white" stroke="black" points="146,-214 146,-244 254,-244 254,-214 146,-214"/>
<text text-anchor="start" x="154" y="-232" font-family="Helvetica,sans-Serif" font-size="10.00">marian::BeamSearch</text>
<text text-anchor="middle" x="200" y="-221" font-family="Helvetica,sans-Serif" font-size="10.00">::search</text>
</a>
</g>
</g>
<!-- Node1&#45;&gt;Node3 -->
<g id="edge2" class="edge"><title>Node1&#45;&gt;Node3</title>
<path fill="none" stroke="midnightblue" d="M75.4442,-168.2C91.0569,-179.81 111.441,-193.856 131,-204 137.923,-207.59 145.481,-210.908 152.96,-213.875"/>
<polygon fill="midnightblue" stroke="midnightblue" points="77.3846,-165.279 67.2969,-162.041 73.1633,-170.863 77.3846,-165.279"/>
</g>
<!-- Node4 -->
<g id="node4" class="node"><title>Node4</title>
<g id="a_node4"><a xlink:href="../../d0/d1d/classmarian_1_1rnn_1_1Tanh.html#ae1971d0005d9f0bdb08ed2c0ecec32dc" target="_top" xlink:title="marian::rnn::Tanh::Tanh">
<polygon fill="white" stroke="black" points="139.5,-175.5 139.5,-194.5 260.5,-194.5 260.5,-175.5 139.5,-175.5"/>
<text text-anchor="middle" x="200" y="-182.5" font-family="Helvetica,sans-Serif" font-size="10.00">marian::rnn::Tanh::Tanh</text>
</a>
</g>
</g>
<!-- Node1&#45;&gt;Node4 -->
<g id="edge3" class="edge"><title>Node1&#45;&gt;Node4</title>
<path fill="none" stroke="midnightblue" d="M105.213,-161.32C123.958,-166.052 144.339,-171.199 161.299,-175.481"/>
<polygon fill="midnightblue" stroke="midnightblue" points="105.847,-157.87 95.2942,-158.815 104.133,-164.657 105.847,-157.87"/>
</g>
<!-- Node5 -->
<g id="node5" class="node"><title>Node5</title>
<g id="a_node5"><a xlink:href="../../d7/d03/classmarian_1_1rnn_1_1GRU.html#a3f47434b08986222608a2a31f776c334" target="_top" xlink:title="marian::rnn::GRU::GRU">
<polygon fill="white" stroke="black" points="139,-137.5 139,-156.5 261,-156.5 261,-137.5 139,-137.5"/>
<text text-anchor="middle" x="200" y="-144.5" font-family="Helvetica,sans-Serif" font-size="10.00">marian::rnn::GRU::GRU</text>
</a>
</g>
</g>
<!-- Node1&#45;&gt;Node5 -->
<g id="edge4" class="edge"><title>Node1&#45;&gt;Node5</title>
<path fill="none" stroke="midnightblue" d="M105.556,-147C116.467,-147 127.921,-147 138.924,-147"/>
<polygon fill="midnightblue" stroke="midnightblue" points="105.294,-143.5 95.2942,-147 105.294,-150.5 105.294,-143.5"/>
</g>
<!-- Node6 -->
<g id="node6" class="node"><title>Node6</title>
<g id="a_node6"><a xlink:href="../../db/df5/classmarian_1_1rnn_1_1FastLSTM.html#a86992e0f6dc2d22b32f57d482b2661c0" target="_top" xlink:title="marian::rnn::FastLSTM\l::FastLSTM">
<polygon fill="white" stroke="black" points="141.5,-88 141.5,-118 258.5,-118 258.5,-88 141.5,-88"/>
<text text-anchor="start" x="149.5" y="-106" font-family="Helvetica,sans-Serif" font-size="10.00">marian::rnn::FastLSTM</text>
<text text-anchor="middle" x="200" y="-95" font-family="Helvetica,sans-Serif" font-size="10.00">::FastLSTM</text>
</a>
</g>
</g>
<!-- Node1&#45;&gt;Node6 -->
<g id="edge5" class="edge"><title>Node1&#45;&gt;Node6</title>
<path fill="none" stroke="midnightblue" d="M105.219,-130.418C119.108,-126.357 133.895,-122.034 147.522,-118.05"/>
<polygon fill="midnightblue" stroke="midnightblue" points="103.91,-127.154 95.2942,-133.319 105.875,-133.872 103.91,-127.154"/>
</g>
<!-- Node7 -->
<g id="node7" class="node"><title>Node7</title>
<g id="a_node7"><a xlink:href="../../de/da0/classmarian_1_1rnn_1_1Multiplicative.html#a0e9039699e77cdb7275ee0cd8dfc6f3b" target="_top" xlink:title="marian::rnn::Multiplicative\l::Multiplicative">
<polygon fill="white" stroke="black" points="136,-39 136,-69 264,-69 264,-39 136,-39"/>
<text text-anchor="start" x="144" y="-57" font-family="Helvetica,sans-Serif" font-size="10.00">marian::rnn::Multiplicative</text>
<text text-anchor="middle" x="200" y="-46" font-family="Helvetica,sans-Serif" font-size="10.00">::Multiplicative</text>
</a>
</g>
</g>
<!-- Node1&#45;&gt;Node7 -->
<g id="edge6" class="edge"><title>Node1&#45;&gt;Node7</title>
<path fill="none" stroke="midnightblue" d="M71.3677,-124.543C87.1081,-110.035 109.064,-91.5841 131,-79 137.437,-75.3073 144.519,-71.9888 151.607,-69.0681"/>
<polygon fill="midnightblue" stroke="midnightblue" points="68.624,-122.319 63.736,-131.719 73.4189,-127.419 68.624,-122.319"/>
</g>
<!-- Node8 -->
<g id="node8" class="node"><title>Node8</title>
<g id="a_node8"><a xlink:href="../../d2/d88/generic_8h.html#a2c61aac8c1ec585882b5b11755204516" target="_top" xlink:title="YAML_REGISTER_TYPE">
<polygon fill="white" stroke="black" points="134,-0.5 134,-19.5 266,-19.5 266,-0.5 134,-0.5"/>
<text text-anchor="middle" x="200" y="-7.5" font-family="Helvetica,sans-Serif" font-size="10.00">YAML_REGISTER_TYPE</text>
</a>
</g>
</g>
<!-- Node1&#45;&gt;Node8 -->
<g id="edge7" class="edge"><title>Node1&#45;&gt;Node8</title>
<path fill="none" stroke="midnightblue" d="M59.3512,-122.953C72.5605,-96.3599 97.3424,-54.0968 131,-30 137.103,-25.6303 144.159,-22.2075 151.367,-19.5284"/>
<polygon fill="midnightblue" stroke="midnightblue" points="56.1904,-121.45 55.0131,-131.979 62.4996,-124.482 56.1904,-121.45"/>
</g>
</g>
</svg>
