<?xml version="1.0" encoding="UTF-8" standalone="no"?>
<!DOCTYPE svg PUBLIC "-//W3C//DTD SVG 1.1//EN"
 "http://www.w3.org/Graphics/SVG/1.1/DTD/svg11.dtd">
<!-- Generated by graphviz version 2.38.0 (20140413.2041)
 -->
<!-- Title: filter.h Pages: 1 -->
<svg width="935pt" height="196pt"
 viewBox="0.00 0.00 934.50 196.00" xmlns="http://www.w3.org/2000/svg" xmlns:xlink="http://www.w3.org/1999/xlink">
<g id="graph0" class="graph" transform="scale(1 1) rotate(0) translate(4 192)">
<title>filter.h</title>
<polygon fill="white" stroke="none" points="-4,4 -4,-192 930.5,-192 930.5,4 -4,4"/>
<!-- Node1 -->
<g id="node1" class="node"><title>Node1</title>
<polygon fill="#bfbfbf" stroke="black" points="163.5,-168.5 163.5,-187.5 207.5,-187.5 207.5,-168.5 163.5,-168.5"/>
<text text-anchor="middle" x="185.5" y="-175.5" font-family="Helvetica,sans-Serif" font-size="10.00">filter.h</text>
</g>
<!-- Node2 -->
<g id="node2" class="node"><title>Node2</title>
<polygon fill="white" stroke="#bfbfbf" points="0,-112.5 0,-131.5 83,-131.5 83,-112.5 0,-112.5"/>
<text text-anchor="middle" x="41.5" y="-119.5" font-family="Helvetica,sans-Serif" font-size="10.00">unordered_map</text>
</g>
<!-- Node1&#45;&gt;Node2 -->
<g id="edge1" class="edge"><title>Node1&#45;&gt;Node2</title>
<path fill="none" stroke="midnightblue" d="M163.316,-168.681C139.426,-159.722 101.184,-145.382 73.9238,-135.159"/>
<polygon fill="midnightblue" stroke="midnightblue" points="75.0164,-131.831 64.4242,-131.597 72.5585,-138.385 75.0164,-131.831"/>
</g>
<!-- Node3 -->
<g id="node3" class="node"><title>Node3</title>
<polygon fill="white" stroke="#bfbfbf" points="86.5,-56.5 86.5,-75.5 130.5,-75.5 130.5,-56.5 86.5,-56.5"/>
<text text-anchor="middle" x="108.5" y="-63.5" font-family="Helvetica,sans-Serif" font-size="10.00">vector</text>
</g>
<!-- Node1&#45;&gt;Node3 -->
<g id="edge2" class="edge"><title>Node1&#45;&gt;Node3</title>
<path fill="none" stroke="midnightblue" d="M170.93,-168.387C158.565,-160.39 141.177,-147.417 130.5,-132 120.855,-118.074 115.138,-99.5656 111.96,-85.8612"/>
<polygon fill="midnightblue" stroke="midnightblue" points="115.309,-84.7704 109.857,-75.6854 108.453,-86.1868 115.309,-84.7704"/>
</g>
<!-- Node4 -->
<g id="node4" class="node"><title>Node4</title>
<polygon fill="white" stroke="#bfbfbf" points="139.5,-112.5 139.5,-131.5 231.5,-131.5 231.5,-112.5 139.5,-112.5"/>
<text text-anchor="middle" x="185.5" y="-119.5" font-family="Helvetica,sans-Serif" font-size="10.00">common/config.h</text>
</g>
<!-- Node1&#45;&gt;Node4 -->
<g id="edge3" class="edge"><title>Node1&#45;&gt;Node4</title>
<path fill="none" stroke="midnightblue" d="M185.5,-168.083C185.5,-161.006 185.5,-150.861 185.5,-141.986"/>
<polygon fill="midnightblue" stroke="midnightblue" points="189,-141.751 185.5,-131.751 182,-141.751 189,-141.751"/>
</g>
<!-- Node5 -->
<g id="node5" class="node"><title>Node5</title>
<g id="a_node5"><a xlink:href="../../d6/dc2/definitions_8h.html" target="_top" xlink:title="common/definitions.h">
<polygon fill="white" stroke="black" points="249.5,-112.5 249.5,-131.5 359.5,-131.5 359.5,-112.5 249.5,-112.5"/>
<text text-anchor="middle" x="304.5" y="-119.5" font-family="Helvetica,sans-Serif" font-size="10.00">common/definitions.h</text>
</a>
</g>
</g>
<!-- Node1&#45;&gt;Node5 -->
<g id="edge4" class="edge"><title>Node1&#45;&gt;Node5</title>
<path fill="none" stroke="midnightblue" d="M204.356,-168.444C223.766,-159.636 254.23,-145.812 276.465,-135.722"/>
<polygon fill="midnightblue" stroke="midnightblue" points="278.072,-138.836 285.732,-131.516 275.18,-132.462 278.072,-138.836"/>
</g>
<!-- Node19 -->
<g id="node19" class="node"><title>Node19</title>
<polygon fill="white" stroke="#bfbfbf" points="378,-112.5 378,-131.5 491,-131.5 491,-112.5 378,-112.5"/>
<text text-anchor="middle" x="434.5" y="-119.5" font-family="Helvetica,sans-Serif" font-size="10.00">common/file_stream.h</text>
</g>
<!-- Node1&#45;&gt;Node19 -->
<g id="edge20" class="edge"><title>Node1&#45;&gt;Node19</title>
<path fill="none" stroke="midnightblue" d="M207.597,-172.208C247.18,-163.624 331.073,-145.43 385.013,-133.732"/>
<polygon fill="midnightblue" stroke="midnightblue" points="386.018,-137.096 395.05,-131.556 384.535,-130.255 386.018,-137.096"/>
</g>
<!-- Node5&#45;&gt;Node3 -->
<g id="edge8" class="edge"><title>Node5&#45;&gt;Node3</title>
<path fill="none" stroke="midnightblue" d="M272.518,-112.443C241.195,-104.026 191.869,-90.675 140.178,-76.159"/>
<polygon fill="midnightblue" stroke="midnightblue" points="141.077,-72.776 130.503,-73.4359 139.181,-79.5142 141.077,-72.776"/>
</g>
<!-- Node6 -->
<g id="node6" class="node"><title>Node6</title>
<polygon fill="white" stroke="#bfbfbf" points="149,-56.5 149,-75.5 208,-75.5 208,-56.5 149,-56.5"/>
<text text-anchor="middle" x="178.5" y="-63.5" font-family="Helvetica,sans-Serif" font-size="10.00">functional</text>
</g>
<!-- Node5&#45;&gt;Node6 -->
<g id="edge5" class="edge"><title>Node5&#45;&gt;Node6</title>
<path fill="none" stroke="midnightblue" d="M284.535,-112.444C263.891,-103.596 231.437,-89.6875 207.868,-79.5865"/>
<polygon fill="midnightblue" stroke="midnightblue" points="208.942,-76.2387 198.372,-75.5164 206.184,-82.6727 208.942,-76.2387"/>
</g>
<!-- Node7 -->
<g id="node7" class="node"><title>Node7</title>
<polygon fill="white" stroke="#bfbfbf" points="226.5,-56.5 226.5,-75.5 278.5,-75.5 278.5,-56.5 226.5,-56.5"/>
<text text-anchor="middle" x="252.5" y="-63.5" font-family="Helvetica,sans-Serif" font-size="10.00">memory</text>
</g>
<!-- Node5&#45;&gt;Node7 -->
<g id="edge6" class="edge"><title>Node5&#45;&gt;Node7</title>
<path fill="none" stroke="midnightblue" d="M295.913,-112.083C288.341,-104.22 277.122,-92.5688 267.986,-83.0813"/>
<polygon fill="midnightblue" stroke="midnightblue" points="270.385,-80.5266 260.927,-75.7511 265.342,-85.3821 270.385,-80.5266"/>
</g>
<!-- Node8 -->
<g id="node8" class="node"><title>Node8</title>
<polygon fill="white" stroke="#bfbfbf" points="305,-0.5 305,-19.5 346,-19.5 346,-0.5 305,-0.5"/>
<text text-anchor="middle" x="325.5" y="-7.5" font-family="Helvetica,sans-Serif" font-size="10.00">string</text>
</g>
<!-- Node5&#45;&gt;Node8 -->
<g id="edge7" class="edge"><title>Node5&#45;&gt;Node8</title>
<path fill="none" stroke="midnightblue" d="M306.148,-112.368C309.537,-94.617 317.355,-53.6664 321.95,-29.5974"/>
<polygon fill="midnightblue" stroke="midnightblue" points="325.422,-30.0704 323.86,-19.5914 318.547,-28.7577 325.422,-30.0704"/>
</g>
<!-- Node9 -->
<g id="node9" class="node"><title>Node9</title>
<polygon fill="white" stroke="#bfbfbf" points="334.5,-56.5 334.5,-75.5 430.5,-75.5 430.5,-56.5 334.5,-56.5"/>
<text text-anchor="middle" x="382.5" y="-63.5" font-family="Helvetica,sans-Serif" font-size="10.00">common/logging.h</text>
</g>
<!-- Node5&#45;&gt;Node9 -->
<g id="edge9" class="edge"><title>Node5&#45;&gt;Node9</title>
<path fill="none" stroke="midnightblue" d="M317.032,-112.324C329.086,-103.979 347.527,-91.2122 361.769,-81.3524"/>
<polygon fill="midnightblue" stroke="midnightblue" points="363.769,-84.2243 369.999,-75.6545 359.785,-78.469 363.769,-84.2243"/>
</g>
<!-- Node10 -->
<g id="node10" class="node"><title>Node10</title>
<g id="a_node10"><a xlink:href="../../da/d18/shape_8h.html" target="_top" xlink:title="shape.h">
<polygon fill="white" stroke="black" points="449,-56.5 449,-75.5 500,-75.5 500,-56.5 449,-56.5"/>
<text text-anchor="middle" x="474.5" y="-63.5" font-family="Helvetica,sans-Serif" font-size="10.00">shape.h</text>
</a>
</g>
</g>
<!-- Node5&#45;&gt;Node10 -->
<g id="edge10" class="edge"><title>Node5&#45;&gt;Node10</title>
<path fill="none" stroke="midnightblue" d="M331.437,-112.444C360.498,-103.212 406.906,-88.4712 438.945,-78.2941"/>
<polygon fill="midnightblue" stroke="midnightblue" points="440.331,-81.5262 448.802,-75.1629 438.211,-74.8547 440.331,-81.5262"/>
</g>
<!-- Node13 -->
<g id="node13" class="node"><title>Node13</title>
<g id="a_node13"><a xlink:href="../../d2/db7/keywords_8h.html" target="_top" xlink:title="keywords.h">
<polygon fill="white" stroke="black" points="633,-56.5 633,-75.5 700,-75.5 700,-56.5 633,-56.5"/>
<text text-anchor="middle" x="666.5" y="-63.5" font-family="Helvetica,sans-Serif" font-size="10.00">keywords.h</text>
</a>
</g>
</g>
<!-- Node5&#45;&gt;Node13 -->
<g id="edge14" class="edge"><title>Node5&#45;&gt;Node13</title>
<path fill="none" stroke="midnightblue" d="M359.874,-112.74C432.067,-101.971 556.874,-83.353 622.793,-73.5198"/>
<polygon fill="midnightblue" stroke="midnightblue" points="623.476,-76.9568 632.85,-72.0196 622.443,-70.0334 623.476,-76.9568"/>
</g>
<!-- Node10&#45;&gt;Node8 -->
<g id="edge13" class="edge"><title>Node10&#45;&gt;Node8</title>
<path fill="none" stroke="midnightblue" d="M450.891,-56.4435C425.165,-47.1203 383.932,-32.1768 355.827,-21.9911"/>
<polygon fill="midnightblue" stroke="midnightblue" points="356.714,-18.5898 346.12,-18.473 354.329,-25.1709 356.714,-18.5898"/>
</g>
<!-- Node11 -->
<g id="node11" class="node"><title>Node11</title>
<polygon fill="white" stroke="#bfbfbf" points="383.5,-0.5 383.5,-19.5 429.5,-19.5 429.5,-0.5 383.5,-0.5"/>
<text text-anchor="middle" x="406.5" y="-7.5" font-family="Helvetica,sans-Serif" font-size="10.00">cstdint</text>
</g>
<!-- Node10&#45;&gt;Node11 -->
<g id="edge11" class="edge"><title>Node10&#45;&gt;Node11</title>
<path fill="none" stroke="midnightblue" d="M463.575,-56.324C453.325,-48.1849 437.779,-35.8395 425.499,-26.0874"/>
<polygon fill="midnightblue" stroke="midnightblue" points="427.632,-23.3119 417.624,-19.8339 423.279,-28.7937 427.632,-23.3119"/>
</g>
<!-- Node12 -->
<g id="node12" class="node"><title>Node12</title>
<polygon fill="white" stroke="#bfbfbf" points="447.5,-0.5 447.5,-19.5 501.5,-19.5 501.5,-0.5 447.5,-0.5"/>
<text text-anchor="middle" x="474.5" y="-7.5" font-family="Helvetica,sans-Serif" font-size="10.00">iostream</text>
</g>
<!-- Node10&#45;&gt;Node12 -->
<g id="edge12" class="edge"><title>Node10&#45;&gt;Node12</title>
<path fill="none" stroke="midnightblue" d="M474.5,-56.083C474.5,-49.0059 474.5,-38.8611 474.5,-29.9865"/>
<polygon fill="midnightblue" stroke="midnightblue" points="478,-29.751 474.5,-19.7511 471,-29.7511 478,-29.751"/>
</g>
<!-- Node14 -->
<g id="node14" class="node"><title>Node14</title>
<polygon fill="white" stroke="#bfbfbf" points="519.5,-0.5 519.5,-19.5 597.5,-19.5 597.5,-0.5 519.5,-0.5"/>
<text text-anchor="middle" x="558.5" y="-7.5" font-family="Helvetica,sans-Serif" font-size="10.00">boost/any.hpp</text>
</g>
<!-- Node13&#45;&gt;Node14 -->
<g id="edge15" class="edge"><title>Node13&#45;&gt;Node14</title>
<path fill="none" stroke="midnightblue" d="M649.148,-56.324C631.828,-47.6641 604.985,-34.2424 584.998,-24.249"/>
<polygon fill="midnightblue" stroke="midnightblue" points="586.319,-20.9962 575.809,-19.6545 583.188,-27.2572 586.319,-20.9962"/>
</g>
<!-- Node15 -->
<g id="node15" class="node"><title>Node15</title>
<polygon fill="white" stroke="#bfbfbf" points="616,-0.5 616,-19.5 651,-19.5 651,-0.5 616,-0.5"/>
<text text-anchor="middle" x="633.5" y="-7.5" font-family="Helvetica,sans-Serif" font-size="10.00">map</text>
</g>
<!-- Node13&#45;&gt;Node15 -->
<g id="edge16" class="edge"><title>Node13&#45;&gt;Node15</title>
<path fill="none" stroke="midnightblue" d="M661.051,-56.083C656.486,-48.6127 649.832,-37.7244 644.207,-28.5199"/>
<polygon fill="midnightblue" stroke="midnightblue" points="647.049,-26.4588 638.848,-19.7511 641.076,-30.109 647.049,-26.4588"/>
</g>
<!-- Node16 -->
<g id="node16" class="node"><title>Node16</title>
<polygon fill="white" stroke="#bfbfbf" points="669,-0.5 669,-19.5 728,-19.5 728,-0.5 669,-0.5"/>
<text text-anchor="middle" x="698.5" y="-7.5" font-family="Helvetica,sans-Serif" font-size="10.00">typeindex</text>
</g>
<!-- Node13&#45;&gt;Node16 -->
<g id="edge17" class="edge"><title>Node13&#45;&gt;Node16</title>
<path fill="none" stroke="midnightblue" d="M671.784,-56.083C676.211,-48.6127 682.663,-37.7244 688.118,-28.5199"/>
<polygon fill="midnightblue" stroke="midnightblue" points="691.227,-30.1383 693.314,-19.7511 685.205,-26.5697 691.227,-30.1383"/>
</g>
<!-- Node17 -->
<g id="node17" class="node"><title>Node17</title>
<polygon fill="white" stroke="#bfbfbf" points="746,-0.5 746,-19.5 797,-19.5 797,-0.5 746,-0.5"/>
<text text-anchor="middle" x="771.5" y="-7.5" font-family="Helvetica,sans-Serif" font-size="10.00">typeinfo</text>
</g>
<!-- Node13&#45;&gt;Node17 -->
<g id="edge18" class="edge"><title>Node13&#45;&gt;Node17</title>
<path fill="none" stroke="midnightblue" d="M683.37,-56.324C700.209,-47.6641 726.307,-34.2424 745.738,-24.249"/>
<polygon fill="midnightblue" stroke="midnightblue" points="747.38,-27.3405 754.672,-19.6545 744.178,-21.1155 747.38,-27.3405"/>
</g>
<!-- Node18 -->
<g id="node18" class="node"><title>Node18</title>
<g id="a_node18"><a xlink:href="../../d3/de0/compile__time__crc32_8h.html" target="_top" xlink:title="compile_time_crc32.h">
<polygon fill="white" stroke="black" points="814.5,-0.5 814.5,-19.5 926.5,-19.5 926.5,-0.5 814.5,-0.5"/>
<text text-anchor="middle" x="870.5" y="-7.5" font-family="Helvetica,sans-Serif" font-size="10.00">compile_time_crc32.h</text>
</a>
</g>
</g>
<!-- Node13&#45;&gt;Node18 -->
<g id="edge19" class="edge"><title>Node13&#45;&gt;Node18</title>
<path fill="none" stroke="midnightblue" d="M698.824,-56.4435C733.889,-47.1616 789.998,-32.3093 828.465,-22.127"/>
<polygon fill="midnightblue" stroke="midnightblue" points="829.555,-25.4589 838.327,-19.5164 827.764,-18.692 829.555,-25.4589"/>
</g>
</g>
</svg>
