<?xml version="1.0" encoding="UTF-8" standalone="no"?>
<!DOCTYPE svg PUBLIC "-//W3C//DTD SVG 1.1//EN"
 "http://www.w3.org/Graphics/SVG/1.1/DTD/svg11.dtd">
<!-- Generated by graphviz version 2.38.0 (20140413.2041)
 -->
<!-- Title: encoder_decoder.h Pages: 1 -->
<!--zoomable 308 -->
<svg id="main" version="1.1" xmlns="http://www.w3.org/2000/svg" xmlns:xlink="http://www.w3.org/1999/xlink" xml:space="preserve" onload="init(evt)">
<style type="text/css"><![CDATA[
.edge:hover path { stroke: red; }
.edge:hover polygon { stroke: red; fill: red; }
]]></style>
<script type="text/javascript"><![CDATA[
var edges = document.getElementsByTagName('g');
if (edges && edges.length) {
  for (var i=0;i<edges.length;i++) {
    if (edges[i].id.substr(0,4)=='edge') {
      edges[i].setAttribute('class','edge');
    }
  }
}
]]></script>
        <defs>
                <circle id="rim" cx="0" cy="0" r="7"/>
                <circle id="rim2" cx="0" cy="0" r="3.5"/>
                <g id="zoomPlus">
                        <use xlink:href="#rim" fill="#404040">
                                <set attributeName="fill" to="#808080" begin="zoomplus.mouseover" end="zoomplus.mouseout"/>
                        </use>
                        <path d="M-4,0h8M0,-4v8" fill="none" stroke="white" stroke-width="1.5" pointer-events="none"/>
                </g>
                <g id="zoomMin">
                        <use xlink:href="#rim" fill="#404040">
                                <set attributeName="fill" to="#808080" begin="zoomminus.mouseover" end="zoomminus.mouseout"/>
                        </use>
                        <path d="M-4,0h8" fill="none" stroke="white" stroke-width="1.5" pointer-events="none"/>
                </g>
                <g id="dirArrow">
                        <path fill="none" stroke="white" stroke-width="1.5" d="M0,-3.0v7 M-2.5,-0.5L0,-3.0L2.5,-0.5"/>
                </g>
               <g id="resetDef">
                       <use xlink:href="#rim2" fill="#404040">
                               <set attributeName="fill" to="#808080" begin="reset.mouseover" end="reset.mouseout"/>
                       </use>
               </g>
        </defs>

<script type="text/javascript">
var viewWidth = 1801;
var viewHeight = 308;
var sectionId = 'dynsection-0';
</script>
<script xlink:href="../../svgpan.js"/>
<svg id="graph" class="graph">
<g id="viewport">
<title>encoder_decoder.h</title>
<polygon fill="white" stroke="none" points="-4,4 -4,-304 1796.92,-304 1796.92,4 -4,4"/>
<!-- Node1 -->
<g id="node1" class="node"><title>Node1</title>
<polygon fill="#bfbfbf" stroke="black" points="937.5,-280.5 937.5,-299.5 1036.5,-299.5 1036.5,-280.5 937.5,-280.5"/>
<text text-anchor="middle" x="987" y="-287.5" font-family="Helvetica,sans-Serif" font-size="10.00">encoder_decoder.h</text>
</g>
<!-- Node2 -->
<g id="node2" class="node"><title>Node2</title>
<polygon fill="white" stroke="#bfbfbf" points="236,-0.5 236,-19.5 280,-19.5 280,-0.5 236,-0.5"/>
<text text-anchor="middle" x="258" y="-7.5" font-family="Helvetica,sans-Serif" font-size="10.00">vector</text>
</g>
<!-- Node1&#45;&gt;Node2 -->
<g id="edge1" class="edge"><title>Node1&#45;&gt;Node2</title>
<path fill="none" stroke="midnightblue" d="M937.378,-288.741C737.231,-287.054 0,-274.367 0,-179 0,-179 0,-179 0,-121 0,-24.1687 155.683,-11.3985 225.179,-10.5219"/>
<polygon fill="midnightblue" stroke="midnightblue" points="225.572,-14.0201 235.556,-10.4722 225.539,-7.02021 225.572,-14.0201"/>
</g>
<!-- Node3 -->
<g id="node3" class="node"><title>Node3</title>
<polygon fill="white" stroke="#bfbfbf" points="321.5,-224.5 321.5,-243.5 410.5,-243.5 410.5,-224.5 321.5,-224.5"/>
<text text-anchor="middle" x="366" y="-231.5" font-family="Helvetica,sans-Serif" font-size="10.00">yaml&#45;cpp/yaml.h</text>
</g>
<!-- Node1&#45;&gt;Node3 -->
<g id="edge2" class="edge"><title>Node1&#45;&gt;Node3</title>
<path fill="none" stroke="midnightblue" d="M937.465,-286.565C840.252,-281.462 617.488,-268.177 420.721,-244.12"/>
<polygon fill="midnightblue" stroke="midnightblue" points="421.132,-240.644 410.778,-242.892 420.274,-247.592 421.132,-240.644"/>
</g>
<!-- Node4 -->
<g id="node4" class="node"><title>Node4</title>
<g id="a_node4"><a xlink:href="../../da/d3b/scorer_8h.html" target="_top" xlink:title="common/scorer.h">
<polygon fill="white" stroke="black" points="451,-168.5 451,-187.5 543,-187.5 543,-168.5 451,-168.5"/>
<text text-anchor="middle" x="497" y="-175.5" font-family="Helvetica,sans-Serif" font-size="10.00">common/scorer.h</text>
</a>
</g>
</g>
<!-- Node1&#45;&gt;Node4 -->
<g id="edge3" class="edge"><title>Node1&#45;&gt;Node4</title>
<path fill="none" stroke="midnightblue" d="M948.958,-280.46C860.677,-260.642 642.036,-211.559 544.866,-189.745"/>
<polygon fill="midnightblue" stroke="midnightblue" points="545.541,-186.31 535.018,-187.535 544.008,-193.14 545.541,-186.31"/>
</g>
<!-- Node16 -->
<g id="node16" class="node"><title>Node16</title>
<g id="a_node16"><a xlink:href="../../d5/dbc/base__best__hyps_8h.html" target="_top" xlink:title="common/base_best_hyps.h">
<polygon fill="white" stroke="black" points="428.5,-224.5 428.5,-243.5 565.5,-243.5 565.5,-224.5 428.5,-224.5"/>
<text text-anchor="middle" x="497" y="-231.5" font-family="Helvetica,sans-Serif" font-size="10.00">common/base_best_hyps.h</text>
</a>
</g>
</g>
<!-- Node1&#45;&gt;Node16 -->
<g id="edge27" class="edge"><title>Node1&#45;&gt;Node16</title>
<path fill="none" stroke="midnightblue" d="M937.32,-283.525C852.168,-274.141 677.689,-254.913 575.791,-243.683"/>
<polygon fill="midnightblue" stroke="midnightblue" points="575.879,-240.172 565.556,-242.555 575.112,-247.13 575.879,-240.172"/>
</g>
<!-- Node19 -->
<g id="node19" class="node"><title>Node19</title>
<g id="a_node19"><a xlink:href="../../d3/d40/threadpool_8h.html" target="_top" xlink:title="common/threadpool.h">
<polygon fill="white" stroke="black" points="1068,-56.5 1068,-75.5 1178,-75.5 1178,-56.5 1068,-56.5"/>
<text text-anchor="middle" x="1123" y="-63.5" font-family="Helvetica,sans-Serif" font-size="10.00">common/threadpool.h</text>
</a>
</g>
</g>
<!-- Node1&#45;&gt;Node19 -->
<g id="edge33" class="edge"><title>Node1&#45;&gt;Node19</title>
<path fill="none" stroke="midnightblue" d="M1036.65,-287.957C1162.12,-284.164 1486.61,-266.78 1552,-188 1602.08,-127.67 1596.61,-160.723 1443,-112 1357.47,-84.87 1253.9,-74.0748 1188.22,-69.7933"/>
<polygon fill="midnightblue" stroke="midnightblue" points="1188.21,-66.2861 1178.02,-69.1606 1187.78,-73.2727 1188.21,-66.2861"/>
</g>
<!-- Node26 -->
<g id="node26" class="node"><title>Node26</title>
<g id="a_node26"><a xlink:href="../../d3/d18/types-gpu_8h.html" target="_top" xlink:title="gpu/types&#45;gpu.h">
<polygon fill="white" stroke="black" points="944,-168.5 944,-187.5 1030,-187.5 1030,-168.5 944,-168.5"/>
<text text-anchor="middle" x="987" y="-175.5" font-family="Helvetica,sans-Serif" font-size="10.00">gpu/types&#45;gpu.h</text>
</a>
</g>
</g>
<!-- Node1&#45;&gt;Node26 -->
<g id="edge44" class="edge"><title>Node1&#45;&gt;Node26</title>
<path fill="none" stroke="midnightblue" d="M987,-280.368C987,-262.617 987,-221.666 987,-197.597"/>
<polygon fill="midnightblue" stroke="midnightblue" points="990.5,-197.591 987,-187.591 983.5,-197.591 990.5,-197.591"/>
</g>
<!-- Node30 -->
<g id="node30" class="node"><title>Node30</title>
<g id="a_node30"><a xlink:href="../../dd/df4/matrix_8h.html" target="_top" xlink:title="gpu/mblas/matrix.h">
<polygon fill="white" stroke="black" points="1144,-224.5 1144,-243.5 1244,-243.5 1244,-224.5 1144,-224.5"/>
<text text-anchor="middle" x="1194" y="-231.5" font-family="Helvetica,sans-Serif" font-size="10.00">gpu/mblas/matrix.h</text>
</a>
</g>
</g>
<!-- Node1&#45;&gt;Node30 -->
<g id="edge48" class="edge"><title>Node1&#45;&gt;Node30</title>
<path fill="none" stroke="midnightblue" d="M1019.8,-280.444C1055.38,-271.162 1112.31,-256.309 1151.35,-246.127"/>
<polygon fill="midnightblue" stroke="midnightblue" points="1152.56,-249.427 1161.35,-243.516 1150.79,-242.654 1152.56,-249.427"/>
</g>
<!-- Node38 -->
<g id="node38" class="node"><title>Node38</title>
<g id="a_node38"><a xlink:href="../../d0/d23/handles_8h.html" target="_top" xlink:title="handles.h">
<polygon fill="white" stroke="black" points="1599.5,-168.5 1599.5,-187.5 1658.5,-187.5 1658.5,-168.5 1599.5,-168.5"/>
<text text-anchor="middle" x="1629" y="-175.5" font-family="Helvetica,sans-Serif" font-size="10.00">handles.h</text>
</a>
</g>
</g>
<!-- Node1&#45;&gt;Node38 -->
<g id="edge64" class="edge"><title>Node1&#45;&gt;Node38</title>
<path fill="none" stroke="midnightblue" d="M1036.76,-287.725C1171.78,-283.921 1538.11,-271.187 1585,-244 1603.01,-233.56 1615.19,-212.437 1622.09,-197.096"/>
<polygon fill="midnightblue" stroke="midnightblue" points="1625.43,-198.18 1626.03,-187.602 1618.96,-195.498 1625.43,-198.18"/>
</g>
<!-- Node41 -->
<g id="node41" class="node"><title>Node41</title>
<g id="a_node41"><a xlink:href="../../db/d63/array_8h.html" target="_top" xlink:title="gpu/mblas/array.h">
<polygon fill="white" stroke="black" points="1681.5,-224.5 1681.5,-243.5 1776.5,-243.5 1776.5,-224.5 1681.5,-224.5"/>
<text text-anchor="middle" x="1729" y="-231.5" font-family="Helvetica,sans-Serif" font-size="10.00">gpu/mblas/array.h</text>
</a>
</g>
</g>
<!-- Node1&#45;&gt;Node41 -->
<g id="edge65" class="edge"><title>Node1&#45;&gt;Node41</title>
<path fill="none" stroke="midnightblue" d="M1036.88,-285.934C1145.36,-279.175 1410.86,-262.147 1633,-244 1645.25,-242.999 1658.38,-241.832 1670.86,-240.676"/>
<polygon fill="midnightblue" stroke="midnightblue" points="1671.54,-244.128 1681.17,-239.712 1670.88,-237.159 1671.54,-244.128"/>
</g>
<!-- Node4&#45;&gt;Node2 -->
<g id="edge4" class="edge"><title>Node4&#45;&gt;Node2</title>
<path fill="none" stroke="midnightblue" d="M450.879,-169.427C447.538,-168.928 444.219,-168.447 441,-168 372.743,-158.531 178.811,-183.478 133,-132 118.239,-115.413 129.791,-77.5174 149,-56 168.923,-33.6831 201.615,-22.1816 226.009,-16.4198"/>
<polygon fill="midnightblue" stroke="midnightblue" points="226.857,-19.8175 235.893,-14.287 225.38,-12.9749 226.857,-19.8175"/>
</g>
<!-- Node5 -->
<g id="node5" class="node"><title>Node5</title>
<polygon fill="white" stroke="#bfbfbf" points="512,-0.5 512,-19.5 564,-19.5 564,-0.5 512,-0.5"/>
<text text-anchor="middle" x="538" y="-7.5" font-family="Helvetica,sans-Serif" font-size="10.00">memory</text>
</g>
<!-- Node4&#45;&gt;Node5 -->
<g id="edge5" class="edge"><title>Node4&#45;&gt;Node5</title>
<path fill="none" stroke="midnightblue" d="M501.924,-168.321C506.737,-159.461 513.921,-145.177 518,-132 528.876,-96.8665 534.181,-54.0564 536.481,-29.9248"/>
<polygon fill="midnightblue" stroke="midnightblue" points="539.991,-29.9623 537.38,-19.6943 533.018,-29.3495 539.991,-29.9623"/>
</g>
<!-- Node6 -->
<g id="node6" class="node"><title>Node6</title>
<g id="a_node6"><a xlink:href="../../d6/d52/amun_2common_2hypothesis_8h.html" target="_top" xlink:title="common/hypothesis.h">
<polygon fill="white" stroke="black" points="273.5,-112.5 273.5,-131.5 386.5,-131.5 386.5,-112.5 273.5,-112.5"/>
<text text-anchor="middle" x="330" y="-119.5" font-family="Helvetica,sans-Serif" font-size="10.00">common/hypothesis.h</text>
</a>
</g>
</g>
<!-- Node4&#45;&gt;Node6 -->
<g id="edge6" class="edge"><title>Node4&#45;&gt;Node6</title>
<path fill="none" stroke="midnightblue" d="M470.538,-168.444C442.322,-159.32 397.46,-144.813 366.032,-134.651"/>
<polygon fill="midnightblue" stroke="midnightblue" points="366.93,-131.263 356.338,-131.516 364.776,-137.923 366.93,-131.263"/>
</g>
<!-- Node12 -->
<g id="node12" class="node"><title>Node12</title>
<g id="a_node12"><a xlink:href="../../d6/df4/sentence_8h.html" target="_top" xlink:title="common/sentence.h">
<polygon fill="white" stroke="black" points="404.5,-112.5 404.5,-131.5 509.5,-131.5 509.5,-112.5 404.5,-112.5"/>
<text text-anchor="middle" x="457" y="-119.5" font-family="Helvetica,sans-Serif" font-size="10.00">common/sentence.h</text>
</a>
</g>
</g>
<!-- Node4&#45;&gt;Node12 -->
<g id="edge16" class="edge"><title>Node4&#45;&gt;Node12</title>
<path fill="none" stroke="midnightblue" d="M490.395,-168.083C484.745,-160.455 476.455,-149.264 469.549,-139.941"/>
<polygon fill="midnightblue" stroke="midnightblue" points="472.247,-137.703 463.482,-131.751 466.622,-141.87 472.247,-137.703"/>
</g>
<!-- Node14 -->
<g id="node14" class="node"><title>Node14</title>
<g id="a_node14"><a xlink:href="../../d3/d75/base__matrix_8h.html" target="_top" xlink:title="common/base_matrix.h">
<polygon fill="white" stroke="black" points="566.5,-112.5 566.5,-131.5 685.5,-131.5 685.5,-112.5 566.5,-112.5"/>
<text text-anchor="middle" x="626" y="-119.5" font-family="Helvetica,sans-Serif" font-size="10.00">common/base_matrix.h</text>
</a>
</g>
</g>
<!-- Node4&#45;&gt;Node14 -->
<g id="edge21" class="edge"><title>Node4&#45;&gt;Node14</title>
<path fill="none" stroke="midnightblue" d="M517.44,-168.444C538.67,-159.557 572.099,-145.563 596.255,-135.451"/>
<polygon fill="midnightblue" stroke="midnightblue" points="597.782,-138.606 605.655,-131.516 595.079,-132.149 597.782,-138.606"/>
</g>
<!-- Node15 -->
<g id="node15" class="node"><title>Node15</title>
<polygon fill="white" stroke="#bfbfbf" points="142.5,-112.5 142.5,-131.5 255.5,-131.5 255.5,-112.5 142.5,-112.5"/>
<text text-anchor="middle" x="199" y="-119.5" font-family="Helvetica,sans-Serif" font-size="10.00">yaml&#45;cpp/node/node.h</text>
</g>
<!-- Node4&#45;&gt;Node15 -->
<g id="edge26" class="edge"><title>Node4&#45;&gt;Node15</title>
<path fill="none" stroke="midnightblue" d="M450.764,-168.622C398.329,-159.12 312.788,-143.619 256.196,-133.364"/>
<polygon fill="midnightblue" stroke="midnightblue" points="256.793,-129.916 246.33,-131.577 255.545,-136.804 256.793,-129.916"/>
</g>
<!-- Node6&#45;&gt;Node5 -->
<g id="edge7" class="edge"><title>Node6&#45;&gt;Node5</title>
<path fill="none" stroke="midnightblue" d="M355.601,-112.476C378.763,-104.356 413.505,-91.1481 442,-76 470.077,-61.0741 500.06,-39.8164 518.904,-25.7259"/>
<polygon fill="midnightblue" stroke="midnightblue" points="521.105,-28.4495 526.967,-19.6242 516.881,-22.8676 521.105,-28.4495"/>
</g>
<!-- Node7 -->
<g id="node7" class="node"><title>Node7</title>
<g id="a_node7"><a xlink:href="../../dc/de7/amun_2common_2types_8h.html" target="_top" xlink:title="common/types.h">
<polygon fill="white" stroke="black" points="344.5,-56.5 344.5,-75.5 433.5,-75.5 433.5,-56.5 344.5,-56.5"/>
<text text-anchor="middle" x="389" y="-63.5" font-family="Helvetica,sans-Serif" font-size="10.00">common/types.h</text>
</a>
</g>
</g>
<!-- Node6&#45;&gt;Node7 -->
<g id="edge8" class="edge"><title>Node6&#45;&gt;Node7</title>
<path fill="none" stroke="midnightblue" d="M339.479,-112.324C348.201,-104.341 361.343,-92.3128 371.898,-82.6529"/>
<polygon fill="midnightblue" stroke="midnightblue" points="374.334,-85.1674 379.348,-75.8339 369.608,-80.0036 374.334,-85.1674"/>
</g>
<!-- Node11 -->
<g id="node11" class="node"><title>Node11</title>
<g id="a_node11"><a xlink:href="../../d3/d59/soft__alignment_8h.html" target="_top" xlink:title="common/soft_alignment.h">
<polygon fill="white" stroke="black" points="158.5,-56.5 158.5,-75.5 287.5,-75.5 287.5,-56.5 158.5,-56.5"/>
<text text-anchor="middle" x="223" y="-63.5" font-family="Helvetica,sans-Serif" font-size="10.00">common/soft_alignment.h</text>
</a>
</g>
</g>
<!-- Node6&#45;&gt;Node11 -->
<g id="edge13" class="edge"><title>Node6&#45;&gt;Node11</title>
<path fill="none" stroke="midnightblue" d="M312.809,-112.324C295.649,-103.664 269.054,-90.2424 249.253,-80.249"/>
<polygon fill="midnightblue" stroke="midnightblue" points="250.653,-77.0354 240.149,-75.6545 247.499,-83.2847 250.653,-77.0354"/>
</g>
<!-- Node7&#45;&gt;Node2 -->
<g id="edge11" class="edge"><title>Node7&#45;&gt;Node2</title>
<path fill="none" stroke="midnightblue" d="M368.243,-56.4435C346.684,-47.5566 312.737,-33.5632 288.206,-23.4514"/>
<polygon fill="midnightblue" stroke="midnightblue" points="289.239,-20.0917 278.66,-19.5164 286.572,-26.5634 289.239,-20.0917"/>
</g>
<!-- Node8 -->
<g id="node8" class="node"><title>Node8</title>
<polygon fill="white" stroke="#bfbfbf" points="334.5,-0.5 334.5,-19.5 379.5,-19.5 379.5,-0.5 334.5,-0.5"/>
<text text-anchor="middle" x="357" y="-7.5" font-family="Helvetica,sans-Serif" font-size="10.00">cstdlib</text>
</g>
<!-- Node7&#45;&gt;Node8 -->
<g id="edge9" class="edge"><title>Node7&#45;&gt;Node8</title>
<path fill="none" stroke="midnightblue" d="M383.716,-56.083C379.289,-48.6127 372.837,-37.7244 367.382,-28.5199"/>
<polygon fill="midnightblue" stroke="midnightblue" points="370.295,-26.5697 362.186,-19.7511 364.273,-30.1383 370.295,-26.5697"/>
</g>
<!-- Node9 -->
<g id="node9" class="node"><title>Node9</title>
<polygon fill="white" stroke="#bfbfbf" points="398,-0.5 398,-19.5 444,-19.5 444,-0.5 398,-0.5"/>
<text text-anchor="middle" x="421" y="-7.5" font-family="Helvetica,sans-Serif" font-size="10.00">cstdint</text>
</g>
<!-- Node7&#45;&gt;Node9 -->
<g id="edge10" class="edge"><title>Node7&#45;&gt;Node9</title>
<path fill="none" stroke="midnightblue" d="M394.284,-56.083C398.711,-48.6127 405.163,-37.7244 410.618,-28.5199"/>
<polygon fill="midnightblue" stroke="midnightblue" points="413.727,-30.1383 415.814,-19.7511 407.705,-26.5697 413.727,-30.1383"/>
</g>
<!-- Node10 -->
<g id="node10" class="node"><title>Node10</title>
<polygon fill="white" stroke="#bfbfbf" points="669,-0.5 669,-19.5 723,-19.5 723,-0.5 669,-0.5"/>
<text text-anchor="middle" x="696" y="-7.5" font-family="Helvetica,sans-Serif" font-size="10.00">iostream</text>
</g>
<!-- Node7&#45;&gt;Node10 -->
<g id="edge12" class="edge"><title>Node7&#45;&gt;Node10</title>
<path fill="none" stroke="midnightblue" d="M433.64,-57.1479C494.384,-46.4634 601.986,-27.5366 658.673,-17.5657"/>
<polygon fill="midnightblue" stroke="midnightblue" points="659.4,-20.9917 668.642,-15.8122 658.187,-14.0975 659.4,-20.9917"/>
</g>
<!-- Node11&#45;&gt;Node2 -->
<g id="edge14" class="edge"><title>Node11&#45;&gt;Node2</title>
<path fill="none" stroke="midnightblue" d="M228.78,-56.083C233.672,-48.5341 240.827,-37.4948 246.833,-28.2298"/>
<polygon fill="midnightblue" stroke="midnightblue" points="249.826,-30.0463 252.328,-19.7511 243.952,-26.239 249.826,-30.0463"/>
</g>
<!-- Node11&#45;&gt;Node5 -->
<g id="edge15" class="edge"><title>Node11&#45;&gt;Node5</title>
<path fill="none" stroke="midnightblue" d="M272.913,-56.4435C336.769,-45.4968 445.821,-26.8022 502.079,-17.1578"/>
<polygon fill="midnightblue" stroke="midnightblue" points="502.682,-20.6056 511.947,-15.4662 501.499,-13.7063 502.682,-20.6056"/>
</g>
<!-- Node12&#45;&gt;Node2 -->
<g id="edge18" class="edge"><title>Node12&#45;&gt;Node2</title>
<path fill="none" stroke="midnightblue" d="M424.82,-112.477C399.404,-104.972 363.582,-92.6404 335,-76 311.528,-62.3347 288.206,-41.3385 273.485,-26.9287"/>
<polygon fill="midnightblue" stroke="midnightblue" points="275.791,-24.2851 266.245,-19.6893 270.842,-29.2351 275.791,-24.2851"/>
</g>
<!-- Node12&#45;&gt;Node5 -->
<g id="edge17" class="edge"><title>Node12&#45;&gt;Node5</title>
<path fill="none" stroke="midnightblue" d="M463.356,-112.368C476.782,-94.135 508.232,-51.4257 525.721,-27.6752"/>
<polygon fill="midnightblue" stroke="midnightblue" points="528.562,-29.7192 531.674,-19.5914 522.926,-25.5685 528.562,-29.7192"/>
</g>
<!-- Node12&#45;&gt;Node7 -->
<g id="edge20" class="edge"><title>Node12&#45;&gt;Node7</title>
<path fill="none" stroke="midnightblue" d="M446.075,-112.324C435.825,-104.185 420.279,-91.8395 407.999,-82.0874"/>
<polygon fill="midnightblue" stroke="midnightblue" points="410.132,-79.3119 400.124,-75.8339 405.779,-84.7937 410.132,-79.3119"/>
</g>
<!-- Node13 -->
<g id="node13" class="node"><title>Node13</title>
<polygon fill="white" stroke="#bfbfbf" points="566.5,-56.5 566.5,-75.5 607.5,-75.5 607.5,-56.5 566.5,-56.5"/>
<text text-anchor="middle" x="587" y="-63.5" font-family="Helvetica,sans-Serif" font-size="10.00">string</text>
</g>
<!-- Node12&#45;&gt;Node13 -->
<g id="edge19" class="edge"><title>Node12&#45;&gt;Node13</title>
<path fill="none" stroke="midnightblue" d="M477.599,-112.444C498.993,-103.557 532.681,-89.5632 557.024,-79.4514"/>
<polygon fill="midnightblue" stroke="midnightblue" points="558.605,-82.5848 566.497,-75.5164 555.92,-76.1203 558.605,-82.5848"/>
</g>
<!-- Node14&#45;&gt;Node2 -->
<g id="edge23" class="edge"><title>Node14&#45;&gt;Node2</title>
<path fill="none" stroke="midnightblue" d="M627.584,-112.396C629.612,-98.4029 631.237,-70.7929 616,-56 569.249,-10.6113 389.624,-28.3375 325,-20 313.621,-18.5319 301.162,-16.8727 290.108,-15.3823"/>
<polygon fill="midnightblue" stroke="midnightblue" points="290.4,-11.89 280.021,-14.0169 289.461,-18.8268 290.4,-11.89"/>
</g>
<!-- Node14&#45;&gt;Node5 -->
<g id="edge24" class="edge"><title>Node14&#45;&gt;Node5</title>
<path fill="none" stroke="midnightblue" d="M633.93,-112.393C644.958,-99.3395 662.26,-74.1387 650,-56 633.114,-31.0173 599.824,-19.9021 573.906,-14.958"/>
<polygon fill="midnightblue" stroke="midnightblue" points="574.473,-11.5042 564.031,-13.2973 573.312,-18.4072 574.473,-11.5042"/>
</g>
<!-- Node14&#45;&gt;Node7 -->
<g id="edge25" class="edge"><title>Node14&#45;&gt;Node7</title>
<path fill="none" stroke="midnightblue" d="M588.447,-112.444C547.189,-103.043 480.856,-87.9291 436.134,-77.7393"/>
<polygon fill="midnightblue" stroke="midnightblue" points="436.905,-74.3255 426.378,-75.5164 435.35,-81.1506 436.905,-74.3255"/>
</g>
<!-- Node14&#45;&gt;Node13 -->
<g id="edge22" class="edge"><title>Node14&#45;&gt;Node13</title>
<path fill="none" stroke="midnightblue" d="M619.56,-112.083C614.051,-104.455 605.969,-93.2645 599.235,-83.9408"/>
<polygon fill="midnightblue" stroke="midnightblue" points="602.013,-81.8087 593.32,-75.7511 596.338,-85.9071 602.013,-81.8087"/>
</g>
<!-- Node16&#45;&gt;Node2 -->
<g id="edge29" class="edge"><title>Node16&#45;&gt;Node2</title>
<path fill="none" stroke="midnightblue" d="M431.62,-224.495C343.955,-212.948 197.966,-193.154 187,-188 153.395,-172.205 140.076,-165.933 125,-132 117.102,-114.223 122.584,-68.7875 133,-56 155.574,-28.2874 196.624,-17.6363 225.508,-13.5455"/>
<polygon fill="midnightblue" stroke="midnightblue" points="226.043,-17.0063 235.543,-12.3158 225.191,-10.0583 226.043,-17.0063"/>
</g>
<!-- Node16&#45;&gt;Node4 -->
<g id="edge32" class="edge"><title>Node16&#45;&gt;Node4</title>
<path fill="none" stroke="midnightblue" d="M497,-224.083C497,-217.006 497,-206.861 497,-197.986"/>
<polygon fill="midnightblue" stroke="midnightblue" points="500.5,-197.751 497,-187.751 493.5,-197.751 500.5,-197.751"/>
</g>
<!-- Node16&#45;&gt;Node7 -->
<g id="edge31" class="edge"><title>Node16&#45;&gt;Node7</title>
<path fill="none" stroke="midnightblue" d="M432.394,-224.47C337.859,-210.514 169.12,-179.508 133,-132 127.62,-124.924 127.285,-118.808 133,-112 145.808,-96.7443 262.728,-81.1261 334.053,-72.9025"/>
<polygon fill="midnightblue" stroke="midnightblue" points="334.688,-76.353 344.228,-71.7438 333.896,-69.3979 334.688,-76.353"/>
</g>
<!-- Node17 -->
<g id="node17" class="node"><title>Node17</title>
<polygon fill="white" stroke="#bfbfbf" points="756.5,-0.5 756.5,-19.5 815.5,-19.5 815.5,-0.5 756.5,-0.5"/>
<text text-anchor="middle" x="786" y="-7.5" font-family="Helvetica,sans-Serif" font-size="10.00">functional</text>
</g>
<!-- Node16&#45;&gt;Node17 -->
<g id="edge28" class="edge"><title>Node16&#45;&gt;Node17</title>
<path fill="none" stroke="midnightblue" d="M521.796,-224.42C561.309,-209.895 639.638,-177.532 694,-132 730.434,-101.484 761.137,-54.0205 776.141,-28.5568"/>
<polygon fill="midnightblue" stroke="midnightblue" points="779.302,-30.0822 781.263,-19.6704 773.237,-26.5866 779.302,-30.0822"/>
</g>
<!-- Node18 -->
<g id="node18" class="node"><title>Node18</title>
<polygon fill="white" stroke="#bfbfbf" points="397.5,-168.5 397.5,-187.5 432.5,-187.5 432.5,-168.5 397.5,-168.5"/>
<text text-anchor="middle" x="415" y="-175.5" font-family="Helvetica,sans-Serif" font-size="10.00">map</text>
</g>
<!-- Node16&#45;&gt;Node18 -->
<g id="edge30" class="edge"><title>Node16&#45;&gt;Node18</title>
<path fill="none" stroke="midnightblue" d="M483.825,-224.324C471.153,-215.979 451.767,-203.212 436.794,-193.352"/>
<polygon fill="midnightblue" stroke="midnightblue" points="438.419,-190.231 428.142,-187.655 434.569,-196.078 438.419,-190.231"/>
</g>
<!-- Node19&#45;&gt;Node2 -->
<g id="edge35" class="edge"><title>Node19&#45;&gt;Node2</title>
<path fill="none" stroke="midnightblue" d="M1067.74,-63.3534C937.908,-59.1639 603.346,-46.5031 325,-20 313.667,-18.9209 301.303,-17.3674 290.317,-15.854"/>
<polygon fill="midnightblue" stroke="midnightblue" points="290.676,-12.37 280.284,-14.432 289.694,-19.3008 290.676,-12.37"/>
</g>
<!-- Node19&#45;&gt;Node5 -->
<g id="edge37" class="edge"><title>Node19&#45;&gt;Node5</title>
<path fill="none" stroke="midnightblue" d="M1067.66,-57.5708C1063.04,-57.015 1058.44,-56.4833 1054,-56 874.183,-36.4409 658.377,-19.8364 574.152,-13.6187"/>
<polygon fill="midnightblue" stroke="midnightblue" points="574.31,-10.121 564.08,-12.8785 573.796,-17.1022 574.31,-10.121"/>
</g>
<!-- Node19&#45;&gt;Node10 -->
<g id="edge34" class="edge"><title>Node19&#45;&gt;Node10</title>
<path fill="none" stroke="midnightblue" d="M1067.65,-57.7158C1063.03,-57.1279 1058.44,-56.5494 1054,-56 917.662,-39.1154 882.924,-39.9456 747,-20 742.526,-19.3434 737.841,-18.5975 733.201,-17.8225"/>
<polygon fill="midnightblue" stroke="midnightblue" points="733.663,-14.3507 723.214,-16.1034 732.476,-21.2492 733.663,-14.3507"/>
</g>
<!-- Node19&#45;&gt;Node17 -->
<g id="edge42" class="edge"><title>Node19&#45;&gt;Node17</title>
<path fill="none" stroke="midnightblue" d="M1069.6,-56.4435C1001.7,-45.5638 886.044,-27.0308 825.541,-17.336"/>
<polygon fill="midnightblue" stroke="midnightblue" points="826.042,-13.8717 815.615,-15.7454 824.935,-20.7836 826.042,-13.8717"/>
</g>
<!-- Node20 -->
<g id="node20" class="node"><title>Node20</title>
<polygon fill="white" stroke="#bfbfbf" points="933.5,-0.5 933.5,-19.5 976.5,-19.5 976.5,-0.5 933.5,-0.5"/>
<text text-anchor="middle" x="955" y="-7.5" font-family="Helvetica,sans-Serif" font-size="10.00">queue</text>
</g>
<!-- Node19&#45;&gt;Node20 -->
<g id="edge36" class="edge"><title>Node19&#45;&gt;Node20</title>
<path fill="none" stroke="midnightblue" d="M1096.38,-56.4435C1066.49,-46.8366 1018.04,-31.2622 986.344,-21.0749"/>
<polygon fill="midnightblue" stroke="midnightblue" points="987.279,-17.699 976.687,-17.971 985.137,-24.3632 987.279,-17.699"/>
</g>
<!-- Node21 -->
<g id="node21" class="node"><title>Node21</title>
<polygon fill="white" stroke="#bfbfbf" points="995,-0.5 995,-19.5 1039,-19.5 1039,-0.5 995,-0.5"/>
<text text-anchor="middle" x="1017" y="-7.5" font-family="Helvetica,sans-Serif" font-size="10.00">thread</text>
</g>
<!-- Node19&#45;&gt;Node21 -->
<g id="edge38" class="edge"><title>Node19&#45;&gt;Node21</title>
<path fill="none" stroke="midnightblue" d="M1105.97,-56.324C1088.97,-47.6641 1062.62,-34.2424 1043.01,-24.249"/>
<polygon fill="midnightblue" stroke="midnightblue" points="1044.49,-21.0752 1033.99,-19.6545 1041.31,-27.3125 1044.49,-21.0752"/>
</g>
<!-- Node22 -->
<g id="node22" class="node"><title>Node22</title>
<polygon fill="white" stroke="#bfbfbf" points="1057,-0.5 1057,-19.5 1101,-19.5 1101,-0.5 1057,-0.5"/>
<text text-anchor="middle" x="1079" y="-7.5" font-family="Helvetica,sans-Serif" font-size="10.00">mutex</text>
</g>
<!-- Node19&#45;&gt;Node22 -->
<g id="edge39" class="edge"><title>Node19&#45;&gt;Node22</title>
<path fill="none" stroke="midnightblue" d="M1115.73,-56.083C1109.46,-48.3768 1100.21,-37.0333 1092.57,-27.6531"/>
<polygon fill="midnightblue" stroke="midnightblue" points="1095.16,-25.2926 1086.13,-19.7511 1089.73,-29.7143 1095.16,-25.2926"/>
</g>
<!-- Node23 -->
<g id="node23" class="node"><title>Node23</title>
<polygon fill="white" stroke="#bfbfbf" points="1119.5,-0.5 1119.5,-19.5 1214.5,-19.5 1214.5,-0.5 1119.5,-0.5"/>
<text text-anchor="middle" x="1167" y="-7.5" font-family="Helvetica,sans-Serif" font-size="10.00">condition_variable</text>
</g>
<!-- Node19&#45;&gt;Node23 -->
<g id="edge40" class="edge"><title>Node19&#45;&gt;Node23</title>
<path fill="none" stroke="midnightblue" d="M1130.27,-56.083C1136.54,-48.3768 1145.79,-37.0333 1153.43,-27.6531"/>
<polygon fill="midnightblue" stroke="midnightblue" points="1156.27,-29.7143 1159.87,-19.7511 1150.84,-25.2926 1156.27,-29.7143"/>
</g>
<!-- Node24 -->
<g id="node24" class="node"><title>Node24</title>
<polygon fill="white" stroke="#bfbfbf" points="1232.5,-0.5 1232.5,-19.5 1273.5,-19.5 1273.5,-0.5 1232.5,-0.5"/>
<text text-anchor="middle" x="1253" y="-7.5" font-family="Helvetica,sans-Serif" font-size="10.00">future</text>
</g>
<!-- Node19&#45;&gt;Node24 -->
<g id="edge41" class="edge"><title>Node19&#45;&gt;Node24</title>
<path fill="none" stroke="midnightblue" d="M1143.6,-56.4435C1164.99,-47.5566 1198.68,-33.5632 1223.02,-23.4514"/>
<polygon fill="midnightblue" stroke="midnightblue" points="1224.61,-26.5848 1232.5,-19.5164 1221.92,-20.1203 1224.61,-26.5848"/>
</g>
<!-- Node25 -->
<g id="node25" class="node"><title>Node25</title>
<polygon fill="white" stroke="#bfbfbf" points="1291.5,-0.5 1291.5,-19.5 1350.5,-19.5 1350.5,-0.5 1291.5,-0.5"/>
<text text-anchor="middle" x="1321" y="-7.5" font-family="Helvetica,sans-Serif" font-size="10.00">stdexcept</text>
</g>
<!-- Node19&#45;&gt;Node25 -->
<g id="edge43" class="edge"><title>Node19&#45;&gt;Node25</title>
<path fill="none" stroke="midnightblue" d="M1154.37,-56.4435C1188.76,-47.0652 1244,-32.0001 1281.36,-21.8112"/>
<polygon fill="midnightblue" stroke="midnightblue" points="1282.66,-25.0834 1291.39,-19.0755 1280.82,-18.33 1282.66,-25.0834"/>
</g>
<!-- Node27 -->
<g id="node27" class="node"><title>Node27</title>
<polygon fill="white" stroke="#bfbfbf" points="1000.5,-112.5 1000.5,-131.5 1083.5,-131.5 1083.5,-112.5 1000.5,-112.5"/>
<text text-anchor="middle" x="1042" y="-119.5" font-family="Helvetica,sans-Serif" font-size="10.00">unordered_map</text>
</g>
<!-- Node26&#45;&gt;Node27 -->
<g id="edge45" class="edge"><title>Node26&#45;&gt;Node27</title>
<path fill="none" stroke="midnightblue" d="M996.082,-168.083C1004.17,-160.141 1016.2,-148.335 1025.91,-138.797"/>
<polygon fill="midnightblue" stroke="midnightblue" points="1028.4,-141.254 1033.09,-131.751 1023.5,-136.26 1028.4,-141.254"/>
</g>
<!-- Node28 -->
<g id="node28" class="node"><title>Node28</title>
<polygon fill="white" stroke="#bfbfbf" points="742.5,-112.5 742.5,-131.5 855.5,-131.5 855.5,-112.5 742.5,-112.5"/>
<text text-anchor="middle" x="799" y="-119.5" font-family="Helvetica,sans-Serif" font-size="10.00">thrust/device_vector.h</text>
</g>
<!-- Node26&#45;&gt;Node28 -->
<g id="edge46" class="edge"><title>Node26&#45;&gt;Node28</title>
<path fill="none" stroke="midnightblue" d="M957.211,-168.444C925.171,-159.241 874.067,-144.562 838.647,-134.388"/>
<polygon fill="midnightblue" stroke="midnightblue" points="839.227,-130.913 828.65,-131.516 837.295,-137.641 839.227,-130.913"/>
</g>
<!-- Node29 -->
<g id="node29" class="node"><title>Node29</title>
<polygon fill="white" stroke="#bfbfbf" points="873.5,-112.5 873.5,-131.5 982.5,-131.5 982.5,-112.5 873.5,-112.5"/>
<text text-anchor="middle" x="928" y="-119.5" font-family="Helvetica,sans-Serif" font-size="10.00">boost/timer/timer.hpp</text>
</g>
<!-- Node26&#45;&gt;Node29 -->
<g id="edge47" class="edge"><title>Node26&#45;&gt;Node29</title>
<path fill="none" stroke="midnightblue" d="M977.521,-168.324C968.799,-160.341 955.657,-148.313 945.102,-138.653"/>
<polygon fill="midnightblue" stroke="midnightblue" points="947.392,-136.004 937.652,-131.834 942.666,-141.167 947.392,-136.004"/>
</g>
<!-- Node30&#45;&gt;Node5 -->
<g id="edge49" class="edge"><title>Node30&#45;&gt;Node5</title>
<path fill="none" stroke="midnightblue" d="M1177.87,-224.41C1164.06,-216.428 1144.35,-203.463 1131,-188 1106.19,-159.266 1122.49,-134.627 1092,-112 1008.9,-50.3232 684.385,-21.585 574.562,-13.4858"/>
<polygon fill="midnightblue" stroke="midnightblue" points="574.548,-9.97579 564.321,-12.7449 574.043,-16.9575 574.548,-9.97579"/>
</g>
<!-- Node30&#45;&gt;Node14 -->
<g id="edge59" class="edge"><title>Node30&#45;&gt;Node14</title>
<path fill="none" stroke="midnightblue" d="M1143.77,-224.812C1091.52,-216.169 1007.38,-201.897 935,-188 842.63,-170.266 735.277,-147.106 674.516,-133.759"/>
<polygon fill="midnightblue" stroke="midnightblue" points="674.969,-130.275 664.45,-131.544 673.464,-137.112 674.969,-130.275"/>
</g>
<!-- Node30&#45;&gt;Node26 -->
<g id="edge60" class="edge"><title>Node30&#45;&gt;Node26</title>
<path fill="none" stroke="midnightblue" d="M1161.2,-224.444C1125.62,-215.162 1068.69,-200.309 1029.65,-190.127"/>
<polygon fill="midnightblue" stroke="midnightblue" points="1030.21,-186.654 1019.65,-187.516 1028.44,-193.427 1030.21,-186.654"/>
</g>
<!-- Node31 -->
<g id="node31" class="node"><title>Node31</title>
<polygon fill="white" stroke="#bfbfbf" points="1382,-112.5 1382,-131.5 1434,-131.5 1434,-112.5 1382,-112.5"/>
<text text-anchor="middle" x="1408" y="-119.5" font-family="Helvetica,sans-Serif" font-size="10.00">sstream</text>
</g>
<!-- Node30&#45;&gt;Node31 -->
<g id="edge50" class="edge"><title>Node30&#45;&gt;Node31</title>
<path fill="none" stroke="midnightblue" d="M1205.68,-224.419C1224.04,-211.176 1261.07,-185.466 1295,-168 1320.19,-155.035 1350.01,-143.301 1372.69,-135.068"/>
<polygon fill="midnightblue" stroke="midnightblue" points="1374.01,-138.312 1382.25,-131.65 1371.65,-131.72 1374.01,-138.312"/>
</g>
<!-- Node32 -->
<g id="node32" class="node"><title>Node32</title>
<polygon fill="white" stroke="#bfbfbf" points="1304.5,-168.5 1304.5,-187.5 1429.5,-187.5 1429.5,-168.5 1304.5,-168.5"/>
<text text-anchor="middle" x="1367" y="-175.5" font-family="Helvetica,sans-Serif" font-size="10.00">thrust/execution_policy.h</text>
</g>
<!-- Node30&#45;&gt;Node32 -->
<g id="edge51" class="edge"><title>Node30&#45;&gt;Node32</title>
<path fill="none" stroke="midnightblue" d="M1221.41,-224.444C1250.77,-215.28 1297.52,-200.688 1330.1,-190.519"/>
<polygon fill="midnightblue" stroke="midnightblue" points="1331.21,-193.837 1339.72,-187.516 1329.13,-187.155 1331.21,-193.837"/>
</g>
<!-- Node33 -->
<g id="node33" class="node"><title>Node33</title>
<polygon fill="white" stroke="#bfbfbf" points="1447.5,-168.5 1447.5,-187.5 1542.5,-187.5 1542.5,-168.5 1447.5,-168.5"/>
<text text-anchor="middle" x="1495" y="-175.5" font-family="Helvetica,sans-Serif" font-size="10.00">thrust/functional.h</text>
</g>
<!-- Node30&#45;&gt;Node33 -->
<g id="edge52" class="edge"><title>Node30&#45;&gt;Node33</title>
<path fill="none" stroke="midnightblue" d="M1241.69,-224.444C1294.86,-214.905 1380.82,-199.483 1437.63,-189.293"/>
<polygon fill="midnightblue" stroke="midnightblue" points="1438.3,-192.727 1447.53,-187.516 1437.07,-185.837 1438.3,-192.727"/>
</g>
<!-- Node34 -->
<g id="node34" class="node"><title>Node34</title>
<g id="a_node34"><a xlink:href="../../dd/d2d/exception_8h.html" target="_top" xlink:title="common/exception.h">
<polygon fill="white" stroke="black" points="1140.5,-168.5 1140.5,-187.5 1247.5,-187.5 1247.5,-168.5 1140.5,-168.5"/>
<text text-anchor="middle" x="1194" y="-175.5" font-family="Helvetica,sans-Serif" font-size="10.00">common/exception.h</text>
</a>
</g>
</g>
<!-- Node30&#45;&gt;Node34 -->
<g id="edge53" class="edge"><title>Node30&#45;&gt;Node34</title>
<path fill="none" stroke="midnightblue" d="M1194,-224.083C1194,-217.006 1194,-206.861 1194,-197.986"/>
<polygon fill="midnightblue" stroke="midnightblue" points="1197.5,-197.751 1194,-187.751 1190.5,-197.751 1197.5,-197.751"/>
</g>
<!-- Node30&#45;&gt;Node38 -->
<g id="edge61" class="edge"><title>Node30&#45;&gt;Node38</title>
<path fill="none" stroke="midnightblue" d="M1244.32,-226.753C1331.76,-215.899 1509.95,-193.779 1589.32,-183.926"/>
<polygon fill="midnightblue" stroke="midnightblue" points="1589.9,-187.38 1599.4,-182.675 1589.04,-180.434 1589.9,-187.38"/>
</g>
<!-- Node34&#45;&gt;Node13 -->
<g id="edge57" class="edge"><title>Node34&#45;&gt;Node13</title>
<path fill="none" stroke="midnightblue" d="M1184.14,-168.371C1166.86,-153.813 1129.37,-124.722 1092,-112 1003.34,-81.8189 713.138,-70.72 617.716,-67.8335"/>
<polygon fill="midnightblue" stroke="midnightblue" points="617.673,-64.3308 607.574,-67.5358 617.467,-71.3278 617.673,-64.3308"/>
</g>
<!-- Node34&#45;&gt;Node31 -->
<g id="edge54" class="edge"><title>Node34&#45;&gt;Node31</title>
<path fill="none" stroke="midnightblue" d="M1227.91,-168.444C1267.26,-158.513 1331.89,-142.205 1372.08,-132.063"/>
<polygon fill="midnightblue" stroke="midnightblue" points="1373.15,-135.403 1381.99,-129.563 1371.44,-128.616 1373.15,-135.403"/>
</g>
<!-- Node35 -->
<g id="node35" class="node"><title>Node35</title>
<polygon fill="white" stroke="#bfbfbf" points="1178.5,-112.5 1178.5,-131.5 1237.5,-131.5 1237.5,-112.5 1178.5,-112.5"/>
<text text-anchor="middle" x="1208" y="-119.5" font-family="Helvetica,sans-Serif" font-size="10.00">exception</text>
</g>
<!-- Node34&#45;&gt;Node35 -->
<g id="edge55" class="edge"><title>Node34&#45;&gt;Node35</title>
<path fill="none" stroke="midnightblue" d="M1196.31,-168.083C1198.17,-160.927 1200.84,-150.635 1203.15,-141.691"/>
<polygon fill="midnightblue" stroke="midnightblue" points="1206.61,-142.309 1205.73,-131.751 1199.83,-140.553 1206.61,-142.309"/>
</g>
<!-- Node36 -->
<g id="node36" class="node"><title>Node36</title>
<polygon fill="white" stroke="#bfbfbf" points="1256,-112.5 1256,-131.5 1296,-131.5 1296,-112.5 1256,-112.5"/>
<text text-anchor="middle" x="1276" y="-119.5" font-family="Helvetica,sans-Serif" font-size="10.00">limits</text>
</g>
<!-- Node34&#45;&gt;Node36 -->
<g id="edge56" class="edge"><title>Node34&#45;&gt;Node36</title>
<path fill="none" stroke="midnightblue" d="M1207.17,-168.324C1219.85,-159.979 1239.23,-147.212 1254.21,-137.352"/>
<polygon fill="midnightblue" stroke="midnightblue" points="1256.43,-140.078 1262.86,-131.655 1252.58,-134.231 1256.43,-140.078"/>
</g>
<!-- Node37 -->
<g id="node37" class="node"><title>Node37</title>
<polygon fill="white" stroke="#bfbfbf" points="1314.5,-112.5 1314.5,-131.5 1363.5,-131.5 1363.5,-112.5 1314.5,-112.5"/>
<text text-anchor="middle" x="1339" y="-119.5" font-family="Helvetica,sans-Serif" font-size="10.00">stdint.h</text>
</g>
<!-- Node34&#45;&gt;Node37 -->
<g id="edge58" class="edge"><title>Node34&#45;&gt;Node37</title>
<path fill="none" stroke="midnightblue" d="M1216.98,-168.444C1241.16,-159.438 1279.42,-145.189 1306.65,-135.049"/>
<polygon fill="midnightblue" stroke="midnightblue" points="1307.98,-138.286 1316.13,-131.516 1305.54,-131.727 1307.98,-138.286"/>
</g>
<!-- Node39 -->
<g id="node39" class="node"><title>Node39</title>
<polygon fill="white" stroke="#bfbfbf" points="1737,-112.5 1737,-131.5 1783,-131.5 1783,-112.5 1737,-112.5"/>
<text text-anchor="middle" x="1760" y="-119.5" font-family="Helvetica,sans-Serif" font-size="10.00">cuda.h</text>
</g>
<!-- Node38&#45;&gt;Node39 -->
<g id="edge62" class="edge"><title>Node38&#45;&gt;Node39</title>
<path fill="none" stroke="midnightblue" d="M1649.76,-168.444C1671.32,-159.557 1705.26,-145.563 1729.79,-135.451"/>
<polygon fill="midnightblue" stroke="midnightblue" points="1731.43,-138.563 1739.34,-131.516 1728.76,-132.092 1731.43,-138.563"/>
</g>
<!-- Node40 -->
<g id="node40" class="node"><title>Node40</title>
<polygon fill="white" stroke="#bfbfbf" points="1599.5,-112.5 1599.5,-131.5 1668.5,-131.5 1668.5,-112.5 1599.5,-112.5"/>
<text text-anchor="middle" x="1634" y="-119.5" font-family="Helvetica,sans-Serif" font-size="10.00">cublas_v2.h</text>
</g>
<!-- Node38&#45;&gt;Node40 -->
<g id="edge63" class="edge"><title>Node38&#45;&gt;Node40</title>
<path fill="none" stroke="midnightblue" d="M1629.83,-168.083C1630.48,-161.006 1631.42,-150.861 1632.24,-141.986"/>
<polygon fill="midnightblue" stroke="midnightblue" points="1635.75,-142.031 1633.19,-131.751 1628.78,-141.386 1635.75,-142.031"/>
</g>
<!-- Node41&#45;&gt;Node39 -->
<g id="edge66" class="edge"><title>Node41&#45;&gt;Node39</title>
<path fill="none" stroke="midnightblue" d="M1748.91,-224.41C1763.22,-217.04 1781.46,-204.916 1790,-188 1798.27,-171.618 1787.02,-152.51 1776.02,-139.27"/>
<polygon fill="midnightblue" stroke="midnightblue" points="1778.32,-136.597 1769.03,-131.505 1773.12,-141.279 1778.32,-136.597"/>
</g>
<!-- Node42 -->
<g id="node42" class="node"><title>Node42</title>
<polygon fill="white" stroke="#bfbfbf" points="1677,-168.5 1677,-187.5 1781,-187.5 1781,-168.5 1677,-168.5"/>
<text text-anchor="middle" x="1729" y="-175.5" font-family="Helvetica,sans-Serif" font-size="10.00">thrust/host_vector.h</text>
</g>
<!-- Node41&#45;&gt;Node42 -->
<g id="edge67" class="edge"><title>Node41&#45;&gt;Node42</title>
<path fill="none" stroke="midnightblue" d="M1729,-224.083C1729,-217.006 1729,-206.861 1729,-197.986"/>
<polygon fill="midnightblue" stroke="midnightblue" points="1732.5,-197.751 1729,-187.751 1725.5,-197.751 1732.5,-197.751"/>
</g>
</g>
</svg>
        <g id="navigator" transform="translate(0 0)" fill="#404254">
                <rect fill="#f2f5e9" fill-opacity="0.5" stroke="#606060" stroke-width=".5" x="0" y="0" width="60" height="60"/>
                <use id="zoomplus" xlink:href="#zoomPlus" x="17" y="9" onmousedown="handleZoom(evt,'in')"/>
                <use id="zoomminus" xlink:href="#zoomMin" x="42" y="9" onmousedown="handleZoom(evt,'out')"/>
                <use id="reset" xlink:href="#resetDef" x="30" y="36" onmousedown="handleReset()"/>
                <g id="arrowUp" xlink:href="#dirArrow" transform="translate(30 24)" onmousedown="handlePan(0,-1)">
                  <use xlink:href="#rim" fill="#404040">
                        <set attributeName="fill" to="#808080" begin="arrowUp.mouseover" end="arrowUp.mouseout"/>
                  </use>
                  <path fill="none" stroke="white" stroke-width="1.5" d="M0,-3.0v7 M-2.5,-0.5L0,-3.0L2.5,-0.5"/>
                </g>
                <g id="arrowRight" xlink:href="#dirArrow" transform="rotate(90) translate(36 -43)" onmousedown="handlePan(1,0)">
                  <use xlink:href="#rim" fill="#404040">
                        <set attributeName="fill" to="#808080" begin="arrowRight.mouseover" end="arrowRight.mouseout"/>
                  </use>
                  <path fill="none" stroke="white" stroke-width="1.5" d="M0,-3.0v7 M-2.5,-0.5L0,-3.0L2.5,-0.5"/>
                </g>
                <g id="arrowDown" xlink:href="#dirArrow" transform="rotate(180) translate(-30 -48)" onmousedown="handlePan(0,1)">
                  <use xlink:href="#rim" fill="#404040">
                        <set attributeName="fill" to="#808080" begin="arrowDown.mouseover" end="arrowDown.mouseout"/>
                  </use>
                  <path fill="none" stroke="white" stroke-width="1.5" d="M0,-3.0v7 M-2.5,-0.5L0,-3.0L2.5,-0.5"/>
                </g>
                <g id="arrowLeft" xlink:href="#dirArrow" transform="rotate(270) translate(-36 17)" onmousedown="handlePan(-1,0)">
                  <use xlink:href="#rim" fill="#404040">
                        <set attributeName="fill" to="#808080" begin="arrowLeft.mouseover" end="arrowLeft.mouseout"/>
                  </use>
                  <path fill="none" stroke="white" stroke-width="1.5" d="M0,-3.0v7 M-2.5,-0.5L0,-3.0L2.5,-0.5"/>
                </g>
        </g>
        <svg viewBox="0 0 15 15" width="100%" height="30px" preserveAspectRatio="xMaxYMin meet">
         <g id="arrow_out" transform="scale(0.3 0.3)">
          <a xlink:href="encoder__decoder_8h__incl_org.svg" target="_base">
           <rect id="button" ry="5" rx="5" y="6" x="6" height="38" width="38"
                fill="#f2f5e9" fill-opacity="0.5" stroke="#606060" stroke-width="1.0"/>
           <path id="arrow"
             d="M 11.500037,31.436501 C 11.940474,20.09759 22.043105,11.32322 32.158766,21.979434 L 37.068811,17.246167 C 37.068811,17.246167 37.088388,32 37.088388,32 L 22.160133,31.978069 C 22.160133,31.978069 26.997745,27.140456 26.997745,27.140456 C 18.528582,18.264221 13.291696,25.230495 11.500037,31.436501 z"
             style="fill:#404040;"/>
          </a>
         </g>
        </svg>
</svg>
