<?xml version="1.0" encoding="UTF-8" standalone="no"?>
<!DOCTYPE svg PUBLIC "-//W3C//DTD SVG 1.1//EN"
 "http://www.w3.org/Graphics/SVG/1.1/DTD/svg11.dtd">
<!-- Generated by graphviz version 2.38.0 (20140413.2041)
 -->
<!-- Title: amunmt::GPU::mblas::TMatrix::NewSize Pages: 1 -->
<!--zoomable 290 -->
<svg id="main" version="1.1" xmlns="http://www.w3.org/2000/svg" xmlns:xlink="http://www.w3.org/1999/xlink" xml:space="preserve" onload="init(evt)">
<style type="text/css"><![CDATA[
.edge:hover path { stroke: red; }
.edge:hover polygon { stroke: red; fill: red; }
]]></style>
<script type="text/javascript"><![CDATA[
var edges = document.getElementsByTagName('g');
if (edges && edges.length) {
  for (var i=0;i<edges.length;i++) {
    if (edges[i].id.substr(0,4)=='edge') {
      edges[i].setAttribute('class','edge');
    }
  }
}
]]></script>
        <defs>
                <circle id="rim" cx="0" cy="0" r="7"/>
                <circle id="rim2" cx="0" cy="0" r="3.5"/>
                <g id="zoomPlus">
                        <use xlink:href="#rim" fill="#404040">
                                <set attributeName="fill" to="#808080" begin="zoomplus.mouseover" end="zoomplus.mouseout"/>
                        </use>
                        <path d="M-4,0h8M0,-4v8" fill="none" stroke="white" stroke-width="1.5" pointer-events="none"/>
                </g>
                <g id="zoomMin">
                        <use xlink:href="#rim" fill="#404040">
                                <set attributeName="fill" to="#808080" begin="zoomminus.mouseover" end="zoomminus.mouseout"/>
                        </use>
                        <path d="M-4,0h8" fill="none" stroke="white" stroke-width="1.5" pointer-events="none"/>
                </g>
                <g id="dirArrow">
                        <path fill="none" stroke="white" stroke-width="1.5" d="M0,-3.0v7 M-2.5,-0.5L0,-3.0L2.5,-0.5"/>
                </g>
               <g id="resetDef">
                       <use xlink:href="#rim2" fill="#404040">
                               <set attributeName="fill" to="#808080" begin="reset.mouseover" end="reset.mouseout"/>
                       </use>
               </g>
        </defs>

<script type="text/javascript">
var viewWidth = 504;
var viewHeight = 290;
var sectionId = 'dynsection-4';
</script>
<script xlink:href="../../svgpan.js"/>
<svg id="graph" class="graph">
<g id="viewport">
<title>amunmt::GPU::mblas::TMatrix::NewSize</title>
<polygon fill="white" stroke="none" points="-4,4 -4,-286 500,-286 500,4 -4,4"/>
<!-- Node1 -->
<g id="node1" class="node"><title>Node1</title>
<polygon fill="#bfbfbf" stroke="black" points="0,-120.5 0,-150.5 112,-150.5 112,-120.5 0,-120.5"/>
<text text-anchor="start" x="8" y="-138.5" font-family="Helvetica,sans-Serif" font-size="10.00">amunmt::GPU::mblas</text>
<text text-anchor="middle" x="56" y="-127.5" font-family="Helvetica,sans-Serif" font-size="10.00">::TMatrix::NewSize</text>
</g>
<!-- Node2 -->
<g id="node2" class="node"><title>Node2</title>
<g id="a_node2"><a xlink:href="../../d2/d4d/classamunmt_1_1GPU_1_1Decoder_1_1Softmax.html#ae19befc1a70b3a1762ac0e4dcfb67714" target="_top" xlink:title="amunmt::GPU::Decoder\l::Softmax\&lt; amunmt::GPU\l::Weights::DecSoftmax \&gt;\l::GetProbs">
<polygon fill="white" stroke="black" points="164.5,-229.5 164.5,-281.5 295.5,-281.5 295.5,-229.5 164.5,-229.5"/>
<text text-anchor="start" x="172.5" y="-269.5" font-family="Helvetica,sans-Serif" font-size="10.00">amunmt::GPU::Decoder</text>
<text text-anchor="start" x="172.5" y="-258.5" font-family="Helvetica,sans-Serif" font-size="10.00">::Softmax&lt; amunmt::GPU</text>
<text text-anchor="start" x="172.5" y="-247.5" font-family="Helvetica,sans-Serif" font-size="10.00">::Weights::DecSoftmax &gt;</text>
<text text-anchor="middle" x="230" y="-236.5" font-family="Helvetica,sans-Serif" font-size="10.00">::GetProbs</text>
</a>
</g>
</g>
<!-- Node1&#45;&gt;Node2 -->
<g id="edge1" class="edge"><title>Node1&#45;&gt;Node2</title>
<path fill="none" stroke="midnightblue" d="M77.0603,-158.156C94.4219,-176.74 120.936,-202.784 148,-220.5 153.127,-223.856 158.629,-227.018 164.264,-229.964"/>
<polygon fill="midnightblue" stroke="midnightblue" points="79.5478,-155.69 70.205,-150.693 74.3928,-160.425 79.5478,-155.69"/>
</g>
<!-- Node3 -->
<g id="node3" class="node"><title>Node3</title>
<g id="a_node3"><a xlink:href="../../db/dd5/classamunmt_1_1GPU_1_1Decoder.html#a801f2d13ee6d1b130ea4b46be0ba3ee3" target="_top" xlink:title="amunmt::GPU::Decoder\l::EmptyEmbedding">
<polygon fill="white" stroke="black" points="169,-180.5 169,-210.5 291,-210.5 291,-180.5 169,-180.5"/>
<text text-anchor="start" x="177" y="-198.5" font-family="Helvetica,sans-Serif" font-size="10.00">amunmt::GPU::Decoder</text>
<text text-anchor="middle" x="230" y="-187.5" font-family="Helvetica,sans-Serif" font-size="10.00">::EmptyEmbedding</text>
</a>
</g>
</g>
<!-- Node1&#45;&gt;Node3 -->
<g id="edge2" class="edge"><title>Node1&#45;&gt;Node3</title>
<path fill="none" stroke="midnightblue" d="M102.706,-154.498C117.1,-160.233 133.124,-166.365 148,-171.5 156.873,-174.563 166.372,-177.594 175.629,-180.419"/>
<polygon fill="midnightblue" stroke="midnightblue" points="103.619,-151.093 93.0357,-150.608 101.007,-157.587 103.619,-151.093"/>
</g>
<!-- Node4 -->
<g id="node4" class="node"><title>Node4</title>
<g id="a_node4"><a xlink:href="../../dc/d4b/classamunmt_1_1GPU_1_1Encoder_1_1Embeddings.html#a8cb9331defa2af0c29d42a776b2b574b" target="_top" xlink:title="amunmt::GPU::Encoder\l::Embeddings\&lt; amunmt\l::GPU::Weights::EncEmbeddings\l \&gt;::Lookup">
<polygon fill="white" stroke="black" points="148,-109.5 148,-161.5 312,-161.5 312,-109.5 148,-109.5"/>
<text text-anchor="start" x="156" y="-149.5" font-family="Helvetica,sans-Serif" font-size="10.00">amunmt::GPU::Encoder</text>
<text text-anchor="start" x="156" y="-138.5" font-family="Helvetica,sans-Serif" font-size="10.00">::Embeddings&lt; amunmt</text>
<text text-anchor="start" x="156" y="-127.5" font-family="Helvetica,sans-Serif" font-size="10.00">::GPU::Weights::EncEmbeddings</text>
<text text-anchor="middle" x="230" y="-116.5" font-family="Helvetica,sans-Serif" font-size="10.00"> &gt;::Lookup</text>
</a>
</g>
</g>
<!-- Node1&#45;&gt;Node4 -->
<g id="edge3" class="edge"><title>Node1&#45;&gt;Node4</title>
<path fill="none" stroke="midnightblue" d="M122.617,-135.5C130.838,-135.5 139.323,-135.5 147.748,-135.5"/>
<polygon fill="midnightblue" stroke="midnightblue" points="122.369,-132 112.369,-135.5 122.369,-139 122.369,-132"/>
</g>
<!-- Node5 -->
<g id="node5" class="node"><title>Node5</title>
<g id="a_node5"><a xlink:href="../../d9/df6/classamunmt_1_1GPU_1_1FastGRU.html#add49af38ef2aa9a37b3b4da08bb03eae" target="_top" xlink:title="amunmt::GPU::FastGRU\l::ElementwiseOps">
<polygon fill="white" stroke="black" points="166,-60.5 166,-90.5 294,-90.5 294,-60.5 166,-60.5"/>
<text text-anchor="start" x="174" y="-78.5" font-family="Helvetica,sans-Serif" font-size="10.00">amunmt::GPU::FastGRU</text>
<text text-anchor="middle" x="230" y="-67.5" font-family="Helvetica,sans-Serif" font-size="10.00">::ElementwiseOps</text>
</a>
</g>
</g>
<!-- Node1&#45;&gt;Node5 -->
<g id="edge4" class="edge"><title>Node1&#45;&gt;Node5</title>
<path fill="none" stroke="midnightblue" d="M103.919,-116.756C118.018,-111.313 133.574,-105.494 148,-100.5 157.735,-97.1299 168.203,-93.7336 178.274,-90.5774"/>
<polygon fill="midnightblue" stroke="midnightblue" points="102.474,-113.563 94.4229,-120.45 105.012,-120.087 102.474,-113.563"/>
</g>
<!-- Node6 -->
<g id="node6" class="node"><title>Node6</title>
<g id="a_node6"><a xlink:href="../../d1/d49/namespaceamunmt_1_1GPU_1_1mblas.html#afba17f6f1ebd7b942ed07d760259d143" target="_top" xlink:title="amunmt::GPU::mblas\l::Broadcast">
<polygon fill="white" stroke="black" points="174,-11.5 174,-41.5 286,-41.5 286,-11.5 174,-11.5"/>
<text text-anchor="start" x="182" y="-29.5" font-family="Helvetica,sans-Serif" font-size="10.00">amunmt::GPU::mblas</text>
<text text-anchor="middle" x="230" y="-18.5" font-family="Helvetica,sans-Serif" font-size="10.00">::Broadcast</text>
</a>
</g>
</g>
<!-- Node1&#45;&gt;Node6 -->
<g id="edge5" class="edge"><title>Node1&#45;&gt;Node6</title>
<path fill="none" stroke="midnightblue" d="M76.3388,-112.686C93.4358,-93.8389 119.957,-67.6453 148,-51.5 155.908,-46.9472 164.736,-43.1334 173.575,-39.9675"/>
<polygon fill="midnightblue" stroke="midnightblue" points="73.6336,-110.461 69.6115,-120.263 78.8682,-115.109 73.6336,-110.461"/>
</g>
<!-- Node7 -->
<g id="node7" class="node"><title>Node7</title>
<g id="a_node7"><a xlink:href="../../df/d32/classamunmt_1_1GPU_1_1Decoder_1_1Alignment.html#aca6a7ea06e3db456c9cf723cb62a975f" target="_top" xlink:title="amunmt::GPU::Decoder\l::Alignment\&lt; amunmt::\lGPU::Weights::DecAlignment\l \&gt;::GetAlignedSourceContext">
<polygon fill="white" stroke="black" points="348,-0.5 348,-52.5 496,-52.5 496,-0.5 348,-0.5"/>
<text text-anchor="start" x="356" y="-40.5" font-family="Helvetica,sans-Serif" font-size="10.00">amunmt::GPU::Decoder</text>
<text text-anchor="start" x="356" y="-29.5" font-family="Helvetica,sans-Serif" font-size="10.00">::Alignment&lt; amunmt::</text>
<text text-anchor="start" x="356" y="-18.5" font-family="Helvetica,sans-Serif" font-size="10.00">GPU::Weights::DecAlignment</text>
<text text-anchor="middle" x="422" y="-7.5" font-family="Helvetica,sans-Serif" font-size="10.00"> &gt;::GetAlignedSourceContext</text>
</a>
</g>
</g>
<!-- Node6&#45;&gt;Node7 -->
<g id="edge6" class="edge"><title>Node6&#45;&gt;Node7</title>
<path fill="none" stroke="midnightblue" d="M296.37,-26.5C312.999,-26.5 330.973,-26.5 347.957,-26.5"/>
<polygon fill="midnightblue" stroke="midnightblue" points="296.211,-23.0001 286.211,-26.5 296.211,-30.0001 296.211,-23.0001"/>
</g>
</g>
</svg>
        <g id="navigator" transform="translate(0 0)" fill="#404254">
                <rect fill="#f2f5e9" fill-opacity="0.5" stroke="#606060" stroke-width=".5" x="0" y="0" width="60" height="60"/>
                <use id="zoomplus" xlink:href="#zoomPlus" x="17" y="9" onmousedown="handleZoom(evt,'in')"/>
                <use id="zoomminus" xlink:href="#zoomMin" x="42" y="9" onmousedown="handleZoom(evt,'out')"/>
                <use id="reset" xlink:href="#resetDef" x="30" y="36" onmousedown="handleReset()"/>
                <g id="arrowUp" xlink:href="#dirArrow" transform="translate(30 24)" onmousedown="handlePan(0,-1)">
                  <use xlink:href="#rim" fill="#404040">
                        <set attributeName="fill" to="#808080" begin="arrowUp.mouseover" end="arrowUp.mouseout"/>
                  </use>
                  <path fill="none" stroke="white" stroke-width="1.5" d="M0,-3.0v7 M-2.5,-0.5L0,-3.0L2.5,-0.5"/>
                </g>
                <g id="arrowRight" xlink:href="#dirArrow" transform="rotate(90) translate(36 -43)" onmousedown="handlePan(1,0)">
                  <use xlink:href="#rim" fill="#404040">
                        <set attributeName="fill" to="#808080" begin="arrowRight.mouseover" end="arrowRight.mouseout"/>
                  </use>
                  <path fill="none" stroke="white" stroke-width="1.5" d="M0,-3.0v7 M-2.5,-0.5L0,-3.0L2.5,-0.5"/>
                </g>
                <g id="arrowDown" xlink:href="#dirArrow" transform="rotate(180) translate(-30 -48)" onmousedown="handlePan(0,1)">
                  <use xlink:href="#rim" fill="#404040">
                        <set attributeName="fill" to="#808080" begin="arrowDown.mouseover" end="arrowDown.mouseout"/>
                  </use>
                  <path fill="none" stroke="white" stroke-width="1.5" d="M0,-3.0v7 M-2.5,-0.5L0,-3.0L2.5,-0.5"/>
                </g>
                <g id="arrowLeft" xlink:href="#dirArrow" transform="rotate(270) translate(-36 17)" onmousedown="handlePan(-1,0)">
                  <use xlink:href="#rim" fill="#404040">
                        <set attributeName="fill" to="#808080" begin="arrowLeft.mouseover" end="arrowLeft.mouseout"/>
                  </use>
                  <path fill="none" stroke="white" stroke-width="1.5" d="M0,-3.0v7 M-2.5,-0.5L0,-3.0L2.5,-0.5"/>
                </g>
        </g>
        <svg viewBox="0 0 15 15" width="100%" height="30px" preserveAspectRatio="xMaxYMin meet">
         <g id="arrow_out" transform="scale(0.3 0.3)">
          <a xlink:href="classamunmt_1_1GPU_1_1mblas_1_1TMatrix_a379c5cc8ef7ca2f71da2d5055c9fb542_icgraph_org.svg" target="_base">
           <rect id="button" ry="5" rx="5" y="6" x="6" height="38" width="38"
                fill="#f2f5e9" fill-opacity="0.5" stroke="#606060" stroke-width="1.0"/>
           <path id="arrow"
             d="M 11.500037,31.436501 C 11.940474,20.09759 22.043105,11.32322 32.158766,21.979434 L 37.068811,17.246167 C 37.068811,17.246167 37.088388,32 37.088388,32 L 22.160133,31.978069 C 22.160133,31.978069 26.997745,27.140456 26.997745,27.140456 C 18.528582,18.264221 13.291696,25.230495 11.500037,31.436501 z"
             style="fill:#404040;"/>
          </a>
         </g>
        </svg>
</svg>
