<?xml version="1.0" encoding="UTF-8" standalone="no"?>
<!DOCTYPE svg PUBLIC "-//W3C//DTD SVG 1.1//EN"
 "http://www.w3.org/Graphics/SVG/1.1/DTD/svg11.dtd">
<!-- Generated by graphviz version 2.38.0 (20140413.2041)
 -->
<!-- Title: training Pages: 1 -->
<svg width="331pt" height="439pt"
 viewBox="0.00 0.00 331.26 439.00" xmlns="http://www.w3.org/2000/svg" xmlns:xlink="http://www.w3.org/1999/xlink">
<g id="graph0" class="graph" transform="scale(1 1) rotate(0) translate(4 435)">
<title>training</title>
<polygon fill="white" stroke="none" points="-4,4 -4,-435 327.261,-435 327.261,4 -4,4"/>
<g id="clust1" class="cluster"><title>clusterdir_880d52d109336948b38801ae7422e1dc</title>
<g id="a_clust1"><a xlink:href="dir_880d52d109336948b38801ae7422e1dc.html" target="_top" xlink:title="src">
<polygon fill="#ddddee" stroke="black" points="115.261,-352 115.261,-423 185.261,-423 185.261,-352 115.261,-352"/>
<text text-anchor="middle" x="150.261" y="-411" font-family="Helvetica,sans-Serif" font-size="10.00">src</text>
</a>
</g>
</g>
<!-- dir_ac12c91361339777d4e643af799afefe -->
<g id="node1" class="node"><title>dir_ac12c91361339777d4e643af799afefe</title>
<g id="a_node1"><a xlink:href="dir_ac12c91361339777d4e643af799afefe.html" target="_top" xlink:title="training">
<polygon fill="#eeeeff" stroke="black" points="177.261,-396 123.261,-396 123.261,-360 177.261,-360 177.261,-396"/>
<text text-anchor="middle" x="150.261" y="-375.5" font-family="Helvetica,sans-Serif" font-size="10.00">training</text>
</a>
</g>
</g>
<!-- dir_2a32d600618e8f4da12af9817e65f799 -->
<g id="node2" class="node"><title>dir_2a32d600618e8f4da12af9817e65f799</title>
<g id="a_node2"><a xlink:href="dir_2a32d600618e8f4da12af9817e65f799.html" target="_top" xlink:title="models">
<polygon fill="white" stroke="red" points="67.2613,-252 13.2613,-252 13.2613,-216 67.2613,-216 67.2613,-252"/>
<text text-anchor="middle" x="40.2613" y="-231.5" font-family="Helvetica,sans-Serif" font-size="10.00">models</text>
</a>
</g>
</g>
<!-- dir_ac12c91361339777d4e643af799afefe&#45;&gt;dir_2a32d600618e8f4da12af9817e65f799 -->
<g id="edge1" class="edge"><title>dir_ac12c91361339777d4e643af799afefe&#45;&gt;dir_2a32d600618e8f4da12af9817e65f799</title>
<path fill="none" stroke="black" d="M123.079,-362.3C107.935,-352.983 89.685,-339.733 77.2613,-324 62.7364,-305.606 53.0297,-280.698 47.2167,-261.91"/>
<polygon fill="black" stroke="black" points="50.54,-260.804 44.382,-252.183 43.8195,-262.762 50.54,-260.804"/>
<g id="a_edge1&#45;headlabel"><a xlink:href="dir_000027_000008.html" target="_top" xlink:title="1">
<text text-anchor="middle" x="54.2714" y="-260.961" font-family="Helvetica,sans-Serif" font-size="10.00">1</text>
</a>
</g>
</g>
<!-- dir_518b1046d4ba71ae05f3cf7bfff9fec7 -->
<g id="node3" class="node"><title>dir_518b1046d4ba71ae05f3cf7bfff9fec7</title>
<g id="a_node3"><a xlink:href="dir_518b1046d4ba71ae05f3cf7bfff9fec7.html" target="_top" xlink:title="data">
<polygon fill="none" stroke="black" points="215.261,-108 161.261,-108 161.261,-72 215.261,-72 215.261,-108"/>
<text text-anchor="middle" x="188.261" y="-87.5" font-family="Helvetica,sans-Serif" font-size="10.00">data</text>
</a>
</g>
</g>
<!-- dir_ac12c91361339777d4e643af799afefe&#45;&gt;dir_518b1046d4ba71ae05f3cf7bfff9fec7 -->
<g id="edge2" class="edge"><title>dir_ac12c91361339777d4e643af799afefe&#45;&gt;dir_518b1046d4ba71ae05f3cf7bfff9fec7</title>
<path fill="none" stroke="black" d="M177.369,-372.994C204.855,-367.332 246,-354.086 265.261,-324 308.853,-255.911 245.505,-160.734 209.809,-116.044"/>
<polygon fill="black" stroke="black" points="212.322,-113.588 203.288,-108.054 206.899,-118.014 212.322,-113.588"/>
<g id="a_edge2&#45;headlabel"><a xlink:href="dir_000027_000017.html" target="_top" xlink:title="5">
<text text-anchor="middle" x="216.795" y="-112.078" font-family="Helvetica,sans-Serif" font-size="10.00">5</text>
</a>
</g>
</g>
<!-- dir_ac095602947de64a5a1ecdd3c516e29a -->
<g id="node4" class="node"><title>dir_ac095602947de64a5a1ecdd3c516e29a</title>
<g id="a_node4"><a xlink:href="dir_ac095602947de64a5a1ecdd3c516e29a.html" target="_top" xlink:title="kernels">
<polygon fill="none" stroke="black" points="86.2613,-108 32.2613,-108 32.2613,-72 86.2613,-72 86.2613,-108"/>
<text text-anchor="middle" x="59.2613" y="-87.5" font-family="Helvetica,sans-Serif" font-size="10.00">kernels</text>
</a>
</g>
</g>
<!-- dir_ac12c91361339777d4e643af799afefe&#45;&gt;dir_ac095602947de64a5a1ecdd3c516e29a -->
<g id="edge3" class="edge"><title>dir_ac12c91361339777d4e643af799afefe&#45;&gt;dir_ac095602947de64a5a1ecdd3c516e29a</title>
<path fill="none" stroke="black" d="M122.902,-365.989C102.445,-356.84 74.6144,-342.366 54.2613,-324 25.3372,-297.9 15.9045,-289.179 4.2613,-252 -10.8274,-203.819 18.753,-148.202 40.0787,-116.559"/>
<polygon fill="black" stroke="black" points="42.9902,-118.503 45.8308,-108.296 37.245,-114.503 42.9902,-118.503"/>
<g id="a_edge3&#45;headlabel"><a xlink:href="dir_000027_000024.html" target="_top" xlink:title="4">
<text text-anchor="middle" x="43.2668" y="-120.575" font-family="Helvetica,sans-Serif" font-size="10.00">4</text>
</a>
</g>
</g>
<!-- dir_76e813e510703f19869a2c0b3c186be0 -->
<g id="node5" class="node"><title>dir_76e813e510703f19869a2c0b3c186be0</title>
<g id="a_node5"><a xlink:href="dir_76e813e510703f19869a2c0b3c186be0.html" target="_top" xlink:title="graph">
<polygon fill="none" stroke="black" points="160.261,-180 106.261,-180 106.261,-144 160.261,-144 160.261,-180"/>
<text text-anchor="middle" x="133.261" y="-159.5" font-family="Helvetica,sans-Serif" font-size="10.00">graph</text>
</a>
</g>
</g>
<!-- dir_ac12c91361339777d4e643af799afefe&#45;&gt;dir_76e813e510703f19869a2c0b3c186be0 -->
<g id="edge4" class="edge"><title>dir_ac12c91361339777d4e643af799afefe&#45;&gt;dir_76e813e510703f19869a2c0b3c186be0</title>
<path fill="none" stroke="black" d="M132.528,-359.599C124.023,-349.998 114.729,-337.336 110.261,-324 95.0461,-278.583 110.096,-222.66 121.981,-190.098"/>
<polygon fill="black" stroke="black" points="125.39,-190.981 125.686,-180.39 118.85,-188.485 125.39,-190.981"/>
<g id="a_edge4&#45;headlabel"><a xlink:href="dir_000027_000015.html" target="_top" xlink:title="1">
<text text-anchor="middle" x="126.761" y="-192.852" font-family="Helvetica,sans-Serif" font-size="10.00">1</text>
</a>
</g>
</g>
<!-- dir_26ec68a62de522efcefe87601c4b23cc -->
<g id="node6" class="node"><title>dir_26ec68a62de522efcefe87601c4b23cc</title>
<g id="a_node6"><a xlink:href="dir_26ec68a62de522efcefe87601c4b23cc.html" target="_top" xlink:title="optimizers">
<polygon fill="none" stroke="black" points="181.261,-324 119.261,-324 119.261,-288 181.261,-288 181.261,-324"/>
<text text-anchor="middle" x="150.261" y="-303.5" font-family="Helvetica,sans-Serif" font-size="10.00">optimizers</text>
</a>
</g>
</g>
<!-- dir_ac12c91361339777d4e643af799afefe&#45;&gt;dir_26ec68a62de522efcefe87601c4b23cc -->
<g id="edge5" class="edge"><title>dir_ac12c91361339777d4e643af799afefe&#45;&gt;dir_26ec68a62de522efcefe87601c4b23cc</title>
<path fill="none" stroke="black" d="M144.346,-359.697C143.55,-351.983 143.323,-342.712 143.666,-334.112"/>
<polygon fill="black" stroke="black" points="147.16,-334.324 144.366,-324.104 140.177,-333.836 147.16,-334.324"/>
<g id="a_edge5&#45;headlabel"><a xlink:href="dir_000027_000021.html" target="_top" xlink:title="1">
<text text-anchor="middle" x="149.741" y="-335.608" font-family="Helvetica,sans-Serif" font-size="10.00">1</text>
</a>
</g>
</g>
<!-- dir_4789c1aed63d8d10e4697371f4406b1d -->
<g id="node7" class="node"><title>dir_4789c1aed63d8d10e4697371f4406b1d</title>
<g id="a_node7"><a xlink:href="dir_4789c1aed63d8d10e4697371f4406b1d.html" target="_top" xlink:title="common">
<polygon fill="none" stroke="black" points="187.261,-36 133.261,-36 133.261,-0 187.261,-0 187.261,-36"/>
<text text-anchor="middle" x="160.261" y="-15.5" font-family="Helvetica,sans-Serif" font-size="10.00">common</text>
</a>
</g>
</g>
<!-- dir_ac12c91361339777d4e643af799afefe&#45;&gt;dir_4789c1aed63d8d10e4697371f4406b1d -->
<g id="edge6" class="edge"><title>dir_ac12c91361339777d4e643af799afefe&#45;&gt;dir_4789c1aed63d8d10e4697371f4406b1d</title>
<path fill="none" stroke="black" d="M177.445,-372.912C207.639,-367.045 256.095,-353.499 286.261,-324 316.889,-294.05 323.261,-277.838 323.261,-235 323.261,-235 323.261,-235 323.261,-161 323.261,-94.4629 245.088,-51.9811 197.016,-32.1475"/>
<polygon fill="black" stroke="black" points="198.129,-28.8235 187.544,-28.3702 195.536,-35.3255 198.129,-28.8235"/>
<g id="a_edge6&#45;headlabel"><a xlink:href="dir_000027_000022.html" target="_top" xlink:title="2">
<text text-anchor="middle" x="202.52" y="-25.0177" font-family="Helvetica,sans-Serif" font-size="10.00">2</text>
</a>
</g>
</g>
<!-- dir_749f02635bffbc7a800d0e203e16ca18 -->
<g id="node8" class="node"><title>dir_749f02635bffbc7a800d0e203e16ca18</title>
<g id="a_node8"><a xlink:href="dir_749f02635bffbc7a800d0e203e16ca18.html" target="_top" xlink:title="translator">
<polygon fill="none" stroke="black" points="256.761,-324 199.761,-324 199.761,-288 256.761,-288 256.761,-324"/>
<text text-anchor="middle" x="228.261" y="-303.5" font-family="Helvetica,sans-Serif" font-size="10.00">translator</text>
</a>
</g>
</g>
<!-- dir_ac12c91361339777d4e643af799afefe&#45;&gt;dir_749f02635bffbc7a800d0e203e16ca18 -->
<g id="edge7" class="edge"><title>dir_ac12c91361339777d4e643af799afefe&#45;&gt;dir_749f02635bffbc7a800d0e203e16ca18</title>
<path fill="none" stroke="black" d="M169.542,-359.697C179.177,-351.05 190.99,-340.449 201.488,-331.027"/>
<polygon fill="black" stroke="black" points="204.097,-333.388 209.202,-324.104 199.422,-328.179 204.097,-333.388"/>
<g id="a_edge7&#45;headlabel"><a xlink:href="dir_000027_000018.html" target="_top" xlink:title="4">
<text text-anchor="middle" x="203.319" y="-335.402" font-family="Helvetica,sans-Serif" font-size="10.00">4</text>
</a>
</g>
</g>
<!-- dir_2a32d600618e8f4da12af9817e65f799&#45;&gt;dir_518b1046d4ba71ae05f3cf7bfff9fec7 -->
<g id="edge8" class="edge"><title>dir_2a32d600618e8f4da12af9817e65f799&#45;&gt;dir_518b1046d4ba71ae05f3cf7bfff9fec7</title>
<path fill="none" stroke="black" d="M48.1184,-215.897C57.6244,-196.618 75.1412,-165.205 97.2613,-144 113.108,-128.809 134.109,-116.208 151.942,-107.111"/>
<polygon fill="black" stroke="black" points="153.513,-110.238 160.935,-102.677 150.418,-103.96 153.513,-110.238"/>
<g id="a_edge8&#45;headlabel"><a xlink:href="dir_000008_000017.html" target="_top" xlink:title="2">
<text text-anchor="middle" x="151.545" y="-111.874" font-family="Helvetica,sans-Serif" font-size="10.00">2</text>
</a>
</g>
</g>
<!-- dir_2a32d600618e8f4da12af9817e65f799&#45;&gt;dir_ac095602947de64a5a1ecdd3c516e29a -->
<g id="edge9" class="edge"><title>dir_2a32d600618e8f4da12af9817e65f799&#45;&gt;dir_ac095602947de64a5a1ecdd3c516e29a</title>
<path fill="none" stroke="black" d="M42.5531,-215.871C45.7913,-191.67 51.7401,-147.211 55.596,-118.393"/>
<polygon fill="black" stroke="black" points="59.1041,-118.565 56.9613,-108.189 52.166,-117.637 59.1041,-118.565"/>
<g id="a_edge9&#45;headlabel"><a xlink:href="dir_000008_000024.html" target="_top" xlink:title="1">
<text text-anchor="middle" x="61.4417" y="-120.005" font-family="Helvetica,sans-Serif" font-size="10.00">1</text>
</a>
</g>
</g>
<!-- dir_2a32d600618e8f4da12af9817e65f799&#45;&gt;dir_76e813e510703f19869a2c0b3c186be0 -->
<g id="edge10" class="edge"><title>dir_2a32d600618e8f4da12af9817e65f799&#45;&gt;dir_76e813e510703f19869a2c0b3c186be0</title>
<path fill="none" stroke="black" d="M63.2501,-215.697C75.0752,-206.796 89.6533,-195.823 102.44,-186.199"/>
<polygon fill="black" stroke="black" points="104.652,-188.915 110.537,-180.104 100.442,-183.322 104.652,-188.915"/>
<g id="a_edge10&#45;headlabel"><a xlink:href="dir_000008_000015.html" target="_top" xlink:title="1">
<text text-anchor="middle" x="103.488" y="-190.845" font-family="Helvetica,sans-Serif" font-size="10.00">1</text>
</a>
</g>
</g>
<!-- dir_2a32d600618e8f4da12af9817e65f799&#45;&gt;dir_4789c1aed63d8d10e4697371f4406b1d -->
<g id="edge11" class="edge"><title>dir_2a32d600618e8f4da12af9817e65f799&#45;&gt;dir_4789c1aed63d8d10e4697371f4406b1d</title>
<path fill="none" stroke="black" d="M31.6603,-215.697C17.3128,-184.109 -7.08786,-116.282 23.2613,-72 45.5074,-39.5411 90.7074,-26.9561 123.109,-22.0796"/>
<polygon fill="black" stroke="black" points="123.68,-25.5346 133.134,-20.7517 122.761,-18.5952 123.68,-25.5346"/>
<g id="a_edge11&#45;headlabel"><a xlink:href="dir_000008_000022.html" target="_top" xlink:title="2">
<text text-anchor="middle" x="120.49" y="-26.3212" font-family="Helvetica,sans-Serif" font-size="10.00">2</text>
</a>
</g>
</g>
<!-- dir_518b1046d4ba71ae05f3cf7bfff9fec7&#45;&gt;dir_4789c1aed63d8d10e4697371f4406b1d -->
<g id="edge12" class="edge"><title>dir_518b1046d4ba71ae05f3cf7bfff9fec7&#45;&gt;dir_4789c1aed63d8d10e4697371f4406b1d</title>
<path fill="none" stroke="black" d="M181.34,-71.6966C178.187,-63.8132 174.383,-54.3042 170.88,-45.5464"/>
<polygon fill="black" stroke="black" points="174.067,-44.0892 167.103,-36.1043 167.567,-46.689 174.067,-44.0892"/>
<g id="a_edge12&#45;headlabel"><a xlink:href="dir_000017_000022.html" target="_top" xlink:title="3">
<text text-anchor="middle" x="178.038" y="-43.8723" font-family="Helvetica,sans-Serif" font-size="10.00">3</text>
</a>
</g>
</g>
<!-- dir_ac095602947de64a5a1ecdd3c516e29a&#45;&gt;dir_4789c1aed63d8d10e4697371f4406b1d -->
<g id="edge13" class="edge"><title>dir_ac095602947de64a5a1ecdd3c516e29a&#45;&gt;dir_4789c1aed63d8d10e4697371f4406b1d</title>
<path fill="none" stroke="black" d="M83.9687,-71.8761C96.9299,-62.8931 112.99,-51.7625 127.026,-42.0341"/>
<polygon fill="black" stroke="black" points="129.234,-44.7628 135.459,-36.1898 125.246,-39.0095 129.234,-44.7628"/>
<g id="a_edge13&#45;headlabel"><a xlink:href="dir_000024_000022.html" target="_top" xlink:title="1">
<text text-anchor="middle" x="127.897" y="-46.6439" font-family="Helvetica,sans-Serif" font-size="10.00">1</text>
</a>
</g>
</g>
<!-- dir_76e813e510703f19869a2c0b3c186be0&#45;&gt;dir_518b1046d4ba71ae05f3cf7bfff9fec7 -->
<g id="edge14" class="edge"><title>dir_76e813e510703f19869a2c0b3c186be0&#45;&gt;dir_518b1046d4ba71ae05f3cf7bfff9fec7</title>
<path fill="none" stroke="black" d="M146.857,-143.697C153.384,-135.389 161.329,-125.277 168.508,-116.141"/>
<polygon fill="black" stroke="black" points="171.396,-118.13 174.822,-108.104 165.892,-113.805 171.396,-118.13"/>
<g id="a_edge14&#45;headlabel"><a xlink:href="dir_000015_000017.html" target="_top" xlink:title="1">
<text text-anchor="middle" x="171.408" y="-120.211" font-family="Helvetica,sans-Serif" font-size="10.00">1</text>
</a>
</g>
</g>
<!-- dir_76e813e510703f19869a2c0b3c186be0&#45;&gt;dir_ac095602947de64a5a1ecdd3c516e29a -->
<g id="edge15" class="edge"><title>dir_76e813e510703f19869a2c0b3c186be0&#45;&gt;dir_ac095602947de64a5a1ecdd3c516e29a</title>
<path fill="none" stroke="black" d="M114.969,-143.697C105.829,-135.05 94.6212,-124.449 84.6613,-115.027"/>
<polygon fill="black" stroke="black" points="87.013,-112.434 77.343,-108.104 82.2025,-117.519 87.013,-112.434"/>
<g id="a_edge15&#45;headlabel"><a xlink:href="dir_000015_000024.html" target="_top" xlink:title="5">
<text text-anchor="middle" x="91.5754" y="-110.341" font-family="Helvetica,sans-Serif" font-size="10.00">5</text>
</a>
</g>
</g>
<!-- dir_76e813e510703f19869a2c0b3c186be0&#45;&gt;dir_4789c1aed63d8d10e4697371f4406b1d -->
<g id="edge16" class="edge"><title>dir_76e813e510703f19869a2c0b3c186be0&#45;&gt;dir_4789c1aed63d8d10e4697371f4406b1d</title>
<path fill="none" stroke="black" d="M136.518,-143.871C141.12,-119.67 149.573,-75.2108 155.053,-46.3932"/>
<polygon fill="black" stroke="black" points="158.563,-46.6671 156.993,-36.1893 151.687,-45.3594 158.563,-46.6671"/>
<g id="a_edge16&#45;headlabel"><a xlink:href="dir_000015_000022.html" target="_top" xlink:title="4">
<text text-anchor="middle" x="160.681" y="-48.2287" font-family="Helvetica,sans-Serif" font-size="10.00">4</text>
</a>
</g>
</g>
<!-- dir_26ec68a62de522efcefe87601c4b23cc&#45;&gt;dir_ac12c91361339777d4e643af799afefe -->
<g id="edge17" class="edge"><title>dir_26ec68a62de522efcefe87601c4b23cc&#45;&gt;dir_ac12c91361339777d4e643af799afefe</title>
<path fill="none" stroke="black" d="M156.156,-324.104C156.962,-331.791 157.198,-341.054 156.865,-349.665"/>
<polygon fill="black" stroke="black" points="153.37,-349.48 156.177,-359.697 160.353,-349.96 153.37,-349.48"/>
<g id="a_edge17&#45;headlabel"><a xlink:href="dir_000021_000027.html" target="_top" xlink:title="1">
<text text-anchor="middle" x="150.783" y="-343.2" font-family="Helvetica,sans-Serif" font-size="10.00">1</text>
</a>
</g>
</g>
<!-- dir_26ec68a62de522efcefe87601c4b23cc&#45;&gt;dir_76e813e510703f19869a2c0b3c186be0 -->
<g id="edge18" class="edge"><title>dir_26ec68a62de522efcefe87601c4b23cc&#45;&gt;dir_76e813e510703f19869a2c0b3c186be0</title>
<path fill="none" stroke="black" d="M148.211,-287.871C145.313,-263.67 139.991,-219.211 136.541,-190.393"/>
<polygon fill="black" stroke="black" points="139.983,-189.702 135.319,-180.189 133.033,-190.534 139.983,-189.702"/>
<g id="a_edge18&#45;headlabel"><a xlink:href="dir_000021_000015.html" target="_top" xlink:title="1">
<text text-anchor="middle" x="143.229" y="-190.434" font-family="Helvetica,sans-Serif" font-size="10.00">1</text>
</a>
</g>
</g>
<!-- dir_749f02635bffbc7a800d0e203e16ca18&#45;&gt;dir_2a32d600618e8f4da12af9817e65f799 -->
<g id="edge19" class="edge"><title>dir_749f02635bffbc7a800d0e203e16ca18&#45;&gt;dir_2a32d600618e8f4da12af9817e65f799</title>
<path fill="none" stroke="black" d="M199.733,-291.94C196.553,-290.573 193.349,-289.234 190.261,-288 152.125,-272.761 107.686,-257.345 77.1317,-247.098"/>
<polygon fill="black" stroke="black" points="77.9248,-243.673 67.3311,-243.829 75.7098,-250.313 77.9248,-243.673"/>
<g id="a_edge19&#45;headlabel"><a xlink:href="dir_000018_000008.html" target="_top" xlink:title="5">
<text text-anchor="middle" x="82.2331" y="-239.617" font-family="Helvetica,sans-Serif" font-size="10.00">5</text>
</a>
</g>
</g>
<!-- dir_749f02635bffbc7a800d0e203e16ca18&#45;&gt;dir_518b1046d4ba71ae05f3cf7bfff9fec7 -->
<g id="edge20" class="edge"><title>dir_749f02635bffbc7a800d0e203e16ca18&#45;&gt;dir_518b1046d4ba71ae05f3cf7bfff9fec7</title>
<path fill="none" stroke="black" d="M225.056,-287.849C218.122,-250.753 201.684,-162.81 193.327,-118.103"/>
<polygon fill="black" stroke="black" points="196.76,-117.419 191.482,-108.232 189.879,-118.705 196.76,-117.419"/>
<g id="a_edge20&#45;headlabel"><a xlink:href="dir_000018_000017.html" target="_top" xlink:title="3">
<text text-anchor="middle" x="200.211" y="-117.931" font-family="Helvetica,sans-Serif" font-size="10.00">3</text>
</a>
</g>
</g>
<!-- dir_749f02635bffbc7a800d0e203e16ca18&#45;&gt;dir_76e813e510703f19869a2c0b3c186be0 -->
<g id="edge21" class="edge"><title>dir_749f02635bffbc7a800d0e203e16ca18&#45;&gt;dir_76e813e510703f19869a2c0b3c186be0</title>
<path fill="none" stroke="black" d="M216.802,-287.871C200.254,-263.137 169.55,-217.242 150.329,-188.512"/>
<polygon fill="black" stroke="black" points="153.231,-186.555 144.761,-180.189 147.413,-190.447 153.231,-186.555"/>
<g id="a_edge21&#45;headlabel"><a xlink:href="dir_000018_000015.html" target="_top" xlink:title="1">
<text text-anchor="middle" x="157.589" y="-185.463" font-family="Helvetica,sans-Serif" font-size="10.00">1</text>
</a>
</g>
</g>
<!-- dir_749f02635bffbc7a800d0e203e16ca18&#45;&gt;dir_4789c1aed63d8d10e4697371f4406b1d -->
<g id="edge22" class="edge"><title>dir_749f02635bffbc7a800d0e203e16ca18&#45;&gt;dir_4789c1aed63d8d10e4697371f4406b1d</title>
<path fill="none" stroke="black" d="M232.685,-287.763C242.053,-247.503 260.228,-145.159 224.261,-72 217.972,-59.2072 207.003,-48.3939 195.904,-39.9379"/>
<polygon fill="black" stroke="black" points="197.644,-36.8806 187.466,-33.9373 193.587,-42.5851 197.644,-36.8806"/>
<g id="a_edge22&#45;headlabel"><a xlink:href="dir_000018_000022.html" target="_top" xlink:title="2">
<text text-anchor="middle" x="202.218" y="-34.15" font-family="Helvetica,sans-Serif" font-size="10.00">2</text>
</a>
</g>
</g>
</g>
</svg>
