<?xml version="1.0" encoding="UTF-8" standalone="no"?>
<!DOCTYPE svg PUBLIC "-//W3C//DTD SVG 1.1//EN"
 "http://www.w3.org/Graphics/SVG/1.1/DTD/svg11.dtd">
<!-- Generated by graphviz version 2.38.0 (20140413.2041)
 -->
<!-- Title: mnist Pages: 1 -->
<svg width="345pt" height="439pt"
 viewBox="0.00 0.00 345.26 439.00" xmlns="http://www.w3.org/2000/svg" xmlns:xlink="http://www.w3.org/1999/xlink">
<g id="graph0" class="graph" transform="scale(1 1) rotate(0) translate(4 435)">
<title>mnist</title>
<polygon fill="white" stroke="none" points="-4,4 -4,-435 341.26,-435 341.26,4 -4,4"/>
<g id="clust1" class="cluster"><title>clusterdir_88722ab9dda05e72612bb1370d0700e9</title>
<g id="a_clust1"><a xlink:href="dir_88722ab9dda05e72612bb1370d0700e9.html" target="_top" xlink:title="examples">
<polygon fill="#ddddee" stroke="black" points="106,-352 106,-423 176,-423 176,-352 106,-352"/>
<text text-anchor="middle" x="141" y="-411" font-family="Helvetica,sans-Serif" font-size="10.00">examples</text>
</a>
</g>
</g>
<!-- dir_1f48c601c4ac758e39714ff83238a45d -->
<g id="node1" class="node"><title>dir_1f48c601c4ac758e39714ff83238a45d</title>
<g id="a_node1"><a xlink:href="dir_1f48c601c4ac758e39714ff83238a45d.html" target="_top" xlink:title="mnist">
<polygon fill="#eeeeff" stroke="black" points="168,-396 114,-396 114,-360 168,-360 168,-396"/>
<text text-anchor="middle" x="141" y="-375.5" font-family="Helvetica,sans-Serif" font-size="10.00">mnist</text>
</a>
</g>
</g>
<!-- dir_484204cfca7d392505acc716154d56b9 -->
<g id="node2" class="node"><title>dir_484204cfca7d392505acc716154d56b9</title>
<g id="a_node2"><a xlink:href="dir_484204cfca7d392505acc716154d56b9.html" target="_top" xlink:title="layers">
<polygon fill="none" stroke="black" points="310,-252 256,-252 256,-216 310,-216 310,-252"/>
<text text-anchor="middle" x="283" y="-231.5" font-family="Helvetica,sans-Serif" font-size="10.00">layers</text>
</a>
</g>
</g>
<!-- dir_1f48c601c4ac758e39714ff83238a45d&#45;&gt;dir_484204cfca7d392505acc716154d56b9 -->
<g id="edge15" class="edge"><title>dir_1f48c601c4ac758e39714ff83238a45d&#45;&gt;dir_484204cfca7d392505acc716154d56b9</title>
<path fill="none" stroke="black" d="M168.088,-368.343C190.385,-360.032 221.545,-345.538 242,-324 258.584,-306.538 269.364,-281.174 275.688,-261.987"/>
<polygon fill="black" stroke="black" points="279.066,-262.909 278.673,-252.322 272.378,-260.843 279.066,-262.909"/>
<g id="a_edge15&#45;headlabel"><a xlink:href="dir_000026_000023.html" target="_top" xlink:title="1">
<text text-anchor="middle" x="280.718" y="-264.682" font-family="Helvetica,sans-Serif" font-size="10.00">1</text>
</a>
</g>
</g>
<!-- dir_ac12c91361339777d4e643af799afefe -->
<g id="node3" class="node"><title>dir_ac12c91361339777d4e643af799afefe</title>
<g id="a_node3"><a xlink:href="dir_ac12c91361339777d4e643af799afefe.html" target="_top" xlink:title="training">
<polygon fill="none" stroke="black" points="196,-324 142,-324 142,-288 196,-288 196,-324"/>
<text text-anchor="middle" x="169" y="-303.5" font-family="Helvetica,sans-Serif" font-size="10.00">training</text>
</a>
</g>
</g>
<!-- dir_1f48c601c4ac758e39714ff83238a45d&#45;&gt;dir_ac12c91361339777d4e643af799afefe -->
<g id="edge16" class="edge"><title>dir_1f48c601c4ac758e39714ff83238a45d&#45;&gt;dir_ac12c91361339777d4e643af799afefe</title>
<path fill="none" stroke="black" d="M147.921,-359.697C151.075,-351.813 154.878,-342.304 158.381,-333.546"/>
<polygon fill="black" stroke="black" points="161.694,-334.689 162.158,-324.104 155.195,-332.089 161.694,-334.689"/>
<g id="a_edge16&#45;headlabel"><a xlink:href="dir_000026_000027.html" target="_top" xlink:title="2">
<text text-anchor="middle" x="162.995" y="-336.581" font-family="Helvetica,sans-Serif" font-size="10.00">2</text>
</a>
</g>
</g>
<!-- dir_2a32d600618e8f4da12af9817e65f799 -->
<g id="node4" class="node"><title>dir_2a32d600618e8f4da12af9817e65f799</title>
<g id="a_node4"><a xlink:href="dir_2a32d600618e8f4da12af9817e65f799.html" target="_top" xlink:title="models">
<polygon fill="white" stroke="red" points="86,-252 32,-252 32,-216 86,-216 86,-252"/>
<text text-anchor="middle" x="59" y="-231.5" font-family="Helvetica,sans-Serif" font-size="10.00">models</text>
</a>
</g>
</g>
<!-- dir_1f48c601c4ac758e39714ff83238a45d&#45;&gt;dir_2a32d600618e8f4da12af9817e65f799 -->
<g id="edge17" class="edge"><title>dir_1f48c601c4ac758e39714ff83238a45d&#45;&gt;dir_2a32d600618e8f4da12af9817e65f799</title>
<path fill="none" stroke="black" d="M125.899,-359.575C117.651,-349.569 107.6,-336.534 100,-324 87.8694,-303.993 76.9393,-279.796 69.421,-261.685"/>
<polygon fill="black" stroke="black" points="72.6194,-260.259 65.6092,-252.315 66.1354,-262.897 72.6194,-260.259"/>
<g id="a_edge17&#45;headlabel"><a xlink:href="dir_000026_000008.html" target="_top" xlink:title="1">
<text text-anchor="middle" x="76.6039" y="-260.019" font-family="Helvetica,sans-Serif" font-size="10.00">1</text>
</a>
</g>
</g>
<!-- dir_518b1046d4ba71ae05f3cf7bfff9fec7 -->
<g id="node5" class="node"><title>dir_518b1046d4ba71ae05f3cf7bfff9fec7</title>
<g id="a_node5"><a xlink:href="dir_518b1046d4ba71ae05f3cf7bfff9fec7.html" target="_top" xlink:title="data">
<polygon fill="none" stroke="black" points="179,-108 125,-108 125,-72 179,-72 179,-108"/>
<text text-anchor="middle" x="152" y="-87.5" font-family="Helvetica,sans-Serif" font-size="10.00">data</text>
</a>
</g>
</g>
<!-- dir_1f48c601c4ac758e39714ff83238a45d&#45;&gt;dir_518b1046d4ba71ae05f3cf7bfff9fec7 -->
<g id="edge18" class="edge"><title>dir_1f48c601c4ac758e39714ff83238a45d&#45;&gt;dir_518b1046d4ba71ae05f3cf7bfff9fec7</title>
<path fill="none" stroke="black" d="M137.752,-359.888C135.954,-349.542 133.905,-336.063 133,-324 127.414,-249.567 139.66,-161.825 147,-118.314"/>
<polygon fill="black" stroke="black" points="150.487,-118.691 148.747,-108.24 143.59,-117.495 150.487,-118.691"/>
<g id="a_edge18&#45;headlabel"><a xlink:href="dir_000026_000017.html" target="_top" xlink:title="4">
<text text-anchor="middle" x="152.671" y="-120.217" font-family="Helvetica,sans-Serif" font-size="10.00">4</text>
</a>
</g>
</g>
<!-- dir_76e813e510703f19869a2c0b3c186be0 -->
<g id="node6" class="node"><title>dir_76e813e510703f19869a2c0b3c186be0</title>
<g id="a_node6"><a xlink:href="dir_76e813e510703f19869a2c0b3c186be0.html" target="_top" xlink:title="graph">
<polygon fill="none" stroke="black" points="234,-180 180,-180 180,-144 234,-144 234,-180"/>
<text text-anchor="middle" x="207" y="-159.5" font-family="Helvetica,sans-Serif" font-size="10.00">graph</text>
</a>
</g>
</g>
<!-- dir_1f48c601c4ac758e39714ff83238a45d&#45;&gt;dir_76e813e510703f19869a2c0b3c186be0 -->
<g id="edge19" class="edge"><title>dir_1f48c601c4ac758e39714ff83238a45d&#45;&gt;dir_76e813e510703f19869a2c0b3c186be0</title>
<path fill="none" stroke="black" d="M168.017,-362.35C181.784,-353.288 197.225,-340.271 205,-324 225.663,-280.758 219.547,-223.225 213.252,-189.937"/>
<polygon fill="black" stroke="black" points="216.66,-189.131 211.236,-180.03 209.801,-190.527 216.66,-189.131"/>
<g id="a_edge19&#45;headlabel"><a xlink:href="dir_000026_000015.html" target="_top" xlink:title="3">
<text text-anchor="middle" x="220.159" y="-189.588" font-family="Helvetica,sans-Serif" font-size="10.00">3</text>
</a>
</g>
</g>
<!-- dir_4789c1aed63d8d10e4697371f4406b1d -->
<g id="node7" class="node"><title>dir_4789c1aed63d8d10e4697371f4406b1d</title>
<g id="a_node7"><a xlink:href="dir_4789c1aed63d8d10e4697371f4406b1d.html" target="_top" xlink:title="common">
<polygon fill="none" stroke="black" points="206,-36 152,-36 152,-0 206,-0 206,-36"/>
<text text-anchor="middle" x="179" y="-15.5" font-family="Helvetica,sans-Serif" font-size="10.00">common</text>
</a>
</g>
</g>
<!-- dir_1f48c601c4ac758e39714ff83238a45d&#45;&gt;dir_4789c1aed63d8d10e4697371f4406b1d -->
<g id="edge20" class="edge"><title>dir_1f48c601c4ac758e39714ff83238a45d&#45;&gt;dir_4789c1aed63d8d10e4697371f4406b1d</title>
<path fill="none" stroke="black" d="M113.814,-364.791C72.8408,-344.315 0,-298.925 0,-235 0,-235 0,-235 0,-161 0,-89.0773 89.7921,-47.8028 142.184,-29.8414"/>
<polygon fill="black" stroke="black" points="143.418,-33.1198 151.814,-26.6572 141.221,-26.4737 143.418,-33.1198"/>
<g id="a_edge20&#45;headlabel"><a xlink:href="dir_000026_000022.html" target="_top" xlink:title="6">
<text text-anchor="middle" x="140.897" y="-34.444" font-family="Helvetica,sans-Serif" font-size="10.00">6</text>
</a>
</g>
</g>
<!-- dir_484204cfca7d392505acc716154d56b9&#45;&gt;dir_518b1046d4ba71ae05f3cf7bfff9fec7 -->
<g id="edge1" class="edge"><title>dir_484204cfca7d392505acc716154d56b9&#45;&gt;dir_518b1046d4ba71ae05f3cf7bfff9fec7</title>
<path fill="none" stroke="black" d="M278.721,-215.833C273.182,-196.494 261.927,-165.026 243,-144 228.105,-127.453 206.79,-114.656 188.533,-105.785"/>
<polygon fill="black" stroke="black" points="189.859,-102.542 179.315,-101.505 186.911,-108.891 189.859,-102.542"/>
<g id="a_edge1&#45;headlabel"><a xlink:href="dir_000023_000017.html" target="_top" xlink:title="3">
<text text-anchor="middle" x="194.315" y="-98.98" font-family="Helvetica,sans-Serif" font-size="10.00">3</text>
</a>
</g>
</g>
<!-- dir_484204cfca7d392505acc716154d56b9&#45;&gt;dir_76e813e510703f19869a2c0b3c186be0 -->
<g id="edge2" class="edge"><title>dir_484204cfca7d392505acc716154d56b9&#45;&gt;dir_76e813e510703f19869a2c0b3c186be0</title>
<path fill="none" stroke="black" d="M258.298,-215.697C248.119,-207.135 236.56,-196.656 226.926,-187.304"/>
<polygon fill="black" stroke="black" points="229.237,-184.667 219.675,-180.104 224.305,-189.634 229.237,-184.667"/>
<g id="a_edge2&#45;headlabel"><a xlink:href="dir_000023_000015.html" target="_top" xlink:title="3">
<text text-anchor="middle" x="233.789" y="-182.685" font-family="Helvetica,sans-Serif" font-size="10.00">3</text>
</a>
</g>
</g>
<!-- dir_484204cfca7d392505acc716154d56b9&#45;&gt;dir_4789c1aed63d8d10e4697371f4406b1d -->
<g id="edge3" class="edge"><title>dir_484204cfca7d392505acc716154d56b9&#45;&gt;dir_4789c1aed63d8d10e4697371f4406b1d</title>
<path fill="none" stroke="black" d="M282.654,-215.971C281.756,-197.578 278.753,-167.725 269,-144 253.106,-105.335 223.062,-67.2798 202.077,-43.5074"/>
<polygon fill="black" stroke="black" points="204.629,-41.1107 195.341,-36.0127 199.423,-45.7899 204.629,-41.1107"/>
<g id="a_edge3&#45;headlabel"><a xlink:href="dir_000023_000022.html" target="_top" xlink:title="4">
<text text-anchor="middle" x="209.143" y="-39.3862" font-family="Helvetica,sans-Serif" font-size="10.00">4</text>
</a>
</g>
</g>
<!-- dir_ac12c91361339777d4e643af799afefe&#45;&gt;dir_2a32d600618e8f4da12af9817e65f799 -->
<g id="edge4" class="edge"><title>dir_ac12c91361339777d4e643af799afefe&#45;&gt;dir_2a32d600618e8f4da12af9817e65f799</title>
<path fill="none" stroke="black" d="M142.091,-287.876C127.842,-278.808 110.154,-267.552 94.7644,-257.759"/>
<polygon fill="black" stroke="black" points="96.3282,-254.606 86.0125,-252.19 92.57,-260.511 96.3282,-254.606"/>
<g id="a_edge4&#45;headlabel"><a xlink:href="dir_000027_000008.html" target="_top" xlink:title="1">
<text text-anchor="middle" x="100.885" y="-251.64" font-family="Helvetica,sans-Serif" font-size="10.00">1</text>
</a>
</g>
</g>
<!-- dir_ac12c91361339777d4e643af799afefe&#45;&gt;dir_518b1046d4ba71ae05f3cf7bfff9fec7 -->
<g id="edge5" class="edge"><title>dir_ac12c91361339777d4e643af799afefe&#45;&gt;dir_518b1046d4ba71ae05f3cf7bfff9fec7</title>
<path fill="none" stroke="black" d="M167.638,-287.849C164.697,-250.832 157.734,-163.181 154.176,-118.386"/>
<polygon fill="black" stroke="black" points="157.65,-117.924 153.369,-108.232 150.672,-118.478 157.65,-117.924"/>
<g id="a_edge5&#45;headlabel"><a xlink:href="dir_000027_000017.html" target="_top" xlink:title="5">
<text text-anchor="middle" x="160.765" y="-118.782" font-family="Helvetica,sans-Serif" font-size="10.00">5</text>
</a>
</g>
</g>
<!-- dir_ac12c91361339777d4e643af799afefe&#45;&gt;dir_76e813e510703f19869a2c0b3c186be0 -->
<g id="edge6" class="edge"><title>dir_ac12c91361339777d4e643af799afefe&#45;&gt;dir_76e813e510703f19869a2c0b3c186be0</title>
<path fill="none" stroke="black" d="M173.584,-287.871C180.089,-263.564 192.063,-218.819 199.771,-190.013"/>
<polygon fill="black" stroke="black" points="203.196,-190.754 202.4,-180.189 196.434,-188.945 203.196,-190.754"/>
<g id="a_edge6&#45;headlabel"><a xlink:href="dir_000027_000015.html" target="_top" xlink:title="1">
<text text-anchor="middle" x="205.01" y="-192.461" font-family="Helvetica,sans-Serif" font-size="10.00">1</text>
</a>
</g>
</g>
<!-- dir_ac12c91361339777d4e643af799afefe&#45;&gt;dir_4789c1aed63d8d10e4697371f4406b1d -->
<g id="edge7" class="edge"><title>dir_ac12c91361339777d4e643af799afefe&#45;&gt;dir_4789c1aed63d8d10e4697371f4406b1d</title>
<path fill="none" stroke="black" d="M196.166,-304.292C231.243,-301.739 291.09,-291.462 319,-252 368.291,-182.307 307.203,-137.111 252,-72 241.549,-59.6732 227.663,-48.6728 214.809,-39.9322"/>
<polygon fill="black" stroke="black" points="216.414,-36.7998 206.129,-34.2535 212.581,-42.6574 216.414,-36.7998"/>
<g id="a_edge7&#45;headlabel"><a xlink:href="dir_000027_000022.html" target="_top" xlink:title="2">
<text text-anchor="middle" x="220.976" y="-33.8919" font-family="Helvetica,sans-Serif" font-size="10.00">2</text>
</a>
</g>
</g>
<!-- dir_2a32d600618e8f4da12af9817e65f799&#45;&gt;dir_518b1046d4ba71ae05f3cf7bfff9fec7 -->
<g id="edge8" class="edge"><title>dir_2a32d600618e8f4da12af9817e65f799&#45;&gt;dir_518b1046d4ba71ae05f3cf7bfff9fec7</title>
<path fill="none" stroke="black" d="M64.9422,-215.677C71.7882,-197.033 84.1595,-166.967 100,-144 107.076,-133.741 116.224,-123.672 124.869,-115.112"/>
<polygon fill="black" stroke="black" points="127.478,-117.459 132.273,-108.011 122.633,-112.407 127.478,-117.459"/>
<g id="a_edge8&#45;headlabel"><a xlink:href="dir_000008_000017.html" target="_top" xlink:title="2">
<text text-anchor="middle" x="126.849" y="-119.497" font-family="Helvetica,sans-Serif" font-size="10.00">2</text>
</a>
</g>
</g>
<!-- dir_2a32d600618e8f4da12af9817e65f799&#45;&gt;dir_76e813e510703f19869a2c0b3c186be0 -->
<g id="edge9" class="edge"><title>dir_2a32d600618e8f4da12af9817e65f799&#45;&gt;dir_76e813e510703f19869a2c0b3c186be0</title>
<path fill="none" stroke="black" d="M86.1455,-220.161C109.854,-208.947 144.464,-192.578 170.576,-180.227"/>
<polygon fill="black" stroke="black" points="172.233,-183.316 179.776,-175.876 169.24,-176.988 172.233,-183.316"/>
<g id="a_edge9&#45;headlabel"><a xlink:href="dir_000008_000015.html" target="_top" xlink:title="1">
<text text-anchor="middle" x="170.197" y="-184.919" font-family="Helvetica,sans-Serif" font-size="10.00">1</text>
</a>
</g>
</g>
<!-- dir_2a32d600618e8f4da12af9817e65f799&#45;&gt;dir_4789c1aed63d8d10e4697371f4406b1d -->
<g id="edge10" class="edge"><title>dir_2a32d600618e8f4da12af9817e65f799&#45;&gt;dir_4789c1aed63d8d10e4697371f4406b1d</title>
<path fill="none" stroke="black" d="M60.9314,-215.861C63.3361,-197.632 68.2376,-168.156 77,-144 89.4103,-109.788 93.006,-100.209 116,-72 124.852,-61.1411 136.16,-50.828 146.747,-42.2345"/>
<polygon fill="black" stroke="black" points="148.954,-44.9516 154.65,-36.0177 144.626,-39.4499 148.954,-44.9516"/>
<g id="a_edge10&#45;headlabel"><a xlink:href="dir_000008_000022.html" target="_top" xlink:title="2">
<text text-anchor="middle" x="147.885" y="-46.9056" font-family="Helvetica,sans-Serif" font-size="10.00">2</text>
</a>
</g>
</g>
<!-- dir_518b1046d4ba71ae05f3cf7bfff9fec7&#45;&gt;dir_4789c1aed63d8d10e4697371f4406b1d -->
<g id="edge11" class="edge"><title>dir_518b1046d4ba71ae05f3cf7bfff9fec7&#45;&gt;dir_4789c1aed63d8d10e4697371f4406b1d</title>
<path fill="none" stroke="black" d="M158.674,-71.6966C161.715,-63.8132 165.383,-54.3042 168.761,-45.5464"/>
<polygon fill="black" stroke="black" points="172.069,-46.6939 172.403,-36.1043 165.538,-44.1748 172.069,-46.6939"/>
<g id="a_edge11&#45;headlabel"><a xlink:href="dir_000017_000022.html" target="_top" xlink:title="3">
<text text-anchor="middle" x="173.425" y="-48.5695" font-family="Helvetica,sans-Serif" font-size="10.00">3</text>
</a>
</g>
</g>
<!-- dir_76e813e510703f19869a2c0b3c186be0&#45;&gt;dir_484204cfca7d392505acc716154d56b9 -->
<g id="edge12" class="edge"><title>dir_76e813e510703f19869a2c0b3c186be0&#45;&gt;dir_484204cfca7d392505acc716154d56b9</title>
<path fill="none" stroke="black" d="M231.465,-180.104C241.622,-188.636 253.185,-199.108 262.849,-208.478"/>
<polygon fill="black" stroke="black" points="260.564,-211.141 270.129,-215.697 265.493,-206.17 260.564,-211.141"/>
<g id="a_edge12&#45;headlabel"><a xlink:href="dir_000015_000023.html" target="_top" xlink:title="1">
<text text-anchor="middle" x="256.012" y="-208.126" font-family="Helvetica,sans-Serif" font-size="10.00">1</text>
</a>
</g>
</g>
<!-- dir_76e813e510703f19869a2c0b3c186be0&#45;&gt;dir_518b1046d4ba71ae05f3cf7bfff9fec7 -->
<g id="edge13" class="edge"><title>dir_76e813e510703f19869a2c0b3c186be0&#45;&gt;dir_518b1046d4ba71ae05f3cf7bfff9fec7</title>
<path fill="none" stroke="black" d="M193.404,-143.697C186.877,-135.389 178.932,-125.277 171.753,-116.141"/>
<polygon fill="black" stroke="black" points="174.369,-113.805 165.439,-108.104 168.865,-118.13 174.369,-113.805"/>
<g id="a_edge13&#45;headlabel"><a xlink:href="dir_000015_000017.html" target="_top" xlink:title="1">
<text text-anchor="middle" x="178.823" y="-112.377" font-family="Helvetica,sans-Serif" font-size="10.00">1</text>
</a>
</g>
</g>
<!-- dir_76e813e510703f19869a2c0b3c186be0&#45;&gt;dir_4789c1aed63d8d10e4697371f4406b1d -->
<g id="edge14" class="edge"><title>dir_76e813e510703f19869a2c0b3c186be0&#45;&gt;dir_4789c1aed63d8d10e4697371f4406b1d</title>
<path fill="none" stroke="black" d="M203.623,-143.871C198.829,-119.564 190.007,-74.8187 184.327,-46.0132"/>
<polygon fill="black" stroke="black" points="187.758,-45.3232 182.389,-36.1893 180.89,-46.6775 187.758,-45.3232"/>
<g id="a_edge14&#45;headlabel"><a xlink:href="dir_000015_000022.html" target="_top" xlink:title="4">
<text text-anchor="middle" x="191.239" y="-45.8007" font-family="Helvetica,sans-Serif" font-size="10.00">4</text>
</a>
</g>
</g>
</g>
</svg>
