<?xml version="1.0" encoding="UTF-8" standalone="no"?>
<!DOCTYPE svg PUBLIC "-//W3C//DTD SVG 1.1//EN"
 "http://www.w3.org/Graphics/SVG/1.1/DTD/svg11.dtd">
<!-- Generated by graphviz version 2.38.0 (20140413.2041)
 -->
<!-- Title: Graphical Class Hierarchy Pages: 1 -->
<svg width="626pt" height="110pt"
 viewBox="0.00 0.00 626.00 109.50" xmlns="http://www.w3.org/2000/svg" xmlns:xlink="http://www.w3.org/1999/xlink">
<g id="graph0" class="graph" transform="scale(1 1) rotate(0) translate(4 105.5)">
<title>Graphical Class Hierarchy</title>
<polygon fill="white" stroke="none" points="-4,4 -4,-105.5 622,-105.5 622,4 -4,4"/>
<!-- Node1 -->
<g id="node1" class="node"><title>Node1</title>
<g id="a_node1"><a xlink:href="db/d04/classmarian_1_1DecoderBase.html" target="_top" xlink:title="marian::DecoderBase">
<polygon fill="white" stroke="black" points="0,-38.5 0,-57.5 111,-57.5 111,-38.5 0,-38.5"/>
<text text-anchor="middle" x="55.5" y="-45.5" font-family="Helvetica,sans-Serif" font-size="10.00">marian::DecoderBase</text>
</a>
</g>
</g>
<!-- Node2 -->
<g id="node2" class="node"><title>Node2</title>
<g id="a_node2"><a xlink:href="d1/dcc/classmarian_1_1DecoderHardAtt.html" target="_top" xlink:title="marian::DecoderHardAtt">
<polygon fill="white" stroke="black" points="150,-76.5 150,-95.5 272,-95.5 272,-76.5 150,-76.5"/>
<text text-anchor="middle" x="211" y="-83.5" font-family="Helvetica,sans-Serif" font-size="10.00">marian::DecoderHardAtt</text>
</a>
</g>
</g>
<!-- Node1&#45;&gt;Node2 -->
<g id="edge1" class="edge"><title>Node1&#45;&gt;Node2</title>
<path fill="none" stroke="midnightblue" d="M105.135,-60.04C126.58,-65.3488 151.423,-71.4988 171.544,-76.4799"/>
<polygon fill="midnightblue" stroke="midnightblue" points="105.783,-56.5947 95.2345,-57.589 104.1,-63.3896 105.783,-56.5947"/>
</g>
<!-- Node5 -->
<g id="node5" class="node"><title>Node5</title>
<g id="a_node5"><a xlink:href="d3/d4b/classmarian_1_1DecoderS2S.html" target="_top" xlink:title="marian::DecoderS2S">
<polygon fill="white" stroke="black" points="157.5,-38.5 157.5,-57.5 264.5,-57.5 264.5,-38.5 157.5,-38.5"/>
<text text-anchor="middle" x="211" y="-45.5" font-family="Helvetica,sans-Serif" font-size="10.00">marian::DecoderS2S</text>
</a>
</g>
</g>
<!-- Node1&#45;&gt;Node5 -->
<g id="edge4" class="edge"><title>Node1&#45;&gt;Node5</title>
<path fill="none" stroke="midnightblue" d="M121.099,-48C133.21,-48 145.736,-48 157.427,-48"/>
<polygon fill="midnightblue" stroke="midnightblue" points="121.051,-44.5001 111.051,-48 121.051,-51.5001 121.051,-44.5001"/>
</g>
<!-- Node6 -->
<g id="node6" class="node"><title>Node6</title>
<g id="a_node6"><a xlink:href="d3/d3b/classmarian_1_1MultiDecoderS2S.html" target="_top" xlink:title="marian::MultiDecoderS2S">
<polygon fill="white" stroke="black" points="147,-0.5 147,-19.5 275,-19.5 275,-0.5 147,-0.5"/>
<text text-anchor="middle" x="211" y="-7.5" font-family="Helvetica,sans-Serif" font-size="10.00">marian::MultiDecoderS2S</text>
</a>
</g>
</g>
<!-- Node1&#45;&gt;Node6 -->
<g id="edge5" class="edge"><title>Node1&#45;&gt;Node6</title>
<path fill="none" stroke="midnightblue" d="M105.135,-35.96C126.58,-30.6512 151.423,-24.5012 171.544,-19.5201"/>
<polygon fill="midnightblue" stroke="midnightblue" points="104.1,-32.6104 95.2345,-38.411 105.783,-39.4053 104.1,-32.6104"/>
</g>
<!-- Node3 -->
<g id="node3" class="node"><title>Node3</title>
<g id="a_node3"><a xlink:href="de/d21/classmarian_1_1DecoderHardSoftAtt.html" target="_top" xlink:title="marian::DecoderHardSoftAtt">
<polygon fill="white" stroke="black" points="311,-76.5 311,-95.5 451,-95.5 451,-76.5 311,-76.5"/>
<text text-anchor="middle" x="381" y="-83.5" font-family="Helvetica,sans-Serif" font-size="10.00">marian::DecoderHardSoftAtt</text>
</a>
</g>
</g>
<!-- Node2&#45;&gt;Node3 -->
<g id="edge2" class="edge"><title>Node2&#45;&gt;Node3</title>
<path fill="none" stroke="midnightblue" d="M282.296,-86C291.728,-86 301.396,-86 310.809,-86"/>
<polygon fill="midnightblue" stroke="midnightblue" points="282.177,-82.5001 272.177,-86 282.177,-89.5001 282.177,-82.5001"/>
</g>
<!-- Node4 -->
<g id="node4" class="node"><title>Node4</title>
<g id="a_node4"><a xlink:href="d7/d30/classmarian_1_1MultiDecoderHardSoftAtt.html" target="_top" xlink:title="marian::MultiDecoderHard\lSoftAtt">
<polygon fill="white" stroke="black" points="487,-71 487,-101 618,-101 618,-71 487,-71"/>
<text text-anchor="start" x="495" y="-89" font-family="Helvetica,sans-Serif" font-size="10.00">marian::MultiDecoderHard</text>
<text text-anchor="middle" x="552.5" y="-78" font-family="Helvetica,sans-Serif" font-size="10.00">SoftAtt</text>
</a>
</g>
</g>
<!-- Node3&#45;&gt;Node4 -->
<g id="edge3" class="edge"><title>Node3&#45;&gt;Node4</title>
<path fill="none" stroke="midnightblue" d="M461.658,-86C470.088,-86 478.585,-86 486.815,-86"/>
<polygon fill="midnightblue" stroke="midnightblue" points="461.431,-82.5001 451.431,-86 461.431,-89.5001 461.431,-82.5001"/>
</g>
</g>
</svg>
