<?xml version="1.0" encoding="UTF-8" standalone="no"?>
<!DOCTYPE svg PUBLIC "-//W3C//DTD SVG 1.1//EN"
 "http://www.w3.org/Graphics/SVG/1.1/DTD/svg11.dtd">
<!-- Generated by graphviz version 2.38.0 (20140413.2041)
 -->
<!-- Title: Graphical Class Hierarchy Pages: 1 -->
<svg width="266pt" height="116pt"
 viewBox="0.00 0.00 266.00 115.50" xmlns="http://www.w3.org/2000/svg" xmlns:xlink="http://www.w3.org/1999/xlink">
<g id="graph0" class="graph" transform="scale(1 1) rotate(0) translate(4 111.5)">
<title>Graphical Class Hierarchy</title>
<polygon fill="white" stroke="none" points="-4,4 -4,-111.5 262,-111.5 262,4 -4,4"/>
<!-- Node1 -->
<g id="node1" class="node"><title>Node1</title>
<g id="a_node1"><a xlink:href="dd/dbc/classmarian_1_1Scorer.html" target="_top" xlink:title="marian::Scorer">
<polygon fill="white" stroke="black" points="0,-38.5 0,-57.5 80,-57.5 80,-38.5 0,-38.5"/>
<text text-anchor="middle" x="40" y="-45.5" font-family="Helvetica,sans-Serif" font-size="10.00">marian::Scorer</text>
</a>
</g>
</g>
<!-- Node2 -->
<g id="node2" class="node"><title>Node2</title>
<g id="a_node2"><a xlink:href="d1/dbc/classmarian_1_1ScorerWrapper.html" target="_top" xlink:title="marian::ScorerWrapper\l\&lt; EncoderDecoder \&gt;">
<polygon fill="white" stroke="black" points="128.5,-77 128.5,-107 245.5,-107 245.5,-77 128.5,-77"/>
<text text-anchor="start" x="136.5" y="-95" font-family="Helvetica,sans-Serif" font-size="10.00">marian::ScorerWrapper</text>
<text text-anchor="middle" x="187" y="-84" font-family="Helvetica,sans-Serif" font-size="10.00">&lt; EncoderDecoder &gt;</text>
</a>
</g>
</g>
<!-- Node1&#45;&gt;Node2 -->
<g id="edge1" class="edge"><title>Node1&#45;&gt;Node2</title>
<path fill="none" stroke="midnightblue" d="M82.0457,-60.4553C98.9384,-65.5813 118.657,-71.5649 136.353,-76.9346"/>
<polygon fill="midnightblue" stroke="midnightblue" points="83.0483,-57.102 72.4628,-57.5473 81.0156,-63.8004 83.0483,-57.102"/>
</g>
<!-- Node3 -->
<g id="node3" class="node"><title>Node3</title>
<g id="a_node3"><a xlink:href="d5/de6/classmarian_1_1UnseenWordPenalty.html" target="_top" xlink:title="marian::UnseenWordPenalty">
<polygon fill="white" stroke="black" points="116,-38.5 116,-57.5 258,-57.5 258,-38.5 116,-38.5"/>
<text text-anchor="middle" x="187" y="-45.5" font-family="Helvetica,sans-Serif" font-size="10.00">marian::UnseenWordPenalty</text>
</a>
</g>
</g>
<!-- Node1&#45;&gt;Node3 -->
<g id="edge2" class="edge"><title>Node1&#45;&gt;Node3</title>
<path fill="none" stroke="midnightblue" d="M90.4115,-48C98.6596,-48 107.353,-48 115.999,-48"/>
<polygon fill="midnightblue" stroke="midnightblue" points="90.2391,-44.5001 80.2391,-48 90.2391,-51.5001 90.2391,-44.5001"/>
</g>
<!-- Node4 -->
<g id="node4" class="node"><title>Node4</title>
<g id="a_node4"><a xlink:href="da/d63/classmarian_1_1WordPenalty.html" target="_top" xlink:title="marian::WordPenalty">
<polygon fill="white" stroke="black" points="133,-0.5 133,-19.5 241,-19.5 241,-0.5 133,-0.5"/>
<text text-anchor="middle" x="187" y="-7.5" font-family="Helvetica,sans-Serif" font-size="10.00">marian::WordPenalty</text>
</a>
</g>
</g>
<!-- Node1&#45;&gt;Node4 -->
<g id="edge3" class="edge"><title>Node1&#45;&gt;Node4</title>
<path fill="none" stroke="midnightblue" d="M87.4928,-35.8157C107.624,-30.54 130.838,-24.4562 149.673,-19.5201"/>
<polygon fill="midnightblue" stroke="midnightblue" points="86.3757,-32.4902 77.5896,-38.411 88.1503,-39.2615 86.3757,-32.4902"/>
</g>
</g>
</svg>
