<?xml version="1.0" encoding="UTF-8" standalone="no"?>
<!DOCTYPE svg PUBLIC "-//W3C//DTD SVG 1.1//EN"
 "http://www.w3.org/Graphics/SVG/1.1/DTD/svg11.dtd">
<!-- Generated by graphviz version 2.38.0 (20140413.2041)
 -->
<!-- Title: Graphical Class Hierarchy Pages: 1 -->
<svg width="202pt" height="66pt"
 viewBox="0.00 0.00 202.00 66.00" xmlns="http://www.w3.org/2000/svg" xmlns:xlink="http://www.w3.org/1999/xlink">
<g id="graph0" class="graph" transform="scale(1 1) rotate(0) translate(4 62)">
<title>Graphical Class Hierarchy</title>
<polygon fill="white" stroke="none" points="-4,4 -4,-62 198,-62 198,4 -4,4"/>
<!-- Node1 -->
<g id="node1" class="node"><title>Node1</title>
<polygon fill="white" stroke="#bfbfbf" points="0,-19.5 0,-38.5 40,-38.5 40,-19.5 0,-19.5"/>
<text text-anchor="middle" x="20" y="-26.5" font-family="Helvetica,sans-Serif" font-size="10.00">State</text>
</g>
<!-- Node2 -->
<g id="node2" class="node"><title>Node2</title>
<g id="a_node2"><a xlink:href="d9/d6a/classGPU_1_1ApePenaltyState.html" target="_top" xlink:title="GPU::ApePenaltyState">
<polygon fill="white" stroke="black" points="76,-38.5 76,-57.5 194,-57.5 194,-38.5 76,-38.5"/>
<text text-anchor="middle" x="135" y="-45.5" font-family="Helvetica,sans-Serif" font-size="10.00">GPU::ApePenaltyState</text>
</a>
</g>
</g>
<!-- Node1&#45;&gt;Node2 -->
<g id="edge1" class="edge"><title>Node1&#45;&gt;Node2</title>
<path fill="none" stroke="midnightblue" d="M50.0842,-33.8903C58.4172,-35.2914 67.8004,-36.8691 77.1948,-38.4487"/>
<polygon fill="midnightblue" stroke="midnightblue" points="50.6109,-30.4298 40.1689,-32.2231 49.4501,-37.3329 50.6109,-30.4298"/>
</g>
<!-- Node3 -->
<g id="node3" class="node"><title>Node3</title>
<g id="a_node3"><a xlink:href="dd/dd8/classLanguageModelState.html" target="_top" xlink:title="LanguageModelState">
<polygon fill="white" stroke="black" points="81,-0.5 81,-19.5 189,-19.5 189,-0.5 81,-0.5"/>
<text text-anchor="middle" x="135" y="-7.5" font-family="Helvetica,sans-Serif" font-size="10.00">LanguageModelState</text>
</a>
</g>
</g>
<!-- Node1&#45;&gt;Node3 -->
<g id="edge2" class="edge"><title>Node1&#45;&gt;Node3</title>
<path fill="none" stroke="midnightblue" d="M50.0808,-24.1103C59.4263,-22.5389 70.093,-20.7454 80.6152,-18.9762"/>
<polygon fill="midnightblue" stroke="midnightblue" points="49.4501,-20.6671 40.1689,-25.7769 50.6109,-27.5702 49.4501,-20.6671"/>
</g>
</g>
</svg>
