<?xml version="1.0" encoding="UTF-8" standalone="no"?>
<!DOCTYPE svg PUBLIC "-//W3C//DTD SVG 1.1//EN"
 "http://www.w3.org/Graphics/SVG/1.1/DTD/svg11.dtd">
<!-- Generated by graphviz version 2.38.0 (20140413.2041)
 -->
<!-- Title: Graphical Class Hierarchy Pages: 1 -->
<svg width="277pt" height="116pt"
 viewBox="0.00 0.00 277.00 115.50" xmlns="http://www.w3.org/2000/svg" xmlns:xlink="http://www.w3.org/1999/xlink">
<g id="graph0" class="graph" transform="scale(1 1) rotate(0) translate(4 111.5)">
<title>Graphical Class Hierarchy</title>
<polygon fill="white" stroke="none" points="-4,4 -4,-111.5 273,-111.5 273,4 -4,4"/>
<!-- Node1 -->
<g id="node1" class="node"><title>Node1</title>
<g id="a_node1"><a xlink:href="dd/dc6/classmarian_1_1EncoderBase.html" target="_top" xlink:title="marian::EncoderBase">
<polygon fill="white" stroke="black" points="0,-50 0,-69 110,-69 110,-50 0,-50"/>
<text text-anchor="middle" x="55" y="-57" font-family="Helvetica,sans-Serif" font-size="10.00">marian::EncoderBase</text>
</a>
</g>
</g>
<!-- Node2 -->
<g id="node2" class="node"><title>Node2</title>
<g id="a_node2"><a xlink:href="dd/d8d/classmarian_1_1EncoderPooling.html" target="_top" xlink:title="marian::EncoderPooling">
<polygon fill="white" stroke="black" points="147.5,-88 147.5,-107 267.5,-107 267.5,-88 147.5,-88"/>
<text text-anchor="middle" x="207.5" y="-95" font-family="Helvetica,sans-Serif" font-size="10.00">marian::EncoderPooling</text>
</a>
</g>
</g>
<!-- Node1&#45;&gt;Node2 -->
<g id="edge1" class="edge"><title>Node1&#45;&gt;Node2</title>
<path fill="none" stroke="midnightblue" d="M103.685,-71.54C124.71,-76.8488 149.067,-82.9988 168.796,-87.9799"/>
<polygon fill="midnightblue" stroke="midnightblue" points="104.53,-68.1437 93.9775,-69.089 102.816,-74.9307 104.53,-68.1437"/>
</g>
<!-- Node3 -->
<g id="node3" class="node"><title>Node3</title>
<g id="a_node3"><a xlink:href="d3/dbc/classmarian_1_1EncoderS2S.html" target="_top" xlink:title="marian::EncoderS2S">
<polygon fill="white" stroke="black" points="154,-50 154,-69 261,-69 261,-50 154,-50"/>
<text text-anchor="middle" x="207.5" y="-57" font-family="Helvetica,sans-Serif" font-size="10.00">marian::EncoderS2S</text>
</a>
</g>
</g>
<!-- Node1&#45;&gt;Node3 -->
<g id="edge2" class="edge"><title>Node1&#45;&gt;Node3</title>
<path fill="none" stroke="midnightblue" d="M120.428,-59.5C131.548,-59.5 142.991,-59.5 153.757,-59.5"/>
<polygon fill="midnightblue" stroke="midnightblue" points="120.334,-56.0001 110.334,-59.5 120.334,-63.0001 120.334,-56.0001"/>
</g>
<!-- Node4 -->
<g id="node4" class="node"><title>Node4</title>
<g id="a_node4"><a xlink:href="d3/d1e/classmarian_1_1MultiEncoder.html" target="_top" xlink:title="marian::MultiEncoder\l\&lt; Encoder1, Encoder2 \&gt;">
<polygon fill="white" stroke="black" points="146,-0.5 146,-30.5 269,-30.5 269,-0.5 146,-0.5"/>
<text text-anchor="start" x="154" y="-18.5" font-family="Helvetica,sans-Serif" font-size="10.00">marian::MultiEncoder</text>
<text text-anchor="middle" x="207.5" y="-7.5" font-family="Helvetica,sans-Serif" font-size="10.00">&lt; Encoder1, Encoder2 &gt;</text>
</a>
</g>
</g>
<!-- Node1&#45;&gt;Node4 -->
<g id="edge3" class="edge"><title>Node1&#45;&gt;Node4</title>
<path fill="none" stroke="midnightblue" d="M98.6026,-47.0447C116.136,-41.9187 136.603,-35.9351 154.97,-30.5654"/>
<polygon fill="midnightblue" stroke="midnightblue" points="97.2723,-43.7871 88.6563,-49.9527 99.2366,-50.5058 97.2723,-43.7871"/>
</g>
</g>
</svg>
