<?xml version="1.0" encoding="UTF-8" standalone="no"?>
<!DOCTYPE svg PUBLIC "-//W3C//DTD SVG 1.1//EN"
 "http://www.w3.org/Graphics/SVG/1.1/DTD/svg11.dtd">
<!-- Generated by graphviz version 2.38.0 (20140413.2041)
 -->
<!-- Title: Graphical Class Hierarchy Pages: 1 -->
<svg width="441pt" height="50pt"
 viewBox="0.00 0.00 441.00 50.00" xmlns="http://www.w3.org/2000/svg" xmlns:xlink="http://www.w3.org/1999/xlink">
<g id="graph0" class="graph" transform="scale(1 1) rotate(0) translate(4 46)">
<title>Graphical Class Hierarchy</title>
<polygon fill="white" stroke="none" points="-4,4 -4,-46 437,-46 437,4 -4,4"/>
<!-- Node1 -->
<g id="node1" class="node"><title>Node1</title>
<g id="a_node1"><a xlink:href="db/deb/classmarian_1_1data_1_1DatasetBase.html" target="_top" xlink:title="marian::data::DatasetBase\l\&lt; Example, ExampleIterator,\l DataBatch \&gt;">
<polygon fill="white" stroke="black" points="0,-0.5 0,-41.5 142,-41.5 142,-0.5 0,-0.5"/>
<text text-anchor="start" x="8" y="-29.5" font-family="Helvetica,sans-Serif" font-size="10.00">marian::data::DatasetBase</text>
<text text-anchor="start" x="8" y="-18.5" font-family="Helvetica,sans-Serif" font-size="10.00">&lt; Example, ExampleIterator,</text>
<text text-anchor="middle" x="71" y="-7.5" font-family="Helvetica,sans-Serif" font-size="10.00"> DataBatch &gt;</text>
</a>
</g>
</g>
<!-- Node2 -->
<g id="node2" class="node"><title>Node2</title>
<g id="a_node2"><a xlink:href="d2/d2b/classmarian_1_1data_1_1Dataset.html" target="_top" xlink:title="marian::data::Dataset">
<polygon fill="white" stroke="black" points="178,-11.5 178,-30.5 289,-30.5 289,-11.5 178,-11.5"/>
<text text-anchor="middle" x="233.5" y="-18.5" font-family="Helvetica,sans-Serif" font-size="10.00">marian::data::Dataset</text>
</a>
</g>
</g>
<!-- Node1&#45;&gt;Node2 -->
<g id="edge1" class="edge"><title>Node1&#45;&gt;Node2</title>
<path fill="none" stroke="midnightblue" d="M152.67,-21C161.11,-21 169.544,-21 177.598,-21"/>
<polygon fill="midnightblue" stroke="midnightblue" points="152.398,-17.5001 142.398,-21 152.398,-24.5001 152.398,-17.5001"/>
</g>
<!-- Node3 -->
<g id="node3" class="node"><title>Node3</title>
<g id="a_node3"><a xlink:href="d7/d07/classmarian_1_1data_1_1MNIST.html" target="_top" xlink:title="marian::data::MNIST">
<polygon fill="white" stroke="black" points="325,-11.5 325,-30.5 433,-30.5 433,-11.5 325,-11.5"/>
<text text-anchor="middle" x="379" y="-18.5" font-family="Helvetica,sans-Serif" font-size="10.00">marian::data::MNIST</text>
</a>
</g>
</g>
<!-- Node2&#45;&gt;Node3 -->
<g id="edge2" class="edge"><title>Node2&#45;&gt;Node3</title>
<path fill="none" stroke="midnightblue" d="M299.175,-21C307.784,-21 316.531,-21 324.913,-21"/>
<polygon fill="midnightblue" stroke="midnightblue" points="299.161,-17.5001 289.161,-21 299.161,-24.5001 299.161,-17.5001"/>
</g>
</g>
</svg>
