<?xml version="1.0" encoding="UTF-8" standalone="no"?>
<!DOCTYPE svg PUBLIC "-//W3C//DTD SVG 1.1//EN"
 "http://www.w3.org/Graphics/SVG/1.1/DTD/svg11.dtd">
<!-- Generated by graphviz version 2.38.0 (20140413.2041)
 -->
<!-- Title: Graphical Class Hierarchy Pages: 1 -->
<svg width="279pt" height="196pt"
 viewBox="0.00 0.00 279.00 196.00" xmlns="http://www.w3.org/2000/svg" xmlns:xlink="http://www.w3.org/1999/xlink">
<g id="graph0" class="graph" transform="scale(1 1) rotate(0) translate(4 192)">
<title>Graphical Class Hierarchy</title>
<polygon fill="white" stroke="none" points="-4,4 -4,-192 275,-192 275,4 -4,4"/>
<!-- Node1 -->
<g id="node1" class="node"><title>Node1</title>
<g id="a_node1"><a xlink:href="d5/de7/classamunmt_1_1BaseMatrix.html" target="_top" xlink:title="amunmt::BaseMatrix">
<polygon fill="white" stroke="black" points="0,-82 0,-101 107,-101 107,-82 0,-82"/>
<text text-anchor="middle" x="53.5" y="-89" font-family="Helvetica,sans-Serif" font-size="10.00">amunmt::BaseMatrix</text>
</a>
</g>
</g>
<!-- Node2 -->
<g id="node2" class="node"><title>Node2</title>
<g id="a_node2"><a xlink:href="da/ddf/classamunmt_1_1GPU_1_1mblas_1_1TMatrix.html" target="_top" xlink:title="amunmt::GPU::mblas\l::TMatrix\&lt; T \&gt;">
<polygon fill="white" stroke="black" points="151,-157.5 151,-187.5 263,-187.5 263,-157.5 151,-157.5"/>
<text text-anchor="start" x="159" y="-175.5" font-family="Helvetica,sans-Serif" font-size="10.00">amunmt::GPU::mblas</text>
<text text-anchor="middle" x="207" y="-164.5" font-family="Helvetica,sans-Serif" font-size="10.00">::TMatrix&lt; T &gt;</text>
</a>
</g>
</g>
<!-- Node1&#45;&gt;Node2 -->
<g id="edge1" class="edge"><title>Node1&#45;&gt;Node2</title>
<path fill="none" stroke="midnightblue" d="M75.8163,-107.028C93.291,-119.31 118.972,-136.353 143,-148.5 149.267,-151.668 156.057,-154.67 162.781,-157.409"/>
<polygon fill="midnightblue" stroke="midnightblue" points="77.6545,-104.041 67.4784,-101.091 73.5942,-109.743 77.6545,-104.041"/>
</g>
<!-- Node3 -->
<g id="node3" class="node"><title>Node3</title>
<g id="a_node3"><a xlink:href="da/ddf/classamunmt_1_1GPU_1_1mblas_1_1TMatrix.html" target="_top" xlink:title="amunmt::GPU::mblas\l::TMatrix\&lt; amunmt::GPU\l::NthOut \&gt;">
<polygon fill="white" stroke="black" points="143,-98 143,-139 271,-139 271,-98 143,-98"/>
<text text-anchor="start" x="151" y="-127" font-family="Helvetica,sans-Serif" font-size="10.00">amunmt::GPU::mblas</text>
<text text-anchor="start" x="151" y="-116" font-family="Helvetica,sans-Serif" font-size="10.00">::TMatrix&lt; amunmt::GPU</text>
<text text-anchor="middle" x="207" y="-105" font-family="Helvetica,sans-Serif" font-size="10.00">::NthOut &gt;</text>
</a>
</g>
</g>
<!-- Node1&#45;&gt;Node3 -->
<g id="edge2" class="edge"><title>Node1&#45;&gt;Node3</title>
<path fill="none" stroke="midnightblue" d="M116.958,-102.631C125.502,-104.154 134.28,-105.718 142.836,-107.243"/>
<polygon fill="midnightblue" stroke="midnightblue" points="117.521,-99.1764 107.062,-100.868 116.293,-106.068 117.521,-99.1764"/>
</g>
<!-- Node4 -->
<g id="node4" class="node"><title>Node4</title>
<g id="a_node4"><a xlink:href="da/ddf/classamunmt_1_1GPU_1_1mblas_1_1TMatrix.html" target="_top" xlink:title="amunmt::GPU::mblas\l::TMatrix\&lt; float \&gt;">
<polygon fill="white" stroke="black" points="151,-49.5 151,-79.5 263,-79.5 263,-49.5 151,-49.5"/>
<text text-anchor="start" x="159" y="-67.5" font-family="Helvetica,sans-Serif" font-size="10.00">amunmt::GPU::mblas</text>
<text text-anchor="middle" x="207" y="-56.5" font-family="Helvetica,sans-Serif" font-size="10.00">::TMatrix&lt; float &gt;</text>
</a>
</g>
</g>
<!-- Node1&#45;&gt;Node4 -->
<g id="edge3" class="edge"><title>Node1&#45;&gt;Node4</title>
<path fill="none" stroke="midnightblue" d="M117.206,-80.3247C128.403,-78.3291 139.993,-76.2637 150.955,-74.31"/>
<polygon fill="midnightblue" stroke="midnightblue" points="116.293,-76.9322 107.062,-82.1325 117.521,-83.8236 116.293,-76.9322"/>
</g>
<!-- Node5 -->
<g id="node5" class="node"><title>Node5</title>
<g id="a_node5"><a xlink:href="da/ddf/classamunmt_1_1GPU_1_1mblas_1_1TMatrix.html" target="_top" xlink:title="amunmt::GPU::mblas\l::TMatrix\&lt; uint \&gt;">
<polygon fill="white" stroke="black" points="151,-0.5 151,-30.5 263,-30.5 263,-0.5 151,-0.5"/>
<text text-anchor="start" x="159" y="-18.5" font-family="Helvetica,sans-Serif" font-size="10.00">amunmt::GPU::mblas</text>
<text text-anchor="middle" x="207" y="-7.5" font-family="Helvetica,sans-Serif" font-size="10.00">::TMatrix&lt; uint &gt;</text>
</a>
</g>
</g>
<!-- Node1&#45;&gt;Node5 -->
<g id="edge4" class="edge"><title>Node1&#45;&gt;Node5</title>
<path fill="none" stroke="midnightblue" d="M78.4386,-76.438C95.96,-65.7291 120.503,-51.3748 143,-40.5 150.204,-37.0175 158.026,-33.6212 165.629,-30.511"/>
<polygon fill="midnightblue" stroke="midnightblue" points="76.1541,-73.735 69.4844,-81.967 79.8319,-79.691 76.1541,-73.735"/>
</g>
</g>
</svg>
