<?xml version="1.0" encoding="UTF-8" standalone="no"?>
<!DOCTYPE svg PUBLIC "-//W3C//DTD SVG 1.1//EN"
 "http://www.w3.org/Graphics/SVG/1.1/DTD/svg11.dtd">
<!-- Generated by graphviz version 2.38.0 (20140413.2041)
 -->
<!-- Title: Graphical Class Hierarchy Pages: 1 -->
<svg width="290pt" height="186pt"
 viewBox="0.00 0.00 290.00 186.00" xmlns="http://www.w3.org/2000/svg" xmlns:xlink="http://www.w3.org/1999/xlink">
<g id="graph0" class="graph" transform="scale(1 1) rotate(0) translate(4 182)">
<title>Graphical Class Hierarchy</title>
<polygon fill="white" stroke="none" points="-4,4 -4,-182 286,-182 286,4 -4,4"/>
<!-- Node1 -->
<g id="node1" class="node"><title>Node1</title>
<g id="a_node1"><a xlink:href="d0/db0/classamunmt_1_1GPU_1_1Cell.html" target="_top" xlink:title="amunmt::GPU::Cell">
<polygon fill="white" stroke="black" points="0,-79 0,-98 103,-98 103,-79 0,-79"/>
<text text-anchor="middle" x="51.5" y="-86" font-family="Helvetica,sans-Serif" font-size="10.00">amunmt::GPU::Cell</text>
</a>
</g>
</g>
<!-- Node2 -->
<g id="node2" class="node"><title>Node2</title>
<g id="a_node2"><a xlink:href="d9/df6/classamunmt_1_1GPU_1_1FastGRU.html" target="_top" xlink:title="amunmt::GPU::FastGRU\l\&lt; Weights \&gt;">
<polygon fill="white" stroke="black" points="146.5,-147.5 146.5,-177.5 274.5,-177.5 274.5,-147.5 146.5,-147.5"/>
<text text-anchor="start" x="154.5" y="-165.5" font-family="Helvetica,sans-Serif" font-size="10.00">amunmt::GPU::FastGRU</text>
<text text-anchor="middle" x="210.5" y="-154.5" font-family="Helvetica,sans-Serif" font-size="10.00">&lt; Weights &gt;</text>
</a>
</g>
</g>
<!-- Node1&#45;&gt;Node2 -->
<g id="edge1" class="edge"><title>Node1&#45;&gt;Node2</title>
<path fill="none" stroke="midnightblue" d="M75.7355,-103.606C92.7827,-114.268 116.744,-128.398 139,-138.5 146.064,-141.707 153.689,-144.728 161.225,-147.476"/>
<polygon fill="midnightblue" stroke="midnightblue" points="77.3505,-100.486 67.0309,-98.0863 73.602,-106.397 77.3505,-100.486"/>
</g>
<!-- Node3 -->
<g id="node3" class="node"><title>Node3</title>
<g id="a_node3"><a xlink:href="d2/dad/classamunmt_1_1GPU_1_1Multiplicative.html" target="_top" xlink:title="amunmt::GPU::Multiplicative\l\&lt; CellType, InnerWeights \&gt;">
<polygon fill="white" stroke="black" points="139,-98.5 139,-128.5 282,-128.5 282,-98.5 139,-98.5"/>
<text text-anchor="start" x="147" y="-116.5" font-family="Helvetica,sans-Serif" font-size="10.00">amunmt::GPU::Multiplicative</text>
<text text-anchor="middle" x="210.5" y="-105.5" font-family="Helvetica,sans-Serif" font-size="10.00">&lt; CellType, InnerWeights &gt;</text>
</a>
</g>
</g>
<!-- Node1&#45;&gt;Node3 -->
<g id="edge2" class="edge"><title>Node1&#45;&gt;Node3</title>
<path fill="none" stroke="midnightblue" d="M113.111,-98.1514C121.507,-99.4884 130.192,-100.871 138.752,-102.234"/>
<polygon fill="midnightblue" stroke="midnightblue" points="113.466,-94.6639 103.04,-96.5478 112.365,-101.577 113.466,-94.6639"/>
</g>
<!-- Node4 -->
<g id="node4" class="node"><title>Node4</title>
<g id="a_node4"><a xlink:href="d8/dc9/classamunmt_1_1GPU_1_1SlowGRU.html" target="_top" xlink:title="amunmt::GPU::SlowGRU\l\&lt; Weights \&gt;">
<polygon fill="white" stroke="black" points="145.5,-49.5 145.5,-79.5 275.5,-79.5 275.5,-49.5 145.5,-49.5"/>
<text text-anchor="start" x="153.5" y="-67.5" font-family="Helvetica,sans-Serif" font-size="10.00">amunmt::GPU::SlowGRU</text>
<text text-anchor="middle" x="210.5" y="-56.5" font-family="Helvetica,sans-Serif" font-size="10.00">&lt; Weights &gt;</text>
</a>
</g>
</g>
<!-- Node1&#45;&gt;Node4 -->
<g id="edge3" class="edge"><title>Node1&#45;&gt;Node4</title>
<path fill="none" stroke="midnightblue" d="M113.004,-79.251C123.572,-77.6355 134.599,-75.9498 145.263,-74.3196"/>
<polygon fill="midnightblue" stroke="midnightblue" points="112.396,-75.8031 103.04,-80.7741 113.454,-82.7228 112.396,-75.8031"/>
</g>
<!-- Node5 -->
<g id="node5" class="node"><title>Node5</title>
<g id="a_node5"><a xlink:href="df/de1/classamunmt_1_1GPU_1_1SlowLSTM.html" target="_top" xlink:title="amunmt::GPU::SlowLSTM\l\&lt; Weights \&gt;">
<polygon fill="white" stroke="black" points="143.5,-0.5 143.5,-30.5 277.5,-30.5 277.5,-0.5 143.5,-0.5"/>
<text text-anchor="start" x="151.5" y="-18.5" font-family="Helvetica,sans-Serif" font-size="10.00">amunmt::GPU::SlowLSTM</text>
<text text-anchor="middle" x="210.5" y="-7.5" font-family="Helvetica,sans-Serif" font-size="10.00">&lt; Weights &gt;</text>
</a>
</g>
</g>
<!-- Node1&#45;&gt;Node5 -->
<g id="edge4" class="edge"><title>Node1&#45;&gt;Node5</title>
<path fill="none" stroke="midnightblue" d="M76.7824,-73.5997C93.8194,-63.5028 117.336,-50.2706 139,-40.5 146.813,-36.9762 155.284,-33.6077 163.553,-30.5486"/>
<polygon fill="midnightblue" stroke="midnightblue" points="74.8127,-70.6998 68.0369,-78.8447 78.413,-76.7029 74.8127,-70.6998"/>
</g>
</g>
</svg>
