<?xml version="1.0" encoding="UTF-8" standalone="no"?>
<!DOCTYPE svg PUBLIC "-//W3C//DTD SVG 1.1//EN"
 "http://www.w3.org/Graphics/SVG/1.1/DTD/svg11.dtd">
<!-- Generated by graphviz version 2.38.0 (20140413.2041)
 -->
<!-- Title: Graphical Class Hierarchy Pages: 1 -->
<svg width="280pt" height="66pt"
 viewBox="0.00 0.00 280.00 66.00" xmlns="http://www.w3.org/2000/svg" xmlns:xlink="http://www.w3.org/1999/xlink">
<g id="graph0" class="graph" transform="scale(1 1) rotate(0) translate(4 62)">
<title>Graphical Class Hierarchy</title>
<polygon fill="white" stroke="none" points="-4,4 -4,-62 276,-62 276,4 -4,4"/>
<!-- Node1 -->
<g id="node1" class="node"><title>Node1</title>
<g id="a_node1"><a xlink:href="d7/db1/classmarian_1_1data_1_1Batch.html" target="_top" xlink:title="marian::data::Batch">
<polygon fill="white" stroke="black" points="0,-19.5 0,-38.5 102,-38.5 102,-19.5 0,-19.5"/>
<text text-anchor="middle" x="51" y="-26.5" font-family="Helvetica,sans-Serif" font-size="10.00">marian::data::Batch</text>
</a>
</g>
</g>
<!-- Node2 -->
<g id="node2" class="node"><title>Node2</title>
<g id="a_node2"><a xlink:href="df/d0c/classmarian_1_1data_1_1CorpusBatch.html" target="_top" xlink:title="marian::data::CorpusBatch">
<polygon fill="white" stroke="black" points="138,-38.5 138,-57.5 272,-57.5 272,-38.5 138,-38.5"/>
<text text-anchor="middle" x="205" y="-45.5" font-family="Helvetica,sans-Serif" font-size="10.00">marian::data::CorpusBatch</text>
</a>
</g>
</g>
<!-- Node1&#45;&gt;Node2 -->
<g id="edge1" class="edge"><title>Node1&#45;&gt;Node2</title>
<path fill="none" stroke="midnightblue" d="M112.282,-36.5352C120.687,-37.5859 129.36,-38.67 137.866,-39.7332"/>
<polygon fill="midnightblue" stroke="midnightblue" points="112.549,-33.0414 102.192,-35.274 111.68,-39.9874 112.549,-33.0414"/>
</g>
<!-- Node3 -->
<g id="node3" class="node"><title>Node3</title>
<g id="a_node3"><a xlink:href="d3/da9/classmarian_1_1data_1_1DataBatch.html" target="_top" xlink:title="marian::data::DataBatch">
<polygon fill="white" stroke="black" points="143.5,-0.5 143.5,-19.5 266.5,-19.5 266.5,-0.5 143.5,-0.5"/>
<text text-anchor="middle" x="205" y="-7.5" font-family="Helvetica,sans-Serif" font-size="10.00">marian::data::DataBatch</text>
</a>
</g>
</g>
<!-- Node1&#45;&gt;Node3 -->
<g id="edge2" class="edge"><title>Node1&#45;&gt;Node3</title>
<path fill="none" stroke="midnightblue" d="M112.24,-21.47C122.449,-20.1938 133.055,-18.8681 143.277,-17.5904"/>
<polygon fill="midnightblue" stroke="midnightblue" points="111.68,-18.0126 102.192,-22.726 112.549,-24.9586 111.68,-18.0126"/>
</g>
</g>
</svg>
