<?xml version="1.0" encoding="UTF-8" standalone="no"?>
<!DOCTYPE svg PUBLIC "-//W3C//DTD SVG 1.1//EN"
 "http://www.w3.org/Graphics/SVG/1.1/DTD/svg11.dtd">
<!-- Generated by graphviz version 2.38.0 (20140413.2041)
 -->
<!-- Title: Graphical Class Hierarchy Pages: 1 -->
<svg width="381pt" height="66pt"
 viewBox="0.00 0.00 381.00 66.00" xmlns="http://www.w3.org/2000/svg" xmlns:xlink="http://www.w3.org/1999/xlink">
<g id="graph0" class="graph" transform="scale(1 1) rotate(0) translate(4 62)">
<title>Graphical Class Hierarchy</title>
<polygon fill="white" stroke="none" points="-4,4 -4,-62 377,-62 377,4 -4,4"/>
<!-- Node1 -->
<g id="node1" class="node"><title>Node1</title>
<g id="a_node1"><a xlink:href="d1/dbc/classamunmt_1_1Postprocessor.html" target="_top" xlink:title="amunmt::Postprocessor">
<polygon fill="white" stroke="black" points="0,-38.5 0,-57.5 121,-57.5 121,-38.5 0,-38.5"/>
<text text-anchor="middle" x="60.5" y="-45.5" font-family="Helvetica,sans-Serif" font-size="10.00">amunmt::Postprocessor</text>
</a>
</g>
</g>
<!-- Node2 -->
<g id="node2" class="node"><title>Node2</title>
<g id="a_node2"><a xlink:href="d1/db0/classamunmt_1_1Processor.html" target="_top" xlink:title="amunmt::Processor">
<polygon fill="white" stroke="black" points="157,-19.5 157,-38.5 259,-38.5 259,-19.5 157,-19.5"/>
<text text-anchor="middle" x="208" y="-26.5" font-family="Helvetica,sans-Serif" font-size="10.00">amunmt::Processor</text>
</a>
</g>
</g>
<!-- Node1&#45;&gt;Node2 -->
<g id="edge1" class="edge"><title>Node1&#45;&gt;Node2</title>
<path fill="none" stroke="midnightblue" d="M131.117,-38.9091C139.697,-37.7887 148.335,-36.6607 156.553,-35.5876"/>
<polygon fill="midnightblue" stroke="midnightblue" points="130.563,-35.4517 121.1,-40.2172 131.469,-42.3928 130.563,-35.4517"/>
</g>
<!-- Node3 -->
<g id="node3" class="node"><title>Node3</title>
<g id="a_node3"><a xlink:href="da/d75/classamunmt_1_1BPE.html" target="_top" xlink:title="amunmt::BPE">
<polygon fill="white" stroke="black" points="295,-19.5 295,-38.5 373,-38.5 373,-19.5 295,-19.5"/>
<text text-anchor="middle" x="334" y="-26.5" font-family="Helvetica,sans-Serif" font-size="10.00">amunmt::BPE</text>
</a>
</g>
</g>
<!-- Node2&#45;&gt;Node3 -->
<g id="edge2" class="edge"><title>Node2&#45;&gt;Node3</title>
<path fill="none" stroke="midnightblue" d="M269.277,-29C278.019,-29 286.807,-29 294.944,-29"/>
<polygon fill="midnightblue" stroke="midnightblue" points="269.078,-25.5001 259.078,-29 269.078,-32.5001 269.078,-25.5001"/>
</g>
<!-- Node4 -->
<g id="node4" class="node"><title>Node4</title>
<g id="a_node4"><a xlink:href="d1/db9/classamunmt_1_1Preprocessor.html" target="_top" xlink:title="amunmt::Preprocessor">
<polygon fill="white" stroke="black" points="2.5,-0.5 2.5,-19.5 118.5,-19.5 118.5,-0.5 2.5,-0.5"/>
<text text-anchor="middle" x="60.5" y="-7.5" font-family="Helvetica,sans-Serif" font-size="10.00">amunmt::Preprocessor</text>
</a>
</g>
</g>
<!-- Node4&#45;&gt;Node2 -->
<g id="edge3" class="edge"><title>Node4&#45;&gt;Node2</title>
<path fill="none" stroke="midnightblue" d="M128.721,-18.7779C138.131,-20.0068 147.666,-21.2519 156.69,-22.4303"/>
<polygon fill="midnightblue" stroke="midnightblue" points="128.957,-15.2792 118.588,-17.4548 128.05,-22.2202 128.957,-15.2792"/>
</g>
</g>
</svg>
