<?xml version="1.0" encoding="UTF-8" standalone="no"?>
<!DOCTYPE svg PUBLIC "-//W3C//DTD SVG 1.1//EN"
 "http://www.w3.org/Graphics/SVG/1.1/DTD/svg11.dtd">
<!-- Generated by graphviz version 2.38.0 (20140413.2041)
 -->
<!-- Title: Graphical Class Hierarchy Pages: 1 -->
<svg width="306pt" height="66pt"
 viewBox="0.00 0.00 306.00 66.00" xmlns="http://www.w3.org/2000/svg" xmlns:xlink="http://www.w3.org/1999/xlink">
<g id="graph0" class="graph" transform="scale(1 1) rotate(0) translate(4 62)">
<title>Graphical Class Hierarchy</title>
<polygon fill="white" stroke="none" points="-4,4 -4,-62 302,-62 302,4 -4,4"/>
<!-- Node1 -->
<g id="node1" class="node"><title>Node1</title>
<g id="a_node1"><a xlink:href="dc/d1d/classmarian_1_1EncoderState.html" target="_top" xlink:title="marian::EncoderState">
<polygon fill="white" stroke="black" points="0,-19.5 0,-38.5 111,-38.5 111,-19.5 0,-19.5"/>
<text text-anchor="middle" x="55.5" y="-26.5" font-family="Helvetica,sans-Serif" font-size="10.00">marian::EncoderState</text>
</a>
</g>
</g>
<!-- Node2 -->
<g id="node2" class="node"><title>Node2</title>
<g id="a_node2"><a xlink:href="d8/dce/structmarian_1_1EncoderStateMultiS2S.html" target="_top" xlink:title="marian::EncoderStateMultiS2S">
<polygon fill="white" stroke="black" points="147,-38.5 147,-57.5 298,-57.5 298,-38.5 147,-38.5"/>
<text text-anchor="middle" x="222.5" y="-45.5" font-family="Helvetica,sans-Serif" font-size="10.00">marian::EncoderStateMultiS2S</text>
</a>
</g>
</g>
<!-- Node1&#45;&gt;Node2 -->
<g id="edge1" class="edge"><title>Node1&#45;&gt;Node2</title>
<path fill="none" stroke="midnightblue" d="M121.452,-36.4793C129.78,-37.4383 138.357,-38.426 146.824,-39.4009"/>
<polygon fill="midnightblue" stroke="midnightblue" points="121.777,-32.9937 111.443,-35.3267 120.977,-39.9478 121.777,-32.9937"/>
</g>
<!-- Node3 -->
<g id="node3" class="node"><title>Node3</title>
<g id="a_node3"><a xlink:href="da/d65/classmarian_1_1EncoderStatePooling.html" target="_top" xlink:title="marian::EncoderStatePooling">
<polygon fill="white" stroke="black" points="151,-0.5 151,-19.5 294,-19.5 294,-0.5 151,-0.5"/>
<text text-anchor="middle" x="222.5" y="-7.5" font-family="Helvetica,sans-Serif" font-size="10.00">marian::EncoderStatePooling</text>
</a>
</g>
</g>
<!-- Node1&#45;&gt;Node3 -->
<g id="edge2" class="edge"><title>Node1&#45;&gt;Node3</title>
<path fill="none" stroke="midnightblue" d="M121.402,-21.5264C131.1,-20.4096 141.139,-19.2537 150.947,-18.1242"/>
<polygon fill="midnightblue" stroke="midnightblue" points="120.977,-18.0522 111.443,-22.6733 121.777,-25.0063 120.977,-18.0522"/>
</g>
</g>
</svg>
