<?xml version="1.0" encoding="UTF-8" standalone="no"?>
<!DOCTYPE svg PUBLIC "-//W3C//DTD SVG 1.1//EN"
 "http://www.w3.org/Graphics/SVG/1.1/DTD/svg11.dtd">
<!-- Generated by graphviz version 2.38.0 (20140413.2041)
 -->
<!-- Title: Graphical Class Hierarchy Pages: 1 -->
<svg width="455pt" height="104pt"
 viewBox="0.00 0.00 455.00 104.00" xmlns="http://www.w3.org/2000/svg" xmlns:xlink="http://www.w3.org/1999/xlink">
<g id="graph0" class="graph" transform="scale(1 1) rotate(0) translate(4 100)">
<title>Graphical Class Hierarchy</title>
<polygon fill="white" stroke="none" points="-4,4 -4,-100 451,-100 451,4 -4,4"/>
<!-- Node1 -->
<g id="node1" class="node"><title>Node1</title>
<g id="a_node1"><a xlink:title="STL class. ">
<polygon fill="white" stroke="#bfbfbf" points="0,-19.5 0,-38.5 78,-38.5 78,-19.5 0,-19.5"/>
<text text-anchor="middle" x="39" y="-26.5" font-family="Helvetica,sans-Serif" font-size="10.00">std::exception</text>
</a>
</g>
</g>
<!-- Node2 -->
<g id="node2" class="node"><title>Node2</title>
<g id="a_node2"><a xlink:href="da/d08/classamunmt_1_1util_1_1Exception.html" target="_top" xlink:title="amunmt::util::Exception">
<polygon fill="white" stroke="black" points="123,-38.5 123,-57.5 243,-57.5 243,-38.5 123,-38.5"/>
<text text-anchor="middle" x="183" y="-45.5" font-family="Helvetica,sans-Serif" font-size="10.00">amunmt::util::Exception</text>
</a>
</g>
</g>
<!-- Node1&#45;&gt;Node2 -->
<g id="edge1" class="edge"><title>Node1&#45;&gt;Node2</title>
<path fill="none" stroke="midnightblue" d="M88.0722,-35.4322C99.2836,-36.9323 111.349,-38.5468 122.974,-40.1022"/>
<polygon fill="midnightblue" stroke="midnightblue" points="88.4293,-31.9489 78.0534,-34.0917 87.5009,-38.887 88.4293,-31.9489"/>
</g>
<!-- Node6 -->
<g id="node6" class="node"><title>Node6</title>
<g id="a_node6"><a xlink:href="d8/d69/classmarian_1_1AllocationException.html" target="_top" xlink:title="marian::AllocationException">
<polygon fill="white" stroke="black" points="114,-0.5 114,-19.5 252,-19.5 252,-0.5 114,-0.5"/>
<text text-anchor="middle" x="183" y="-7.5" font-family="Helvetica,sans-Serif" font-size="10.00">marian::AllocationException</text>
</a>
</g>
</g>
<!-- Node1&#45;&gt;Node6 -->
<g id="edge5" class="edge"><title>Node1&#45;&gt;Node6</title>
<path fill="none" stroke="midnightblue" d="M87.9803,-22.5801C96.3425,-21.4612 105.182,-20.2784 113.962,-19.1037"/>
<polygon fill="midnightblue" stroke="midnightblue" points="87.5009,-19.113 78.0534,-23.9083 88.4293,-26.0511 87.5009,-19.113"/>
</g>
<!-- Node3 -->
<g id="node3" class="node"><title>Node3</title>
<g id="a_node3"><a xlink:href="d2/df9/classamunmt_1_1util_1_1ErrnoException.html" target="_top" xlink:title="amunmt::util::ErrnoException">
<polygon fill="white" stroke="black" points="296,-76.5 296,-95.5 439,-95.5 439,-76.5 296,-76.5"/>
<text text-anchor="middle" x="367.5" y="-83.5" font-family="Helvetica,sans-Serif" font-size="10.00">amunmt::util::ErrnoException</text>
</a>
</g>
</g>
<!-- Node2&#45;&gt;Node3 -->
<g id="edge2" class="edge"><title>Node2&#45;&gt;Node3</title>
<path fill="none" stroke="midnightblue" d="M240.099,-59.681C265.98,-65.0699 296.315,-71.3861 320.779,-76.4799"/>
<polygon fill="midnightblue" stroke="midnightblue" points="240.556,-56.201 230.052,-57.589 239.129,-63.0541 240.556,-56.201"/>
</g>
<!-- Node4 -->
<g id="node4" class="node"><title>Node4</title>
<g id="a_node4"><a xlink:href="df/d39/classamunmt_1_1util_1_1FileOpenException.html" target="_top" xlink:title="amunmt::util::FileOpenException">
<polygon fill="white" stroke="black" points="288,-38.5 288,-57.5 447,-57.5 447,-38.5 288,-38.5"/>
<text text-anchor="middle" x="367.5" y="-45.5" font-family="Helvetica,sans-Serif" font-size="10.00">amunmt::util::FileOpenException</text>
</a>
</g>
</g>
<!-- Node2&#45;&gt;Node4 -->
<g id="edge3" class="edge"><title>Node2&#45;&gt;Node4</title>
<path fill="none" stroke="midnightblue" d="M253.21,-48C264.496,-48 276.261,-48 287.756,-48"/>
<polygon fill="midnightblue" stroke="midnightblue" points="253.001,-44.5001 243,-48 253,-51.5001 253.001,-44.5001"/>
</g>
<!-- Node5 -->
<g id="node5" class="node"><title>Node5</title>
<g id="a_node5"><a xlink:href="db/dd9/classamunmt_1_1util_1_1OverflowException.html" target="_top" xlink:title="amunmt::util::OverflowException">
<polygon fill="white" stroke="black" points="288,-0.5 288,-19.5 447,-19.5 447,-0.5 288,-0.5"/>
<text text-anchor="middle" x="367.5" y="-7.5" font-family="Helvetica,sans-Serif" font-size="10.00">amunmt::util::OverflowException</text>
</a>
</g>
</g>
<!-- Node2&#45;&gt;Node5 -->
<g id="edge4" class="edge"><title>Node2&#45;&gt;Node5</title>
<path fill="none" stroke="midnightblue" d="M240.099,-36.319C265.98,-30.9301 296.315,-24.6139 320.779,-19.5201"/>
<polygon fill="midnightblue" stroke="midnightblue" points="239.129,-32.9459 230.052,-38.411 240.556,-39.799 239.129,-32.9459"/>
</g>
</g>
</svg>
