<?xml version="1.0" encoding="UTF-8" standalone="no"?>
<!DOCTYPE svg PUBLIC "-//W3C//DTD SVG 1.1//EN"
 "http://www.w3.org/Graphics/SVG/1.1/DTD/svg11.dtd">
<!-- Generated by graphviz version 2.38.0 (20140413.2041)
 -->
<!-- Title: marian::EncoderBase::lookup Pages: 1 -->
<svg width="380pt" height="154pt"
 viewBox="0.00 0.00 380.00 153.50" xmlns="http://www.w3.org/2000/svg" xmlns:xlink="http://www.w3.org/1999/xlink">
<g id="graph0" class="graph" transform="scale(1 1) rotate(0) translate(4 149.5)">
<title>marian::EncoderBase::lookup</title>
<polygon fill="white" stroke="none" points="-4,4 -4,-149.5 376,-149.5 376,4 -4,4"/>
<!-- Node1 -->
<g id="node1" class="node"><title>Node1</title>
<polygon fill="#bfbfbf" stroke="black" points="0,-63.5 0,-93.5 110,-93.5 110,-63.5 0,-63.5"/>
<text text-anchor="start" x="8" y="-81.5" font-family="Helvetica,sans-Serif" font-size="10.00">marian::EncoderBase</text>
<text text-anchor="middle" x="55" y="-70.5" font-family="Helvetica,sans-Serif" font-size="10.00">::lookup</text>
</g>
<!-- Node2 -->
<g id="node2" class="node"><title>Node2</title>
<g id="a_node2"><a xlink:href="../../da/d22/namespacemarian.html#ace1e9a63d52edc363d70d661cf8d0257" target="_top" xlink:title="marian::rows">
<polygon fill="white" stroke="black" points="157,-126 157,-145 230,-145 230,-126 157,-126"/>
<text text-anchor="middle" x="193.5" y="-133" font-family="Helvetica,sans-Serif" font-size="10.00">marian::rows</text>
</a>
</g>
</g>
<!-- Node1&#45;&gt;Node2 -->
<g id="edge1" class="edge"><title>Node1&#45;&gt;Node2</title>
<path fill="none" stroke="midnightblue" d="M91.4391,-93.5751C107.996,-100.589 127.987,-109.018 146,-116.5 150.284,-118.279 154.794,-120.139 159.253,-121.97"/>
<polygon fill="midnightblue" stroke="midnightblue" points="158.242,-125.338 168.822,-125.887 160.894,-118.86 158.242,-125.338"/>
</g>
<!-- Node3 -->
<g id="node3" class="node"><title>Node3</title>
<g id="a_node3"><a xlink:href="../../da/d22/namespacemarian.html#acd984f43188d0ae23c2a6ef13ae5293f" target="_top" xlink:title="marian::reshape">
<polygon fill="white" stroke="black" points="150.5,-88 150.5,-107 236.5,-107 236.5,-88 150.5,-88"/>
<text text-anchor="middle" x="193.5" y="-95" font-family="Helvetica,sans-Serif" font-size="10.00">marian::reshape</text>
</a>
</g>
</g>
<!-- Node1&#45;&gt;Node3 -->
<g id="edge2" class="edge"><title>Node1&#45;&gt;Node3</title>
<path fill="none" stroke="midnightblue" d="M110.341,-86.0639C120.163,-87.431 130.386,-88.8541 140.149,-90.2131"/>
<polygon fill="midnightblue" stroke="midnightblue" points="139.734,-93.689 150.121,-91.6012 140.7,-86.7558 139.734,-93.689"/>
</g>
<!-- Node4 -->
<g id="node4" class="node"><title>Node4</title>
<g id="a_node4"><a xlink:href="../../d5/d49/amunmt_8cpp.html#a2e8ddb8bd2f3405f554c9f2c52277f4b" target="_top" xlink:title="init">
<polygon fill="white" stroke="black" points="179,-50 179,-69 208,-69 208,-50 179,-50"/>
<text text-anchor="middle" x="193.5" y="-57" font-family="Helvetica,sans-Serif" font-size="10.00">init</text>
</a>
</g>
</g>
<!-- Node1&#45;&gt;Node4 -->
<g id="edge3" class="edge"><title>Node1&#45;&gt;Node4</title>
<path fill="none" stroke="midnightblue" d="M110.341,-70.9361C130.637,-68.1109 152.648,-65.0472 168.774,-62.8025"/>
<polygon fill="midnightblue" stroke="midnightblue" points="169.483,-66.2377 178.905,-61.3923 168.518,-59.3045 169.483,-66.2377"/>
</g>
<!-- Node6 -->
<g id="node6" class="node"><title>Node6</title>
<g id="a_node6"><a xlink:href="../../d4/dec/namespacemarian_1_1inits.html#ab9566318ddbacd376c74cdbdfac091e4" target="_top" xlink:title="marian::inits::from\l_vector">
<polygon fill="white" stroke="black" points="146,-0.5 146,-30.5 241,-30.5 241,-0.5 146,-0.5"/>
<text text-anchor="start" x="154" y="-18.5" font-family="Helvetica,sans-Serif" font-size="10.00">marian::inits::from</text>
<text text-anchor="middle" x="193.5" y="-7.5" font-family="Helvetica,sans-Serif" font-size="10.00">_vector</text>
</a>
</g>
</g>
<!-- Node1&#45;&gt;Node6 -->
<g id="edge5" class="edge"><title>Node1&#45;&gt;Node6</title>
<path fill="none" stroke="midnightblue" d="M88.6952,-63.4099C107.215,-54.8622 130.581,-44.0778 150.453,-34.9062"/>
<polygon fill="midnightblue" stroke="midnightblue" points="151.986,-38.0538 159.599,-30.6853 149.052,-31.6981 151.986,-38.0538"/>
</g>
<!-- Node5 -->
<g id="node5" class="node"><title>Node5</title>
<g id="a_node5"><a xlink:href="../../d7/d4e/classamunmt_1_1God.html#add49c80e570f5be5b2802565458f1c36" target="_top" xlink:title="amunmt::God::Init">
<polygon fill="white" stroke="black" points="277,-50 277,-69 372,-69 372,-50 277,-50"/>
<text text-anchor="middle" x="324.5" y="-57" font-family="Helvetica,sans-Serif" font-size="10.00">amunmt::God::Init</text>
</a>
</g>
</g>
<!-- Node4&#45;&gt;Node5 -->
<g id="edge4" class="edge"><title>Node4&#45;&gt;Node5</title>
<path fill="none" stroke="midnightblue" d="M208.305,-59.5C222.389,-59.5 245.184,-59.5 266.795,-59.5"/>
<polygon fill="midnightblue" stroke="midnightblue" points="266.934,-63.0001 276.934,-59.5 266.934,-56.0001 266.934,-63.0001"/>
</g>
</g>
</svg>
