<?xml version="1.0" encoding="UTF-8" standalone="no"?>
<!DOCTYPE svg PUBLIC "-//W3C//DTD SVG 1.1//EN"
 "http://www.w3.org/Graphics/SVG/1.1/DTD/svg11.dtd">
<!-- Generated by graphviz version 2.38.0 (20140413.2041)
 -->
<!-- Title: kenlm.cpp Pages: 1 -->
<svg width="334pt" height="140pt"
 viewBox="0.00 0.00 334.00 140.00" xmlns="http://www.w3.org/2000/svg" xmlns:xlink="http://www.w3.org/1999/xlink">
<g id="graph0" class="graph" transform="scale(1 1) rotate(0) translate(4 136)">
<title>kenlm.cpp</title>
<polygon fill="white" stroke="none" points="-4,4 -4,-136 330,-136 330,4 -4,4"/>
<!-- Node1 -->
<g id="node1" class="node"><title>Node1</title>
<polygon fill="#bfbfbf" stroke="black" points="155.5,-112.5 155.5,-131.5 217.5,-131.5 217.5,-112.5 155.5,-112.5"/>
<text text-anchor="middle" x="186.5" y="-119.5" font-family="Helvetica,sans-Serif" font-size="10.00">kenlm.cpp</text>
</g>
<!-- Node2 -->
<g id="node2" class="node"><title>Node2</title>
<g id="a_node2"><a xlink:href="$d9/d81/kenlm_8h.html" xlink:title="kenlm.h">
<polygon fill="white" stroke="black" points="122,-56.5 122,-75.5 173,-75.5 173,-56.5 122,-56.5"/>
<text text-anchor="middle" x="147.5" y="-63.5" font-family="Helvetica,sans-Serif" font-size="10.00">kenlm.h</text>
</a>
</g>
</g>
<!-- Node1&#45;&gt;Node2 -->
<g id="edge1" class="edge"><title>Node1&#45;&gt;Node2</title>
<path fill="none" stroke="midnightblue" d="M180.06,-112.083C174.551,-104.455 166.469,-93.2645 159.735,-83.9408"/>
<polygon fill="midnightblue" stroke="midnightblue" points="162.513,-81.8087 153.82,-75.7511 156.838,-85.9071 162.513,-81.8087"/>
</g>
<!-- Node8 -->
<g id="node8" class="node"><title>Node8</title>
<polygon fill="white" stroke="#bfbfbf" points="191.5,-56.5 191.5,-75.5 261.5,-75.5 261.5,-56.5 191.5,-56.5"/>
<text text-anchor="middle" x="226.5" y="-63.5" font-family="Helvetica,sans-Serif" font-size="10.00">lm/model.hh</text>
</g>
<!-- Node1&#45;&gt;Node8 -->
<g id="edge7" class="edge"><title>Node1&#45;&gt;Node8</title>
<path fill="none" stroke="midnightblue" d="M193.105,-112.083C198.755,-104.455 207.045,-93.2645 213.951,-83.9408"/>
<polygon fill="midnightblue" stroke="midnightblue" points="216.878,-85.87 220.018,-75.7511 211.253,-81.7034 216.878,-85.87"/>
</g>
<!-- Node3 -->
<g id="node3" class="node"><title>Node3</title>
<polygon fill="white" stroke="#bfbfbf" points="0,-0.5 0,-19.5 41,-19.5 41,-0.5 0,-0.5"/>
<text text-anchor="middle" x="20.5" y="-7.5" font-family="Helvetica,sans-Serif" font-size="10.00">string</text>
</g>
<!-- Node2&#45;&gt;Node3 -->
<g id="edge2" class="edge"><title>Node2&#45;&gt;Node3</title>
<path fill="none" stroke="midnightblue" d="M127.376,-56.4435C106.476,-47.5566 73.5653,-33.5632 49.7839,-23.4514"/>
<polygon fill="midnightblue" stroke="midnightblue" points="51.1016,-20.2085 40.5294,-19.5164 48.3625,-26.6504 51.1016,-20.2085"/>
</g>
<!-- Node4 -->
<g id="node4" class="node"><title>Node4</title>
<polygon fill="white" stroke="#bfbfbf" points="59.5,-0.5 59.5,-19.5 103.5,-19.5 103.5,-0.5 59.5,-0.5"/>
<text text-anchor="middle" x="81.5" y="-7.5" font-family="Helvetica,sans-Serif" font-size="10.00">vector</text>
</g>
<!-- Node2&#45;&gt;Node4 -->
<g id="edge3" class="edge"><title>Node2&#45;&gt;Node4</title>
<path fill="none" stroke="midnightblue" d="M136.896,-56.324C127.044,-48.2631 112.149,-36.0765 100.285,-26.3695"/>
<polygon fill="midnightblue" stroke="midnightblue" points="102.253,-23.4575 92.297,-19.8339 97.8202,-28.8752 102.253,-23.4575"/>
</g>
<!-- Node5 -->
<g id="node5" class="node"><title>Node5</title>
<polygon fill="white" stroke="#bfbfbf" points="121.5,-0.5 121.5,-19.5 173.5,-19.5 173.5,-0.5 121.5,-0.5"/>
<text text-anchor="middle" x="147.5" y="-7.5" font-family="Helvetica,sans-Serif" font-size="10.00">memory</text>
</g>
<!-- Node2&#45;&gt;Node5 -->
<g id="edge4" class="edge"><title>Node2&#45;&gt;Node5</title>
<path fill="none" stroke="midnightblue" d="M147.5,-56.083C147.5,-49.0059 147.5,-38.8611 147.5,-29.9865"/>
<polygon fill="midnightblue" stroke="midnightblue" points="151,-29.751 147.5,-19.7511 144,-29.7511 151,-29.751"/>
</g>
<!-- Node6 -->
<g id="node6" class="node"><title>Node6</title>
<polygon fill="white" stroke="#bfbfbf" points="192,-0.5 192,-19.5 243,-19.5 243,-0.5 192,-0.5"/>
<text text-anchor="middle" x="217.5" y="-7.5" font-family="Helvetica,sans-Serif" font-size="10.00">vocab.h</text>
</g>
<!-- Node2&#45;&gt;Node6 -->
<g id="edge5" class="edge"><title>Node2&#45;&gt;Node6</title>
<path fill="none" stroke="midnightblue" d="M158.747,-56.324C169.297,-48.1849 185.301,-35.8395 197.942,-26.0874"/>
<polygon fill="midnightblue" stroke="midnightblue" points="200.269,-28.7132 206.049,-19.8339 195.993,-23.1707 200.269,-28.7132"/>
</g>
<!-- Node7 -->
<g id="node7" class="node"><title>Node7</title>
<polygon fill="white" stroke="#bfbfbf" points="261,-0.5 261,-19.5 326,-19.5 326,-0.5 261,-0.5"/>
<text text-anchor="middle" x="293.5" y="-7.5" font-family="Helvetica,sans-Serif" font-size="10.00">lm/state.hh</text>
</g>
<!-- Node2&#45;&gt;Node7 -->
<g id="edge6" class="edge"><title>Node2&#45;&gt;Node7</title>
<path fill="none" stroke="midnightblue" d="M170.634,-56.4435C194.982,-47.4381 233.507,-33.1891 260.923,-23.049"/>
<polygon fill="midnightblue" stroke="midnightblue" points="262.309,-26.2681 270.474,-19.5164 259.881,-19.7028 262.309,-26.2681"/>
</g>
</g>
</svg>
