<?xml version="1.0" encoding="UTF-8" standalone="no"?>
<!DOCTYPE svg PUBLIC "-//W3C//DTD SVG 1.1//EN"
 "http://www.w3.org/Graphics/SVG/1.1/DTD/svg11.dtd">
<!-- Generated by graphviz version 2.38.0 (20140413.2041)
 -->
<!-- Title: marian::rnn::StackedCellFactory Pages: 1 -->
<svg width="438pt" height="675pt"
 viewBox="0.00 0.00 438.00 675.00" xmlns="http://www.w3.org/2000/svg" xmlns:xlink="http://www.w3.org/1999/xlink">
<g id="graph0" class="graph" transform="scale(1 1) rotate(0) translate(4 671)">
<title>marian::rnn::StackedCellFactory</title>
<polygon fill="white" stroke="none" points="-4,4 -4,-671 434,-671 434,4 -4,4"/>
<!-- Node1 -->
<g id="node1" class="node"><title>Node1</title>
<polygon fill="#bfbfbf" stroke="black" points="251.5,-0.5 251.5,-90.5 376.5,-90.5 376.5,-0.5 251.5,-0.5"/>
<text text-anchor="start" x="259.5" y="-78.5" font-family="Helvetica,sans-Serif" font-size="10.00">marian::rnn::StackedCell</text>
<text text-anchor="middle" x="314" y="-67.5" font-family="Helvetica,sans-Serif" font-size="10.00">Factory</text>
<polyline fill="none" stroke="black" points="251.5,-60.5 376.5,-60.5 "/>
<text text-anchor="middle" x="314" y="-48.5" font-family="Helvetica,sans-Serif" font-size="10.00"> </text>
<polyline fill="none" stroke="black" points="251.5,-41.5 376.5,-41.5 "/>
<text text-anchor="start" x="259.5" y="-29.5" font-family="Helvetica,sans-Serif" font-size="10.00">+ StackedCellFactory()</text>
<text text-anchor="start" x="259.5" y="-18.5" font-family="Helvetica,sans-Serif" font-size="10.00">+ construct()</text>
<text text-anchor="start" x="259.5" y="-7.5" font-family="Helvetica,sans-Serif" font-size="10.00">+ push_back()</text>
</g>
<!-- Node2 -->
<g id="node2" class="node"><title>Node2</title>
<g id="a_node2"><a xlink:href="$d5/d41/classmarian_1_1rnn_1_1CellFactory.html" xlink:title="{marian::rnn::CellFactory\n||+ CellFactory()\l+ construct()\l+ clone()\l+ add_input()\l+ add_input()\l}">
<polygon fill="white" stroke="black" points="142,-138.5 142,-239.5 264,-239.5 264,-138.5 142,-138.5"/>
<text text-anchor="middle" x="203" y="-227.5" font-family="Helvetica,sans-Serif" font-size="10.00">marian::rnn::CellFactory</text>
<polyline fill="none" stroke="black" points="142,-220.5 264,-220.5 "/>
<text text-anchor="middle" x="203" y="-208.5" font-family="Helvetica,sans-Serif" font-size="10.00"> </text>
<polyline fill="none" stroke="black" points="142,-201.5 264,-201.5 "/>
<text text-anchor="start" x="150" y="-189.5" font-family="Helvetica,sans-Serif" font-size="10.00">+ CellFactory()</text>
<text text-anchor="start" x="150" y="-178.5" font-family="Helvetica,sans-Serif" font-size="10.00">+ construct()</text>
<text text-anchor="start" x="150" y="-167.5" font-family="Helvetica,sans-Serif" font-size="10.00">+ clone()</text>
<text text-anchor="start" x="150" y="-156.5" font-family="Helvetica,sans-Serif" font-size="10.00">+ add_input()</text>
<text text-anchor="start" x="150" y="-145.5" font-family="Helvetica,sans-Serif" font-size="10.00">+ add_input()</text>
</a>
</g>
</g>
<!-- Node2&#45;&gt;Node1 -->
<g id="edge1" class="edge"><title>Node2&#45;&gt;Node1</title>
<path fill="none" stroke="midnightblue" d="M248.466,-130.041C258.755,-116.925 269.52,-103.202 279.282,-90.7576"/>
<polygon fill="none" stroke="midnightblue" points="245.553,-128.084 242.134,-138.112 251.06,-132.405 245.553,-128.084"/>
</g>
<!-- Node3 -->
<g id="node3" class="node"><title>Node3</title>
<g id="a_node3"><a xlink:href="$d8/d32/structmarian_1_1rnn_1_1StackableFactory.html" xlink:title="{marian::rnn::StackableFactory\n||+ StackableFactory()\l+ StackableFactory()\l+ StackableFactory()\l+ ~StackableFactory()\l+ as()\l+ is()\l}">
<polygon fill="white" stroke="black" points="0,-287.5 0,-399.5 148,-399.5 148,-287.5 0,-287.5"/>
<text text-anchor="middle" x="74" y="-387.5" font-family="Helvetica,sans-Serif" font-size="10.00">marian::rnn::StackableFactory</text>
<polyline fill="none" stroke="black" points="0,-380.5 148,-380.5 "/>
<text text-anchor="middle" x="74" y="-368.5" font-family="Helvetica,sans-Serif" font-size="10.00"> </text>
<polyline fill="none" stroke="black" points="0,-361.5 148,-361.5 "/>
<text text-anchor="start" x="8" y="-349.5" font-family="Helvetica,sans-Serif" font-size="10.00">+ StackableFactory()</text>
<text text-anchor="start" x="8" y="-338.5" font-family="Helvetica,sans-Serif" font-size="10.00">+ StackableFactory()</text>
<text text-anchor="start" x="8" y="-327.5" font-family="Helvetica,sans-Serif" font-size="10.00">+ StackableFactory()</text>
<text text-anchor="start" x="8" y="-316.5" font-family="Helvetica,sans-Serif" font-size="10.00">+ ~StackableFactory()</text>
<text text-anchor="start" x="8" y="-305.5" font-family="Helvetica,sans-Serif" font-size="10.00">+ as()</text>
<text text-anchor="start" x="8" y="-294.5" font-family="Helvetica,sans-Serif" font-size="10.00">+ is()</text>
</a>
</g>
</g>
<!-- Node3&#45;&gt;Node2 -->
<g id="edge2" class="edge"><title>Node3&#45;&gt;Node2</title>
<path fill="none" stroke="midnightblue" d="M127.149,-279.668C138.433,-266.329 150.195,-252.425 160.995,-239.657"/>
<polygon fill="none" stroke="midnightblue" points="124.358,-277.549 120.572,-287.444 129.702,-282.07 124.358,-277.549"/>
</g>
<!-- Node4 -->
<g id="node4" class="node"><title>Node4</title>
<g id="a_node4"><a xlink:href="$d5/d28/classmarian_1_1Factory.html" xlink:title="{marian::Factory\n|# options_\l# graph_\l|+ Factory()\l+ ~Factory()\l+ getOptions()\l+ str()\l+ opt()\l+ opt()\l}">
<polygon fill="white" stroke="black" points="31.5,-437.5 31.5,-560.5 116.5,-560.5 116.5,-437.5 31.5,-437.5"/>
<text text-anchor="middle" x="74" y="-548.5" font-family="Helvetica,sans-Serif" font-size="10.00">marian::Factory</text>
<polyline fill="none" stroke="black" points="31.5,-541.5 116.5,-541.5 "/>
<text text-anchor="start" x="39.5" y="-529.5" font-family="Helvetica,sans-Serif" font-size="10.00"># options_</text>
<text text-anchor="start" x="39.5" y="-518.5" font-family="Helvetica,sans-Serif" font-size="10.00"># graph_</text>
<polyline fill="none" stroke="black" points="31.5,-511.5 116.5,-511.5 "/>
<text text-anchor="start" x="39.5" y="-499.5" font-family="Helvetica,sans-Serif" font-size="10.00">+ Factory()</text>
<text text-anchor="start" x="39.5" y="-488.5" font-family="Helvetica,sans-Serif" font-size="10.00">+ ~Factory()</text>
<text text-anchor="start" x="39.5" y="-477.5" font-family="Helvetica,sans-Serif" font-size="10.00">+ getOptions()</text>
<text text-anchor="start" x="39.5" y="-466.5" font-family="Helvetica,sans-Serif" font-size="10.00">+ str()</text>
<text text-anchor="start" x="39.5" y="-455.5" font-family="Helvetica,sans-Serif" font-size="10.00">+ opt()</text>
<text text-anchor="start" x="39.5" y="-444.5" font-family="Helvetica,sans-Serif" font-size="10.00">+ opt()</text>
</a>
</g>
</g>
<!-- Node4&#45;&gt;Node3 -->
<g id="edge3" class="edge"><title>Node4&#45;&gt;Node3</title>
<path fill="none" stroke="midnightblue" d="M74,-427.055C74,-417.886 74,-408.605 74,-399.741"/>
<polygon fill="none" stroke="midnightblue" points="70.5001,-427.333 74,-437.333 77.5001,-427.333 70.5001,-427.333"/>
</g>
<!-- Node5 -->
<g id="node5" class="node"><title>Node5</title>
<polygon fill="white" stroke="#bfbfbf" points="17.5,-598.5 17.5,-666.5 130.5,-666.5 130.5,-598.5 17.5,-598.5"/>
<text text-anchor="start" x="25.5" y="-654.5" font-family="Helvetica,sans-Serif" font-size="10.00">std::enable_shared</text>
<text text-anchor="middle" x="74" y="-643.5" font-family="Helvetica,sans-Serif" font-size="10.00">_from_this&lt; Factory &gt;</text>
<polyline fill="none" stroke="#bfbfbf" points="17.5,-636.5 130.5,-636.5 "/>
<text text-anchor="middle" x="74" y="-624.5" font-family="Helvetica,sans-Serif" font-size="10.00"> </text>
<polyline fill="none" stroke="#bfbfbf" points="17.5,-617.5 130.5,-617.5 "/>
<text text-anchor="middle" x="74" y="-605.5" font-family="Helvetica,sans-Serif" font-size="10.00"> </text>
</g>
<!-- Node5&#45;&gt;Node4 -->
<g id="edge4" class="edge"><title>Node5&#45;&gt;Node4</title>
<path fill="none" stroke="midnightblue" d="M74,-588.248C74,-579.389 74,-569.91 74,-560.572"/>
<polygon fill="none" stroke="midnightblue" points="70.5001,-588.317 74,-598.317 77.5001,-588.317 70.5001,-588.317"/>
</g>
<!-- Node6 -->
<g id="node6" class="node"><title>Node6</title>
<polygon fill="white" stroke="#bfbfbf" points="166.5,-304 166.5,-383 327.5,-383 327.5,-304 166.5,-304"/>
<text text-anchor="start" x="174.5" y="-371" font-family="Helvetica,sans-Serif" font-size="10.00">std::vector&lt; std::function</text>
<text text-anchor="start" x="174.5" y="-360" font-family="Helvetica,sans-Serif" font-size="10.00">&lt; Expr(Ptr&lt; marian::Accumulator</text>
<text text-anchor="middle" x="247" y="-349" font-family="Helvetica,sans-Serif" font-size="10.00">::RNN &gt;)&gt; &gt;</text>
<polyline fill="none" stroke="#bfbfbf" points="166.5,-342 327.5,-342 "/>
<text text-anchor="middle" x="247" y="-330" font-family="Helvetica,sans-Serif" font-size="10.00"> </text>
<polyline fill="none" stroke="#bfbfbf" points="166.5,-323 327.5,-323 "/>
<text text-anchor="middle" x="247" y="-311" font-family="Helvetica,sans-Serif" font-size="10.00"> </text>
</g>
<!-- Node6&#45;&gt;Node2 -->
<g id="edge5" class="edge"><title>Node6&#45;&gt;Node2</title>
<path fill="none" stroke="#404040" d="M235.783,-303.623C231.21,-287.773 225.811,-269.061 220.729,-251.446"/>
<polygon fill="none" stroke="#404040" points="220.687,-251.302 215.181,-246.646 217.361,-239.773 222.867,-244.429 220.687,-251.302"/>
<text text-anchor="middle" x="245" y="-261" font-family="Helvetica,sans-Serif" font-size="10.00"> #inputs_</text>
</g>
<!-- Node7 -->
<g id="node7" class="node"><title>Node7</title>
<polygon fill="white" stroke="#bfbfbf" points="282.5,-155 282.5,-223 419.5,-223 419.5,-155 282.5,-155"/>
<text text-anchor="start" x="290.5" y="-211" font-family="Helvetica,sans-Serif" font-size="10.00">std::vector&lt; Ptr&lt; marian</text>
<text text-anchor="middle" x="351" y="-200" font-family="Helvetica,sans-Serif" font-size="10.00">::rnn::StackableFactory &gt; &gt;</text>
<polyline fill="none" stroke="#bfbfbf" points="282.5,-193 419.5,-193 "/>
<text text-anchor="middle" x="351" y="-181" font-family="Helvetica,sans-Serif" font-size="10.00"> </text>
<polyline fill="none" stroke="#bfbfbf" points="282.5,-174 419.5,-174 "/>
<text text-anchor="middle" x="351" y="-162" font-family="Helvetica,sans-Serif" font-size="10.00"> </text>
</g>
<!-- Node7&#45;&gt;Node1 -->
<g id="edge6" class="edge"><title>Node7&#45;&gt;Node1</title>
<path fill="none" stroke="#404040" d="M342.325,-154.825C338.245,-139.219 333.266,-120.178 328.627,-102.438"/>
<polygon fill="none" stroke="#404040" points="328.599,-102.331 323.211,-97.538 325.563,-90.7212 330.951,-95.5141 328.599,-102.331"/>
<text text-anchor="middle" x="381.5" y="-112" font-family="Helvetica,sans-Serif" font-size="10.00"> #stackableFactories_</text>
</g>
</g>
</svg>
