<?xml version="1.0" encoding="UTF-8" standalone="no"?>
<!DOCTYPE svg PUBLIC "-//W3C//DTD SVG 1.1//EN"
 "http://www.w3.org/Graphics/SVG/1.1/DTD/svg11.dtd">
<!-- Generated by graphviz version 2.38.0 (20140413.2041)
 -->
<!-- Title: marian::data::CorpusIterator Pages: 1 -->
<svg width="190pt" height="248pt"
 viewBox="0.00 0.00 190.00 248.00" xmlns="http://www.w3.org/2000/svg" xmlns:xlink="http://www.w3.org/1999/xlink">
<g id="graph0" class="graph" transform="scale(1 1) rotate(0) translate(4 244)">
<title>marian::data::CorpusIterator</title>
<polygon fill="white" stroke="none" points="-4,4 -4,-244 186,-244 186,4 -4,4"/>
<!-- Node1 -->
<g id="node1" class="node"><title>Node1</title>
<polygon fill="#bfbfbf" stroke="black" points="21.5,-0.5 21.5,-123.5 160.5,-123.5 160.5,-0.5 21.5,-0.5"/>
<text text-anchor="middle" x="91" y="-111.5" font-family="Helvetica,sans-Serif" font-size="10.00">marian::data::CorpusIterator</text>
<polyline fill="none" stroke="black" points="21.5,-104.5 160.5,-104.5 "/>
<text text-anchor="start" x="29.5" y="-92.5" font-family="Helvetica,sans-Serif" font-size="10.00">&#45; corpus_</text>
<text text-anchor="start" x="29.5" y="-81.5" font-family="Helvetica,sans-Serif" font-size="10.00">&#45; tup_</text>
<text text-anchor="start" x="29.5" y="-70.5" font-family="Helvetica,sans-Serif" font-size="10.00">&#45; pos_</text>
<polyline fill="none" stroke="black" points="21.5,-63.5 160.5,-63.5 "/>
<text text-anchor="start" x="29.5" y="-51.5" font-family="Helvetica,sans-Serif" font-size="10.00">+ CorpusIterator()</text>
<text text-anchor="start" x="29.5" y="-40.5" font-family="Helvetica,sans-Serif" font-size="10.00">+ CorpusIterator()</text>
<text text-anchor="start" x="29.5" y="-29.5" font-family="Helvetica,sans-Serif" font-size="10.00">&#45; increment()</text>
<text text-anchor="start" x="29.5" y="-18.5" font-family="Helvetica,sans-Serif" font-size="10.00">&#45; equal()</text>
<text text-anchor="start" x="29.5" y="-7.5" font-family="Helvetica,sans-Serif" font-size="10.00">&#45; dereference()</text>
</g>
<!-- Node2 -->
<g id="node2" class="node"><title>Node2</title>
<polygon fill="white" stroke="#bfbfbf" points="0,-160.5 0,-239.5 182,-239.5 182,-160.5 0,-160.5"/>
<text text-anchor="start" x="8" y="-227.5" font-family="Helvetica,sans-Serif" font-size="10.00">boost::iterator_facade</text>
<text text-anchor="start" x="8" y="-216.5" font-family="Helvetica,sans-Serif" font-size="10.00">&lt; CorpusIterator, SentenceTuple</text>
<text text-anchor="middle" x="91" y="-205.5" font-family="Helvetica,sans-Serif" font-size="10.00"> const, boost::forward_traversal_tag &gt;</text>
<polyline fill="none" stroke="#bfbfbf" points="0,-198.5 182,-198.5 "/>
<text text-anchor="middle" x="91" y="-186.5" font-family="Helvetica,sans-Serif" font-size="10.00"> </text>
<polyline fill="none" stroke="#bfbfbf" points="0,-179.5 182,-179.5 "/>
<text text-anchor="middle" x="91" y="-167.5" font-family="Helvetica,sans-Serif" font-size="10.00"> </text>
</g>
<!-- Node2&#45;&gt;Node1 -->
<g id="edge1" class="edge"><title>Node2&#45;&gt;Node1</title>
<path fill="none" stroke="midnightblue" d="M91,-150.144C91,-141.528 91,-132.465 91,-123.574"/>
<polygon fill="none" stroke="midnightblue" points="87.5001,-150.392 91,-160.392 94.5001,-150.392 87.5001,-150.392"/>
</g>
</g>
</svg>
