<?xml version="1.0" encoding="UTF-8" standalone="no"?>
<!DOCTYPE svg PUBLIC "-//W3C//DTD SVG 1.1//EN"
 "http://www.w3.org/Graphics/SVG/1.1/DTD/svg11.dtd">
<!-- Generated by graphviz version 2.38.0 (20140413.2041)
 -->
<!-- Title: amunmt::Sentence::GetWords Pages: 1 -->
<svg width="1191pt" height="242pt"
 viewBox="0.00 0.00 1191.00 242.00" xmlns="http://www.w3.org/2000/svg" xmlns:xlink="http://www.w3.org/1999/xlink">
<g id="graph0" class="graph" transform="scale(1 1) rotate(0) translate(4 238)">
<title>amunmt::Sentence::GetWords</title>
<polygon fill="white" stroke="none" points="-4,4 -4,-238 1187,-238 1187,4 -4,4"/>
<!-- Node1 -->
<g id="node1" class="node"><title>Node1</title>
<polygon fill="#bfbfbf" stroke="black" points="0,-66.5 0,-85.5 149,-85.5 149,-66.5 0,-66.5"/>
<text text-anchor="middle" x="74.5" y="-73.5" font-family="Helvetica,sans-Serif" font-size="10.00">amunmt::Sentence::GetWords</text>
</g>
<!-- Node2 -->
<g id="node2" class="node"><title>Node2</title>
<g id="a_node2"><a xlink:href="../../d7/dd3/namespaceamunmt.html#aef108281493b0c3b669c537192eace34" target="_top" xlink:title="amunmt::Printer">
<polygon fill="white" stroke="black" points="557,-88.5 557,-107.5 643,-107.5 643,-88.5 557,-88.5"/>
<text text-anchor="middle" x="600" y="-95.5" font-family="Helvetica,sans-Serif" font-size="10.00">amunmt::Printer</text>
</a>
</g>
</g>
<!-- Node1&#45;&gt;Node2 -->
<g id="edge1" class="edge"><title>Node1&#45;&gt;Node2</title>
<path fill="none" stroke="midnightblue" d="M159.137,-79.5148C272.406,-84.275 470.329,-92.5926 556.686,-96.2217"/>
<polygon fill="midnightblue" stroke="midnightblue" points="159.256,-76.0168 149.118,-79.0938 158.962,-83.0107 159.256,-76.0168"/>
</g>
<!-- Node14 -->
<g id="node14" class="node"><title>Node14</title>
<g id="a_node14"><a xlink:href="../../d7/d92/classamunmt_1_1Search.html#adab7a84cbd820e7395a3f79fc604bb06" target="_top" xlink:title="amunmt::Search::FilterTarget\lVocab">
<polygon fill="white" stroke="black" points="185,-39 185,-69 329,-69 329,-39 185,-39"/>
<text text-anchor="start" x="193" y="-57" font-family="Helvetica,sans-Serif" font-size="10.00">amunmt::Search::FilterTarget</text>
<text text-anchor="middle" x="257" y="-46" font-family="Helvetica,sans-Serif" font-size="10.00">Vocab</text>
</a>
</g>
</g>
<!-- Node1&#45;&gt;Node14 -->
<g id="edge13" class="edge"><title>Node1&#45;&gt;Node14</title>
<path fill="none" stroke="midnightblue" d="M159.203,-65.798C167.791,-64.7513 176.458,-63.6948 184.892,-62.6669"/>
<polygon fill="midnightblue" stroke="midnightblue" points="158.68,-62.3358 149.177,-67.02 159.527,-69.2843 158.68,-62.3358"/>
</g>
<!-- Node3 -->
<g id="node3" class="node"><title>Node3</title>
<g id="a_node3"><a xlink:href="../../d5/d49/amunmt_8cpp.html#a86ebd9110196f3b5328ad3c3d31cd007" target="_top" xlink:title="translate">
<polygon fill="white" stroke="black" points="745.5,-88.5 745.5,-107.5 799.5,-107.5 799.5,-88.5 745.5,-88.5"/>
<text text-anchor="middle" x="772.5" y="-95.5" font-family="Helvetica,sans-Serif" font-size="10.00">translate</text>
</a>
</g>
</g>
<!-- Node2&#45;&gt;Node3 -->
<g id="edge2" class="edge"><title>Node2&#45;&gt;Node3</title>
<path fill="none" stroke="midnightblue" d="M653.224,-98C683.782,-98 721.036,-98 745.467,-98"/>
<polygon fill="midnightblue" stroke="midnightblue" points="653.146,-94.5001 643.146,-98 653.146,-101.5 653.146,-94.5001"/>
</g>
<!-- Node11 -->
<g id="node11" class="node"><title>Node11</title>
<g id="a_node11"><a xlink:href="../../d7/dd3/namespaceamunmt.html#a10b27c18333dd8e5b6652acfea64d7d2" target="_top" xlink:title="amunmt::Printer">
<polygon fill="white" stroke="black" points="729.5,-126.5 729.5,-145.5 815.5,-145.5 815.5,-126.5 729.5,-126.5"/>
<text text-anchor="middle" x="772.5" y="-133.5" font-family="Helvetica,sans-Serif" font-size="10.00">amunmt::Printer</text>
</a>
</g>
</g>
<!-- Node2&#45;&gt;Node11 -->
<g id="edge10" class="edge"><title>Node2&#45;&gt;Node11</title>
<path fill="none" stroke="midnightblue" d="M652.974,-109.584C677.411,-115.03 706.176,-121.441 729.248,-126.583"/>
<polygon fill="midnightblue" stroke="midnightblue" points="653.668,-106.153 643.146,-107.393 652.145,-112.985 653.668,-106.153"/>
</g>
<!-- Node12 -->
<g id="node12" class="node"><title>Node12</title>
<g id="a_node12"><a xlink:href="../../d7/dd3/namespaceamunmt.html#aac616d7d6dd75bad96a6dcf3afe74e85" target="_top" xlink:title="amunmt::TranslationTaskAnd\lOutput">
<polygon fill="white" stroke="black" points="700,-39 700,-69 845,-69 845,-39 700,-39"/>
<text text-anchor="start" x="708" y="-57" font-family="Helvetica,sans-Serif" font-size="10.00">amunmt::TranslationTaskAnd</text>
<text text-anchor="middle" x="772.5" y="-46" font-family="Helvetica,sans-Serif" font-size="10.00">Output</text>
</a>
</g>
</g>
<!-- Node2&#45;&gt;Node12 -->
<g id="edge11" class="edge"><title>Node2&#45;&gt;Node12</title>
<path fill="none" stroke="midnightblue" d="M647.877,-85.9026C668.043,-80.6987 691.828,-74.5605 713.122,-69.0654"/>
<polygon fill="midnightblue" stroke="midnightblue" points="646.804,-82.5648 637.996,-88.4527 648.553,-89.3428 646.804,-82.5648"/>
</g>
<!-- Node4 -->
<g id="node4" class="node"><title>Node4</title>
<g id="a_node4"><a xlink:href="../../d5/d49/amunmt_8cpp.html#a1fa5ce5d158455cf2d152ebcbcdf29d0" target="_top" xlink:title="BOOST_PYTHON_MODULE">
<polygon fill="white" stroke="black" points="881,-88.5 881,-107.5 1027,-107.5 1027,-88.5 881,-88.5"/>
<text text-anchor="middle" x="954" y="-95.5" font-family="Helvetica,sans-Serif" font-size="10.00">BOOST_PYTHON_MODULE</text>
</a>
</g>
</g>
<!-- Node3&#45;&gt;Node4 -->
<g id="edge3" class="edge"><title>Node3&#45;&gt;Node4</title>
<path fill="none" stroke="midnightblue" d="M809.694,-98C830.086,-98 856.294,-98 880.709,-98"/>
<polygon fill="midnightblue" stroke="midnightblue" points="809.601,-94.5001 799.601,-98 809.601,-101.5 809.601,-94.5001"/>
</g>
<!-- Node5 -->
<g id="node5" class="node"><title>Node5</title>
<g id="a_node5"><a xlink:href="../../d6/d38/classmarian_1_1ConfigParser.html#a07165d2c1c885c858d8127eb09f00e71" target="_top" xlink:title="marian::ConfigParser\l::addOptionsTranslate">
<polygon fill="white" stroke="black" points="897.5,-39 897.5,-69 1010.5,-69 1010.5,-39 897.5,-39"/>
<text text-anchor="start" x="905.5" y="-57" font-family="Helvetica,sans-Serif" font-size="10.00">marian::ConfigParser</text>
<text text-anchor="middle" x="954" y="-46" font-family="Helvetica,sans-Serif" font-size="10.00">::addOptionsTranslate</text>
</a>
</g>
</g>
<!-- Node3&#45;&gt;Node5 -->
<g id="edge4" class="edge"><title>Node3&#45;&gt;Node5</title>
<path fill="none" stroke="midnightblue" d="M809.438,-89.1906C834.557,-83.0333 868.592,-74.6906 897.218,-67.6736"/>
<polygon fill="midnightblue" stroke="midnightblue" points="808.48,-85.8218 799.601,-91.602 810.147,-92.6205 808.48,-85.8218"/>
</g>
<!-- Node6 -->
<g id="node6" class="node"><title>Node6</title>
<g id="a_node6"><a xlink:href="../../d2/d47/marian_2src_2common_2logging_8h.html#a32a13f91eb216c334ec310b2a8a2f10c" target="_top" xlink:title="createLoggers">
<polygon fill="white" stroke="black" points="915,-176.5 915,-195.5 993,-195.5 993,-176.5 915,-176.5"/>
<text text-anchor="middle" x="954" y="-183.5" font-family="Helvetica,sans-Serif" font-size="10.00">createLoggers</text>
</a>
</g>
</g>
<!-- Node3&#45;&gt;Node6 -->
<g id="edge5" class="edge"><title>Node3&#45;&gt;Node6</title>
<path fill="none" stroke="midnightblue" d="M809.905,-102.722C821.829,-105.512 834.658,-109.948 845,-117 867.327,-132.224 858.759,-150.651 881,-166 890.93,-172.853 903.147,-177.366 914.68,-180.335"/>
<polygon fill="midnightblue" stroke="midnightblue" points="810.239,-99.219 799.744,-100.669 808.853,-106.08 810.239,-99.219"/>
</g>
<!-- Node9 -->
<g id="node9" class="node"><title>Node9</title>
<g id="a_node9"><a xlink:href="../../db/de8/classmarian_1_1OutputCollector.html#aac7fb8a5e89ce5a9bac56a6a414e7fe5" target="_top" xlink:title="marian::OutputCollector\l::Write">
<polygon fill="white" stroke="black" points="894,-127 894,-157 1014,-157 1014,-127 894,-127"/>
<text text-anchor="start" x="902" y="-145" font-family="Helvetica,sans-Serif" font-size="10.00">marian::OutputCollector</text>
<text text-anchor="middle" x="954" y="-134" font-family="Helvetica,sans-Serif" font-size="10.00">::Write</text>
</a>
</g>
</g>
<!-- Node3&#45;&gt;Node9 -->
<g id="edge8" class="edge"><title>Node3&#45;&gt;Node9</title>
<path fill="none" stroke="midnightblue" d="M809.405,-106.801C833.546,-112.719 865.932,-120.657 893.837,-127.498"/>
<polygon fill="midnightblue" stroke="midnightblue" points="810.147,-103.379 799.601,-104.398 808.48,-110.178 810.147,-103.379"/>
</g>
<!-- Node7 -->
<g id="node7" class="node"><title>Node7</title>
<g id="a_node7"><a xlink:href="../../d6/dba/classmarian_1_1Config.html#aa953cca7c4650e7e0538f00388d9f385" target="_top" xlink:title="marian::Config::Config">
<polygon fill="white" stroke="black" points="1065.5,-214.5 1065.5,-233.5 1180.5,-233.5 1180.5,-214.5 1065.5,-214.5"/>
<text text-anchor="middle" x="1123" y="-221.5" font-family="Helvetica,sans-Serif" font-size="10.00">marian::Config::Config</text>
</a>
</g>
</g>
<!-- Node6&#45;&gt;Node7 -->
<g id="edge6" class="edge"><title>Node6&#45;&gt;Node7</title>
<path fill="none" stroke="midnightblue" d="M1003.39,-197.01C1027.65,-202.531 1056.75,-209.153 1080.06,-214.456"/>
<polygon fill="midnightblue" stroke="midnightblue" points="1003.84,-193.524 993.313,-194.718 1002.29,-200.35 1003.84,-193.524"/>
</g>
<!-- Node8 -->
<g id="node8" class="node"><title>Node8</title>
<g id="a_node8"><a xlink:href="../../dc/df8/iris_8cpp.html#ae66f6b31b5ad750f1fe042a706a4e3d4" target="_top" xlink:title="main">
<polygon fill="white" stroke="black" points="1104,-176.5 1104,-195.5 1142,-195.5 1142,-176.5 1104,-176.5"/>
<text text-anchor="middle" x="1123" y="-183.5" font-family="Helvetica,sans-Serif" font-size="10.00">main</text>
</a>
</g>
</g>
<!-- Node6&#45;&gt;Node8 -->
<g id="edge7" class="edge"><title>Node6&#45;&gt;Node8</title>
<path fill="none" stroke="midnightblue" d="M1003.42,-186C1037.06,-186 1079.99,-186 1103.87,-186"/>
<polygon fill="midnightblue" stroke="midnightblue" points="1003.31,-182.5 993.313,-186 1003.31,-189.5 1003.31,-182.5"/>
</g>
<!-- Node10 -->
<g id="node10" class="node"><title>Node10</title>
<g id="a_node10"><a xlink:href="../../db/de8/classmarian_1_1OutputCollector.html#a6b877d0629db1fe8d5f5c920025cc859" target="_top" xlink:title="marian::OutputCollector\l::OutputCollector">
<polygon fill="white" stroke="black" points="1063,-127 1063,-157 1183,-157 1183,-127 1063,-127"/>
<text text-anchor="start" x="1071" y="-145" font-family="Helvetica,sans-Serif" font-size="10.00">marian::OutputCollector</text>
<text text-anchor="middle" x="1123" y="-134" font-family="Helvetica,sans-Serif" font-size="10.00">::OutputCollector</text>
</a>
</g>
</g>
<!-- Node9&#45;&gt;Node10 -->
<g id="edge9" class="edge"><title>Node9&#45;&gt;Node10</title>
<path fill="none" stroke="midnightblue" d="M1024.46,-142C1037.22,-142 1050.42,-142 1062.84,-142"/>
<polygon fill="midnightblue" stroke="midnightblue" points="1024.35,-138.5 1014.35,-142 1024.35,-145.5 1024.35,-138.5"/>
</g>
<!-- Node13 -->
<g id="node13" class="node"><title>Node13</title>
<g id="a_node13"><a xlink:href="../../d0/d73/decoder__main_8cpp.html#a0ddf1224851353fc92bfbff6f499fa97" target="_top" xlink:title="main">
<polygon fill="white" stroke="black" points="935,-0.5 935,-19.5 973,-19.5 973,-0.5 935,-0.5"/>
<text text-anchor="middle" x="954" y="-7.5" font-family="Helvetica,sans-Serif" font-size="10.00">main</text>
</a>
</g>
</g>
<!-- Node12&#45;&gt;Node13 -->
<g id="edge12" class="edge"><title>Node12&#45;&gt;Node13</title>
<path fill="none" stroke="midnightblue" d="M844.806,-36.5211C877.558,-28.4927 913.736,-19.6247 934.857,-14.4474"/>
<polygon fill="midnightblue" stroke="midnightblue" points="843.651,-33.2006 834.772,-38.9808 845.317,-39.9993 843.651,-33.2006"/>
</g>
<!-- Node15 -->
<g id="node15" class="node"><title>Node15</title>
<g id="a_node15"><a xlink:href="../../d7/d92/classamunmt_1_1Search.html#a8a55a67dbc9dab24441767d7b2066b9a" target="_top" xlink:title="amunmt::Search::Translate">
<polygon fill="white" stroke="black" points="365,-44.5 365,-63.5 500,-63.5 500,-44.5 365,-44.5"/>
<text text-anchor="middle" x="432.5" y="-51.5" font-family="Helvetica,sans-Serif" font-size="10.00">amunmt::Search::Translate</text>
</a>
</g>
</g>
<!-- Node14&#45;&gt;Node15 -->
<g id="edge14" class="edge"><title>Node14&#45;&gt;Node15</title>
<path fill="none" stroke="midnightblue" d="M339.093,-54C347.678,-54 356.337,-54 364.733,-54"/>
<polygon fill="midnightblue" stroke="midnightblue" points="339.07,-50.5001 329.07,-54 339.07,-57.5001 339.07,-50.5001"/>
</g>
<!-- Node16 -->
<g id="node16" class="node"><title>Node16</title>
<g id="a_node16"><a xlink:href="../../d7/dd3/namespaceamunmt.html#a54e0c0c0dd1caecba5c17e45d023fd5e" target="_top" xlink:title="amunmt::TranslationTask">
<polygon fill="white" stroke="black" points="536,-44.5 536,-63.5 664,-63.5 664,-44.5 536,-44.5"/>
<text text-anchor="middle" x="600" y="-51.5" font-family="Helvetica,sans-Serif" font-size="10.00">amunmt::TranslationTask</text>
</a>
</g>
</g>
<!-- Node15&#45;&gt;Node16 -->
<g id="edge15" class="edge"><title>Node15&#45;&gt;Node16</title>
<path fill="none" stroke="midnightblue" d="M510.617,-54C519.096,-54 527.654,-54 535.933,-54"/>
<polygon fill="midnightblue" stroke="midnightblue" points="510.338,-50.5001 500.338,-54 510.338,-57.5001 510.338,-50.5001"/>
</g>
<!-- Node16&#45;&gt;Node3 -->
<g id="edge16" class="edge"><title>Node16&#45;&gt;Node3</title>
<path fill="none" stroke="midnightblue" d="M647.861,-66.0932C679.289,-74.2036 719.515,-84.5845 745.397,-91.2638"/>
<polygon fill="midnightblue" stroke="midnightblue" points="648.553,-62.6572 637.996,-63.5473 646.804,-69.4352 648.553,-62.6572"/>
</g>
<!-- Node16&#45;&gt;Node12 -->
<g id="edge17" class="edge"><title>Node16&#45;&gt;Node12</title>
<path fill="none" stroke="midnightblue" d="M674.248,-54C682.732,-54 691.378,-54 699.84,-54"/>
<polygon fill="midnightblue" stroke="midnightblue" points="674.004,-50.5001 664.003,-54 674.003,-57.5001 674.004,-50.5001"/>
</g>
</g>
</svg>
