<?xml version="1.0" encoding="UTF-8" standalone="no"?>
<!DOCTYPE svg PUBLIC "-//W3C//DTD SVG 1.1//EN"
 "http://www.w3.org/Graphics/SVG/1.1/DTD/svg11.dtd">
<!-- Generated by graphviz version 2.38.0 (20140413.2041)
 -->
<!-- Title: amunmt::Sentence::Sentence Pages: 1 -->
<svg width="490pt" height="180pt"
 viewBox="0.00 0.00 490.00 180.00" xmlns="http://www.w3.org/2000/svg" xmlns:xlink="http://www.w3.org/1999/xlink">
<g id="graph0" class="graph" transform="scale(1 1) rotate(0) translate(4 176)">
<title>amunmt::Sentence::Sentence</title>
<polygon fill="white" stroke="none" points="-4,4 -4,-176 486,-176 486,4 -4,4"/>
<!-- Node1 -->
<g id="node1" class="node"><title>Node1</title>
<polygon fill="#bfbfbf" stroke="black" points="0,-76.5 0,-95.5 146,-95.5 146,-76.5 0,-76.5"/>
<text text-anchor="middle" x="73" y="-83.5" font-family="Helvetica,sans-Serif" font-size="10.00">amunmt::Sentence::Sentence</text>
</g>
<!-- Node2 -->
<g id="node2" class="node"><title>Node2</title>
<g id="a_node2"><a xlink:href="../../d7/dd3/namespaceamunmt.html#a10b7486d36b130609c77e8356218c0a7" target="_top" xlink:title="amunmt::Split">
<polygon fill="white" stroke="black" points="221.5,-152.5 221.5,-171.5 298.5,-171.5 298.5,-152.5 221.5,-152.5"/>
<text text-anchor="middle" x="260" y="-159.5" font-family="Helvetica,sans-Serif" font-size="10.00">amunmt::Split</text>
</a>
</g>
</g>
<!-- Node1&#45;&gt;Node2 -->
<g id="edge1" class="edge"><title>Node1&#45;&gt;Node2</title>
<path fill="none" stroke="midnightblue" d="M89.1805,-95.5434C109.589,-108.01 147.326,-129.799 182,-143 191.361,-146.564 201.621,-149.637 211.511,-152.21"/>
<polygon fill="midnightblue" stroke="midnightblue" points="210.684,-155.611 221.232,-154.616 212.366,-148.816 210.684,-155.611"/>
</g>
<!-- Node3 -->
<g id="node3" class="node"><title>Node3</title>
<g id="a_node3"><a xlink:href="../../d7/d4e/classamunmt_1_1God.html#ad0d3efbdf165ba0bc4de9052a826f7b6" target="_top" xlink:title="amunmt::God::Get">
<polygon fill="white" stroke="black" points="211,-114.5 211,-133.5 309,-133.5 309,-114.5 211,-114.5"/>
<text text-anchor="middle" x="260" y="-121.5" font-family="Helvetica,sans-Serif" font-size="10.00">amunmt::God::Get</text>
</a>
</g>
</g>
<!-- Node1&#45;&gt;Node3 -->
<g id="edge2" class="edge"><title>Node1&#45;&gt;Node3</title>
<path fill="none" stroke="midnightblue" d="M120.683,-95.589C145.646,-100.716 176.564,-107.067 202.834,-112.463"/>
<polygon fill="midnightblue" stroke="midnightblue" points="202.153,-115.896 212.652,-114.48 203.561,-109.039 202.153,-115.896"/>
</g>
<!-- Node5 -->
<g id="node5" class="node"><title>Node5</title>
<g id="a_node5"><a xlink:href="../../d7/dd3/namespaceamunmt.html#a4578e863aaec8293556404432d7e8d04" target="_top" xlink:title="amunmt::Trim">
<polygon fill="white" stroke="black" points="221.5,-76.5 221.5,-95.5 298.5,-95.5 298.5,-76.5 221.5,-76.5"/>
<text text-anchor="middle" x="260" y="-83.5" font-family="Helvetica,sans-Serif" font-size="10.00">amunmt::Trim</text>
</a>
</g>
</g>
<!-- Node1&#45;&gt;Node5 -->
<g id="edge4" class="edge"><title>Node1&#45;&gt;Node5</title>
<path fill="none" stroke="midnightblue" d="M146.056,-86C168,-86 191.56,-86 211.455,-86"/>
<polygon fill="midnightblue" stroke="midnightblue" points="211.496,-89.5001 221.496,-86 211.496,-82.5001 211.496,-89.5001"/>
</g>
<!-- Node6 -->
<g id="node6" class="node"><title>Node6</title>
<g id="a_node6"><a xlink:href="../../d7/d4e/classamunmt_1_1God.html#a98a2f57d4f28a7e7d58f3b68680dbdb1" target="_top" xlink:title="amunmt::God::Preprocess">
<polygon fill="white" stroke="black" points="194.5,-38.5 194.5,-57.5 325.5,-57.5 325.5,-38.5 194.5,-38.5"/>
<text text-anchor="middle" x="260" y="-45.5" font-family="Helvetica,sans-Serif" font-size="10.00">amunmt::God::Preprocess</text>
</a>
</g>
</g>
<!-- Node1&#45;&gt;Node6 -->
<g id="edge5" class="edge"><title>Node1&#45;&gt;Node6</title>
<path fill="none" stroke="midnightblue" d="M120.683,-76.411C145.646,-71.2835 176.564,-64.9328 202.834,-59.5368"/>
<polygon fill="midnightblue" stroke="midnightblue" points="203.561,-62.9606 212.652,-57.5201 202.153,-56.1038 203.561,-62.9606"/>
</g>
<!-- Node7 -->
<g id="node7" class="node"><title>Node7</title>
<g id="a_node7"><a xlink:href="../../d7/d4e/classamunmt_1_1God.html#a032b43755a3050ee9fb97ad27a91a63b" target="_top" xlink:title="amunmt::God::GetSourceVocab">
<polygon fill="white" stroke="black" points="182,-0.5 182,-19.5 338,-19.5 338,-0.5 182,-0.5"/>
<text text-anchor="middle" x="260" y="-7.5" font-family="Helvetica,sans-Serif" font-size="10.00">amunmt::God::GetSourceVocab</text>
</a>
</g>
</g>
<!-- Node1&#45;&gt;Node7 -->
<g id="edge6" class="edge"><title>Node1&#45;&gt;Node7</title>
<path fill="none" stroke="midnightblue" d="M89.1805,-76.4566C109.589,-63.9899 147.326,-42.201 182,-29 188.484,-26.5313 195.399,-24.2984 202.324,-22.304"/>
<polygon fill="midnightblue" stroke="midnightblue" points="203.699,-25.5572 212.428,-19.553 201.86,-18.8031 203.699,-25.5572"/>
</g>
<!-- Node4 -->
<g id="node4" class="node"><title>Node4</title>
<g id="a_node4"><a xlink:href="../../da/d4e/classamunmt_1_1Config.html#a5257f41272d06c35bebe8130b5897d23" target="_top" xlink:title="amunmt::Config::Get">
<polygon fill="white" stroke="black" points="374,-114.5 374,-133.5 482,-133.5 482,-114.5 374,-114.5"/>
<text text-anchor="middle" x="428" y="-121.5" font-family="Helvetica,sans-Serif" font-size="10.00">amunmt::Config::Get</text>
</a>
</g>
</g>
<!-- Node3&#45;&gt;Node4 -->
<g id="edge3" class="edge"><title>Node3&#45;&gt;Node4</title>
<path fill="none" stroke="midnightblue" d="M309.014,-124C326.063,-124 345.522,-124 363.654,-124"/>
<polygon fill="midnightblue" stroke="midnightblue" points="363.856,-127.5 373.856,-124 363.856,-120.5 363.856,-127.5"/>
</g>
</g>
</svg>
