<?xml version="1.0" encoding="UTF-8" standalone="no"?>
<!DOCTYPE svg PUBLIC "-//W3C//DTD SVG 1.1//EN"
 "http://www.w3.org/Graphics/SVG/1.1/DTD/svg11.dtd">
<!-- Generated by graphviz version 2.38.0 (20140413.2041)
 -->
<!-- Title: utils.h Pages: 1 -->
<!--zoomable 308 -->
<svg id="main" version="1.1" xmlns="http://www.w3.org/2000/svg" xmlns:xlink="http://www.w3.org/1999/xlink" xml:space="preserve" onload="init(evt)">
<style type="text/css"><![CDATA[
.edge:hover path { stroke: red; }
.edge:hover polygon { stroke: red; fill: red; }
]]></style>
<script type="text/javascript"><![CDATA[
var edges = document.getElementsByTagName('g');
if (edges && edges.length) {
  for (var i=0;i<edges.length;i++) {
    if (edges[i].id.substr(0,4)=='edge') {
      edges[i].setAttribute('class','edge');
    }
  }
}
]]></script>
        <defs>
                <circle id="rim" cx="0" cy="0" r="7"/>
                <circle id="rim2" cx="0" cy="0" r="3.5"/>
                <g id="zoomPlus">
                        <use xlink:href="#rim" fill="#404040">
                                <set attributeName="fill" to="#808080" begin="zoomplus.mouseover" end="zoomplus.mouseout"/>
                        </use>
                        <path d="M-4,0h8M0,-4v8" fill="none" stroke="white" stroke-width="1.5" pointer-events="none"/>
                </g>
                <g id="zoomMin">
                        <use xlink:href="#rim" fill="#404040">
                                <set attributeName="fill" to="#808080" begin="zoomminus.mouseover" end="zoomminus.mouseout"/>
                        </use>
                        <path d="M-4,0h8" fill="none" stroke="white" stroke-width="1.5" pointer-events="none"/>
                </g>
                <g id="dirArrow">
                        <path fill="none" stroke="white" stroke-width="1.5" d="M0,-3.0v7 M-2.5,-0.5L0,-3.0L2.5,-0.5"/>
                </g>
               <g id="resetDef">
                       <use xlink:href="#rim2" fill="#404040">
                               <set attributeName="fill" to="#808080" begin="reset.mouseover" end="reset.mouseout"/>
                       </use>
               </g>
        </defs>

<script type="text/javascript">
var viewWidth = 959;
var viewHeight = 308;
var sectionId = 'dynsection-1';
</script>
<script xlink:href="../../svgpan.js"/>
<svg id="graph" class="graph">
<g id="viewport">
<title>utils.h</title>
<polygon fill="white" stroke="none" points="-4,4 -4,-304 954.5,-304 954.5,4 -4,4"/>
<!-- Node1 -->
<g id="node1" class="node"><title>Node1</title>
<polygon fill="#bfbfbf" stroke="black" points="378.5,-280.5 378.5,-299.5 421.5,-299.5 421.5,-280.5 378.5,-280.5"/>
<text text-anchor="middle" x="400" y="-287.5" font-family="Helvetica,sans-Serif" font-size="10.00">utils.h</text>
</g>
<!-- Node2 -->
<g id="node2" class="node"><title>Node2</title>
<g id="a_node2"><a xlink:href="../../de/d63/filter_8cpp.html" target="_top" xlink:title="filter.cpp">
<polygon fill="white" stroke="black" points="0,-168.5 0,-187.5 54,-187.5 54,-168.5 0,-168.5"/>
<text text-anchor="middle" x="27" y="-175.5" font-family="Helvetica,sans-Serif" font-size="10.00">filter.cpp</text>
</a>
</g>
</g>
<!-- Node1&#45;&gt;Node2 -->
<g id="edge1" class="edge"><title>Node1&#45;&gt;Node2</title>
<path fill="none" stroke="midnightblue" d="M368.039,-284.454C324.945,-277.87 246.101,-264.211 181,-244 129.727,-228.082 72.1358,-201.225 44.1345,-187.553"/>
<polygon fill="midnightblue" stroke="midnightblue" points="367.787,-287.955 378.195,-285.976 368.824,-281.033 367.787,-287.955"/>
</g>
<!-- Node3 -->
<g id="node3" class="node"><title>Node3</title>
<g id="a_node3"><a xlink:href="../../d3/d73/god_8cpp.html" target="_top" xlink:title="god.cpp">
<polygon fill="white" stroke="black" points="72.5,-168.5 72.5,-187.5 123.5,-187.5 123.5,-168.5 72.5,-168.5"/>
<text text-anchor="middle" x="98" y="-175.5" font-family="Helvetica,sans-Serif" font-size="10.00">god.cpp</text>
</a>
</g>
</g>
<!-- Node1&#45;&gt;Node3 -->
<g id="edge2" class="edge"><title>Node1&#45;&gt;Node3</title>
<path fill="none" stroke="midnightblue" d="M368.19,-282.66C333.394,-275.26 276.276,-261.738 229,-244 185.262,-227.589 136.723,-201.19 112.879,-187.638"/>
<polygon fill="midnightblue" stroke="midnightblue" points="367.732,-286.14 378.237,-284.758 369.163,-279.288 367.732,-286.14"/>
</g>
<!-- Node4 -->
<g id="node4" class="node"><title>Node4</title>
<g id="a_node4"><a xlink:href="../../d4/d57/god_8h.html" target="_top" xlink:title="god.h">
<polygon fill="white" stroke="black" points="276.5,-224.5 276.5,-243.5 317.5,-243.5 317.5,-224.5 276.5,-224.5"/>
<text text-anchor="middle" x="297" y="-231.5" font-family="Helvetica,sans-Serif" font-size="10.00">god.h</text>
</a>
</g>
</g>
<!-- Node1&#45;&gt;Node4 -->
<g id="edge3" class="edge"><title>Node1&#45;&gt;Node4</title>
<path fill="none" stroke="midnightblue" d="M374.421,-275.59C355.377,-265.605 329.936,-252.267 313.508,-243.655"/>
<polygon fill="midnightblue" stroke="midnightblue" points="372.969,-278.78 383.451,-280.324 376.22,-272.581 372.969,-278.78"/>
</g>
<!-- Node6 -->
<g id="node6" class="node"><title>Node6</title>
<g id="a_node6"><a xlink:href="../../d5/dc4/amun_2common_2printer_8h.html" target="_top" xlink:title="printer.h">
<polygon fill="white" stroke="black" points="142,-168.5 142,-187.5 194,-187.5 194,-168.5 142,-168.5"/>
<text text-anchor="middle" x="168" y="-175.5" font-family="Helvetica,sans-Serif" font-size="10.00">printer.h</text>
</a>
</g>
</g>
<!-- Node1&#45;&gt;Node6 -->
<g id="edge21" class="edge"><title>Node1&#45;&gt;Node6</title>
<path fill="none" stroke="midnightblue" d="M368.272,-280.736C340.749,-272.994 300.223,-260.197 267,-244 232.994,-227.421 196.728,-201.095 179.018,-187.598"/>
<polygon fill="midnightblue" stroke="midnightblue" points="367.571,-284.173 378.141,-283.453 369.428,-277.424 367.571,-284.173"/>
</g>
<!-- Node12 -->
<g id="node12" class="node"><title>Node12</title>
<g id="a_node12"><a xlink:href="../../d0/d90/best__hyps_8h.html" target="_top" xlink:title="best_hyps.h">
<polygon fill="white" stroke="black" points="603,-168.5 603,-187.5 673,-187.5 673,-168.5 603,-168.5"/>
<text text-anchor="middle" x="638" y="-175.5" font-family="Helvetica,sans-Serif" font-size="10.00">best_hyps.h</text>
</a>
</g>
</g>
<!-- Node1&#45;&gt;Node12 -->
<g id="edge24" class="edge"><title>Node1&#45;&gt;Node12</title>
<path fill="none" stroke="midnightblue" d="M381.531,-273.294C367.361,-259.363 352.214,-238.963 365,-224 398.322,-185.003 542.507,-197.032 593,-188 596.137,-187.439 599.392,-186.833 602.653,-186.211"/>
<polygon fill="midnightblue" stroke="midnightblue" points="379.395,-276.085 389.119,-280.292 384.141,-270.939 379.395,-276.085"/>
</g>
<!-- Node18 -->
<g id="node18" class="node"><title>Node18</title>
<g id="a_node18"><a xlink:href="../../d1/da6/bpe_8cpp.html" target="_top" xlink:title="bpe.cpp">
<polygon fill="white" stroke="black" points="374.5,-224.5 374.5,-243.5 425.5,-243.5 425.5,-224.5 374.5,-224.5"/>
<text text-anchor="middle" x="400" y="-231.5" font-family="Helvetica,sans-Serif" font-size="10.00">bpe.cpp</text>
</a>
</g>
</g>
<!-- Node1&#45;&gt;Node18 -->
<g id="edge22" class="edge"><title>Node1&#45;&gt;Node18</title>
<path fill="none" stroke="midnightblue" d="M400,-269.805C400,-260.91 400,-250.78 400,-243.751"/>
<polygon fill="midnightblue" stroke="midnightblue" points="396.5,-270.083 400,-280.083 403.5,-270.083 396.5,-270.083"/>
</g>
<!-- Node19 -->
<g id="node19" class="node"><title>Node19</title>
<g id="a_node19"><a xlink:href="../../d4/d9f/amun_2common_2vocab_8cpp.html" target="_top" xlink:title="vocab.cpp">
<polygon fill="white" stroke="black" points="444,-224.5 444,-243.5 506,-243.5 506,-224.5 444,-224.5"/>
<text text-anchor="middle" x="475" y="-231.5" font-family="Helvetica,sans-Serif" font-size="10.00">vocab.cpp</text>
</a>
</g>
</g>
<!-- Node1&#45;&gt;Node19 -->
<g id="edge23" class="edge"><title>Node1&#45;&gt;Node19</title>
<path fill="none" stroke="midnightblue" d="M420.305,-274.38C433.861,-264.62 451.242,-252.106 462.731,-243.834"/>
<polygon fill="midnightblue" stroke="midnightblue" points="418.12,-271.641 412.05,-280.324 422.21,-277.321 418.12,-271.641"/>
</g>
<!-- Node20 -->
<g id="node20" class="node"><title>Node20</title>
<g id="a_node20"><a xlink:href="../../de/d51/marian_2src_2common_2utils_8cpp.html" target="_top" xlink:title="utils.cpp">
<polygon fill="white" stroke="black" points="524.5,-224.5 524.5,-243.5 577.5,-243.5 577.5,-224.5 524.5,-224.5"/>
<text text-anchor="middle" x="551" y="-231.5" font-family="Helvetica,sans-Serif" font-size="10.00">utils.cpp</text>
</a>
</g>
</g>
<!-- Node1&#45;&gt;Node20 -->
<g id="edge25" class="edge"><title>Node1&#45;&gt;Node20</title>
<path fill="none" stroke="midnightblue" d="M431.125,-277.869C459.63,-267.675 501.218,-252.803 527.163,-243.524"/>
<polygon fill="midnightblue" stroke="midnightblue" points="429.872,-274.6 421.635,-281.263 432.229,-281.191 429.872,-274.6"/>
</g>
<!-- Node21 -->
<g id="node21" class="node"><title>Node21</title>
<g id="a_node21"><a xlink:href="../../df/dc0/marian_2src_2data_2vocab_8cpp.html" target="_top" xlink:title="vocab.cpp">
<polygon fill="white" stroke="black" points="596,-224.5 596,-243.5 658,-243.5 658,-224.5 596,-224.5"/>
<text text-anchor="middle" x="627" y="-231.5" font-family="Helvetica,sans-Serif" font-size="10.00">vocab.cpp</text>
</a>
</g>
</g>
<!-- Node1&#45;&gt;Node21 -->
<g id="edge26" class="edge"><title>Node1&#45;&gt;Node21</title>
<path fill="none" stroke="midnightblue" d="M431.518,-281.502C474.969,-271.166 552.789,-252.654 595.977,-242.38"/>
<polygon fill="midnightblue" stroke="midnightblue" points="430.684,-278.103 421.766,-283.822 432.304,-284.913 430.684,-278.103"/>
</g>
<!-- Node22 -->
<g id="node22" class="node"><title>Node22</title>
<g id="a_node22"><a xlink:href="../../d1/dce/word2vec__reader_8h.html" target="_top" xlink:title="word2vec_reader.h">
<polygon fill="white" stroke="black" points="676.5,-224.5 676.5,-243.5 775.5,-243.5 775.5,-224.5 676.5,-224.5"/>
<text text-anchor="middle" x="726" y="-231.5" font-family="Helvetica,sans-Serif" font-size="10.00">word2vec_reader.h</text>
</a>
</g>
</g>
<!-- Node1&#45;&gt;Node22 -->
<g id="edge27" class="edge"><title>Node1&#45;&gt;Node22</title>
<path fill="none" stroke="midnightblue" d="M431.85,-283.724C488.855,-274.282 608.684,-254.433 676.491,-243.201"/>
<polygon fill="midnightblue" stroke="midnightblue" points="430.936,-280.328 421.642,-285.415 432.08,-287.234 430.936,-280.328"/>
</g>
<!-- Node23 -->
<g id="node23" class="node"><title>Node23</title>
<g id="a_node23"><a xlink:href="../../d7/de8/marian_2src_2translator_2printer_8h.html" target="_top" xlink:title="printer.h">
<polygon fill="white" stroke="black" points="794,-224.5 794,-243.5 846,-243.5 846,-224.5 794,-224.5"/>
<text text-anchor="middle" x="820" y="-231.5" font-family="Helvetica,sans-Serif" font-size="10.00">printer.h</text>
</a>
</g>
</g>
<!-- Node1&#45;&gt;Node23 -->
<g id="edge28" class="edge"><title>Node1&#45;&gt;Node23</title>
<path fill="none" stroke="midnightblue" d="M431.981,-286.648C498.109,-281.48 654.529,-267.669 784,-244 787.169,-243.421 790.473,-242.724 793.739,-241.979"/>
<polygon fill="midnightblue" stroke="midnightblue" points="431.499,-283.175 421.797,-287.431 432.036,-290.155 431.499,-283.175"/>
</g>
<!-- Node4&#45;&gt;Node2 -->
<g id="edge5" class="edge"><title>Node4&#45;&gt;Node2</title>
<path fill="none" stroke="midnightblue" d="M266.302,-227.652C221.477,-219.718 135.55,-204.032 63,-188 60.1063,-187.361 57.0902,-186.66 54.0891,-185.942"/>
<polygon fill="midnightblue" stroke="midnightblue" points="265.806,-231.119 276.262,-229.407 267.021,-224.225 265.806,-231.119"/>
</g>
<!-- Node4&#45;&gt;Node3 -->
<g id="edge6" class="edge"><title>Node4&#45;&gt;Node3</title>
<path fill="none" stroke="midnightblue" d="M266.701,-224.778C227.651,-214.182 160.429,-195.94 123.735,-185.983"/>
<polygon fill="midnightblue" stroke="midnightblue" points="265.885,-228.183 276.453,-227.424 267.719,-221.428 265.885,-228.183"/>
</g>
<!-- Node5 -->
<g id="node5" class="node"><title>Node5</title>
<g id="a_node5"><a xlink:href="../../d0/d73/decoder__main_8cpp.html" target="_top" xlink:title="decoder_main.cpp">
<polygon fill="white" stroke="black" points="227,-112.5 227,-131.5 323,-131.5 323,-112.5 227,-112.5"/>
<text text-anchor="middle" x="275" y="-119.5" font-family="Helvetica,sans-Serif" font-size="10.00">decoder_main.cpp</text>
</a>
</g>
</g>
<!-- Node4&#45;&gt;Node5 -->
<g id="edge4" class="edge"><title>Node4&#45;&gt;Node5</title>
<path fill="none" stroke="midnightblue" d="M298.764,-214.321C299.508,-201.194 299.521,-183.313 296,-168 292.909,-154.557 285.479,-140.339 280.34,-131.567"/>
<polygon fill="midnightblue" stroke="midnightblue" points="295.262,-214.213 297.992,-224.45 302.242,-214.745 295.262,-214.213"/>
</g>
<!-- Node4&#45;&gt;Node6 -->
<g id="edge7" class="edge"><title>Node4&#45;&gt;Node6</title>
<path fill="none" stroke="midnightblue" d="M267.146,-220.503C242.962,-210.38 209.538,-196.388 188.345,-187.516"/>
<polygon fill="midnightblue" stroke="midnightblue" points="265.984,-223.811 276.56,-224.444 268.687,-217.354 265.984,-223.811"/>
</g>
<!-- Node9 -->
<g id="node9" class="node"><title>Node9</title>
<g id="a_node9"><a xlink:href="../../d5/d49/amunmt_8cpp.html" target="_top" xlink:title="amunmt.cpp">
<polygon fill="white" stroke="black" points="354.5,-112.5 354.5,-131.5 425.5,-131.5 425.5,-112.5 354.5,-112.5"/>
<text text-anchor="middle" x="390" y="-119.5" font-family="Helvetica,sans-Serif" font-size="10.00">amunmt.cpp</text>
</a>
</g>
</g>
<!-- Node4&#45;&gt;Node9 -->
<g id="edge20" class="edge"><title>Node4&#45;&gt;Node9</title>
<path fill="none" stroke="midnightblue" d="M327.457,-222.93C352.938,-213.815 386.327,-200.018 394,-188 405.073,-170.656 398.38,-145.12 393.585,-131.806"/>
<polygon fill="midnightblue" stroke="midnightblue" points="326.095,-219.698 317.806,-226.297 328.401,-226.307 326.095,-219.698"/>
</g>
<!-- Node10 -->
<g id="node10" class="node"><title>Node10</title>
<g id="a_node10"><a xlink:href="../../d9/def/search_8cpp.html" target="_top" xlink:title="search.cpp">
<polygon fill="white" stroke="black" points="519.5,-168.5 519.5,-187.5 584.5,-187.5 584.5,-168.5 519.5,-168.5"/>
<text text-anchor="middle" x="552" y="-175.5" font-family="Helvetica,sans-Serif" font-size="10.00">search.cpp</text>
</a>
</g>
</g>
<!-- Node4&#45;&gt;Node10 -->
<g id="edge12" class="edge"><title>Node4&#45;&gt;Node10</title>
<path fill="none" stroke="midnightblue" d="M327.566,-225.041C329.064,-224.682 330.548,-224.333 332,-224 410.667,-205.943 430.983,-204.456 510,-188 513.066,-187.361 516.257,-186.69 519.449,-186.014"/>
<polygon fill="midnightblue" stroke="midnightblue" points="326.549,-221.687 317.685,-227.491 328.233,-228.482 326.549,-221.687"/>
</g>
<!-- Node11 -->
<g id="node11" class="node"><title>Node11</title>
<g id="a_node11"><a xlink:href="../../d7/d57/sentence_8cpp.html" target="_top" xlink:title="sentence.cpp">
<polygon fill="white" stroke="black" points="212.5,-168.5 212.5,-187.5 287.5,-187.5 287.5,-168.5 212.5,-168.5"/>
<text text-anchor="middle" x="250" y="-175.5" font-family="Helvetica,sans-Serif" font-size="10.00">sentence.cpp</text>
</a>
</g>
</g>
<!-- Node4&#45;&gt;Node11 -->
<g id="edge13" class="edge"><title>Node4&#45;&gt;Node11</title>
<path fill="none" stroke="midnightblue" d="M282.579,-216.431C274.342,-206.967 264.346,-195.483 257.617,-187.751"/>
<polygon fill="midnightblue" stroke="midnightblue" points="280.034,-218.838 289.239,-224.083 285.314,-214.242 280.034,-218.838"/>
</g>
<!-- Node4&#45;&gt;Node12 -->
<g id="edge14" class="edge"><title>Node4&#45;&gt;Node12</title>
<path fill="none" stroke="midnightblue" d="M327.542,-224.929C329.046,-224.6 330.538,-224.288 332,-224 446.893,-201.382 477.535,-207.491 593,-188 596.142,-187.47 599.401,-186.885 602.664,-186.277"/>
<polygon fill="midnightblue" stroke="midnightblue" points="326.562,-221.564 317.638,-227.275 328.176,-228.375 326.562,-221.564"/>
</g>
<!-- Node13 -->
<g id="node13" class="node"><title>Node13</title>
<g id="a_node13"><a xlink:href="../../d6/d72/decoder_8h.html" target="_top" xlink:title="decoder.h">
<polygon fill="white" stroke="black" points="442.5,-168.5 442.5,-187.5 501.5,-187.5 501.5,-168.5 442.5,-168.5"/>
<text text-anchor="middle" x="472" y="-175.5" font-family="Helvetica,sans-Serif" font-size="10.00">decoder.h</text>
</a>
</g>
</g>
<!-- Node4&#45;&gt;Node13 -->
<g id="edge15" class="edge"><title>Node4&#45;&gt;Node13</title>
<path fill="none" stroke="midnightblue" d="M327.329,-223.641C360.289,-213.471 412.497,-197.361 444.361,-187.529"/>
<polygon fill="midnightblue" stroke="midnightblue" points="326.285,-220.3 317.762,-226.593 328.349,-226.989 326.285,-220.3"/>
</g>
<!-- Node17 -->
<g id="node17" class="node"><title>Node17</title>
<g id="a_node17"><a xlink:href="../../da/d6d/nmt_8h.html" target="_top" xlink:title="nmt.h">
<polygon fill="white" stroke="black" points="344.5,-168.5 344.5,-187.5 385.5,-187.5 385.5,-168.5 344.5,-168.5"/>
<text text-anchor="middle" x="365" y="-175.5" font-family="Helvetica,sans-Serif" font-size="10.00">nmt.h</text>
</a>
</g>
</g>
<!-- Node4&#45;&gt;Node17 -->
<g id="edge19" class="edge"><title>Node4&#45;&gt;Node17</title>
<path fill="none" stroke="midnightblue" d="M315.762,-218.101C328,-208.382 343.559,-196.027 353.876,-187.834"/>
<polygon fill="midnightblue" stroke="midnightblue" points="313.58,-215.364 307.925,-224.324 317.933,-220.846 313.58,-215.364"/>
</g>
<!-- Node6&#45;&gt;Node5 -->
<g id="edge8" class="edge"><title>Node6&#45;&gt;Node5</title>
<path fill="none" stroke="midnightblue" d="M194.302,-163.726C214.115,-153.727 240.707,-140.307 257.851,-131.655"/>
<polygon fill="midnightblue" stroke="midnightblue" points="192.542,-160.694 185.191,-168.324 195.696,-166.943 192.542,-160.694"/>
</g>
<!-- Node7 -->
<g id="node7" class="node"><title>Node7</title>
<g id="a_node7"><a xlink:href="../../d3/db8/amun_2common_2printer_8cpp.html" target="_top" xlink:title="printer.cpp">
<polygon fill="white" stroke="black" points="140,-112.5 140,-131.5 202,-131.5 202,-112.5 140,-112.5"/>
<text text-anchor="middle" x="171" y="-119.5" font-family="Helvetica,sans-Serif" font-size="10.00">printer.cpp</text>
</a>
</g>
</g>
<!-- Node6&#45;&gt;Node7 -->
<g id="edge9" class="edge"><title>Node6&#45;&gt;Node7</title>
<path fill="none" stroke="midnightblue" d="M169.066,-157.805C169.561,-148.91 170.123,-138.78 170.514,-131.751"/>
<polygon fill="midnightblue" stroke="midnightblue" points="165.556,-157.904 168.495,-168.083 172.545,-158.293 165.556,-157.904"/>
</g>
<!-- Node8 -->
<g id="node8" class="node"><title>Node8</title>
<g id="a_node8"><a xlink:href="../../df/d6f/translation__task_8cpp.html" target="_top" xlink:title="translation_task.cpp">
<polygon fill="white" stroke="black" points="18,-112.5 18,-131.5 122,-131.5 122,-112.5 18,-112.5"/>
<text text-anchor="middle" x="70" y="-119.5" font-family="Helvetica,sans-Serif" font-size="10.00">translation_task.cpp</text>
</a>
</g>
</g>
<!-- Node6&#45;&gt;Node8 -->
<g id="edge10" class="edge"><title>Node6&#45;&gt;Node8</title>
<path fill="none" stroke="midnightblue" d="M143.414,-163.453C125.322,-153.483 101.265,-140.228 85.7063,-131.655"/>
<polygon fill="midnightblue" stroke="midnightblue" points="141.807,-166.563 152.255,-168.324 145.185,-160.432 141.807,-166.563"/>
</g>
<!-- Node6&#45;&gt;Node9 -->
<g id="edge11" class="edge"><title>Node6&#45;&gt;Node9</title>
<path fill="none" stroke="midnightblue" d="M204.413,-167.675C262.274,-153.315 318.87,-139.808 354.459,-131.379"/>
<polygon fill="midnightblue" stroke="midnightblue" points="203.222,-164.364 194.362,-170.174 204.911,-171.157 203.222,-164.364"/>
</g>
<!-- Node14 -->
<g id="node14" class="node"><title>Node14</title>
<g id="a_node14"><a xlink:href="../../db/d89/dl4mt_8h.html" target="_top" xlink:title="dl4mt.h">
<polygon fill="white" stroke="black" points="447.5,-112.5 447.5,-131.5 496.5,-131.5 496.5,-112.5 447.5,-112.5"/>
<text text-anchor="middle" x="472" y="-119.5" font-family="Helvetica,sans-Serif" font-size="10.00">dl4mt.h</text>
</a>
</g>
</g>
<!-- Node13&#45;&gt;Node14 -->
<g id="edge16" class="edge"><title>Node13&#45;&gt;Node14</title>
<path fill="none" stroke="midnightblue" d="M472,-157.805C472,-148.91 472,-138.78 472,-131.751"/>
<polygon fill="midnightblue" stroke="midnightblue" points="468.5,-158.083 472,-168.083 475.5,-158.083 468.5,-158.083"/>
</g>
<!-- Node15 -->
<g id="node15" class="node"><title>Node15</title>
<g id="a_node15"><a xlink:href="../../d6/da3/language__model_8h.html" target="_top" xlink:title="language_model.h">
<polygon fill="white" stroke="black" points="424.5,-56.5 424.5,-75.5 519.5,-75.5 519.5,-56.5 424.5,-56.5"/>
<text text-anchor="middle" x="472" y="-63.5" font-family="Helvetica,sans-Serif" font-size="10.00">language_model.h</text>
</a>
</g>
</g>
<!-- Node14&#45;&gt;Node15 -->
<g id="edge17" class="edge"><title>Node14&#45;&gt;Node15</title>
<path fill="none" stroke="midnightblue" d="M472,-101.805C472,-92.9102 472,-82.7798 472,-75.7511"/>
<polygon fill="midnightblue" stroke="midnightblue" points="468.5,-102.083 472,-112.083 475.5,-102.083 468.5,-102.083"/>
</g>
<!-- Node16 -->
<g id="node16" class="node"><title>Node16</title>
<g id="a_node16"><a xlink:href="../../d3/d17/class__language__model_8h.html" target="_top" xlink:title="class_language_model.h">
<polygon fill="white" stroke="black" points="410,-0.5 410,-19.5 534,-19.5 534,-0.5 410,-0.5"/>
<text text-anchor="middle" x="472" y="-7.5" font-family="Helvetica,sans-Serif" font-size="10.00">class_language_model.h</text>
</a>
</g>
</g>
<!-- Node15&#45;&gt;Node16 -->
<g id="edge18" class="edge"><title>Node15&#45;&gt;Node16</title>
<path fill="none" stroke="midnightblue" d="M472,-45.8045C472,-36.9102 472,-26.7798 472,-19.7511"/>
<polygon fill="midnightblue" stroke="midnightblue" points="468.5,-46.083 472,-56.083 475.5,-46.083 468.5,-46.083"/>
</g>
<!-- Node24 -->
<g id="node24" class="node"><title>Node24</title>
<g id="a_node24"><a xlink:href="../../d7/d7d/training_2validator_8h.html" target="_top" xlink:title="validator.h">
<polygon fill="white" stroke="black" points="709,-168.5 709,-187.5 771,-187.5 771,-168.5 709,-168.5"/>
<text text-anchor="middle" x="740" y="-175.5" font-family="Helvetica,sans-Serif" font-size="10.00">validator.h</text>
</a>
</g>
</g>
<!-- Node23&#45;&gt;Node24 -->
<g id="edge29" class="edge"><title>Node23&#45;&gt;Node24</title>
<path fill="none" stroke="midnightblue" d="M798.699,-218.622C784.085,-208.757 765.173,-195.992 752.821,-187.655"/>
<polygon fill="midnightblue" stroke="midnightblue" points="796.9,-221.63 807.147,-224.324 800.816,-215.828 796.9,-221.63"/>
</g>
<!-- Node30 -->
<g id="node30" class="node"><title>Node30</title>
<g id="a_node30"><a xlink:href="../../db/df8/marian_2src_2translator_2printer_8cpp.html" target="_top" xlink:title="printer.cpp">
<polygon fill="white" stroke="black" points="789,-168.5 789,-187.5 851,-187.5 851,-168.5 789,-168.5"/>
<text text-anchor="middle" x="820" y="-175.5" font-family="Helvetica,sans-Serif" font-size="10.00">printer.cpp</text>
</a>
</g>
</g>
<!-- Node23&#45;&gt;Node30 -->
<g id="edge39" class="edge"><title>Node23&#45;&gt;Node30</title>
<path fill="none" stroke="midnightblue" d="M820,-213.805C820,-204.91 820,-194.78 820,-187.751"/>
<polygon fill="midnightblue" stroke="midnightblue" points="816.5,-214.083 820,-224.083 823.5,-214.083 816.5,-214.083"/>
</g>
<!-- Node31 -->
<g id="node31" class="node"><title>Node31</title>
<g id="a_node31"><a xlink:href="../../d9/df1/translator_8h.html" target="_top" xlink:title="translator.h">
<polygon fill="white" stroke="black" points="869.5,-168.5 869.5,-187.5 934.5,-187.5 934.5,-168.5 869.5,-168.5"/>
<text text-anchor="middle" x="902" y="-175.5" font-family="Helvetica,sans-Serif" font-size="10.00">translator.h</text>
</a>
</g>
</g>
<!-- Node23&#45;&gt;Node31 -->
<g id="edge40" class="edge"><title>Node23&#45;&gt;Node31</title>
<path fill="none" stroke="midnightblue" d="M841.833,-218.622C856.813,-208.757 876.197,-195.992 888.858,-187.655"/>
<polygon fill="midnightblue" stroke="midnightblue" points="839.601,-215.901 833.175,-224.324 843.451,-221.747 839.601,-215.901"/>
</g>
<!-- Node25 -->
<g id="node25" class="node"><title>Node25</title>
<g id="a_node25"><a xlink:href="../../da/d8c/examples_2mnist_2validator_8h.html" target="_top" xlink:title="validator.h">
<polygon fill="white" stroke="black" points="637,-112.5 637,-131.5 699,-131.5 699,-112.5 637,-112.5"/>
<text text-anchor="middle" x="668" y="-119.5" font-family="Helvetica,sans-Serif" font-size="10.00">validator.h</text>
</a>
</g>
</g>
<!-- Node24&#45;&gt;Node25 -->
<g id="edge30" class="edge"><title>Node24&#45;&gt;Node25</title>
<path fill="none" stroke="midnightblue" d="M720.134,-162.101C707.177,-152.382 690.703,-140.027 679.779,-131.834"/>
<polygon fill="midnightblue" stroke="midnightblue" points="718.332,-165.124 728.432,-168.324 722.532,-159.524 718.332,-165.124"/>
</g>
<!-- Node27 -->
<g id="node27" class="node"><title>Node27</title>
<g id="a_node27"><a xlink:href="../../d8/d9d/graph__group_8h.html" target="_top" xlink:title="graph_group.h">
<polygon fill="white" stroke="black" points="705,-0.5 705,-19.5 783,-19.5 783,-0.5 705,-0.5"/>
<text text-anchor="middle" x="744" y="-7.5" font-family="Helvetica,sans-Serif" font-size="10.00">graph_group.h</text>
</a>
</g>
</g>
<!-- Node24&#45;&gt;Node27 -->
<g id="edge32" class="edge"><title>Node24&#45;&gt;Node27</title>
<path fill="none" stroke="midnightblue" d="M698.912,-171.989C673.885,-166.582 643.78,-155.346 628,-132 623.022,-124.636 627.216,-120.854 628,-112 630.231,-86.816 622.24,-75.7696 638,-56 654.388,-35.4426 681.909,-24.1311 704.801,-17.991"/>
<polygon fill="midnightblue" stroke="midnightblue" points="698.437,-175.461 708.917,-173.908 699.755,-168.587 698.437,-175.461"/>
</g>
<!-- Node28 -->
<g id="node28" class="node"><title>Node28</title>
<g id="a_node28"><a xlink:href="../../d2/dd8/scheduler_8h.html" target="_top" xlink:title="scheduler.h">
<polygon fill="white" stroke="black" points="717.5,-112.5 717.5,-131.5 784.5,-131.5 784.5,-112.5 717.5,-112.5"/>
<text text-anchor="middle" x="751" y="-119.5" font-family="Helvetica,sans-Serif" font-size="10.00">scheduler.h</text>
</a>
</g>
</g>
<!-- Node24&#45;&gt;Node28 -->
<g id="edge33" class="edge"><title>Node24&#45;&gt;Node28</title>
<path fill="none" stroke="midnightblue" d="M743.85,-158.101C745.676,-149.136 747.77,-138.858 749.217,-131.751"/>
<polygon fill="midnightblue" stroke="midnightblue" points="740.383,-157.586 741.816,-168.083 747.242,-158.983 740.383,-157.586"/>
</g>
<!-- Node29 -->
<g id="node29" class="node"><title>Node29</title>
<g id="a_node29"><a xlink:href="../../df/d43/training_2training_8h.html" target="_top" xlink:title="training.h">
<polygon fill="white" stroke="black" points="772,-56.5 772,-75.5 828,-75.5 828,-56.5 772,-56.5"/>
<text text-anchor="middle" x="800" y="-63.5" font-family="Helvetica,sans-Serif" font-size="10.00">training.h</text>
</a>
</g>
</g>
<!-- Node24&#45;&gt;Node29 -->
<g id="edge38" class="edge"><title>Node24&#45;&gt;Node29</title>
<path fill="none" stroke="midnightblue" d="M763.689,-162.912C774.48,-155.195 786.313,-144.625 793,-132 802.668,-113.745 802.127,-88.5934 801.007,-75.5778"/>
<polygon fill="midnightblue" stroke="midnightblue" points="761.742,-160.004 755.377,-168.473 765.634,-165.822 761.742,-160.004"/>
</g>
<!-- Node26 -->
<g id="node26" class="node"><title>Node26</title>
<g id="a_node26"><a xlink:href="../../d2/d10/examples_2mnist_2training_8h.html" target="_top" xlink:title="training.h">
<polygon fill="white" stroke="black" points="647,-56.5 647,-75.5 703,-75.5 703,-56.5 647,-56.5"/>
<text text-anchor="middle" x="675" y="-63.5" font-family="Helvetica,sans-Serif" font-size="10.00">training.h</text>
</a>
</g>
</g>
<!-- Node25&#45;&gt;Node26 -->
<g id="edge31" class="edge"><title>Node25&#45;&gt;Node26</title>
<path fill="none" stroke="midnightblue" d="M670.45,-102.101C671.612,-93.1357 672.944,-82.8579 673.866,-75.7511"/>
<polygon fill="midnightblue" stroke="midnightblue" points="666.971,-101.716 669.156,-112.083 673.912,-102.616 666.971,-101.716"/>
</g>
<!-- Node28&#45;&gt;Node26 -->
<g id="edge34" class="edge"><title>Node28&#45;&gt;Node26</title>
<path fill="none" stroke="midnightblue" d="M730.424,-106.38C716.688,-96.6204 699.075,-84.1057 687.433,-75.8339"/>
<polygon fill="midnightblue" stroke="midnightblue" points="728.61,-109.385 738.789,-112.324 732.665,-103.679 728.61,-109.385"/>
</g>
<!-- Node28&#45;&gt;Node27 -->
<g id="edge35" class="edge"><title>Node28&#45;&gt;Node27</title>
<path fill="none" stroke="midnightblue" d="M749.813,-102.348C748.28,-78.2538 745.674,-37.3079 744.547,-19.5914"/>
<polygon fill="midnightblue" stroke="midnightblue" points="746.323,-102.611 750.451,-112.368 753.308,-102.166 746.323,-102.611"/>
</g>
<!-- Node28&#45;&gt;Node29 -->
<g id="edge36" class="edge"><title>Node28&#45;&gt;Node29</title>
<path fill="none" stroke="midnightblue" d="M766.034,-104.431C774.622,-94.9673 785.043,-83.4827 792.059,-75.7511"/>
<polygon fill="midnightblue" stroke="midnightblue" points="763.219,-102.325 759.091,-112.083 768.403,-107.029 763.219,-102.325"/>
</g>
<!-- Node29&#45;&gt;Node27 -->
<g id="edge37" class="edge"><title>Node29&#45;&gt;Node27</title>
<path fill="none" stroke="midnightblue" d="M783.67,-49.2533C773.735,-39.6731 761.412,-27.7906 753.161,-19.8339"/>
<polygon fill="midnightblue" stroke="midnightblue" points="781.375,-51.902 791.003,-56.324 786.234,-46.8631 781.375,-51.902"/>
</g>
<!-- Node32 -->
<g id="node32" class="node"><title>Node32</title>
<g id="a_node32"><a xlink:href="../../df/df1/s2s__translator_8cpp.html" target="_top" xlink:title="s2s_translator.cpp">
<polygon fill="white" stroke="black" points="853.5,-112.5 853.5,-131.5 950.5,-131.5 950.5,-112.5 853.5,-112.5"/>
<text text-anchor="middle" x="902" y="-119.5" font-family="Helvetica,sans-Serif" font-size="10.00">s2s_translator.cpp</text>
</a>
</g>
</g>
<!-- Node31&#45;&gt;Node32 -->
<g id="edge41" class="edge"><title>Node31&#45;&gt;Node32</title>
<path fill="none" stroke="midnightblue" d="M902,-157.805C902,-148.91 902,-138.78 902,-131.751"/>
<polygon fill="midnightblue" stroke="midnightblue" points="898.5,-158.083 902,-168.083 905.5,-158.083 898.5,-158.083"/>
</g>
</g>
</svg>
        <g id="navigator" transform="translate(0 0)" fill="#404254">
                <rect fill="#f2f5e9" fill-opacity="0.5" stroke="#606060" stroke-width=".5" x="0" y="0" width="60" height="60"/>
                <use id="zoomplus" xlink:href="#zoomPlus" x="17" y="9" onmousedown="handleZoom(evt,'in')"/>
                <use id="zoomminus" xlink:href="#zoomMin" x="42" y="9" onmousedown="handleZoom(evt,'out')"/>
                <use id="reset" xlink:href="#resetDef" x="30" y="36" onmousedown="handleReset()"/>
                <g id="arrowUp" xlink:href="#dirArrow" transform="translate(30 24)" onmousedown="handlePan(0,-1)">
                  <use xlink:href="#rim" fill="#404040">
                        <set attributeName="fill" to="#808080" begin="arrowUp.mouseover" end="arrowUp.mouseout"/>
                  </use>
                  <path fill="none" stroke="white" stroke-width="1.5" d="M0,-3.0v7 M-2.5,-0.5L0,-3.0L2.5,-0.5"/>
                </g>
                <g id="arrowRight" xlink:href="#dirArrow" transform="rotate(90) translate(36 -43)" onmousedown="handlePan(1,0)">
                  <use xlink:href="#rim" fill="#404040">
                        <set attributeName="fill" to="#808080" begin="arrowRight.mouseover" end="arrowRight.mouseout"/>
                  </use>
                  <path fill="none" stroke="white" stroke-width="1.5" d="M0,-3.0v7 M-2.5,-0.5L0,-3.0L2.5,-0.5"/>
                </g>
                <g id="arrowDown" xlink:href="#dirArrow" transform="rotate(180) translate(-30 -48)" onmousedown="handlePan(0,1)">
                  <use xlink:href="#rim" fill="#404040">
                        <set attributeName="fill" to="#808080" begin="arrowDown.mouseover" end="arrowDown.mouseout"/>
                  </use>
                  <path fill="none" stroke="white" stroke-width="1.5" d="M0,-3.0v7 M-2.5,-0.5L0,-3.0L2.5,-0.5"/>
                </g>
                <g id="arrowLeft" xlink:href="#dirArrow" transform="rotate(270) translate(-36 17)" onmousedown="handlePan(-1,0)">
                  <use xlink:href="#rim" fill="#404040">
                        <set attributeName="fill" to="#808080" begin="arrowLeft.mouseover" end="arrowLeft.mouseout"/>
                  </use>
                  <path fill="none" stroke="white" stroke-width="1.5" d="M0,-3.0v7 M-2.5,-0.5L0,-3.0L2.5,-0.5"/>
                </g>
        </g>
        <svg viewBox="0 0 15 15" width="100%" height="30px" preserveAspectRatio="xMaxYMin meet">
         <g id="arrow_out" transform="scale(0.3 0.3)">
          <a xlink:href="marian_2src_2common_2utils_8h__dep__incl_org.svg" target="_base">
           <rect id="button" ry="5" rx="5" y="6" x="6" height="38" width="38"
                fill="#f2f5e9" fill-opacity="0.5" stroke="#606060" stroke-width="1.0"/>
           <path id="arrow"
             d="M 11.500037,31.436501 C 11.940474,20.09759 22.043105,11.32322 32.158766,21.979434 L 37.068811,17.246167 C 37.068811,17.246167 37.088388,32 37.088388,32 L 22.160133,31.978069 C 22.160133,31.978069 26.997745,27.140456 26.997745,27.140456 C 18.528582,18.264221 13.291696,25.230495 11.500037,31.436501 z"
             style="fill:#404040;"/>
          </a>
         </g>
        </svg>
</svg>
