<?xml version="1.0" encoding="UTF-8" standalone="no"?>
<!DOCTYPE svg PUBLIC "-//W3C//DTD SVG 1.1//EN"
 "http://www.w3.org/Graphics/SVG/1.1/DTD/svg11.dtd">
<!-- Generated by graphviz version 2.38.0 (20140413.2041)
 -->
<!-- Title: amunmt::OutputCollector Pages: 1 -->
<svg width="220pt" height="511pt"
 viewBox="0.00 0.00 219.50 511.00" xmlns="http://www.w3.org/2000/svg" xmlns:xlink="http://www.w3.org/1999/xlink">
<g id="graph0" class="graph" transform="scale(1 1) rotate(0) translate(4 507)">
<title>amunmt::OutputCollector</title>
<polygon fill="white" stroke="none" points="-4,4 -4,-507 215.5,-507 215.5,4 -4,4"/>
<!-- Node1 -->
<g id="node1" class="node"><title>Node1</title>
<polygon fill="#bfbfbf" stroke="black" points="30.5,-0.5 30.5,-90.5 156.5,-90.5 156.5,-0.5 30.5,-0.5"/>
<text text-anchor="middle" x="93.5" y="-78.5" font-family="Helvetica,sans-Serif" font-size="10.00">amunmt::OutputCollector</text>
<polyline fill="none" stroke="black" points="30.5,-71.5 156.5,-71.5 "/>
<text text-anchor="start" x="38.5" y="-59.5" font-family="Helvetica,sans-Serif" font-size="10.00"># mutex_</text>
<text text-anchor="start" x="38.5" y="-48.5" font-family="Helvetica,sans-Serif" font-size="10.00"># nextId_</text>
<polyline fill="none" stroke="black" points="30.5,-41.5 156.5,-41.5 "/>
<text text-anchor="start" x="38.5" y="-29.5" font-family="Helvetica,sans-Serif" font-size="10.00">+ OutputCollector()</text>
<text text-anchor="start" x="38.5" y="-18.5" font-family="Helvetica,sans-Serif" font-size="10.00">+ OutputCollector()</text>
<text text-anchor="start" x="38.5" y="-7.5" font-family="Helvetica,sans-Serif" font-size="10.00">+ Write()</text>
</g>
<!-- Node2 -->
<g id="node2" class="node"><title>Node2</title>
<polygon fill="white" stroke="#bfbfbf" points="0,-138.5 0,-206.5 101,-206.5 101,-138.5 0,-138.5"/>
<text text-anchor="start" x="8" y="-194.5" font-family="Helvetica,sans-Serif" font-size="10.00">std::map&lt; long, std</text>
<text text-anchor="middle" x="50.5" y="-183.5" font-family="Helvetica,sans-Serif" font-size="10.00">::string &gt;</text>
<polyline fill="none" stroke="#bfbfbf" points="0,-176.5 101,-176.5 "/>
<text text-anchor="middle" x="50.5" y="-164.5" font-family="Helvetica,sans-Serif" font-size="10.00"> </text>
<polyline fill="none" stroke="#bfbfbf" points="0,-157.5 101,-157.5 "/>
<text text-anchor="middle" x="50.5" y="-145.5" font-family="Helvetica,sans-Serif" font-size="10.00"> </text>
</g>
<!-- Node2&#45;&gt;Node1 -->
<g id="edge1" class="edge"><title>Node2&#45;&gt;Node1</title>
<path fill="none" stroke="#404040" d="M59.4157,-138.222C62.1412,-128.722 65.2758,-118.399 68.5,-109 69.2679,-106.762 70.0707,-104.486 70.8982,-102.194"/>
<polygon fill="none" stroke="#404040" points="70.9987,-101.924 69.3479,-94.9043 75.1926,-90.6807 76.8434,-97.7003 70.9987,-101.924"/>
<text text-anchor="middle" x="91.5" y="-112" font-family="Helvetica,sans-Serif" font-size="10.00"> #outputs_</text>
</g>
<!-- Node3 -->
<g id="node3" class="node"><title>Node3</title>
<g id="a_node3"><a xlink:title="STL class. ">
<polygon fill="white" stroke="#bfbfbf" points="119,-144 119,-201 190,-201 190,-144 119,-144"/>
<text text-anchor="middle" x="154.5" y="-189" font-family="Helvetica,sans-Serif" font-size="10.00">std::ostream</text>
<polyline fill="none" stroke="#bfbfbf" points="119,-182 190,-182 "/>
<text text-anchor="middle" x="154.5" y="-170" font-family="Helvetica,sans-Serif" font-size="10.00"> </text>
<polyline fill="none" stroke="#bfbfbf" points="119,-163 190,-163 "/>
<text text-anchor="middle" x="154.5" y="-151" font-family="Helvetica,sans-Serif" font-size="10.00"> </text>
</a>
</g>
</g>
<!-- Node3&#45;&gt;Node1 -->
<g id="edge2" class="edge"><title>Node3&#45;&gt;Node1</title>
<path fill="none" stroke="#404040" d="M140.962,-143.758C134.921,-131.378 127.577,-116.33 120.49,-101.807"/>
<polygon fill="none" stroke="#404040" points="120.409,-101.641 114.182,-98.0027 115.146,-90.8562 121.372,-94.4942 120.409,-101.641"/>
<text text-anchor="middle" x="152" y="-112" font-family="Helvetica,sans-Serif" font-size="10.00"> #outStrm_</text>
</g>
<!-- Node4 -->
<g id="node4" class="node"><title>Node4</title>
<polygon fill="white" stroke="#bfbfbf" points="104.5,-244.5 104.5,-312.5 204.5,-312.5 204.5,-244.5 104.5,-244.5"/>
<text text-anchor="start" x="112.5" y="-300.5" font-family="Helvetica,sans-Serif" font-size="10.00">std::basic_ostream</text>
<text text-anchor="middle" x="154.5" y="-289.5" font-family="Helvetica,sans-Serif" font-size="10.00">&lt; char &gt;</text>
<polyline fill="none" stroke="#bfbfbf" points="104.5,-282.5 204.5,-282.5 "/>
<text text-anchor="middle" x="154.5" y="-270.5" font-family="Helvetica,sans-Serif" font-size="10.00"> </text>
<polyline fill="none" stroke="#bfbfbf" points="104.5,-263.5 204.5,-263.5 "/>
<text text-anchor="middle" x="154.5" y="-251.5" font-family="Helvetica,sans-Serif" font-size="10.00"> </text>
</g>
<!-- Node4&#45;&gt;Node3 -->
<g id="edge3" class="edge"><title>Node4&#45;&gt;Node3</title>
<path fill="none" stroke="midnightblue" d="M154.5,-234.247C154.5,-223.054 154.5,-211.304 154.5,-201.154"/>
<polygon fill="none" stroke="midnightblue" points="151,-234.308 154.5,-244.308 158,-234.308 151,-234.308"/>
</g>
<!-- Node5 -->
<g id="node5" class="node"><title>Node5</title>
<polygon fill="white" stroke="#bfbfbf" points="97.5,-350.5 97.5,-407.5 211.5,-407.5 211.5,-350.5 97.5,-350.5"/>
<text text-anchor="middle" x="154.5" y="-395.5" font-family="Helvetica,sans-Serif" font-size="10.00">std::basic_ios&lt; char &gt;</text>
<polyline fill="none" stroke="#bfbfbf" points="97.5,-388.5 211.5,-388.5 "/>
<text text-anchor="middle" x="154.5" y="-376.5" font-family="Helvetica,sans-Serif" font-size="10.00"> </text>
<polyline fill="none" stroke="#bfbfbf" points="97.5,-369.5 211.5,-369.5 "/>
<text text-anchor="middle" x="154.5" y="-357.5" font-family="Helvetica,sans-Serif" font-size="10.00"> </text>
</g>
<!-- Node5&#45;&gt;Node4 -->
<g id="edge4" class="edge"><title>Node5&#45;&gt;Node4</title>
<path fill="none" stroke="midnightblue" d="M154.5,-340.007C154.5,-330.962 154.5,-321.383 154.5,-312.578"/>
<polygon fill="none" stroke="midnightblue" points="151,-340.3 154.5,-350.3 158,-340.3 151,-340.3"/>
</g>
<!-- Node6 -->
<g id="node6" class="node"><title>Node6</title>
<g id="a_node6"><a xlink:title="STL class. ">
<polygon fill="white" stroke="#bfbfbf" points="117,-445.5 117,-502.5 192,-502.5 192,-445.5 117,-445.5"/>
<text text-anchor="middle" x="154.5" y="-490.5" font-family="Helvetica,sans-Serif" font-size="10.00">std::ios_base</text>
<polyline fill="none" stroke="#bfbfbf" points="117,-483.5 192,-483.5 "/>
<text text-anchor="middle" x="154.5" y="-471.5" font-family="Helvetica,sans-Serif" font-size="10.00"> </text>
<polyline fill="none" stroke="#bfbfbf" points="117,-464.5 192,-464.5 "/>
<text text-anchor="middle" x="154.5" y="-452.5" font-family="Helvetica,sans-Serif" font-size="10.00"> </text>
</a>
</g>
</g>
<!-- Node6&#45;&gt;Node5 -->
<g id="edge5" class="edge"><title>Node6&#45;&gt;Node5</title>
<path fill="none" stroke="midnightblue" d="M154.5,-435.235C154.5,-426.028 154.5,-416.346 154.5,-407.705"/>
<polygon fill="none" stroke="midnightblue" points="151,-435.349 154.5,-445.349 158,-435.349 151,-435.349"/>
</g>
</g>
</svg>
