<?xml version="1.0" encoding="UTF-8" standalone="no"?>
<!DOCTYPE svg PUBLIC "-//W3C//DTD SVG 1.1//EN"
 "http://www.w3.org/Graphics/SVG/1.1/DTD/svg11.dtd">
<!-- Generated by graphviz version 2.38.0 (20140413.2041)
 -->
<!-- Title: marian::TimestepNodeOp::hash Pages: 1 -->
<!--zoomable 154 -->
<svg id="main" version="1.1" xmlns="http://www.w3.org/2000/svg" xmlns:xlink="http://www.w3.org/1999/xlink" xml:space="preserve" onload="init(evt)">
<style type="text/css"><![CDATA[
.edge:hover path { stroke: red; }
.edge:hover polygon { stroke: red; fill: red; }
]]></style>
<script type="text/javascript"><![CDATA[
var edges = document.getElementsByTagName('g');
if (edges && edges.length) {
  for (var i=0;i<edges.length;i++) {
    if (edges[i].id.substr(0,4)=='edge') {
      edges[i].setAttribute('class','edge');
    }
  }
}
]]></script>
        <defs>
                <circle id="rim" cx="0" cy="0" r="7"/>
                <circle id="rim2" cx="0" cy="0" r="3.5"/>
                <g id="zoomPlus">
                        <use xlink:href="#rim" fill="#404040">
                                <set attributeName="fill" to="#808080" begin="zoomplus.mouseover" end="zoomplus.mouseout"/>
                        </use>
                        <path d="M-4,0h8M0,-4v8" fill="none" stroke="white" stroke-width="1.5" pointer-events="none"/>
                </g>
                <g id="zoomMin">
                        <use xlink:href="#rim" fill="#404040">
                                <set attributeName="fill" to="#808080" begin="zoomminus.mouseover" end="zoomminus.mouseout"/>
                        </use>
                        <path d="M-4,0h8" fill="none" stroke="white" stroke-width="1.5" pointer-events="none"/>
                </g>
                <g id="dirArrow">
                        <path fill="none" stroke="white" stroke-width="1.5" d="M0,-3.0v7 M-2.5,-0.5L0,-3.0L2.5,-0.5"/>
                </g>
               <g id="resetDef">
                       <use xlink:href="#rim2" fill="#404040">
                               <set attributeName="fill" to="#808080" begin="reset.mouseover" end="reset.mouseout"/>
                       </use>
               </g>
        </defs>

<script type="text/javascript">
var viewWidth = 591;
var viewHeight = 154;
var sectionId = 'dynsection-3';
</script>
<script xlink:href="../../svgpan.js"/>
<svg id="graph" class="graph">
<g id="viewport">
<title>marian::TimestepNodeOp::hash</title>
<polygon fill="white" stroke="none" points="-4,4 -4,-150 587,-150 587,4 -4,4"/>
<!-- Node1 -->
<g id="node1" class="node"><title>Node1</title>
<polygon fill="#bfbfbf" stroke="black" points="0,-99 0,-129 128,-129 128,-99 0,-99"/>
<text text-anchor="start" x="8" y="-117" font-family="Helvetica,sans-Serif" font-size="10.00">marian::TimestepNodeOp</text>
<text text-anchor="middle" x="64" y="-106" font-family="Helvetica,sans-Serif" font-size="10.00">::hash</text>
</g>
<!-- Node2 -->
<g id="node2" class="node"><title>Node2</title>
<g id="a_node2"><a xlink:href="../../d0/da7/structmarian_1_1NaryNodeOp.html#ab1b6a692080382203afe5ceaf0c4279d" target="_top" xlink:title="marian::NaryNodeOp\l::hash">
<polygon fill="white" stroke="black" points="164,-77 164,-107 273,-107 273,-77 164,-77"/>
<text text-anchor="start" x="172" y="-95" font-family="Helvetica,sans-Serif" font-size="10.00">marian::NaryNodeOp</text>
<text text-anchor="middle" x="218.5" y="-84" font-family="Helvetica,sans-Serif" font-size="10.00">::hash</text>
</a>
</g>
</g>
<!-- Node1&#45;&gt;Node2 -->
<g id="edge1" class="edge"><title>Node1&#45;&gt;Node2</title>
<path fill="none" stroke="midnightblue" d="M128.349,-104.861C136.727,-103.653 145.318,-102.413 153.704,-101.203"/>
<polygon fill="midnightblue" stroke="midnightblue" points="154.403,-104.639 163.801,-99.7467 153.404,-97.7105 154.403,-104.639"/>
</g>
<!-- Node4 -->
<g id="node4" class="node"><title>Node4</title>
<g id="a_node4"><a xlink:href="../../dd/d80/bpe_8h.html#a04cc1b733a2f4d205f13f7a59facba64" target="_top" xlink:title="hash_combine">
<polygon fill="white" stroke="black" points="321.5,-126.5 321.5,-145.5 401.5,-145.5 401.5,-126.5 321.5,-126.5"/>
<text text-anchor="middle" x="361.5" y="-133.5" font-family="Helvetica,sans-Serif" font-size="10.00">hash_combine</text>
</a>
</g>
</g>
<!-- Node1&#45;&gt;Node4 -->
<g id="edge7" class="edge"><title>Node1&#45;&gt;Node4</title>
<path fill="none" stroke="midnightblue" d="M128.03,-118.693C182.739,-122.766 260.855,-128.581 311.125,-132.324"/>
<polygon fill="midnightblue" stroke="midnightblue" points="310.869,-135.815 321.102,-133.067 311.389,-128.834 310.869,-135.815"/>
</g>
<!-- Node3 -->
<g id="node3" class="node"><title>Node3</title>
<g id="a_node3"><a xlink:href="../../d0/d7a/classmarian_1_1Node.html#ad5437ac41eaa8316791698db9ad46ab0" target="_top" xlink:title="marian::Node::name">
<polygon fill="white" stroke="black" points="309,-88.5 309,-107.5 414,-107.5 414,-88.5 309,-88.5"/>
<text text-anchor="middle" x="361.5" y="-95.5" font-family="Helvetica,sans-Serif" font-size="10.00">marian::Node::name</text>
</a>
</g>
</g>
<!-- Node2&#45;&gt;Node3 -->
<g id="edge2" class="edge"><title>Node2&#45;&gt;Node3</title>
<path fill="none" stroke="midnightblue" d="M273.208,-94.2855C281.508,-94.6386 290.137,-95.0058 298.598,-95.3659"/>
<polygon fill="midnightblue" stroke="midnightblue" points="298.662,-98.8717 308.802,-95.8001 298.96,-91.878 298.662,-98.8717"/>
</g>
<!-- Node2&#45;&gt;Node4 -->
<g id="edge3" class="edge"><title>Node2&#45;&gt;Node4</title>
<path fill="none" stroke="midnightblue" d="M267.63,-107.019C284.675,-112.338 303.667,-118.265 320.012,-123.365"/>
<polygon fill="midnightblue" stroke="midnightblue" points="319.217,-126.784 329.806,-126.422 321.303,-120.102 319.217,-126.784"/>
</g>
<!-- Node5 -->
<g id="node5" class="node"><title>Node5</title>
<g id="a_node5"><a xlink:href="../../de/dff/classmarian_1_1Chainable.html#a2b7a5cbdac7a7d3bd7d781a6ff148fc3" target="_top" xlink:title="marian::Chainable\&lt;\l Tensor \&gt;::type">
<polygon fill="white" stroke="black" points="311,-39 311,-69 412,-69 412,-39 311,-39"/>
<text text-anchor="start" x="319" y="-57" font-family="Helvetica,sans-Serif" font-size="10.00">marian::Chainable&lt;</text>
<text text-anchor="middle" x="361.5" y="-46" font-family="Helvetica,sans-Serif" font-size="10.00"> Tensor &gt;::type</text>
</a>
</g>
</g>
<!-- Node2&#45;&gt;Node5 -->
<g id="edge4" class="edge"><title>Node2&#45;&gt;Node5</title>
<path fill="none" stroke="midnightblue" d="M273.208,-77.5254C282.238,-75.0918 291.659,-72.5529 300.829,-70.0816"/>
<polygon fill="midnightblue" stroke="midnightblue" points="301.906,-73.4162 310.651,-67.4346 300.084,-66.6574 301.906,-73.4162"/>
</g>
<!-- Node6 -->
<g id="node6" class="node"><title>Node6</title>
<g id="a_node6"><a xlink:href="../../d0/d7a/classmarian_1_1Node.html#a71a9c8ad6ba12d421fa97222d74a90b9" target="_top" xlink:title="marian::Node::child">
<polygon fill="white" stroke="black" points="311,-0.5 311,-19.5 412,-19.5 412,-0.5 311,-0.5"/>
<text text-anchor="middle" x="361.5" y="-7.5" font-family="Helvetica,sans-Serif" font-size="10.00">marian::Node::child</text>
</a>
</g>
</g>
<!-- Node2&#45;&gt;Node6 -->
<g id="edge5" class="edge"><title>Node2&#45;&gt;Node6</title>
<path fill="none" stroke="midnightblue" d="M237.786,-76.9779C255.26,-63.1579 282.754,-42.7775 309,-29 312.797,-27.0068 316.851,-25.1272 320.953,-23.3829"/>
<polygon fill="midnightblue" stroke="midnightblue" points="322.525,-26.5243 330.517,-19.5686 319.931,-20.0223 322.525,-26.5243"/>
</g>
<!-- Node7 -->
<g id="node7" class="node"><title>Node7</title>
<g id="a_node7"><a xlink:href="../../d0/d7a/classmarian_1_1Node.html#a4aa5aa482c70595fa5d43c1fbabf5c18" target="_top" xlink:title="marian::Node::getBackend">
<polygon fill="white" stroke="black" points="450,-0.5 450,-19.5 583,-19.5 583,-0.5 450,-0.5"/>
<text text-anchor="middle" x="516.5" y="-7.5" font-family="Helvetica,sans-Serif" font-size="10.00">marian::Node::getBackend</text>
</a>
</g>
</g>
<!-- Node6&#45;&gt;Node7 -->
<g id="edge6" class="edge"><title>Node6&#45;&gt;Node7</title>
<path fill="none" stroke="midnightblue" d="M412.175,-10C421.018,-10 430.408,-10 439.783,-10"/>
<polygon fill="midnightblue" stroke="midnightblue" points="439.922,-13.5001 449.922,-10 439.922,-6.5001 439.922,-13.5001"/>
</g>
</g>
</svg>
        <g id="navigator" transform="translate(0 0)" fill="#404254">
                <rect fill="#f2f5e9" fill-opacity="0.5" stroke="#606060" stroke-width=".5" x="0" y="0" width="60" height="60"/>
                <use id="zoomplus" xlink:href="#zoomPlus" x="17" y="9" onmousedown="handleZoom(evt,'in')"/>
                <use id="zoomminus" xlink:href="#zoomMin" x="42" y="9" onmousedown="handleZoom(evt,'out')"/>
                <use id="reset" xlink:href="#resetDef" x="30" y="36" onmousedown="handleReset()"/>
                <g id="arrowUp" xlink:href="#dirArrow" transform="translate(30 24)" onmousedown="handlePan(0,-1)">
                  <use xlink:href="#rim" fill="#404040">
                        <set attributeName="fill" to="#808080" begin="arrowUp.mouseover" end="arrowUp.mouseout"/>
                  </use>
                  <path fill="none" stroke="white" stroke-width="1.5" d="M0,-3.0v7 M-2.5,-0.5L0,-3.0L2.5,-0.5"/>
                </g>
                <g id="arrowRight" xlink:href="#dirArrow" transform="rotate(90) translate(36 -43)" onmousedown="handlePan(1,0)">
                  <use xlink:href="#rim" fill="#404040">
                        <set attributeName="fill" to="#808080" begin="arrowRight.mouseover" end="arrowRight.mouseout"/>
                  </use>
                  <path fill="none" stroke="white" stroke-width="1.5" d="M0,-3.0v7 M-2.5,-0.5L0,-3.0L2.5,-0.5"/>
                </g>
                <g id="arrowDown" xlink:href="#dirArrow" transform="rotate(180) translate(-30 -48)" onmousedown="handlePan(0,1)">
                  <use xlink:href="#rim" fill="#404040">
                        <set attributeName="fill" to="#808080" begin="arrowDown.mouseover" end="arrowDown.mouseout"/>
                  </use>
                  <path fill="none" stroke="white" stroke-width="1.5" d="M0,-3.0v7 M-2.5,-0.5L0,-3.0L2.5,-0.5"/>
                </g>
                <g id="arrowLeft" xlink:href="#dirArrow" transform="rotate(270) translate(-36 17)" onmousedown="handlePan(-1,0)">
                  <use xlink:href="#rim" fill="#404040">
                        <set attributeName="fill" to="#808080" begin="arrowLeft.mouseover" end="arrowLeft.mouseout"/>
                  </use>
                  <path fill="none" stroke="white" stroke-width="1.5" d="M0,-3.0v7 M-2.5,-0.5L0,-3.0L2.5,-0.5"/>
                </g>
        </g>
        <svg viewBox="0 0 15 15" width="100%" height="30px" preserveAspectRatio="xMaxYMin meet">
         <g id="arrow_out" transform="scale(0.3 0.3)">
          <a xlink:href="classmarian_1_1TimestepNodeOp_a43f50885f973fe1e849f1c940eeb2107_cgraph_org.svg" target="_base">
           <rect id="button" ry="5" rx="5" y="6" x="6" height="38" width="38"
                fill="#f2f5e9" fill-opacity="0.5" stroke="#606060" stroke-width="1.0"/>
           <path id="arrow"
             d="M 11.500037,31.436501 C 11.940474,20.09759 22.043105,11.32322 32.158766,21.979434 L 37.068811,17.246167 C 37.068811,17.246167 37.088388,32 37.088388,32 L 22.160133,31.978069 C 22.160133,31.978069 26.997745,27.140456 26.997745,27.140456 C 18.528582,18.264221 13.291696,25.230495 11.500037,31.436501 z"
             style="fill:#404040;"/>
          </a>
         </g>
        </svg>
</svg>
