<?xml version="1.0" encoding="UTF-8" standalone="no"?>
<!DOCTYPE svg PUBLIC "-//W3C//DTD SVG 1.1//EN"
 "http://www.w3.org/Graphics/SVG/1.1/DTD/svg11.dtd">
<!-- Generated by graphviz version 2.38.0 (20140413.2041)
 -->
<!-- Title: main Pages: 1 -->
<svg width="994pt" height="769pt"
 viewBox="0.00 0.00 994.00 768.84" xmlns="http://www.w3.org/2000/svg" xmlns:xlink="http://www.w3.org/1999/xlink">
<g id="graph0" class="graph" transform="scale(1 1) rotate(0) translate(4 764.837)">
<title>main</title>
<polygon fill="white" stroke="none" points="-4,4 -4,-764.837 990,-764.837 990,4 -4,4"/>
<!-- Node1 -->
<g id="node1" class="node"><title>Node1</title>
<polygon fill="#bfbfbf" stroke="black" points="0,-447.337 0,-466.337 38,-466.337 38,-447.337 0,-447.337"/>
<text text-anchor="middle" x="19" y="-454.337" font-family="Helvetica,sans-Serif" font-size="10.00">main</text>
</g>
<!-- Node2 -->
<g id="node2" class="node"><title>Node2</title>
<g id="a_node2"><a xlink:href="$d7/d4e/classamunmt_1_1God.html#add49c80e570f5be5b2802565458f1c36" xlink:title="amunmt::God::Init">
<polygon fill="white" stroke="black" points="102,-573.337 102,-592.337 197,-592.337 197,-573.337 102,-573.337"/>
<text text-anchor="middle" x="149.5" y="-580.337" font-family="Helvetica,sans-Serif" font-size="10.00">amunmt::God::Init</text>
</a>
</g>
</g>
<!-- Node1&#45;&gt;Node2 -->
<g id="edge1" class="edge"><title>Node1&#45;&gt;Node2</title>
<path fill="none" stroke="midnightblue" d="M22.4629,-466.552C28.0805,-486.745 43.7531,-533.476 74,-558.837 79.3869,-563.354 85.6391,-567.025 92.1868,-570.009"/>
<polygon fill="midnightblue" stroke="midnightblue" points="91.3405,-573.44 101.925,-573.905 93.941,-566.941 91.3405,-573.44"/>
</g>
<!-- Node3 -->
<g id="node3" class="node"><title>Node3</title>
<g id="a_node3"><a xlink:href="$d7/d4e/classamunmt_1_1God.html#ad0d3efbdf165ba0bc4de9052a826f7b6" xlink:title="amunmt::God::Get">
<polygon fill="white" stroke="black" points="493,-515.337 493,-534.337 591,-534.337 591,-515.337 493,-515.337"/>
<text text-anchor="middle" x="542" y="-522.337" font-family="Helvetica,sans-Serif" font-size="10.00">amunmt::God::Get</text>
</a>
</g>
</g>
<!-- Node1&#45;&gt;Node3 -->
<g id="edge2" class="edge"><title>Node1&#45;&gt;Node3</title>
<path fill="none" stroke="midnightblue" d="M24.081,-466.458C31.4016,-482.304 48.4282,-513.378 74,-525.837 144.255,-560.067 373.528,-542.176 482.481,-531.252"/>
<polygon fill="midnightblue" stroke="midnightblue" points="483.046,-534.713 492.64,-530.219 482.337,-527.749 483.046,-534.713"/>
</g>
<!-- Node5 -->
<g id="node5" class="node"><title>Node5</title>
<g id="a_node5"><a xlink:href="$d7/d4e/classamunmt_1_1God.html#aa118cbeda9e332f518135b027aff3ac2" xlink:title="amunmt::God::GetInputStream">
<polygon fill="white" stroke="black" points="74,-447.337 74,-466.337 225,-466.337 225,-447.337 74,-447.337"/>
<text text-anchor="middle" x="149.5" y="-454.337" font-family="Helvetica,sans-Serif" font-size="10.00">amunmt::God::GetInputStream</text>
</a>
</g>
</g>
<!-- Node1&#45;&gt;Node5 -->
<g id="edge4" class="edge"><title>Node1&#45;&gt;Node5</title>
<path fill="none" stroke="midnightblue" d="M38.1384,-456.837C45.3268,-456.837 54.1428,-456.837 63.6298,-456.837"/>
<polygon fill="midnightblue" stroke="midnightblue" points="63.7191,-460.337 73.7191,-456.837 63.719,-453.337 63.7191,-460.337"/>
</g>
<!-- Node6 -->
<g id="node6" class="node"><title>Node6</title>
<g id="a_node6"><a xlink:href="$d7/d4e/classamunmt_1_1God.html#adad806b2183b4dbf8c27c6078effb9b5" xlink:title="amunmt::God::GetThreadPool">
<polygon fill="white" stroke="black" points="76,-409.337 76,-428.337 223,-428.337 223,-409.337 76,-409.337"/>
<text text-anchor="middle" x="149.5" y="-416.337" font-family="Helvetica,sans-Serif" font-size="10.00">amunmt::God::GetThreadPool</text>
</a>
</g>
</g>
<!-- Node1&#45;&gt;Node6 -->
<g id="edge5" class="edge"><title>Node1&#45;&gt;Node6</title>
<path fill="none" stroke="midnightblue" d="M38.3609,-449.922C48.7463,-446.126 62.015,-441.466 74,-437.837 81.9017,-435.445 90.334,-433.099 98.5794,-430.917"/>
<polygon fill="midnightblue" stroke="midnightblue" points="99.6948,-434.244 108.496,-428.346 97.9374,-427.468 99.6948,-434.244"/>
</g>
<!-- Node7 -->
<g id="node7" class="node"><title>Node7</title>
<g id="a_node7"><a xlink:href="$d9/de5/classamunmt_1_1ThreadPool.html#a1bb89599cb11af51958c771c437aff22" xlink:title="amunmt::ThreadPool\l::enqueue">
<polygon fill="white" stroke="black" points="96,-359.837 96,-389.837 203,-389.837 203,-359.837 96,-359.837"/>
<text text-anchor="start" x="104" y="-377.837" font-family="Helvetica,sans-Serif" font-size="10.00">amunmt::ThreadPool</text>
<text text-anchor="middle" x="149.5" y="-366.837" font-family="Helvetica,sans-Serif" font-size="10.00">::enqueue</text>
</a>
</g>
</g>
<!-- Node1&#45;&gt;Node7 -->
<g id="edge6" class="edge"><title>Node1&#45;&gt;Node7</title>
<path fill="none" stroke="midnightblue" d="M26.9179,-446.967C36.2451,-434.345 54.0067,-412.598 74,-399.837 77.8561,-397.376 81.9801,-395.131 86.2358,-393.087"/>
<polygon fill="midnightblue" stroke="midnightblue" points="87.9594,-396.153 95.7096,-388.929 85.1461,-389.743 87.9594,-396.153"/>
</g>
<!-- Node8 -->
<g id="node8" class="node"><title>Node8</title>
<g id="a_node8"><a xlink:href="$d7/dd3/namespaceamunmt.html#aac616d7d6dd75bad96a6dcf3afe74e85" xlink:title="amunmt::TranslationTaskAnd\lOutput">
<polygon fill="white" stroke="black" points="77,-485.837 77,-515.837 222,-515.837 222,-485.837 77,-485.837"/>
<text text-anchor="start" x="85" y="-503.837" font-family="Helvetica,sans-Serif" font-size="10.00">amunmt::TranslationTaskAnd</text>
<text text-anchor="middle" x="149.5" y="-492.837" font-family="Helvetica,sans-Serif" font-size="10.00">Output</text>
</a>
</g>
</g>
<!-- Node1&#45;&gt;Node8 -->
<g id="edge7" class="edge"><title>Node1&#45;&gt;Node8</title>
<path fill="none" stroke="midnightblue" d="M38.4712,-463.411C48.8911,-467.101 62.1576,-471.767 74,-475.837 80.3281,-478.012 86.966,-480.271 93.5628,-482.503"/>
<polygon fill="midnightblue" stroke="midnightblue" points="92.5633,-485.859 103.157,-485.739 94.8005,-479.226 92.5633,-485.859"/>
</g>
<!-- Node36 -->
<g id="node36" class="node"><title>Node36</title>
<g id="a_node36"><a xlink:href="$d7/d4e/classamunmt_1_1God.html#a5a2cd8055526b5da47e255a7f75ea6cd" xlink:title="amunmt::God::Cleanup">
<polygon fill="white" stroke="black" points="90.5,-321.337 90.5,-340.337 208.5,-340.337 208.5,-321.337 90.5,-321.337"/>
<text text-anchor="middle" x="149.5" y="-328.337" font-family="Helvetica,sans-Serif" font-size="10.00">amunmt::God::Cleanup</text>
</a>
</g>
</g>
<!-- Node1&#45;&gt;Node36 -->
<g id="edge41" class="edge"><title>Node1&#45;&gt;Node36</title>
<path fill="none" stroke="midnightblue" d="M22.0372,-447.142C26.992,-426.039 41.7131,-375.763 74,-349.837 76.293,-347.996 78.7431,-346.331 81.3062,-344.825"/>
<polygon fill="midnightblue" stroke="midnightblue" points="83.0038,-347.89 90.3926,-340.297 79.8813,-341.625 83.0038,-347.89"/>
</g>
<!-- Node4 -->
<g id="node4" class="node"><title>Node4</title>
<g id="a_node4"><a xlink:href="$da/d4e/classamunmt_1_1Config.html#a5257f41272d06c35bebe8130b5897d23" xlink:title="amunmt::Config::Get">
<polygon fill="white" stroke="black" points="675,-439.337 675,-458.337 783,-458.337 783,-439.337 675,-439.337"/>
<text text-anchor="middle" x="729" y="-446.337" font-family="Helvetica,sans-Serif" font-size="10.00">amunmt::Config::Get</text>
</a>
</g>
</g>
<!-- Node3&#45;&gt;Node4 -->
<g id="edge3" class="edge"><title>Node3&#45;&gt;Node4</title>
<path fill="none" stroke="midnightblue" d="M591.226,-517.55C601.47,-514.8 611.923,-511.022 621,-505.837 640.922,-494.456 637.284,-480.571 657,-468.837 661.426,-466.203 666.214,-463.903 671.14,-461.897"/>
<polygon fill="midnightblue" stroke="midnightblue" points="672.537,-465.113 680.727,-458.392 670.133,-458.539 672.537,-465.113"/>
</g>
<!-- Node9 -->
<g id="node9" class="node"><title>Node9</title>
<g id="a_node9"><a xlink:href="$d7/d4e/classamunmt_1_1God.html#ab8af5f6cc4352c053f42f4e707a281f9" xlink:title="amunmt::God::GetOutputCollector">
<polygon fill="white" stroke="black" points="261,-497.337 261,-516.337 427,-516.337 427,-497.337 261,-497.337"/>
<text text-anchor="middle" x="344" y="-504.337" font-family="Helvetica,sans-Serif" font-size="10.00">amunmt::God::GetOutputCollector</text>
</a>
</g>
</g>
<!-- Node8&#45;&gt;Node9 -->
<g id="edge8" class="edge"><title>Node8&#45;&gt;Node9</title>
<path fill="none" stroke="midnightblue" d="M222.18,-503.071C231.542,-503.363 241.236,-503.665 250.874,-503.966"/>
<polygon fill="midnightblue" stroke="midnightblue" points="250.779,-507.464 260.883,-504.278 250.997,-500.468 250.779,-507.464"/>
</g>
<!-- Node10 -->
<g id="node10" class="node"><title>Node10</title>
<g id="a_node10"><a xlink:href="$d7/dd3/namespaceamunmt.html#a54e0c0c0dd1caecba5c17e45d023fd5e" xlink:title="amunmt::TranslationTask">
<polygon fill="white" stroke="black" points="280,-593.337 280,-612.337 408,-612.337 408,-593.337 280,-593.337"/>
<text text-anchor="middle" x="344" y="-600.337" font-family="Helvetica,sans-Serif" font-size="10.00">amunmt::TranslationTask</text>
</a>
</g>
</g>
<!-- Node8&#45;&gt;Node10 -->
<g id="edge9" class="edge"><title>Node8&#45;&gt;Node10</title>
<path fill="none" stroke="midnightblue" d="M178.904,-515.888C215.77,-535.422 279.655,-569.272 315.88,-588.467"/>
<polygon fill="midnightblue" stroke="midnightblue" points="314.415,-591.652 324.89,-593.241 317.693,-585.467 314.415,-591.652"/>
</g>
<!-- Node22 -->
<g id="node22" class="node"><title>Node22</title>
<g id="a_node22"><a xlink:href="$db/d94/classamunmt_1_1History.html#aab6c98bebac14e388e23ea849b0bba8b" xlink:title="amunmt::History::GetLineNum">
<polygon fill="white" stroke="black" points="467,-477.337 467,-496.337 617,-496.337 617,-477.337 467,-477.337"/>
<text text-anchor="middle" x="542" y="-484.337" font-family="Helvetica,sans-Serif" font-size="10.00">amunmt::History::GetLineNum</text>
</a>
</g>
</g>
<!-- Node8&#45;&gt;Node22 -->
<g id="edge23" class="edge"><title>Node8&#45;&gt;Node22</title>
<path fill="none" stroke="midnightblue" d="M205.587,-485.708C212.355,-482.888 218.995,-479.614 225,-475.837 244.422,-463.622 239.863,-447.762 261,-438.837 328.967,-410.138 356.388,-417.458 427,-438.837 445.405,-444.41 445.629,-454.59 463,-462.837 472.215,-467.212 482.417,-471.025 492.321,-474.245"/>
<polygon fill="midnightblue" stroke="midnightblue" points="491.491,-477.652 502.079,-477.267 493.562,-470.965 491.491,-477.652"/>
</g>
<!-- Node23 -->
<g id="node23" class="node"><title>Node23</title>
<g id="a_node23"><a xlink:href="$d7/dd3/namespaceamunmt.html#aef108281493b0c3b669c537192eace34" xlink:title="amunmt::Printer">
<polygon fill="white" stroke="black" points="301,-287.337 301,-306.337 387,-306.337 387,-287.337 301,-287.337"/>
<text text-anchor="middle" x="344" y="-294.337" font-family="Helvetica,sans-Serif" font-size="10.00">amunmt::Printer</text>
</a>
</g>
</g>
<!-- Node8&#45;&gt;Node23 -->
<g id="edge24" class="edge"><title>Node8&#45;&gt;Node23</title>
<path fill="none" stroke="midnightblue" d="M210.182,-485.682C215.512,-482.925 220.561,-479.673 225,-475.837 251.77,-452.704 242.227,-434.826 261,-404.837 281.986,-371.314 310.743,-335.278 328.033,-314.465"/>
<polygon fill="midnightblue" stroke="midnightblue" points="330.943,-316.441 334.685,-306.529 325.578,-311.944 330.943,-316.441"/>
</g>
<!-- Node35 -->
<g id="node35" class="node"><title>Node35</title>
<g id="a_node35"><a xlink:href="$dd/d77/classamunmt_1_1OutputCollector.html#a29dd85f80126c091b4a476ad1ab5751b" xlink:title="amunmt::OutputCollector\l::Write">
<polygon fill="white" stroke="black" points="281,-447.837 281,-477.837 407,-477.837 407,-447.837 281,-447.837"/>
<text text-anchor="start" x="289" y="-465.837" font-family="Helvetica,sans-Serif" font-size="10.00">amunmt::OutputCollector</text>
<text text-anchor="middle" x="344" y="-454.837" font-family="Helvetica,sans-Serif" font-size="10.00">::Write</text>
</a>
</g>
</g>
<!-- Node8&#45;&gt;Node35 -->
<g id="edge40" class="edge"><title>Node8&#45;&gt;Node35</title>
<path fill="none" stroke="midnightblue" d="M222.18,-486.687C237.964,-483.572 254.692,-480.269 270.508,-477.147"/>
<polygon fill="midnightblue" stroke="midnightblue" points="271.617,-480.496 280.75,-475.126 270.261,-473.629 271.617,-480.496"/>
</g>
<!-- Node11 -->
<g id="node11" class="node"><title>Node11</title>
<g id="a_node11"><a xlink:href="$d7/d4e/classamunmt_1_1God.html#a38e952b706c978ecb2b8ad2ab7f7828f" xlink:title="amunmt::God::GetSearch">
<polygon fill="white" stroke="black" points="478,-631.337 478,-650.337 606,-650.337 606,-631.337 478,-631.337"/>
<text text-anchor="middle" x="542" y="-638.337" font-family="Helvetica,sans-Serif" font-size="10.00">amunmt::God::GetSearch</text>
</a>
</g>
</g>
<!-- Node10&#45;&gt;Node11 -->
<g id="edge10" class="edge"><title>Node10&#45;&gt;Node11</title>
<path fill="none" stroke="midnightblue" d="M394.206,-612.377C420.767,-617.527 453.749,-623.921 481.718,-629.344"/>
<polygon fill="midnightblue" stroke="midnightblue" points="481.29,-632.826 491.774,-631.293 482.623,-625.954 481.29,-632.826"/>
</g>
<!-- Node12 -->
<g id="node12" class="node"><title>Node12</title>
<g id="a_node12"><a xlink:href="$d7/d92/classamunmt_1_1Search.html#a8a55a67dbc9dab24441767d7b2066b9a" xlink:title="amunmt::Search::Translate">
<polygon fill="white" stroke="black" points="474.5,-593.337 474.5,-612.337 609.5,-612.337 609.5,-593.337 474.5,-593.337"/>
<text text-anchor="middle" x="542" y="-600.337" font-family="Helvetica,sans-Serif" font-size="10.00">amunmt::Search::Translate</text>
</a>
</g>
</g>
<!-- Node10&#45;&gt;Node12 -->
<g id="edge11" class="edge"><title>Node10&#45;&gt;Node12</title>
<path fill="none" stroke="midnightblue" d="M408.095,-602.837C425.94,-602.837 445.563,-602.837 464.123,-602.837"/>
<polygon fill="midnightblue" stroke="midnightblue" points="464.308,-606.337 474.308,-602.837 464.308,-599.337 464.308,-606.337"/>
</g>
<!-- Node13 -->
<g id="node13" class="node"><title>Node13</title>
<g id="a_node13"><a xlink:href="$d7/d92/classamunmt_1_1Search.html#adab7a84cbd820e7395a3f79fc604bb06" xlink:title="amunmt::Search::FilterTarget\lVocab">
<polygon fill="white" stroke="black" points="657,-565.837 657,-595.837 801,-595.837 801,-565.837 657,-565.837"/>
<text text-anchor="start" x="665" y="-583.837" font-family="Helvetica,sans-Serif" font-size="10.00">amunmt::Search::FilterTarget</text>
<text text-anchor="middle" x="729" y="-572.837" font-family="Helvetica,sans-Serif" font-size="10.00">Vocab</text>
</a>
</g>
</g>
<!-- Node12&#45;&gt;Node13 -->
<g id="edge12" class="edge"><title>Node12&#45;&gt;Node13</title>
<path fill="none" stroke="midnightblue" d="M609.528,-594.926C621.505,-593.501 634.115,-592.002 646.461,-590.534"/>
<polygon fill="midnightblue" stroke="midnightblue" points="647.232,-593.967 656.749,-589.31 646.406,-587.016 647.232,-593.967"/>
</g>
<!-- Node14 -->
<g id="node14" class="node"><title>Node14</title>
<g id="a_node14"><a xlink:href="$de/ded/classamunmt_1_1Sentences.html#accf70916436eb80cd7f4df9645fd1da8" xlink:title="amunmt::Sentences::size">
<polygon fill="white" stroke="black" points="847.5,-615.337 847.5,-634.337 975.5,-634.337 975.5,-615.337 847.5,-615.337"/>
<text text-anchor="middle" x="911.5" y="-622.337" font-family="Helvetica,sans-Serif" font-size="10.00">amunmt::Sentences::size</text>
</a>
</g>
</g>
<!-- Node12&#45;&gt;Node14 -->
<g id="edge19" class="edge"><title>Node12&#45;&gt;Node14</title>
<path fill="none" stroke="midnightblue" d="M592.425,-612.425C602.076,-614.978 611.99,-618.094 621,-621.837 638.316,-629.031 638.95,-638.758 657,-643.837 729.09,-664.121 816.989,-649.167 868.066,-636.778"/>
<polygon fill="midnightblue" stroke="midnightblue" points="868.925,-640.171 877.775,-634.345 867.224,-633.38 868.925,-640.171"/>
</g>
<!-- Node17 -->
<g id="node17" class="node"><title>Node17</title>
<g id="a_node17"><a xlink:href="$d7/d92/classamunmt_1_1Search.html#aeca132502f793a9cf8f54ba5e12a333a" xlink:title="amunmt::Search::Encode">
<polygon fill="white" stroke="black" points="665,-615.337 665,-634.337 793,-634.337 793,-615.337 665,-615.337"/>
<text text-anchor="middle" x="729" y="-622.337" font-family="Helvetica,sans-Serif" font-size="10.00">amunmt::Search::Encode</text>
</a>
</g>
</g>
<!-- Node12&#45;&gt;Node17 -->
<g id="edge16" class="edge"><title>Node12&#45;&gt;Node17</title>
<path fill="none" stroke="midnightblue" d="M609.528,-610.749C624.173,-612.49 639.763,-614.344 654.66,-616.116"/>
<polygon fill="midnightblue" stroke="midnightblue" points="654.498,-619.621 664.842,-617.327 655.325,-612.67 654.498,-619.621"/>
</g>
<!-- Node18 -->
<g id="node18" class="node"><title>Node18</title>
<g id="a_node18"><a xlink:href="$d7/d92/classamunmt_1_1Search.html#a1cd54cd91f09de25de5967d0704dc77d" xlink:title="amunmt::Search::NewStates">
<polygon fill="white" stroke="black" points="657.5,-527.337 657.5,-546.337 800.5,-546.337 800.5,-527.337 657.5,-527.337"/>
<text text-anchor="middle" x="729" y="-534.337" font-family="Helvetica,sans-Serif" font-size="10.00">amunmt::Search::NewStates</text>
</a>
</g>
</g>
<!-- Node12&#45;&gt;Node18 -->
<g id="edge18" class="edge"><title>Node12&#45;&gt;Node18</title>
<path fill="none" stroke="midnightblue" d="M564.589,-593.305C587.32,-583.463 624.281,-568.01 657,-556.837 664.84,-554.16 673.253,-551.559 681.447,-549.166"/>
<polygon fill="midnightblue" stroke="midnightblue" points="682.625,-552.469 691.28,-546.359 680.704,-545.738 682.625,-552.469"/>
</g>
<!-- Node19 -->
<g id="node19" class="node"><title>Node19</title>
<g id="a_node19"><a xlink:href="$de/ded/classamunmt_1_1Sentences.html#a02f0688d10222abd36ef037121a85e72" xlink:title="amunmt::Sentences::\lGetMaxLength">
<polygon fill="white" stroke="black" points="674,-477.837 674,-507.837 784,-507.837 784,-477.837 674,-477.837"/>
<text text-anchor="start" x="682" y="-495.837" font-family="Helvetica,sans-Serif" font-size="10.00">amunmt::Sentences::</text>
<text text-anchor="middle" x="729" y="-484.837" font-family="Helvetica,sans-Serif" font-size="10.00">GetMaxLength</text>
</a>
</g>
</g>
<!-- Node12&#45;&gt;Node19 -->
<g id="edge20" class="edge"><title>Node12&#45;&gt;Node19</title>
<path fill="none" stroke="midnightblue" d="M555.767,-593.157C584.37,-571.491 651.526,-520.754 657,-517.837 661,-515.705 665.22,-513.692 669.527,-511.805"/>
<polygon fill="midnightblue" stroke="midnightblue" points="671.134,-514.928 679.041,-507.876 668.462,-508.458 671.134,-514.928"/>
</g>
<!-- Node20 -->
<g id="node20" class="node"><title>Node20</title>
<g id="a_node20"><a xlink:href="$d7/d92/classamunmt_1_1Search.html#a80d628a5581c65ebe73fe0b941497eba" xlink:title="amunmt::Search::CalcBeam">
<polygon fill="white" stroke="black" points="659,-741.337 659,-760.337 799,-760.337 799,-741.337 659,-741.337"/>
<text text-anchor="middle" x="729" y="-748.337" font-family="Helvetica,sans-Serif" font-size="10.00">amunmt::Search::CalcBeam</text>
</a>
</g>
</g>
<!-- Node12&#45;&gt;Node20 -->
<g id="edge21" class="edge"><title>Node12&#45;&gt;Node20</title>
<path fill="none" stroke="midnightblue" d="M607.144,-612.503C612.191,-614.983 616.908,-618.05 621,-621.837 658.753,-656.778 619.643,-696.474 657,-731.837 658.656,-733.405 660.428,-734.847 662.29,-736.172"/>
<polygon fill="midnightblue" stroke="midnightblue" points="660.565,-739.219 670.96,-741.269 664.113,-733.184 660.565,-739.219"/>
</g>
<!-- Node21 -->
<g id="node21" class="node"><title>Node21</title>
<g id="a_node21"><a xlink:href="$d7/d92/classamunmt_1_1Search.html#acdf0343e135ef26bf53ebb9389b379f6" xlink:title="amunmt::Search::CleanAfter\lTranslation">
<polygon fill="white" stroke="black" points="658.5,-691.837 658.5,-721.837 799.5,-721.837 799.5,-691.837 658.5,-691.837"/>
<text text-anchor="start" x="666.5" y="-709.837" font-family="Helvetica,sans-Serif" font-size="10.00">amunmt::Search::CleanAfter</text>
<text text-anchor="middle" x="729" y="-698.837" font-family="Helvetica,sans-Serif" font-size="10.00">Translation</text>
</a>
</g>
</g>
<!-- Node12&#45;&gt;Node21 -->
<g id="edge22" class="edge"><title>Node12&#45;&gt;Node21</title>
<path fill="none" stroke="midnightblue" d="M602.981,-612.438C609.379,-614.896 615.536,-617.977 621,-621.837 644.861,-638.695 634.571,-658.117 657,-676.837 661.541,-680.627 666.631,-684.003 671.944,-686.995"/>
<polygon fill="midnightblue" stroke="midnightblue" points="670.547,-690.211 681.041,-691.671 673.748,-683.986 670.547,-690.211"/>
</g>
<!-- Node13&#45;&gt;Node14 -->
<g id="edge13" class="edge"><title>Node13&#45;&gt;Node14</title>
<path fill="none" stroke="midnightblue" d="M791.613,-595.856C814.448,-601.423 840.011,-607.654 861.565,-612.909"/>
<polygon fill="midnightblue" stroke="midnightblue" points="860.933,-616.357 871.477,-615.325 862.591,-609.556 860.933,-616.357"/>
</g>
<!-- Node15 -->
<g id="node15" class="node"><title>Node15</title>
<g id="a_node15"><a xlink:href="$de/ded/classamunmt_1_1Sentences.html#afe33dd6de1f3dfbcff4003c32bdd1f4b" xlink:title="amunmt::Sentences::at">
<polygon fill="white" stroke="black" points="852,-571.337 852,-590.337 971,-590.337 971,-571.337 852,-571.337"/>
<text text-anchor="middle" x="911.5" y="-578.337" font-family="Helvetica,sans-Serif" font-size="10.00">amunmt::Sentences::at</text>
</a>
</g>
</g>
<!-- Node13&#45;&gt;Node15 -->
<g id="edge14" class="edge"><title>Node13&#45;&gt;Node15</title>
<path fill="none" stroke="midnightblue" d="M801.079,-580.837C814.522,-580.837 828.56,-580.837 841.925,-580.837"/>
<polygon fill="midnightblue" stroke="midnightblue" points="841.992,-584.337 851.992,-580.837 841.992,-577.337 841.992,-584.337"/>
</g>
<!-- Node16 -->
<g id="node16" class="node"><title>Node16</title>
<g id="a_node16"><a xlink:href="$d7/db4/classamunmt_1_1Sentence.html#a929bbcefc70b6bc280bbdadb3be00ec9" xlink:title="amunmt::Sentence::GetWords">
<polygon fill="white" stroke="black" points="837,-265.337 837,-284.337 986,-284.337 986,-265.337 837,-265.337"/>
<text text-anchor="middle" x="911.5" y="-272.337" font-family="Helvetica,sans-Serif" font-size="10.00">amunmt::Sentence::GetWords</text>
</a>
</g>
</g>
<!-- Node13&#45;&gt;Node16 -->
<g id="edge15" class="edge"><title>Node13&#45;&gt;Node16</title>
<path fill="none" stroke="midnightblue" d="M787.276,-565.831C792.276,-563.045 796.961,-559.745 801,-555.837 878.325,-481.025 902.066,-345.258 908.425,-294.598"/>
<polygon fill="midnightblue" stroke="midnightblue" points="911.934,-294.715 909.611,-284.378 904.981,-293.908 911.934,-294.715"/>
</g>
<!-- Node17&#45;&gt;Node14 -->
<g id="edge17" class="edge"><title>Node17&#45;&gt;Node14</title>
<path fill="none" stroke="midnightblue" d="M793.13,-624.837C807.42,-624.837 822.71,-624.837 837.374,-624.837"/>
<polygon fill="midnightblue" stroke="midnightblue" points="837.406,-628.337 847.406,-624.837 837.405,-621.337 837.406,-628.337"/>
</g>
<!-- Node23&#45;&gt;Node3 -->
<g id="edge30" class="edge"><title>Node23&#45;&gt;Node3</title>
<path fill="none" stroke="midnightblue" d="M350.67,-306.421C364.137,-329.233 399.009,-388.604 427,-438.837 443.454,-468.366 436.261,-485.156 463,-505.837 468.912,-510.41 475.77,-513.901 482.918,-516.562"/>
<polygon fill="midnightblue" stroke="midnightblue" points="482.193,-520.004 492.783,-519.701 484.315,-513.333 482.193,-520.004"/>
</g>
<!-- Node23&#45;&gt;Node16 -->
<g id="edge32" class="edge"><title>Node23&#45;&gt;Node16</title>
<path fill="none" stroke="midnightblue" d="M345.649,-287.07C348.952,-246.218 367.714,-88.2741 463,-25.8372 628.094,82.3426 843.388,-184.366 897.656,-257.108"/>
<polygon fill="midnightblue" stroke="midnightblue" points="894.968,-259.36 903.719,-265.332 900.602,-255.206 894.968,-259.36"/>
</g>
<!-- Node23&#45;&gt;Node22 -->
<g id="edge34" class="edge"><title>Node23&#45;&gt;Node22</title>
<path fill="none" stroke="midnightblue" d="M352.776,-306.438C367.721,-325.027 401.253,-367.4 427,-404.837 444.192,-429.836 438.974,-444.31 463,-462.837 468.503,-467.081 474.76,-470.579 481.281,-473.462"/>
<polygon fill="midnightblue" stroke="midnightblue" points="480.379,-476.868 490.966,-477.261 482.935,-470.351 480.379,-476.868"/>
</g>
<!-- Node24 -->
<g id="node24" class="node"><title>Node24</title>
<g id="a_node24"><a xlink:href="$db/d94/classamunmt_1_1History.html#a1ba4f3d97546a08e25a9c0de1ef02e50" xlink:title="amunmt::History::Top">
<polygon fill="white" stroke="black" points="486,-401.337 486,-420.337 598,-420.337 598,-401.337 486,-401.337"/>
<text text-anchor="middle" x="542" y="-408.337" font-family="Helvetica,sans-Serif" font-size="10.00">amunmt::History::Top</text>
</a>
</g>
</g>
<!-- Node23&#45;&gt;Node24 -->
<g id="edge25" class="edge"><title>Node23&#45;&gt;Node24</title>
<path fill="none" stroke="midnightblue" d="M354.073,-306.583C372.617,-325.902 417.009,-369.143 463,-391.837 467.843,-394.227 473.007,-396.329 478.284,-398.175"/>
<polygon fill="midnightblue" stroke="midnightblue" points="477.269,-401.525 487.86,-401.228 479.396,-394.856 477.269,-401.525"/>
</g>
<!-- Node25 -->
<g id="node25" class="node"><title>Node25</title>
<g id="a_node25"><a xlink:href="$db/d94/classamunmt_1_1History.html#af982104b58a4d8cf3893d39724a120c4" xlink:title="amunmt::History::NBest">
<polygon fill="white" stroke="black" points="667.5,-401.337 667.5,-420.337 790.5,-420.337 790.5,-401.337 667.5,-401.337"/>
<text text-anchor="middle" x="729" y="-408.337" font-family="Helvetica,sans-Serif" font-size="10.00">amunmt::History::NBest</text>
</a>
</g>
</g>
<!-- Node23&#45;&gt;Node25 -->
<g id="edge39" class="edge"><title>Node23&#45;&gt;Node25</title>
<path fill="none" stroke="midnightblue" d="M349.909,-306.71C363.54,-332.848 404.723,-403.634 463,-429.837 527.046,-458.634 551.049,-436 621,-429.837 638.432,-428.302 657.277,-425.385 674.225,-422.289"/>
<polygon fill="midnightblue" stroke="midnightblue" points="675.324,-425.643 684.502,-420.349 674.026,-418.765 675.324,-425.643"/>
</g>
<!-- Node26 -->
<g id="node26" class="node"><title>Node26</title>
<g id="a_node26"><a xlink:href="$d7/d4e/classamunmt_1_1God.html#a1e2a81202f36d8c2c10e5ee35c3b44ae" xlink:title="amunmt::God::Postprocess">
<polygon fill="white" stroke="black" points="473.5,-363.337 473.5,-382.337 610.5,-382.337 610.5,-363.337 473.5,-363.337"/>
<text text-anchor="middle" x="542" y="-370.337" font-family="Helvetica,sans-Serif" font-size="10.00">amunmt::God::Postprocess</text>
</a>
</g>
</g>
<!-- Node23&#45;&gt;Node26 -->
<g id="edge27" class="edge"><title>Node23&#45;&gt;Node26</title>
<path fill="none" stroke="midnightblue" d="M362.095,-306.521C384.616,-318.941 425.739,-340.469 463,-353.837 470.024,-356.357 477.521,-358.654 484.987,-360.711"/>
<polygon fill="midnightblue" stroke="midnightblue" points="484.18,-364.118 494.741,-363.276 485.96,-357.348 484.18,-364.118"/>
</g>
<!-- Node27 -->
<g id="node27" class="node"><title>Node27</title>
<g id="a_node27"><a xlink:href="$d7/d4e/classamunmt_1_1God.html#aabd3caa5eb93346428948ce6639dc931" xlink:title="amunmt::God::GetTargetVocab">
<polygon fill="white" stroke="black" points="465.5,-325.337 465.5,-344.337 618.5,-344.337 618.5,-325.337 465.5,-325.337"/>
<text text-anchor="middle" x="542" y="-332.337" font-family="Helvetica,sans-Serif" font-size="10.00">amunmt::God::GetTargetVocab</text>
</a>
</g>
</g>
<!-- Node23&#45;&gt;Node27 -->
<g id="edge28" class="edge"><title>Node23&#45;&gt;Node27</title>
<path fill="none" stroke="midnightblue" d="M387.047,-304.989C414.636,-310.338 451.122,-317.412 481.65,-323.331"/>
<polygon fill="midnightblue" stroke="midnightblue" points="481.27,-326.822 491.753,-325.289 482.602,-319.95 481.27,-326.822"/>
</g>
<!-- Node28 -->
<g id="node28" class="node"><title>Node28</title>
<g id="a_node28"><a xlink:href="$d7/dd3/namespaceamunmt.html#a24dbaa0ef7dc1f1fcaa131a0f0eacb43" xlink:title="amunmt::Join">
<polygon fill="white" stroke="black" points="504,-287.337 504,-306.337 580,-306.337 580,-287.337 504,-287.337"/>
<text text-anchor="middle" x="542" y="-294.337" font-family="Helvetica,sans-Serif" font-size="10.00">amunmt::Join</text>
</a>
</g>
</g>
<!-- Node23&#45;&gt;Node28 -->
<g id="edge29" class="edge"><title>Node23&#45;&gt;Node28</title>
<path fill="none" stroke="midnightblue" d="M387.047,-296.837C418.41,-296.837 461.271,-296.837 493.806,-296.837"/>
<polygon fill="midnightblue" stroke="midnightblue" points="493.978,-300.337 503.978,-296.837 493.978,-293.337 493.978,-300.337"/>
</g>
<!-- Node29 -->
<g id="node29" class="node"><title>Node29</title>
<g id="a_node29"><a xlink:href="$d7/d4e/classamunmt_1_1God.html#a032b43755a3050ee9fb97ad27a91a63b" xlink:title="amunmt::God::GetSourceVocab">
<polygon fill="white" stroke="black" points="464,-249.337 464,-268.337 620,-268.337 620,-249.337 464,-249.337"/>
<text text-anchor="middle" x="542" y="-256.337" font-family="Helvetica,sans-Serif" font-size="10.00">amunmt::God::GetSourceVocab</text>
</a>
</g>
</g>
<!-- Node23&#45;&gt;Node29 -->
<g id="edge31" class="edge"><title>Node23&#45;&gt;Node29</title>
<path fill="none" stroke="midnightblue" d="M387.047,-288.685C414.636,-283.336 451.122,-276.262 481.65,-270.344"/>
<polygon fill="midnightblue" stroke="midnightblue" points="482.602,-273.724 491.753,-268.385 481.27,-266.852 482.602,-273.724"/>
</g>
<!-- Node30 -->
<g id="node30" class="node"><title>Node30</title>
<g id="a_node30"><a xlink:href="$d7/dd3/namespaceamunmt.html#a589013f9c66aae2070326dc22d2b547d" xlink:title="amunmt::GetNematusAlignment\lString">
<polygon fill="white" stroke="black" points="463.5,-199.837 463.5,-229.837 620.5,-229.837 620.5,-199.837 463.5,-199.837"/>
<text text-anchor="start" x="471.5" y="-217.837" font-family="Helvetica,sans-Serif" font-size="10.00">amunmt::GetNematusAlignment</text>
<text text-anchor="middle" x="542" y="-206.837" font-family="Helvetica,sans-Serif" font-size="10.00">String</text>
</a>
</g>
</g>
<!-- Node23&#45;&gt;Node30 -->
<g id="edge33" class="edge"><title>Node23&#45;&gt;Node30</title>
<path fill="none" stroke="midnightblue" d="M363.039,-287.143C385.885,-275.095 426.661,-254.355 463,-239.837 468.72,-237.552 474.737,-235.325 480.787,-233.201"/>
<polygon fill="midnightblue" stroke="midnightblue" points="481.952,-236.501 490.283,-229.955 479.688,-229.877 481.952,-236.501"/>
</g>
<!-- Node31 -->
<g id="node31" class="node"><title>Node31</title>
<g id="a_node31"><a xlink:href="$d7/dd3/namespaceamunmt.html#a33109e5a2b2adf93a3e60ef4197a85f9" xlink:title="amunmt::GetAlignmentString">
<polygon fill="white" stroke="black" points="470.5,-161.337 470.5,-180.337 613.5,-180.337 613.5,-161.337 470.5,-161.337"/>
<text text-anchor="middle" x="542" y="-168.337" font-family="Helvetica,sans-Serif" font-size="10.00">amunmt::GetAlignmentString</text>
</a>
</g>
</g>
<!-- Node23&#45;&gt;Node31 -->
<g id="edge35" class="edge"><title>Node23&#45;&gt;Node31</title>
<path fill="none" stroke="midnightblue" d="M352.714,-287.121C370.048,-265.978 414.385,-215.627 463,-189.837 467.313,-187.549 471.907,-185.531 476.623,-183.753"/>
<polygon fill="midnightblue" stroke="midnightblue" points="478.079,-186.955 486.425,-180.429 475.83,-180.326 478.079,-186.955"/>
</g>
<!-- Node32 -->
<g id="node32" class="node"><title>Node32</title>
<g id="a_node32"><a xlink:href="$d7/dd3/namespaceamunmt.html#acf078c1279ce98077a069ba41811faa6" xlink:title="amunmt::GetAlignment">
<polygon fill="white" stroke="black" points="483.5,-123.337 483.5,-142.337 600.5,-142.337 600.5,-123.337 483.5,-123.337"/>
<text text-anchor="middle" x="542" y="-130.337" font-family="Helvetica,sans-Serif" font-size="10.00">amunmt::GetAlignment</text>
</a>
</g>
</g>
<!-- Node23&#45;&gt;Node32 -->
<g id="edge36" class="edge"><title>Node23&#45;&gt;Node32</title>
<path fill="none" stroke="midnightblue" d="M349.87,-287.258C363.697,-261.078 405.922,-187.886 463,-151.837 466.416,-149.68 470.058,-147.768 473.831,-146.073"/>
<polygon fill="midnightblue" stroke="midnightblue" points="475.407,-149.213 483.427,-142.29 472.84,-142.701 475.407,-149.213"/>
</g>
<!-- Node33 -->
<g id="node33" class="node"><title>Node33</title>
<g id="a_node33"><a xlink:href="$d7/dd3/namespaceamunmt.html#a2cb8f571957aa136afe5b74340ecec52" xlink:title="amunmt::GetSoftAlignment\lString">
<polygon fill="white" stroke="black" points="474.5,-73.8372 474.5,-103.837 609.5,-103.837 609.5,-73.8372 474.5,-73.8372"/>
<text text-anchor="start" x="482.5" y="-91.8372" font-family="Helvetica,sans-Serif" font-size="10.00">amunmt::GetSoftAlignment</text>
<text text-anchor="middle" x="542" y="-80.8372" font-family="Helvetica,sans-Serif" font-size="10.00">String</text>
</a>
</g>
</g>
<!-- Node23&#45;&gt;Node33 -->
<g id="edge37" class="edge"><title>Node23&#45;&gt;Node33</title>
<path fill="none" stroke="midnightblue" d="M348.461,-287.229C359.845,-256.983 399.101,-162.831 463,-113.837 465.46,-111.951 468.066,-110.205 470.776,-108.589"/>
<polygon fill="midnightblue" stroke="midnightblue" points="472.526,-111.623 479.733,-103.856 469.256,-105.434 472.526,-111.623"/>
</g>
<!-- Node34 -->
<g id="node34" class="node"><title>Node34</title>
<g id="a_node34"><a xlink:href="$d7/d4e/classamunmt_1_1God.html#a75cb5ca765042d1df858a6eeed330bb7" xlink:title="amunmt::God::GetScorerNames">
<polygon fill="white" stroke="black" points="463,-35.3372 463,-54.3372 621,-54.3372 621,-35.3372 463,-35.3372"/>
<text text-anchor="middle" x="542" y="-42.3372" font-family="Helvetica,sans-Serif" font-size="10.00">amunmt::God::GetScorerNames</text>
</a>
</g>
</g>
<!-- Node23&#45;&gt;Node34 -->
<g id="edge38" class="edge"><title>Node23&#45;&gt;Node34</title>
<path fill="none" stroke="midnightblue" d="M346.909,-287.02C354.438,-251.033 385.55,-125.257 463,-63.8372 465.304,-62.0104 467.757,-60.3557 470.32,-58.8571"/>
<polygon fill="midnightblue" stroke="midnightblue" points="472.005,-61.9283 479.398,-54.34 468.886,-55.6613 472.005,-61.9283"/>
</g>
<!-- Node24&#45;&gt;Node25 -->
<g id="edge26" class="edge"><title>Node24&#45;&gt;Node25</title>
<path fill="none" stroke="midnightblue" d="M598.005,-410.837C616.599,-410.837 637.625,-410.837 657.264,-410.837"/>
<polygon fill="midnightblue" stroke="midnightblue" points="657.387,-414.337 667.387,-410.837 657.387,-407.337 657.387,-414.337"/>
</g>
</g>
</svg>
