<?xml version="1.0" encoding="UTF-8" standalone="no"?>
<!DOCTYPE svg PUBLIC "-//W3C//DTD SVG 1.1//EN"
 "http://www.w3.org/Graphics/SVG/1.1/DTD/svg11.dtd">
<!-- Generated by graphviz version 2.38.0 (20140413.2041)
 -->
<!-- Title: amunmt::Sentence Pages: 1 -->
<svg width="118pt" height="237pt"
 viewBox="0.00 0.00 118.00 237.00" xmlns="http://www.w3.org/2000/svg" xmlns:xlink="http://www.w3.org/1999/xlink">
<g id="graph0" class="graph" transform="scale(1 1) rotate(0) translate(4 233)">
<title>amunmt::Sentence</title>
<polygon fill="white" stroke="none" points="-4,4 -4,-233 114,-233 114,4 -4,4"/>
<!-- Node1 -->
<g id="node1" class="node"><title>Node1</title>
<polygon fill="#bfbfbf" stroke="black" points="5.5,-0.5 5.5,-123.5 104.5,-123.5 104.5,-0.5 5.5,-0.5"/>
<text text-anchor="middle" x="55" y="-111.5" font-family="Helvetica,sans-Serif" font-size="10.00">amunmt::Sentence</text>
<polyline fill="none" stroke="black" points="5.5,-104.5 104.5,-104.5 "/>
<text text-anchor="start" x="13.5" y="-92.5" font-family="Helvetica,sans-Serif" font-size="10.00">&#45; lineNum_</text>
<polyline fill="none" stroke="black" points="5.5,-85.5 104.5,-85.5 "/>
<text text-anchor="start" x="13.5" y="-73.5" font-family="Helvetica,sans-Serif" font-size="10.00">+ Sentence()</text>
<text text-anchor="start" x="13.5" y="-62.5" font-family="Helvetica,sans-Serif" font-size="10.00">+ Sentence()</text>
<text text-anchor="start" x="13.5" y="-51.5" font-family="Helvetica,sans-Serif" font-size="10.00">+ Sentence()</text>
<text text-anchor="start" x="13.5" y="-40.5" font-family="Helvetica,sans-Serif" font-size="10.00">+ GetWords()</text>
<text text-anchor="start" x="13.5" y="-29.5" font-family="Helvetica,sans-Serif" font-size="10.00">+ size()</text>
<text text-anchor="start" x="13.5" y="-18.5" font-family="Helvetica,sans-Serif" font-size="10.00">+ GetLineNum()</text>
<text text-anchor="start" x="13.5" y="-7.5" font-family="Helvetica,sans-Serif" font-size="10.00">&#45; Sentence()</text>
</g>
<!-- Node2 -->
<g id="node2" class="node"><title>Node2</title>
<polygon fill="white" stroke="#bfbfbf" points="0,-171.5 0,-228.5 110,-228.5 110,-171.5 0,-171.5"/>
<text text-anchor="middle" x="55" y="-216.5" font-family="Helvetica,sans-Serif" font-size="10.00">std::vector&lt; Words &gt;</text>
<polyline fill="none" stroke="#bfbfbf" points="0,-209.5 110,-209.5 "/>
<text text-anchor="middle" x="55" y="-197.5" font-family="Helvetica,sans-Serif" font-size="10.00"> </text>
<polyline fill="none" stroke="#bfbfbf" points="0,-190.5 110,-190.5 "/>
<text text-anchor="middle" x="55" y="-178.5" font-family="Helvetica,sans-Serif" font-size="10.00"> </text>
</g>
<!-- Node2&#45;&gt;Node1 -->
<g id="edge1" class="edge"><title>Node2&#45;&gt;Node1</title>
<path fill="none" stroke="#404040" d="M55,-171.478C55,-161.009 55,-148.526 55,-135.818"/>
<polygon fill="none" stroke="#404040" points="55.0001,-135.623 51,-129.623 55,-123.623 59,-129.623 55.0001,-135.623"/>
<text text-anchor="middle" x="74" y="-145" font-family="Helvetica,sans-Serif" font-size="10.00"> &#45;words_</text>
</g>
</g>
</svg>
