<?xml version="1.0" encoding="UTF-8" standalone="no"?>
<!DOCTYPE svg PUBLIC "-//W3C//DTD SVG 1.1//EN"
 "http://www.w3.org/Graphics/SVG/1.1/DTD/svg11.dtd">
<!-- Generated by graphviz version 2.38.0 (20140413.2041)
 -->
<!-- Title: Scorer Pages: 1 -->
<svg width="132pt" height="281pt"
 viewBox="0.00 0.00 132.00 281.00" xmlns="http://www.w3.org/2000/svg" xmlns:xlink="http://www.w3.org/1999/xlink">
<g id="graph0" class="graph" transform="scale(1 1) rotate(0) translate(4 277)">
<title>Scorer</title>
<polygon fill="white" stroke="none" points="-4,4 -4,-277 128,-277 128,4 -4,4"/>
<!-- Node1 -->
<g id="node1" class="node"><title>Node1</title>
<polygon fill="#bfbfbf" stroke="black" points="39.5,-215.5 39.5,-272.5 84.5,-272.5 84.5,-215.5 39.5,-215.5"/>
<text text-anchor="middle" x="62" y="-260.5" font-family="Helvetica,sans-Serif" font-size="10.00">Scorer</text>
<polyline fill="none" stroke="black" points="39.5,-253.5 84.5,-253.5 "/>
<text text-anchor="middle" x="62" y="-241.5" font-family="Helvetica,sans-Serif" font-size="10.00"> </text>
<polyline fill="none" stroke="black" points="39.5,-234.5 84.5,-234.5 "/>
<text text-anchor="middle" x="62" y="-222.5" font-family="Helvetica,sans-Serif" font-size="10.00"> </text>
</g>
<!-- Node2 -->
<g id="node2" class="node"><title>Node2</title>
<g id="a_node2"><a xlink:href="$db/d72/classGPU_1_1ApePenalty.html" xlink:title="{GPU::ApePenalty\n|&#45; costs_\l&#45; srcTrgMap_\l&#45; Probs_\l&#45; penalties_\l|+ ApePenalty()\l+ SetSource()\l+ Score()\l+ NewState()\l+ BeginSentenceState()\l+ AssembleBeamState()\l+ GetVocabSize()\l+ Filter()\l+ GetProbs()\l}">
<polygon fill="white" stroke="black" points="-7.10543e-15,-0.5 -7.10543e-15,-178.5 124,-178.5 124,-0.5 -7.10543e-15,-0.5"/>
<text text-anchor="middle" x="62" y="-166.5" font-family="Helvetica,sans-Serif" font-size="10.00">GPU::ApePenalty</text>
<polyline fill="none" stroke="black" points="-7.10543e-15,-159.5 124,-159.5 "/>
<text text-anchor="start" x="8" y="-147.5" font-family="Helvetica,sans-Serif" font-size="10.00">&#45; costs_</text>
<text text-anchor="start" x="8" y="-136.5" font-family="Helvetica,sans-Serif" font-size="10.00">&#45; srcTrgMap_</text>
<text text-anchor="start" x="8" y="-125.5" font-family="Helvetica,sans-Serif" font-size="10.00">&#45; Probs_</text>
<text text-anchor="start" x="8" y="-114.5" font-family="Helvetica,sans-Serif" font-size="10.00">&#45; penalties_</text>
<polyline fill="none" stroke="black" points="-7.10543e-15,-107.5 124,-107.5 "/>
<text text-anchor="start" x="8" y="-95.5" font-family="Helvetica,sans-Serif" font-size="10.00">+ ApePenalty()</text>
<text text-anchor="start" x="8" y="-84.5" font-family="Helvetica,sans-Serif" font-size="10.00">+ SetSource()</text>
<text text-anchor="start" x="8" y="-73.5" font-family="Helvetica,sans-Serif" font-size="10.00">+ Score()</text>
<text text-anchor="start" x="8" y="-62.5" font-family="Helvetica,sans-Serif" font-size="10.00">+ NewState()</text>
<text text-anchor="start" x="8" y="-51.5" font-family="Helvetica,sans-Serif" font-size="10.00">+ BeginSentenceState()</text>
<text text-anchor="start" x="8" y="-40.5" font-family="Helvetica,sans-Serif" font-size="10.00">+ AssembleBeamState()</text>
<text text-anchor="start" x="8" y="-29.5" font-family="Helvetica,sans-Serif" font-size="10.00">+ GetVocabSize()</text>
<text text-anchor="start" x="8" y="-18.5" font-family="Helvetica,sans-Serif" font-size="10.00">+ Filter()</text>
<text text-anchor="start" x="8" y="-7.5" font-family="Helvetica,sans-Serif" font-size="10.00">+ GetProbs()</text>
</a>
</g>
</g>
<!-- Node1&#45;&gt;Node2 -->
<g id="edge1" class="edge"><title>Node1&#45;&gt;Node2</title>
<path fill="none" stroke="midnightblue" d="M62,-205.374C62,-197.089 62,-187.977 62,-178.62"/>
<polygon fill="none" stroke="midnightblue" points="58.5001,-205.383 62,-215.383 65.5001,-205.383 58.5001,-205.383"/>
</g>
</g>
</svg>
