<?xml version="1.0" encoding="UTF-8" standalone="no"?>
<!DOCTYPE svg PUBLIC "-//W3C//DTD SVG 1.1//EN"
 "http://www.w3.org/Graphics/SVG/1.1/DTD/svg11.dtd">
<!-- Generated by graphviz version 2.38.0 (20140413.2041)
 -->
<!-- Title: marian::rnn::TestLSTM Pages: 1 -->
<!--zoomable 570 -->
<svg id="main" version="1.1" xmlns="http://www.w3.org/2000/svg" xmlns:xlink="http://www.w3.org/1999/xlink" xml:space="preserve" onload="init(evt)">
<style type="text/css"><![CDATA[
.edge:hover path { stroke: red; }
.edge:hover polygon { stroke: red; fill: red; }
]]></style>
<script type="text/javascript"><![CDATA[
var edges = document.getElementsByTagName('g');
if (edges && edges.length) {
  for (var i=0;i<edges.length;i++) {
    if (edges[i].id.substr(0,4)=='edge') {
      edges[i].setAttribute('class','edge');
    }
  }
}
]]></script>
        <defs>
                <circle id="rim" cx="0" cy="0" r="7"/>
                <circle id="rim2" cx="0" cy="0" r="3.5"/>
                <g id="zoomPlus">
                        <use xlink:href="#rim" fill="#404040">
                                <set attributeName="fill" to="#808080" begin="zoomplus.mouseover" end="zoomplus.mouseout"/>
                        </use>
                        <path d="M-4,0h8M0,-4v8" fill="none" stroke="white" stroke-width="1.5" pointer-events="none"/>
                </g>
                <g id="zoomMin">
                        <use xlink:href="#rim" fill="#404040">
                                <set attributeName="fill" to="#808080" begin="zoomminus.mouseover" end="zoomminus.mouseout"/>
                        </use>
                        <path d="M-4,0h8" fill="none" stroke="white" stroke-width="1.5" pointer-events="none"/>
                </g>
                <g id="dirArrow">
                        <path fill="none" stroke="white" stroke-width="1.5" d="M0,-3.0v7 M-2.5,-0.5L0,-3.0L2.5,-0.5"/>
                </g>
               <g id="resetDef">
                       <use xlink:href="#rim2" fill="#404040">
                               <set attributeName="fill" to="#808080" begin="reset.mouseover" end="reset.mouseout"/>
                       </use>
               </g>
        </defs>

<script type="text/javascript">
var viewWidth = 307;
var viewHeight = 570;
var sectionId = 'dynsection-1';
</script>
<script xlink:href="../../svgpan.js"/>
<svg id="graph" class="graph">
<g id="viewport">
<title>marian::rnn::TestLSTM</title>
<polygon fill="white" stroke="none" points="-4,4 -4,-566 302.5,-566 302.5,4 -4,4"/>
<!-- Node1 -->
<g id="node1" class="node"><title>Node1</title>
<polygon fill="#bfbfbf" stroke="black" points="120.5,-0.5 120.5,-112.5 237.5,-112.5 237.5,-0.5 120.5,-0.5"/>
<text text-anchor="middle" x="179" y="-100.5" font-family="Helvetica,sans-Serif" font-size="10.00">marian::rnn::TestLSTM</text>
<polyline fill="none" stroke="black" points="120.5,-93.5 237.5,-93.5 "/>
<text text-anchor="start" x="128.5" y="-81.5" font-family="Helvetica,sans-Serif" font-size="10.00">&#45; U_</text>
<text text-anchor="start" x="128.5" y="-70.5" font-family="Helvetica,sans-Serif" font-size="10.00">&#45; W_</text>
<text text-anchor="start" x="128.5" y="-59.5" font-family="Helvetica,sans-Serif" font-size="10.00">&#45; b_</text>
<polyline fill="none" stroke="black" points="120.5,-52.5 237.5,-52.5 "/>
<text text-anchor="start" x="128.5" y="-40.5" font-family="Helvetica,sans-Serif" font-size="10.00">+ TestLSTM()</text>
<text text-anchor="start" x="128.5" y="-29.5" font-family="Helvetica,sans-Serif" font-size="10.00">+ apply()</text>
<text text-anchor="start" x="128.5" y="-18.5" font-family="Helvetica,sans-Serif" font-size="10.00">+ applyInput()</text>
<text text-anchor="start" x="128.5" y="-7.5" font-family="Helvetica,sans-Serif" font-size="10.00">+ applyState()</text>
</g>
<!-- Node2 -->
<g id="node2" class="node"><title>Node2</title>
<g id="a_node2"><a xlink:href="../../d5/de5/classmarian_1_1rnn_1_1Cell.html" target="_top" xlink:title="{marian::rnn::Cell\n||+ Cell()\l+ apply()\l+ getLazyInputs()\l+ setLazyInputs()\l+ applyInput()\l+ applyState()\l+ clear()\l}">
<polygon fill="white" stroke="black" points="132.5,-150.5 132.5,-273.5 225.5,-273.5 225.5,-150.5 132.5,-150.5"/>
<text text-anchor="middle" x="179" y="-261.5" font-family="Helvetica,sans-Serif" font-size="10.00">marian::rnn::Cell</text>
<polyline fill="none" stroke="black" points="132.5,-254.5 225.5,-254.5 "/>
<text text-anchor="middle" x="179" y="-242.5" font-family="Helvetica,sans-Serif" font-size="10.00"> </text>
<polyline fill="none" stroke="black" points="132.5,-235.5 225.5,-235.5 "/>
<text text-anchor="start" x="140.5" y="-223.5" font-family="Helvetica,sans-Serif" font-size="10.00">+ Cell()</text>
<text text-anchor="start" x="140.5" y="-212.5" font-family="Helvetica,sans-Serif" font-size="10.00">+ apply()</text>
<text text-anchor="start" x="140.5" y="-201.5" font-family="Helvetica,sans-Serif" font-size="10.00">+ getLazyInputs()</text>
<text text-anchor="start" x="140.5" y="-190.5" font-family="Helvetica,sans-Serif" font-size="10.00">+ setLazyInputs()</text>
<text text-anchor="start" x="140.5" y="-179.5" font-family="Helvetica,sans-Serif" font-size="10.00">+ applyInput()</text>
<text text-anchor="start" x="140.5" y="-168.5" font-family="Helvetica,sans-Serif" font-size="10.00">+ applyState()</text>
<text text-anchor="start" x="140.5" y="-157.5" font-family="Helvetica,sans-Serif" font-size="10.00">+ clear()</text>
</a>
</g>
</g>
<!-- Node2&#45;&gt;Node1 -->
<g id="edge1" class="edge"><title>Node2&#45;&gt;Node1</title>
<path fill="none" stroke="midnightblue" d="M179,-140.055C179,-130.886 179,-121.605 179,-112.741"/>
<polygon fill="none" stroke="midnightblue" points="175.5,-140.333 179,-150.333 182.5,-140.333 175.5,-140.333"/>
</g>
<!-- Node3 -->
<g id="node3" class="node"><title>Node3</title>
<g id="a_node3"><a xlink:href="../../d4/d04/classmarian_1_1rnn_1_1Stackable.html" target="_top" xlink:title="{marian::rnn::Stackable\n|# options_\l|+ Stackable()\l+ ~Stackable()\l+ as()\l+ is()\l+ getOptions()\l+ opt()\l+ opt()\l+ clear()\l}">
<polygon fill="white" stroke="black" points="4.5,-321.5 4.5,-455.5 119.5,-455.5 119.5,-321.5 4.5,-321.5"/>
<text text-anchor="middle" x="62" y="-443.5" font-family="Helvetica,sans-Serif" font-size="10.00">marian::rnn::Stackable</text>
<polyline fill="none" stroke="black" points="4.5,-436.5 119.5,-436.5 "/>
<text text-anchor="start" x="12.5" y="-424.5" font-family="Helvetica,sans-Serif" font-size="10.00"># options_</text>
<polyline fill="none" stroke="black" points="4.5,-417.5 119.5,-417.5 "/>
<text text-anchor="start" x="12.5" y="-405.5" font-family="Helvetica,sans-Serif" font-size="10.00">+ Stackable()</text>
<text text-anchor="start" x="12.5" y="-394.5" font-family="Helvetica,sans-Serif" font-size="10.00">+ ~Stackable()</text>
<text text-anchor="start" x="12.5" y="-383.5" font-family="Helvetica,sans-Serif" font-size="10.00">+ as()</text>
<text text-anchor="start" x="12.5" y="-372.5" font-family="Helvetica,sans-Serif" font-size="10.00">+ is()</text>
<text text-anchor="start" x="12.5" y="-361.5" font-family="Helvetica,sans-Serif" font-size="10.00">+ getOptions()</text>
<text text-anchor="start" x="12.5" y="-350.5" font-family="Helvetica,sans-Serif" font-size="10.00">+ opt()</text>
<text text-anchor="start" x="12.5" y="-339.5" font-family="Helvetica,sans-Serif" font-size="10.00">+ opt()</text>
<text text-anchor="start" x="12.5" y="-328.5" font-family="Helvetica,sans-Serif" font-size="10.00">+ clear()</text>
</a>
</g>
</g>
<!-- Node3&#45;&gt;Node2 -->
<g id="edge2" class="edge"><title>Node3&#45;&gt;Node2</title>
<path fill="none" stroke="midnightblue" d="M112.259,-312.541C120.988,-299.522 129.968,-286.129 138.398,-273.555"/>
<polygon fill="none" stroke="midnightblue" points="109.228,-310.776 106.566,-321.031 115.042,-314.675 109.228,-310.776"/>
</g>
<!-- Node4 -->
<g id="node4" class="node"><title>Node4</title>
<polygon fill="white" stroke="#bfbfbf" points="0,-493.5 0,-561.5 124,-561.5 124,-493.5 0,-493.5"/>
<text text-anchor="start" x="8" y="-549.5" font-family="Helvetica,sans-Serif" font-size="10.00">std::enable_shared</text>
<text text-anchor="middle" x="62" y="-538.5" font-family="Helvetica,sans-Serif" font-size="10.00">_from_this&lt; Stackable &gt;</text>
<polyline fill="none" stroke="#bfbfbf" points="0,-531.5 124,-531.5 "/>
<text text-anchor="middle" x="62" y="-519.5" font-family="Helvetica,sans-Serif" font-size="10.00"> </text>
<polyline fill="none" stroke="#bfbfbf" points="0,-512.5 124,-512.5 "/>
<text text-anchor="middle" x="62" y="-500.5" font-family="Helvetica,sans-Serif" font-size="10.00"> </text>
</g>
<!-- Node4&#45;&gt;Node3 -->
<g id="edge3" class="edge"><title>Node4&#45;&gt;Node3</title>
<path fill="none" stroke="midnightblue" d="M62,-483.33C62,-474.515 62,-465.049 62,-455.642"/>
<polygon fill="none" stroke="midnightblue" points="58.5001,-483.336 62,-493.336 65.5001,-483.336 58.5001,-483.336"/>
</g>
<!-- Node5 -->
<g id="node5" class="node"><title>Node5</title>
<polygon fill="white" stroke="#bfbfbf" points="137.5,-349 137.5,-428 298.5,-428 298.5,-349 137.5,-349"/>
<text text-anchor="start" x="145.5" y="-416" font-family="Helvetica,sans-Serif" font-size="10.00">std::vector&lt; std::function</text>
<text text-anchor="start" x="145.5" y="-405" font-family="Helvetica,sans-Serif" font-size="10.00">&lt; Expr(Ptr&lt; marian::Accumulator</text>
<text text-anchor="middle" x="218" y="-394" font-family="Helvetica,sans-Serif" font-size="10.00">::RNN &gt;)&gt; &gt;</text>
<polyline fill="none" stroke="#bfbfbf" points="137.5,-387 298.5,-387 "/>
<text text-anchor="middle" x="218" y="-375" font-family="Helvetica,sans-Serif" font-size="10.00"> </text>
<polyline fill="none" stroke="#bfbfbf" points="137.5,-368 298.5,-368 "/>
<text text-anchor="middle" x="218" y="-356" font-family="Helvetica,sans-Serif" font-size="10.00"> </text>
</g>
<!-- Node5&#45;&gt;Node2 -->
<g id="edge4" class="edge"><title>Node5&#45;&gt;Node2</title>
<path fill="none" stroke="#404040" d="M209.345,-348.773C205.179,-330.134 200.045,-307.165 195.193,-285.454"/>
<polygon fill="none" stroke="#404040" points="195.152,-285.268 189.939,-280.285 192.534,-273.557 197.747,-278.54 195.152,-285.268"/>
<text text-anchor="middle" x="227.5" y="-295" font-family="Helvetica,sans-Serif" font-size="10.00"> #lazyInputs_</text>
</g>
</g>
</svg>
        <g id="navigator" transform="translate(0 0)" fill="#404254">
                <rect fill="#f2f5e9" fill-opacity="0.5" stroke="#606060" stroke-width=".5" x="0" y="0" width="60" height="60"/>
                <use id="zoomplus" xlink:href="#zoomPlus" x="17" y="9" onmousedown="handleZoom(evt,'in')"/>
                <use id="zoomminus" xlink:href="#zoomMin" x="42" y="9" onmousedown="handleZoom(evt,'out')"/>
                <use id="reset" xlink:href="#resetDef" x="30" y="36" onmousedown="handleReset()"/>
                <g id="arrowUp" xlink:href="#dirArrow" transform="translate(30 24)" onmousedown="handlePan(0,-1)">
                  <use xlink:href="#rim" fill="#404040">
                        <set attributeName="fill" to="#808080" begin="arrowUp.mouseover" end="arrowUp.mouseout"/>
                  </use>
                  <path fill="none" stroke="white" stroke-width="1.5" d="M0,-3.0v7 M-2.5,-0.5L0,-3.0L2.5,-0.5"/>
                </g>
                <g id="arrowRight" xlink:href="#dirArrow" transform="rotate(90) translate(36 -43)" onmousedown="handlePan(1,0)">
                  <use xlink:href="#rim" fill="#404040">
                        <set attributeName="fill" to="#808080" begin="arrowRight.mouseover" end="arrowRight.mouseout"/>
                  </use>
                  <path fill="none" stroke="white" stroke-width="1.5" d="M0,-3.0v7 M-2.5,-0.5L0,-3.0L2.5,-0.5"/>
                </g>
                <g id="arrowDown" xlink:href="#dirArrow" transform="rotate(180) translate(-30 -48)" onmousedown="handlePan(0,1)">
                  <use xlink:href="#rim" fill="#404040">
                        <set attributeName="fill" to="#808080" begin="arrowDown.mouseover" end="arrowDown.mouseout"/>
                  </use>
                  <path fill="none" stroke="white" stroke-width="1.5" d="M0,-3.0v7 M-2.5,-0.5L0,-3.0L2.5,-0.5"/>
                </g>
                <g id="arrowLeft" xlink:href="#dirArrow" transform="rotate(270) translate(-36 17)" onmousedown="handlePan(-1,0)">
                  <use xlink:href="#rim" fill="#404040">
                        <set attributeName="fill" to="#808080" begin="arrowLeft.mouseover" end="arrowLeft.mouseout"/>
                  </use>
                  <path fill="none" stroke="white" stroke-width="1.5" d="M0,-3.0v7 M-2.5,-0.5L0,-3.0L2.5,-0.5"/>
                </g>
        </g>
        <svg viewBox="0 0 15 15" width="100%" height="30px" preserveAspectRatio="xMaxYMin meet">
         <g id="arrow_out" transform="scale(0.3 0.3)">
          <a xlink:href="classmarian_1_1rnn_1_1TestLSTM__coll__graph_org.svg" target="_base">
           <rect id="button" ry="5" rx="5" y="6" x="6" height="38" width="38"
                fill="#f2f5e9" fill-opacity="0.5" stroke="#606060" stroke-width="1.0"/>
           <path id="arrow"
             d="M 11.500037,31.436501 C 11.940474,20.09759 22.043105,11.32322 32.158766,21.979434 L 37.068811,17.246167 C 37.068811,17.246167 37.088388,32 37.088388,32 L 22.160133,31.978069 C 22.160133,31.978069 26.997745,27.140456 26.997745,27.140456 C 18.528582,18.264221 13.291696,25.230495 11.500037,31.436501 z"
             style="fill:#404040;"/>
          </a>
         </g>
        </svg>
</svg>
