<?xml version="1.0" encoding="UTF-8" standalone="no"?>
<!DOCTYPE svg PUBLIC "-//W3C//DTD SVG 1.1//EN"
 "http://www.w3.org/Graphics/SVG/1.1/DTD/svg11.dtd">
<!-- Generated by graphviz version 2.38.0 (20140413.2041)
 -->
<!-- Title: logging.h Pages: 1 -->
<svg width="266pt" height="84pt"
 viewBox="0.00 0.00 265.50 84.00" xmlns="http://www.w3.org/2000/svg" xmlns:xlink="http://www.w3.org/1999/xlink">
<g id="graph0" class="graph" transform="scale(1 1) rotate(0) translate(4 80)">
<title>logging.h</title>
<polygon fill="white" stroke="none" points="-4,4 -4,-80 261.5,-80 261.5,4 -4,4"/>
<!-- Node1 -->
<g id="node1" class="node"><title>Node1</title>
<polygon fill="#bfbfbf" stroke="black" points="74.5,-56.5 74.5,-75.5 130.5,-75.5 130.5,-56.5 74.5,-56.5"/>
<text text-anchor="middle" x="102.5" y="-63.5" font-family="Helvetica,sans-Serif" font-size="10.00">logging.h</text>
</g>
<!-- Node2 -->
<g id="node2" class="node"><title>Node2</title>
<g id="a_node2"><a xlink:href="$df/d5e/amun_2common_2config_8h.html" xlink:title="config.h">
<polygon fill="white" stroke="black" points="0,-0.5 0,-19.5 51,-19.5 51,-0.5 0,-0.5"/>
<text text-anchor="middle" x="25.5" y="-7.5" font-family="Helvetica,sans-Serif" font-size="10.00">config.h</text>
</a>
</g>
</g>
<!-- Node1&#45;&gt;Node2 -->
<g id="edge1" class="edge"><title>Node1&#45;&gt;Node2</title>
<path fill="none" stroke="midnightblue" d="M81.599,-50.3422C67.5889,-40.5169 49.617,-27.9132 37.8407,-19.6545"/>
<polygon fill="midnightblue" stroke="midnightblue" points="79.9317,-53.4477 90.1286,-56.324 83.9509,-47.7166 79.9317,-53.4477"/>
</g>
<!-- Node3 -->
<g id="node3" class="node"><title>Node3</title>
<g id="a_node3"><a xlink:href="$de/d5a/amun_2common_2logging_8cpp.html" xlink:title="logging.cpp">
<polygon fill="white" stroke="black" points="69.5,-0.5 69.5,-19.5 135.5,-19.5 135.5,-0.5 69.5,-0.5"/>
<text text-anchor="middle" x="102.5" y="-7.5" font-family="Helvetica,sans-Serif" font-size="10.00">logging.cpp</text>
</a>
</g>
</g>
<!-- Node1&#45;&gt;Node3 -->
<g id="edge2" class="edge"><title>Node1&#45;&gt;Node3</title>
<path fill="none" stroke="midnightblue" d="M102.5,-45.8045C102.5,-36.9102 102.5,-26.7798 102.5,-19.7511"/>
<polygon fill="midnightblue" stroke="midnightblue" points="99.0001,-46.083 102.5,-56.083 106,-46.083 99.0001,-46.083"/>
</g>
<!-- Node4 -->
<g id="node4" class="node"><title>Node4</title>
<g id="a_node4"><a xlink:href="$d5/df4/amun_2common_2output__collector_8cpp.html" xlink:title="output_collector.cpp">
<polygon fill="white" stroke="black" points="153.5,-0.5 153.5,-19.5 257.5,-19.5 257.5,-0.5 153.5,-0.5"/>
<text text-anchor="middle" x="205.5" y="-7.5" font-family="Helvetica,sans-Serif" font-size="10.00">output_collector.cpp</text>
</a>
</g>
</g>
<!-- Node1&#45;&gt;Node4 -->
<g id="edge3" class="edge"><title>Node1&#45;&gt;Node4</title>
<path fill="none" stroke="midnightblue" d="M128.079,-51.5895C147.123,-41.6052 172.564,-28.2672 188.992,-19.6545"/>
<polygon fill="midnightblue" stroke="midnightblue" points="126.28,-48.5808 119.049,-56.324 129.531,-54.7805 126.28,-48.5808"/>
</g>
</g>
</svg>
