<?xml version="1.0" encoding="UTF-8" standalone="no"?>
<!DOCTYPE svg PUBLIC "-//W3C//DTD SVG 1.1//EN"
 "http://www.w3.org/Graphics/SVG/1.1/DTD/svg11.dtd">
<!-- Generated by graphviz version 2.38.0 (20140413.2041)
 -->
<!-- Title: marian::LayerNormalizationOp Pages: 1 -->
<svg width="393pt" height="788pt"
 viewBox="0.00 0.00 392.50 788.00" xmlns="http://www.w3.org/2000/svg" xmlns:xlink="http://www.w3.org/1999/xlink">
<g id="graph0" class="graph" transform="scale(1 1) rotate(0) translate(4 784)">
<title>marian::LayerNormalizationOp</title>
<polygon fill="white" stroke="none" points="-4,4 -4,-784 388.5,-784 388.5,4 -4,4"/>
<!-- Node1 -->
<g id="node1" class="node"><title>Node1</title>
<polygon fill="#bfbfbf" stroke="black" points="116,-0.5 116,-90.5 265,-90.5 265,-0.5 116,-0.5"/>
<text text-anchor="middle" x="190.5" y="-78.5" font-family="Helvetica,sans-Serif" font-size="10.00">marian::LayerNormalizationOp</text>
<polyline fill="none" stroke="black" points="116,-71.5 265,-71.5 "/>
<text text-anchor="middle" x="190.5" y="-59.5" font-family="Helvetica,sans-Serif" font-size="10.00"> </text>
<polyline fill="none" stroke="black" points="116,-52.5 265,-52.5 "/>
<text text-anchor="start" x="124" y="-40.5" font-family="Helvetica,sans-Serif" font-size="10.00">+ LayerNormalizationOp()</text>
<text text-anchor="start" x="124" y="-29.5" font-family="Helvetica,sans-Serif" font-size="10.00">+ forwardOps()</text>
<text text-anchor="start" x="124" y="-18.5" font-family="Helvetica,sans-Serif" font-size="10.00">+ backwardOps()</text>
<text text-anchor="start" x="124" y="-7.5" font-family="Helvetica,sans-Serif" font-size="10.00">+ type()</text>
</g>
<!-- Node2 -->
<g id="node2" class="node"><title>Node2</title>
<g id="a_node2"><a xlink:href="../../d0/da7/structmarian_1_1NaryNodeOp.html" target="_top" xlink:title="{marian::NaryNodeOp\n|+ hash_\l|+ NaryNodeOp()\l+ ~NaryNodeOp()\l+ children()\l+ hash()\l+ remove_children_from\l_top_nodes()\l}">
<polygon fill="white" stroke="black" points="129.5,-127.5 129.5,-239.5 251.5,-239.5 251.5,-127.5 129.5,-127.5"/>
<text text-anchor="middle" x="190.5" y="-227.5" font-family="Helvetica,sans-Serif" font-size="10.00">marian::NaryNodeOp</text>
<polyline fill="none" stroke="black" points="129.5,-220.5 251.5,-220.5 "/>
<text text-anchor="start" x="137.5" y="-208.5" font-family="Helvetica,sans-Serif" font-size="10.00">+ hash_</text>
<polyline fill="none" stroke="black" points="129.5,-201.5 251.5,-201.5 "/>
<text text-anchor="start" x="137.5" y="-189.5" font-family="Helvetica,sans-Serif" font-size="10.00">+ NaryNodeOp()</text>
<text text-anchor="start" x="137.5" y="-178.5" font-family="Helvetica,sans-Serif" font-size="10.00">+ ~NaryNodeOp()</text>
<text text-anchor="start" x="137.5" y="-167.5" font-family="Helvetica,sans-Serif" font-size="10.00">+ children()</text>
<text text-anchor="start" x="137.5" y="-156.5" font-family="Helvetica,sans-Serif" font-size="10.00">+ hash()</text>
<text text-anchor="start" x="137.5" y="-145.5" font-family="Helvetica,sans-Serif" font-size="10.00">+ remove_children_from</text>
<text text-anchor="start" x="137.5" y="-134.5" font-family="Helvetica,sans-Serif" font-size="10.00">_top_nodes()</text>
</a>
</g>
</g>
<!-- Node2&#45;&gt;Node1 -->
<g id="edge1" class="edge"><title>Node2&#45;&gt;Node1</title>
<path fill="none" stroke="midnightblue" d="M190.5,-117.076C190.5,-108.072 190.5,-99.0069 190.5,-90.5144"/>
<polygon fill="none" stroke="midnightblue" points="187,-117.184 190.5,-127.184 194,-117.184 187,-117.184"/>
</g>
<!-- Node3 -->
<g id="node3" class="node"><title>Node3</title>
<g id="a_node3"><a xlink:href="../../d0/d7a/classmarian_1_1Node.html" target="_top" xlink:title="{marian::Node\n|# id_\l# edges_\l# trainable_\l# destroy_\l# children_\l# graph_\l# shape_\l# name_\l# val_\l# adj_\l# markedForDebug_\l# debugMessage_\l|+ Node()\l+ ~Node()\l+ scalar()\l+ forwardOps()\l+ backwardOps()\l+ runForward()\l+ runBackward()\l+ forward()\l+ backward()\l+ trainable()\land 27 more...\l}">
<polygon fill="white" stroke="black" points="138,-276.5 138,-564.5 243,-564.5 243,-276.5 138,-276.5"/>
<text text-anchor="middle" x="190.5" y="-552.5" font-family="Helvetica,sans-Serif" font-size="10.00">marian::Node</text>
<polyline fill="none" stroke="black" points="138,-545.5 243,-545.5 "/>
<text text-anchor="start" x="146" y="-533.5" font-family="Helvetica,sans-Serif" font-size="10.00"># id_</text>
<text text-anchor="start" x="146" y="-522.5" font-family="Helvetica,sans-Serif" font-size="10.00"># edges_</text>
<text text-anchor="start" x="146" y="-511.5" font-family="Helvetica,sans-Serif" font-size="10.00"># trainable_</text>
<text text-anchor="start" x="146" y="-500.5" font-family="Helvetica,sans-Serif" font-size="10.00"># destroy_</text>
<text text-anchor="start" x="146" y="-489.5" font-family="Helvetica,sans-Serif" font-size="10.00"># children_</text>
<text text-anchor="start" x="146" y="-478.5" font-family="Helvetica,sans-Serif" font-size="10.00"># graph_</text>
<text text-anchor="start" x="146" y="-467.5" font-family="Helvetica,sans-Serif" font-size="10.00"># shape_</text>
<text text-anchor="start" x="146" y="-456.5" font-family="Helvetica,sans-Serif" font-size="10.00"># name_</text>
<text text-anchor="start" x="146" y="-445.5" font-family="Helvetica,sans-Serif" font-size="10.00"># val_</text>
<text text-anchor="start" x="146" y="-434.5" font-family="Helvetica,sans-Serif" font-size="10.00"># adj_</text>
<text text-anchor="start" x="146" y="-423.5" font-family="Helvetica,sans-Serif" font-size="10.00"># markedForDebug_</text>
<text text-anchor="start" x="146" y="-412.5" font-family="Helvetica,sans-Serif" font-size="10.00"># debugMessage_</text>
<polyline fill="none" stroke="black" points="138,-405.5 243,-405.5 "/>
<text text-anchor="start" x="146" y="-393.5" font-family="Helvetica,sans-Serif" font-size="10.00">+ Node()</text>
<text text-anchor="start" x="146" y="-382.5" font-family="Helvetica,sans-Serif" font-size="10.00">+ ~Node()</text>
<text text-anchor="start" x="146" y="-371.5" font-family="Helvetica,sans-Serif" font-size="10.00">+ scalar()</text>
<text text-anchor="start" x="146" y="-360.5" font-family="Helvetica,sans-Serif" font-size="10.00">+ forwardOps()</text>
<text text-anchor="start" x="146" y="-349.5" font-family="Helvetica,sans-Serif" font-size="10.00">+ backwardOps()</text>
<text text-anchor="start" x="146" y="-338.5" font-family="Helvetica,sans-Serif" font-size="10.00">+ runForward()</text>
<text text-anchor="start" x="146" y="-327.5" font-family="Helvetica,sans-Serif" font-size="10.00">+ runBackward()</text>
<text text-anchor="start" x="146" y="-316.5" font-family="Helvetica,sans-Serif" font-size="10.00">+ forward()</text>
<text text-anchor="start" x="146" y="-305.5" font-family="Helvetica,sans-Serif" font-size="10.00">+ backward()</text>
<text text-anchor="start" x="146" y="-294.5" font-family="Helvetica,sans-Serif" font-size="10.00">+ trainable()</text>
<text text-anchor="start" x="146" y="-283.5" font-family="Helvetica,sans-Serif" font-size="10.00">and 27 more...</text>
</a>
</g>
</g>
<!-- Node3&#45;&gt;Node2 -->
<g id="edge2" class="edge"><title>Node3&#45;&gt;Node2</title>
<path fill="none" stroke="midnightblue" d="M190.5,-266.162C190.5,-256.865 190.5,-247.9 190.5,-239.53"/>
<polygon fill="none" stroke="midnightblue" points="187,-266.367 190.5,-276.367 194,-266.367 187,-266.367"/>
</g>
<!-- Node4 -->
<g id="node4" class="node"><title>Node4</title>
<g id="a_node4"><a xlink:href="../../de/dff/classmarian_1_1Chainable.html" target="_top" xlink:title="{marian::Chainable\&lt;\l Tensor \&gt;\n||+ Chainable()\l+ ~Chainable()\l+ forward()\l+ backward()\l+ forwardOps()\l+ backwardOps()\l+ allocate()\l+ free()\l+ init()\l+ init_dependent()\land 23 more...\l}">
<polygon fill="white" stroke="black" points="0,-601.5 0,-779.5 101,-779.5 101,-601.5 0,-601.5"/>
<text text-anchor="start" x="8" y="-767.5" font-family="Helvetica,sans-Serif" font-size="10.00">marian::Chainable&lt;</text>
<text text-anchor="middle" x="50.5" y="-756.5" font-family="Helvetica,sans-Serif" font-size="10.00"> Tensor &gt;</text>
<polyline fill="none" stroke="black" points="0,-749.5 101,-749.5 "/>
<text text-anchor="middle" x="50.5" y="-737.5" font-family="Helvetica,sans-Serif" font-size="10.00"> </text>
<polyline fill="none" stroke="black" points="0,-730.5 101,-730.5 "/>
<text text-anchor="start" x="8" y="-718.5" font-family="Helvetica,sans-Serif" font-size="10.00">+ Chainable()</text>
<text text-anchor="start" x="8" y="-707.5" font-family="Helvetica,sans-Serif" font-size="10.00">+ ~Chainable()</text>
<text text-anchor="start" x="8" y="-696.5" font-family="Helvetica,sans-Serif" font-size="10.00">+ forward()</text>
<text text-anchor="start" x="8" y="-685.5" font-family="Helvetica,sans-Serif" font-size="10.00">+ backward()</text>
<text text-anchor="start" x="8" y="-674.5" font-family="Helvetica,sans-Serif" font-size="10.00">+ forwardOps()</text>
<text text-anchor="start" x="8" y="-663.5" font-family="Helvetica,sans-Serif" font-size="10.00">+ backwardOps()</text>
<text text-anchor="start" x="8" y="-652.5" font-family="Helvetica,sans-Serif" font-size="10.00">+ allocate()</text>
<text text-anchor="start" x="8" y="-641.5" font-family="Helvetica,sans-Serif" font-size="10.00">+ free()</text>
<text text-anchor="start" x="8" y="-630.5" font-family="Helvetica,sans-Serif" font-size="10.00">+ init()</text>
<text text-anchor="start" x="8" y="-619.5" font-family="Helvetica,sans-Serif" font-size="10.00">+ init_dependent()</text>
<text text-anchor="start" x="8" y="-608.5" font-family="Helvetica,sans-Serif" font-size="10.00">and 23 more...</text>
</a>
</g>
</g>
<!-- Node4&#45;&gt;Node3 -->
<g id="edge3" class="edge"><title>Node4&#45;&gt;Node3</title>
<path fill="none" stroke="midnightblue" d="M101.236,-592.377C113.157,-569.557 125.886,-545.189 137.888,-522.215"/>
<polygon fill="none" stroke="midnightblue" points="98.0632,-590.892 96.5351,-601.376 104.268,-594.133 98.0632,-590.892"/>
</g>
<!-- Node5 -->
<g id="node5" class="node"><title>Node5</title>
<g id="a_node5"><a xlink:href="../../d4/d9b/classmarian_1_1keywords_1_1Keywords.html" target="_top" xlink:title="{marian::keywords::Keywords\n|&#45; storage_\l|+ Keywords()\l+ Has()\l+ Get()\l&#45; add()\l&#45; add()\l&#45; add()\l}">
<polygon fill="white" stroke="black" points="119,-634.5 119,-746.5 262,-746.5 262,-634.5 119,-634.5"/>
<text text-anchor="middle" x="190.5" y="-734.5" font-family="Helvetica,sans-Serif" font-size="10.00">marian::keywords::Keywords</text>
<polyline fill="none" stroke="black" points="119,-727.5 262,-727.5 "/>
<text text-anchor="start" x="127" y="-715.5" font-family="Helvetica,sans-Serif" font-size="10.00">&#45; storage_</text>
<polyline fill="none" stroke="black" points="119,-708.5 262,-708.5 "/>
<text text-anchor="start" x="127" y="-696.5" font-family="Helvetica,sans-Serif" font-size="10.00">+ Keywords()</text>
<text text-anchor="start" x="127" y="-685.5" font-family="Helvetica,sans-Serif" font-size="10.00">+ Has()</text>
<text text-anchor="start" x="127" y="-674.5" font-family="Helvetica,sans-Serif" font-size="10.00">+ Get()</text>
<text text-anchor="start" x="127" y="-663.5" font-family="Helvetica,sans-Serif" font-size="10.00">&#45; add()</text>
<text text-anchor="start" x="127" y="-652.5" font-family="Helvetica,sans-Serif" font-size="10.00">&#45; add()</text>
<text text-anchor="start" x="127" y="-641.5" font-family="Helvetica,sans-Serif" font-size="10.00">&#45; add()</text>
</a>
</g>
</g>
<!-- Node5&#45;&gt;Node3 -->
<g id="edge4" class="edge"><title>Node5&#45;&gt;Node3</title>
<path fill="none" stroke="midnightblue" d="M190.5,-624.149C190.5,-605.949 190.5,-585.433 190.5,-564.623"/>
<polygon fill="none" stroke="midnightblue" points="187,-624.295 190.5,-634.295 194,-624.295 187,-624.295"/>
</g>
<!-- Node6 -->
<g id="node6" class="node"><title>Node6</title>
<polygon fill="white" stroke="#bfbfbf" points="280.5,-656.5 280.5,-724.5 384.5,-724.5 384.5,-656.5 280.5,-656.5"/>
<text text-anchor="start" x="288.5" y="-712.5" font-family="Helvetica,sans-Serif" font-size="10.00">std::enable_shared</text>
<text text-anchor="middle" x="332.5" y="-701.5" font-family="Helvetica,sans-Serif" font-size="10.00">_from_this&lt; Node &gt;</text>
<polyline fill="none" stroke="#bfbfbf" points="280.5,-694.5 384.5,-694.5 "/>
<text text-anchor="middle" x="332.5" y="-682.5" font-family="Helvetica,sans-Serif" font-size="10.00"> </text>
<polyline fill="none" stroke="#bfbfbf" points="280.5,-675.5 384.5,-675.5 "/>
<text text-anchor="middle" x="332.5" y="-663.5" font-family="Helvetica,sans-Serif" font-size="10.00"> </text>
</g>
<!-- Node6&#45;&gt;Node3 -->
<g id="edge5" class="edge"><title>Node6&#45;&gt;Node3</title>
<path fill="none" stroke="midnightblue" d="M310.106,-647.236C292.168,-613.381 266.269,-564.501 243.155,-520.878"/>
<polygon fill="none" stroke="midnightblue" points="307.171,-649.172 314.946,-656.369 313.356,-645.894 307.171,-649.172"/>
</g>
</g>
</svg>
