<?xml version="1.0" encoding="UTF-8" standalone="no"?>
<!DOCTYPE svg PUBLIC "-//W3C//DTD SVG 1.1//EN"
 "http://www.w3.org/Graphics/SVG/1.1/DTD/svg11.dtd">
<!-- Generated by graphviz version 2.38.0 (20140413.2041)
 -->
<!-- Title: marian::ConcatenateNodeOp::forward Pages: 1 -->
<svg width="463pt" height="104pt"
 viewBox="0.00 0.00 463.00 104.00" xmlns="http://www.w3.org/2000/svg" xmlns:xlink="http://www.w3.org/1999/xlink">
<g id="graph0" class="graph" transform="scale(1 1) rotate(0) translate(4 100)">
<title>marian::ConcatenateNodeOp::forward</title>
<polygon fill="white" stroke="none" points="-4,4 -4,-100 459,-100 459,4 -4,4"/>
<!-- Node1 -->
<g id="node1" class="node"><title>Node1</title>
<polygon fill="#bfbfbf" stroke="black" points="0,-33 0,-63 143,-63 143,-33 0,-33"/>
<text text-anchor="start" x="8" y="-51" font-family="Helvetica,sans-Serif" font-size="10.00">marian::ConcatenateNodeOp</text>
<text text-anchor="middle" x="71.5" y="-40" font-family="Helvetica,sans-Serif" font-size="10.00">::forward</text>
</g>
<!-- Node2 -->
<g id="node2" class="node"><title>Node2</title>
<g id="a_node2"><a xlink:href="../../d0/d7a/classmarian_1_1Node.html#a71a9c8ad6ba12d421fa97222d74a90b9" target="_top" xlink:title="marian::Node::child">
<polygon fill="white" stroke="black" points="182,-76.5 182,-95.5 283,-95.5 283,-76.5 182,-76.5"/>
<text text-anchor="middle" x="232.5" y="-83.5" font-family="Helvetica,sans-Serif" font-size="10.00">marian::Node::child</text>
</a>
</g>
</g>
<!-- Node1&#45;&gt;Node2 -->
<g id="edge1" class="edge"><title>Node1&#45;&gt;Node2</title>
<path fill="none" stroke="midnightblue" d="M135.341,-63.0186C150.716,-66.6931 166.961,-70.5757 181.635,-74.0826"/>
<polygon fill="midnightblue" stroke="midnightblue" points="180.973,-77.5228 191.512,-76.4432 182.6,-70.7145 180.973,-77.5228"/>
</g>
<!-- Node4 -->
<g id="node4" class="node"><title>Node4</title>
<g id="a_node4"><a xlink:href="../../d0/d7a/classmarian_1_1Node.html#a0df86f2ff4a169111d6ba0865e6fd935" target="_top" xlink:title="marian::Node::val">
<polygon fill="white" stroke="black" points="185.5,-38.5 185.5,-57.5 279.5,-57.5 279.5,-38.5 185.5,-38.5"/>
<text text-anchor="middle" x="232.5" y="-45.5" font-family="Helvetica,sans-Serif" font-size="10.00">marian::Node::val</text>
</a>
</g>
</g>
<!-- Node1&#45;&gt;Node4 -->
<g id="edge3" class="edge"><title>Node1&#45;&gt;Node4</title>
<path fill="none" stroke="midnightblue" d="M143.166,-48C153.865,-48 164.78,-48 175.123,-48"/>
<polygon fill="midnightblue" stroke="midnightblue" points="175.247,-51.5001 185.247,-48 175.247,-44.5001 175.247,-51.5001"/>
</g>
<!-- Node5 -->
<g id="node5" class="node"><title>Node5</title>
<g id="a_node5"><a xlink:href="../../da/d22/namespacemarian.html#a680fee5f243683d820950c554db89df7" target="_top" xlink:title="marian::Concatenate">
<polygon fill="white" stroke="black" points="179,-0.5 179,-19.5 286,-19.5 286,-0.5 179,-0.5"/>
<text text-anchor="middle" x="232.5" y="-7.5" font-family="Helvetica,sans-Serif" font-size="10.00">marian::Concatenate</text>
</a>
</g>
</g>
<!-- Node1&#45;&gt;Node5 -->
<g id="edge4" class="edge"><title>Node1&#45;&gt;Node5</title>
<path fill="none" stroke="midnightblue" d="M135.341,-32.9814C150.716,-29.3069 166.961,-25.4243 181.635,-21.9174"/>
<polygon fill="midnightblue" stroke="midnightblue" points="182.6,-25.2855 191.512,-19.5568 180.973,-18.4772 182.6,-25.2855"/>
</g>
<!-- Node3 -->
<g id="node3" class="node"><title>Node3</title>
<g id="a_node3"><a xlink:href="../../d0/d7a/classmarian_1_1Node.html#a4aa5aa482c70595fa5d43c1fbabf5c18" target="_top" xlink:title="marian::Node::getBackend">
<polygon fill="white" stroke="black" points="322,-76.5 322,-95.5 455,-95.5 455,-76.5 322,-76.5"/>
<text text-anchor="middle" x="388.5" y="-83.5" font-family="Helvetica,sans-Serif" font-size="10.00">marian::Node::getBackend</text>
</a>
</g>
</g>
<!-- Node2&#45;&gt;Node3 -->
<g id="edge2" class="edge"><title>Node2&#45;&gt;Node3</title>
<path fill="none" stroke="midnightblue" d="M283.074,-86C292.276,-86 302.078,-86 311.852,-86"/>
<polygon fill="midnightblue" stroke="midnightblue" points="312,-89.5001 322,-86 312,-82.5001 312,-89.5001"/>
</g>
</g>
</svg>
