<?xml version="1.0" encoding="UTF-8" standalone="no"?>
<!DOCTYPE svg PUBLIC "-//W3C//DTD SVG 1.1//EN"
 "http://www.w3.org/Graphics/SVG/1.1/DTD/svg11.dtd">
<!-- Generated by graphviz version 2.38.0 (20140413.2041)
 -->
<!-- Title: marian::DecoderState Pages: 1 -->
<svg width="135pt" height="551pt"
 viewBox="0.00 0.00 135.00 551.00" xmlns="http://www.w3.org/2000/svg" xmlns:xlink="http://www.w3.org/1999/xlink">
<g id="graph0" class="graph" transform="scale(1 1) rotate(0) translate(4 547)">
<title>marian::DecoderState</title>
<polygon fill="white" stroke="none" points="-4,4 -4,-547 131,-547 131,4 -4,4"/>
<!-- Node1 -->
<g id="node1" class="node"><title>Node1</title>
<polygon fill="#bfbfbf" stroke="black" points="0,-0.5 0,-211.5 127,-211.5 127,-0.5 0,-0.5"/>
<text text-anchor="middle" x="63.5" y="-199.5" font-family="Helvetica,sans-Serif" font-size="10.00">marian::DecoderState</text>
<polyline fill="none" stroke="black" points="0,-192.5 127,-192.5 "/>
<text text-anchor="start" x="8" y="-180.5" font-family="Helvetica,sans-Serif" font-size="10.00"># encState_</text>
<text text-anchor="start" x="8" y="-169.5" font-family="Helvetica,sans-Serif" font-size="10.00"># targetEmbeddings_</text>
<text text-anchor="start" x="8" y="-158.5" font-family="Helvetica,sans-Serif" font-size="10.00"># probs_</text>
<text text-anchor="start" x="8" y="-147.5" font-family="Helvetica,sans-Serif" font-size="10.00"># singleStep_</text>
<polyline fill="none" stroke="black" points="0,-140.5 127,-140.5 "/>
<text text-anchor="start" x="8" y="-128.5" font-family="Helvetica,sans-Serif" font-size="10.00">+ DecoderState()</text>
<text text-anchor="start" x="8" y="-117.5" font-family="Helvetica,sans-Serif" font-size="10.00">+ getEncoderState()</text>
<text text-anchor="start" x="8" y="-106.5" font-family="Helvetica,sans-Serif" font-size="10.00">+ getProbs()</text>
<text text-anchor="start" x="8" y="-95.5" font-family="Helvetica,sans-Serif" font-size="10.00">+ setProbs()</text>
<text text-anchor="start" x="8" y="-84.5" font-family="Helvetica,sans-Serif" font-size="10.00">+ select()</text>
<text text-anchor="start" x="8" y="-73.5" font-family="Helvetica,sans-Serif" font-size="10.00">+ getStates()</text>
<text text-anchor="start" x="8" y="-62.5" font-family="Helvetica,sans-Serif" font-size="10.00">+ getTargetEmbeddings()</text>
<text text-anchor="start" x="8" y="-51.5" font-family="Helvetica,sans-Serif" font-size="10.00">+ setTargetEmbeddings()</text>
<text text-anchor="start" x="8" y="-40.5" font-family="Helvetica,sans-Serif" font-size="10.00">+ doSingleStep()</text>
<text text-anchor="start" x="8" y="-29.5" font-family="Helvetica,sans-Serif" font-size="10.00">+ setSingleStep()</text>
<text text-anchor="start" x="8" y="-18.5" font-family="Helvetica,sans-Serif" font-size="10.00">+ getSourceWords()</text>
<text text-anchor="start" x="8" y="-7.5" font-family="Helvetica,sans-Serif" font-size="10.00">+ blacklist()</text>
</g>
<!-- Node2 -->
<g id="node2" class="node"><title>Node2</title>
<g id="a_node2"><a xlink:href="../../dc/d39/classmarian_1_1rnn_1_1States.html" target="_top" xlink:title="{marian::rnn::States\n||+ States()\l+ States()\l+ States()\l+ begin()\l+ end()\l+ outputs()\l+ operator[]()\l+ operator[]()\l+ back()\l+ back()\land 7 more...\l}">
<polygon fill="white" stroke="black" points="13.5,-259.5 13.5,-426.5 113.5,-426.5 113.5,-259.5 13.5,-259.5"/>
<text text-anchor="middle" x="63.5" y="-414.5" font-family="Helvetica,sans-Serif" font-size="10.00">marian::rnn::States</text>
<polyline fill="none" stroke="black" points="13.5,-407.5 113.5,-407.5 "/>
<text text-anchor="middle" x="63.5" y="-395.5" font-family="Helvetica,sans-Serif" font-size="10.00"> </text>
<polyline fill="none" stroke="black" points="13.5,-388.5 113.5,-388.5 "/>
<text text-anchor="start" x="21.5" y="-376.5" font-family="Helvetica,sans-Serif" font-size="10.00">+ States()</text>
<text text-anchor="start" x="21.5" y="-365.5" font-family="Helvetica,sans-Serif" font-size="10.00">+ States()</text>
<text text-anchor="start" x="21.5" y="-354.5" font-family="Helvetica,sans-Serif" font-size="10.00">+ States()</text>
<text text-anchor="start" x="21.5" y="-343.5" font-family="Helvetica,sans-Serif" font-size="10.00">+ begin()</text>
<text text-anchor="start" x="21.5" y="-332.5" font-family="Helvetica,sans-Serif" font-size="10.00">+ end()</text>
<text text-anchor="start" x="21.5" y="-321.5" font-family="Helvetica,sans-Serif" font-size="10.00">+ outputs()</text>
<text text-anchor="start" x="21.5" y="-310.5" font-family="Helvetica,sans-Serif" font-size="10.00">+ operator[]()</text>
<text text-anchor="start" x="21.5" y="-299.5" font-family="Helvetica,sans-Serif" font-size="10.00">+ operator[]()</text>
<text text-anchor="start" x="21.5" y="-288.5" font-family="Helvetica,sans-Serif" font-size="10.00">+ back()</text>
<text text-anchor="start" x="21.5" y="-277.5" font-family="Helvetica,sans-Serif" font-size="10.00">+ back()</text>
<text text-anchor="start" x="21.5" y="-266.5" font-family="Helvetica,sans-Serif" font-size="10.00">and 7 more...</text>
</a>
</g>
</g>
<!-- Node2&#45;&gt;Node1 -->
<g id="edge1" class="edge"><title>Node2&#45;&gt;Node1</title>
<path fill="none" stroke="#404040" d="M63.5,-259.478C63.5,-247.873 63.5,-235.767 63.5,-223.673"/>
<polygon fill="none" stroke="#404040" points="63.5001,-223.601 59.5,-217.601 63.5,-211.601 67.5,-217.601 63.5001,-223.601"/>
<text text-anchor="middle" x="84" y="-233" font-family="Helvetica,sans-Serif" font-size="10.00"> #states_</text>
</g>
<!-- Node3 -->
<g id="node3" class="node"><title>Node3</title>
<polygon fill="white" stroke="#bfbfbf" points="13,-474.5 13,-542.5 114,-542.5 114,-474.5 13,-474.5"/>
<text text-anchor="start" x="21" y="-530.5" font-family="Helvetica,sans-Serif" font-size="10.00">std::vector&lt; marian</text>
<text text-anchor="middle" x="63.5" y="-519.5" font-family="Helvetica,sans-Serif" font-size="10.00">::rnn::State &gt;</text>
<polyline fill="none" stroke="#bfbfbf" points="13,-512.5 114,-512.5 "/>
<text text-anchor="middle" x="63.5" y="-500.5" font-family="Helvetica,sans-Serif" font-size="10.00"> </text>
<polyline fill="none" stroke="#bfbfbf" points="13,-493.5 114,-493.5 "/>
<text text-anchor="middle" x="63.5" y="-481.5" font-family="Helvetica,sans-Serif" font-size="10.00"> </text>
</g>
<!-- Node3&#45;&gt;Node2 -->
<g id="edge2" class="edge"><title>Node3&#45;&gt;Node2</title>
<path fill="none" stroke="#404040" d="M63.5,-474.413C63.5,-463.877 63.5,-451.646 63.5,-438.979"/>
<polygon fill="none" stroke="#404040" points="63.5001,-438.742 59.5,-432.742 63.5,-426.742 67.5,-432.742 63.5001,-438.742"/>
<text text-anchor="middle" x="83" y="-448" font-family="Helvetica,sans-Serif" font-size="10.00"> &#45;states_</text>
</g>
</g>
</svg>
