<?xml version="1.0" encoding="UTF-8" standalone="no"?>
<!DOCTYPE svg PUBLIC "-//W3C//DTD SVG 1.1//EN"
 "http://www.w3.org/Graphics/SVG/1.1/DTD/svg11.dtd">
<!-- Generated by graphviz version 2.38.0 (20140413.2041)
 -->
<!-- Title: marian::MultiDecoderS2S Pages: 1 -->
<svg width="136pt" height="504pt"
 viewBox="0.00 0.00 136.00 504.00" xmlns="http://www.w3.org/2000/svg" xmlns:xlink="http://www.w3.org/1999/xlink">
<g id="graph0" class="graph" transform="scale(1 1) rotate(0) translate(4 500)">
<title>marian::MultiDecoderS2S</title>
<polygon fill="white" stroke="none" points="-4,4 -4,-500 132,-500 132,4 -4,4"/>
<!-- Node1 -->
<g id="node1" class="node"><title>Node1</title>
<polygon fill="#bfbfbf" stroke="black" points="0,-0.5 0,-112.5 128,-112.5 128,-0.5 0,-0.5"/>
<text text-anchor="middle" x="64" y="-100.5" font-family="Helvetica,sans-Serif" font-size="10.00">marian::MultiDecoderS2S</text>
<polyline fill="none" stroke="black" points="0,-93.5 128,-93.5 "/>
<text text-anchor="start" x="8" y="-81.5" font-family="Helvetica,sans-Serif" font-size="10.00">&#45; rnn_</text>
<text text-anchor="start" x="8" y="-70.5" font-family="Helvetica,sans-Serif" font-size="10.00">&#45; tiedOutputWeights_</text>
<polyline fill="none" stroke="black" points="0,-63.5 128,-63.5 "/>
<text text-anchor="start" x="8" y="-51.5" font-family="Helvetica,sans-Serif" font-size="10.00">+ MultiDecoderS2S()</text>
<text text-anchor="start" x="8" y="-40.5" font-family="Helvetica,sans-Serif" font-size="10.00">+ startState()</text>
<text text-anchor="start" x="8" y="-29.5" font-family="Helvetica,sans-Serif" font-size="10.00">+ step()</text>
<text text-anchor="start" x="8" y="-18.5" font-family="Helvetica,sans-Serif" font-size="10.00">+ getAlignments()</text>
<text text-anchor="start" x="8" y="-7.5" font-family="Helvetica,sans-Serif" font-size="10.00">&#45; constructDecoderRNN()</text>
</g>
<!-- Node2 -->
<g id="node2" class="node"><title>Node2</title>
<g id="a_node2"><a xlink:href="../../db/d04/classmarian_1_1DecoderBase.html" target="_top" xlink:title="{marian::DecoderBase\n|# options_\l# inference_\l|+ DecoderBase()\l+ startState()\l+ step()\l+ groundTruth()\l+ selectEmbeddings()\l+ getAlignments()\l+ opt()\l}">
<polygon fill="white" stroke="black" points="8,-150.5 8,-284.5 120,-284.5 120,-150.5 8,-150.5"/>
<text text-anchor="middle" x="64" y="-272.5" font-family="Helvetica,sans-Serif" font-size="10.00">marian::DecoderBase</text>
<polyline fill="none" stroke="black" points="8,-265.5 120,-265.5 "/>
<text text-anchor="start" x="16" y="-253.5" font-family="Helvetica,sans-Serif" font-size="10.00"># options_</text>
<text text-anchor="start" x="16" y="-242.5" font-family="Helvetica,sans-Serif" font-size="10.00"># inference_</text>
<polyline fill="none" stroke="black" points="8,-235.5 120,-235.5 "/>
<text text-anchor="start" x="16" y="-223.5" font-family="Helvetica,sans-Serif" font-size="10.00">+ DecoderBase()</text>
<text text-anchor="start" x="16" y="-212.5" font-family="Helvetica,sans-Serif" font-size="10.00">+ startState()</text>
<text text-anchor="start" x="16" y="-201.5" font-family="Helvetica,sans-Serif" font-size="10.00">+ step()</text>
<text text-anchor="start" x="16" y="-190.5" font-family="Helvetica,sans-Serif" font-size="10.00">+ groundTruth()</text>
<text text-anchor="start" x="16" y="-179.5" font-family="Helvetica,sans-Serif" font-size="10.00">+ selectEmbeddings()</text>
<text text-anchor="start" x="16" y="-168.5" font-family="Helvetica,sans-Serif" font-size="10.00">+ getAlignments()</text>
<text text-anchor="start" x="16" y="-157.5" font-family="Helvetica,sans-Serif" font-size="10.00">+ opt()</text>
</a>
</g>
</g>
<!-- Node2&#45;&gt;Node1 -->
<g id="edge1" class="edge"><title>Node2&#45;&gt;Node1</title>
<path fill="none" stroke="midnightblue" d="M64,-140.157C64,-130.994 64,-121.776 64,-112.99"/>
<polygon fill="none" stroke="midnightblue" points="60.5001,-140.451 64,-150.451 67.5001,-140.451 60.5001,-140.451"/>
</g>
<!-- Node3 -->
<g id="node3" class="node"><title>Node3</title>
<g id="a_node3"><a xlink:title="STL class. ">
<polygon fill="white" stroke="#bfbfbf" points="34,-332.5 34,-389.5 94,-389.5 94,-332.5 34,-332.5"/>
<text text-anchor="middle" x="64" y="-377.5" font-family="Helvetica,sans-Serif" font-size="10.00">std::string</text>
<polyline fill="none" stroke="#bfbfbf" points="34,-370.5 94,-370.5 "/>
<text text-anchor="middle" x="64" y="-358.5" font-family="Helvetica,sans-Serif" font-size="10.00"> </text>
<polyline fill="none" stroke="#bfbfbf" points="34,-351.5 94,-351.5 "/>
<text text-anchor="middle" x="64" y="-339.5" font-family="Helvetica,sans-Serif" font-size="10.00"> </text>
</a>
</g>
</g>
<!-- Node3&#45;&gt;Node2 -->
<g id="edge2" class="edge"><title>Node3&#45;&gt;Node2</title>
<path fill="none" stroke="#404040" d="M64,-332.381C64,-322.02 64,-309.663 64,-296.97"/>
<polygon fill="none" stroke="#404040" points="64.0001,-296.753 60,-290.753 64,-284.753 68,-290.753 64.0001,-296.753"/>
<text text-anchor="middle" x="83" y="-306" font-family="Helvetica,sans-Serif" font-size="10.00"> #prefix_</text>
</g>
<!-- Node4 -->
<g id="node4" class="node"><title>Node4</title>
<polygon fill="white" stroke="#bfbfbf" points="16.5,-427.5 16.5,-495.5 111.5,-495.5 111.5,-427.5 16.5,-427.5"/>
<text text-anchor="start" x="24.5" y="-483.5" font-family="Helvetica,sans-Serif" font-size="10.00">std::basic_string&lt;</text>
<text text-anchor="middle" x="64" y="-472.5" font-family="Helvetica,sans-Serif" font-size="10.00"> char &gt;</text>
<polyline fill="none" stroke="#bfbfbf" points="16.5,-465.5 111.5,-465.5 "/>
<text text-anchor="middle" x="64" y="-453.5" font-family="Helvetica,sans-Serif" font-size="10.00"> </text>
<polyline fill="none" stroke="#bfbfbf" points="16.5,-446.5 111.5,-446.5 "/>
<text text-anchor="middle" x="64" y="-434.5" font-family="Helvetica,sans-Serif" font-size="10.00"> </text>
</g>
<!-- Node4&#45;&gt;Node3 -->
<g id="edge3" class="edge"><title>Node4&#45;&gt;Node3</title>
<path fill="none" stroke="midnightblue" d="M64,-417.375C64,-407.94 64,-398.201 64,-389.571"/>
<polygon fill="none" stroke="midnightblue" points="60.5001,-417.427 64,-427.427 67.5001,-417.427 60.5001,-417.427"/>
</g>
</g>
</svg>
