<?xml version="1.0" encoding="UTF-8" standalone="no"?>
<!DOCTYPE svg PUBLIC "-//W3C//DTD SVG 1.1//EN"
 "http://www.w3.org/Graphics/SVG/1.1/DTD/svg11.dtd">
<!-- Generated by graphviz version 2.38.0 (20140413.2041)
 -->
<!-- Title: amunmt::util::FileOpenException Pages: 1 -->
<!--zoomable 460 -->
<svg id="main" version="1.1" xmlns="http://www.w3.org/2000/svg" xmlns:xlink="http://www.w3.org/1999/xlink" xml:space="preserve" onload="init(evt)">
<style type="text/css"><![CDATA[
.edge:hover path { stroke: red; }
.edge:hover polygon { stroke: red; fill: red; }
]]></style>
<script type="text/javascript"><![CDATA[
var edges = document.getElementsByTagName('g');
if (edges && edges.length) {
  for (var i=0;i<edges.length;i++) {
    if (edges[i].id.substr(0,4)=='edge') {
      edges[i].setAttribute('class','edge');
    }
  }
}
]]></script>
        <defs>
                <circle id="rim" cx="0" cy="0" r="7"/>
                <circle id="rim2" cx="0" cy="0" r="3.5"/>
                <g id="zoomPlus">
                        <use xlink:href="#rim" fill="#404040">
                                <set attributeName="fill" to="#808080" begin="zoomplus.mouseover" end="zoomplus.mouseout"/>
                        </use>
                        <path d="M-4,0h8M0,-4v8" fill="none" stroke="white" stroke-width="1.5" pointer-events="none"/>
                </g>
                <g id="zoomMin">
                        <use xlink:href="#rim" fill="#404040">
                                <set attributeName="fill" to="#808080" begin="zoomminus.mouseover" end="zoomminus.mouseout"/>
                        </use>
                        <path d="M-4,0h8" fill="none" stroke="white" stroke-width="1.5" pointer-events="none"/>
                </g>
                <g id="dirArrow">
                        <path fill="none" stroke="white" stroke-width="1.5" d="M0,-3.0v7 M-2.5,-0.5L0,-3.0L2.5,-0.5"/>
                </g>
               <g id="resetDef">
                       <use xlink:href="#rim2" fill="#404040">
                               <set attributeName="fill" to="#808080" begin="reset.mouseover" end="reset.mouseout"/>
                       </use>
               </g>
        </defs>

<script type="text/javascript">
var viewWidth = 192;
var viewHeight = 460;
var sectionId = 'dynsection-1';
</script>
<script xlink:href="../../svgpan.js"/>
<svg id="graph" class="graph">
<g id="viewport">
<title>amunmt::util::FileOpenException</title>
<polygon fill="white" stroke="none" points="-4,4 -4,-456 188,-456 188,4 -4,4"/>
<!-- Node1 -->
<g id="node1" class="node"><title>Node1</title>
<polygon fill="#bfbfbf" stroke="black" points="-1.42109e-14,-0.5 -1.42109e-14,-68.5 159,-68.5 159,-0.5 -1.42109e-14,-0.5"/>
<text text-anchor="middle" x="79.5" y="-56.5" font-family="Helvetica,sans-Serif" font-size="10.00">amunmt::util::FileOpenException</text>
<polyline fill="none" stroke="black" points="-1.42109e-14,-49.5 159,-49.5 "/>
<text text-anchor="middle" x="79.5" y="-37.5" font-family="Helvetica,sans-Serif" font-size="10.00"> </text>
<polyline fill="none" stroke="black" points="-1.42109e-14,-30.5 159,-30.5 "/>
<text text-anchor="start" x="8" y="-18.5" font-family="Helvetica,sans-Serif" font-size="10.00">+ FileOpenException()</text>
<text text-anchor="start" x="8" y="-7.5" font-family="Helvetica,sans-Serif" font-size="10.00">+ ~FileOpenException()</text>
</g>
<!-- Node2 -->
<g id="node2" class="node"><title>Node2</title>
<g id="a_node2"><a xlink:href="../../da/d08/classamunmt_1_1util_1_1Exception.html" target="_top" xlink:title="{amunmt::util::Exception\n||+ Exception()\l+ ~Exception()\l+ Exception()\l+ what()\l+ SetLocation()\l&#45; Append()\l&#45; Append()\l&#45; Append()\l}">
<polygon fill="white" stroke="black" points="19.5,-106.5 19.5,-240.5 139.5,-240.5 139.5,-106.5 19.5,-106.5"/>
<text text-anchor="middle" x="79.5" y="-228.5" font-family="Helvetica,sans-Serif" font-size="10.00">amunmt::util::Exception</text>
<polyline fill="none" stroke="black" points="19.5,-221.5 139.5,-221.5 "/>
<text text-anchor="middle" x="79.5" y="-209.5" font-family="Helvetica,sans-Serif" font-size="10.00"> </text>
<polyline fill="none" stroke="black" points="19.5,-202.5 139.5,-202.5 "/>
<text text-anchor="start" x="27.5" y="-190.5" font-family="Helvetica,sans-Serif" font-size="10.00">+ Exception()</text>
<text text-anchor="start" x="27.5" y="-179.5" font-family="Helvetica,sans-Serif" font-size="10.00">+ ~Exception()</text>
<text text-anchor="start" x="27.5" y="-168.5" font-family="Helvetica,sans-Serif" font-size="10.00">+ Exception()</text>
<text text-anchor="start" x="27.5" y="-157.5" font-family="Helvetica,sans-Serif" font-size="10.00">+ what()</text>
<text text-anchor="start" x="27.5" y="-146.5" font-family="Helvetica,sans-Serif" font-size="10.00">+ SetLocation()</text>
<text text-anchor="start" x="27.5" y="-135.5" font-family="Helvetica,sans-Serif" font-size="10.00">&#45; Append()</text>
<text text-anchor="start" x="27.5" y="-124.5" font-family="Helvetica,sans-Serif" font-size="10.00">&#45; Append()</text>
<text text-anchor="start" x="27.5" y="-113.5" font-family="Helvetica,sans-Serif" font-size="10.00">&#45; Append()</text>
</a>
</g>
</g>
<!-- Node2&#45;&gt;Node1 -->
<g id="edge1" class="edge"><title>Node2&#45;&gt;Node1</title>
<path fill="none" stroke="midnightblue" d="M79.5,-96.2563C79.5,-86.556 79.5,-77.0656 79.5,-68.5765"/>
<polygon fill="none" stroke="midnightblue" points="76.0001,-96.4077 79.5,-106.408 83.0001,-96.4078 76.0001,-96.4077"/>
</g>
<!-- Node3 -->
<g id="node3" class="node"><title>Node3</title>
<g id="a_node3"><a xlink:title="STL class. ">
<polygon fill="white" stroke="#bfbfbf" points="10.5,-288.5 10.5,-345.5 88.5,-345.5 88.5,-288.5 10.5,-288.5"/>
<text text-anchor="middle" x="49.5" y="-333.5" font-family="Helvetica,sans-Serif" font-size="10.00">std::exception</text>
<polyline fill="none" stroke="#bfbfbf" points="10.5,-326.5 88.5,-326.5 "/>
<text text-anchor="middle" x="49.5" y="-314.5" font-family="Helvetica,sans-Serif" font-size="10.00"> </text>
<polyline fill="none" stroke="#bfbfbf" points="10.5,-307.5 88.5,-307.5 "/>
<text text-anchor="middle" x="49.5" y="-295.5" font-family="Helvetica,sans-Serif" font-size="10.00"> </text>
</a>
</g>
</g>
<!-- Node3&#45;&gt;Node2 -->
<g id="edge2" class="edge"><title>Node3&#45;&gt;Node2</title>
<path fill="none" stroke="midnightblue" d="M57.4299,-278.597C59.898,-266.956 62.6973,-253.753 65.4535,-240.753"/>
<polygon fill="none" stroke="midnightblue" points="54.0057,-277.873 55.3555,-288.381 60.8535,-279.325 54.0057,-277.873"/>
</g>
<!-- Node4 -->
<g id="node4" class="node"><title>Node4</title>
<g id="a_node4"><a xlink:title="STL class. ">
<polygon fill="white" stroke="#bfbfbf" points="106.5,-288.5 106.5,-345.5 166.5,-345.5 166.5,-288.5 106.5,-288.5"/>
<text text-anchor="middle" x="136.5" y="-333.5" font-family="Helvetica,sans-Serif" font-size="10.00">std::string</text>
<polyline fill="none" stroke="#bfbfbf" points="106.5,-326.5 166.5,-326.5 "/>
<text text-anchor="middle" x="136.5" y="-314.5" font-family="Helvetica,sans-Serif" font-size="10.00"> </text>
<polyline fill="none" stroke="#bfbfbf" points="106.5,-307.5 166.5,-307.5 "/>
<text text-anchor="middle" x="136.5" y="-295.5" font-family="Helvetica,sans-Serif" font-size="10.00"> </text>
</a>
</g>
</g>
<!-- Node4&#45;&gt;Node2 -->
<g id="edge3" class="edge"><title>Node4&#45;&gt;Node2</title>
<path fill="none" stroke="#404040" d="M125.375,-288.381C121.115,-277.806 116.017,-265.153 110.794,-252.185"/>
<polygon fill="none" stroke="#404040" points="110.672,-251.883 104.72,-247.813 106.188,-240.753 112.141,-244.823 110.672,-251.883"/>
<text text-anchor="middle" x="132" y="-262" font-family="Helvetica,sans-Serif" font-size="10.00"> &#45;what_</text>
</g>
<!-- Node5 -->
<g id="node5" class="node"><title>Node5</title>
<polygon fill="white" stroke="#bfbfbf" points="89,-383.5 89,-451.5 184,-451.5 184,-383.5 89,-383.5"/>
<text text-anchor="start" x="97" y="-439.5" font-family="Helvetica,sans-Serif" font-size="10.00">std::basic_string&lt;</text>
<text text-anchor="middle" x="136.5" y="-428.5" font-family="Helvetica,sans-Serif" font-size="10.00"> char &gt;</text>
<polyline fill="none" stroke="#bfbfbf" points="89,-421.5 184,-421.5 "/>
<text text-anchor="middle" x="136.5" y="-409.5" font-family="Helvetica,sans-Serif" font-size="10.00"> </text>
<polyline fill="none" stroke="#bfbfbf" points="89,-402.5 184,-402.5 "/>
<text text-anchor="middle" x="136.5" y="-390.5" font-family="Helvetica,sans-Serif" font-size="10.00"> </text>
</g>
<!-- Node5&#45;&gt;Node4 -->
<g id="edge4" class="edge"><title>Node5&#45;&gt;Node4</title>
<path fill="none" stroke="midnightblue" d="M136.5,-373.375C136.5,-363.94 136.5,-354.201 136.5,-345.571"/>
<polygon fill="none" stroke="midnightblue" points="133,-373.427 136.5,-383.427 140,-373.427 133,-373.427"/>
</g>
</g>
</svg>
        <g id="navigator" transform="translate(0 0)" fill="#404254">
                <rect fill="#f2f5e9" fill-opacity="0.5" stroke="#606060" stroke-width=".5" x="0" y="0" width="60" height="60"/>
                <use id="zoomplus" xlink:href="#zoomPlus" x="17" y="9" onmousedown="handleZoom(evt,'in')"/>
                <use id="zoomminus" xlink:href="#zoomMin" x="42" y="9" onmousedown="handleZoom(evt,'out')"/>
                <use id="reset" xlink:href="#resetDef" x="30" y="36" onmousedown="handleReset()"/>
                <g id="arrowUp" xlink:href="#dirArrow" transform="translate(30 24)" onmousedown="handlePan(0,-1)">
                  <use xlink:href="#rim" fill="#404040">
                        <set attributeName="fill" to="#808080" begin="arrowUp.mouseover" end="arrowUp.mouseout"/>
                  </use>
                  <path fill="none" stroke="white" stroke-width="1.5" d="M0,-3.0v7 M-2.5,-0.5L0,-3.0L2.5,-0.5"/>
                </g>
                <g id="arrowRight" xlink:href="#dirArrow" transform="rotate(90) translate(36 -43)" onmousedown="handlePan(1,0)">
                  <use xlink:href="#rim" fill="#404040">
                        <set attributeName="fill" to="#808080" begin="arrowRight.mouseover" end="arrowRight.mouseout"/>
                  </use>
                  <path fill="none" stroke="white" stroke-width="1.5" d="M0,-3.0v7 M-2.5,-0.5L0,-3.0L2.5,-0.5"/>
                </g>
                <g id="arrowDown" xlink:href="#dirArrow" transform="rotate(180) translate(-30 -48)" onmousedown="handlePan(0,1)">
                  <use xlink:href="#rim" fill="#404040">
                        <set attributeName="fill" to="#808080" begin="arrowDown.mouseover" end="arrowDown.mouseout"/>
                  </use>
                  <path fill="none" stroke="white" stroke-width="1.5" d="M0,-3.0v7 M-2.5,-0.5L0,-3.0L2.5,-0.5"/>
                </g>
                <g id="arrowLeft" xlink:href="#dirArrow" transform="rotate(270) translate(-36 17)" onmousedown="handlePan(-1,0)">
                  <use xlink:href="#rim" fill="#404040">
                        <set attributeName="fill" to="#808080" begin="arrowLeft.mouseover" end="arrowLeft.mouseout"/>
                  </use>
                  <path fill="none" stroke="white" stroke-width="1.5" d="M0,-3.0v7 M-2.5,-0.5L0,-3.0L2.5,-0.5"/>
                </g>
        </g>
        <svg viewBox="0 0 15 15" width="100%" height="30px" preserveAspectRatio="xMaxYMin meet">
         <g id="arrow_out" transform="scale(0.3 0.3)">
          <a xlink:href="classamunmt_1_1util_1_1FileOpenException__coll__graph_org.svg" target="_base">
           <rect id="button" ry="5" rx="5" y="6" x="6" height="38" width="38"
                fill="#f2f5e9" fill-opacity="0.5" stroke="#606060" stroke-width="1.0"/>
           <path id="arrow"
             d="M 11.500037,31.436501 C 11.940474,20.09759 22.043105,11.32322 32.158766,21.979434 L 37.068811,17.246167 C 37.068811,17.246167 37.088388,32 37.088388,32 L 22.160133,31.978069 C 22.160133,31.978069 26.997745,27.140456 26.997745,27.140456 C 18.528582,18.264221 13.291696,25.230495 11.500037,31.436501 z"
             style="fill:#404040;"/>
          </a>
         </g>
        </svg>
</svg>
