<?xml version="1.0" encoding="UTF-8" standalone="no"?>
<!DOCTYPE svg PUBLIC "-//W3C//DTD SVG 1.1//EN"
 "http://www.w3.org/Graphics/SVG/1.1/DTD/svg11.dtd">
<!-- Generated by graphviz version 2.38.0 (20140413.2041)
 -->
<!-- Title: marian::DecoderHardAtt::groundTruth Pages: 1 -->
<!--zoomable 192 -->
<svg id="main" version="1.1" xmlns="http://www.w3.org/2000/svg" xmlns:xlink="http://www.w3.org/1999/xlink" xml:space="preserve" onload="init(evt)">
<style type="text/css"><![CDATA[
.edge:hover path { stroke: red; }
.edge:hover polygon { stroke: red; fill: red; }
]]></style>
<script type="text/javascript"><![CDATA[
var edges = document.getElementsByTagName('g');
if (edges && edges.length) {
  for (var i=0;i<edges.length;i++) {
    if (edges[i].id.substr(0,4)=='edge') {
      edges[i].setAttribute('class','edge');
    }
  }
}
]]></script>
        <defs>
                <circle id="rim" cx="0" cy="0" r="7"/>
                <circle id="rim2" cx="0" cy="0" r="3.5"/>
                <g id="zoomPlus">
                        <use xlink:href="#rim" fill="#404040">
                                <set attributeName="fill" to="#808080" begin="zoomplus.mouseover" end="zoomplus.mouseout"/>
                        </use>
                        <path d="M-4,0h8M0,-4v8" fill="none" stroke="white" stroke-width="1.5" pointer-events="none"/>
                </g>
                <g id="zoomMin">
                        <use xlink:href="#rim" fill="#404040">
                                <set attributeName="fill" to="#808080" begin="zoomminus.mouseover" end="zoomminus.mouseout"/>
                        </use>
                        <path d="M-4,0h8" fill="none" stroke="white" stroke-width="1.5" pointer-events="none"/>
                </g>
                <g id="dirArrow">
                        <path fill="none" stroke="white" stroke-width="1.5" d="M0,-3.0v7 M-2.5,-0.5L0,-3.0L2.5,-0.5"/>
                </g>
               <g id="resetDef">
                       <use xlink:href="#rim2" fill="#404040">
                               <set attributeName="fill" to="#808080" begin="reset.mouseover" end="reset.mouseout"/>
                       </use>
               </g>
        </defs>

<script type="text/javascript">
var viewWidth = 561;
var viewHeight = 192;
var sectionId = 'dynsection-2';
</script>
<script xlink:href="../../svgpan.js"/>
<svg id="graph" class="graph">
<g id="viewport">
<title>marian::DecoderHardAtt::groundTruth</title>
<polygon fill="white" stroke="none" points="-4,4 -4,-188 557,-188 557,4 -4,4"/>
<!-- Node1 -->
<g id="node1" class="node"><title>Node1</title>
<polygon fill="#bfbfbf" stroke="black" points="0,-58 0,-88 122,-88 122,-58 0,-58"/>
<text text-anchor="start" x="8" y="-76" font-family="Helvetica,sans-Serif" font-size="10.00">marian::DecoderHardAtt</text>
<text text-anchor="middle" x="61" y="-65" font-family="Helvetica,sans-Serif" font-size="10.00">::groundTruth</text>
</g>
<!-- Node2 -->
<g id="node2" class="node"><title>Node2</title>
<g id="a_node2"><a xlink:href="../../db/d04/classmarian_1_1DecoderBase.html#a6b202f7578740e5f6045e15883bcd1ac" target="_top" xlink:title="marian::DecoderBase\l::groundTruth">
<polygon fill="white" stroke="black" points="169,-83 169,-113 280,-113 280,-83 169,-83"/>
<text text-anchor="start" x="177" y="-101" font-family="Helvetica,sans-Serif" font-size="10.00">marian::DecoderBase</text>
<text text-anchor="middle" x="224.5" y="-90" font-family="Helvetica,sans-Serif" font-size="10.00">::groundTruth</text>
</a>
</g>
</g>
<!-- Node1&#45;&gt;Node2 -->
<g id="edge1" class="edge"><title>Node1&#45;&gt;Node2</title>
<path fill="none" stroke="midnightblue" d="M122.137,-82.3091C134.117,-84.1637 146.747,-86.1188 158.871,-87.9956"/>
<polygon fill="midnightblue" stroke="midnightblue" points="158.494,-91.4787 168.911,-89.5498 159.565,-84.5611 158.494,-91.4787"/>
</g>
<!-- Node9 -->
<g id="node9" class="node"><title>Node9</title>
<g id="a_node9"><a xlink:href="../../d0/d78/classmarian_1_1DecoderStateHardAtt.html#afcc7783d427f92534005f363967db1f2" target="_top" xlink:title="marian::DecoderStateHard\lAtt::setAttentionIndices">
<polygon fill="white" stroke="black" points="158,-34 158,-64 291,-64 291,-34 158,-34"/>
<text text-anchor="start" x="166" y="-52" font-family="Helvetica,sans-Serif" font-size="10.00">marian::DecoderStateHard</text>
<text text-anchor="middle" x="224.5" y="-41" font-family="Helvetica,sans-Serif" font-size="10.00">Att::setAttentionIndices</text>
</a>
</g>
</g>
<!-- Node1&#45;&gt;Node9 -->
<g id="edge8" class="edge"><title>Node1&#45;&gt;Node9</title>
<path fill="none" stroke="midnightblue" d="M122.137,-64.0633C130.516,-62.818 139.213,-61.5256 147.833,-60.2447"/>
<polygon fill="midnightblue" stroke="midnightblue" points="148.515,-63.6818 157.892,-58.7498 147.486,-56.7579 148.515,-63.6818"/>
</g>
<!-- Node3 -->
<g id="node3" class="node"><title>Node3</title>
<g id="a_node3"><a xlink:href="../../da/d22/namespacemarian.html#ace1e9a63d52edc363d70d661cf8d0257" target="_top" xlink:title="marian::rows">
<polygon fill="white" stroke="black" points="338,-164.5 338,-183.5 411,-183.5 411,-164.5 338,-164.5"/>
<text text-anchor="middle" x="374.5" y="-171.5" font-family="Helvetica,sans-Serif" font-size="10.00">marian::rows</text>
</a>
</g>
</g>
<!-- Node2&#45;&gt;Node3 -->
<g id="edge2" class="edge"><title>Node2&#45;&gt;Node3</title>
<path fill="none" stroke="midnightblue" d="M250.483,-113.176C270.75,-125.206 300.246,-142.083 327,-155 330.799,-156.834 334.823,-158.654 338.851,-160.398"/>
<polygon fill="midnightblue" stroke="midnightblue" points="337.577,-163.66 348.152,-164.306 340.288,-157.206 337.577,-163.66"/>
</g>
<!-- Node4 -->
<g id="node4" class="node"><title>Node4</title>
<g id="a_node4"><a xlink:href="../../da/d22/namespacemarian.html#acd984f43188d0ae23c2a6ef13ae5293f" target="_top" xlink:title="marian::reshape">
<polygon fill="white" stroke="black" points="331.5,-126.5 331.5,-145.5 417.5,-145.5 417.5,-126.5 331.5,-126.5"/>
<text text-anchor="middle" x="374.5" y="-133.5" font-family="Helvetica,sans-Serif" font-size="10.00">marian::reshape</text>
</a>
</g>
</g>
<!-- Node2&#45;&gt;Node4 -->
<g id="edge3" class="edge"><title>Node2&#45;&gt;Node4</title>
<path fill="none" stroke="midnightblue" d="M280.189,-112.042C295.31,-115.924 311.586,-120.103 326.245,-123.867"/>
<polygon fill="midnightblue" stroke="midnightblue" points="325.545,-127.301 336.101,-126.398 327.286,-120.521 325.545,-127.301"/>
</g>
<!-- Node5 -->
<g id="node5" class="node"><title>Node5</title>
<g id="a_node5"><a xlink:href="../../d5/d49/amunmt_8cpp.html#a2e8ddb8bd2f3405f554c9f2c52277f4b" target="_top" xlink:title="init">
<polygon fill="white" stroke="black" points="360,-88.5 360,-107.5 389,-107.5 389,-88.5 360,-88.5"/>
<text text-anchor="middle" x="374.5" y="-95.5" font-family="Helvetica,sans-Serif" font-size="10.00">init</text>
</a>
</g>
</g>
<!-- Node2&#45;&gt;Node5 -->
<g id="edge4" class="edge"><title>Node2&#45;&gt;Node5</title>
<path fill="none" stroke="midnightblue" d="M280.189,-98C304.143,-98 331,-98 349.728,-98"/>
<polygon fill="midnightblue" stroke="midnightblue" points="349.732,-101.5 359.732,-98 349.732,-94.5001 349.732,-101.5"/>
</g>
<!-- Node7 -->
<g id="node7" class="node"><title>Node7</title>
<g id="a_node7"><a xlink:href="../../d4/dec/namespacemarian_1_1inits.html#ab9566318ddbacd376c74cdbdfac091e4" target="_top" xlink:title="marian::inits::from\l_vector">
<polygon fill="white" stroke="black" points="327,-39 327,-69 422,-69 422,-39 327,-39"/>
<text text-anchor="start" x="335" y="-57" font-family="Helvetica,sans-Serif" font-size="10.00">marian::inits::from</text>
<text text-anchor="middle" x="374.5" y="-46" font-family="Helvetica,sans-Serif" font-size="10.00">_vector</text>
</a>
</g>
</g>
<!-- Node2&#45;&gt;Node7 -->
<g id="edge6" class="edge"><title>Node2&#45;&gt;Node7</title>
<path fill="none" stroke="midnightblue" d="M276.019,-82.9808C289.227,-79.0543 303.547,-74.7968 317.042,-70.7849"/>
<polygon fill="midnightblue" stroke="midnightblue" points="318.106,-74.1199 326.694,-67.9153 316.111,-67.4102 318.106,-74.1199"/>
</g>
<!-- Node8 -->
<g id="node8" class="node"><title>Node8</title>
<g id="a_node8"><a xlink:href="../../da/d22/namespacemarian.html#a763e5e9b5d5a329d2420fe9bab95476d" target="_top" xlink:title="marian::shift">
<polygon fill="white" stroke="black" points="339,-0.5 339,-19.5 410,-19.5 410,-0.5 339,-0.5"/>
<text text-anchor="middle" x="374.5" y="-7.5" font-family="Helvetica,sans-Serif" font-size="10.00">marian::shift</text>
</a>
</g>
</g>
<!-- Node2&#45;&gt;Node8 -->
<g id="edge7" class="edge"><title>Node2&#45;&gt;Node8</title>
<path fill="none" stroke="midnightblue" d="M273.87,-82.8895C279.895,-80.0563 285.768,-76.7736 291,-73 311.493,-58.2196 306.681,-44.018 327,-29 329.446,-27.1923 332.088,-25.5245 334.828,-23.992"/>
<polygon fill="midnightblue" stroke="midnightblue" points="336.384,-27.1275 343.791,-19.5527 333.277,-20.8547 336.384,-27.1275"/>
</g>
<!-- Node6 -->
<g id="node6" class="node"><title>Node6</title>
<g id="a_node6"><a xlink:href="../../d7/d4e/classamunmt_1_1God.html#add49c80e570f5be5b2802565458f1c36" target="_top" xlink:title="amunmt::God::Init">
<polygon fill="white" stroke="black" points="458,-88.5 458,-107.5 553,-107.5 553,-88.5 458,-88.5"/>
<text text-anchor="middle" x="505.5" y="-95.5" font-family="Helvetica,sans-Serif" font-size="10.00">amunmt::God::Init</text>
</a>
</g>
</g>
<!-- Node5&#45;&gt;Node6 -->
<g id="edge5" class="edge"><title>Node5&#45;&gt;Node6</title>
<path fill="none" stroke="midnightblue" d="M389.305,-98C403.389,-98 426.184,-98 447.795,-98"/>
<polygon fill="midnightblue" stroke="midnightblue" points="447.934,-101.5 457.934,-98 447.934,-94.5001 447.934,-101.5"/>
</g>
</g>
</svg>
        <g id="navigator" transform="translate(0 0)" fill="#404254">
                <rect fill="#f2f5e9" fill-opacity="0.5" stroke="#606060" stroke-width=".5" x="0" y="0" width="60" height="60"/>
                <use id="zoomplus" xlink:href="#zoomPlus" x="17" y="9" onmousedown="handleZoom(evt,'in')"/>
                <use id="zoomminus" xlink:href="#zoomMin" x="42" y="9" onmousedown="handleZoom(evt,'out')"/>
                <use id="reset" xlink:href="#resetDef" x="30" y="36" onmousedown="handleReset()"/>
                <g id="arrowUp" xlink:href="#dirArrow" transform="translate(30 24)" onmousedown="handlePan(0,-1)">
                  <use xlink:href="#rim" fill="#404040">
                        <set attributeName="fill" to="#808080" begin="arrowUp.mouseover" end="arrowUp.mouseout"/>
                  </use>
                  <path fill="none" stroke="white" stroke-width="1.5" d="M0,-3.0v7 M-2.5,-0.5L0,-3.0L2.5,-0.5"/>
                </g>
                <g id="arrowRight" xlink:href="#dirArrow" transform="rotate(90) translate(36 -43)" onmousedown="handlePan(1,0)">
                  <use xlink:href="#rim" fill="#404040">
                        <set attributeName="fill" to="#808080" begin="arrowRight.mouseover" end="arrowRight.mouseout"/>
                  </use>
                  <path fill="none" stroke="white" stroke-width="1.5" d="M0,-3.0v7 M-2.5,-0.5L0,-3.0L2.5,-0.5"/>
                </g>
                <g id="arrowDown" xlink:href="#dirArrow" transform="rotate(180) translate(-30 -48)" onmousedown="handlePan(0,1)">
                  <use xlink:href="#rim" fill="#404040">
                        <set attributeName="fill" to="#808080" begin="arrowDown.mouseover" end="arrowDown.mouseout"/>
                  </use>
                  <path fill="none" stroke="white" stroke-width="1.5" d="M0,-3.0v7 M-2.5,-0.5L0,-3.0L2.5,-0.5"/>
                </g>
                <g id="arrowLeft" xlink:href="#dirArrow" transform="rotate(270) translate(-36 17)" onmousedown="handlePan(-1,0)">
                  <use xlink:href="#rim" fill="#404040">
                        <set attributeName="fill" to="#808080" begin="arrowLeft.mouseover" end="arrowLeft.mouseout"/>
                  </use>
                  <path fill="none" stroke="white" stroke-width="1.5" d="M0,-3.0v7 M-2.5,-0.5L0,-3.0L2.5,-0.5"/>
                </g>
        </g>
        <svg viewBox="0 0 15 15" width="100%" height="30px" preserveAspectRatio="xMaxYMin meet">
         <g id="arrow_out" transform="scale(0.3 0.3)">
          <a xlink:href="classmarian_1_1DecoderHardAtt_a20c5fc9460ee067576498a4e1c653706_cgraph_org.svg" target="_base">
           <rect id="button" ry="5" rx="5" y="6" x="6" height="38" width="38"
                fill="#f2f5e9" fill-opacity="0.5" stroke="#606060" stroke-width="1.0"/>
           <path id="arrow"
             d="M 11.500037,31.436501 C 11.940474,20.09759 22.043105,11.32322 32.158766,21.979434 L 37.068811,17.246167 C 37.068811,17.246167 37.088388,32 37.088388,32 L 22.160133,31.978069 C 22.160133,31.978069 26.997745,27.140456 26.997745,27.140456 C 18.528582,18.264221 13.291696,25.230495 11.500037,31.436501 z"
             style="fill:#404040;"/>
          </a>
         </g>
        </svg>
</svg>
