<?xml version="1.0" encoding="UTF-8" standalone="no"?>
<!DOCTYPE svg PUBLIC "-//W3C//DTD SVG 1.1//EN"
 "http://www.w3.org/Graphics/SVG/1.1/DTD/svg11.dtd">
<!-- Generated by graphviz version 2.38.0 (20140413.2041)
 -->
<!-- Title: marian::Motorway::operator() Pages: 1 -->
<svg width="256pt" height="66pt"
 viewBox="0.00 0.00 256.00 66.00" xmlns="http://www.w3.org/2000/svg" xmlns:xlink="http://www.w3.org/1999/xlink">
<g id="graph0" class="graph" transform="scale(1 1) rotate(0) translate(4 62)">
<title>marian::Motorway::operator()</title>
<polygon fill="white" stroke="none" points="-4,4 -4,-62 252,-62 252,4 -4,4"/>
<!-- Node1 -->
<g id="node1" class="node"><title>Node1</title>
<polygon fill="#bfbfbf" stroke="black" points="0,-19.5 0,-38.5 142,-38.5 142,-19.5 0,-19.5"/>
<text text-anchor="middle" x="71" y="-26.5" font-family="Helvetica,sans-Serif" font-size="10.00">marian::Motorway::operator()</text>
</g>
<!-- Node2 -->
<g id="node2" class="node"><title>Node2</title>
<g id="a_node2"><a xlink:href="../../da/d22/namespacemarian.html#a72a6c5cedeadde602b3621a3450dbebe" target="_top" xlink:title="marian::logit">
<polygon fill="white" stroke="black" points="178,-38.5 178,-57.5 248,-57.5 248,-38.5 178,-38.5"/>
<text text-anchor="middle" x="213" y="-45.5" font-family="Helvetica,sans-Serif" font-size="10.00">marian::logit</text>
</a>
</g>
</g>
<!-- Node1&#45;&gt;Node2 -->
<g id="edge1" class="edge"><title>Node1&#45;&gt;Node2</title>
<path fill="none" stroke="midnightblue" d="M142.41,-38.5557C151.124,-39.7382 159.829,-40.9196 167.985,-42.0266"/>
<polygon fill="midnightblue" stroke="midnightblue" points="167.603,-45.5067 177.983,-43.3834 168.544,-38.5703 167.603,-45.5067"/>
</g>
<!-- Node3 -->
<g id="node3" class="node"><title>Node3</title>
<g id="a_node3"><a xlink:href="../../da/d22/namespacemarian.html#a6228f7e46aeed337e3886df6446b7840" target="_top" xlink:title="marian::relu">
<polygon fill="white" stroke="black" points="179,-0.5 179,-19.5 247,-19.5 247,-0.5 179,-0.5"/>
<text text-anchor="middle" x="213" y="-7.5" font-family="Helvetica,sans-Serif" font-size="10.00">marian::relu</text>
</a>
</g>
</g>
<!-- Node1&#45;&gt;Node3 -->
<g id="edge2" class="edge"><title>Node1&#45;&gt;Node3</title>
<path fill="none" stroke="midnightblue" d="M142.41,-19.4443C151.315,-18.2358 160.211,-17.0284 168.522,-15.9005"/>
<polygon fill="midnightblue" stroke="midnightblue" points="169.255,-19.3333 178.693,-14.5202 168.313,-12.3969 169.255,-19.3333"/>
</g>
</g>
</svg>
