<?xml version="1.0" encoding="UTF-8" standalone="no"?>
<!DOCTYPE svg PUBLIC "-//W3C//DTD SVG 1.1//EN"
 "http://www.w3.org/Graphics/SVG/1.1/DTD/svg11.dtd">
<!-- Generated by graphviz version 2.38.0 (20140413.2041)
 -->
<!-- Title: process_word2vec.main Pages: 1 -->
<svg width="396pt" height="176pt"
 viewBox="0.00 0.00 396.00 176.43" xmlns="http://www.w3.org/2000/svg" xmlns:xlink="http://www.w3.org/1999/xlink">
<g id="graph0" class="graph" transform="scale(1 1) rotate(0) translate(4 172.428)">
<title>process_word2vec.main</title>
<polygon fill="white" stroke="none" points="-4,4 -4,-172.428 392,-172.428 392,4 -4,4"/>
<!-- Node1 -->
<g id="node1" class="node"><title>Node1</title>
<polygon fill="#bfbfbf" stroke="black" points="0,-80.4277 0,-99.4277 122,-99.4277 122,-80.4277 0,-80.4277"/>
<text text-anchor="middle" x="61" y="-87.4277" font-family="Helvetica,sans-Serif" font-size="10.00">process_word2vec.main</text>
</g>
<!-- Node2 -->
<g id="node2" class="node"><title>Node2</title>
<g id="a_node2"><a xlink:href="$dd/df7/namespaceprocess__word2vec.html#a104f2b1f7f16fe4bb005d75d662b5407" xlink:title="process_word2vec.parse\l_user_args">
<polygon fill="white" stroke="black" points="175,-137.928 175,-167.928 300,-167.928 300,-137.928 175,-137.928"/>
<text text-anchor="start" x="183" y="-155.928" font-family="Helvetica,sans-Serif" font-size="10.00">process_word2vec.parse</text>
<text text-anchor="middle" x="237.5" y="-144.928" font-family="Helvetica,sans-Serif" font-size="10.00">_user_args</text>
</a>
</g>
</g>
<!-- Node1&#45;&gt;Node2 -->
<g id="edge1" class="edge"><title>Node1&#45;&gt;Node2</title>
<path fill="none" stroke="midnightblue" d="M105.728,-99.5382C122.041,-105.505 140.779,-112.785 158,-118.928 172.418,-124.07 188.5,-129.282 202.336,-134.265"/>
<polygon fill="midnightblue" stroke="midnightblue" points="201.364,-137.638 211.957,-137.848 203.807,-131.078 201.364,-137.638"/>
</g>
<!-- Node3 -->
<g id="node3" class="node"><title>Node3</title>
<g id="a_node3"><a xlink:href="$dd/df7/namespaceprocess__word2vec.html#a6e39a5dbf33a1c2bb0d4c2354051203f" xlink:title="process_word2vec.load_yaml">
<polygon fill="white" stroke="black" points="164.5,-99.4277 164.5,-118.428 310.5,-118.428 310.5,-99.4277 164.5,-99.4277"/>
<text text-anchor="middle" x="237.5" y="-106.428" font-family="Helvetica,sans-Serif" font-size="10.00">process_word2vec.load_yaml</text>
</a>
</g>
</g>
<!-- Node1&#45;&gt;Node3 -->
<g id="edge3" class="edge"><title>Node1&#45;&gt;Node3</title>
<path fill="none" stroke="midnightblue" d="M122.053,-96.4665C132.469,-97.6006 143.46,-98.7973 154.345,-99.9825"/>
<polygon fill="midnightblue" stroke="midnightblue" points="153.972,-103.462 164.292,-101.066 154.73,-96.5036 153.972,-103.462"/>
</g>
<!-- Node4 -->
<g id="node4" class="node"><title>Node4</title>
<g id="a_node4"><a xlink:href="$da/d22/namespacemarian.html#a460460a6de63beebc5d968b44d49d11b" xlink:title="marian::sum">
<polygon fill="white" stroke="black" points="202,-61.4277 202,-80.4277 273,-80.4277 273,-61.4277 202,-61.4277"/>
<text text-anchor="middle" x="237.5" y="-68.4277" font-family="Helvetica,sans-Serif" font-size="10.00">marian::sum</text>
</a>
</g>
</g>
<!-- Node1&#45;&gt;Node4 -->
<g id="edge4" class="edge"><title>Node1&#45;&gt;Node4</title>
<path fill="none" stroke="midnightblue" d="M122.053,-83.389C144.928,-80.8983 170.575,-78.1058 191.783,-75.7966"/>
<polygon fill="midnightblue" stroke="midnightblue" points="192.244,-79.2673 201.806,-74.7053 191.486,-72.3084 192.244,-79.2673"/>
</g>
<!-- Node5 -->
<g id="node5" class="node"><title>Node5</title>
<g id="a_node5"><a xlink:href="$dd/df7/namespaceprocess__word2vec.html#a0c9fc4391f1004542a2cd02996445980" xlink:title="process_word2vec.replace_unks">
<polygon fill="white" stroke="black" points="158,-23.4277 158,-42.4277 317,-42.4277 317,-23.4277 158,-23.4277"/>
<text text-anchor="middle" x="237.5" y="-30.4277" font-family="Helvetica,sans-Serif" font-size="10.00">process_word2vec.replace_unks</text>
</a>
</g>
</g>
<!-- Node1&#45;&gt;Node5 -->
<g id="edge5" class="edge"><title>Node1&#45;&gt;Node5</title>
<path fill="none" stroke="midnightblue" d="M83.7998,-80.288C103.055,-72.0181 132.03,-60.1664 158,-51.9277 165.792,-49.456 174.106,-47.1246 182.3,-44.998"/>
<polygon fill="midnightblue" stroke="midnightblue" points="183.348,-48.3434 192.192,-42.5098 181.64,-41.5549 183.348,-48.3434"/>
</g>
<!-- Node6 -->
<g id="node6" class="node"><title>Node6</title>
<g id="a_node6"><a xlink:href="$df/d5c/align2steps_8cpp.html#acc994bdb70df3b28bc0f94aede3731c3" xlink:title="split">
<polygon fill="white" stroke="black" points="353,-4.42774 353,-23.4277 388,-23.4277 388,-4.42774 353,-4.42774"/>
<text text-anchor="middle" x="370.5" y="-11.4277" font-family="Helvetica,sans-Serif" font-size="10.00">split</text>
</a>
</g>
</g>
<!-- Node1&#45;&gt;Node6 -->
<g id="edge7" class="edge"><title>Node1&#45;&gt;Node6</title>
<path fill="none" stroke="midnightblue" d="M70.0076,-80.2973C85.0881,-63.0086 119.653,-27.2693 158,-13.9277 221.351,8.11344 301.985,-1.30155 342.978,-8.5031"/>
<polygon fill="midnightblue" stroke="midnightblue" points="342.507,-11.9753 352.977,-10.3567 343.783,-5.09258 342.507,-11.9753"/>
</g>
<!-- Node2&#45;&gt;Node1 -->
<g id="edge2" class="edge"><title>Node2&#45;&gt;Node1</title>
<path fill="none" stroke="midnightblue" d="M174.659,-142.639C169.01,-140.781 163.389,-138.85 158,-136.928 130.971,-127.287 100.204,-114.843 80.9451,-104.671"/>
<polygon fill="midnightblue" stroke="midnightblue" points="82.4263,-101.487 72.0035,-99.586 78.9658,-107.572 82.4263,-101.487"/>
</g>
<!-- Node5&#45;&gt;Node6 -->
<g id="edge6" class="edge"><title>Node5&#45;&gt;Node6</title>
<path fill="none" stroke="midnightblue" d="M304.384,-23.3721C318,-21.3972 331.593,-19.4256 342.811,-17.7986"/>
<polygon fill="midnightblue" stroke="midnightblue" points="343.368,-21.2546 352.762,-16.3554 342.363,-14.3271 343.368,-21.2546"/>
</g>
</g>
</svg>
