<?xml version="1.0" encoding="UTF-8" standalone="no"?>
<!DOCTYPE svg PUBLIC "-//W3C//DTD SVG 1.1//EN"
 "http://www.w3.org/Graphics/SVG/1.1/DTD/svg11.dtd">
<!-- Generated by graphviz version 2.38.0 (20140413.2041)
 -->
<!-- Title: marian::ColsNodeOp::newShape Pages: 1 -->
<svg width="441pt" height="85pt"
 viewBox="0.00 0.00 441.00 85.00" xmlns="http://www.w3.org/2000/svg" xmlns:xlink="http://www.w3.org/1999/xlink">
<g id="graph0" class="graph" transform="scale(1 1) rotate(0) translate(4 81)">
<title>marian::ColsNodeOp::newShape</title>
<polygon fill="white" stroke="none" points="-4,4 -4,-81 437,-81 437,4 -4,4"/>
<!-- Node1 -->
<g id="node1" class="node"><title>Node1</title>
<polygon fill="#bfbfbf" stroke="black" points="0,-33 0,-63 108,-63 108,-33 0,-33"/>
<text text-anchor="start" x="8" y="-51" font-family="Helvetica,sans-Serif" font-size="10.00">marian::ColsNodeOp</text>
<text text-anchor="middle" x="54" y="-40" font-family="Helvetica,sans-Serif" font-size="10.00">::newShape</text>
</g>
<!-- Node2 -->
<g id="node2" class="node"><title>Node2</title>
<g id="a_node2"><a xlink:href="$d0/d7a/classmarian_1_1Node.html#aa631f0244ad94b4c64efab0f140bd1d5" xlink:title="marian::Node::shape">
<polygon fill="white" stroke="black" points="144,-57.5 144,-76.5 251,-76.5 251,-57.5 144,-57.5"/>
<text text-anchor="middle" x="197.5" y="-64.5" font-family="Helvetica,sans-Serif" font-size="10.00">marian::Node::shape</text>
</a>
</g>
</g>
<!-- Node1&#45;&gt;Node2 -->
<g id="edge1" class="edge"><title>Node1&#45;&gt;Node2</title>
<path fill="none" stroke="midnightblue" d="M108.092,-55.129C116.434,-56.2491 125.126,-57.4162 133.662,-58.5624"/>
<polygon fill="midnightblue" stroke="midnightblue" points="133.204,-62.0323 143.581,-59.8943 134.136,-55.0945 133.204,-62.0323"/>
</g>
<!-- Node3 -->
<g id="node3" class="node"><title>Node3</title>
<g id="a_node3"><a xlink:href="$d5/d54/structmarian_1_1Shape.html#a2849bb218aa2214bbab47256a9452caf" xlink:title="marian::Shape::set">
<polygon fill="white" stroke="black" points="148,-19.5 148,-38.5 247,-38.5 247,-19.5 148,-19.5"/>
<text text-anchor="middle" x="197.5" y="-26.5" font-family="Helvetica,sans-Serif" font-size="10.00">marian::Shape::set</text>
</a>
</g>
</g>
<!-- Node1&#45;&gt;Node3 -->
<g id="edge2" class="edge"><title>Node1&#45;&gt;Node3</title>
<path fill="none" stroke="midnightblue" d="M108.092,-40.871C117.754,-39.5737 127.885,-38.2134 137.7,-36.8955"/>
<polygon fill="midnightblue" stroke="midnightblue" points="138.335,-40.3416 147.781,-35.5418 137.404,-33.4039 138.335,-40.3416"/>
</g>
<!-- Node4 -->
<g id="node4" class="node"><title>Node4</title>
<g id="a_node4"><a xlink:href="$d5/d54/structmarian_1_1Shape.html#af416da295388777386ae8b834115066f" xlink:title="Gets a reference to the int representing the size of the ith dimension represented by this object...">
<polygon fill="white" stroke="black" points="309.5,-38.5 309.5,-57.5 410.5,-57.5 410.5,-38.5 309.5,-38.5"/>
<text text-anchor="middle" x="360" y="-45.5" font-family="Helvetica,sans-Serif" font-size="10.00">marian::Shape::dim</text>
</a>
</g>
</g>
<!-- Node3&#45;&gt;Node4 -->
<g id="edge3" class="edge"><title>Node3&#45;&gt;Node4</title>
<path fill="none" stroke="midnightblue" d="M247.091,-34.7522C263.596,-36.7061 282.229,-38.9119 299.488,-40.955"/>
<polygon fill="midnightblue" stroke="midnightblue" points="299.123,-44.4361 309.465,-42.136 299.946,-37.4846 299.123,-44.4361"/>
</g>
<!-- Node5 -->
<g id="node5" class="node"><title>Node5</title>
<g id="a_node5"><a xlink:href="$d5/d54/structmarian_1_1Shape.html#a9cf031011a4b53538dda070a77ad19f9" xlink:title="marian::Shape::updateStrides">
<polygon fill="white" stroke="black" points="287,-0.5 287,-19.5 433,-19.5 433,-0.5 287,-0.5"/>
<text text-anchor="middle" x="360" y="-7.5" font-family="Helvetica,sans-Serif" font-size="10.00">marian::Shape::updateStrides</text>
</a>
</g>
</g>
<!-- Node3&#45;&gt;Node5 -->
<g id="edge4" class="edge"><title>Node3&#45;&gt;Node5</title>
<path fill="none" stroke="midnightblue" d="M247.091,-23.2478C256.502,-22.1337 266.605,-20.9378 276.75,-19.7368"/>
<polygon fill="midnightblue" stroke="midnightblue" points="277.366,-23.1883 286.885,-18.5369 276.543,-16.2369 277.366,-23.1883"/>
</g>
</g>
</svg>
