<?xml version="1.0" encoding="UTF-8" standalone="no"?>
<!DOCTYPE svg PUBLIC "-//W3C//DTD SVG 1.1//EN"
 "http://www.w3.org/Graphics/SVG/1.1/DTD/svg11.dtd">
<!-- Generated by graphviz version 2.38.0 (20140413.2041)
 -->
<!-- Title: marian::Filter::createInfo Pages: 1 -->
<svg width="257pt" height="88pt"
 viewBox="0.00 0.00 257.00 88.00" xmlns="http://www.w3.org/2000/svg" xmlns:xlink="http://www.w3.org/1999/xlink">
<g id="graph0" class="graph" transform="scale(1 1) rotate(0) translate(4 84)">
<title>marian::Filter::createInfo</title>
<polygon fill="white" stroke="none" points="-4,4 -4,-84 253,-84 253,4 -4,4"/>
<!-- Node1 -->
<g id="node1" class="node"><title>Node1</title>
<polygon fill="#bfbfbf" stroke="black" points="0,-30 0,-49 123,-49 123,-30 0,-30"/>
<text text-anchor="middle" x="61.5" y="-37" font-family="Helvetica,sans-Serif" font-size="10.00">marian::Filter::createInfo</text>
</g>
<!-- Node2 -->
<g id="node2" class="node"><title>Node2</title>
<g id="a_node2"><a xlink:href="$d0/dd6/classmarian_1_1FilterInfo.html#a160eaa660126b9c443a3f4797d8a663e" xlink:title="marian::FilterInfo\l::reverseMap">
<polygon fill="white" stroke="black" points="159,-49.5 159,-79.5 249,-79.5 249,-49.5 159,-49.5"/>
<text text-anchor="start" x="167" y="-67.5" font-family="Helvetica,sans-Serif" font-size="10.00">marian::FilterInfo</text>
<text text-anchor="middle" x="204" y="-56.5" font-family="Helvetica,sans-Serif" font-size="10.00">::reverseMap</text>
</a>
</g>
</g>
<!-- Node1&#45;&gt;Node2 -->
<g id="edge1" class="edge"><title>Node1&#45;&gt;Node2</title>
<path fill="none" stroke="midnightblue" d="M116.018,-49.0227C126.714,-50.9259 137.959,-52.9268 148.681,-54.8347"/>
<polygon fill="midnightblue" stroke="midnightblue" points="148.308,-58.3232 158.766,-56.6292 149.534,-51.4314 148.308,-58.3232"/>
</g>
<!-- Node3 -->
<g id="node3" class="node"><title>Node3</title>
<g id="a_node3"><a xlink:href="$d0/dd6/classmarian_1_1FilterInfo.html#aaa0bce506c3f314cb8f3a968fde0f888" xlink:title="marian::FilterInfo\l::probs">
<polygon fill="white" stroke="black" points="159,-0.5 159,-30.5 249,-30.5 249,-0.5 159,-0.5"/>
<text text-anchor="start" x="167" y="-18.5" font-family="Helvetica,sans-Serif" font-size="10.00">marian::FilterInfo</text>
<text text-anchor="middle" x="204" y="-7.5" font-family="Helvetica,sans-Serif" font-size="10.00">::probs</text>
</a>
</g>
</g>
<!-- Node1&#45;&gt;Node3 -->
<g id="edge2" class="edge"><title>Node1&#45;&gt;Node3</title>
<path fill="none" stroke="midnightblue" d="M118.433,-29.9456C128.429,-28.2381 138.829,-26.4616 148.776,-24.7624"/>
<polygon fill="midnightblue" stroke="midnightblue" points="149.675,-28.1598 158.942,-23.0258 148.496,-21.2597 149.675,-28.1598"/>
</g>
</g>
</svg>
