<?xml version="1.0" encoding="UTF-8" standalone="no"?>
<!DOCTYPE svg PUBLIC "-//W3C//DTD SVG 1.1//EN"
 "http://www.w3.org/Graphics/SVG/1.1/DTD/svg11.dtd">
<!-- Generated by graphviz version 2.38.0 (20140413.2041)
 -->
<!-- Title: marian::CopyRows Pages: 1 -->
<svg width="258pt" height="78pt"
 viewBox="0.00 0.00 258.00 77.50" xmlns="http://www.w3.org/2000/svg" xmlns:xlink="http://www.w3.org/1999/xlink">
<g id="graph0" class="graph" transform="scale(1 1) rotate(0) translate(4 73.5)">
<title>marian::CopyRows</title>
<polygon fill="white" stroke="none" points="-4,4 -4,-73.5 254,-73.5 254,4 -4,4"/>
<!-- Node1 -->
<g id="node1" class="node"><title>Node1</title>
<polygon fill="#bfbfbf" stroke="black" points="0,-22.5 0,-41.5 101,-41.5 101,-22.5 0,-22.5"/>
<text text-anchor="middle" x="50.5" y="-29.5" font-family="Helvetica,sans-Serif" font-size="10.00">marian::CopyRows</text>
</g>
<!-- Node2 -->
<g id="node2" class="node"><title>Node2</title>
<g id="a_node2"><a xlink:href="../../db/dfd/structmarian_1_1RowsNodeOp.html#a4a65cd8cff116fe1f8ae51ea0b10381c" target="_top" xlink:title="marian::RowsNodeOp\l::forwardOps">
<polygon fill="white" stroke="black" points="137,-39 137,-69 250,-69 250,-39 137,-39"/>
<text text-anchor="start" x="145" y="-57" font-family="Helvetica,sans-Serif" font-size="10.00">marian::RowsNodeOp</text>
<text text-anchor="middle" x="193.5" y="-46" font-family="Helvetica,sans-Serif" font-size="10.00">::forwardOps</text>
</a>
</g>
</g>
<!-- Node1&#45;&gt;Node2 -->
<g id="edge1" class="edge"><title>Node1&#45;&gt;Node2</title>
<path fill="none" stroke="midnightblue" d="M111.142,-41.3058C119.714,-42.6433 128.505,-44.015 136.993,-45.3393"/>
<polygon fill="midnightblue" stroke="midnightblue" points="111.631,-37.8399 101.211,-39.7564 110.552,-44.7563 111.631,-37.8399"/>
</g>
<!-- Node3 -->
<g id="node3" class="node"><title>Node3</title>
<g id="a_node3"><a xlink:href="../../da/d22/namespacemarian.html#a4dcaa19981e73d7875242f2ae1fdd11c" target="_top" xlink:title="marian::Pick">
<polygon fill="white" stroke="black" points="158,-0.5 158,-19.5 229,-19.5 229,-0.5 158,-0.5"/>
<text text-anchor="middle" x="193.5" y="-7.5" font-family="Helvetica,sans-Serif" font-size="10.00">marian::Pick</text>
</a>
</g>
</g>
<!-- Node1&#45;&gt;Node3 -->
<g id="edge2" class="edge"><title>Node1&#45;&gt;Node3</title>
<path fill="none" stroke="midnightblue" d="M111.471,-22.6428C127.296,-20.1737 143.844,-17.5917 157.83,-15.4095"/>
<polygon fill="midnightblue" stroke="midnightblue" points="110.552,-19.2438 101.211,-24.2436 111.631,-26.1601 110.552,-19.2438"/>
</g>
</g>
</svg>
