<?xml version="1.0" encoding="UTF-8" standalone="no"?>
<!DOCTYPE svg PUBLIC "-//W3C//DTD SVG 1.1//EN"
 "http://www.w3.org/Graphics/SVG/1.1/DTD/svg11.dtd">
<!-- Generated by graphviz version 2.38.0 (20140413.2041)
 -->
<!-- Title: marian::relu Pages: 1 -->
<svg width="442pt" height="203pt"
 viewBox="0.00 0.00 442.00 202.50" xmlns="http://www.w3.org/2000/svg" xmlns:xlink="http://www.w3.org/1999/xlink">
<g id="graph0" class="graph" transform="scale(1 1) rotate(0) translate(4 198.5)">
<title>marian::relu</title>
<polygon fill="white" stroke="none" points="-4,4 -4,-198.5 438,-198.5 438,4 -4,4"/>
<!-- Node1 -->
<g id="node1" class="node"><title>Node1</title>
<polygon fill="#bfbfbf" stroke="black" points="0,-99 0,-118 68,-118 68,-99 0,-99"/>
<text text-anchor="middle" x="34" y="-106" font-family="Helvetica,sans-Serif" font-size="10.00">marian::relu</text>
</g>
<!-- Node2 -->
<g id="node2" class="node"><title>Node2</title>
<g id="a_node2"><a xlink:href="../../da/d22/namespacemarian.html#ae5810f27b42d7d5f9b83ae23ddf544f2" target="_top" xlink:title="marian::tanh">
<polygon fill="white" stroke="black" points="142,-175 142,-194 213,-194 213,-175 142,-175"/>
<text text-anchor="middle" x="177.5" y="-182" font-family="Helvetica,sans-Serif" font-size="10.00">marian::tanh</text>
</a>
</g>
</g>
<!-- Node1&#45;&gt;Node2 -->
<g id="edge1" class="edge"><title>Node1&#45;&gt;Node2</title>
<path fill="none" stroke="midnightblue" d="M51.1545,-125.365C64.273,-138.131 83.8438,-155.176 104,-165.5 115.697,-171.491 129.449,-175.713 141.814,-178.628"/>
<polygon fill="midnightblue" stroke="midnightblue" points="53.4137,-122.674 43.8727,-118.068 48.4587,-127.619 53.4137,-122.674"/>
</g>
<!-- Node3 -->
<g id="node3" class="node"><title>Node3</title>
<g id="a_node3"><a xlink:href="../../d2/d88/generic_8h.html#a2c61aac8c1ec585882b5b11755204516" target="_top" xlink:title="YAML_REGISTER_TYPE">
<polygon fill="white" stroke="black" points="111.5,-137 111.5,-156 243.5,-156 243.5,-137 111.5,-137"/>
<text text-anchor="middle" x="177.5" y="-144" font-family="Helvetica,sans-Serif" font-size="10.00">YAML_REGISTER_TYPE</text>
</a>
</g>
</g>
<!-- Node1&#45;&gt;Node3 -->
<g id="edge2" class="edge"><title>Node1&#45;&gt;Node3</title>
<path fill="none" stroke="midnightblue" d="M78.1457,-120.469C86.7074,-122.819 95.6342,-125.252 104,-127.5 115.561,-130.606 128.176,-133.934 139.594,-136.923"/>
<polygon fill="midnightblue" stroke="midnightblue" points="78.8885,-117.044 68.3182,-117.764 77.0308,-123.793 78.8885,-117.044"/>
</g>
<!-- Node4 -->
<g id="node4" class="node"><title>Node4</title>
<g id="a_node4"><a xlink:href="../../d4/d9a/classmarian_1_1Motorway.html#a1a6728a3791ca247ec9aa0632673c9ce" target="_top" xlink:title="marian::Motorway::operator()">
<polygon fill="white" stroke="black" points="106.5,-99 106.5,-118 248.5,-118 248.5,-99 106.5,-99"/>
<text text-anchor="middle" x="177.5" y="-106" font-family="Helvetica,sans-Serif" font-size="10.00">marian::Motorway::operator()</text>
</a>
</g>
</g>
<!-- Node1&#45;&gt;Node4 -->
<g id="edge3" class="edge"><title>Node1&#45;&gt;Node4</title>
<path fill="none" stroke="midnightblue" d="M78.2953,-108.5C87.2221,-108.5 96.839,-108.5 106.439,-108.5"/>
<polygon fill="midnightblue" stroke="midnightblue" points="78.1755,-105 68.1755,-108.5 78.1754,-112 78.1755,-105"/>
</g>
<!-- Node5 -->
<g id="node5" class="node"><title>Node5</title>
<g id="a_node5"><a xlink:href="../../d3/d26/classmarian_1_1models_1_1LeNetModel.html#a7477e8409c126d83dae223d5cbd88f4c" target="_top" xlink:title="Constructs an expression graph representing a feed&#45;forward classifier. ">
<polygon fill="white" stroke="black" points="106.5,-49.5 106.5,-79.5 248.5,-79.5 248.5,-49.5 106.5,-49.5"/>
<text text-anchor="start" x="114.5" y="-67.5" font-family="Helvetica,sans-Serif" font-size="10.00">marian::models::LeNetModel</text>
<text text-anchor="middle" x="177.5" y="-56.5" font-family="Helvetica,sans-Serif" font-size="10.00">::FeedforwardClassifier</text>
</a>
</g>
</g>
<!-- Node1&#45;&gt;Node5 -->
<g id="edge4" class="edge"><title>Node1&#45;&gt;Node5</title>
<path fill="none" stroke="midnightblue" d="M75.5179,-95.9008C91.8994,-90.8069 110.944,-84.8849 128.051,-79.5654"/>
<polygon fill="midnightblue" stroke="midnightblue" points="74.2131,-92.6411 65.7034,-98.9527 76.2917,-99.3254 74.2131,-92.6411"/>
</g>
<!-- Node7 -->
<g id="node7" class="node"><title>Node7</title>
<g id="a_node7"><a xlink:href="../../dc/d10/classmarian_1_1models_1_1MNISTModel.html#ad6f17d5d5db7302dd4a9daec556ed121" target="_top" xlink:title="Constructs an expression graph representing a feed&#45;forward classifier. ">
<polygon fill="white" stroke="black" points="104,-0.5 104,-30.5 251,-30.5 251,-0.5 104,-0.5"/>
<text text-anchor="start" x="112" y="-18.5" font-family="Helvetica,sans-Serif" font-size="10.00">marian::models::MNISTModel</text>
<text text-anchor="middle" x="177.5" y="-7.5" font-family="Helvetica,sans-Serif" font-size="10.00">::FeedforwardClassifier</text>
</a>
</g>
</g>
<!-- Node1&#45;&gt;Node7 -->
<g id="edge6" class="edge"><title>Node1&#45;&gt;Node7</title>
<path fill="none" stroke="midnightblue" d="M48.6657,-90.7562C61.4505,-75.2551 81.856,-53.1541 104,-39.5 109.53,-36.0902 115.599,-33.1065 121.798,-30.5106"/>
<polygon fill="midnightblue" stroke="midnightblue" points="45.9073,-88.6013 42.3844,-98.5933 51.3695,-92.9792 45.9073,-88.6013"/>
</g>
<!-- Node6 -->
<g id="node6" class="node"><title>Node6</title>
<g id="a_node6"><a xlink:href="../../d3/d26/classmarian_1_1models_1_1LeNetModel.html#a3c8a71b2d5258f947e2745ab4acc706f" target="_top" xlink:title="marian::models::LeNetModel\l::build">
<polygon fill="white" stroke="black" points="289.5,-49.5 289.5,-79.5 431.5,-79.5 431.5,-49.5 289.5,-49.5"/>
<text text-anchor="start" x="297.5" y="-67.5" font-family="Helvetica,sans-Serif" font-size="10.00">marian::models::LeNetModel</text>
<text text-anchor="middle" x="360.5" y="-56.5" font-family="Helvetica,sans-Serif" font-size="10.00">::build</text>
</a>
</g>
</g>
<!-- Node5&#45;&gt;Node6 -->
<g id="edge5" class="edge"><title>Node5&#45;&gt;Node6</title>
<path fill="none" stroke="midnightblue" d="M258.822,-64.5C268.982,-64.5 279.315,-64.5 289.301,-64.5"/>
<polygon fill="midnightblue" stroke="midnightblue" points="258.738,-61.0001 248.738,-64.5 258.738,-68.0001 258.738,-61.0001"/>
</g>
<!-- Node8 -->
<g id="node8" class="node"><title>Node8</title>
<g id="a_node8"><a xlink:href="../../dc/d10/classmarian_1_1models_1_1MNISTModel.html#aacea07dc6d02c753955564f36df0959c" target="_top" xlink:title="marian::models::MNISTModel\l::build">
<polygon fill="white" stroke="black" points="287,-0.5 287,-30.5 434,-30.5 434,-0.5 287,-0.5"/>
<text text-anchor="start" x="295" y="-18.5" font-family="Helvetica,sans-Serif" font-size="10.00">marian::models::MNISTModel</text>
<text text-anchor="middle" x="360.5" y="-7.5" font-family="Helvetica,sans-Serif" font-size="10.00">::build</text>
</a>
</g>
</g>
<!-- Node7&#45;&gt;Node8 -->
<g id="edge7" class="edge"><title>Node7&#45;&gt;Node8</title>
<path fill="none" stroke="midnightblue" d="M261.116,-15.5C269.722,-15.5 278.424,-15.5 286.907,-15.5"/>
<polygon fill="midnightblue" stroke="midnightblue" points="261.077,-12.0001 251.077,-15.5 261.077,-19.0001 261.077,-12.0001"/>
</g>
</g>
</svg>
