<?xml version="1.0" encoding="UTF-8" standalone="no"?>
<!DOCTYPE svg PUBLIC "-//W3C//DTD SVG 1.1//EN"
 "http://www.w3.org/Graphics/SVG/1.1/DTD/svg11.dtd">
<!-- Generated by graphviz version 2.38.0 (20140413.2041)
 -->
<!-- Title: marian::Reduce Pages: 1 -->
<svg width="267pt" height="137pt"
 viewBox="0.00 0.00 267.00 137.00" xmlns="http://www.w3.org/2000/svg" xmlns:xlink="http://www.w3.org/1999/xlink">
<g id="graph0" class="graph" transform="scale(1 1) rotate(0) translate(4 133)">
<title>marian::Reduce</title>
<polygon fill="white" stroke="none" points="-4,4 -4,-133 263,-133 263,4 -4,4"/>
<!-- Node1 -->
<g id="node1" class="node"><title>Node1</title>
<polygon fill="#bfbfbf" stroke="black" points="0,-55 0,-74 86,-74 86,-55 0,-55"/>
<text text-anchor="middle" x="43" y="-62" font-family="Helvetica,sans-Serif" font-size="10.00">marian::Reduce</text>
</g>
<!-- Node2 -->
<g id="node2" class="node"><title>Node2</title>
<g id="a_node2"><a xlink:href="../../d9/dbf/structmarian_1_1ScalarProductNodeOp.html#ab3be975c79c5bf5337b9110f1f5e05b2" target="_top" xlink:title="marian::ScalarProductNode\lOp::forwardOps">
<polygon fill="white" stroke="black" points="122,-98.5 122,-128.5 259,-128.5 259,-98.5 122,-98.5"/>
<text text-anchor="start" x="130" y="-116.5" font-family="Helvetica,sans-Serif" font-size="10.00">marian::ScalarProductNode</text>
<text text-anchor="middle" x="190.5" y="-105.5" font-family="Helvetica,sans-Serif" font-size="10.00">Op::forwardOps</text>
</a>
</g>
</g>
<!-- Node1&#45;&gt;Node2 -->
<g id="edge1" class="edge"><title>Node1&#45;&gt;Node2</title>
<path fill="none" stroke="midnightblue" d="M82.0359,-77.3093C101.279,-83.7897 124.754,-91.6955 144.849,-98.463"/>
<polygon fill="midnightblue" stroke="midnightblue" points="82.9934,-73.9387 72.3993,-74.064 80.7592,-80.5726 82.9934,-73.9387"/>
</g>
<!-- Node3 -->
<g id="node3" class="node"><title>Node3</title>
<g id="a_node3"><a xlink:href="../../dc/d7a/structmarian_1_1SumNodeOp.html#aefc02387c6ddad9a5825e204a511d9be" target="_top" xlink:title="marian::SumNodeOp::\lforwardOps">
<polygon fill="white" stroke="black" points="133.5,-49.5 133.5,-79.5 247.5,-79.5 247.5,-49.5 133.5,-49.5"/>
<text text-anchor="start" x="141.5" y="-67.5" font-family="Helvetica,sans-Serif" font-size="10.00">marian::SumNodeOp::</text>
<text text-anchor="middle" x="190.5" y="-56.5" font-family="Helvetica,sans-Serif" font-size="10.00">forwardOps</text>
</a>
</g>
</g>
<!-- Node1&#45;&gt;Node3 -->
<g id="edge2" class="edge"><title>Node1&#45;&gt;Node3</title>
<path fill="none" stroke="midnightblue" d="M96.4058,-64.5C108.429,-64.5 121.257,-64.5 133.428,-64.5"/>
<polygon fill="midnightblue" stroke="midnightblue" points="96.0847,-61.0001 86.0846,-64.5 96.0846,-68.0001 96.0847,-61.0001"/>
</g>
<!-- Node4 -->
<g id="node4" class="node"><title>Node4</title>
<g id="a_node4"><a xlink:href="../../de/dfa/structmarian_1_1MeanNodeOp.html#a381e225665df25b105acaab9c60818d3" target="_top" xlink:title="marian::MeanNodeOp\l::forwardOps">
<polygon fill="white" stroke="black" points="134.5,-0.5 134.5,-30.5 246.5,-30.5 246.5,-0.5 134.5,-0.5"/>
<text text-anchor="start" x="142.5" y="-18.5" font-family="Helvetica,sans-Serif" font-size="10.00">marian::MeanNodeOp</text>
<text text-anchor="middle" x="190.5" y="-7.5" font-family="Helvetica,sans-Serif" font-size="10.00">::forwardOps</text>
</a>
</g>
</g>
<!-- Node1&#45;&gt;Node4 -->
<g id="edge3" class="edge"><title>Node1&#45;&gt;Node4</title>
<path fill="none" stroke="midnightblue" d="M82.0359,-51.6907C101.279,-45.2103 124.754,-37.3045 144.849,-30.537"/>
<polygon fill="midnightblue" stroke="midnightblue" points="80.7592,-48.4274 72.3993,-54.936 82.9934,-55.0613 80.7592,-48.4274"/>
</g>
</g>
</svg>
