<?xml version="1.0" encoding="UTF-8" standalone="no"?>
<!DOCTYPE svg PUBLIC "-//W3C//DTD SVG 1.1//EN"
 "http://www.w3.org/Graphics/SVG/1.1/DTD/svg11.dtd">
<!-- Generated by graphviz version 2.38.0 (20140413.2041)
 -->
<!-- Title: marian::Element Pages: 1 -->
<!--zoomable 921 -->
<svg id="main" version="1.1" xmlns="http://www.w3.org/2000/svg" xmlns:xlink="http://www.w3.org/1999/xlink" xml:space="preserve" onload="init(evt)">
<style type="text/css"><![CDATA[
.edge:hover path { stroke: red; }
.edge:hover polygon { stroke: red; fill: red; }
]]></style>
<script type="text/javascript"><![CDATA[
var edges = document.getElementsByTagName('g');
if (edges && edges.length) {
  for (var i=0;i<edges.length;i++) {
    if (edges[i].id.substr(0,4)=='edge') {
      edges[i].setAttribute('class','edge');
    }
  }
}
]]></script>
        <defs>
                <circle id="rim" cx="0" cy="0" r="7"/>
                <circle id="rim2" cx="0" cy="0" r="3.5"/>
                <g id="zoomPlus">
                        <use xlink:href="#rim" fill="#404040">
                                <set attributeName="fill" to="#808080" begin="zoomplus.mouseover" end="zoomplus.mouseout"/>
                        </use>
                        <path d="M-4,0h8M0,-4v8" fill="none" stroke="white" stroke-width="1.5" pointer-events="none"/>
                </g>
                <g id="zoomMin">
                        <use xlink:href="#rim" fill="#404040">
                                <set attributeName="fill" to="#808080" begin="zoomminus.mouseover" end="zoomminus.mouseout"/>
                        </use>
                        <path d="M-4,0h8" fill="none" stroke="white" stroke-width="1.5" pointer-events="none"/>
                </g>
                <g id="dirArrow">
                        <path fill="none" stroke="white" stroke-width="1.5" d="M0,-3.0v7 M-2.5,-0.5L0,-3.0L2.5,-0.5"/>
                </g>
               <g id="resetDef">
                       <use xlink:href="#rim2" fill="#404040">
                               <set attributeName="fill" to="#808080" begin="reset.mouseover" end="reset.mouseout"/>
                       </use>
               </g>
        </defs>

<script type="text/javascript">
var viewWidth = 271;
var viewHeight = 921;
var sectionId = 'dynsection-29';
</script>
<script xlink:href="../../svgpan.js"/>
<svg id="graph" class="graph">
<g id="viewport">
<title>marian::Element</title>
<polygon fill="white" stroke="none" points="-4,4 -4,-917 267,-917 267,4 -4,4"/>
<!-- Node1 -->
<g id="node1" class="node"><title>Node1</title>
<polygon fill="#bfbfbf" stroke="black" points="0,-447 0,-466 88,-466 88,-447 0,-447"/>
<text text-anchor="middle" x="44" y="-454" font-family="Helvetica,sans-Serif" font-size="10.00">marian::Element</text>
</g>
<!-- Node2 -->
<g id="node2" class="node"><title>Node2</title>
<g id="a_node2"><a xlink:href="../../d5/da9/classmarian_1_1SingletonGraph.html#a4d30a0f1e811e89be524666e3a197dac" target="_top" xlink:title="marian::SingletonGraph\l::updateMovingAverage">
<polygon fill="white" stroke="black" points="134,-882.5 134,-912.5 253,-912.5 253,-882.5 134,-882.5"/>
<text text-anchor="start" x="142" y="-900.5" font-family="Helvetica,sans-Serif" font-size="10.00">marian::SingletonGraph</text>
<text text-anchor="middle" x="193.5" y="-889.5" font-family="Helvetica,sans-Serif" font-size="10.00">::updateMovingAverage</text>
</a>
</g>
</g>
<!-- Node1&#45;&gt;Node2 -->
<g id="edge1" class="edge"><title>Node1&#45;&gt;Node2</title>
<path fill="none" stroke="midnightblue" d="M46.1894,-476.491C51.0124,-551.139 71.4257,-812.397 124,-873.5 126.959,-876.939 130.44,-879.885 134.238,-882.409"/>
<polygon fill="midnightblue" stroke="midnightblue" points="49.6617,-475.935 45.5467,-466.172 42.6752,-476.37 49.6617,-475.935"/>
</g>
<!-- Node3 -->
<g id="node3" class="node"><title>Node3</title>
<g id="a_node3"><a xlink:href="../../d5/d8a/classmarian_1_1AsyncGraphGroup.html#af104a4373fad7cc8f274423107c58d17" target="_top" xlink:title="marian::AsyncGraphGroup\l::sparseFetchParams">
<polygon fill="white" stroke="black" points="127.5,-833.5 127.5,-863.5 259.5,-863.5 259.5,-833.5 127.5,-833.5"/>
<text text-anchor="start" x="135.5" y="-851.5" font-family="Helvetica,sans-Serif" font-size="10.00">marian::AsyncGraphGroup</text>
<text text-anchor="middle" x="193.5" y="-840.5" font-family="Helvetica,sans-Serif" font-size="10.00">::sparseFetchParams</text>
</a>
</g>
</g>
<!-- Node1&#45;&gt;Node3 -->
<g id="edge2" class="edge"><title>Node1&#45;&gt;Node3</title>
<path fill="none" stroke="midnightblue" d="M46.7228,-476.313C53.0668,-544.978 77.2235,-771.449 124,-824.5 127,-827.903 130.511,-830.823 134.33,-833.329"/>
<polygon fill="midnightblue" stroke="midnightblue" points="50.1811,-475.691 45.7997,-466.044 43.2092,-476.318 50.1811,-475.691"/>
</g>
<!-- Node4 -->
<g id="node4" class="node"><title>Node4</title>
<g id="a_node4"><a xlink:href="../../d5/d8a/classmarian_1_1AsyncGraphGroup.html#abce2624a961b51f5502efd78c8f3fc82" target="_top" xlink:title="marian::AsyncGraphGroup\l::updateMovingAverage">
<polygon fill="white" stroke="black" points="127.5,-784.5 127.5,-814.5 259.5,-814.5 259.5,-784.5 127.5,-784.5"/>
<text text-anchor="start" x="135.5" y="-802.5" font-family="Helvetica,sans-Serif" font-size="10.00">marian::AsyncGraphGroup</text>
<text text-anchor="middle" x="193.5" y="-791.5" font-family="Helvetica,sans-Serif" font-size="10.00">::updateMovingAverage</text>
</a>
</g>
</g>
<!-- Node1&#45;&gt;Node4 -->
<g id="edge3" class="edge"><title>Node1&#45;&gt;Node4</title>
<path fill="none" stroke="midnightblue" d="M47.3974,-476.058C55.3914,-538.311 82.9709,-730.41 124,-775.5 127.138,-778.948 130.8,-781.901 134.768,-784.43"/>
<polygon fill="midnightblue" stroke="midnightblue" points="50.8542,-475.495 46.1338,-466.009 43.9089,-476.368 50.8542,-475.495"/>
</g>
<!-- Node5 -->
<g id="node5" class="node"><title>Node5</title>
<g id="a_node5"><a xlink:href="../../dd/d8b/structmarian_1_1PlusNodeOp.html#a53ac7e34d662a37cea8b27e1fed496dc" target="_top" xlink:title="marian::PlusNodeOp\l::forwardOps">
<polygon fill="white" stroke="black" points="140,-735.5 140,-765.5 247,-765.5 247,-735.5 140,-735.5"/>
<text text-anchor="start" x="148" y="-753.5" font-family="Helvetica,sans-Serif" font-size="10.00">marian::PlusNodeOp</text>
<text text-anchor="middle" x="193.5" y="-742.5" font-family="Helvetica,sans-Serif" font-size="10.00">::forwardOps</text>
</a>
</g>
</g>
<!-- Node1&#45;&gt;Node5 -->
<g id="edge4" class="edge"><title>Node1&#45;&gt;Node5</title>
<path fill="none" stroke="midnightblue" d="M44.9631,-476.351C45.9596,-525.517 55.3708,-654.18 124,-726.5 128.511,-731.253 134.015,-735.065 139.923,-738.123"/>
<polygon fill="midnightblue" stroke="midnightblue" points="48.4608,-476.094 44.8596,-466.13 41.4612,-476.165 48.4608,-476.094"/>
</g>
<!-- Node6 -->
<g id="node6" class="node"><title>Node6</title>
<g id="a_node6"><a xlink:href="../../d1/de6/structmarian_1_1MinusNodeOp.html#aea7d65faca82ef791bb618a6b7de5467" target="_top" xlink:title="marian::MinusNodeOp\l::forwardOps">
<polygon fill="white" stroke="black" points="136.5,-686.5 136.5,-716.5 250.5,-716.5 250.5,-686.5 136.5,-686.5"/>
<text text-anchor="start" x="144.5" y="-704.5" font-family="Helvetica,sans-Serif" font-size="10.00">marian::MinusNodeOp</text>
<text text-anchor="middle" x="193.5" y="-693.5" font-family="Helvetica,sans-Serif" font-size="10.00">::forwardOps</text>
</a>
</g>
</g>
<!-- Node1&#45;&gt;Node6 -->
<g id="edge5" class="edge"><title>Node1&#45;&gt;Node6</title>
<path fill="none" stroke="midnightblue" d="M46.4972,-476.452C50.7657,-519.242 66.692,-620.553 124,-677.5 127.665,-681.142 131.913,-684.233 136.463,-686.856"/>
<polygon fill="midnightblue" stroke="midnightblue" points="49.9805,-476.109 45.611,-466.457 43.0079,-476.727 49.9805,-476.109"/>
</g>
<!-- Node7 -->
<g id="node7" class="node"><title>Node7</title>
<g id="a_node7"><a xlink:href="../../dc/d98/structmarian_1_1MultNodeOp.html#a659fc65e22c0921a06bd167b0b1c2102" target="_top" xlink:title="marian::MultNodeOp\l::forwardOps">
<polygon fill="white" stroke="black" points="140,-637.5 140,-667.5 247,-667.5 247,-637.5 140,-637.5"/>
<text text-anchor="start" x="148" y="-655.5" font-family="Helvetica,sans-Serif" font-size="10.00">marian::MultNodeOp</text>
<text text-anchor="middle" x="193.5" y="-644.5" font-family="Helvetica,sans-Serif" font-size="10.00">::forwardOps</text>
</a>
</g>
</g>
<!-- Node1&#45;&gt;Node7 -->
<g id="edge6" class="edge"><title>Node1&#45;&gt;Node7</title>
<path fill="none" stroke="midnightblue" d="M48.7914,-476.299C56.5924,-511.772 77.7401,-586.378 124,-628.5 128.659,-632.742 134.111,-636.242 139.868,-639.129"/>
<polygon fill="midnightblue" stroke="midnightblue" points="52.1655,-475.332 46.7127,-466.248 45.3106,-476.75 52.1655,-475.332"/>
</g>
<!-- Node8 -->
<g id="node8" class="node"><title>Node8</title>
<g id="a_node8"><a xlink:href="../../df/de1/structmarian_1_1DivNodeOp.html#aa55dcc191fb80a22cbcc60eb08b36b05" target="_top" xlink:title="marian::DivNodeOp::\lforwardOps">
<polygon fill="white" stroke="black" points="139,-588.5 139,-618.5 248,-618.5 248,-588.5 139,-588.5"/>
<text text-anchor="start" x="147" y="-606.5" font-family="Helvetica,sans-Serif" font-size="10.00">marian::DivNodeOp::</text>
<text text-anchor="middle" x="193.5" y="-595.5" font-family="Helvetica,sans-Serif" font-size="10.00">forwardOps</text>
</a>
</g>
</g>
<!-- Node1&#45;&gt;Node8 -->
<g id="edge7" class="edge"><title>Node1&#45;&gt;Node8</title>
<path fill="none" stroke="midnightblue" d="M52.425,-475.453C63.8717,-502.312 88.3057,-551.312 124,-579.5 128.45,-583.014 133.452,-586.035 138.675,-588.626"/>
<polygon fill="midnightblue" stroke="midnightblue" points="55.5916,-473.95 48.5572,-466.027 49.1157,-476.607 55.5916,-473.95"/>
</g>
<!-- Node9 -->
<g id="node9" class="node"><title>Node9</title>
<g id="a_node9"><a xlink:href="../../d1/df0/structmarian_1_1ScalarAddNodeOp.html#a539179a95c828073b865e721140223f6" target="_top" xlink:title="marian::ScalarAddNodeOp\l::forwardOps">
<polygon fill="white" stroke="black" points="127,-539.5 127,-569.5 260,-569.5 260,-539.5 127,-539.5"/>
<text text-anchor="start" x="135" y="-557.5" font-family="Helvetica,sans-Serif" font-size="10.00">marian::ScalarAddNodeOp</text>
<text text-anchor="middle" x="193.5" y="-546.5" font-family="Helvetica,sans-Serif" font-size="10.00">::forwardOps</text>
</a>
</g>
</g>
<!-- Node1&#45;&gt;Node9 -->
<g id="edge8" class="edge"><title>Node1&#45;&gt;Node9</title>
<path fill="none" stroke="midnightblue" d="M59.5947,-473.842C74.3466,-490.408 98.5445,-515.072 124,-530.5 129.496,-533.831 135.521,-536.787 141.646,-539.386"/>
<polygon fill="midnightblue" stroke="midnightblue" points="61.9873,-471.259 52.7848,-466.009 56.7046,-475.852 61.9873,-471.259"/>
</g>
<!-- Node10 -->
<g id="node10" class="node"><title>Node10</title>
<g id="a_node10"><a xlink:href="../../d2/d6d/structmarian_1_1ScalarMultNodeOp.html#aea3d4960c02b19c9c1ce9a82a0612bed" target="_top" xlink:title="marian::ScalarMultNodeOp\l::forwardOps">
<polygon fill="white" stroke="black" points="126.5,-490.5 126.5,-520.5 260.5,-520.5 260.5,-490.5 126.5,-490.5"/>
<text text-anchor="start" x="134.5" y="-508.5" font-family="Helvetica,sans-Serif" font-size="10.00">marian::ScalarMultNodeOp</text>
<text text-anchor="middle" x="193.5" y="-497.5" font-family="Helvetica,sans-Serif" font-size="10.00">::forwardOps</text>
</a>
</g>
</g>
<!-- Node1&#45;&gt;Node10 -->
<g id="edge9" class="edge"><title>Node1&#45;&gt;Node10</title>
<path fill="none" stroke="midnightblue" d="M83.2905,-469.22C102.848,-475.717 126.771,-483.664 147.236,-490.463"/>
<polygon fill="midnightblue" stroke="midnightblue" points="84.3831,-465.895 73.7896,-466.064 82.1762,-472.538 84.3831,-465.895"/>
</g>
<!-- Node11 -->
<g id="node11" class="node"><title>Node11</title>
<g id="a_node11"><a xlink:href="../../dc/d06/structmarian_1_1LogitNodeOp.html#a01cdefe75c98513764cdbcdc8999b5ef" target="_top" xlink:title="marian::LogitNodeOp\l::forwardOps">
<polygon fill="white" stroke="black" points="139,-441.5 139,-471.5 248,-471.5 248,-441.5 139,-441.5"/>
<text text-anchor="start" x="147" y="-459.5" font-family="Helvetica,sans-Serif" font-size="10.00">marian::LogitNodeOp</text>
<text text-anchor="middle" x="193.5" y="-448.5" font-family="Helvetica,sans-Serif" font-size="10.00">::forwardOps</text>
</a>
</g>
</g>
<!-- Node1&#45;&gt;Node11 -->
<g id="edge10" class="edge"><title>Node1&#45;&gt;Node11</title>
<path fill="none" stroke="midnightblue" d="M98.3955,-456.5C111.58,-456.5 125.706,-456.5 138.9,-456.5"/>
<polygon fill="midnightblue" stroke="midnightblue" points="98.0597,-453 88.0596,-456.5 98.0596,-460 98.0597,-453"/>
</g>
<!-- Node12 -->
<g id="node12" class="node"><title>Node12</title>
<g id="a_node12"><a xlink:href="../../d9/d8a/structmarian_1_1TanhNodeOp.html#a96a8cfc7646b2b73b421a099cabdb579" target="_top" xlink:title="marian::TanhNodeOp\l::forwardOps">
<polygon fill="white" stroke="black" points="138.5,-392.5 138.5,-422.5 248.5,-422.5 248.5,-392.5 138.5,-392.5"/>
<text text-anchor="start" x="146.5" y="-410.5" font-family="Helvetica,sans-Serif" font-size="10.00">marian::TanhNodeOp</text>
<text text-anchor="middle" x="193.5" y="-399.5" font-family="Helvetica,sans-Serif" font-size="10.00">::forwardOps</text>
</a>
</g>
</g>
<!-- Node1&#45;&gt;Node12 -->
<g id="edge11" class="edge"><title>Node1&#45;&gt;Node12</title>
<path fill="none" stroke="midnightblue" d="M83.2905,-443.78C102.848,-437.283 126.771,-429.336 147.236,-422.537"/>
<polygon fill="midnightblue" stroke="midnightblue" points="82.1762,-440.462 73.7896,-446.936 84.3831,-447.105 82.1762,-440.462"/>
</g>
<!-- Node13 -->
<g id="node13" class="node"><title>Node13</title>
<g id="a_node13"><a xlink:href="../../d6/daf/structmarian_1_1ReLUNodeOp.html#aa38a8dc93b07420cf7a1dcae7a23dce9" target="_top" xlink:title="marian::ReLUNodeOp\l::forwardOps">
<polygon fill="white" stroke="black" points="137,-343.5 137,-373.5 250,-373.5 250,-343.5 137,-343.5"/>
<text text-anchor="start" x="145" y="-361.5" font-family="Helvetica,sans-Serif" font-size="10.00">marian::ReLUNodeOp</text>
<text text-anchor="middle" x="193.5" y="-350.5" font-family="Helvetica,sans-Serif" font-size="10.00">::forwardOps</text>
</a>
</g>
</g>
<!-- Node1&#45;&gt;Node13 -->
<g id="edge12" class="edge"><title>Node1&#45;&gt;Node13</title>
<path fill="none" stroke="midnightblue" d="M60.1665,-438.947C75.0264,-422.674 99.0235,-398.743 124,-383.5 130.16,-379.741 136.972,-376.416 143.842,-373.519"/>
<polygon fill="midnightblue" stroke="midnightblue" points="57.3191,-436.881 53.2718,-446.673 62.5417,-441.542 57.3191,-436.881"/>
</g>
<!-- Node14 -->
<g id="node14" class="node"><title>Node14</title>
<g id="a_node14"><a xlink:href="../../d0/d51/structmarian_1_1LogNodeOp.html#a0ad5ecdd99694a41ddd443700f03b52b" target="_top" xlink:title="marian::LogNodeOp::\lforwardOps">
<polygon fill="white" stroke="black" points="138.5,-294.5 138.5,-324.5 248.5,-324.5 248.5,-294.5 138.5,-294.5"/>
<text text-anchor="start" x="146.5" y="-312.5" font-family="Helvetica,sans-Serif" font-size="10.00">marian::LogNodeOp::</text>
<text text-anchor="middle" x="193.5" y="-301.5" font-family="Helvetica,sans-Serif" font-size="10.00">forwardOps</text>
</a>
</g>
</g>
<!-- Node1&#45;&gt;Node14 -->
<g id="edge13" class="edge"><title>Node1&#45;&gt;Node14</title>
<path fill="none" stroke="midnightblue" d="M52.6871,-437.369C64.3149,-410.721 88.8147,-362.551 124,-334.5 128.85,-330.633 134.354,-327.331 140.082,-324.518"/>
<polygon fill="midnightblue" stroke="midnightblue" points="49.394,-436.172 48.7422,-446.746 55.8462,-438.886 49.394,-436.172"/>
</g>
<!-- Node15 -->
<g id="node15" class="node"><title>Node15</title>
<g id="a_node15"><a xlink:href="../../d5/dc7/structmarian_1_1ExpNodeOp.html#af16da957d7201c081c7ccac9e2122a2e" target="_top" xlink:title="marian::ExpNodeOp::\lforwardOps">
<polygon fill="white" stroke="black" points="138,-245.5 138,-275.5 249,-275.5 249,-245.5 138,-245.5"/>
<text text-anchor="start" x="146" y="-263.5" font-family="Helvetica,sans-Serif" font-size="10.00">marian::ExpNodeOp::</text>
<text text-anchor="middle" x="193.5" y="-252.5" font-family="Helvetica,sans-Serif" font-size="10.00">forwardOps</text>
</a>
</g>
</g>
<!-- Node1&#45;&gt;Node15 -->
<g id="edge14" class="edge"><title>Node1&#45;&gt;Node15</title>
<path fill="none" stroke="midnightblue" d="M48.8795,-436.873C56.8217,-401.698 78.1876,-327.666 124,-285.5 128.192,-281.642 133.026,-278.368 138.148,-275.591"/>
<polygon fill="midnightblue" stroke="midnightblue" points="45.417,-436.329 46.7586,-446.838 52.2637,-437.786 45.417,-436.329"/>
</g>
<!-- Node16 -->
<g id="node16" class="node"><title>Node16</title>
<g id="a_node16"><a xlink:href="../../d3/d71/structmarian_1_1SqrtNodeOp.html#aeefdf4eab958bdab2b4f8a70dcbc6c15" target="_top" xlink:title="marian::SqrtNodeOp\l::forwardOps">
<polygon fill="white" stroke="black" points="140.5,-196.5 140.5,-226.5 246.5,-226.5 246.5,-196.5 140.5,-196.5"/>
<text text-anchor="start" x="148.5" y="-214.5" font-family="Helvetica,sans-Serif" font-size="10.00">marian::SqrtNodeOp</text>
<text text-anchor="middle" x="193.5" y="-203.5" font-family="Helvetica,sans-Serif" font-size="10.00">::forwardOps</text>
</a>
</g>
</g>
<!-- Node1&#45;&gt;Node16 -->
<g id="edge15" class="edge"><title>Node1&#45;&gt;Node16</title>
<path fill="none" stroke="midnightblue" d="M46.6106,-436.42C51.0861,-393.775 67.3698,-293.425 124,-236.5 128.643,-231.833 134.226,-228.031 140.175,-224.934"/>
<polygon fill="midnightblue" stroke="midnightblue" points="43.1035,-436.334 45.6554,-446.617 50.073,-436.987 43.1035,-436.334"/>
</g>
<!-- Node17 -->
<g id="node17" class="node"><title>Node17</title>
<g id="a_node17"><a xlink:href="../../db/dd5/structmarian_1_1SquareNodeOp.html#a9830637ea6eb13dfbadf8478e585049b" target="_top" xlink:title="marian::SquareNodeOp\l::forwardOps">
<polygon fill="white" stroke="black" points="134,-147.5 134,-177.5 253,-177.5 253,-147.5 134,-147.5"/>
<text text-anchor="start" x="142" y="-165.5" font-family="Helvetica,sans-Serif" font-size="10.00">marian::SquareNodeOp</text>
<text text-anchor="middle" x="193.5" y="-154.5" font-family="Helvetica,sans-Serif" font-size="10.00">::forwardOps</text>
</a>
</g>
</g>
<!-- Node1&#45;&gt;Node17 -->
<g id="edge16" class="edge"><title>Node1&#45;&gt;Node17</title>
<path fill="none" stroke="midnightblue" d="M45.0451,-436.775C46.2293,-387.912 56.0364,-259.98 124,-187.5 127.637,-183.621 131.924,-180.343 136.551,-177.571"/>
<polygon fill="midnightblue" stroke="midnightblue" points="41.5433,-436.884 44.901,-446.933 48.5426,-436.983 41.5433,-436.884"/>
</g>
<!-- Node18 -->
<g id="node18" class="node"><title>Node18</title>
<g id="a_node18"><a xlink:href="../../d4/d57/structmarian_1_1NegNodeOp.html#a13e2bb54f68b3d7d42cc21dcbfdb0b26" target="_top" xlink:title="marian::NegNodeOp::\lforwardOps">
<polygon fill="white" stroke="black" points="137.5,-98.5 137.5,-128.5 249.5,-128.5 249.5,-98.5 137.5,-98.5"/>
<text text-anchor="start" x="145.5" y="-116.5" font-family="Helvetica,sans-Serif" font-size="10.00">marian::NegNodeOp::</text>
<text text-anchor="middle" x="193.5" y="-105.5" font-family="Helvetica,sans-Serif" font-size="10.00">forwardOps</text>
</a>
</g>
</g>
<!-- Node1&#45;&gt;Node18 -->
<g id="edge17" class="edge"><title>Node1&#45;&gt;Node18</title>
<path fill="none" stroke="midnightblue" d="M47.4836,-436.613C55.6452,-374.189 83.4567,-183.606 124,-138.5 127.808,-134.263 132.394,-130.743 137.367,-127.819"/>
<polygon fill="midnightblue" stroke="midnightblue" points="43.9888,-436.35 46.1897,-446.714 50.932,-437.24 43.9888,-436.35"/>
</g>
<!-- Node19 -->
<g id="node19" class="node"><title>Node19</title>
<g id="a_node19"><a xlink:href="../../df/da9/structmarian_1_1LexicalProbNodeOp.html#aaa0bb6a2dd3d270abfabc505bffedb50" target="_top" xlink:title="marian::LexicalProbNodeOp\l::forward">
<polygon fill="white" stroke="black" points="124,-49.5 124,-79.5 263,-79.5 263,-49.5 124,-49.5"/>
<text text-anchor="start" x="132" y="-67.5" font-family="Helvetica,sans-Serif" font-size="10.00">marian::LexicalProbNodeOp</text>
<text text-anchor="middle" x="193.5" y="-56.5" font-family="Helvetica,sans-Serif" font-size="10.00">::forward</text>
</a>
</g>
</g>
<!-- Node1&#45;&gt;Node19 -->
<g id="edge18" class="edge"><title>Node1&#45;&gt;Node19</title>
<path fill="none" stroke="midnightblue" d="M46.755,-436.762C53.2058,-368.354 77.6735,-142.701 124,-89.5 127.325,-85.6811 131.284,-82.4453 135.597,-79.7035"/>
<polygon fill="midnightblue" stroke="midnightblue" points="43.2448,-436.714 45.8155,-446.992 50.2154,-437.354 43.2448,-436.714"/>
</g>
<!-- Node20 -->
<g id="node20" class="node"><title>Node20</title>
<g id="a_node20"><a xlink:href="../../df/da9/structmarian_1_1LexicalProbNodeOp.html#a494a1751a4a92064d0b6f88672e67e69" target="_top" xlink:title="marian::LexicalProbNodeOp\l::backward">
<polygon fill="white" stroke="black" points="124,-0.5 124,-30.5 263,-30.5 263,-0.5 124,-0.5"/>
<text text-anchor="start" x="132" y="-18.5" font-family="Helvetica,sans-Serif" font-size="10.00">marian::LexicalProbNodeOp</text>
<text text-anchor="middle" x="193.5" y="-7.5" font-family="Helvetica,sans-Serif" font-size="10.00">::backward</text>
</a>
</g>
</g>
<!-- Node1&#45;&gt;Node20 -->
<g id="edge19" class="edge"><title>Node1&#45;&gt;Node20</title>
<path fill="none" stroke="midnightblue" d="M46.2214,-436.578C51.1589,-362.184 71.9295,-101.788 124,-40.5 127.279,-36.6409 131.205,-33.3774 135.497,-30.6176"/>
<polygon fill="midnightblue" stroke="midnightblue" points="42.7091,-436.658 45.5625,-446.862 49.6948,-437.106 42.7091,-436.658"/>
</g>
</g>
</svg>
        <g id="navigator" transform="translate(0 0)" fill="#404254">
                <rect fill="#f2f5e9" fill-opacity="0.5" stroke="#606060" stroke-width=".5" x="0" y="0" width="60" height="60"/>
                <use id="zoomplus" xlink:href="#zoomPlus" x="17" y="9" onmousedown="handleZoom(evt,'in')"/>
                <use id="zoomminus" xlink:href="#zoomMin" x="42" y="9" onmousedown="handleZoom(evt,'out')"/>
                <use id="reset" xlink:href="#resetDef" x="30" y="36" onmousedown="handleReset()"/>
                <g id="arrowUp" xlink:href="#dirArrow" transform="translate(30 24)" onmousedown="handlePan(0,-1)">
                  <use xlink:href="#rim" fill="#404040">
                        <set attributeName="fill" to="#808080" begin="arrowUp.mouseover" end="arrowUp.mouseout"/>
                  </use>
                  <path fill="none" stroke="white" stroke-width="1.5" d="M0,-3.0v7 M-2.5,-0.5L0,-3.0L2.5,-0.5"/>
                </g>
                <g id="arrowRight" xlink:href="#dirArrow" transform="rotate(90) translate(36 -43)" onmousedown="handlePan(1,0)">
                  <use xlink:href="#rim" fill="#404040">
                        <set attributeName="fill" to="#808080" begin="arrowRight.mouseover" end="arrowRight.mouseout"/>
                  </use>
                  <path fill="none" stroke="white" stroke-width="1.5" d="M0,-3.0v7 M-2.5,-0.5L0,-3.0L2.5,-0.5"/>
                </g>
                <g id="arrowDown" xlink:href="#dirArrow" transform="rotate(180) translate(-30 -48)" onmousedown="handlePan(0,1)">
                  <use xlink:href="#rim" fill="#404040">
                        <set attributeName="fill" to="#808080" begin="arrowDown.mouseover" end="arrowDown.mouseout"/>
                  </use>
                  <path fill="none" stroke="white" stroke-width="1.5" d="M0,-3.0v7 M-2.5,-0.5L0,-3.0L2.5,-0.5"/>
                </g>
                <g id="arrowLeft" xlink:href="#dirArrow" transform="rotate(270) translate(-36 17)" onmousedown="handlePan(-1,0)">
                  <use xlink:href="#rim" fill="#404040">
                        <set attributeName="fill" to="#808080" begin="arrowLeft.mouseover" end="arrowLeft.mouseout"/>
                  </use>
                  <path fill="none" stroke="white" stroke-width="1.5" d="M0,-3.0v7 M-2.5,-0.5L0,-3.0L2.5,-0.5"/>
                </g>
        </g>
        <svg viewBox="0 0 15 15" width="100%" height="30px" preserveAspectRatio="xMaxYMin meet">
         <g id="arrow_out" transform="scale(0.3 0.3)">
          <a xlink:href="namespacemarian_af90a9ca647f95f9d9d18ac8901c55fb1_icgraph_org.svg" target="_base">
           <rect id="button" ry="5" rx="5" y="6" x="6" height="38" width="38"
                fill="#f2f5e9" fill-opacity="0.5" stroke="#606060" stroke-width="1.0"/>
           <path id="arrow"
             d="M 11.500037,31.436501 C 11.940474,20.09759 22.043105,11.32322 32.158766,21.979434 L 37.068811,17.246167 C 37.068811,17.246167 37.088388,32 37.088388,32 L 22.160133,31.978069 C 22.160133,31.978069 26.997745,27.140456 26.997745,27.140456 C 18.528582,18.264221 13.291696,25.230495 11.500037,31.436501 z"
             style="fill:#404040;"/>
          </a>
         </g>
        </svg>
</svg>
