<?xml version="1.0" encoding="UTF-8" standalone="no"?>
<!DOCTYPE svg PUBLIC "-//W3C//DTD SVG 1.1//EN"
 "http://www.w3.org/Graphics/SVG/1.1/DTD/svg11.dtd">
<!-- Generated by graphviz version 2.38.0 (20140413.2041)
 -->
<!-- Title: marian::Optimizer Pages: 1 -->
<svg width="270pt" height="88pt"
 viewBox="0.00 0.00 270.00 88.00" xmlns="http://www.w3.org/2000/svg" xmlns:xlink="http://www.w3.org/1999/xlink">
<g id="graph0" class="graph" transform="scale(1 1) rotate(0) translate(4 84)">
<title>marian::Optimizer</title>
<polygon fill="white" stroke="none" points="-4,4 -4,-84 266,-84 266,4 -4,4"/>
<!-- Node1 -->
<g id="node1" class="node"><title>Node1</title>
<polygon fill="#bfbfbf" stroke="black" points="0,-30 0,-49 94,-49 94,-30 0,-30"/>
<text text-anchor="middle" x="47" y="-37" font-family="Helvetica,sans-Serif" font-size="10.00">marian::Optimizer</text>
</g>
<!-- Node2 -->
<g id="node2" class="node"><title>Node2</title>
<g id="a_node2"><a xlink:href="../../d5/da9/classmarian_1_1SingletonGraph.html#a64ed90859cc12969682365c9dff9c8ae" target="_top" xlink:title="marian::SingletonGraph\l::SingletonGraph">
<polygon fill="white" stroke="black" points="136.5,-49.5 136.5,-79.5 255.5,-79.5 255.5,-49.5 136.5,-49.5"/>
<text text-anchor="start" x="144.5" y="-67.5" font-family="Helvetica,sans-Serif" font-size="10.00">marian::SingletonGraph</text>
<text text-anchor="middle" x="196" y="-56.5" font-family="Helvetica,sans-Serif" font-size="10.00">::SingletonGraph</text>
</a>
</g>
</g>
<!-- Node1&#45;&gt;Node2 -->
<g id="edge1" class="edge"><title>Node1&#45;&gt;Node2</title>
<path fill="none" stroke="midnightblue" d="M104.054,-49.0329C114.622,-50.8303 125.701,-52.7144 136.346,-54.5249"/>
<polygon fill="midnightblue" stroke="midnightblue" points="104.554,-45.5678 94.1084,-47.3416 103.38,-52.4687 104.554,-45.5678"/>
</g>
<!-- Node3 -->
<g id="node3" class="node"><title>Node3</title>
<g id="a_node3"><a xlink:href="../../d5/d8a/classmarian_1_1AsyncGraphGroup.html#a722544018387106b41110a8a66f76053" target="_top" xlink:title="marian::AsyncGraphGroup\l::AsyncGraphGroup">
<polygon fill="white" stroke="black" points="130,-0.5 130,-30.5 262,-30.5 262,-0.5 130,-0.5"/>
<text text-anchor="start" x="138" y="-18.5" font-family="Helvetica,sans-Serif" font-size="10.00">marian::AsyncGraphGroup</text>
<text text-anchor="middle" x="196" y="-7.5" font-family="Helvetica,sans-Serif" font-size="10.00">::AsyncGraphGroup</text>
</a>
</g>
</g>
<!-- Node1&#45;&gt;Node3 -->
<g id="edge2" class="edge"><title>Node1&#45;&gt;Node3</title>
<path fill="none" stroke="midnightblue" d="M104.189,-30.3262C112.611,-28.9513 121.354,-27.5239 129.941,-26.1219"/>
<polygon fill="midnightblue" stroke="midnightblue" points="103.414,-26.9064 94.1084,-31.9721 104.542,-33.815 103.414,-26.9064"/>
</g>
</g>
</svg>
