<?xml version="1.0" encoding="UTF-8" standalone="no"?>
<!DOCTYPE svg PUBLIC "-//W3C//DTD SVG 1.1//EN"
 "http://www.w3.org/Graphics/SVG/1.1/DTD/svg11.dtd">
<!-- Generated by graphviz version 2.38.0 (20140413.2041)
 -->
<!-- Title: marian::Shift Pages: 1 -->
<svg width="224pt" height="127pt"
 viewBox="0.00 0.00 224.00 126.50" xmlns="http://www.w3.org/2000/svg" xmlns:xlink="http://www.w3.org/1999/xlink">
<g id="graph0" class="graph" transform="scale(1 1) rotate(0) translate(4 122.5)">
<title>marian::Shift</title>
<polygon fill="white" stroke="none" points="-4,4 -4,-122.5 220,-122.5 220,4 -4,4"/>
<!-- Node1 -->
<g id="node1" class="node"><title>Node1</title>
<polygon fill="#bfbfbf" stroke="black" points="0,-44.5 0,-63.5 72,-63.5 72,-44.5 0,-44.5"/>
<text text-anchor="middle" x="36" y="-51.5" font-family="Helvetica,sans-Serif" font-size="10.00">marian::Shift</text>
</g>
<!-- Node2 -->
<g id="node2" class="node"><title>Node2</title>
<g id="a_node2"><a xlink:href="../../d9/d6c/structmarian_1_1ShiftNodeOp.html#a42cd06dbea0bf66e744d1503a9ff8a1b" target="_top" xlink:title="marian::ShiftNodeOp\l::forwardOps">
<polygon fill="white" stroke="black" points="108,-88 108,-118 216,-118 216,-88 108,-88"/>
<text text-anchor="start" x="116" y="-106" font-family="Helvetica,sans-Serif" font-size="10.00">marian::ShiftNodeOp</text>
<text text-anchor="middle" x="162" y="-95" font-family="Helvetica,sans-Serif" font-size="10.00">::forwardOps</text>
</a>
</g>
</g>
<!-- Node1&#45;&gt;Node2 -->
<g id="edge1" class="edge"><title>Node1&#45;&gt;Node2</title>
<path fill="none" stroke="midnightblue" d="M70.7373,-67.3317C86.8034,-73.6804 106.091,-81.302 122.705,-87.8672"/>
<polygon fill="midnightblue" stroke="midnightblue" points="71.7893,-63.9841 61.2028,-63.564 69.2167,-70.4942 71.7893,-63.9841"/>
</g>
<!-- Node3 -->
<g id="node3" class="node"><title>Node3</title>
<g id="a_node3"><a xlink:href="../../d9/d6c/structmarian_1_1ShiftNodeOp.html#aa23a0bc2d5f513cb6d2f540783a720a3" target="_top" xlink:title="marian::ShiftNodeOp\l::backwardOps">
<polygon fill="white" stroke="black" points="108,-39 108,-69 216,-69 216,-39 108,-39"/>
<text text-anchor="start" x="116" y="-57" font-family="Helvetica,sans-Serif" font-size="10.00">marian::ShiftNodeOp</text>
<text text-anchor="middle" x="162" y="-46" font-family="Helvetica,sans-Serif" font-size="10.00">::backwardOps</text>
</a>
</g>
</g>
<!-- Node1&#45;&gt;Node3 -->
<g id="edge2" class="edge"><title>Node1&#45;&gt;Node3</title>
<path fill="none" stroke="midnightblue" d="M82.3444,-54C90.5681,-54 99.214,-54 107.643,-54"/>
<polygon fill="midnightblue" stroke="midnightblue" points="82.2018,-50.5001 72.2017,-54 82.2017,-57.5001 82.2018,-50.5001"/>
</g>
<!-- Node4 -->
<g id="node4" class="node"><title>Node4</title>
<g id="a_node4"><a xlink:href="../../da/d22/namespacemarian.html#a4dcaa19981e73d7875242f2ae1fdd11c" target="_top" xlink:title="marian::Pick">
<polygon fill="white" stroke="black" points="126.5,-0.5 126.5,-19.5 197.5,-19.5 197.5,-0.5 126.5,-0.5"/>
<text text-anchor="middle" x="162" y="-7.5" font-family="Helvetica,sans-Serif" font-size="10.00">marian::Pick</text>
</a>
</g>
</g>
<!-- Node1&#45;&gt;Node4 -->
<g id="edge3" class="edge"><title>Node1&#45;&gt;Node4</title>
<path fill="none" stroke="midnightblue" d="M73.3693,-41.0948C92.824,-34.1915 116.365,-25.8383 134.146,-19.5287"/>
<polygon fill="midnightblue" stroke="midnightblue" points="72.16,-37.81 63.9062,-44.4527 74.5009,-44.407 72.16,-37.81"/>
</g>
</g>
</svg>
