<?xml version="1.0" encoding="UTF-8" standalone="no"?>
<!DOCTYPE svg PUBLIC "-//W3C//DTD SVG 1.1//EN"
 "http://www.w3.org/Graphics/SVG/1.1/DTD/svg11.dtd">
<!-- Generated by graphviz version 2.38.0 (20140413.2041)
 -->
<!-- Title: marian::CrossEntropyPickBackward Pages: 1 -->
<svg width="310pt" height="78pt"
 viewBox="0.00 0.00 310.00 77.50" xmlns="http://www.w3.org/2000/svg" xmlns:xlink="http://www.w3.org/1999/xlink">
<g id="graph0" class="graph" transform="scale(1 1) rotate(0) translate(4 73.5)">
<title>marian::CrossEntropyPickBackward</title>
<polygon fill="white" stroke="none" points="-4,4 -4,-73.5 306,-73.5 306,4 -4,4"/>
<!-- Node1 -->
<g id="node1" class="node"><title>Node1</title>
<polygon fill="#bfbfbf" stroke="black" points="0,-17 0,-47 131,-47 131,-17 0,-17"/>
<text text-anchor="start" x="8" y="-35" font-family="Helvetica,sans-Serif" font-size="10.00">marian::CrossEntropyPick</text>
<text text-anchor="middle" x="65.5" y="-24" font-family="Helvetica,sans-Serif" font-size="10.00">Backward</text>
</g>
<!-- Node2 -->
<g id="node2" class="node"><title>Node2</title>
<g id="a_node2"><a xlink:href="../../da/d72/structmarian_1_1CrossEntropyNodeOp.html#ac500562de661363f71a0f16331dd60e7" target="_top" xlink:title="marian::CrossEntropyNode\lOp::backwardOps">
<polygon fill="white" stroke="black" points="167,-39 167,-69 302,-69 302,-39 167,-39"/>
<text text-anchor="start" x="175" y="-57" font-family="Helvetica,sans-Serif" font-size="10.00">marian::CrossEntropyNode</text>
<text text-anchor="middle" x="234.5" y="-46" font-family="Helvetica,sans-Serif" font-size="10.00">Op::backwardOps</text>
</a>
</g>
</g>
<!-- Node1&#45;&gt;Node2 -->
<g id="edge1" class="edge"><title>Node1&#45;&gt;Node2</title>
<path fill="none" stroke="midnightblue" d="M141.082,-41.8252C149.683,-42.9583 158.412,-44.1081 166.897,-45.226"/>
<polygon fill="midnightblue" stroke="midnightblue" points="141.438,-38.3419 131.067,-40.5058 140.524,-45.282 141.438,-38.3419"/>
</g>
<!-- Node3 -->
<g id="node3" class="node"><title>Node3</title>
<g id="a_node3"><a xlink:href="../../da/d22/namespacemarian.html#a4dcaa19981e73d7875242f2ae1fdd11c" target="_top" xlink:title="marian::Pick">
<polygon fill="white" stroke="black" points="199,-0.5 199,-19.5 270,-19.5 270,-0.5 199,-0.5"/>
<text text-anchor="middle" x="234.5" y="-7.5" font-family="Helvetica,sans-Serif" font-size="10.00">marian::Pick</text>
</a>
</g>
</g>
<!-- Node1&#45;&gt;Node3 -->
<g id="edge2" class="edge"><title>Node1&#45;&gt;Node3</title>
<path fill="none" stroke="midnightblue" d="M141.201,-22.1592C161.357,-19.5038 182.206,-16.7574 198.977,-14.548"/>
<polygon fill="midnightblue" stroke="midnightblue" points="140.524,-18.718 131.067,-23.4942 141.438,-25.6581 140.524,-18.718"/>
</g>
</g>
</svg>
