<?xml version="1.0" encoding="UTF-8" standalone="no"?>
<!DOCTYPE svg PUBLIC "-//W3C//DTD SVG 1.1//EN"
 "http://www.w3.org/Graphics/SVG/1.1/DTD/svg11.dtd">
<!-- Generated by graphviz version 2.38.0 (20140413.2041)
 -->
<!-- Title: marian::tanh Pages: 1 -->
<!--zoomable 940 -->
<svg id="main" version="1.1" xmlns="http://www.w3.org/2000/svg" xmlns:xlink="http://www.w3.org/1999/xlink" xml:space="preserve" onload="init(evt)">
<style type="text/css"><![CDATA[
.edge:hover path { stroke: red; }
.edge:hover polygon { stroke: red; fill: red; }
]]></style>
<script type="text/javascript"><![CDATA[
var edges = document.getElementsByTagName('g');
if (edges && edges.length) {
  for (var i=0;i<edges.length;i++) {
    if (edges[i].id.substr(0,4)=='edge') {
      edges[i].setAttribute('class','edge');
    }
  }
}
]]></script>
        <defs>
                <circle id="rim" cx="0" cy="0" r="7"/>
                <circle id="rim2" cx="0" cy="0" r="3.5"/>
                <g id="zoomPlus">
                        <use xlink:href="#rim" fill="#404040">
                                <set attributeName="fill" to="#808080" begin="zoomplus.mouseover" end="zoomplus.mouseout"/>
                        </use>
                        <path d="M-4,0h8M0,-4v8" fill="none" stroke="white" stroke-width="1.5" pointer-events="none"/>
                </g>
                <g id="zoomMin">
                        <use xlink:href="#rim" fill="#404040">
                                <set attributeName="fill" to="#808080" begin="zoomminus.mouseover" end="zoomminus.mouseout"/>
                        </use>
                        <path d="M-4,0h8" fill="none" stroke="white" stroke-width="1.5" pointer-events="none"/>
                </g>
                <g id="dirArrow">
                        <path fill="none" stroke="white" stroke-width="1.5" d="M0,-3.0v7 M-2.5,-0.5L0,-3.0L2.5,-0.5"/>
                </g>
               <g id="resetDef">
                       <use xlink:href="#rim2" fill="#404040">
                               <set attributeName="fill" to="#808080" begin="reset.mouseover" end="reset.mouseout"/>
                       </use>
               </g>
        </defs>

<script type="text/javascript">
var viewWidth = 246;
var viewHeight = 940;
var sectionId = 'dynsection-106';
</script>
<script xlink:href="../../svgpan.js"/>
<svg id="graph" class="graph">
<g id="viewport">
<title>marian::tanh</title>
<polygon fill="white" stroke="none" points="-4,4 -4,-936 242,-936 242,4 -4,4"/>
<!-- Node1 -->
<g id="node1" class="node"><title>Node1</title>
<polygon fill="#bfbfbf" stroke="black" points="0,-456.5 0,-475.5 71,-475.5 71,-456.5 0,-456.5"/>
<text text-anchor="middle" x="35.5" y="-463.5" font-family="Helvetica,sans-Serif" font-size="10.00">marian::tanh</text>
</g>
<!-- Node2 -->
<g id="node2" class="node"><title>Node2</title>
<g id="a_node2"><a xlink:href="../../da/d22/namespacemarian.html#ab84fcdb2b1fa95f89e3921aea4027957" target="_top" xlink:title="marian::tanh">
<polygon fill="white" stroke="black" points="137,-912.5 137,-931.5 208,-931.5 208,-912.5 137,-912.5"/>
<text text-anchor="middle" x="172.5" y="-919.5" font-family="Helvetica,sans-Serif" font-size="10.00">marian::tanh</text>
</a>
</g>
</g>
<!-- Node1&#45;&gt;Node2 -->
<g id="edge1" class="edge"><title>Node1&#45;&gt;Node2</title>
<path fill="none" stroke="midnightblue" d="M36.7071,-475.783C38.1382,-534.175 48.3301,-836.395 107,-903 112.317,-909.036 119.445,-913.199 127.023,-916.061"/>
<polygon fill="midnightblue" stroke="midnightblue" points="126.175,-919.461 136.761,-919.032 128.218,-912.766 126.175,-919.461"/>
</g>
<!-- Node3 -->
<g id="node3" class="node"><title>Node3</title>
<g id="a_node3"><a xlink:href="../../da/d22/namespacemarian.html#a6228f7e46aeed337e3886df6446b7840" target="_top" xlink:title="marian::relu">
<polygon fill="white" stroke="black" points="138.5,-874.5 138.5,-893.5 206.5,-893.5 206.5,-874.5 138.5,-874.5"/>
<text text-anchor="middle" x="172.5" y="-881.5" font-family="Helvetica,sans-Serif" font-size="10.00">marian::relu</text>
</a>
</g>
</g>
<!-- Node1&#45;&gt;Node3 -->
<g id="edge2" class="edge"><title>Node1&#45;&gt;Node3</title>
<path fill="none" stroke="midnightblue" d="M36.8653,-475.645C39.14,-530.682 53.0771,-804.698 107,-865 112.705,-871.38 120.432,-875.664 128.555,-878.529"/>
<polygon fill="midnightblue" stroke="midnightblue" points="127.599,-881.896 138.176,-881.281 129.524,-875.166 127.599,-881.896"/>
</g>
<!-- Node4 -->
<g id="node4" class="node"><title>Node4</title>
<g id="a_node4"><a xlink:href="../../da/d22/namespacemarian.html#a0f3132fbaaaf9a5f2c1cbf6e3ad8f5f5" target="_top" xlink:title="marian::log">
<polygon fill="white" stroke="black" points="140,-836.5 140,-855.5 205,-855.5 205,-836.5 140,-836.5"/>
<text text-anchor="middle" x="172.5" y="-843.5" font-family="Helvetica,sans-Serif" font-size="10.00">marian::log</text>
</a>
</g>
</g>
<!-- Node1&#45;&gt;Node4 -->
<g id="edge3" class="edge"><title>Node1&#45;&gt;Node4</title>
<path fill="none" stroke="midnightblue" d="M37.0654,-475.735C40.2802,-527.803 57.8816,-773.054 107,-827 113.11,-833.71 121.457,-838.097 130.12,-840.953"/>
<polygon fill="midnightblue" stroke="midnightblue" points="129.367,-844.375 139.931,-843.569 131.17,-837.611 129.367,-844.375"/>
</g>
<!-- Node5 -->
<g id="node5" class="node"><title>Node5</title>
<g id="a_node5"><a xlink:href="../../da/d22/namespacemarian.html#a4d47fe908c56b6de5c71209339461321" target="_top" xlink:title="marian::exp">
<polygon fill="white" stroke="black" points="138.5,-798.5 138.5,-817.5 206.5,-817.5 206.5,-798.5 138.5,-798.5"/>
<text text-anchor="middle" x="172.5" y="-805.5" font-family="Helvetica,sans-Serif" font-size="10.00">marian::exp</text>
</a>
</g>
</g>
<!-- Node1&#45;&gt;Node5 -->
<g id="edge4" class="edge"><title>Node1&#45;&gt;Node5</title>
<path fill="none" stroke="midnightblue" d="M37.3003,-475.66C41.5116,-524.232 62.6131,-741.317 107,-789 112.831,-795.264 120.612,-799.499 128.748,-802.353"/>
<polygon fill="midnightblue" stroke="midnightblue" points="127.789,-805.719 138.367,-805.107 129.717,-798.989 127.789,-805.719"/>
</g>
<!-- Node6 -->
<g id="node6" class="node"><title>Node6</title>
<g id="a_node6"><a xlink:href="../../da/d22/namespacemarian.html#ae39f821d2f92647251cfb015fe07f4db" target="_top" xlink:title="marian::operator&#45;">
<polygon fill="white" stroke="black" points="127.5,-760.5 127.5,-779.5 217.5,-779.5 217.5,-760.5 127.5,-760.5"/>
<text text-anchor="middle" x="172.5" y="-767.5" font-family="Helvetica,sans-Serif" font-size="10.00">marian::operator&#45;</text>
</a>
</g>
</g>
<!-- Node1&#45;&gt;Node6 -->
<g id="edge5" class="edge"><title>Node1&#45;&gt;Node6</title>
<path fill="none" stroke="midnightblue" d="M37.6069,-475.703C42.9387,-520.811 67.3544,-709.572 107,-751 110.22,-754.364 114.002,-757.142 118.093,-759.433"/>
<polygon fill="midnightblue" stroke="midnightblue" points="116.896,-762.734 127.446,-763.712 119.809,-756.369 116.896,-762.734"/>
</g>
<!-- Node7 -->
<g id="node7" class="node"><title>Node7</title>
<g id="a_node7"><a xlink:href="../../da/d22/namespacemarian.html#a4634bf0330cd2ba9cdfcdc868aff5f31" target="_top" xlink:title="marian::operator+">
<polygon fill="white" stroke="black" points="126,-722.5 126,-741.5 219,-741.5 219,-722.5 126,-722.5"/>
<text text-anchor="middle" x="172.5" y="-729.5" font-family="Helvetica,sans-Serif" font-size="10.00">marian::operator+</text>
</a>
</g>
</g>
<!-- Node1&#45;&gt;Node7 -->
<g id="edge6" class="edge"><title>Node1&#45;&gt;Node7</title>
<path fill="none" stroke="midnightblue" d="M36.183,-475.642C35.5287,-512.193 38.2346,-643.652 107,-713 109.877,-715.901 113.173,-718.364 116.719,-720.455"/>
<polygon fill="midnightblue" stroke="midnightblue" points="115.429,-723.719 125.955,-724.921 118.476,-717.417 115.429,-723.719"/>
</g>
<!-- Node8 -->
<g id="node8" class="node"><title>Node8</title>
<g id="a_node8"><a xlink:href="../../da/d22/namespacemarian.html#a6aaf9b9fe6f3717c4319e926330f2c22" target="_top" xlink:title="marian::operator*">
<polygon fill="white" stroke="black" points="127,-684.5 127,-703.5 218,-703.5 218,-684.5 127,-684.5"/>
<text text-anchor="middle" x="172.5" y="-691.5" font-family="Helvetica,sans-Serif" font-size="10.00">marian::operator*</text>
</a>
</g>
</g>
<!-- Node1&#45;&gt;Node8 -->
<g id="edge7" class="edge"><title>Node1&#45;&gt;Node8</title>
<path fill="none" stroke="midnightblue" d="M36.7595,-475.513C38.181,-508.291 47.3871,-617.66 107,-675 110.123,-678.004 113.697,-680.537 117.526,-682.671"/>
<polygon fill="midnightblue" stroke="midnightblue" points="116.281,-685.951 126.827,-686.964 119.214,-679.596 116.281,-685.951"/>
</g>
<!-- Node9 -->
<g id="node9" class="node"><title>Node9</title>
<g id="a_node9"><a xlink:href="../../da/d22/namespacemarian.html#a1b719c7a542512dbc5a589f92114be62" target="_top" xlink:title="marian::operator/">
<polygon fill="white" stroke="black" points="127.5,-646.5 127.5,-665.5 217.5,-665.5 217.5,-646.5 127.5,-646.5"/>
<text text-anchor="middle" x="172.5" y="-653.5" font-family="Helvetica,sans-Serif" font-size="10.00">marian::operator/</text>
</a>
</g>
</g>
<!-- Node1&#45;&gt;Node9 -->
<g id="edge8" class="edge"><title>Node1&#45;&gt;Node9</title>
<path fill="none" stroke="midnightblue" d="M37.6021,-475.791C41.406,-504.893 56.6511,-591.659 107,-637 110.36,-640.026 114.18,-642.571 118.244,-644.712"/>
<polygon fill="midnightblue" stroke="midnightblue" points="116.884,-647.937 127.445,-648.781 119.716,-641.536 116.884,-647.937"/>
</g>
<!-- Node10 -->
<g id="node10" class="node"><title>Node10</title>
<g id="a_node10"><a xlink:href="../../da/d22/namespacemarian.html#ad7fbf1ba8e2e04ffdc7d5e4841b5e691" target="_top" xlink:title="marian::dot">
<polygon fill="white" stroke="black" points="140,-608.5 140,-627.5 205,-627.5 205,-608.5 140,-608.5"/>
<text text-anchor="middle" x="172.5" y="-615.5" font-family="Helvetica,sans-Serif" font-size="10.00">marian::dot</text>
</a>
</g>
</g>
<!-- Node1&#45;&gt;Node10 -->
<g id="edge9" class="edge"><title>Node1&#45;&gt;Node10</title>
<path fill="none" stroke="midnightblue" d="M38.8391,-475.697C45.2602,-500.21 65.5087,-565.108 107,-599 113.693,-604.467 121.909,-608.361 130.207,-611.135"/>
<polygon fill="midnightblue" stroke="midnightblue" points="129.324,-614.522 139.901,-613.903 131.246,-607.791 129.324,-614.522"/>
</g>
<!-- Node11 -->
<g id="node11" class="node"><title>Node11</title>
<g id="a_node11"><a xlink:href="../../da/d22/namespacemarian.html#a00669690ef16ce9b1bde5ee9d1b77ac6" target="_top" xlink:title="marian::transpose">
<polygon fill="white" stroke="black" points="125,-570.5 125,-589.5 220,-589.5 220,-570.5 125,-570.5"/>
<text text-anchor="middle" x="172.5" y="-577.5" font-family="Helvetica,sans-Serif" font-size="10.00">marian::transpose</text>
</a>
</g>
</g>
<!-- Node1&#45;&gt;Node11 -->
<g id="edge10" class="edge"><title>Node1&#45;&gt;Node11</title>
<path fill="none" stroke="midnightblue" d="M41.0071,-475.706C50.4444,-494.955 74.1598,-538.076 107,-561 109.863,-562.998 112.937,-564.789 116.134,-566.393"/>
<polygon fill="midnightblue" stroke="midnightblue" points="114.831,-569.643 125.396,-570.439 117.633,-563.229 114.831,-569.643"/>
</g>
<!-- Node12 -->
<g id="node12" class="node"><title>Node12</title>
<g id="a_node12"><a xlink:href="../../da/d22/namespacemarian.html#a2791a2c8f79a938f5cb22ae613680675" target="_top" xlink:title="marian::concatenate">
<polygon fill="white" stroke="black" points="120,-532.5 120,-551.5 225,-551.5 225,-532.5 120,-532.5"/>
<text text-anchor="middle" x="172.5" y="-539.5" font-family="Helvetica,sans-Serif" font-size="10.00">marian::concatenate</text>
</a>
</g>
</g>
<!-- Node1&#45;&gt;Node12 -->
<g id="edge11" class="edge"><title>Node1&#45;&gt;Node12</title>
<path fill="none" stroke="midnightblue" d="M46.1014,-475.882C58.8946,-488.516 82.7484,-510.276 107,-523 111.296,-525.254 115.898,-527.277 120.592,-529.085"/>
<polygon fill="midnightblue" stroke="midnightblue" points="119.695,-532.479 130.29,-532.497 122.019,-525.876 119.695,-532.479"/>
</g>
<!-- Node13 -->
<g id="node13" class="node"><title>Node13</title>
<g id="a_node13"><a xlink:href="../../da/d22/namespacemarian.html#acd984f43188d0ae23c2a6ef13ae5293f" target="_top" xlink:title="marian::reshape">
<polygon fill="white" stroke="black" points="129.5,-494.5 129.5,-513.5 215.5,-513.5 215.5,-494.5 129.5,-494.5"/>
<text text-anchor="middle" x="172.5" y="-501.5" font-family="Helvetica,sans-Serif" font-size="10.00">marian::reshape</text>
</a>
</g>
</g>
<!-- Node1&#45;&gt;Node13 -->
<g id="edge12" class="edge"><title>Node1&#45;&gt;Node13</title>
<path fill="none" stroke="midnightblue" d="M70.5662,-475.589C87.9135,-480.472 109.202,-486.464 127.749,-491.685"/>
<polygon fill="midnightblue" stroke="midnightblue" points="126.87,-495.074 137.445,-494.414 128.767,-488.335 126.87,-495.074"/>
</g>
<!-- Node14 -->
<g id="node14" class="node"><title>Node14</title>
<g id="a_node14"><a xlink:href="../../da/d22/namespacemarian.html#aea8d2acadf0d96f6e455addd57cba80d" target="_top" xlink:title="marian::flatten">
<polygon fill="white" stroke="black" points="133,-456.5 133,-475.5 212,-475.5 212,-456.5 133,-456.5"/>
<text text-anchor="middle" x="172.5" y="-463.5" font-family="Helvetica,sans-Serif" font-size="10.00">marian::flatten</text>
</a>
</g>
</g>
<!-- Node1&#45;&gt;Node14 -->
<g id="edge13" class="edge"><title>Node1&#45;&gt;Node14</title>
<path fill="none" stroke="midnightblue" d="M71.2659,-466C86.793,-466 105.369,-466 122.288,-466"/>
<polygon fill="midnightblue" stroke="midnightblue" points="122.566,-469.5 132.566,-466 122.566,-462.5 122.566,-469.5"/>
</g>
<!-- Node15 -->
<g id="node15" class="node"><title>Node15</title>
<g id="a_node15"><a xlink:href="../../da/d22/namespacemarian.html#a460460a6de63beebc5d968b44d49d11b" target="_top" xlink:title="marian::sum">
<polygon fill="white" stroke="black" points="137,-418.5 137,-437.5 208,-437.5 208,-418.5 137,-418.5"/>
<text text-anchor="middle" x="172.5" y="-425.5" font-family="Helvetica,sans-Serif" font-size="10.00">marian::sum</text>
</a>
</g>
</g>
<!-- Node1&#45;&gt;Node15 -->
<g id="edge14" class="edge"><title>Node1&#45;&gt;Node15</title>
<path fill="none" stroke="midnightblue" d="M70.5662,-456.411C87.9135,-451.528 109.202,-445.536 127.749,-440.315"/>
<polygon fill="midnightblue" stroke="midnightblue" points="128.767,-443.665 137.445,-437.586 126.87,-436.926 128.767,-443.665"/>
</g>
<!-- Node16 -->
<g id="node16" class="node"><title>Node16</title>
<g id="a_node16"><a xlink:href="../../da/d22/namespacemarian.html#a3c08107d509be52ee2c17eb6d54c7ebc" target="_top" xlink:title="marian::softmax">
<polygon fill="white" stroke="black" points="129,-380.5 129,-399.5 216,-399.5 216,-380.5 129,-380.5"/>
<text text-anchor="middle" x="172.5" y="-387.5" font-family="Helvetica,sans-Serif" font-size="10.00">marian::softmax</text>
</a>
</g>
</g>
<!-- Node1&#45;&gt;Node16 -->
<g id="edge15" class="edge"><title>Node1&#45;&gt;Node16</title>
<path fill="none" stroke="midnightblue" d="M46.1014,-456.118C58.8946,-443.484 82.7484,-421.724 107,-409 111.296,-406.746 115.898,-404.723 120.592,-402.915"/>
<polygon fill="midnightblue" stroke="midnightblue" points="122.019,-406.124 130.29,-399.503 119.695,-399.521 122.019,-406.124"/>
</g>
<!-- Node17 -->
<g id="node17" class="node"><title>Node17</title>
<g id="a_node17"><a xlink:href="../../da/d22/namespacemarian.html#a471a2cbd15b4094528a1643abc814bb6" target="_top" xlink:title="marian::logsoftmax">
<polygon fill="white" stroke="black" points="122.5,-342.5 122.5,-361.5 222.5,-361.5 222.5,-342.5 122.5,-342.5"/>
<text text-anchor="middle" x="172.5" y="-349.5" font-family="Helvetica,sans-Serif" font-size="10.00">marian::logsoftmax</text>
</a>
</g>
</g>
<!-- Node1&#45;&gt;Node17 -->
<g id="edge16" class="edge"><title>Node1&#45;&gt;Node17</title>
<path fill="none" stroke="midnightblue" d="M41.0071,-456.294C50.4444,-437.045 74.1598,-393.924 107,-371 109.863,-369.002 112.937,-367.211 116.134,-365.607"/>
<polygon fill="midnightblue" stroke="midnightblue" points="117.633,-368.771 125.396,-361.561 114.831,-362.357 117.633,-368.771"/>
</g>
<!-- Node18 -->
<g id="node18" class="node"><title>Node18</title>
<g id="a_node18"><a xlink:href="../../da/d22/namespacemarian.html#a15ec9743709e47180378db974ddbf116" target="_top" xlink:title="marian::mean">
<polygon fill="white" stroke="black" points="134.5,-304.5 134.5,-323.5 210.5,-323.5 210.5,-304.5 134.5,-304.5"/>
<text text-anchor="middle" x="172.5" y="-311.5" font-family="Helvetica,sans-Serif" font-size="10.00">marian::mean</text>
</a>
</g>
</g>
<!-- Node1&#45;&gt;Node18 -->
<g id="edge17" class="edge"><title>Node1&#45;&gt;Node18</title>
<path fill="none" stroke="midnightblue" d="M38.8391,-456.303C45.2602,-431.79 65.5087,-366.892 107,-333 112.224,-328.733 118.376,-325.424 124.77,-322.858"/>
<polygon fill="midnightblue" stroke="midnightblue" points="125.913,-326.166 134.233,-319.606 123.638,-319.547 125.913,-326.166"/>
</g>
<!-- Node19 -->
<g id="node19" class="node"><title>Node19</title>
<g id="a_node19"><a xlink:href="../../da/d22/namespacemarian.html#a37652ca2a00f3c36816fe5fec28104a0" target="_top" xlink:title="marian::cross_entropy">
<polygon fill="white" stroke="black" points="116,-266.5 116,-285.5 229,-285.5 229,-266.5 116,-266.5"/>
<text text-anchor="middle" x="172.5" y="-273.5" font-family="Helvetica,sans-Serif" font-size="10.00">marian::cross_entropy</text>
</a>
</g>
</g>
<!-- Node1&#45;&gt;Node19 -->
<g id="edge18" class="edge"><title>Node1&#45;&gt;Node19</title>
<path fill="none" stroke="midnightblue" d="M37.6021,-456.209C41.406,-427.107 56.6511,-340.341 107,-295 108.762,-293.413 110.651,-291.959 112.634,-290.625"/>
<polygon fill="midnightblue" stroke="midnightblue" points="114.795,-293.429 121.846,-285.521 111.402,-287.306 114.795,-293.429"/>
</g>
<!-- Node20 -->
<g id="node20" class="node"><title>Node20</title>
<g id="a_node20"><a xlink:href="../../da/d22/namespacemarian.html#aefe65d738dc9a0536f3a1f9346b8d47b" target="_top" xlink:title="marian::affine">
<polygon fill="white" stroke="black" points="134.5,-228.5 134.5,-247.5 210.5,-247.5 210.5,-228.5 134.5,-228.5"/>
<text text-anchor="middle" x="172.5" y="-235.5" font-family="Helvetica,sans-Serif" font-size="10.00">marian::affine</text>
</a>
</g>
</g>
<!-- Node1&#45;&gt;Node20 -->
<g id="edge19" class="edge"><title>Node1&#45;&gt;Node20</title>
<path fill="none" stroke="midnightblue" d="M36.7595,-456.487C38.181,-423.709 47.3871,-314.34 107,-257 111.974,-252.215 118.092,-248.627 124.558,-245.938"/>
<polygon fill="midnightblue" stroke="midnightblue" points="125.884,-249.183 134.19,-242.607 123.596,-242.568 125.884,-249.183"/>
</g>
<!-- Node21 -->
<g id="node21" class="node"><title>Node21</title>
<g id="a_node21"><a xlink:href="../../da/d22/namespacemarian.html#a7bed97354565d7b751bed999c6c203e3" target="_top" xlink:title="marian::scalar_product">
<polygon fill="white" stroke="black" points="114.5,-190.5 114.5,-209.5 230.5,-209.5 230.5,-190.5 114.5,-190.5"/>
<text text-anchor="middle" x="172.5" y="-197.5" font-family="Helvetica,sans-Serif" font-size="10.00">marian::scalar_product</text>
</a>
</g>
</g>
<!-- Node1&#45;&gt;Node21 -->
<g id="edge20" class="edge"><title>Node1&#45;&gt;Node21</title>
<path fill="none" stroke="midnightblue" d="M36.183,-456.358C35.5287,-419.807 38.2346,-288.348 107,-219 108.449,-217.539 110.004,-216.189 111.643,-214.942"/>
<polygon fill="midnightblue" stroke="midnightblue" points="113.766,-217.745 120.449,-209.524 110.098,-211.784 113.766,-217.745"/>
</g>
<!-- Node22 -->
<g id="node22" class="node"><title>Node22</title>
<g id="a_node22"><a xlink:href="../../da/d22/namespacemarian.html#a8ccb9507a69a32ecd48410fd1557f209" target="_top" xlink:title="marian::weighted_average">
<polygon fill="white" stroke="black" points="107,-152.5 107,-171.5 238,-171.5 238,-152.5 107,-152.5"/>
<text text-anchor="middle" x="172.5" y="-159.5" font-family="Helvetica,sans-Serif" font-size="10.00">marian::weighted_average</text>
</a>
</g>
</g>
<!-- Node1&#45;&gt;Node22 -->
<g id="edge21" class="edge"><title>Node1&#45;&gt;Node22</title>
<path fill="none" stroke="midnightblue" d="M37.6069,-456.297C42.9387,-411.189 67.3544,-222.428 107,-181 108.392,-179.545 109.89,-178.2 111.472,-176.957"/>
<polygon fill="midnightblue" stroke="midnightblue" points="113.426,-179.862 119.994,-171.548 109.676,-173.951 113.426,-179.862"/>
</g>
<!-- Node23 -->
<g id="node23" class="node"><title>Node23</title>
<g id="a_node23"><a xlink:href="../../da/d22/namespacemarian.html#a2e7193e67292a4c3347f296f5e669581" target="_top" xlink:title="marian::step">
<polygon fill="white" stroke="black" points="137,-114.5 137,-133.5 208,-133.5 208,-114.5 137,-114.5"/>
<text text-anchor="middle" x="172.5" y="-121.5" font-family="Helvetica,sans-Serif" font-size="10.00">marian::step</text>
</a>
</g>
</g>
<!-- Node1&#45;&gt;Node23 -->
<g id="edge22" class="edge"><title>Node1&#45;&gt;Node23</title>
<path fill="none" stroke="midnightblue" d="M37.3003,-456.34C41.5116,-407.768 62.6131,-190.683 107,-143 112.425,-137.172 119.537,-133.101 127.053,-130.264"/>
<polygon fill="midnightblue" stroke="midnightblue" points="128.167,-133.583 136.692,-127.292 126.105,-126.894 128.167,-133.583"/>
</g>
<!-- Node24 -->
<g id="node24" class="node"><title>Node24</title>
<g id="a_node24"><a xlink:href="../../da/d22/namespacemarian.html#ac5f147047403fcdab5481c89dc1d8212" target="_top" xlink:title="marian::sqrt">
<polygon fill="white" stroke="black" points="138.5,-76.5 138.5,-95.5 206.5,-95.5 206.5,-76.5 138.5,-76.5"/>
<text text-anchor="middle" x="172.5" y="-83.5" font-family="Helvetica,sans-Serif" font-size="10.00">marian::sqrt</text>
</a>
</g>
</g>
<!-- Node1&#45;&gt;Node24 -->
<g id="edge23" class="edge"><title>Node1&#45;&gt;Node24</title>
<path fill="none" stroke="midnightblue" d="M37.0654,-456.265C40.2802,-404.197 57.8816,-158.946 107,-105 112.762,-98.6719 120.513,-94.41 128.642,-91.5499"/>
<polygon fill="midnightblue" stroke="midnightblue" points="129.611,-94.9132 138.262,-88.7965 127.685,-88.1835 129.611,-94.9132"/>
</g>
<!-- Node25 -->
<g id="node25" class="node"><title>Node25</title>
<g id="a_node25"><a xlink:href="../../da/d22/namespacemarian.html#a953e6df1fb209a142e066a2546d88c8a" target="_top" xlink:title="marian::square">
<polygon fill="white" stroke="black" points="132,-38.5 132,-57.5 213,-57.5 213,-38.5 132,-38.5"/>
<text text-anchor="middle" x="172.5" y="-45.5" font-family="Helvetica,sans-Serif" font-size="10.00">marian::square</text>
</a>
</g>
</g>
<!-- Node1&#45;&gt;Node25 -->
<g id="edge24" class="edge"><title>Node1&#45;&gt;Node25</title>
<path fill="none" stroke="midnightblue" d="M36.8653,-456.355C39.14,-401.318 53.0771,-127.302 107,-67 111.238,-62.2601 116.593,-58.6771 122.397,-55.9733"/>
<polygon fill="midnightblue" stroke="midnightblue" points="123.685,-59.2284 131.792,-52.4081 121.201,-52.6838 123.685,-59.2284"/>
</g>
<!-- Node26 -->
<g id="node26" class="node"><title>Node26</title>
<g id="a_node26"><a xlink:href="../../da/d22/namespacemarian.html#a6202278a9da8ca8a281a6a96e75082f6" target="_top" xlink:title="marian::layer_norm">
<polygon fill="white" stroke="black" points="122.5,-0.5 122.5,-19.5 222.5,-19.5 222.5,-0.5 122.5,-0.5"/>
<text text-anchor="middle" x="172.5" y="-7.5" font-family="Helvetica,sans-Serif" font-size="10.00">marian::layer_norm</text>
</a>
</g>
</g>
<!-- Node1&#45;&gt;Node26 -->
<g id="edge25" class="edge"><title>Node1&#45;&gt;Node26</title>
<path fill="none" stroke="midnightblue" d="M36.7071,-456.217C38.1382,-397.825 48.3301,-95.6055 107,-29 108.953,-26.7827 111.151,-24.8181 113.525,-23.0779"/>
<polygon fill="midnightblue" stroke="midnightblue" points="115.338,-26.0724 122.182,-17.9849 111.788,-20.0391 115.338,-26.0724"/>
</g>
</g>
</svg>
        <g id="navigator" transform="translate(0 0)" fill="#404254">
                <rect fill="#f2f5e9" fill-opacity="0.5" stroke="#606060" stroke-width=".5" x="0" y="0" width="60" height="60"/>
                <use id="zoomplus" xlink:href="#zoomPlus" x="17" y="9" onmousedown="handleZoom(evt,'in')"/>
                <use id="zoomminus" xlink:href="#zoomMin" x="42" y="9" onmousedown="handleZoom(evt,'out')"/>
                <use id="reset" xlink:href="#resetDef" x="30" y="36" onmousedown="handleReset()"/>
                <g id="arrowUp" xlink:href="#dirArrow" transform="translate(30 24)" onmousedown="handlePan(0,-1)">
                  <use xlink:href="#rim" fill="#404040">
                        <set attributeName="fill" to="#808080" begin="arrowUp.mouseover" end="arrowUp.mouseout"/>
                  </use>
                  <path fill="none" stroke="white" stroke-width="1.5" d="M0,-3.0v7 M-2.5,-0.5L0,-3.0L2.5,-0.5"/>
                </g>
                <g id="arrowRight" xlink:href="#dirArrow" transform="rotate(90) translate(36 -43)" onmousedown="handlePan(1,0)">
                  <use xlink:href="#rim" fill="#404040">
                        <set attributeName="fill" to="#808080" begin="arrowRight.mouseover" end="arrowRight.mouseout"/>
                  </use>
                  <path fill="none" stroke="white" stroke-width="1.5" d="M0,-3.0v7 M-2.5,-0.5L0,-3.0L2.5,-0.5"/>
                </g>
                <g id="arrowDown" xlink:href="#dirArrow" transform="rotate(180) translate(-30 -48)" onmousedown="handlePan(0,1)">
                  <use xlink:href="#rim" fill="#404040">
                        <set attributeName="fill" to="#808080" begin="arrowDown.mouseover" end="arrowDown.mouseout"/>
                  </use>
                  <path fill="none" stroke="white" stroke-width="1.5" d="M0,-3.0v7 M-2.5,-0.5L0,-3.0L2.5,-0.5"/>
                </g>
                <g id="arrowLeft" xlink:href="#dirArrow" transform="rotate(270) translate(-36 17)" onmousedown="handlePan(-1,0)">
                  <use xlink:href="#rim" fill="#404040">
                        <set attributeName="fill" to="#808080" begin="arrowLeft.mouseover" end="arrowLeft.mouseout"/>
                  </use>
                  <path fill="none" stroke="white" stroke-width="1.5" d="M0,-3.0v7 M-2.5,-0.5L0,-3.0L2.5,-0.5"/>
                </g>
        </g>
        <svg viewBox="0 0 15 15" width="100%" height="30px" preserveAspectRatio="xMaxYMin meet">
         <g id="arrow_out" transform="scale(0.3 0.3)">
          <a xlink:href="namespacemarian_ae5810f27b42d7d5f9b83ae23ddf544f2_cgraph_org.svg" target="_base">
           <rect id="button" ry="5" rx="5" y="6" x="6" height="38" width="38"
                fill="#f2f5e9" fill-opacity="0.5" stroke="#606060" stroke-width="1.0"/>
           <path id="arrow"
             d="M 11.500037,31.436501 C 11.940474,20.09759 22.043105,11.32322 32.158766,21.979434 L 37.068811,17.246167 C 37.068811,17.246167 37.088388,32 37.088388,32 L 22.160133,31.978069 C 22.160133,31.978069 26.997745,27.140456 26.997745,27.140456 C 18.528582,18.264221 13.291696,25.230495 11.500037,31.436501 z"
             style="fill:#404040;"/>
          </a>
         </g>
        </svg>
</svg>
