<?xml version="1.0" encoding="UTF-8" standalone="no"?>
<!DOCTYPE svg PUBLIC "-//W3C//DTD SVG 1.1//EN"
 "http://www.w3.org/Graphics/SVG/1.1/DTD/svg11.dtd">
<!-- Generated by graphviz version 2.38.0 (20140413.2041)
 -->
<!-- Title: marian::gPick Pages: 1 -->
<svg width="441pt" height="104pt"
 viewBox="0.00 0.00 441.00 104.00" xmlns="http://www.w3.org/2000/svg" xmlns:xlink="http://www.w3.org/1999/xlink">
<g id="graph0" class="graph" transform="scale(1 1) rotate(0) translate(4 100)">
<title>marian::gPick</title>
<polygon fill="white" stroke="none" points="-4,4 -4,-100 437,-100 437,4 -4,4"/>
<!-- Node1 -->
<g id="node1" class="node"><title>Node1</title>
<polygon fill="#bfbfbf" stroke="black" points="0,-38.5 0,-57.5 77,-57.5 77,-38.5 0,-38.5"/>
<text text-anchor="middle" x="38.5" y="-45.5" font-family="Helvetica,sans-Serif" font-size="10.00">marian::gPick</text>
</g>
<!-- Node2 -->
<g id="node2" class="node"><title>Node2</title>
<g id="a_node2"><a xlink:href="../../d6/dbf/structmarian_1_1ShapeGPU.html#a4af583e3ce361798a8b84c4f0a058e5d" target="_top" xlink:title="Gets the total number of elements in a tensor of this shape. ">
<polygon fill="white" stroke="black" points="113,-76.5 113,-95.5 260,-95.5 260,-76.5 113,-76.5"/>
<text text-anchor="middle" x="186.5" y="-83.5" font-family="Helvetica,sans-Serif" font-size="10.00">marian::ShapeGPU::elements</text>
</a>
</g>
</g>
<!-- Node1&#45;&gt;Node2 -->
<g id="edge1" class="edge"><title>Node1&#45;&gt;Node2</title>
<path fill="none" stroke="midnightblue" d="M76.342,-57.589C95.3479,-62.5358 118.729,-68.6211 138.969,-73.8892"/>
<polygon fill="midnightblue" stroke="midnightblue" points="138.364,-77.3482 148.923,-76.4799 140.127,-70.5739 138.364,-77.3482"/>
</g>
<!-- Node3 -->
<g id="node3" class="node"><title>Node3</title>
<g id="a_node3"><a xlink:href="../../d6/dbf/structmarian_1_1ShapeGPU.html#a35f26e62cc21105d42ab2e872298d01a" target="_top" xlink:title="marian::ShapeGPU::dims">
<polygon fill="white" stroke="black" points="122.5,-38.5 122.5,-57.5 250.5,-57.5 250.5,-38.5 122.5,-38.5"/>
<text text-anchor="middle" x="186.5" y="-45.5" font-family="Helvetica,sans-Serif" font-size="10.00">marian::ShapeGPU::dims</text>
</a>
</g>
</g>
<!-- Node1&#45;&gt;Node3 -->
<g id="edge2" class="edge"><title>Node1&#45;&gt;Node3</title>
<path fill="none" stroke="midnightblue" d="M77.0986,-48C87.8579,-48 99.9709,-48 112.099,-48"/>
<polygon fill="midnightblue" stroke="midnightblue" points="112.26,-51.5001 122.26,-48 112.26,-44.5001 112.26,-51.5001"/>
</g>
<!-- Node4 -->
<g id="node4" class="node"><title>Node4</title>
<g id="a_node4"><a xlink:href="../../d6/dbf/structmarian_1_1ShapeGPU.html#abba723039045f88819630d71dc448744" target="_top" xlink:title="marian::ShapeGPU::bindex">
<polygon fill="white" stroke="black" points="118.5,-0.5 118.5,-19.5 254.5,-19.5 254.5,-0.5 118.5,-0.5"/>
<text text-anchor="middle" x="186.5" y="-7.5" font-family="Helvetica,sans-Serif" font-size="10.00">marian::ShapeGPU::bindex</text>
</a>
</g>
</g>
<!-- Node1&#45;&gt;Node4 -->
<g id="edge3" class="edge"><title>Node1&#45;&gt;Node4</title>
<path fill="none" stroke="midnightblue" d="M76.342,-38.411C95.3479,-33.4642 118.729,-27.3789 138.969,-22.1108"/>
<polygon fill="midnightblue" stroke="midnightblue" points="140.127,-25.4261 148.923,-19.5201 138.364,-18.6518 140.127,-25.4261"/>
</g>
<!-- Node5 -->
<g id="node5" class="node"><title>Node5</title>
<g id="a_node5"><a xlink:href="../../d6/dbf/structmarian_1_1ShapeGPU.html#a654ae2347fb721431816e338b1f55292" target="_top" xlink:title="marian::ShapeGPU::bstride">
<polygon fill="white" stroke="black" points="296,-0.5 296,-19.5 433,-19.5 433,-0.5 296,-0.5"/>
<text text-anchor="middle" x="364.5" y="-7.5" font-family="Helvetica,sans-Serif" font-size="10.00">marian::ShapeGPU::bstride</text>
</a>
</g>
</g>
<!-- Node4&#45;&gt;Node5 -->
<g id="edge4" class="edge"><title>Node4&#45;&gt;Node5</title>
<path fill="none" stroke="midnightblue" d="M254.54,-10C264.667,-10 275.188,-10 285.521,-10"/>
<polygon fill="midnightblue" stroke="midnightblue" points="285.771,-13.5001 295.771,-10 285.771,-6.5001 285.771,-13.5001"/>
</g>
</g>
</svg>
