<?xml version="1.0" encoding="UTF-8" standalone="no"?>
<!DOCTYPE svg PUBLIC "-//W3C//DTD SVG 1.1//EN"
 "http://www.w3.org/Graphics/SVG/1.1/DTD/svg11.dtd">
<!-- Generated by graphviz version 2.38.0 (20140413.2041)
 -->
<!-- Title: marian::step Pages: 1 -->
<!--zoomable 469 -->
<svg id="main" version="1.1" xmlns="http://www.w3.org/2000/svg" xmlns:xlink="http://www.w3.org/1999/xlink" xml:space="preserve" onload="init(evt)">
<style type="text/css"><![CDATA[
.edge:hover path { stroke: red; }
.edge:hover polygon { stroke: red; fill: red; }
]]></style>
<script type="text/javascript"><![CDATA[
var edges = document.getElementsByTagName('g');
if (edges && edges.length) {
  for (var i=0;i<edges.length;i++) {
    if (edges[i].id.substr(0,4)=='edge') {
      edges[i].setAttribute('class','edge');
    }
  }
}
]]></script>
        <defs>
                <circle id="rim" cx="0" cy="0" r="7"/>
                <circle id="rim2" cx="0" cy="0" r="3.5"/>
                <g id="zoomPlus">
                        <use xlink:href="#rim" fill="#404040">
                                <set attributeName="fill" to="#808080" begin="zoomplus.mouseover" end="zoomplus.mouseout"/>
                        </use>
                        <path d="M-4,0h8M0,-4v8" fill="none" stroke="white" stroke-width="1.5" pointer-events="none"/>
                </g>
                <g id="zoomMin">
                        <use xlink:href="#rim" fill="#404040">
                                <set attributeName="fill" to="#808080" begin="zoomminus.mouseover" end="zoomminus.mouseout"/>
                        </use>
                        <path d="M-4,0h8" fill="none" stroke="white" stroke-width="1.5" pointer-events="none"/>
                </g>
                <g id="dirArrow">
                        <path fill="none" stroke="white" stroke-width="1.5" d="M0,-3.0v7 M-2.5,-0.5L0,-3.0L2.5,-0.5"/>
                </g>
               <g id="resetDef">
                       <use xlink:href="#rim2" fill="#404040">
                               <set attributeName="fill" to="#808080" begin="reset.mouseover" end="reset.mouseout"/>
                       </use>
               </g>
        </defs>

<script type="text/javascript">
var viewWidth = 436;
var viewHeight = 469;
var sectionId = 'dynsection-102';
</script>
<script xlink:href="../../svgpan.js"/>
<svg id="graph" class="graph">
<g id="viewport">
<title>marian::step</title>
<polygon fill="white" stroke="none" points="-4,4 -4,-464.5 432,-464.5 432,4 -4,4"/>
<!-- Node1 -->
<g id="node1" class="node"><title>Node1</title>
<polygon fill="#bfbfbf" stroke="black" points="0,-176.5 0,-195.5 71,-195.5 71,-176.5 0,-176.5"/>
<text text-anchor="middle" x="35.5" y="-183.5" font-family="Helvetica,sans-Serif" font-size="10.00">marian::step</text>
</g>
<!-- Node2 -->
<g id="node2" class="node"><title>Node2</title>
<g id="a_node2"><a xlink:href="../../db/d04/classmarian_1_1DecoderBase.html#a85b857fc8ff57bbd1608efaa4cf5765e" target="_top" xlink:title="marian::DecoderBase\l::DecoderBase">
<polygon fill="white" stroke="black" points="134,-430 134,-460 245,-460 245,-430 134,-430"/>
<text text-anchor="start" x="142" y="-448" font-family="Helvetica,sans-Serif" font-size="10.00">marian::DecoderBase</text>
<text text-anchor="middle" x="189.5" y="-437" font-family="Helvetica,sans-Serif" font-size="10.00">::DecoderBase</text>
</a>
</g>
</g>
<!-- Node1&#45;&gt;Node2 -->
<g id="edge1" class="edge"><title>Node1&#45;&gt;Node2</title>
<path fill="none" stroke="midnightblue" d="M36.4667,-205.824C37.5003,-250.684 46.445,-360.751 107,-421 114.424,-428.386 123.999,-433.522 133.961,-437.086"/>
<polygon fill="midnightblue" stroke="midnightblue" points="39.9647,-205.626 36.3478,-195.667 32.9652,-205.708 39.9647,-205.626"/>
</g>
<!-- Node3 -->
<g id="node3" class="node"><title>Node3</title>
<g id="a_node3"><a xlink:href="../../d7/d2c/classmarian_1_1EncoderDecoder.html#a971e6d5f8523616276087416cdcb1a18" target="_top" xlink:title="marian::EncoderDecoder\l\&lt; MultiEncoderS2S, MultiDecoder\lS2S \&gt;::step">
<polygon fill="white" stroke="black" points="107,-370.5 107,-411.5 272,-411.5 272,-370.5 107,-370.5"/>
<text text-anchor="start" x="115" y="-399.5" font-family="Helvetica,sans-Serif" font-size="10.00">marian::EncoderDecoder</text>
<text text-anchor="start" x="115" y="-388.5" font-family="Helvetica,sans-Serif" font-size="10.00">&lt; MultiEncoderS2S, MultiDecoder</text>
<text text-anchor="middle" x="189.5" y="-377.5" font-family="Helvetica,sans-Serif" font-size="10.00">S2S &gt;::step</text>
</a>
</g>
</g>
<!-- Node1&#45;&gt;Node3 -->
<g id="edge2" class="edge"><title>Node1&#45;&gt;Node3</title>
<path fill="none" stroke="midnightblue" d="M39.1984,-206.033C45.063,-241.945 62.2405,-317.575 107,-361 110.571,-364.465 114.576,-367.535 118.843,-370.254"/>
<polygon fill="midnightblue" stroke="midnightblue" points="42.6171,-205.229 37.6712,-195.86 35.6947,-206.269 42.6171,-205.229"/>
</g>
<!-- Node4 -->
<g id="node4" class="node"><title>Node4</title>
<g id="a_node4"><a xlink:href="../../d7/d2c/classmarian_1_1EncoderDecoder.html#a859d35d8ad42e6de1f8a55d5efa9b998" target="_top" xlink:title="marian::EncoderDecoder\l\&lt; MultiEncoderS2S, MultiDecoder\lS2S \&gt;::build">
<polygon fill="white" stroke="black" points="107,-310.5 107,-351.5 272,-351.5 272,-310.5 107,-310.5"/>
<text text-anchor="start" x="115" y="-339.5" font-family="Helvetica,sans-Serif" font-size="10.00">marian::EncoderDecoder</text>
<text text-anchor="start" x="115" y="-328.5" font-family="Helvetica,sans-Serif" font-size="10.00">&lt; MultiEncoderS2S, MultiDecoder</text>
<text text-anchor="middle" x="189.5" y="-317.5" font-family="Helvetica,sans-Serif" font-size="10.00">S2S &gt;::build</text>
</a>
</g>
</g>
<!-- Node1&#45;&gt;Node4 -->
<g id="edge3" class="edge"><title>Node1&#45;&gt;Node4</title>
<path fill="none" stroke="midnightblue" d="M43.5355,-205.07C53.7878,-230.375 75.1502,-274.886 107,-301 111.314,-304.537 116.083,-307.678 121.087,-310.465"/>
<polygon fill="midnightblue" stroke="midnightblue" points="46.7061,-203.566 39.8237,-195.511 40.1808,-206.1 46.7061,-203.566"/>
</g>
<!-- Node5 -->
<g id="node5" class="node"><title>Node5</title>
<g id="a_node5"><a xlink:href="../../d7/d2c/classmarian_1_1EncoderDecoder.html#aa2e6bff207c6bc17206115ff44a22fe5" target="_top" xlink:title="marian::EncoderDecoder\l\&lt; MultiEncoderS2S, MultiDecoder\lS2S \&gt;::collectStats">
<polygon fill="white" stroke="black" points="107,-250.5 107,-291.5 272,-291.5 272,-250.5 107,-250.5"/>
<text text-anchor="start" x="115" y="-279.5" font-family="Helvetica,sans-Serif" font-size="10.00">marian::EncoderDecoder</text>
<text text-anchor="start" x="115" y="-268.5" font-family="Helvetica,sans-Serif" font-size="10.00">&lt; MultiEncoderS2S, MultiDecoder</text>
<text text-anchor="middle" x="189.5" y="-257.5" font-family="Helvetica,sans-Serif" font-size="10.00">S2S &gt;::collectStats</text>
</a>
</g>
</g>
<!-- Node1&#45;&gt;Node5 -->
<g id="edge4" class="edge"><title>Node1&#45;&gt;Node5</title>
<path fill="none" stroke="midnightblue" d="M54.4037,-202.522C68.0309,-214.437 87.6766,-230.252 107,-241 113.061,-244.371 119.575,-247.5 126.184,-250.364"/>
<polygon fill="midnightblue" stroke="midnightblue" points="56.5425,-199.739 46.7533,-195.687 51.8787,-204.959 56.5425,-199.739"/>
</g>
<!-- Node6 -->
<g id="node6" class="node"><title>Node6</title>
<g id="a_node6"><a xlink:href="../../d7/d2c/classmarian_1_1EncoderDecoder.html#a3a4c9f318d7d21fc4b9eead88a09798b" target="_top" xlink:title="marian::EncoderDecoder\l\&lt; MultiEncoderS2S, MultiDecoder\lS2S \&gt;::buildToScore">
<polygon fill="white" stroke="black" points="107,-190.5 107,-231.5 272,-231.5 272,-190.5 107,-190.5"/>
<text text-anchor="start" x="115" y="-219.5" font-family="Helvetica,sans-Serif" font-size="10.00">marian::EncoderDecoder</text>
<text text-anchor="start" x="115" y="-208.5" font-family="Helvetica,sans-Serif" font-size="10.00">&lt; MultiEncoderS2S, MultiDecoder</text>
<text text-anchor="middle" x="189.5" y="-197.5" font-family="Helvetica,sans-Serif" font-size="10.00">S2S &gt;::buildToScore</text>
</a>
</g>
</g>
<!-- Node1&#45;&gt;Node6 -->
<g id="edge5" class="edge"><title>Node1&#45;&gt;Node6</title>
<path fill="none" stroke="midnightblue" d="M81.2711,-193.364C89.355,-194.693 98.0096,-196.117 106.766,-197.557"/>
<polygon fill="midnightblue" stroke="midnightblue" points="81.8074,-189.905 71.3719,-191.736 80.6712,-196.812 81.8074,-189.905"/>
</g>
<!-- Node7 -->
<g id="node7" class="node"><title>Node7</title>
<g id="a_node7"><a xlink:href="../../da/d22/namespacemarian.html#ae5810f27b42d7d5f9b83ae23ddf544f2" target="_top" xlink:title="marian::tanh">
<polygon fill="white" stroke="black" points="154,-152.5 154,-171.5 225,-171.5 225,-152.5 154,-152.5"/>
<text text-anchor="middle" x="189.5" y="-159.5" font-family="Helvetica,sans-Serif" font-size="10.00">marian::tanh</text>
</a>
</g>
</g>
<!-- Node1&#45;&gt;Node7 -->
<g id="edge6" class="edge"><title>Node1&#45;&gt;Node7</title>
<path fill="none" stroke="midnightblue" d="M81.3086,-178.925C104.463,-175.269 132.292,-170.875 153.79,-167.48"/>
<polygon fill="midnightblue" stroke="midnightblue" points="80.7036,-175.477 71.3719,-180.494 81.7954,-182.391 80.7036,-175.477"/>
</g>
<!-- Node8 -->
<g id="node8" class="node"><title>Node8</title>
<g id="a_node8"><a xlink:href="../../da/d22/namespacemarian.html#aa26f29df56274ac4295192e4b43c8fac" target="_top" xlink:title="marian::MeanInTime">
<polygon fill="white" stroke="black" points="136.5,-114.5 136.5,-133.5 242.5,-133.5 242.5,-114.5 136.5,-114.5"/>
<text text-anchor="middle" x="189.5" y="-121.5" font-family="Helvetica,sans-Serif" font-size="10.00">marian::MeanInTime</text>
</a>
</g>
</g>
<!-- Node1&#45;&gt;Node8 -->
<g id="edge7" class="edge"><title>Node1&#45;&gt;Node8</title>
<path fill="none" stroke="midnightblue" d="M57.8855,-170.473C71.3919,-161.311 89.5348,-150.146 107,-143 116.278,-139.204 126.476,-136.074 136.423,-133.527"/>
<polygon fill="midnightblue" stroke="midnightblue" points="55.5478,-167.836 49.3408,-176.422 59.5475,-173.581 55.5478,-167.836"/>
</g>
<!-- Node9 -->
<g id="node9" class="node"><title>Node9</title>
<g id="a_node9"><a xlink:href="../../da/d22/namespacemarian.html#ae5b4088136fa6f7ebc01aed5a2d65c5c" target="_top" xlink:title="marian::ConvolutionInTime">
<polygon fill="white" stroke="black" points="122.5,-76.5 122.5,-95.5 256.5,-95.5 256.5,-76.5 122.5,-76.5"/>
<text text-anchor="middle" x="189.5" y="-83.5" font-family="Helvetica,sans-Serif" font-size="10.00">marian::ConvolutionInTime</text>
</a>
</g>
</g>
<!-- Node1&#45;&gt;Node9 -->
<g id="edge8" class="edge"><title>Node1&#45;&gt;Node9</title>
<path fill="none" stroke="midnightblue" d="M47.4476,-167.743C59.6234,-149.063 81.0379,-120.627 107,-105 113.473,-101.104 120.679,-98.0068 128.053,-95.5446"/>
<polygon fill="midnightblue" stroke="midnightblue" points="44.4484,-165.938 42.0901,-176.267 50.3749,-169.663 44.4484,-165.938"/>
</g>
<!-- Node11 -->
<g id="node11" class="node"><title>Node11</title>
<g id="a_node11"><a xlink:href="../../de/d60/rnn_8h.html#a6f2f21bd7c93596375b78161b0ff7fae" target="_top" xlink:title="YAML_REGISTER_TYPE">
<polygon fill="white" stroke="black" points="123.5,-38.5 123.5,-57.5 255.5,-57.5 255.5,-38.5 123.5,-38.5"/>
<text text-anchor="middle" x="189.5" y="-45.5" font-family="Helvetica,sans-Serif" font-size="10.00">YAML_REGISTER_TYPE</text>
</a>
</g>
</g>
<!-- Node1&#45;&gt;Node11 -->
<g id="edge10" class="edge"><title>Node1&#45;&gt;Node11</title>
<path fill="none" stroke="midnightblue" d="M42.6178,-166.42C52.0149,-139.683 72.6144,-92.2028 107,-67 112.273,-63.135 118.211,-60.0418 124.416,-57.5683"/>
<polygon fill="midnightblue" stroke="midnightblue" points="39.2073,-165.583 39.3649,-176.177 45.848,-167.797 39.2073,-165.583"/>
</g>
<!-- Node12 -->
<g id="node12" class="node"><title>Node12</title>
<g id="a_node12"><a xlink:href="../../dd/dbc/classmarian_1_1Scorer.html#af4fc7bb72abdd1a19a9d22a6202a41cd" target="_top" xlink:title="marian::Scorer::getWeight">
<polygon fill="white" stroke="black" points="124,-0.5 124,-19.5 255,-19.5 255,-0.5 124,-0.5"/>
<text text-anchor="middle" x="189.5" y="-7.5" font-family="Helvetica,sans-Serif" font-size="10.00">marian::Scorer::getWeight</text>
</a>
</g>
</g>
<!-- Node1&#45;&gt;Node12 -->
<g id="edge11" class="edge"><title>Node1&#45;&gt;Node12</title>
<path fill="none" stroke="midnightblue" d="M39.5341,-166.57C45.8164,-133.127 63.4826,-64.8352 107,-29 112.047,-24.844 117.838,-21.562 123.955,-18.9751"/>
<polygon fill="midnightblue" stroke="midnightblue" points="36.076,-166.027 37.8191,-176.478 42.9734,-167.221 36.076,-166.027"/>
</g>
<!-- Node10 -->
<g id="node10" class="node"><title>Node10</title>
<g id="a_node10"><a xlink:href="../../dd/d8d/classmarian_1_1EncoderPooling.html#a676142ec672b7e9e84d8dc539039c57a" target="_top" xlink:title="marian::EncoderPooling\l::build">
<polygon fill="white" stroke="black" points="308,-71 308,-101 428,-101 428,-71 308,-71"/>
<text text-anchor="start" x="316" y="-89" font-family="Helvetica,sans-Serif" font-size="10.00">marian::EncoderPooling</text>
<text text-anchor="middle" x="368" y="-78" font-family="Helvetica,sans-Serif" font-size="10.00">::build</text>
</a>
</g>
</g>
<!-- Node9&#45;&gt;Node10 -->
<g id="edge9" class="edge"><title>Node9&#45;&gt;Node10</title>
<path fill="none" stroke="midnightblue" d="M267.096,-86C280.785,-86 294.854,-86 307.956,-86"/>
<polygon fill="midnightblue" stroke="midnightblue" points="266.724,-82.5001 256.724,-86 266.724,-89.5001 266.724,-82.5001"/>
</g>
</g>
</svg>
        <g id="navigator" transform="translate(0 0)" fill="#404254">
                <rect fill="#f2f5e9" fill-opacity="0.5" stroke="#606060" stroke-width=".5" x="0" y="0" width="60" height="60"/>
                <use id="zoomplus" xlink:href="#zoomPlus" x="17" y="9" onmousedown="handleZoom(evt,'in')"/>
                <use id="zoomminus" xlink:href="#zoomMin" x="42" y="9" onmousedown="handleZoom(evt,'out')"/>
                <use id="reset" xlink:href="#resetDef" x="30" y="36" onmousedown="handleReset()"/>
                <g id="arrowUp" xlink:href="#dirArrow" transform="translate(30 24)" onmousedown="handlePan(0,-1)">
                  <use xlink:href="#rim" fill="#404040">
                        <set attributeName="fill" to="#808080" begin="arrowUp.mouseover" end="arrowUp.mouseout"/>
                  </use>
                  <path fill="none" stroke="white" stroke-width="1.5" d="M0,-3.0v7 M-2.5,-0.5L0,-3.0L2.5,-0.5"/>
                </g>
                <g id="arrowRight" xlink:href="#dirArrow" transform="rotate(90) translate(36 -43)" onmousedown="handlePan(1,0)">
                  <use xlink:href="#rim" fill="#404040">
                        <set attributeName="fill" to="#808080" begin="arrowRight.mouseover" end="arrowRight.mouseout"/>
                  </use>
                  <path fill="none" stroke="white" stroke-width="1.5" d="M0,-3.0v7 M-2.5,-0.5L0,-3.0L2.5,-0.5"/>
                </g>
                <g id="arrowDown" xlink:href="#dirArrow" transform="rotate(180) translate(-30 -48)" onmousedown="handlePan(0,1)">
                  <use xlink:href="#rim" fill="#404040">
                        <set attributeName="fill" to="#808080" begin="arrowDown.mouseover" end="arrowDown.mouseout"/>
                  </use>
                  <path fill="none" stroke="white" stroke-width="1.5" d="M0,-3.0v7 M-2.5,-0.5L0,-3.0L2.5,-0.5"/>
                </g>
                <g id="arrowLeft" xlink:href="#dirArrow" transform="rotate(270) translate(-36 17)" onmousedown="handlePan(-1,0)">
                  <use xlink:href="#rim" fill="#404040">
                        <set attributeName="fill" to="#808080" begin="arrowLeft.mouseover" end="arrowLeft.mouseout"/>
                  </use>
                  <path fill="none" stroke="white" stroke-width="1.5" d="M0,-3.0v7 M-2.5,-0.5L0,-3.0L2.5,-0.5"/>
                </g>
        </g>
        <svg viewBox="0 0 15 15" width="100%" height="30px" preserveAspectRatio="xMaxYMin meet">
         <g id="arrow_out" transform="scale(0.3 0.3)">
          <a xlink:href="namespacemarian_a2e7193e67292a4c3347f296f5e669581_icgraph_org.svg" target="_base">
           <rect id="button" ry="5" rx="5" y="6" x="6" height="38" width="38"
                fill="#f2f5e9" fill-opacity="0.5" stroke="#606060" stroke-width="1.0"/>
           <path id="arrow"
             d="M 11.500037,31.436501 C 11.940474,20.09759 22.043105,11.32322 32.158766,21.979434 L 37.068811,17.246167 C 37.068811,17.246167 37.088388,32 37.088388,32 L 22.160133,31.978069 C 22.160133,31.978069 26.997745,27.140456 26.997745,27.140456 C 18.528582,18.264221 13.291696,25.230495 11.500037,31.436501 z"
             style="fill:#404040;"/>
          </a>
         </g>
        </svg>
</svg>
