<?xml version="1.0" encoding="UTF-8" standalone="no"?>
<!DOCTYPE svg PUBLIC "-//W3C//DTD SVG 1.1//EN"
 "http://www.w3.org/Graphics/SVG/1.1/DTD/svg11.dtd">
<!-- Generated by graphviz version 2.38.0 (20140413.2041)
 -->
<!-- Title: marian::concatenate Pages: 1 -->
<svg width="497pt" height="1064pt"
 viewBox="0.00 0.00 497.00 1064.00" xmlns="http://www.w3.org/2000/svg" xmlns:xlink="http://www.w3.org/1999/xlink">
<g id="graph0" class="graph" transform="scale(1 1) rotate(0) translate(4 1060)">
<title>marian::concatenate</title>
<polygon fill="white" stroke="none" points="-4,4 -4,-1060 493,-1060 493,4 -4,4"/>
<!-- Node1 -->
<g id="node1" class="node"><title>Node1</title>
<polygon fill="#bfbfbf" stroke="black" points="0,-513 0,-532 105,-532 105,-513 0,-513"/>
<text text-anchor="middle" x="52.5" y="-520" font-family="Helvetica,sans-Serif" font-size="10.00">marian::concatenate</text>
</g>
<!-- Node2 -->
<g id="node2" class="node"><title>Node2</title>
<g id="a_node2"><a xlink:href="../../d7/db4/classmarian_1_1rnn_1_1GlobalAttention.html#ad518e4c82f56b8f95393dffa2df2288b" target="_top" xlink:title="marian::rnn::GlobalAttention\l::getContext">
<polygon fill="white" stroke="black" points="158,-927.5 158,-957.5 296,-957.5 296,-927.5 158,-927.5"/>
<text text-anchor="start" x="166" y="-945.5" font-family="Helvetica,sans-Serif" font-size="10.00">marian::rnn::GlobalAttention</text>
<text text-anchor="middle" x="227" y="-934.5" font-family="Helvetica,sans-Serif" font-size="10.00">::getContext</text>
</a>
</g>
</g>
<!-- Node1&#45;&gt;Node2 -->
<g id="edge1" class="edge"><title>Node1&#45;&gt;Node2</title>
<path fill="none" stroke="midnightblue" d="M55.6401,-542.107C63.6248,-612.088 93.6692,-848.435 141,-905.5 148.809,-914.915 159.473,-922.001 170.608,-927.31"/>
<polygon fill="midnightblue" stroke="midnightblue" points="59.1025,-541.575 54.5125,-532.026 52.1459,-542.353 59.1025,-541.575"/>
</g>
<!-- Node3 -->
<g id="node3" class="node"><title>Node3</title>
<g id="a_node3"><a xlink:href="../../de/d21/classmarian_1_1DecoderHardSoftAtt.html#aa3331fae45271298ce86ad6f6a5c9cf5" target="_top" xlink:title="marian::DecoderHardSoftAtt\l::step">
<polygon fill="white" stroke="black" points="349,-1025.5 349,-1055.5 489,-1055.5 489,-1025.5 349,-1025.5"/>
<text text-anchor="start" x="357" y="-1043.5" font-family="Helvetica,sans-Serif" font-size="10.00">marian::DecoderHardSoftAtt</text>
<text text-anchor="middle" x="419" y="-1032.5" font-family="Helvetica,sans-Serif" font-size="10.00">::step</text>
</a>
</g>
</g>
<!-- Node1&#45;&gt;Node3 -->
<g id="edge22" class="edge"><title>Node1&#45;&gt;Node3</title>
<path fill="none" stroke="midnightblue" d="M54.1106,-542.197C57.0828,-624.35 72.8115,-938.454 141,-1003.5 195.678,-1055.66 286.355,-1058.05 348.989,-1051.92"/>
<polygon fill="midnightblue" stroke="midnightblue" points="57.6084,-542.07 53.7717,-532.194 50.6124,-542.307 57.6084,-542.07"/>
</g>
<!-- Node4 -->
<g id="node4" class="node"><title>Node4</title>
<g id="a_node4"><a xlink:href="../../d7/d30/classmarian_1_1MultiDecoderHardSoftAtt.html#a9dc01206082f6b287300c2ee6460d3ba" target="_top" xlink:title="marian::MultiDecoderHard\lSoftAtt::step">
<polygon fill="white" stroke="black" points="353.5,-976.5 353.5,-1006.5 484.5,-1006.5 484.5,-976.5 353.5,-976.5"/>
<text text-anchor="start" x="361.5" y="-994.5" font-family="Helvetica,sans-Serif" font-size="10.00">marian::MultiDecoderHard</text>
<text text-anchor="middle" x="419" y="-983.5" font-family="Helvetica,sans-Serif" font-size="10.00">SoftAtt::step</text>
</a>
</g>
</g>
<!-- Node1&#45;&gt;Node4 -->
<g id="edge23" class="edge"><title>Node1&#45;&gt;Node4</title>
<path fill="none" stroke="midnightblue" d="M54.3469,-542.294C58.1448,-620.89 76.3593,-909.473 141,-967.5 198.113,-1018.77 291.136,-1015.61 353.43,-1005.86"/>
<polygon fill="midnightblue" stroke="midnightblue" points="57.8419,-542.104 53.8874,-532.274 50.8493,-542.424 57.8419,-542.104"/>
</g>
<!-- Node5 -->
<g id="node5" class="node"><title>Node5</title>
<g id="a_node5"><a xlink:href="../../d3/d3b/classmarian_1_1MultiDecoderS2S.html#a6f0421ce42840c6198f3d450b3d55bfb" target="_top" xlink:title="marian::MultiDecoderS2S\l::step">
<polygon fill="white" stroke="black" points="355,-878.5 355,-908.5 483,-908.5 483,-878.5 355,-878.5"/>
<text text-anchor="start" x="363" y="-896.5" font-family="Helvetica,sans-Serif" font-size="10.00">marian::MultiDecoderS2S</text>
<text text-anchor="middle" x="419" y="-885.5" font-family="Helvetica,sans-Serif" font-size="10.00">::step</text>
</a>
</g>
</g>
<!-- Node1&#45;&gt;Node5 -->
<g id="edge24" class="edge"><title>Node1&#45;&gt;Node5</title>
<path fill="none" stroke="midnightblue" d="M55.4981,-542.079C62.7381,-608.868 89.9002,-826.011 141,-869.5 199.724,-919.477 293.023,-916.426 354.878,-907.067"/>
<polygon fill="midnightblue" stroke="midnightblue" points="58.971,-541.637 54.4408,-532.06 52.0097,-542.372 58.971,-541.637"/>
</g>
<!-- Node7 -->
<g id="node7" class="node"><title>Node7</title>
<g id="a_node7"><a xlink:href="../../d0/d1d/classmarian_1_1rnn_1_1Tanh.html#a27567fac50eea00c776cc76d6f9351df" target="_top" xlink:title="marian::rnn::Tanh::\lapplyInput">
<polygon fill="white" stroke="black" points="177.5,-829.5 177.5,-859.5 276.5,-859.5 276.5,-829.5 177.5,-829.5"/>
<text text-anchor="start" x="185.5" y="-847.5" font-family="Helvetica,sans-Serif" font-size="10.00">marian::rnn::Tanh::</text>
<text text-anchor="middle" x="227" y="-836.5" font-family="Helvetica,sans-Serif" font-size="10.00">applyInput</text>
</a>
</g>
</g>
<!-- Node1&#45;&gt;Node7 -->
<g id="edge6" class="edge"><title>Node1&#45;&gt;Node7</title>
<path fill="none" stroke="midnightblue" d="M53.2385,-542.11C53.6399,-594.793 62.192,-740.728 141,-819.5 150.791,-829.287 164.204,-835.282 177.481,-838.942"/>
<polygon fill="midnightblue" stroke="midnightblue" points="56.7385,-542.089 53.2573,-532.083 49.7385,-542.076 56.7385,-542.089"/>
</g>
<!-- Node13 -->
<g id="node13" class="node"><title>Node13</title>
<g id="a_node13"><a xlink:href="../../d7/d03/classmarian_1_1rnn_1_1GRU.html#a3f47434b08986222608a2a31f776c334" target="_top" xlink:title="marian::rnn::GRU::GRU">
<polygon fill="white" stroke="black" points="166,-791 166,-810 288,-810 288,-791 166,-791"/>
<text text-anchor="middle" x="227" y="-798" font-family="Helvetica,sans-Serif" font-size="10.00">marian::rnn::GRU::GRU</text>
</a>
</g>
</g>
<!-- Node1&#45;&gt;Node13 -->
<g id="edge12" class="edge"><title>Node1&#45;&gt;Node13</title>
<path fill="none" stroke="midnightblue" d="M53.9486,-542.107C56.1734,-590.563 68.9616,-716.712 141,-781.5 148.083,-787.87 156.828,-792.256 165.987,-795.248"/>
<polygon fill="midnightblue" stroke="midnightblue" points="57.4433,-541.893 53.5921,-532.023 50.4477,-542.141 57.4433,-541.893"/>
</g>
<!-- Node14 -->
<g id="node14" class="node"><title>Node14</title>
<g id="a_node14"><a xlink:href="../../d7/d03/classmarian_1_1rnn_1_1GRU.html#a1e68f7a3e40ee5fefa954096e3eb2bdc" target="_top" xlink:title="marian::rnn::GRU::applyInput">
<polygon fill="white" stroke="black" points="154.5,-753 154.5,-772 299.5,-772 299.5,-753 154.5,-753"/>
<text text-anchor="middle" x="227" y="-760" font-family="Helvetica,sans-Serif" font-size="10.00">marian::rnn::GRU::applyInput</text>
</a>
</g>
</g>
<!-- Node1&#45;&gt;Node14 -->
<g id="edge13" class="edge"><title>Node1&#45;&gt;Node14</title>
<path fill="none" stroke="midnightblue" d="M55.2798,-542.427C60.2835,-586 78.4937,-690.114 141,-743.5 145.484,-747.33 150.575,-750.434 155.983,-752.944"/>
<polygon fill="midnightblue" stroke="midnightblue" points="58.7403,-541.863 54.2326,-532.275 51.7773,-542.582 58.7403,-541.863"/>
</g>
<!-- Node15 -->
<g id="node15" class="node"><title>Node15</title>
<g id="a_node15"><a xlink:href="../../db/df5/classmarian_1_1rnn_1_1FastLSTM.html#ab6b81e03d65d3f49f345ddf14a379b38" target="_top" xlink:title="marian::rnn::FastLSTM\l::applyInput">
<polygon fill="white" stroke="black" points="168.5,-703.5 168.5,-733.5 285.5,-733.5 285.5,-703.5 168.5,-703.5"/>
<text text-anchor="start" x="176.5" y="-721.5" font-family="Helvetica,sans-Serif" font-size="10.00">marian::rnn::FastLSTM</text>
<text text-anchor="middle" x="227" y="-710.5" font-family="Helvetica,sans-Serif" font-size="10.00">::applyInput</text>
</a>
</g>
</g>
<!-- Node1&#45;&gt;Node15 -->
<g id="edge14" class="edge"><title>Node1&#45;&gt;Node15</title>
<path fill="none" stroke="midnightblue" d="M57.9525,-542.112C67.1074,-577.893 91.4767,-653.818 141,-694.5 148.939,-701.021 158.544,-705.773 168.4,-709.235"/>
<polygon fill="midnightblue" stroke="midnightblue" points="61.259,-540.895 55.5021,-532.001 54.4559,-542.544 61.259,-540.895"/>
</g>
<!-- Node16 -->
<g id="node16" class="node"><title>Node16</title>
<g id="a_node16"><a xlink:href="../../de/da0/classmarian_1_1rnn_1_1Multiplicative.html#a8d4602eb7c00be9413f304824661138c" target="_top" xlink:title="marian::rnn::Multiplicative\l::applyInput">
<polygon fill="white" stroke="black" points="163,-654.5 163,-684.5 291,-684.5 291,-654.5 163,-654.5"/>
<text text-anchor="start" x="171" y="-672.5" font-family="Helvetica,sans-Serif" font-size="10.00">marian::rnn::Multiplicative</text>
<text text-anchor="middle" x="227" y="-661.5" font-family="Helvetica,sans-Serif" font-size="10.00">::applyInput</text>
</a>
</g>
</g>
<!-- Node1&#45;&gt;Node16 -->
<g id="edge15" class="edge"><title>Node1&#45;&gt;Node16</title>
<path fill="none" stroke="midnightblue" d="M61.8602,-541.399C74.8451,-568.556 102.439,-618.329 141,-645.5 147.643,-650.181 155.179,-653.953 162.953,-656.991"/>
<polygon fill="midnightblue" stroke="midnightblue" points="64.9782,-539.803 57.6065,-532.193 58.6236,-542.739 64.9782,-539.803"/>
</g>
<!-- Node17 -->
<g id="node17" class="node"><title>Node17</title>
<g id="a_node17"><a xlink:href="../../db/ddd/classmarian_1_1rnn_1_1SlowLSTM.html#a769b9436d2c615073b0e6f3482dd953b" target="_top" xlink:title="marian::rnn::SlowLSTM\l::applyInput">
<polygon fill="white" stroke="black" points="167.5,-605.5 167.5,-635.5 286.5,-635.5 286.5,-605.5 167.5,-605.5"/>
<text text-anchor="start" x="175.5" y="-623.5" font-family="Helvetica,sans-Serif" font-size="10.00">marian::rnn::SlowLSTM</text>
<text text-anchor="middle" x="227" y="-612.5" font-family="Helvetica,sans-Serif" font-size="10.00">::applyInput</text>
</a>
</g>
</g>
<!-- Node1&#45;&gt;Node17 -->
<g id="edge16" class="edge"><title>Node1&#45;&gt;Node17</title>
<path fill="none" stroke="midnightblue" d="M69.3757,-539.66C85.7926,-556.437 112.92,-581.573 141,-596.5 149.124,-600.819 158.109,-604.431 167.105,-607.431"/>
<polygon fill="midnightblue" stroke="midnightblue" points="71.6606,-536.985 62.2197,-532.177 66.6016,-541.823 71.6606,-536.985"/>
</g>
<!-- Node18 -->
<g id="node18" class="node"><title>Node18</title>
<g id="a_node18"><a xlink:href="../../d7/d30/classmarian_1_1rnn_1_1TestLSTM.html#afd996ed5e9ee36a15247187e3f67fd78" target="_top" xlink:title="marian::rnn::TestLSTM\l::TestLSTM">
<polygon fill="white" stroke="black" points="168.5,-556.5 168.5,-586.5 285.5,-586.5 285.5,-556.5 168.5,-556.5"/>
<text text-anchor="start" x="176.5" y="-574.5" font-family="Helvetica,sans-Serif" font-size="10.00">marian::rnn::TestLSTM</text>
<text text-anchor="middle" x="227" y="-563.5" font-family="Helvetica,sans-Serif" font-size="10.00">::TestLSTM</text>
</a>
</g>
</g>
<!-- Node1&#45;&gt;Node18 -->
<g id="edge17" class="edge"><title>Node1&#45;&gt;Node18</title>
<path fill="none" stroke="midnightblue" d="M96.6835,-534.867C110.806,-538.904 126.569,-543.401 141,-547.5 151.178,-550.391 162.044,-553.467 172.488,-556.418"/>
<polygon fill="midnightblue" stroke="midnightblue" points="97.3098,-531.406 86.7329,-532.021 95.3852,-538.136 97.3098,-531.406"/>
</g>
<!-- Node19 -->
<g id="node19" class="node"><title>Node19</title>
<g id="a_node19"><a xlink:href="../../d7/d30/classmarian_1_1rnn_1_1TestLSTM.html#ac09c1e1826106361719f05b47ed5fb9f" target="_top" xlink:title="marian::rnn::TestLSTM\l::applyInput">
<polygon fill="white" stroke="black" points="168.5,-507.5 168.5,-537.5 285.5,-537.5 285.5,-507.5 168.5,-507.5"/>
<text text-anchor="start" x="176.5" y="-525.5" font-family="Helvetica,sans-Serif" font-size="10.00">marian::rnn::TestLSTM</text>
<text text-anchor="middle" x="227" y="-514.5" font-family="Helvetica,sans-Serif" font-size="10.00">::applyInput</text>
</a>
</g>
</g>
<!-- Node1&#45;&gt;Node19 -->
<g id="edge18" class="edge"><title>Node1&#45;&gt;Node19</title>
<path fill="none" stroke="midnightblue" d="M115.721,-522.5C132.859,-522.5 151.372,-522.5 168.245,-522.5"/>
<polygon fill="midnightblue" stroke="midnightblue" points="115.256,-519 105.256,-522.5 115.256,-526 115.256,-519"/>
</g>
<!-- Node20 -->
<g id="node20" class="node"><title>Node20</title>
<g id="a_node20"><a xlink:href="../../d7/d2c/classmarian_1_1EncoderDecoder.html#a859d35d8ad42e6de1f8a55d5efa9b998" target="_top" xlink:title="marian::EncoderDecoder\l\&lt; MultiEncoderS2S, MultiDecoder\lS2S \&gt;::build">
<polygon fill="white" stroke="black" points="144.5,-448 144.5,-489 309.5,-489 309.5,-448 144.5,-448"/>
<text text-anchor="start" x="152.5" y="-477" font-family="Helvetica,sans-Serif" font-size="10.00">marian::EncoderDecoder</text>
<text text-anchor="start" x="152.5" y="-466" font-family="Helvetica,sans-Serif" font-size="10.00">&lt; MultiEncoderS2S, MultiDecoder</text>
<text text-anchor="middle" x="227" y="-455" font-family="Helvetica,sans-Serif" font-size="10.00">S2S &gt;::build</text>
</a>
</g>
</g>
<!-- Node1&#45;&gt;Node20 -->
<g id="edge19" class="edge"><title>Node1&#45;&gt;Node20</title>
<path fill="none" stroke="midnightblue" d="M93.588,-509.951C113.465,-503.728 137.979,-496.054 160.49,-489.007"/>
<polygon fill="midnightblue" stroke="midnightblue" points="92.4401,-506.642 83.9425,-512.97 94.5314,-513.323 92.4401,-506.642"/>
</g>
<!-- Node21 -->
<g id="node21" class="node"><title>Node21</title>
<g id="a_node21"><a xlink:href="../../da/d22/namespacemarian.html#ae5810f27b42d7d5f9b83ae23ddf544f2" target="_top" xlink:title="marian::tanh">
<polygon fill="white" stroke="black" points="191.5,-410 191.5,-429 262.5,-429 262.5,-410 191.5,-410"/>
<text text-anchor="middle" x="227" y="-417" font-family="Helvetica,sans-Serif" font-size="10.00">marian::tanh</text>
</a>
</g>
</g>
<!-- Node1&#45;&gt;Node21 -->
<g id="edge20" class="edge"><title>Node1&#45;&gt;Node21</title>
<path fill="none" stroke="midnightblue" d="M66.7778,-504.956C82.3842,-485.623 110.105,-455.077 141,-438.5 156.456,-430.207 175.358,-425.528 191.409,-422.891"/>
<polygon fill="midnightblue" stroke="midnightblue" points="63.9163,-502.933 60.4918,-512.959 69.4212,-507.257 63.9163,-502.933"/>
</g>
<!-- Node22 -->
<g id="node22" class="node"><title>Node22</title>
<g id="a_node22"><a xlink:href="../../d1/dcc/classmarian_1_1DecoderHardAtt.html#ab938d5649fc73437fa39a462330245bf" target="_top" xlink:title="marian::DecoderHardAtt\l::step">
<polygon fill="white" stroke="black" points="166,-360.5 166,-390.5 288,-390.5 288,-360.5 166,-360.5"/>
<text text-anchor="start" x="174" y="-378.5" font-family="Helvetica,sans-Serif" font-size="10.00">marian::DecoderHardAtt</text>
<text text-anchor="middle" x="227" y="-367.5" font-family="Helvetica,sans-Serif" font-size="10.00">::step</text>
</a>
</g>
</g>
<!-- Node1&#45;&gt;Node22 -->
<g id="edge21" class="edge"><title>Node1&#45;&gt;Node22</title>
<path fill="none" stroke="midnightblue" d="M61.9403,-503.809C75.0249,-476.942 102.742,-427.659 141,-400.5 148.4,-395.247 156.904,-391.087 165.61,-387.796"/>
<polygon fill="midnightblue" stroke="midnightblue" points="58.7457,-502.378 57.6504,-512.916 65.0783,-505.361 58.7457,-502.378"/>
</g>
<!-- Node23 -->
<g id="node23" class="node"><title>Node23</title>
<g id="a_node23"><a xlink:href="../../da/d22/namespacemarian.html#aa26f29df56274ac4295192e4b43c8fac" target="_top" xlink:title="marian::MeanInTime">
<polygon fill="white" stroke="black" points="174,-322 174,-341 280,-341 280,-322 174,-322"/>
<text text-anchor="middle" x="227" y="-329" font-family="Helvetica,sans-Serif" font-size="10.00">marian::MeanInTime</text>
</a>
</g>
</g>
<!-- Node1&#45;&gt;Node23 -->
<g id="edge25" class="edge"><title>Node1&#45;&gt;Node23</title>
<path fill="none" stroke="midnightblue" d="M57.8186,-502.79C66.7542,-466.869 90.778,-390.838 141,-351.5 150.428,-344.115 162.132,-339.383 173.809,-336.371"/>
<polygon fill="midnightblue" stroke="midnightblue" points="54.3126,-502.41 55.4335,-512.945 61.1272,-504.011 54.3126,-502.41"/>
</g>
<!-- Node24 -->
<g id="node24" class="node"><title>Node24</title>
<g id="a_node24"><a xlink:href="../../da/d22/namespacemarian.html#ae5b4088136fa6f7ebc01aed5a2d65c5c" target="_top" xlink:title="marian::ConvolutionInTime">
<polygon fill="white" stroke="black" points="160,-284 160,-303 294,-303 294,-284 160,-284"/>
<text text-anchor="middle" x="227" y="-291" font-family="Helvetica,sans-Serif" font-size="10.00">marian::ConvolutionInTime</text>
</a>
</g>
</g>
<!-- Node1&#45;&gt;Node24 -->
<g id="edge26" class="edge"><title>Node1&#45;&gt;Node24</title>
<path fill="none" stroke="midnightblue" d="M55.7249,-502.696C61.5355,-460.757 81.1268,-362.722 141,-312.5 146.561,-307.836 153.025,-304.252 159.857,-301.509"/>
<polygon fill="midnightblue" stroke="midnightblue" points="52.2375,-502.377 54.4538,-512.737 59.1821,-503.256 52.2375,-502.377"/>
</g>
<!-- Node26 -->
<g id="node26" class="node"><title>Node26</title>
<g id="a_node26"><a xlink:href="../../de/d60/rnn_8h.html#a6f2f21bd7c93596375b78161b0ff7fae" target="_top" xlink:title="YAML_REGISTER_TYPE">
<polygon fill="white" stroke="black" points="161,-246 161,-265 293,-265 293,-246 161,-246"/>
<text text-anchor="middle" x="227" y="-253" font-family="Helvetica,sans-Serif" font-size="10.00">YAML_REGISTER_TYPE</text>
</a>
</g>
</g>
<!-- Node1&#45;&gt;Node26 -->
<g id="edge28" class="edge"><title>Node1&#45;&gt;Node26</title>
<path fill="none" stroke="midnightblue" d="M54.2937,-502.769C57.3057,-455.654 71.7484,-335.948 141,-274.5 146.768,-269.382 153.612,-265.549 160.873,-262.692"/>
<polygon fill="midnightblue" stroke="midnightblue" points="50.7926,-502.698 53.7574,-512.87 57.7828,-503.069 50.7926,-502.698"/>
</g>
<!-- Node27 -->
<g id="node27" class="node"><title>Node27</title>
<g id="a_node27"><a xlink:href="../../d3/dbc/classmarian_1_1EncoderS2S.html#a4c184957715cc7cfa910be04396b3f01" target="_top" xlink:title="marian::EncoderS2S\l::applyEncoderRNN">
<polygon fill="white" stroke="black" points="173.5,-196.5 173.5,-226.5 280.5,-226.5 280.5,-196.5 173.5,-196.5"/>
<text text-anchor="start" x="181.5" y="-214.5" font-family="Helvetica,sans-Serif" font-size="10.00">marian::EncoderS2S</text>
<text text-anchor="middle" x="227" y="-203.5" font-family="Helvetica,sans-Serif" font-size="10.00">::applyEncoderRNN</text>
</a>
</g>
</g>
<!-- Node1&#45;&gt;Node27 -->
<g id="edge29" class="edge"><title>Node1&#45;&gt;Node27</title>
<path fill="none" stroke="midnightblue" d="M53.5008,-502.933C54.598,-451.604 64.8112,-311.867 141,-236.5 149.748,-227.846 161.33,-222.159 173.119,-218.431"/>
<polygon fill="midnightblue" stroke="midnightblue" points="50.0004,-502.955 53.3837,-512.995 56.9999,-503.037 50.0004,-502.955"/>
</g>
<!-- Node29 -->
<g id="node29" class="node"><title>Node29</title>
<g id="a_node29"><a xlink:href="../../d5/d22/classmarian_1_1EncoderDecoderRec.html#a5d7be4c554cdd6752a8ee5964ff116c2" target="_top" xlink:title="marian::EncoderDecoderRec\l::build">
<polygon fill="white" stroke="black" points="155.5,-147.5 155.5,-177.5 298.5,-177.5 298.5,-147.5 155.5,-147.5"/>
<text text-anchor="start" x="163.5" y="-165.5" font-family="Helvetica,sans-Serif" font-size="10.00">marian::EncoderDecoderRec</text>
<text text-anchor="middle" x="227" y="-154.5" font-family="Helvetica,sans-Serif" font-size="10.00">::build</text>
</a>
</g>
</g>
<!-- Node1&#45;&gt;Node29 -->
<g id="edge31" class="edge"><title>Node1&#45;&gt;Node29</title>
<path fill="none" stroke="midnightblue" d="M56.1,-502.696C64.9842,-437.912 96.0917,-233.802 141,-187.5 145.177,-183.194 150.053,-179.619 155.32,-176.654"/>
<polygon fill="midnightblue" stroke="midnightblue" points="52.6061,-502.416 54.7419,-512.794 59.5437,-503.349 52.6061,-502.416"/>
</g>
<!-- Node30 -->
<g id="node30" class="node"><title>Node30</title>
<g id="a_node30"><a xlink:href="../../d9/d50/classmarian_1_1EncoderDecoderSymmetric.html#a82f58498cc49ba0665e0f8ef70876d65" target="_top" xlink:title="marian::EncoderDecoderSymmetric\l::build">
<polygon fill="white" stroke="black" points="141,-98.5 141,-128.5 313,-128.5 313,-98.5 141,-98.5"/>
<text text-anchor="start" x="149" y="-116.5" font-family="Helvetica,sans-Serif" font-size="10.00">marian::EncoderDecoderSymmetric</text>
<text text-anchor="middle" x="227" y="-105.5" font-family="Helvetica,sans-Serif" font-size="10.00">::build</text>
</a>
</g>
</g>
<!-- Node1&#45;&gt;Node30 -->
<g id="edge32" class="edge"><title>Node1&#45;&gt;Node30</title>
<path fill="none" stroke="midnightblue" d="M55.3966,-502.633C62.5483,-431.757 90.1,-192.659 141,-138.5 144.582,-134.689 148.711,-131.449 153.18,-128.697"/>
<polygon fill="midnightblue" stroke="midnightblue" points="51.8879,-502.551 54.3914,-512.846 58.8542,-503.237 51.8879,-502.551"/>
</g>
<!-- Node31 -->
<g id="node31" class="node"><title>Node31</title>
<g id="a_node31"><a xlink:href="../../dc/d39/classmarian_1_1rnn_1_1States.html#a616c6828055565099320924bcb77b3da" target="_top" xlink:title="marian::rnn::States\l::outputs">
<polygon fill="white" stroke="black" points="177,-49.5 177,-79.5 277,-79.5 277,-49.5 177,-49.5"/>
<text text-anchor="start" x="185" y="-67.5" font-family="Helvetica,sans-Serif" font-size="10.00">marian::rnn::States</text>
<text text-anchor="middle" x="227" y="-56.5" font-family="Helvetica,sans-Serif" font-size="10.00">::outputs</text>
</a>
</g>
</g>
<!-- Node1&#45;&gt;Node31 -->
<g id="edge33" class="edge"><title>Node1&#45;&gt;Node31</title>
<path fill="none" stroke="midnightblue" d="M54.8431,-502.618C60.4041,-426.072 84.059,-151.602 141,-89.5 150.356,-79.2961 163.639,-73.177 176.932,-69.5316"/>
<polygon fill="midnightblue" stroke="midnightblue" points="51.3383,-502.565 54.1277,-512.786 58.321,-503.057 51.3383,-502.565"/>
</g>
<!-- Node32 -->
<g id="node32" class="node"><title>Node32</title>
<g id="a_node32"><a xlink:href="../../d7/d70/classmarian_1_1rnn_1_1MultiCellInput.html#a2ac13f95a42a983a77dfa33c02b62a84" target="_top" xlink:title="marian::rnn::MultiCellInput\l::apply">
<polygon fill="white" stroke="black" points="161.5,-0.5 161.5,-30.5 292.5,-30.5 292.5,-0.5 161.5,-0.5"/>
<text text-anchor="start" x="169.5" y="-18.5" font-family="Helvetica,sans-Serif" font-size="10.00">marian::rnn::MultiCellInput</text>
<text text-anchor="middle" x="227" y="-7.5" font-family="Helvetica,sans-Serif" font-size="10.00">::apply</text>
</a>
</g>
</g>
<!-- Node1&#45;&gt;Node32 -->
<g id="edge34" class="edge"><title>Node1&#45;&gt;Node32</title>
<path fill="none" stroke="midnightblue" d="M54.4028,-502.527C58.506,-420.505 78.0065,-110.585 141,-40.5 146.553,-34.3224 153.545,-29.6386 161.122,-26.0932"/>
<polygon fill="midnightblue" stroke="midnightblue" points="50.8876,-502.764 53.9058,-512.92 57.8796,-503.098 50.8876,-502.764"/>
</g>
<!-- Node2&#45;&gt;Node3 -->
<g id="edge2" class="edge"><title>Node2&#45;&gt;Node3</title>
<path fill="none" stroke="midnightblue" d="M257.791,-963.212C281.685,-979.202 316.487,-1001.12 349,-1016.5 355.765,-1019.7 363.076,-1022.7 370.323,-1025.42"/>
<polygon fill="midnightblue" stroke="midnightblue" points="259.75,-960.312 249.505,-957.612 255.831,-966.112 259.75,-960.312"/>
</g>
<!-- Node2&#45;&gt;Node4 -->
<g id="edge3" class="edge"><title>Node2&#45;&gt;Node4</title>
<path fill="none" stroke="midnightblue" d="M296.05,-960.05C316.915,-965.431 339.67,-971.299 359.813,-976.494"/>
<polygon fill="midnightblue" stroke="midnightblue" points="296.855,-956.643 286.297,-957.535 295.107,-963.421 296.855,-956.643"/>
</g>
<!-- Node2&#45;&gt;Node5 -->
<g id="edge4" class="edge"><title>Node2&#45;&gt;Node5</title>
<path fill="none" stroke="midnightblue" d="M296.05,-924.95C316.915,-919.569 339.67,-913.701 359.813,-908.506"/>
<polygon fill="midnightblue" stroke="midnightblue" points="295.107,-921.579 286.297,-927.465 296.855,-928.357 295.107,-921.579"/>
</g>
<!-- Node6 -->
<g id="node6" class="node"><title>Node6</title>
<g id="a_node6"><a xlink:href="../../d3/d4b/classmarian_1_1DecoderS2S.html#a786a6f2e325d86a8335cc5fc25170518" target="_top" xlink:title="marian::DecoderS2S\l::step">
<polygon fill="white" stroke="black" points="365.5,-927.5 365.5,-957.5 472.5,-957.5 472.5,-927.5 365.5,-927.5"/>
<text text-anchor="start" x="373.5" y="-945.5" font-family="Helvetica,sans-Serif" font-size="10.00">marian::DecoderS2S</text>
<text text-anchor="middle" x="419" y="-934.5" font-family="Helvetica,sans-Serif" font-size="10.00">::step</text>
</a>
</g>
</g>
<!-- Node2&#45;&gt;Node6 -->
<g id="edge5" class="edge"><title>Node2&#45;&gt;Node6</title>
<path fill="none" stroke="midnightblue" d="M306.062,-942.5C326.008,-942.5 346.984,-942.5 365.317,-942.5"/>
<polygon fill="midnightblue" stroke="midnightblue" points="306.058,-939 296.058,-942.5 306.058,-946 306.058,-939"/>
</g>
<!-- Node8 -->
<g id="node8" class="node"><title>Node8</title>
<g id="a_node8"><a xlink:href="../../d0/d1d/classmarian_1_1rnn_1_1Tanh.html#acdaec0ddca02a9bcc45f2b436c64d310" target="_top" xlink:title="marian::rnn::Tanh::\lapply">
<polygon fill="white" stroke="black" points="369.5,-682.5 369.5,-712.5 468.5,-712.5 468.5,-682.5 369.5,-682.5"/>
<text text-anchor="start" x="377.5" y="-700.5" font-family="Helvetica,sans-Serif" font-size="10.00">marian::rnn::Tanh::</text>
<text text-anchor="middle" x="419" y="-689.5" font-family="Helvetica,sans-Serif" font-size="10.00">apply</text>
</a>
</g>
</g>
<!-- Node7&#45;&gt;Node8 -->
<g id="edge7" class="edge"><title>Node7&#45;&gt;Node8</title>
<path fill="none" stroke="midnightblue" d="M286.064,-835.309C295.926,-831.661 305.414,-826.577 313,-819.5 346.623,-788.13 316.358,-754.889 349,-722.5 354.698,-716.846 361.77,-712.461 369.195,-709.063"/>
<polygon fill="midnightblue" stroke="midnightblue" points="284.982,-831.981 276.544,-838.387 287.135,-838.641 284.982,-831.981"/>
</g>
<!-- Node9 -->
<g id="node9" class="node"><title>Node9</title>
<g id="a_node9"><a xlink:href="../../d7/d03/classmarian_1_1rnn_1_1GRU.html#af8c554f9e899a74dfd897de082ef893e" target="_top" xlink:title="marian::rnn::GRU::apply">
<polygon fill="white" stroke="black" points="357.5,-644 357.5,-663 480.5,-663 480.5,-644 357.5,-644"/>
<text text-anchor="middle" x="419" y="-651" font-family="Helvetica,sans-Serif" font-size="10.00">marian::rnn::GRU::apply</text>
</a>
</g>
</g>
<!-- Node7&#45;&gt;Node9 -->
<g id="edge8" class="edge"><title>Node7&#45;&gt;Node9</title>
<path fill="none" stroke="midnightblue" d="M286.407,-836.116C296.327,-832.397 305.748,-827.081 313,-819.5 359.199,-771.207 302.706,-721.702 349,-673.5 353.147,-669.182 358.165,-665.78 363.581,-663.103"/>
<polygon fill="midnightblue" stroke="midnightblue" points="285.241,-832.815 276.798,-839.216 287.39,-839.477 285.241,-832.815"/>
</g>
<!-- Node10 -->
<g id="node10" class="node"><title>Node10</title>
<g id="a_node10"><a xlink:href="../../db/df5/classmarian_1_1rnn_1_1FastLSTM.html#a275238cb651482fac640d18d0a5ed265" target="_top" xlink:title="marian::rnn::FastLSTM\l::apply">
<polygon fill="white" stroke="black" points="360.5,-829.5 360.5,-859.5 477.5,-859.5 477.5,-829.5 360.5,-829.5"/>
<text text-anchor="start" x="368.5" y="-847.5" font-family="Helvetica,sans-Serif" font-size="10.00">marian::rnn::FastLSTM</text>
<text text-anchor="middle" x="419" y="-836.5" font-family="Helvetica,sans-Serif" font-size="10.00">::apply</text>
</a>
</g>
</g>
<!-- Node7&#45;&gt;Node10 -->
<g id="edge9" class="edge"><title>Node7&#45;&gt;Node10</title>
<path fill="none" stroke="midnightblue" d="M287.063,-844.5C310.445,-844.5 337.233,-844.5 360.462,-844.5"/>
<polygon fill="midnightblue" stroke="midnightblue" points="286.93,-841 276.93,-844.5 286.93,-848 286.93,-841"/>
</g>
<!-- Node11 -->
<g id="node11" class="node"><title>Node11</title>
<g id="a_node11"><a xlink:href="../../db/ddd/classmarian_1_1rnn_1_1SlowLSTM.html#a70fd0fdd071fd698f82ede70b1479fbb" target="_top" xlink:title="marian::rnn::SlowLSTM\l::apply">
<polygon fill="white" stroke="black" points="359.5,-780.5 359.5,-810.5 478.5,-810.5 478.5,-780.5 359.5,-780.5"/>
<text text-anchor="start" x="367.5" y="-798.5" font-family="Helvetica,sans-Serif" font-size="10.00">marian::rnn::SlowLSTM</text>
<text text-anchor="middle" x="419" y="-787.5" font-family="Helvetica,sans-Serif" font-size="10.00">::apply</text>
</a>
</g>
</g>
<!-- Node7&#45;&gt;Node11 -->
<g id="edge10" class="edge"><title>Node7&#45;&gt;Node11</title>
<path fill="none" stroke="midnightblue" d="M286.662,-829.371C309.907,-823.377 336.569,-816.501 359.771,-810.517"/>
<polygon fill="midnightblue" stroke="midnightblue" points="285.739,-825.995 276.93,-831.881 287.487,-832.773 285.739,-825.995"/>
</g>
<!-- Node12 -->
<g id="node12" class="node"><title>Node12</title>
<g id="a_node12"><a xlink:href="../../d7/d30/classmarian_1_1rnn_1_1TestLSTM.html#a1e2524b853677d43eb4425d3e0bf9d97" target="_top" xlink:title="marian::rnn::TestLSTM\l::apply">
<polygon fill="white" stroke="black" points="360.5,-731.5 360.5,-761.5 477.5,-761.5 477.5,-731.5 360.5,-731.5"/>
<text text-anchor="start" x="368.5" y="-749.5" font-family="Helvetica,sans-Serif" font-size="10.00">marian::rnn::TestLSTM</text>
<text text-anchor="middle" x="419" y="-738.5" font-family="Helvetica,sans-Serif" font-size="10.00">::apply</text>
</a>
</g>
</g>
<!-- Node7&#45;&gt;Node12 -->
<g id="edge11" class="edge"><title>Node7&#45;&gt;Node12</title>
<path fill="none" stroke="midnightblue" d="M286.477,-832.732C295.823,-829.357 305.028,-825.033 313,-819.5 334.908,-804.296 327.57,-787.371 349,-771.5 354.12,-767.709 359.871,-764.444 365.813,-761.646"/>
<polygon fill="midnightblue" stroke="midnightblue" points="285.15,-829.483 276.732,-835.916 287.325,-836.137 285.15,-829.483"/>
</g>
<!-- Node25 -->
<g id="node25" class="node"><title>Node25</title>
<g id="a_node25"><a xlink:href="../../dd/d8d/classmarian_1_1EncoderPooling.html#a676142ec672b7e9e84d8dc539039c57a" target="_top" xlink:title="marian::EncoderPooling\l::build">
<polygon fill="white" stroke="black" points="359,-278.5 359,-308.5 479,-308.5 479,-278.5 359,-278.5"/>
<text text-anchor="start" x="367" y="-296.5" font-family="Helvetica,sans-Serif" font-size="10.00">marian::EncoderPooling</text>
<text text-anchor="middle" x="419" y="-285.5" font-family="Helvetica,sans-Serif" font-size="10.00">::build</text>
</a>
</g>
</g>
<!-- Node24&#45;&gt;Node25 -->
<g id="edge27" class="edge"><title>Node24&#45;&gt;Node25</title>
<path fill="none" stroke="midnightblue" d="M304.412,-293.5C322.498,-293.5 341.52,-293.5 358.715,-293.5"/>
<polygon fill="midnightblue" stroke="midnightblue" points="304.186,-290 294.186,-293.5 304.186,-297 304.186,-290"/>
</g>
<!-- Node28 -->
<g id="node28" class="node"><title>Node28</title>
<g id="a_node28"><a xlink:href="../../d3/dbc/classmarian_1_1EncoderS2S.html#ac7066b7a2aabebd2efce08215a1c00c7" target="_top" xlink:title="marian::EncoderS2S\l::build">
<polygon fill="white" stroke="black" points="365.5,-196.5 365.5,-226.5 472.5,-226.5 472.5,-196.5 365.5,-196.5"/>
<text text-anchor="start" x="373.5" y="-214.5" font-family="Helvetica,sans-Serif" font-size="10.00">marian::EncoderS2S</text>
<text text-anchor="middle" x="419" y="-203.5" font-family="Helvetica,sans-Serif" font-size="10.00">::build</text>
</a>
</g>
</g>
<!-- Node27&#45;&gt;Node28 -->
<g id="edge30" class="edge"><title>Node27&#45;&gt;Node28</title>
<path fill="none" stroke="midnightblue" d="M290.792,-211.5C314.901,-211.5 342.149,-211.5 365.224,-211.5"/>
<polygon fill="midnightblue" stroke="midnightblue" points="290.673,-208 280.673,-211.5 290.673,-215 290.673,-208"/>
</g>
</g>
</svg>
