<?xml version="1.0" encoding="UTF-8" standalone="no"?>
<!DOCTYPE svg PUBLIC "-//W3C//DTD SVG 1.1//EN"
 "http://www.w3.org/Graphics/SVG/1.1/DTD/svg11.dtd">
<!-- Generated by graphviz version 2.38.0 (20140413.2041)
 -->
<!-- Title: marian::TensorCPU Pages: 1 -->
<svg width="252pt" height="574pt"
 viewBox="0.00 0.00 251.50 574.00" xmlns="http://www.w3.org/2000/svg" xmlns:xlink="http://www.w3.org/1999/xlink">
<g id="graph0" class="graph" transform="scale(1 1) rotate(0) translate(4 570)">
<title>marian::TensorCPU</title>
<polygon fill="white" stroke="none" points="-4,4 -4,-570 247.5,-570 247.5,4 -4,4"/>
<!-- Node1 -->
<g id="node1" class="node"><title>Node1</title>
<polygon fill="#bfbfbf" stroke="black" points="79.5,-0.5 79.5,-112.5 183.5,-112.5 183.5,-0.5 79.5,-0.5"/>
<text text-anchor="middle" x="131.5" y="-100.5" font-family="Helvetica,sans-Serif" font-size="10.00">marian::TensorCPU</text>
<polyline fill="none" stroke="black" points="79.5,-93.5 183.5,-93.5 "/>
<text text-anchor="middle" x="131.5" y="-81.5" font-family="Helvetica,sans-Serif" font-size="10.00"> </text>
<polyline fill="none" stroke="black" points="79.5,-74.5 183.5,-74.5 "/>
<text text-anchor="start" x="87.5" y="-62.5" font-family="Helvetica,sans-Serif" font-size="10.00">+ TensorCPU()</text>
<text text-anchor="start" x="87.5" y="-51.5" font-family="Helvetica,sans-Serif" font-size="10.00">+ get()</text>
<text text-anchor="start" x="87.5" y="-40.5" font-family="Helvetica,sans-Serif" font-size="10.00">+ set()</text>
<text text-anchor="start" x="87.5" y="-29.5" font-family="Helvetica,sans-Serif" font-size="10.00">+ get()</text>
<text text-anchor="start" x="87.5" y="-18.5" font-family="Helvetica,sans-Serif" font-size="10.00">+ set()</text>
<text text-anchor="start" x="87.5" y="-7.5" font-family="Helvetica,sans-Serif" font-size="10.00">+ set()</text>
</g>
<!-- Node2 -->
<g id="node2" class="node"><title>Node2</title>
<g id="a_node2"><a xlink:href="$dd/d3c/classmarian_1_1TensorBase.html" xlink:title="{marian::TensorBase\n|&#45; memory_\l&#45; device_\l|+ TensorBase()\l+ ~TensorBase()\l+ reset()\l+ memory()\l+ shape()\l+ data()\l+ size()\l+ scalar()\l+ getDevice()\l+ subtensor()\land 8 more...\l}">
<polygon fill="white" stroke="black" points="79.5,-150.5 79.5,-328.5 183.5,-328.5 183.5,-150.5 79.5,-150.5"/>
<text text-anchor="middle" x="131.5" y="-316.5" font-family="Helvetica,sans-Serif" font-size="10.00">marian::TensorBase</text>
<polyline fill="none" stroke="black" points="79.5,-309.5 183.5,-309.5 "/>
<text text-anchor="start" x="87.5" y="-297.5" font-family="Helvetica,sans-Serif" font-size="10.00">&#45; memory_</text>
<text text-anchor="start" x="87.5" y="-286.5" font-family="Helvetica,sans-Serif" font-size="10.00">&#45; device_</text>
<polyline fill="none" stroke="black" points="79.5,-279.5 183.5,-279.5 "/>
<text text-anchor="start" x="87.5" y="-267.5" font-family="Helvetica,sans-Serif" font-size="10.00">+ TensorBase()</text>
<text text-anchor="start" x="87.5" y="-256.5" font-family="Helvetica,sans-Serif" font-size="10.00">+ ~TensorBase()</text>
<text text-anchor="start" x="87.5" y="-245.5" font-family="Helvetica,sans-Serif" font-size="10.00">+ reset()</text>
<text text-anchor="start" x="87.5" y="-234.5" font-family="Helvetica,sans-Serif" font-size="10.00">+ memory()</text>
<text text-anchor="start" x="87.5" y="-223.5" font-family="Helvetica,sans-Serif" font-size="10.00">+ shape()</text>
<text text-anchor="start" x="87.5" y="-212.5" font-family="Helvetica,sans-Serif" font-size="10.00">+ data()</text>
<text text-anchor="start" x="87.5" y="-201.5" font-family="Helvetica,sans-Serif" font-size="10.00">+ size()</text>
<text text-anchor="start" x="87.5" y="-190.5" font-family="Helvetica,sans-Serif" font-size="10.00">+ scalar()</text>
<text text-anchor="start" x="87.5" y="-179.5" font-family="Helvetica,sans-Serif" font-size="10.00">+ getDevice()</text>
<text text-anchor="start" x="87.5" y="-168.5" font-family="Helvetica,sans-Serif" font-size="10.00">+ subtensor()</text>
<text text-anchor="start" x="87.5" y="-157.5" font-family="Helvetica,sans-Serif" font-size="10.00">and 8 more...</text>
</a>
</g>
</g>
<!-- Node2&#45;&gt;Node1 -->
<g id="edge1" class="edge"><title>Node2&#45;&gt;Node1</title>
<path fill="none" stroke="midnightblue" d="M131.5,-140.147C131.5,-130.734 131.5,-121.436 131.5,-112.663"/>
<polygon fill="none" stroke="midnightblue" points="128,-140.386 131.5,-150.386 135,-140.386 128,-140.386"/>
</g>
<!-- Node3 -->
<g id="node3" class="node"><title>Node3</title>
<polygon fill="white" stroke="#bfbfbf" points="0,-437 0,-505 133,-505 133,-437 0,-437"/>
<text text-anchor="start" x="8" y="-493" font-family="Helvetica,sans-Serif" font-size="10.00">std::enable_shared</text>
<text text-anchor="middle" x="66.5" y="-482" font-family="Helvetica,sans-Serif" font-size="10.00">_from_this&lt; TensorBase &gt;</text>
<polyline fill="none" stroke="#bfbfbf" points="0,-475 133,-475 "/>
<text text-anchor="middle" x="66.5" y="-463" font-family="Helvetica,sans-Serif" font-size="10.00"> </text>
<polyline fill="none" stroke="#bfbfbf" points="0,-456 133,-456 "/>
<text text-anchor="middle" x="66.5" y="-444" font-family="Helvetica,sans-Serif" font-size="10.00"> </text>
</g>
<!-- Node3&#45;&gt;Node2 -->
<g id="edge2" class="edge"><title>Node3&#45;&gt;Node2</title>
<path fill="none" stroke="midnightblue" d="M78.7052,-426.906C86.5173,-399.324 96.9376,-362.532 106.456,-328.924"/>
<polygon fill="none" stroke="midnightblue" points="75.3091,-426.053 75.9516,-436.629 82.0442,-427.961 75.3091,-426.053"/>
</g>
<!-- Node4 -->
<g id="node4" class="node"><title>Node4</title>
<g id="a_node4"><a xlink:href="$d5/d54/structmarian_1_1Shape.html" xlink:title="{marian::Shape\n|+ shape_\l+ stride_\l+ bstride_\l|+ Shape()\l+ Shape()\l+ updateStrides()\l+ Shape()\l+ set()\l+ dim()\l+ dim()\l+ operator[]()\l+ operator[]()\l+ stride()\land 12 more...\l}">
<polygon fill="white" stroke="black" points="151.5,-376.5 151.5,-565.5 243.5,-565.5 243.5,-376.5 151.5,-376.5"/>
<text text-anchor="middle" x="197.5" y="-553.5" font-family="Helvetica,sans-Serif" font-size="10.00">marian::Shape</text>
<polyline fill="none" stroke="black" points="151.5,-546.5 243.5,-546.5 "/>
<text text-anchor="start" x="159.5" y="-534.5" font-family="Helvetica,sans-Serif" font-size="10.00">+ shape_</text>
<text text-anchor="start" x="159.5" y="-523.5" font-family="Helvetica,sans-Serif" font-size="10.00">+ stride_</text>
<text text-anchor="start" x="159.5" y="-512.5" font-family="Helvetica,sans-Serif" font-size="10.00">+ bstride_</text>
<polyline fill="none" stroke="black" points="151.5,-505.5 243.5,-505.5 "/>
<text text-anchor="start" x="159.5" y="-493.5" font-family="Helvetica,sans-Serif" font-size="10.00">+ Shape()</text>
<text text-anchor="start" x="159.5" y="-482.5" font-family="Helvetica,sans-Serif" font-size="10.00">+ Shape()</text>
<text text-anchor="start" x="159.5" y="-471.5" font-family="Helvetica,sans-Serif" font-size="10.00">+ updateStrides()</text>
<text text-anchor="start" x="159.5" y="-460.5" font-family="Helvetica,sans-Serif" font-size="10.00">+ Shape()</text>
<text text-anchor="start" x="159.5" y="-449.5" font-family="Helvetica,sans-Serif" font-size="10.00">+ set()</text>
<text text-anchor="start" x="159.5" y="-438.5" font-family="Helvetica,sans-Serif" font-size="10.00">+ dim()</text>
<text text-anchor="start" x="159.5" y="-427.5" font-family="Helvetica,sans-Serif" font-size="10.00">+ dim()</text>
<text text-anchor="start" x="159.5" y="-416.5" font-family="Helvetica,sans-Serif" font-size="10.00">+ operator[]()</text>
<text text-anchor="start" x="159.5" y="-405.5" font-family="Helvetica,sans-Serif" font-size="10.00">+ operator[]()</text>
<text text-anchor="start" x="159.5" y="-394.5" font-family="Helvetica,sans-Serif" font-size="10.00">+ stride()</text>
<text text-anchor="start" x="159.5" y="-383.5" font-family="Helvetica,sans-Serif" font-size="10.00">and 12 more...</text>
</a>
</g>
</g>
<!-- Node4&#45;&gt;Node2 -->
<g id="edge3" class="edge"><title>Node4&#45;&gt;Node2</title>
<path fill="none" stroke="#404040" d="M170.56,-376.323C167.165,-364.517 163.681,-352.403 160.259,-340.504"/>
<polygon fill="none" stroke="#404040" points="160.18,-340.229 154.678,-335.569 156.864,-328.697 162.366,-333.357 160.18,-340.229"/>
<text text-anchor="middle" x="183.5" y="-350" font-family="Helvetica,sans-Serif" font-size="10.00"> &#45;shape_</text>
</g>
</g>
</svg>
