<?xml version="1.0" encoding="UTF-8" standalone="no"?>
<!DOCTYPE svg PUBLIC "-//W3C//DTD SVG 1.1//EN"
 "http://www.w3.org/Graphics/SVG/1.1/DTD/svg11.dtd">
<!-- Generated by graphviz version 2.38.0 (20140413.2041)
 -->
<!-- Title: matrix_wrapper.h Pages: 1 -->
<!--zoomable 252 -->
<svg id="main" version="1.1" xmlns="http://www.w3.org/2000/svg" xmlns:xlink="http://www.w3.org/1999/xlink" xml:space="preserve" onload="init(evt)">
<style type="text/css"><![CDATA[
.edge:hover path { stroke: red; }
.edge:hover polygon { stroke: red; fill: red; }
]]></style>
<script type="text/javascript"><![CDATA[
var edges = document.getElementsByTagName('g');
if (edges && edges.length) {
  for (var i=0;i<edges.length;i++) {
    if (edges[i].id.substr(0,4)=='edge') {
      edges[i].setAttribute('class','edge');
    }
  }
}
]]></script>
        <defs>
                <circle id="rim" cx="0" cy="0" r="7"/>
                <circle id="rim2" cx="0" cy="0" r="3.5"/>
                <g id="zoomPlus">
                        <use xlink:href="#rim" fill="#404040">
                                <set attributeName="fill" to="#808080" begin="zoomplus.mouseover" end="zoomplus.mouseout"/>
                        </use>
                        <path d="M-4,0h8M0,-4v8" fill="none" stroke="white" stroke-width="1.5" pointer-events="none"/>
                </g>
                <g id="zoomMin">
                        <use xlink:href="#rim" fill="#404040">
                                <set attributeName="fill" to="#808080" begin="zoomminus.mouseover" end="zoomminus.mouseout"/>
                        </use>
                        <path d="M-4,0h8" fill="none" stroke="white" stroke-width="1.5" pointer-events="none"/>
                </g>
                <g id="dirArrow">
                        <path fill="none" stroke="white" stroke-width="1.5" d="M0,-3.0v7 M-2.5,-0.5L0,-3.0L2.5,-0.5"/>
                </g>
               <g id="resetDef">
                       <use xlink:href="#rim2" fill="#404040">
                               <set attributeName="fill" to="#808080" begin="reset.mouseover" end="reset.mouseout"/>
                       </use>
               </g>
        </defs>

<script type="text/javascript">
var viewWidth = 1154;
var viewHeight = 252;
var sectionId = 'dynsection-0';
</script>
<script xlink:href="../../svgpan.js"/>
<svg id="graph" class="graph">
<g id="viewport">
<title>matrix_wrapper.h</title>
<polygon fill="white" stroke="none" points="-4,4 -4,-248 1149.5,-248 1149.5,4 -4,4"/>
<!-- Node1 -->
<g id="node1" class="node"><title>Node1</title>
<polygon fill="#bfbfbf" stroke="black" points="753.5,-224.5 753.5,-243.5 845.5,-243.5 845.5,-224.5 753.5,-224.5"/>
<text text-anchor="middle" x="799.5" y="-231.5" font-family="Helvetica,sans-Serif" font-size="10.00">matrix_wrapper.h</text>
</g>
<!-- Node2 -->
<g id="node2" class="node"><title>Node2</title>
<g id="a_node2"><a xlink:href="../../dd/df4/matrix_8h.html" target="_top" xlink:title="matrix.h">
<polygon fill="white" stroke="black" points="571.5,-168.5 571.5,-187.5 623.5,-187.5 623.5,-168.5 571.5,-168.5"/>
<text text-anchor="middle" x="597.5" y="-175.5" font-family="Helvetica,sans-Serif" font-size="10.00">matrix.h</text>
</a>
</g>
</g>
<!-- Node1&#45;&gt;Node2 -->
<g id="edge1" class="edge"><title>Node1&#45;&gt;Node2</title>
<path fill="none" stroke="midnightblue" d="M767.492,-224.444C731.089,-214.712 671.779,-198.857 633.713,-188.681"/>
<polygon fill="midnightblue" stroke="midnightblue" points="634.141,-185.172 623.577,-185.971 632.333,-191.935 634.141,-185.172"/>
</g>
<!-- Node25 -->
<g id="node25" class="node"><title>Node25</title>
<g id="a_node25"><a xlink:href="../../db/d63/array_8h.html" target="_top" xlink:title="gpu/mblas/array.h">
<polygon fill="white" stroke="black" points="966,-168.5 966,-187.5 1061,-187.5 1061,-168.5 966,-168.5"/>
<text text-anchor="middle" x="1013.5" y="-175.5" font-family="Helvetica,sans-Serif" font-size="10.00">gpu/mblas/array.h</text>
</a>
</g>
</g>
<!-- Node1&#45;&gt;Node25 -->
<g id="edge28" class="edge"><title>Node1&#45;&gt;Node25</title>
<path fill="none" stroke="midnightblue" d="M833.409,-224.444C870.349,-215.122 929.554,-200.183 969.918,-189.997"/>
<polygon fill="midnightblue" stroke="midnightblue" points="970.91,-193.357 979.75,-187.516 969.197,-186.57 970.91,-193.357"/>
</g>
<!-- Node3 -->
<g id="node3" class="node"><title>Node3</title>
<polygon fill="white" stroke="#bfbfbf" points="479.5,-56.5 479.5,-75.5 531.5,-75.5 531.5,-56.5 479.5,-56.5"/>
<text text-anchor="middle" x="505.5" y="-63.5" font-family="Helvetica,sans-Serif" font-size="10.00">memory</text>
</g>
<!-- Node2&#45;&gt;Node3 -->
<g id="edge2" class="edge"><title>Node2&#45;&gt;Node3</title>
<path fill="none" stroke="midnightblue" d="M585.417,-168.261C574.234,-159.796 557.563,-146.19 545.5,-132 533.053,-117.358 521.871,-98.4445 514.516,-84.7984"/>
<polygon fill="midnightblue" stroke="midnightblue" points="517.414,-82.7881 509.679,-75.5479 511.211,-86.0315 517.414,-82.7881"/>
</g>
<!-- Node4 -->
<g id="node4" class="node"><title>Node4</title>
<polygon fill="white" stroke="#bfbfbf" points="203.5,-56.5 203.5,-75.5 255.5,-75.5 255.5,-56.5 203.5,-56.5"/>
<text text-anchor="middle" x="229.5" y="-63.5" font-family="Helvetica,sans-Serif" font-size="10.00">sstream</text>
</g>
<!-- Node2&#45;&gt;Node4 -->
<g id="edge3" class="edge"><title>Node2&#45;&gt;Node4</title>
<path fill="none" stroke="midnightblue" d="M571.233,-175.091C524.884,-171.11 426.056,-159.858 347.5,-132 311.464,-119.221 273.333,-96.2565 250.478,-81.3265"/>
<polygon fill="midnightblue" stroke="midnightblue" points="252.213,-78.2773 241.946,-75.6606 248.34,-84.1085 252.213,-78.2773"/>
</g>
<!-- Node5 -->
<g id="node5" class="node"><title>Node5</title>
<polygon fill="white" stroke="#bfbfbf" points="736,-112.5 736,-131.5 861,-131.5 861,-112.5 736,-112.5"/>
<text text-anchor="middle" x="798.5" y="-119.5" font-family="Helvetica,sans-Serif" font-size="10.00">thrust/execution_policy.h</text>
</g>
<!-- Node2&#45;&gt;Node5 -->
<g id="edge4" class="edge"><title>Node2&#45;&gt;Node5</title>
<path fill="none" stroke="midnightblue" d="M623.777,-169.94C657.622,-160.848 716.839,-144.939 756.847,-134.19"/>
<polygon fill="midnightblue" stroke="midnightblue" points="757.829,-137.551 766.578,-131.576 756.012,-130.791 757.829,-137.551"/>
</g>
<!-- Node6 -->
<g id="node6" class="node"><title>Node6</title>
<polygon fill="white" stroke="#bfbfbf" points="879,-112.5 879,-131.5 974,-131.5 974,-112.5 879,-112.5"/>
<text text-anchor="middle" x="926.5" y="-119.5" font-family="Helvetica,sans-Serif" font-size="10.00">thrust/functional.h</text>
</g>
<!-- Node2&#45;&gt;Node6 -->
<g id="edge5" class="edge"><title>Node2&#45;&gt;Node6</title>
<path fill="none" stroke="midnightblue" d="M623.591,-172.718C676.247,-164.075 796.342,-144.363 868.495,-132.521"/>
<polygon fill="midnightblue" stroke="midnightblue" points="869.478,-135.906 878.779,-130.833 868.344,-128.999 869.478,-135.906"/>
</g>
<!-- Node7 -->
<g id="node7" class="node"><title>Node7</title>
<g id="a_node7"><a xlink:href="../../dd/d2d/exception_8h.html" target="_top" xlink:title="common/exception.h">
<polygon fill="white" stroke="black" points="128,-112.5 128,-131.5 235,-131.5 235,-112.5 128,-112.5"/>
<text text-anchor="middle" x="181.5" y="-119.5" font-family="Helvetica,sans-Serif" font-size="10.00">common/exception.h</text>
</a>
</g>
</g>
<!-- Node2&#45;&gt;Node7 -->
<g id="edge6" class="edge"><title>Node2&#45;&gt;Node7</title>
<path fill="none" stroke="midnightblue" d="M571.477,-173.622C507.013,-165.254 338.416,-143.369 245.404,-131.295"/>
<polygon fill="midnightblue" stroke="midnightblue" points="245.639,-127.797 235.272,-129.98 244.738,-134.738 245.639,-127.797"/>
</g>
<!-- Node12 -->
<g id="node12" class="node"><title>Node12</title>
<g id="a_node12"><a xlink:href="../../d3/d75/base__matrix_8h.html" target="_top" xlink:title="common/base_matrix.h">
<polygon fill="white" stroke="black" points="357,-112.5 357,-131.5 476,-131.5 476,-112.5 357,-112.5"/>
<text text-anchor="middle" x="416.5" y="-119.5" font-family="Helvetica,sans-Serif" font-size="10.00">common/base_matrix.h</text>
</a>
</g>
</g>
<!-- Node2&#45;&gt;Node12 -->
<g id="edge12" class="edge"><title>Node2&#45;&gt;Node12</title>
<path fill="none" stroke="midnightblue" d="M571.181,-169.148C540.662,-160.043 490.079,-144.952 455.109,-134.519"/>
<polygon fill="midnightblue" stroke="midnightblue" points="455.827,-131.081 445.244,-131.576 453.826,-137.788 455.827,-131.081"/>
</g>
<!-- Node18 -->
<g id="node18" class="node"><title>Node18</title>
<g id="a_node18"><a xlink:href="../../d3/d18/types-gpu_8h.html" target="_top" xlink:title="gpu/types&#45;gpu.h">
<polygon fill="white" stroke="black" points="554.5,-112.5 554.5,-131.5 640.5,-131.5 640.5,-112.5 554.5,-112.5"/>
<text text-anchor="middle" x="597.5" y="-119.5" font-family="Helvetica,sans-Serif" font-size="10.00">gpu/types&#45;gpu.h</text>
</a>
</g>
</g>
<!-- Node2&#45;&gt;Node18 -->
<g id="edge21" class="edge"><title>Node2&#45;&gt;Node18</title>
<path fill="none" stroke="midnightblue" d="M597.5,-168.083C597.5,-161.006 597.5,-150.861 597.5,-141.986"/>
<polygon fill="midnightblue" stroke="midnightblue" points="601,-141.751 597.5,-131.751 594,-141.751 601,-141.751"/>
</g>
<!-- Node22 -->
<g id="node22" class="node"><title>Node22</title>
<g id="a_node22"><a xlink:href="../../d0/d23/handles_8h.html" target="_top" xlink:title="handles.h">
<polygon fill="white" stroke="black" points="659,-112.5 659,-131.5 718,-131.5 718,-112.5 659,-112.5"/>
<text text-anchor="middle" x="688.5" y="-119.5" font-family="Helvetica,sans-Serif" font-size="10.00">handles.h</text>
</a>
</g>
</g>
<!-- Node2&#45;&gt;Node22 -->
<g id="edge25" class="edge"><title>Node2&#45;&gt;Node22</title>
<path fill="none" stroke="midnightblue" d="M612.121,-168.324C626.449,-159.822 648.513,-146.729 665.249,-136.797"/>
<polygon fill="midnightblue" stroke="midnightblue" points="667.102,-139.768 673.916,-131.655 663.53,-133.748 667.102,-139.768"/>
</g>
<!-- Node7&#45;&gt;Node4 -->
<g id="edge7" class="edge"><title>Node7&#45;&gt;Node4</title>
<path fill="none" stroke="midnightblue" d="M189.426,-112.083C196.346,-104.298 206.565,-92.8015 214.952,-83.3665"/>
<polygon fill="midnightblue" stroke="midnightblue" points="217.694,-85.5505 221.721,-75.7511 212.462,-80.8999 217.694,-85.5505"/>
</g>
<!-- Node8 -->
<g id="node8" class="node"><title>Node8</title>
<polygon fill="white" stroke="#bfbfbf" points="0,-56.5 0,-75.5 59,-75.5 59,-56.5 0,-56.5"/>
<text text-anchor="middle" x="29.5" y="-63.5" font-family="Helvetica,sans-Serif" font-size="10.00">exception</text>
</g>
<!-- Node7&#45;&gt;Node8 -->
<g id="edge8" class="edge"><title>Node7&#45;&gt;Node8</title>
<path fill="none" stroke="midnightblue" d="M157.415,-112.444C131.955,-103.399 91.6062,-89.064 63.0409,-78.9158"/>
<polygon fill="midnightblue" stroke="midnightblue" points="64.0669,-75.5661 53.4722,-75.5164 61.7235,-82.1622 64.0669,-75.5661"/>
</g>
<!-- Node9 -->
<g id="node9" class="node"><title>Node9</title>
<polygon fill="white" stroke="#bfbfbf" points="77.5,-56.5 77.5,-75.5 117.5,-75.5 117.5,-56.5 77.5,-56.5"/>
<text text-anchor="middle" x="97.5" y="-63.5" font-family="Helvetica,sans-Serif" font-size="10.00">limits</text>
</g>
<!-- Node7&#45;&gt;Node9 -->
<g id="edge9" class="edge"><title>Node7&#45;&gt;Node9</title>
<path fill="none" stroke="midnightblue" d="M168.004,-112.324C154.9,-103.9 134.788,-90.9709 119.393,-81.0741"/>
<polygon fill="midnightblue" stroke="midnightblue" points="121.267,-78.118 110.963,-75.6545 117.482,-84.0063 121.267,-78.118"/>
</g>
<!-- Node10 -->
<g id="node10" class="node"><title>Node10</title>
<polygon fill="white" stroke="#bfbfbf" points="274,-56.5 274,-75.5 315,-75.5 315,-56.5 274,-56.5"/>
<text text-anchor="middle" x="294.5" y="-63.5" font-family="Helvetica,sans-Serif" font-size="10.00">string</text>
</g>
<!-- Node7&#45;&gt;Node10 -->
<g id="edge10" class="edge"><title>Node7&#45;&gt;Node10</title>
<path fill="none" stroke="midnightblue" d="M199.405,-112.444C217.754,-103.675 246.505,-89.9355 267.594,-79.8579"/>
<polygon fill="midnightblue" stroke="midnightblue" points="269.165,-82.9862 276.679,-75.5164 266.147,-76.6703 269.165,-82.9862"/>
</g>
<!-- Node11 -->
<g id="node11" class="node"><title>Node11</title>
<polygon fill="white" stroke="#bfbfbf" points="136,-56.5 136,-75.5 185,-75.5 185,-56.5 136,-56.5"/>
<text text-anchor="middle" x="160.5" y="-63.5" font-family="Helvetica,sans-Serif" font-size="10.00">stdint.h</text>
</g>
<!-- Node7&#45;&gt;Node11 -->
<g id="edge11" class="edge"><title>Node7&#45;&gt;Node11</title>
<path fill="none" stroke="midnightblue" d="M178.032,-112.083C175.188,-104.77 171.071,-94.1814 167.54,-85.1034"/>
<polygon fill="midnightblue" stroke="midnightblue" points="170.79,-83.8025 163.903,-75.7511 164.266,-86.3397 170.79,-83.8025"/>
</g>
<!-- Node12&#45;&gt;Node3 -->
<g id="edge15" class="edge"><title>Node12&#45;&gt;Node3</title>
<path fill="none" stroke="midnightblue" d="M430.799,-112.324C444.683,-103.9 465.992,-90.9709 482.304,-81.0741"/>
<polygon fill="midnightblue" stroke="midnightblue" points="484.502,-83.8341 491.236,-75.6545 480.871,-77.8495 484.502,-83.8341"/>
</g>
<!-- Node12&#45;&gt;Node10 -->
<g id="edge13" class="edge"><title>Node12&#45;&gt;Node10</title>
<path fill="none" stroke="midnightblue" d="M397.169,-112.444C377.18,-103.596 345.757,-89.6875 322.936,-79.5865"/>
<polygon fill="midnightblue" stroke="midnightblue" points="324.302,-76.3635 313.741,-75.5164 321.468,-82.7645 324.302,-76.3635"/>
</g>
<!-- Node13 -->
<g id="node13" class="node"><title>Node13</title>
<polygon fill="white" stroke="#bfbfbf" points="321.5,-0.5 321.5,-19.5 365.5,-19.5 365.5,-0.5 321.5,-0.5"/>
<text text-anchor="middle" x="343.5" y="-7.5" font-family="Helvetica,sans-Serif" font-size="10.00">vector</text>
</g>
<!-- Node12&#45;&gt;Node13 -->
<g id="edge14" class="edge"><title>Node12&#45;&gt;Node13</title>
<path fill="none" stroke="midnightblue" d="M402.04,-112.435C389.799,-104.469 372.669,-91.5136 362.5,-76 353.336,-62.019 348.49,-43.5167 345.993,-29.8286"/>
<polygon fill="midnightblue" stroke="midnightblue" points="349.407,-29.0071 344.404,-19.6678 342.491,-30.0884 349.407,-29.0071"/>
</g>
<!-- Node14 -->
<g id="node14" class="node"><title>Node14</title>
<g id="a_node14"><a xlink:href="../../dc/de7/amun_2common_2types_8h.html" target="_top" xlink:title="common/types.h">
<polygon fill="white" stroke="black" points="372,-56.5 372,-75.5 461,-75.5 461,-56.5 372,-56.5"/>
<text text-anchor="middle" x="416.5" y="-63.5" font-family="Helvetica,sans-Serif" font-size="10.00">common/types.h</text>
</a>
</g>
</g>
<!-- Node12&#45;&gt;Node14 -->
<g id="edge16" class="edge"><title>Node12&#45;&gt;Node14</title>
<path fill="none" stroke="midnightblue" d="M416.5,-112.083C416.5,-105.006 416.5,-94.8611 416.5,-85.9865"/>
<polygon fill="midnightblue" stroke="midnightblue" points="420,-85.751 416.5,-75.7511 413,-85.7511 420,-85.751"/>
</g>
<!-- Node14&#45;&gt;Node13 -->
<g id="edge19" class="edge"><title>Node14&#45;&gt;Node13</title>
<path fill="none" stroke="midnightblue" d="M404.771,-56.324C393.663,-48.1066 376.758,-35.6017 363.517,-25.8069"/>
<polygon fill="midnightblue" stroke="midnightblue" points="365.563,-22.9671 355.442,-19.8339 361.4,-28.5948 365.563,-22.9671"/>
</g>
<!-- Node15 -->
<g id="node15" class="node"><title>Node15</title>
<polygon fill="white" stroke="#bfbfbf" points="520,-0.5 520,-19.5 565,-19.5 565,-0.5 520,-0.5"/>
<text text-anchor="middle" x="542.5" y="-7.5" font-family="Helvetica,sans-Serif" font-size="10.00">cstdlib</text>
</g>
<!-- Node14&#45;&gt;Node15 -->
<g id="edge17" class="edge"><title>Node14&#45;&gt;Node15</title>
<path fill="none" stroke="midnightblue" d="M436.465,-56.4435C457.109,-47.5961 489.563,-33.6875 513.132,-23.5865"/>
<polygon fill="midnightblue" stroke="midnightblue" points="514.816,-26.6727 522.628,-19.5164 512.058,-20.2387 514.816,-26.6727"/>
</g>
<!-- Node16 -->
<g id="node16" class="node"><title>Node16</title>
<polygon fill="white" stroke="#bfbfbf" points="383.5,-0.5 383.5,-19.5 429.5,-19.5 429.5,-0.5 383.5,-0.5"/>
<text text-anchor="middle" x="406.5" y="-7.5" font-family="Helvetica,sans-Serif" font-size="10.00">cstdint</text>
</g>
<!-- Node14&#45;&gt;Node16 -->
<g id="edge18" class="edge"><title>Node14&#45;&gt;Node16</title>
<path fill="none" stroke="midnightblue" d="M414.849,-56.083C413.524,-48.9272 411.618,-38.6353 409.961,-29.6911"/>
<polygon fill="midnightblue" stroke="midnightblue" points="413.383,-28.9466 408.121,-19.7511 406.5,-30.2212 413.383,-28.9466"/>
</g>
<!-- Node17 -->
<g id="node17" class="node"><title>Node17</title>
<polygon fill="white" stroke="#bfbfbf" points="447.5,-0.5 447.5,-19.5 501.5,-19.5 501.5,-0.5 447.5,-0.5"/>
<text text-anchor="middle" x="474.5" y="-7.5" font-family="Helvetica,sans-Serif" font-size="10.00">iostream</text>
</g>
<!-- Node14&#45;&gt;Node17 -->
<g id="edge20" class="edge"><title>Node14&#45;&gt;Node17</title>
<path fill="none" stroke="midnightblue" d="M425.819,-56.324C434.393,-48.3414 447.312,-36.3128 457.688,-26.6529"/>
<polygon fill="midnightblue" stroke="midnightblue" points="460.078,-29.2098 465.012,-19.8339 455.308,-24.0865 460.078,-29.2098"/>
</g>
<!-- Node19 -->
<g id="node19" class="node"><title>Node19</title>
<polygon fill="white" stroke="#bfbfbf" points="550,-56.5 550,-75.5 633,-75.5 633,-56.5 550,-56.5"/>
<text text-anchor="middle" x="591.5" y="-63.5" font-family="Helvetica,sans-Serif" font-size="10.00">unordered_map</text>
</g>
<!-- Node18&#45;&gt;Node19 -->
<g id="edge22" class="edge"><title>Node18&#45;&gt;Node19</title>
<path fill="none" stroke="midnightblue" d="M596.509,-112.083C595.714,-104.927 594.571,-94.6353 593.577,-85.6911"/>
<polygon fill="midnightblue" stroke="midnightblue" points="597.055,-85.3034 592.472,-75.7511 590.098,-86.0765 597.055,-85.3034"/>
</g>
<!-- Node20 -->
<g id="node20" class="node"><title>Node20</title>
<polygon fill="white" stroke="#bfbfbf" points="651,-56.5 651,-75.5 764,-75.5 764,-56.5 651,-56.5"/>
<text text-anchor="middle" x="707.5" y="-63.5" font-family="Helvetica,sans-Serif" font-size="10.00">thrust/device_vector.h</text>
</g>
<!-- Node18&#45;&gt;Node20 -->
<g id="edge23" class="edge"><title>Node18&#45;&gt;Node20</title>
<path fill="none" stroke="midnightblue" d="M615.173,-112.324C632.894,-103.625 660.403,-90.1202 680.788,-80.113"/>
<polygon fill="midnightblue" stroke="midnightblue" points="682.436,-83.2031 689.87,-75.6545 679.351,-76.9195 682.436,-83.2031"/>
</g>
<!-- Node21 -->
<g id="node21" class="node"><title>Node21</title>
<polygon fill="white" stroke="#bfbfbf" points="782,-56.5 782,-75.5 891,-75.5 891,-56.5 782,-56.5"/>
<text text-anchor="middle" x="836.5" y="-63.5" font-family="Helvetica,sans-Serif" font-size="10.00">boost/timer/timer.hpp</text>
</g>
<!-- Node18&#45;&gt;Node21 -->
<g id="edge24" class="edge"><title>Node18&#45;&gt;Node21</title>
<path fill="none" stroke="midnightblue" d="M635.37,-112.444C676.976,-103.043 743.869,-87.9291 788.969,-77.7393"/>
<polygon fill="midnightblue" stroke="midnightblue" points="789.824,-81.1343 798.807,-75.5164 788.281,-74.3064 789.824,-81.1343"/>
</g>
<!-- Node23 -->
<g id="node23" class="node"><title>Node23</title>
<polygon fill="white" stroke="#bfbfbf" points="996.5,-56.5 996.5,-75.5 1042.5,-75.5 1042.5,-56.5 996.5,-56.5"/>
<text text-anchor="middle" x="1019.5" y="-63.5" font-family="Helvetica,sans-Serif" font-size="10.00">cuda.h</text>
</g>
<!-- Node22&#45;&gt;Node23 -->
<g id="edge26" class="edge"><title>Node22&#45;&gt;Node23</title>
<path fill="none" stroke="midnightblue" d="M718.314,-113.656C721.074,-113.062 723.834,-112.499 726.5,-112 838.03,-91.1199 870.452,-98.9338 986.191,-75.7927"/>
<polygon fill="midnightblue" stroke="midnightblue" points="987.052,-79.1894 996.154,-73.7663 985.657,-72.3299 987.052,-79.1894"/>
</g>
<!-- Node24 -->
<g id="node24" class="node"><title>Node24</title>
<polygon fill="white" stroke="#bfbfbf" points="909,-56.5 909,-75.5 978,-75.5 978,-56.5 909,-56.5"/>
<text text-anchor="middle" x="943.5" y="-63.5" font-family="Helvetica,sans-Serif" font-size="10.00">cublas_v2.h</text>
</g>
<!-- Node22&#45;&gt;Node24 -->
<g id="edge27" class="edge"><title>Node22&#45;&gt;Node24</title>
<path fill="none" stroke="midnightblue" d="M718.353,-113.846C721.105,-113.212 723.853,-112.588 726.5,-112 743.109,-108.312 840.361,-88.2375 898.888,-76.1813"/>
<polygon fill="midnightblue" stroke="midnightblue" points="899.898,-79.547 908.986,-74.1017 898.486,-72.6909 899.898,-79.547"/>
</g>
<!-- Node25&#45;&gt;Node23 -->
<g id="edge29" class="edge"><title>Node25&#45;&gt;Node23</title>
<path fill="none" stroke="midnightblue" d="M1013.97,-168.368C1014.94,-150.617 1017.17,-109.666 1018.49,-85.5974"/>
<polygon fill="midnightblue" stroke="midnightblue" points="1021.98,-85.7672 1019.03,-75.5914 1014.99,-85.3859 1021.98,-85.7672"/>
</g>
<!-- Node26 -->
<g id="node26" class="node"><title>Node26</title>
<polygon fill="white" stroke="#bfbfbf" points="1041.5,-112.5 1041.5,-131.5 1145.5,-131.5 1145.5,-112.5 1041.5,-112.5"/>
<text text-anchor="middle" x="1093.5" y="-119.5" font-family="Helvetica,sans-Serif" font-size="10.00">thrust/host_vector.h</text>
</g>
<!-- Node25&#45;&gt;Node26 -->
<g id="edge30" class="edge"><title>Node25&#45;&gt;Node26</title>
<path fill="none" stroke="midnightblue" d="M1026.35,-168.324C1038.72,-159.979 1057.63,-147.212 1072.24,-137.352"/>
<polygon fill="midnightblue" stroke="midnightblue" points="1074.35,-140.15 1080.68,-131.655 1070.43,-134.348 1074.35,-140.15"/>
</g>
</g>
</svg>
        <g id="navigator" transform="translate(0 0)" fill="#404254">
                <rect fill="#f2f5e9" fill-opacity="0.5" stroke="#606060" stroke-width=".5" x="0" y="0" width="60" height="60"/>
                <use id="zoomplus" xlink:href="#zoomPlus" x="17" y="9" onmousedown="handleZoom(evt,'in')"/>
                <use id="zoomminus" xlink:href="#zoomMin" x="42" y="9" onmousedown="handleZoom(evt,'out')"/>
                <use id="reset" xlink:href="#resetDef" x="30" y="36" onmousedown="handleReset()"/>
                <g id="arrowUp" xlink:href="#dirArrow" transform="translate(30 24)" onmousedown="handlePan(0,-1)">
                  <use xlink:href="#rim" fill="#404040">
                        <set attributeName="fill" to="#808080" begin="arrowUp.mouseover" end="arrowUp.mouseout"/>
                  </use>
                  <path fill="none" stroke="white" stroke-width="1.5" d="M0,-3.0v7 M-2.5,-0.5L0,-3.0L2.5,-0.5"/>
                </g>
                <g id="arrowRight" xlink:href="#dirArrow" transform="rotate(90) translate(36 -43)" onmousedown="handlePan(1,0)">
                  <use xlink:href="#rim" fill="#404040">
                        <set attributeName="fill" to="#808080" begin="arrowRight.mouseover" end="arrowRight.mouseout"/>
                  </use>
                  <path fill="none" stroke="white" stroke-width="1.5" d="M0,-3.0v7 M-2.5,-0.5L0,-3.0L2.5,-0.5"/>
                </g>
                <g id="arrowDown" xlink:href="#dirArrow" transform="rotate(180) translate(-30 -48)" onmousedown="handlePan(0,1)">
                  <use xlink:href="#rim" fill="#404040">
                        <set attributeName="fill" to="#808080" begin="arrowDown.mouseover" end="arrowDown.mouseout"/>
                  </use>
                  <path fill="none" stroke="white" stroke-width="1.5" d="M0,-3.0v7 M-2.5,-0.5L0,-3.0L2.5,-0.5"/>
                </g>
                <g id="arrowLeft" xlink:href="#dirArrow" transform="rotate(270) translate(-36 17)" onmousedown="handlePan(-1,0)">
                  <use xlink:href="#rim" fill="#404040">
                        <set attributeName="fill" to="#808080" begin="arrowLeft.mouseover" end="arrowLeft.mouseout"/>
                  </use>
                  <path fill="none" stroke="white" stroke-width="1.5" d="M0,-3.0v7 M-2.5,-0.5L0,-3.0L2.5,-0.5"/>
                </g>
        </g>
        <svg viewBox="0 0 15 15" width="100%" height="30px" preserveAspectRatio="xMaxYMin meet">
         <g id="arrow_out" transform="scale(0.3 0.3)">
          <a xlink:href="matrix__wrapper_8h__incl_org.svg" target="_base">
           <rect id="button" ry="5" rx="5" y="6" x="6" height="38" width="38"
                fill="#f2f5e9" fill-opacity="0.5" stroke="#606060" stroke-width="1.0"/>
           <path id="arrow"
             d="M 11.500037,31.436501 C 11.940474,20.09759 22.043105,11.32322 32.158766,21.979434 L 37.068811,17.246167 C 37.068811,17.246167 37.088388,32 37.088388,32 L 22.160133,31.978069 C 22.160133,31.978069 26.997745,27.140456 26.997745,27.140456 C 18.528582,18.264221 13.291696,25.230495 11.500037,31.436501 z"
             style="fill:#404040;"/>
          </a>
         </g>
        </svg>
</svg>
