<?xml version="1.0" encoding="UTF-8" standalone="no"?>
<!DOCTYPE svg PUBLIC "-//W3C//DTD SVG 1.1//EN"
 "http://www.w3.org/Graphics/SVG/1.1/DTD/svg11.dtd">
<!-- Generated by graphviz version 2.38.0 (20140413.2041)
 -->
<!-- Title: marian::inits::from_vector Pages: 1 -->
<svg width="487pt" height="536pt"
 viewBox="0.00 0.00 487.00 536.00" xmlns="http://www.w3.org/2000/svg" xmlns:xlink="http://www.w3.org/1999/xlink">
<g id="graph0" class="graph" transform="scale(1 1) rotate(0) translate(4 532)">
<title>marian::inits::from_vector</title>
<polygon fill="white" stroke="none" points="-4,4 -4,-532 483,-532 483,4 -4,4"/>
<!-- Node1 -->
<g id="node1" class="node"><title>Node1</title>
<polygon fill="#bfbfbf" stroke="black" points="0,-257.5 0,-287.5 95,-287.5 95,-257.5 0,-257.5"/>
<text text-anchor="start" x="8" y="-275.5" font-family="Helvetica,sans-Serif" font-size="10.00">marian::inits::from</text>
<text text-anchor="middle" x="47.5" y="-264.5" font-family="Helvetica,sans-Serif" font-size="10.00">_vector</text>
</g>
<!-- Node2 -->
<g id="node2" class="node"><title>Node2</title>
<g id="a_node2"><a xlink:href="$db/d4b/classmarian_1_1BeamSearch.html#a6ee0fce9e694269a4c59f6afe48a4075" xlink:title="marian::BeamSearch\l::search">
<polygon fill="white" stroke="black" points="150.5,-497.5 150.5,-527.5 258.5,-527.5 258.5,-497.5 150.5,-497.5"/>
<text text-anchor="start" x="158.5" y="-515.5" font-family="Helvetica,sans-Serif" font-size="10.00">marian::BeamSearch</text>
<text text-anchor="middle" x="204.5" y="-504.5" font-family="Helvetica,sans-Serif" font-size="10.00">::search</text>
</a>
</g>
</g>
<!-- Node1&#45;&gt;Node2 -->
<g id="edge1" class="edge"><title>Node1&#45;&gt;Node2</title>
<path fill="none" stroke="midnightblue" d="M51.1437,-297.768C57.1567,-342.496 75.9093,-435.843 131,-488.5 136.559,-493.813 143.321,-497.951 150.454,-501.173"/>
<polygon fill="midnightblue" stroke="midnightblue" points="54.6051,-297.24 49.9029,-287.746 47.6582,-298.1 54.6051,-297.24"/>
</g>
<!-- Node3 -->
<g id="node3" class="node"><title>Node3</title>
<g id="a_node3"><a xlink:href="$dd/dc6/classmarian_1_1EncoderBase.html#a02e1594dfe8b093081c24f1aea1a35d6" xlink:title="marian::EncoderBase\l::lookup">
<polygon fill="white" stroke="black" points="149.5,-448.5 149.5,-478.5 259.5,-478.5 259.5,-448.5 149.5,-448.5"/>
<text text-anchor="start" x="157.5" y="-466.5" font-family="Helvetica,sans-Serif" font-size="10.00">marian::EncoderBase</text>
<text text-anchor="middle" x="204.5" y="-455.5" font-family="Helvetica,sans-Serif" font-size="10.00">::lookup</text>
</a>
</g>
</g>
<!-- Node1&#45;&gt;Node3 -->
<g id="edge2" class="edge"><title>Node1&#45;&gt;Node3</title>
<path fill="none" stroke="midnightblue" d="M54.3488,-297.689C64.0811,-334.1 87.027,-401.257 131,-439.5 136.402,-444.198 142.751,-447.982 149.407,-451.029"/>
<polygon fill="midnightblue" stroke="midnightblue" points="57.7059,-296.688 51.8455,-287.862 50.9225,-298.416 57.7059,-296.688"/>
</g>
<!-- Node5 -->
<g id="node5" class="node"><title>Node5</title>
<g id="a_node5"><a xlink:href="$db/d04/classmarian_1_1DecoderBase.html#a6b202f7578740e5f6045e15883bcd1ac" xlink:title="marian::DecoderBase\l::groundTruth">
<polygon fill="white" stroke="black" points="149,-399.5 149,-429.5 260,-429.5 260,-399.5 149,-399.5"/>
<text text-anchor="start" x="157" y="-417.5" font-family="Helvetica,sans-Serif" font-size="10.00">marian::DecoderBase</text>
<text text-anchor="middle" x="204.5" y="-406.5" font-family="Helvetica,sans-Serif" font-size="10.00">::groundTruth</text>
</a>
</g>
</g>
<!-- Node1&#45;&gt;Node5 -->
<g id="edge4" class="edge"><title>Node1&#45;&gt;Node5</title>
<path fill="none" stroke="midnightblue" d="M59.951,-297.037C73.4394,-323.418 98.227,-364.877 131,-389.5 136.429,-393.579 142.572,-397.025 148.929,-399.928"/>
<polygon fill="midnightblue" stroke="midnightblue" points="62.9164,-295.138 55.3415,-287.731 56.6437,-298.245 62.9164,-295.138"/>
</g>
<!-- Node7 -->
<g id="node7" class="node"><title>Node7</title>
<g id="a_node7"><a xlink:href="$d9/d05/graph__tests_8cpp.html#a6cf89c595ea58fa3333caaf0696f14b8" xlink:title="TEST_CASE">
<polygon fill="white" stroke="black" points="167,-361 167,-380 242,-380 242,-361 167,-361"/>
<text text-anchor="middle" x="204.5" y="-368" font-family="Helvetica,sans-Serif" font-size="10.00">TEST_CASE</text>
</a>
</g>
</g>
<!-- Node1&#45;&gt;Node7 -->
<g id="edge6" class="edge"><title>Node1&#45;&gt;Node7</title>
<path fill="none" stroke="midnightblue" d="M66.6644,-295.377C81.9983,-313.195 105.486,-337.228 131,-351.5 141.902,-357.598 154.822,-361.795 166.715,-364.658"/>
<polygon fill="midnightblue" stroke="midnightblue" points="69.3218,-293.098 60.2148,-287.684 63.9577,-297.596 69.3218,-293.098"/>
</g>
<!-- Node8 -->
<g id="node8" class="node"><title>Node8</title>
<g id="a_node8"><a xlink:href="$da/d22/namespacemarian.html#a1d13d69eb58fd5635225dbfbae4f4292" xlink:title="marian::guidedAlignmentCost">
<polygon fill="white" stroke="black" points="132,-323 132,-342 277,-342 277,-323 132,-323"/>
<text text-anchor="middle" x="204.5" y="-330" font-family="Helvetica,sans-Serif" font-size="10.00">marian::guidedAlignmentCost</text>
</a>
</g>
</g>
<!-- Node1&#45;&gt;Node8 -->
<g id="edge7" class="edge"><title>Node1&#45;&gt;Node8</title>
<path fill="none" stroke="midnightblue" d="M84.336,-292.311C98.571,-299.647 115.275,-307.603 131,-313.5 140.625,-317.109 151.214,-320.3 161.255,-322.988"/>
<polygon fill="midnightblue" stroke="midnightblue" points="85.8545,-289.156 75.3732,-287.609 82.6022,-295.354 85.8545,-289.156"/>
</g>
<!-- Node10 -->
<g id="node10" class="node"><title>Node10</title>
<g id="a_node10"><a xlink:href="$dc/df8/iris_8cpp.html#a229b50266006068cfc6cb91a88fec7bf" xlink:title="buildIrisClassifier">
<polygon fill="white" stroke="black" points="158.5,-285 158.5,-304 250.5,-304 250.5,-285 158.5,-285"/>
<text text-anchor="middle" x="204.5" y="-292" font-family="Helvetica,sans-Serif" font-size="10.00">buildIrisClassifier</text>
</a>
</g>
</g>
<!-- Node1&#45;&gt;Node10 -->
<g id="edge9" class="edge"><title>Node1&#45;&gt;Node10</title>
<path fill="none" stroke="midnightblue" d="M105.118,-280.536C122.648,-283.024 141.717,-285.731 158.36,-288.093"/>
<polygon fill="midnightblue" stroke="midnightblue" points="105.398,-277.041 95.0051,-279.101 104.414,-283.971 105.398,-277.041"/>
</g>
<!-- Node12 -->
<g id="node12" class="node"><title>Node12</title>
<g id="a_node12"><a xlink:href="$d3/d26/classmarian_1_1models_1_1LeNetModel.html#a7477e8409c126d83dae223d5cbd88f4c" xlink:title="Constructs an expression graph representing a feed&#45;forward classifier. ">
<polygon fill="white" stroke="black" points="133.5,-235.5 133.5,-265.5 275.5,-265.5 275.5,-235.5 133.5,-235.5"/>
<text text-anchor="start" x="141.5" y="-253.5" font-family="Helvetica,sans-Serif" font-size="10.00">marian::models::LeNetModel</text>
<text text-anchor="middle" x="204.5" y="-242.5" font-family="Helvetica,sans-Serif" font-size="10.00">::FeedforwardClassifier</text>
</a>
</g>
</g>
<!-- Node1&#45;&gt;Node12 -->
<g id="edge11" class="edge"><title>Node1&#45;&gt;Node12</title>
<path fill="none" stroke="midnightblue" d="M105.118,-264.464C114.26,-263.166 123.82,-261.809 133.237,-260.473"/>
<polygon fill="midnightblue" stroke="midnightblue" points="104.414,-261.029 95.0051,-265.899 105.398,-267.959 104.414,-261.029"/>
</g>
<!-- Node14 -->
<g id="node14" class="node"><title>Node14</title>
<g id="a_node14"><a xlink:href="$dc/d10/classmarian_1_1models_1_1MNISTModel.html#ad6f17d5d5db7302dd4a9daec556ed121" xlink:title="Constructs an expression graph representing a feed&#45;forward classifier. ">
<polygon fill="white" stroke="black" points="131,-186.5 131,-216.5 278,-216.5 278,-186.5 131,-186.5"/>
<text text-anchor="start" x="139" y="-204.5" font-family="Helvetica,sans-Serif" font-size="10.00">marian::models::MNISTModel</text>
<text text-anchor="middle" x="204.5" y="-193.5" font-family="Helvetica,sans-Serif" font-size="10.00">::FeedforwardClassifier</text>
</a>
</g>
</g>
<!-- Node1&#45;&gt;Node14 -->
<g id="edge13" class="edge"><title>Node1&#45;&gt;Node14</title>
<path fill="none" stroke="midnightblue" d="M81.6084,-252.278C96.41,-243.701 114.263,-233.982 131,-226.5 138.901,-222.968 147.463,-219.618 155.842,-216.586"/>
<polygon fill="midnightblue" stroke="midnightblue" points="79.6722,-249.356 72.8238,-257.44 83.2186,-255.391 79.6722,-249.356"/>
</g>
<!-- Node16 -->
<g id="node16" class="node"><title>Node16</title>
<g id="a_node16"><a xlink:href="$d4/dec/namespacemarian_1_1inits.html#a4d7520676277911627cd1d73ac2380c6" xlink:title="marian::inits::distribution">
<polygon fill="white" stroke="black" points="143,-148 143,-167 266,-167 266,-148 143,-148"/>
<text text-anchor="middle" x="204.5" y="-155" font-family="Helvetica,sans-Serif" font-size="10.00">marian::inits::distribution</text>
</a>
</g>
</g>
<!-- Node1&#45;&gt;Node16 -->
<g id="edge15" class="edge"><title>Node1&#45;&gt;Node16</title>
<path fill="none" stroke="midnightblue" d="M63.3048,-248.551C77.921,-226.873 102.219,-195.642 131,-177.5 137.848,-173.183 145.632,-169.784 153.496,-167.112"/>
<polygon fill="midnightblue" stroke="midnightblue" points="60.1977,-246.907 57.6486,-257.191 66.0543,-250.742 60.1977,-246.907"/>
</g>
<!-- Node17 -->
<g id="node17" class="node"><title>Node17</title>
<g id="a_node17"><a xlink:href="$d5/d22/classmarian_1_1EncoderDecoderRec.html#a470e9aaddae95fc1a1d5ecaabf06a1fe" xlink:title="marian::EncoderDecoderRec\l::reconstructorGroundTruth">
<polygon fill="white" stroke="black" points="133,-98.5 133,-128.5 276,-128.5 276,-98.5 133,-98.5"/>
<text text-anchor="start" x="141" y="-116.5" font-family="Helvetica,sans-Serif" font-size="10.00">marian::EncoderDecoderRec</text>
<text text-anchor="middle" x="204.5" y="-105.5" font-family="Helvetica,sans-Serif" font-size="10.00">::reconstructorGroundTruth</text>
</a>
</g>
</g>
<!-- Node1&#45;&gt;Node17 -->
<g id="edge16" class="edge"><title>Node1&#45;&gt;Node17</title>
<path fill="none" stroke="midnightblue" d="M57.5589,-247.968C69.8074,-218.038 94.4145,-167.814 131,-138.5 135.78,-134.67 141.182,-131.41 146.83,-128.638"/>
<polygon fill="midnightblue" stroke="midnightblue" points="54.2989,-246.694 53.8793,-257.281 60.8092,-249.267 54.2989,-246.694"/>
</g>
<!-- Node19 -->
<g id="node19" class="node"><title>Node19</title>
<g id="a_node19"><a xlink:href="$da/d63/classmarian_1_1WordPenalty.html#a1569dc5b0d385a1cc86d230e1aeda263" xlink:title="marian::WordPenalty\l::startState">
<polygon fill="white" stroke="black" points="150.5,-49.5 150.5,-79.5 258.5,-79.5 258.5,-49.5 150.5,-49.5"/>
<text text-anchor="start" x="158.5" y="-67.5" font-family="Helvetica,sans-Serif" font-size="10.00">marian::WordPenalty</text>
<text text-anchor="middle" x="204.5" y="-56.5" font-family="Helvetica,sans-Serif" font-size="10.00">::startState</text>
</a>
</g>
</g>
<!-- Node1&#45;&gt;Node19 -->
<g id="edge18" class="edge"><title>Node1&#45;&gt;Node19</title>
<path fill="none" stroke="midnightblue" d="M53.2044,-247.298C61.8008,-208.126 83.702,-132.658 131,-89.5 136.606,-84.3847 143.31,-80.3079 150.345,-77.0608"/>
<polygon fill="midnightblue" stroke="midnightblue" points="49.7281,-246.824 51.1225,-257.327 56.582,-248.247 49.7281,-246.824"/>
</g>
<!-- Node20 -->
<g id="node20" class="node"><title>Node20</title>
<g id="a_node20"><a xlink:href="$d5/de6/classmarian_1_1UnseenWordPenalty.html#a82b26a81ff8b5fa14747358ea82736f8" xlink:title="marian::UnseenWordPenalty\l::startState">
<polygon fill="white" stroke="black" points="133.5,-0.5 133.5,-30.5 275.5,-30.5 275.5,-0.5 133.5,-0.5"/>
<text text-anchor="start" x="141.5" y="-18.5" font-family="Helvetica,sans-Serif" font-size="10.00">marian::UnseenWordPenalty</text>
<text text-anchor="middle" x="204.5" y="-7.5" font-family="Helvetica,sans-Serif" font-size="10.00">::startState</text>
</a>
</g>
</g>
<!-- Node1&#45;&gt;Node20 -->
<g id="edge19" class="edge"><title>Node1&#45;&gt;Node20</title>
<path fill="none" stroke="midnightblue" d="M50.4488,-247.153C55.4182,-199.985 72.6544,-98.2882 131,-40.5 134.878,-36.6586 139.374,-33.4064 144.19,-30.6532"/>
<polygon fill="midnightblue" stroke="midnightblue" points="46.9373,-247.109 49.4752,-257.395 53.9059,-247.771 46.9373,-247.109"/>
</g>
<!-- Node4 -->
<g id="node4" class="node"><title>Node4</title>
<g id="a_node4"><a xlink:href="$d3/dbc/classmarian_1_1EncoderS2S.html#ac7066b7a2aabebd2efce08215a1c00c7" xlink:title="marian::EncoderS2S\l::build">
<polygon fill="white" stroke="black" points="343,-448.5 343,-478.5 450,-478.5 450,-448.5 343,-448.5"/>
<text text-anchor="start" x="351" y="-466.5" font-family="Helvetica,sans-Serif" font-size="10.00">marian::EncoderS2S</text>
<text text-anchor="middle" x="396.5" y="-455.5" font-family="Helvetica,sans-Serif" font-size="10.00">::build</text>
</a>
</g>
</g>
<!-- Node3&#45;&gt;Node4 -->
<g id="edge3" class="edge"><title>Node3&#45;&gt;Node4</title>
<path fill="none" stroke="midnightblue" d="M269.699,-463.5C293.51,-463.5 320.215,-463.5 342.875,-463.5"/>
<polygon fill="midnightblue" stroke="midnightblue" points="269.692,-460 259.692,-463.5 269.692,-467 269.692,-460"/>
</g>
<!-- Node6 -->
<g id="node6" class="node"><title>Node6</title>
<g id="a_node6"><a xlink:href="$d1/dcc/classmarian_1_1DecoderHardAtt.html#a20c5fc9460ee067576498a4e1c653706" xlink:title="marian::DecoderHardAtt\l::groundTruth">
<polygon fill="white" stroke="black" points="335.5,-399.5 335.5,-429.5 457.5,-429.5 457.5,-399.5 335.5,-399.5"/>
<text text-anchor="start" x="343.5" y="-417.5" font-family="Helvetica,sans-Serif" font-size="10.00">marian::DecoderHardAtt</text>
<text text-anchor="middle" x="396.5" y="-406.5" font-family="Helvetica,sans-Serif" font-size="10.00">::groundTruth</text>
</a>
</g>
</g>
<!-- Node5&#45;&gt;Node6 -->
<g id="edge5" class="edge"><title>Node5&#45;&gt;Node6</title>
<path fill="none" stroke="midnightblue" d="M270.316,-414.5C291.324,-414.5 314.529,-414.5 335.194,-414.5"/>
<polygon fill="midnightblue" stroke="midnightblue" points="270.201,-411 260.201,-414.5 270.201,-418 270.201,-411"/>
</g>
<!-- Node9 -->
<g id="node9" class="node"><title>Node9</title>
<g id="a_node9"><a xlink:href="$d7/d2c/classmarian_1_1EncoderDecoder.html#a859d35d8ad42e6de1f8a55d5efa9b998" xlink:title="marian::EncoderDecoder\l\&lt; MultiEncoderS2S, MultiDecoder\lS2S \&gt;::build">
<polygon fill="white" stroke="black" points="314,-323 314,-364 479,-364 479,-323 314,-323"/>
<text text-anchor="start" x="322" y="-352" font-family="Helvetica,sans-Serif" font-size="10.00">marian::EncoderDecoder</text>
<text text-anchor="start" x="322" y="-341" font-family="Helvetica,sans-Serif" font-size="10.00">&lt; MultiEncoderS2S, MultiDecoder</text>
<text text-anchor="middle" x="396.5" y="-330" font-family="Helvetica,sans-Serif" font-size="10.00">S2S &gt;::build</text>
</a>
</g>
</g>
<!-- Node8&#45;&gt;Node9 -->
<g id="edge8" class="edge"><title>Node8&#45;&gt;Node9</title>
<path fill="none" stroke="midnightblue" d="M287.286,-337.235C296.073,-337.744 305.014,-338.261 313.8,-338.77"/>
<polygon fill="midnightblue" stroke="midnightblue" points="287.246,-333.727 277.06,-336.643 286.841,-340.715 287.246,-333.727"/>
</g>
<!-- Node11 -->
<g id="node11" class="node"><title>Node11</title>
<g id="a_node11"><a xlink:href="$dc/df8/iris_8cpp.html#ae66f6b31b5ad750f1fe042a706a4e3d4" xlink:title="main">
<polygon fill="white" stroke="black" points="377.5,-285 377.5,-304 415.5,-304 415.5,-285 377.5,-285"/>
<text text-anchor="middle" x="396.5" y="-292" font-family="Helvetica,sans-Serif" font-size="10.00">main</text>
</a>
</g>
</g>
<!-- Node10&#45;&gt;Node11 -->
<g id="edge10" class="edge"><title>Node10&#45;&gt;Node11</title>
<path fill="none" stroke="midnightblue" d="M260.53,-294.5C299.895,-294.5 350.458,-294.5 377.131,-294.5"/>
<polygon fill="midnightblue" stroke="midnightblue" points="260.527,-291 250.527,-294.5 260.527,-298 260.527,-291"/>
</g>
<!-- Node13 -->
<g id="node13" class="node"><title>Node13</title>
<g id="a_node13"><a xlink:href="$d3/d26/classmarian_1_1models_1_1LeNetModel.html#a3c8a71b2d5258f947e2745ab4acc706f" xlink:title="marian::models::LeNetModel\l::build">
<polygon fill="white" stroke="black" points="325.5,-235.5 325.5,-265.5 467.5,-265.5 467.5,-235.5 325.5,-235.5"/>
<text text-anchor="start" x="333.5" y="-253.5" font-family="Helvetica,sans-Serif" font-size="10.00">marian::models::LeNetModel</text>
<text text-anchor="middle" x="396.5" y="-242.5" font-family="Helvetica,sans-Serif" font-size="10.00">::build</text>
</a>
</g>
</g>
<!-- Node12&#45;&gt;Node13 -->
<g id="edge12" class="edge"><title>Node12&#45;&gt;Node13</title>
<path fill="none" stroke="midnightblue" d="M286.062,-250.5C299.095,-250.5 312.499,-250.5 325.262,-250.5"/>
<polygon fill="midnightblue" stroke="midnightblue" points="285.709,-247 275.709,-250.5 285.709,-254 285.709,-247"/>
</g>
<!-- Node15 -->
<g id="node15" class="node"><title>Node15</title>
<g id="a_node15"><a xlink:href="$dc/d10/classmarian_1_1models_1_1MNISTModel.html#aacea07dc6d02c753955564f36df0959c" xlink:title="marian::models::MNISTModel\l::build">
<polygon fill="white" stroke="black" points="323,-186.5 323,-216.5 470,-216.5 470,-186.5 323,-186.5"/>
<text text-anchor="start" x="331" y="-204.5" font-family="Helvetica,sans-Serif" font-size="10.00">marian::models::MNISTModel</text>
<text text-anchor="middle" x="396.5" y="-193.5" font-family="Helvetica,sans-Serif" font-size="10.00">::build</text>
</a>
</g>
</g>
<!-- Node14&#45;&gt;Node15 -->
<g id="edge14" class="edge"><title>Node14&#45;&gt;Node15</title>
<path fill="none" stroke="midnightblue" d="M288.211,-201.5C299.759,-201.5 311.554,-201.5 322.896,-201.5"/>
<polygon fill="midnightblue" stroke="midnightblue" points="288.144,-198 278.144,-201.5 288.144,-205 288.144,-198"/>
</g>
<!-- Node18 -->
<g id="node18" class="node"><title>Node18</title>
<g id="a_node18"><a xlink:href="$d5/d22/classmarian_1_1EncoderDecoderRec.html#a5d7be4c554cdd6752a8ee5964ff116c2" xlink:title="marian::EncoderDecoderRec\l::build">
<polygon fill="white" stroke="black" points="325,-98.5 325,-128.5 468,-128.5 468,-98.5 325,-98.5"/>
<text text-anchor="start" x="333" y="-116.5" font-family="Helvetica,sans-Serif" font-size="10.00">marian::EncoderDecoderRec</text>
<text text-anchor="middle" x="396.5" y="-105.5" font-family="Helvetica,sans-Serif" font-size="10.00">::build</text>
</a>
</g>
</g>
<!-- Node17&#45;&gt;Node18 -->
<g id="edge17" class="edge"><title>Node17&#45;&gt;Node18</title>
<path fill="none" stroke="midnightblue" d="M286.374,-113.5C299.115,-113.5 312.202,-113.5 324.692,-113.5"/>
<polygon fill="midnightblue" stroke="midnightblue" points="286.249,-110 276.249,-113.5 286.249,-117 286.249,-110"/>
</g>
</g>
</svg>
