<?xml version="1.0" encoding="UTF-8" standalone="no"?>
<!DOCTYPE svg PUBLIC "-//W3C//DTD SVG 1.1//EN"
 "http://www.w3.org/Graphics/SVG/1.1/DTD/svg11.dtd">
<!-- Generated by graphviz version 2.38.0 (20140413.2041)
 -->
<!-- Title: marian::inits::zeros Pages: 1 -->
<svg width="474pt" height="839pt"
 viewBox="0.00 0.00 474.00 838.77" xmlns="http://www.w3.org/2000/svg" xmlns:xlink="http://www.w3.org/1999/xlink">
<g id="graph0" class="graph" transform="scale(1 1) rotate(0) translate(4 834.773)">
<title>marian::inits::zeros</title>
<polygon fill="white" stroke="none" points="-4,4 -4,-834.773 470,-834.773 470,4 -4,4"/>
<!-- Node1 -->
<g id="node1" class="node"><title>Node1</title>
<polygon fill="#bfbfbf" stroke="black" points="0,-396.773 0,-415.773 100,-415.773 100,-396.773 0,-396.773"/>
<text text-anchor="middle" x="50" y="-403.773" font-family="Helvetica,sans-Serif" font-size="10.00">marian::inits::zeros</text>
</g>
<!-- Node2 -->
<g id="node2" class="node"><title>Node2</title>
<g id="a_node2"><a xlink:href="$d7/db4/classmarian_1_1rnn_1_1GlobalAttention.html#ab5e4f0df89d2569d44a28696de3ace0f" xlink:title="marian::rnn::GlobalAttention\l::GlobalAttention">
<polygon fill="white" stroke="black" points="140.5,-800.273 140.5,-830.273 278.5,-830.273 278.5,-800.273 140.5,-800.273"/>
<text text-anchor="start" x="148.5" y="-818.273" font-family="Helvetica,sans-Serif" font-size="10.00">marian::rnn::GlobalAttention</text>
<text text-anchor="middle" x="209.5" y="-807.273" font-family="Helvetica,sans-Serif" font-size="10.00">::GlobalAttention</text>
</a>
</g>
</g>
<!-- Node1&#45;&gt;Node2 -->
<g id="edge1" class="edge"><title>Node1&#45;&gt;Node2</title>
<path fill="none" stroke="midnightblue" d="M52.8455,-426.056C59.8035,-496.644 86.5997,-734.882 136,-790.273 139.456,-794.148 143.542,-797.423 147.985,-800.19"/>
<polygon fill="midnightblue" stroke="midnightblue" points="56.3088,-425.505 51.8674,-415.886 49.3409,-426.175 56.3088,-425.505"/>
</g>
<!-- Node3 -->
<g id="node3" class="node"><title>Node3</title>
<g id="a_node3"><a xlink:href="$d0/d1d/classmarian_1_1rnn_1_1Tanh.html#ae1971d0005d9f0bdb08ed2c0ecec32dc" xlink:title="marian::rnn::Tanh::Tanh">
<polygon fill="white" stroke="black" points="149,-761.773 149,-780.773 270,-780.773 270,-761.773 149,-761.773"/>
<text text-anchor="middle" x="209.5" y="-768.773" font-family="Helvetica,sans-Serif" font-size="10.00">marian::rnn::Tanh::Tanh</text>
</a>
</g>
</g>
<!-- Node1&#45;&gt;Node3 -->
<g id="edge2" class="edge"><title>Node1&#45;&gt;Node3</title>
<path fill="none" stroke="midnightblue" d="M53.1945,-425.918C60.9626,-492.002 89.2296,-704.776 136,-752.273 139.743,-756.074 144.147,-759.145 148.904,-761.623"/>
<polygon fill="midnightblue" stroke="midnightblue" points="56.6715,-425.517 52.0525,-415.982 49.7173,-426.316 56.6715,-425.517"/>
</g>
<!-- Node4 -->
<g id="node4" class="node"><title>Node4</title>
<g id="a_node4"><a xlink:href="$d7/d03/classmarian_1_1rnn_1_1GRU.html#a3f47434b08986222608a2a31f776c334" xlink:title="marian::rnn::GRU::GRU">
<polygon fill="white" stroke="black" points="148.5,-723.773 148.5,-742.773 270.5,-742.773 270.5,-723.773 148.5,-723.773"/>
<text text-anchor="middle" x="209.5" y="-730.773" font-family="Helvetica,sans-Serif" font-size="10.00">marian::rnn::GRU::GRU</text>
</a>
</g>
</g>
<!-- Node1&#45;&gt;Node4 -->
<g id="edge3" class="edge"><title>Node1&#45;&gt;Node4</title>
<path fill="none" stroke="midnightblue" d="M50.1869,-425.998C49.0855,-480.268 53.8113,-633.143 136,-714.273 139.889,-718.112 144.454,-721.203 149.367,-723.688"/>
<polygon fill="midnightblue" stroke="midnightblue" points="53.6861,-426.075 50.4846,-415.976 46.6891,-425.867 53.6861,-426.075"/>
</g>
<!-- Node5 -->
<g id="node5" class="node"><title>Node5</title>
<g id="a_node5"><a xlink:href="$d7/d03/classmarian_1_1rnn_1_1GRU.html#a80e15118ba400b0e393a4b2eb9fcf23d" xlink:title="marian::rnn::GRU::applyState">
<polygon fill="white" stroke="black" points="136.5,-685.773 136.5,-704.773 282.5,-704.773 282.5,-685.773 136.5,-685.773"/>
<text text-anchor="middle" x="209.5" y="-692.773" font-family="Helvetica,sans-Serif" font-size="10.00">marian::rnn::GRU::applyState</text>
</a>
</g>
</g>
<!-- Node1&#45;&gt;Node5 -->
<g id="edge4" class="edge"><title>Node1&#45;&gt;Node5</title>
<path fill="none" stroke="midnightblue" d="M51.0901,-425.857C52.425,-475.414 63.0406,-606.782 136,-676.273 140.051,-680.132 144.787,-683.231 149.863,-685.715"/>
<polygon fill="midnightblue" stroke="midnightblue" points="54.5893,-425.773 50.9221,-415.833 47.5903,-425.891 54.5893,-425.773"/>
</g>
<!-- Node6 -->
<g id="node6" class="node"><title>Node6</title>
<g id="a_node6"><a xlink:href="$db/df5/classmarian_1_1rnn_1_1FastLSTM.html#a86992e0f6dc2d22b32f57d482b2661c0" xlink:title="marian::rnn::FastLSTM\l::FastLSTM">
<polygon fill="white" stroke="black" points="151,-636.273 151,-666.273 268,-666.273 268,-636.273 151,-636.273"/>
<text text-anchor="start" x="159" y="-654.273" font-family="Helvetica,sans-Serif" font-size="10.00">marian::rnn::FastLSTM</text>
<text text-anchor="middle" x="209.5" y="-643.273" font-family="Helvetica,sans-Serif" font-size="10.00">::FastLSTM</text>
</a>
</g>
</g>
<!-- Node1&#45;&gt;Node6 -->
<g id="edge5" class="edge"><title>Node1&#45;&gt;Node6</title>
<path fill="none" stroke="midnightblue" d="M52.9784,-426.011C58.316,-468.821 76.8647,-570.882 136,-627.273 140.318,-631.391 145.358,-634.802 150.733,-637.629"/>
<polygon fill="midnightblue" stroke="midnightblue" points="56.4263,-425.354 51.8223,-415.811 49.4708,-426.142 56.4263,-425.354"/>
</g>
<!-- Node7 -->
<g id="node7" class="node"><title>Node7</title>
<g id="a_node7"><a xlink:href="$db/df5/classmarian_1_1rnn_1_1FastLSTM.html#a3d1a86ed6706682489aeaeac9e41ee4e" xlink:title="marian::rnn::FastLSTM\l::applyState">
<polygon fill="white" stroke="black" points="151,-587.273 151,-617.273 268,-617.273 268,-587.273 151,-587.273"/>
<text text-anchor="start" x="159" y="-605.273" font-family="Helvetica,sans-Serif" font-size="10.00">marian::rnn::FastLSTM</text>
<text text-anchor="middle" x="209.5" y="-594.273" font-family="Helvetica,sans-Serif" font-size="10.00">::applyState</text>
</a>
</g>
</g>
<!-- Node1&#45;&gt;Node7 -->
<g id="edge6" class="edge"><title>Node1&#45;&gt;Node7</title>
<path fill="none" stroke="midnightblue" d="M55.4573,-426.173C64.456,-461.806 88.1449,-536.66 136,-578.273 140.402,-582.101 145.433,-585.322 150.746,-588.032"/>
<polygon fill="midnightblue" stroke="midnightblue" points="58.7717,-424.984 53.0398,-416.074 51.964,-426.614 58.7717,-424.984"/>
</g>
<!-- Node8 -->
<g id="node8" class="node"><title>Node8</title>
<g id="a_node8"><a xlink:href="$de/da0/classmarian_1_1rnn_1_1Multiplicative.html#a0e9039699e77cdb7275ee0cd8dfc6f3b" xlink:title="marian::rnn::Multiplicative\l::Multiplicative">
<polygon fill="white" stroke="black" points="145.5,-538.273 145.5,-568.273 273.5,-568.273 273.5,-538.273 145.5,-538.273"/>
<text text-anchor="start" x="153.5" y="-556.273" font-family="Helvetica,sans-Serif" font-size="10.00">marian::rnn::Multiplicative</text>
<text text-anchor="middle" x="209.5" y="-545.273" font-family="Helvetica,sans-Serif" font-size="10.00">::Multiplicative</text>
</a>
</g>
</g>
<!-- Node1&#45;&gt;Node8 -->
<g id="edge7" class="edge"><title>Node1&#45;&gt;Node8</title>
<path fill="none" stroke="midnightblue" d="M59.138,-424.95C71.7727,-451.83 98.6039,-501.262 136,-529.273 140.563,-532.691 145.639,-535.638 150.926,-538.175"/>
<polygon fill="midnightblue" stroke="midnightblue" points="62.3231,-423.499 54.9983,-415.844 55.9506,-426.396 62.3231,-423.499"/>
</g>
<!-- Node9 -->
<g id="node9" class="node"><title>Node9</title>
<g id="a_node9"><a xlink:href="$db/ddd/classmarian_1_1rnn_1_1SlowLSTM.html#a28c3e53540b5187322118062ba5cdc52" xlink:title="marian::rnn::SlowLSTM\l::SlowLSTM">
<polygon fill="white" stroke="black" points="150,-489.273 150,-519.273 269,-519.273 269,-489.273 150,-489.273"/>
<text text-anchor="start" x="158" y="-507.273" font-family="Helvetica,sans-Serif" font-size="10.00">marian::rnn::SlowLSTM</text>
<text text-anchor="middle" x="209.5" y="-496.273" font-family="Helvetica,sans-Serif" font-size="10.00">::SlowLSTM</text>
</a>
</g>
</g>
<!-- Node1&#45;&gt;Node9 -->
<g id="edge8" class="edge"><title>Node1&#45;&gt;Node9</title>
<path fill="none" stroke="midnightblue" d="M66.4671,-423.196C82.4497,-439.79 108.828,-464.788 136,-480.273 141.875,-483.621 148.286,-486.588 154.787,-489.192"/>
<polygon fill="midnightblue" stroke="midnightblue" points="68.9046,-420.68 59.4983,-415.804 63.811,-425.481 68.9046,-420.68"/>
</g>
<!-- Node10 -->
<g id="node10" class="node"><title>Node10</title>
<g id="a_node10"><a xlink:href="$d7/d30/classmarian_1_1rnn_1_1TestLSTM.html#afd996ed5e9ee36a15247187e3f67fd78" xlink:title="marian::rnn::TestLSTM\l::TestLSTM">
<polygon fill="white" stroke="black" points="151,-440.273 151,-470.273 268,-470.273 268,-440.273 151,-440.273"/>
<text text-anchor="start" x="159" y="-458.273" font-family="Helvetica,sans-Serif" font-size="10.00">marian::rnn::TestLSTM</text>
<text text-anchor="middle" x="209.5" y="-447.273" font-family="Helvetica,sans-Serif" font-size="10.00">::TestLSTM</text>
</a>
</g>
</g>
<!-- Node1&#45;&gt;Node10 -->
<g id="edge9" class="edge"><title>Node1&#45;&gt;Node10</title>
<path fill="none" stroke="midnightblue" d="M91.3155,-418.816C112.303,-425.345 138.115,-433.375 160.167,-440.236"/>
<polygon fill="midnightblue" stroke="midnightblue" points="92.3298,-415.466 81.7415,-415.837 90.2503,-422.15 92.3298,-415.466"/>
</g>
<!-- Node11 -->
<g id="node11" class="node"><title>Node11</title>
<g id="a_node11"><a xlink:href="$d8/d2c/classmarian_1_1Convolution.html#ac5755a44695ec454ca80d8f309a20e80" xlink:title="marian::Convolution\l::operator()">
<polygon fill="white" stroke="black" points="157.5,-391.273 157.5,-421.273 261.5,-421.273 261.5,-391.273 157.5,-391.273"/>
<text text-anchor="start" x="165.5" y="-409.273" font-family="Helvetica,sans-Serif" font-size="10.00">marian::Convolution</text>
<text text-anchor="middle" x="209.5" y="-398.273" font-family="Helvetica,sans-Serif" font-size="10.00">::operator()</text>
</a>
</g>
</g>
<!-- Node1&#45;&gt;Node11 -->
<g id="edge10" class="edge"><title>Node1&#45;&gt;Node11</title>
<path fill="none" stroke="midnightblue" d="M110.826,-406.273C126.163,-406.273 142.518,-406.273 157.372,-406.273"/>
<polygon fill="midnightblue" stroke="midnightblue" points="110.402,-402.773 100.402,-406.273 110.402,-409.773 110.402,-402.773"/>
</g>
<!-- Node12 -->
<g id="node12" class="node"><title>Node12</title>
<g id="a_node12"><a xlink:href="$db/d04/classmarian_1_1DecoderBase.html#aedde227a468dd3d8aa9e94c558d4bd2f" xlink:title="marian::DecoderBase\l::selectEmbeddings">
<polygon fill="white" stroke="black" points="154,-342.273 154,-372.273 265,-372.273 265,-342.273 154,-342.273"/>
<text text-anchor="start" x="162" y="-360.273" font-family="Helvetica,sans-Serif" font-size="10.00">marian::DecoderBase</text>
<text text-anchor="middle" x="209.5" y="-349.273" font-family="Helvetica,sans-Serif" font-size="10.00">::selectEmbeddings</text>
</a>
</g>
</g>
<!-- Node1&#45;&gt;Node12 -->
<g id="edge11" class="edge"><title>Node1&#45;&gt;Node12</title>
<path fill="none" stroke="midnightblue" d="M91.3155,-393.731C112.303,-387.201 138.115,-379.171 160.167,-372.31"/>
<polygon fill="midnightblue" stroke="midnightblue" points="90.2503,-390.396 81.7415,-396.709 92.3298,-397.08 90.2503,-390.396"/>
</g>
<!-- Node15 -->
<g id="node15" class="node"><title>Node15</title>
<g id="a_node15"><a xlink:href="$da/db9/classmarian_1_1ExpressionGraph.html#a5287d5dbc9db07b0d00e5cbf58d168c3" xlink:title="Constructs a new node representing a constant (with value 0) in an expression graph. ">
<polygon fill="white" stroke="black" points="146,-293.273 146,-323.273 273,-323.273 273,-293.273 146,-293.273"/>
<text text-anchor="start" x="154" y="-311.273" font-family="Helvetica,sans-Serif" font-size="10.00">marian::ExpressionGraph</text>
<text text-anchor="middle" x="209.5" y="-300.273" font-family="Helvetica,sans-Serif" font-size="10.00">::zeros</text>
</a>
</g>
</g>
<!-- Node1&#45;&gt;Node15 -->
<g id="edge14" class="edge"><title>Node1&#45;&gt;Node15</title>
<path fill="none" stroke="midnightblue" d="M67.0736,-389.132C83.1694,-372.828 109.32,-348.579 136,-333.273 142.467,-329.563 149.574,-326.28 156.732,-323.414"/>
<polygon fill="midnightblue" stroke="midnightblue" points="64.4574,-386.803 60.0214,-396.424 69.4892,-391.669 64.4574,-386.803"/>
</g>
<!-- Node16 -->
<g id="node16" class="node"><title>Node16</title>
<g id="a_node16"><a xlink:href="$d2/d88/generic_8h.html#a2c61aac8c1ec585882b5b11755204516" xlink:title="YAML_REGISTER_TYPE">
<polygon fill="white" stroke="black" points="143.5,-254.773 143.5,-273.773 275.5,-273.773 275.5,-254.773 143.5,-254.773"/>
<text text-anchor="middle" x="209.5" y="-261.773" font-family="Helvetica,sans-Serif" font-size="10.00">YAML_REGISTER_TYPE</text>
</a>
</g>
</g>
<!-- Node1&#45;&gt;Node16 -->
<g id="edge15" class="edge"><title>Node1&#45;&gt;Node16</title>
<path fill="none" stroke="midnightblue" d="M58.9959,-387.497C71.4535,-360.524 98.0664,-311.11 136,-284.273 142.182,-279.899 149.285,-276.481 156.573,-273.809"/>
<polygon fill="midnightblue" stroke="midnightblue" points="55.7941,-386.084 54.9204,-396.643 62.1879,-388.933 55.7941,-386.084"/>
</g>
<!-- Node17 -->
<g id="node17" class="node"><title>Node17</title>
<g id="a_node17"><a xlink:href="$d9/d05/graph__tests_8cpp.html#a6cf89c595ea58fa3333caaf0696f14b8" xlink:title="TEST_CASE">
<polygon fill="white" stroke="black" points="172,-216.773 172,-235.773 247,-235.773 247,-216.773 172,-216.773"/>
<text text-anchor="middle" x="209.5" y="-223.773" font-family="Helvetica,sans-Serif" font-size="10.00">TEST_CASE</text>
</a>
</g>
</g>
<!-- Node1&#45;&gt;Node17 -->
<g id="edge16" class="edge"><title>Node1&#45;&gt;Node17</title>
<path fill="none" stroke="midnightblue" d="M55.7294,-386.857C65.0484,-352.827 89.0787,-282.498 136,-245.273 146.194,-237.186 159.486,-232.518 171.901,-229.832"/>
<polygon fill="midnightblue" stroke="midnightblue" points="52.3402,-385.983 53.2102,-396.542 59.1148,-387.745 52.3402,-385.983"/>
</g>
<!-- Node18 -->
<g id="node18" class="node"><title>Node18</title>
<g id="a_node18"><a xlink:href="$dc/df8/iris_8cpp.html#a229b50266006068cfc6cb91a88fec7bf" xlink:title="buildIrisClassifier">
<polygon fill="white" stroke="black" points="163.5,-178.773 163.5,-197.773 255.5,-197.773 255.5,-178.773 163.5,-178.773"/>
<text text-anchor="middle" x="209.5" y="-185.773" font-family="Helvetica,sans-Serif" font-size="10.00">buildIrisClassifier</text>
</a>
</g>
</g>
<!-- Node1&#45;&gt;Node18 -->
<g id="edge17" class="edge"><title>Node1&#45;&gt;Node18</title>
<path fill="none" stroke="midnightblue" d="M53.62,-386.592C60.0163,-346.563 80.2117,-255.391 136,-207.273 143.685,-200.644 153.418,-196.291 163.237,-193.442"/>
<polygon fill="midnightblue" stroke="midnightblue" points="50.1325,-386.251 52.1358,-396.655 57.0576,-387.272 50.1325,-386.251"/>
</g>
<!-- Node20 -->
<g id="node20" class="node"><title>Node20</title>
<g id="a_node20"><a xlink:href="$d3/d26/classmarian_1_1models_1_1LeNetModel.html#a7477e8409c126d83dae223d5cbd88f4c" xlink:title="Constructs an expression graph representing a feed&#45;forward classifier. ">
<polygon fill="white" stroke="black" points="138.5,-129.273 138.5,-159.273 280.5,-159.273 280.5,-129.273 138.5,-129.273"/>
<text text-anchor="start" x="146.5" y="-147.273" font-family="Helvetica,sans-Serif" font-size="10.00">marian::models::LeNetModel</text>
<text text-anchor="middle" x="209.5" y="-136.273" font-family="Helvetica,sans-Serif" font-size="10.00">::FeedforwardClassifier</text>
</a>
</g>
</g>
<!-- Node1&#45;&gt;Node20 -->
<g id="edge19" class="edge"><title>Node1&#45;&gt;Node20</title>
<path fill="none" stroke="midnightblue" d="M52.4583,-386.399C56.8174,-341.403 73.6339,-230.877 136,-169.273 139.884,-165.437 144.383,-162.188 149.201,-159.437"/>
<polygon fill="midnightblue" stroke="midnightblue" points="48.9521,-386.321 51.5813,-396.584 55.9263,-386.921 48.9521,-386.321"/>
</g>
<!-- Node22 -->
<g id="node22" class="node"><title>Node22</title>
<g id="a_node22"><a xlink:href="$dc/d10/classmarian_1_1models_1_1MNISTModel.html#ad6f17d5d5db7302dd4a9daec556ed121" xlink:title="Constructs an expression graph representing a feed&#45;forward classifier. ">
<polygon fill="white" stroke="black" points="136,-80.2731 136,-110.273 283,-110.273 283,-80.2731 136,-80.2731"/>
<text text-anchor="start" x="144" y="-98.2731" font-family="Helvetica,sans-Serif" font-size="10.00">marian::models::MNISTModel</text>
<text text-anchor="middle" x="209.5" y="-87.2731" font-family="Helvetica,sans-Serif" font-size="10.00">::FeedforwardClassifier</text>
</a>
</g>
</g>
<!-- Node1&#45;&gt;Node22 -->
<g id="edge21" class="edge"><title>Node1&#45;&gt;Node22</title>
<path fill="none" stroke="midnightblue" d="M50.9378,-386.449C51.8721,-335.046 61.5424,-196.133 136,-119.273 139.321,-115.845 143.142,-112.906 147.256,-110.387"/>
<polygon fill="midnightblue" stroke="midnightblue" points="47.4372,-386.516 50.8515,-396.545 54.437,-386.575 47.4372,-386.516"/>
</g>
<!-- Node24 -->
<g id="node24" class="node"><title>Node24</title>
<g id="a_node24"><a xlink:href="$da/d22/namespacemarian.html#ae5b4088136fa6f7ebc01aed5a2d65c5c" xlink:title="marian::ConvolutionInTime">
<polygon fill="white" stroke="black" points="142.5,-41.7731 142.5,-60.7731 276.5,-60.7731 276.5,-41.7731 142.5,-41.7731"/>
<text text-anchor="middle" x="209.5" y="-48.7731" font-family="Helvetica,sans-Serif" font-size="10.00">marian::ConvolutionInTime</text>
</a>
</g>
</g>
<!-- Node1&#45;&gt;Node24 -->
<g id="edge23" class="edge"><title>Node1&#45;&gt;Node24</title>
<path fill="none" stroke="midnightblue" d="M53.3818,-386.363C61.5625,-321.242 90.5388,-116.124 136,-70.2731 139.756,-66.4847 144.169,-63.4225 148.931,-60.9509"/>
<polygon fill="midnightblue" stroke="midnightblue" points="49.8802,-386.162 52.1341,-396.514 56.828,-387.016 49.8802,-386.162"/>
</g>
<!-- Node25 -->
<g id="node25" class="node"><title>Node25</title>
<g id="a_node25"><a xlink:href="$dd/d8d/classmarian_1_1EncoderPooling.html#a676142ec672b7e9e84d8dc539039c57a" xlink:title="marian::EncoderPooling\l::build">
<polygon fill="white" stroke="black" points="332.5,-15.2731 332.5,-45.2731 452.5,-45.2731 452.5,-15.2731 332.5,-15.2731"/>
<text text-anchor="start" x="340.5" y="-33.2731" font-family="Helvetica,sans-Serif" font-size="10.00">marian::EncoderPooling</text>
<text text-anchor="middle" x="392.5" y="-22.2731" font-family="Helvetica,sans-Serif" font-size="10.00">::build</text>
</a>
</g>
</g>
<!-- Node1&#45;&gt;Node25 -->
<g id="edge25" class="edge"><title>Node1&#45;&gt;Node25</title>
<path fill="none" stroke="midnightblue" d="M52.3687,-386.421C57.6956,-315.669 79.6102,-77.6475 136,-32.2731 195.27,15.4191 289.795,0.108773 345.738,-15.1946"/>
<polygon fill="midnightblue" stroke="midnightblue" points="48.8617,-386.393 51.6302,-396.62 55.8434,-386.899 48.8617,-386.393"/>
</g>
<!-- Node13 -->
<g id="node13" class="node"><title>Node13</title>
<g id="a_node13"><a xlink:href="$d1/dcc/classmarian_1_1DecoderHardAtt.html#a7da3e691169734a9c952c6402e13f379" xlink:title="marian::DecoderHardAtt\l::selectEmbeddings">
<polygon fill="white" stroke="black" points="331.5,-366.273 331.5,-396.273 453.5,-396.273 453.5,-366.273 331.5,-366.273"/>
<text text-anchor="start" x="339.5" y="-384.273" font-family="Helvetica,sans-Serif" font-size="10.00">marian::DecoderHardAtt</text>
<text text-anchor="middle" x="392.5" y="-373.273" font-family="Helvetica,sans-Serif" font-size="10.00">::selectEmbeddings</text>
</a>
</g>
</g>
<!-- Node12&#45;&gt;Node13 -->
<g id="edge12" class="edge"><title>Node12&#45;&gt;Node13</title>
<path fill="none" stroke="midnightblue" d="M275.25,-365.859C293.486,-368.277 313.243,-370.896 331.206,-373.278"/>
<polygon fill="midnightblue" stroke="midnightblue" points="275.67,-362.384 265.297,-364.539 274.75,-369.323 275.67,-362.384"/>
</g>
<!-- Node14 -->
<g id="node14" class="node"><title>Node14</title>
<g id="a_node14"><a xlink:href="$d7/d30/classmarian_1_1MultiDecoderHardSoftAtt.html#a2c0c368e276e2db20c116b20497b1bb6" xlink:title="marian::MultiDecoderHard\lSoftAtt::selectEmbeddings">
<polygon fill="white" stroke="black" points="325.5,-317.273 325.5,-347.273 459.5,-347.273 459.5,-317.273 325.5,-317.273"/>
<text text-anchor="start" x="333.5" y="-335.273" font-family="Helvetica,sans-Serif" font-size="10.00">marian::MultiDecoderHard</text>
<text text-anchor="middle" x="392.5" y="-324.273" font-family="Helvetica,sans-Serif" font-size="10.00">SoftAtt::selectEmbeddings</text>
</a>
</g>
</g>
<!-- Node12&#45;&gt;Node14 -->
<g id="edge13" class="edge"><title>Node12&#45;&gt;Node14</title>
<path fill="none" stroke="midnightblue" d="M275.26,-348.328C291.548,-346.079 309.049,-343.661 325.401,-341.403"/>
<polygon fill="midnightblue" stroke="midnightblue" points="274.724,-344.869 265.297,-349.704 275.682,-351.803 274.724,-344.869"/>
</g>
<!-- Node19 -->
<g id="node19" class="node"><title>Node19</title>
<g id="a_node19"><a xlink:href="$dc/df8/iris_8cpp.html#ae66f6b31b5ad750f1fe042a706a4e3d4" xlink:title="main">
<polygon fill="white" stroke="black" points="373.5,-178.773 373.5,-197.773 411.5,-197.773 411.5,-178.773 373.5,-178.773"/>
<text text-anchor="middle" x="392.5" y="-185.773" font-family="Helvetica,sans-Serif" font-size="10.00">main</text>
</a>
</g>
</g>
<!-- Node18&#45;&gt;Node19 -->
<g id="edge18" class="edge"><title>Node18&#45;&gt;Node19</title>
<path fill="none" stroke="midnightblue" d="M265.771,-188.273C302.398,-188.273 348.147,-188.273 373.124,-188.273"/>
<polygon fill="midnightblue" stroke="midnightblue" points="265.707,-184.773 255.707,-188.273 265.707,-191.773 265.707,-184.773"/>
</g>
<!-- Node21 -->
<g id="node21" class="node"><title>Node21</title>
<g id="a_node21"><a xlink:href="$d3/d26/classmarian_1_1models_1_1LeNetModel.html#a3c8a71b2d5258f947e2745ab4acc706f" xlink:title="marian::models::LeNetModel\l::build">
<polygon fill="white" stroke="black" points="321.5,-129.273 321.5,-159.273 463.5,-159.273 463.5,-129.273 321.5,-129.273"/>
<text text-anchor="start" x="329.5" y="-147.273" font-family="Helvetica,sans-Serif" font-size="10.00">marian::models::LeNetModel</text>
<text text-anchor="middle" x="392.5" y="-136.273" font-family="Helvetica,sans-Serif" font-size="10.00">::build</text>
</a>
</g>
</g>
<!-- Node20&#45;&gt;Node21 -->
<g id="edge20" class="edge"><title>Node20&#45;&gt;Node21</title>
<path fill="none" stroke="midnightblue" d="M290.822,-144.273C300.982,-144.273 311.315,-144.273 321.301,-144.273"/>
<polygon fill="midnightblue" stroke="midnightblue" points="290.738,-140.773 280.738,-144.273 290.738,-147.773 290.738,-140.773"/>
</g>
<!-- Node23 -->
<g id="node23" class="node"><title>Node23</title>
<g id="a_node23"><a xlink:href="$dc/d10/classmarian_1_1models_1_1MNISTModel.html#aacea07dc6d02c753955564f36df0959c" xlink:title="marian::models::MNISTModel\l::build">
<polygon fill="white" stroke="black" points="319,-80.2731 319,-110.273 466,-110.273 466,-80.2731 319,-80.2731"/>
<text text-anchor="start" x="327" y="-98.2731" font-family="Helvetica,sans-Serif" font-size="10.00">marian::models::MNISTModel</text>
<text text-anchor="middle" x="392.5" y="-87.2731" font-family="Helvetica,sans-Serif" font-size="10.00">::build</text>
</a>
</g>
</g>
<!-- Node22&#45;&gt;Node23 -->
<g id="edge22" class="edge"><title>Node22&#45;&gt;Node23</title>
<path fill="none" stroke="midnightblue" d="M293.116,-95.2731C301.722,-95.2731 310.424,-95.2731 318.907,-95.2731"/>
<polygon fill="midnightblue" stroke="midnightblue" points="293.077,-91.7732 283.077,-95.2731 293.077,-98.7732 293.077,-91.7732"/>
</g>
<!-- Node24&#45;&gt;Node25 -->
<g id="edge24" class="edge"><title>Node24&#45;&gt;Node25</title>
<path fill="none" stroke="midnightblue" d="M286.587,-42.4454C301.916,-40.6668 317.812,-38.8226 332.453,-37.1238"/>
<polygon fill="midnightblue" stroke="midnightblue" points="286.143,-38.9732 276.613,-43.6025 286.95,-45.9266 286.143,-38.9732"/>
</g>
</g>
</svg>
