<?xml version="1.0" encoding="UTF-8" standalone="no"?>
<!DOCTYPE svg PUBLIC "-//W3C//DTD SVG 1.1//EN"
 "http://www.w3.org/Graphics/SVG/1.1/DTD/svg11.dtd">
<!-- Generated by graphviz version 2.38.0 (20140413.2041)
 -->
<!-- Title: loader_factory.h Pages: 1 -->
<svg width="174pt" height="84pt"
 viewBox="0.00 0.00 174.00 84.00" xmlns="http://www.w3.org/2000/svg" xmlns:xlink="http://www.w3.org/1999/xlink">
<g id="graph0" class="graph" transform="scale(1 1) rotate(0) translate(4 80)">
<title>loader_factory.h</title>
<polygon fill="white" stroke="none" points="-4,4 -4,-80 170,-80 170,4 -4,4"/>
<!-- Node1 -->
<g id="node1" class="node"><title>Node1</title>
<polygon fill="#bfbfbf" stroke="black" points="28.5,-56.5 28.5,-75.5 114.5,-75.5 114.5,-56.5 28.5,-56.5"/>
<text text-anchor="middle" x="71.5" y="-63.5" font-family="Helvetica,sans-Serif" font-size="10.00">loader_factory.h</text>
</g>
<!-- Node2 -->
<g id="node2" class="node"><title>Node2</title>
<g id="a_node2"><a xlink:href="../../d3/d73/god_8cpp.html" target="_top" xlink:title="god.cpp">
<polygon fill="white" stroke="black" points="0,-0.5 0,-19.5 51,-19.5 51,-0.5 0,-0.5"/>
<text text-anchor="middle" x="25.5" y="-7.5" font-family="Helvetica,sans-Serif" font-size="10.00">god.cpp</text>
</a>
</g>
</g>
<!-- Node1&#45;&gt;Node2 -->
<g id="edge1" class="edge"><title>Node1&#45;&gt;Node2</title>
<path fill="none" stroke="midnightblue" d="M57.386,-48.4314C49.324,-38.9673 39.5408,-27.4827 32.9546,-19.7511"/>
<polygon fill="midnightblue" stroke="midnightblue" points="54.755,-50.7402 63.904,-56.083 60.0837,-46.2009 54.755,-50.7402"/>
</g>
<!-- Node3 -->
<g id="node3" class="node"><title>Node3</title>
<g id="a_node3"><a xlink:href="../../dc/dec/loader__factory_8cpp.html" target="_top" xlink:title="loader_factory.cpp">
<polygon fill="white" stroke="black" points="69,-0.5 69,-19.5 166,-19.5 166,-0.5 69,-0.5"/>
<text text-anchor="middle" x="117.5" y="-7.5" font-family="Helvetica,sans-Serif" font-size="10.00">loader_factory.cpp</text>
</a>
</g>
</g>
<!-- Node1&#45;&gt;Node3 -->
<g id="edge2" class="edge"><title>Node1&#45;&gt;Node3</title>
<path fill="none" stroke="midnightblue" d="M85.614,-48.4314C93.676,-38.9673 103.459,-27.4827 110.045,-19.7511"/>
<polygon fill="midnightblue" stroke="midnightblue" points="82.9163,-46.2009 79.096,-56.083 88.245,-50.7402 82.9163,-46.2009"/>
</g>
</g>
</svg>
