<?xml version="1.0" encoding="UTF-8" standalone="no"?>
<!DOCTYPE svg PUBLIC "-//W3C//DTD SVG 1.1//EN"
 "http://www.w3.org/Graphics/SVG/1.1/DTD/svg11.dtd">
<!-- Generated by graphviz version 2.38.0 (20140413.2041)
 -->
<!-- Title: amunmt::BaseMatrix::size Pages: 1 -->
<!--zoomable 464 -->
<svg id="main" version="1.1" xmlns="http://www.w3.org/2000/svg" xmlns:xlink="http://www.w3.org/1999/xlink" xml:space="preserve" onload="init(evt)">
<style type="text/css"><![CDATA[
.edge:hover path { stroke: red; }
.edge:hover polygon { stroke: red; fill: red; }
]]></style>
<script type="text/javascript"><![CDATA[
var edges = document.getElementsByTagName('g');
if (edges && edges.length) {
  for (var i=0;i<edges.length;i++) {
    if (edges[i].id.substr(0,4)=='edge') {
      edges[i].setAttribute('class','edge');
    }
  }
}
]]></script>
        <defs>
                <circle id="rim" cx="0" cy="0" r="7"/>
                <circle id="rim2" cx="0" cy="0" r="3.5"/>
                <g id="zoomPlus">
                        <use xlink:href="#rim" fill="#404040">
                                <set attributeName="fill" to="#808080" begin="zoomplus.mouseover" end="zoomplus.mouseout"/>
                        </use>
                        <path d="M-4,0h8M0,-4v8" fill="none" stroke="white" stroke-width="1.5" pointer-events="none"/>
                </g>
                <g id="zoomMin">
                        <use xlink:href="#rim" fill="#404040">
                                <set attributeName="fill" to="#808080" begin="zoomminus.mouseover" end="zoomminus.mouseout"/>
                        </use>
                        <path d="M-4,0h8" fill="none" stroke="white" stroke-width="1.5" pointer-events="none"/>
                </g>
                <g id="dirArrow">
                        <path fill="none" stroke="white" stroke-width="1.5" d="M0,-3.0v7 M-2.5,-0.5L0,-3.0L2.5,-0.5"/>
                </g>
               <g id="resetDef">
                       <use xlink:href="#rim2" fill="#404040">
                               <set attributeName="fill" to="#808080" begin="reset.mouseover" end="reset.mouseout"/>
                       </use>
               </g>
        </defs>

<script type="text/javascript">
var viewWidth = 447;
var viewHeight = 464;
var sectionId = 'dynsection-9';
</script>
<script xlink:href="../../svgpan.js"/>
<svg id="graph" class="graph">
<g id="viewport">
<title>amunmt::BaseMatrix::size</title>
<polygon fill="white" stroke="none" points="-4,4 -4,-460 443,-460 443,4 -4,4"/>
<!-- Node1 -->
<g id="node1" class="node"><title>Node1</title>
<polygon fill="#bfbfbf" stroke="black" points="0,-332.5 0,-362.5 107,-362.5 107,-332.5 0,-332.5"/>
<text text-anchor="start" x="8" y="-350.5" font-family="Helvetica,sans-Serif" font-size="10.00">amunmt::BaseMatrix</text>
<text text-anchor="middle" x="53.5" y="-339.5" font-family="Helvetica,sans-Serif" font-size="10.00">::size</text>
</g>
<!-- Node2 -->
<g id="node2" class="node"><title>Node2</title>
<g id="a_node2"><a xlink:href="../../d5/de7/classamunmt_1_1BaseMatrix.html#ae7601bd2c92e0102c263e143c36fb6cd" target="_top" xlink:title="amunmt::BaseMatrix\l::Debug">
<polygon fill="white" stroke="black" points="145.5,-381.5 145.5,-411.5 252.5,-411.5 252.5,-381.5 145.5,-381.5"/>
<text text-anchor="start" x="153.5" y="-399.5" font-family="Helvetica,sans-Serif" font-size="10.00">amunmt::BaseMatrix</text>
<text text-anchor="middle" x="199" y="-388.5" font-family="Helvetica,sans-Serif" font-size="10.00">::Debug</text>
</a>
</g>
</g>
<!-- Node1&#45;&gt;Node2 -->
<g id="edge1" class="edge"><title>Node1&#45;&gt;Node2</title>
<path fill="none" stroke="midnightblue" d="M108.355,-365.89C123.297,-370.992 139.344,-376.471 153.673,-381.364"/>
<polygon fill="midnightblue" stroke="midnightblue" points="109.32,-362.521 98.7256,-362.601 107.058,-369.145 109.32,-362.521"/>
</g>
<!-- Node3 -->
<g id="node3" class="node"><title>Node3</title>
<g id="a_node3"><a xlink:href="../../d5/de7/classamunmt_1_1BaseMatrix.html#a340cbf16c47ba57d32cab301705f7776" target="_top" xlink:title="amunmt::BaseMatrix\l::empty">
<polygon fill="white" stroke="black" points="311.5,-425.5 311.5,-455.5 418.5,-455.5 418.5,-425.5 311.5,-425.5"/>
<text text-anchor="start" x="319.5" y="-443.5" font-family="Helvetica,sans-Serif" font-size="10.00">amunmt::BaseMatrix</text>
<text text-anchor="middle" x="365" y="-432.5" font-family="Helvetica,sans-Serif" font-size="10.00">::empty</text>
</a>
</g>
</g>
<!-- Node1&#45;&gt;Node3 -->
<g id="edge5" class="edge"><title>Node1&#45;&gt;Node3</title>
<path fill="none" stroke="midnightblue" d="M74.025,-370.07C90.4968,-387.413 115.704,-410.245 143,-421.5 197.293,-443.886 265.326,-446.344 311.462,-444.672"/>
<polygon fill="midnightblue" stroke="midnightblue" points="76.4455,-367.531 67.0954,-362.549 71.2975,-372.275 76.4455,-367.531"/>
</g>
<!-- Node5 -->
<g id="node5" class="node"><title>Node5</title>
<g id="a_node5"><a xlink:href="../../d5/de7/classamunmt_1_1BaseMatrix.html#afb3ba3f074a7464fbb991cb467c7e84d" target="_top" xlink:title="amunmt::BaseMatrix\l::~BaseMatrix">
<polygon fill="white" stroke="black" points="145.5,-332.5 145.5,-362.5 252.5,-362.5 252.5,-332.5 145.5,-332.5"/>
<text text-anchor="start" x="153.5" y="-350.5" font-family="Helvetica,sans-Serif" font-size="10.00">amunmt::BaseMatrix</text>
<text text-anchor="middle" x="199" y="-339.5" font-family="Helvetica,sans-Serif" font-size="10.00">::~BaseMatrix</text>
</a>
</g>
</g>
<!-- Node1&#45;&gt;Node5 -->
<g id="edge4" class="edge"><title>Node1&#45;&gt;Node5</title>
<path fill="none" stroke="midnightblue" d="M117.208,-347.5C126.611,-347.5 136.223,-347.5 145.387,-347.5"/>
<polygon fill="midnightblue" stroke="midnightblue" points="117.119,-344 107.119,-347.5 117.119,-351 117.119,-344"/>
</g>
<!-- Node6 -->
<g id="node6" class="node"><title>Node6</title>
<g id="a_node6"><a xlink:href="../../d1/d49/namespaceamunmt_1_1GPU_1_1mblas.html#afba17f6f1ebd7b942ed07d760259d143" target="_top" xlink:title="amunmt::GPU::mblas\l::Broadcast">
<polygon fill="white" stroke="black" points="143,-283.5 143,-313.5 255,-313.5 255,-283.5 143,-283.5"/>
<text text-anchor="start" x="151" y="-301.5" font-family="Helvetica,sans-Serif" font-size="10.00">amunmt::GPU::mblas</text>
<text text-anchor="middle" x="199" y="-290.5" font-family="Helvetica,sans-Serif" font-size="10.00">::Broadcast</text>
</a>
</g>
</g>
<!-- Node1&#45;&gt;Node6 -->
<g id="edge6" class="edge"><title>Node1&#45;&gt;Node6</title>
<path fill="none" stroke="midnightblue" d="M108.355,-329.11C123.297,-324.008 139.344,-318.529 153.673,-313.636"/>
<polygon fill="midnightblue" stroke="midnightblue" points="107.058,-325.855 98.7256,-332.399 109.32,-332.479 107.058,-325.855"/>
</g>
<!-- Node8 -->
<g id="node8" class="node"><title>Node8</title>
<g id="a_node8"><a xlink:href="../../d1/d49/namespaceamunmt_1_1GPU_1_1mblas.html#adc0a1bee5e001b28e10bff88e940b284" target="_top" xlink:title="amunmt::GPU::mblas\l::Element">
<polygon fill="white" stroke="black" points="143,-128.5 143,-158.5 255,-158.5 255,-128.5 143,-128.5"/>
<text text-anchor="start" x="151" y="-146.5" font-family="Helvetica,sans-Serif" font-size="10.00">amunmt::GPU::mblas</text>
<text text-anchor="middle" x="199" y="-135.5" font-family="Helvetica,sans-Serif" font-size="10.00">::Element</text>
</a>
</g>
</g>
<!-- Node1&#45;&gt;Node8 -->
<g id="edge8" class="edge"><title>Node1&#45;&gt;Node8</title>
<path fill="none" stroke="midnightblue" d="M70.8792,-324.215C100.603,-281.959 162.642,-193.765 187.433,-158.523"/>
<polygon fill="midnightblue" stroke="midnightblue" points="67.9427,-322.307 65.0519,-332.499 73.6681,-326.334 67.9427,-322.307"/>
</g>
<!-- Node2&#45;&gt;Node3 -->
<g id="edge2" class="edge"><title>Node2&#45;&gt;Node3</title>
<path fill="none" stroke="midnightblue" d="M262.633,-413.304C278.693,-417.613 295.804,-422.203 311.306,-426.362"/>
<polygon fill="midnightblue" stroke="midnightblue" points="263.359,-409.875 252.793,-410.664 261.545,-416.636 263.359,-409.875"/>
</g>
<!-- Node4 -->
<g id="node4" class="node"><title>Node4</title>
<g id="a_node4"><a xlink:href="../../da/ddf/classamunmt_1_1GPU_1_1mblas_1_1TMatrix.html#a2a1e6f455240cec3b8406cfef94128e5" target="_top" xlink:title="amunmt::GPU::mblas\l::TMatrix\&lt; uint \&gt;::Debug">
<polygon fill="white" stroke="black" points="303,-376.5 303,-406.5 427,-406.5 427,-376.5 303,-376.5"/>
<text text-anchor="start" x="311" y="-394.5" font-family="Helvetica,sans-Serif" font-size="10.00">amunmt::GPU::mblas</text>
<text text-anchor="middle" x="365" y="-383.5" font-family="Helvetica,sans-Serif" font-size="10.00">::TMatrix&lt; uint &gt;::Debug</text>
</a>
</g>
</g>
<!-- Node2&#45;&gt;Node4 -->
<g id="edge3" class="edge"><title>Node2&#45;&gt;Node4</title>
<path fill="none" stroke="midnightblue" d="M263.065,-394.577C276.087,-394.18 289.783,-393.763 302.739,-393.368"/>
<polygon fill="midnightblue" stroke="midnightblue" points="262.682,-391.087 252.793,-394.89 262.895,-398.084 262.682,-391.087"/>
</g>
<!-- Node7 -->
<g id="node7" class="node"><title>Node7</title>
<g id="a_node7"><a xlink:href="../../df/d32/classamunmt_1_1GPU_1_1Decoder_1_1Alignment.html#aca6a7ea06e3db456c9cf723cb62a975f" target="_top" xlink:title="amunmt::GPU::Decoder\l::Alignment\&lt; amunmt::\lGPU::Weights::DecAlignment\l \&gt;::GetAlignedSourceContext">
<polygon fill="white" stroke="black" points="291,-289.5 291,-341.5 439,-341.5 439,-289.5 291,-289.5"/>
<text text-anchor="start" x="299" y="-329.5" font-family="Helvetica,sans-Serif" font-size="10.00">amunmt::GPU::Decoder</text>
<text text-anchor="start" x="299" y="-318.5" font-family="Helvetica,sans-Serif" font-size="10.00">::Alignment&lt; amunmt::</text>
<text text-anchor="start" x="299" y="-307.5" font-family="Helvetica,sans-Serif" font-size="10.00">GPU::Weights::DecAlignment</text>
<text text-anchor="middle" x="365" y="-296.5" font-family="Helvetica,sans-Serif" font-size="10.00"> &gt;::GetAlignedSourceContext</text>
</a>
</g>
</g>
<!-- Node6&#45;&gt;Node7 -->
<g id="edge7" class="edge"><title>Node6&#45;&gt;Node7</title>
<path fill="none" stroke="midnightblue" d="M265.164,-305.255C273.563,-306.125 282.208,-307.022 290.727,-307.905"/>
<polygon fill="midnightblue" stroke="midnightblue" points="265.373,-301.758 255.066,-304.208 264.652,-308.721 265.373,-301.758"/>
</g>
<!-- Node9 -->
<g id="node9" class="node"><title>Node9</title>
<g id="a_node9"><a xlink:href="../../d1/de3/classamunmt_1_1GPU_1_1Decoder_1_1RNNHidden.html#a4e603e53eb86acbacce1a348e2be20f4" target="_top" xlink:title="amunmt::GPU::Decoder\l::RNNHidden\&lt; amunmt::\lGPU::Weights::DecInit\l \&gt;::InitializeState">
<polygon fill="white" stroke="black" points="302,-218.5 302,-270.5 428,-270.5 428,-218.5 302,-218.5"/>
<text text-anchor="start" x="310" y="-258.5" font-family="Helvetica,sans-Serif" font-size="10.00">amunmt::GPU::Decoder</text>
<text text-anchor="start" x="310" y="-247.5" font-family="Helvetica,sans-Serif" font-size="10.00">::RNNHidden&lt; amunmt::</text>
<text text-anchor="start" x="310" y="-236.5" font-family="Helvetica,sans-Serif" font-size="10.00">GPU::Weights::DecInit</text>
<text text-anchor="middle" x="365" y="-225.5" font-family="Helvetica,sans-Serif" font-size="10.00"> &gt;::InitializeState</text>
</a>
</g>
</g>
<!-- Node8&#45;&gt;Node9 -->
<g id="edge9" class="edge"><title>Node8&#45;&gt;Node9</title>
<path fill="none" stroke="midnightblue" d="M227.409,-164.854C245.073,-178.163 268.808,-195.221 291,-208.5 296.578,-211.838 302.508,-215.138 308.484,-218.307"/>
<polygon fill="midnightblue" stroke="midnightblue" points="229.336,-161.923 219.258,-158.654 225.099,-167.494 229.336,-161.923"/>
</g>
<!-- Node10 -->
<g id="node10" class="node"><title>Node10</title>
<g id="a_node10"><a xlink:href="../../d2/d4d/classamunmt_1_1GPU_1_1Decoder_1_1Softmax.html#ae19befc1a70b3a1762ac0e4dcfb67714" target="_top" xlink:title="amunmt::GPU::Decoder\l::Softmax\&lt; amunmt::GPU\l::Weights::DecSoftmax \&gt;\l::GetProbs">
<polygon fill="white" stroke="black" points="299.5,-147.5 299.5,-199.5 430.5,-199.5 430.5,-147.5 299.5,-147.5"/>
<text text-anchor="start" x="307.5" y="-187.5" font-family="Helvetica,sans-Serif" font-size="10.00">amunmt::GPU::Decoder</text>
<text text-anchor="start" x="307.5" y="-176.5" font-family="Helvetica,sans-Serif" font-size="10.00">::Softmax&lt; amunmt::GPU</text>
<text text-anchor="start" x="307.5" y="-165.5" font-family="Helvetica,sans-Serif" font-size="10.00">::Weights::DecSoftmax &gt;</text>
<text text-anchor="middle" x="365" y="-154.5" font-family="Helvetica,sans-Serif" font-size="10.00">::GetProbs</text>
</a>
</g>
</g>
<!-- Node8&#45;&gt;Node10 -->
<g id="edge10" class="edge"><title>Node8&#45;&gt;Node10</title>
<path fill="none" stroke="midnightblue" d="M264.907,-155.373C276.267,-157.451 288.084,-159.613 299.434,-161.689"/>
<polygon fill="midnightblue" stroke="midnightblue" points="265.532,-151.93 255.066,-153.573 264.273,-158.815 265.532,-151.93"/>
</g>
<!-- Node11 -->
<g id="node11" class="node"><title>Node11</title>
<g id="a_node11"><a xlink:href="../../d8/dc9/classamunmt_1_1GPU_1_1SlowGRU.html#a56abd7ee93ad637ca54113fbc1427e01" target="_top" xlink:title="amunmt::GPU::SlowGRU\l::GetNextState">
<polygon fill="white" stroke="black" points="300,-98.5 300,-128.5 430,-128.5 430,-98.5 300,-98.5"/>
<text text-anchor="start" x="308" y="-116.5" font-family="Helvetica,sans-Serif" font-size="10.00">amunmt::GPU::SlowGRU</text>
<text text-anchor="middle" x="365" y="-105.5" font-family="Helvetica,sans-Serif" font-size="10.00">::GetNextState</text>
</a>
</g>
</g>
<!-- Node8&#45;&gt;Node11 -->
<g id="edge11" class="edge"><title>Node8&#45;&gt;Node11</title>
<path fill="none" stroke="midnightblue" d="M264.972,-131.615C276.408,-129.523 288.305,-127.347 299.722,-125.258"/>
<polygon fill="midnightblue" stroke="midnightblue" points="264.273,-128.185 255.066,-133.427 265.532,-135.07 264.273,-128.185"/>
</g>
<!-- Node12 -->
<g id="node12" class="node"><title>Node12</title>
<g id="a_node12"><a xlink:href="../../df/de1/classamunmt_1_1GPU_1_1SlowLSTM.html#a445547f2b64a36f61c0a62dc682364f3" target="_top" xlink:title="amunmt::GPU::SlowLSTM\l::GetNextState">
<polygon fill="white" stroke="black" points="298,-49.5 298,-79.5 432,-79.5 432,-49.5 298,-49.5"/>
<text text-anchor="start" x="306" y="-67.5" font-family="Helvetica,sans-Serif" font-size="10.00">amunmt::GPU::SlowLSTM</text>
<text text-anchor="middle" x="365" y="-56.5" font-family="Helvetica,sans-Serif" font-size="10.00">::GetNextState</text>
</a>
</g>
</g>
<!-- Node8&#45;&gt;Node12 -->
<g id="edge12" class="edge"><title>Node8&#45;&gt;Node12</title>
<path fill="none" stroke="midnightblue" d="M230.202,-122.876C247.478,-111.692 269.859,-98.2122 291,-88.5 298.031,-85.2698 305.624,-82.2714 313.162,-79.5655"/>
<polygon fill="midnightblue" stroke="midnightblue" points="228.103,-120.067 221.667,-128.482 231.947,-125.917 228.103,-120.067"/>
</g>
<!-- Node13 -->
<g id="node13" class="node"><title>Node13</title>
<g id="a_node13"><a xlink:href="../../d2/dad/classamunmt_1_1GPU_1_1Multiplicative.html#a1f485aad0d4da73469d58f61fc121341" target="_top" xlink:title="amunmt::GPU::Multiplicative\l::GetNextState">
<polygon fill="white" stroke="black" points="293.5,-0.5 293.5,-30.5 436.5,-30.5 436.5,-0.5 293.5,-0.5"/>
<text text-anchor="start" x="301.5" y="-18.5" font-family="Helvetica,sans-Serif" font-size="10.00">amunmt::GPU::Multiplicative</text>
<text text-anchor="middle" x="365" y="-7.5" font-family="Helvetica,sans-Serif" font-size="10.00">::GetNextState</text>
</a>
</g>
</g>
<!-- Node8&#45;&gt;Node13 -->
<g id="edge13" class="edge"><title>Node8&#45;&gt;Node13</title>
<path fill="none" stroke="midnightblue" d="M214.873,-120.141C230.972,-96.6297 258.716,-60.8738 291,-39.5 296.117,-36.1123 301.752,-33.1671 307.554,-30.6148"/>
<polygon fill="midnightblue" stroke="midnightblue" points="211.936,-118.237 209.289,-128.496 217.755,-122.127 211.936,-118.237"/>
</g>
</g>
</svg>
        <g id="navigator" transform="translate(0 0)" fill="#404254">
                <rect fill="#f2f5e9" fill-opacity="0.5" stroke="#606060" stroke-width=".5" x="0" y="0" width="60" height="60"/>
                <use id="zoomplus" xlink:href="#zoomPlus" x="17" y="9" onmousedown="handleZoom(evt,'in')"/>
                <use id="zoomminus" xlink:href="#zoomMin" x="42" y="9" onmousedown="handleZoom(evt,'out')"/>
                <use id="reset" xlink:href="#resetDef" x="30" y="36" onmousedown="handleReset()"/>
                <g id="arrowUp" xlink:href="#dirArrow" transform="translate(30 24)" onmousedown="handlePan(0,-1)">
                  <use xlink:href="#rim" fill="#404040">
                        <set attributeName="fill" to="#808080" begin="arrowUp.mouseover" end="arrowUp.mouseout"/>
                  </use>
                  <path fill="none" stroke="white" stroke-width="1.5" d="M0,-3.0v7 M-2.5,-0.5L0,-3.0L2.5,-0.5"/>
                </g>
                <g id="arrowRight" xlink:href="#dirArrow" transform="rotate(90) translate(36 -43)" onmousedown="handlePan(1,0)">
                  <use xlink:href="#rim" fill="#404040">
                        <set attributeName="fill" to="#808080" begin="arrowRight.mouseover" end="arrowRight.mouseout"/>
                  </use>
                  <path fill="none" stroke="white" stroke-width="1.5" d="M0,-3.0v7 M-2.5,-0.5L0,-3.0L2.5,-0.5"/>
                </g>
                <g id="arrowDown" xlink:href="#dirArrow" transform="rotate(180) translate(-30 -48)" onmousedown="handlePan(0,1)">
                  <use xlink:href="#rim" fill="#404040">
                        <set attributeName="fill" to="#808080" begin="arrowDown.mouseover" end="arrowDown.mouseout"/>
                  </use>
                  <path fill="none" stroke="white" stroke-width="1.5" d="M0,-3.0v7 M-2.5,-0.5L0,-3.0L2.5,-0.5"/>
                </g>
                <g id="arrowLeft" xlink:href="#dirArrow" transform="rotate(270) translate(-36 17)" onmousedown="handlePan(-1,0)">
                  <use xlink:href="#rim" fill="#404040">
                        <set attributeName="fill" to="#808080" begin="arrowLeft.mouseover" end="arrowLeft.mouseout"/>
                  </use>
                  <path fill="none" stroke="white" stroke-width="1.5" d="M0,-3.0v7 M-2.5,-0.5L0,-3.0L2.5,-0.5"/>
                </g>
        </g>
        <svg viewBox="0 0 15 15" width="100%" height="30px" preserveAspectRatio="xMaxYMin meet">
         <g id="arrow_out" transform="scale(0.3 0.3)">
          <a xlink:href="classamunmt_1_1BaseMatrix_a52ccc5b9234726532fe0452a8aed5b1f_icgraph_org.svg" target="_base">
           <rect id="button" ry="5" rx="5" y="6" x="6" height="38" width="38"
                fill="#f2f5e9" fill-opacity="0.5" stroke="#606060" stroke-width="1.0"/>
           <path id="arrow"
             d="M 11.500037,31.436501 C 11.940474,20.09759 22.043105,11.32322 32.158766,21.979434 L 37.068811,17.246167 C 37.068811,17.246167 37.088388,32 37.088388,32 L 22.160133,31.978069 C 22.160133,31.978069 26.997745,27.140456 26.997745,27.140456 C 18.528582,18.264221 13.291696,25.230495 11.500037,31.436501 z"
             style="fill:#404040;"/>
          </a>
         </g>
        </svg>
</svg>
