<?xml version="1.0" encoding="UTF-8" standalone="no"?>
<!DOCTYPE svg PUBLIC "-//W3C//DTD SVG 1.1//EN"
 "http://www.w3.org/Graphics/SVG/1.1/DTD/svg11.dtd">
<!-- Generated by graphviz version 2.38.0 (20140413.2041)
 -->
<!-- Title: amunmt::BaseMatrix::empty Pages: 1 -->
<!--zoomable 188 -->
<svg id="main" version="1.1" xmlns="http://www.w3.org/2000/svg" xmlns:xlink="http://www.w3.org/1999/xlink" xml:space="preserve" onload="init(evt)">
<style type="text/css"><![CDATA[
.edge:hover path { stroke: red; }
.edge:hover polygon { stroke: red; fill: red; }
]]></style>
<script type="text/javascript"><![CDATA[
var edges = document.getElementsByTagName('g');
if (edges && edges.length) {
  for (var i=0;i<edges.length;i++) {
    if (edges[i].id.substr(0,4)=='edge') {
      edges[i].setAttribute('class','edge');
    }
  }
}
]]></script>
        <defs>
                <circle id="rim" cx="0" cy="0" r="7"/>
                <circle id="rim2" cx="0" cy="0" r="3.5"/>
                <g id="zoomPlus">
                        <use xlink:href="#rim" fill="#404040">
                                <set attributeName="fill" to="#808080" begin="zoomplus.mouseover" end="zoomplus.mouseout"/>
                        </use>
                        <path d="M-4,0h8M0,-4v8" fill="none" stroke="white" stroke-width="1.5" pointer-events="none"/>
                </g>
                <g id="zoomMin">
                        <use xlink:href="#rim" fill="#404040">
                                <set attributeName="fill" to="#808080" begin="zoomminus.mouseover" end="zoomminus.mouseout"/>
                        </use>
                        <path d="M-4,0h8" fill="none" stroke="white" stroke-width="1.5" pointer-events="none"/>
                </g>
                <g id="dirArrow">
                        <path fill="none" stroke="white" stroke-width="1.5" d="M0,-3.0v7 M-2.5,-0.5L0,-3.0L2.5,-0.5"/>
                </g>
               <g id="resetDef">
                       <use xlink:href="#rim2" fill="#404040">
                               <set attributeName="fill" to="#808080" begin="reset.mouseover" end="reset.mouseout"/>
                       </use>
               </g>
        </defs>

<script type="text/javascript">
var viewWidth = 566;
var viewHeight = 188;
var sectionId = 'dynsection-6';
</script>
<script xlink:href="../../svgpan.js"/>
<svg id="graph" class="graph">
<g id="viewport">
<title>amunmt::BaseMatrix::empty</title>
<polygon fill="white" stroke="none" points="-4,4 -4,-184.191 562,-184.191 562,4 -4,4"/>
<!-- Node1 -->
<g id="node1" class="node"><title>Node1</title>
<polygon fill="#bfbfbf" stroke="black" points="0,-82.5 0,-112.5 107,-112.5 107,-82.5 0,-82.5"/>
<text text-anchor="start" x="8" y="-100.5" font-family="Helvetica,sans-Serif" font-size="10.00">amunmt::BaseMatrix</text>
<text text-anchor="middle" x="53.5" y="-89.5" font-family="Helvetica,sans-Serif" font-size="10.00">::empty</text>
</g>
<!-- Node2 -->
<g id="node2" class="node"><title>Node2</title>
<g id="a_node2"><a xlink:href="../../d5/de7/classamunmt_1_1BaseMatrix.html#a52ccc5b9234726532fe0452a8aed5b1f" target="_top" xlink:title="amunmt::BaseMatrix\l::size">
<polygon fill="white" stroke="black" points="286,-44.5 286,-74.5 393,-74.5 393,-44.5 286,-44.5"/>
<text text-anchor="start" x="294" y="-62.5" font-family="Helvetica,sans-Serif" font-size="10.00">amunmt::BaseMatrix</text>
<text text-anchor="middle" x="339.5" y="-51.5" font-family="Helvetica,sans-Serif" font-size="10.00">::size</text>
</a>
</g>
</g>
<!-- Node1&#45;&gt;Node2 -->
<g id="edge1" class="edge"><title>Node1&#45;&gt;Node2</title>
<path fill="none" stroke="midnightblue" d="M67.7105,-112.583C83.6061,-129.469 112.047,-155.86 143,-166.5 187.972,-181.96 206.971,-186.75 250,-166.5 286.133,-149.495 312.561,-109.693 326.714,-83.7188"/>
<polygon fill="midnightblue" stroke="midnightblue" points="329.824,-85.3244 331.368,-74.8427 323.624,-82.0737 329.824,-85.3244"/>
</g>
<!-- Node4 -->
<g id="node4" class="node"><title>Node4</title>
<g id="a_node4"><a xlink:href="../../d5/de7/classamunmt_1_1BaseMatrix.html#a4cb69cec51d0849c2e9126131265a044" target="_top" xlink:title="amunmt::BaseMatrix\l::Resize">
<polygon fill="white" stroke="black" points="143,-126.5 143,-156.5 250,-156.5 250,-126.5 143,-126.5"/>
<text text-anchor="start" x="151" y="-144.5" font-family="Helvetica,sans-Serif" font-size="10.00">amunmt::BaseMatrix</text>
<text text-anchor="middle" x="196.5" y="-133.5" font-family="Helvetica,sans-Serif" font-size="10.00">::Resize</text>
</a>
</g>
</g>
<!-- Node1&#45;&gt;Node4 -->
<g id="edge3" class="edge"><title>Node1&#45;&gt;Node4</title>
<path fill="none" stroke="midnightblue" d="M102.63,-112.519C113.849,-116.02 125.911,-119.784 137.506,-123.403"/>
<polygon fill="midnightblue" stroke="midnightblue" points="136.52,-126.761 147.108,-126.399 138.605,-120.079 136.52,-126.761"/>
</g>
<!-- Node5 -->
<g id="node5" class="node"><title>Node5</title>
<g id="a_node5"><a xlink:href="../../da/d22/namespacemarian.html#ace1e9a63d52edc363d70d661cf8d0257" target="_top" xlink:title="marian::rows">
<polygon fill="white" stroke="black" points="160,-88 160,-107 233,-107 233,-88 160,-88"/>
<text text-anchor="middle" x="196.5" y="-95" font-family="Helvetica,sans-Serif" font-size="10.00">marian::rows</text>
</a>
</g>
</g>
<!-- Node1&#45;&gt;Node5 -->
<g id="edge4" class="edge"><title>Node1&#45;&gt;Node5</title>
<path fill="none" stroke="midnightblue" d="M107.003,-97.5C120.979,-97.5 135.967,-97.5 149.561,-97.5"/>
<polygon fill="midnightblue" stroke="midnightblue" points="149.646,-101 159.646,-97.5 149.646,-94.0001 149.646,-101"/>
</g>
<!-- Node6 -->
<g id="node6" class="node"><title>Node6</title>
<g id="a_node6"><a xlink:href="../../da/d22/namespacemarian.html#ab9fbdcc76cc853270094524572584222" target="_top" xlink:title="marian::cols">
<polygon fill="white" stroke="black" points="161.5,-50 161.5,-69 231.5,-69 231.5,-50 161.5,-50"/>
<text text-anchor="middle" x="196.5" y="-57" font-family="Helvetica,sans-Serif" font-size="10.00">marian::cols</text>
</a>
</g>
</g>
<!-- Node1&#45;&gt;Node6 -->
<g id="edge5" class="edge"><title>Node1&#45;&gt;Node6</title>
<path fill="none" stroke="midnightblue" d="M107.003,-83.3502C121.62,-79.4108 137.344,-75.1733 151.423,-71.3789"/>
<polygon fill="midnightblue" stroke="midnightblue" points="152.601,-74.6865 161.345,-68.7048 150.779,-67.9276 152.601,-74.6865"/>
</g>
<!-- Node7 -->
<g id="node7" class="node"><title>Node7</title>
<g id="a_node7"><a xlink:href="../../d5/de7/classamunmt_1_1BaseMatrix.html#ae7601bd2c92e0102c263e143c36fb6cd" target="_top" xlink:title="amunmt::BaseMatrix\l::Debug">
<polygon fill="white" stroke="black" points="143,-0.5 143,-30.5 250,-30.5 250,-0.5 143,-0.5"/>
<text text-anchor="start" x="151" y="-18.5" font-family="Helvetica,sans-Serif" font-size="10.00">amunmt::BaseMatrix</text>
<text text-anchor="middle" x="196.5" y="-7.5" font-family="Helvetica,sans-Serif" font-size="10.00">::Debug</text>
</a>
</g>
</g>
<!-- Node1&#45;&gt;Node7 -->
<g id="edge6" class="edge"><title>Node1&#45;&gt;Node7</title>
<path fill="none" stroke="midnightblue" d="M76.206,-82.4103C93.8342,-70.4288 119.531,-53.5752 143,-40.5 146.233,-38.699 149.616,-36.9011 153.041,-35.1425"/>
<polygon fill="midnightblue" stroke="midnightblue" points="154.745,-38.2036 162.127,-30.6036 151.617,-31.9415 154.745,-38.2036"/>
</g>
<!-- Node3 -->
<g id="node3" class="node"><title>Node3</title>
<g id="a_node3"><a xlink:href="../../d5/de7/classamunmt_1_1BaseMatrix.html#a8fca680b1a864b3d99e9cfe6aa60f1d4" target="_top" xlink:title="amunmt::BaseMatrix::dim">
<polygon fill="white" stroke="black" points="429,-28 429,-47 558,-47 558,-28 429,-28"/>
<text text-anchor="middle" x="493.5" y="-35" font-family="Helvetica,sans-Serif" font-size="10.00">amunmt::BaseMatrix::dim</text>
</a>
</g>
</g>
<!-- Node2&#45;&gt;Node3 -->
<g id="edge2" class="edge"><title>Node2&#45;&gt;Node3</title>
<path fill="none" stroke="midnightblue" d="M393.236,-51.8672C401.494,-50.6719 410.158,-49.418 418.782,-48.1697"/>
<polygon fill="midnightblue" stroke="midnightblue" points="419.467,-51.6072 428.862,-46.7107 418.464,-44.6793 419.467,-51.6072"/>
</g>
<!-- Node7&#45;&gt;Node2 -->
<g id="edge8" class="edge"><title>Node7&#45;&gt;Node2</title>
<path fill="none" stroke="midnightblue" d="M245.63,-30.5192C256.849,-34.0202 268.911,-37.7842 280.506,-41.4027"/>
<polygon fill="midnightblue" stroke="midnightblue" points="279.52,-44.7612 290.108,-44.3991 281.605,-38.079 279.52,-44.7612"/>
</g>
<!-- Node7&#45;&gt;Node3 -->
<g id="edge7" class="edge"><title>Node7&#45;&gt;Node3</title>
<path fill="none" stroke="midnightblue" d="M250.24,-19.4332C297.162,-22.9324 366.27,-28.0862 418.679,-31.9947"/>
<polygon fill="midnightblue" stroke="midnightblue" points="418.694,-35.5054 428.926,-32.7589 419.214,-28.5248 418.694,-35.5054"/>
</g>
</g>
</svg>
        <g id="navigator" transform="translate(0 0)" fill="#404254">
                <rect fill="#f2f5e9" fill-opacity="0.5" stroke="#606060" stroke-width=".5" x="0" y="0" width="60" height="60"/>
                <use id="zoomplus" xlink:href="#zoomPlus" x="17" y="9" onmousedown="handleZoom(evt,'in')"/>
                <use id="zoomminus" xlink:href="#zoomMin" x="42" y="9" onmousedown="handleZoom(evt,'out')"/>
                <use id="reset" xlink:href="#resetDef" x="30" y="36" onmousedown="handleReset()"/>
                <g id="arrowUp" xlink:href="#dirArrow" transform="translate(30 24)" onmousedown="handlePan(0,-1)">
                  <use xlink:href="#rim" fill="#404040">
                        <set attributeName="fill" to="#808080" begin="arrowUp.mouseover" end="arrowUp.mouseout"/>
                  </use>
                  <path fill="none" stroke="white" stroke-width="1.5" d="M0,-3.0v7 M-2.5,-0.5L0,-3.0L2.5,-0.5"/>
                </g>
                <g id="arrowRight" xlink:href="#dirArrow" transform="rotate(90) translate(36 -43)" onmousedown="handlePan(1,0)">
                  <use xlink:href="#rim" fill="#404040">
                        <set attributeName="fill" to="#808080" begin="arrowRight.mouseover" end="arrowRight.mouseout"/>
                  </use>
                  <path fill="none" stroke="white" stroke-width="1.5" d="M0,-3.0v7 M-2.5,-0.5L0,-3.0L2.5,-0.5"/>
                </g>
                <g id="arrowDown" xlink:href="#dirArrow" transform="rotate(180) translate(-30 -48)" onmousedown="handlePan(0,1)">
                  <use xlink:href="#rim" fill="#404040">
                        <set attributeName="fill" to="#808080" begin="arrowDown.mouseover" end="arrowDown.mouseout"/>
                  </use>
                  <path fill="none" stroke="white" stroke-width="1.5" d="M0,-3.0v7 M-2.5,-0.5L0,-3.0L2.5,-0.5"/>
                </g>
                <g id="arrowLeft" xlink:href="#dirArrow" transform="rotate(270) translate(-36 17)" onmousedown="handlePan(-1,0)">
                  <use xlink:href="#rim" fill="#404040">
                        <set attributeName="fill" to="#808080" begin="arrowLeft.mouseover" end="arrowLeft.mouseout"/>
                  </use>
                  <path fill="none" stroke="white" stroke-width="1.5" d="M0,-3.0v7 M-2.5,-0.5L0,-3.0L2.5,-0.5"/>
                </g>
        </g>
        <svg viewBox="0 0 15 15" width="100%" height="30px" preserveAspectRatio="xMaxYMin meet">
         <g id="arrow_out" transform="scale(0.3 0.3)">
          <a xlink:href="classamunmt_1_1BaseMatrix_a340cbf16c47ba57d32cab301705f7776_cgraph_org.svg" target="_base">
           <rect id="button" ry="5" rx="5" y="6" x="6" height="38" width="38"
                fill="#f2f5e9" fill-opacity="0.5" stroke="#606060" stroke-width="1.0"/>
           <path id="arrow"
             d="M 11.500037,31.436501 C 11.940474,20.09759 22.043105,11.32322 32.158766,21.979434 L 37.068811,17.246167 C 37.068811,17.246167 37.088388,32 37.088388,32 L 22.160133,31.978069 C 22.160133,31.978069 26.997745,27.140456 26.997745,27.140456 C 18.528582,18.264221 13.291696,25.230495 11.500037,31.436501 z"
             style="fill:#404040;"/>
          </a>
         </g>
        </svg>
</svg>
