<?xml version="1.0" encoding="UTF-8" standalone="no"?>
<!DOCTYPE svg PUBLIC "-//W3C//DTD SVG 1.1//EN"
 "http://www.w3.org/Graphics/SVG/1.1/DTD/svg11.dtd">
<!-- Generated by graphviz version 2.38.0 (20140413.2041)
 -->
<!-- Title: marian::AffineNodeOp Pages: 1 -->
<!--zoomable 895 -->
<svg id="main" version="1.1" xmlns="http://www.w3.org/2000/svg" xmlns:xlink="http://www.w3.org/1999/xlink" xml:space="preserve" onload="init(evt)">
<style type="text/css"><![CDATA[
.edge:hover path { stroke: red; }
.edge:hover polygon { stroke: red; fill: red; }
]]></style>
<script type="text/javascript"><![CDATA[
var edges = document.getElementsByTagName('g');
if (edges && edges.length) {
  for (var i=0;i<edges.length;i++) {
    if (edges[i].id.substr(0,4)=='edge') {
      edges[i].setAttribute('class','edge');
    }
  }
}
]]></script>
        <defs>
                <circle id="rim" cx="0" cy="0" r="7"/>
                <circle id="rim2" cx="0" cy="0" r="3.5"/>
                <g id="zoomPlus">
                        <use xlink:href="#rim" fill="#404040">
                                <set attributeName="fill" to="#808080" begin="zoomplus.mouseover" end="zoomplus.mouseout"/>
                        </use>
                        <path d="M-4,0h8M0,-4v8" fill="none" stroke="white" stroke-width="1.5" pointer-events="none"/>
                </g>
                <g id="zoomMin">
                        <use xlink:href="#rim" fill="#404040">
                                <set attributeName="fill" to="#808080" begin="zoomminus.mouseover" end="zoomminus.mouseout"/>
                        </use>
                        <path d="M-4,0h8" fill="none" stroke="white" stroke-width="1.5" pointer-events="none"/>
                </g>
                <g id="dirArrow">
                        <path fill="none" stroke="white" stroke-width="1.5" d="M0,-3.0v7 M-2.5,-0.5L0,-3.0L2.5,-0.5"/>
                </g>
               <g id="resetDef">
                       <use xlink:href="#rim2" fill="#404040">
                               <set attributeName="fill" to="#808080" begin="reset.mouseover" end="reset.mouseout"/>
                       </use>
               </g>
        </defs>

<script type="text/javascript">
var viewWidth = 832;
var viewHeight = 895;
var sectionId = 'dynsection-1';
</script>
<script xlink:href="../../svgpan.js"/>
<svg id="graph" class="graph">
<g id="viewport">
<title>marian::AffineNodeOp</title>
<polygon fill="white" stroke="none" points="-4,4 -4,-891 828,-891 828,4 -4,4"/>
<!-- Node1 -->
<g id="node1" class="node"><title>Node1</title>
<polygon fill="#bfbfbf" stroke="black" points="370,-0.5 370,-101.5 483,-101.5 483,-0.5 370,-0.5"/>
<text text-anchor="middle" x="426.5" y="-89.5" font-family="Helvetica,sans-Serif" font-size="10.00">marian::AffineNodeOp</text>
<polyline fill="none" stroke="black" points="370,-82.5 483,-82.5 "/>
<text text-anchor="middle" x="426.5" y="-70.5" font-family="Helvetica,sans-Serif" font-size="10.00"> </text>
<polyline fill="none" stroke="black" points="370,-63.5 483,-63.5 "/>
<text text-anchor="start" x="378" y="-51.5" font-family="Helvetica,sans-Serif" font-size="10.00">+ AffineNodeOp()</text>
<text text-anchor="start" x="378" y="-40.5" font-family="Helvetica,sans-Serif" font-size="10.00">+ newShape()</text>
<text text-anchor="start" x="378" y="-29.5" font-family="Helvetica,sans-Serif" font-size="10.00">+ forwardOps()</text>
<text text-anchor="start" x="378" y="-18.5" font-family="Helvetica,sans-Serif" font-size="10.00">+ backwardOps()</text>
<text text-anchor="start" x="378" y="-7.5" font-family="Helvetica,sans-Serif" font-size="10.00">+ type()</text>
</g>
<!-- Node2 -->
<g id="node2" class="node"><title>Node2</title>
<g id="a_node2"><a xlink:href="../../d0/da7/structmarian_1_1NaryNodeOp.html" target="_top" xlink:title="{marian::NaryNodeOp\n|+ hash_\l|+ NaryNodeOp()\l+ ~NaryNodeOp()\l+ children()\l+ hash()\l+ remove_children_from\l_top_nodes()\l}">
<polygon fill="white" stroke="black" points="365.5,-139.5 365.5,-251.5 487.5,-251.5 487.5,-139.5 365.5,-139.5"/>
<text text-anchor="middle" x="426.5" y="-239.5" font-family="Helvetica,sans-Serif" font-size="10.00">marian::NaryNodeOp</text>
<polyline fill="none" stroke="black" points="365.5,-232.5 487.5,-232.5 "/>
<text text-anchor="start" x="373.5" y="-220.5" font-family="Helvetica,sans-Serif" font-size="10.00">+ hash_</text>
<polyline fill="none" stroke="black" points="365.5,-213.5 487.5,-213.5 "/>
<text text-anchor="start" x="373.5" y="-201.5" font-family="Helvetica,sans-Serif" font-size="10.00">+ NaryNodeOp()</text>
<text text-anchor="start" x="373.5" y="-190.5" font-family="Helvetica,sans-Serif" font-size="10.00">+ ~NaryNodeOp()</text>
<text text-anchor="start" x="373.5" y="-179.5" font-family="Helvetica,sans-Serif" font-size="10.00">+ children()</text>
<text text-anchor="start" x="373.5" y="-168.5" font-family="Helvetica,sans-Serif" font-size="10.00">+ hash()</text>
<text text-anchor="start" x="373.5" y="-157.5" font-family="Helvetica,sans-Serif" font-size="10.00">+ remove_children_from</text>
<text text-anchor="start" x="373.5" y="-146.5" font-family="Helvetica,sans-Serif" font-size="10.00">_top_nodes()</text>
</a>
</g>
</g>
<!-- Node2&#45;&gt;Node1 -->
<g id="edge1" class="edge"><title>Node2&#45;&gt;Node1</title>
<path fill="none" stroke="midnightblue" d="M426.5,-129.134C426.5,-119.957 426.5,-110.65 426.5,-101.826"/>
<polygon fill="none" stroke="midnightblue" points="423,-129.406 426.5,-139.406 430,-129.406 423,-129.406"/>
</g>
<!-- Node3 -->
<g id="node3" class="node"><title>Node3</title>
<g id="a_node3"><a xlink:href="../../d0/d7a/classmarian_1_1Node.html" target="_top" xlink:title="{marian::Node\n|# id_\l# edges_\l# trainable_\l# destroy_\l# val_\l# adj_\l# markedForDebug_\l|+ Node()\l+ ~Node()\l+ scalar()\l+ forwardOps()\l+ backwardOps()\l+ runForward()\l+ runBackward()\l+ forward()\l+ backward()\l+ trainable()\land 27 more...\l}">
<polygon fill="white" stroke="black" points="374,-289.5 374,-522.5 479,-522.5 479,-289.5 374,-289.5"/>
<text text-anchor="middle" x="426.5" y="-510.5" font-family="Helvetica,sans-Serif" font-size="10.00">marian::Node</text>
<polyline fill="none" stroke="black" points="374,-503.5 479,-503.5 "/>
<text text-anchor="start" x="382" y="-491.5" font-family="Helvetica,sans-Serif" font-size="10.00"># id_</text>
<text text-anchor="start" x="382" y="-480.5" font-family="Helvetica,sans-Serif" font-size="10.00"># edges_</text>
<text text-anchor="start" x="382" y="-469.5" font-family="Helvetica,sans-Serif" font-size="10.00"># trainable_</text>
<text text-anchor="start" x="382" y="-458.5" font-family="Helvetica,sans-Serif" font-size="10.00"># destroy_</text>
<text text-anchor="start" x="382" y="-447.5" font-family="Helvetica,sans-Serif" font-size="10.00"># val_</text>
<text text-anchor="start" x="382" y="-436.5" font-family="Helvetica,sans-Serif" font-size="10.00"># adj_</text>
<text text-anchor="start" x="382" y="-425.5" font-family="Helvetica,sans-Serif" font-size="10.00"># markedForDebug_</text>
<polyline fill="none" stroke="black" points="374,-418.5 479,-418.5 "/>
<text text-anchor="start" x="382" y="-406.5" font-family="Helvetica,sans-Serif" font-size="10.00">+ Node()</text>
<text text-anchor="start" x="382" y="-395.5" font-family="Helvetica,sans-Serif" font-size="10.00">+ ~Node()</text>
<text text-anchor="start" x="382" y="-384.5" font-family="Helvetica,sans-Serif" font-size="10.00">+ scalar()</text>
<text text-anchor="start" x="382" y="-373.5" font-family="Helvetica,sans-Serif" font-size="10.00">+ forwardOps()</text>
<text text-anchor="start" x="382" y="-362.5" font-family="Helvetica,sans-Serif" font-size="10.00">+ backwardOps()</text>
<text text-anchor="start" x="382" y="-351.5" font-family="Helvetica,sans-Serif" font-size="10.00">+ runForward()</text>
<text text-anchor="start" x="382" y="-340.5" font-family="Helvetica,sans-Serif" font-size="10.00">+ runBackward()</text>
<text text-anchor="start" x="382" y="-329.5" font-family="Helvetica,sans-Serif" font-size="10.00">+ forward()</text>
<text text-anchor="start" x="382" y="-318.5" font-family="Helvetica,sans-Serif" font-size="10.00">+ backward()</text>
<text text-anchor="start" x="382" y="-307.5" font-family="Helvetica,sans-Serif" font-size="10.00">+ trainable()</text>
<text text-anchor="start" x="382" y="-296.5" font-family="Helvetica,sans-Serif" font-size="10.00">and 27 more...</text>
</a>
</g>
</g>
<!-- Node3&#45;&gt;Node2 -->
<g id="edge2" class="edge"><title>Node3&#45;&gt;Node2</title>
<path fill="none" stroke="midnightblue" d="M426.5,-279.358C426.5,-269.73 426.5,-260.357 426.5,-251.586"/>
<polygon fill="none" stroke="midnightblue" points="423,-279.469 426.5,-289.469 430,-279.469 423,-279.469"/>
</g>
<!-- Node4 -->
<g id="node4" class="node"><title>Node4</title>
<g id="a_node4"><a xlink:href="../../de/dff/classmarian_1_1Chainable.html" target="_top" xlink:title="{marian::Chainable\&lt;\l Tensor \&gt;\n||+ Chainable()\l+ ~Chainable()\l+ forward()\l+ backward()\l+ forwardOps()\l+ backwardOps()\l+ allocate()\l+ free()\l+ init()\l+ init_dependent()\land 23 more...\l}">
<polygon fill="white" stroke="black" points="0,-587 0,-765 101,-765 101,-587 0,-587"/>
<text text-anchor="start" x="8" y="-753" font-family="Helvetica,sans-Serif" font-size="10.00">marian::Chainable&lt;</text>
<text text-anchor="middle" x="50.5" y="-742" font-family="Helvetica,sans-Serif" font-size="10.00"> Tensor &gt;</text>
<polyline fill="none" stroke="black" points="0,-735 101,-735 "/>
<text text-anchor="middle" x="50.5" y="-723" font-family="Helvetica,sans-Serif" font-size="10.00"> </text>
<polyline fill="none" stroke="black" points="0,-716 101,-716 "/>
<text text-anchor="start" x="8" y="-704" font-family="Helvetica,sans-Serif" font-size="10.00">+ Chainable()</text>
<text text-anchor="start" x="8" y="-693" font-family="Helvetica,sans-Serif" font-size="10.00">+ ~Chainable()</text>
<text text-anchor="start" x="8" y="-682" font-family="Helvetica,sans-Serif" font-size="10.00">+ forward()</text>
<text text-anchor="start" x="8" y="-671" font-family="Helvetica,sans-Serif" font-size="10.00">+ backward()</text>
<text text-anchor="start" x="8" y="-660" font-family="Helvetica,sans-Serif" font-size="10.00">+ forwardOps()</text>
<text text-anchor="start" x="8" y="-649" font-family="Helvetica,sans-Serif" font-size="10.00">+ backwardOps()</text>
<text text-anchor="start" x="8" y="-638" font-family="Helvetica,sans-Serif" font-size="10.00">+ allocate()</text>
<text text-anchor="start" x="8" y="-627" font-family="Helvetica,sans-Serif" font-size="10.00">+ free()</text>
<text text-anchor="start" x="8" y="-616" font-family="Helvetica,sans-Serif" font-size="10.00">+ init()</text>
<text text-anchor="start" x="8" y="-605" font-family="Helvetica,sans-Serif" font-size="10.00">+ init_dependent()</text>
<text text-anchor="start" x="8" y="-594" font-family="Helvetica,sans-Serif" font-size="10.00">and 23 more...</text>
</a>
</g>
</g>
<!-- Node4&#45;&gt;Node3 -->
<g id="edge3" class="edge"><title>Node4&#45;&gt;Node3</title>
<path fill="none" stroke="midnightblue" d="M108.452,-581.999C108.8,-581.664 109.15,-581.33 109.5,-581 188.855,-506.158 306.517,-452.755 373.933,-426.166"/>
<polygon fill="none" stroke="midnightblue" points="105.76,-579.749 101.328,-589.373 110.794,-584.613 105.76,-579.749"/>
</g>
<!-- Node5 -->
<g id="node5" class="node"><title>Node5</title>
<g id="a_node5"><a xlink:href="../../d4/d9b/classmarian_1_1keywords_1_1Keywords.html" target="_top" xlink:title="{marian::keywords::Keywords\n||+ Keywords()\l+ Has()\l+ Get()\l&#45; add()\l&#45; add()\l&#45; add()\l}">
<polygon fill="white" stroke="black" points="119,-620 119,-732 262,-732 262,-620 119,-620"/>
<text text-anchor="middle" x="190.5" y="-720" font-family="Helvetica,sans-Serif" font-size="10.00">marian::keywords::Keywords</text>
<polyline fill="none" stroke="black" points="119,-713 262,-713 "/>
<text text-anchor="middle" x="190.5" y="-701" font-family="Helvetica,sans-Serif" font-size="10.00"> </text>
<polyline fill="none" stroke="black" points="119,-694 262,-694 "/>
<text text-anchor="start" x="127" y="-682" font-family="Helvetica,sans-Serif" font-size="10.00">+ Keywords()</text>
<text text-anchor="start" x="127" y="-671" font-family="Helvetica,sans-Serif" font-size="10.00">+ Has()</text>
<text text-anchor="start" x="127" y="-660" font-family="Helvetica,sans-Serif" font-size="10.00">+ Get()</text>
<text text-anchor="start" x="127" y="-649" font-family="Helvetica,sans-Serif" font-size="10.00">&#45; add()</text>
<text text-anchor="start" x="127" y="-638" font-family="Helvetica,sans-Serif" font-size="10.00">&#45; add()</text>
<text text-anchor="start" x="127" y="-627" font-family="Helvetica,sans-Serif" font-size="10.00">&#45; add()</text>
</a>
</g>
</g>
<!-- Node5&#45;&gt;Node3 -->
<g id="edge4" class="edge"><title>Node5&#45;&gt;Node3</title>
<path fill="none" stroke="midnightblue" d="M244.664,-611.854C253.601,-601.519 262.789,-590.942 271.5,-581 305.358,-542.355 343.77,-499.231 373.884,-465.581"/>
<polygon fill="none" stroke="midnightblue" points="241.779,-609.84 237.891,-619.696 247.076,-614.416 241.779,-609.84"/>
</g>
<!-- Node6 -->
<g id="node6" class="node"><title>Node6</title>
<polygon fill="white" stroke="#bfbfbf" points="137.5,-818.5 137.5,-886.5 243.5,-886.5 243.5,-818.5 137.5,-818.5"/>
<text text-anchor="start" x="145.5" y="-874.5" font-family="Helvetica,sans-Serif" font-size="10.00">std::map&lt; unsigned,</text>
<text text-anchor="middle" x="190.5" y="-863.5" font-family="Helvetica,sans-Serif" font-size="10.00"> boost::any &gt;</text>
<polyline fill="none" stroke="#bfbfbf" points="137.5,-856.5 243.5,-856.5 "/>
<text text-anchor="middle" x="190.5" y="-844.5" font-family="Helvetica,sans-Serif" font-size="10.00"> </text>
<polyline fill="none" stroke="#bfbfbf" points="137.5,-837.5 243.5,-837.5 "/>
<text text-anchor="middle" x="190.5" y="-825.5" font-family="Helvetica,sans-Serif" font-size="10.00"> </text>
</g>
<!-- Node6&#45;&gt;Node5 -->
<g id="edge5" class="edge"><title>Node6&#45;&gt;Node5</title>
<path fill="none" stroke="#404040" d="M190.5,-818.267C190.5,-797.362 190.5,-769.636 190.5,-744.286"/>
<polygon fill="none" stroke="#404040" points="190.5,-744.073 186.5,-738.073 190.5,-732.073 194.5,-738.072 190.5,-744.073"/>
<text text-anchor="middle" x="212.5" y="-792" font-family="Helvetica,sans-Serif" font-size="10.00"> &#45;storage_</text>
</g>
<!-- Node7 -->
<g id="node7" class="node"><title>Node7</title>
<polygon fill="white" stroke="#bfbfbf" points="280.5,-642 280.5,-710 384.5,-710 384.5,-642 280.5,-642"/>
<text text-anchor="start" x="288.5" y="-698" font-family="Helvetica,sans-Serif" font-size="10.00">std::enable_shared</text>
<text text-anchor="middle" x="332.5" y="-687" font-family="Helvetica,sans-Serif" font-size="10.00">_from_this&lt; Node &gt;</text>
<polyline fill="none" stroke="#bfbfbf" points="280.5,-680 384.5,-680 "/>
<text text-anchor="middle" x="332.5" y="-668" font-family="Helvetica,sans-Serif" font-size="10.00"> </text>
<polyline fill="none" stroke="#bfbfbf" points="280.5,-661 384.5,-661 "/>
<text text-anchor="middle" x="332.5" y="-649" font-family="Helvetica,sans-Serif" font-size="10.00"> </text>
</g>
<!-- Node7&#45;&gt;Node3 -->
<g id="edge6" class="edge"><title>Node7&#45;&gt;Node3</title>
<path fill="none" stroke="midnightblue" d="M347.49,-632.263C357.896,-602.593 372.292,-561.55 385.948,-522.617"/>
<polygon fill="none" stroke="midnightblue" points="344.128,-631.274 344.121,-641.869 350.733,-633.591 344.128,-631.274"/>
</g>
<!-- Node8 -->
<g id="node8" class="node"><title>Node8</title>
<g id="a_node8"><a xlink:title="STL class. ">
<polygon fill="white" stroke="#bfbfbf" points="402.5,-647.5 402.5,-704.5 462.5,-704.5 462.5,-647.5 402.5,-647.5"/>
<text text-anchor="middle" x="432.5" y="-692.5" font-family="Helvetica,sans-Serif" font-size="10.00">std::string</text>
<polyline fill="none" stroke="#bfbfbf" points="402.5,-685.5 462.5,-685.5 "/>
<text text-anchor="middle" x="432.5" y="-673.5" font-family="Helvetica,sans-Serif" font-size="10.00"> </text>
<polyline fill="none" stroke="#bfbfbf" points="402.5,-666.5 462.5,-666.5 "/>
<text text-anchor="middle" x="432.5" y="-654.5" font-family="Helvetica,sans-Serif" font-size="10.00"> </text>
</a>
</g>
</g>
<!-- Node8&#45;&gt;Node3 -->
<g id="edge7" class="edge"><title>Node8&#45;&gt;Node3</title>
<path fill="none" stroke="#404040" d="M430.974,-647.394C429.791,-624.731 428.235,-591.797 427.5,-563 427.267,-553.862 427.078,-544.422 426.925,-534.919"/>
<polygon fill="none" stroke="#404040" points="426.925,-534.864 422.838,-528.922 426.751,-522.865 430.837,-528.807 426.925,-534.864"/>
<text text-anchor="middle" x="466" y="-555" font-family="Helvetica,sans-Serif" font-size="10.00"> #name_</text>
<text text-anchor="middle" x="466" y="-544" font-family="Helvetica,sans-Serif" font-size="10.00">#debugMessage_</text>
</g>
<!-- Node9 -->
<g id="node9" class="node"><title>Node9</title>
<polygon fill="white" stroke="#bfbfbf" points="385,-818.5 385,-886.5 480,-886.5 480,-818.5 385,-818.5"/>
<text text-anchor="start" x="393" y="-874.5" font-family="Helvetica,sans-Serif" font-size="10.00">std::basic_string&lt;</text>
<text text-anchor="middle" x="432.5" y="-863.5" font-family="Helvetica,sans-Serif" font-size="10.00"> char &gt;</text>
<polyline fill="none" stroke="#bfbfbf" points="385,-856.5 480,-856.5 "/>
<text text-anchor="middle" x="432.5" y="-844.5" font-family="Helvetica,sans-Serif" font-size="10.00"> </text>
<polyline fill="none" stroke="#bfbfbf" points="385,-837.5 480,-837.5 "/>
<text text-anchor="middle" x="432.5" y="-825.5" font-family="Helvetica,sans-Serif" font-size="10.00"> </text>
</g>
<!-- Node9&#45;&gt;Node8 -->
<g id="edge8" class="edge"><title>Node9&#45;&gt;Node8</title>
<path fill="none" stroke="midnightblue" d="M432.5,-808.169C432.5,-775.783 432.5,-732.474 432.5,-704.652"/>
<polygon fill="none" stroke="midnightblue" points="429,-808.267 432.5,-818.267 436,-808.267 429,-808.267"/>
</g>
<!-- Node10 -->
<g id="node10" class="node"><title>Node10</title>
<g id="a_node10"><a xlink:href="../../d5/d54/structmarian_1_1Shape.html" target="_top" xlink:title="{marian::Shape\n|+ shape_\l+ stride_\l+ bstride_\l|+ Shape()\l+ Shape()\l+ updateStrides()\l+ Shape()\l+ set()\l+ dim()\l+ dim()\l+ operator[]()\l+ operator[]()\l+ stride()\land 12 more...\l}">
<polygon fill="white" stroke="black" points="480.5,-581.5 480.5,-770.5 572.5,-770.5 572.5,-581.5 480.5,-581.5"/>
<text text-anchor="middle" x="526.5" y="-758.5" font-family="Helvetica,sans-Serif" font-size="10.00">marian::Shape</text>
<polyline fill="none" stroke="black" points="480.5,-751.5 572.5,-751.5 "/>
<text text-anchor="start" x="488.5" y="-739.5" font-family="Helvetica,sans-Serif" font-size="10.00">+ shape_</text>
<text text-anchor="start" x="488.5" y="-728.5" font-family="Helvetica,sans-Serif" font-size="10.00">+ stride_</text>
<text text-anchor="start" x="488.5" y="-717.5" font-family="Helvetica,sans-Serif" font-size="10.00">+ bstride_</text>
<polyline fill="none" stroke="black" points="480.5,-710.5 572.5,-710.5 "/>
<text text-anchor="start" x="488.5" y="-698.5" font-family="Helvetica,sans-Serif" font-size="10.00">+ Shape()</text>
<text text-anchor="start" x="488.5" y="-687.5" font-family="Helvetica,sans-Serif" font-size="10.00">+ Shape()</text>
<text text-anchor="start" x="488.5" y="-676.5" font-family="Helvetica,sans-Serif" font-size="10.00">+ updateStrides()</text>
<text text-anchor="start" x="488.5" y="-665.5" font-family="Helvetica,sans-Serif" font-size="10.00">+ Shape()</text>
<text text-anchor="start" x="488.5" y="-654.5" font-family="Helvetica,sans-Serif" font-size="10.00">+ set()</text>
<text text-anchor="start" x="488.5" y="-643.5" font-family="Helvetica,sans-Serif" font-size="10.00">+ dim()</text>
<text text-anchor="start" x="488.5" y="-632.5" font-family="Helvetica,sans-Serif" font-size="10.00">+ dim()</text>
<text text-anchor="start" x="488.5" y="-621.5" font-family="Helvetica,sans-Serif" font-size="10.00">+ operator[]()</text>
<text text-anchor="start" x="488.5" y="-610.5" font-family="Helvetica,sans-Serif" font-size="10.00">+ operator[]()</text>
<text text-anchor="start" x="488.5" y="-599.5" font-family="Helvetica,sans-Serif" font-size="10.00">+ stride()</text>
<text text-anchor="start" x="488.5" y="-588.5" font-family="Helvetica,sans-Serif" font-size="10.00">and 12 more...</text>
</a>
</g>
</g>
<!-- Node10&#45;&gt;Node3 -->
<g id="edge9" class="edge"><title>Node10&#45;&gt;Node3</title>
<path fill="none" stroke="#404040" d="M515.599,-581.254C512.718,-567.544 509.084,-553.757 504.5,-541 499.241,-526.365 492.384,-511.51 484.917,-497.281"/>
<polygon fill="none" stroke="#404040" points="484.814,-497.091 478.441,-493.716 479.104,-486.536 485.477,-489.91 484.814,-497.091"/>
<text text-anchor="middle" x="531.5" y="-549.5" font-family="Helvetica,sans-Serif" font-size="10.00"> #shape_</text>
</g>
<!-- Node11 -->
<g id="node11" class="node"><title>Node11</title>
<polygon fill="white" stroke="#bfbfbf" points="590.5,-642 590.5,-710 704.5,-710 704.5,-642 590.5,-642"/>
<text text-anchor="start" x="598.5" y="-698" font-family="Helvetica,sans-Serif" font-size="10.00">std::weak_ptr&lt; marian</text>
<text text-anchor="middle" x="647.5" y="-687" font-family="Helvetica,sans-Serif" font-size="10.00">::ExpressionGraph &gt;</text>
<polyline fill="none" stroke="#bfbfbf" points="590.5,-680 704.5,-680 "/>
<text text-anchor="middle" x="647.5" y="-668" font-family="Helvetica,sans-Serif" font-size="10.00"> </text>
<polyline fill="none" stroke="#bfbfbf" points="590.5,-661 704.5,-661 "/>
<text text-anchor="middle" x="647.5" y="-649" font-family="Helvetica,sans-Serif" font-size="10.00"> </text>
</g>
<!-- Node11&#45;&gt;Node3 -->
<g id="edge10" class="edge"><title>Node11&#45;&gt;Node3</title>
<path fill="none" stroke="#404040" d="M627,-641.977C609.237,-614.173 582.248,-573.806 555.5,-541 534.693,-515.481 509.996,-489.032 487.809,-466.442"/>
<polygon fill="none" stroke="#404040" points="487.561,-466.192 480.497,-464.74 479.121,-457.662 486.184,-459.114 487.561,-466.192"/>
<text text-anchor="middle" x="591.5" y="-549.5" font-family="Helvetica,sans-Serif" font-size="10.00"> #graph_</text>
</g>
<!-- Node12 -->
<g id="node12" class="node"><title>Node12</title>
<polygon fill="white" stroke="#bfbfbf" points="723,-647.5 723,-704.5 824,-704.5 824,-647.5 723,-647.5"/>
<text text-anchor="middle" x="773.5" y="-692.5" font-family="Helvetica,sans-Serif" font-size="10.00">std::vector&lt; Expr &gt;</text>
<polyline fill="none" stroke="#bfbfbf" points="723,-685.5 824,-685.5 "/>
<text text-anchor="middle" x="773.5" y="-673.5" font-family="Helvetica,sans-Serif" font-size="10.00"> </text>
<polyline fill="none" stroke="#bfbfbf" points="723,-666.5 824,-666.5 "/>
<text text-anchor="middle" x="773.5" y="-654.5" font-family="Helvetica,sans-Serif" font-size="10.00"> </text>
</g>
<!-- Node12&#45;&gt;Node3 -->
<g id="edge11" class="edge"><title>Node12&#45;&gt;Node3</title>
<path fill="none" stroke="#404040" d="M760.1,-647.111C749.473,-627.034 733.163,-600.214 713.5,-581 647.196,-516.21 552.456,-464.746 490.234,-435.069"/>
<polygon fill="none" stroke="#404040" points="489.864,-434.895 482.732,-435.958 479.008,-429.783 486.14,-428.72 489.864,-434.895"/>
<text text-anchor="middle" x="718.5" y="-549.5" font-family="Helvetica,sans-Serif" font-size="10.00"> #children_</text>
</g>
</g>
</svg>
        <g id="navigator" transform="translate(0 0)" fill="#404254">
                <rect fill="#f2f5e9" fill-opacity="0.5" stroke="#606060" stroke-width=".5" x="0" y="0" width="60" height="60"/>
                <use id="zoomplus" xlink:href="#zoomPlus" x="17" y="9" onmousedown="handleZoom(evt,'in')"/>
                <use id="zoomminus" xlink:href="#zoomMin" x="42" y="9" onmousedown="handleZoom(evt,'out')"/>
                <use id="reset" xlink:href="#resetDef" x="30" y="36" onmousedown="handleReset()"/>
                <g id="arrowUp" xlink:href="#dirArrow" transform="translate(30 24)" onmousedown="handlePan(0,-1)">
                  <use xlink:href="#rim" fill="#404040">
                        <set attributeName="fill" to="#808080" begin="arrowUp.mouseover" end="arrowUp.mouseout"/>
                  </use>
                  <path fill="none" stroke="white" stroke-width="1.5" d="M0,-3.0v7 M-2.5,-0.5L0,-3.0L2.5,-0.5"/>
                </g>
                <g id="arrowRight" xlink:href="#dirArrow" transform="rotate(90) translate(36 -43)" onmousedown="handlePan(1,0)">
                  <use xlink:href="#rim" fill="#404040">
                        <set attributeName="fill" to="#808080" begin="arrowRight.mouseover" end="arrowRight.mouseout"/>
                  </use>
                  <path fill="none" stroke="white" stroke-width="1.5" d="M0,-3.0v7 M-2.5,-0.5L0,-3.0L2.5,-0.5"/>
                </g>
                <g id="arrowDown" xlink:href="#dirArrow" transform="rotate(180) translate(-30 -48)" onmousedown="handlePan(0,1)">
                  <use xlink:href="#rim" fill="#404040">
                        <set attributeName="fill" to="#808080" begin="arrowDown.mouseover" end="arrowDown.mouseout"/>
                  </use>
                  <path fill="none" stroke="white" stroke-width="1.5" d="M0,-3.0v7 M-2.5,-0.5L0,-3.0L2.5,-0.5"/>
                </g>
                <g id="arrowLeft" xlink:href="#dirArrow" transform="rotate(270) translate(-36 17)" onmousedown="handlePan(-1,0)">
                  <use xlink:href="#rim" fill="#404040">
                        <set attributeName="fill" to="#808080" begin="arrowLeft.mouseover" end="arrowLeft.mouseout"/>
                  </use>
                  <path fill="none" stroke="white" stroke-width="1.5" d="M0,-3.0v7 M-2.5,-0.5L0,-3.0L2.5,-0.5"/>
                </g>
        </g>
        <svg viewBox="0 0 15 15" width="100%" height="30px" preserveAspectRatio="xMaxYMin meet">
         <g id="arrow_out" transform="scale(0.3 0.3)">
          <a xlink:href="structmarian_1_1AffineNodeOp__coll__graph_org.svg" target="_base">
           <rect id="button" ry="5" rx="5" y="6" x="6" height="38" width="38"
                fill="#f2f5e9" fill-opacity="0.5" stroke="#606060" stroke-width="1.0"/>
           <path id="arrow"
             d="M 11.500037,31.436501 C 11.940474,20.09759 22.043105,11.32322 32.158766,21.979434 L 37.068811,17.246167 C 37.068811,17.246167 37.088388,32 37.088388,32 L 22.160133,31.978069 C 22.160133,31.978069 26.997745,27.140456 26.997745,27.140456 C 18.528582,18.264221 13.291696,25.230495 11.500037,31.436501 z"
             style="fill:#404040;"/>
          </a>
         </g>
        </svg>
</svg>
