<?xml version="1.0" encoding="UTF-8" standalone="no"?>
<!DOCTYPE svg PUBLIC "-//W3C//DTD SVG 1.1//EN"
 "http://www.w3.org/Graphics/SVG/1.1/DTD/svg11.dtd">
<!-- Generated by graphviz version 2.38.0 (20140413.2041)
 -->
<!-- Title: amunmt::GPU::Decoder::Decode Pages: 1 -->
<svg width="470pt" height="186pt"
 viewBox="0.00 0.00 470.00 186.00" xmlns="http://www.w3.org/2000/svg" xmlns:xlink="http://www.w3.org/1999/xlink">
<g id="graph0" class="graph" transform="scale(1 1) rotate(0) translate(4 182)">
<title>amunmt::GPU::Decoder::Decode</title>
<polygon fill="white" stroke="none" points="-4,4 -4,-182 466,-182 466,4 -4,4"/>
<!-- Node1 -->
<g id="node1" class="node"><title>Node1</title>
<polygon fill="#bfbfbf" stroke="black" points="0,-73.5 0,-103.5 122,-103.5 122,-73.5 0,-73.5"/>
<text text-anchor="start" x="8" y="-91.5" font-family="Helvetica,sans-Serif" font-size="10.00">amunmt::GPU::Decoder</text>
<text text-anchor="middle" x="61" y="-80.5" font-family="Helvetica,sans-Serif" font-size="10.00">::Decode</text>
</g>
<!-- Node2 -->
<g id="node2" class="node"><title>Node2</title>
<g id="a_node2"><a xlink:href="../../db/dd5/classamunmt_1_1GPU_1_1Decoder.html#a947db89d51295ae98c8f36769747faeb" target="_top" xlink:title="amunmt::GPU::Decoder\l::GetHiddenState">
<polygon fill="white" stroke="black" points="165,-147.5 165,-177.5 287,-177.5 287,-147.5 165,-147.5"/>
<text text-anchor="start" x="173" y="-165.5" font-family="Helvetica,sans-Serif" font-size="10.00">amunmt::GPU::Decoder</text>
<text text-anchor="middle" x="226" y="-154.5" font-family="Helvetica,sans-Serif" font-size="10.00">::GetHiddenState</text>
</a>
</g>
</g>
<!-- Node1&#45;&gt;Node2 -->
<g id="edge1" class="edge"><title>Node1&#45;&gt;Node2</title>
<path fill="none" stroke="midnightblue" d="M88.4211,-103.504C107.443,-113.997 133.894,-127.963 158,-138.5 162.123,-140.302 166.43,-142.078 170.784,-143.797"/>
<polygon fill="midnightblue" stroke="midnightblue" points="169.747,-147.148 180.338,-147.461 172.254,-140.612 169.747,-147.148"/>
</g>
<!-- Node3 -->
<g id="node3" class="node"><title>Node3</title>
<g id="a_node3"><a xlink:href="../../db/dd5/classamunmt_1_1GPU_1_1Decoder.html#ad11a95e0d1519604bf1d14a8b33970ca" target="_top" xlink:title="amunmt::GPU::Decoder\l::GetAlignedSourceContext">
<polygon fill="white" stroke="black" points="158,-98.5 158,-128.5 294,-128.5 294,-98.5 158,-98.5"/>
<text text-anchor="start" x="166" y="-116.5" font-family="Helvetica,sans-Serif" font-size="10.00">amunmt::GPU::Decoder</text>
<text text-anchor="middle" x="226" y="-105.5" font-family="Helvetica,sans-Serif" font-size="10.00">::GetAlignedSourceContext</text>
</a>
</g>
</g>
<!-- Node1&#45;&gt;Node3 -->
<g id="edge2" class="edge"><title>Node1&#45;&gt;Node3</title>
<path fill="none" stroke="midnightblue" d="M122.232,-97.738C130.575,-99.0177 139.239,-100.346 147.837,-101.665"/>
<polygon fill="midnightblue" stroke="midnightblue" points="147.463,-105.149 157.878,-103.205 148.525,-98.2296 147.463,-105.149"/>
</g>
<!-- Node4 -->
<g id="node4" class="node"><title>Node4</title>
<g id="a_node4"><a xlink:href="../../db/dd5/classamunmt_1_1GPU_1_1Decoder.html#ab3d25eba9931b504c882cf7b3299ae78" target="_top" xlink:title="amunmt::GPU::Decoder\l::GetNextState">
<polygon fill="white" stroke="black" points="165,-49.5 165,-79.5 287,-79.5 287,-49.5 165,-49.5"/>
<text text-anchor="start" x="173" y="-67.5" font-family="Helvetica,sans-Serif" font-size="10.00">amunmt::GPU::Decoder</text>
<text text-anchor="middle" x="226" y="-56.5" font-family="Helvetica,sans-Serif" font-size="10.00">::GetNextState</text>
</a>
</g>
</g>
<!-- Node1&#45;&gt;Node4 -->
<g id="edge3" class="edge"><title>Node1&#45;&gt;Node4</title>
<path fill="none" stroke="midnightblue" d="M122.232,-79.6315C132.747,-78.0833 143.77,-76.4603 154.531,-74.8758"/>
<polygon fill="midnightblue" stroke="midnightblue" points="155.36,-78.2916 164.744,-73.3721 154.34,-71.3662 155.36,-78.2916"/>
</g>
<!-- Node6 -->
<g id="node6" class="node"><title>Node6</title>
<g id="a_node6"><a xlink:href="../../db/dd5/classamunmt_1_1GPU_1_1Decoder.html#a1db9e3d47adbe7d0bc6cb001062f6d69" target="_top" xlink:title="amunmt::GPU::Decoder\l::GetProbs">
<polygon fill="white" stroke="black" points="165,-0.5 165,-30.5 287,-30.5 287,-0.5 165,-0.5"/>
<text text-anchor="start" x="173" y="-18.5" font-family="Helvetica,sans-Serif" font-size="10.00">amunmt::GPU::Decoder</text>
<text text-anchor="middle" x="226" y="-7.5" font-family="Helvetica,sans-Serif" font-size="10.00">::GetProbs</text>
</a>
</g>
</g>
<!-- Node1&#45;&gt;Node6 -->
<g id="edge5" class="edge"><title>Node1&#45;&gt;Node6</title>
<path fill="none" stroke="midnightblue" d="M90.188,-73.4118C109.121,-63.5256 134.762,-50.6107 158,-40.5 162.787,-38.4173 167.809,-36.3443 172.859,-34.3341"/>
<polygon fill="midnightblue" stroke="midnightblue" points="174.504,-37.4495 182.553,-30.5595 171.964,-30.9266 174.504,-37.4495"/>
</g>
<!-- Node5 -->
<g id="node5" class="node"><title>Node5</title>
<g id="a_node5"><a xlink:href="../../d7/d5c/classamunmt_1_1GPU_1_1Decoder_1_1RNNFinal.html#a1b0db5fb40335eeb2acdd098220cbb32" target="_top" xlink:title="amunmt::GPU::Decoder\l::RNNFinal::GetNextState">
<polygon fill="white" stroke="black" points="330,-49.5 330,-79.5 462,-79.5 462,-49.5 330,-49.5"/>
<text text-anchor="start" x="338" y="-67.5" font-family="Helvetica,sans-Serif" font-size="10.00">amunmt::GPU::Decoder</text>
<text text-anchor="middle" x="396" y="-56.5" font-family="Helvetica,sans-Serif" font-size="10.00">::RNNFinal::GetNextState</text>
</a>
</g>
</g>
<!-- Node4&#45;&gt;Node5 -->
<g id="edge4" class="edge"><title>Node4&#45;&gt;Node5</title>
<path fill="none" stroke="midnightblue" d="M287.177,-64.5C297.666,-64.5 308.694,-64.5 319.531,-64.5"/>
<polygon fill="midnightblue" stroke="midnightblue" points="319.839,-68.0001 329.839,-64.5 319.839,-61.0001 319.839,-68.0001"/>
</g>
</g>
</svg>
