<?xml version="1.0" encoding="UTF-8" standalone="no"?>
<!DOCTYPE svg PUBLIC "-//W3C//DTD SVG 1.1//EN"
 "http://www.w3.org/Graphics/SVG/1.1/DTD/svg11.dtd">
<!-- Generated by graphviz version 2.38.0 (20140413.2041)
 -->
<!-- Title: beam_search.h Pages: 1 -->
<svg width="212pt" height="252pt"
 viewBox="0.00 0.00 211.53 252.00" xmlns="http://www.w3.org/2000/svg" xmlns:xlink="http://www.w3.org/1999/xlink">
<g id="graph0" class="graph" transform="scale(1 1) rotate(0) translate(4 248)">
<title>beam_search.h</title>
<polygon fill="white" stroke="none" points="-4,4 -4,-248 207.525,-248 207.525,4 -4,4"/>
<!-- Node1 -->
<g id="node1" class="node"><title>Node1</title>
<polygon fill="#bfbfbf" stroke="black" points="55,-224.5 55,-243.5 138,-243.5 138,-224.5 55,-224.5"/>
<text text-anchor="middle" x="96.5" y="-231.5" font-family="Helvetica,sans-Serif" font-size="10.00">beam_search.h</text>
</g>
<!-- Node2 -->
<g id="node2" class="node"><title>Node2</title>
<g id="a_node2"><a xlink:href="$df/df1/s2s__translator_8cpp.html" xlink:title="s2s_translator.cpp">
<polygon fill="white" stroke="black" points="0,-168.5 0,-187.5 97,-187.5 97,-168.5 0,-168.5"/>
<text text-anchor="middle" x="48.5" y="-175.5" font-family="Helvetica,sans-Serif" font-size="10.00">s2s_translator.cpp</text>
</a>
</g>
</g>
<!-- Node1&#45;&gt;Node2 -->
<g id="edge1" class="edge"><title>Node1&#45;&gt;Node2</title>
<path fill="none" stroke="midnightblue" d="M81.7723,-216.431C73.3599,-206.967 63.1513,-195.483 56.2787,-187.751"/>
<polygon fill="midnightblue" stroke="midnightblue" points="79.3142,-218.934 88.5738,-224.083 84.546,-214.284 79.3142,-218.934"/>
</g>
<!-- Node3 -->
<g id="node3" class="node"><title>Node3</title>
<g id="a_node3"><a xlink:href="$d7/d7d/training_2validator_8h.html" xlink:title="validator.h">
<polygon fill="white" stroke="black" points="114.5,-168.5 114.5,-187.5 176.5,-187.5 176.5,-168.5 114.5,-168.5"/>
<text text-anchor="middle" x="145.5" y="-175.5" font-family="Helvetica,sans-Serif" font-size="10.00">validator.h</text>
</a>
</g>
</g>
<!-- Node1&#45;&gt;Node3 -->
<g id="edge2" class="edge"><title>Node1&#45;&gt;Node3</title>
<path fill="none" stroke="midnightblue" d="M111.534,-216.431C120.122,-206.967 130.543,-195.483 137.559,-187.751"/>
<polygon fill="midnightblue" stroke="midnightblue" points="108.719,-214.325 104.591,-224.083 113.903,-219.029 108.719,-214.325"/>
</g>
<!-- Node4 -->
<g id="node4" class="node"><title>Node4</title>
<g id="a_node4"><a xlink:href="$da/d8c/examples_2mnist_2validator_8h.html" xlink:title="validator.h">
<polygon fill="white" stroke="black" points="0.5,-112.5 0.5,-131.5 62.5,-131.5 62.5,-112.5 0.5,-112.5"/>
<text text-anchor="middle" x="31.5" y="-119.5" font-family="Helvetica,sans-Serif" font-size="10.00">validator.h</text>
</a>
</g>
</g>
<!-- Node3&#45;&gt;Node4 -->
<g id="edge3" class="edge"><title>Node3&#45;&gt;Node4</title>
<path fill="none" stroke="midnightblue" d="M118.258,-164.096C96.9599,-154.007 67.9583,-140.27 49.4791,-131.516"/>
<polygon fill="midnightblue" stroke="midnightblue" points="116.901,-167.326 127.436,-168.444 119.897,-161 116.901,-167.326"/>
</g>
<!-- Node6 -->
<g id="node6" class="node"><title>Node6</title>
<g id="a_node6"><a xlink:href="$d8/d9d/graph__group_8h.html" xlink:title="graph_group.h">
<polygon fill="white" stroke="black" points="125.5,-0.5 125.5,-19.5 203.5,-19.5 203.5,-0.5 125.5,-0.5"/>
<text text-anchor="middle" x="164.5" y="-7.5" font-family="Helvetica,sans-Serif" font-size="10.00">graph_group.h</text>
</a>
</g>
</g>
<!-- Node3&#45;&gt;Node6 -->
<g id="edge5" class="edge"><title>Node3&#45;&gt;Node6</title>
<path fill="none" stroke="midnightblue" d="M158.513,-160.269C172.452,-141.149 193.63,-108.31 201.5,-76 203.604,-67.3636 204.498,-64.3679 201.5,-56 196.246,-41.337 183.924,-28.0309 174.938,-19.7555"/>
<polygon fill="midnightblue" stroke="midnightblue" points="155.545,-158.392 152.341,-168.491 161.144,-162.594 155.545,-158.392"/>
</g>
<!-- Node7 -->
<g id="node7" class="node"><title>Node7</title>
<g id="a_node7"><a xlink:href="$d2/dd8/scheduler_8h.html" xlink:title="scheduler.h">
<polygon fill="white" stroke="black" points="81,-112.5 81,-131.5 148,-131.5 148,-112.5 81,-112.5"/>
<text text-anchor="middle" x="114.5" y="-119.5" font-family="Helvetica,sans-Serif" font-size="10.00">scheduler.h</text>
</a>
</g>
</g>
<!-- Node3&#45;&gt;Node7 -->
<g id="edge6" class="edge"><title>Node3&#45;&gt;Node7</title>
<path fill="none" stroke="midnightblue" d="M135.324,-159.275C130.026,-150.045 123.783,-139.17 119.524,-131.751"/>
<polygon fill="midnightblue" stroke="midnightblue" points="132.367,-161.153 140.381,-168.083 138.438,-157.668 132.367,-161.153"/>
</g>
<!-- Node8 -->
<g id="node8" class="node"><title>Node8</title>
<g id="a_node8"><a xlink:href="$df/d43/training_2training_8h.html" xlink:title="training.h">
<polygon fill="white" stroke="black" points="136.5,-56.5 136.5,-75.5 192.5,-75.5 192.5,-56.5 136.5,-56.5"/>
<text text-anchor="middle" x="164.5" y="-63.5" font-family="Helvetica,sans-Serif" font-size="10.00">training.h</text>
</a>
</g>
</g>
<!-- Node3&#45;&gt;Node8 -->
<g id="edge11" class="edge"><title>Node3&#45;&gt;Node8</title>
<path fill="none" stroke="midnightblue" d="M151.085,-158.618C153.368,-150.521 155.853,-140.853 157.5,-132 161.195,-112.138 163.136,-88.4716 163.976,-75.8939"/>
<polygon fill="midnightblue" stroke="midnightblue" points="147.654,-157.882 148.197,-168.463 154.371,-159.853 147.654,-157.882"/>
</g>
<!-- Node5 -->
<g id="node5" class="node"><title>Node5</title>
<g id="a_node5"><a xlink:href="$d2/d10/examples_2mnist_2training_8h.html" xlink:title="training.h">
<polygon fill="white" stroke="black" points="10.5,-56.5 10.5,-75.5 66.5,-75.5 66.5,-56.5 10.5,-56.5"/>
<text text-anchor="middle" x="38.5" y="-63.5" font-family="Helvetica,sans-Serif" font-size="10.00">training.h</text>
</a>
</g>
</g>
<!-- Node4&#45;&gt;Node5 -->
<g id="edge4" class="edge"><title>Node4&#45;&gt;Node5</title>
<path fill="none" stroke="midnightblue" d="M33.9499,-102.101C35.112,-93.1357 36.4443,-82.8579 37.3656,-75.7511"/>
<polygon fill="midnightblue" stroke="midnightblue" points="30.4706,-101.716 32.6559,-112.083 37.4125,-102.616 30.4706,-101.716"/>
</g>
<!-- Node7&#45;&gt;Node5 -->
<g id="edge7" class="edge"><title>Node7&#45;&gt;Node5</title>
<path fill="none" stroke="midnightblue" d="M93.9242,-106.38C80.188,-96.6204 62.5747,-84.1057 50.9329,-75.8339"/>
<polygon fill="midnightblue" stroke="midnightblue" points="92.1102,-109.385 102.289,-112.324 96.1647,-103.679 92.1102,-109.385"/>
</g>
<!-- Node7&#45;&gt;Node6 -->
<g id="edge8" class="edge"><title>Node7&#45;&gt;Node6</title>
<path fill="none" stroke="midnightblue" d="M115.816,-102.203C117.327,-88.7942 120.566,-70.6228 127.5,-56 134.26,-41.7433 146.521,-28.1517 155.068,-19.7087"/>
<polygon fill="midnightblue" stroke="midnightblue" points="112.331,-101.888 114.91,-112.164 119.302,-102.522 112.331,-101.888"/>
</g>
<!-- Node7&#45;&gt;Node8 -->
<g id="edge9" class="edge"><title>Node7&#45;&gt;Node8</title>
<path fill="none" stroke="midnightblue" d="M129.576,-104.718C138.389,-95.1997 149.166,-83.5608 156.397,-75.7511"/>
<polygon fill="midnightblue" stroke="midnightblue" points="126.982,-102.367 122.756,-112.083 132.119,-107.123 126.982,-102.367"/>
</g>
<!-- Node8&#45;&gt;Node6 -->
<g id="edge10" class="edge"><title>Node8&#45;&gt;Node6</title>
<path fill="none" stroke="midnightblue" d="M164.5,-45.8045C164.5,-36.9102 164.5,-26.7798 164.5,-19.7511"/>
<polygon fill="midnightblue" stroke="midnightblue" points="161,-46.083 164.5,-56.083 168,-46.083 161,-46.083"/>
</g>
</g>
</svg>
