<?xml version="1.0" encoding="UTF-8" standalone="no"?>
<!DOCTYPE svg PUBLIC "-//W3C//DTD SVG 1.1//EN"
 "http://www.w3.org/Graphics/SVG/1.1/DTD/svg11.dtd">
<!-- Generated by graphviz version 2.38.0 (20140413.2041)
 -->
<!-- Title: DeviceCPU::reserve Pages: 1 -->
<!--zoomable 883 -->
<svg id="main" version="1.1" xmlns="http://www.w3.org/2000/svg" xmlns:xlink="http://www.w3.org/1999/xlink" xml:space="preserve" onload="init(evt)">
<style type="text/css"><![CDATA[
.edge:hover path { stroke: red; }
.edge:hover polygon { stroke: red; fill: red; }
]]></style>
<script type="text/javascript"><![CDATA[
var edges = document.getElementsByTagName('g');
if (edges && edges.length) {
  for (var i=0;i<edges.length;i++) {
    if (edges[i].id.substr(0,4)=='edge') {
      edges[i].setAttribute('class','edge');
    }
  }
}
]]></script>
        <defs>
                <circle id="rim" cx="0" cy="0" r="7"/>
                <circle id="rim2" cx="0" cy="0" r="3.5"/>
                <g id="zoomPlus">
                        <use xlink:href="#rim" fill="#404040">
                                <set attributeName="fill" to="#808080" begin="zoomplus.mouseover" end="zoomplus.mouseout"/>
                        </use>
                        <path d="M-4,0h8M0,-4v8" fill="none" stroke="white" stroke-width="1.5" pointer-events="none"/>
                </g>
                <g id="zoomMin">
                        <use xlink:href="#rim" fill="#404040">
                                <set attributeName="fill" to="#808080" begin="zoomminus.mouseover" end="zoomminus.mouseout"/>
                        </use>
                        <path d="M-4,0h8" fill="none" stroke="white" stroke-width="1.5" pointer-events="none"/>
                </g>
                <g id="dirArrow">
                        <path fill="none" stroke="white" stroke-width="1.5" d="M0,-3.0v7 M-2.5,-0.5L0,-3.0L2.5,-0.5"/>
                </g>
               <g id="resetDef">
                       <use xlink:href="#rim2" fill="#404040">
                               <set attributeName="fill" to="#808080" begin="reset.mouseover" end="reset.mouseout"/>
                       </use>
               </g>
        </defs>

<script type="text/javascript">
var viewWidth = 411;
var viewHeight = 883;
var sectionId = 'dynsection-2';
</script>
<script xlink:href="../../svgpan.js"/>
<svg id="graph" class="graph">
<g id="viewport">
<title>DeviceCPU::reserve</title>
<polygon fill="white" stroke="none" points="-4,4 -4,-878.5 407,-878.5 407,4 -4,4"/>
<!-- Node1 -->
<g id="node1" class="node"><title>Node1</title>
<polygon fill="#bfbfbf" stroke="black" points="0,-422 0,-441 107,-441 107,-422 0,-422"/>
<text text-anchor="middle" x="53.5" y="-429" font-family="Helvetica,sans-Serif" font-size="10.00">DeviceCPU::reserve</text>
</g>
<!-- Node2 -->
<g id="node2" class="node"><title>Node2</title>
<g id="a_node2"><a xlink:href="../../d2/d16/classDeviceCPU.html#a645be50c4147bf92c0f3bb3b1f5dc19e" target="_top" xlink:title="DeviceCPU::align">
<polygon fill="white" stroke="black" points="151.5,-466 151.5,-485 246.5,-485 246.5,-466 151.5,-466"/>
<text text-anchor="middle" x="199" y="-473" font-family="Helvetica,sans-Serif" font-size="10.00">DeviceCPU::align</text>
</a>
</g>
</g>
<!-- Node1&#45;&gt;Node2 -->
<g id="edge1" class="edge"><title>Node1&#45;&gt;Node2</title>
<path fill="none" stroke="midnightblue" d="M85.6374,-441.047C106.604,-447.476 134.471,-456.021 157.206,-462.992"/>
<polygon fill="midnightblue" stroke="midnightblue" points="156.337,-466.386 166.923,-465.971 158.389,-459.693 156.337,-466.386"/>
</g>
<!-- Node3 -->
<g id="node3" class="node"><title>Node3</title>
<g id="a_node3"><a xlink:href="../../d1/d49/namespaceamunmt_1_1GPU_1_1mblas.html#a6531a040aa422fcd149f89b92f6d2585" target="_top" xlink:title="amunmt::GPU::mblas\l::copy">
<polygon fill="white" stroke="black" points="143,-416.5 143,-446.5 255,-446.5 255,-416.5 143,-416.5"/>
<text text-anchor="start" x="151" y="-434.5" font-family="Helvetica,sans-Serif" font-size="10.00">amunmt::GPU::mblas</text>
<text text-anchor="middle" x="199" y="-423.5" font-family="Helvetica,sans-Serif" font-size="10.00">::copy</text>
</a>
</g>
</g>
<!-- Node1&#45;&gt;Node3 -->
<g id="edge2" class="edge"><title>Node1&#45;&gt;Node3</title>
<path fill="none" stroke="midnightblue" d="M107.119,-431.5C115.513,-431.5 124.284,-431.5 132.925,-431.5"/>
<polygon fill="midnightblue" stroke="midnightblue" points="132.978,-435 142.978,-431.5 132.978,-428 132.978,-435"/>
</g>
<!-- Node22 -->
<g id="node22" class="node"><title>Node22</title>
<g id="a_node22"><a xlink:href="../../d2/d16/classDeviceCPU.html#a7d0c88aa549974bb767c40d21b990167" target="_top" xlink:title="DeviceCPU::size">
<polygon fill="white" stroke="black" points="152.5,-378 152.5,-397 245.5,-397 245.5,-378 152.5,-378"/>
<text text-anchor="middle" x="199" y="-385" font-family="Helvetica,sans-Serif" font-size="10.00">DeviceCPU::size</text>
</a>
</g>
</g>
<!-- Node1&#45;&gt;Node22 -->
<g id="edge21" class="edge"><title>Node1&#45;&gt;Node22</title>
<path fill="none" stroke="midnightblue" d="M85.6374,-421.953C106.604,-415.524 134.471,-406.979 157.206,-400.008"/>
<polygon fill="midnightblue" stroke="midnightblue" points="158.389,-403.307 166.923,-397.029 156.337,-396.614 158.389,-403.307"/>
</g>
<!-- Node4 -->
<g id="node4" class="node"><title>Node4</title>
<g id="a_node4"><a xlink:href="../../dc/d89/classamunmt_1_1GPU_1_1mblas_1_1CudaStreamHandler.html#aab9046cda40ac3fed5676d5aa680e6c8" target="_top" xlink:title="amunmt::GPU::mblas\l::CudaStreamHandler\l::GetStream">
<polygon fill="white" stroke="black" points="291,-833 291,-874 403,-874 403,-833 291,-833"/>
<text text-anchor="start" x="299" y="-862" font-family="Helvetica,sans-Serif" font-size="10.00">amunmt::GPU::mblas</text>
<text text-anchor="start" x="299" y="-851" font-family="Helvetica,sans-Serif" font-size="10.00">::CudaStreamHandler</text>
<text text-anchor="middle" x="347" y="-840" font-family="Helvetica,sans-Serif" font-size="10.00">::GetStream</text>
</a>
</g>
</g>
<!-- Node3&#45;&gt;Node4 -->
<g id="edge3" class="edge"><title>Node3&#45;&gt;Node4</title>
<path fill="none" stroke="midnightblue" d="M244.903,-446.63C248.774,-449.399 252.254,-452.661 255,-456.5 350.598,-590.169 199.359,-688.087 291,-824.5 291.128,-824.69 291.257,-824.88 291.389,-825.068"/>
<polygon fill="midnightblue" stroke="midnightblue" points="288.998,-827.645 298.27,-832.772 294.219,-822.982 288.998,-827.645"/>
</g>
<!-- Node5 -->
<g id="node5" class="node"><title>Node5</title>
<g id="a_node5"><a xlink:href="../../d1/d49/namespaceamunmt_1_1GPU_1_1mblas.html#aae3149752683fc6c3d719c495c161cbc" target="_top" xlink:title="amunmt::GPU::mblas\l::Fill">
<polygon fill="white" stroke="black" points="291,-784.5 291,-814.5 403,-814.5 403,-784.5 291,-784.5"/>
<text text-anchor="start" x="299" y="-802.5" font-family="Helvetica,sans-Serif" font-size="10.00">amunmt::GPU::mblas</text>
<text text-anchor="middle" x="347" y="-791.5" font-family="Helvetica,sans-Serif" font-size="10.00">::Fill</text>
</a>
</g>
</g>
<!-- Node3&#45;&gt;Node5 -->
<g id="edge4" class="edge"><title>Node3&#45;&gt;Node5</title>
<path fill="none" stroke="midnightblue" d="M244.845,-446.672C248.728,-449.433 252.226,-452.681 255,-456.5 338.859,-571.933 206.268,-660.707 291,-775.5 291.555,-776.252 292.138,-776.98 292.748,-777.686"/>
<polygon fill="midnightblue" stroke="midnightblue" points="290.397,-780.279 300.148,-784.422 295.108,-775.102 290.397,-780.279"/>
</g>
<!-- Node6 -->
<g id="node6" class="node"><title>Node6</title>
<g id="a_node6"><a xlink:href="../../d1/d49/namespaceamunmt_1_1GPU_1_1mblas.html#a88b723882ca7b614a20e6e9edb5c214b" target="_top" xlink:title="amunmt::GPU::mblas\l::Swap">
<polygon fill="white" stroke="black" points="291,-735.5 291,-765.5 403,-765.5 403,-735.5 291,-735.5"/>
<text text-anchor="start" x="299" y="-753.5" font-family="Helvetica,sans-Serif" font-size="10.00">amunmt::GPU::mblas</text>
<text text-anchor="middle" x="347" y="-742.5" font-family="Helvetica,sans-Serif" font-size="10.00">::Swap</text>
</a>
</g>
</g>
<!-- Node3&#45;&gt;Node6 -->
<g id="edge5" class="edge"><title>Node3&#45;&gt;Node6</title>
<path fill="none" stroke="midnightblue" d="M244.507,-446.547C248.507,-449.336 252.125,-452.625 255,-456.5 327.138,-553.722 218.126,-629.828 291,-726.5 291.562,-727.246 292.153,-727.969 292.769,-728.671"/>
<polygon fill="midnightblue" stroke="midnightblue" points="290.444,-731.286 300.221,-735.367 295.122,-726.08 290.444,-731.286"/>
</g>
<!-- Node7 -->
<g id="node7" class="node"><title>Node7</title>
<g id="a_node7"><a xlink:href="../../d1/d49/namespaceamunmt_1_1GPU_1_1mblas.html#ae4b56d534b95189bf183d6008e2d7e45" target="_top" xlink:title="amunmt::GPU::mblas\l::Mean">
<polygon fill="white" stroke="black" points="291,-686.5 291,-716.5 403,-716.5 403,-686.5 291,-686.5"/>
<text text-anchor="start" x="299" y="-704.5" font-family="Helvetica,sans-Serif" font-size="10.00">amunmt::GPU::mblas</text>
<text text-anchor="middle" x="347" y="-693.5" font-family="Helvetica,sans-Serif" font-size="10.00">::Mean</text>
</a>
</g>
</g>
<!-- Node3&#45;&gt;Node7 -->
<g id="edge6" class="edge"><title>Node3&#45;&gt;Node7</title>
<path fill="none" stroke="midnightblue" d="M244.394,-446.631C248.416,-449.405 252.069,-452.667 255,-456.5 315.45,-535.553 229.952,-598.907 291,-677.5 291.587,-678.256 292.203,-678.988 292.845,-679.698"/>
<polygon fill="midnightblue" stroke="midnightblue" points="290.752,-682.518 300.582,-686.47 295.362,-677.251 290.752,-682.518"/>
</g>
<!-- Node8 -->
<g id="node8" class="node"><title>Node8</title>
<g id="a_node8"><a xlink:href="../../d1/d49/namespaceamunmt_1_1GPU_1_1mblas.html#a90a5cec147d44d6774e5de8e9e0d696e" target="_top" xlink:title="amunmt::GPU::mblas\l::WeightedMean">
<polygon fill="white" stroke="black" points="291,-637.5 291,-667.5 403,-667.5 403,-637.5 291,-637.5"/>
<text text-anchor="start" x="299" y="-655.5" font-family="Helvetica,sans-Serif" font-size="10.00">amunmt::GPU::mblas</text>
<text text-anchor="middle" x="347" y="-644.5" font-family="Helvetica,sans-Serif" font-size="10.00">::WeightedMean</text>
</a>
</g>
</g>
<!-- Node3&#45;&gt;Node8 -->
<g id="edge7" class="edge"><title>Node3&#45;&gt;Node8</title>
<path fill="none" stroke="midnightblue" d="M243.957,-446.587C248.115,-449.374 251.918,-452.652 255,-456.5 303.82,-517.462 241.719,-567.91 291,-628.5 291.604,-629.243 292.235,-629.963 292.892,-630.661"/>
<polygon fill="midnightblue" stroke="midnightblue" points="290.859,-633.527 300.744,-637.342 295.396,-628.196 290.859,-633.527"/>
</g>
<!-- Node9 -->
<g id="node9" class="node"><title>Node9</title>
<g id="a_node9"><a xlink:href="../../d1/d49/namespaceamunmt_1_1GPU_1_1mblas.html#a5b1f45cb5c05d5a9fbedab3e74553e73" target="_top" xlink:title="amunmt::GPU::mblas\l::Transpose">
<polygon fill="white" stroke="black" points="291,-588.5 291,-618.5 403,-618.5 403,-588.5 291,-588.5"/>
<text text-anchor="start" x="299" y="-606.5" font-family="Helvetica,sans-Serif" font-size="10.00">amunmt::GPU::mblas</text>
<text text-anchor="middle" x="347" y="-595.5" font-family="Helvetica,sans-Serif" font-size="10.00">::Transpose</text>
</a>
</g>
</g>
<!-- Node3&#45;&gt;Node9 -->
<g id="edge8" class="edge"><title>Node3&#45;&gt;Node9</title>
<path fill="none" stroke="midnightblue" d="M243.391,-446.66C247.706,-449.441 251.701,-452.697 255,-456.5 292.32,-499.531 253.354,-536.754 291,-579.5 291.757,-580.36 292.551,-581.19 293.377,-581.992"/>
<polygon fill="midnightblue" stroke="midnightblue" points="291.536,-584.998 301.549,-588.461 295.88,-579.51 291.536,-584.998"/>
</g>
<!-- Node10 -->
<g id="node10" class="node"><title>Node10</title>
<g id="a_node10"><a xlink:href="../../d1/d49/namespaceamunmt_1_1GPU_1_1mblas.html#a6359878c47a6c3703d7d8b6e9db1d87e" target="_top" xlink:title="amunmt::GPU::mblas\l::Copy">
<polygon fill="white" stroke="black" points="291,-539.5 291,-569.5 403,-569.5 403,-539.5 291,-539.5"/>
<text text-anchor="start" x="299" y="-557.5" font-family="Helvetica,sans-Serif" font-size="10.00">amunmt::GPU::mblas</text>
<text text-anchor="middle" x="347" y="-546.5" font-family="Helvetica,sans-Serif" font-size="10.00">::Copy</text>
</a>
</g>
</g>
<!-- Node3&#45;&gt;Node10 -->
<g id="edge9" class="edge"><title>Node3&#45;&gt;Node10</title>
<path fill="none" stroke="midnightblue" d="M241.672,-446.574C246.504,-449.403 251.093,-452.694 255,-456.5 281.198,-482.022 264.609,-505.178 291,-530.5 292.104,-531.559 293.263,-532.576 294.466,-533.552"/>
<polygon fill="midnightblue" stroke="midnightblue" points="292.728,-536.606 302.946,-539.409 296.706,-530.846 292.728,-536.606"/>
</g>
<!-- Node11 -->
<g id="node11" class="node"><title>Node11</title>
<g id="a_node11"><a xlink:href="../../d1/d49/namespaceamunmt_1_1GPU_1_1mblas.html#aff338966a337172d52673594c7a31474" target="_top" xlink:title="amunmt::GPU::mblas\l::PasteRow">
<polygon fill="white" stroke="black" points="291,-490.5 291,-520.5 403,-520.5 403,-490.5 291,-490.5"/>
<text text-anchor="start" x="299" y="-508.5" font-family="Helvetica,sans-Serif" font-size="10.00">amunmt::GPU::mblas</text>
<text text-anchor="middle" x="347" y="-497.5" font-family="Helvetica,sans-Serif" font-size="10.00">::PasteRow</text>
</a>
</g>
</g>
<!-- Node3&#45;&gt;Node11 -->
<g id="edge10" class="edge"><title>Node3&#45;&gt;Node11</title>
<path fill="none" stroke="midnightblue" d="M235.68,-446.581C242.211,-449.66 248.89,-453.028 255,-456.5 271.936,-466.125 273.992,-472.004 291,-481.5 293.82,-483.074 296.763,-484.619 299.759,-486.119"/>
<polygon fill="midnightblue" stroke="midnightblue" points="298.301,-489.302 308.832,-490.466 301.326,-482.989 298.301,-489.302"/>
</g>
<!-- Node12 -->
<g id="node12" class="node"><title>Node12</title>
<g id="a_node12"><a xlink:href="../../d1/d49/namespaceamunmt_1_1GPU_1_1mblas.html#aea9adf68efb5a26cb9bca66189c1786c" target="_top" xlink:title="amunmt::GPU::mblas\l::PasteRows">
<polygon fill="white" stroke="black" points="291,-441.5 291,-471.5 403,-471.5 403,-441.5 291,-441.5"/>
<text text-anchor="start" x="299" y="-459.5" font-family="Helvetica,sans-Serif" font-size="10.00">amunmt::GPU::mblas</text>
<text text-anchor="middle" x="347" y="-448.5" font-family="Helvetica,sans-Serif" font-size="10.00">::PasteRows</text>
</a>
</g>
</g>
<!-- Node3&#45;&gt;Node12 -->
<g id="edge11" class="edge"><title>Node3&#45;&gt;Node12</title>
<path fill="none" stroke="midnightblue" d="M255.196,-440.951C263.554,-442.383 272.243,-443.87 280.789,-445.334"/>
<polygon fill="midnightblue" stroke="midnightblue" points="280.278,-448.797 290.726,-447.035 281.46,-441.898 280.278,-448.797"/>
</g>
<!-- Node13 -->
<g id="node13" class="node"><title>Node13</title>
<g id="a_node13"><a xlink:href="../../d1/d49/namespaceamunmt_1_1GPU_1_1mblas.html#a4cbcf6af0265debf12e8348d2eea6daa" target="_top" xlink:title="amunmt::GPU::mblas\l::CopyRow">
<polygon fill="white" stroke="black" points="291,-392.5 291,-422.5 403,-422.5 403,-392.5 291,-392.5"/>
<text text-anchor="start" x="299" y="-410.5" font-family="Helvetica,sans-Serif" font-size="10.00">amunmt::GPU::mblas</text>
<text text-anchor="middle" x="347" y="-399.5" font-family="Helvetica,sans-Serif" font-size="10.00">::CopyRow</text>
</a>
</g>
</g>
<!-- Node3&#45;&gt;Node13 -->
<g id="edge12" class="edge"><title>Node3&#45;&gt;Node13</title>
<path fill="none" stroke="midnightblue" d="M255.196,-422.427C263.554,-421.053 272.243,-419.624 280.789,-418.22"/>
<polygon fill="midnightblue" stroke="midnightblue" points="281.426,-421.662 290.726,-416.586 280.29,-414.755 281.426,-421.662"/>
</g>
<!-- Node14 -->
<g id="node14" class="node"><title>Node14</title>
<g id="a_node14"><a xlink:href="../../d1/d49/namespaceamunmt_1_1GPU_1_1mblas.html#af345694ea7f81e67d44c906d2a24b4a9" target="_top" xlink:title="amunmt::GPU::mblas\l::Concat">
<polygon fill="white" stroke="black" points="291,-343.5 291,-373.5 403,-373.5 403,-343.5 291,-343.5"/>
<text text-anchor="start" x="299" y="-361.5" font-family="Helvetica,sans-Serif" font-size="10.00">amunmt::GPU::mblas</text>
<text text-anchor="middle" x="347" y="-350.5" font-family="Helvetica,sans-Serif" font-size="10.00">::Concat</text>
</a>
</g>
</g>
<!-- Node3&#45;&gt;Node14 -->
<g id="edge13" class="edge"><title>Node3&#45;&gt;Node14</title>
<path fill="none" stroke="midnightblue" d="M234.987,-416.499C241.713,-413.363 248.64,-409.954 255,-406.5 271.684,-397.438 274.316,-392.562 291,-383.5 294.478,-381.611 298.126,-379.736 301.817,-377.911"/>
<polygon fill="midnightblue" stroke="midnightblue" points="303.51,-380.981 311.013,-373.501 300.483,-374.669 303.51,-380.981"/>
</g>
<!-- Node15 -->
<g id="node15" class="node"><title>Node15</title>
<g id="a_node15"><a xlink:href="../../d1/d49/namespaceamunmt_1_1GPU_1_1mblas.html#ac4634f9a58b95ccdd997393c75a9fc69" target="_top" xlink:title="amunmt::GPU::mblas\l::MapMatrix">
<polygon fill="white" stroke="black" points="291,-294.5 291,-324.5 403,-324.5 403,-294.5 291,-294.5"/>
<text text-anchor="start" x="299" y="-312.5" font-family="Helvetica,sans-Serif" font-size="10.00">amunmt::GPU::mblas</text>
<text text-anchor="middle" x="347" y="-301.5" font-family="Helvetica,sans-Serif" font-size="10.00">::MapMatrix</text>
</a>
</g>
</g>
<!-- Node3&#45;&gt;Node15 -->
<g id="edge14" class="edge"><title>Node3&#45;&gt;Node15</title>
<path fill="none" stroke="midnightblue" d="M241.632,-416.385C246.471,-413.563 251.073,-410.285 255,-406.5 280.762,-381.674 265.238,-359.326 291,-334.5 292.473,-333.081 294.04,-331.733 295.68,-330.453"/>
<polygon fill="midnightblue" stroke="midnightblue" points="298.02,-333.097 304.368,-324.615 294.116,-327.287 298.02,-333.097"/>
</g>
<!-- Node16 -->
<g id="node16" class="node"><title>Node16</title>
<g id="a_node16"><a xlink:href="../../d1/d49/namespaceamunmt_1_1GPU_1_1mblas.html#ab9e2664595a60723ce6158c22f2ed527" target="_top" xlink:title="amunmt::GPU::mblas\l::CopyRows">
<polygon fill="white" stroke="black" points="291,-245.5 291,-275.5 403,-275.5 403,-245.5 291,-245.5"/>
<text text-anchor="start" x="299" y="-263.5" font-family="Helvetica,sans-Serif" font-size="10.00">amunmt::GPU::mblas</text>
<text text-anchor="middle" x="347" y="-252.5" font-family="Helvetica,sans-Serif" font-size="10.00">::CopyRows</text>
</a>
</g>
</g>
<!-- Node3&#45;&gt;Node16 -->
<g id="edge15" class="edge"><title>Node3&#45;&gt;Node16</title>
<path fill="none" stroke="midnightblue" d="M243.104,-416.498C247.525,-413.683 251.624,-410.375 255,-406.5 291.856,-364.195 254.144,-327.805 291,-285.5 292.161,-284.168 293.406,-282.903 294.721,-281.702"/>
<polygon fill="midnightblue" stroke="midnightblue" points="297.043,-284.334 302.896,-275.502 292.813,-278.757 297.043,-284.334"/>
</g>
<!-- Node17 -->
<g id="node17" class="node"><title>Node17</title>
<g id="a_node17"><a xlink:href="../../d1/d49/namespaceamunmt_1_1GPU_1_1mblas.html#a45e67b812840551fae28c4f7cca2b562" target="_top" xlink:title="amunmt::GPU::mblas\l::Assemble">
<polygon fill="white" stroke="black" points="291,-196.5 291,-226.5 403,-226.5 403,-196.5 291,-196.5"/>
<text text-anchor="start" x="299" y="-214.5" font-family="Helvetica,sans-Serif" font-size="10.00">amunmt::GPU::mblas</text>
<text text-anchor="middle" x="347" y="-203.5" font-family="Helvetica,sans-Serif" font-size="10.00">::Assemble</text>
</a>
</g>
</g>
<!-- Node3&#45;&gt;Node17 -->
<g id="edge16" class="edge"><title>Node3&#45;&gt;Node17</title>
<path fill="none" stroke="midnightblue" d="M243.948,-416.405C248.107,-413.62 251.914,-410.344 255,-406.5 303.347,-346.274 242.653,-296.726 291,-236.5 291.964,-235.299 292.999,-234.153 294.093,-233.06"/>
<polygon fill="midnightblue" stroke="midnightblue" points="296.497,-235.617 302.052,-226.595 292.083,-230.184 296.497,-235.617"/>
</g>
<!-- Node18 -->
<g id="node18" class="node"><title>Node18</title>
<g id="a_node18"><a xlink:href="../../d1/d49/namespaceamunmt_1_1GPU_1_1mblas.html#aacbc57fa7bf5c1fac6abbd44a9832c8d" target="_top" xlink:title="amunmt::GPU::mblas\l::Slice">
<polygon fill="white" stroke="black" points="291,-147.5 291,-177.5 403,-177.5 403,-147.5 291,-147.5"/>
<text text-anchor="start" x="299" y="-165.5" font-family="Helvetica,sans-Serif" font-size="10.00">amunmt::GPU::mblas</text>
<text text-anchor="middle" x="347" y="-154.5" font-family="Helvetica,sans-Serif" font-size="10.00">::Slice</text>
</a>
</g>
</g>
<!-- Node3&#45;&gt;Node18 -->
<g id="edge17" class="edge"><title>Node3&#45;&gt;Node18</title>
<path fill="none" stroke="midnightblue" d="M244.389,-416.364C248.411,-413.592 252.066,-410.331 255,-406.5 314.974,-328.187 231.026,-265.813 291,-187.5 291.917,-186.303 292.904,-185.161 293.951,-184.073"/>
<polygon fill="midnightblue" stroke="midnightblue" points="296.207,-186.749 301.611,-177.636 291.704,-181.39 296.207,-186.749"/>
</g>
<!-- Node19 -->
<g id="node19" class="node"><title>Node19</title>
<g id="a_node19"><a xlink:href="../../d1/d49/namespaceamunmt_1_1GPU_1_1mblas.html#a463b2de180e8ab66bae53d1f8c5bc011" target="_top" xlink:title="amunmt::GPU::mblas\l::Prod">
<polygon fill="white" stroke="black" points="291,-98.5 291,-128.5 403,-128.5 403,-98.5 291,-98.5"/>
<text text-anchor="start" x="299" y="-116.5" font-family="Helvetica,sans-Serif" font-size="10.00">amunmt::GPU::mblas</text>
<text text-anchor="middle" x="347" y="-105.5" font-family="Helvetica,sans-Serif" font-size="10.00">::Prod</text>
</a>
</g>
</g>
<!-- Node3&#45;&gt;Node19 -->
<g id="edge18" class="edge"><title>Node3&#45;&gt;Node19</title>
<path fill="none" stroke="midnightblue" d="M244.503,-416.451C248.504,-413.662 252.123,-410.373 255,-406.5 326.66,-310.021 219.34,-234.979 291,-138.5 291.809,-137.411 292.677,-136.368 293.595,-135.369"/>
<polygon fill="midnightblue" stroke="midnightblue" points="296.213,-137.733 301.497,-128.549 291.64,-132.433 296.213,-137.733"/>
</g>
<!-- Node20 -->
<g id="node20" class="node"><title>Node20</title>
<g id="a_node20"><a xlink:href="../../d1/d49/namespaceamunmt_1_1GPU_1_1mblas.html#ad21070cb29f8c33c03f76e31ef902dfe" target="_top" xlink:title="amunmt::GPU::mblas\l::Softmax">
<polygon fill="white" stroke="black" points="291,-49.5 291,-79.5 403,-79.5 403,-49.5 291,-49.5"/>
<text text-anchor="start" x="299" y="-67.5" font-family="Helvetica,sans-Serif" font-size="10.00">amunmt::GPU::mblas</text>
<text text-anchor="middle" x="347" y="-56.5" font-family="Helvetica,sans-Serif" font-size="10.00">::Softmax</text>
</a>
</g>
</g>
<!-- Node3&#45;&gt;Node20 -->
<g id="edge19" class="edge"><title>Node3&#45;&gt;Node20</title>
<path fill="none" stroke="midnightblue" d="M244.843,-416.326C248.725,-413.566 252.225,-410.318 255,-406.5 338.38,-291.811 207.62,-204.189 291,-89.5 291.781,-88.4263 292.618,-87.3976 293.506,-86.4122"/>
<polygon fill="midnightblue" stroke="midnightblue" points="295.966,-88.9096 301.157,-79.6737 291.34,-83.6563 295.966,-88.9096"/>
</g>
<!-- Node21 -->
<g id="node21" class="node"><title>Node21</title>
<g id="a_node21"><a xlink:href="../../d1/d49/namespaceamunmt_1_1GPU_1_1mblas.html#a25593e31e47b2518b1fc922e3b0a1a77" target="_top" xlink:title="amunmt::GPU::mblas\l::LogSoftmax">
<polygon fill="white" stroke="black" points="291,-0.5 291,-30.5 403,-30.5 403,-0.5 291,-0.5"/>
<text text-anchor="start" x="299" y="-18.5" font-family="Helvetica,sans-Serif" font-size="10.00">amunmt::GPU::mblas</text>
<text text-anchor="middle" x="347" y="-7.5" font-family="Helvetica,sans-Serif" font-size="10.00">::LogSoftmax</text>
</a>
</g>
</g>
<!-- Node3&#45;&gt;Node21 -->
<g id="edge20" class="edge"><title>Node3&#45;&gt;Node21</title>
<path fill="none" stroke="midnightblue" d="M244.901,-416.369C248.773,-413.6 252.253,-410.338 255,-406.5 350.118,-273.575 195.882,-173.425 291,-40.5 291.773,-39.4204 292.603,-38.3865 293.484,-37.3964"/>
<polygon fill="midnightblue" stroke="midnightblue" points="295.947,-39.8897 301.099,-30.6314 291.298,-34.6565 295.947,-39.8897"/>
</g>
</g>
</svg>
        <g id="navigator" transform="translate(0 0)" fill="#404254">
                <rect fill="#f2f5e9" fill-opacity="0.5" stroke="#606060" stroke-width=".5" x="0" y="0" width="60" height="60"/>
                <use id="zoomplus" xlink:href="#zoomPlus" x="17" y="9" onmousedown="handleZoom(evt,'in')"/>
                <use id="zoomminus" xlink:href="#zoomMin" x="42" y="9" onmousedown="handleZoom(evt,'out')"/>
                <use id="reset" xlink:href="#resetDef" x="30" y="36" onmousedown="handleReset()"/>
                <g id="arrowUp" xlink:href="#dirArrow" transform="translate(30 24)" onmousedown="handlePan(0,-1)">
                  <use xlink:href="#rim" fill="#404040">
                        <set attributeName="fill" to="#808080" begin="arrowUp.mouseover" end="arrowUp.mouseout"/>
                  </use>
                  <path fill="none" stroke="white" stroke-width="1.5" d="M0,-3.0v7 M-2.5,-0.5L0,-3.0L2.5,-0.5"/>
                </g>
                <g id="arrowRight" xlink:href="#dirArrow" transform="rotate(90) translate(36 -43)" onmousedown="handlePan(1,0)">
                  <use xlink:href="#rim" fill="#404040">
                        <set attributeName="fill" to="#808080" begin="arrowRight.mouseover" end="arrowRight.mouseout"/>
                  </use>
                  <path fill="none" stroke="white" stroke-width="1.5" d="M0,-3.0v7 M-2.5,-0.5L0,-3.0L2.5,-0.5"/>
                </g>
                <g id="arrowDown" xlink:href="#dirArrow" transform="rotate(180) translate(-30 -48)" onmousedown="handlePan(0,1)">
                  <use xlink:href="#rim" fill="#404040">
                        <set attributeName="fill" to="#808080" begin="arrowDown.mouseover" end="arrowDown.mouseout"/>
                  </use>
                  <path fill="none" stroke="white" stroke-width="1.5" d="M0,-3.0v7 M-2.5,-0.5L0,-3.0L2.5,-0.5"/>
                </g>
                <g id="arrowLeft" xlink:href="#dirArrow" transform="rotate(270) translate(-36 17)" onmousedown="handlePan(-1,0)">
                  <use xlink:href="#rim" fill="#404040">
                        <set attributeName="fill" to="#808080" begin="arrowLeft.mouseover" end="arrowLeft.mouseout"/>
                  </use>
                  <path fill="none" stroke="white" stroke-width="1.5" d="M0,-3.0v7 M-2.5,-0.5L0,-3.0L2.5,-0.5"/>
                </g>
        </g>
        <svg viewBox="0 0 15 15" width="100%" height="30px" preserveAspectRatio="xMaxYMin meet">
         <g id="arrow_out" transform="scale(0.3 0.3)">
          <a xlink:href="classDeviceCPU_ad86a817a1e6d8e56ce39ceaf0c61ba27_cgraph_org.svg" target="_base">
           <rect id="button" ry="5" rx="5" y="6" x="6" height="38" width="38"
                fill="#f2f5e9" fill-opacity="0.5" stroke="#606060" stroke-width="1.0"/>
           <path id="arrow"
             d="M 11.500037,31.436501 C 11.940474,20.09759 22.043105,11.32322 32.158766,21.979434 L 37.068811,17.246167 C 37.068811,17.246167 37.088388,32 37.088388,32 L 22.160133,31.978069 C 22.160133,31.978069 26.997745,27.140456 26.997745,27.140456 C 18.528582,18.264221 13.291696,25.230495 11.500037,31.436501 z"
             style="fill:#404040;"/>
          </a>
         </g>
        </svg>
</svg>
