<?xml version="1.0" encoding="UTF-8" standalone="no"?>
<!DOCTYPE svg PUBLIC "-//W3C//DTD SVG 1.1//EN"
 "http://www.w3.org/Graphics/SVG/1.1/DTD/svg11.dtd">
<!-- Generated by graphviz version 2.38.0 (20140413.2041)
 -->
<!-- Title: types.cpp Pages: 1 -->
<svg width="252pt" height="140pt"
 viewBox="0.00 0.00 251.50 140.00" xmlns="http://www.w3.org/2000/svg" xmlns:xlink="http://www.w3.org/1999/xlink">
<g id="graph0" class="graph" transform="scale(1 1) rotate(0) translate(4 136)">
<title>types.cpp</title>
<polygon fill="white" stroke="none" points="-4,4 -4,-136 247.5,-136 247.5,4 -4,4"/>
<!-- Node1 -->
<g id="node1" class="node"><title>Node1</title>
<polygon fill="#bfbfbf" stroke="black" points="88,-112.5 88,-131.5 147,-131.5 147,-112.5 88,-112.5"/>
<text text-anchor="middle" x="117.5" y="-119.5" font-family="Helvetica,sans-Serif" font-size="10.00">types.cpp</text>
</g>
<!-- Node2 -->
<g id="node2" class="node"><title>Node2</title>
<g id="a_node2"><a xlink:href="$dc/de7/amun_2common_2types_8h.html" xlink:title="types.h">
<polygon fill="white" stroke="black" points="93,-56.5 93,-75.5 142,-75.5 142,-56.5 93,-56.5"/>
<text text-anchor="middle" x="117.5" y="-63.5" font-family="Helvetica,sans-Serif" font-size="10.00">types.h</text>
</a>
</g>
</g>
<!-- Node1&#45;&gt;Node2 -->
<g id="edge1" class="edge"><title>Node1&#45;&gt;Node2</title>
<path fill="none" stroke="midnightblue" d="M117.5,-112.083C117.5,-105.006 117.5,-94.8611 117.5,-85.9865"/>
<polygon fill="midnightblue" stroke="midnightblue" points="121,-85.751 117.5,-75.7511 114,-85.7511 121,-85.751"/>
</g>
<!-- Node3 -->
<g id="node3" class="node"><title>Node3</title>
<polygon fill="white" stroke="#bfbfbf" points="0,-0.5 0,-19.5 45,-19.5 45,-0.5 0,-0.5"/>
<text text-anchor="middle" x="22.5" y="-7.5" font-family="Helvetica,sans-Serif" font-size="10.00">cstdlib</text>
</g>
<!-- Node2&#45;&gt;Node3 -->
<g id="edge2" class="edge"><title>Node2&#45;&gt;Node3</title>
<path fill="none" stroke="midnightblue" d="M102.237,-56.324C87.2786,-47.8215 64.2452,-34.7288 46.7733,-24.7975"/>
<polygon fill="midnightblue" stroke="midnightblue" points="48.1488,-21.5534 37.7255,-19.6545 44.6896,-27.639 48.1488,-21.5534"/>
</g>
<!-- Node4 -->
<g id="node4" class="node"><title>Node4</title>
<polygon fill="white" stroke="#bfbfbf" points="63.5,-0.5 63.5,-19.5 109.5,-19.5 109.5,-0.5 63.5,-0.5"/>
<text text-anchor="middle" x="86.5" y="-7.5" font-family="Helvetica,sans-Serif" font-size="10.00">cstdint</text>
</g>
<!-- Node2&#45;&gt;Node4 -->
<g id="edge3" class="edge"><title>Node2&#45;&gt;Node4</title>
<path fill="none" stroke="midnightblue" d="M112.381,-56.083C108.092,-48.6127 101.842,-37.7244 96.5577,-28.5199"/>
<polygon fill="midnightblue" stroke="midnightblue" points="99.5379,-26.6811 91.5238,-19.7511 93.4671,-30.1662 99.5379,-26.6811"/>
</g>
<!-- Node5 -->
<g id="node5" class="node"><title>Node5</title>
<polygon fill="white" stroke="#bfbfbf" points="127.5,-0.5 127.5,-19.5 171.5,-19.5 171.5,-0.5 127.5,-0.5"/>
<text text-anchor="middle" x="149.5" y="-7.5" font-family="Helvetica,sans-Serif" font-size="10.00">vector</text>
</g>
<!-- Node2&#45;&gt;Node5 -->
<g id="edge4" class="edge"><title>Node2&#45;&gt;Node5</title>
<path fill="none" stroke="midnightblue" d="M122.784,-56.083C127.211,-48.6127 133.663,-37.7244 139.118,-28.5199"/>
<polygon fill="midnightblue" stroke="midnightblue" points="142.227,-30.1383 144.314,-19.7511 136.205,-26.5697 142.227,-30.1383"/>
</g>
<!-- Node6 -->
<g id="node6" class="node"><title>Node6</title>
<polygon fill="white" stroke="#bfbfbf" points="189.5,-0.5 189.5,-19.5 243.5,-19.5 243.5,-0.5 189.5,-0.5"/>
<text text-anchor="middle" x="216.5" y="-7.5" font-family="Helvetica,sans-Serif" font-size="10.00">iostream</text>
</g>
<!-- Node2&#45;&gt;Node6 -->
<g id="edge5" class="edge"><title>Node2&#45;&gt;Node6</title>
<path fill="none" stroke="midnightblue" d="M133.406,-56.324C149.138,-47.7428 173.442,-34.486 191.709,-24.5224"/>
<polygon fill="midnightblue" stroke="midnightblue" points="193.53,-27.5157 200.633,-19.6545 190.178,-21.3704 193.53,-27.5157"/>
</g>
</g>
</svg>
