<?xml version="1.0" encoding="UTF-8" standalone="no"?>
<!DOCTYPE svg PUBLIC "-//W3C//DTD SVG 1.1//EN"
 "http://www.w3.org/Graphics/SVG/1.1/DTD/svg11.dtd">
<!-- Generated by graphviz version 2.38.0 (20140413.2041)
 -->
<!-- Title: YAML_REGISTER_TYPE Pages: 1 -->
<svg width="292pt" height="596pt"
 viewBox="0.00 0.00 292.00 596.00" xmlns="http://www.w3.org/2000/svg" xmlns:xlink="http://www.w3.org/1999/xlink">
<g id="graph0" class="graph" transform="scale(1 1) rotate(0) translate(4 592)">
<title>YAML_REGISTER_TYPE</title>
<polygon fill="white" stroke="none" points="-4,4 -4,-592 288,-592 288,4 -4,4"/>
<!-- Node1 -->
<g id="node1" class="node"><title>Node1</title>
<polygon fill="#bfbfbf" stroke="black" points="0,-278.5 0,-297.5 132,-297.5 132,-278.5 0,-278.5"/>
<text text-anchor="middle" x="66" y="-285.5" font-family="Helvetica,sans-Serif" font-size="10.00">YAML_REGISTER_TYPE</text>
</g>
<!-- Node2 -->
<g id="node2" class="node"><title>Node2</title>
<g id="a_node2"><a xlink:href="../../d4/d04/namespacemarian_1_1keywords.html#a31f73834fdcad7442a99340b90e54910" target="_top" xlink:title="marian::keywords::opt">
<polygon fill="white" stroke="black" points="169.5,-568.5 169.5,-587.5 282.5,-587.5 282.5,-568.5 169.5,-568.5"/>
<text text-anchor="middle" x="226" y="-575.5" font-family="Helvetica,sans-Serif" font-size="10.00">marian::keywords::opt</text>
</a>
</g>
</g>
<!-- Node1&#45;&gt;Node2 -->
<g id="edge1" class="edge"><title>Node1&#45;&gt;Node2</title>
<path fill="none" stroke="midnightblue" d="M67.6934,-297.752C70.9808,-336.62 88.3563,-482.096 168,-559 169.646,-560.59 171.429,-562.046 173.312,-563.381"/>
<polygon fill="midnightblue" stroke="midnightblue" points="171.702,-566.493 182.107,-568.488 175.217,-560.44 171.702,-566.493"/>
</g>
<!-- Node3 -->
<g id="node3" class="node"><title>Node3</title>
<g id="a_node3"><a xlink:href="../../da/d22/namespacemarian.html#a00669690ef16ce9b1bde5ee9d1b77ac6" target="_top" xlink:title="marian::transpose">
<polygon fill="white" stroke="black" points="178.5,-530.5 178.5,-549.5 273.5,-549.5 273.5,-530.5 178.5,-530.5"/>
<text text-anchor="middle" x="226" y="-537.5" font-family="Helvetica,sans-Serif" font-size="10.00">marian::transpose</text>
</a>
</g>
</g>
<!-- Node1&#45;&gt;Node3 -->
<g id="edge2" class="edge"><title>Node1&#45;&gt;Node3</title>
<path fill="none" stroke="midnightblue" d="M68.3315,-297.585C73.7218,-332.761 97.138,-456.068 168,-521 169.718,-522.575 171.571,-524.019 173.521,-525.344"/>
<polygon fill="midnightblue" stroke="midnightblue" points="172.15,-528.588 182.585,-530.422 175.572,-522.481 172.15,-528.588"/>
</g>
<!-- Node4 -->
<g id="node4" class="node"><title>Node4</title>
<g id="a_node4"><a xlink:href="../../d4/dec/namespacemarian_1_1inits.html#a8838c47537f434b855491cd3ed97ccd1" target="_top" xlink:title="marian::inits::glorot\l_uniform">
<polygon fill="white" stroke="black" points="176,-481 176,-511 276,-511 276,-481 176,-481"/>
<text text-anchor="start" x="184" y="-499" font-family="Helvetica,sans-Serif" font-size="10.00">marian::inits::glorot</text>
<text text-anchor="middle" x="226" y="-488" font-family="Helvetica,sans-Serif" font-size="10.00">_uniform</text>
</a>
</g>
</g>
<!-- Node1&#45;&gt;Node4 -->
<g id="edge3" class="edge"><title>Node1&#45;&gt;Node4</title>
<path fill="none" stroke="midnightblue" d="M69.8901,-297.763C79.2045,-327.67 111.184,-419.131 168,-471 169.686,-472.539 171.482,-473.994 173.358,-475.369"/>
<polygon fill="midnightblue" stroke="midnightblue" points="171.694,-478.459 182.006,-480.893 175.462,-472.56 171.694,-478.459"/>
</g>
<!-- Node5 -->
<g id="node5" class="node"><title>Node5</title>
<g id="a_node5"><a xlink:href="../../d4/dec/namespacemarian_1_1inits.html#a1bd34fd256e3df7bb1e27955a7f2b359" target="_top" xlink:title="marian::inits::zeros">
<polygon fill="white" stroke="black" points="176,-442.5 176,-461.5 276,-461.5 276,-442.5 176,-442.5"/>
<text text-anchor="middle" x="226" y="-449.5" font-family="Helvetica,sans-Serif" font-size="10.00">marian::inits::zeros</text>
</a>
</g>
</g>
<!-- Node1&#45;&gt;Node5 -->
<g id="edge4" class="edge"><title>Node1&#45;&gt;Node5</title>
<path fill="none" stroke="midnightblue" d="M71.0945,-297.723C82.4946,-323.637 117.142,-394.97 168,-433 170.509,-434.876 173.213,-436.573 176.033,-438.108"/>
<polygon fill="midnightblue" stroke="midnightblue" points="174.794,-441.393 185.334,-442.476 177.77,-435.057 174.794,-441.393"/>
</g>
<!-- Node6 -->
<g id="node6" class="node"><title>Node6</title>
<g id="a_node6"><a xlink:href="../../d4/dec/namespacemarian_1_1inits.html#a03723a199ab72a38a13b2b8644e8e1c2" target="_top" xlink:title="marian::inits::from\l_value">
<polygon fill="white" stroke="black" points="178.5,-393 178.5,-423 273.5,-423 273.5,-393 178.5,-393"/>
<text text-anchor="start" x="186.5" y="-411" font-family="Helvetica,sans-Serif" font-size="10.00">marian::inits::from</text>
<text text-anchor="middle" x="226" y="-400" font-family="Helvetica,sans-Serif" font-size="10.00">_value</text>
</a>
</g>
</g>
<!-- Node1&#45;&gt;Node6 -->
<g id="edge5" class="edge"><title>Node1&#45;&gt;Node6</title>
<path fill="none" stroke="midnightblue" d="M75.2979,-297.774C91.5178,-316.395 129.242,-357.381 168,-383 170.749,-384.817 173.653,-386.557 176.634,-388.21"/>
<polygon fill="midnightblue" stroke="midnightblue" points="175.247,-391.433 185.738,-392.909 178.457,-385.212 175.247,-391.433"/>
</g>
<!-- Node7 -->
<g id="node7" class="node"><title>Node7</title>
<g id="a_node7"><a xlink:href="../../da/d22/namespacemarian.html#a6202278a9da8ca8a281a6a96e75082f6" target="_top" xlink:title="marian::layer_norm">
<polygon fill="white" stroke="black" points="176,-354.5 176,-373.5 276,-373.5 276,-354.5 176,-354.5"/>
<text text-anchor="middle" x="226" y="-361.5" font-family="Helvetica,sans-Serif" font-size="10.00">marian::layer_norm</text>
</a>
</g>
</g>
<!-- Node1&#45;&gt;Node7 -->
<g id="edge6" class="edge"><title>Node1&#45;&gt;Node7</title>
<path fill="none" stroke="midnightblue" d="M81.9265,-297.633C101.231,-309.805 136.163,-330.867 168,-345 172.764,-347.115 177.84,-349.128 182.924,-350.998"/>
<polygon fill="midnightblue" stroke="midnightblue" points="182.038,-354.397 192.633,-354.409 184.358,-347.792 182.038,-354.397"/>
</g>
<!-- Node8 -->
<g id="node8" class="node"><title>Node8</title>
<g id="a_node8"><a xlink:href="../../da/d22/namespacemarian.html#ad7fbf1ba8e2e04ffdc7d5e4841b5e691" target="_top" xlink:title="marian::dot">
<polygon fill="white" stroke="black" points="193.5,-316.5 193.5,-335.5 258.5,-335.5 258.5,-316.5 193.5,-316.5"/>
<text text-anchor="middle" x="226" y="-323.5" font-family="Helvetica,sans-Serif" font-size="10.00">marian::dot</text>
</a>
</g>
</g>
<!-- Node1&#45;&gt;Node8 -->
<g id="edge7" class="edge"><title>Node1&#45;&gt;Node8</title>
<path fill="none" stroke="midnightblue" d="M106.87,-297.589C130.307,-303.226 159.892,-310.341 183.591,-316.041"/>
<polygon fill="midnightblue" stroke="midnightblue" points="182.812,-319.453 193.353,-318.389 184.448,-312.647 182.812,-319.453"/>
</g>
<!-- Node9 -->
<g id="node9" class="node"><title>Node9</title>
<g id="a_node9"><a xlink:href="../../da/d22/namespacemarian.html#aefe65d738dc9a0536f3a1f9346b8d47b" target="_top" xlink:title="marian::affine">
<polygon fill="white" stroke="black" points="188,-278.5 188,-297.5 264,-297.5 264,-278.5 188,-278.5"/>
<text text-anchor="middle" x="226" y="-285.5" font-family="Helvetica,sans-Serif" font-size="10.00">marian::affine</text>
</a>
</g>
</g>
<!-- Node1&#45;&gt;Node9 -->
<g id="edge8" class="edge"><title>Node1&#45;&gt;Node9</title>
<path fill="none" stroke="midnightblue" d="M132.177,-288C147.362,-288 163.251,-288 177.504,-288"/>
<polygon fill="midnightblue" stroke="midnightblue" points="177.559,-291.5 187.559,-288 177.559,-284.5 177.559,-291.5"/>
</g>
<!-- Node10 -->
<g id="node10" class="node"><title>Node10</title>
<g id="a_node10"><a xlink:href="../../da/d22/namespacemarian.html#a857d82a0343a47a1d864deac823a5f3e" target="_top" xlink:title="marian::plus">
<polygon fill="white" stroke="black" points="191,-240.5 191,-259.5 261,-259.5 261,-240.5 191,-240.5"/>
<text text-anchor="middle" x="226" y="-247.5" font-family="Helvetica,sans-Serif" font-size="10.00">marian::plus</text>
</a>
</g>
</g>
<!-- Node1&#45;&gt;Node10 -->
<g id="edge9" class="edge"><title>Node1&#45;&gt;Node10</title>
<path fill="none" stroke="midnightblue" d="M106.87,-278.411C129.406,-272.991 157.627,-266.204 180.833,-260.622"/>
<polygon fill="midnightblue" stroke="midnightblue" points="181.867,-263.974 190.771,-258.232 180.23,-257.168 181.867,-263.974"/>
</g>
<!-- Node11 -->
<g id="node11" class="node"><title>Node11</title>
<g id="a_node11"><a xlink:href="../../da/d22/namespacemarian.html#a6228f7e46aeed337e3886df6446b7840" target="_top" xlink:title="marian::relu">
<polygon fill="white" stroke="black" points="192,-202.5 192,-221.5 260,-221.5 260,-202.5 192,-202.5"/>
<text text-anchor="middle" x="226" y="-209.5" font-family="Helvetica,sans-Serif" font-size="10.00">marian::relu</text>
</a>
</g>
</g>
<!-- Node1&#45;&gt;Node11 -->
<g id="edge10" class="edge"><title>Node1&#45;&gt;Node11</title>
<path fill="none" stroke="midnightblue" d="M81.9265,-278.367C101.231,-266.195 136.163,-245.133 168,-231 172.764,-228.885 177.84,-226.872 182.924,-225.002"/>
<polygon fill="midnightblue" stroke="midnightblue" points="184.358,-228.208 192.633,-221.591 182.038,-221.603 184.358,-228.208"/>
</g>
<!-- Node12 -->
<g id="node12" class="node"><title>Node12</title>
<g id="a_node12"><a xlink:href="../../d4/dec/namespacemarian_1_1inits.html#a26fad07f2ceb3649cf0d5da09c03b756" target="_top" xlink:title="marian::inits::from\l_word2vec">
<polygon fill="white" stroke="black" points="178.5,-153 178.5,-183 273.5,-183 273.5,-153 178.5,-153"/>
<text text-anchor="start" x="186.5" y="-171" font-family="Helvetica,sans-Serif" font-size="10.00">marian::inits::from</text>
<text text-anchor="middle" x="226" y="-160" font-family="Helvetica,sans-Serif" font-size="10.00">_word2vec</text>
</a>
</g>
</g>
<!-- Node1&#45;&gt;Node12 -->
<g id="edge11" class="edge"><title>Node1&#45;&gt;Node12</title>
<path fill="none" stroke="midnightblue" d="M75.2979,-278.226C91.5178,-259.605 129.242,-218.619 168,-193 170.749,-191.183 173.653,-189.443 176.634,-187.79"/>
<polygon fill="midnightblue" stroke="midnightblue" points="178.457,-190.788 185.738,-183.091 175.247,-184.567 178.457,-190.788"/>
</g>
<!-- Node13 -->
<g id="node13" class="node"><title>Node13</title>
<g id="a_node13"><a xlink:href="../../d4/d04/namespacemarian_1_1keywords.html#a74d7a2502faafdd421ef3dff629e284f" target="_top" xlink:title="marian::keywords::Get">
<polygon fill="white" stroke="black" points="168,-114.5 168,-133.5 284,-133.5 284,-114.5 168,-114.5"/>
<text text-anchor="middle" x="226" y="-121.5" font-family="Helvetica,sans-Serif" font-size="10.00">marian::keywords::Get</text>
</a>
</g>
</g>
<!-- Node1&#45;&gt;Node13 -->
<g id="edge12" class="edge"><title>Node1&#45;&gt;Node13</title>
<path fill="none" stroke="midnightblue" d="M71.1465,-278.388C82.6755,-252.762 117.614,-182.168 168,-144 171.02,-141.712 174.323,-139.672 177.768,-137.855"/>
<polygon fill="midnightblue" stroke="midnightblue" points="179.504,-140.909 187.126,-133.549 176.578,-134.55 179.504,-140.909"/>
</g>
<!-- Node14 -->
<g id="node14" class="node"><title>Node14</title>
<g id="a_node14"><a xlink:href="../../da/d22/namespacemarian.html#a37652ca2a00f3c36816fe5fec28104a0" target="_top" xlink:title="marian::cross_entropy">
<polygon fill="white" stroke="black" points="169.5,-76.5 169.5,-95.5 282.5,-95.5 282.5,-76.5 169.5,-76.5"/>
<text text-anchor="middle" x="226" y="-83.5" font-family="Helvetica,sans-Serif" font-size="10.00">marian::cross_entropy</text>
</a>
</g>
</g>
<!-- Node1&#45;&gt;Node14 -->
<g id="edge13" class="edge"><title>Node1&#45;&gt;Node14</title>
<path fill="none" stroke="midnightblue" d="M69.5629,-278.43C78.1221,-248.297 108.59,-154.446 168,-105 170.034,-103.307 172.226,-101.763 174.522,-100.354"/>
<polygon fill="midnightblue" stroke="midnightblue" points="176.514,-103.265 183.797,-95.5704 173.305,-97.0441 176.514,-103.265"/>
</g>
<!-- Node15 -->
<g id="node15" class="node"><title>Node15</title>
<g id="a_node15"><a xlink:href="../../da/d22/namespacemarian.html#a15ec9743709e47180378db974ddbf116" target="_top" xlink:title="marian::mean">
<polygon fill="white" stroke="black" points="188,-38.5 188,-57.5 264,-57.5 264,-38.5 188,-38.5"/>
<text text-anchor="middle" x="226" y="-45.5" font-family="Helvetica,sans-Serif" font-size="10.00">marian::mean</text>
</a>
</g>
</g>
<!-- Node1&#45;&gt;Node15 -->
<g id="edge14" class="edge"><title>Node1&#45;&gt;Node15</title>
<path fill="none" stroke="midnightblue" d="M68.5768,-278.435C74.6814,-244.433 99.9041,-128.178 168,-67 171.186,-64.1374 174.817,-61.7043 178.667,-59.6366"/>
<polygon fill="midnightblue" stroke="midnightblue" points="180.273,-62.7518 187.945,-55.4447 177.391,-56.3727 180.273,-62.7518"/>
</g>
<!-- Node16 -->
<g id="node16" class="node"><title>Node16</title>
<g id="a_node16"><a xlink:href="../../da/d22/namespacemarian.html#a460460a6de63beebc5d968b44d49d11b" target="_top" xlink:title="marian::sum">
<polygon fill="white" stroke="black" points="190.5,-0.5 190.5,-19.5 261.5,-19.5 261.5,-0.5 190.5,-0.5"/>
<text text-anchor="middle" x="226" y="-7.5" font-family="Helvetica,sans-Serif" font-size="10.00">marian::sum</text>
</a>
</g>
</g>
<!-- Node1&#45;&gt;Node16 -->
<g id="edge15" class="edge"><title>Node1&#45;&gt;Node16</title>
<path fill="none" stroke="midnightblue" d="M67.8659,-278.416C71.7707,-240.859 91.064,-102.177 168,-29 171.777,-25.4078 176.251,-22.494 181.006,-20.1307"/>
<polygon fill="midnightblue" stroke="midnightblue" points="182.497,-23.3012 190.388,-16.2307 179.81,-16.8374 182.497,-23.3012"/>
</g>
</g>
</svg>
