<?xml version="1.0" encoding="UTF-8" standalone="no"?>
<!DOCTYPE svg PUBLIC "-//W3C//DTD SVG 1.1//EN"
 "http://www.w3.org/Graphics/SVG/1.1/DTD/svg11.dtd">
<!-- Generated by graphviz version 2.38.0 (20140413.2041)
 -->
<!-- Title: marian::rnn::Cell Pages: 1 -->
<!--zoomable 656 -->
<svg id="main" version="1.1" xmlns="http://www.w3.org/2000/svg" xmlns:xlink="http://www.w3.org/1999/xlink" xml:space="preserve" onload="init(evt)">
<style type="text/css"><![CDATA[
.edge:hover path { stroke: red; }
.edge:hover polygon { stroke: red; fill: red; }
]]></style>
<script type="text/javascript"><![CDATA[
var edges = document.getElementsByTagName('g');
if (edges && edges.length) {
  for (var i=0;i<edges.length;i++) {
    if (edges[i].id.substr(0,4)=='edge') {
      edges[i].setAttribute('class','edge');
    }
  }
}
]]></script>
        <defs>
                <circle id="rim" cx="0" cy="0" r="7"/>
                <circle id="rim2" cx="0" cy="0" r="3.5"/>
                <g id="zoomPlus">
                        <use xlink:href="#rim" fill="#404040">
                                <set attributeName="fill" to="#808080" begin="zoomplus.mouseover" end="zoomplus.mouseout"/>
                        </use>
                        <path d="M-4,0h8M0,-4v8" fill="none" stroke="white" stroke-width="1.5" pointer-events="none"/>
                </g>
                <g id="zoomMin">
                        <use xlink:href="#rim" fill="#404040">
                                <set attributeName="fill" to="#808080" begin="zoomminus.mouseover" end="zoomminus.mouseout"/>
                        </use>
                        <path d="M-4,0h8" fill="none" stroke="white" stroke-width="1.5" pointer-events="none"/>
                </g>
                <g id="dirArrow">
                        <path fill="none" stroke="white" stroke-width="1.5" d="M0,-3.0v7 M-2.5,-0.5L0,-3.0L2.5,-0.5"/>
                </g>
               <g id="resetDef">
                       <use xlink:href="#rim2" fill="#404040">
                               <set attributeName="fill" to="#808080" begin="reset.mouseover" end="reset.mouseout"/>
                       </use>
               </g>
        </defs>

<script type="text/javascript">
var viewWidth = 764;
var viewHeight = 656;
var sectionId = 'dynsection-0';
</script>
<script xlink:href="../../svgpan.js"/>
<svg id="graph" class="graph">
<g id="viewport">
<title>marian::rnn::Cell</title>
<polygon fill="white" stroke="none" points="-4,4 -4,-652 760,-652 760,4 -4,4"/>
<!-- Node1 -->
<g id="node1" class="node"><title>Node1</title>
<polygon fill="#bfbfbf" stroke="black" points="331,-248.5 331,-371.5 424,-371.5 424,-248.5 331,-248.5"/>
<text text-anchor="middle" x="377.5" y="-359.5" font-family="Helvetica,sans-Serif" font-size="10.00">marian::rnn::Cell</text>
<polyline fill="none" stroke="black" points="331,-352.5 424,-352.5 "/>
<text text-anchor="start" x="339" y="-340.5" font-family="Helvetica,sans-Serif" font-size="10.00"># lazyInputs_</text>
<polyline fill="none" stroke="black" points="331,-333.5 424,-333.5 "/>
<text text-anchor="start" x="339" y="-321.5" font-family="Helvetica,sans-Serif" font-size="10.00">+ Cell()</text>
<text text-anchor="start" x="339" y="-310.5" font-family="Helvetica,sans-Serif" font-size="10.00">+ apply()</text>
<text text-anchor="start" x="339" y="-299.5" font-family="Helvetica,sans-Serif" font-size="10.00">+ getLazyInputs()</text>
<text text-anchor="start" x="339" y="-288.5" font-family="Helvetica,sans-Serif" font-size="10.00">+ setLazyInputs()</text>
<text text-anchor="start" x="339" y="-277.5" font-family="Helvetica,sans-Serif" font-size="10.00">+ applyInput()</text>
<text text-anchor="start" x="339" y="-266.5" font-family="Helvetica,sans-Serif" font-size="10.00">+ applyState()</text>
<text text-anchor="start" x="339" y="-255.5" font-family="Helvetica,sans-Serif" font-size="10.00">+ clear()</text>
</g>
<!-- Node4 -->
<g id="node4" class="node"><title>Node4</title>
<g id="a_node4"><a xlink:href="../../db/df5/classmarian_1_1rnn_1_1FastLSTM.html" target="_top" xlink:title="{marian::rnn::FastLSTM\n|# prefix_\l# U_\l# W_\l# b_\l# gamma1_\l# gamma2_\l# layerNorm_\l# dropout_\l# dropMaskX_\l# dropMaskS_\l# fakeInput_\l|+ FastLSTM()\l+ apply()\l+ applyInput()\l+ applyState()\l}">
<polygon fill="white" stroke="black" points="0,-6 0,-206 117,-206 117,-6 0,-6"/>
<text text-anchor="middle" x="58.5" y="-194" font-family="Helvetica,sans-Serif" font-size="10.00">marian::rnn::FastLSTM</text>
<polyline fill="none" stroke="black" points="0,-187 117,-187 "/>
<text text-anchor="start" x="8" y="-175" font-family="Helvetica,sans-Serif" font-size="10.00"># prefix_</text>
<text text-anchor="start" x="8" y="-164" font-family="Helvetica,sans-Serif" font-size="10.00"># U_</text>
<text text-anchor="start" x="8" y="-153" font-family="Helvetica,sans-Serif" font-size="10.00"># W_</text>
<text text-anchor="start" x="8" y="-142" font-family="Helvetica,sans-Serif" font-size="10.00"># b_</text>
<text text-anchor="start" x="8" y="-131" font-family="Helvetica,sans-Serif" font-size="10.00"># gamma1_</text>
<text text-anchor="start" x="8" y="-120" font-family="Helvetica,sans-Serif" font-size="10.00"># gamma2_</text>
<text text-anchor="start" x="8" y="-109" font-family="Helvetica,sans-Serif" font-size="10.00"># layerNorm_</text>
<text text-anchor="start" x="8" y="-98" font-family="Helvetica,sans-Serif" font-size="10.00"># dropout_</text>
<text text-anchor="start" x="8" y="-87" font-family="Helvetica,sans-Serif" font-size="10.00"># dropMaskX_</text>
<text text-anchor="start" x="8" y="-76" font-family="Helvetica,sans-Serif" font-size="10.00"># dropMaskS_</text>
<text text-anchor="start" x="8" y="-65" font-family="Helvetica,sans-Serif" font-size="10.00"># fakeInput_</text>
<polyline fill="none" stroke="black" points="0,-58 117,-58 "/>
<text text-anchor="start" x="8" y="-46" font-family="Helvetica,sans-Serif" font-size="10.00">+ FastLSTM()</text>
<text text-anchor="start" x="8" y="-35" font-family="Helvetica,sans-Serif" font-size="10.00">+ apply()</text>
<text text-anchor="start" x="8" y="-24" font-family="Helvetica,sans-Serif" font-size="10.00">+ applyInput()</text>
<text text-anchor="start" x="8" y="-13" font-family="Helvetica,sans-Serif" font-size="10.00">+ applyState()</text>
</a>
</g>
</g>
<!-- Node1&#45;&gt;Node4 -->
<g id="edge3" class="edge"><title>Node1&#45;&gt;Node4</title>
<path fill="none" stroke="midnightblue" d="M321.144,-297.86C266.62,-284.798 184.009,-258.738 126.5,-212 123.298,-209.398 120.196,-206.603 117.198,-203.659"/>
<polygon fill="none" stroke="midnightblue" points="320.453,-301.293 330.986,-300.15 322.039,-294.475 320.453,-301.293"/>
</g>
<!-- Node5 -->
<g id="node5" class="node"><title>Node5</title>
<g id="a_node5"><a xlink:href="../../d7/d03/classmarian_1_1rnn_1_1GRU.html" target="_top" xlink:title="{marian::rnn::GRU\n|# prefix_\l# U_\l# W_\l# b_\l# gamma1_\l# gamma2_\l# final_\l# layerNorm_\l# dropout_\l# dropMaskX_\l# dropMaskS_\l# fakeInput_\l|+ GRU()\l+ apply()\l+ applyInput()\l+ applyState()\l}">
<polygon fill="white" stroke="black" points="135.5,-0.5 135.5,-211.5 229.5,-211.5 229.5,-0.5 135.5,-0.5"/>
<text text-anchor="middle" x="182.5" y="-199.5" font-family="Helvetica,sans-Serif" font-size="10.00">marian::rnn::GRU</text>
<polyline fill="none" stroke="black" points="135.5,-192.5 229.5,-192.5 "/>
<text text-anchor="start" x="143.5" y="-180.5" font-family="Helvetica,sans-Serif" font-size="10.00"># prefix_</text>
<text text-anchor="start" x="143.5" y="-169.5" font-family="Helvetica,sans-Serif" font-size="10.00"># U_</text>
<text text-anchor="start" x="143.5" y="-158.5" font-family="Helvetica,sans-Serif" font-size="10.00"># W_</text>
<text text-anchor="start" x="143.5" y="-147.5" font-family="Helvetica,sans-Serif" font-size="10.00"># b_</text>
<text text-anchor="start" x="143.5" y="-136.5" font-family="Helvetica,sans-Serif" font-size="10.00"># gamma1_</text>
<text text-anchor="start" x="143.5" y="-125.5" font-family="Helvetica,sans-Serif" font-size="10.00"># gamma2_</text>
<text text-anchor="start" x="143.5" y="-114.5" font-family="Helvetica,sans-Serif" font-size="10.00"># final_</text>
<text text-anchor="start" x="143.5" y="-103.5" font-family="Helvetica,sans-Serif" font-size="10.00"># layerNorm_</text>
<text text-anchor="start" x="143.5" y="-92.5" font-family="Helvetica,sans-Serif" font-size="10.00"># dropout_</text>
<text text-anchor="start" x="143.5" y="-81.5" font-family="Helvetica,sans-Serif" font-size="10.00"># dropMaskX_</text>
<text text-anchor="start" x="143.5" y="-70.5" font-family="Helvetica,sans-Serif" font-size="10.00"># dropMaskS_</text>
<text text-anchor="start" x="143.5" y="-59.5" font-family="Helvetica,sans-Serif" font-size="10.00"># fakeInput_</text>
<polyline fill="none" stroke="black" points="135.5,-52.5 229.5,-52.5 "/>
<text text-anchor="start" x="143.5" y="-40.5" font-family="Helvetica,sans-Serif" font-size="10.00">+ GRU()</text>
<text text-anchor="start" x="143.5" y="-29.5" font-family="Helvetica,sans-Serif" font-size="10.00">+ apply()</text>
<text text-anchor="start" x="143.5" y="-18.5" font-family="Helvetica,sans-Serif" font-size="10.00">+ applyInput()</text>
<text text-anchor="start" x="143.5" y="-7.5" font-family="Helvetica,sans-Serif" font-size="10.00">+ applyState()</text>
</a>
</g>
</g>
<!-- Node1&#45;&gt;Node5 -->
<g id="edge4" class="edge"><title>Node1&#45;&gt;Node5</title>
<path fill="none" stroke="midnightblue" d="M321.961,-278.709C294.431,-261.728 262.115,-238.615 238.5,-212 235.415,-208.523 232.439,-204.846 229.578,-201.031"/>
<polygon fill="none" stroke="midnightblue" points="320.346,-281.823 330.714,-284.004 323.969,-275.834 320.346,-281.823"/>
</g>
<!-- Node6 -->
<g id="node6" class="node"><title>Node6</title>
<g id="a_node6"><a xlink:href="../../db/ddd/classmarian_1_1rnn_1_1SlowLSTM.html" target="_top" xlink:title="{marian::rnn::SlowLSTM\n|&#45; Uf_\l&#45; Wf_\l&#45; bf_\l&#45; Ui_\l&#45; Wi_\l&#45; bi_\l&#45; Uo_\l&#45; Wo_\l&#45; bo_\l&#45; Uc_\l&#45; Wc_\l&#45; bc_\l|+ SlowLSTM()\l+ apply()\l+ applyInput()\l+ applyState()\l}">
<polygon fill="white" stroke="black" points="248,-0.5 248,-211.5 367,-211.5 367,-0.5 248,-0.5"/>
<text text-anchor="middle" x="307.5" y="-199.5" font-family="Helvetica,sans-Serif" font-size="10.00">marian::rnn::SlowLSTM</text>
<polyline fill="none" stroke="black" points="248,-192.5 367,-192.5 "/>
<text text-anchor="start" x="256" y="-180.5" font-family="Helvetica,sans-Serif" font-size="10.00">&#45; Uf_</text>
<text text-anchor="start" x="256" y="-169.5" font-family="Helvetica,sans-Serif" font-size="10.00">&#45; Wf_</text>
<text text-anchor="start" x="256" y="-158.5" font-family="Helvetica,sans-Serif" font-size="10.00">&#45; bf_</text>
<text text-anchor="start" x="256" y="-147.5" font-family="Helvetica,sans-Serif" font-size="10.00">&#45; Ui_</text>
<text text-anchor="start" x="256" y="-136.5" font-family="Helvetica,sans-Serif" font-size="10.00">&#45; Wi_</text>
<text text-anchor="start" x="256" y="-125.5" font-family="Helvetica,sans-Serif" font-size="10.00">&#45; bi_</text>
<text text-anchor="start" x="256" y="-114.5" font-family="Helvetica,sans-Serif" font-size="10.00">&#45; Uo_</text>
<text text-anchor="start" x="256" y="-103.5" font-family="Helvetica,sans-Serif" font-size="10.00">&#45; Wo_</text>
<text text-anchor="start" x="256" y="-92.5" font-family="Helvetica,sans-Serif" font-size="10.00">&#45; bo_</text>
<text text-anchor="start" x="256" y="-81.5" font-family="Helvetica,sans-Serif" font-size="10.00">&#45; Uc_</text>
<text text-anchor="start" x="256" y="-70.5" font-family="Helvetica,sans-Serif" font-size="10.00">&#45; Wc_</text>
<text text-anchor="start" x="256" y="-59.5" font-family="Helvetica,sans-Serif" font-size="10.00">&#45; bc_</text>
<polyline fill="none" stroke="black" points="248,-52.5 367,-52.5 "/>
<text text-anchor="start" x="256" y="-40.5" font-family="Helvetica,sans-Serif" font-size="10.00">+ SlowLSTM()</text>
<text text-anchor="start" x="256" y="-29.5" font-family="Helvetica,sans-Serif" font-size="10.00">+ apply()</text>
<text text-anchor="start" x="256" y="-18.5" font-family="Helvetica,sans-Serif" font-size="10.00">+ applyInput()</text>
<text text-anchor="start" x="256" y="-7.5" font-family="Helvetica,sans-Serif" font-size="10.00">+ applyState()</text>
</a>
</g>
</g>
<!-- Node1&#45;&gt;Node6 -->
<g id="edge5" class="edge"><title>Node1&#45;&gt;Node6</title>
<path fill="none" stroke="midnightblue" d="M353.133,-238.685C350.104,-229.944 346.958,-220.864 343.797,-211.744"/>
<polygon fill="none" stroke="midnightblue" points="349.916,-240.091 356.498,-248.393 356.53,-237.799 349.916,-240.091"/>
</g>
<!-- Node7 -->
<g id="node7" class="node"><title>Node7</title>
<g id="a_node7"><a xlink:href="../../d2/dba/classmarian_1_1rnn_1_1StackedCell.html" target="_top" xlink:title="{marian::rnn::StackedCell\n|# stackables_\l# lastInputs_\l|+ StackedCell()\l+ StackedCell()\l+ push_back()\l+ applyInput()\l+ applyState()\l+ operator[]()\l+ at()\l+ clear()\l+ getLazyInputs()\l+ setLazyInputs()\l}">
<polygon fill="white" stroke="black" points="385,-22.5 385,-189.5 510,-189.5 510,-22.5 385,-22.5"/>
<text text-anchor="middle" x="447.5" y="-177.5" font-family="Helvetica,sans-Serif" font-size="10.00">marian::rnn::StackedCell</text>
<polyline fill="none" stroke="black" points="385,-170.5 510,-170.5 "/>
<text text-anchor="start" x="393" y="-158.5" font-family="Helvetica,sans-Serif" font-size="10.00"># stackables_</text>
<text text-anchor="start" x="393" y="-147.5" font-family="Helvetica,sans-Serif" font-size="10.00"># lastInputs_</text>
<polyline fill="none" stroke="black" points="385,-140.5 510,-140.5 "/>
<text text-anchor="start" x="393" y="-128.5" font-family="Helvetica,sans-Serif" font-size="10.00">+ StackedCell()</text>
<text text-anchor="start" x="393" y="-117.5" font-family="Helvetica,sans-Serif" font-size="10.00">+ StackedCell()</text>
<text text-anchor="start" x="393" y="-106.5" font-family="Helvetica,sans-Serif" font-size="10.00">+ push_back()</text>
<text text-anchor="start" x="393" y="-95.5" font-family="Helvetica,sans-Serif" font-size="10.00">+ applyInput()</text>
<text text-anchor="start" x="393" y="-84.5" font-family="Helvetica,sans-Serif" font-size="10.00">+ applyState()</text>
<text text-anchor="start" x="393" y="-73.5" font-family="Helvetica,sans-Serif" font-size="10.00">+ operator[]()</text>
<text text-anchor="start" x="393" y="-62.5" font-family="Helvetica,sans-Serif" font-size="10.00">+ at()</text>
<text text-anchor="start" x="393" y="-51.5" font-family="Helvetica,sans-Serif" font-size="10.00">+ clear()</text>
<text text-anchor="start" x="393" y="-40.5" font-family="Helvetica,sans-Serif" font-size="10.00">+ getLazyInputs()</text>
<text text-anchor="start" x="393" y="-29.5" font-family="Helvetica,sans-Serif" font-size="10.00">+ setLazyInputs()</text>
</a>
</g>
</g>
<!-- Node1&#45;&gt;Node7 -->
<g id="edge6" class="edge"><title>Node1&#45;&gt;Node7</title>
<path fill="none" stroke="midnightblue" d="M401.865,-238.69C407.354,-222.85 413.229,-205.897 418.874,-189.605"/>
<polygon fill="none" stroke="midnightblue" points="398.47,-237.799 398.502,-248.393 405.084,-240.091 398.47,-237.799"/>
</g>
<!-- Node8 -->
<g id="node8" class="node"><title>Node8</title>
<g id="a_node8"><a xlink:href="../../d0/d1d/classmarian_1_1rnn_1_1Tanh.html" target="_top" xlink:title="{marian::rnn::Tanh\n|&#45; U_\l&#45; W_\l&#45; b_\l&#45; gamma1_\l&#45; gamma2_\l&#45; layerNorm_\l&#45; dropout_\l&#45; dropMaskX_\l&#45; dropMaskS_\l|+ Tanh()\l+ apply()\l+ applyInput()\l+ applyState()\l}">
<polygon fill="white" stroke="black" points="528,-17 528,-195 621,-195 621,-17 528,-17"/>
<text text-anchor="middle" x="574.5" y="-183" font-family="Helvetica,sans-Serif" font-size="10.00">marian::rnn::Tanh</text>
<polyline fill="none" stroke="black" points="528,-176 621,-176 "/>
<text text-anchor="start" x="536" y="-164" font-family="Helvetica,sans-Serif" font-size="10.00">&#45; U_</text>
<text text-anchor="start" x="536" y="-153" font-family="Helvetica,sans-Serif" font-size="10.00">&#45; W_</text>
<text text-anchor="start" x="536" y="-142" font-family="Helvetica,sans-Serif" font-size="10.00">&#45; b_</text>
<text text-anchor="start" x="536" y="-131" font-family="Helvetica,sans-Serif" font-size="10.00">&#45; gamma1_</text>
<text text-anchor="start" x="536" y="-120" font-family="Helvetica,sans-Serif" font-size="10.00">&#45; gamma2_</text>
<text text-anchor="start" x="536" y="-109" font-family="Helvetica,sans-Serif" font-size="10.00">&#45; layerNorm_</text>
<text text-anchor="start" x="536" y="-98" font-family="Helvetica,sans-Serif" font-size="10.00">&#45; dropout_</text>
<text text-anchor="start" x="536" y="-87" font-family="Helvetica,sans-Serif" font-size="10.00">&#45; dropMaskX_</text>
<text text-anchor="start" x="536" y="-76" font-family="Helvetica,sans-Serif" font-size="10.00">&#45; dropMaskS_</text>
<polyline fill="none" stroke="black" points="528,-69 621,-69 "/>
<text text-anchor="start" x="536" y="-57" font-family="Helvetica,sans-Serif" font-size="10.00">+ Tanh()</text>
<text text-anchor="start" x="536" y="-46" font-family="Helvetica,sans-Serif" font-size="10.00">+ apply()</text>
<text text-anchor="start" x="536" y="-35" font-family="Helvetica,sans-Serif" font-size="10.00">+ applyInput()</text>
<text text-anchor="start" x="536" y="-24" font-family="Helvetica,sans-Serif" font-size="10.00">+ applyState()</text>
</a>
</g>
</g>
<!-- Node1&#45;&gt;Node8 -->
<g id="edge7" class="edge"><title>Node1&#45;&gt;Node8</title>
<path fill="none" stroke="midnightblue" d="M432.721,-279.98C461.222,-262.997 495.043,-239.493 519.5,-212 524.15,-206.772 528.535,-201.081 532.644,-195.142"/>
<polygon fill="none" stroke="midnightblue" points="430.932,-276.972 424.063,-285.039 434.463,-283.016 430.932,-276.972"/>
</g>
<!-- Node9 -->
<g id="node9" class="node"><title>Node9</title>
<g id="a_node9"><a xlink:href="../../d7/d30/classmarian_1_1rnn_1_1TestLSTM.html" target="_top" xlink:title="{marian::rnn::TestLSTM\n|&#45; U_\l&#45; W_\l&#45; b_\l|+ TestLSTM()\l+ apply()\l+ applyInput()\l+ applyState()\l}">
<polygon fill="white" stroke="black" points="639,-50 639,-162 756,-162 756,-50 639,-50"/>
<text text-anchor="middle" x="697.5" y="-150" font-family="Helvetica,sans-Serif" font-size="10.00">marian::rnn::TestLSTM</text>
<polyline fill="none" stroke="black" points="639,-143 756,-143 "/>
<text text-anchor="start" x="647" y="-131" font-family="Helvetica,sans-Serif" font-size="10.00">&#45; U_</text>
<text text-anchor="start" x="647" y="-120" font-family="Helvetica,sans-Serif" font-size="10.00">&#45; W_</text>
<text text-anchor="start" x="647" y="-109" font-family="Helvetica,sans-Serif" font-size="10.00">&#45; b_</text>
<polyline fill="none" stroke="black" points="639,-102 756,-102 "/>
<text text-anchor="start" x="647" y="-90" font-family="Helvetica,sans-Serif" font-size="10.00">+ TestLSTM()</text>
<text text-anchor="start" x="647" y="-79" font-family="Helvetica,sans-Serif" font-size="10.00">+ apply()</text>
<text text-anchor="start" x="647" y="-68" font-family="Helvetica,sans-Serif" font-size="10.00">+ applyInput()</text>
<text text-anchor="start" x="647" y="-57" font-family="Helvetica,sans-Serif" font-size="10.00">+ applyState()</text>
</a>
</g>
</g>
<!-- Node1&#45;&gt;Node9 -->
<g id="edge8" class="edge"><title>Node1&#45;&gt;Node9</title>
<path fill="none" stroke="midnightblue" d="M434.372,-298.052C489.382,-285.134 572.688,-259.18 630.5,-212 647.002,-198.533 660.724,-179.884 671.363,-162.036"/>
<polygon fill="none" stroke="midnightblue" points="433.415,-294.681 424.443,-300.315 434.97,-301.506 433.415,-294.681"/>
</g>
<!-- Node2 -->
<g id="node2" class="node"><title>Node2</title>
<g id="a_node2"><a xlink:href="../../d4/d04/classmarian_1_1rnn_1_1Stackable.html" target="_top" xlink:title="{marian::rnn::Stackable\n|# options_\l|+ Stackable()\l+ ~Stackable()\l+ as()\l+ is()\l+ getOptions()\l+ opt()\l+ opt()\l+ clear()\l}">
<polygon fill="white" stroke="black" points="320,-408.5 320,-542.5 435,-542.5 435,-408.5 320,-408.5"/>
<text text-anchor="middle" x="377.5" y="-530.5" font-family="Helvetica,sans-Serif" font-size="10.00">marian::rnn::Stackable</text>
<polyline fill="none" stroke="black" points="320,-523.5 435,-523.5 "/>
<text text-anchor="start" x="328" y="-511.5" font-family="Helvetica,sans-Serif" font-size="10.00"># options_</text>
<polyline fill="none" stroke="black" points="320,-504.5 435,-504.5 "/>
<text text-anchor="start" x="328" y="-492.5" font-family="Helvetica,sans-Serif" font-size="10.00">+ Stackable()</text>
<text text-anchor="start" x="328" y="-481.5" font-family="Helvetica,sans-Serif" font-size="10.00">+ ~Stackable()</text>
<text text-anchor="start" x="328" y="-470.5" font-family="Helvetica,sans-Serif" font-size="10.00">+ as()</text>
<text text-anchor="start" x="328" y="-459.5" font-family="Helvetica,sans-Serif" font-size="10.00">+ is()</text>
<text text-anchor="start" x="328" y="-448.5" font-family="Helvetica,sans-Serif" font-size="10.00">+ getOptions()</text>
<text text-anchor="start" x="328" y="-437.5" font-family="Helvetica,sans-Serif" font-size="10.00">+ opt()</text>
<text text-anchor="start" x="328" y="-426.5" font-family="Helvetica,sans-Serif" font-size="10.00">+ opt()</text>
<text text-anchor="start" x="328" y="-415.5" font-family="Helvetica,sans-Serif" font-size="10.00">+ clear()</text>
</a>
</g>
</g>
<!-- Node2&#45;&gt;Node1 -->
<g id="edge1" class="edge"><title>Node2&#45;&gt;Node1</title>
<path fill="none" stroke="midnightblue" d="M377.5,-398.425C377.5,-389.473 377.5,-380.43 377.5,-371.728"/>
<polygon fill="none" stroke="midnightblue" points="374,-398.47 377.5,-408.47 381,-398.47 374,-398.47"/>
</g>
<!-- Node3 -->
<g id="node3" class="node"><title>Node3</title>
<polygon fill="white" stroke="#bfbfbf" points="315.5,-579.5 315.5,-647.5 439.5,-647.5 439.5,-579.5 315.5,-579.5"/>
<text text-anchor="start" x="323.5" y="-635.5" font-family="Helvetica,sans-Serif" font-size="10.00">std::enable_shared</text>
<text text-anchor="middle" x="377.5" y="-624.5" font-family="Helvetica,sans-Serif" font-size="10.00">_from_this&lt; Stackable &gt;</text>
<polyline fill="none" stroke="#bfbfbf" points="315.5,-617.5 439.5,-617.5 "/>
<text text-anchor="middle" x="377.5" y="-605.5" font-family="Helvetica,sans-Serif" font-size="10.00"> </text>
<polyline fill="none" stroke="#bfbfbf" points="315.5,-598.5 439.5,-598.5 "/>
<text text-anchor="middle" x="377.5" y="-586.5" font-family="Helvetica,sans-Serif" font-size="10.00"> </text>
</g>
<!-- Node3&#45;&gt;Node2 -->
<g id="edge2" class="edge"><title>Node3&#45;&gt;Node2</title>
<path fill="none" stroke="midnightblue" d="M377.5,-568.956C377.5,-560.567 377.5,-551.604 377.5,-542.683"/>
<polygon fill="none" stroke="midnightblue" points="374,-569.231 377.5,-579.231 381,-569.231 374,-569.231"/>
</g>
</g>
</svg>
        <g id="navigator" transform="translate(0 0)" fill="#404254">
                <rect fill="#f2f5e9" fill-opacity="0.5" stroke="#606060" stroke-width=".5" x="0" y="0" width="60" height="60"/>
                <use id="zoomplus" xlink:href="#zoomPlus" x="17" y="9" onmousedown="handleZoom(evt,'in')"/>
                <use id="zoomminus" xlink:href="#zoomMin" x="42" y="9" onmousedown="handleZoom(evt,'out')"/>
                <use id="reset" xlink:href="#resetDef" x="30" y="36" onmousedown="handleReset()"/>
                <g id="arrowUp" xlink:href="#dirArrow" transform="translate(30 24)" onmousedown="handlePan(0,-1)">
                  <use xlink:href="#rim" fill="#404040">
                        <set attributeName="fill" to="#808080" begin="arrowUp.mouseover" end="arrowUp.mouseout"/>
                  </use>
                  <path fill="none" stroke="white" stroke-width="1.5" d="M0,-3.0v7 M-2.5,-0.5L0,-3.0L2.5,-0.5"/>
                </g>
                <g id="arrowRight" xlink:href="#dirArrow" transform="rotate(90) translate(36 -43)" onmousedown="handlePan(1,0)">
                  <use xlink:href="#rim" fill="#404040">
                        <set attributeName="fill" to="#808080" begin="arrowRight.mouseover" end="arrowRight.mouseout"/>
                  </use>
                  <path fill="none" stroke="white" stroke-width="1.5" d="M0,-3.0v7 M-2.5,-0.5L0,-3.0L2.5,-0.5"/>
                </g>
                <g id="arrowDown" xlink:href="#dirArrow" transform="rotate(180) translate(-30 -48)" onmousedown="handlePan(0,1)">
                  <use xlink:href="#rim" fill="#404040">
                        <set attributeName="fill" to="#808080" begin="arrowDown.mouseover" end="arrowDown.mouseout"/>
                  </use>
                  <path fill="none" stroke="white" stroke-width="1.5" d="M0,-3.0v7 M-2.5,-0.5L0,-3.0L2.5,-0.5"/>
                </g>
                <g id="arrowLeft" xlink:href="#dirArrow" transform="rotate(270) translate(-36 17)" onmousedown="handlePan(-1,0)">
                  <use xlink:href="#rim" fill="#404040">
                        <set attributeName="fill" to="#808080" begin="arrowLeft.mouseover" end="arrowLeft.mouseout"/>
                  </use>
                  <path fill="none" stroke="white" stroke-width="1.5" d="M0,-3.0v7 M-2.5,-0.5L0,-3.0L2.5,-0.5"/>
                </g>
        </g>
        <svg viewBox="0 0 15 15" width="100%" height="30px" preserveAspectRatio="xMaxYMin meet">
         <g id="arrow_out" transform="scale(0.3 0.3)">
          <a xlink:href="classmarian_1_1rnn_1_1Cell__inherit__graph_org.svg" target="_base">
           <rect id="button" ry="5" rx="5" y="6" x="6" height="38" width="38"
                fill="#f2f5e9" fill-opacity="0.5" stroke="#606060" stroke-width="1.0"/>
           <path id="arrow"
             d="M 11.500037,31.436501 C 11.940474,20.09759 22.043105,11.32322 32.158766,21.979434 L 37.068811,17.246167 C 37.068811,17.246167 37.088388,32 37.088388,32 L 22.160133,31.978069 C 22.160133,31.978069 26.997745,27.140456 26.997745,27.140456 C 18.528582,18.264221 13.291696,25.230495 11.500037,31.436501 z"
             style="fill:#404040;"/>
          </a>
         </g>
        </svg>
</svg>
