<?xml version="1.0" encoding="UTF-8" standalone="no"?>
<!DOCTYPE svg PUBLIC "-//W3C//DTD SVG 1.1//EN"
 "http://www.w3.org/Graphics/SVG/1.1/DTD/svg11.dtd">
<!-- Generated by graphviz version 2.38.0 (20140413.2041)
 -->
<!-- Title: amunmt::GPU::ClassLanguageModel Pages: 1 -->
<!--zoomable 535 -->
<svg id="main" version="1.1" xmlns="http://www.w3.org/2000/svg" xmlns:xlink="http://www.w3.org/1999/xlink" xml:space="preserve" onload="init(evt)">
<style type="text/css"><![CDATA[
.edge:hover path { stroke: red; }
.edge:hover polygon { stroke: red; fill: red; }
]]></style>
<script type="text/javascript"><![CDATA[
var edges = document.getElementsByTagName('g');
if (edges && edges.length) {
  for (var i=0;i<edges.length;i++) {
    if (edges[i].id.substr(0,4)=='edge') {
      edges[i].setAttribute('class','edge');
    }
  }
}
]]></script>
        <defs>
                <circle id="rim" cx="0" cy="0" r="7"/>
                <circle id="rim2" cx="0" cy="0" r="3.5"/>
                <g id="zoomPlus">
                        <use xlink:href="#rim" fill="#404040">
                                <set attributeName="fill" to="#808080" begin="zoomplus.mouseover" end="zoomplus.mouseout"/>
                        </use>
                        <path d="M-4,0h8M0,-4v8" fill="none" stroke="white" stroke-width="1.5" pointer-events="none"/>
                </g>
                <g id="zoomMin">
                        <use xlink:href="#rim" fill="#404040">
                                <set attributeName="fill" to="#808080" begin="zoomminus.mouseover" end="zoomminus.mouseout"/>
                        </use>
                        <path d="M-4,0h8" fill="none" stroke="white" stroke-width="1.5" pointer-events="none"/>
                </g>
                <g id="dirArrow">
                        <path fill="none" stroke="white" stroke-width="1.5" d="M0,-3.0v7 M-2.5,-0.5L0,-3.0L2.5,-0.5"/>
                </g>
               <g id="resetDef">
                       <use xlink:href="#rim2" fill="#404040">
                               <set attributeName="fill" to="#808080" begin="reset.mouseover" end="reset.mouseout"/>
                       </use>
               </g>
        </defs>

<script type="text/javascript">
var viewWidth = 370;
var viewHeight = 535;
var sectionId = 'dynsection-1';
</script>
<script xlink:href="../../svgpan.js"/>
<svg id="graph" class="graph">
<g id="viewport">
<title>amunmt::GPU::ClassLanguageModel</title>
<polygon fill="white" stroke="none" points="-4,4 -4,-531 366,-531 366,4 -4,4"/>
<!-- Node1 -->
<g id="node1" class="node"><title>Node1</title>
<polygon fill="#bfbfbf" stroke="black" points="109,-0.5 109,-79.5 262,-79.5 262,-0.5 109,-0.5"/>
<text text-anchor="start" x="117" y="-67.5" font-family="Helvetica,sans-Serif" font-size="10.00">amunmt::GPU::ClassLanguage</text>
<text text-anchor="middle" x="185.5" y="-56.5" font-family="Helvetica,sans-Serif" font-size="10.00">Model</text>
<polyline fill="none" stroke="black" points="109,-49.5 262,-49.5 "/>
<text text-anchor="middle" x="185.5" y="-37.5" font-family="Helvetica,sans-Serif" font-size="10.00"> </text>
<polyline fill="none" stroke="black" points="109,-30.5 262,-30.5 "/>
<text text-anchor="start" x="117" y="-18.5" font-family="Helvetica,sans-Serif" font-size="10.00">+ ClassLanguageModel()</text>
<text text-anchor="start" x="117" y="-7.5" font-family="Helvetica,sans-Serif" font-size="10.00">+ Score()</text>
</g>
<!-- Node2 -->
<g id="node2" class="node"><title>Node2</title>
<g id="a_node2"><a xlink:href="../../d6/d0f/classLanguageModel.html" target="_top" xlink:title="{LanguageModel\n||+ LanguageModel()\l+ Score()\l+ NewState()\l+ BeginSentenceState()\l+ AssembleBeamState()\l+ GetVocabSize()\l}">
<polygon fill="white" stroke="black" points="18.5,-127.5 18.5,-239.5 142.5,-239.5 142.5,-127.5 18.5,-127.5"/>
<text text-anchor="middle" x="80.5" y="-227.5" font-family="Helvetica,sans-Serif" font-size="10.00">LanguageModel</text>
<polyline fill="none" stroke="black" points="18.5,-220.5 142.5,-220.5 "/>
<text text-anchor="middle" x="80.5" y="-208.5" font-family="Helvetica,sans-Serif" font-size="10.00"> </text>
<polyline fill="none" stroke="black" points="18.5,-201.5 142.5,-201.5 "/>
<text text-anchor="start" x="26.5" y="-189.5" font-family="Helvetica,sans-Serif" font-size="10.00">+ LanguageModel()</text>
<text text-anchor="start" x="26.5" y="-178.5" font-family="Helvetica,sans-Serif" font-size="10.00">+ Score()</text>
<text text-anchor="start" x="26.5" y="-167.5" font-family="Helvetica,sans-Serif" font-size="10.00">+ NewState()</text>
<text text-anchor="start" x="26.5" y="-156.5" font-family="Helvetica,sans-Serif" font-size="10.00">+ BeginSentenceState()</text>
<text text-anchor="start" x="26.5" y="-145.5" font-family="Helvetica,sans-Serif" font-size="10.00">+ AssembleBeamState()</text>
<text text-anchor="start" x="26.5" y="-134.5" font-family="Helvetica,sans-Serif" font-size="10.00">+ GetVocabSize()</text>
</a>
</g>
</g>
<!-- Node2&#45;&gt;Node1 -->
<g id="edge1" class="edge"><title>Node2&#45;&gt;Node1</title>
<path fill="none" stroke="midnightblue" d="M127.573,-119.063C137.57,-105.591 147.832,-91.7622 156.888,-79.5574"/>
<polygon fill="none" stroke="midnightblue" points="124.545,-117.271 121.396,-127.387 130.166,-121.442 124.545,-117.271"/>
</g>
<!-- Node3 -->
<g id="node3" class="node"><title>Node3</title>
<polygon fill="white" stroke="#bfbfbf" points="0,-326 0,-383 129,-383 129,-326 0,-326"/>
<text text-anchor="middle" x="64.5" y="-371" font-family="Helvetica,sans-Serif" font-size="10.00">SourceIndependentScorer</text>
<polyline fill="none" stroke="#bfbfbf" points="0,-364 129,-364 "/>
<text text-anchor="middle" x="64.5" y="-352" font-family="Helvetica,sans-Serif" font-size="10.00"> </text>
<polyline fill="none" stroke="#bfbfbf" points="0,-345 129,-345 "/>
<text text-anchor="middle" x="64.5" y="-333" font-family="Helvetica,sans-Serif" font-size="10.00"> </text>
</g>
<!-- Node3&#45;&gt;Node2 -->
<g id="edge2" class="edge"><title>Node3&#45;&gt;Node2</title>
<path fill="none" stroke="midnightblue" d="M68.0641,-315.854C70.1847,-293.456 72.9132,-264.636 75.2739,-239.701"/>
<polygon fill="none" stroke="midnightblue" points="64.5645,-315.686 67.1063,-325.971 71.5333,-316.346 64.5645,-315.686"/>
</g>
<!-- Node4 -->
<g id="node4" class="node"><title>Node4</title>
<g id="a_node4"><a xlink:href="../../d8/de7/classLM.html" target="_top" xlink:title="{LM\n||+ LM()\l+ LM()\l+ ~LM()\l+ Score()\l+ BeginSentenceState()\l+ begin()\l+ end()\l+ size()\l}">
<polygon fill="white" stroke="black" points="147,-287.5 147,-421.5 268,-421.5 268,-287.5 147,-287.5"/>
<text text-anchor="middle" x="207.5" y="-409.5" font-family="Helvetica,sans-Serif" font-size="10.00">LM</text>
<polyline fill="none" stroke="black" points="147,-402.5 268,-402.5 "/>
<text text-anchor="middle" x="207.5" y="-390.5" font-family="Helvetica,sans-Serif" font-size="10.00"> </text>
<polyline fill="none" stroke="black" points="147,-383.5 268,-383.5 "/>
<text text-anchor="start" x="155" y="-371.5" font-family="Helvetica,sans-Serif" font-size="10.00">+ LM()</text>
<text text-anchor="start" x="155" y="-360.5" font-family="Helvetica,sans-Serif" font-size="10.00">+ LM()</text>
<text text-anchor="start" x="155" y="-349.5" font-family="Helvetica,sans-Serif" font-size="10.00">+ ~LM()</text>
<text text-anchor="start" x="155" y="-338.5" font-family="Helvetica,sans-Serif" font-size="10.00">+ Score()</text>
<text text-anchor="start" x="155" y="-327.5" font-family="Helvetica,sans-Serif" font-size="10.00">+ BeginSentenceState()</text>
<text text-anchor="start" x="155" y="-316.5" font-family="Helvetica,sans-Serif" font-size="10.00">+ begin()</text>
<text text-anchor="start" x="155" y="-305.5" font-family="Helvetica,sans-Serif" font-size="10.00">+ end()</text>
<text text-anchor="start" x="155" y="-294.5" font-family="Helvetica,sans-Serif" font-size="10.00">+ size()</text>
</a>
</g>
</g>
<!-- Node4&#45;&gt;Node2 -->
<g id="edge3" class="edge"><title>Node4&#45;&gt;Node2</title>
<path fill="none" stroke="#404040" d="M157.671,-287.192C148.349,-274.787 138.615,-261.834 129.324,-249.47"/>
<polygon fill="none" stroke="#404040" points="129.193,-249.297 122.391,-246.903 121.984,-239.704 128.787,-242.097 129.193,-249.297"/>
<text text-anchor="middle" x="155.5" y="-261" font-family="Helvetica,sans-Serif" font-size="10.00"> &#45;lm_</text>
</g>
<!-- Node5 -->
<g id="node5" class="node"><title>Node5</title>
<polygon fill="white" stroke="#bfbfbf" points="68.5,-469.5 68.5,-526.5 190.5,-526.5 190.5,-469.5 68.5,-469.5"/>
<text text-anchor="middle" x="129.5" y="-514.5" font-family="Helvetica,sans-Serif" font-size="10.00">std::vector&lt; WordPair &gt;</text>
<polyline fill="none" stroke="#bfbfbf" points="68.5,-507.5 190.5,-507.5 "/>
<text text-anchor="middle" x="129.5" y="-495.5" font-family="Helvetica,sans-Serif" font-size="10.00"> </text>
<polyline fill="none" stroke="#bfbfbf" points="68.5,-488.5 190.5,-488.5 "/>
<text text-anchor="middle" x="129.5" y="-476.5" font-family="Helvetica,sans-Serif" font-size="10.00"> </text>
</g>
<!-- Node5&#45;&gt;Node4 -->
<g id="edge4" class="edge"><title>Node5&#45;&gt;Node4</title>
<path fill="none" stroke="#404040" d="M144.724,-469.381C150.671,-458.593 157.811,-445.64 165.111,-432.399"/>
<polygon fill="none" stroke="#404040" points="165.186,-432.262 164.58,-425.076 170.979,-421.753 171.586,-428.938 165.186,-432.262"/>
<text text-anchor="middle" x="172" y="-443" font-family="Helvetica,sans-Serif" font-size="10.00"> &#45;vm_</text>
</g>
<!-- Node6 -->
<g id="node6" class="node"><title>Node6</title>
<polygon fill="white" stroke="#bfbfbf" points="209,-469.5 209,-526.5 362,-526.5 362,-469.5 209,-469.5"/>
<text text-anchor="middle" x="285.5" y="-514.5" font-family="Helvetica,sans-Serif" font-size="10.00">std::unique_ptr&lt; KenlmModel &gt;</text>
<polyline fill="none" stroke="#bfbfbf" points="209,-507.5 362,-507.5 "/>
<text text-anchor="middle" x="285.5" y="-495.5" font-family="Helvetica,sans-Serif" font-size="10.00"> </text>
<polyline fill="none" stroke="#bfbfbf" points="209,-488.5 362,-488.5 "/>
<text text-anchor="middle" x="285.5" y="-476.5" font-family="Helvetica,sans-Serif" font-size="10.00"> </text>
</g>
<!-- Node6&#45;&gt;Node4 -->
<g id="edge5" class="edge"><title>Node6&#45;&gt;Node4</title>
<path fill="none" stroke="#404040" d="M270.276,-469.381C264.329,-458.593 257.189,-445.64 249.889,-432.399"/>
<polygon fill="none" stroke="#404040" points="249.814,-432.262 243.414,-428.938 244.021,-421.753 250.42,-425.076 249.814,-432.262"/>
<text text-anchor="middle" x="269.5" y="-443" font-family="Helvetica,sans-Serif" font-size="10.00"> &#45;lm_</text>
</g>
<!-- Node7 -->
<g id="node7" class="node"><title>Node7</title>
<polygon fill="white" stroke="#bfbfbf" points="161,-149.5 161,-217.5 280,-217.5 280,-149.5 161,-149.5"/>
<text text-anchor="start" x="169" y="-205.5" font-family="Helvetica,sans-Serif" font-size="10.00">std::vector&lt; std::vector</text>
<text text-anchor="middle" x="220.5" y="-194.5" font-family="Helvetica,sans-Serif" font-size="10.00">&lt; Word &gt; &gt;</text>
<polyline fill="none" stroke="#bfbfbf" points="161,-187.5 280,-187.5 "/>
<text text-anchor="middle" x="220.5" y="-175.5" font-family="Helvetica,sans-Serif" font-size="10.00"> </text>
<polyline fill="none" stroke="#bfbfbf" points="161,-168.5 280,-168.5 "/>
<text text-anchor="middle" x="220.5" y="-156.5" font-family="Helvetica,sans-Serif" font-size="10.00"> </text>
</g>
<!-- Node7&#45;&gt;Node1 -->
<g id="edge6" class="edge"><title>Node7&#45;&gt;Node1</title>
<path fill="none" stroke="#404040" d="M212.294,-149.325C208.047,-132.156 202.772,-110.829 198.029,-91.651"/>
<polygon fill="none" stroke="#404040" points="197.963,-91.3839 192.639,-86.5199 195.081,-79.7349 200.405,-84.5989 197.963,-91.3839"/>
<text text-anchor="middle" x="225.5" y="-101" font-family="Helvetica,sans-Serif" font-size="10.00"> &#45;classes_</text>
</g>
</g>
</svg>
        <g id="navigator" transform="translate(0 0)" fill="#404254">
                <rect fill="#f2f5e9" fill-opacity="0.5" stroke="#606060" stroke-width=".5" x="0" y="0" width="60" height="60"/>
                <use id="zoomplus" xlink:href="#zoomPlus" x="17" y="9" onmousedown="handleZoom(evt,'in')"/>
                <use id="zoomminus" xlink:href="#zoomMin" x="42" y="9" onmousedown="handleZoom(evt,'out')"/>
                <use id="reset" xlink:href="#resetDef" x="30" y="36" onmousedown="handleReset()"/>
                <g id="arrowUp" xlink:href="#dirArrow" transform="translate(30 24)" onmousedown="handlePan(0,-1)">
                  <use xlink:href="#rim" fill="#404040">
                        <set attributeName="fill" to="#808080" begin="arrowUp.mouseover" end="arrowUp.mouseout"/>
                  </use>
                  <path fill="none" stroke="white" stroke-width="1.5" d="M0,-3.0v7 M-2.5,-0.5L0,-3.0L2.5,-0.5"/>
                </g>
                <g id="arrowRight" xlink:href="#dirArrow" transform="rotate(90) translate(36 -43)" onmousedown="handlePan(1,0)">
                  <use xlink:href="#rim" fill="#404040">
                        <set attributeName="fill" to="#808080" begin="arrowRight.mouseover" end="arrowRight.mouseout"/>
                  </use>
                  <path fill="none" stroke="white" stroke-width="1.5" d="M0,-3.0v7 M-2.5,-0.5L0,-3.0L2.5,-0.5"/>
                </g>
                <g id="arrowDown" xlink:href="#dirArrow" transform="rotate(180) translate(-30 -48)" onmousedown="handlePan(0,1)">
                  <use xlink:href="#rim" fill="#404040">
                        <set attributeName="fill" to="#808080" begin="arrowDown.mouseover" end="arrowDown.mouseout"/>
                  </use>
                  <path fill="none" stroke="white" stroke-width="1.5" d="M0,-3.0v7 M-2.5,-0.5L0,-3.0L2.5,-0.5"/>
                </g>
                <g id="arrowLeft" xlink:href="#dirArrow" transform="rotate(270) translate(-36 17)" onmousedown="handlePan(-1,0)">
                  <use xlink:href="#rim" fill="#404040">
                        <set attributeName="fill" to="#808080" begin="arrowLeft.mouseover" end="arrowLeft.mouseout"/>
                  </use>
                  <path fill="none" stroke="white" stroke-width="1.5" d="M0,-3.0v7 M-2.5,-0.5L0,-3.0L2.5,-0.5"/>
                </g>
        </g>
        <svg viewBox="0 0 15 15" width="100%" height="30px" preserveAspectRatio="xMaxYMin meet">
         <g id="arrow_out" transform="scale(0.3 0.3)">
          <a xlink:href="classamunmt_1_1GPU_1_1ClassLanguageModel__coll__graph_org.svg" target="_base">
           <rect id="button" ry="5" rx="5" y="6" x="6" height="38" width="38"
                fill="#f2f5e9" fill-opacity="0.5" stroke="#606060" stroke-width="1.0"/>
           <path id="arrow"
             d="M 11.500037,31.436501 C 11.940474,20.09759 22.043105,11.32322 32.158766,21.979434 L 37.068811,17.246167 C 37.068811,17.246167 37.088388,32 37.088388,32 L 22.160133,31.978069 C 22.160133,31.978069 26.997745,27.140456 26.997745,27.140456 C 18.528582,18.264221 13.291696,25.230495 11.500037,31.436501 z"
             style="fill:#404040;"/>
          </a>
         </g>
        </svg>
</svg>
