<?xml version="1.0" encoding="UTF-8" standalone="no"?>
<!DOCTYPE svg PUBLIC "-//W3C//DTD SVG 1.1//EN"
 "http://www.w3.org/Graphics/SVG/1.1/DTD/svg11.dtd">
<!-- Generated by graphviz version 2.38.0 (20140413.2041)
 -->
<!-- Title: prepare_corpus.parse_user_args Pages: 1 -->
<svg width="261pt" height="39pt"
 viewBox="0.00 0.00 261.00 39.00" xmlns="http://www.w3.org/2000/svg" xmlns:xlink="http://www.w3.org/1999/xlink">
<g id="graph0" class="graph" transform="scale(1 1) rotate(0) translate(4 35)">
<title>prepare_corpus.parse_user_args</title>
<polygon fill="white" stroke="none" points="-4,4 -4,-35 257,-35 257,4 -4,4"/>
<!-- Node1 -->
<g id="node1" class="node"><title>Node1</title>
<polygon fill="#bfbfbf" stroke="black" points="0,-0.5 0,-30.5 110,-30.5 110,-0.5 0,-0.5"/>
<text text-anchor="start" x="8" y="-18.5" font-family="Helvetica,sans-Serif" font-size="10.00">prepare_corpus.parse</text>
<text text-anchor="middle" x="55" y="-7.5" font-family="Helvetica,sans-Serif" font-size="10.00">_user_args</text>
</g>
<!-- Node2 -->
<g id="node2" class="node"><title>Node2</title>
<g id="a_node2"><a xlink:href="../../d2/d9d/namespaceprepare__corpus.html#aa70e0cc7eb57e827cc406e421ee340d2" target="_top" xlink:title="prepare_corpus.main">
<polygon fill="white" stroke="black" points="146,-6 146,-25 253,-25 253,-6 146,-6"/>
<text text-anchor="middle" x="199.5" y="-13" font-family="Helvetica,sans-Serif" font-size="10.00">prepare_corpus.main</text>
</a>
</g>
</g>
<!-- Node1&#45;&gt;Node2 -->
<g id="edge1" class="edge"><title>Node1&#45;&gt;Node2</title>
<path fill="none" stroke="midnightblue" d="M120.503,-8.77698C128.962,-8.70915 137.55,-8.76922 145.783,-8.95719"/>
<polygon fill="midnightblue" stroke="midnightblue" points="120.229,-5.28044 110.28,-8.92314 120.329,-12.2797 120.229,-5.28044"/>
</g>
<!-- Node2&#45;&gt;Node1 -->
<g id="edge2" class="edge"><title>Node2&#45;&gt;Node1</title>
<path fill="none" stroke="midnightblue" d="M135.597,-22.2087C127.156,-22.2926 118.555,-22.2487 110.28,-22.0769"/>
<polygon fill="midnightblue" stroke="midnightblue" points="135.841,-25.7052 145.783,-22.0428 135.727,-18.7062 135.841,-25.7052"/>
</g>
</g>
</svg>
