<?xml version="1.0" encoding="UTF-8" standalone="no"?>
<!DOCTYPE svg PUBLIC "-//W3C//DTD SVG 1.1//EN"
 "http://www.w3.org/Graphics/SVG/1.1/DTD/svg11.dtd">
<!-- Generated by graphviz version 2.38.0 (20140413.2041)
 -->
<!-- Title: amunmt::Scorer Pages: 1 -->
<svg width="1406pt" height="1128pt"
 viewBox="0.00 0.00 1406.00 1128.00" xmlns="http://www.w3.org/2000/svg" xmlns:xlink="http://www.w3.org/1999/xlink">
<g id="graph0" class="graph" transform="scale(1 1) rotate(0) translate(4 1124)">
<title>amunmt::Scorer</title>
<polygon fill="white" stroke="none" points="-4,4 -4,-1124 1402,-1124 1402,4 -4,4"/>
<!-- Node1 -->
<g id="node1" class="node"><title>Node1</title>
<polygon fill="#bfbfbf" stroke="black" points="1148,-0.5 1148,-211.5 1280,-211.5 1280,-0.5 1148,-0.5"/>
<text text-anchor="middle" x="1214" y="-199.5" font-family="Helvetica,sans-Serif" font-size="10.00">amunmt::Scorer</text>
<polyline fill="none" stroke="black" points="1148,-192.5 1280,-192.5 "/>
<text text-anchor="start" x="1156" y="-180.5" font-family="Helvetica,sans-Serif" font-size="10.00"># config_</text>
<text text-anchor="start" x="1156" y="-169.5" font-family="Helvetica,sans-Serif" font-size="10.00"># tab_</text>
<polyline fill="none" stroke="black" points="1148,-162.5 1280,-162.5 "/>
<text text-anchor="start" x="1156" y="-150.5" font-family="Helvetica,sans-Serif" font-size="10.00">+ Scorer()</text>
<text text-anchor="start" x="1156" y="-139.5" font-family="Helvetica,sans-Serif" font-size="10.00">+ ~Scorer()</text>
<text text-anchor="start" x="1156" y="-128.5" font-family="Helvetica,sans-Serif" font-size="10.00">+ Decode()</text>
<text text-anchor="start" x="1156" y="-117.5" font-family="Helvetica,sans-Serif" font-size="10.00">+ BeginSentenceState()</text>
<text text-anchor="start" x="1156" y="-106.5" font-family="Helvetica,sans-Serif" font-size="10.00">+ AssembleBeamState()</text>
<text text-anchor="start" x="1156" y="-95.5" font-family="Helvetica,sans-Serif" font-size="10.00">+ Encode()</text>
<text text-anchor="start" x="1156" y="-84.5" font-family="Helvetica,sans-Serif" font-size="10.00">+ Filter()</text>
<text text-anchor="start" x="1156" y="-73.5" font-family="Helvetica,sans-Serif" font-size="10.00">+ NewState()</text>
<text text-anchor="start" x="1156" y="-62.5" font-family="Helvetica,sans-Serif" font-size="10.00">+ GetVocabSize()</text>
<text text-anchor="start" x="1156" y="-51.5" font-family="Helvetica,sans-Serif" font-size="10.00">+ CleanUpAfterSentence()</text>
<text text-anchor="start" x="1156" y="-40.5" font-family="Helvetica,sans-Serif" font-size="10.00">+ GetName()</text>
<text text-anchor="start" x="1156" y="-29.5" font-family="Helvetica,sans-Serif" font-size="10.00">+ GetProbs()</text>
<text text-anchor="start" x="1156" y="-18.5" font-family="Helvetica,sans-Serif" font-size="10.00">+ GetNBest()</text>
<text text-anchor="start" x="1156" y="-7.5" font-family="Helvetica,sans-Serif" font-size="10.00">+ GetBias()</text>
</g>
<!-- Node2 -->
<g id="node2" class="node"><title>Node2</title>
<g id="a_node2"><a xlink:href="../../d7/d4e/classamunmt_1_1God.html" target="_top" xlink:title="{amunmt::God\n|&#45; filter_\l&#45; info_\l&#45; progress_\l&#45; threadIncr_\l&#45; accessLock_\l&#45; returnNBestList_\l&#45; useFusedSoftmax_\l|+ God()\l+ ~God()\l+ Init()\l+ Init()\l+ Cleanup()\l+ Has()\l+ Get()\l+ Get()\l+ GetSourceVocab()\l+ GetTargetVocab()\land 16 more...\l&#45; LoadScorers()\l&#45; LoadFiltering()\l&#45; LoadPrePostProcessing()\l}">
<polygon fill="white" stroke="black" points="688,-259.5 688,-525.5 822,-525.5 822,-259.5 688,-259.5"/>
<text text-anchor="middle" x="755" y="-513.5" font-family="Helvetica,sans-Serif" font-size="10.00">amunmt::God</text>
<polyline fill="none" stroke="black" points="688,-506.5 822,-506.5 "/>
<text text-anchor="start" x="696" y="-494.5" font-family="Helvetica,sans-Serif" font-size="10.00">&#45; filter_</text>
<text text-anchor="start" x="696" y="-483.5" font-family="Helvetica,sans-Serif" font-size="10.00">&#45; info_</text>
<text text-anchor="start" x="696" y="-472.5" font-family="Helvetica,sans-Serif" font-size="10.00">&#45; progress_</text>
<text text-anchor="start" x="696" y="-461.5" font-family="Helvetica,sans-Serif" font-size="10.00">&#45; threadIncr_</text>
<text text-anchor="start" x="696" y="-450.5" font-family="Helvetica,sans-Serif" font-size="10.00">&#45; accessLock_</text>
<text text-anchor="start" x="696" y="-439.5" font-family="Helvetica,sans-Serif" font-size="10.00">&#45; returnNBestList_</text>
<text text-anchor="start" x="696" y="-428.5" font-family="Helvetica,sans-Serif" font-size="10.00">&#45; useFusedSoftmax_</text>
<polyline fill="none" stroke="black" points="688,-421.5 822,-421.5 "/>
<text text-anchor="start" x="696" y="-409.5" font-family="Helvetica,sans-Serif" font-size="10.00">+ God()</text>
<text text-anchor="start" x="696" y="-398.5" font-family="Helvetica,sans-Serif" font-size="10.00">+ ~God()</text>
<text text-anchor="start" x="696" y="-387.5" font-family="Helvetica,sans-Serif" font-size="10.00">+ Init()</text>
<text text-anchor="start" x="696" y="-376.5" font-family="Helvetica,sans-Serif" font-size="10.00">+ Init()</text>
<text text-anchor="start" x="696" y="-365.5" font-family="Helvetica,sans-Serif" font-size="10.00">+ Cleanup()</text>
<text text-anchor="start" x="696" y="-354.5" font-family="Helvetica,sans-Serif" font-size="10.00">+ Has()</text>
<text text-anchor="start" x="696" y="-343.5" font-family="Helvetica,sans-Serif" font-size="10.00">+ Get()</text>
<text text-anchor="start" x="696" y="-332.5" font-family="Helvetica,sans-Serif" font-size="10.00">+ Get()</text>
<text text-anchor="start" x="696" y="-321.5" font-family="Helvetica,sans-Serif" font-size="10.00">+ GetSourceVocab()</text>
<text text-anchor="start" x="696" y="-310.5" font-family="Helvetica,sans-Serif" font-size="10.00">+ GetTargetVocab()</text>
<text text-anchor="start" x="696" y="-299.5" font-family="Helvetica,sans-Serif" font-size="10.00">and 16 more...</text>
<text text-anchor="start" x="696" y="-288.5" font-family="Helvetica,sans-Serif" font-size="10.00">&#45; LoadScorers()</text>
<text text-anchor="start" x="696" y="-277.5" font-family="Helvetica,sans-Serif" font-size="10.00">&#45; LoadFiltering()</text>
<text text-anchor="start" x="696" y="-266.5" font-family="Helvetica,sans-Serif" font-size="10.00">&#45; LoadPrePostProcessing()</text>
</a>
</g>
</g>
<!-- Node2&#45;&gt;Node1 -->
<g id="edge1" class="edge"><title>Node2&#45;&gt;Node1</title>
<path fill="none" stroke="#404040" d="M822.234,-349.827C906.102,-297.843 1049.16,-209.172 1137.24,-154.576"/>
<polygon fill="none" stroke="#404040" points="1137.5,-154.414 1140.5,-147.853 1147.7,-148.092 1144.71,-154.653 1137.5,-154.414"/>
<text text-anchor="middle" x="1027" y="-233" font-family="Helvetica,sans-Serif" font-size="10.00"> #god_</text>
</g>
<!-- Node3 -->
<g id="node3" class="node"><title>Node3</title>
<polygon fill="white" stroke="#bfbfbf" points="1114.5,-617.5 1114.5,-685.5 1249.5,-685.5 1249.5,-617.5 1114.5,-617.5"/>
<text text-anchor="start" x="1122.5" y="-673.5" font-family="Helvetica,sans-Serif" font-size="10.00">std::vector&lt; Postprocessor</text>
<text text-anchor="middle" x="1182" y="-662.5" font-family="Helvetica,sans-Serif" font-size="10.00">Ptr &gt;</text>
<polyline fill="none" stroke="#bfbfbf" points="1114.5,-655.5 1249.5,-655.5 "/>
<text text-anchor="middle" x="1182" y="-643.5" font-family="Helvetica,sans-Serif" font-size="10.00"> </text>
<polyline fill="none" stroke="#bfbfbf" points="1114.5,-636.5 1249.5,-636.5 "/>
<text text-anchor="middle" x="1182" y="-624.5" font-family="Helvetica,sans-Serif" font-size="10.00"> </text>
</g>
<!-- Node3&#45;&gt;Node2 -->
<g id="edge2" class="edge"><title>Node3&#45;&gt;Node2</title>
<path fill="none" stroke="#404040" d="M1137.2,-617.362C1126.73,-609.86 1115.56,-602.036 1105,-595 1014.4,-534.63 904.937,-473.362 832.829,-434.495"/>
<polygon fill="none" stroke="#404040" points="832.597,-434.371 825.419,-435.054 822.027,-428.69 829.206,-428.007 832.597,-434.371"/>
<text text-anchor="middle" x="1108.5" y="-558" font-family="Helvetica,sans-Serif" font-size="10.00"> &#45;postprocessors_</text>
</g>
<!-- Node4 -->
<g id="node4" class="node"><title>Node4</title>
<polygon fill="white" stroke="#bfbfbf" points="0,-617.5 0,-685.5 110,-685.5 110,-617.5 0,-617.5"/>
<text text-anchor="start" x="8" y="-673.5" font-family="Helvetica,sans-Serif" font-size="10.00">std::map&lt; std::string,</text>
<text text-anchor="middle" x="55" y="-662.5" font-family="Helvetica,sans-Serif" font-size="10.00"> LoaderPtr &gt;</text>
<polyline fill="none" stroke="#bfbfbf" points="0,-655.5 110,-655.5 "/>
<text text-anchor="middle" x="55" y="-643.5" font-family="Helvetica,sans-Serif" font-size="10.00"> </text>
<polyline fill="none" stroke="#bfbfbf" points="0,-636.5 110,-636.5 "/>
<text text-anchor="middle" x="55" y="-624.5" font-family="Helvetica,sans-Serif" font-size="10.00"> </text>
</g>
<!-- Node4&#45;&gt;Node2 -->
<g id="edge3" class="edge"><title>Node4&#45;&gt;Node2</title>
<path fill="none" stroke="#404040" d="M89.8433,-617.274C98.9496,-609.452 109.021,-601.506 119,-595 163.466,-566.008 177.309,-562.671 227,-544 382.722,-485.488 571.516,-436.808 675.916,-411.749"/>
<polygon fill="none" stroke="#404040" points="675.932,-411.746 680.839,-406.461 687.604,-408.958 682.697,-414.243 675.932,-411.746"/>
<text text-anchor="middle" x="258" y="-569" font-family="Helvetica,sans-Serif" font-size="10.00"> &#45;gpuLoaders_</text>
<text text-anchor="middle" x="258" y="-558" font-family="Helvetica,sans-Serif" font-size="10.00">&#45;fpgaLoaders_</text>
<text text-anchor="middle" x="258" y="-547" font-family="Helvetica,sans-Serif" font-size="10.00">&#45;cpuLoaders_</text>
</g>
<!-- Node5 -->
<g id="node5" class="node"><title>Node5</title>
<polygon fill="white" stroke="#bfbfbf" points="128.5,-617.5 128.5,-685.5 247.5,-685.5 247.5,-617.5 128.5,-617.5"/>
<text text-anchor="start" x="136.5" y="-673.5" font-family="Helvetica,sans-Serif" font-size="10.00">std::vector&lt; std::vector</text>
<text text-anchor="middle" x="188" y="-662.5" font-family="Helvetica,sans-Serif" font-size="10.00">&lt; PreprocessorPtr &gt; &gt;</text>
<polyline fill="none" stroke="#bfbfbf" points="128.5,-655.5 247.5,-655.5 "/>
<text text-anchor="middle" x="188" y="-643.5" font-family="Helvetica,sans-Serif" font-size="10.00"> </text>
<polyline fill="none" stroke="#bfbfbf" points="128.5,-636.5 247.5,-636.5 "/>
<text text-anchor="middle" x="188" y="-624.5" font-family="Helvetica,sans-Serif" font-size="10.00"> </text>
</g>
<!-- Node5&#45;&gt;Node2 -->
<g id="edge4" class="edge"><title>Node5&#45;&gt;Node2</title>
<path fill="none" stroke="#404040" d="M225.79,-617.377C235.358,-609.637 245.817,-601.703 256,-595 391.868,-505.559 573.735,-444.574 676.189,-414.71"/>
<polygon fill="none" stroke="#404040" points="676.447,-414.635 681.103,-409.129 687.977,-411.309 683.321,-416.815 676.447,-414.635"/>
<text text-anchor="middle" x="368.5" y="-558" font-family="Helvetica,sans-Serif" font-size="10.00"> &#45;preprocessors_</text>
</g>
<!-- Node6 -->
<g id="node6" class="node"><title>Node6</title>
<polygon fill="white" stroke="#bfbfbf" points="265.5,-617.5 265.5,-685.5 394.5,-685.5 394.5,-617.5 265.5,-617.5"/>
<text text-anchor="start" x="273.5" y="-673.5" font-family="Helvetica,sans-Serif" font-size="10.00">std::vector&lt; std::unique</text>
<text text-anchor="middle" x="330" y="-662.5" font-family="Helvetica,sans-Serif" font-size="10.00">_ptr&lt; amunmt::Vocab &gt; &gt;</text>
<polyline fill="none" stroke="#bfbfbf" points="265.5,-655.5 394.5,-655.5 "/>
<text text-anchor="middle" x="330" y="-643.5" font-family="Helvetica,sans-Serif" font-size="10.00"> </text>
<polyline fill="none" stroke="#bfbfbf" points="265.5,-636.5 394.5,-636.5 "/>
<text text-anchor="middle" x="330" y="-624.5" font-family="Helvetica,sans-Serif" font-size="10.00"> </text>
</g>
<!-- Node6&#45;&gt;Node2 -->
<g id="edge5" class="edge"><title>Node6&#45;&gt;Node2</title>
<path fill="none" stroke="#404040" d="M372.501,-617.453C382.419,-609.947 393.005,-602.098 403,-595 492.557,-531.399 603.669,-470.491 676.816,-432.609"/>
<polygon fill="none" stroke="#404040" points="677.107,-432.459 680.606,-426.154 687.772,-426.96 684.273,-433.265 677.107,-432.459"/>
<text text-anchor="middle" x="514" y="-558" font-family="Helvetica,sans-Serif" font-size="10.00"> &#45;sourceVocabs_</text>
</g>
<!-- Node7 -->
<g id="node7" class="node"><title>Node7</title>
<polygon fill="white" stroke="#bfbfbf" points="412.5,-617.5 412.5,-685.5 537.5,-685.5 537.5,-617.5 412.5,-617.5"/>
<text text-anchor="start" x="420.5" y="-673.5" font-family="Helvetica,sans-Serif" font-size="10.00">std::unique_ptr&lt; amunmt</text>
<text text-anchor="middle" x="475" y="-662.5" font-family="Helvetica,sans-Serif" font-size="10.00">::ThreadPool &gt;</text>
<polyline fill="none" stroke="#bfbfbf" points="412.5,-655.5 537.5,-655.5 "/>
<text text-anchor="middle" x="475" y="-643.5" font-family="Helvetica,sans-Serif" font-size="10.00"> </text>
<polyline fill="none" stroke="#bfbfbf" points="412.5,-636.5 537.5,-636.5 "/>
<text text-anchor="middle" x="475" y="-624.5" font-family="Helvetica,sans-Serif" font-size="10.00"> </text>
</g>
<!-- Node7&#45;&gt;Node2 -->
<g id="edge6" class="edge"><title>Node7&#45;&gt;Node2</title>
<path fill="none" stroke="#404040" d="M511.032,-617.428C553.216,-578.709 624.25,-513.51 678.823,-463.419"/>
<polygon fill="none" stroke="#404040" points="678.936,-463.316 680.651,-456.312 687.777,-455.202 686.061,-462.206 678.936,-463.316"/>
<text text-anchor="middle" x="605" y="-558" font-family="Helvetica,sans-Serif" font-size="10.00"> &#45;pool_</text>
</g>
<!-- Node8 -->
<g id="node8" class="node"><title>Node8</title>
<g id="a_node8"><a xlink:href="../../dd/d77/classamunmt_1_1OutputCollector.html" target="_top" xlink:title="{amunmt::OutputCollector\n|# mutex_\l# nextId_\l|+ OutputCollector()\l+ OutputCollector()\l+ Write()\l}">
<polygon fill="white" stroke="black" points="556,-606.5 556,-696.5 682,-696.5 682,-606.5 556,-606.5"/>
<text text-anchor="middle" x="619" y="-684.5" font-family="Helvetica,sans-Serif" font-size="10.00">amunmt::OutputCollector</text>
<polyline fill="none" stroke="black" points="556,-677.5 682,-677.5 "/>
<text text-anchor="start" x="564" y="-665.5" font-family="Helvetica,sans-Serif" font-size="10.00"># mutex_</text>
<text text-anchor="start" x="564" y="-654.5" font-family="Helvetica,sans-Serif" font-size="10.00"># nextId_</text>
<polyline fill="none" stroke="black" points="556,-647.5 682,-647.5 "/>
<text text-anchor="start" x="564" y="-635.5" font-family="Helvetica,sans-Serif" font-size="10.00">+ OutputCollector()</text>
<text text-anchor="start" x="564" y="-624.5" font-family="Helvetica,sans-Serif" font-size="10.00">+ OutputCollector()</text>
<text text-anchor="start" x="564" y="-613.5" font-family="Helvetica,sans-Serif" font-size="10.00">+ Write()</text>
</a>
</g>
</g>
<!-- Node8&#45;&gt;Node2 -->
<g id="edge7" class="edge"><title>Node8&#45;&gt;Node2</title>
<path fill="none" stroke="#404040" d="M641.04,-606.306C650.717,-587.094 662.291,-564.367 673,-544 675.911,-538.463 678.897,-532.821 681.926,-527.127"/>
<polygon fill="none" stroke="#404040" points="682.146,-526.717 681.442,-519.54 687.796,-516.13 688.5,-523.307 682.146,-526.717"/>
<text text-anchor="middle" x="712" y="-558" font-family="Helvetica,sans-Serif" font-size="10.00"> &#45;outputCollector_</text>
</g>
<!-- Node9 -->
<g id="node9" class="node"><title>Node9</title>
<polygon fill="white" stroke="#bfbfbf" points="525.5,-755.5 525.5,-823.5 626.5,-823.5 626.5,-755.5 525.5,-755.5"/>
<text text-anchor="start" x="533.5" y="-811.5" font-family="Helvetica,sans-Serif" font-size="10.00">std::map&lt; long, std</text>
<text text-anchor="middle" x="576" y="-800.5" font-family="Helvetica,sans-Serif" font-size="10.00">::string &gt;</text>
<polyline fill="none" stroke="#bfbfbf" points="525.5,-793.5 626.5,-793.5 "/>
<text text-anchor="middle" x="576" y="-781.5" font-family="Helvetica,sans-Serif" font-size="10.00"> </text>
<polyline fill="none" stroke="#bfbfbf" points="525.5,-774.5 626.5,-774.5 "/>
<text text-anchor="middle" x="576" y="-762.5" font-family="Helvetica,sans-Serif" font-size="10.00"> </text>
</g>
<!-- Node9&#45;&gt;Node8 -->
<g id="edge8" class="edge"><title>Node9&#45;&gt;Node8</title>
<path fill="none" stroke="#404040" d="M585.932,-755.376C588.817,-745.878 592,-735.518 595,-726 596.82,-720.227 598.743,-714.207 600.677,-708.207"/>
<polygon fill="none" stroke="#404040" points="600.687,-708.177 598.731,-701.236 604.385,-696.761 606.341,-703.702 600.687,-708.177"/>
<text text-anchor="middle" x="618" y="-729" font-family="Helvetica,sans-Serif" font-size="10.00"> #outputs_</text>
</g>
<!-- Node10 -->
<g id="node10" class="node"><title>Node10</title>
<g id="a_node10"><a xlink:title="STL class. ">
<polygon fill="white" stroke="#bfbfbf" points="644.5,-761 644.5,-818 715.5,-818 715.5,-761 644.5,-761"/>
<text text-anchor="middle" x="680" y="-806" font-family="Helvetica,sans-Serif" font-size="10.00">std::ostream</text>
<polyline fill="none" stroke="#bfbfbf" points="644.5,-799 715.5,-799 "/>
<text text-anchor="middle" x="680" y="-787" font-family="Helvetica,sans-Serif" font-size="10.00"> </text>
<polyline fill="none" stroke="#bfbfbf" points="644.5,-780 715.5,-780 "/>
<text text-anchor="middle" x="680" y="-768" font-family="Helvetica,sans-Serif" font-size="10.00"> </text>
</a>
</g>
</g>
<!-- Node10&#45;&gt;Node8 -->
<g id="edge9" class="edge"><title>Node10&#45;&gt;Node8</title>
<path fill="none" stroke="#404040" d="M667.656,-760.978C660.794,-745.681 652.005,-726.086 643.79,-707.769"/>
<polygon fill="none" stroke="#404040" points="643.682,-707.528 637.577,-703.691 638.771,-696.579 644.876,-700.417 643.682,-707.528"/>
<text text-anchor="middle" x="681.5" y="-729" font-family="Helvetica,sans-Serif" font-size="10.00"> #outStrm_</text>
</g>
<!-- Node11 -->
<g id="node11" class="node"><title>Node11</title>
<polygon fill="white" stroke="#bfbfbf" points="630,-861.5 630,-929.5 730,-929.5 730,-861.5 630,-861.5"/>
<text text-anchor="start" x="638" y="-917.5" font-family="Helvetica,sans-Serif" font-size="10.00">std::basic_ostream</text>
<text text-anchor="middle" x="680" y="-906.5" font-family="Helvetica,sans-Serif" font-size="10.00">&lt; char &gt;</text>
<polyline fill="none" stroke="#bfbfbf" points="630,-899.5 730,-899.5 "/>
<text text-anchor="middle" x="680" y="-887.5" font-family="Helvetica,sans-Serif" font-size="10.00"> </text>
<polyline fill="none" stroke="#bfbfbf" points="630,-880.5 730,-880.5 "/>
<text text-anchor="middle" x="680" y="-868.5" font-family="Helvetica,sans-Serif" font-size="10.00"> </text>
</g>
<!-- Node11&#45;&gt;Node10 -->
<g id="edge10" class="edge"><title>Node11&#45;&gt;Node10</title>
<path fill="none" stroke="midnightblue" d="M680,-851.247C680,-840.054 680,-828.304 680,-818.154"/>
<polygon fill="none" stroke="midnightblue" points="676.5,-851.308 680,-861.308 683.5,-851.308 676.5,-851.308"/>
</g>
<!-- Node12 -->
<g id="node12" class="node"><title>Node12</title>
<polygon fill="white" stroke="#bfbfbf" points="623,-967.5 623,-1024.5 737,-1024.5 737,-967.5 623,-967.5"/>
<text text-anchor="middle" x="680" y="-1012.5" font-family="Helvetica,sans-Serif" font-size="10.00">std::basic_ios&lt; char &gt;</text>
<polyline fill="none" stroke="#bfbfbf" points="623,-1005.5 737,-1005.5 "/>
<text text-anchor="middle" x="680" y="-993.5" font-family="Helvetica,sans-Serif" font-size="10.00"> </text>
<polyline fill="none" stroke="#bfbfbf" points="623,-986.5 737,-986.5 "/>
<text text-anchor="middle" x="680" y="-974.5" font-family="Helvetica,sans-Serif" font-size="10.00"> </text>
</g>
<!-- Node12&#45;&gt;Node11 -->
<g id="edge11" class="edge"><title>Node12&#45;&gt;Node11</title>
<path fill="none" stroke="midnightblue" d="M680,-957.007C680,-947.962 680,-938.383 680,-929.578"/>
<polygon fill="none" stroke="midnightblue" points="676.5,-957.3 680,-967.3 683.5,-957.3 676.5,-957.3"/>
</g>
<!-- Node13 -->
<g id="node13" class="node"><title>Node13</title>
<g id="a_node13"><a xlink:title="STL class. ">
<polygon fill="white" stroke="#bfbfbf" points="642.5,-1062.5 642.5,-1119.5 717.5,-1119.5 717.5,-1062.5 642.5,-1062.5"/>
<text text-anchor="middle" x="680" y="-1107.5" font-family="Helvetica,sans-Serif" font-size="10.00">std::ios_base</text>
<polyline fill="none" stroke="#bfbfbf" points="642.5,-1100.5 717.5,-1100.5 "/>
<text text-anchor="middle" x="680" y="-1088.5" font-family="Helvetica,sans-Serif" font-size="10.00"> </text>
<polyline fill="none" stroke="#bfbfbf" points="642.5,-1081.5 717.5,-1081.5 "/>
<text text-anchor="middle" x="680" y="-1069.5" font-family="Helvetica,sans-Serif" font-size="10.00"> </text>
</a>
</g>
</g>
<!-- Node13&#45;&gt;Node12 -->
<g id="edge12" class="edge"><title>Node13&#45;&gt;Node12</title>
<path fill="none" stroke="midnightblue" d="M680,-1052.24C680,-1043.03 680,-1033.35 680,-1024.71"/>
<polygon fill="none" stroke="midnightblue" points="676.5,-1052.35 680,-1062.35 683.5,-1052.35 676.5,-1052.35"/>
</g>
<!-- Node14 -->
<g id="node14" class="node"><title>Node14</title>
<polygon fill="white" stroke="#bfbfbf" points="700,-617.5 700,-685.5 810,-685.5 810,-617.5 700,-617.5"/>
<text text-anchor="start" x="708" y="-673.5" font-family="Helvetica,sans-Serif" font-size="10.00">std::map&lt; std::string,</text>
<text text-anchor="middle" x="755" y="-662.5" font-family="Helvetica,sans-Serif" font-size="10.00"> float &gt;</text>
<polyline fill="none" stroke="#bfbfbf" points="700,-655.5 810,-655.5 "/>
<text text-anchor="middle" x="755" y="-643.5" font-family="Helvetica,sans-Serif" font-size="10.00"> </text>
<polyline fill="none" stroke="#bfbfbf" points="700,-636.5 810,-636.5 "/>
<text text-anchor="middle" x="755" y="-624.5" font-family="Helvetica,sans-Serif" font-size="10.00"> </text>
</g>
<!-- Node14&#45;&gt;Node2 -->
<g id="edge13" class="edge"><title>Node14&#45;&gt;Node2</title>
<path fill="none" stroke="#404040" d="M755,-617.428C755,-596.517 755,-567.881 755,-538.073"/>
<polygon fill="none" stroke="#404040" points="755,-537.703 751,-531.703 755,-525.703 759,-531.703 755,-537.703"/>
<text text-anchor="middle" x="778" y="-558" font-family="Helvetica,sans-Serif" font-size="10.00"> &#45;weights_</text>
</g>
<!-- Node15 -->
<g id="node15" class="node"><title>Node15</title>
<polygon fill="white" stroke="#bfbfbf" points="828.5,-617.5 828.5,-685.5 953.5,-685.5 953.5,-617.5 828.5,-617.5"/>
<text text-anchor="start" x="836.5" y="-673.5" font-family="Helvetica,sans-Serif" font-size="10.00">std::unique_ptr&lt; amunmt</text>
<text text-anchor="middle" x="891" y="-662.5" font-family="Helvetica,sans-Serif" font-size="10.00">::Vocab &gt;</text>
<polyline fill="none" stroke="#bfbfbf" points="828.5,-655.5 953.5,-655.5 "/>
<text text-anchor="middle" x="891" y="-643.5" font-family="Helvetica,sans-Serif" font-size="10.00"> </text>
<polyline fill="none" stroke="#bfbfbf" points="828.5,-636.5 953.5,-636.5 "/>
<text text-anchor="middle" x="891" y="-624.5" font-family="Helvetica,sans-Serif" font-size="10.00"> </text>
</g>
<!-- Node15&#45;&gt;Node2 -->
<g id="edge14" class="edge"><title>Node15&#45;&gt;Node2</title>
<path fill="none" stroke="#404040" d="M873.499,-617.428C861.575,-594.895 844.904,-563.393 827.826,-531.12"/>
<polygon fill="none" stroke="#404040" points="827.638,-530.764 821.296,-527.332 822.025,-520.157 828.367,-523.59 827.638,-530.764"/>
<text text-anchor="middle" x="883" y="-558" font-family="Helvetica,sans-Serif" font-size="10.00"> &#45;targetVocab_</text>
</g>
<!-- Node16 -->
<g id="node16" class="node"><title>Node16</title>
<polygon fill="white" stroke="#bfbfbf" points="971.5,-617.5 971.5,-685.5 1096.5,-685.5 1096.5,-617.5 971.5,-617.5"/>
<text text-anchor="start" x="979.5" y="-673.5" font-family="Helvetica,sans-Serif" font-size="10.00">std::unique_ptr&lt; amunmt</text>
<text text-anchor="middle" x="1034" y="-662.5" font-family="Helvetica,sans-Serif" font-size="10.00">::InputFileStream &gt;</text>
<polyline fill="none" stroke="#bfbfbf" points="971.5,-655.5 1096.5,-655.5 "/>
<text text-anchor="middle" x="1034" y="-643.5" font-family="Helvetica,sans-Serif" font-size="10.00"> </text>
<polyline fill="none" stroke="#bfbfbf" points="971.5,-636.5 1096.5,-636.5 "/>
<text text-anchor="middle" x="1034" y="-624.5" font-family="Helvetica,sans-Serif" font-size="10.00"> </text>
</g>
<!-- Node16&#45;&gt;Node2 -->
<g id="edge15" class="edge"><title>Node16&#45;&gt;Node2</title>
<path fill="none" stroke="#404040" d="M998.296,-617.357C975.61,-596.318 945.61,-568.531 919,-544 890.285,-517.529 858.683,-488.503 830.949,-463.065"/>
<polygon fill="none" stroke="#404040" points="830.933,-463.05 823.807,-461.943 822.089,-454.939 829.214,-456.047 830.933,-463.05"/>
<text text-anchor="middle" x="986" y="-558" font-family="Helvetica,sans-Serif" font-size="10.00"> &#45;inputStream_</text>
</g>
<!-- Node17 -->
<g id="node17" class="node"><title>Node17</title>
<g id="a_node17"><a xlink:href="../../da/d4e/classamunmt_1_1Config.html" target="_top" xlink:title="{amunmt::Config\n|&#45; config_\l|+ Has()\l+ Get()\l+ Get()\l+ Get()\l+ AddOptions()\l+ LogOptions()\l}">
<polygon fill="white" stroke="black" points="1268,-595.5 1268,-707.5 1354,-707.5 1354,-595.5 1268,-595.5"/>
<text text-anchor="middle" x="1311" y="-695.5" font-family="Helvetica,sans-Serif" font-size="10.00">amunmt::Config</text>
<polyline fill="none" stroke="black" points="1268,-688.5 1354,-688.5 "/>
<text text-anchor="start" x="1276" y="-676.5" font-family="Helvetica,sans-Serif" font-size="10.00">&#45; config_</text>
<polyline fill="none" stroke="black" points="1268,-669.5 1354,-669.5 "/>
<text text-anchor="start" x="1276" y="-657.5" font-family="Helvetica,sans-Serif" font-size="10.00">+ Has()</text>
<text text-anchor="start" x="1276" y="-646.5" font-family="Helvetica,sans-Serif" font-size="10.00">+ Get()</text>
<text text-anchor="start" x="1276" y="-635.5" font-family="Helvetica,sans-Serif" font-size="10.00">+ Get()</text>
<text text-anchor="start" x="1276" y="-624.5" font-family="Helvetica,sans-Serif" font-size="10.00">+ Get()</text>
<text text-anchor="start" x="1276" y="-613.5" font-family="Helvetica,sans-Serif" font-size="10.00">+ AddOptions()</text>
<text text-anchor="start" x="1276" y="-602.5" font-family="Helvetica,sans-Serif" font-size="10.00">+ LogOptions()</text>
</a>
</g>
</g>
<!-- Node17&#45;&gt;Node2 -->
<g id="edge16" class="edge"><title>Node17&#45;&gt;Node2</title>
<path fill="none" stroke="#404040" d="M1267.89,-602.871C1264.65,-600.082 1261.34,-597.428 1258,-595 1215.71,-564.265 1200.04,-564.619 1152,-544 1043.05,-497.244 914.295,-449.832 833.624,-421.044"/>
<polygon fill="none" stroke="#404040" points="833.384,-420.959 826.39,-422.715 822.079,-416.935 829.073,-415.178 833.384,-420.959"/>
<text text-anchor="middle" x="1249" y="-558" font-family="Helvetica,sans-Serif" font-size="10.00"> &#45;config_</text>
</g>
<!-- Node18 -->
<g id="node18" class="node"><title>Node18</title>
<g id="a_node18"><a xlink:title="STL class. ">
<polygon fill="white" stroke="#bfbfbf" points="1318,-761 1318,-818 1378,-818 1378,-761 1318,-761"/>
<text text-anchor="middle" x="1348" y="-806" font-family="Helvetica,sans-Serif" font-size="10.00">std::string</text>
<polyline fill="none" stroke="#bfbfbf" points="1318,-799 1378,-799 "/>
<text text-anchor="middle" x="1348" y="-787" font-family="Helvetica,sans-Serif" font-size="10.00"> </text>
<polyline fill="none" stroke="#bfbfbf" points="1318,-780 1378,-780 "/>
<text text-anchor="middle" x="1348" y="-768" font-family="Helvetica,sans-Serif" font-size="10.00"> </text>
</a>
</g>
</g>
<!-- Node18&#45;&gt;Node1 -->
<g id="edge19" class="edge"><title>Node18&#45;&gt;Node1</title>
<path fill="none" stroke="#404040" d="M1360.84,-760.989C1363.79,-753.383 1366.5,-745.013 1368,-737 1373.44,-707.959 1420.99,-938.519 1363,-595 1341.01,-464.768 1294.1,-320.703 1258.75,-223.092"/>
<polygon fill="none" stroke="#404040" points="1258.71,-222.996 1252.9,-218.727 1254.6,-211.72 1260.42,-215.989 1258.71,-222.996"/>
<text text-anchor="middle" x="1379" y="-558" font-family="Helvetica,sans-Serif" font-size="10.00"> #name_</text>
</g>
<!-- Node18&#45;&gt;Node17 -->
<g id="edge17" class="edge"><title>Node18&#45;&gt;Node17</title>
<path fill="none" stroke="#404040" d="M1328.08,-760.774C1323.69,-753.375 1319.58,-745.159 1317,-737 1315.26,-731.505 1313.92,-725.712 1312.88,-719.842"/>
<polygon fill="none" stroke="#404040" points="1312.85,-719.635 1308.05,-714.254 1311.17,-707.753 1315.97,-713.134 1312.85,-719.635"/>
<text text-anchor="middle" x="1342.5" y="-729" font-family="Helvetica,sans-Serif" font-size="10.00"> +inputPath</text>
</g>
<!-- Node19 -->
<g id="node19" class="node"><title>Node19</title>
<polygon fill="white" stroke="#bfbfbf" points="1300.5,-861.5 1300.5,-929.5 1395.5,-929.5 1395.5,-861.5 1300.5,-861.5"/>
<text text-anchor="start" x="1308.5" y="-917.5" font-family="Helvetica,sans-Serif" font-size="10.00">std::basic_string&lt;</text>
<text text-anchor="middle" x="1348" y="-906.5" font-family="Helvetica,sans-Serif" font-size="10.00"> char &gt;</text>
<polyline fill="none" stroke="#bfbfbf" points="1300.5,-899.5 1395.5,-899.5 "/>
<text text-anchor="middle" x="1348" y="-887.5" font-family="Helvetica,sans-Serif" font-size="10.00"> </text>
<polyline fill="none" stroke="#bfbfbf" points="1300.5,-880.5 1395.5,-880.5 "/>
<text text-anchor="middle" x="1348" y="-868.5" font-family="Helvetica,sans-Serif" font-size="10.00"> </text>
</g>
<!-- Node19&#45;&gt;Node18 -->
<g id="edge18" class="edge"><title>Node19&#45;&gt;Node18</title>
<path fill="none" stroke="midnightblue" d="M1348,-851.247C1348,-840.054 1348,-828.304 1348,-818.154"/>
<polygon fill="none" stroke="midnightblue" points="1344.5,-851.308 1348,-861.308 1351.5,-851.308 1344.5,-851.308"/>
</g>
</g>
</svg>
