<?xml version="1.0" encoding="UTF-8" standalone="no"?>
<!DOCTYPE svg PUBLIC "-//W3C//DTD SVG 1.1//EN"
 "http://www.w3.org/Graphics/SVG/1.1/DTD/svg11.dtd">
<!-- Generated by graphviz version 2.38.0 (20140413.2041)
 -->
<!-- Title: factory.h Pages: 1 -->
<!--zoomable 756 -->
<svg id="main" version="1.1" xmlns="http://www.w3.org/2000/svg" xmlns:xlink="http://www.w3.org/1999/xlink" xml:space="preserve" onload="init(evt)">
<style type="text/css"><![CDATA[
.edge:hover path { stroke: red; }
.edge:hover polygon { stroke: red; fill: red; }
]]></style>
<script type="text/javascript"><![CDATA[
var edges = document.getElementsByTagName('g');
if (edges && edges.length) {
  for (var i=0;i<edges.length;i++) {
    if (edges[i].id.substr(0,4)=='edge') {
      edges[i].setAttribute('class','edge');
    }
  }
}
]]></script>
        <defs>
                <circle id="rim" cx="0" cy="0" r="7"/>
                <circle id="rim2" cx="0" cy="0" r="3.5"/>
                <g id="zoomPlus">
                        <use xlink:href="#rim" fill="#404040">
                                <set attributeName="fill" to="#808080" begin="zoomplus.mouseover" end="zoomplus.mouseout"/>
                        </use>
                        <path d="M-4,0h8M0,-4v8" fill="none" stroke="white" stroke-width="1.5" pointer-events="none"/>
                </g>
                <g id="zoomMin">
                        <use xlink:href="#rim" fill="#404040">
                                <set attributeName="fill" to="#808080" begin="zoomminus.mouseover" end="zoomminus.mouseout"/>
                        </use>
                        <path d="M-4,0h8" fill="none" stroke="white" stroke-width="1.5" pointer-events="none"/>
                </g>
                <g id="dirArrow">
                        <path fill="none" stroke="white" stroke-width="1.5" d="M0,-3.0v7 M-2.5,-0.5L0,-3.0L2.5,-0.5"/>
                </g>
               <g id="resetDef">
                       <use xlink:href="#rim2" fill="#404040">
                               <set attributeName="fill" to="#808080" begin="reset.mouseover" end="reset.mouseout"/>
                       </use>
               </g>
        </defs>

<script type="text/javascript">
var viewWidth = 811;
var viewHeight = 756;
var sectionId = 'dynsection-1';
</script>
<script xlink:href="../../svgpan.js"/>
<svg id="graph" class="graph">
<g id="viewport">
<title>factory.h</title>
<polygon fill="white" stroke="none" points="-4,4 -4,-752 807,-752 807,4 -4,4"/>
<!-- Node1 -->
<g id="node1" class="node"><title>Node1</title>
<polygon fill="#bfbfbf" stroke="black" points="459.5,-728.5 459.5,-747.5 514.5,-747.5 514.5,-728.5 459.5,-728.5"/>
<text text-anchor="middle" x="487" y="-735.5" font-family="Helvetica,sans-Serif" font-size="10.00">factory.h</text>
</g>
<!-- Node2 -->
<g id="node2" class="node"><title>Node2</title>
<g id="a_node2"><a xlink:href="../../dc/dc3/layers_2constructors_8h.html" target="_top" xlink:title="constructors.h">
<polygon fill="white" stroke="black" points="716.5,-616.5 716.5,-635.5 795.5,-635.5 795.5,-616.5 716.5,-616.5"/>
<text text-anchor="middle" x="756" y="-623.5" font-family="Helvetica,sans-Serif" font-size="10.00">constructors.h</text>
</a>
</g>
</g>
<!-- Node1&#45;&gt;Node2 -->
<g id="edge1" class="edge"><title>Node1&#45;&gt;Node2</title>
<path fill="none" stroke="midnightblue" d="M517.701,-724.446C572.945,-701.855 687.744,-654.911 734.99,-635.591"/>
<polygon fill="midnightblue" stroke="midnightblue" points="516.039,-721.344 508.108,-728.368 518.689,-727.823 516.039,-721.344"/>
</g>
<!-- Node26 -->
<g id="node26" class="node"><title>Node26</title>
<g id="a_node26"><a xlink:href="../../d2/d88/generic_8h.html" target="_top" xlink:title="generic.h">
<polygon fill="white" stroke="black" points="500,-672.5 500,-691.5 556,-691.5 556,-672.5 500,-672.5"/>
<text text-anchor="middle" x="528" y="-679.5" font-family="Helvetica,sans-Serif" font-size="10.00">generic.h</text>
</a>
</g>
</g>
<!-- Node1&#45;&gt;Node26 -->
<g id="edge51" class="edge"><title>Node1&#45;&gt;Node26</title>
<path fill="none" stroke="midnightblue" d="M500.017,-719.855C507.117,-710.505 515.604,-699.327 521.356,-691.751"/>
<polygon fill="midnightblue" stroke="midnightblue" points="497.03,-718.002 493.77,-728.083 502.605,-722.235 497.03,-718.002"/>
</g>
<!-- Node32 -->
<g id="node32" class="node"><title>Node32</title>
<g id="a_node32"><a xlink:href="../../d7/d3a/rnn_2constructors_8h.html" target="_top" xlink:title="constructors.h">
<polygon fill="white" stroke="black" points="291.5,-560.5 291.5,-579.5 370.5,-579.5 370.5,-560.5 291.5,-560.5"/>
<text text-anchor="middle" x="331" y="-567.5" font-family="Helvetica,sans-Serif" font-size="10.00">constructors.h</text>
</a>
</g>
</g>
<!-- Node1&#45;&gt;Node32 -->
<g id="edge67" class="edge"><title>Node1&#45;&gt;Node32</title>
<path fill="none" stroke="midnightblue" d="M464.248,-722.644C437.644,-704.935 393.614,-672.638 365,-636 350.733,-617.733 339.567,-592.586 334.304,-579.575"/>
<polygon fill="midnightblue" stroke="midnightblue" points="462.592,-725.743 472.878,-728.283 466.421,-719.883 462.592,-725.743"/>
</g>
<!-- Node3 -->
<g id="node3" class="node"><title>Node3</title>
<g id="a_node3"><a xlink:href="../../da/dad/marian_8h.html" target="_top" xlink:title="marian.h">
<polygon fill="white" stroke="black" points="530,-504.5 530,-523.5 584,-523.5 584,-504.5 530,-504.5"/>
<text text-anchor="middle" x="557" y="-511.5" font-family="Helvetica,sans-Serif" font-size="10.00">marian.h</text>
</a>
</g>
</g>
<!-- Node2&#45;&gt;Node3 -->
<g id="edge2" class="edge"><title>Node2&#45;&gt;Node3</title>
<path fill="none" stroke="midnightblue" d="M773.536,-608.878C786.572,-594.941 800.169,-574.769 788,-560 762.407,-528.941 639.41,-519.036 584.076,-516.12"/>
<polygon fill="midnightblue" stroke="midnightblue" points="770.73,-606.733 766.125,-616.275 775.675,-611.688 770.73,-606.733"/>
</g>
<!-- Node4 -->
<g id="node4" class="node"><title>Node4</title>
<g id="a_node4"><a xlink:href="../../d0/d0e/s2s__rescorer_8cpp.html" target="_top" xlink:title="s2s_rescorer.cpp">
<polygon fill="white" stroke="black" points="11,-168.5 11,-187.5 103,-187.5 103,-168.5 11,-168.5"/>
<text text-anchor="middle" x="57" y="-175.5" font-family="Helvetica,sans-Serif" font-size="10.00">s2s_rescorer.cpp</text>
</a>
</g>
</g>
<!-- Node3&#45;&gt;Node4 -->
<g id="edge3" class="edge"><title>Node3&#45;&gt;Node4</title>
<path fill="none" stroke="midnightblue" d="M519.76,-512.635C420.274,-511.179 150.405,-503.932 70,-468 31.2388,-450.678 0,-445.455 0,-403 0,-403 0,-403 0,-289 0,-247.058 33.0723,-205.188 48.8333,-187.616"/>
<polygon fill="midnightblue" stroke="midnightblue" points="519.893,-516.137 529.939,-512.773 519.987,-509.138 519.893,-516.137"/>
</g>
<!-- Node5 -->
<g id="node5" class="node"><title>Node5</title>
<g id="a_node5"><a xlink:href="../../df/df1/s2s__translator_8cpp.html" target="_top" xlink:title="s2s_translator.cpp">
<polygon fill="white" stroke="black" points="430.5,-168.5 430.5,-187.5 527.5,-187.5 527.5,-168.5 430.5,-168.5"/>
<text text-anchor="middle" x="479" y="-175.5" font-family="Helvetica,sans-Serif" font-size="10.00">s2s_translator.cpp</text>
</a>
</g>
</g>
<!-- Node3&#45;&gt;Node5 -->
<g id="edge4" class="edge"><title>Node3&#45;&gt;Node5</title>
<path fill="none" stroke="midnightblue" d="M594.148,-506.15C644.174,-494.533 727,-465.816 727,-403 727,-403 727,-403 727,-289 727,-243.607 586.408,-204.21 516.936,-187.513"/>
<polygon fill="midnightblue" stroke="midnightblue" points="593.328,-502.746 584.313,-508.312 594.832,-509.583 593.328,-502.746"/>
</g>
<!-- Node6 -->
<g id="node6" class="node"><title>Node6</title>
<g id="a_node6"><a xlink:href="../../dc/df8/iris_8cpp.html" target="_top" xlink:title="iris.cpp">
<polygon fill="white" stroke="black" points="755,-448.5 755,-467.5 803,-467.5 803,-448.5 755,-448.5"/>
<text text-anchor="middle" x="779" y="-455.5" font-family="Helvetica,sans-Serif" font-size="10.00">iris.cpp</text>
</a>
</g>
</g>
<!-- Node3&#45;&gt;Node6 -->
<g id="edge5" class="edge"><title>Node3&#45;&gt;Node6</title>
<path fill="none" stroke="midnightblue" d="M594.04,-503.99C639.768,-492.867 716.225,-474.27 754.952,-464.85"/>
<polygon fill="midnightblue" stroke="midnightblue" points="593.111,-500.614 584.222,-506.379 594.765,-507.416 593.111,-500.614"/>
</g>
<!-- Node7 -->
<g id="node7" class="node"><title>Node7</title>
<g id="a_node7"><a xlink:href="../../d6/d95/encdec_8h.html" target="_top" xlink:title="encdec.h">
<polygon fill="white" stroke="black" points="529,-448.5 529,-467.5 585,-467.5 585,-448.5 529,-448.5"/>
<text text-anchor="middle" x="557" y="-455.5" font-family="Helvetica,sans-Serif" font-size="10.00">encdec.h</text>
</a>
</g>
</g>
<!-- Node3&#45;&gt;Node7 -->
<g id="edge6" class="edge"><title>Node3&#45;&gt;Node7</title>
<path fill="none" stroke="midnightblue" d="M550.528,-494.101C549.896,-485.136 550.343,-474.858 551.869,-467.751"/>
<polygon fill="midnightblue" stroke="midnightblue" points="547.066,-494.622 551.834,-504.083 554.007,-493.713 547.066,-494.622"/>
</g>
<!-- Node9 -->
<g id="node9" class="node"><title>Node9</title>
<g id="a_node9"><a xlink:href="../../d2/dbf/amun_8h.html" target="_top" xlink:title="amun.h">
<polygon fill="white" stroke="black" points="222.5,-336.5 222.5,-355.5 271.5,-355.5 271.5,-336.5 222.5,-336.5"/>
<text text-anchor="middle" x="247" y="-343.5" font-family="Helvetica,sans-Serif" font-size="10.00">amun.h</text>
</a>
</g>
</g>
<!-- Node3&#45;&gt;Node9 -->
<g id="edge9" class="edge"><title>Node3&#45;&gt;Node9</title>
<path fill="none" stroke="midnightblue" d="M519.867,-510.045C425.355,-501.661 179.845,-474.191 133,-412 107.093,-377.606 181.576,-358.568 222.338,-350.959"/>
<polygon fill="midnightblue" stroke="midnightblue" points="519.576,-513.533 529.841,-510.908 520.18,-506.559 519.576,-513.533"/>
</g>
<!-- Node12 -->
<g id="node12" class="node"><title>Node12</title>
<g id="a_node12"><a xlink:href="../../de/d5d/rescorer_8h.html" target="_top" xlink:title="rescorer.h">
<polygon fill="white" stroke="black" points="84,-224.5 84,-243.5 144,-243.5 144,-224.5 84,-224.5"/>
<text text-anchor="middle" x="114" y="-231.5" font-family="Helvetica,sans-Serif" font-size="10.00">rescorer.h</text>
</a>
</g>
</g>
<!-- Node3&#45;&gt;Node12 -->
<g id="edge48" class="edge"><title>Node3&#45;&gt;Node12</title>
<path fill="none" stroke="midnightblue" d="M519.742,-513.048C400.809,-512.209 38,-501.572 38,-403 38,-403 38,-403 38,-345 38,-300.201 81.1965,-260.429 102.457,-243.567"/>
<polygon fill="midnightblue" stroke="midnightblue" points="519.809,-516.548 529.827,-513.099 519.845,-509.548 519.809,-516.548"/>
</g>
<!-- Node16 -->
<g id="node16" class="node"><title>Node16</title>
<g id="a_node16"><a xlink:href="../../d2/d00/scorers_8h.html" target="_top" xlink:title="scorers.h">
<polygon fill="white" stroke="black" points="442.5,-280.5 442.5,-299.5 499.5,-299.5 499.5,-280.5 442.5,-280.5"/>
<text text-anchor="middle" x="471" y="-287.5" font-family="Helvetica,sans-Serif" font-size="10.00">scorers.h</text>
</a>
</g>
</g>
<!-- Node3&#45;&gt;Node16 -->
<g id="edge50" class="edge"><title>Node3&#45;&gt;Node16</title>
<path fill="none" stroke="midnightblue" d="M582.427,-499.002C593.592,-491.403 605.599,-480.908 612,-468 627.012,-437.729 629.541,-422.003 614,-392 588.837,-343.42 528.362,-313.223 494.673,-299.575"/>
<polygon fill="midnightblue" stroke="midnightblue" points="580.362,-496.166 573.776,-504.465 584.1,-502.085 580.362,-496.166"/>
</g>
<!-- Node17 -->
<g id="node17" class="node"><title>Node17</title>
<g id="a_node17"><a xlink:href="../../d3/ddc/beam__search_8h.html" target="_top" xlink:title="beam_search.h">
<polygon fill="white" stroke="black" points="532.5,-224.5 532.5,-243.5 615.5,-243.5 615.5,-224.5 532.5,-224.5"/>
<text text-anchor="middle" x="574" y="-231.5" font-family="Helvetica,sans-Serif" font-size="10.00">beam_search.h</text>
</a>
</g>
</g>
<!-- Node3&#45;&gt;Node17 -->
<g id="edge49" class="edge"><title>Node3&#45;&gt;Node17</title>
<path fill="none" stroke="midnightblue" d="M592.901,-500.776C631.988,-484.919 689,-453.188 689,-403 689,-403 689,-403 689,-345 689,-293.473 627.965,-258.642 594.826,-243.527"/>
<polygon fill="midnightblue" stroke="midnightblue" points="591.45,-497.585 583.395,-504.467 593.984,-504.11 591.45,-497.585"/>
</g>
<!-- Node21 -->
<g id="node21" class="node"><title>Node21</title>
<g id="a_node21"><a xlink:href="../../d7/d82/hardatt_8h.html" target="_top" xlink:title="hardatt.h">
<polygon fill="white" stroke="black" points="417.5,-336.5 417.5,-355.5 472.5,-355.5 472.5,-336.5 417.5,-336.5"/>
<text text-anchor="middle" x="445" y="-343.5" font-family="Helvetica,sans-Serif" font-size="10.00">hardatt.h</text>
</a>
</g>
</g>
<!-- Node3&#45;&gt;Node21 -->
<g id="edge32" class="edge"><title>Node3&#45;&gt;Node21</title>
<path fill="none" stroke="midnightblue" d="M574.64,-497.152C582.143,-489.231 590.059,-478.997 594,-468 605.394,-436.202 614.138,-419.118 594,-392 566.049,-354.36 507.545,-347.07 472.741,-346.281"/>
<polygon fill="midnightblue" stroke="midnightblue" points="572.108,-494.734 567.438,-504.245 577.019,-499.722 572.108,-494.734"/>
</g>
<!-- Node22 -->
<g id="node22" class="node"><title>Node22</title>
<g id="a_node22"><a xlink:href="../../d5/dde/multi__s2s_8h.html" target="_top" xlink:title="multi_s2s.h">
<polygon fill="white" stroke="black" points="405.5,-392.5 405.5,-411.5 472.5,-411.5 472.5,-392.5 405.5,-392.5"/>
<text text-anchor="middle" x="439" y="-399.5" font-family="Helvetica,sans-Serif" font-size="10.00">multi_s2s.h</text>
</a>
</g>
</g>
<!-- Node3&#45;&gt;Node22 -->
<g id="edge35" class="edge"><title>Node3&#45;&gt;Node22</title>
<path fill="none" stroke="midnightblue" d="M540.385,-497.512C515.171,-474.007 468.081,-430.11 448.216,-411.591"/>
<polygon fill="midnightblue" stroke="midnightblue" points="538.039,-500.11 547.741,-504.368 542.813,-494.99 538.039,-500.11"/>
</g>
<!-- Node23 -->
<g id="node23" class="node"><title>Node23</title>
<g id="a_node23"><a xlink:href="../../da/da6/s2s_8h.html" target="_top" xlink:title="s2s.h">
<polygon fill="white" stroke="black" points="337.5,-448.5 337.5,-467.5 378.5,-467.5 378.5,-448.5 337.5,-448.5"/>
<text text-anchor="middle" x="358" y="-455.5" font-family="Helvetica,sans-Serif" font-size="10.00">s2s.h</text>
</a>
</g>
</g>
<!-- Node3&#45;&gt;Node23 -->
<g id="edge39" class="edge"><title>Node3&#45;&gt;Node23</title>
<path fill="none" stroke="midnightblue" d="M519.962,-502.949C478.244,-491.629 411.929,-473.634 378.58,-464.584"/>
<polygon fill="midnightblue" stroke="midnightblue" points="519.18,-506.364 529.747,-505.605 521.013,-499.608 519.18,-506.364"/>
</g>
<!-- Node7&#45;&gt;Node3 -->
<g id="edge7" class="edge"><title>Node7&#45;&gt;Node3</title>
<path fill="none" stroke="midnightblue" d="M563.458,-477.691C564.106,-486.635 563.676,-496.927 562.166,-504.083"/>
<polygon fill="midnightblue" stroke="midnightblue" points="566.923,-477.2 562.131,-467.751 559.985,-478.126 566.923,-477.2"/>
</g>
<!-- Node8 -->
<g id="node8" class="node"><title>Node8</title>
<g id="a_node8"><a xlink:href="../../d6/d50/pooling_8h.html" target="_top" xlink:title="pooling.h">
<polygon fill="white" stroke="black" points="529,-392.5 529,-411.5 585,-411.5 585,-392.5 529,-392.5"/>
<text text-anchor="middle" x="557" y="-399.5" font-family="Helvetica,sans-Serif" font-size="10.00">pooling.h</text>
</a>
</g>
</g>
<!-- Node7&#45;&gt;Node8 -->
<g id="edge8" class="edge"><title>Node7&#45;&gt;Node8</title>
<path fill="none" stroke="midnightblue" d="M557,-437.805C557,-428.91 557,-418.78 557,-411.751"/>
<polygon fill="midnightblue" stroke="midnightblue" points="553.5,-438.083 557,-448.083 560.5,-438.083 553.5,-438.083"/>
</g>
<!-- Node10 -->
<g id="node10" class="node"><title>Node10</title>
<g id="a_node10"><a xlink:href="../../d1/dd1/model__task_8h.html" target="_top" xlink:title="model_task.h">
<polygon fill="white" stroke="black" points="277.5,-280.5 277.5,-299.5 352.5,-299.5 352.5,-280.5 277.5,-280.5"/>
<text text-anchor="middle" x="315" y="-287.5" font-family="Helvetica,sans-Serif" font-size="10.00">model_task.h</text>
</a>
</g>
</g>
<!-- Node9&#45;&gt;Node10 -->
<g id="edge10" class="edge"><title>Node9&#45;&gt;Node10</title>
<path fill="none" stroke="midnightblue" d="M265.762,-330.101C278,-320.382 293.559,-308.027 303.876,-299.834"/>
<polygon fill="midnightblue" stroke="midnightblue" points="263.58,-327.364 257.925,-336.324 267.933,-332.846 263.58,-327.364"/>
</g>
<!-- Node9&#45;&gt;Node12 -->
<g id="edge18" class="edge"><title>Node9&#45;&gt;Node12</title>
<path fill="none" stroke="midnightblue" d="M228.641,-329.816C200.314,-306.387 146.875,-262.19 124.388,-243.591"/>
<polygon fill="midnightblue" stroke="midnightblue" points="226.627,-332.692 236.564,-336.368 231.088,-327.298 226.627,-332.692"/>
</g>
<!-- Node9&#45;&gt;Node16 -->
<g id="edge19" class="edge"><title>Node9&#45;&gt;Node16</title>
<path fill="none" stroke="midnightblue" d="M281.803,-336.61C325.912,-325.977 401.131,-307.843 442.183,-297.947"/>
<polygon fill="midnightblue" stroke="midnightblue" points="280.729,-333.269 271.828,-339.015 282.37,-340.074 280.729,-333.269"/>
</g>
<!-- Node11 -->
<g id="node11" class="node"><title>Node11</title>
<g id="a_node11"><a xlink:href="../../d2/d10/examples_2mnist_2training_8h.html" target="_top" xlink:title="training.h">
<polygon fill="white" stroke="black" points="327,-56.5 327,-75.5 383,-75.5 383,-56.5 327,-56.5"/>
<text text-anchor="middle" x="355" y="-63.5" font-family="Helvetica,sans-Serif" font-size="10.00">training.h</text>
</a>
</g>
</g>
<!-- Node10&#45;&gt;Node11 -->
<g id="edge11" class="edge"><title>Node10&#45;&gt;Node11</title>
<path fill="none" stroke="midnightblue" d="M310.732,-269.996C304.17,-236.702 294.388,-166.214 315,-112 320.721,-96.9535 334.034,-83.7254 343.734,-75.5728"/>
<polygon fill="midnightblue" stroke="midnightblue" points="307.381,-271.068 312.864,-280.133 314.231,-269.627 307.381,-271.068"/>
</g>
<!-- Node10&#45;&gt;Node12 -->
<g id="edge12" class="edge"><title>Node10&#45;&gt;Node12</title>
<path fill="none" stroke="midnightblue" d="M273.27,-277.789C234.715,-267.431 178.37,-252.293 144.059,-243.075"/>
<polygon fill="midnightblue" stroke="midnightblue" points="272.585,-281.229 283.151,-280.444 274.402,-274.469 272.585,-281.229"/>
</g>
<!-- Node13 -->
<g id="node13" class="node"><title>Node13</title>
<g id="a_node13"><a xlink:href="../../df/d43/training_2training_8h.html" target="_top" xlink:title="training.h">
<polygon fill="white" stroke="black" points="472,-56.5 472,-75.5 528,-75.5 528,-56.5 472,-56.5"/>
<text text-anchor="middle" x="500" y="-63.5" font-family="Helvetica,sans-Serif" font-size="10.00">training.h</text>
</a>
</g>
</g>
<!-- Node10&#45;&gt;Node13 -->
<g id="edge14" class="edge"><title>Node10&#45;&gt;Node13</title>
<path fill="none" stroke="midnightblue" d="M327.31,-271.899C345.758,-247.042 382.538,-200.371 421,-168 444.502,-148.22 461.149,-156.254 480,-132 493.187,-115.034 497.732,-89.3383 499.258,-75.9008"/>
<polygon fill="midnightblue" stroke="midnightblue" points="324.255,-270.147 321.171,-280.283 329.903,-274.282 324.255,-270.147"/>
</g>
<!-- Node15 -->
<g id="node15" class="node"><title>Node15</title>
<g id="a_node15"><a xlink:href="../../d9/df1/translator_8h.html" target="_top" xlink:title="translator.h">
<polygon fill="white" stroke="black" points="438.5,-224.5 438.5,-243.5 503.5,-243.5 503.5,-224.5 438.5,-224.5"/>
<text text-anchor="middle" x="471" y="-231.5" font-family="Helvetica,sans-Serif" font-size="10.00">translator.h</text>
</a>
</g>
</g>
<!-- Node10&#45;&gt;Node15 -->
<g id="edge16" class="edge"><title>Node10&#45;&gt;Node15</title>
<path fill="none" stroke="midnightblue" d="M349.17,-277.172C378.544,-267.004 420.198,-252.585 446.397,-243.516"/>
<polygon fill="midnightblue" stroke="midnightblue" points="348.024,-273.865 339.719,-280.444 350.313,-280.48 348.024,-273.865"/>
</g>
<!-- Node12&#45;&gt;Node4 -->
<g id="edge13" class="edge"><title>Node12&#45;&gt;Node4</title>
<path fill="none" stroke="midnightblue" d="M97.3785,-217.253C87.266,-207.673 74.7234,-195.791 66.3247,-187.834"/>
<polygon fill="midnightblue" stroke="midnightblue" points="95.1753,-219.987 104.842,-224.324 99.9895,-214.906 95.1753,-219.987"/>
</g>
<!-- Node14 -->
<g id="node14" class="node"><title>Node14</title>
<g id="a_node14"><a xlink:href="../../d8/d9d/graph__group_8h.html" target="_top" xlink:title="graph_group.h">
<polygon fill="white" stroke="black" points="461,-0.5 461,-19.5 539,-19.5 539,-0.5 461,-0.5"/>
<text text-anchor="middle" x="500" y="-7.5" font-family="Helvetica,sans-Serif" font-size="10.00">graph_group.h</text>
</a>
</g>
</g>
<!-- Node13&#45;&gt;Node14 -->
<g id="edge15" class="edge"><title>Node13&#45;&gt;Node14</title>
<path fill="none" stroke="midnightblue" d="M500,-45.8045C500,-36.9102 500,-26.7798 500,-19.7511"/>
<polygon fill="midnightblue" stroke="midnightblue" points="496.5,-46.083 500,-56.083 503.5,-46.083 496.5,-46.083"/>
</g>
<!-- Node15&#45;&gt;Node5 -->
<g id="edge17" class="edge"><title>Node15&#45;&gt;Node5</title>
<path fill="none" stroke="midnightblue" d="M473.8,-214.101C475.128,-205.136 476.651,-194.858 477.704,-187.751"/>
<polygon fill="midnightblue" stroke="midnightblue" points="470.324,-213.678 472.321,-224.083 477.249,-214.704 470.324,-213.678"/>
</g>
<!-- Node16&#45;&gt;Node15 -->
<g id="edge31" class="edge"><title>Node16&#45;&gt;Node15</title>
<path fill="none" stroke="midnightblue" d="M471,-269.805C471,-260.91 471,-250.78 471,-243.751"/>
<polygon fill="midnightblue" stroke="midnightblue" points="467.5,-270.083 471,-280.083 474.5,-270.083 467.5,-270.083"/>
</g>
<!-- Node16&#45;&gt;Node17 -->
<g id="edge20" class="edge"><title>Node16&#45;&gt;Node17</title>
<path fill="none" stroke="midnightblue" d="M496.579,-275.59C515.623,-265.605 541.064,-252.267 557.492,-243.655"/>
<polygon fill="midnightblue" stroke="midnightblue" points="494.78,-272.581 487.549,-280.324 498.031,-278.78 494.78,-272.581"/>
</g>
<!-- Node17&#45;&gt;Node5 -->
<g id="edge21" class="edge"><title>Node17&#45;&gt;Node5</title>
<path fill="none" stroke="midnightblue" d="M549.682,-219.177C532.201,-209.241 509.17,-196.149 494.226,-187.655"/>
<polygon fill="midnightblue" stroke="midnightblue" points="548.313,-222.425 558.737,-224.324 551.773,-216.339 548.313,-222.425"/>
</g>
<!-- Node18 -->
<g id="node18" class="node"><title>Node18</title>
<g id="a_node18"><a xlink:href="../../d7/d7d/training_2validator_8h.html" target="_top" xlink:title="validator.h">
<polygon fill="white" stroke="black" points="545,-168.5 545,-187.5 607,-187.5 607,-168.5 545,-168.5"/>
<text text-anchor="middle" x="576" y="-175.5" font-family="Helvetica,sans-Serif" font-size="10.00">validator.h</text>
</a>
</g>
</g>
<!-- Node17&#45;&gt;Node18 -->
<g id="edge22" class="edge"><title>Node17&#45;&gt;Node18</title>
<path fill="none" stroke="midnightblue" d="M574.711,-213.805C575.04,-204.91 575.416,-194.78 575.676,-187.751"/>
<polygon fill="midnightblue" stroke="midnightblue" points="571.203,-213.96 574.33,-224.083 578.198,-214.219 571.203,-213.96"/>
</g>
<!-- Node18&#45;&gt;Node13 -->
<g id="edge30" class="edge"><title>Node18&#45;&gt;Node13</title>
<path fill="none" stroke="midnightblue" d="M564.225,-159.957C547.755,-136.118 518.453,-93.7088 505.936,-75.5914"/>
<polygon fill="midnightblue" stroke="midnightblue" points="561.472,-162.131 570.036,-168.368 567.232,-158.152 561.472,-162.131"/>
</g>
<!-- Node18&#45;&gt;Node14 -->
<g id="edge25" class="edge"><title>Node18&#45;&gt;Node14</title>
<path fill="none" stroke="midnightblue" d="M572.262,-158.245C566.862,-133.683 555.451,-89.7772 537,-56 529.339,-41.9756 517.04,-28.1211 508.747,-19.569"/>
<polygon fill="midnightblue" stroke="midnightblue" points="568.901,-159.274 574.379,-168.343 575.752,-157.837 568.901,-159.274"/>
</g>
<!-- Node19 -->
<g id="node19" class="node"><title>Node19</title>
<g id="a_node19"><a xlink:href="../../da/d8c/examples_2mnist_2validator_8h.html" target="_top" xlink:title="validator.h">
<polygon fill="white" stroke="black" points="324,-112.5 324,-131.5 386,-131.5 386,-112.5 324,-112.5"/>
<text text-anchor="middle" x="355" y="-119.5" font-family="Helvetica,sans-Serif" font-size="10.00">validator.h</text>
</a>
</g>
</g>
<!-- Node18&#45;&gt;Node19 -->
<g id="edge23" class="edge"><title>Node18&#45;&gt;Node19</title>
<path fill="none" stroke="midnightblue" d="M534.916,-166.961C491.79,-156.424 424.954,-140.093 386.036,-130.584"/>
<polygon fill="midnightblue" stroke="midnightblue" points="534.26,-170.404 544.805,-169.378 535.921,-163.604 534.26,-170.404"/>
</g>
<!-- Node20 -->
<g id="node20" class="node"><title>Node20</title>
<g id="a_node20"><a xlink:href="../../d2/dd8/scheduler_8h.html" target="_top" xlink:title="scheduler.h">
<polygon fill="white" stroke="black" points="404.5,-112.5 404.5,-131.5 471.5,-131.5 471.5,-112.5 404.5,-112.5"/>
<text text-anchor="middle" x="438" y="-119.5" font-family="Helvetica,sans-Serif" font-size="10.00">scheduler.h</text>
</a>
</g>
</g>
<!-- Node18&#45;&gt;Node20 -->
<g id="edge26" class="edge"><title>Node18&#45;&gt;Node20</title>
<path fill="none" stroke="midnightblue" d="M544.751,-164.772C518.829,-154.629 482.638,-140.467 459.764,-131.516"/>
<polygon fill="midnightblue" stroke="midnightblue" points="543.546,-168.059 554.133,-168.444 546.096,-161.54 543.546,-168.059"/>
</g>
<!-- Node19&#45;&gt;Node11 -->
<g id="edge24" class="edge"><title>Node19&#45;&gt;Node11</title>
<path fill="none" stroke="midnightblue" d="M355,-101.805C355,-92.9102 355,-82.7798 355,-75.7511"/>
<polygon fill="midnightblue" stroke="midnightblue" points="351.5,-102.083 355,-112.083 358.5,-102.083 351.5,-102.083"/>
</g>
<!-- Node20&#45;&gt;Node11 -->
<g id="edge27" class="edge"><title>Node20&#45;&gt;Node11</title>
<path fill="none" stroke="midnightblue" d="M415.901,-106.622C400.738,-96.7574 381.117,-83.9919 368.302,-75.6545"/>
<polygon fill="midnightblue" stroke="midnightblue" points="414.374,-109.804 424.665,-112.324 418.191,-103.937 414.374,-109.804"/>
</g>
<!-- Node20&#45;&gt;Node13 -->
<g id="edge29" class="edge"><title>Node20&#45;&gt;Node13</title>
<path fill="none" stroke="midnightblue" d="M455.754,-105.537C466.808,-95.9087 480.631,-83.8694 489.857,-75.8339"/>
<polygon fill="midnightblue" stroke="midnightblue" points="453.203,-103.117 447.961,-112.324 457.801,-108.395 453.203,-103.117"/>
</g>
<!-- Node20&#45;&gt;Node14 -->
<g id="edge28" class="edge"><title>Node20&#45;&gt;Node14</title>
<path fill="none" stroke="midnightblue" d="M443.44,-102.244C447.74,-88.8546 454.439,-70.6899 463,-56 471.046,-42.193 483.255,-28.2876 491.422,-19.6646"/>
<polygon fill="midnightblue" stroke="midnightblue" points="439.977,-101.601 440.405,-112.187 446.672,-103.645 439.977,-101.601"/>
</g>
<!-- Node21&#45;&gt;Node10 -->
<g id="edge33" class="edge"><title>Node21&#45;&gt;Node10</title>
<path fill="none" stroke="midnightblue" d="M414.915,-332.503C390.543,-322.38 356.86,-308.388 335.503,-299.516"/>
<polygon fill="midnightblue" stroke="midnightblue" points="413.823,-335.84 424.401,-336.444 416.509,-329.375 413.823,-335.84"/>
</g>
<!-- Node21&#45;&gt;Node16 -->
<g id="edge34" class="edge"><title>Node21&#45;&gt;Node16</title>
<path fill="none" stroke="midnightblue" d="M453.675,-326.983C458.088,-317.817 463.252,-307.092 466.787,-299.751"/>
<polygon fill="midnightblue" stroke="midnightblue" points="450.478,-325.555 449.293,-336.083 456.785,-328.591 450.478,-325.555"/>
</g>
<!-- Node22&#45;&gt;Node10 -->
<g id="edge37" class="edge"><title>Node22&#45;&gt;Node10</title>
<path fill="none" stroke="midnightblue" d="M421.54,-385.512C395.044,-362.007 345.56,-318.11 324.685,-299.591"/>
<polygon fill="midnightblue" stroke="midnightblue" points="419.466,-388.351 429.27,-392.368 424.112,-383.114 419.466,-388.351"/>
</g>
<!-- Node22&#45;&gt;Node16 -->
<g id="edge38" class="edge"><title>Node22&#45;&gt;Node16</title>
<path fill="none" stroke="midnightblue" d="M422.446,-384.68C411.124,-371.453 399.567,-352.387 408,-336 416.795,-318.909 435.422,-306.871 450.153,-299.573"/>
<polygon fill="midnightblue" stroke="midnightblue" points="419.928,-387.113 429.284,-392.085 425.071,-382.364 419.928,-387.113"/>
</g>
<!-- Node22&#45;&gt;Node21 -->
<g id="edge36" class="edge"><title>Node22&#45;&gt;Node21</title>
<path fill="none" stroke="midnightblue" d="M441.1,-382.101C442.096,-373.136 443.238,-362.858 444.028,-355.751"/>
<polygon fill="midnightblue" stroke="midnightblue" points="437.617,-381.758 439.991,-392.083 444.574,-382.531 437.617,-381.758"/>
</g>
<!-- Node23&#45;&gt;Node8 -->
<g id="edge41" class="edge"><title>Node23&#45;&gt;Node8</title>
<path fill="none" stroke="midnightblue" d="M388.589,-448.699C426.87,-438.312 491.891,-420.668 528.945,-410.613"/>
<polygon fill="midnightblue" stroke="midnightblue" points="387.281,-445.428 378.547,-451.424 389.115,-452.183 387.281,-445.428"/>
</g>
<!-- Node23&#45;&gt;Node9 -->
<g id="edge40" class="edge"><title>Node23&#45;&gt;Node9</title>
<path fill="none" stroke="midnightblue" d="M330.195,-443.666C315.834,-435.838 298.708,-424.941 286,-412 269.218,-394.911 256.586,-369.267 250.686,-355.87"/>
<polygon fill="midnightblue" stroke="midnightblue" points="328.675,-446.822 339.158,-448.358 331.921,-440.62 328.675,-446.822"/>
</g>
<!-- Node23&#45;&gt;Node10 -->
<g id="edge44" class="edge"><title>Node23&#45;&gt;Node10</title>
<path fill="none" stroke="midnightblue" d="M339.59,-441.26C331.722,-433.363 323.358,-423.117 319,-412 303.506,-372.471 309.973,-319.987 313.391,-299.604"/>
<polygon fill="midnightblue" stroke="midnightblue" points="337.436,-444.038 347.127,-448.321 342.222,-438.93 337.436,-444.038"/>
</g>
<!-- Node23&#45;&gt;Node12 -->
<g id="edge46" class="edge"><title>Node23&#45;&gt;Node12</title>
<path fill="none" stroke="midnightblue" d="M327.03,-455.218C271.571,-451.343 158.691,-440.126 133,-412 88.3956,-363.167 105.087,-272.29 111.765,-243.786"/>
<polygon fill="midnightblue" stroke="midnightblue" points="327.104,-458.73 337.313,-455.898 327.566,-451.746 327.104,-458.73"/>
</g>
<!-- Node23&#45;&gt;Node16 -->
<g id="edge47" class="edge"><title>Node23&#45;&gt;Node16</title>
<path fill="none" stroke="midnightblue" d="M388.932,-455.246C418.106,-451.755 460.349,-441.546 481,-412 505.635,-376.756 484.658,-320.846 475.119,-299.587"/>
<polygon fill="midnightblue" stroke="midnightblue" points="388.444,-451.778 378.84,-456.252 389.138,-458.743 388.444,-451.778"/>
</g>
<!-- Node23&#45;&gt;Node22 -->
<g id="edge45" class="edge"><title>Node23&#45;&gt;Node22</title>
<path fill="none" stroke="midnightblue" d="M379.567,-442.622C394.364,-432.757 413.512,-419.992 426.018,-411.655"/>
<polygon fill="midnightblue" stroke="midnightblue" points="377.393,-439.865 371.014,-448.324 381.276,-445.689 377.393,-439.865"/>
</g>
<!-- Node24 -->
<g id="node24" class="node"><title>Node24</title>
<g id="a_node24"><a xlink:href="../../d8/d64/s2s__rec_8h.html" target="_top" xlink:title="s2s_rec.h">
<polygon fill="white" stroke="black" points="328.5,-392.5 328.5,-411.5 387.5,-411.5 387.5,-392.5 328.5,-392.5"/>
<text text-anchor="middle" x="358" y="-399.5" font-family="Helvetica,sans-Serif" font-size="10.00">s2s_rec.h</text>
</a>
</g>
</g>
<!-- Node23&#45;&gt;Node24 -->
<g id="edge42" class="edge"><title>Node23&#45;&gt;Node24</title>
<path fill="none" stroke="midnightblue" d="M358,-437.805C358,-428.91 358,-418.78 358,-411.751"/>
<polygon fill="midnightblue" stroke="midnightblue" points="354.5,-438.083 358,-448.083 361.5,-438.083 354.5,-438.083"/>
</g>
<!-- Node25 -->
<g id="node25" class="node"><title>Node25</title>
<g id="a_node25"><a xlink:href="../../d0/d19/s2s__symmetric_8h.html" target="_top" xlink:title="s2s_symmetric.h">
<polygon fill="white" stroke="black" points="142,-392.5 142,-411.5 234,-411.5 234,-392.5 142,-392.5"/>
<text text-anchor="middle" x="188" y="-399.5" font-family="Helvetica,sans-Serif" font-size="10.00">s2s_symmetric.h</text>
</a>
</g>
</g>
<!-- Node23&#45;&gt;Node25 -->
<g id="edge43" class="edge"><title>Node23&#45;&gt;Node25</title>
<path fill="none" stroke="midnightblue" d="M327.788,-447.403C295.793,-437.24 245.751,-421.345 215.023,-411.584"/>
<polygon fill="midnightblue" stroke="midnightblue" points="326.904,-450.795 337.494,-450.486 329.023,-444.123 326.904,-450.795"/>
</g>
<!-- Node26&#45;&gt;Node2 -->
<g id="edge52" class="edge"><title>Node26&#45;&gt;Node2</title>
<path fill="none" stroke="midnightblue" d="M566.198,-671.953C609.086,-661.795 678.149,-645.438 720.082,-635.507"/>
<polygon fill="midnightblue" stroke="midnightblue" points="565.34,-668.56 556.415,-674.27 566.953,-675.371 565.34,-668.56"/>
</g>
<!-- Node26&#45;&gt;Node3 -->
<g id="edge58" class="edge"><title>Node26&#45;&gt;Node3</title>
<path fill="none" stroke="midnightblue" d="M532.38,-662.526C534.233,-654.413 536.341,-644.758 538,-636 545.955,-594.005 553.131,-543.363 555.847,-523.54"/>
<polygon fill="midnightblue" stroke="midnightblue" points="528.939,-661.873 530.079,-672.406 535.756,-663.461 528.939,-661.873"/>
</g>
<!-- Node27 -->
<g id="node27" class="node"><title>Node27</title>
<g id="a_node27"><a xlink:href="../../df/d9b/convolution_8h.html" target="_top" xlink:title="convolution.h">
<polygon fill="white" stroke="black" points="586,-616.5 586,-635.5 660,-635.5 660,-616.5 586,-616.5"/>
<text text-anchor="middle" x="623" y="-623.5" font-family="Helvetica,sans-Serif" font-size="10.00">convolution.h</text>
</a>
</g>
</g>
<!-- Node26&#45;&gt;Node27 -->
<g id="edge53" class="edge"><title>Node26&#45;&gt;Node27</title>
<path fill="none" stroke="midnightblue" d="M552.318,-667.177C569.799,-657.241 592.83,-644.149 607.774,-635.655"/>
<polygon fill="midnightblue" stroke="midnightblue" points="550.227,-664.339 543.263,-672.324 553.687,-670.425 550.227,-664.339"/>
</g>
<!-- Node29 -->
<g id="node29" class="node"><title>Node29</title>
<g id="a_node29"><a xlink:href="../../de/d67/guided__alignment_8h.html" target="_top" xlink:title="guided_alignment.h">
<polygon fill="white" stroke="black" points="678.5,-560.5 678.5,-579.5 779.5,-579.5 779.5,-560.5 678.5,-560.5"/>
<text text-anchor="middle" x="729" y="-567.5" font-family="Helvetica,sans-Serif" font-size="10.00">guided_alignment.h</text>
</a>
</g>
</g>
<!-- Node26&#45;&gt;Node29 -->
<g id="edge55" class="edge"><title>Node26&#45;&gt;Node29</title>
<path fill="none" stroke="midnightblue" d="M566.044,-674.412C595.801,-667.998 637.303,-656.19 669,-636 692.834,-620.819 713.402,-593.882 723.087,-579.93"/>
<polygon fill="midnightblue" stroke="midnightblue" points="565.138,-671.025 556.044,-676.461 566.543,-677.883 565.138,-671.025"/>
</g>
<!-- Node30 -->
<g id="node30" class="node"><title>Node30</title>
<g id="a_node30"><a xlink:href="../../de/d6a/highway_8h.html" target="_top" xlink:title="highway.h">
<polygon fill="white" stroke="black" points="468.5,-616.5 468.5,-635.5 529.5,-635.5 529.5,-616.5 468.5,-616.5"/>
<text text-anchor="middle" x="499" y="-623.5" font-family="Helvetica,sans-Serif" font-size="10.00">highway.h</text>
</a>
</g>
</g>
<!-- Node26&#45;&gt;Node30 -->
<g id="edge57" class="edge"><title>Node26&#45;&gt;Node30</title>
<path fill="none" stroke="midnightblue" d="M518.324,-662.983C513.402,-653.817 507.642,-643.092 503.7,-635.751"/>
<polygon fill="midnightblue" stroke="midnightblue" points="515.396,-664.929 523.211,-672.083 521.563,-661.617 515.396,-664.929"/>
</g>
<!-- Node31 -->
<g id="node31" class="node"><title>Node31</title>
<g id="a_node31"><a xlink:href="../../de/d60/rnn_8h.html" target="_top" xlink:title="rnn.h">
<polygon fill="white" stroke="black" points="374,-616.5 374,-635.5 412,-635.5 412,-616.5 374,-616.5"/>
<text text-anchor="middle" x="393" y="-623.5" font-family="Helvetica,sans-Serif" font-size="10.00">rnn.h</text>
</a>
</g>
</g>
<!-- Node26&#45;&gt;Node31 -->
<g id="edge59" class="edge"><title>Node26&#45;&gt;Node31</title>
<path fill="none" stroke="midnightblue" d="M497.144,-668.657C470.962,-658.185 434.227,-643.491 412.108,-634.643"/>
<polygon fill="midnightblue" stroke="midnightblue" points="496.024,-671.979 506.609,-672.444 498.624,-665.48 496.024,-671.979"/>
</g>
<!-- Node33 -->
<g id="node33" class="node"><title>Node33</title>
<g id="a_node33"><a xlink:href="../../d9/de1/cells_8h.html" target="_top" xlink:title="cells.h">
<polygon fill="white" stroke="black" points="427.5,-560.5 427.5,-579.5 472.5,-579.5 472.5,-560.5 427.5,-560.5"/>
<text text-anchor="middle" x="450" y="-567.5" font-family="Helvetica,sans-Serif" font-size="10.00">cells.h</text>
</a>
</g>
</g>
<!-- Node26&#45;&gt;Node33 -->
<g id="edge66" class="edge"><title>Node26&#45;&gt;Node33</title>
<path fill="none" stroke="midnightblue" d="M496.413,-667.796C482.725,-660.449 467.838,-649.934 459,-636 447.894,-618.491 448.031,-593.024 449.037,-579.765"/>
<polygon fill="midnightblue" stroke="midnightblue" points="495.097,-671.051 505.609,-672.379 498.22,-664.786 495.097,-671.051"/>
</g>
<!-- Node28 -->
<g id="node28" class="node"><title>Node28</title>
<g id="a_node28"><a xlink:href="../../df/d25/lenet__mnist_8h.html" target="_top" xlink:title="lenet_mnist.h">
<polygon fill="white" stroke="black" points="585.5,-560.5 585.5,-579.5 660.5,-579.5 660.5,-560.5 585.5,-560.5"/>
<text text-anchor="middle" x="623" y="-567.5" font-family="Helvetica,sans-Serif" font-size="10.00">lenet_mnist.h</text>
</a>
</g>
</g>
<!-- Node27&#45;&gt;Node28 -->
<g id="edge54" class="edge"><title>Node27&#45;&gt;Node28</title>
<path fill="none" stroke="midnightblue" d="M623,-605.805C623,-596.91 623,-586.78 623,-579.751"/>
<polygon fill="midnightblue" stroke="midnightblue" points="619.5,-606.083 623,-616.083 626.5,-606.083 619.5,-606.083"/>
</g>
<!-- Node29&#45;&gt;Node3 -->
<g id="edge56" class="edge"><title>Node29&#45;&gt;Node3</title>
<path fill="none" stroke="midnightblue" d="M692.168,-557.436C659.738,-547.255 613.263,-532.664 584.126,-523.516"/>
<polygon fill="midnightblue" stroke="midnightblue" points="691.157,-560.787 701.746,-560.444 693.254,-554.109 691.157,-560.787"/>
</g>
<!-- Node31&#45;&gt;Node1 -->
<g id="edge60" class="edge"><title>Node31&#45;&gt;Node1</title>
<path fill="none" stroke="midnightblue" d="M406.982,-643.362C427.224,-667.049 463.974,-710.055 479.624,-728.368"/>
<polygon fill="midnightblue" stroke="midnightblue" points="409.499,-640.92 400.342,-635.591 404.177,-645.468 409.499,-640.92"/>
</g>
<!-- Node31&#45;&gt;Node3 -->
<g id="edge61" class="edge"><title>Node31&#45;&gt;Node3</title>
<path fill="none" stroke="midnightblue" d="M395.743,-606.22C398.802,-591.741 405.13,-572.192 418,-560 448.936,-530.694 499.131,-520.472 529.984,-516.908"/>
<polygon fill="midnightblue" stroke="midnightblue" points="392.292,-605.64 393.988,-616.098 399.184,-606.865 392.292,-605.64"/>
</g>
<!-- Node31&#45;&gt;Node32 -->
<g id="edge62" class="edge"><title>Node31&#45;&gt;Node32</title>
<path fill="none" stroke="midnightblue" d="M375.246,-609.537C364.192,-599.909 350.369,-587.869 341.143,-579.834"/>
<polygon fill="midnightblue" stroke="midnightblue" points="373.199,-612.395 383.039,-616.324 377.797,-607.117 373.199,-612.395"/>
</g>
<!-- Node31&#45;&gt;Node33 -->
<g id="edge64" class="edge"><title>Node31&#45;&gt;Node33</title>
<path fill="none" stroke="midnightblue" d="M404.208,-608.431C413.304,-598.967 425.81,-587.483 435.632,-579.751"/>
<polygon fill="midnightblue" stroke="midnightblue" points="401.387,-606.331 397.246,-616.083 406.565,-611.042 401.387,-606.331"/>
</g>
<!-- Node32&#45;&gt;Node3 -->
<g id="edge63" class="edge"><title>Node32&#45;&gt;Node3</title>
<path fill="none" stroke="midnightblue" d="M376.814,-558.053C422.766,-547.074 491.995,-530.532 529.869,-521.483"/>
<polygon fill="midnightblue" stroke="midnightblue" points="375.723,-554.715 366.81,-560.444 377.35,-561.524 375.723,-554.715"/>
</g>
<!-- Node33&#45;&gt;Node31 -->
<g id="edge65" class="edge"><title>Node33&#45;&gt;Node31</title>
<path fill="none" stroke="midnightblue" d="M438.847,-587.511C429.717,-597.017 417.129,-608.576 407.273,-616.324"/>
<polygon fill="midnightblue" stroke="midnightblue" points="441.689,-589.588 445.824,-579.834 436.508,-584.88 441.689,-589.588"/>
</g>
</g>
</svg>
        <g id="navigator" transform="translate(0 0)" fill="#404254">
                <rect fill="#f2f5e9" fill-opacity="0.5" stroke="#606060" stroke-width=".5" x="0" y="0" width="60" height="60"/>
                <use id="zoomplus" xlink:href="#zoomPlus" x="17" y="9" onmousedown="handleZoom(evt,'in')"/>
                <use id="zoomminus" xlink:href="#zoomMin" x="42" y="9" onmousedown="handleZoom(evt,'out')"/>
                <use id="reset" xlink:href="#resetDef" x="30" y="36" onmousedown="handleReset()"/>
                <g id="arrowUp" xlink:href="#dirArrow" transform="translate(30 24)" onmousedown="handlePan(0,-1)">
                  <use xlink:href="#rim" fill="#404040">
                        <set attributeName="fill" to="#808080" begin="arrowUp.mouseover" end="arrowUp.mouseout"/>
                  </use>
                  <path fill="none" stroke="white" stroke-width="1.5" d="M0,-3.0v7 M-2.5,-0.5L0,-3.0L2.5,-0.5"/>
                </g>
                <g id="arrowRight" xlink:href="#dirArrow" transform="rotate(90) translate(36 -43)" onmousedown="handlePan(1,0)">
                  <use xlink:href="#rim" fill="#404040">
                        <set attributeName="fill" to="#808080" begin="arrowRight.mouseover" end="arrowRight.mouseout"/>
                  </use>
                  <path fill="none" stroke="white" stroke-width="1.5" d="M0,-3.0v7 M-2.5,-0.5L0,-3.0L2.5,-0.5"/>
                </g>
                <g id="arrowDown" xlink:href="#dirArrow" transform="rotate(180) translate(-30 -48)" onmousedown="handlePan(0,1)">
                  <use xlink:href="#rim" fill="#404040">
                        <set attributeName="fill" to="#808080" begin="arrowDown.mouseover" end="arrowDown.mouseout"/>
                  </use>
                  <path fill="none" stroke="white" stroke-width="1.5" d="M0,-3.0v7 M-2.5,-0.5L0,-3.0L2.5,-0.5"/>
                </g>
                <g id="arrowLeft" xlink:href="#dirArrow" transform="rotate(270) translate(-36 17)" onmousedown="handlePan(-1,0)">
                  <use xlink:href="#rim" fill="#404040">
                        <set attributeName="fill" to="#808080" begin="arrowLeft.mouseover" end="arrowLeft.mouseout"/>
                  </use>
                  <path fill="none" stroke="white" stroke-width="1.5" d="M0,-3.0v7 M-2.5,-0.5L0,-3.0L2.5,-0.5"/>
                </g>
        </g>
        <svg viewBox="0 0 15 15" width="100%" height="30px" preserveAspectRatio="xMaxYMin meet">
         <g id="arrow_out" transform="scale(0.3 0.3)">
          <a xlink:href="factory_8h__dep__incl_org.svg" target="_base">
           <rect id="button" ry="5" rx="5" y="6" x="6" height="38" width="38"
                fill="#f2f5e9" fill-opacity="0.5" stroke="#606060" stroke-width="1.0"/>
           <path id="arrow"
             d="M 11.500037,31.436501 C 11.940474,20.09759 22.043105,11.32322 32.158766,21.979434 L 37.068811,17.246167 C 37.068811,17.246167 37.088388,32 37.088388,32 L 22.160133,31.978069 C 22.160133,31.978069 26.997745,27.140456 26.997745,27.140456 C 18.528582,18.264221 13.291696,25.230495 11.500037,31.436501 z"
             style="fill:#404040;"/>
          </a>
         </g>
        </svg>
</svg>
