<?xml version="1.0" encoding="UTF-8" standalone="no"?>
<!DOCTYPE svg PUBLIC "-//W3C//DTD SVG 1.1//EN"
 "http://www.w3.org/Graphics/SVG/1.1/DTD/svg11.dtd">
<!-- Generated by graphviz version 2.38.0 (20140413.2041)
 -->
<!-- Title: marian::ScriptValidator&lt; Builder &gt; Pages: 1 -->
<svg width="131pt" height="464pt"
 viewBox="0.00 0.00 131.00 464.00" xmlns="http://www.w3.org/2000/svg" xmlns:xlink="http://www.w3.org/1999/xlink">
<g id="graph0" class="graph" transform="scale(1 1) rotate(0) translate(4 460)">
<title>marian::ScriptValidator&lt; Builder &gt;</title>
<polygon fill="white" stroke="none" points="-4,4 -4,-460 127,-460 127,4 -4,4"/>
<!-- Node1 -->
<g id="node1" class="node"><title>Node1</title>
<polygon fill="#bfbfbf" stroke="black" points="3.5,-0.5 3.5,-134.5 119.5,-134.5 119.5,-0.5 3.5,-0.5"/>
<text text-anchor="start" x="11.5" y="-122.5" font-family="Helvetica,sans-Serif" font-size="10.00">marian::ScriptValidator</text>
<text text-anchor="middle" x="61.5" y="-111.5" font-family="Helvetica,sans-Serif" font-size="10.00">&lt; Builder &gt;</text>
<polyline fill="none" stroke="black" points="3.5,-104.5 119.5,-104.5 "/>
<text text-anchor="start" x="11.5" y="-92.5" font-family="Helvetica,sans-Serif" font-size="10.00">&#45; builder_</text>
<polyline fill="none" stroke="black" points="3.5,-85.5 119.5,-85.5 "/>
<text text-anchor="start" x="11.5" y="-73.5" font-family="Helvetica,sans-Serif" font-size="10.00">+ ScriptValidator()</text>
<text text-anchor="start" x="11.5" y="-62.5" font-family="Helvetica,sans-Serif" font-size="10.00">+ exec()</text>
<text text-anchor="start" x="11.5" y="-51.5" font-family="Helvetica,sans-Serif" font-size="10.00">+ lowerIsBetter()</text>
<text text-anchor="start" x="11.5" y="-40.5" font-family="Helvetica,sans-Serif" font-size="10.00">+ validate()</text>
<text text-anchor="start" x="11.5" y="-29.5" font-family="Helvetica,sans-Serif" font-size="10.00">+ validateBG()</text>
<text text-anchor="start" x="11.5" y="-18.5" font-family="Helvetica,sans-Serif" font-size="10.00">+ keepBest()</text>
<text text-anchor="start" x="11.5" y="-7.5" font-family="Helvetica,sans-Serif" font-size="10.00">+ type()</text>
</g>
<!-- Node2 -->
<g id="node2" class="node"><title>Node2</title>
<g id="a_node2"><a xlink:href="../../de/da1/classmarian_1_1Validator.html" target="_top" xlink:title="{marian::Validator\&lt;\l data::Corpus \&gt;\n|# options_\l# lastBest_\l# stalled_\l|+ Validator()\l+ type()\l+ keepBest()\l+ lowerIsBetter()\l+ initLastBest()\l+ stalled()\l+ validate()\l# validateBG()\l}">
<polygon fill="white" stroke="black" points="13.5,-172.5 13.5,-339.5 109.5,-339.5 109.5,-172.5 13.5,-172.5"/>
<text text-anchor="start" x="21.5" y="-327.5" font-family="Helvetica,sans-Serif" font-size="10.00">marian::Validator&lt;</text>
<text text-anchor="middle" x="61.5" y="-316.5" font-family="Helvetica,sans-Serif" font-size="10.00"> data::Corpus &gt;</text>
<polyline fill="none" stroke="black" points="13.5,-309.5 109.5,-309.5 "/>
<text text-anchor="start" x="21.5" y="-297.5" font-family="Helvetica,sans-Serif" font-size="10.00"># options_</text>
<text text-anchor="start" x="21.5" y="-286.5" font-family="Helvetica,sans-Serif" font-size="10.00"># lastBest_</text>
<text text-anchor="start" x="21.5" y="-275.5" font-family="Helvetica,sans-Serif" font-size="10.00"># stalled_</text>
<polyline fill="none" stroke="black" points="13.5,-268.5 109.5,-268.5 "/>
<text text-anchor="start" x="21.5" y="-256.5" font-family="Helvetica,sans-Serif" font-size="10.00">+ Validator()</text>
<text text-anchor="start" x="21.5" y="-245.5" font-family="Helvetica,sans-Serif" font-size="10.00">+ type()</text>
<text text-anchor="start" x="21.5" y="-234.5" font-family="Helvetica,sans-Serif" font-size="10.00">+ keepBest()</text>
<text text-anchor="start" x="21.5" y="-223.5" font-family="Helvetica,sans-Serif" font-size="10.00">+ lowerIsBetter()</text>
<text text-anchor="start" x="21.5" y="-212.5" font-family="Helvetica,sans-Serif" font-size="10.00">+ initLastBest()</text>
<text text-anchor="start" x="21.5" y="-201.5" font-family="Helvetica,sans-Serif" font-size="10.00">+ stalled()</text>
<text text-anchor="start" x="21.5" y="-190.5" font-family="Helvetica,sans-Serif" font-size="10.00">+ validate()</text>
<text text-anchor="start" x="21.5" y="-179.5" font-family="Helvetica,sans-Serif" font-size="10.00"># validateBG()</text>
</a>
</g>
</g>
<!-- Node2&#45;&gt;Node1 -->
<g id="edge1" class="edge"><title>Node2&#45;&gt;Node1</title>
<path fill="none" stroke="midnightblue" d="M61.5,-162.252C61.5,-152.896 61.5,-143.534 61.5,-134.541"/>
<polygon fill="none" stroke="midnightblue" points="58.0001,-162.384 61.5,-172.384 65.0001,-162.384 58.0001,-162.384"/>
</g>
<!-- Node3 -->
<g id="node3" class="node"><title>Node3</title>
<polygon fill="white" stroke="#bfbfbf" points="0,-387.5 0,-455.5 123,-455.5 123,-387.5 0,-387.5"/>
<text text-anchor="start" x="8" y="-443.5" font-family="Helvetica,sans-Serif" font-size="10.00">std::vector&lt; Ptr&lt; marian</text>
<text text-anchor="middle" x="61.5" y="-432.5" font-family="Helvetica,sans-Serif" font-size="10.00">::Vocab &gt; &gt;</text>
<polyline fill="none" stroke="#bfbfbf" points="0,-425.5 123,-425.5 "/>
<text text-anchor="middle" x="61.5" y="-413.5" font-family="Helvetica,sans-Serif" font-size="10.00"> </text>
<polyline fill="none" stroke="#bfbfbf" points="0,-406.5 123,-406.5 "/>
<text text-anchor="middle" x="61.5" y="-394.5" font-family="Helvetica,sans-Serif" font-size="10.00"> </text>
</g>
<!-- Node3&#45;&gt;Node2 -->
<g id="edge2" class="edge"><title>Node3&#45;&gt;Node2</title>
<path fill="none" stroke="#404040" d="M61.5,-387.413C61.5,-376.877 61.5,-364.646 61.5,-351.979"/>
<polygon fill="none" stroke="#404040" points="61.5001,-351.742 57.5,-345.742 61.5,-339.742 65.5,-345.742 61.5001,-351.742"/>
<text text-anchor="middle" x="84.5" y="-361" font-family="Helvetica,sans-Serif" font-size="10.00"> #vocabs_</text>
</g>
</g>
</svg>
