<?xml version="1.0" encoding="UTF-8" standalone="no"?>
<!DOCTYPE svg PUBLIC "-//W3C//DTD SVG 1.1//EN"
 "http://www.w3.org/Graphics/SVG/1.1/DTD/svg11.dtd">
<!-- Generated by graphviz version 2.38.0 (20140413.2041)
 -->
<!-- Title: amunmt::GPU::mblas::TMatrix::dim Pages: 1 -->
<svg width="496pt" height="350pt"
 viewBox="0.00 0.00 496.00 350.00" xmlns="http://www.w3.org/2000/svg" xmlns:xlink="http://www.w3.org/1999/xlink">
<g id="graph0" class="graph" transform="scale(1 1) rotate(0) translate(4 346)">
<title>amunmt::GPU::mblas::TMatrix::dim</title>
<polygon fill="white" stroke="none" points="-4,4 -4,-346 492,-346 492,4 -4,4"/>
<!-- Node1 -->
<g id="node1" class="node"><title>Node1</title>
<polygon fill="#bfbfbf" stroke="black" points="0,-168.5 0,-198.5 112,-198.5 112,-168.5 0,-168.5"/>
<text text-anchor="start" x="8" y="-186.5" font-family="Helvetica,sans-Serif" font-size="10.00">amunmt::GPU::mblas</text>
<text text-anchor="middle" x="56" y="-175.5" font-family="Helvetica,sans-Serif" font-size="10.00">::TMatrix::dim</text>
</g>
<!-- Node2 -->
<g id="node2" class="node"><title>Node2</title>
<g id="a_node2"><a xlink:href="$d1/de3/classamunmt_1_1GPU_1_1Decoder_1_1RNNHidden.html#a4e603e53eb86acbacce1a348e2be20f4" xlink:title="amunmt::GPU::Decoder\l::RNNHidden\&lt; amunmt::\lGPU::Weights::DecInit\l \&gt;::InitializeState">
<polygon fill="white" stroke="black" points="351,-289.5 351,-341.5 477,-341.5 477,-289.5 351,-289.5"/>
<text text-anchor="start" x="359" y="-329.5" font-family="Helvetica,sans-Serif" font-size="10.00">amunmt::GPU::Decoder</text>
<text text-anchor="start" x="359" y="-318.5" font-family="Helvetica,sans-Serif" font-size="10.00">::RNNHidden&lt; amunmt::</text>
<text text-anchor="start" x="359" y="-307.5" font-family="Helvetica,sans-Serif" font-size="10.00">GPU::Weights::DecInit</text>
<text text-anchor="middle" x="414" y="-296.5" font-family="Helvetica,sans-Serif" font-size="10.00"> &gt;::InitializeState</text>
</a>
</g>
</g>
<!-- Node1&#45;&gt;Node2 -->
<g id="edge1" class="edge"><title>Node1&#45;&gt;Node2</title>
<path fill="none" stroke="midnightblue" d="M68.7213,-207.692C83.2181,-234.628 110.634,-276.942 148,-296.5 211.138,-329.547 294.587,-329.626 350.835,-324.493"/>
<polygon fill="midnightblue" stroke="midnightblue" points="71.6824,-205.8 63.9704,-198.535 65.4688,-209.023 71.6824,-205.8"/>
</g>
<!-- Node3 -->
<g id="node3" class="node"><title>Node3</title>
<g id="a_node3"><a xlink:href="$df/d32/classamunmt_1_1GPU_1_1Decoder_1_1Alignment.html#aca6a7ea06e3db456c9cf723cb62a975f" xlink:title="amunmt::GPU::Decoder\l::Alignment\&lt; amunmt::\lGPU::Weights::DecAlignment\l \&gt;::GetAlignedSourceContext">
<polygon fill="white" stroke="black" points="340,-218.5 340,-270.5 488,-270.5 488,-218.5 340,-218.5"/>
<text text-anchor="start" x="348" y="-258.5" font-family="Helvetica,sans-Serif" font-size="10.00">amunmt::GPU::Decoder</text>
<text text-anchor="start" x="348" y="-247.5" font-family="Helvetica,sans-Serif" font-size="10.00">::Alignment&lt; amunmt::</text>
<text text-anchor="start" x="348" y="-236.5" font-family="Helvetica,sans-Serif" font-size="10.00">GPU::Weights::DecAlignment</text>
<text text-anchor="middle" x="414" y="-225.5" font-family="Helvetica,sans-Serif" font-size="10.00"> &gt;::GetAlignedSourceContext</text>
</a>
</g>
</g>
<!-- Node1&#45;&gt;Node3 -->
<g id="edge2" class="edge"><title>Node1&#45;&gt;Node3</title>
<path fill="none" stroke="midnightblue" d="M116.985,-201.192C127.275,-203.878 137.903,-206.437 148,-208.5 212.254,-221.63 286.278,-231.23 339.73,-237.199"/>
<polygon fill="midnightblue" stroke="midnightblue" points="117.817,-197.792 107.252,-198.59 116.009,-204.554 117.817,-197.792"/>
</g>
<!-- Node4 -->
<g id="node4" class="node"><title>Node4</title>
<g id="a_node4"><a xlink:href="$d9/df6/classamunmt_1_1GPU_1_1FastGRU.html#add49af38ef2aa9a37b3b4da08bb03eae" xlink:title="amunmt::GPU::FastGRU\l::ElementwiseOps">
<polygon fill="white" stroke="black" points="162,-119.5 162,-149.5 290,-149.5 290,-119.5 162,-119.5"/>
<text text-anchor="start" x="170" y="-137.5" font-family="Helvetica,sans-Serif" font-size="10.00">amunmt::GPU::FastGRU</text>
<text text-anchor="middle" x="226" y="-126.5" font-family="Helvetica,sans-Serif" font-size="10.00">::ElementwiseOps</text>
</a>
</g>
</g>
<!-- Node1&#45;&gt;Node4 -->
<g id="edge3" class="edge"><title>Node1&#45;&gt;Node4</title>
<path fill="none" stroke="midnightblue" d="M118.601,-165.533C136.601,-160.283 156.082,-154.601 173.395,-149.552"/>
<polygon fill="midnightblue" stroke="midnightblue" points="117.396,-162.238 108.776,-168.399 119.356,-168.958 117.396,-162.238"/>
</g>
<!-- Node5 -->
<g id="node5" class="node"><title>Node5</title>
<g id="a_node5"><a xlink:href="$d1/d49/namespaceamunmt_1_1GPU_1_1mblas.html#afba17f6f1ebd7b942ed07d760259d143" xlink:title="amunmt::GPU::mblas\l::Broadcast">
<polygon fill="white" stroke="black" points="170,-256.5 170,-286.5 282,-286.5 282,-256.5 170,-256.5"/>
<text text-anchor="start" x="178" y="-274.5" font-family="Helvetica,sans-Serif" font-size="10.00">amunmt::GPU::mblas</text>
<text text-anchor="middle" x="226" y="-263.5" font-family="Helvetica,sans-Serif" font-size="10.00">::Broadcast</text>
</a>
</g>
</g>
<!-- Node1&#45;&gt;Node5 -->
<g id="edge4" class="edge"><title>Node1&#45;&gt;Node5</title>
<path fill="none" stroke="midnightblue" d="M86.569,-204.436C103.959,-216.211 126.659,-230.673 148,-241.5 158.747,-246.952 170.732,-252.056 181.985,-256.454"/>
<polygon fill="midnightblue" stroke="midnightblue" points="88.2216,-201.326 77.9948,-198.558 84.2632,-207.099 88.2216,-201.326"/>
</g>
<!-- Node6 -->
<g id="node6" class="node"><title>Node6</title>
<g id="a_node6"><a xlink:href="$d1/d49/namespaceamunmt_1_1GPU_1_1mblas.html#a468e534364a213f40977fad2c8ce6024" xlink:title="amunmt::GPU::mblas\l::BroadcastVecColumn">
<polygon fill="white" stroke="black" points="167,-70.5 167,-100.5 285,-100.5 285,-70.5 167,-70.5"/>
<text text-anchor="start" x="175" y="-88.5" font-family="Helvetica,sans-Serif" font-size="10.00">amunmt::GPU::mblas</text>
<text text-anchor="middle" x="226" y="-77.5" font-family="Helvetica,sans-Serif" font-size="10.00">::BroadcastVecColumn</text>
</a>
</g>
</g>
<!-- Node1&#45;&gt;Node6 -->
<g id="edge6" class="edge"><title>Node1&#45;&gt;Node6</title>
<path fill="none" stroke="midnightblue" d="M79.1932,-161.346C96.615,-145.03 122.17,-123.358 148,-109.5 154.293,-106.124 161.134,-103.14 168.056,-100.527"/>
<polygon fill="midnightblue" stroke="midnightblue" points="76.6029,-158.98 71.7892,-168.418 81.438,-164.042 76.6029,-158.98"/>
</g>
<!-- Node7 -->
<g id="node7" class="node"><title>Node7</title>
<g id="a_node7"><a xlink:href="$d1/d49/namespaceamunmt_1_1GPU_1_1mblas.html#ace73de50c8241f219ad490d64513829f" xlink:title="amunmt::GPU::mblas\l::BroadcastVec">
<polygon fill="white" stroke="black" points="170,-168.5 170,-198.5 282,-198.5 282,-168.5 170,-168.5"/>
<text text-anchor="start" x="178" y="-186.5" font-family="Helvetica,sans-Serif" font-size="10.00">amunmt::GPU::mblas</text>
<text text-anchor="middle" x="226" y="-175.5" font-family="Helvetica,sans-Serif" font-size="10.00">::BroadcastVec</text>
</a>
</g>
</g>
<!-- Node1&#45;&gt;Node7 -->
<g id="edge7" class="edge"><title>Node1&#45;&gt;Node7</title>
<path fill="none" stroke="midnightblue" d="M122.201,-183.5C137.951,-183.5 154.63,-183.5 169.867,-183.5"/>
<polygon fill="midnightblue" stroke="midnightblue" points="122.01,-180 112.009,-183.5 122.009,-187 122.01,-180"/>
</g>
<!-- Node12 -->
<g id="node12" class="node"><title>Node12</title>
<g id="a_node12"><a xlink:href="$d7/d34/classamunmt_1_1GPU_1_1mblas_1_1MatrixWrapper.html#a4187cbbb8d69e2b7ef67a1d4ee9b614b" xlink:title="amunmt::GPU::mblas\l::MatrixWrapper::MatrixWrapper">
<polygon fill="white" stroke="black" points="148,-21.5 148,-51.5 304,-51.5 304,-21.5 148,-21.5"/>
<text text-anchor="start" x="156" y="-39.5" font-family="Helvetica,sans-Serif" font-size="10.00">amunmt::GPU::mblas</text>
<text text-anchor="middle" x="226" y="-28.5" font-family="Helvetica,sans-Serif" font-size="10.00">::MatrixWrapper::MatrixWrapper</text>
</a>
</g>
</g>
<!-- Node1&#45;&gt;Node12 -->
<g id="edge14" class="edge"><title>Node1&#45;&gt;Node12</title>
<path fill="none" stroke="midnightblue" d="M68.927,-159.141C83.7468,-131.34 111.591,-86.3826 148,-60.5 152.793,-57.0926 158.086,-54.1572 163.586,-51.6307"/>
<polygon fill="midnightblue" stroke="midnightblue" points="65.7265,-157.71 64.2356,-168.2 71.9423,-160.929 65.7265,-157.71"/>
</g>
<!-- Node5&#45;&gt;Node3 -->
<g id="edge5" class="edge"><title>Node5&#45;&gt;Node3</title>
<path fill="none" stroke="midnightblue" d="M292.014,-262.062C307.455,-259.821 324.031,-257.415 339.809,-255.125"/>
<polygon fill="midnightblue" stroke="midnightblue" points="291.445,-258.608 282.051,-263.509 292.45,-265.536 291.445,-258.608"/>
</g>
<!-- Node7&#45;&gt;Node2 -->
<g id="edge8" class="edge"><title>Node7&#45;&gt;Node2</title>
<path fill="none" stroke="midnightblue" d="M253.438,-204.943C268.421,-217.226 287.427,-233.031 304,-247.5 320.351,-261.774 322.019,-268.343 340,-280.5 344.541,-283.57 349.393,-286.517 354.355,-289.307"/>
<polygon fill="midnightblue" stroke="midnightblue" points="255.527,-202.13 245.569,-198.511 251.097,-207.55 255.527,-202.13"/>
</g>
<!-- Node7&#45;&gt;Node3 -->
<g id="edge9" class="edge"><title>Node7&#45;&gt;Node3</title>
<path fill="none" stroke="midnightblue" d="M282.678,-201.76C300.587,-207.633 320.709,-214.233 339.686,-220.456"/>
<polygon fill="midnightblue" stroke="midnightblue" points="283.57,-198.369 272.978,-198.579 281.389,-205.021 283.57,-198.369"/>
</g>
<!-- Node8 -->
<g id="node8" class="node"><title>Node8</title>
<g id="a_node8"><a xlink:href="$d2/d4d/classamunmt_1_1GPU_1_1Decoder_1_1Softmax.html#ae19befc1a70b3a1762ac0e4dcfb67714" xlink:title="amunmt::GPU::Decoder\l::Softmax\&lt; amunmt::GPU\l::Weights::DecSoftmax \&gt;\l::GetProbs">
<polygon fill="white" stroke="black" points="348.5,-49.5 348.5,-101.5 479.5,-101.5 479.5,-49.5 348.5,-49.5"/>
<text text-anchor="start" x="356.5" y="-89.5" font-family="Helvetica,sans-Serif" font-size="10.00">amunmt::GPU::Decoder</text>
<text text-anchor="start" x="356.5" y="-78.5" font-family="Helvetica,sans-Serif" font-size="10.00">::Softmax&lt; amunmt::GPU</text>
<text text-anchor="start" x="356.5" y="-67.5" font-family="Helvetica,sans-Serif" font-size="10.00">::Weights::DecSoftmax &gt;</text>
<text text-anchor="middle" x="414" y="-56.5" font-family="Helvetica,sans-Serif" font-size="10.00">::GetProbs</text>
</a>
</g>
</g>
<!-- Node7&#45;&gt;Node8 -->
<g id="edge10" class="edge"><title>Node7&#45;&gt;Node8</title>
<path fill="none" stroke="midnightblue" d="M291.346,-166.061C295.791,-163.825 300.062,-161.315 304,-158.5 325.694,-142.992 319.386,-127.416 340,-110.5 343.911,-107.29 348.166,-104.291 352.591,-101.507"/>
<polygon fill="midnightblue" stroke="midnightblue" points="289.7,-162.964 282.032,-170.276 292.586,-169.341 289.7,-162.964"/>
</g>
<!-- Node9 -->
<g id="node9" class="node"><title>Node9</title>
<g id="a_node9"><a xlink:href="$d8/dc9/classamunmt_1_1GPU_1_1SlowGRU.html#a56abd7ee93ad637ca54113fbc1427e01" xlink:title="amunmt::GPU::SlowGRU\l::GetNextState">
<polygon fill="white" stroke="black" points="349,-0.5 349,-30.5 479,-30.5 479,-0.5 349,-0.5"/>
<text text-anchor="start" x="357" y="-18.5" font-family="Helvetica,sans-Serif" font-size="10.00">amunmt::GPU::SlowGRU</text>
<text text-anchor="middle" x="414" y="-7.5" font-family="Helvetica,sans-Serif" font-size="10.00">::GetNextState</text>
</a>
</g>
</g>
<!-- Node7&#45;&gt;Node9 -->
<g id="edge11" class="edge"><title>Node7&#45;&gt;Node9</title>
<path fill="none" stroke="midnightblue" d="M291.362,-168.24C295.986,-165.51 300.283,-162.293 304,-158.5 342.676,-119.036 301.397,-79.0354 340,-39.5 343.355,-36.0637 347.211,-33.1192 351.359,-30.5962"/>
<polygon fill="midnightblue" stroke="midnightblue" points="289.473,-165.273 282.13,-172.911 292.633,-171.519 289.473,-165.273"/>
</g>
<!-- Node10 -->
<g id="node10" class="node"><title>Node10</title>
<g id="a_node10"><a xlink:href="$df/de1/classamunmt_1_1GPU_1_1SlowLSTM.html#a445547f2b64a36f61c0a62dc682364f3" xlink:title="amunmt::GPU::SlowLSTM\l::GetNextState">
<polygon fill="white" stroke="black" points="347,-169.5 347,-199.5 481,-199.5 481,-169.5 347,-169.5"/>
<text text-anchor="start" x="355" y="-187.5" font-family="Helvetica,sans-Serif" font-size="10.00">amunmt::GPU::SlowLSTM</text>
<text text-anchor="middle" x="414" y="-176.5" font-family="Helvetica,sans-Serif" font-size="10.00">::GetNextState</text>
</a>
</g>
</g>
<!-- Node7&#45;&gt;Node10 -->
<g id="edge12" class="edge"><title>Node7&#45;&gt;Node10</title>
<path fill="none" stroke="midnightblue" d="M292.283,-183.851C309.988,-183.946 329.168,-184.049 346.917,-184.145"/>
<polygon fill="midnightblue" stroke="midnightblue" points="292.07,-180.35 282.051,-183.796 292.032,-187.35 292.07,-180.35"/>
</g>
<!-- Node11 -->
<g id="node11" class="node"><title>Node11</title>
<g id="a_node11"><a xlink:href="$d2/dad/classamunmt_1_1GPU_1_1Multiplicative.html#a1f485aad0d4da73469d58f61fc121341" xlink:title="amunmt::GPU::Multiplicative\l::GetNextState">
<polygon fill="white" stroke="black" points="342.5,-120.5 342.5,-150.5 485.5,-150.5 485.5,-120.5 342.5,-120.5"/>
<text text-anchor="start" x="350.5" y="-138.5" font-family="Helvetica,sans-Serif" font-size="10.00">amunmt::GPU::Multiplicative</text>
<text text-anchor="middle" x="414" y="-127.5" font-family="Helvetica,sans-Serif" font-size="10.00">::GetNextState</text>
</a>
</g>
</g>
<!-- Node7&#45;&gt;Node11 -->
<g id="edge13" class="edge"><title>Node7&#45;&gt;Node11</title>
<path fill="none" stroke="midnightblue" d="M291.923,-166.746C312.4,-161.461 334.881,-155.66 354.855,-150.505"/>
<polygon fill="midnightblue" stroke="midnightblue" points="290.859,-163.405 282.051,-169.293 292.609,-170.183 290.859,-163.405"/>
</g>
</g>
</svg>
