<?xml version="1.0" encoding="UTF-8" standalone="no"?>
<!DOCTYPE svg PUBLIC "-//W3C//DTD SVG 1.1//EN"
 "http://www.w3.org/Graphics/SVG/1.1/DTD/svg11.dtd">
<!-- Generated by graphviz version 2.38.0 (20140413.2041)
 -->
<!-- Title: marian::DivNodeOp Pages: 1 -->
<svg width="393pt" height="904pt"
 viewBox="0.00 0.00 392.50 904.00" xmlns="http://www.w3.org/2000/svg" xmlns:xlink="http://www.w3.org/1999/xlink">
<g id="graph0" class="graph" transform="scale(1 1) rotate(0) translate(4 900)">
<title>marian::DivNodeOp</title>
<polygon fill="white" stroke="none" points="-4,4 -4,-900 388.5,-900 388.5,4 -4,4"/>
<!-- Node1 -->
<g id="node1" class="node"><title>Node1</title>
<polygon fill="#bfbfbf" stroke="black" points="139,-0.5 139,-90.5 242,-90.5 242,-0.5 139,-0.5"/>
<text text-anchor="middle" x="190.5" y="-78.5" font-family="Helvetica,sans-Serif" font-size="10.00">marian::DivNodeOp</text>
<polyline fill="none" stroke="black" points="139,-71.5 242,-71.5 "/>
<text text-anchor="middle" x="190.5" y="-59.5" font-family="Helvetica,sans-Serif" font-size="10.00"> </text>
<polyline fill="none" stroke="black" points="139,-52.5 242,-52.5 "/>
<text text-anchor="start" x="147" y="-40.5" font-family="Helvetica,sans-Serif" font-size="10.00">+ DivNodeOp()</text>
<text text-anchor="start" x="147" y="-29.5" font-family="Helvetica,sans-Serif" font-size="10.00">+ forwardOps()</text>
<text text-anchor="start" x="147" y="-18.5" font-family="Helvetica,sans-Serif" font-size="10.00">+ backwardOps()</text>
<text text-anchor="start" x="147" y="-7.5" font-family="Helvetica,sans-Serif" font-size="10.00">+ type()</text>
</g>
<!-- Node2 -->
<g id="node2" class="node"><title>Node2</title>
<g id="a_node2"><a xlink:href="$d1/dff/structmarian_1_1ElementBinaryNodeOp.html" xlink:title="{marian::ElementBinaryNodeOp\n||+ ElementBinaryNodeOp()\l+ newShape()\l+ color()\l}">
<polygon fill="white" stroke="black" points="114.5,-127.5 114.5,-206.5 266.5,-206.5 266.5,-127.5 114.5,-127.5"/>
<text text-anchor="middle" x="190.5" y="-194.5" font-family="Helvetica,sans-Serif" font-size="10.00">marian::ElementBinaryNodeOp</text>
<polyline fill="none" stroke="black" points="114.5,-187.5 266.5,-187.5 "/>
<text text-anchor="middle" x="190.5" y="-175.5" font-family="Helvetica,sans-Serif" font-size="10.00"> </text>
<polyline fill="none" stroke="black" points="114.5,-168.5 266.5,-168.5 "/>
<text text-anchor="start" x="122.5" y="-156.5" font-family="Helvetica,sans-Serif" font-size="10.00">+ ElementBinaryNodeOp()</text>
<text text-anchor="start" x="122.5" y="-145.5" font-family="Helvetica,sans-Serif" font-size="10.00">+ newShape()</text>
<text text-anchor="start" x="122.5" y="-134.5" font-family="Helvetica,sans-Serif" font-size="10.00">+ color()</text>
</a>
</g>
</g>
<!-- Node2&#45;&gt;Node1 -->
<g id="edge1" class="edge"><title>Node2&#45;&gt;Node1</title>
<path fill="none" stroke="midnightblue" d="M190.5,-117.187C190.5,-108.491 190.5,-99.4758 190.5,-90.9111"/>
<polygon fill="none" stroke="midnightblue" points="187,-117.202 190.5,-127.202 194,-117.202 187,-117.202"/>
</g>
<!-- Node3 -->
<g id="node3" class="node"><title>Node3</title>
<g id="a_node3"><a xlink:href="$d0/da7/structmarian_1_1NaryNodeOp.html" xlink:title="{marian::NaryNodeOp\n|+ hash_\l|+ NaryNodeOp()\l+ ~NaryNodeOp()\l+ children()\l+ hash()\l+ remove_children_from\l_top_nodes()\l}">
<polygon fill="white" stroke="black" points="129.5,-243.5 129.5,-355.5 251.5,-355.5 251.5,-243.5 129.5,-243.5"/>
<text text-anchor="middle" x="190.5" y="-343.5" font-family="Helvetica,sans-Serif" font-size="10.00">marian::NaryNodeOp</text>
<polyline fill="none" stroke="black" points="129.5,-336.5 251.5,-336.5 "/>
<text text-anchor="start" x="137.5" y="-324.5" font-family="Helvetica,sans-Serif" font-size="10.00">+ hash_</text>
<polyline fill="none" stroke="black" points="129.5,-317.5 251.5,-317.5 "/>
<text text-anchor="start" x="137.5" y="-305.5" font-family="Helvetica,sans-Serif" font-size="10.00">+ NaryNodeOp()</text>
<text text-anchor="start" x="137.5" y="-294.5" font-family="Helvetica,sans-Serif" font-size="10.00">+ ~NaryNodeOp()</text>
<text text-anchor="start" x="137.5" y="-283.5" font-family="Helvetica,sans-Serif" font-size="10.00">+ children()</text>
<text text-anchor="start" x="137.5" y="-272.5" font-family="Helvetica,sans-Serif" font-size="10.00">+ hash()</text>
<text text-anchor="start" x="137.5" y="-261.5" font-family="Helvetica,sans-Serif" font-size="10.00">+ remove_children_from</text>
<text text-anchor="start" x="137.5" y="-250.5" font-family="Helvetica,sans-Serif" font-size="10.00">_top_nodes()</text>
</a>
</g>
</g>
<!-- Node3&#45;&gt;Node2 -->
<g id="edge2" class="edge"><title>Node3&#45;&gt;Node2</title>
<path fill="none" stroke="midnightblue" d="M190.5,-233.056C190.5,-224.081 190.5,-215.11 190.5,-206.823"/>
<polygon fill="none" stroke="midnightblue" points="187,-233.156 190.5,-243.156 194,-233.156 187,-233.156"/>
</g>
<!-- Node4 -->
<g id="node4" class="node"><title>Node4</title>
<g id="a_node4"><a xlink:href="$d0/d7a/classmarian_1_1Node.html" xlink:title="{marian::Node\n|# id_\l# edges_\l# trainable_\l# destroy_\l# children_\l# graph_\l# shape_\l# name_\l# val_\l# adj_\l# markedForDebug_\l# debugMessage_\l|+ Node()\l+ ~Node()\l+ scalar()\l+ forwardOps()\l+ backwardOps()\l+ runForward()\l+ runBackward()\l+ forward()\l+ backward()\l+ trainable()\land 27 more...\l}">
<polygon fill="white" stroke="black" points="138,-392.5 138,-680.5 243,-680.5 243,-392.5 138,-392.5"/>
<text text-anchor="middle" x="190.5" y="-668.5" font-family="Helvetica,sans-Serif" font-size="10.00">marian::Node</text>
<polyline fill="none" stroke="black" points="138,-661.5 243,-661.5 "/>
<text text-anchor="start" x="146" y="-649.5" font-family="Helvetica,sans-Serif" font-size="10.00"># id_</text>
<text text-anchor="start" x="146" y="-638.5" font-family="Helvetica,sans-Serif" font-size="10.00"># edges_</text>
<text text-anchor="start" x="146" y="-627.5" font-family="Helvetica,sans-Serif" font-size="10.00"># trainable_</text>
<text text-anchor="start" x="146" y="-616.5" font-family="Helvetica,sans-Serif" font-size="10.00"># destroy_</text>
<text text-anchor="start" x="146" y="-605.5" font-family="Helvetica,sans-Serif" font-size="10.00"># children_</text>
<text text-anchor="start" x="146" y="-594.5" font-family="Helvetica,sans-Serif" font-size="10.00"># graph_</text>
<text text-anchor="start" x="146" y="-583.5" font-family="Helvetica,sans-Serif" font-size="10.00"># shape_</text>
<text text-anchor="start" x="146" y="-572.5" font-family="Helvetica,sans-Serif" font-size="10.00"># name_</text>
<text text-anchor="start" x="146" y="-561.5" font-family="Helvetica,sans-Serif" font-size="10.00"># val_</text>
<text text-anchor="start" x="146" y="-550.5" font-family="Helvetica,sans-Serif" font-size="10.00"># adj_</text>
<text text-anchor="start" x="146" y="-539.5" font-family="Helvetica,sans-Serif" font-size="10.00"># markedForDebug_</text>
<text text-anchor="start" x="146" y="-528.5" font-family="Helvetica,sans-Serif" font-size="10.00"># debugMessage_</text>
<polyline fill="none" stroke="black" points="138,-521.5 243,-521.5 "/>
<text text-anchor="start" x="146" y="-509.5" font-family="Helvetica,sans-Serif" font-size="10.00">+ Node()</text>
<text text-anchor="start" x="146" y="-498.5" font-family="Helvetica,sans-Serif" font-size="10.00">+ ~Node()</text>
<text text-anchor="start" x="146" y="-487.5" font-family="Helvetica,sans-Serif" font-size="10.00">+ scalar()</text>
<text text-anchor="start" x="146" y="-476.5" font-family="Helvetica,sans-Serif" font-size="10.00">+ forwardOps()</text>
<text text-anchor="start" x="146" y="-465.5" font-family="Helvetica,sans-Serif" font-size="10.00">+ backwardOps()</text>
<text text-anchor="start" x="146" y="-454.5" font-family="Helvetica,sans-Serif" font-size="10.00">+ runForward()</text>
<text text-anchor="start" x="146" y="-443.5" font-family="Helvetica,sans-Serif" font-size="10.00">+ runBackward()</text>
<text text-anchor="start" x="146" y="-432.5" font-family="Helvetica,sans-Serif" font-size="10.00">+ forward()</text>
<text text-anchor="start" x="146" y="-421.5" font-family="Helvetica,sans-Serif" font-size="10.00">+ backward()</text>
<text text-anchor="start" x="146" y="-410.5" font-family="Helvetica,sans-Serif" font-size="10.00">+ trainable()</text>
<text text-anchor="start" x="146" y="-399.5" font-family="Helvetica,sans-Serif" font-size="10.00">and 27 more...</text>
</a>
</g>
</g>
<!-- Node4&#45;&gt;Node3 -->
<g id="edge3" class="edge"><title>Node4&#45;&gt;Node3</title>
<path fill="none" stroke="midnightblue" d="M190.5,-382.162C190.5,-372.865 190.5,-363.9 190.5,-355.53"/>
<polygon fill="none" stroke="midnightblue" points="187,-382.367 190.5,-392.367 194,-382.367 187,-382.367"/>
</g>
<!-- Node5 -->
<g id="node5" class="node"><title>Node5</title>
<g id="a_node5"><a xlink:href="$de/dff/classmarian_1_1Chainable.html" xlink:title="{marian::Chainable\&lt;\l Tensor \&gt;\n||+ Chainable()\l+ ~Chainable()\l+ forward()\l+ backward()\l+ forwardOps()\l+ backwardOps()\l+ allocate()\l+ free()\l+ init()\l+ init_dependent()\land 23 more...\l}">
<polygon fill="white" stroke="black" points="0,-717.5 0,-895.5 101,-895.5 101,-717.5 0,-717.5"/>
<text text-anchor="start" x="8" y="-883.5" font-family="Helvetica,sans-Serif" font-size="10.00">marian::Chainable&lt;</text>
<text text-anchor="middle" x="50.5" y="-872.5" font-family="Helvetica,sans-Serif" font-size="10.00"> Tensor &gt;</text>
<polyline fill="none" stroke="black" points="0,-865.5 101,-865.5 "/>
<text text-anchor="middle" x="50.5" y="-853.5" font-family="Helvetica,sans-Serif" font-size="10.00"> </text>
<polyline fill="none" stroke="black" points="0,-846.5 101,-846.5 "/>
<text text-anchor="start" x="8" y="-834.5" font-family="Helvetica,sans-Serif" font-size="10.00">+ Chainable()</text>
<text text-anchor="start" x="8" y="-823.5" font-family="Helvetica,sans-Serif" font-size="10.00">+ ~Chainable()</text>
<text text-anchor="start" x="8" y="-812.5" font-family="Helvetica,sans-Serif" font-size="10.00">+ forward()</text>
<text text-anchor="start" x="8" y="-801.5" font-family="Helvetica,sans-Serif" font-size="10.00">+ backward()</text>
<text text-anchor="start" x="8" y="-790.5" font-family="Helvetica,sans-Serif" font-size="10.00">+ forwardOps()</text>
<text text-anchor="start" x="8" y="-779.5" font-family="Helvetica,sans-Serif" font-size="10.00">+ backwardOps()</text>
<text text-anchor="start" x="8" y="-768.5" font-family="Helvetica,sans-Serif" font-size="10.00">+ allocate()</text>
<text text-anchor="start" x="8" y="-757.5" font-family="Helvetica,sans-Serif" font-size="10.00">+ free()</text>
<text text-anchor="start" x="8" y="-746.5" font-family="Helvetica,sans-Serif" font-size="10.00">+ init()</text>
<text text-anchor="start" x="8" y="-735.5" font-family="Helvetica,sans-Serif" font-size="10.00">+ init_dependent()</text>
<text text-anchor="start" x="8" y="-724.5" font-family="Helvetica,sans-Serif" font-size="10.00">and 23 more...</text>
</a>
</g>
</g>
<!-- Node5&#45;&gt;Node4 -->
<g id="edge4" class="edge"><title>Node5&#45;&gt;Node4</title>
<path fill="none" stroke="midnightblue" d="M101.236,-708.377C113.157,-685.557 125.886,-661.189 137.888,-638.215"/>
<polygon fill="none" stroke="midnightblue" points="98.0632,-706.892 96.5351,-717.376 104.268,-710.133 98.0632,-706.892"/>
</g>
<!-- Node6 -->
<g id="node6" class="node"><title>Node6</title>
<g id="a_node6"><a xlink:href="$d4/d9b/classmarian_1_1keywords_1_1Keywords.html" xlink:title="{marian::keywords::Keywords\n|&#45; storage_\l|+ Keywords()\l+ Has()\l+ Get()\l&#45; add()\l&#45; add()\l&#45; add()\l}">
<polygon fill="white" stroke="black" points="119,-750.5 119,-862.5 262,-862.5 262,-750.5 119,-750.5"/>
<text text-anchor="middle" x="190.5" y="-850.5" font-family="Helvetica,sans-Serif" font-size="10.00">marian::keywords::Keywords</text>
<polyline fill="none" stroke="black" points="119,-843.5 262,-843.5 "/>
<text text-anchor="start" x="127" y="-831.5" font-family="Helvetica,sans-Serif" font-size="10.00">&#45; storage_</text>
<polyline fill="none" stroke="black" points="119,-824.5 262,-824.5 "/>
<text text-anchor="start" x="127" y="-812.5" font-family="Helvetica,sans-Serif" font-size="10.00">+ Keywords()</text>
<text text-anchor="start" x="127" y="-801.5" font-family="Helvetica,sans-Serif" font-size="10.00">+ Has()</text>
<text text-anchor="start" x="127" y="-790.5" font-family="Helvetica,sans-Serif" font-size="10.00">+ Get()</text>
<text text-anchor="start" x="127" y="-779.5" font-family="Helvetica,sans-Serif" font-size="10.00">&#45; add()</text>
<text text-anchor="start" x="127" y="-768.5" font-family="Helvetica,sans-Serif" font-size="10.00">&#45; add()</text>
<text text-anchor="start" x="127" y="-757.5" font-family="Helvetica,sans-Serif" font-size="10.00">&#45; add()</text>
</a>
</g>
</g>
<!-- Node6&#45;&gt;Node4 -->
<g id="edge5" class="edge"><title>Node6&#45;&gt;Node4</title>
<path fill="none" stroke="midnightblue" d="M190.5,-740.149C190.5,-721.949 190.5,-701.433 190.5,-680.623"/>
<polygon fill="none" stroke="midnightblue" points="187,-740.295 190.5,-750.295 194,-740.295 187,-740.295"/>
</g>
<!-- Node7 -->
<g id="node7" class="node"><title>Node7</title>
<polygon fill="white" stroke="#bfbfbf" points="280.5,-772.5 280.5,-840.5 384.5,-840.5 384.5,-772.5 280.5,-772.5"/>
<text text-anchor="start" x="288.5" y="-828.5" font-family="Helvetica,sans-Serif" font-size="10.00">std::enable_shared</text>
<text text-anchor="middle" x="332.5" y="-817.5" font-family="Helvetica,sans-Serif" font-size="10.00">_from_this&lt; Node &gt;</text>
<polyline fill="none" stroke="#bfbfbf" points="280.5,-810.5 384.5,-810.5 "/>
<text text-anchor="middle" x="332.5" y="-798.5" font-family="Helvetica,sans-Serif" font-size="10.00"> </text>
<polyline fill="none" stroke="#bfbfbf" points="280.5,-791.5 384.5,-791.5 "/>
<text text-anchor="middle" x="332.5" y="-779.5" font-family="Helvetica,sans-Serif" font-size="10.00"> </text>
</g>
<!-- Node7&#45;&gt;Node4 -->
<g id="edge6" class="edge"><title>Node7&#45;&gt;Node4</title>
<path fill="none" stroke="midnightblue" d="M310.106,-763.236C292.168,-729.381 266.269,-680.501 243.155,-636.878"/>
<polygon fill="none" stroke="midnightblue" points="307.171,-765.172 314.946,-772.369 313.356,-761.894 307.171,-765.172"/>
</g>
</g>
</svg>
