<?xml version="1.0" encoding="UTF-8" standalone="no"?>
<!DOCTYPE svg PUBLIC "-//W3C//DTD SVG 1.1//EN"
 "http://www.w3.org/Graphics/SVG/1.1/DTD/svg11.dtd">
<!-- Generated by graphviz version 2.38.0 (20140413.2041)
 -->
<!-- Title: marian::data::Corpus::next Pages: 1 -->
<svg width="316pt" height="176pt"
 viewBox="0.00 0.00 316.00 175.50" xmlns="http://www.w3.org/2000/svg" xmlns:xlink="http://www.w3.org/1999/xlink">
<g id="graph0" class="graph" transform="scale(1 1) rotate(0) translate(4 171.5)">
<title>marian::data::Corpus::next</title>
<polygon fill="white" stroke="none" points="-4,4 -4,-171.5 312,-171.5 312,4 -4,4"/>
<!-- Node1 -->
<g id="node1" class="node"><title>Node1</title>
<polygon fill="#bfbfbf" stroke="black" points="0,-63 0,-93 108,-93 108,-63 0,-63"/>
<text text-anchor="start" x="8" y="-81" font-family="Helvetica,sans-Serif" font-size="10.00">marian::data::Corpus</text>
<text text-anchor="middle" x="54" y="-70" font-family="Helvetica,sans-Serif" font-size="10.00">::next</text>
</g>
<!-- Node2 -->
<g id="node2" class="node"><title>Node2</title>
<g id="a_node2"><a xlink:href="../../d8/d05/classmarian_1_1data_1_1SentenceTuple.html#a749e5acf8c894f139153f03abafc5ccb" target="_top" xlink:title="marian::data::SentenceTuple\l::push_back">
<polygon fill="white" stroke="black" points="155,-137 155,-167 297,-167 297,-137 155,-137"/>
<text text-anchor="start" x="163" y="-155" font-family="Helvetica,sans-Serif" font-size="10.00">marian::data::SentenceTuple</text>
<text text-anchor="middle" x="226" y="-144" font-family="Helvetica,sans-Serif" font-size="10.00">::push_back</text>
</a>
</g>
</g>
<!-- Node1&#45;&gt;Node2 -->
<g id="edge1" class="edge"><title>Node1&#45;&gt;Node2</title>
<path fill="none" stroke="midnightblue" d="M78.4382,-93.0851C95.9718,-103.889 120.82,-118.201 144,-128 148.692,-129.984 153.603,-131.871 158.585,-133.651"/>
<polygon fill="midnightblue" stroke="midnightblue" points="157.623,-137.021 168.218,-136.941 159.885,-130.397 157.623,-137.021"/>
</g>
<!-- Node3 -->
<g id="node3" class="node"><title>Node3</title>
<g id="a_node3"><a xlink:href="../../d8/d05/classmarian_1_1data_1_1SentenceTuple.html#a9b37c6147029e8c2f1f1c595a2a586bf" target="_top" xlink:title="marian::data::SentenceTuple\l::size">
<polygon fill="white" stroke="black" points="155,-88 155,-118 297,-118 297,-88 155,-88"/>
<text text-anchor="start" x="163" y="-106" font-family="Helvetica,sans-Serif" font-size="10.00">marian::data::SentenceTuple</text>
<text text-anchor="middle" x="226" y="-95" font-family="Helvetica,sans-Serif" font-size="10.00">::size</text>
</a>
</g>
</g>
<!-- Node1&#45;&gt;Node3 -->
<g id="edge2" class="edge"><title>Node1&#45;&gt;Node3</title>
<path fill="none" stroke="midnightblue" d="M108.323,-85.8416C119.81,-87.5308 132.197,-89.3526 144.461,-91.156"/>
<polygon fill="midnightblue" stroke="midnightblue" points="144.308,-94.6711 154.711,-92.6634 145.327,-87.7456 144.308,-94.6711"/>
</g>
<!-- Node4 -->
<g id="node4" class="node"><title>Node4</title>
<g id="a_node4"><a xlink:href="../../d8/d05/classmarian_1_1data_1_1SentenceTuple.html#ad7fd707bbf2eadcbe8c665b334ec0c38" target="_top" xlink:title="marian::data::SentenceTuple\l::begin">
<polygon fill="white" stroke="black" points="155,-39 155,-69 297,-69 297,-39 155,-39"/>
<text text-anchor="start" x="163" y="-57" font-family="Helvetica,sans-Serif" font-size="10.00">marian::data::SentenceTuple</text>
<text text-anchor="middle" x="226" y="-46" font-family="Helvetica,sans-Serif" font-size="10.00">::begin</text>
</a>
</g>
</g>
<!-- Node1&#45;&gt;Node4 -->
<g id="edge3" class="edge"><title>Node1&#45;&gt;Node4</title>
<path fill="none" stroke="midnightblue" d="M108.323,-70.4721C119.81,-68.8504 132.197,-67.1015 144.461,-65.3702"/>
<polygon fill="midnightblue" stroke="midnightblue" points="145.298,-68.7868 154.711,-63.9232 144.32,-61.8555 145.298,-68.7868"/>
</g>
<!-- Node5 -->
<g id="node5" class="node"><title>Node5</title>
<g id="a_node5"><a xlink:href="../../d8/d05/classmarian_1_1data_1_1SentenceTuple.html#a5556b2b70f347a64af8dc31c9d677636" target="_top" xlink:title="marian::data::SentenceTuple::end">
<polygon fill="white" stroke="black" points="144,-0.5 144,-19.5 308,-19.5 308,-0.5 144,-0.5"/>
<text text-anchor="middle" x="226" y="-7.5" font-family="Helvetica,sans-Serif" font-size="10.00">marian::data::SentenceTuple::end</text>
</a>
</g>
</g>
<!-- Node1&#45;&gt;Node5 -->
<g id="edge4" class="edge"><title>Node1&#45;&gt;Node5</title>
<path fill="none" stroke="midnightblue" d="M79.137,-62.8162C96.6032,-52.3754 121.071,-38.8496 144,-30 151.59,-27.0707 159.748,-24.4641 167.86,-22.1796"/>
<polygon fill="midnightblue" stroke="midnightblue" points="168.933,-25.5158 177.69,-19.5527 167.126,-18.753 168.933,-25.5158"/>
</g>
</g>
</svg>
