<?xml version="1.0" encoding="UTF-8" standalone="no"?>
<!DOCTYPE svg PUBLIC "-//W3C//DTD SVG 1.1//EN"
 "http://www.w3.org/Graphics/SVG/1.1/DTD/svg11.dtd">
<!-- Generated by graphviz version 2.38.0 (20140413.2041)
 -->
<!-- Title: marian::data::BatchGenerator::fillBatches Pages: 1 -->
<svg width="525pt" height="88pt"
 viewBox="0.00 0.00 525.00 88.00" xmlns="http://www.w3.org/2000/svg" xmlns:xlink="http://www.w3.org/1999/xlink">
<g id="graph0" class="graph" transform="scale(1 1) rotate(0) translate(4 84)">
<title>marian::data::BatchGenerator::fillBatches</title>
<polygon fill="white" stroke="none" points="-4,4 -4,-84 521,-84 521,4 -4,4"/>
<!-- Node1 -->
<g id="node1" class="node"><title>Node1</title>
<polygon fill="#bfbfbf" stroke="black" points="0,-24.5 0,-54.5 145,-54.5 145,-24.5 0,-24.5"/>
<text text-anchor="start" x="8" y="-42.5" font-family="Helvetica,sans-Serif" font-size="10.00">marian::data::BatchGenerator</text>
<text text-anchor="middle" x="72.5" y="-31.5" font-family="Helvetica,sans-Serif" font-size="10.00">::fillBatches</text>
</g>
<!-- Node2 -->
<g id="node2" class="node"><title>Node2</title>
<g id="a_node2"><a xlink:href="../../d3/d1c/classmarian_1_1data_1_1BatchGenerator.html#a315e970451e563b5ef4d113bdff16e7f" target="_top" xlink:title="marian::data::BatchGenerator\l::next">
<polygon fill="white" stroke="black" points="181,-49.5 181,-79.5 326,-79.5 326,-49.5 181,-49.5"/>
<text text-anchor="start" x="189" y="-67.5" font-family="Helvetica,sans-Serif" font-size="10.00">marian::data::BatchGenerator</text>
<text text-anchor="middle" x="253.5" y="-56.5" font-family="Helvetica,sans-Serif" font-size="10.00">::next</text>
</a>
</g>
</g>
<!-- Node1&#45;&gt;Node2 -->
<g id="edge1" class="edge"><title>Node1&#45;&gt;Node2</title>
<path fill="none" stroke="midnightblue" d="M155.043,-50.8887C163.638,-52.0891 172.332,-53.3034 180.804,-54.4866"/>
<polygon fill="midnightblue" stroke="midnightblue" points="155.405,-47.4054 145.017,-49.4884 154.437,-54.3381 155.405,-47.4054"/>
</g>
<!-- Node4 -->
<g id="node4" class="node"><title>Node4</title>
<g id="a_node4"><a xlink:href="../../d3/d1c/classmarian_1_1data_1_1BatchGenerator.html#ad465fd5b81c4914e0301a7df72281179" target="_top" xlink:title="marian::data::BatchGenerator\l::prepare">
<polygon fill="white" stroke="black" points="181,-0.5 181,-30.5 326,-30.5 326,-0.5 181,-0.5"/>
<text text-anchor="start" x="189" y="-18.5" font-family="Helvetica,sans-Serif" font-size="10.00">marian::data::BatchGenerator</text>
<text text-anchor="middle" x="253.5" y="-7.5" font-family="Helvetica,sans-Serif" font-size="10.00">::prepare</text>
</a>
</g>
</g>
<!-- Node1&#45;&gt;Node4 -->
<g id="edge3" class="edge"><title>Node1&#45;&gt;Node4</title>
<path fill="none" stroke="midnightblue" d="M155.043,-28.5669C163.638,-27.4144 172.332,-26.2488 180.804,-25.1128"/>
<polygon fill="midnightblue" stroke="midnightblue" points="154.463,-25.1132 145.017,-29.9111 155.394,-32.0511 154.463,-25.1132"/>
</g>
<!-- Node3 -->
<g id="node3" class="node"><title>Node3</title>
<g id="a_node3"><a xlink:href="../../d7/dae/classmarian_1_1TranslateMultiGPU.html#a6d0b7f15fe6870b772cc9aa03d361840" target="_top" xlink:title="marian::TranslateMultiGPU::run">
<polygon fill="white" stroke="black" points="362,-30 362,-49 517,-49 517,-30 362,-30"/>
<text text-anchor="middle" x="439.5" y="-37" font-family="Helvetica,sans-Serif" font-size="10.00">marian::TranslateMultiGPU::run</text>
</a>
</g>
</g>
<!-- Node2&#45;&gt;Node3 -->
<g id="edge2" class="edge"><title>Node2&#45;&gt;Node3</title>
<path fill="none" stroke="midnightblue" d="M336.379,-53.3751C347.111,-51.9169 358.029,-50.4335 368.54,-49.0055"/>
<polygon fill="midnightblue" stroke="midnightblue" points="335.604,-49.9482 326.166,-54.7628 336.546,-56.8845 335.604,-49.9482"/>
</g>
<!-- Node4&#45;&gt;Node3 -->
<g id="edge4" class="edge"><title>Node4&#45;&gt;Node3</title>
<path fill="none" stroke="midnightblue" d="M336.249,-26.163C345.997,-27.4344 355.9,-28.7261 365.514,-29.9801"/>
<polygon fill="midnightblue" stroke="midnightblue" points="336.535,-22.6706 326.166,-24.8477 335.629,-29.6118 336.535,-22.6706"/>
</g>
</g>
</svg>
