<?xml version="1.0" encoding="UTF-8" standalone="no"?>
<!DOCTYPE svg PUBLIC "-//W3C//DTD SVG 1.1//EN"
 "http://www.w3.org/Graphics/SVG/1.1/DTD/svg11.dtd">
<!-- Generated by graphviz version 2.38.0 (20140413.2041)
 -->
<!-- Title: marian::Node::edges Pages: 1 -->
<svg width="300pt" height="66pt"
 viewBox="0.00 0.00 300.00 66.00" xmlns="http://www.w3.org/2000/svg" xmlns:xlink="http://www.w3.org/1999/xlink">
<g id="graph0" class="graph" transform="scale(1 1) rotate(0) translate(4 62)">
<title>marian::Node::edges</title>
<polygon fill="white" stroke="none" points="-4,4 -4,-62 296,-62 296,4 -4,4"/>
<!-- Node1 -->
<g id="node1" class="node"><title>Node1</title>
<polygon fill="#bfbfbf" stroke="black" points="0,-19.5 0,-38.5 107,-38.5 107,-19.5 0,-19.5"/>
<text text-anchor="middle" x="53.5" y="-26.5" font-family="Helvetica,sans-Serif" font-size="10.00">marian::Node::edges</text>
</g>
<!-- Node2 -->
<g id="node2" class="node"><title>Node2</title>
<g id="a_node2"><a xlink:href="../../d0/d7a/classmarian_1_1Node.html#a762868fac80689771dde19f36827cebc" target="_top" xlink:title="marian::Node::increaseEdges">
<polygon fill="white" stroke="black" points="144.5,-38.5 144.5,-57.5 290.5,-57.5 290.5,-38.5 144.5,-38.5"/>
<text text-anchor="middle" x="217.5" y="-45.5" font-family="Helvetica,sans-Serif" font-size="10.00">marian::Node::increaseEdges</text>
</a>
</g>
</g>
<!-- Node1&#45;&gt;Node2 -->
<g id="edge1" class="edge"><title>Node1&#45;&gt;Node2</title>
<path fill="none" stroke="midnightblue" d="M117.059,-36.3372C126.025,-37.3887 135.309,-38.4776 144.439,-39.5484"/>
<polygon fill="midnightblue" stroke="midnightblue" points="117.436,-32.8575 107.097,-35.1688 116.621,-39.8099 117.436,-32.8575"/>
</g>
<!-- Node3 -->
<g id="node3" class="node"><title>Node3</title>
<g id="a_node3"><a xlink:href="../../d0/d7a/classmarian_1_1Node.html#a182d9b696c98f16f72fd3f9db3d1f827" target="_top" xlink:title="marian::Node::decreaseEdges">
<polygon fill="white" stroke="black" points="143,-0.5 143,-19.5 292,-19.5 292,-0.5 143,-0.5"/>
<text text-anchor="middle" x="217.5" y="-7.5" font-family="Helvetica,sans-Serif" font-size="10.00">marian::Node::decreaseEdges</text>
</a>
</g>
</g>
<!-- Node1&#45;&gt;Node3 -->
<g id="edge2" class="edge"><title>Node1&#45;&gt;Node3</title>
<path fill="none" stroke="midnightblue" d="M117.223,-21.6436C125.659,-20.6542 134.375,-19.632 142.977,-18.6231"/>
<polygon fill="midnightblue" stroke="midnightblue" points="116.621,-18.1901 107.097,-22.8312 117.436,-25.1425 116.621,-18.1901"/>
</g>
</g>
</svg>
