<?xml version="1.0" encoding="UTF-8" standalone="no"?>
<!DOCTYPE svg PUBLIC "-//W3C//DTD SVG 1.1//EN"
 "http://www.w3.org/Graphics/SVG/1.1/DTD/svg11.dtd">
<!-- Generated by graphviz version 2.38.0 (20140413.2041)
 -->
<!-- Title: marian::Node::backward Pages: 1 -->
<svg width="631pt" height="85pt"
 viewBox="0.00 0.00 631.00 85.00" xmlns="http://www.w3.org/2000/svg" xmlns:xlink="http://www.w3.org/1999/xlink">
<g id="graph0" class="graph" transform="scale(1 1) rotate(0) translate(4 81)">
<title>marian::Node::backward</title>
<polygon fill="white" stroke="none" points="-4,4 -4,-81 627,-81 627,4 -4,4"/>
<!-- Node1 -->
<g id="node1" class="node"><title>Node1</title>
<polygon fill="#bfbfbf" stroke="black" points="0,-19.5 0,-38.5 123,-38.5 123,-19.5 0,-19.5"/>
<text text-anchor="middle" x="61.5" y="-26.5" font-family="Helvetica,sans-Serif" font-size="10.00">marian::Node::backward</text>
</g>
<!-- Node2 -->
<g id="node2" class="node"><title>Node2</title>
<g id="a_node2"><a xlink:href="../../d0/d7a/classmarian_1_1Node.html#a7738def79b94994bd20cf8762ff2fd0c" target="_top" xlink:title="marian::Node::runBackward">
<polygon fill="white" stroke="black" points="160.5,-38.5 160.5,-57.5 298.5,-57.5 298.5,-38.5 160.5,-38.5"/>
<text text-anchor="middle" x="229.5" y="-45.5" font-family="Helvetica,sans-Serif" font-size="10.00">marian::Node::runBackward</text>
</a>
</g>
</g>
<!-- Node1&#45;&gt;Node2 -->
<g id="edge1" class="edge"><title>Node1&#45;&gt;Node2</title>
<path fill="none" stroke="midnightblue" d="M123.37,-35.967C132.11,-36.9674 141.203,-38.0081 150.221,-39.0404"/>
<polygon fill="midnightblue" stroke="midnightblue" points="150.016,-42.5396 160.349,-40.1996 150.812,-35.585 150.016,-42.5396"/>
</g>
<!-- Node6 -->
<g id="node6" class="node"><title>Node6</title>
<g id="a_node6"><a xlink:href="../../d0/d7a/classmarian_1_1Node.html#a783915262a9d7af81372c8f0a8363beb" target="_top" xlink:title="marian::Node::backwardOps">
<polygon fill="white" stroke="black" points="159,-0.5 159,-19.5 300,-19.5 300,-0.5 159,-0.5"/>
<text text-anchor="middle" x="229.5" y="-7.5" font-family="Helvetica,sans-Serif" font-size="10.00">marian::Node::backwardOps</text>
</a>
</g>
</g>
<!-- Node1&#45;&gt;Node6 -->
<g id="edge5" class="edge"><title>Node1&#45;&gt;Node6</title>
<path fill="none" stroke="midnightblue" d="M123.37,-22.033C131.683,-21.0815 140.316,-20.0933 148.9,-19.1108"/>
<polygon fill="midnightblue" stroke="midnightblue" points="149.396,-22.577 158.933,-17.9624 148.6,-15.6224 149.396,-22.577"/>
</g>
<!-- Node3 -->
<g id="node3" class="node"><title>Node3</title>
<g id="a_node3"><a xlink:href="../../d0/d7a/classmarian_1_1Node.html#a71a9c8ad6ba12d421fa97222d74a90b9" target="_top" xlink:title="marian::Node::child">
<polygon fill="white" stroke="black" points="344.5,-57.5 344.5,-76.5 445.5,-76.5 445.5,-57.5 344.5,-57.5"/>
<text text-anchor="middle" x="395" y="-64.5" font-family="Helvetica,sans-Serif" font-size="10.00">marian::Node::child</text>
</a>
</g>
</g>
<!-- Node2&#45;&gt;Node3 -->
<g id="edge2" class="edge"><title>Node2&#45;&gt;Node3</title>
<path fill="none" stroke="midnightblue" d="M298.891,-55.9476C310.668,-57.3161 322.824,-58.7288 334.348,-60.0679"/>
<polygon fill="midnightblue" stroke="midnightblue" points="333.948,-63.545 344.286,-61.2228 334.757,-56.5918 333.948,-63.545"/>
</g>
<!-- Node5 -->
<g id="node5" class="node"><title>Node5</title>
<g id="a_node5"><a xlink:href="../../d0/d7a/classmarian_1_1Node.html#a924457f1be4e8f51fc563118185e3e83" target="_top" xlink:title="marian::Node::trainable">
<polygon fill="white" stroke="black" points="336,-19.5 336,-38.5 454,-38.5 454,-19.5 336,-19.5"/>
<text text-anchor="middle" x="395" y="-26.5" font-family="Helvetica,sans-Serif" font-size="10.00">marian::Node::trainable</text>
</a>
</g>
</g>
<!-- Node2&#45;&gt;Node5 -->
<g id="edge4" class="edge"><title>Node2&#45;&gt;Node5</title>
<path fill="none" stroke="midnightblue" d="M298.891,-40.0524C307.856,-39.0106 317.041,-37.9433 325.999,-36.9023"/>
<polygon fill="midnightblue" stroke="midnightblue" points="326.464,-40.3719 335.993,-35.7409 325.656,-33.4187 326.464,-40.3719"/>
</g>
<!-- Node4 -->
<g id="node4" class="node"><title>Node4</title>
<g id="a_node4"><a xlink:href="../../d0/d7a/classmarian_1_1Node.html#a4aa5aa482c70595fa5d43c1fbabf5c18" target="_top" xlink:title="marian::Node::getBackend">
<polygon fill="white" stroke="black" points="490,-57.5 490,-76.5 623,-76.5 623,-57.5 490,-57.5"/>
<text text-anchor="middle" x="556.5" y="-64.5" font-family="Helvetica,sans-Serif" font-size="10.00">marian::Node::getBackend</text>
</a>
</g>
</g>
<!-- Node3&#45;&gt;Node4 -->
<g id="edge3" class="edge"><title>Node3&#45;&gt;Node4</title>
<path fill="none" stroke="midnightblue" d="M445.592,-67C456.414,-67 468.105,-67 479.684,-67"/>
<polygon fill="midnightblue" stroke="midnightblue" points="479.807,-70.5001 489.807,-67 479.807,-63.5001 479.807,-70.5001"/>
</g>
</g>
</svg>
