<?xml version="1.0" encoding="UTF-8" standalone="no"?>
<!DOCTYPE svg PUBLIC "-//W3C//DTD SVG 1.1//EN"
 "http://www.w3.org/Graphics/SVG/1.1/DTD/svg11.dtd">
<!-- Generated by graphviz version 2.38.0 (20140413.2041)
 -->
<!-- Title: marian::Node::init Pages: 1 -->
<svg width="257pt" height="88pt"
 viewBox="0.00 0.00 257.00 88.00" xmlns="http://www.w3.org/2000/svg" xmlns:xlink="http://www.w3.org/1999/xlink">
<g id="graph0" class="graph" transform="scale(1 1) rotate(0) translate(4 84)">
<title>marian::Node::init</title>
<polygon fill="white" stroke="none" points="-4,4 -4,-84 253,-84 253,4 -4,4"/>
<!-- Node1 -->
<g id="node1" class="node"><title>Node1</title>
<polygon fill="#bfbfbf" stroke="black" points="0,-30 0,-49 94,-49 94,-30 0,-30"/>
<text text-anchor="middle" x="47" y="-37" font-family="Helvetica,sans-Serif" font-size="10.00">marian::Node::init</text>
</g>
<!-- Node2 -->
<g id="node2" class="node"><title>Node2</title>
<g id="a_node2"><a xlink:href="../../d0/d7a/classmarian_1_1Node.html#a42807d121dc8bc008176a3f922b4a5eb" target="_top" xlink:title="marian::Node::init\l_dependent">
<polygon fill="white" stroke="black" points="142.5,-49.5 142.5,-79.5 236.5,-79.5 236.5,-49.5 142.5,-49.5"/>
<text text-anchor="start" x="150.5" y="-67.5" font-family="Helvetica,sans-Serif" font-size="10.00">marian::Node::init</text>
<text text-anchor="middle" x="189.5" y="-56.5" font-family="Helvetica,sans-Serif" font-size="10.00">_dependent</text>
</a>
</g>
</g>
<!-- Node1&#45;&gt;Node2 -->
<g id="edge1" class="edge"><title>Node1&#45;&gt;Node2</title>
<path fill="none" stroke="midnightblue" d="M94.005,-47.6859C106.256,-49.8658 119.628,-52.2452 132.356,-54.51"/>
<polygon fill="midnightblue" stroke="midnightblue" points="131.933,-57.9896 142.392,-56.2957 133.16,-51.0979 131.933,-57.9896"/>
</g>
<!-- Node3 -->
<g id="node3" class="node"><title>Node3</title>
<g id="a_node3"><a xlink:href="../../d0/d7a/classmarian_1_1Node.html#ad818ff58b17c5bdcee78c19b9f0df0d6" target="_top" xlink:title="marian::Node::set_zero\l_adjoint">
<polygon fill="white" stroke="black" points="130,-0.5 130,-30.5 249,-30.5 249,-0.5 130,-0.5"/>
<text text-anchor="start" x="138" y="-18.5" font-family="Helvetica,sans-Serif" font-size="10.00">marian::Node::set_zero</text>
<text text-anchor="middle" x="189.5" y="-7.5" font-family="Helvetica,sans-Serif" font-size="10.00">_adjoint</text>
</a>
</g>
</g>
<!-- Node1&#45;&gt;Node3 -->
<g id="edge2" class="edge"><title>Node1&#45;&gt;Node3</title>
<path fill="none" stroke="midnightblue" d="M94.005,-31.6415C102.32,-30.2211 111.152,-28.7125 119.948,-27.21"/>
<polygon fill="midnightblue" stroke="midnightblue" points="120.566,-30.6551 129.834,-25.5212 119.388,-23.755 120.566,-30.6551"/>
</g>
</g>
</svg>
