<?xml version="1.0" encoding="UTF-8" standalone="no"?>
<!DOCTYPE svg PUBLIC "-//W3C//DTD SVG 1.1//EN"
 "http://www.w3.org/Graphics/SVG/1.1/DTD/svg11.dtd">
<!-- Generated by graphviz version 2.38.0 (20140413.2041)
 -->
<!-- Title: lstm.h Pages: 1 -->
<svg width="186pt" height="308pt"
 viewBox="0.00 0.00 185.50 308.00" xmlns="http://www.w3.org/2000/svg" xmlns:xlink="http://www.w3.org/1999/xlink">
<g id="graph0" class="graph" transform="scale(1 1) rotate(0) translate(4 304)">
<title>lstm.h</title>
<polygon fill="white" stroke="none" points="-4,4 -4,-304 181.5,-304 181.5,4 -4,4"/>
<!-- Node1 -->
<g id="node1" class="node"><title>Node1</title>
<polygon fill="#bfbfbf" stroke="black" points="45.5,-280.5 45.5,-299.5 89.5,-299.5 89.5,-280.5 45.5,-280.5"/>
<text text-anchor="middle" x="67.5" y="-287.5" font-family="Helvetica,sans-Serif" font-size="10.00">lstm.h</text>
</g>
<!-- Node2 -->
<g id="node2" class="node"><title>Node2</title>
<g id="a_node2"><a xlink:href="$d6/d72/decoder_8h.html" xlink:title="decoder.h">
<polygon fill="white" stroke="black" points="0,-168.5 0,-187.5 59,-187.5 59,-168.5 0,-168.5"/>
<text text-anchor="middle" x="29.5" y="-175.5" font-family="Helvetica,sans-Serif" font-size="10.00">decoder.h</text>
</a>
</g>
</g>
<!-- Node1&#45;&gt;Node2 -->
<g id="edge1" class="edge"><title>Node1&#45;&gt;Node2</title>
<path fill="none" stroke="midnightblue" d="M61.1693,-270.674C52.8613,-246.625 38.6159,-205.388 32.4679,-187.591"/>
<polygon fill="midnightblue" stroke="midnightblue" points="57.9448,-272.059 64.5182,-280.368 64.5611,-269.774 57.9448,-272.059"/>
</g>
<!-- Node6 -->
<g id="node6" class="node"><title>Node6</title>
<g id="a_node6"><a xlink:href="$d1/d79/encoder_8h.html" xlink:title="encoder.h">
<polygon fill="white" stroke="black" points="77,-168.5 77,-187.5 136,-187.5 136,-168.5 77,-168.5"/>
<text text-anchor="middle" x="106.5" y="-175.5" font-family="Helvetica,sans-Serif" font-size="10.00">encoder.h</text>
</a>
</g>
</g>
<!-- Node1&#45;&gt;Node6 -->
<g id="edge5" class="edge"><title>Node1&#45;&gt;Node6</title>
<path fill="none" stroke="midnightblue" d="M72.1322,-270.752C75.6385,-257.606 80.8105,-239.523 86.5,-224 91.2072,-211.156 97.8429,-196.789 102.158,-187.82"/>
<polygon fill="midnightblue" stroke="midnightblue" points="68.7348,-269.91 69.6039,-280.469 75.5093,-271.672 68.7348,-269.91"/>
</g>
<!-- Node7 -->
<g id="node7" class="node"><title>Node7</title>
<g id="a_node7"><a xlink:href="$d6/d81/multiplicative_8h.html" xlink:title="multiplicative.h">
<polygon fill="white" stroke="black" points="95.5,-224.5 95.5,-243.5 177.5,-243.5 177.5,-224.5 95.5,-224.5"/>
<text text-anchor="middle" x="136.5" y="-231.5" font-family="Helvetica,sans-Serif" font-size="10.00">multiplicative.h</text>
</a>
</g>
</g>
<!-- Node1&#45;&gt;Node7 -->
<g id="edge7" class="edge"><title>Node1&#45;&gt;Node7</title>
<path fill="none" stroke="midnightblue" d="M86.5379,-274.101C98.9558,-264.382 114.743,-252.027 125.212,-243.834"/>
<polygon fill="midnightblue" stroke="midnightblue" points="84.304,-271.405 78.586,-280.324 88.6182,-276.917 84.304,-271.405"/>
</g>
<!-- Node3 -->
<g id="node3" class="node"><title>Node3</title>
<g id="a_node3"><a xlink:href="$db/d89/dl4mt_8h.html" xlink:title="dl4mt.h">
<polygon fill="white" stroke="black" points="43,-112.5 43,-131.5 92,-131.5 92,-112.5 43,-112.5"/>
<text text-anchor="middle" x="67.5" y="-119.5" font-family="Helvetica,sans-Serif" font-size="10.00">dl4mt.h</text>
</a>
</g>
</g>
<!-- Node2&#45;&gt;Node3 -->
<g id="edge2" class="edge"><title>Node2&#45;&gt;Node3</title>
<path fill="none" stroke="midnightblue" d="M41.5647,-159.855C48.1447,-150.505 56.011,-139.327 61.3418,-131.751"/>
<polygon fill="midnightblue" stroke="midnightblue" points="38.6676,-157.891 35.7749,-168.083 44.3922,-161.919 38.6676,-157.891"/>
</g>
<!-- Node4 -->
<g id="node4" class="node"><title>Node4</title>
<g id="a_node4"><a xlink:href="$d6/da3/language__model_8h.html" xlink:title="language_model.h">
<polygon fill="white" stroke="black" points="20,-56.5 20,-75.5 115,-75.5 115,-56.5 20,-56.5"/>
<text text-anchor="middle" x="67.5" y="-63.5" font-family="Helvetica,sans-Serif" font-size="10.00">language_model.h</text>
</a>
</g>
</g>
<!-- Node3&#45;&gt;Node4 -->
<g id="edge3" class="edge"><title>Node3&#45;&gt;Node4</title>
<path fill="none" stroke="midnightblue" d="M67.5,-101.805C67.5,-92.9102 67.5,-82.7798 67.5,-75.7511"/>
<polygon fill="midnightblue" stroke="midnightblue" points="64.0001,-102.083 67.5,-112.083 71.0001,-102.083 64.0001,-102.083"/>
</g>
<!-- Node5 -->
<g id="node5" class="node"><title>Node5</title>
<g id="a_node5"><a xlink:href="$d3/d17/class__language__model_8h.html" xlink:title="class_language_model.h">
<polygon fill="white" stroke="black" points="5.5,-0.5 5.5,-19.5 129.5,-19.5 129.5,-0.5 5.5,-0.5"/>
<text text-anchor="middle" x="67.5" y="-7.5" font-family="Helvetica,sans-Serif" font-size="10.00">class_language_model.h</text>
</a>
</g>
</g>
<!-- Node4&#45;&gt;Node5 -->
<g id="edge4" class="edge"><title>Node4&#45;&gt;Node5</title>
<path fill="none" stroke="midnightblue" d="M67.5,-45.8045C67.5,-36.9102 67.5,-26.7798 67.5,-19.7511"/>
<polygon fill="midnightblue" stroke="midnightblue" points="64.0001,-46.083 67.5,-56.083 71.0001,-46.083 64.0001,-46.083"/>
</g>
<!-- Node6&#45;&gt;Node3 -->
<g id="edge6" class="edge"><title>Node6&#45;&gt;Node3</title>
<path fill="none" stroke="midnightblue" d="M94.1178,-159.855C87.3646,-150.505 79.2914,-139.327 73.8202,-131.751"/>
<polygon fill="midnightblue" stroke="midnightblue" points="91.3676,-162.025 100.06,-168.083 97.0424,-157.927 91.3676,-162.025"/>
</g>
<!-- Node7&#45;&gt;Node6 -->
<g id="edge8" class="edge"><title>Node7&#45;&gt;Node6</title>
<path fill="none" stroke="midnightblue" d="M126.653,-215.275C121.525,-206.045 115.484,-195.17 111.362,-187.751"/>
<polygon fill="midnightblue" stroke="midnightblue" points="123.63,-217.041 131.546,-224.083 129.749,-213.642 123.63,-217.041"/>
</g>
</g>
</svg>
