<?xml version="1.0" encoding="UTF-8" standalone="no"?>
<!DOCTYPE svg PUBLIC "-//W3C//DTD SVG 1.1//EN"
 "http://www.w3.org/Graphics/SVG/1.1/DTD/svg11.dtd">
<!-- Generated by graphviz version 2.38.0 (20140413.2041)
 -->
<!-- Title: lstm.h Pages: 1 -->
<svg width="1314pt" height="543pt"
 viewBox="0.00 0.00 1314.00 543.00" xmlns="http://www.w3.org/2000/svg" xmlns:xlink="http://www.w3.org/1999/xlink">
<g id="graph0" class="graph" transform="scale(1 1) rotate(0) translate(4 539)">
<title>lstm.h</title>
<polygon fill="white" stroke="none" points="-4,4 -4,-539 1310,-539 1310,4 -4,4"/>
<!-- Node1 -->
<g id="node1" class="node"><title>Node1</title>
<polygon fill="#bfbfbf" stroke="black" points="985.5,-515.5 985.5,-534.5 1029.5,-534.5 1029.5,-515.5 985.5,-515.5"/>
<text text-anchor="middle" x="1007.5" y="-522.5" font-family="Helvetica,sans-Serif" font-size="10.00">lstm.h</text>
</g>
<!-- Node2 -->
<g id="node2" class="node"><title>Node2</title>
<polygon fill="white" stroke="#bfbfbf" points="0,-56.5 0,-75.5 109,-75.5 109,-56.5 0,-56.5"/>
<text text-anchor="middle" x="54.5" y="-63.5" font-family="Helvetica,sans-Serif" font-size="10.00">boost/timer/timer.hpp</text>
</g>
<!-- Node1&#45;&gt;Node2 -->
<g id="edge1" class="edge"><title>Node1&#45;&gt;Node2</title>
<path fill="none" stroke="midnightblue" d="M985.137,-523.863C840.697,-522.694 45.5,-511.814 45.5,-414 45.5,-414 45.5,-414 45.5,-177 45.5,-144.841 49.3684,-107.569 52.0329,-85.7107"/>
<polygon fill="midnightblue" stroke="midnightblue" points="55.5369,-85.8993 53.3234,-75.5383 48.5926,-85.0183 55.5369,-85.8993"/>
</g>
<!-- Node3 -->
<g id="node3" class="node"><title>Node3</title>
<g id="a_node3"><a xlink:href="../../da/dbc/matrix__functions_8h.html" target="_top" xlink:title="gpu/mblas/matrix_functions.h">
<polygon fill="white" stroke="black" points="670,-347.5 670,-366.5 815,-366.5 815,-347.5 670,-347.5"/>
<text text-anchor="middle" x="742.5" y="-354.5" font-family="Helvetica,sans-Serif" font-size="10.00">gpu/mblas/matrix_functions.h</text>
</a>
</g>
</g>
<!-- Node1&#45;&gt;Node3 -->
<g id="edge2" class="edge"><title>Node1&#45;&gt;Node3</title>
<path fill="none" stroke="midnightblue" d="M993.626,-515.309C950.426,-488.248 818.047,-405.324 764.914,-372.041"/>
<polygon fill="midnightblue" stroke="midnightblue" points="766.57,-368.948 756.237,-366.605 762.854,-374.88 766.57,-368.948"/>
</g>
<!-- Node26 -->
<g id="node26" class="node"><title>Node26</title>
<g id="a_node26"><a xlink:href="../../d0/d23/handles_8h.html" target="_top" xlink:title="handles.h">
<polygon fill="white" stroke="black" points="1064,-112.5 1064,-131.5 1123,-131.5 1123,-112.5 1064,-112.5"/>
<text text-anchor="middle" x="1093.5" y="-119.5" font-family="Helvetica,sans-Serif" font-size="10.00">handles.h</text>
</a>
</g>
</g>
<!-- Node1&#45;&gt;Node26 -->
<g id="edge49" class="edge"><title>Node1&#45;&gt;Node26</title>
<path fill="none" stroke="midnightblue" d="M1029.75,-522.253C1060.08,-518.797 1114.61,-508.627 1149.5,-479 1174.2,-458.03 1182.5,-446.399 1182.5,-414 1182.5,-414 1182.5,-414 1182.5,-233 1182.5,-190.846 1142.51,-155.779 1116.14,-137.239"/>
<polygon fill="midnightblue" stroke="midnightblue" points="1118.04,-134.3 1107.8,-131.599 1114.12,-140.099 1118.04,-134.3"/>
</g>
<!-- Node28 -->
<g id="node28" class="node"><title>Node28</title>
<g id="a_node28"><a xlink:href="../../d1/df1/matrix__wrapper_8h.html" target="_top" xlink:title="gpu/mblas/matrix_wrapper.h">
<polygon fill="white" stroke="black" points="922.5,-224.5 922.5,-243.5 1062.5,-243.5 1062.5,-224.5 922.5,-224.5"/>
<text text-anchor="middle" x="992.5" y="-231.5" font-family="Helvetica,sans-Serif" font-size="10.00">gpu/mblas/matrix_wrapper.h</text>
</a>
</g>
</g>
<!-- Node1&#45;&gt;Node28 -->
<g id="edge48" class="edge"><title>Node1&#45;&gt;Node28</title>
<path fill="none" stroke="midnightblue" d="M1007.05,-515.351C1004.99,-475.631 996.406,-310.247 993.481,-253.9"/>
<polygon fill="midnightblue" stroke="midnightblue" points="996.961,-253.421 992.947,-243.615 989.97,-253.783 996.961,-253.421"/>
</g>
<!-- Node32 -->
<g id="node32" class="node"><title>Node32</title>
<g id="a_node32"><a xlink:href="../../d0/ddd/cell_8h.html" target="_top" xlink:title="gpu/dl4mt/cell.h">
<polygon fill="white" stroke="black" points="1054.5,-459.5 1054.5,-478.5 1140.5,-478.5 1140.5,-459.5 1054.5,-459.5"/>
<text text-anchor="middle" x="1097.5" y="-466.5" font-family="Helvetica,sans-Serif" font-size="10.00">gpu/dl4mt/cell.h</text>
</a>
</g>
</g>
<!-- Node1&#45;&gt;Node32 -->
<g id="edge50" class="edge"><title>Node1&#45;&gt;Node32</title>
<path fill="none" stroke="midnightblue" d="M1021.96,-515.324C1036,-506.9 1057.55,-493.971 1074.04,-484.074"/>
<polygon fill="midnightblue" stroke="midnightblue" points="1076.3,-486.801 1083.08,-478.655 1072.7,-480.798 1076.3,-486.801"/>
</g>
<!-- Node33 -->
<g id="node33" class="node"><title>Node33</title>
<g id="a_node33"><a xlink:href="../../d2/d98/cellstate_8h.html" target="_top" xlink:title="cellstate.h">
<polygon fill="white" stroke="black" points="1016.5,-403.5 1016.5,-422.5 1078.5,-422.5 1078.5,-403.5 1016.5,-403.5"/>
<text text-anchor="middle" x="1047.5" y="-410.5" font-family="Helvetica,sans-Serif" font-size="10.00">cellstate.h</text>
</a>
</g>
</g>
<!-- Node1&#45;&gt;Node33 -->
<g id="edge58" class="edge"><title>Node1&#45;&gt;Node33</title>
<path fill="none" stroke="midnightblue" d="M1010.64,-515.368C1017.12,-497.537 1032.12,-456.295 1040.86,-432.272"/>
<polygon fill="midnightblue" stroke="midnightblue" points="1044.25,-433.185 1044.38,-422.591 1037.67,-430.793 1044.25,-433.185"/>
</g>
<!-- Node4 -->
<g id="node4" class="node"><title>Node4</title>
<polygon fill="white" stroke="#bfbfbf" points="73.5,-112.5 73.5,-131.5 117.5,-131.5 117.5,-112.5 73.5,-112.5"/>
<text text-anchor="middle" x="95.5" y="-119.5" font-family="Helvetica,sans-Serif" font-size="10.00">cmath</text>
</g>
<!-- Node3&#45;&gt;Node4 -->
<g id="edge3" class="edge"><title>Node3&#45;&gt;Node4</title>
<path fill="none" stroke="midnightblue" d="M669.838,-353.191C563.228,-348.281 370.079,-336.167 305.5,-311 220.276,-277.788 204.034,-253.8 140.5,-188 126.538,-173.54 113.823,-154.351 105.498,-140.577"/>
<polygon fill="midnightblue" stroke="midnightblue" points="108.338,-138.501 100.257,-131.649 102.301,-142.045 108.338,-138.501"/>
</g>
<!-- Node5 -->
<g id="node5" class="node"><title>Node5</title>
<polygon fill="white" stroke="#bfbfbf" points="971,-56.5 971,-75.5 1040,-75.5 1040,-56.5 971,-56.5"/>
<text text-anchor="middle" x="1005.5" y="-63.5" font-family="Helvetica,sans-Serif" font-size="10.00">cublas_v2.h</text>
</g>
<!-- Node3&#45;&gt;Node5 -->
<g id="edge4" class="edge"><title>Node3&#45;&gt;Node5</title>
<path fill="none" stroke="midnightblue" d="M743.408,-347.38C745.297,-332.579 750.687,-301.819 764.5,-280 823.303,-187.114 934.196,-111.121 982.282,-80.973"/>
<polygon fill="midnightblue" stroke="midnightblue" points="984.365,-83.8004 991.028,-75.5633 980.682,-77.8472 984.365,-83.8004"/>
</g>
<!-- Node6 -->
<g id="node6" class="node"><title>Node6</title>
<polygon fill="white" stroke="#bfbfbf" points="287,-112.5 287,-131.5 412,-131.5 412,-112.5 287,-112.5"/>
<text text-anchor="middle" x="349.5" y="-119.5" font-family="Helvetica,sans-Serif" font-size="10.00">thrust/execution_policy.h</text>
</g>
<!-- Node3&#45;&gt;Node6 -->
<g id="edge5" class="edge"><title>Node3&#45;&gt;Node6</title>
<path fill="none" stroke="midnightblue" d="M728.047,-347.431C669.071,-312.466 446.297,-180.388 373.022,-136.945"/>
<polygon fill="midnightblue" stroke="midnightblue" points="374.471,-133.736 364.085,-131.647 370.901,-139.757 374.471,-133.736"/>
</g>
<!-- Node7 -->
<g id="node7" class="node"><title>Node7</title>
<polygon fill="white" stroke="#bfbfbf" points="174,-112.5 174,-131.5 269,-131.5 269,-112.5 174,-112.5"/>
<text text-anchor="middle" x="221.5" y="-119.5" font-family="Helvetica,sans-Serif" font-size="10.00">thrust/functional.h</text>
</g>
<!-- Node3&#45;&gt;Node7 -->
<g id="edge6" class="edge"><title>Node3&#45;&gt;Node7</title>
<path fill="none" stroke="midnightblue" d="M715.24,-347.47C688.902,-339 648.033,-325.252 613.5,-311 471.776,-252.509 308.152,-168.473 246.616,-136.258"/>
<polygon fill="midnightblue" stroke="midnightblue" points="248.116,-133.093 237.635,-131.545 244.863,-139.291 248.116,-133.093"/>
</g>
<!-- Node8 -->
<g id="node8" class="node"><title>Node8</title>
<polygon fill="white" stroke="#bfbfbf" points="939.5,-0.5 939.5,-19.5 993.5,-19.5 993.5,-0.5 939.5,-0.5"/>
<text text-anchor="middle" x="966.5" y="-7.5" font-family="Helvetica,sans-Serif" font-size="10.00">iostream</text>
</g>
<!-- Node3&#45;&gt;Node8 -->
<g id="edge7" class="edge"><title>Node3&#45;&gt;Node8</title>
<path fill="none" stroke="midnightblue" d="M741.531,-347.245C740.263,-332.76 739.093,-303.113 747.5,-280 758.043,-251.011 769.011,-247.91 788.5,-224 844.562,-155.221 867.716,-145.802 922.5,-76 934.686,-60.4731 947.168,-41.7082 955.71,-28.3399"/>
<polygon fill="midnightblue" stroke="midnightblue" points="958.796,-30.0078 961.173,-19.683 952.876,-26.2721 958.796,-30.0078"/>
</g>
<!-- Node9 -->
<g id="node9" class="node"><title>Node9</title>
<g id="a_node9"><a xlink:href="../../d0/df7/amun_2gpu_2mblas_2thrust__functions_8h.html" target="_top" xlink:title="gpu/mblas/thrust_functions.h">
<polygon fill="white" stroke="black" points="150,-168.5 150,-187.5 293,-187.5 293,-168.5 150,-168.5"/>
<text text-anchor="middle" x="221.5" y="-175.5" font-family="Helvetica,sans-Serif" font-size="10.00">gpu/mblas/thrust_functions.h</text>
</a>
</g>
</g>
<!-- Node3&#45;&gt;Node9 -->
<g id="edge8" class="edge"><title>Node3&#45;&gt;Node9</title>
<path fill="none" stroke="midnightblue" d="M669.906,-353.224C573.357,-348.574 408.578,-337.025 354.5,-311 299.217,-284.394 253.207,-225.352 232.81,-196.103"/>
<polygon fill="midnightblue" stroke="midnightblue" points="235.63,-194.027 227.108,-187.733 229.845,-197.968 235.63,-194.027"/>
</g>
<!-- Node11 -->
<g id="node11" class="node"><title>Node11</title>
<g id="a_node11"><a xlink:href="../../dd/df4/matrix_8h.html" target="_top" xlink:title="gpu/mblas/matrix.h">
<polygon fill="white" stroke="black" points="576.5,-168.5 576.5,-187.5 676.5,-187.5 676.5,-168.5 576.5,-168.5"/>
<text text-anchor="middle" x="626.5" y="-175.5" font-family="Helvetica,sans-Serif" font-size="10.00">gpu/mblas/matrix.h</text>
</a>
</g>
</g>
<!-- Node3&#45;&gt;Node11 -->
<g id="edge13" class="edge"><title>Node3&#45;&gt;Node11</title>
<path fill="none" stroke="midnightblue" d="M729.643,-347.208C718.236,-338.909 701.692,-325.587 690.5,-311 662.567,-274.593 642.251,-224.047 632.666,-197.299"/>
<polygon fill="midnightblue" stroke="midnightblue" points="635.917,-195.991 629.324,-187.697 629.306,-198.292 635.917,-195.991"/>
</g>
<!-- Node3&#45;&gt;Node26 -->
<g id="edge45" class="edge"><title>Node3&#45;&gt;Node26</title>
<path fill="none" stroke="midnightblue" d="M746.562,-347.476C754.155,-332.275 771.807,-300.192 794.5,-280 876.485,-207.053 998.42,-156.848 1058.06,-135.125"/>
<polygon fill="midnightblue" stroke="midnightblue" points="1059.54,-138.314 1067.77,-131.642 1057.17,-131.725 1059.54,-138.314"/>
</g>
<!-- Node3&#45;&gt;Node28 -->
<g id="edge40" class="edge"><title>Node3&#45;&gt;Node28</title>
<path fill="none" stroke="midnightblue" d="M752.37,-347.277C772.731,-329.422 819.033,-289.582 837.5,-280 868.337,-263.999 905.661,-252.942 935.956,-245.793"/>
<polygon fill="midnightblue" stroke="midnightblue" points="936.969,-249.152 945.941,-243.517 935.413,-242.327 936.969,-249.152"/>
</g>
<!-- Node31 -->
<g id="node31" class="node"><title>Node31</title>
<g id="a_node31"><a xlink:href="../../de/db1/nth__element__kernels_8h.html" target="_top" xlink:title="gpu/mblas/nth_element\l_kernels.h">
<polygon fill="white" stroke="black" points="846.5,-280.5 846.5,-310.5 964.5,-310.5 964.5,-280.5 846.5,-280.5"/>
<text text-anchor="start" x="854.5" y="-298.5" font-family="Helvetica,sans-Serif" font-size="10.00">gpu/mblas/nth_element</text>
<text text-anchor="middle" x="905.5" y="-287.5" font-family="Helvetica,sans-Serif" font-size="10.00">_kernels.h</text>
</a>
</g>
</g>
<!-- Node3&#45;&gt;Node31 -->
<g id="edge46" class="edge"><title>Node3&#45;&gt;Node31</title>
<path fill="none" stroke="midnightblue" d="M765.854,-347.475C789.684,-338.776 827.352,-325.026 857.564,-313.998"/>
<polygon fill="midnightblue" stroke="midnightblue" points="858.891,-317.24 867.084,-310.523 856.49,-310.664 858.891,-317.24"/>
</g>
<!-- Node9&#45;&gt;Node4 -->
<g id="edge9" class="edge"><title>Node9&#45;&gt;Node4</title>
<path fill="none" stroke="midnightblue" d="M201.535,-168.444C180.891,-159.596 148.437,-145.687 124.868,-135.586"/>
<polygon fill="midnightblue" stroke="midnightblue" points="125.942,-132.239 115.372,-131.516 123.184,-138.673 125.942,-132.239"/>
</g>
<!-- Node9&#45;&gt;Node5 -->
<g id="edge10" class="edge"><title>Node9&#45;&gt;Node5</title>
<path fill="none" stroke="midnightblue" d="M293.124,-175.238C437.38,-171.157 758.199,-159.247 864.5,-132 908.411,-120.745 955.478,-96.2267 982.605,-80.7282"/>
<polygon fill="midnightblue" stroke="midnightblue" points="984.442,-83.7087 991.33,-75.6589 980.925,-77.6561 984.442,-83.7087"/>
</g>
<!-- Node9&#45;&gt;Node7 -->
<g id="edge12" class="edge"><title>Node9&#45;&gt;Node7</title>
<path fill="none" stroke="midnightblue" d="M221.5,-168.083C221.5,-161.006 221.5,-150.861 221.5,-141.986"/>
<polygon fill="midnightblue" stroke="midnightblue" points="225,-141.751 221.5,-131.751 218,-141.751 225,-141.751"/>
</g>
<!-- Node10 -->
<g id="node10" class="node"><title>Node10</title>
<polygon fill="white" stroke="#bfbfbf" points="143,-56.5 143,-75.5 256,-75.5 256,-56.5 143,-56.5"/>
<text text-anchor="middle" x="199.5" y="-63.5" font-family="Helvetica,sans-Serif" font-size="10.00">thrust/device_vector.h</text>
</g>
<!-- Node9&#45;&gt;Node10 -->
<g id="edge11" class="edge"><title>Node9&#45;&gt;Node10</title>
<path fill="none" stroke="midnightblue" d="M203.418,-168.39C189.938,-160.872 172.528,-148.565 164.5,-132 156.261,-114.999 169.114,-96.0253 181.502,-82.9878"/>
<polygon fill="midnightblue" stroke="midnightblue" points="184.249,-85.1971 188.962,-75.7079 179.36,-80.1873 184.249,-85.1971"/>
</g>
<!-- Node11&#45;&gt;Node6 -->
<g id="edge16" class="edge"><title>Node11&#45;&gt;Node6</title>
<path fill="none" stroke="midnightblue" d="M582.609,-168.444C533.983,-158.964 455.554,-143.675 403.276,-133.483"/>
<polygon fill="midnightblue" stroke="midnightblue" points="403.671,-129.995 393.186,-131.516 402.332,-136.865 403.671,-129.995"/>
</g>
<!-- Node11&#45;&gt;Node7 -->
<g id="edge17" class="edge"><title>Node11&#45;&gt;Node7</title>
<path fill="none" stroke="midnightblue" d="M576.441,-171.042C510.597,-163.095 391.027,-148.286 279.242,-132.218"/>
<polygon fill="midnightblue" stroke="midnightblue" points="279.541,-128.725 269.143,-130.76 278.541,-135.654 279.541,-128.725"/>
</g>
<!-- Node12 -->
<g id="node12" class="node"><title>Node12</title>
<polygon fill="white" stroke="#bfbfbf" points="716.5,-56.5 716.5,-75.5 768.5,-75.5 768.5,-56.5 716.5,-56.5"/>
<text text-anchor="middle" x="742.5" y="-63.5" font-family="Helvetica,sans-Serif" font-size="10.00">memory</text>
</g>
<!-- Node11&#45;&gt;Node12 -->
<g id="edge14" class="edge"><title>Node11&#45;&gt;Node12</title>
<path fill="none" stroke="midnightblue" d="M640.308,-168.42C653.394,-159.966 673.26,-146.275 688.5,-132 704.486,-117.027 720.192,-97.4107 730.508,-83.6598"/>
<polygon fill="midnightblue" stroke="midnightblue" points="733.347,-85.7063 736.457,-75.5782 727.71,-81.5564 733.347,-85.7063"/>
</g>
<!-- Node13 -->
<g id="node13" class="node"><title>Node13</title>
<polygon fill="white" stroke="#bfbfbf" points="383.5,-56.5 383.5,-75.5 435.5,-75.5 435.5,-56.5 383.5,-56.5"/>
<text text-anchor="middle" x="409.5" y="-63.5" font-family="Helvetica,sans-Serif" font-size="10.00">sstream</text>
</g>
<!-- Node11&#45;&gt;Node13 -->
<g id="edge15" class="edge"><title>Node11&#45;&gt;Node13</title>
<path fill="none" stroke="midnightblue" d="M614.841,-168.382C596.505,-155.09 559.505,-129.314 525.5,-112 499.561,-98.793 468.79,-87.0216 445.46,-78.8337"/>
<polygon fill="midnightblue" stroke="midnightblue" points="446.548,-75.5066 435.953,-75.5503 444.262,-82.1231 446.548,-75.5066"/>
</g>
<!-- Node14 -->
<g id="node14" class="node"><title>Node14</title>
<g id="a_node14"><a xlink:href="../../dd/d2d/exception_8h.html" target="_top" xlink:title="common/exception.h">
<polygon fill="white" stroke="black" points="573,-112.5 573,-131.5 680,-131.5 680,-112.5 573,-112.5"/>
<text text-anchor="middle" x="626.5" y="-119.5" font-family="Helvetica,sans-Serif" font-size="10.00">common/exception.h</text>
</a>
</g>
</g>
<!-- Node11&#45;&gt;Node14 -->
<g id="edge18" class="edge"><title>Node11&#45;&gt;Node14</title>
<path fill="none" stroke="midnightblue" d="M626.5,-168.083C626.5,-161.006 626.5,-150.861 626.5,-141.986"/>
<polygon fill="midnightblue" stroke="midnightblue" points="630,-141.751 626.5,-131.751 623,-141.751 630,-141.751"/>
</g>
<!-- Node19 -->
<g id="node19" class="node"><title>Node19</title>
<g id="a_node19"><a xlink:href="../../d3/d75/base__matrix_8h.html" target="_top" xlink:title="common/base_matrix.h">
<polygon fill="white" stroke="black" points="737,-112.5 737,-131.5 856,-131.5 856,-112.5 737,-112.5"/>
<text text-anchor="middle" x="796.5" y="-119.5" font-family="Helvetica,sans-Serif" font-size="10.00">common/base_matrix.h</text>
</a>
</g>
</g>
<!-- Node11&#45;&gt;Node19 -->
<g id="edge24" class="edge"><title>Node11&#45;&gt;Node19</title>
<path fill="none" stroke="midnightblue" d="M653.437,-168.444C682.16,-159.32 727.829,-144.813 759.821,-134.651"/>
<polygon fill="midnightblue" stroke="midnightblue" points="761.218,-137.88 769.689,-131.516 759.099,-131.208 761.218,-137.88"/>
</g>
<!-- Node24 -->
<g id="node24" class="node"><title>Node24</title>
<g id="a_node24"><a xlink:href="../../d3/d18/types-gpu_8h.html" target="_top" xlink:title="gpu/types&#45;gpu.h">
<polygon fill="white" stroke="black" points="430.5,-112.5 430.5,-131.5 516.5,-131.5 516.5,-112.5 430.5,-112.5"/>
<text text-anchor="middle" x="473.5" y="-119.5" font-family="Helvetica,sans-Serif" font-size="10.00">gpu/types&#45;gpu.h</text>
</a>
</g>
</g>
<!-- Node11&#45;&gt;Node24 -->
<g id="edge33" class="edge"><title>Node11&#45;&gt;Node24</title>
<path fill="none" stroke="midnightblue" d="M602.257,-168.444C576.629,-159.399 536.015,-145.064 507.262,-134.916"/>
<polygon fill="midnightblue" stroke="midnightblue" points="508.225,-131.544 497.63,-131.516 505.895,-138.145 508.225,-131.544"/>
</g>
<!-- Node11&#45;&gt;Node26 -->
<g id="edge37" class="edge"><title>Node11&#45;&gt;Node26</title>
<path fill="none" stroke="midnightblue" d="M676.921,-171.17C770.427,-160.357 968.906,-137.407 1053.72,-127.6"/>
<polygon fill="midnightblue" stroke="midnightblue" points="1054.19,-131.069 1063.72,-126.443 1053.39,-124.115 1054.19,-131.069"/>
</g>
<!-- Node14&#45;&gt;Node13 -->
<g id="edge19" class="edge"><title>Node14&#45;&gt;Node13</title>
<path fill="none" stroke="midnightblue" d="M591.585,-112.469C556.934,-103.981 502.046,-90.4737 445.663,-76.2778"/>
<polygon fill="midnightblue" stroke="midnightblue" points="446.419,-72.8588 435.867,-73.8079 444.708,-79.6464 446.419,-72.8588"/>
</g>
<!-- Node15 -->
<g id="node15" class="node"><title>Node15</title>
<polygon fill="white" stroke="#bfbfbf" points="454,-56.5 454,-75.5 513,-75.5 513,-56.5 454,-56.5"/>
<text text-anchor="middle" x="483.5" y="-63.5" font-family="Helvetica,sans-Serif" font-size="10.00">exception</text>
</g>
<!-- Node14&#45;&gt;Node15 -->
<g id="edge20" class="edge"><title>Node14&#45;&gt;Node15</title>
<path fill="none" stroke="midnightblue" d="M603.841,-112.444C580.098,-103.478 542.591,-89.314 515.762,-79.1827"/>
<polygon fill="midnightblue" stroke="midnightblue" points="516.644,-75.7749 506.053,-75.5164 514.171,-82.3235 516.644,-75.7749"/>
</g>
<!-- Node16 -->
<g id="node16" class="node"><title>Node16</title>
<polygon fill="white" stroke="#bfbfbf" points="531.5,-56.5 531.5,-75.5 571.5,-75.5 571.5,-56.5 531.5,-56.5"/>
<text text-anchor="middle" x="551.5" y="-63.5" font-family="Helvetica,sans-Serif" font-size="10.00">limits</text>
</g>
<!-- Node14&#45;&gt;Node16 -->
<g id="edge21" class="edge"><title>Node14&#45;&gt;Node16</title>
<path fill="none" stroke="midnightblue" d="M614.45,-112.324C603.037,-104.107 585.669,-91.6017 572.065,-81.8069"/>
<polygon fill="midnightblue" stroke="midnightblue" points="573.93,-78.8366 563.769,-75.8339 569.84,-84.5174 573.93,-78.8366"/>
</g>
<!-- Node17 -->
<g id="node17" class="node"><title>Node17</title>
<polygon fill="white" stroke="#bfbfbf" points="657,-56.5 657,-75.5 698,-75.5 698,-56.5 657,-56.5"/>
<text text-anchor="middle" x="677.5" y="-63.5" font-family="Helvetica,sans-Serif" font-size="10.00">string</text>
</g>
<!-- Node14&#45;&gt;Node17 -->
<g id="edge22" class="edge"><title>Node14&#45;&gt;Node17</title>
<path fill="none" stroke="midnightblue" d="M634.922,-112.083C642.348,-104.22 653.352,-92.5688 662.312,-83.0813"/>
<polygon fill="midnightblue" stroke="midnightblue" points="664.913,-85.4244 669.235,-75.7511 659.824,-80.618 664.913,-85.4244"/>
</g>
<!-- Node18 -->
<g id="node18" class="node"><title>Node18</title>
<polygon fill="white" stroke="#bfbfbf" points="590,-56.5 590,-75.5 639,-75.5 639,-56.5 590,-56.5"/>
<text text-anchor="middle" x="614.5" y="-63.5" font-family="Helvetica,sans-Serif" font-size="10.00">stdint.h</text>
</g>
<!-- Node14&#45;&gt;Node18 -->
<g id="edge23" class="edge"><title>Node14&#45;&gt;Node18</title>
<path fill="none" stroke="midnightblue" d="M624.518,-112.083C622.928,-104.927 620.641,-94.6353 618.654,-85.6911"/>
<polygon fill="midnightblue" stroke="midnightblue" points="622.031,-84.7537 616.445,-75.7511 615.197,-86.2722 622.031,-84.7537"/>
</g>
<!-- Node19&#45;&gt;Node12 -->
<g id="edge27" class="edge"><title>Node19&#45;&gt;Node12</title>
<path fill="none" stroke="midnightblue" d="M787.583,-112.083C779.72,-104.22 768.069,-92.5688 758.581,-83.0813"/>
<polygon fill="midnightblue" stroke="midnightblue" points="760.797,-80.3473 751.251,-75.7511 755.847,-85.2971 760.797,-80.3473"/>
</g>
<!-- Node19&#45;&gt;Node17 -->
<g id="edge25" class="edge"><title>Node19&#45;&gt;Node17</title>
<path fill="none" stroke="midnightblue" d="M777.644,-112.444C758.234,-103.636 727.77,-89.8116 705.535,-79.722"/>
<polygon fill="midnightblue" stroke="midnightblue" points="706.82,-76.4615 696.268,-75.5164 703.928,-82.836 706.82,-76.4615"/>
</g>
<!-- Node20 -->
<g id="node20" class="node"><title>Node20</title>
<polygon fill="white" stroke="#bfbfbf" points="749.5,-0.5 749.5,-19.5 793.5,-19.5 793.5,-0.5 749.5,-0.5"/>
<text text-anchor="middle" x="771.5" y="-7.5" font-family="Helvetica,sans-Serif" font-size="10.00">vector</text>
</g>
<!-- Node19&#45;&gt;Node20 -->
<g id="edge26" class="edge"><title>Node19&#45;&gt;Node20</title>
<path fill="none" stroke="midnightblue" d="M794.538,-112.368C790.504,-94.617 781.197,-53.6664 775.727,-29.5974"/>
<polygon fill="midnightblue" stroke="midnightblue" points="779.082,-28.567 773.453,-19.5914 772.256,-30.1185 779.082,-28.567"/>
</g>
<!-- Node21 -->
<g id="node21" class="node"><title>Node21</title>
<g id="a_node21"><a xlink:href="../../dc/de7/amun_2common_2types_8h.html" target="_top" xlink:title="common/types.h">
<polygon fill="white" stroke="black" points="825,-56.5 825,-75.5 914,-75.5 914,-56.5 825,-56.5"/>
<text text-anchor="middle" x="869.5" y="-63.5" font-family="Helvetica,sans-Serif" font-size="10.00">common/types.h</text>
</a>
</g>
</g>
<!-- Node19&#45;&gt;Node21 -->
<g id="edge28" class="edge"><title>Node19&#45;&gt;Node21</title>
<path fill="none" stroke="midnightblue" d="M808.229,-112.324C819.337,-104.107 836.242,-91.6017 849.483,-81.8069"/>
<polygon fill="midnightblue" stroke="midnightblue" points="851.6,-84.5948 857.558,-75.8339 847.437,-78.9671 851.6,-84.5948"/>
</g>
<!-- Node21&#45;&gt;Node8 -->
<g id="edge32" class="edge"><title>Node21&#45;&gt;Node8</title>
<path fill="none" stroke="midnightblue" d="M885.085,-56.324C900.499,-47.7428 924.312,-34.486 942.21,-24.5224"/>
<polygon fill="midnightblue" stroke="midnightblue" points="943.919,-27.5767 950.954,-19.6545 940.514,-21.4606 943.919,-27.5767"/>
</g>
<!-- Node21&#45;&gt;Node20 -->
<g id="edge31" class="edge"><title>Node21&#45;&gt;Node20</title>
<path fill="none" stroke="midnightblue" d="M853.755,-56.324C838.181,-47.7428 814.123,-34.486 796.041,-24.5224"/>
<polygon fill="midnightblue" stroke="midnightblue" points="797.654,-21.4152 787.206,-19.6545 794.276,-27.546 797.654,-21.4152"/>
</g>
<!-- Node22 -->
<g id="node22" class="node"><title>Node22</title>
<polygon fill="white" stroke="#bfbfbf" points="812,-0.5 812,-19.5 857,-19.5 857,-0.5 812,-0.5"/>
<text text-anchor="middle" x="834.5" y="-7.5" font-family="Helvetica,sans-Serif" font-size="10.00">cstdlib</text>
</g>
<!-- Node21&#45;&gt;Node22 -->
<g id="edge29" class="edge"><title>Node21&#45;&gt;Node22</title>
<path fill="none" stroke="midnightblue" d="M863.72,-56.083C858.828,-48.5341 851.673,-37.4948 845.667,-28.2298"/>
<polygon fill="midnightblue" stroke="midnightblue" points="848.548,-26.239 840.172,-19.7511 842.674,-30.0463 848.548,-26.239"/>
</g>
<!-- Node23 -->
<g id="node23" class="node"><title>Node23</title>
<polygon fill="white" stroke="#bfbfbf" points="875.5,-0.5 875.5,-19.5 921.5,-19.5 921.5,-0.5 875.5,-0.5"/>
<text text-anchor="middle" x="898.5" y="-7.5" font-family="Helvetica,sans-Serif" font-size="10.00">cstdint</text>
</g>
<!-- Node21&#45;&gt;Node23 -->
<g id="edge30" class="edge"><title>Node21&#45;&gt;Node23</title>
<path fill="none" stroke="midnightblue" d="M874.289,-56.083C878.258,-48.6913 884.025,-37.9533 888.935,-28.8111"/>
<polygon fill="midnightblue" stroke="midnightblue" points="892.153,-30.217 893.8,-19.7511 885.986,-26.9051 892.153,-30.217"/>
</g>
<!-- Node24&#45;&gt;Node2 -->
<g id="edge36" class="edge"><title>Node24&#45;&gt;Node2</title>
<path fill="none" stroke="midnightblue" d="M430.428,-113.516C427.071,-112.985 423.732,-112.473 420.5,-112 363.927,-103.723 208.125,-85.0896 119.102,-74.5808"/>
<polygon fill="midnightblue" stroke="midnightblue" points="119.458,-71.0985 109.117,-73.403 118.638,-78.0503 119.458,-71.0985"/>
</g>
<!-- Node24&#45;&gt;Node10 -->
<g id="edge35" class="edge"><title>Node24&#45;&gt;Node10</title>
<path fill="none" stroke="midnightblue" d="M430.386,-112.503C382.348,-103.036 304.636,-87.7203 252.817,-77.5077"/>
<polygon fill="midnightblue" stroke="midnightblue" points="253.303,-74.0362 242.815,-75.5364 251.949,-80.9041 253.303,-74.0362"/>
</g>
<!-- Node25 -->
<g id="node25" class="node"><title>Node25</title>
<polygon fill="white" stroke="#bfbfbf" points="282,-56.5 282,-75.5 365,-75.5 365,-56.5 282,-56.5"/>
<text text-anchor="middle" x="323.5" y="-63.5" font-family="Helvetica,sans-Serif" font-size="10.00">unordered_map</text>
</g>
<!-- Node24&#45;&gt;Node25 -->
<g id="edge34" class="edge"><title>Node24&#45;&gt;Node25</title>
<path fill="none" stroke="midnightblue" d="M449.732,-112.444C424.607,-103.399 384.789,-89.064 356.6,-78.9158"/>
<polygon fill="midnightblue" stroke="midnightblue" points="357.751,-75.6106 347.157,-75.5164 355.38,-82.1968 357.751,-75.6106"/>
</g>
<!-- Node26&#45;&gt;Node5 -->
<g id="edge39" class="edge"><title>Node26&#45;&gt;Node5</title>
<path fill="none" stroke="midnightblue" d="M1079.36,-112.324C1065.63,-103.9 1044.56,-90.9709 1028.44,-81.0741"/>
<polygon fill="midnightblue" stroke="midnightblue" points="1029.96,-77.9016 1019.6,-75.6545 1026.3,-83.8678 1029.96,-77.9016"/>
</g>
<!-- Node27 -->
<g id="node27" class="node"><title>Node27</title>
<polygon fill="white" stroke="#bfbfbf" points="1071.5,-56.5 1071.5,-75.5 1117.5,-75.5 1117.5,-56.5 1071.5,-56.5"/>
<text text-anchor="middle" x="1094.5" y="-63.5" font-family="Helvetica,sans-Serif" font-size="10.00">cuda.h</text>
</g>
<!-- Node26&#45;&gt;Node27 -->
<g id="edge38" class="edge"><title>Node26&#45;&gt;Node27</title>
<path fill="none" stroke="midnightblue" d="M1093.67,-112.083C1093.8,-105.006 1093.98,-94.8611 1094.15,-85.9865"/>
<polygon fill="midnightblue" stroke="midnightblue" points="1097.65,-85.8142 1094.34,-75.7511 1090.65,-85.6845 1097.65,-85.8142"/>
</g>
<!-- Node28&#45;&gt;Node11 -->
<g id="edge41" class="edge"><title>Node28&#45;&gt;Node11</title>
<path fill="none" stroke="midnightblue" d="M934.506,-224.444C866.827,-214.458 755.454,-198.026 686.8,-187.897"/>
<polygon fill="midnightblue" stroke="midnightblue" points="686.981,-184.386 676.577,-186.388 685.959,-191.311 686.981,-184.386"/>
</g>
<!-- Node29 -->
<g id="node29" class="node"><title>Node29</title>
<g id="a_node29"><a xlink:href="../../db/d63/array_8h.html" target="_top" xlink:title="gpu/mblas/array.h">
<polygon fill="white" stroke="black" points="1211,-168.5 1211,-187.5 1306,-187.5 1306,-168.5 1211,-168.5"/>
<text text-anchor="middle" x="1258.5" y="-175.5" font-family="Helvetica,sans-Serif" font-size="10.00">gpu/mblas/array.h</text>
</a>
</g>
</g>
<!-- Node28&#45;&gt;Node29 -->
<g id="edge42" class="edge"><title>Node28&#45;&gt;Node29</title>
<path fill="none" stroke="midnightblue" d="M1034.65,-224.444C1081.25,-214.984 1156.34,-199.738 1206.55,-189.547"/>
<polygon fill="midnightblue" stroke="midnightblue" points="1207.44,-192.936 1216.55,-187.516 1206.05,-186.076 1207.44,-192.936"/>
</g>
<!-- Node29&#45;&gt;Node27 -->
<g id="edge43" class="edge"><title>Node29&#45;&gt;Node27</title>
<path fill="none" stroke="midnightblue" d="M1260.83,-168.309C1263.92,-154.685 1267.57,-128.188 1254.5,-112 1238.67,-92.3865 1169.94,-78.5863 1127.88,-71.7988"/>
<polygon fill="midnightblue" stroke="midnightblue" points="1128.22,-68.3111 1117.8,-70.2251 1127.14,-75.2272 1128.22,-68.3111"/>
</g>
<!-- Node30 -->
<g id="node30" class="node"><title>Node30</title>
<polygon fill="white" stroke="#bfbfbf" points="1141.5,-112.5 1141.5,-131.5 1245.5,-131.5 1245.5,-112.5 1141.5,-112.5"/>
<text text-anchor="middle" x="1193.5" y="-119.5" font-family="Helvetica,sans-Serif" font-size="10.00">thrust/host_vector.h</text>
</g>
<!-- Node29&#45;&gt;Node30 -->
<g id="edge44" class="edge"><title>Node29&#45;&gt;Node30</title>
<path fill="none" stroke="midnightblue" d="M1248.06,-168.324C1238.35,-160.263 1223.68,-148.077 1212,-138.369"/>
<polygon fill="midnightblue" stroke="midnightblue" points="1214.06,-135.532 1204.13,-131.834 1209.59,-140.916 1214.06,-135.532"/>
</g>
<!-- Node31&#45;&gt;Node28 -->
<g id="edge47" class="edge"><title>Node31&#45;&gt;Node28</title>
<path fill="none" stroke="midnightblue" d="M926.118,-280.399C939.803,-271.04 957.711,-258.792 971.478,-249.377"/>
<polygon fill="midnightblue" stroke="midnightblue" points="973.562,-252.192 979.841,-243.658 969.611,-246.414 973.562,-252.192"/>
</g>
<!-- Node32&#45;&gt;Node3 -->
<g id="edge51" class="edge"><title>Node32&#45;&gt;Node3</title>
<path fill="none" stroke="midnightblue" d="M1069.94,-459.46C1006.9,-439.926 852.107,-391.963 780.265,-369.702"/>
<polygon fill="midnightblue" stroke="midnightblue" points="780.876,-366.227 770.288,-366.61 778.804,-372.913 780.876,-366.227"/>
</g>
<!-- Node32&#45;&gt;Node26 -->
<g id="edge53" class="edge"><title>Node32&#45;&gt;Node26</title>
<path fill="none" stroke="midnightblue" d="M1104.04,-459.413C1116.95,-441.56 1144.5,-398.704 1144.5,-358 1144.5,-358 1144.5,-358 1144.5,-233 1144.5,-197.244 1122.05,-160.508 1106.94,-139.836"/>
<polygon fill="midnightblue" stroke="midnightblue" points="1109.64,-137.614 1100.81,-131.769 1104.07,-141.849 1109.64,-137.614"/>
</g>
<!-- Node32&#45;&gt;Node28 -->
<g id="edge52" class="edge"><title>Node32&#45;&gt;Node28</title>
<path fill="none" stroke="midnightblue" d="M1097.04,-459.39C1096.16,-446.757 1093.76,-422.573 1087.5,-403 1068.84,-344.695 1057.49,-332.196 1025.5,-280 1019.55,-270.294 1012.11,-260.018 1005.8,-251.74"/>
<polygon fill="midnightblue" stroke="midnightblue" points="1008.42,-249.41 999.524,-243.663 1002.9,-253.706 1008.42,-249.41"/>
</g>
<!-- Node32&#45;&gt;Node33 -->
<g id="edge54" class="edge"><title>Node32&#45;&gt;Node33</title>
<path fill="none" stroke="midnightblue" d="M1089.24,-459.083C1082.04,-451.298 1071.39,-439.801 1062.65,-430.367"/>
<polygon fill="midnightblue" stroke="midnightblue" points="1064.97,-427.711 1055.6,-422.751 1059.83,-432.467 1064.97,-427.711"/>
</g>
<!-- Node33&#45;&gt;Node3 -->
<g id="edge55" class="edge"><title>Node33&#45;&gt;Node3</title>
<path fill="none" stroke="midnightblue" d="M1016.29,-406.475C965.637,-397.506 864.732,-379.641 800.581,-368.283"/>
<polygon fill="midnightblue" stroke="midnightblue" points="801.071,-364.816 790.614,-366.519 799.851,-371.708 801.071,-364.816"/>
</g>
<!-- Node33&#45;&gt;Node26 -->
<g id="edge57" class="edge"><title>Node33&#45;&gt;Node26</title>
<path fill="none" stroke="midnightblue" d="M1048.88,-403.351C1055.21,-363.548 1081.63,-197.555 1090.55,-141.548"/>
<polygon fill="midnightblue" stroke="midnightblue" points="1094.01,-142.041 1092.13,-131.615 1087.1,-140.941 1094.01,-142.041"/>
</g>
<!-- Node33&#45;&gt;Node28 -->
<g id="edge56" class="edge"><title>Node33&#45;&gt;Node28</title>
<path fill="none" stroke="midnightblue" d="M1044.82,-403.351C1038.27,-382.263 1020.96,-326.518 1006.5,-280 1003.76,-271.199 1000.73,-261.431 998.18,-253.251"/>
<polygon fill="midnightblue" stroke="midnightblue" points="1001.5,-252.135 995.185,-243.626 994.815,-254.215 1001.5,-252.135"/>
</g>
</g>
</svg>
