<?xml version="1.0" encoding="UTF-8" standalone="no"?>
<!DOCTYPE svg PUBLIC "-//W3C//DTD SVG 1.1//EN"
 "http://www.w3.org/Graphics/SVG/1.1/DTD/svg11.dtd">
<!-- Generated by graphviz version 2.38.0 (20140413.2041)
 -->
<!-- Title: amunmt::BPE Pages: 1 -->
<svg width="535pt" height="453pt"
 viewBox="0.00 0.00 534.50 453.00" xmlns="http://www.w3.org/2000/svg" xmlns:xlink="http://www.w3.org/1999/xlink">
<g id="graph0" class="graph" transform="scale(1 1) rotate(0) translate(4 449)">
<title>amunmt::BPE</title>
<polygon fill="white" stroke="none" points="-4,4 -4,-449 530.5,-449 530.5,4 -4,4"/>
<!-- Node1 -->
<g id="node1" class="node"><title>Node1</title>
<polygon fill="#bfbfbf" stroke="black" points="256,-0.5 256,-211.5 374,-211.5 374,-0.5 256,-0.5"/>
<text text-anchor="middle" x="315" y="-199.5" font-family="Helvetica,sans-Serif" font-size="10.00">amunmt::BPE</text>
<polyline fill="none" stroke="black" points="256,-192.5 374,-192.5 "/>
<text text-anchor="middle" x="315" y="-180.5" font-family="Helvetica,sans-Serif" font-size="10.00"> </text>
<polyline fill="none" stroke="black" points="256,-173.5 374,-173.5 "/>
<text text-anchor="start" x="264" y="-161.5" font-family="Helvetica,sans-Serif" font-size="10.00">+ BPE()</text>
<text text-anchor="start" x="264" y="-150.5" font-family="Helvetica,sans-Serif" font-size="10.00">+ BPE()</text>
<text text-anchor="start" x="264" y="-139.5" font-family="Helvetica,sans-Serif" font-size="10.00">+ BPE()</text>
<text text-anchor="start" x="264" y="-128.5" font-family="Helvetica,sans-Serif" font-size="10.00">+ Segment()</text>
<text text-anchor="start" x="264" y="-117.5" font-family="Helvetica,sans-Serif" font-size="10.00">+ PrintSegment()</text>
<text text-anchor="start" x="264" y="-106.5" font-family="Helvetica,sans-Serif" font-size="10.00">+ Encode()</text>
<text text-anchor="start" x="264" y="-95.5" font-family="Helvetica,sans-Serif" font-size="10.00">+ Encode()</text>
<text text-anchor="start" x="264" y="-84.5" font-family="Helvetica,sans-Serif" font-size="10.00">+ Preprocess()</text>
<text text-anchor="start" x="264" y="-73.5" font-family="Helvetica,sans-Serif" font-size="10.00">+ Postprocess()</text>
<text text-anchor="start" x="264" y="-62.5" font-family="Helvetica,sans-Serif" font-size="10.00">+ ~BPE()</text>
<text text-anchor="start" x="264" y="-51.5" font-family="Helvetica,sans-Serif" font-size="10.00">&#45; GetPairs()</text>
<text text-anchor="start" x="264" y="-40.5" font-family="Helvetica,sans-Serif" font-size="10.00">&#45; FindBestBigram()</text>
<text text-anchor="start" x="264" y="-29.5" font-family="Helvetica,sans-Serif" font-size="10.00">&#45; IsCached()</text>
<text text-anchor="start" x="264" y="-18.5" font-family="Helvetica,sans-Serif" font-size="10.00">&#45; SplitWordIntoLetters()</text>
<text text-anchor="start" x="264" y="-7.5" font-family="Helvetica,sans-Serif" font-size="10.00">&#45; EndsWith()</text>
</g>
<!-- Node2 -->
<g id="node2" class="node"><title>Node2</title>
<g id="a_node2"><a xlink:href="$d1/db0/classamunmt_1_1Processor.html" xlink:title="{amunmt::Processor\n||+ ~Processor()\l}">
<polygon fill="white" stroke="black" points="75,-270.5 75,-327.5 177,-327.5 177,-270.5 75,-270.5"/>
<text text-anchor="middle" x="126" y="-315.5" font-family="Helvetica,sans-Serif" font-size="10.00">amunmt::Processor</text>
<polyline fill="none" stroke="black" points="75,-308.5 177,-308.5 "/>
<text text-anchor="middle" x="126" y="-296.5" font-family="Helvetica,sans-Serif" font-size="10.00"> </text>
<polyline fill="none" stroke="black" points="75,-289.5 177,-289.5 "/>
<text text-anchor="start" x="83" y="-277.5" font-family="Helvetica,sans-Serif" font-size="10.00">+ ~Processor()</text>
</a>
</g>
</g>
<!-- Node2&#45;&gt;Node1 -->
<g id="edge1" class="edge"><title>Node2&#45;&gt;Node1</title>
<path fill="none" stroke="midnightblue" d="M160.684,-262.949C187.274,-236.077 224.594,-198.362 255.873,-166.753"/>
<polygon fill="none" stroke="midnightblue" points="158.028,-260.657 153.482,-270.227 163.004,-265.581 158.028,-260.657"/>
</g>
<!-- Node3 -->
<g id="node3" class="node"><title>Node3</title>
<g id="a_node3"><a xlink:href="$d1/db9/classamunmt_1_1Preprocessor.html" xlink:title="{amunmt::Preprocessor\n||+ Preprocess()\l+ ~Preprocessor()\l}">
<polygon fill="white" stroke="black" points="0,-376.5 0,-444.5 116,-444.5 116,-376.5 0,-376.5"/>
<text text-anchor="middle" x="58" y="-432.5" font-family="Helvetica,sans-Serif" font-size="10.00">amunmt::Preprocessor</text>
<polyline fill="none" stroke="black" points="0,-425.5 116,-425.5 "/>
<text text-anchor="middle" x="58" y="-413.5" font-family="Helvetica,sans-Serif" font-size="10.00"> </text>
<polyline fill="none" stroke="black" points="0,-406.5 116,-406.5 "/>
<text text-anchor="start" x="8" y="-394.5" font-family="Helvetica,sans-Serif" font-size="10.00">+ Preprocess()</text>
<text text-anchor="start" x="8" y="-383.5" font-family="Helvetica,sans-Serif" font-size="10.00">+ ~Preprocessor()</text>
</a>
</g>
</g>
<!-- Node3&#45;&gt;Node2 -->
<g id="edge2" class="edge"><title>Node3&#45;&gt;Node2</title>
<path fill="none" stroke="midnightblue" d="M83.9575,-367.701C92.316,-354.241 101.362,-339.674 108.915,-327.512"/>
<polygon fill="none" stroke="midnightblue" points="80.8891,-366.008 78.5868,-376.349 86.8357,-369.7 80.8891,-366.008"/>
</g>
<!-- Node4 -->
<g id="node4" class="node"><title>Node4</title>
<g id="a_node4"><a xlink:href="$d1/dbc/classamunmt_1_1Postprocessor.html" xlink:title="{amunmt::Postprocessor\n||+ Postprocess()\l+ ~Postprocessor()\l}">
<polygon fill="white" stroke="black" points="134.5,-376.5 134.5,-444.5 255.5,-444.5 255.5,-376.5 134.5,-376.5"/>
<text text-anchor="middle" x="195" y="-432.5" font-family="Helvetica,sans-Serif" font-size="10.00">amunmt::Postprocessor</text>
<polyline fill="none" stroke="black" points="134.5,-425.5 255.5,-425.5 "/>
<text text-anchor="middle" x="195" y="-413.5" font-family="Helvetica,sans-Serif" font-size="10.00"> </text>
<polyline fill="none" stroke="black" points="134.5,-406.5 255.5,-406.5 "/>
<text text-anchor="start" x="142.5" y="-394.5" font-family="Helvetica,sans-Serif" font-size="10.00">+ Postprocess()</text>
<text text-anchor="start" x="142.5" y="-383.5" font-family="Helvetica,sans-Serif" font-size="10.00">+ ~Postprocessor()</text>
</a>
</g>
</g>
<!-- Node4&#45;&gt;Node2 -->
<g id="edge3" class="edge"><title>Node4&#45;&gt;Node2</title>
<path fill="none" stroke="midnightblue" d="M168.661,-367.701C160.179,-354.241 151,-339.674 143.336,-327.512"/>
<polygon fill="none" stroke="midnightblue" points="165.818,-369.755 174.11,-376.349 171.74,-366.023 165.818,-369.755"/>
</g>
<!-- Node5 -->
<g id="node5" class="node"><title>Node5</title>
<polygon fill="white" stroke="#bfbfbf" points="195,-259.5 195,-338.5 309,-338.5 309,-259.5 195,-259.5"/>
<text text-anchor="start" x="203" y="-326.5" font-family="Helvetica,sans-Serif" font-size="10.00">std::unordered_map</text>
<text text-anchor="start" x="203" y="-315.5" font-family="Helvetica,sans-Serif" font-size="10.00">&lt; std::string, std::</text>
<text text-anchor="middle" x="252" y="-304.5" font-family="Helvetica,sans-Serif" font-size="10.00">vector&lt; std::string &gt; &gt;</text>
<polyline fill="none" stroke="#bfbfbf" points="195,-297.5 309,-297.5 "/>
<text text-anchor="middle" x="252" y="-285.5" font-family="Helvetica,sans-Serif" font-size="10.00"> </text>
<polyline fill="none" stroke="#bfbfbf" points="195,-278.5 309,-278.5 "/>
<text text-anchor="middle" x="252" y="-266.5" font-family="Helvetica,sans-Serif" font-size="10.00"> </text>
</g>
<!-- Node5&#45;&gt;Node1 -->
<g id="edge4" class="edge"><title>Node5&#45;&gt;Node1</title>
<path fill="none" stroke="#404040" d="M264.749,-259.348C268.336,-248.472 272.434,-236.05 276.706,-223.097"/>
<polygon fill="none" stroke="#404040" points="276.739,-222.999 274.819,-216.048 280.498,-211.603 282.417,-218.554 276.739,-222.999"/>
<text text-anchor="middle" x="294" y="-233" font-family="Helvetica,sans-Serif" font-size="10.00"> &#45;cache_</text>
</g>
<!-- Node6 -->
<g id="node6" class="node"><title>Node6</title>
<polygon fill="white" stroke="#bfbfbf" points="327,-265 327,-333 431,-333 431,-265 327,-265"/>
<text text-anchor="start" x="335" y="-321" font-family="Helvetica,sans-Serif" font-size="10.00">std::unordered_map</text>
<text text-anchor="middle" x="379" y="-310" font-family="Helvetica,sans-Serif" font-size="10.00">&lt; BPEPair, size_t &gt;</text>
<polyline fill="none" stroke="#bfbfbf" points="327,-303 431,-303 "/>
<text text-anchor="middle" x="379" y="-291" font-family="Helvetica,sans-Serif" font-size="10.00"> </text>
<polyline fill="none" stroke="#bfbfbf" points="327,-284 431,-284 "/>
<text text-anchor="middle" x="379" y="-272" font-family="Helvetica,sans-Serif" font-size="10.00"> </text>
</g>
<!-- Node6&#45;&gt;Node1 -->
<g id="edge5" class="edge"><title>Node6&#45;&gt;Node1</title>
<path fill="none" stroke="#404040" d="M367.852,-264.73C363.828,-252.721 359.025,-238.387 353.978,-223.326"/>
<polygon fill="none" stroke="#404040" points="353.893,-223.072 348.194,-218.654 350.081,-211.694 355.78,-216.112 353.893,-223.072"/>
<text text-anchor="middle" x="387" y="-233" font-family="Helvetica,sans-Serif" font-size="10.00"> &#45;bpeCodes_</text>
</g>
<!-- Node7 -->
<g id="node7" class="node"><title>Node7</title>
<g id="a_node7"><a xlink:title="STL class. ">
<polygon fill="white" stroke="#bfbfbf" points="449,-270.5 449,-327.5 509,-327.5 509,-270.5 449,-270.5"/>
<text text-anchor="middle" x="479" y="-315.5" font-family="Helvetica,sans-Serif" font-size="10.00">std::string</text>
<polyline fill="none" stroke="#bfbfbf" points="449,-308.5 509,-308.5 "/>
<text text-anchor="middle" x="479" y="-296.5" font-family="Helvetica,sans-Serif" font-size="10.00"> </text>
<polyline fill="none" stroke="#bfbfbf" points="449,-289.5 509,-289.5 "/>
<text text-anchor="middle" x="479" y="-277.5" font-family="Helvetica,sans-Serif" font-size="10.00"> </text>
</a>
</g>
</g>
<!-- Node7&#45;&gt;Node1 -->
<g id="edge6" class="edge"><title>Node7&#45;&gt;Node1</title>
<path fill="none" stroke="#404040" d="M455.153,-270.227C435.992,-247.911 408.102,-215.43 382.239,-185.309"/>
<polygon fill="none" stroke="#404040" points="382.107,-185.155 375.163,-183.208 374.289,-176.05 381.233,-177.997 382.107,-185.155"/>
<text text-anchor="middle" x="440" y="-233" font-family="Helvetica,sans-Serif" font-size="10.00"> &#45;sep_</text>
</g>
<!-- Node8 -->
<g id="node8" class="node"><title>Node8</title>
<polygon fill="white" stroke="#bfbfbf" points="431.5,-376.5 431.5,-444.5 526.5,-444.5 526.5,-376.5 431.5,-376.5"/>
<text text-anchor="start" x="439.5" y="-432.5" font-family="Helvetica,sans-Serif" font-size="10.00">std::basic_string&lt;</text>
<text text-anchor="middle" x="479" y="-421.5" font-family="Helvetica,sans-Serif" font-size="10.00"> char &gt;</text>
<polyline fill="none" stroke="#bfbfbf" points="431.5,-414.5 526.5,-414.5 "/>
<text text-anchor="middle" x="479" y="-402.5" font-family="Helvetica,sans-Serif" font-size="10.00"> </text>
<polyline fill="none" stroke="#bfbfbf" points="431.5,-395.5 526.5,-395.5 "/>
<text text-anchor="middle" x="479" y="-383.5" font-family="Helvetica,sans-Serif" font-size="10.00"> </text>
</g>
<!-- Node8&#45;&gt;Node7 -->
<g id="edge7" class="edge"><title>Node8&#45;&gt;Node7</title>
<path fill="none" stroke="midnightblue" d="M479,-366.158C479,-353.135 479,-339.21 479,-327.512"/>
<polygon fill="none" stroke="midnightblue" points="475.5,-366.349 479,-376.349 482.5,-366.349 475.5,-366.349"/>
</g>
</g>
</svg>
