<?xml version="1.0" encoding="UTF-8" standalone="no"?>
<!DOCTYPE svg PUBLIC "-//W3C//DTD SVG 1.1//EN"
 "http://www.w3.org/Graphics/SVG/1.1/DTD/svg11.dtd">
<!-- Generated by graphviz version 2.38.0 (20140413.2041)
 -->
<!-- Title: amunmt::MosesPlugin Pages: 1 -->
<svg width="1371pt" height="1051pt"
 viewBox="0.00 0.00 1370.50 1051.00" xmlns="http://www.w3.org/2000/svg" xmlns:xlink="http://www.w3.org/1999/xlink">
<g id="graph0" class="graph" transform="scale(1 1) rotate(0) translate(4 1047)">
<title>amunmt::MosesPlugin</title>
<polygon fill="white" stroke="none" points="-4,4 -4,-1047 1366.5,-1047 1366.5,4 -4,4"/>
<!-- Node1 -->
<g id="node1" class="node"><title>Node1</title>
<polygon fill="#bfbfbf" stroke="black" points="620.5,-0.5 620.5,-134.5 734.5,-134.5 734.5,-0.5 620.5,-0.5"/>
<text text-anchor="middle" x="677.5" y="-122.5" font-family="Helvetica,sans-Serif" font-size="10.00">amunmt::MosesPlugin</text>
<polyline fill="none" stroke="black" points="620.5,-115.5 734.5,-115.5 "/>
<text text-anchor="middle" x="677.5" y="-103.5" font-family="Helvetica,sans-Serif" font-size="10.00"> </text>
<polyline fill="none" stroke="black" points="620.5,-96.5 734.5,-96.5 "/>
<text text-anchor="start" x="628.5" y="-84.5" font-family="Helvetica,sans-Serif" font-size="10.00">+ MosesPlugin()</text>
<text text-anchor="start" x="628.5" y="-73.5" font-family="Helvetica,sans-Serif" font-size="10.00">+ ~MosesPlugin()</text>
<text text-anchor="start" x="628.5" y="-62.5" font-family="Helvetica,sans-Serif" font-size="10.00">+ SetDevice()</text>
<text text-anchor="start" x="628.5" y="-51.5" font-family="Helvetica,sans-Serif" font-size="10.00">+ GetDevice()</text>
<text text-anchor="start" x="628.5" y="-40.5" font-family="Helvetica,sans-Serif" font-size="10.00">+ GetGod()</text>
<text text-anchor="start" x="628.5" y="-29.5" font-family="Helvetica,sans-Serif" font-size="10.00">+ initGod()</text>
<text text-anchor="start" x="628.5" y="-18.5" font-family="Helvetica,sans-Serif" font-size="10.00">+ SetSource()</text>
<text text-anchor="start" x="628.5" y="-7.5" font-family="Helvetica,sans-Serif" font-size="10.00">+ Score()</text>
</g>
<!-- Node2 -->
<g id="node2" class="node"><title>Node2</title>
<g id="a_node2"><a xlink:href="$d7/d4e/classamunmt_1_1God.html" xlink:title="{amunmt::God\n|&#45; filter_\l&#45; info_\l&#45; progress_\l&#45; threadIncr_\l&#45; accessLock_\l&#45; returnNBestList_\l&#45; useFusedSoftmax_\l|+ God()\l+ ~God()\l+ Init()\l+ Init()\l+ Cleanup()\l+ Has()\l+ Get()\l+ Get()\l+ GetSourceVocab()\l+ GetTargetVocab()\land 16 more...\l&#45; LoadScorers()\l&#45; LoadFiltering()\l&#45; LoadPrePostProcessing()\l}">
<polygon fill="white" stroke="black" points="610.5,-182.5 610.5,-448.5 744.5,-448.5 744.5,-182.5 610.5,-182.5"/>
<text text-anchor="middle" x="677.5" y="-436.5" font-family="Helvetica,sans-Serif" font-size="10.00">amunmt::God</text>
<polyline fill="none" stroke="black" points="610.5,-429.5 744.5,-429.5 "/>
<text text-anchor="start" x="618.5" y="-417.5" font-family="Helvetica,sans-Serif" font-size="10.00">&#45; filter_</text>
<text text-anchor="start" x="618.5" y="-406.5" font-family="Helvetica,sans-Serif" font-size="10.00">&#45; info_</text>
<text text-anchor="start" x="618.5" y="-395.5" font-family="Helvetica,sans-Serif" font-size="10.00">&#45; progress_</text>
<text text-anchor="start" x="618.5" y="-384.5" font-family="Helvetica,sans-Serif" font-size="10.00">&#45; threadIncr_</text>
<text text-anchor="start" x="618.5" y="-373.5" font-family="Helvetica,sans-Serif" font-size="10.00">&#45; accessLock_</text>
<text text-anchor="start" x="618.5" y="-362.5" font-family="Helvetica,sans-Serif" font-size="10.00">&#45; returnNBestList_</text>
<text text-anchor="start" x="618.5" y="-351.5" font-family="Helvetica,sans-Serif" font-size="10.00">&#45; useFusedSoftmax_</text>
<polyline fill="none" stroke="black" points="610.5,-344.5 744.5,-344.5 "/>
<text text-anchor="start" x="618.5" y="-332.5" font-family="Helvetica,sans-Serif" font-size="10.00">+ God()</text>
<text text-anchor="start" x="618.5" y="-321.5" font-family="Helvetica,sans-Serif" font-size="10.00">+ ~God()</text>
<text text-anchor="start" x="618.5" y="-310.5" font-family="Helvetica,sans-Serif" font-size="10.00">+ Init()</text>
<text text-anchor="start" x="618.5" y="-299.5" font-family="Helvetica,sans-Serif" font-size="10.00">+ Init()</text>
<text text-anchor="start" x="618.5" y="-288.5" font-family="Helvetica,sans-Serif" font-size="10.00">+ Cleanup()</text>
<text text-anchor="start" x="618.5" y="-277.5" font-family="Helvetica,sans-Serif" font-size="10.00">+ Has()</text>
<text text-anchor="start" x="618.5" y="-266.5" font-family="Helvetica,sans-Serif" font-size="10.00">+ Get()</text>
<text text-anchor="start" x="618.5" y="-255.5" font-family="Helvetica,sans-Serif" font-size="10.00">+ Get()</text>
<text text-anchor="start" x="618.5" y="-244.5" font-family="Helvetica,sans-Serif" font-size="10.00">+ GetSourceVocab()</text>
<text text-anchor="start" x="618.5" y="-233.5" font-family="Helvetica,sans-Serif" font-size="10.00">+ GetTargetVocab()</text>
<text text-anchor="start" x="618.5" y="-222.5" font-family="Helvetica,sans-Serif" font-size="10.00">and 16 more...</text>
<text text-anchor="start" x="618.5" y="-211.5" font-family="Helvetica,sans-Serif" font-size="10.00">&#45; LoadScorers()</text>
<text text-anchor="start" x="618.5" y="-200.5" font-family="Helvetica,sans-Serif" font-size="10.00">&#45; LoadFiltering()</text>
<text text-anchor="start" x="618.5" y="-189.5" font-family="Helvetica,sans-Serif" font-size="10.00">&#45; LoadPrePostProcessing()</text>
</a>
</g>
</g>
<!-- Node2&#45;&gt;Node1 -->
<g id="edge1" class="edge"><title>Node2&#45;&gt;Node1</title>
<path fill="none" stroke="#404040" d="M677.5,-182.498C677.5,-170.361 677.5,-158.342 677.5,-146.916"/>
<polygon fill="none" stroke="#404040" points="677.5,-146.773 673.5,-140.773 677.5,-134.773 681.5,-140.773 677.5,-146.773"/>
<text text-anchor="middle" x="691.5" y="-156" font-family="Helvetica,sans-Serif" font-size="10.00"> &#45;god_</text>
</g>
<!-- Node3 -->
<g id="node3" class="node"><title>Node3</title>
<polygon fill="white" stroke="#bfbfbf" points="0,-540.5 0,-608.5 135,-608.5 135,-540.5 0,-540.5"/>
<text text-anchor="start" x="8" y="-596.5" font-family="Helvetica,sans-Serif" font-size="10.00">std::vector&lt; Postprocessor</text>
<text text-anchor="middle" x="67.5" y="-585.5" font-family="Helvetica,sans-Serif" font-size="10.00">Ptr &gt;</text>
<polyline fill="none" stroke="#bfbfbf" points="0,-578.5 135,-578.5 "/>
<text text-anchor="middle" x="67.5" y="-566.5" font-family="Helvetica,sans-Serif" font-size="10.00"> </text>
<polyline fill="none" stroke="#bfbfbf" points="0,-559.5 135,-559.5 "/>
<text text-anchor="middle" x="67.5" y="-547.5" font-family="Helvetica,sans-Serif" font-size="10.00"> </text>
</g>
<!-- Node3&#45;&gt;Node2 -->
<g id="edge2" class="edge"><title>Node3&#45;&gt;Node2</title>
<path fill="none" stroke="#404040" d="M107.565,-540.465C137.251,-517.31 179.501,-487.037 220.5,-467 347.039,-405.158 505.137,-359.492 598.331,-335.521"/>
<polygon fill="none" stroke="#404040" points="598.575,-335.458 603.401,-330.1 610.203,-332.494 605.377,-337.852 598.575,-335.458"/>
<text text-anchor="middle" x="260" y="-481" font-family="Helvetica,sans-Serif" font-size="10.00"> &#45;postprocessors_</text>
</g>
<!-- Node4 -->
<g id="node4" class="node"><title>Node4</title>
<polygon fill="white" stroke="#bfbfbf" points="153.5,-540.5 153.5,-608.5 263.5,-608.5 263.5,-540.5 153.5,-540.5"/>
<text text-anchor="start" x="161.5" y="-596.5" font-family="Helvetica,sans-Serif" font-size="10.00">std::map&lt; std::string,</text>
<text text-anchor="middle" x="208.5" y="-585.5" font-family="Helvetica,sans-Serif" font-size="10.00"> LoaderPtr &gt;</text>
<polyline fill="none" stroke="#bfbfbf" points="153.5,-578.5 263.5,-578.5 "/>
<text text-anchor="middle" x="208.5" y="-566.5" font-family="Helvetica,sans-Serif" font-size="10.00"> </text>
<polyline fill="none" stroke="#bfbfbf" points="153.5,-559.5 263.5,-559.5 "/>
<text text-anchor="middle" x="208.5" y="-547.5" font-family="Helvetica,sans-Serif" font-size="10.00"> </text>
</g>
<!-- Node4&#45;&gt;Node2 -->
<g id="edge3" class="edge"><title>Node4&#45;&gt;Node2</title>
<path fill="none" stroke="#404040" d="M244.414,-540.273C253.328,-532.618 263.043,-524.749 272.5,-518 377.468,-443.092 514.402,-381.378 599.11,-346.751"/>
<polygon fill="none" stroke="#404040" points="599.332,-346.661 603.388,-340.699 610.452,-342.149 606.396,-348.112 599.332,-346.661"/>
<text text-anchor="middle" x="376.5" y="-492" font-family="Helvetica,sans-Serif" font-size="10.00"> &#45;gpuLoaders_</text>
<text text-anchor="middle" x="376.5" y="-481" font-family="Helvetica,sans-Serif" font-size="10.00">&#45;fpgaLoaders_</text>
<text text-anchor="middle" x="376.5" y="-470" font-family="Helvetica,sans-Serif" font-size="10.00">&#45;cpuLoaders_</text>
</g>
<!-- Node5 -->
<g id="node5" class="node"><title>Node5</title>
<polygon fill="white" stroke="#bfbfbf" points="282,-540.5 282,-608.5 401,-608.5 401,-540.5 282,-540.5"/>
<text text-anchor="start" x="290" y="-596.5" font-family="Helvetica,sans-Serif" font-size="10.00">std::vector&lt; std::vector</text>
<text text-anchor="middle" x="341.5" y="-585.5" font-family="Helvetica,sans-Serif" font-size="10.00">&lt; PreprocessorPtr &gt; &gt;</text>
<polyline fill="none" stroke="#bfbfbf" points="282,-578.5 401,-578.5 "/>
<text text-anchor="middle" x="341.5" y="-566.5" font-family="Helvetica,sans-Serif" font-size="10.00"> </text>
<polyline fill="none" stroke="#bfbfbf" points="282,-559.5 401,-559.5 "/>
<text text-anchor="middle" x="341.5" y="-547.5" font-family="Helvetica,sans-Serif" font-size="10.00"> </text>
</g>
<!-- Node5&#45;&gt;Node2 -->
<g id="edge4" class="edge"><title>Node5&#45;&gt;Node2</title>
<path fill="none" stroke="#404040" d="M377.839,-540.371C401.915,-518.842 434.478,-490.511 464.5,-467 508.3,-432.698 559.123,-396.654 600.137,-368.442"/>
<polygon fill="none" stroke="#404040" points="600.176,-368.415 602.862,-361.723 610.072,-361.629 607.386,-368.321 600.176,-368.415"/>
<text text-anchor="middle" x="501" y="-481" font-family="Helvetica,sans-Serif" font-size="10.00"> &#45;preprocessors_</text>
</g>
<!-- Node6 -->
<g id="node6" class="node"><title>Node6</title>
<polygon fill="white" stroke="#bfbfbf" points="419,-540.5 419,-608.5 548,-608.5 548,-540.5 419,-540.5"/>
<text text-anchor="start" x="427" y="-596.5" font-family="Helvetica,sans-Serif" font-size="10.00">std::vector&lt; std::unique</text>
<text text-anchor="middle" x="483.5" y="-585.5" font-family="Helvetica,sans-Serif" font-size="10.00">_ptr&lt; amunmt::Vocab &gt; &gt;</text>
<polyline fill="none" stroke="#bfbfbf" points="419,-578.5 548,-578.5 "/>
<text text-anchor="middle" x="483.5" y="-566.5" font-family="Helvetica,sans-Serif" font-size="10.00"> </text>
<polyline fill="none" stroke="#bfbfbf" points="419,-559.5 548,-559.5 "/>
<text text-anchor="middle" x="483.5" y="-547.5" font-family="Helvetica,sans-Serif" font-size="10.00"> </text>
</g>
<!-- Node6&#45;&gt;Node2 -->
<g id="edge5" class="edge"><title>Node6&#45;&gt;Node2</title>
<path fill="none" stroke="#404040" d="M508.465,-540.428C532.348,-508.789 569.578,-459.469 603.026,-415.159"/>
<polygon fill="none" stroke="#404040" points="603.091,-415.073 603.513,-407.874 610.321,-405.495 609.898,-412.694 603.091,-415.073"/>
<text text-anchor="middle" x="600.5" y="-481" font-family="Helvetica,sans-Serif" font-size="10.00"> &#45;sourceVocabs_</text>
</g>
<!-- Node7 -->
<g id="node7" class="node"><title>Node7</title>
<polygon fill="white" stroke="#bfbfbf" points="566,-540.5 566,-608.5 691,-608.5 691,-540.5 566,-540.5"/>
<text text-anchor="start" x="574" y="-596.5" font-family="Helvetica,sans-Serif" font-size="10.00">std::unique_ptr&lt; amunmt</text>
<text text-anchor="middle" x="628.5" y="-585.5" font-family="Helvetica,sans-Serif" font-size="10.00">::ThreadPool &gt;</text>
<polyline fill="none" stroke="#bfbfbf" points="566,-578.5 691,-578.5 "/>
<text text-anchor="middle" x="628.5" y="-566.5" font-family="Helvetica,sans-Serif" font-size="10.00"> </text>
<polyline fill="none" stroke="#bfbfbf" points="566,-559.5 691,-559.5 "/>
<text text-anchor="middle" x="628.5" y="-547.5" font-family="Helvetica,sans-Serif" font-size="10.00"> </text>
</g>
<!-- Node7&#45;&gt;Node2 -->
<g id="edge6" class="edge"><title>Node7&#45;&gt;Node2</title>
<path fill="none" stroke="#404040" d="M634.806,-540.428C638.81,-519.424 644.301,-490.626 650.011,-460.676"/>
<polygon fill="none" stroke="#404040" points="650.046,-460.491 647.241,-453.848 652.294,-448.703 655.099,-455.346 650.046,-460.491"/>
<text text-anchor="middle" x="664.5" y="-481" font-family="Helvetica,sans-Serif" font-size="10.00"> &#45;pool_</text>
</g>
<!-- Node8 -->
<g id="node8" class="node"><title>Node8</title>
<g id="a_node8"><a xlink:href="$dd/d77/classamunmt_1_1OutputCollector.html" xlink:title="{amunmt::OutputCollector\n|# mutex_\l# nextId_\l|+ OutputCollector()\l+ OutputCollector()\l+ Write()\l}">
<polygon fill="white" stroke="black" points="709.5,-529.5 709.5,-619.5 835.5,-619.5 835.5,-529.5 709.5,-529.5"/>
<text text-anchor="middle" x="772.5" y="-607.5" font-family="Helvetica,sans-Serif" font-size="10.00">amunmt::OutputCollector</text>
<polyline fill="none" stroke="black" points="709.5,-600.5 835.5,-600.5 "/>
<text text-anchor="start" x="717.5" y="-588.5" font-family="Helvetica,sans-Serif" font-size="10.00"># mutex_</text>
<text text-anchor="start" x="717.5" y="-577.5" font-family="Helvetica,sans-Serif" font-size="10.00"># nextId_</text>
<polyline fill="none" stroke="black" points="709.5,-570.5 835.5,-570.5 "/>
<text text-anchor="start" x="717.5" y="-558.5" font-family="Helvetica,sans-Serif" font-size="10.00">+ OutputCollector()</text>
<text text-anchor="start" x="717.5" y="-547.5" font-family="Helvetica,sans-Serif" font-size="10.00">+ OutputCollector()</text>
<text text-anchor="start" x="717.5" y="-536.5" font-family="Helvetica,sans-Serif" font-size="10.00">+ Write()</text>
</a>
</g>
</g>
<!-- Node8&#45;&gt;Node2 -->
<g id="edge7" class="edge"><title>Node8&#45;&gt;Node2</title>
<path fill="none" stroke="#404040" d="M756.169,-529.32C748.867,-509.568 739.807,-485.056 730.46,-459.771"/>
<polygon fill="none" stroke="#404040" points="730.458,-459.764 724.625,-455.523 726.297,-448.508 732.129,-452.749 730.458,-459.764"/>
<text text-anchor="middle" x="783.5" y="-481" font-family="Helvetica,sans-Serif" font-size="10.00"> &#45;outputCollector_</text>
</g>
<!-- Node9 -->
<g id="node9" class="node"><title>Node9</title>
<polygon fill="white" stroke="#bfbfbf" points="679,-678.5 679,-746.5 780,-746.5 780,-678.5 679,-678.5"/>
<text text-anchor="start" x="687" y="-734.5" font-family="Helvetica,sans-Serif" font-size="10.00">std::map&lt; long, std</text>
<text text-anchor="middle" x="729.5" y="-723.5" font-family="Helvetica,sans-Serif" font-size="10.00">::string &gt;</text>
<polyline fill="none" stroke="#bfbfbf" points="679,-716.5 780,-716.5 "/>
<text text-anchor="middle" x="729.5" y="-704.5" font-family="Helvetica,sans-Serif" font-size="10.00"> </text>
<polyline fill="none" stroke="#bfbfbf" points="679,-697.5 780,-697.5 "/>
<text text-anchor="middle" x="729.5" y="-685.5" font-family="Helvetica,sans-Serif" font-size="10.00"> </text>
</g>
<!-- Node9&#45;&gt;Node8 -->
<g id="edge8" class="edge"><title>Node9&#45;&gt;Node8</title>
<path fill="none" stroke="#404040" d="M739.432,-678.376C742.317,-668.878 745.5,-658.518 748.5,-649 750.32,-643.227 752.243,-637.207 754.177,-631.207"/>
<polygon fill="none" stroke="#404040" points="754.187,-631.177 752.231,-624.236 757.885,-619.761 759.841,-626.702 754.187,-631.177"/>
<text text-anchor="middle" x="771.5" y="-652" font-family="Helvetica,sans-Serif" font-size="10.00"> #outputs_</text>
</g>
<!-- Node10 -->
<g id="node10" class="node"><title>Node10</title>
<g id="a_node10"><a xlink:title="STL class. ">
<polygon fill="white" stroke="#bfbfbf" points="798,-684 798,-741 869,-741 869,-684 798,-684"/>
<text text-anchor="middle" x="833.5" y="-729" font-family="Helvetica,sans-Serif" font-size="10.00">std::ostream</text>
<polyline fill="none" stroke="#bfbfbf" points="798,-722 869,-722 "/>
<text text-anchor="middle" x="833.5" y="-710" font-family="Helvetica,sans-Serif" font-size="10.00"> </text>
<polyline fill="none" stroke="#bfbfbf" points="798,-703 869,-703 "/>
<text text-anchor="middle" x="833.5" y="-691" font-family="Helvetica,sans-Serif" font-size="10.00"> </text>
</a>
</g>
</g>
<!-- Node10&#45;&gt;Node8 -->
<g id="edge9" class="edge"><title>Node10&#45;&gt;Node8</title>
<path fill="none" stroke="#404040" d="M821.156,-683.978C814.294,-668.681 805.505,-649.086 797.29,-630.769"/>
<polygon fill="none" stroke="#404040" points="797.182,-630.528 791.077,-626.691 792.271,-619.579 798.376,-623.417 797.182,-630.528"/>
<text text-anchor="middle" x="835" y="-652" font-family="Helvetica,sans-Serif" font-size="10.00"> #outStrm_</text>
</g>
<!-- Node11 -->
<g id="node11" class="node"><title>Node11</title>
<polygon fill="white" stroke="#bfbfbf" points="783.5,-784.5 783.5,-852.5 883.5,-852.5 883.5,-784.5 783.5,-784.5"/>
<text text-anchor="start" x="791.5" y="-840.5" font-family="Helvetica,sans-Serif" font-size="10.00">std::basic_ostream</text>
<text text-anchor="middle" x="833.5" y="-829.5" font-family="Helvetica,sans-Serif" font-size="10.00">&lt; char &gt;</text>
<polyline fill="none" stroke="#bfbfbf" points="783.5,-822.5 883.5,-822.5 "/>
<text text-anchor="middle" x="833.5" y="-810.5" font-family="Helvetica,sans-Serif" font-size="10.00"> </text>
<polyline fill="none" stroke="#bfbfbf" points="783.5,-803.5 883.5,-803.5 "/>
<text text-anchor="middle" x="833.5" y="-791.5" font-family="Helvetica,sans-Serif" font-size="10.00"> </text>
</g>
<!-- Node11&#45;&gt;Node10 -->
<g id="edge10" class="edge"><title>Node11&#45;&gt;Node10</title>
<path fill="none" stroke="midnightblue" d="M833.5,-774.247C833.5,-763.054 833.5,-751.304 833.5,-741.154"/>
<polygon fill="none" stroke="midnightblue" points="830,-774.308 833.5,-784.308 837,-774.308 830,-774.308"/>
</g>
<!-- Node12 -->
<g id="node12" class="node"><title>Node12</title>
<polygon fill="white" stroke="#bfbfbf" points="776.5,-890.5 776.5,-947.5 890.5,-947.5 890.5,-890.5 776.5,-890.5"/>
<text text-anchor="middle" x="833.5" y="-935.5" font-family="Helvetica,sans-Serif" font-size="10.00">std::basic_ios&lt; char &gt;</text>
<polyline fill="none" stroke="#bfbfbf" points="776.5,-928.5 890.5,-928.5 "/>
<text text-anchor="middle" x="833.5" y="-916.5" font-family="Helvetica,sans-Serif" font-size="10.00"> </text>
<polyline fill="none" stroke="#bfbfbf" points="776.5,-909.5 890.5,-909.5 "/>
<text text-anchor="middle" x="833.5" y="-897.5" font-family="Helvetica,sans-Serif" font-size="10.00"> </text>
</g>
<!-- Node12&#45;&gt;Node11 -->
<g id="edge11" class="edge"><title>Node12&#45;&gt;Node11</title>
<path fill="none" stroke="midnightblue" d="M833.5,-880.007C833.5,-870.962 833.5,-861.383 833.5,-852.578"/>
<polygon fill="none" stroke="midnightblue" points="830,-880.3 833.5,-890.3 837,-880.3 830,-880.3"/>
</g>
<!-- Node13 -->
<g id="node13" class="node"><title>Node13</title>
<g id="a_node13"><a xlink:title="STL class. ">
<polygon fill="white" stroke="#bfbfbf" points="796,-985.5 796,-1042.5 871,-1042.5 871,-985.5 796,-985.5"/>
<text text-anchor="middle" x="833.5" y="-1030.5" font-family="Helvetica,sans-Serif" font-size="10.00">std::ios_base</text>
<polyline fill="none" stroke="#bfbfbf" points="796,-1023.5 871,-1023.5 "/>
<text text-anchor="middle" x="833.5" y="-1011.5" font-family="Helvetica,sans-Serif" font-size="10.00"> </text>
<polyline fill="none" stroke="#bfbfbf" points="796,-1004.5 871,-1004.5 "/>
<text text-anchor="middle" x="833.5" y="-992.5" font-family="Helvetica,sans-Serif" font-size="10.00"> </text>
</a>
</g>
</g>
<!-- Node13&#45;&gt;Node12 -->
<g id="edge12" class="edge"><title>Node13&#45;&gt;Node12</title>
<path fill="none" stroke="midnightblue" d="M833.5,-975.235C833.5,-966.028 833.5,-956.346 833.5,-947.705"/>
<polygon fill="none" stroke="midnightblue" points="830,-975.349 833.5,-985.349 837,-975.349 830,-975.349"/>
</g>
<!-- Node14 -->
<g id="node14" class="node"><title>Node14</title>
<polygon fill="white" stroke="#bfbfbf" points="853.5,-540.5 853.5,-608.5 963.5,-608.5 963.5,-540.5 853.5,-540.5"/>
<text text-anchor="start" x="861.5" y="-596.5" font-family="Helvetica,sans-Serif" font-size="10.00">std::map&lt; std::string,</text>
<text text-anchor="middle" x="908.5" y="-585.5" font-family="Helvetica,sans-Serif" font-size="10.00"> float &gt;</text>
<polyline fill="none" stroke="#bfbfbf" points="853.5,-578.5 963.5,-578.5 "/>
<text text-anchor="middle" x="908.5" y="-566.5" font-family="Helvetica,sans-Serif" font-size="10.00"> </text>
<polyline fill="none" stroke="#bfbfbf" points="853.5,-559.5 963.5,-559.5 "/>
<text text-anchor="middle" x="908.5" y="-547.5" font-family="Helvetica,sans-Serif" font-size="10.00"> </text>
</g>
<!-- Node14&#45;&gt;Node2 -->
<g id="edge13" class="edge"><title>Node14&#45;&gt;Node2</title>
<path fill="none" stroke="#404040" d="M884.401,-540.033C868.58,-518.62 847.078,-490.544 826.5,-467 803.657,-440.865 777.399,-413.538 753.351,-389.453"/>
<polygon fill="none" stroke="#404040" points="753.102,-389.205 746.028,-387.803 744.601,-380.735 751.675,-382.137 753.102,-389.205"/>
<text text-anchor="middle" x="875.5" y="-481" font-family="Helvetica,sans-Serif" font-size="10.00"> &#45;weights_</text>
</g>
<!-- Node15 -->
<g id="node15" class="node"><title>Node15</title>
<polygon fill="white" stroke="#bfbfbf" points="982,-540.5 982,-608.5 1107,-608.5 1107,-540.5 982,-540.5"/>
<text text-anchor="start" x="990" y="-596.5" font-family="Helvetica,sans-Serif" font-size="10.00">std::unique_ptr&lt; amunmt</text>
<text text-anchor="middle" x="1044.5" y="-585.5" font-family="Helvetica,sans-Serif" font-size="10.00">::Vocab &gt;</text>
<polyline fill="none" stroke="#bfbfbf" points="982,-578.5 1107,-578.5 "/>
<text text-anchor="middle" x="1044.5" y="-566.5" font-family="Helvetica,sans-Serif" font-size="10.00"> </text>
<polyline fill="none" stroke="#bfbfbf" points="982,-559.5 1107,-559.5 "/>
<text text-anchor="middle" x="1044.5" y="-547.5" font-family="Helvetica,sans-Serif" font-size="10.00"> </text>
</g>
<!-- Node15&#45;&gt;Node2 -->
<g id="edge14" class="edge"><title>Node15&#45;&gt;Node2</title>
<path fill="none" stroke="#404040" d="M1002,-540.44C992.343,-533.008 982.098,-525.194 972.5,-518 941.698,-494.915 934.059,-489.038 902.5,-467 853.987,-433.123 798.769,-396.165 755.176,-367.35"/>
<polygon fill="none" stroke="#404040" points="754.939,-367.195 747.728,-367.227 744.925,-360.583 752.136,-360.551 754.939,-367.195"/>
<text text-anchor="middle" x="979.5" y="-481" font-family="Helvetica,sans-Serif" font-size="10.00"> &#45;targetVocab_</text>
</g>
<!-- Node16 -->
<g id="node16" class="node"><title>Node16</title>
<polygon fill="white" stroke="#bfbfbf" points="1125,-540.5 1125,-608.5 1250,-608.5 1250,-540.5 1125,-540.5"/>
<text text-anchor="start" x="1133" y="-596.5" font-family="Helvetica,sans-Serif" font-size="10.00">std::unique_ptr&lt; amunmt</text>
<text text-anchor="middle" x="1187.5" y="-585.5" font-family="Helvetica,sans-Serif" font-size="10.00">::InputFileStream &gt;</text>
<polyline fill="none" stroke="#bfbfbf" points="1125,-578.5 1250,-578.5 "/>
<text text-anchor="middle" x="1187.5" y="-566.5" font-family="Helvetica,sans-Serif" font-size="10.00"> </text>
<polyline fill="none" stroke="#bfbfbf" points="1125,-559.5 1250,-559.5 "/>
<text text-anchor="middle" x="1187.5" y="-547.5" font-family="Helvetica,sans-Serif" font-size="10.00"> </text>
</g>
<!-- Node16&#45;&gt;Node2 -->
<g id="edge15" class="edge"><title>Node16&#45;&gt;Node2</title>
<path fill="none" stroke="#404040" d="M1147.33,-540.445C1137.2,-532.703 1126.17,-524.751 1115.5,-518 996.966,-442.996 845.927,-379.842 755.734,-345.165"/>
<polygon fill="none" stroke="#404040" points="755.712,-345.157 748.68,-346.751 744.503,-340.873 751.535,-339.278 755.712,-345.157"/>
<text text-anchor="middle" x="1114.5" y="-481" font-family="Helvetica,sans-Serif" font-size="10.00"> &#45;inputStream_</text>
</g>
<!-- Node17 -->
<g id="node17" class="node"><title>Node17</title>
<g id="a_node17"><a xlink:href="$da/d4e/classamunmt_1_1Config.html" xlink:title="{amunmt::Config\n|&#45; config_\l|+ Has()\l+ Get()\l+ Get()\l+ Get()\l+ AddOptions()\l+ LogOptions()\l}">
<polygon fill="white" stroke="black" points="1268.5,-518.5 1268.5,-630.5 1354.5,-630.5 1354.5,-518.5 1268.5,-518.5"/>
<text text-anchor="middle" x="1311.5" y="-618.5" font-family="Helvetica,sans-Serif" font-size="10.00">amunmt::Config</text>
<polyline fill="none" stroke="black" points="1268.5,-611.5 1354.5,-611.5 "/>
<text text-anchor="start" x="1276.5" y="-599.5" font-family="Helvetica,sans-Serif" font-size="10.00">&#45; config_</text>
<polyline fill="none" stroke="black" points="1268.5,-592.5 1354.5,-592.5 "/>
<text text-anchor="start" x="1276.5" y="-580.5" font-family="Helvetica,sans-Serif" font-size="10.00">+ Has()</text>
<text text-anchor="start" x="1276.5" y="-569.5" font-family="Helvetica,sans-Serif" font-size="10.00">+ Get()</text>
<text text-anchor="start" x="1276.5" y="-558.5" font-family="Helvetica,sans-Serif" font-size="10.00">+ Get()</text>
<text text-anchor="start" x="1276.5" y="-547.5" font-family="Helvetica,sans-Serif" font-size="10.00">+ Get()</text>
<text text-anchor="start" x="1276.5" y="-536.5" font-family="Helvetica,sans-Serif" font-size="10.00">+ AddOptions()</text>
<text text-anchor="start" x="1276.5" y="-525.5" font-family="Helvetica,sans-Serif" font-size="10.00">+ LogOptions()</text>
</a>
</g>
</g>
<!-- Node17&#45;&gt;Node2 -->
<g id="edge16" class="edge"><title>Node17&#45;&gt;Node2</title>
<path fill="none" stroke="#404040" d="M1268.41,-525.843C1265.17,-523.061 1261.85,-520.416 1258.5,-518 1215.45,-486.95 1199.9,-486.424 1150.5,-467 1014.56,-413.552 851.278,-364.903 756.453,-338.129"/>
<polygon fill="none" stroke="#404040" points="756.221,-338.064 749.362,-340.291 744.669,-334.816 751.528,-332.589 756.221,-338.064"/>
<text text-anchor="middle" x="1248.5" y="-481" font-family="Helvetica,sans-Serif" font-size="10.00"> &#45;config_</text>
</g>
<!-- Node18 -->
<g id="node18" class="node"><title>Node18</title>
<g id="a_node18"><a xlink:title="STL class. ">
<polygon fill="white" stroke="#bfbfbf" points="1281.5,-684 1281.5,-741 1341.5,-741 1341.5,-684 1281.5,-684"/>
<text text-anchor="middle" x="1311.5" y="-729" font-family="Helvetica,sans-Serif" font-size="10.00">std::string</text>
<polyline fill="none" stroke="#bfbfbf" points="1281.5,-722 1341.5,-722 "/>
<text text-anchor="middle" x="1311.5" y="-710" font-family="Helvetica,sans-Serif" font-size="10.00"> </text>
<polyline fill="none" stroke="#bfbfbf" points="1281.5,-703 1341.5,-703 "/>
<text text-anchor="middle" x="1311.5" y="-691" font-family="Helvetica,sans-Serif" font-size="10.00"> </text>
</a>
</g>
</g>
<!-- Node18&#45;&gt;Node17 -->
<g id="edge17" class="edge"><title>Node18&#45;&gt;Node17</title>
<path fill="none" stroke="#404040" d="M1311.5,-683.978C1311.5,-671.972 1311.5,-657.319 1311.5,-642.714"/>
<polygon fill="none" stroke="#404040" points="1311.5,-642.516 1307.5,-636.516 1311.5,-630.516 1315.5,-636.516 1311.5,-642.516"/>
<text text-anchor="middle" x="1337" y="-652" font-family="Helvetica,sans-Serif" font-size="10.00"> +inputPath</text>
</g>
<!-- Node19 -->
<g id="node19" class="node"><title>Node19</title>
<polygon fill="white" stroke="#bfbfbf" points="1264,-784.5 1264,-852.5 1359,-852.5 1359,-784.5 1264,-784.5"/>
<text text-anchor="start" x="1272" y="-840.5" font-family="Helvetica,sans-Serif" font-size="10.00">std::basic_string&lt;</text>
<text text-anchor="middle" x="1311.5" y="-829.5" font-family="Helvetica,sans-Serif" font-size="10.00"> char &gt;</text>
<polyline fill="none" stroke="#bfbfbf" points="1264,-822.5 1359,-822.5 "/>
<text text-anchor="middle" x="1311.5" y="-810.5" font-family="Helvetica,sans-Serif" font-size="10.00"> </text>
<polyline fill="none" stroke="#bfbfbf" points="1264,-803.5 1359,-803.5 "/>
<text text-anchor="middle" x="1311.5" y="-791.5" font-family="Helvetica,sans-Serif" font-size="10.00"> </text>
</g>
<!-- Node19&#45;&gt;Node18 -->
<g id="edge18" class="edge"><title>Node19&#45;&gt;Node18</title>
<path fill="none" stroke="midnightblue" d="M1311.5,-774.247C1311.5,-763.054 1311.5,-751.304 1311.5,-741.154"/>
<polygon fill="none" stroke="midnightblue" points="1308,-774.308 1311.5,-784.308 1315,-774.308 1308,-774.308"/>
</g>
</g>
</svg>
