<?xml version="1.0" encoding="UTF-8" standalone="no"?>
<!DOCTYPE svg PUBLIC "-//W3C//DTD SVG 1.1//EN"
 "http://www.w3.org/Graphics/SVG/1.1/DTD/svg11.dtd">
<!-- Generated by graphviz version 2.38.0 (20140413.2041)
 -->
<!-- Title: output_collector.cpp Pages: 1 -->
<svg width="562pt" height="140pt"
 viewBox="0.00 0.00 561.50 140.00" xmlns="http://www.w3.org/2000/svg" xmlns:xlink="http://www.w3.org/1999/xlink">
<g id="graph0" class="graph" transform="scale(1 1) rotate(0) translate(4 136)">
<title>output_collector.cpp</title>
<polygon fill="white" stroke="none" points="-4,4 -4,-136 557.5,-136 557.5,4 -4,4"/>
<!-- Node1 -->
<g id="node1" class="node"><title>Node1</title>
<polygon fill="#bfbfbf" stroke="black" points="133,-112.5 133,-131.5 237,-131.5 237,-112.5 133,-112.5"/>
<text text-anchor="middle" x="185" y="-119.5" font-family="Helvetica,sans-Serif" font-size="10.00">output_collector.cpp</text>
</g>
<!-- Node2 -->
<g id="node2" class="node"><title>Node2</title>
<polygon fill="white" stroke="#bfbfbf" points="70.5,-56.5 70.5,-75.5 119.5,-75.5 119.5,-56.5 70.5,-56.5"/>
<text text-anchor="middle" x="95" y="-63.5" font-family="Helvetica,sans-Serif" font-size="10.00">cassert</text>
</g>
<!-- Node1&#45;&gt;Node2 -->
<g id="edge1" class="edge"><title>Node1&#45;&gt;Node2</title>
<path fill="none" stroke="midnightblue" d="M170.54,-112.324C156.5,-103.9 134.952,-90.9709 118.457,-81.0741"/>
<polygon fill="midnightblue" stroke="midnightblue" points="119.8,-77.7983 109.424,-75.6545 116.198,-83.8007 119.8,-77.7983"/>
</g>
<!-- Node3 -->
<g id="node3" class="node"><title>Node3</title>
<g id="a_node3"><a xlink:href="$d2/d83/amun_2common_2output__collector_8h.html" xlink:title="output_collector.h">
<polygon fill="white" stroke="black" points="138,-56.5 138,-75.5 232,-75.5 232,-56.5 138,-56.5"/>
<text text-anchor="middle" x="185" y="-63.5" font-family="Helvetica,sans-Serif" font-size="10.00">output_collector.h</text>
</a>
</g>
</g>
<!-- Node1&#45;&gt;Node3 -->
<g id="edge2" class="edge"><title>Node1&#45;&gt;Node3</title>
<path fill="none" stroke="midnightblue" d="M185,-112.083C185,-105.006 185,-94.8611 185,-85.9865"/>
<polygon fill="midnightblue" stroke="midnightblue" points="188.5,-85.751 185,-75.7511 181.5,-85.7511 188.5,-85.751"/>
</g>
<!-- Node8 -->
<g id="node8" class="node"><title>Node8</title>
<g id="a_node8"><a xlink:href="$d8/dbe/amun_2common_2logging_8h.html" xlink:title="logging.h">
<polygon fill="white" stroke="black" points="424,-56.5 424,-75.5 480,-75.5 480,-56.5 424,-56.5"/>
<text text-anchor="middle" x="452" y="-63.5" font-family="Helvetica,sans-Serif" font-size="10.00">logging.h</text>
</a>
</g>
</g>
<!-- Node1&#45;&gt;Node8 -->
<g id="edge7" class="edge"><title>Node1&#45;&gt;Node8</title>
<path fill="none" stroke="midnightblue" d="M227.307,-112.444C278.65,-102.06 364.463,-84.7041 413.854,-74.7149"/>
<polygon fill="midnightblue" stroke="midnightblue" points="414.707,-78.1133 423.815,-72.7003 413.32,-71.2522 414.707,-78.1133"/>
</g>
<!-- Node4 -->
<g id="node4" class="node"><title>Node4</title>
<polygon fill="white" stroke="#bfbfbf" points="0,-0.5 0,-19.5 54,-19.5 54,-0.5 0,-0.5"/>
<text text-anchor="middle" x="27" y="-7.5" font-family="Helvetica,sans-Serif" font-size="10.00">iostream</text>
</g>
<!-- Node3&#45;&gt;Node4 -->
<g id="edge3" class="edge"><title>Node3&#45;&gt;Node4</title>
<path fill="none" stroke="midnightblue" d="M159.964,-56.4435C133.384,-47.3591 91.1912,-32.9388 61.4766,-22.7831"/>
<polygon fill="midnightblue" stroke="midnightblue" points="62.513,-19.4386 51.9184,-19.5164 60.2491,-26.0625 62.513,-19.4386"/>
</g>
<!-- Node5 -->
<g id="node5" class="node"><title>Node5</title>
<polygon fill="white" stroke="#bfbfbf" points="72.5,-0.5 72.5,-19.5 107.5,-19.5 107.5,-0.5 72.5,-0.5"/>
<text text-anchor="middle" x="90" y="-7.5" font-family="Helvetica,sans-Serif" font-size="10.00">map</text>
</g>
<!-- Node3&#45;&gt;Node5 -->
<g id="edge4" class="edge"><title>Node3&#45;&gt;Node5</title>
<path fill="none" stroke="midnightblue" d="M169.737,-56.324C154.779,-47.8215 131.745,-34.7288 114.273,-24.7975"/>
<polygon fill="midnightblue" stroke="midnightblue" points="115.649,-21.5534 105.226,-19.6545 112.19,-27.639 115.649,-21.5534"/>
</g>
<!-- Node6 -->
<g id="node6" class="node"><title>Node6</title>
<polygon fill="white" stroke="#bfbfbf" points="125.5,-0.5 125.5,-19.5 244.5,-19.5 244.5,-0.5 125.5,-0.5"/>
<text text-anchor="middle" x="185" y="-7.5" font-family="Helvetica,sans-Serif" font-size="10.00">boost/thread/mutex.hpp</text>
</g>
<!-- Node3&#45;&gt;Node6 -->
<g id="edge5" class="edge"><title>Node3&#45;&gt;Node6</title>
<path fill="none" stroke="midnightblue" d="M185,-56.083C185,-49.0059 185,-38.8611 185,-29.9865"/>
<polygon fill="midnightblue" stroke="midnightblue" points="188.5,-29.751 185,-19.7511 181.5,-29.7511 188.5,-29.751"/>
</g>
<!-- Node7 -->
<g id="node7" class="node"><title>Node7</title>
<polygon fill="white" stroke="#bfbfbf" points="262.5,-0.5 262.5,-19.5 391.5,-19.5 391.5,-0.5 262.5,-0.5"/>
<text text-anchor="middle" x="327" y="-7.5" font-family="Helvetica,sans-Serif" font-size="10.00">boost/unordered_map.hpp</text>
</g>
<!-- Node3&#45;&gt;Node7 -->
<g id="edge6" class="edge"><title>Node3&#45;&gt;Node7</title>
<path fill="none" stroke="midnightblue" d="M207.5,-56.4435C231.077,-47.4776 268.322,-33.314 294.964,-23.1827"/>
<polygon fill="midnightblue" stroke="midnightblue" points="296.502,-26.3424 304.605,-19.5164 294.014,-19.7995 296.502,-26.3424"/>
</g>
<!-- Node9 -->
<g id="node9" class="node"><title>Node9</title>
<polygon fill="white" stroke="#bfbfbf" points="409.5,-0.5 409.5,-19.5 494.5,-19.5 494.5,-0.5 409.5,-0.5"/>
<text text-anchor="middle" x="452" y="-7.5" font-family="Helvetica,sans-Serif" font-size="10.00">spdlog/spdlog.h</text>
</g>
<!-- Node8&#45;&gt;Node9 -->
<g id="edge8" class="edge"><title>Node8&#45;&gt;Node9</title>
<path fill="none" stroke="midnightblue" d="M452,-56.083C452,-49.0059 452,-38.8611 452,-29.9865"/>
<polygon fill="midnightblue" stroke="midnightblue" points="455.5,-29.751 452,-19.7511 448.5,-29.7511 455.5,-29.751"/>
</g>
<!-- Node10 -->
<g id="node10" class="node"><title>Node10</title>
<polygon fill="white" stroke="#bfbfbf" points="512.5,-0.5 512.5,-19.5 553.5,-19.5 553.5,-0.5 512.5,-0.5"/>
<text text-anchor="middle" x="533" y="-7.5" font-family="Helvetica,sans-Serif" font-size="10.00">string</text>
</g>
<!-- Node8&#45;&gt;Node10 -->
<g id="edge9" class="edge"><title>Node8&#45;&gt;Node10</title>
<path fill="none" stroke="midnightblue" d="M465.014,-56.324C477.532,-47.979 496.682,-35.2122 511.471,-25.3524"/>
<polygon fill="midnightblue" stroke="midnightblue" points="513.639,-28.1137 520.018,-19.6545 509.756,-22.2894 513.639,-28.1137"/>
</g>
</g>
</svg>
