<?xml version="1.0" encoding="UTF-8" standalone="no"?>
<!DOCTYPE svg PUBLIC "-//W3C//DTD SVG 1.1//EN"
 "http://www.w3.org/Graphics/SVG/1.1/DTD/svg11.dtd">
<!-- Generated by graphviz version 2.38.0 (20140413.2041)
 -->
<!-- Title: amunmt::GPU::mblas::BroadcastVec Pages: 1 -->
<svg width="304pt" height="350pt"
 viewBox="0.00 0.00 304.00 350.00" xmlns="http://www.w3.org/2000/svg" xmlns:xlink="http://www.w3.org/1999/xlink">
<g id="graph0" class="graph" transform="scale(1 1) rotate(0) translate(4 346)">
<title>amunmt::GPU::mblas::BroadcastVec</title>
<polygon fill="white" stroke="none" points="-4,4 -4,-346 300,-346 300,4 -4,4"/>
<!-- Node1 -->
<g id="node1" class="node"><title>Node1</title>
<polygon fill="#bfbfbf" stroke="black" points="0,-128.5 0,-158.5 112,-158.5 112,-128.5 0,-128.5"/>
<text text-anchor="start" x="8" y="-146.5" font-family="Helvetica,sans-Serif" font-size="10.00">amunmt::GPU::mblas</text>
<text text-anchor="middle" x="56" y="-135.5" font-family="Helvetica,sans-Serif" font-size="10.00">::BroadcastVec</text>
</g>
<!-- Node2 -->
<g id="node2" class="node"><title>Node2</title>
<g id="a_node2"><a xlink:href="../../d1/de3/classamunmt_1_1GPU_1_1Decoder_1_1RNNHidden.html#a4e603e53eb86acbacce1a348e2be20f4" target="_top" xlink:title="amunmt::GPU::Decoder\l::RNNHidden\&lt; amunmt::\lGPU::Weights::DecInit\l \&gt;::InitializeState">
<polygon fill="white" stroke="black" points="159,-289.5 159,-341.5 285,-341.5 285,-289.5 159,-289.5"/>
<text text-anchor="start" x="167" y="-329.5" font-family="Helvetica,sans-Serif" font-size="10.00">amunmt::GPU::Decoder</text>
<text text-anchor="start" x="167" y="-318.5" font-family="Helvetica,sans-Serif" font-size="10.00">::RNNHidden&lt; amunmt::</text>
<text text-anchor="start" x="167" y="-307.5" font-family="Helvetica,sans-Serif" font-size="10.00">GPU::Weights::DecInit</text>
<text text-anchor="middle" x="222" y="-296.5" font-family="Helvetica,sans-Serif" font-size="10.00"> &gt;::InitializeState</text>
</a>
</g>
</g>
<!-- Node1&#45;&gt;Node2 -->
<g id="edge1" class="edge"><title>Node1&#45;&gt;Node2</title>
<path fill="none" stroke="midnightblue" d="M68.0948,-167.869C82.7323,-197.742 111.027,-248.347 148,-280.5 151.606,-283.636 155.542,-286.556 159.656,-289.263"/>
<polygon fill="midnightblue" stroke="midnightblue" points="71.1306,-166.104 63.6615,-158.59 64.8144,-169.122 71.1306,-166.104"/>
</g>
<!-- Node3 -->
<g id="node3" class="node"><title>Node3</title>
<g id="a_node3"><a xlink:href="../../df/d32/classamunmt_1_1GPU_1_1Decoder_1_1Alignment.html#aca6a7ea06e3db456c9cf723cb62a975f" target="_top" xlink:title="amunmt::GPU::Decoder\l::Alignment\&lt; amunmt::\lGPU::Weights::DecAlignment\l \&gt;::GetAlignedSourceContext">
<polygon fill="white" stroke="black" points="148,-218.5 148,-270.5 296,-270.5 296,-218.5 148,-218.5"/>
<text text-anchor="start" x="156" y="-258.5" font-family="Helvetica,sans-Serif" font-size="10.00">amunmt::GPU::Decoder</text>
<text text-anchor="start" x="156" y="-247.5" font-family="Helvetica,sans-Serif" font-size="10.00">::Alignment&lt; amunmt::</text>
<text text-anchor="start" x="156" y="-236.5" font-family="Helvetica,sans-Serif" font-size="10.00">GPU::Weights::DecAlignment</text>
<text text-anchor="middle" x="222" y="-225.5" font-family="Helvetica,sans-Serif" font-size="10.00"> &gt;::GetAlignedSourceContext</text>
</a>
</g>
</g>
<!-- Node1&#45;&gt;Node3 -->
<g id="edge2" class="edge"><title>Node1&#45;&gt;Node3</title>
<path fill="none" stroke="midnightblue" d="M83.9707,-165.043C101.631,-178.643 125.522,-196.109 148,-209.5 153.071,-212.521 158.444,-215.493 163.881,-218.351"/>
<polygon fill="midnightblue" stroke="midnightblue" points="85.8766,-162.091 75.8352,-158.712 81.5775,-167.615 85.8766,-162.091"/>
</g>
<!-- Node4 -->
<g id="node4" class="node"><title>Node4</title>
<g id="a_node4"><a xlink:href="../../d2/d4d/classamunmt_1_1GPU_1_1Decoder_1_1Softmax.html#ae19befc1a70b3a1762ac0e4dcfb67714" target="_top" xlink:title="amunmt::GPU::Decoder\l::Softmax\&lt; amunmt::GPU\l::Weights::DecSoftmax \&gt;\l::GetProbs">
<polygon fill="white" stroke="black" points="156.5,-147.5 156.5,-199.5 287.5,-199.5 287.5,-147.5 156.5,-147.5"/>
<text text-anchor="start" x="164.5" y="-187.5" font-family="Helvetica,sans-Serif" font-size="10.00">amunmt::GPU::Decoder</text>
<text text-anchor="start" x="164.5" y="-176.5" font-family="Helvetica,sans-Serif" font-size="10.00">::Softmax&lt; amunmt::GPU</text>
<text text-anchor="start" x="164.5" y="-165.5" font-family="Helvetica,sans-Serif" font-size="10.00">::Weights::DecSoftmax &gt;</text>
<text text-anchor="middle" x="222" y="-154.5" font-family="Helvetica,sans-Serif" font-size="10.00">::GetProbs</text>
</a>
</g>
</g>
<!-- Node1&#45;&gt;Node4 -->
<g id="edge3" class="edge"><title>Node1&#45;&gt;Node4</title>
<path fill="none" stroke="midnightblue" d="M121.907,-155.373C133.267,-157.451 145.084,-159.613 156.434,-161.689"/>
<polygon fill="midnightblue" stroke="midnightblue" points="122.532,-151.93 112.066,-153.573 121.273,-158.815 122.532,-151.93"/>
</g>
<!-- Node5 -->
<g id="node5" class="node"><title>Node5</title>
<g id="a_node5"><a xlink:href="../../d8/dc9/classamunmt_1_1GPU_1_1SlowGRU.html#a56abd7ee93ad637ca54113fbc1427e01" target="_top" xlink:title="amunmt::GPU::SlowGRU\l::GetNextState">
<polygon fill="white" stroke="black" points="157,-98.5 157,-128.5 287,-128.5 287,-98.5 157,-98.5"/>
<text text-anchor="start" x="165" y="-116.5" font-family="Helvetica,sans-Serif" font-size="10.00">amunmt::GPU::SlowGRU</text>
<text text-anchor="middle" x="222" y="-105.5" font-family="Helvetica,sans-Serif" font-size="10.00">::GetNextState</text>
</a>
</g>
</g>
<!-- Node1&#45;&gt;Node5 -->
<g id="edge4" class="edge"><title>Node1&#45;&gt;Node5</title>
<path fill="none" stroke="midnightblue" d="M121.972,-131.615C133.408,-129.523 145.305,-127.347 156.722,-125.258"/>
<polygon fill="midnightblue" stroke="midnightblue" points="121.273,-128.185 112.066,-133.427 122.532,-135.07 121.273,-128.185"/>
</g>
<!-- Node6 -->
<g id="node6" class="node"><title>Node6</title>
<g id="a_node6"><a xlink:href="../../df/de1/classamunmt_1_1GPU_1_1SlowLSTM.html#a445547f2b64a36f61c0a62dc682364f3" target="_top" xlink:title="amunmt::GPU::SlowLSTM\l::GetNextState">
<polygon fill="white" stroke="black" points="155,-49.5 155,-79.5 289,-79.5 289,-49.5 155,-49.5"/>
<text text-anchor="start" x="163" y="-67.5" font-family="Helvetica,sans-Serif" font-size="10.00">amunmt::GPU::SlowLSTM</text>
<text text-anchor="middle" x="222" y="-56.5" font-family="Helvetica,sans-Serif" font-size="10.00">::GetNextState</text>
</a>
</g>
</g>
<!-- Node1&#45;&gt;Node6 -->
<g id="edge5" class="edge"><title>Node1&#45;&gt;Node6</title>
<path fill="none" stroke="midnightblue" d="M88.0014,-122.94C105.207,-112.09 127.265,-99.0785 148,-89.5 155.783,-85.9045 164.237,-82.5442 172.54,-79.5263"/>
<polygon fill="midnightblue" stroke="midnightblue" points="86.0197,-120.053 79.4789,-128.388 89.7897,-125.951 86.0197,-120.053"/>
</g>
<!-- Node7 -->
<g id="node7" class="node"><title>Node7</title>
<g id="a_node7"><a xlink:href="../../d2/dad/classamunmt_1_1GPU_1_1Multiplicative.html#a1f485aad0d4da73469d58f61fc121341" target="_top" xlink:title="amunmt::GPU::Multiplicative\l::GetNextState">
<polygon fill="white" stroke="black" points="150.5,-0.5 150.5,-30.5 293.5,-30.5 293.5,-0.5 150.5,-0.5"/>
<text text-anchor="start" x="158.5" y="-18.5" font-family="Helvetica,sans-Serif" font-size="10.00">amunmt::GPU::Multiplicative</text>
<text text-anchor="middle" x="222" y="-7.5" font-family="Helvetica,sans-Serif" font-size="10.00">::GetNextState</text>
</a>
</g>
</g>
<!-- Node1&#45;&gt;Node7 -->
<g id="edge6" class="edge"><title>Node1&#45;&gt;Node7</title>
<path fill="none" stroke="midnightblue" d="M72.2459,-120.067C88.4663,-96.8475 116.147,-61.7608 148,-40.5 153.683,-36.7071 159.998,-33.4332 166.469,-30.6221"/>
<polygon fill="midnightblue" stroke="midnightblue" points="69.3517,-118.099 66.6056,-128.332 75.1336,-122.045 69.3517,-118.099"/>
</g>
</g>
</svg>
