<?xml version="1.0" encoding="UTF-8" standalone="no"?>
<!DOCTYPE svg PUBLIC "-//W3C//DTD SVG 1.1//EN"
 "http://www.w3.org/Graphics/SVG/1.1/DTD/svg11.dtd">
<!-- Generated by graphviz version 2.38.0 (20140413.2041)
 -->
<!-- Title: amunmt::GPU::mblas::Copy Pages: 1 -->
<!--zoomable 508 -->
<svg id="main" version="1.1" xmlns="http://www.w3.org/2000/svg" xmlns:xlink="http://www.w3.org/1999/xlink" xml:space="preserve" onload="init(evt)">
<style type="text/css"><![CDATA[
.edge:hover path { stroke: red; }
.edge:hover polygon { stroke: red; fill: red; }
]]></style>
<script type="text/javascript"><![CDATA[
var edges = document.getElementsByTagName('g');
if (edges && edges.length) {
  for (var i=0;i<edges.length;i++) {
    if (edges[i].id.substr(0,4)=='edge') {
      edges[i].setAttribute('class','edge');
    }
  }
}
]]></script>
        <defs>
                <circle id="rim" cx="0" cy="0" r="7"/>
                <circle id="rim2" cx="0" cy="0" r="3.5"/>
                <g id="zoomPlus">
                        <use xlink:href="#rim" fill="#404040">
                                <set attributeName="fill" to="#808080" begin="zoomplus.mouseover" end="zoomplus.mouseout"/>
                        </use>
                        <path d="M-4,0h8M0,-4v8" fill="none" stroke="white" stroke-width="1.5" pointer-events="none"/>
                </g>
                <g id="zoomMin">
                        <use xlink:href="#rim" fill="#404040">
                                <set attributeName="fill" to="#808080" begin="zoomminus.mouseover" end="zoomminus.mouseout"/>
                        </use>
                        <path d="M-4,0h8" fill="none" stroke="white" stroke-width="1.5" pointer-events="none"/>
                </g>
                <g id="dirArrow">
                        <path fill="none" stroke="white" stroke-width="1.5" d="M0,-3.0v7 M-2.5,-0.5L0,-3.0L2.5,-0.5"/>
                </g>
               <g id="resetDef">
                       <use xlink:href="#rim2" fill="#404040">
                               <set attributeName="fill" to="#808080" begin="reset.mouseover" end="reset.mouseout"/>
                       </use>
               </g>
        </defs>

<script type="text/javascript">
var viewWidth = 504;
var viewHeight = 508;
var sectionId = 'dynsection-9';
</script>
<script xlink:href="../../svgpan.js"/>
<svg id="graph" class="graph">
<g id="viewport">
<title>amunmt::GPU::mblas::Copy</title>
<polygon fill="white" stroke="none" points="-4,4 -4,-504 500,-504 500,4 -4,4"/>
<!-- Node1 -->
<g id="node1" class="node"><title>Node1</title>
<polygon fill="#bfbfbf" stroke="black" points="0,-215 0,-245 112,-245 112,-215 0,-215"/>
<text text-anchor="start" x="8" y="-233" font-family="Helvetica,sans-Serif" font-size="10.00">amunmt::GPU::mblas</text>
<text text-anchor="middle" x="56" y="-222" font-family="Helvetica,sans-Serif" font-size="10.00">::Copy</text>
</g>
<!-- Node2 -->
<g id="node2" class="node"><title>Node2</title>
<g id="a_node2"><a xlink:href="../../df/d32/classamunmt_1_1GPU_1_1Decoder_1_1Alignment.html#aed7d728b2215ca90b3bdbda2a4eee4b3" target="_top" xlink:title="amunmt::GPU::Decoder\l::Alignment\&lt; amunmt::\lGPU::Weights::DecAlignment\l \&gt;::GetAttention">
<polygon fill="white" stroke="black" points="148,-289 148,-341 296,-341 296,-289 148,-289"/>
<text text-anchor="start" x="156" y="-329" font-family="Helvetica,sans-Serif" font-size="10.00">amunmt::GPU::Decoder</text>
<text text-anchor="start" x="156" y="-318" font-family="Helvetica,sans-Serif" font-size="10.00">::Alignment&lt; amunmt::</text>
<text text-anchor="start" x="156" y="-307" font-family="Helvetica,sans-Serif" font-size="10.00">GPU::Weights::DecAlignment</text>
<text text-anchor="middle" x="222" y="-296" font-family="Helvetica,sans-Serif" font-size="10.00"> &gt;::GetAttention</text>
</a>
</g>
</g>
<!-- Node1&#45;&gt;Node2 -->
<g id="edge1" class="edge"><title>Node1&#45;&gt;Node2</title>
<path fill="none" stroke="midnightblue" d="M92.3697,-250.028C109.117,-259.357 129.467,-270.475 148,-280 153.75,-282.955 159.791,-285.979 165.832,-288.95"/>
<polygon fill="midnightblue" stroke="midnightblue" points="93.9067,-246.877 83.4706,-245.05 90.4894,-252.986 93.9067,-246.877"/>
</g>
<!-- Node3 -->
<g id="node3" class="node"><title>Node3</title>
<g id="a_node3"><a xlink:href="../../df/de1/classamunmt_1_1GPU_1_1SlowLSTM.html#a445547f2b64a36f61c0a62dc682364f3" target="_top" xlink:title="amunmt::GPU::SlowLSTM\l::GetNextState">
<polygon fill="white" stroke="black" points="155,-240 155,-270 289,-270 289,-240 155,-240"/>
<text text-anchor="start" x="163" y="-258" font-family="Helvetica,sans-Serif" font-size="10.00">amunmt::GPU::SlowLSTM</text>
<text text-anchor="middle" x="222" y="-247" font-family="Helvetica,sans-Serif" font-size="10.00">::GetNextState</text>
</a>
</g>
</g>
<!-- Node1&#45;&gt;Node3 -->
<g id="edge2" class="edge"><title>Node1&#45;&gt;Node3</title>
<path fill="none" stroke="midnightblue" d="M122.247,-239.946C133.022,-241.589 144.2,-243.293 154.993,-244.938"/>
<polygon fill="midnightblue" stroke="midnightblue" points="122.479,-236.441 112.066,-238.394 121.424,-243.361 122.479,-236.441"/>
</g>
<!-- Node4 -->
<g id="node4" class="node"><title>Node4</title>
<g id="a_node4"><a xlink:href="../../d1/d49/namespaceamunmt_1_1GPU_1_1mblas.html#a6531a040aa422fcd149f89b92f6d2585" target="_top" xlink:title="amunmt::GPU::mblas\l::copy">
<polygon fill="white" stroke="black" points="166,-191 166,-221 278,-221 278,-191 166,-191"/>
<text text-anchor="start" x="174" y="-209" font-family="Helvetica,sans-Serif" font-size="10.00">amunmt::GPU::mblas</text>
<text text-anchor="middle" x="222" y="-198" font-family="Helvetica,sans-Serif" font-size="10.00">::copy</text>
</a>
</g>
</g>
<!-- Node1&#45;&gt;Node4 -->
<g id="edge3" class="edge"><title>Node1&#45;&gt;Node4</title>
<path fill="none" stroke="midnightblue" d="M121.968,-220.493C136.477,-218.369 151.73,-216.137 165.8,-214.078"/>
<polygon fill="midnightblue" stroke="midnightblue" points="121.454,-217.03 112.066,-221.942 122.467,-223.957 121.454,-217.03"/>
</g>
<!-- Node16 -->
<g id="node16" class="node"><title>Node16</title>
<g id="a_node16"><a xlink:href="../../d2/dad/classamunmt_1_1GPU_1_1Multiplicative.html#a1f485aad0d4da73469d58f61fc121341" target="_top" xlink:title="amunmt::GPU::Multiplicative\l::GetNextState">
<polygon fill="white" stroke="black" points="150.5,-142 150.5,-172 293.5,-172 293.5,-142 150.5,-142"/>
<text text-anchor="start" x="158.5" y="-160" font-family="Helvetica,sans-Serif" font-size="10.00">amunmt::GPU::Multiplicative</text>
<text text-anchor="middle" x="222" y="-149" font-family="Helvetica,sans-Serif" font-size="10.00">::GetNextState</text>
</a>
</g>
</g>
<!-- Node1&#45;&gt;Node16 -->
<g id="edge15" class="edge"><title>Node1&#45;&gt;Node16</title>
<path fill="none" stroke="midnightblue" d="M91.1701,-209.747C107.946,-200.287 128.665,-189.307 148,-181 155.355,-177.84 163.272,-174.843 171.084,-172.106"/>
<polygon fill="midnightblue" stroke="midnightblue" points="89.2367,-206.821 82.2894,-214.82 92.7087,-212.899 89.2367,-206.821"/>
</g>
<!-- Node5 -->
<g id="node5" class="node"><title>Node5</title>
<g id="a_node5"><a xlink:href="../../d2/d16/classDeviceCPU.html#ad86a817a1e6d8e56ce39ceaf0c61ba27" target="_top" xlink:title="DeviceCPU::reserve">
<polygon fill="white" stroke="black" points="360.5,-480.5 360.5,-499.5 467.5,-499.5 467.5,-480.5 360.5,-480.5"/>
<text text-anchor="middle" x="414" y="-487.5" font-family="Helvetica,sans-Serif" font-size="10.00">DeviceCPU::reserve</text>
</a>
</g>
</g>
<!-- Node4&#45;&gt;Node5 -->
<g id="edge4" class="edge"><title>Node4&#45;&gt;Node5</title>
<path fill="none" stroke="midnightblue" d="M287.008,-222.685C290.33,-225.094 293.373,-227.849 296,-231 365.061,-313.851 258.902,-391.687 332,-471 339.44,-479.072 349.601,-484.026 360.212,-487.002"/>
<polygon fill="midnightblue" stroke="midnightblue" points="288.62,-219.57 278.254,-217.383 284.994,-225.557 288.62,-219.57"/>
</g>
<!-- Node6 -->
<g id="node6" class="node"><title>Node6</title>
<g id="a_node6"><a xlink:href="../../d0/dd3/classamunmt_1_1GPU_1_1ClassLanguageModel.html#a0cbf0d5fec22724b1e8e33e4aa6f779c" target="_top" xlink:title="amunmt::GPU::ClassLanguage\lModel::Score">
<polygon fill="white" stroke="black" points="337.5,-431 337.5,-461 490.5,-461 490.5,-431 337.5,-431"/>
<text text-anchor="start" x="345.5" y="-449" font-family="Helvetica,sans-Serif" font-size="10.00">amunmt::GPU::ClassLanguage</text>
<text text-anchor="middle" x="414" y="-438" font-family="Helvetica,sans-Serif" font-size="10.00">Model::Score</text>
</a>
</g>
</g>
<!-- Node4&#45;&gt;Node6 -->
<g id="edge5" class="edge"><title>Node4&#45;&gt;Node6</title>
<path fill="none" stroke="midnightblue" d="M286.872,-222.8C290.227,-225.181 293.315,-227.898 296,-231 352.541,-296.308 274.103,-357.89 332,-422 335.047,-425.374 338.544,-428.283 342.338,-430.79"/>
<polygon fill="midnightblue" stroke="midnightblue" points="288.44,-219.661 278.058,-217.549 284.858,-225.674 288.44,-219.661"/>
</g>
<!-- Node7 -->
<g id="node7" class="node"><title>Node7</title>
<g id="a_node7"><a xlink:href="../../d2/d2b/classmarian_1_1data_1_1Dataset.html#a27ff57e73e81b555305a5f45cde30d91" target="_top" xlink:title="marian::data::Dataset\l::toBatch">
<polygon fill="white" stroke="black" points="358.5,-382 358.5,-412 469.5,-412 469.5,-382 358.5,-382"/>
<text text-anchor="start" x="366.5" y="-400" font-family="Helvetica,sans-Serif" font-size="10.00">marian::data::Dataset</text>
<text text-anchor="middle" x="414" y="-389" font-family="Helvetica,sans-Serif" font-size="10.00">::toBatch</text>
</a>
</g>
</g>
<!-- Node4&#45;&gt;Node7 -->
<g id="edge6" class="edge"><title>Node4&#45;&gt;Node7</title>
<path fill="none" stroke="midnightblue" d="M286.834,-223.123C290.173,-225.425 293.27,-228.037 296,-231 340.121,-278.879 286.886,-326.056 332,-373 339.114,-380.403 348.394,-385.551 358.123,-389.125"/>
<polygon fill="midnightblue" stroke="midnightblue" points="288.504,-220.045 278.105,-218.013 284.968,-226.086 288.504,-220.045"/>
</g>
<!-- Node8 -->
<g id="node8" class="node"><title>Node8</title>
<g id="a_node8"><a xlink:href="../../d9/d05/classamunmt_1_1GPU_1_1Decoder_1_1Embeddings.html#a5c32bbdcdde7a6d814f8599e8d4955a8" target="_top" xlink:title="amunmt::GPU::Decoder\l::Embeddings\&lt; amunmt\l::GPU::Weights::DecEmbeddings\l \&gt;::Lookup">
<polygon fill="white" stroke="black" points="332,-311 332,-363 496,-363 496,-311 332,-311"/>
<text text-anchor="start" x="340" y="-351" font-family="Helvetica,sans-Serif" font-size="10.00">amunmt::GPU::Decoder</text>
<text text-anchor="start" x="340" y="-340" font-family="Helvetica,sans-Serif" font-size="10.00">::Embeddings&lt; amunmt</text>
<text text-anchor="start" x="340" y="-329" font-family="Helvetica,sans-Serif" font-size="10.00">::GPU::Weights::DecEmbeddings</text>
<text text-anchor="middle" x="414" y="-318" font-family="Helvetica,sans-Serif" font-size="10.00"> &gt;::Lookup</text>
</a>
</g>
</g>
<!-- Node4&#45;&gt;Node8 -->
<g id="edge7" class="edge"><title>Node4&#45;&gt;Node8</title>
<path fill="none" stroke="midnightblue" d="M286.966,-224.392C290.167,-226.376 293.207,-228.572 296,-231 322.698,-254.216 306.226,-277.762 332,-302 335.459,-305.253 339.269,-308.232 343.293,-310.955"/>
<polygon fill="midnightblue" stroke="midnightblue" points="288.632,-221.314 278.174,-219.617 285.291,-227.465 288.632,-221.314"/>
</g>
<!-- Node9 -->
<g id="node9" class="node"><title>Node9</title>
<g id="a_node9"><a xlink:href="../../df/d32/classamunmt_1_1GPU_1_1Decoder_1_1Alignment.html#aca6a7ea06e3db456c9cf723cb62a975f" target="_top" xlink:title="amunmt::GPU::Decoder\l::Alignment\&lt; amunmt::\lGPU::Weights::DecAlignment\l \&gt;::GetAlignedSourceContext">
<polygon fill="white" stroke="black" points="340,-240 340,-292 488,-292 488,-240 340,-240"/>
<text text-anchor="start" x="348" y="-280" font-family="Helvetica,sans-Serif" font-size="10.00">amunmt::GPU::Decoder</text>
<text text-anchor="start" x="348" y="-269" font-family="Helvetica,sans-Serif" font-size="10.00">::Alignment&lt; amunmt::</text>
<text text-anchor="start" x="348" y="-258" font-family="Helvetica,sans-Serif" font-size="10.00">GPU::Weights::DecAlignment</text>
<text text-anchor="middle" x="414" y="-247" font-family="Helvetica,sans-Serif" font-size="10.00"> &gt;::GetAlignedSourceContext</text>
</a>
</g>
</g>
<!-- Node4&#45;&gt;Node9 -->
<g id="edge8" class="edge"><title>Node4&#45;&gt;Node9</title>
<path fill="none" stroke="midnightblue" d="M280.496,-224.156C299.198,-230.063 320.211,-236.698 339.898,-242.915"/>
<polygon fill="midnightblue" stroke="midnightblue" points="281.535,-220.814 270.945,-221.141 279.427,-227.489 281.535,-220.814"/>
</g>
<!-- Node10 -->
<g id="node10" class="node"><title>Node10</title>
<g id="a_node10"><a xlink:href="../../d1/d49/namespaceamunmt_1_1GPU_1_1mblas.html#ab76a2b350282de9a3eaea50aab7dc329" target="_top" xlink:title="amunmt::GPU::mblas\l::TestMemCpy">
<polygon fill="white" stroke="black" points="358,-191 358,-221 470,-221 470,-191 358,-191"/>
<text text-anchor="start" x="366" y="-209" font-family="Helvetica,sans-Serif" font-size="10.00">amunmt::GPU::mblas</text>
<text text-anchor="middle" x="414" y="-198" font-family="Helvetica,sans-Serif" font-size="10.00">::TestMemCpy</text>
</a>
</g>
</g>
<!-- Node4&#45;&gt;Node10 -->
<g id="edge9" class="edge"><title>Node4&#45;&gt;Node10</title>
<path fill="none" stroke="midnightblue" d="M288.426,-206C311.087,-206 336.241,-206 357.98,-206"/>
<polygon fill="midnightblue" stroke="midnightblue" points="288.211,-202.5 278.211,-206 288.211,-209.5 288.211,-202.5"/>
</g>
<!-- Node11 -->
<g id="node11" class="node"><title>Node11</title>
<g id="a_node11"><a xlink:href="../../d4/deb/classNpzConverter.html#aa996e7f76b03e6501f65a311a9dcd319" target="_top" xlink:title="NpzConverter::Load">
<polygon fill="white" stroke="black" points="362,-152.5 362,-171.5 466,-171.5 466,-152.5 362,-152.5"/>
<text text-anchor="middle" x="414" y="-159.5" font-family="Helvetica,sans-Serif" font-size="10.00">NpzConverter::Load</text>
</a>
</g>
</g>
<!-- Node4&#45;&gt;Node11 -->
<g id="edge10" class="edge"><title>Node4&#45;&gt;Node11</title>
<path fill="none" stroke="midnightblue" d="M288.236,-190.893C315.964,-184.471 347.455,-177.179 371.862,-171.527"/>
<polygon fill="midnightblue" stroke="midnightblue" points="287.164,-187.548 278.211,-193.214 288.743,-194.368 287.164,-187.548"/>
</g>
<!-- Node12 -->
<g id="node12" class="node"><title>Node12</title>
<g id="a_node12"><a xlink:href="../../d5/d54/structmarian_1_1Shape.html#adb8f3c0ab0efd3ca4253d5d7e998b9cc" target="_top" xlink:title="Constructs a shape. ">
<polygon fill="white" stroke="black" points="357.5,-114.5 357.5,-133.5 470.5,-133.5 470.5,-114.5 357.5,-114.5"/>
<text text-anchor="middle" x="414" y="-121.5" font-family="Helvetica,sans-Serif" font-size="10.00">marian::Shape::Shape</text>
</a>
</g>
</g>
<!-- Node4&#45;&gt;Node12 -->
<g id="edge11" class="edge"><title>Node4&#45;&gt;Node12</title>
<path fill="none" stroke="midnightblue" d="M286.2,-186.587C289.595,-184.861 292.887,-183.001 296,-181 315.571,-168.423 311.827,-154.588 332,-143 339.765,-138.539 348.52,-135.125 357.33,-132.511"/>
<polygon fill="midnightblue" stroke="midnightblue" points="284.619,-183.463 277.024,-190.85 287.568,-189.811 284.619,-183.463"/>
</g>
<!-- Node13 -->
<g id="node13" class="node"><title>Node13</title>
<g id="a_node13"><a xlink:href="../../d6/dbf/structmarian_1_1ShapeGPU.html#a13529f654e08e8b5b5a74f6e66c22fdc" target="_top" xlink:title="Constructs a shape. ">
<polygon fill="white" stroke="black" points="335.5,-76.5 335.5,-95.5 492.5,-95.5 492.5,-76.5 335.5,-76.5"/>
<text text-anchor="middle" x="414" y="-83.5" font-family="Helvetica,sans-Serif" font-size="10.00">marian::ShapeGPU::ShapeGPU</text>
</a>
</g>
</g>
<!-- Node4&#45;&gt;Node13 -->
<g id="edge12" class="edge"><title>Node4&#45;&gt;Node13</title>
<path fill="none" stroke="midnightblue" d="M287.325,-187.52C290.403,-185.559 293.321,-183.393 296,-181 323.872,-156.098 302.924,-128.484 332,-105 336.719,-101.188 342.071,-98.1157 347.719,-95.6425"/>
<polygon fill="midnightblue" stroke="midnightblue" points="285.348,-184.614 278.292,-192.517 288.736,-190.739 285.348,-184.614"/>
</g>
<!-- Node14 -->
<g id="node14" class="node"><title>Node14</title>
<g id="a_node14"><a xlink:href="../../d0/d5b/classmarian_1_1TensorCPU.html#a783de048c2d0a6400359bac0f3268080" target="_top" xlink:title="marian::TensorCPU::get">
<polygon fill="white" stroke="black" points="352.5,-38.5 352.5,-57.5 475.5,-57.5 475.5,-38.5 352.5,-38.5"/>
<text text-anchor="middle" x="414" y="-45.5" font-family="Helvetica,sans-Serif" font-size="10.00">marian::TensorCPU::get</text>
</a>
</g>
</g>
<!-- Node4&#45;&gt;Node14 -->
<g id="edge13" class="edge"><title>Node4&#45;&gt;Node14</title>
<path fill="none" stroke="midnightblue" d="M287.106,-188.376C290.316,-186.198 293.315,-183.75 296,-181 333.116,-142.98 293.039,-103.126 332,-67 337.825,-61.5985 344.887,-57.6409 352.383,-54.7562"/>
<polygon fill="midnightblue" stroke="midnightblue" points="285.09,-185.499 278.187,-193.537 288.596,-191.557 285.09,-185.499"/>
</g>
<!-- Node15 -->
<g id="node15" class="node"><title>Node15</title>
<g id="a_node15"><a xlink:href="../../d0/d5b/classmarian_1_1TensorCPU.html#a6ab34ca2fa6d297c4ae2686bdaff12a2" target="_top" xlink:title="marian::TensorCPU::set">
<polygon fill="white" stroke="black" points="352.5,-0.5 352.5,-19.5 475.5,-19.5 475.5,-0.5 352.5,-0.5"/>
<text text-anchor="middle" x="414" y="-7.5" font-family="Helvetica,sans-Serif" font-size="10.00">marian::TensorCPU::set</text>
</a>
</g>
</g>
<!-- Node4&#45;&gt;Node15 -->
<g id="edge14" class="edge"><title>Node4&#45;&gt;Node15</title>
<path fill="none" stroke="midnightblue" d="M286.889,-188.927C290.214,-186.613 293.293,-183.984 296,-181 342.643,-129.578 282.857,-78.0376 332,-29 337.726,-23.2866 344.822,-19.1636 352.416,-16.2086"/>
<polygon fill="midnightblue" stroke="midnightblue" points="285.021,-185.965 278.184,-194.059 288.576,-191.995 285.021,-185.965"/>
</g>
</g>
</svg>
        <g id="navigator" transform="translate(0 0)" fill="#404254">
                <rect fill="#f2f5e9" fill-opacity="0.5" stroke="#606060" stroke-width=".5" x="0" y="0" width="60" height="60"/>
                <use id="zoomplus" xlink:href="#zoomPlus" x="17" y="9" onmousedown="handleZoom(evt,'in')"/>
                <use id="zoomminus" xlink:href="#zoomMin" x="42" y="9" onmousedown="handleZoom(evt,'out')"/>
                <use id="reset" xlink:href="#resetDef" x="30" y="36" onmousedown="handleReset()"/>
                <g id="arrowUp" xlink:href="#dirArrow" transform="translate(30 24)" onmousedown="handlePan(0,-1)">
                  <use xlink:href="#rim" fill="#404040">
                        <set attributeName="fill" to="#808080" begin="arrowUp.mouseover" end="arrowUp.mouseout"/>
                  </use>
                  <path fill="none" stroke="white" stroke-width="1.5" d="M0,-3.0v7 M-2.5,-0.5L0,-3.0L2.5,-0.5"/>
                </g>
                <g id="arrowRight" xlink:href="#dirArrow" transform="rotate(90) translate(36 -43)" onmousedown="handlePan(1,0)">
                  <use xlink:href="#rim" fill="#404040">
                        <set attributeName="fill" to="#808080" begin="arrowRight.mouseover" end="arrowRight.mouseout"/>
                  </use>
                  <path fill="none" stroke="white" stroke-width="1.5" d="M0,-3.0v7 M-2.5,-0.5L0,-3.0L2.5,-0.5"/>
                </g>
                <g id="arrowDown" xlink:href="#dirArrow" transform="rotate(180) translate(-30 -48)" onmousedown="handlePan(0,1)">
                  <use xlink:href="#rim" fill="#404040">
                        <set attributeName="fill" to="#808080" begin="arrowDown.mouseover" end="arrowDown.mouseout"/>
                  </use>
                  <path fill="none" stroke="white" stroke-width="1.5" d="M0,-3.0v7 M-2.5,-0.5L0,-3.0L2.5,-0.5"/>
                </g>
                <g id="arrowLeft" xlink:href="#dirArrow" transform="rotate(270) translate(-36 17)" onmousedown="handlePan(-1,0)">
                  <use xlink:href="#rim" fill="#404040">
                        <set attributeName="fill" to="#808080" begin="arrowLeft.mouseover" end="arrowLeft.mouseout"/>
                  </use>
                  <path fill="none" stroke="white" stroke-width="1.5" d="M0,-3.0v7 M-2.5,-0.5L0,-3.0L2.5,-0.5"/>
                </g>
        </g>
        <svg viewBox="0 0 15 15" width="100%" height="30px" preserveAspectRatio="xMaxYMin meet">
         <g id="arrow_out" transform="scale(0.3 0.3)">
          <a xlink:href="namespaceamunmt_1_1GPU_1_1mblas_a6359878c47a6c3703d7d8b6e9db1d87e_icgraph_org.svg" target="_base">
           <rect id="button" ry="5" rx="5" y="6" x="6" height="38" width="38"
                fill="#f2f5e9" fill-opacity="0.5" stroke="#606060" stroke-width="1.0"/>
           <path id="arrow"
             d="M 11.500037,31.436501 C 11.940474,20.09759 22.043105,11.32322 32.158766,21.979434 L 37.068811,17.246167 C 37.068811,17.246167 37.088388,32 37.088388,32 L 22.160133,31.978069 C 22.160133,31.978069 26.997745,27.140456 26.997745,27.140456 C 18.528582,18.264221 13.291696,25.230495 11.500037,31.436501 z"
             style="fill:#404040;"/>
          </a>
         </g>
        </svg>
</svg>
