<?xml version="1.0" encoding="UTF-8" standalone="no"?>
<!DOCTYPE svg PUBLIC "-//W3C//DTD SVG 1.1//EN"
 "http://www.w3.org/Graphics/SVG/1.1/DTD/svg11.dtd">
<!-- Generated by graphviz version 2.38.0 (20140413.2041)
 -->
<!-- Title: amunmt::GPU::mblas::Assemble Pages: 1 -->
<!--zoomable 509 -->
<svg id="main" version="1.1" xmlns="http://www.w3.org/2000/svg" xmlns:xlink="http://www.w3.org/1999/xlink" xml:space="preserve" onload="init(evt)">
<style type="text/css"><![CDATA[
.edge:hover path { stroke: red; }
.edge:hover polygon { stroke: red; fill: red; }
]]></style>
<script type="text/javascript"><![CDATA[
var edges = document.getElementsByTagName('g');
if (edges && edges.length) {
  for (var i=0;i<edges.length;i++) {
    if (edges[i].id.substr(0,4)=='edge') {
      edges[i].setAttribute('class','edge');
    }
  }
}
]]></script>
        <defs>
                <circle id="rim" cx="0" cy="0" r="7"/>
                <circle id="rim2" cx="0" cy="0" r="3.5"/>
                <g id="zoomPlus">
                        <use xlink:href="#rim" fill="#404040">
                                <set attributeName="fill" to="#808080" begin="zoomplus.mouseover" end="zoomplus.mouseout"/>
                        </use>
                        <path d="M-4,0h8M0,-4v8" fill="none" stroke="white" stroke-width="1.5" pointer-events="none"/>
                </g>
                <g id="zoomMin">
                        <use xlink:href="#rim" fill="#404040">
                                <set attributeName="fill" to="#808080" begin="zoomminus.mouseover" end="zoomminus.mouseout"/>
                        </use>
                        <path d="M-4,0h8" fill="none" stroke="white" stroke-width="1.5" pointer-events="none"/>
                </g>
                <g id="dirArrow">
                        <path fill="none" stroke="white" stroke-width="1.5" d="M0,-3.0v7 M-2.5,-0.5L0,-3.0L2.5,-0.5"/>
                </g>
               <g id="resetDef">
                       <use xlink:href="#rim2" fill="#404040">
                               <set attributeName="fill" to="#808080" begin="reset.mouseover" end="reset.mouseout"/>
                       </use>
               </g>
        </defs>

<script type="text/javascript">
var viewWidth = 520;
var viewHeight = 509;
var sectionId = 'dynsection-0';
</script>
<script xlink:href="../../svgpan.js"/>
<svg id="graph" class="graph">
<g id="viewport">
<title>amunmt::GPU::mblas::Assemble</title>
<polygon fill="white" stroke="none" points="-4,4 -4,-504.5 516,-504.5 516,4 -4,4"/>
<!-- Node1 -->
<g id="node1" class="node"><title>Node1</title>
<polygon fill="#bfbfbf" stroke="black" points="0,-337 0,-367 112,-367 112,-337 0,-337"/>
<text text-anchor="start" x="8" y="-355" font-family="Helvetica,sans-Serif" font-size="10.00">amunmt::GPU::mblas</text>
<text text-anchor="middle" x="56" y="-344" font-family="Helvetica,sans-Serif" font-size="10.00">::Assemble</text>
</g>
<!-- Node2 -->
<g id="node2" class="node"><title>Node2</title>
<g id="a_node2"><a xlink:href="../../d9/d05/classamunmt_1_1GPU_1_1Decoder_1_1Embeddings.html#a5c32bbdcdde7a6d814f8599e8d4955a8" target="_top" xlink:title="amunmt::GPU::Decoder\l::Embeddings\&lt; amunmt\l::GPU::Weights::DecEmbeddings\l \&gt;::Lookup">
<polygon fill="white" stroke="black" points="348,-448 348,-500 512,-500 512,-448 348,-448"/>
<text text-anchor="start" x="356" y="-488" font-family="Helvetica,sans-Serif" font-size="10.00">amunmt::GPU::Decoder</text>
<text text-anchor="start" x="356" y="-477" font-family="Helvetica,sans-Serif" font-size="10.00">::Embeddings&lt; amunmt</text>
<text text-anchor="start" x="356" y="-466" font-family="Helvetica,sans-Serif" font-size="10.00">::GPU::Weights::DecEmbeddings</text>
<text text-anchor="middle" x="430" y="-455" font-family="Helvetica,sans-Serif" font-size="10.00"> &gt;::Lookup</text>
</a>
</g>
</g>
<!-- Node1&#45;&gt;Node2 -->
<g id="edge1" class="edge"><title>Node1&#45;&gt;Node2</title>
<path fill="none" stroke="midnightblue" d="M78.5278,-374.172C95.7676,-390.562 121.393,-412.031 148,-424 211.491,-452.561 289.931,-464.833 347.787,-470.092"/>
<polygon fill="midnightblue" stroke="midnightblue" points="80.8272,-371.526 71.2235,-367.051 75.9408,-376.538 80.8272,-371.526"/>
</g>
<!-- Node3 -->
<g id="node3" class="node"><title>Node3</title>
<g id="a_node3"><a xlink:href="../../d2/d4d/classamunmt_1_1GPU_1_1Decoder_1_1Softmax.html#a61d7923502de96f87992e54001e523aa" target="_top" xlink:title="amunmt::GPU::Decoder\l::Softmax\&lt; amunmt::GPU\l::Weights::DecSoftmax \&gt;\l::Filter">
<polygon fill="white" stroke="black" points="164.5,-362 164.5,-414 295.5,-414 295.5,-362 164.5,-362"/>
<text text-anchor="start" x="172.5" y="-402" font-family="Helvetica,sans-Serif" font-size="10.00">amunmt::GPU::Decoder</text>
<text text-anchor="start" x="172.5" y="-391" font-family="Helvetica,sans-Serif" font-size="10.00">::Softmax&lt; amunmt::GPU</text>
<text text-anchor="start" x="172.5" y="-380" font-family="Helvetica,sans-Serif" font-size="10.00">::Weights::DecSoftmax &gt;</text>
<text text-anchor="middle" x="230" y="-369" font-family="Helvetica,sans-Serif" font-size="10.00">::Filter</text>
</a>
</g>
</g>
<!-- Node1&#45;&gt;Node3 -->
<g id="edge2" class="edge"><title>Node1&#45;&gt;Node3</title>
<path fill="none" stroke="midnightblue" d="M122.272,-365.661C136.086,-368.553 150.659,-371.603 164.447,-374.489"/>
<polygon fill="midnightblue" stroke="midnightblue" points="122.874,-362.212 112.369,-363.589 121.44,-369.063 122.874,-362.212"/>
</g>
<!-- Node4 -->
<g id="node4" class="node"><title>Node4</title>
<g id="a_node4"><a xlink:href="../../dc/d4b/classamunmt_1_1GPU_1_1Encoder_1_1Embeddings.html#a8cb9331defa2af0c29d42a776b2b574b" target="_top" xlink:title="amunmt::GPU::Encoder\l::Embeddings\&lt; amunmt\l::GPU::Weights::EncEmbeddings\l \&gt;::Lookup">
<polygon fill="white" stroke="black" points="148,-291 148,-343 312,-343 312,-291 148,-291"/>
<text text-anchor="start" x="156" y="-331" font-family="Helvetica,sans-Serif" font-size="10.00">amunmt::GPU::Encoder</text>
<text text-anchor="start" x="156" y="-320" font-family="Helvetica,sans-Serif" font-size="10.00">::Embeddings&lt; amunmt</text>
<text text-anchor="start" x="156" y="-309" font-family="Helvetica,sans-Serif" font-size="10.00">::GPU::Weights::EncEmbeddings</text>
<text text-anchor="middle" x="230" y="-298" font-family="Helvetica,sans-Serif" font-size="10.00"> &gt;::Lookup</text>
</a>
</g>
</g>
<!-- Node1&#45;&gt;Node4 -->
<g id="edge3" class="edge"><title>Node1&#45;&gt;Node4</title>
<path fill="none" stroke="midnightblue" d="M122.343,-338.703C130.65,-337.013 139.23,-335.267 147.748,-333.534"/>
<polygon fill="midnightblue" stroke="midnightblue" points="121.47,-335.309 112.369,-340.733 122.866,-342.169 121.47,-335.309"/>
</g>
<!-- Node5 -->
<g id="node5" class="node"><title>Node5</title>
<g id="a_node5"><a xlink:href="../../d1/d49/namespaceamunmt_1_1GPU_1_1mblas.html#a6531a040aa422fcd149f89b92f6d2585" target="_top" xlink:title="amunmt::GPU::mblas\l::copy">
<polygon fill="white" stroke="black" points="174,-201 174,-231 286,-231 286,-201 174,-201"/>
<text text-anchor="start" x="182" y="-219" font-family="Helvetica,sans-Serif" font-size="10.00">amunmt::GPU::mblas</text>
<text text-anchor="middle" x="230" y="-208" font-family="Helvetica,sans-Serif" font-size="10.00">::copy</text>
</a>
</g>
</g>
<!-- Node1&#45;&gt;Node5 -->
<g id="edge4" class="edge"><title>Node1&#45;&gt;Node5</title>
<path fill="none" stroke="midnightblue" d="M83.9682,-330.676C118.971,-303 179.187,-255.387 209.85,-231.142"/>
<polygon fill="midnightblue" stroke="midnightblue" points="81.7375,-327.978 76.0642,-336.926 86.0792,-333.469 81.7375,-327.978"/>
</g>
<!-- Node5&#45;&gt;Node2 -->
<g id="edge8" class="edge"><title>Node5&#45;&gt;Node2</title>
<path fill="none" stroke="midnightblue" d="M265.871,-236.668C282.218,-248.069 300.569,-263.642 312,-282 349.612,-342.402 302.724,-383.107 348,-438 351.035,-441.68 354.524,-444.997 358.31,-447.984"/>
<polygon fill="midnightblue" stroke="midnightblue" points="267.808,-233.754 257.553,-231.094 263.912,-239.569 267.808,-233.754"/>
</g>
<!-- Node6 -->
<g id="node6" class="node"><title>Node6</title>
<g id="a_node6"><a xlink:href="../../d2/d16/classDeviceCPU.html#ad86a817a1e6d8e56ce39ceaf0c61ba27" target="_top" xlink:title="DeviceCPU::reserve">
<polygon fill="white" stroke="black" points="376.5,-409.5 376.5,-428.5 483.5,-428.5 483.5,-409.5 376.5,-409.5"/>
<text text-anchor="middle" x="430" y="-416.5" font-family="Helvetica,sans-Serif" font-size="10.00">DeviceCPU::reserve</text>
</a>
</g>
</g>
<!-- Node5&#45;&gt;Node6 -->
<g id="edge5" class="edge"><title>Node5&#45;&gt;Node6</title>
<path fill="none" stroke="midnightblue" d="M264.985,-236.772C281.282,-248.282 299.853,-263.921 312,-282 342.579,-327.512 307.976,-362.523 348,-400 355.802,-407.306 365.862,-411.975 376.222,-414.923"/>
<polygon fill="midnightblue" stroke="midnightblue" points="266.951,-233.876 256.716,-231.137 263.009,-239.661 266.951,-233.876"/>
</g>
<!-- Node7 -->
<g id="node7" class="node"><title>Node7</title>
<g id="a_node7"><a xlink:href="../../d0/dd3/classamunmt_1_1GPU_1_1ClassLanguageModel.html#a0cbf0d5fec22724b1e8e33e4aa6f779c" target="_top" xlink:title="amunmt::GPU::ClassLanguage\lModel::Score">
<polygon fill="white" stroke="black" points="353.5,-360 353.5,-390 506.5,-390 506.5,-360 353.5,-360"/>
<text text-anchor="start" x="361.5" y="-378" font-family="Helvetica,sans-Serif" font-size="10.00">amunmt::GPU::ClassLanguage</text>
<text text-anchor="middle" x="430" y="-367" font-family="Helvetica,sans-Serif" font-size="10.00">Model::Score</text>
</a>
</g>
</g>
<!-- Node5&#45;&gt;Node7 -->
<g id="edge6" class="edge"><title>Node5&#45;&gt;Node7</title>
<path fill="none" stroke="midnightblue" d="M262.604,-237.038C278.769,-248.892 297.944,-264.76 312,-282 333.857,-308.809 321.3,-329.01 348,-351 352.189,-354.45 356.859,-357.404 361.784,-359.934"/>
<polygon fill="midnightblue" stroke="midnightblue" points="264.638,-234.19 254.468,-231.219 260.566,-239.884 264.638,-234.19"/>
</g>
<!-- Node8 -->
<g id="node8" class="node"><title>Node8</title>
<g id="a_node8"><a xlink:href="../../d2/d2b/classmarian_1_1data_1_1Dataset.html#a27ff57e73e81b555305a5f45cde30d91" target="_top" xlink:title="marian::data::Dataset\l::toBatch">
<polygon fill="white" stroke="black" points="374.5,-311 374.5,-341 485.5,-341 485.5,-311 374.5,-311"/>
<text text-anchor="start" x="382.5" y="-329" font-family="Helvetica,sans-Serif" font-size="10.00">marian::data::Dataset</text>
<text text-anchor="middle" x="430" y="-318" font-family="Helvetica,sans-Serif" font-size="10.00">::toBatch</text>
</a>
</g>
</g>
<!-- Node5&#45;&gt;Node8 -->
<g id="edge7" class="edge"><title>Node5&#45;&gt;Node8</title>
<path fill="none" stroke="midnightblue" d="M255.327,-237.825C277.917,-257.09 313.212,-284.723 348,-302 356.276,-306.11 365.384,-309.651 374.413,-312.653"/>
<polygon fill="midnightblue" stroke="midnightblue" points="257.455,-235.038 247.603,-231.141 252.875,-240.331 257.455,-235.038"/>
</g>
<!-- Node9 -->
<g id="node9" class="node"><title>Node9</title>
<g id="a_node9"><a xlink:href="../../df/d32/classamunmt_1_1GPU_1_1Decoder_1_1Alignment.html#aca6a7ea06e3db456c9cf723cb62a975f" target="_top" xlink:title="amunmt::GPU::Decoder\l::Alignment\&lt; amunmt::\lGPU::Weights::DecAlignment\l \&gt;::GetAlignedSourceContext">
<polygon fill="white" stroke="black" points="356,-240 356,-292 504,-292 504,-240 356,-240"/>
<text text-anchor="start" x="364" y="-280" font-family="Helvetica,sans-Serif" font-size="10.00">amunmt::GPU::Decoder</text>
<text text-anchor="start" x="364" y="-269" font-family="Helvetica,sans-Serif" font-size="10.00">::Alignment&lt; amunmt::</text>
<text text-anchor="start" x="364" y="-258" font-family="Helvetica,sans-Serif" font-size="10.00">GPU::Weights::DecAlignment</text>
<text text-anchor="middle" x="430" y="-247" font-family="Helvetica,sans-Serif" font-size="10.00"> &gt;::GetAlignedSourceContext</text>
</a>
</g>
</g>
<!-- Node5&#45;&gt;Node9 -->
<g id="edge9" class="edge"><title>Node5&#45;&gt;Node9</title>
<path fill="none" stroke="midnightblue" d="M295.998,-232.414C315.195,-237.261 336.334,-242.599 355.999,-247.565"/>
<polygon fill="midnightblue" stroke="midnightblue" points="296.707,-228.983 286.154,-229.928 294.993,-235.77 296.707,-228.983"/>
</g>
<!-- Node10 -->
<g id="node10" class="node"><title>Node10</title>
<g id="a_node10"><a xlink:href="../../d1/d49/namespaceamunmt_1_1GPU_1_1mblas.html#ab76a2b350282de9a3eaea50aab7dc329" target="_top" xlink:title="amunmt::GPU::mblas\l::TestMemCpy">
<polygon fill="white" stroke="black" points="374,-191 374,-221 486,-221 486,-191 374,-191"/>
<text text-anchor="start" x="382" y="-209" font-family="Helvetica,sans-Serif" font-size="10.00">amunmt::GPU::mblas</text>
<text text-anchor="middle" x="430" y="-198" font-family="Helvetica,sans-Serif" font-size="10.00">::TestMemCpy</text>
</a>
</g>
</g>
<!-- Node5&#45;&gt;Node10 -->
<g id="edge10" class="edge"><title>Node5&#45;&gt;Node10</title>
<path fill="none" stroke="midnightblue" d="M296.315,-212.701C321.398,-211.434 349.757,-210.002 373.799,-208.788"/>
<polygon fill="midnightblue" stroke="midnightblue" points="295.965,-209.214 286.154,-213.214 296.318,-216.205 295.965,-209.214"/>
</g>
<!-- Node11 -->
<g id="node11" class="node"><title>Node11</title>
<g id="a_node11"><a xlink:href="../../d4/deb/classNpzConverter.html#aa996e7f76b03e6501f65a311a9dcd319" target="_top" xlink:title="NpzConverter::Load">
<polygon fill="white" stroke="black" points="378,-152.5 378,-171.5 482,-171.5 482,-152.5 378,-152.5"/>
<text text-anchor="middle" x="430" y="-159.5" font-family="Helvetica,sans-Serif" font-size="10.00">NpzConverter::Load</text>
</a>
</g>
</g>
<!-- Node5&#45;&gt;Node11 -->
<g id="edge11" class="edge"><title>Node5&#45;&gt;Node11</title>
<path fill="none" stroke="midnightblue" d="M290.662,-198.154C309.01,-192.803 329.298,-187.024 348,-182 361.289,-178.43 375.87,-174.755 388.954,-171.545"/>
<polygon fill="midnightblue" stroke="midnightblue" points="289.59,-194.821 280.977,-200.991 291.558,-201.538 289.59,-194.821"/>
</g>
<!-- Node12 -->
<g id="node12" class="node"><title>Node12</title>
<g id="a_node12"><a xlink:href="../../d5/d54/structmarian_1_1Shape.html#adb8f3c0ab0efd3ca4253d5d7e998b9cc" target="_top" xlink:title="Constructs a shape. ">
<polygon fill="white" stroke="black" points="373.5,-114.5 373.5,-133.5 486.5,-133.5 486.5,-114.5 373.5,-114.5"/>
<text text-anchor="middle" x="430" y="-121.5" font-family="Helvetica,sans-Serif" font-size="10.00">marian::Shape::Shape</text>
</a>
</g>
</g>
<!-- Node5&#45;&gt;Node12 -->
<g id="edge12" class="edge"><title>Node5&#45;&gt;Node12</title>
<path fill="none" stroke="midnightblue" d="M258.805,-194.982C281.659,-178.637 315.46,-156.532 348,-143 357.069,-139.228 367.035,-136.12 376.782,-133.588"/>
<polygon fill="midnightblue" stroke="midnightblue" points="256.643,-192.227 250.608,-200.935 260.756,-197.891 256.643,-192.227"/>
</g>
<!-- Node13 -->
<g id="node13" class="node"><title>Node13</title>
<g id="a_node13"><a xlink:href="../../d6/dbf/structmarian_1_1ShapeGPU.html#a13529f654e08e8b5b5a74f6e66c22fdc" target="_top" xlink:title="Constructs a shape. ">
<polygon fill="white" stroke="black" points="351.5,-76.5 351.5,-95.5 508.5,-95.5 508.5,-76.5 351.5,-76.5"/>
<text text-anchor="middle" x="430" y="-83.5" font-family="Helvetica,sans-Serif" font-size="10.00">marian::ShapeGPU::ShapeGPU</text>
</a>
</g>
</g>
<!-- Node5&#45;&gt;Node13 -->
<g id="edge13" class="edge"><title>Node5&#45;&gt;Node13</title>
<path fill="none" stroke="midnightblue" d="M248.967,-192.769C269.949,-167.291 307.042,-127.097 348,-105 355.246,-101.091 363.281,-97.9805 371.394,-95.5071"/>
<polygon fill="midnightblue" stroke="midnightblue" points="246.044,-190.817 242.487,-200.797 251.491,-195.214 246.044,-190.817"/>
</g>
<!-- Node14 -->
<g id="node14" class="node"><title>Node14</title>
<g id="a_node14"><a xlink:href="../../d0/d5b/classmarian_1_1TensorCPU.html#a783de048c2d0a6400359bac0f3268080" target="_top" xlink:title="marian::TensorCPU::get">
<polygon fill="white" stroke="black" points="368.5,-38.5 368.5,-57.5 491.5,-57.5 491.5,-38.5 368.5,-38.5"/>
<text text-anchor="middle" x="430" y="-45.5" font-family="Helvetica,sans-Serif" font-size="10.00">marian::TensorCPU::get</text>
</a>
</g>
</g>
<!-- Node5&#45;&gt;Node14 -->
<g id="edge14" class="edge"><title>Node5&#45;&gt;Node14</title>
<path fill="none" stroke="midnightblue" d="M243.1,-191.92C261.194,-158.482 298.533,-98.5511 348,-67 354.211,-63.0387 361.162,-59.9016 368.311,-57.4176"/>
<polygon fill="midnightblue" stroke="midnightblue" points="239.883,-190.517 238.312,-200.995 246.074,-193.784 239.883,-190.517"/>
</g>
<!-- Node15 -->
<g id="node15" class="node"><title>Node15</title>
<g id="a_node15"><a xlink:href="../../d0/d5b/classmarian_1_1TensorCPU.html#a6ab34ca2fa6d297c4ae2686bdaff12a2" target="_top" xlink:title="marian::TensorCPU::set">
<polygon fill="white" stroke="black" points="368.5,-0.5 368.5,-19.5 491.5,-19.5 491.5,-0.5 368.5,-0.5"/>
<text text-anchor="middle" x="430" y="-7.5" font-family="Helvetica,sans-Serif" font-size="10.00">marian::TensorCPU::set</text>
</a>
</g>
</g>
<!-- Node5&#45;&gt;Node15 -->
<g id="edge15" class="edge"><title>Node5&#45;&gt;Node15</title>
<path fill="none" stroke="midnightblue" d="M239.397,-191.184C254.448,-150.628 289.982,-70.5123 348,-29 354.108,-24.6294 361.077,-21.2504 368.305,-18.6405"/>
<polygon fill="midnightblue" stroke="midnightblue" points="236.021,-190.23 235.931,-200.825 242.608,-192.599 236.021,-190.23"/>
</g>
</g>
</svg>
        <g id="navigator" transform="translate(0 0)" fill="#404254">
                <rect fill="#f2f5e9" fill-opacity="0.5" stroke="#606060" stroke-width=".5" x="0" y="0" width="60" height="60"/>
                <use id="zoomplus" xlink:href="#zoomPlus" x="17" y="9" onmousedown="handleZoom(evt,'in')"/>
                <use id="zoomminus" xlink:href="#zoomMin" x="42" y="9" onmousedown="handleZoom(evt,'out')"/>
                <use id="reset" xlink:href="#resetDef" x="30" y="36" onmousedown="handleReset()"/>
                <g id="arrowUp" xlink:href="#dirArrow" transform="translate(30 24)" onmousedown="handlePan(0,-1)">
                  <use xlink:href="#rim" fill="#404040">
                        <set attributeName="fill" to="#808080" begin="arrowUp.mouseover" end="arrowUp.mouseout"/>
                  </use>
                  <path fill="none" stroke="white" stroke-width="1.5" d="M0,-3.0v7 M-2.5,-0.5L0,-3.0L2.5,-0.5"/>
                </g>
                <g id="arrowRight" xlink:href="#dirArrow" transform="rotate(90) translate(36 -43)" onmousedown="handlePan(1,0)">
                  <use xlink:href="#rim" fill="#404040">
                        <set attributeName="fill" to="#808080" begin="arrowRight.mouseover" end="arrowRight.mouseout"/>
                  </use>
                  <path fill="none" stroke="white" stroke-width="1.5" d="M0,-3.0v7 M-2.5,-0.5L0,-3.0L2.5,-0.5"/>
                </g>
                <g id="arrowDown" xlink:href="#dirArrow" transform="rotate(180) translate(-30 -48)" onmousedown="handlePan(0,1)">
                  <use xlink:href="#rim" fill="#404040">
                        <set attributeName="fill" to="#808080" begin="arrowDown.mouseover" end="arrowDown.mouseout"/>
                  </use>
                  <path fill="none" stroke="white" stroke-width="1.5" d="M0,-3.0v7 M-2.5,-0.5L0,-3.0L2.5,-0.5"/>
                </g>
                <g id="arrowLeft" xlink:href="#dirArrow" transform="rotate(270) translate(-36 17)" onmousedown="handlePan(-1,0)">
                  <use xlink:href="#rim" fill="#404040">
                        <set attributeName="fill" to="#808080" begin="arrowLeft.mouseover" end="arrowLeft.mouseout"/>
                  </use>
                  <path fill="none" stroke="white" stroke-width="1.5" d="M0,-3.0v7 M-2.5,-0.5L0,-3.0L2.5,-0.5"/>
                </g>
        </g>
        <svg viewBox="0 0 15 15" width="100%" height="30px" preserveAspectRatio="xMaxYMin meet">
         <g id="arrow_out" transform="scale(0.3 0.3)">
          <a xlink:href="namespaceamunmt_1_1GPU_1_1mblas_a45e67b812840551fae28c4f7cca2b562_icgraph_org.svg" target="_base">
           <rect id="button" ry="5" rx="5" y="6" x="6" height="38" width="38"
                fill="#f2f5e9" fill-opacity="0.5" stroke="#606060" stroke-width="1.0"/>
           <path id="arrow"
             d="M 11.500037,31.436501 C 11.940474,20.09759 22.043105,11.32322 32.158766,21.979434 L 37.068811,17.246167 C 37.068811,17.246167 37.088388,32 37.088388,32 L 22.160133,31.978069 C 22.160133,31.978069 26.997745,27.140456 26.997745,27.140456 C 18.528582,18.264221 13.291696,25.230495 11.500037,31.436501 z"
             style="fill:#404040;"/>
          </a>
         </g>
        </svg>
</svg>
