<?xml version="1.0" encoding="UTF-8" standalone="no"?>
<!DOCTYPE svg PUBLIC "-//W3C//DTD SVG 1.1//EN"
 "http://www.w3.org/Graphics/SVG/1.1/DTD/svg11.dtd">
<!-- Generated by graphviz version 2.38.0 (20140413.2041)
 -->
<!-- Title: amunmt::GPU::mblas::testidToMatrixInd Pages: 1 -->
<svg width="445pt" height="201pt"
 viewBox="0.00 0.00 445.00 201.00" xmlns="http://www.w3.org/2000/svg" xmlns:xlink="http://www.w3.org/1999/xlink">
<g id="graph0" class="graph" transform="scale(1 1) rotate(0) translate(4 197)">
<title>amunmt::GPU::mblas::testidToMatrixInd</title>
<polygon fill="white" stroke="none" points="-4,4 -4,-197 441,-197 441,4 -4,4"/>
<!-- Node1 -->
<g id="node1" class="node"><title>Node1</title>
<polygon fill="#bfbfbf" stroke="black" points="0,-69.5 0,-99.5 112,-99.5 112,-69.5 0,-69.5"/>
<text text-anchor="start" x="8" y="-87.5" font-family="Helvetica,sans-Serif" font-size="10.00">amunmt::GPU::mblas</text>
<text text-anchor="middle" x="56" y="-76.5" font-family="Helvetica,sans-Serif" font-size="10.00">::testidToMatrixInd</text>
</g>
<!-- Node2 -->
<g id="node2" class="node"><title>Node2</title>
<g id="a_node2"><a xlink:href="../../d7/d34/classamunmt_1_1GPU_1_1mblas_1_1MatrixWrapper.html#afa181ca54a0a16e376f27cc2ba2fac9d" target="_top" xlink:title="amunmt::GPU::mblas\l::MatrixWrapper::Debug">
<polygon fill="white" stroke="black" points="156,-162.5 156,-192.5 277,-192.5 277,-162.5 156,-162.5"/>
<text text-anchor="start" x="164" y="-180.5" font-family="Helvetica,sans-Serif" font-size="10.00">amunmt::GPU::mblas</text>
<text text-anchor="middle" x="216.5" y="-169.5" font-family="Helvetica,sans-Serif" font-size="10.00">::MatrixWrapper::Debug</text>
</a>
</g>
</g>
<!-- Node1&#45;&gt;Node2 -->
<g id="edge1" class="edge"><title>Node1&#45;&gt;Node2</title>
<path fill="none" stroke="midnightblue" d="M73.6907,-99.6871C91.1619,-114.951 119.913,-138.331 148,-153.5 151.104,-155.176 154.348,-156.775 157.663,-158.294"/>
<polygon fill="midnightblue" stroke="midnightblue" points="156.57,-161.633 167.14,-162.359 159.329,-155.2 156.57,-161.633"/>
</g>
<!-- Node4 -->
<g id="node4" class="node"><title>Node4</title>
<g id="a_node4"><a xlink:href="../../d7/d34/classamunmt_1_1GPU_1_1mblas_1_1MatrixWrapper.html#aed1483dbf0148749d04eea433582e802" target="_top" xlink:title="amunmt::GPU::mblas\l::MatrixWrapper::size">
<polygon fill="white" stroke="black" points="323,-66.5 323,-96.5 435,-96.5 435,-66.5 323,-66.5"/>
<text text-anchor="start" x="331" y="-84.5" font-family="Helvetica,sans-Serif" font-size="10.00">amunmt::GPU::mblas</text>
<text text-anchor="middle" x="379" y="-73.5" font-family="Helvetica,sans-Serif" font-size="10.00">::MatrixWrapper::size</text>
</a>
</g>
</g>
<!-- Node1&#45;&gt;Node4 -->
<g id="edge3" class="edge"><title>Node1&#45;&gt;Node4</title>
<path fill="none" stroke="midnightblue" d="M112.182,-83.9843C167.732,-83.4651 253.417,-82.6643 312.409,-82.113"/>
<polygon fill="midnightblue" stroke="midnightblue" points="312.766,-85.6099 322.733,-82.0165 312.701,-78.6102 312.766,-85.6099"/>
</g>
<!-- Node5 -->
<g id="node5" class="node"><title>Node5</title>
<g id="a_node5"><a xlink:href="../../d7/d34/classamunmt_1_1GPU_1_1mblas_1_1MatrixWrapper.html#a8846d6edb1c807c90f9aa23f4193a665" target="_top" xlink:title="amunmt::GPU::mblas\l::MatrixWrapper::dim">
<polygon fill="white" stroke="black" points="323,-0.5 323,-30.5 435,-30.5 435,-0.5 323,-0.5"/>
<text text-anchor="start" x="331" y="-18.5" font-family="Helvetica,sans-Serif" font-size="10.00">amunmt::GPU::mblas</text>
<text text-anchor="middle" x="379" y="-7.5" font-family="Helvetica,sans-Serif" font-size="10.00">::MatrixWrapper::dim</text>
</a>
</g>
</g>
<!-- Node1&#45;&gt;Node5 -->
<g id="edge4" class="edge"><title>Node1&#45;&gt;Node5</title>
<path fill="none" stroke="midnightblue" d="M70.6742,-69.4088C87.104,-52.5144 116.428,-26.1161 148,-15.5 201.42,2.4628 265.85,0.61831 312.91,-4.65259"/>
<polygon fill="midnightblue" stroke="midnightblue" points="312.632,-8.1442 322.978,-5.86172 313.466,-1.19415 312.632,-8.1442"/>
</g>
<!-- Node6 -->
<g id="node6" class="node"><title>Node6</title>
<g id="a_node6"><a xlink:href="../../d7/d34/classamunmt_1_1GPU_1_1mblas_1_1MatrixWrapper.html#a1e70b609eca106cb5a161d8cc186cf07" target="_top" xlink:title="amunmt::GPU::mblas\l::MatrixWrapper::id2Indices">
<polygon fill="white" stroke="black" points="148,-113.5 148,-143.5 285,-143.5 285,-113.5 148,-113.5"/>
<text text-anchor="start" x="156" y="-131.5" font-family="Helvetica,sans-Serif" font-size="10.00">amunmt::GPU::mblas</text>
<text text-anchor="middle" x="216.5" y="-120.5" font-family="Helvetica,sans-Serif" font-size="10.00">::MatrixWrapper::id2Indices</text>
</a>
</g>
</g>
<!-- Node1&#45;&gt;Node6 -->
<g id="edge5" class="edge"><title>Node1&#45;&gt;Node6</title>
<path fill="none" stroke="midnightblue" d="M111.103,-99.5192C124.165,-103.145 138.244,-107.053 151.703,-110.79"/>
<polygon fill="midnightblue" stroke="midnightblue" points="150.8,-114.171 161.372,-113.474 152.672,-107.426 150.8,-114.171"/>
</g>
<!-- Node7 -->
<g id="node7" class="node"><title>Node7</title>
<g id="a_node7"><a xlink:href="../../d7/d34/classamunmt_1_1GPU_1_1mblas_1_1MatrixWrapper.html#a09c3749fd756b2b72de447ef5ee66cfa" target="_top" xlink:title="amunmt::GPU::mblas\l::MatrixWrapper::indices2Id">
<polygon fill="white" stroke="black" points="148,-25.5 148,-55.5 285,-55.5 285,-25.5 148,-25.5"/>
<text text-anchor="start" x="156" y="-43.5" font-family="Helvetica,sans-Serif" font-size="10.00">amunmt::GPU::mblas</text>
<text text-anchor="middle" x="216.5" y="-32.5" font-family="Helvetica,sans-Serif" font-size="10.00">::MatrixWrapper::indices2Id</text>
</a>
</g>
</g>
<!-- Node1&#45;&gt;Node7 -->
<g id="edge8" class="edge"><title>Node1&#45;&gt;Node7</title>
<path fill="none" stroke="midnightblue" d="M111.103,-69.4808C124.165,-65.8548 138.244,-61.9466 151.703,-58.2101"/>
<polygon fill="midnightblue" stroke="midnightblue" points="152.672,-61.5736 161.372,-55.5262 150.8,-54.8287 152.672,-61.5736"/>
</g>
<!-- Node3 -->
<g id="node3" class="node"><title>Node3</title>
<g id="a_node3"><a xlink:href="../../d7/d34/classamunmt_1_1GPU_1_1mblas_1_1MatrixWrapper.html#a8e0bd961034d3596ec4a93dfaf58c5a7" target="_top" xlink:title="amunmt::GPU::mblas\l::MatrixWrapper::stride">
<polygon fill="white" stroke="black" points="321,-115.5 321,-145.5 437,-145.5 437,-115.5 321,-115.5"/>
<text text-anchor="start" x="329" y="-133.5" font-family="Helvetica,sans-Serif" font-size="10.00">amunmt::GPU::mblas</text>
<text text-anchor="middle" x="379" y="-122.5" font-family="Helvetica,sans-Serif" font-size="10.00">::MatrixWrapper::stride</text>
</a>
</g>
</g>
<!-- Node2&#45;&gt;Node3 -->
<g id="edge2" class="edge"><title>Node2&#45;&gt;Node3</title>
<path fill="none" stroke="midnightblue" d="M268.724,-162.5C284.071,-158.006 301.054,-153.032 316.967,-148.373"/>
<polygon fill="midnightblue" stroke="midnightblue" points="318.098,-151.688 326.712,-145.519 316.131,-144.97 318.098,-151.688"/>
</g>
<!-- Node6&#45;&gt;Node3 -->
<g id="edge7" class="edge"><title>Node6&#45;&gt;Node3</title>
<path fill="none" stroke="midnightblue" d="M285.101,-129.342C293.567,-129.448 302.226,-129.556 310.688,-129.661"/>
<polygon fill="midnightblue" stroke="midnightblue" points="310.842,-133.163 320.885,-129.788 310.929,-126.164 310.842,-133.163"/>
</g>
<!-- Node6&#45;&gt;Node4 -->
<g id="edge6" class="edge"><title>Node6&#45;&gt;Node4</title>
<path fill="none" stroke="midnightblue" d="M268.724,-113.5C284.071,-109.006 301.054,-104.032 316.967,-99.3727"/>
<polygon fill="midnightblue" stroke="midnightblue" points="318.098,-102.688 326.712,-96.519 316.131,-95.9705 318.098,-102.688"/>
</g>
<!-- Node7&#45;&gt;Node3 -->
<g id="edge10" class="edge"><title>Node7&#45;&gt;Node3</title>
<path fill="none" stroke="midnightblue" d="M239.547,-55.6816C260.124,-69.5259 291.936,-90.1075 321,-105.5 324.551,-107.381 328.273,-109.243 332.042,-111.051"/>
<polygon fill="midnightblue" stroke="midnightblue" points="330.891,-114.376 341.435,-115.419 333.843,-108.029 330.891,-114.376"/>
</g>
<!-- Node7&#45;&gt;Node4 -->
<g id="edge11" class="edge"><title>Node7&#45;&gt;Node4</title>
<path fill="none" stroke="midnightblue" d="M276.353,-55.5341C288.235,-58.5694 300.792,-61.7772 312.875,-64.8638"/>
<polygon fill="midnightblue" stroke="midnightblue" points="312.333,-68.3375 322.888,-67.4215 314.065,-61.5553 312.333,-68.3375"/>
</g>
<!-- Node7&#45;&gt;Node5 -->
<g id="edge9" class="edge"><title>Node7&#45;&gt;Node5</title>
<path fill="none" stroke="midnightblue" d="M285.101,-29.9702C294.189,-28.5547 303.499,-27.1045 312.549,-25.6949"/>
<polygon fill="midnightblue" stroke="midnightblue" points="313.288,-29.1221 322.63,-24.1246 312.21,-22.2055 313.288,-29.1221"/>
</g>
</g>
</svg>
