<?xml version="1.0" encoding="UTF-8" standalone="no"?>
<!DOCTYPE svg PUBLIC "-//W3C//DTD SVG 1.1//EN"
 "http://www.w3.org/Graphics/SVG/1.1/DTD/svg11.dtd">
<!-- Generated by graphviz version 2.38.0 (20140413.2041)
 -->
<!-- Title: thrust::detail::functional::Exp Pages: 1 -->
<svg width="325pt" height="186pt"
 viewBox="0.00 0.00 325.00 186.00" xmlns="http://www.w3.org/2000/svg" xmlns:xlink="http://www.w3.org/1999/xlink">
<g id="graph0" class="graph" transform="scale(1 1) rotate(0) translate(4 182)">
<title>thrust::detail::functional::Exp</title>
<polygon fill="white" stroke="none" points="-4,4 -4,-182 321,-182 321,4 -4,4"/>
<!-- Node1 -->
<g id="node1" class="node"><title>Node1</title>
<polygon fill="#bfbfbf" stroke="black" points="0,-79 0,-98 142,-98 142,-79 0,-79"/>
<text text-anchor="middle" x="71" y="-86" font-family="Helvetica,sans-Serif" font-size="10.00">thrust::detail::functional::Exp</text>
</g>
<!-- Node2 -->
<g id="node2" class="node"><title>Node2</title>
<g id="a_node2"><a xlink:href="../../d5/dc7/structmarian_1_1ExpNodeOp.html#af16da957d7201c081c7ccac9e2122a2e" target="_top" xlink:title="marian::ExpNodeOp::\lforwardOps">
<polygon fill="white" stroke="black" points="192,-147.5 192,-177.5 303,-177.5 303,-147.5 192,-147.5"/>
<text text-anchor="start" x="200" y="-165.5" font-family="Helvetica,sans-Serif" font-size="10.00">marian::ExpNodeOp::</text>
<text text-anchor="middle" x="247.5" y="-154.5" font-family="Helvetica,sans-Serif" font-size="10.00">forwardOps</text>
</a>
</g>
</g>
<!-- Node1&#45;&gt;Node2 -->
<g id="edge1" class="edge"><title>Node1&#45;&gt;Node2</title>
<path fill="none" stroke="midnightblue" d="M99.9504,-102.658C121.12,-113.142 151.06,-127.461 178,-138.5 185.463,-141.558 193.475,-144.587 201.296,-147.41"/>
<polygon fill="midnightblue" stroke="midnightblue" points="101.394,-99.4672 90.8831,-98.1368 98.2702,-105.732 101.394,-99.4672"/>
</g>
<!-- Node3 -->
<g id="node3" class="node"><title>Node3</title>
<g id="a_node3"><a xlink:href="../../d5/dc7/structmarian_1_1ExpNodeOp.html#a99a3c11f354e675876e681abd964c99d" target="_top" xlink:title="marian::ExpNodeOp::\lbackwardOps">
<polygon fill="white" stroke="black" points="192,-98.5 192,-128.5 303,-128.5 303,-98.5 192,-98.5"/>
<text text-anchor="start" x="200" y="-116.5" font-family="Helvetica,sans-Serif" font-size="10.00">marian::ExpNodeOp::</text>
<text text-anchor="middle" x="247.5" y="-105.5" font-family="Helvetica,sans-Serif" font-size="10.00">backwardOps</text>
</a>
</g>
</g>
<!-- Node1&#45;&gt;Node3 -->
<g id="edge2" class="edge"><title>Node1&#45;&gt;Node3</title>
<path fill="none" stroke="midnightblue" d="M148.489,-99.4584C163.088,-101.55 178.094,-103.7 191.84,-105.669"/>
<polygon fill="midnightblue" stroke="midnightblue" points="148.864,-95.9764 138.469,-98.0227 147.871,-102.906 148.864,-95.9764"/>
</g>
<!-- Node4 -->
<g id="node4" class="node"><title>Node4</title>
<g id="a_node4"><a xlink:href="../../df/da9/structmarian_1_1LexicalProbNodeOp.html#a494a1751a4a92064d0b6f88672e67e69" target="_top" xlink:title="marian::LexicalProbNodeOp\l::backward">
<polygon fill="white" stroke="black" points="178,-49.5 178,-79.5 317,-79.5 317,-49.5 178,-49.5"/>
<text text-anchor="start" x="186" y="-67.5" font-family="Helvetica,sans-Serif" font-size="10.00">marian::LexicalProbNodeOp</text>
<text text-anchor="middle" x="247.5" y="-56.5" font-family="Helvetica,sans-Serif" font-size="10.00">::backward</text>
</a>
</g>
</g>
<!-- Node1&#45;&gt;Node4 -->
<g id="edge3" class="edge"><title>Node1&#45;&gt;Node4</title>
<path fill="none" stroke="midnightblue" d="M151.219,-77.6045C160.138,-76.3779 169.169,-75.1358 177.937,-73.9299"/>
<polygon fill="midnightblue" stroke="midnightblue" points="150.647,-74.1501 141.218,-78.9801 151.601,-81.0848 150.647,-74.1501"/>
</g>
<!-- Node5 -->
<g id="node5" class="node"><title>Node5</title>
<g id="a_node5"><a xlink:href="../../dc/d9b/structthrust_1_1detail_1_1functional_1_1unary__exp.html#af0c82479fa1834d458d1ab159bf4d5b3" target="_top" xlink:title="thrust::detail::functional\l::unary_exp::operator()">
<polygon fill="white" stroke="black" points="188,-0.5 188,-30.5 307,-30.5 307,-0.5 188,-0.5"/>
<text text-anchor="start" x="196" y="-18.5" font-family="Helvetica,sans-Serif" font-size="10.00">thrust::detail::functional</text>
<text text-anchor="middle" x="247.5" y="-7.5" font-family="Helvetica,sans-Serif" font-size="10.00">::unary_exp::operator()</text>
</a>
</g>
</g>
<!-- Node1&#45;&gt;Node5 -->
<g id="edge4" class="edge"><title>Node1&#45;&gt;Node5</title>
<path fill="none" stroke="midnightblue" d="M101.221,-74.552C122.366,-64.6349 151.725,-51.2261 178,-40.5 186.204,-37.1508 195.044,-33.7639 203.557,-30.6105"/>
<polygon fill="midnightblue" stroke="midnightblue" points="99.6767,-71.4104 92.124,-78.8405 102.662,-77.7421 99.6767,-71.4104"/>
</g>
</g>
</svg>
