<?xml version="1.0" encoding="UTF-8" standalone="no"?>
<!DOCTYPE svg PUBLIC "-//W3C//DTD SVG 1.1//EN"
 "http://www.w3.org/Graphics/SVG/1.1/DTD/svg11.dtd">
<!-- Generated by graphviz version 2.38.0 (20140413.2041)
 -->
<!-- Title: cellstate.h Pages: 1 -->
<svg width="589pt" height="420pt"
 viewBox="0.00 0.00 589.00 420.00" xmlns="http://www.w3.org/2000/svg" xmlns:xlink="http://www.w3.org/1999/xlink">
<g id="graph0" class="graph" transform="scale(1 1) rotate(0) translate(4 416)">
<title>cellstate.h</title>
<polygon fill="white" stroke="none" points="-4,4 -4,-416 585,-416 585,4 -4,4"/>
<!-- Node1 -->
<g id="node1" class="node"><title>Node1</title>
<polygon fill="#bfbfbf" stroke="black" points="299,-392.5 299,-411.5 361,-411.5 361,-392.5 299,-392.5"/>
<text text-anchor="middle" x="330" y="-399.5" font-family="Helvetica,sans-Serif" font-size="10.00">cellstate.h</text>
</g>
<!-- Node2 -->
<g id="node2" class="node"><title>Node2</title>
<g id="a_node2"><a xlink:href="../../d0/d1e/encoder__decoder__state_8h.html" target="_top" xlink:title="encoder_decoder_state.h">
<polygon fill="white" stroke="black" points="0,-336.5 0,-355.5 126,-355.5 126,-336.5 0,-336.5"/>
<text text-anchor="middle" x="63" y="-343.5" font-family="Helvetica,sans-Serif" font-size="10.00">encoder_decoder_state.h</text>
</a>
</g>
</g>
<!-- Node1&#45;&gt;Node2 -->
<g id="edge1" class="edge"><title>Node1&#45;&gt;Node2</title>
<path fill="none" stroke="midnightblue" d="M288.756,-392.658C238.959,-382.587 155.648,-365.738 105.358,-355.567"/>
<polygon fill="midnightblue" stroke="midnightblue" points="288.354,-396.148 298.849,-394.7 289.741,-389.287 288.354,-396.148"/>
</g>
<!-- Node3 -->
<g id="node3" class="node"><title>Node3</title>
<g id="a_node3"><a xlink:href="../../d0/ddd/cell_8h.html" target="_top" xlink:title="cell.h">
<polygon fill="white" stroke="black" points="285,-336.5 285,-355.5 325,-355.5 325,-336.5 285,-336.5"/>
<text text-anchor="middle" x="305" y="-343.5" font-family="Helvetica,sans-Serif" font-size="10.00">cell.h</text>
</a>
</g>
</g>
<!-- Node1&#45;&gt;Node3 -->
<g id="edge2" class="edge"><title>Node1&#45;&gt;Node3</title>
<path fill="none" stroke="midnightblue" d="M321.659,-382.983C317.415,-373.817 312.45,-363.092 309.051,-355.751"/>
<polygon fill="midnightblue" stroke="midnightblue" points="318.494,-384.479 325.872,-392.083 324.847,-381.538 318.494,-384.479"/>
</g>
<!-- Node4 -->
<g id="node4" class="node"><title>Node4</title>
<g id="a_node4"><a xlink:href="../../dc/db8/gru_8h.html" target="_top" xlink:title="gru.h">
<polygon fill="white" stroke="black" points="182,-280.5 182,-299.5 220,-299.5 220,-280.5 182,-280.5"/>
<text text-anchor="middle" x="201" y="-287.5" font-family="Helvetica,sans-Serif" font-size="10.00">gru.h</text>
</a>
</g>
</g>
<!-- Node1&#45;&gt;Node4 -->
<g id="edge19" class="edge"><title>Node1&#45;&gt;Node4</title>
<path fill="none" stroke="midnightblue" d="M311.885,-386.052C301.366,-377.335 287.887,-366.102 276,-356 252.63,-336.138 225.499,-312.472 211.136,-299.894"/>
<polygon fill="midnightblue" stroke="midnightblue" points="309.662,-388.755 319.598,-392.432 314.124,-383.361 309.662,-388.755"/>
</g>
<!-- Node5 -->
<g id="node5" class="node"><title>Node5</title>
<g id="a_node5"><a xlink:href="../../d6/d72/decoder_8h.html" target="_top" xlink:title="decoder.h">
<polygon fill="white" stroke="black" points="198.5,-224.5 198.5,-243.5 257.5,-243.5 257.5,-224.5 198.5,-224.5"/>
<text text-anchor="middle" x="228" y="-231.5" font-family="Helvetica,sans-Serif" font-size="10.00">decoder.h</text>
</a>
</g>
</g>
<!-- Node1&#45;&gt;Node5 -->
<g id="edge21" class="edge"><title>Node1&#45;&gt;Node5</title>
<path fill="none" stroke="midnightblue" d="M291.308,-388.987C252.955,-374.708 196.615,-346.735 173,-300 161.4,-277.043 190.977,-255.265 211.115,-243.669"/>
<polygon fill="midnightblue" stroke="midnightblue" points="290.529,-392.425 301.123,-392.49 292.882,-385.832 290.529,-392.425"/>
</g>
<!-- Node9 -->
<g id="node9" class="node"><title>Node9</title>
<g id="a_node9"><a xlink:href="../../d1/d79/encoder_8h.html" target="_top" xlink:title="encoder.h">
<polygon fill="white" stroke="black" points="307.5,-168.5 307.5,-187.5 366.5,-187.5 366.5,-168.5 307.5,-168.5"/>
<text text-anchor="middle" x="337" y="-175.5" font-family="Helvetica,sans-Serif" font-size="10.00">encoder.h</text>
</a>
</g>
</g>
<!-- Node1&#45;&gt;Node9 -->
<g id="edge23" class="edge"><title>Node1&#45;&gt;Node9</title>
<path fill="none" stroke="midnightblue" d="M343.817,-384.273C350.63,-375.889 358.89,-365.519 366,-356 384.15,-331.7 392.218,-327.505 405,-300 415.859,-276.634 416.638,-269.546 420,-244 421.16,-235.187 424.547,-231.638 420,-224 408.512,-204.705 385.55,-193.174 366.684,-186.623"/>
<polygon fill="midnightblue" stroke="midnightblue" points="340.977,-382.218 337.349,-392.172 346.393,-386.652 340.977,-382.218"/>
</g>
<!-- Node10 -->
<g id="node10" class="node"><title>Node10</title>
<g id="a_node10"><a xlink:href="../../d0/d55/lstm_8h.html" target="_top" xlink:title="lstm.h">
<polygon fill="white" stroke="black" points="352,-280.5 352,-299.5 396,-299.5 396,-280.5 352,-280.5"/>
<text text-anchor="middle" x="374" y="-287.5" font-family="Helvetica,sans-Serif" font-size="10.00">lstm.h</text>
</a>
</g>
</g>
<!-- Node1&#45;&gt;Node10 -->
<g id="edge20" class="edge"><title>Node1&#45;&gt;Node10</title>
<path fill="none" stroke="midnightblue" d="M337.201,-382.998C346.801,-358.997 363.413,-317.468 370.563,-299.591"/>
<polygon fill="midnightblue" stroke="midnightblue" points="333.917,-381.784 333.453,-392.368 340.416,-384.384 333.917,-381.784"/>
</g>
<!-- Node11 -->
<g id="node11" class="node"><title>Node11</title>
<g id="a_node11"><a xlink:href="../../d6/d81/multiplicative_8h.html" target="_top" xlink:title="multiplicative.h">
<polygon fill="white" stroke="black" points="314,-224.5 314,-243.5 396,-243.5 396,-224.5 314,-224.5"/>
<text text-anchor="middle" x="355" y="-231.5" font-family="Helvetica,sans-Serif" font-size="10.00">multiplicative.h</text>
</a>
</g>
</g>
<!-- Node1&#45;&gt;Node11 -->
<g id="edge22" class="edge"><title>Node1&#45;&gt;Node11</title>
<path fill="none" stroke="midnightblue" d="M346.889,-385.525C365.445,-367.226 394.068,-334.826 405,-300 407.662,-291.519 408.616,-288.12 405,-280 397.873,-263.998 381.932,-251.298 369.952,-243.526"/>
<polygon fill="midnightblue" stroke="midnightblue" points="344.437,-383.027 339.634,-392.47 349.278,-388.084 344.437,-383.027"/>
</g>
<!-- Node12 -->
<g id="node12" class="node"><title>Node12</title>
<g id="a_node12"><a xlink:href="../../d4/d8f/cellstate_8cpp.html" target="_top" xlink:title="cellstate.cpp">
<polygon fill="white" stroke="black" points="509,-336.5 509,-355.5 581,-355.5 581,-336.5 509,-336.5"/>
<text text-anchor="middle" x="545" y="-343.5" font-family="Helvetica,sans-Serif" font-size="10.00">cellstate.cpp</text>
</a>
</g>
</g>
<!-- Node1&#45;&gt;Node12 -->
<g id="edge18" class="edge"><title>Node1&#45;&gt;Node12</title>
<path fill="none" stroke="midnightblue" d="M371.098,-390.678C411.645,-380.494 472.909,-365.107 510.857,-355.576"/>
<polygon fill="midnightblue" stroke="midnightblue" points="370.109,-387.317 361.263,-393.148 371.814,-394.106 370.109,-387.317"/>
</g>
<!-- Node3&#45;&gt;Node4 -->
<g id="edge3" class="edge"><title>Node3&#45;&gt;Node4</title>
<path fill="none" stroke="midnightblue" d="M279.172,-331.59C259.943,-321.605 234.255,-308.267 217.668,-299.655"/>
<polygon fill="midnightblue" stroke="midnightblue" points="277.803,-334.822 288.291,-336.324 281.029,-328.61 277.803,-334.822"/>
</g>
<!-- Node3&#45;&gt;Node5 -->
<g id="edge15" class="edge"><title>Node3&#45;&gt;Node5</title>
<path fill="none" stroke="midnightblue" d="M292.464,-328.221C286.235,-319.804 278.64,-309.421 272,-300 258.027,-280.173 242.213,-256.493 233.873,-243.904"/>
<polygon fill="midnightblue" stroke="midnightblue" points="289.801,-330.506 298.577,-336.443 295.419,-326.33 289.801,-330.506"/>
</g>
<!-- Node3&#45;&gt;Node9 -->
<g id="edge17" class="edge"><title>Node3&#45;&gt;Node9</title>
<path fill="none" stroke="midnightblue" d="M301.547,-326.226C297.855,-301.966 293.912,-258.724 305,-224 309.549,-209.754 320.437,-196.16 328.249,-187.714"/>
<polygon fill="midnightblue" stroke="midnightblue" points="298.116,-326.931 303.222,-336.214 305.02,-325.773 298.116,-326.931"/>
</g>
<!-- Node3&#45;&gt;Node10 -->
<g id="edge10" class="edge"><title>Node3&#45;&gt;Node10</title>
<path fill="none" stroke="midnightblue" d="M324.038,-330.101C336.456,-320.382 352.243,-308.027 362.712,-299.834"/>
<polygon fill="midnightblue" stroke="midnightblue" points="321.804,-327.405 316.086,-336.324 326.118,-332.917 321.804,-327.405"/>
</g>
<!-- Node3&#45;&gt;Node11 -->
<g id="edge16" class="edge"><title>Node3&#45;&gt;Node11</title>
<path fill="none" stroke="midnightblue" d="M313.183,-326.998C324.092,-302.997 342.969,-261.468 351.095,-243.591"/>
<polygon fill="midnightblue" stroke="midnightblue" points="309.875,-325.816 308.923,-336.368 316.248,-328.713 309.875,-325.816"/>
</g>
<!-- Node4&#45;&gt;Node5 -->
<g id="edge4" class="edge"><title>Node4&#45;&gt;Node5</title>
<path fill="none" stroke="midnightblue" d="M210.009,-270.983C214.592,-261.817 219.954,-251.092 223.624,-243.751"/>
<polygon fill="midnightblue" stroke="midnightblue" points="206.8,-269.573 205.459,-280.083 213.061,-272.704 206.8,-269.573"/>
</g>
<!-- Node4&#45;&gt;Node9 -->
<g id="edge8" class="edge"><title>Node4&#45;&gt;Node9</title>
<path fill="none" stroke="midnightblue" d="M191.004,-271.358C184.483,-257.254 178.883,-237.65 189,-224 216.185,-187.321 272.53,-179.512 307.318,-178.405"/>
<polygon fill="midnightblue" stroke="midnightblue" points="188.016,-273.202 195.703,-280.493 194.24,-269.999 188.016,-273.202"/>
</g>
<!-- Node6 -->
<g id="node6" class="node"><title>Node6</title>
<g id="a_node6"><a xlink:href="../../db/d89/dl4mt_8h.html" target="_top" xlink:title="dl4mt.h">
<polygon fill="white" stroke="black" points="266.5,-112.5 266.5,-131.5 315.5,-131.5 315.5,-112.5 266.5,-112.5"/>
<text text-anchor="middle" x="291" y="-119.5" font-family="Helvetica,sans-Serif" font-size="10.00">dl4mt.h</text>
</a>
</g>
</g>
<!-- Node5&#45;&gt;Node6 -->
<g id="edge5" class="edge"><title>Node5&#45;&gt;Node6</title>
<path fill="none" stroke="midnightblue" d="M237.943,-215.64C251.629,-191.744 275.749,-149.629 286.079,-131.591"/>
<polygon fill="midnightblue" stroke="midnightblue" points="234.876,-213.951 232.944,-224.368 240.951,-217.43 234.876,-213.951"/>
</g>
<!-- Node7 -->
<g id="node7" class="node"><title>Node7</title>
<g id="a_node7"><a xlink:href="../../d6/da3/language__model_8h.html" target="_top" xlink:title="language_model.h">
<polygon fill="white" stroke="black" points="243.5,-56.5 243.5,-75.5 338.5,-75.5 338.5,-56.5 243.5,-56.5"/>
<text text-anchor="middle" x="291" y="-63.5" font-family="Helvetica,sans-Serif" font-size="10.00">language_model.h</text>
</a>
</g>
</g>
<!-- Node6&#45;&gt;Node7 -->
<g id="edge6" class="edge"><title>Node6&#45;&gt;Node7</title>
<path fill="none" stroke="midnightblue" d="M291,-101.805C291,-92.9102 291,-82.7798 291,-75.7511"/>
<polygon fill="midnightblue" stroke="midnightblue" points="287.5,-102.083 291,-112.083 294.5,-102.083 287.5,-102.083"/>
</g>
<!-- Node8 -->
<g id="node8" class="node"><title>Node8</title>
<g id="a_node8"><a xlink:href="../../d3/d17/class__language__model_8h.html" target="_top" xlink:title="class_language_model.h">
<polygon fill="white" stroke="black" points="229,-0.5 229,-19.5 353,-19.5 353,-0.5 229,-0.5"/>
<text text-anchor="middle" x="291" y="-7.5" font-family="Helvetica,sans-Serif" font-size="10.00">class_language_model.h</text>
</a>
</g>
</g>
<!-- Node7&#45;&gt;Node8 -->
<g id="edge7" class="edge"><title>Node7&#45;&gt;Node8</title>
<path fill="none" stroke="midnightblue" d="M291,-45.8045C291,-36.9102 291,-26.7798 291,-19.7511"/>
<polygon fill="midnightblue" stroke="midnightblue" points="287.5,-46.083 291,-56.083 294.5,-46.083 287.5,-46.083"/>
</g>
<!-- Node9&#45;&gt;Node6 -->
<g id="edge9" class="edge"><title>Node9&#45;&gt;Node6</title>
<path fill="none" stroke="midnightblue" d="M322.886,-160.431C314.824,-150.967 305.041,-139.483 298.455,-131.751"/>
<polygon fill="midnightblue" stroke="midnightblue" points="320.255,-162.74 329.404,-168.083 325.584,-158.201 320.255,-162.74"/>
</g>
<!-- Node10&#45;&gt;Node5 -->
<g id="edge11" class="edge"><title>Node10&#45;&gt;Node5</title>
<path fill="none" stroke="midnightblue" d="M342.307,-277.278C314.921,-267.149 275.974,-252.744 251.351,-243.637"/>
<polygon fill="midnightblue" stroke="midnightblue" points="341.233,-280.612 351.826,-280.799 343.661,-274.047 341.233,-280.612"/>
</g>
<!-- Node10&#45;&gt;Node9 -->
<g id="edge12" class="edge"><title>Node10&#45;&gt;Node9</title>
<path fill="none" stroke="midnightblue" d="M390.327,-273.043C401.86,-259.753 413.822,-240.416 405,-224 395.619,-206.542 376.161,-194.72 360.454,-187.592"/>
<polygon fill="midnightblue" stroke="midnightblue" points="387.667,-270.763 383.391,-280.457 392.779,-275.545 387.667,-270.763"/>
</g>
<!-- Node10&#45;&gt;Node11 -->
<g id="edge13" class="edge"><title>Node10&#45;&gt;Node11</title>
<path fill="none" stroke="midnightblue" d="M367.454,-270.396C364.276,-261.362 360.607,-250.936 358.079,-243.751"/>
<polygon fill="midnightblue" stroke="midnightblue" points="364.242,-271.812 370.863,-280.083 370.845,-269.488 364.242,-271.812"/>
</g>
<!-- Node11&#45;&gt;Node9 -->
<g id="edge14" class="edge"><title>Node11&#45;&gt;Node9</title>
<path fill="none" stroke="midnightblue" d="M348.799,-214.396C345.787,-205.362 342.312,-194.936 339.917,-187.751"/>
<polygon fill="midnightblue" stroke="midnightblue" points="345.545,-215.703 352.028,-224.083 352.186,-213.489 345.545,-215.703"/>
</g>
</g>
</svg>
