<?xml version="1.0" encoding="UTF-8" standalone="no"?>
<!DOCTYPE svg PUBLIC "-//W3C//DTD SVG 1.1//EN"
 "http://www.w3.org/Graphics/SVG/1.1/DTD/svg11.dtd">
<!-- Generated by graphviz version 2.38.0 (20140413.2041)
 -->
<!-- Title: amunmt::Sentences::NextMiniBatch Pages: 1 -->
<svg width="282pt" height="116pt"
 viewBox="0.00 0.00 282.00 115.50" xmlns="http://www.w3.org/2000/svg" xmlns:xlink="http://www.w3.org/1999/xlink">
<g id="graph0" class="graph" transform="scale(1 1) rotate(0) translate(4 111.5)">
<title>amunmt::Sentences::NextMiniBatch</title>
<polygon fill="white" stroke="none" points="-4,4 -4,-111.5 278,-111.5 278,4 -4,4"/>
<!-- Node1 -->
<g id="node1" class="node"><title>Node1</title>
<polygon fill="#bfbfbf" stroke="black" points="0,-33 0,-63 110,-63 110,-33 0,-33"/>
<text text-anchor="start" x="8" y="-51" font-family="Helvetica,sans-Serif" font-size="10.00">amunmt::Sentences::</text>
<text text-anchor="middle" x="55" y="-40" font-family="Helvetica,sans-Serif" font-size="10.00">NextMiniBatch</text>
</g>
<!-- Node2 -->
<g id="node2" class="node"><title>Node2</title>
<g id="a_node2"><a xlink:href="../../de/ded/classamunmt_1_1Sentences.html#ae8e09eee2812b30969440999118b84d4" target="_top" xlink:title="amunmt::Sentences::\lSentences">
<polygon fill="white" stroke="black" points="155,-77 155,-107 265,-107 265,-77 155,-77"/>
<text text-anchor="start" x="163" y="-95" font-family="Helvetica,sans-Serif" font-size="10.00">amunmt::Sentences::</text>
<text text-anchor="middle" x="210" y="-84" font-family="Helvetica,sans-Serif" font-size="10.00">Sentences</text>
</a>
</g>
</g>
<!-- Node1&#45;&gt;Node2 -->
<g id="edge1" class="edge"><title>Node1&#45;&gt;Node2</title>
<path fill="none" stroke="midnightblue" d="M108.226,-63.0192C120.712,-66.61 134.161,-70.4776 147.039,-74.181"/>
<polygon fill="midnightblue" stroke="midnightblue" points="146.172,-77.5736 156.75,-76.9738 148.107,-70.8463 146.172,-77.5736"/>
</g>
<!-- Node3 -->
<g id="node3" class="node"><title>Node3</title>
<g id="a_node3"><a xlink:href="../../de/ded/classamunmt_1_1Sentences.html#accf70916436eb80cd7f4df9645fd1da8" target="_top" xlink:title="amunmt::Sentences::size">
<polygon fill="white" stroke="black" points="146,-38.5 146,-57.5 274,-57.5 274,-38.5 146,-38.5"/>
<text text-anchor="middle" x="210" y="-45.5" font-family="Helvetica,sans-Serif" font-size="10.00">amunmt::Sentences::size</text>
</a>
</g>
</g>
<!-- Node1&#45;&gt;Node3 -->
<g id="edge2" class="edge"><title>Node1&#45;&gt;Node3</title>
<path fill="none" stroke="midnightblue" d="M110.373,-48C118.645,-48 127.295,-48 135.889,-48"/>
<polygon fill="midnightblue" stroke="midnightblue" points="135.924,-51.5001 145.924,-48 135.924,-44.5001 135.924,-51.5001"/>
</g>
<!-- Node4 -->
<g id="node4" class="node"><title>Node4</title>
<g id="a_node4"><a xlink:href="../../de/ded/classamunmt_1_1Sentences.html#afe33dd6de1f3dfbcff4003c32bdd1f4b" target="_top" xlink:title="amunmt::Sentences::at">
<polygon fill="white" stroke="black" points="150.5,-0.5 150.5,-19.5 269.5,-19.5 269.5,-0.5 150.5,-0.5"/>
<text text-anchor="middle" x="210" y="-7.5" font-family="Helvetica,sans-Serif" font-size="10.00">amunmt::Sentences::at</text>
</a>
</g>
</g>
<!-- Node1&#45;&gt;Node4 -->
<g id="edge3" class="edge"><title>Node1&#45;&gt;Node4</title>
<path fill="none" stroke="midnightblue" d="M110.373,-34.4956C126.875,-30.3971 144.88,-25.9253 160.936,-21.9374"/>
<polygon fill="midnightblue" stroke="midnightblue" points="161.789,-25.3319 170.651,-19.5246 160.102,-18.5383 161.789,-25.3319"/>
</g>
</g>
</svg>
