<?xml version="1.0" encoding="UTF-8" standalone="no"?>
<!DOCTYPE svg PUBLIC "-//W3C//DTD SVG 1.1//EN"
 "http://www.w3.org/Graphics/SVG/1.1/DTD/svg11.dtd">
<!-- Generated by graphviz version 2.38.0 (20140413.2041)
 -->
<!-- Title: amunmt::Sentences::size Pages: 1 -->
<svg width="1170pt" height="259pt"
 viewBox="0.00 0.00 1170.00 258.50" xmlns="http://www.w3.org/2000/svg" xmlns:xlink="http://www.w3.org/1999/xlink">
<g id="graph0" class="graph" transform="scale(1 1) rotate(0) translate(4 254.5)">
<title>amunmt::Sentences::size</title>
<polygon fill="white" stroke="none" points="-4,4 -4,-254.5 1166,-254.5 1166,4 -4,4"/>
<!-- Node1 -->
<g id="node1" class="node"><title>Node1</title>
<polygon fill="#bfbfbf" stroke="black" points="0,-99 0,-118 128,-118 128,-99 0,-99"/>
<text text-anchor="middle" x="64" y="-106" font-family="Helvetica,sans-Serif" font-size="10.00">amunmt::Sentences::size</text>
</g>
<!-- Node2 -->
<g id="node2" class="node"><title>Node2</title>
<g id="a_node2"><a xlink:href="../../d2/d0b/classamunmt_1_1Histories.html#a87f59abc788622fab88049244f3a5d12" target="_top" xlink:title="amunmt::Histories::\lHistories">
<polygon fill="white" stroke="black" points="184.5,-175.5 184.5,-205.5 287.5,-205.5 287.5,-175.5 184.5,-175.5"/>
<text text-anchor="start" x="192.5" y="-193.5" font-family="Helvetica,sans-Serif" font-size="10.00">amunmt::Histories::</text>
<text text-anchor="middle" x="236" y="-182.5" font-family="Helvetica,sans-Serif" font-size="10.00">Histories</text>
</a>
</g>
</g>
<!-- Node1&#45;&gt;Node2 -->
<g id="edge1" class="edge"><title>Node1&#45;&gt;Node2</title>
<path fill="none" stroke="midnightblue" d="M91.3114,-123.091C111.087,-133.869 138.963,-148.66 164,-160.5 174.767,-165.591 186.628,-170.768 197.523,-175.356"/>
<polygon fill="midnightblue" stroke="midnightblue" points="92.7534,-119.891 82.3019,-118.154 89.3892,-126.029 92.7534,-119.891"/>
</g>
<!-- Node3 -->
<g id="node3" class="node"><title>Node3</title>
<g id="a_node3"><a xlink:href="../../d7/d92/classamunmt_1_1Search.html#a8a55a67dbc9dab24441767d7b2066b9a" target="_top" xlink:title="amunmt::Search::Translate">
<polygon fill="white" stroke="black" points="344,-99 344,-118 479,-118 479,-99 344,-99"/>
<text text-anchor="middle" x="411.5" y="-106" font-family="Helvetica,sans-Serif" font-size="10.00">amunmt::Search::Translate</text>
</a>
</g>
</g>
<!-- Node1&#45;&gt;Node3 -->
<g id="edge2" class="edge"><title>Node1&#45;&gt;Node3</title>
<path fill="none" stroke="midnightblue" d="M115.161,-120.038C130.724,-123.101 147.993,-125.978 164,-127.5 227.713,-133.559 244.269,-133.357 308,-127.5 328.185,-125.645 350.327,-121.776 368.851,-118.011"/>
<polygon fill="midnightblue" stroke="midnightblue" points="115.708,-116.578 105.211,-118.011 114.31,-123.437 115.708,-116.578"/>
</g>
<!-- Node15 -->
<g id="node15" class="node"><title>Node15</title>
<g id="a_node15"><a xlink:href="../../d7/d92/classamunmt_1_1Search.html#aeca132502f793a9cf8f54ba5e12a333a" target="_top" xlink:title="amunmt::Search::Encode">
<polygon fill="white" stroke="black" points="172,-99 172,-118 300,-118 300,-99 172,-99"/>
<text text-anchor="middle" x="236" y="-106" font-family="Helvetica,sans-Serif" font-size="10.00">amunmt::Search::Encode</text>
</a>
</g>
</g>
<!-- Node1&#45;&gt;Node15 -->
<g id="edge14" class="edge"><title>Node1&#45;&gt;Node15</title>
<path fill="none" stroke="midnightblue" d="M138.446,-108.5C149.599,-108.5 161.022,-108.5 171.929,-108.5"/>
<polygon fill="midnightblue" stroke="midnightblue" points="138.302,-105 128.302,-108.5 138.302,-112 138.302,-105"/>
</g>
<!-- Node16 -->
<g id="node16" class="node"><title>Node16</title>
<g id="a_node16"><a xlink:href="../../d7/d92/classamunmt_1_1Search.html#adab7a84cbd820e7395a3f79fc604bb06" target="_top" xlink:title="amunmt::Search::FilterTarget\lVocab">
<polygon fill="white" stroke="black" points="164,-49.5 164,-79.5 308,-79.5 308,-49.5 164,-49.5"/>
<text text-anchor="start" x="172" y="-67.5" font-family="Helvetica,sans-Serif" font-size="10.00">amunmt::Search::FilterTarget</text>
<text text-anchor="middle" x="236" y="-56.5" font-family="Helvetica,sans-Serif" font-size="10.00">Vocab</text>
</a>
</g>
</g>
<!-- Node1&#45;&gt;Node16 -->
<g id="edge16" class="edge"><title>Node1&#45;&gt;Node16</title>
<path fill="none" stroke="midnightblue" d="M111.74,-96.4026C131.846,-91.1987 155.562,-85.0605 176.793,-79.5654"/>
<polygon fill="midnightblue" stroke="midnightblue" points="110.691,-93.0586 101.887,-98.9527 112.445,-99.8353 110.691,-93.0586"/>
</g>
<!-- Node17 -->
<g id="node17" class="node"><title>Node17</title>
<g id="a_node17"><a xlink:href="../../de/ded/classamunmt_1_1Sentences.html#ada8019dbcd4db342747d425044468b5e" target="_top" xlink:title="amunmt::Sentences::\lNextMiniBatch">
<polygon fill="white" stroke="black" points="181,-0.5 181,-30.5 291,-30.5 291,-0.5 181,-0.5"/>
<text text-anchor="start" x="189" y="-18.5" font-family="Helvetica,sans-Serif" font-size="10.00">amunmt::Sentences::</text>
<text text-anchor="middle" x="236" y="-7.5" font-family="Helvetica,sans-Serif" font-size="10.00">NextMiniBatch</text>
</a>
</g>
</g>
<!-- Node1&#45;&gt;Node17 -->
<g id="edge18" class="edge"><title>Node1&#45;&gt;Node17</title>
<path fill="none" stroke="midnightblue" d="M84.8865,-92.5003C104.208,-77.5364 134.823,-55.3284 164,-40.5 171.106,-36.8883 178.858,-33.5783 186.542,-30.6314"/>
<polygon fill="midnightblue" stroke="midnightblue" points="82.5515,-89.8837 76.8495,-98.8133 86.8755,-95.3885 82.5515,-89.8837"/>
</g>
<!-- Node4 -->
<g id="node4" class="node"><title>Node4</title>
<g id="a_node4"><a xlink:href="../../d7/dd3/namespaceamunmt.html#a54e0c0c0dd1caecba5c17e45d023fd5e" target="_top" xlink:title="amunmt::TranslationTask">
<polygon fill="white" stroke="black" points="515,-99 515,-118 643,-118 643,-99 515,-99"/>
<text text-anchor="middle" x="579" y="-106" font-family="Helvetica,sans-Serif" font-size="10.00">amunmt::TranslationTask</text>
</a>
</g>
</g>
<!-- Node3&#45;&gt;Node4 -->
<g id="edge3" class="edge"><title>Node3&#45;&gt;Node4</title>
<path fill="none" stroke="midnightblue" d="M489.617,-108.5C498.096,-108.5 506.654,-108.5 514.933,-108.5"/>
<polygon fill="midnightblue" stroke="midnightblue" points="489.338,-105 479.338,-108.5 489.338,-112 489.338,-105"/>
</g>
<!-- Node5 -->
<g id="node5" class="node"><title>Node5</title>
<g id="a_node5"><a xlink:href="../../d5/d49/amunmt_8cpp.html#a86ebd9110196f3b5328ad3c3d31cd007" target="_top" xlink:title="translate">
<polygon fill="white" stroke="black" points="724.5,-143 724.5,-162 778.5,-162 778.5,-143 724.5,-143"/>
<text text-anchor="middle" x="751.5" y="-150" font-family="Helvetica,sans-Serif" font-size="10.00">translate</text>
</a>
</g>
</g>
<!-- Node4&#45;&gt;Node5 -->
<g id="edge4" class="edge"><title>Node4&#45;&gt;Node5</title>
<path fill="none" stroke="midnightblue" d="M626.861,-120.593C658.289,-128.704 698.515,-139.084 724.397,-145.764"/>
<polygon fill="midnightblue" stroke="midnightblue" points="627.553,-117.157 616.996,-118.047 625.804,-123.935 627.553,-117.157"/>
</g>
<!-- Node13 -->
<g id="node13" class="node"><title>Node13</title>
<g id="a_node13"><a xlink:href="../../d7/dd3/namespaceamunmt.html#aac616d7d6dd75bad96a6dcf3afe74e85" target="_top" xlink:title="amunmt::TranslationTaskAnd\lOutput">
<polygon fill="white" stroke="black" points="679,-71.5 679,-101.5 824,-101.5 824,-71.5 679,-71.5"/>
<text text-anchor="start" x="687" y="-89.5" font-family="Helvetica,sans-Serif" font-size="10.00">amunmt::TranslationTaskAnd</text>
<text text-anchor="middle" x="751.5" y="-78.5" font-family="Helvetica,sans-Serif" font-size="10.00">Output</text>
</a>
</g>
</g>
<!-- Node4&#45;&gt;Node13 -->
<g id="edge12" class="edge"><title>Node4&#45;&gt;Node13</title>
<path fill="none" stroke="midnightblue" d="M652.969,-99.0847C661.542,-97.9784 670.285,-96.8503 678.84,-95.7464"/>
<polygon fill="midnightblue" stroke="midnightblue" points="652.473,-95.6195 643.003,-100.371 653.369,-102.562 652.473,-95.6195"/>
</g>
<!-- Node6 -->
<g id="node6" class="node"><title>Node6</title>
<g id="a_node6"><a xlink:href="../../d5/d49/amunmt_8cpp.html#a1fa5ce5d158455cf2d152ebcbcdf29d0" target="_top" xlink:title="BOOST_PYTHON_MODULE">
<polygon fill="white" stroke="black" points="860,-231 860,-250 1006,-250 1006,-231 860,-231"/>
<text text-anchor="middle" x="933" y="-238" font-family="Helvetica,sans-Serif" font-size="10.00">BOOST_PYTHON_MODULE</text>
</a>
</g>
</g>
<!-- Node5&#45;&gt;Node6 -->
<g id="edge5" class="edge"><title>Node5&#45;&gt;Node6</title>
<path fill="none" stroke="midnightblue" d="M772.762,-168.269C793.594,-183.797 827.494,-207.205 860,-221.5 868.521,-225.247 877.944,-228.389 887.087,-230.971"/>
<polygon fill="midnightblue" stroke="midnightblue" points="774.761,-165.393 764.676,-162.147 770.536,-170.974 774.761,-165.393"/>
</g>
<!-- Node7 -->
<g id="node7" class="node"><title>Node7</title>
<g id="a_node7"><a xlink:href="../../d6/d38/classmarian_1_1ConfigParser.html#a07165d2c1c885c858d8127eb09f00e71" target="_top" xlink:title="marian::ConfigParser\l::addOptionsTranslate">
<polygon fill="white" stroke="black" points="876.5,-181.5 876.5,-211.5 989.5,-211.5 989.5,-181.5 876.5,-181.5"/>
<text text-anchor="start" x="884.5" y="-199.5" font-family="Helvetica,sans-Serif" font-size="10.00">marian::ConfigParser</text>
<text text-anchor="middle" x="933" y="-188.5" font-family="Helvetica,sans-Serif" font-size="10.00">::addOptionsTranslate</text>
</a>
</g>
</g>
<!-- Node5&#45;&gt;Node7 -->
<g id="edge6" class="edge"><title>Node5&#45;&gt;Node7</title>
<path fill="none" stroke="midnightblue" d="M788.438,-161.309C813.557,-167.467 847.592,-175.809 876.218,-182.826"/>
<polygon fill="midnightblue" stroke="midnightblue" points="789.147,-157.879 778.601,-158.898 787.48,-164.678 789.147,-157.879"/>
</g>
<!-- Node8 -->
<g id="node8" class="node"><title>Node8</title>
<g id="a_node8"><a xlink:href="../../d2/d47/marian_2src_2common_2logging_8h.html#a32a13f91eb216c334ec310b2a8a2f10c" target="_top" xlink:title="createLoggers">
<polygon fill="white" stroke="black" points="894,-143 894,-162 972,-162 972,-143 894,-143"/>
<text text-anchor="middle" x="933" y="-150" font-family="Helvetica,sans-Serif" font-size="10.00">createLoggers</text>
</a>
</g>
</g>
<!-- Node5&#45;&gt;Node8 -->
<g id="edge7" class="edge"><title>Node5&#45;&gt;Node8</title>
<path fill="none" stroke="midnightblue" d="M788.825,-152.5C819.38,-152.5 862.923,-152.5 893.953,-152.5"/>
<polygon fill="midnightblue" stroke="midnightblue" points="788.601,-149 778.601,-152.5 788.601,-156 788.601,-149"/>
</g>
<!-- Node11 -->
<g id="node11" class="node"><title>Node11</title>
<g id="a_node11"><a xlink:href="../../db/de8/classmarian_1_1OutputCollector.html#aac7fb8a5e89ce5a9bac56a6a414e7fe5" target="_top" xlink:title="marian::OutputCollector\l::Write">
<polygon fill="white" stroke="black" points="873,-93.5 873,-123.5 993,-123.5 993,-93.5 873,-93.5"/>
<text text-anchor="start" x="881" y="-111.5" font-family="Helvetica,sans-Serif" font-size="10.00">marian::OutputCollector</text>
<text text-anchor="middle" x="933" y="-100.5" font-family="Helvetica,sans-Serif" font-size="10.00">::Write</text>
</a>
</g>
</g>
<!-- Node5&#45;&gt;Node11 -->
<g id="edge10" class="edge"><title>Node5&#45;&gt;Node11</title>
<path fill="none" stroke="midnightblue" d="M788.405,-143.699C812.546,-137.781 844.932,-129.843 872.837,-123.002"/>
<polygon fill="midnightblue" stroke="midnightblue" points="787.48,-140.322 778.601,-146.102 789.147,-147.121 787.48,-140.322"/>
</g>
<!-- Node9 -->
<g id="node9" class="node"><title>Node9</title>
<g id="a_node9"><a xlink:href="../../d6/dba/classmarian_1_1Config.html#aa953cca7c4650e7e0538f00388d9f385" target="_top" xlink:title="marian::Config::Config">
<polygon fill="white" stroke="black" points="1044.5,-181 1044.5,-200 1159.5,-200 1159.5,-181 1044.5,-181"/>
<text text-anchor="middle" x="1102" y="-188" font-family="Helvetica,sans-Serif" font-size="10.00">marian::Config::Config</text>
</a>
</g>
</g>
<!-- Node8&#45;&gt;Node9 -->
<g id="edge8" class="edge"><title>Node8&#45;&gt;Node9</title>
<path fill="none" stroke="midnightblue" d="M982.385,-163.51C1006.65,-169.031 1035.75,-175.653 1059.06,-180.956"/>
<polygon fill="midnightblue" stroke="midnightblue" points="982.841,-160.024 972.313,-161.218 981.287,-166.85 982.841,-160.024"/>
</g>
<!-- Node10 -->
<g id="node10" class="node"><title>Node10</title>
<g id="a_node10"><a xlink:href="../../dc/df8/iris_8cpp.html#ae66f6b31b5ad750f1fe042a706a4e3d4" target="_top" xlink:title="main">
<polygon fill="white" stroke="black" points="1083,-143 1083,-162 1121,-162 1121,-143 1083,-143"/>
<text text-anchor="middle" x="1102" y="-150" font-family="Helvetica,sans-Serif" font-size="10.00">main</text>
</a>
</g>
</g>
<!-- Node8&#45;&gt;Node10 -->
<g id="edge9" class="edge"><title>Node8&#45;&gt;Node10</title>
<path fill="none" stroke="midnightblue" d="M982.424,-152.5C1016.06,-152.5 1058.99,-152.5 1082.87,-152.5"/>
<polygon fill="midnightblue" stroke="midnightblue" points="982.313,-149 972.313,-152.5 982.313,-156 982.313,-149"/>
</g>
<!-- Node12 -->
<g id="node12" class="node"><title>Node12</title>
<g id="a_node12"><a xlink:href="../../db/de8/classmarian_1_1OutputCollector.html#a6b877d0629db1fe8d5f5c920025cc859" target="_top" xlink:title="marian::OutputCollector\l::OutputCollector">
<polygon fill="white" stroke="black" points="1042,-93.5 1042,-123.5 1162,-123.5 1162,-93.5 1042,-93.5"/>
<text text-anchor="start" x="1050" y="-111.5" font-family="Helvetica,sans-Serif" font-size="10.00">marian::OutputCollector</text>
<text text-anchor="middle" x="1102" y="-100.5" font-family="Helvetica,sans-Serif" font-size="10.00">::OutputCollector</text>
</a>
</g>
</g>
<!-- Node11&#45;&gt;Node12 -->
<g id="edge11" class="edge"><title>Node11&#45;&gt;Node12</title>
<path fill="none" stroke="midnightblue" d="M1003.46,-108.5C1016.22,-108.5 1029.42,-108.5 1041.84,-108.5"/>
<polygon fill="midnightblue" stroke="midnightblue" points="1003.35,-105 993.348,-108.5 1003.35,-112 1003.35,-105"/>
</g>
<!-- Node14 -->
<g id="node14" class="node"><title>Node14</title>
<g id="a_node14"><a xlink:href="../../d0/d73/decoder__main_8cpp.html#a0ddf1224851353fc92bfbff6f499fa97" target="_top" xlink:title="main">
<polygon fill="white" stroke="black" points="914,-55 914,-74 952,-74 952,-55 914,-55"/>
<text text-anchor="middle" x="933" y="-62" font-family="Helvetica,sans-Serif" font-size="10.00">main</text>
</a>
</g>
</g>
<!-- Node13&#45;&gt;Node14 -->
<g id="edge13" class="edge"><title>Node13&#45;&gt;Node14</title>
<path fill="none" stroke="midnightblue" d="M834.238,-76.482C863.977,-72.837 894.899,-69.0472 913.803,-66.7303"/>
<polygon fill="midnightblue" stroke="midnightblue" points="833.717,-73.0196 824.217,-77.7102 834.569,-79.9676 833.717,-73.0196"/>
</g>
<!-- Node15&#45;&gt;Node3 -->
<g id="edge15" class="edge"><title>Node15&#45;&gt;Node3</title>
<path fill="none" stroke="midnightblue" d="M310.272,-108.5C321.436,-108.5 332.904,-108.5 343.914,-108.5"/>
<polygon fill="midnightblue" stroke="midnightblue" points="310.128,-105 300.128,-108.5 310.128,-112 310.128,-105"/>
</g>
<!-- Node16&#45;&gt;Node3 -->
<g id="edge17" class="edge"><title>Node16&#45;&gt;Node3</title>
<path fill="none" stroke="midnightblue" d="M306.21,-82.0518C329.002,-87.832 353.481,-94.0398 372.991,-98.9876"/>
<polygon fill="midnightblue" stroke="midnightblue" points="306.777,-78.5849 296.224,-79.5192 305.056,-85.3701 306.777,-78.5849"/>
</g>
</g>
</svg>
