<?xml version="1.0" encoding="UTF-8" standalone="no"?>
<!DOCTYPE svg PUBLIC "-//W3C//DTD SVG 1.1//EN"
 "http://www.w3.org/Graphics/SVG/1.1/DTD/svg11.dtd">
<!-- Generated by graphviz version 2.38.0 (20140413.2041)
 -->
<!-- Title: marian::MultiDecoderHardSoftAtt::step Pages: 1 -->
<svg width="465pt" height="306pt"
 viewBox="0.00 0.00 465.00 305.50" xmlns="http://www.w3.org/2000/svg" xmlns:xlink="http://www.w3.org/1999/xlink">
<g id="graph0" class="graph" transform="scale(1 1) rotate(0) translate(4 301.5)">
<title>marian::MultiDecoderHardSoftAtt::step</title>
<polygon fill="white" stroke="none" points="-4,4 -4,-301.5 461,-301.5 461,4 -4,4"/>
<!-- Node1 -->
<g id="node1" class="node"><title>Node1</title>
<polygon fill="#bfbfbf" stroke="black" points="0,-120.5 0,-150.5 131,-150.5 131,-120.5 0,-120.5"/>
<text text-anchor="start" x="8" y="-138.5" font-family="Helvetica,sans-Serif" font-size="10.00">marian::MultiDecoderHard</text>
<text text-anchor="middle" x="65.5" y="-127.5" font-family="Helvetica,sans-Serif" font-size="10.00">SoftAtt::step</text>
</g>
<!-- Node2 -->
<g id="node2" class="node"><title>Node2</title>
<g id="a_node2"><a xlink:href="../../da/d12/classmarian_1_1DecoderState.html#a93f6000b711e4f710f46268e0781eed4" target="_top" xlink:title="marian::DecoderState\l::getTargetEmbeddings">
<polygon fill="white" stroke="black" points="177,-240.5 177,-270.5 295,-270.5 295,-240.5 177,-240.5"/>
<text text-anchor="start" x="185" y="-258.5" font-family="Helvetica,sans-Serif" font-size="10.00">marian::DecoderState</text>
<text text-anchor="middle" x="236" y="-247.5" font-family="Helvetica,sans-Serif" font-size="10.00">::getTargetEmbeddings</text>
</a>
</g>
</g>
<!-- Node1&#45;&gt;Node2 -->
<g id="edge1" class="edge"><title>Node1&#45;&gt;Node2</title>
<path fill="none" stroke="midnightblue" d="M78.9851,-150.662C96.6623,-171.27 130.877,-208.114 167,-230.5 170.181,-232.471 173.541,-234.322 176.995,-236.053"/>
<polygon fill="midnightblue" stroke="midnightblue" points="175.756,-239.336 186.301,-240.359 178.695,-232.984 175.756,-239.336"/>
</g>
<!-- Node3 -->
<g id="node3" class="node"><title>Node3</title>
<g id="a_node3"><a xlink:href="../../da/d22/namespacemarian.html#a268400392f22176821c7c4a36733b178" target="_top" xlink:title="marian::dropout">
<polygon fill="white" stroke="black" points="194,-202 194,-221 278,-221 278,-202 194,-202"/>
<text text-anchor="middle" x="236" y="-209" font-family="Helvetica,sans-Serif" font-size="10.00">marian::dropout</text>
</a>
</g>
</g>
<!-- Node1&#45;&gt;Node3 -->
<g id="edge2" class="edge"><title>Node1&#45;&gt;Node3</title>
<path fill="none" stroke="midnightblue" d="M89.2379,-150.53C109.094,-163.126 139.034,-180.867 167,-192.5 172.719,-194.879 178.83,-197.059 184.955,-199.026"/>
<polygon fill="midnightblue" stroke="midnightblue" points="183.951,-202.379 194.537,-201.94 185.988,-195.682 183.951,-202.379"/>
</g>
<!-- Node9 -->
<g id="node9" class="node"><title>Node9</title>
<g id="a_node9"><a xlink:href="../../da/d22/namespacemarian.html#acd984f43188d0ae23c2a6ef13ae5293f" target="_top" xlink:title="marian::reshape">
<polygon fill="white" stroke="black" points="193,-164 193,-183 279,-183 279,-164 193,-164"/>
<text text-anchor="middle" x="236" y="-171" font-family="Helvetica,sans-Serif" font-size="10.00">marian::reshape</text>
</a>
</g>
</g>
<!-- Node1&#45;&gt;Node9 -->
<g id="edge8" class="edge"><title>Node1&#45;&gt;Node9</title>
<path fill="none" stroke="midnightblue" d="M131.165,-150.083C148.304,-153.948 166.588,-158.072 182.961,-161.764"/>
<polygon fill="midnightblue" stroke="midnightblue" points="182.356,-165.216 192.881,-164.001 183.896,-158.387 182.356,-165.216"/>
</g>
<!-- Node10 -->
<g id="node10" class="node"><title>Node10</title>
<g id="a_node10"><a xlink:href="../../da/d22/namespacemarian.html#ace1e9a63d52edc363d70d661cf8d0257" target="_top" xlink:title="marian::rows">
<polygon fill="white" stroke="black" points="199.5,-126 199.5,-145 272.5,-145 272.5,-126 199.5,-126"/>
<text text-anchor="middle" x="236" y="-133" font-family="Helvetica,sans-Serif" font-size="10.00">marian::rows</text>
</a>
</g>
</g>
<!-- Node1&#45;&gt;Node10 -->
<g id="edge9" class="edge"><title>Node1&#45;&gt;Node10</title>
<path fill="none" stroke="midnightblue" d="M131.165,-135.5C150.56,-135.5 171.422,-135.5 189.321,-135.5"/>
<polygon fill="midnightblue" stroke="midnightblue" points="189.484,-139 199.484,-135.5 189.484,-132 189.484,-139"/>
</g>
<!-- Node11 -->
<g id="node11" class="node"><title>Node11</title>
<g id="a_node11"><a xlink:href="../../da/d22/namespacemarian.html#a2791a2c8f79a938f5cb22ae613680675" target="_top" xlink:title="marian::concatenate">
<polygon fill="white" stroke="black" points="346.5,-47 346.5,-66 451.5,-66 451.5,-47 346.5,-47"/>
<text text-anchor="middle" x="399" y="-54" font-family="Helvetica,sans-Serif" font-size="10.00">marian::concatenate</text>
</a>
</g>
</g>
<!-- Node1&#45;&gt;Node11 -->
<g id="edge10" class="edge"><title>Node1&#45;&gt;Node11</title>
<path fill="none" stroke="midnightblue" d="M129.633,-120.455C193.076,-105.336 289.587,-82.3359 347.939,-68.4302"/>
<polygon fill="midnightblue" stroke="midnightblue" points="349.105,-71.7503 358.021,-66.0274 347.482,-64.941 349.105,-71.7503"/>
</g>
<!-- Node12 -->
<g id="node12" class="node"><title>Node12</title>
<g id="a_node12"><a xlink:href="../../d4/d04/classmarian_1_1rnn_1_1Stackable.html#a33df0f892797bb7ebe12f3c0f18b43ce" target="_top" xlink:title="marian::rnn::Stackable::as">
<polygon fill="white" stroke="black" points="170.5,-50 170.5,-69 301.5,-69 301.5,-50 170.5,-50"/>
<text text-anchor="middle" x="236" y="-57" font-family="Helvetica,sans-Serif" font-size="10.00">marian::rnn::Stackable::as</text>
</a>
</g>
</g>
<!-- Node1&#45;&gt;Node12 -->
<g id="edge11" class="edge"><title>Node1&#45;&gt;Node12</title>
<path fill="none" stroke="midnightblue" d="M93.3079,-120.339C113.277,-109.366 141.398,-94.5783 167,-83.5 176.124,-79.5517 186.132,-75.7435 195.596,-72.3684"/>
<polygon fill="midnightblue" stroke="midnightblue" points="196.911,-75.6165 205.202,-69.0202 194.607,-69.0065 196.911,-75.6165"/>
</g>
<!-- Node13 -->
<g id="node13" class="node"><title>Node13</title>
<g id="a_node13"><a xlink:href="../../d7/db4/classmarian_1_1rnn_1_1GlobalAttention.html#ad518e4c82f56b8f95393dffa2df2288b" target="_top" xlink:title="marian::rnn::GlobalAttention\l::getContext">
<polygon fill="white" stroke="black" points="167,-0.5 167,-30.5 305,-30.5 305,-0.5 167,-0.5"/>
<text text-anchor="start" x="175" y="-18.5" font-family="Helvetica,sans-Serif" font-size="10.00">marian::rnn::GlobalAttention</text>
<text text-anchor="middle" x="236" y="-7.5" font-family="Helvetica,sans-Serif" font-size="10.00">::getContext</text>
</a>
</g>
</g>
<!-- Node1&#45;&gt;Node13 -->
<g id="edge12" class="edge"><title>Node1&#45;&gt;Node13</title>
<path fill="none" stroke="midnightblue" d="M78.9851,-120.338C96.6623,-99.7302 130.877,-62.8857 167,-40.5 170.181,-38.5288 173.541,-36.6782 176.995,-34.9467"/>
<polygon fill="midnightblue" stroke="midnightblue" points="178.695,-38.0164 186.301,-30.6406 175.756,-31.6635 178.695,-38.0164"/>
</g>
<!-- Node4 -->
<g id="node4" class="node"><title>Node4</title>
<g id="a_node4"><a xlink:href="../../d4/d04/namespacemarian_1_1keywords.html#a74d7a2502faafdd421ef3dff629e284f" target="_top" xlink:title="marian::keywords::Get">
<polygon fill="white" stroke="black" points="341,-278 341,-297 457,-297 457,-278 341,-278"/>
<text text-anchor="middle" x="399" y="-285" font-family="Helvetica,sans-Serif" font-size="10.00">marian::keywords::Get</text>
</a>
</g>
</g>
<!-- Node3&#45;&gt;Node4 -->
<g id="edge3" class="edge"><title>Node3&#45;&gt;Node4</title>
<path fill="none" stroke="midnightblue" d="M278.343,-219.984C287.5,-222.849 296.886,-226.608 305,-231.5 324.649,-243.347 321.566,-256.304 341,-268.5 344.192,-270.503 347.618,-272.319 351.148,-273.961"/>
<polygon fill="midnightblue" stroke="midnightblue" points="350.072,-277.304 360.649,-277.91 352.758,-270.84 350.072,-277.304"/>
</g>
<!-- Node5 -->
<g id="node5" class="node"><title>Node5</title>
<g id="a_node5"><a xlink:href="../../da/d22/namespacemarian.html#a763e5e9b5d5a329d2420fe9bab95476d" target="_top" xlink:title="marian::shift">
<polygon fill="white" stroke="black" points="363.5,-240 363.5,-259 434.5,-259 434.5,-240 363.5,-240"/>
<text text-anchor="middle" x="399" y="-247" font-family="Helvetica,sans-Serif" font-size="10.00">marian::shift</text>
</a>
</g>
</g>
<!-- Node3&#45;&gt;Node5 -->
<g id="edge4" class="edge"><title>Node3&#45;&gt;Node5</title>
<path fill="none" stroke="midnightblue" d="M277.627,-221.089C300.776,-226.553 329.81,-233.405 353.563,-239.012"/>
<polygon fill="midnightblue" stroke="midnightblue" points="352.851,-242.44 363.387,-241.331 354.459,-235.627 352.851,-242.44"/>
</g>
<!-- Node6 -->
<g id="node6" class="node"><title>Node6</title>
<g id="a_node6"><a xlink:href="../../da/d22/namespacemarian.html#a3dbe8b5eb203876cd08cf3fe75a1c6bc" target="_top" xlink:title="marian::convolution">
<polygon fill="white" stroke="black" points="348.5,-202 348.5,-221 449.5,-221 449.5,-202 348.5,-202"/>
<text text-anchor="middle" x="399" y="-209" font-family="Helvetica,sans-Serif" font-size="10.00">marian::convolution</text>
</a>
</g>
</g>
<!-- Node3&#45;&gt;Node6 -->
<g id="edge5" class="edge"><title>Node3&#45;&gt;Node6</title>
<path fill="none" stroke="midnightblue" d="M278.044,-211.5C296.291,-211.5 318.131,-211.5 338.146,-211.5"/>
<polygon fill="midnightblue" stroke="midnightblue" points="338.417,-215 348.417,-211.5 338.417,-208 338.417,-215"/>
</g>
<!-- Node7 -->
<g id="node7" class="node"><title>Node7</title>
<g id="a_node7"><a xlink:href="../../da/d22/namespacemarian.html#a8ee119d3ee4867a3c826de62ea1de4f5" target="_top" xlink:title="marian::avg_pooling">
<polygon fill="white" stroke="black" points="347,-164 347,-183 451,-183 451,-164 347,-164"/>
<text text-anchor="middle" x="399" y="-171" font-family="Helvetica,sans-Serif" font-size="10.00">marian::avg_pooling</text>
</a>
</g>
</g>
<!-- Node3&#45;&gt;Node7 -->
<g id="edge6" class="edge"><title>Node3&#45;&gt;Node7</title>
<path fill="none" stroke="midnightblue" d="M277.627,-201.911C298.968,-196.874 325.312,-190.656 347.908,-185.323"/>
<polygon fill="midnightblue" stroke="midnightblue" points="348.736,-188.724 357.665,-183.02 347.128,-181.911 348.736,-188.724"/>
</g>
<!-- Node8 -->
<g id="node8" class="node"><title>Node8</title>
<g id="a_node8"><a xlink:href="../../da/d22/namespacemarian.html#abfe3b8c37f479da0a31a1e843d8bdedf" target="_top" xlink:title="marian::max_pooling">
<polygon fill="white" stroke="black" points="345.5,-126 345.5,-145 452.5,-145 452.5,-126 345.5,-126"/>
<text text-anchor="middle" x="399" y="-133" font-family="Helvetica,sans-Serif" font-size="10.00">marian::max_pooling</text>
</a>
</g>
</g>
<!-- Node3&#45;&gt;Node8 -->
<g id="edge7" class="edge"><title>Node3&#45;&gt;Node8</title>
<path fill="none" stroke="midnightblue" d="M278.032,-203.875C287.3,-201.128 296.811,-197.436 305,-192.5 324.925,-180.49 321.377,-166.997 341,-154.5 344.178,-152.476 347.595,-150.645 351.119,-148.992"/>
<polygon fill="midnightblue" stroke="midnightblue" points="352.732,-152.111 360.608,-145.026 350.032,-145.653 352.732,-152.111"/>
</g>
<!-- Node13&#45;&gt;Node11 -->
<g id="edge13" class="edge"><title>Node13&#45;&gt;Node11</title>
<path fill="none" stroke="midnightblue" d="M296.036,-30.5341C314.041,-35.1192 333.592,-40.0979 350.712,-44.4577"/>
<polygon fill="midnightblue" stroke="midnightblue" points="349.927,-47.8694 360.481,-46.9455 351.654,-41.0859 349.927,-47.8694"/>
</g>
</g>
</svg>
