<?xml version="1.0" encoding="UTF-8" standalone="no"?>
<!DOCTYPE svg PUBLIC "-//W3C//DTD SVG 1.1//EN"
 "http://www.w3.org/Graphics/SVG/1.1/DTD/svg11.dtd">
<!-- Generated by graphviz version 2.38.0 (20140413.2041)
 -->
<!-- Title: output_collector.h Pages: 1 -->
<svg width="400pt" height="84pt"
 viewBox="0.00 0.00 399.50 84.00" xmlns="http://www.w3.org/2000/svg" xmlns:xlink="http://www.w3.org/1999/xlink">
<g id="graph0" class="graph" transform="scale(1 1) rotate(0) translate(4 80)">
<title>output_collector.h</title>
<polygon fill="white" stroke="none" points="-4,4 -4,-80 395.5,-80 395.5,4 -4,4"/>
<!-- Node1 -->
<g id="node1" class="node"><title>Node1</title>
<polygon fill="#bfbfbf" stroke="black" points="90,-56.5 90,-75.5 184,-75.5 184,-56.5 90,-56.5"/>
<text text-anchor="middle" x="137" y="-63.5" font-family="Helvetica,sans-Serif" font-size="10.00">output_collector.h</text>
</g>
<!-- Node2 -->
<g id="node2" class="node"><title>Node2</title>
<polygon fill="white" stroke="#bfbfbf" points="0,-0.5 0,-19.5 54,-19.5 54,-0.5 0,-0.5"/>
<text text-anchor="middle" x="27" y="-7.5" font-family="Helvetica,sans-Serif" font-size="10.00">iostream</text>
</g>
<!-- Node1&#45;&gt;Node2 -->
<g id="edge1" class="edge"><title>Node1&#45;&gt;Node2</title>
<path fill="none" stroke="midnightblue" d="M119.327,-56.324C101.606,-47.6247 74.0968,-34.1202 53.7116,-24.113"/>
<polygon fill="midnightblue" stroke="midnightblue" points="55.1486,-20.9195 44.6295,-19.6545 52.0639,-27.2031 55.1486,-20.9195"/>
</g>
<!-- Node3 -->
<g id="node3" class="node"><title>Node3</title>
<polygon fill="white" stroke="#bfbfbf" points="72.5,-0.5 72.5,-19.5 107.5,-19.5 107.5,-0.5 72.5,-0.5"/>
<text text-anchor="middle" x="90" y="-7.5" font-family="Helvetica,sans-Serif" font-size="10.00">map</text>
</g>
<!-- Node1&#45;&gt;Node3 -->
<g id="edge2" class="edge"><title>Node1&#45;&gt;Node3</title>
<path fill="none" stroke="midnightblue" d="M129.239,-56.083C122.463,-48.2982 112.457,-36.8015 104.245,-27.3665"/>
<polygon fill="midnightblue" stroke="midnightblue" points="106.822,-24.9963 97.6167,-19.7511 101.542,-29.592 106.822,-24.9963"/>
</g>
<!-- Node4 -->
<g id="node4" class="node"><title>Node4</title>
<polygon fill="white" stroke="#bfbfbf" points="125.5,-0.5 125.5,-19.5 244.5,-19.5 244.5,-0.5 125.5,-0.5"/>
<text text-anchor="middle" x="185" y="-7.5" font-family="Helvetica,sans-Serif" font-size="10.00">boost/thread/mutex.hpp</text>
</g>
<!-- Node1&#45;&gt;Node4 -->
<g id="edge3" class="edge"><title>Node1&#45;&gt;Node4</title>
<path fill="none" stroke="midnightblue" d="M144.926,-56.083C151.846,-48.2982 162.065,-36.8015 170.452,-27.3665"/>
<polygon fill="midnightblue" stroke="midnightblue" points="173.194,-29.5505 177.221,-19.7511 167.962,-24.8999 173.194,-29.5505"/>
</g>
<!-- Node5 -->
<g id="node5" class="node"><title>Node5</title>
<polygon fill="white" stroke="#bfbfbf" points="262.5,-0.5 262.5,-19.5 391.5,-19.5 391.5,-0.5 262.5,-0.5"/>
<text text-anchor="middle" x="327" y="-7.5" font-family="Helvetica,sans-Serif" font-size="10.00">boost/unordered_map.hpp</text>
</g>
<!-- Node1&#45;&gt;Node5 -->
<g id="edge4" class="edge"><title>Node1&#45;&gt;Node5</title>
<path fill="none" stroke="midnightblue" d="M167.106,-56.4435C199.626,-47.2011 251.579,-32.4356 287.391,-22.2572"/>
<polygon fill="midnightblue" stroke="midnightblue" points="288.373,-25.617 297.035,-19.5164 286.459,-18.8837 288.373,-25.617"/>
</g>
</g>
</svg>
