<?xml version="1.0" encoding="UTF-8" standalone="no"?>
<!DOCTYPE svg PUBLIC "-//W3C//DTD SVG 1.1//EN"
 "http://www.w3.org/Graphics/SVG/1.1/DTD/svg11.dtd">
<!-- Generated by graphviz version 2.38.0 (20140413.2041)
 -->
<!-- Title: marian::EncoderStateMultiS2S Pages: 1 -->
<svg width="159pt" height="281pt"
 viewBox="0.00 0.00 159.00 281.00" xmlns="http://www.w3.org/2000/svg" xmlns:xlink="http://www.w3.org/1999/xlink">
<g id="graph0" class="graph" transform="scale(1 1) rotate(0) translate(4 277)">
<title>marian::EncoderStateMultiS2S</title>
<polygon fill="white" stroke="none" points="-4,4 -4,-277 155,-277 155,4 -4,4"/>
<!-- Node1 -->
<g id="node1" class="node"><title>Node1</title>
<polygon fill="#bfbfbf" stroke="black" points="0,-0.5 0,-101.5 151,-101.5 151,-0.5 0,-0.5"/>
<text text-anchor="middle" x="75.5" y="-89.5" font-family="Helvetica,sans-Serif" font-size="10.00">marian::EncoderStateMultiS2S</text>
<polyline fill="none" stroke="black" points="0,-82.5 151,-82.5 "/>
<text text-anchor="start" x="8" y="-70.5" font-family="Helvetica,sans-Serif" font-size="10.00">+ enc1</text>
<text text-anchor="start" x="8" y="-59.5" font-family="Helvetica,sans-Serif" font-size="10.00">+ enc2</text>
<polyline fill="none" stroke="black" points="0,-52.5 151,-52.5 "/>
<text text-anchor="start" x="8" y="-40.5" font-family="Helvetica,sans-Serif" font-size="10.00">+ EncoderStateMultiS2S()</text>
<text text-anchor="start" x="8" y="-29.5" font-family="Helvetica,sans-Serif" font-size="10.00">+ getContext()</text>
<text text-anchor="start" x="8" y="-18.5" font-family="Helvetica,sans-Serif" font-size="10.00">+ getMask()</text>
<text text-anchor="start" x="8" y="-7.5" font-family="Helvetica,sans-Serif" font-size="10.00">+ getSourceWords()</text>
</g>
<!-- Node2 -->
<g id="node2" class="node"><title>Node2</title>
<g id="a_node2"><a xlink:href="$dc/d1d/classmarian_1_1EncoderState.html" xlink:title="{marian::EncoderState\n|&#45; context_\l&#45; mask_\l&#45; batch_\l|+ EncoderState()\l+ EncoderState()\l+ getContext()\l+ getAttended()\l+ getMask()\l+ getSourceWords()\l}">
<polygon fill="white" stroke="black" points="20,-138.5 20,-272.5 131,-272.5 131,-138.5 20,-138.5"/>
<text text-anchor="middle" x="75.5" y="-260.5" font-family="Helvetica,sans-Serif" font-size="10.00">marian::EncoderState</text>
<polyline fill="none" stroke="black" points="20,-253.5 131,-253.5 "/>
<text text-anchor="start" x="28" y="-241.5" font-family="Helvetica,sans-Serif" font-size="10.00">&#45; context_</text>
<text text-anchor="start" x="28" y="-230.5" font-family="Helvetica,sans-Serif" font-size="10.00">&#45; mask_</text>
<text text-anchor="start" x="28" y="-219.5" font-family="Helvetica,sans-Serif" font-size="10.00">&#45; batch_</text>
<polyline fill="none" stroke="black" points="20,-212.5 131,-212.5 "/>
<text text-anchor="start" x="28" y="-200.5" font-family="Helvetica,sans-Serif" font-size="10.00">+ EncoderState()</text>
<text text-anchor="start" x="28" y="-189.5" font-family="Helvetica,sans-Serif" font-size="10.00">+ EncoderState()</text>
<text text-anchor="start" x="28" y="-178.5" font-family="Helvetica,sans-Serif" font-size="10.00">+ getContext()</text>
<text text-anchor="start" x="28" y="-167.5" font-family="Helvetica,sans-Serif" font-size="10.00">+ getAttended()</text>
<text text-anchor="start" x="28" y="-156.5" font-family="Helvetica,sans-Serif" font-size="10.00">+ getMask()</text>
<text text-anchor="start" x="28" y="-145.5" font-family="Helvetica,sans-Serif" font-size="10.00">+ getSourceWords()</text>
</a>
</g>
</g>
<!-- Node2&#45;&gt;Node1 -->
<g id="edge1" class="edge"><title>Node2&#45;&gt;Node1</title>
<path fill="none" stroke="midnightblue" d="M75.5,-128.274C75.5,-119.194 75.5,-110.113 75.5,-101.547"/>
<polygon fill="none" stroke="midnightblue" points="72.0001,-128.498 75.5,-138.498 79.0001,-128.498 72.0001,-128.498"/>
</g>
</g>
</svg>
