<?xml version="1.0" encoding="UTF-8" standalone="no"?>
<!DOCTYPE svg PUBLIC "-//W3C//DTD SVG 1.1//EN"
 "http://www.w3.org/Graphics/SVG/1.1/DTD/svg11.dtd">
<!-- Generated by graphviz version 2.38.0 (20140413.2041)
 -->
<!-- Title: amunmt::GPU::EncoderDecoderLoader Pages: 1 -->
<svg width="284pt" height="525pt"
 viewBox="0.00 0.00 284.00 525.00" xmlns="http://www.w3.org/2000/svg" xmlns:xlink="http://www.w3.org/1999/xlink">
<g id="graph0" class="graph" transform="scale(1 1) rotate(0) translate(4 521)">
<title>amunmt::GPU::EncoderDecoderLoader</title>
<polygon fill="white" stroke="none" points="-4,4 -4,-521 280,-521 280,4 -4,4"/>
<!-- Node1 -->
<g id="node1" class="node"><title>Node1</title>
<polygon fill="#bfbfbf" stroke="black" points="77.5,-0.5 77.5,-123.5 235.5,-123.5 235.5,-0.5 77.5,-0.5"/>
<text text-anchor="start" x="85.5" y="-111.5" font-family="Helvetica,sans-Serif" font-size="10.00">amunmt::GPU::EncoderDecoder</text>
<text text-anchor="middle" x="156.5" y="-100.5" font-family="Helvetica,sans-Serif" font-size="10.00">Loader</text>
<polyline fill="none" stroke="black" points="77.5,-93.5 235.5,-93.5 "/>
<text text-anchor="middle" x="156.5" y="-81.5" font-family="Helvetica,sans-Serif" font-size="10.00"> </text>
<polyline fill="none" stroke="black" points="77.5,-74.5 235.5,-74.5 "/>
<text text-anchor="start" x="85.5" y="-62.5" font-family="Helvetica,sans-Serif" font-size="10.00">+ EncoderDecoderLoader()</text>
<text text-anchor="start" x="85.5" y="-51.5" font-family="Helvetica,sans-Serif" font-size="10.00">+ EncoderDecoderLoader()</text>
<text text-anchor="start" x="85.5" y="-40.5" font-family="Helvetica,sans-Serif" font-size="10.00">+ ~EncoderDecoderLoader()</text>
<text text-anchor="start" x="85.5" y="-29.5" font-family="Helvetica,sans-Serif" font-size="10.00">+ Load()</text>
<text text-anchor="start" x="85.5" y="-18.5" font-family="Helvetica,sans-Serif" font-size="10.00">+ NewScorer()</text>
<text text-anchor="start" x="85.5" y="-7.5" font-family="Helvetica,sans-Serif" font-size="10.00">+ GetBestHyps()</text>
</g>
<!-- Node2 -->
<g id="node2" class="node"><title>Node2</title>
<g id="a_node2"><a xlink:href="$dd/d6b/classamunmt_1_1Loader.html" xlink:title="{amunmt::Loader\n|# config_\l|+ Loader()\l+ ~Loader()\l+ Load()\l+ Has()\l+ Get()\l+ NewScorer()\l+ GetBestHyps()\l+ GetName()\l}">
<polygon fill="white" stroke="black" points="2,-171.5 2,-305.5 93,-305.5 93,-171.5 2,-171.5"/>
<text text-anchor="middle" x="47.5" y="-293.5" font-family="Helvetica,sans-Serif" font-size="10.00">amunmt::Loader</text>
<polyline fill="none" stroke="black" points="2,-286.5 93,-286.5 "/>
<text text-anchor="start" x="10" y="-274.5" font-family="Helvetica,sans-Serif" font-size="10.00"># config_</text>
<polyline fill="none" stroke="black" points="2,-267.5 93,-267.5 "/>
<text text-anchor="start" x="10" y="-255.5" font-family="Helvetica,sans-Serif" font-size="10.00">+ Loader()</text>
<text text-anchor="start" x="10" y="-244.5" font-family="Helvetica,sans-Serif" font-size="10.00">+ ~Loader()</text>
<text text-anchor="start" x="10" y="-233.5" font-family="Helvetica,sans-Serif" font-size="10.00">+ Load()</text>
<text text-anchor="start" x="10" y="-222.5" font-family="Helvetica,sans-Serif" font-size="10.00">+ Has()</text>
<text text-anchor="start" x="10" y="-211.5" font-family="Helvetica,sans-Serif" font-size="10.00">+ Get()</text>
<text text-anchor="start" x="10" y="-200.5" font-family="Helvetica,sans-Serif" font-size="10.00">+ NewScorer()</text>
<text text-anchor="start" x="10" y="-189.5" font-family="Helvetica,sans-Serif" font-size="10.00">+ GetBestHyps()</text>
<text text-anchor="start" x="10" y="-178.5" font-family="Helvetica,sans-Serif" font-size="10.00">+ GetName()</text>
</a>
</g>
</g>
<!-- Node2&#45;&gt;Node1 -->
<g id="edge1" class="edge"><title>Node2&#45;&gt;Node1</title>
<path fill="none" stroke="midnightblue" d="M94.3222,-162.541C102.455,-149.522 110.82,-136.129 118.675,-123.555"/>
<polygon fill="none" stroke="midnightblue" points="91.3485,-160.696 89.0192,-171.031 97.2855,-164.404 91.3485,-160.696"/>
</g>
<!-- Node3 -->
<g id="node3" class="node"><title>Node3</title>
<g id="a_node3"><a xlink:title="STL class. ">
<polygon fill="white" stroke="#bfbfbf" points="17.5,-353.5 17.5,-410.5 77.5,-410.5 77.5,-353.5 17.5,-353.5"/>
<text text-anchor="middle" x="47.5" y="-398.5" font-family="Helvetica,sans-Serif" font-size="10.00">std::string</text>
<polyline fill="none" stroke="#bfbfbf" points="17.5,-391.5 77.5,-391.5 "/>
<text text-anchor="middle" x="47.5" y="-379.5" font-family="Helvetica,sans-Serif" font-size="10.00"> </text>
<polyline fill="none" stroke="#bfbfbf" points="17.5,-372.5 77.5,-372.5 "/>
<text text-anchor="middle" x="47.5" y="-360.5" font-family="Helvetica,sans-Serif" font-size="10.00"> </text>
</a>
</g>
</g>
<!-- Node3&#45;&gt;Node2 -->
<g id="edge2" class="edge"><title>Node3&#45;&gt;Node2</title>
<path fill="none" stroke="#404040" d="M47.5,-353.381C47.5,-343.02 47.5,-330.663 47.5,-317.97"/>
<polygon fill="none" stroke="#404040" points="47.5001,-317.753 43.5,-311.753 47.5,-305.753 51.5,-311.753 47.5001,-317.753"/>
<text text-anchor="middle" x="66.5" y="-327" font-family="Helvetica,sans-Serif" font-size="10.00"> #name_</text>
</g>
<!-- Node4 -->
<g id="node4" class="node"><title>Node4</title>
<polygon fill="white" stroke="#bfbfbf" points="0,-448.5 0,-516.5 95,-516.5 95,-448.5 0,-448.5"/>
<text text-anchor="start" x="8" y="-504.5" font-family="Helvetica,sans-Serif" font-size="10.00">std::basic_string&lt;</text>
<text text-anchor="middle" x="47.5" y="-493.5" font-family="Helvetica,sans-Serif" font-size="10.00"> char &gt;</text>
<polyline fill="none" stroke="#bfbfbf" points="0,-486.5 95,-486.5 "/>
<text text-anchor="middle" x="47.5" y="-474.5" font-family="Helvetica,sans-Serif" font-size="10.00"> </text>
<polyline fill="none" stroke="#bfbfbf" points="0,-467.5 95,-467.5 "/>
<text text-anchor="middle" x="47.5" y="-455.5" font-family="Helvetica,sans-Serif" font-size="10.00"> </text>
</g>
<!-- Node4&#45;&gt;Node3 -->
<g id="edge3" class="edge"><title>Node4&#45;&gt;Node3</title>
<path fill="none" stroke="midnightblue" d="M47.5,-438.375C47.5,-428.94 47.5,-419.201 47.5,-410.571"/>
<polygon fill="none" stroke="midnightblue" points="44.0001,-438.427 47.5,-448.427 51.0001,-438.427 44.0001,-438.427"/>
</g>
<!-- Node5 -->
<g id="node5" class="node"><title>Node5</title>
<polygon fill="white" stroke="#bfbfbf" points="111,-204.5 111,-272.5 276,-272.5 276,-204.5 111,-204.5"/>
<text text-anchor="start" x="119" y="-260.5" font-family="Helvetica,sans-Serif" font-size="10.00">std::vector&lt; std::unique</text>
<text text-anchor="middle" x="193.5" y="-249.5" font-family="Helvetica,sans-Serif" font-size="10.00">_ptr&lt; amunmt::GPU::Weights &gt; &gt;</text>
<polyline fill="none" stroke="#bfbfbf" points="111,-242.5 276,-242.5 "/>
<text text-anchor="middle" x="193.5" y="-230.5" font-family="Helvetica,sans-Serif" font-size="10.00"> </text>
<polyline fill="none" stroke="#bfbfbf" points="111,-223.5 276,-223.5 "/>
<text text-anchor="middle" x="193.5" y="-211.5" font-family="Helvetica,sans-Serif" font-size="10.00"> </text>
</g>
<!-- Node5&#45;&gt;Node1 -->
<g id="edge4" class="edge"><title>Node5&#45;&gt;Node1</title>
<path fill="none" stroke="#404040" d="M186.453,-204.267C182.328,-184.811 176.95,-159.446 171.891,-135.587"/>
<polygon fill="none" stroke="#404040" points="171.851,-135.398 166.693,-130.358 169.362,-123.659 174.519,-128.698 171.851,-135.398"/>
<text text-anchor="middle" x="197.5" y="-145" font-family="Helvetica,sans-Serif" font-size="10.00"> &#45;weights_</text>
</g>
</g>
</svg>
