<?xml version="1.0" encoding="UTF-8" standalone="no"?>
<!DOCTYPE svg PUBLIC "-//W3C//DTD SVG 1.1//EN"
 "http://www.w3.org/Graphics/SVG/1.1/DTD/svg11.dtd">
<!-- Generated by graphviz version 2.38.0 (20140413.2041)
 -->
<!-- Title: marian::ColsNodeOp::hash Pages: 1 -->
<!--zoomable 154 -->
<svg id="main" version="1.1" xmlns="http://www.w3.org/2000/svg" xmlns:xlink="http://www.w3.org/1999/xlink" xml:space="preserve" onload="init(evt)">
<style type="text/css"><![CDATA[
.edge:hover path { stroke: red; }
.edge:hover polygon { stroke: red; fill: red; }
]]></style>
<script type="text/javascript"><![CDATA[
var edges = document.getElementsByTagName('g');
if (edges && edges.length) {
  for (var i=0;i<edges.length;i++) {
    if (edges[i].id.substr(0,4)=='edge') {
      edges[i].setAttribute('class','edge');
    }
  }
}
]]></script>
        <defs>
                <circle id="rim" cx="0" cy="0" r="7"/>
                <circle id="rim2" cx="0" cy="0" r="3.5"/>
                <g id="zoomPlus">
                        <use xlink:href="#rim" fill="#404040">
                                <set attributeName="fill" to="#808080" begin="zoomplus.mouseover" end="zoomplus.mouseout"/>
                        </use>
                        <path d="M-4,0h8M0,-4v8" fill="none" stroke="white" stroke-width="1.5" pointer-events="none"/>
                </g>
                <g id="zoomMin">
                        <use xlink:href="#rim" fill="#404040">
                                <set attributeName="fill" to="#808080" begin="zoomminus.mouseover" end="zoomminus.mouseout"/>
                        </use>
                        <path d="M-4,0h8" fill="none" stroke="white" stroke-width="1.5" pointer-events="none"/>
                </g>
                <g id="dirArrow">
                        <path fill="none" stroke="white" stroke-width="1.5" d="M0,-3.0v7 M-2.5,-0.5L0,-3.0L2.5,-0.5"/>
                </g>
               <g id="resetDef">
                       <use xlink:href="#rim2" fill="#404040">
                               <set attributeName="fill" to="#808080" begin="reset.mouseover" end="reset.mouseout"/>
                       </use>
               </g>
        </defs>

<script type="text/javascript">
var viewWidth = 571;
var viewHeight = 154;
var sectionId = 'dynsection-4';
</script>
<script xlink:href="../../svgpan.js"/>
<svg id="graph" class="graph">
<g id="viewport">
<title>marian::ColsNodeOp::hash</title>
<polygon fill="white" stroke="none" points="-4,4 -4,-150 567,-150 567,4 -4,4"/>
<!-- Node1 -->
<g id="node1" class="node"><title>Node1</title>
<polygon fill="#bfbfbf" stroke="black" points="0,-99 0,-129 108,-129 108,-99 0,-99"/>
<text text-anchor="start" x="8" y="-117" font-family="Helvetica,sans-Serif" font-size="10.00">marian::ColsNodeOp</text>
<text text-anchor="middle" x="54" y="-106" font-family="Helvetica,sans-Serif" font-size="10.00">::hash</text>
</g>
<!-- Node2 -->
<g id="node2" class="node"><title>Node2</title>
<g id="a_node2"><a xlink:href="../../d0/da7/structmarian_1_1NaryNodeOp.html#ab1b6a692080382203afe5ceaf0c4279d" target="_top" xlink:title="marian::NaryNodeOp\l::hash">
<polygon fill="white" stroke="black" points="144,-77 144,-107 253,-107 253,-77 144,-77"/>
<text text-anchor="start" x="152" y="-95" font-family="Helvetica,sans-Serif" font-size="10.00">marian::NaryNodeOp</text>
<text text-anchor="middle" x="198.5" y="-84" font-family="Helvetica,sans-Serif" font-size="10.00">::hash</text>
</a>
</g>
</g>
<!-- Node1&#45;&gt;Node2 -->
<g id="edge1" class="edge"><title>Node1&#45;&gt;Node2</title>
<path fill="none" stroke="midnightblue" d="M108.062,-105.808C116.479,-104.508 125.26,-103.153 133.889,-101.821"/>
<polygon fill="midnightblue" stroke="midnightblue" points="134.57,-105.257 143.919,-100.272 133.502,-98.339 134.57,-105.257"/>
</g>
<!-- Node4 -->
<g id="node4" class="node"><title>Node4</title>
<g id="a_node4"><a xlink:href="../../dd/d80/bpe_8h.html#a04cc1b733a2f4d205f13f7a59facba64" target="_top" xlink:title="hash_combine">
<polygon fill="white" stroke="black" points="301.5,-126.5 301.5,-145.5 381.5,-145.5 381.5,-126.5 301.5,-126.5"/>
<text text-anchor="middle" x="341.5" y="-133.5" font-family="Helvetica,sans-Serif" font-size="10.00">hash_combine</text>
</a>
</g>
</g>
<!-- Node1&#45;&gt;Node4 -->
<g id="edge7" class="edge"><title>Node1&#45;&gt;Node4</title>
<path fill="none" stroke="midnightblue" d="M108.031,-118.086C160.532,-122.132 240.262,-128.276 291.363,-132.214"/>
<polygon fill="midnightblue" stroke="midnightblue" points="291.26,-135.716 301.499,-132.995 291.797,-128.737 291.26,-135.716"/>
</g>
<!-- Node3 -->
<g id="node3" class="node"><title>Node3</title>
<g id="a_node3"><a xlink:href="../../d0/d7a/classmarian_1_1Node.html#ad5437ac41eaa8316791698db9ad46ab0" target="_top" xlink:title="marian::Node::name">
<polygon fill="white" stroke="black" points="289,-88.5 289,-107.5 394,-107.5 394,-88.5 289,-88.5"/>
<text text-anchor="middle" x="341.5" y="-95.5" font-family="Helvetica,sans-Serif" font-size="10.00">marian::Node::name</text>
</a>
</g>
</g>
<!-- Node2&#45;&gt;Node3 -->
<g id="edge2" class="edge"><title>Node2&#45;&gt;Node3</title>
<path fill="none" stroke="midnightblue" d="M253.208,-94.2855C261.508,-94.6386 270.137,-95.0058 278.598,-95.3659"/>
<polygon fill="midnightblue" stroke="midnightblue" points="278.662,-98.8717 288.802,-95.8001 278.96,-91.878 278.662,-98.8717"/>
</g>
<!-- Node2&#45;&gt;Node4 -->
<g id="edge3" class="edge"><title>Node2&#45;&gt;Node4</title>
<path fill="none" stroke="midnightblue" d="M247.63,-107.019C264.675,-112.338 283.667,-118.265 300.012,-123.365"/>
<polygon fill="midnightblue" stroke="midnightblue" points="299.217,-126.784 309.806,-126.422 301.303,-120.102 299.217,-126.784"/>
</g>
<!-- Node5 -->
<g id="node5" class="node"><title>Node5</title>
<g id="a_node5"><a xlink:href="../../de/dff/classmarian_1_1Chainable.html#a2b7a5cbdac7a7d3bd7d781a6ff148fc3" target="_top" xlink:title="marian::Chainable\&lt;\l Tensor \&gt;::type">
<polygon fill="white" stroke="black" points="291,-39 291,-69 392,-69 392,-39 291,-39"/>
<text text-anchor="start" x="299" y="-57" font-family="Helvetica,sans-Serif" font-size="10.00">marian::Chainable&lt;</text>
<text text-anchor="middle" x="341.5" y="-46" font-family="Helvetica,sans-Serif" font-size="10.00"> Tensor &gt;::type</text>
</a>
</g>
</g>
<!-- Node2&#45;&gt;Node5 -->
<g id="edge4" class="edge"><title>Node2&#45;&gt;Node5</title>
<path fill="none" stroke="midnightblue" d="M253.208,-77.5254C262.238,-75.0918 271.659,-72.5529 280.829,-70.0816"/>
<polygon fill="midnightblue" stroke="midnightblue" points="281.906,-73.4162 290.651,-67.4346 280.084,-66.6574 281.906,-73.4162"/>
</g>
<!-- Node6 -->
<g id="node6" class="node"><title>Node6</title>
<g id="a_node6"><a xlink:href="../../d0/d7a/classmarian_1_1Node.html#a71a9c8ad6ba12d421fa97222d74a90b9" target="_top" xlink:title="marian::Node::child">
<polygon fill="white" stroke="black" points="291,-0.5 291,-19.5 392,-19.5 392,-0.5 291,-0.5"/>
<text text-anchor="middle" x="341.5" y="-7.5" font-family="Helvetica,sans-Serif" font-size="10.00">marian::Node::child</text>
</a>
</g>
</g>
<!-- Node2&#45;&gt;Node6 -->
<g id="edge5" class="edge"><title>Node2&#45;&gt;Node6</title>
<path fill="none" stroke="midnightblue" d="M217.786,-76.9779C235.26,-63.1579 262.754,-42.7775 289,-29 292.797,-27.0068 296.851,-25.1272 300.953,-23.3829"/>
<polygon fill="midnightblue" stroke="midnightblue" points="302.525,-26.5243 310.517,-19.5686 299.931,-20.0223 302.525,-26.5243"/>
</g>
<!-- Node7 -->
<g id="node7" class="node"><title>Node7</title>
<g id="a_node7"><a xlink:href="../../d0/d7a/classmarian_1_1Node.html#a4aa5aa482c70595fa5d43c1fbabf5c18" target="_top" xlink:title="marian::Node::getBackend">
<polygon fill="white" stroke="black" points="430,-0.5 430,-19.5 563,-19.5 563,-0.5 430,-0.5"/>
<text text-anchor="middle" x="496.5" y="-7.5" font-family="Helvetica,sans-Serif" font-size="10.00">marian::Node::getBackend</text>
</a>
</g>
</g>
<!-- Node6&#45;&gt;Node7 -->
<g id="edge6" class="edge"><title>Node6&#45;&gt;Node7</title>
<path fill="none" stroke="midnightblue" d="M392.175,-10C401.018,-10 410.408,-10 419.783,-10"/>
<polygon fill="midnightblue" stroke="midnightblue" points="419.922,-13.5001 429.922,-10 419.922,-6.5001 419.922,-13.5001"/>
</g>
</g>
</svg>
        <g id="navigator" transform="translate(0 0)" fill="#404254">
                <rect fill="#f2f5e9" fill-opacity="0.5" stroke="#606060" stroke-width=".5" x="0" y="0" width="60" height="60"/>
                <use id="zoomplus" xlink:href="#zoomPlus" x="17" y="9" onmousedown="handleZoom(evt,'in')"/>
                <use id="zoomminus" xlink:href="#zoomMin" x="42" y="9" onmousedown="handleZoom(evt,'out')"/>
                <use id="reset" xlink:href="#resetDef" x="30" y="36" onmousedown="handleReset()"/>
                <g id="arrowUp" xlink:href="#dirArrow" transform="translate(30 24)" onmousedown="handlePan(0,-1)">
                  <use xlink:href="#rim" fill="#404040">
                        <set attributeName="fill" to="#808080" begin="arrowUp.mouseover" end="arrowUp.mouseout"/>
                  </use>
                  <path fill="none" stroke="white" stroke-width="1.5" d="M0,-3.0v7 M-2.5,-0.5L0,-3.0L2.5,-0.5"/>
                </g>
                <g id="arrowRight" xlink:href="#dirArrow" transform="rotate(90) translate(36 -43)" onmousedown="handlePan(1,0)">
                  <use xlink:href="#rim" fill="#404040">
                        <set attributeName="fill" to="#808080" begin="arrowRight.mouseover" end="arrowRight.mouseout"/>
                  </use>
                  <path fill="none" stroke="white" stroke-width="1.5" d="M0,-3.0v7 M-2.5,-0.5L0,-3.0L2.5,-0.5"/>
                </g>
                <g id="arrowDown" xlink:href="#dirArrow" transform="rotate(180) translate(-30 -48)" onmousedown="handlePan(0,1)">
                  <use xlink:href="#rim" fill="#404040">
                        <set attributeName="fill" to="#808080" begin="arrowDown.mouseover" end="arrowDown.mouseout"/>
                  </use>
                  <path fill="none" stroke="white" stroke-width="1.5" d="M0,-3.0v7 M-2.5,-0.5L0,-3.0L2.5,-0.5"/>
                </g>
                <g id="arrowLeft" xlink:href="#dirArrow" transform="rotate(270) translate(-36 17)" onmousedown="handlePan(-1,0)">
                  <use xlink:href="#rim" fill="#404040">
                        <set attributeName="fill" to="#808080" begin="arrowLeft.mouseover" end="arrowLeft.mouseout"/>
                  </use>
                  <path fill="none" stroke="white" stroke-width="1.5" d="M0,-3.0v7 M-2.5,-0.5L0,-3.0L2.5,-0.5"/>
                </g>
        </g>
        <svg viewBox="0 0 15 15" width="100%" height="30px" preserveAspectRatio="xMaxYMin meet">
         <g id="arrow_out" transform="scale(0.3 0.3)">
          <a xlink:href="structmarian_1_1ColsNodeOp_a4ca2bfb0920d3b4e3d2439445c1bc75d_cgraph_org.svg" target="_base">
           <rect id="button" ry="5" rx="5" y="6" x="6" height="38" width="38"
                fill="#f2f5e9" fill-opacity="0.5" stroke="#606060" stroke-width="1.0"/>
           <path id="arrow"
             d="M 11.500037,31.436501 C 11.940474,20.09759 22.043105,11.32322 32.158766,21.979434 L 37.068811,17.246167 C 37.068811,17.246167 37.088388,32 37.088388,32 L 22.160133,31.978069 C 22.160133,31.978069 26.997745,27.140456 26.997745,27.140456 C 18.528582,18.264221 13.291696,25.230495 11.500037,31.436501 z"
             style="fill:#404040;"/>
          </a>
         </g>
        </svg>
</svg>
