<?xml version="1.0" encoding="UTF-8" standalone="no"?>
<!DOCTYPE svg PUBLIC "-//W3C//DTD SVG 1.1//EN"
 "http://www.w3.org/Graphics/SVG/1.1/DTD/svg11.dtd">
<!-- Generated by graphviz version 2.38.0 (20140413.2041)
 -->
<!-- Title: amunmt::Search::Translate Pages: 1 -->
<!--zoomable 278 -->
<svg id="main" version="1.1" xmlns="http://www.w3.org/2000/svg" xmlns:xlink="http://www.w3.org/1999/xlink" xml:space="preserve" onload="init(evt)">
<style type="text/css"><![CDATA[
.edge:hover path { stroke: red; }
.edge:hover polygon { stroke: red; fill: red; }
]]></style>
<script type="text/javascript"><![CDATA[
var edges = document.getElementsByTagName('g');
if (edges && edges.length) {
  for (var i=0;i<edges.length;i++) {
    if (edges[i].id.substr(0,4)=='edge') {
      edges[i].setAttribute('class','edge');
    }
  }
}
]]></script>
        <defs>
                <circle id="rim" cx="0" cy="0" r="7"/>
                <circle id="rim2" cx="0" cy="0" r="3.5"/>
                <g id="zoomPlus">
                        <use xlink:href="#rim" fill="#404040">
                                <set attributeName="fill" to="#808080" begin="zoomplus.mouseover" end="zoomplus.mouseout"/>
                        </use>
                        <path d="M-4,0h8M0,-4v8" fill="none" stroke="white" stroke-width="1.5" pointer-events="none"/>
                </g>
                <g id="zoomMin">
                        <use xlink:href="#rim" fill="#404040">
                                <set attributeName="fill" to="#808080" begin="zoomminus.mouseover" end="zoomminus.mouseout"/>
                        </use>
                        <path d="M-4,0h8" fill="none" stroke="white" stroke-width="1.5" pointer-events="none"/>
                </g>
                <g id="dirArrow">
                        <path fill="none" stroke="white" stroke-width="1.5" d="M0,-3.0v7 M-2.5,-0.5L0,-3.0L2.5,-0.5"/>
                </g>
               <g id="resetDef">
                       <use xlink:href="#rim2" fill="#404040">
                               <set attributeName="fill" to="#808080" begin="reset.mouseover" end="reset.mouseout"/>
                       </use>
               </g>
        </defs>

<script type="text/javascript">
var viewWidth = 508;
var viewHeight = 278;
var sectionId = 'dynsection-8';
</script>
<script xlink:href="../../svgpan.js"/>
<svg id="graph" class="graph">
<g id="viewport">
<title>amunmt::Search::Translate</title>
<polygon fill="white" stroke="none" points="-4,4 -4,-274.285 504,-274.285 504,4 -4,4"/>
<!-- Node1 -->
<g id="node1" class="node"><title>Node1</title>
<polygon fill="#bfbfbf" stroke="black" points="0,-138 0,-157 135,-157 135,-138 0,-138"/>
<text text-anchor="middle" x="67.5" y="-145" font-family="Helvetica,sans-Serif" font-size="10.00">amunmt::Search::Translate</text>
</g>
<!-- Node2 -->
<g id="node2" class="node"><title>Node2</title>
<g id="a_node2"><a xlink:href="../../d7/d92/classamunmt_1_1Search.html#adab7a84cbd820e7395a3f79fc604bb06" target="_top" xlink:title="amunmt::Search::FilterTarget\lVocab">
<polygon fill="white" stroke="black" points="171,-176.5 171,-206.5 315,-206.5 315,-176.5 171,-176.5"/>
<text text-anchor="start" x="179" y="-194.5" font-family="Helvetica,sans-Serif" font-size="10.00">amunmt::Search::FilterTarget</text>
<text text-anchor="middle" x="243" y="-183.5" font-family="Helvetica,sans-Serif" font-size="10.00">Vocab</text>
</a>
</g>
</g>
<!-- Node1&#45;&gt;Node2 -->
<g id="edge1" class="edge"><title>Node1&#45;&gt;Node2</title>
<path fill="none" stroke="midnightblue" d="M106.147,-157.047C125.594,-161.979 149.949,-168.156 172.648,-173.912"/>
<polygon fill="midnightblue" stroke="midnightblue" points="172.041,-177.369 182.595,-176.435 173.762,-170.584 172.041,-177.369"/>
</g>
<!-- Node3 -->
<g id="node3" class="node"><title>Node3</title>
<g id="a_node3"><a xlink:href="../../de/ded/classamunmt_1_1Sentences.html#accf70916436eb80cd7f4df9645fd1da8" target="_top" xlink:title="amunmt::Sentences::size">
<polygon fill="white" stroke="black" points="361.5,-226 361.5,-245 489.5,-245 489.5,-226 361.5,-226"/>
<text text-anchor="middle" x="425.5" y="-233" font-family="Helvetica,sans-Serif" font-size="10.00">amunmt::Sentences::size</text>
</a>
</g>
</g>
<!-- Node1&#45;&gt;Node3 -->
<g id="edge8" class="edge"><title>Node1&#45;&gt;Node3</title>
<path fill="none" stroke="midnightblue" d="M73.8786,-157.051C87.0194,-179.273 123.208,-234.1 171,-254.5 243.492,-285.443 338.215,-263.966 388.869,-248.148"/>
<polygon fill="midnightblue" stroke="midnightblue" points="389.949,-251.477 398.393,-245.077 387.801,-244.815 389.949,-251.477"/>
</g>
<!-- Node6 -->
<g id="node6" class="node"><title>Node6</title>
<g id="a_node6"><a xlink:href="../../d7/d92/classamunmt_1_1Search.html#aeca132502f793a9cf8f54ba5e12a333a" target="_top" xlink:title="amunmt::Search::Encode">
<polygon fill="white" stroke="black" points="179,-226 179,-245 307,-245 307,-226 179,-226"/>
<text text-anchor="middle" x="243" y="-233" font-family="Helvetica,sans-Serif" font-size="10.00">amunmt::Search::Encode</text>
</a>
</g>
</g>
<!-- Node1&#45;&gt;Node6 -->
<g id="edge5" class="edge"><title>Node1&#45;&gt;Node6</title>
<path fill="none" stroke="midnightblue" d="M80.0342,-157.166C98.2441,-171.969 135.268,-200.243 171,-216.5 176.283,-218.904 181.93,-221.053 187.644,-222.962"/>
<polygon fill="midnightblue" stroke="midnightblue" points="186.686,-226.329 197.274,-225.952 188.761,-219.644 186.686,-226.329"/>
</g>
<!-- Node7 -->
<g id="node7" class="node"><title>Node7</title>
<g id="a_node7"><a xlink:href="../../d7/d92/classamunmt_1_1Search.html#a1cd54cd91f09de25de5967d0704dc77d" target="_top" xlink:title="amunmt::Search::NewStates">
<polygon fill="white" stroke="black" points="171.5,-138 171.5,-157 314.5,-157 314.5,-138 171.5,-138"/>
<text text-anchor="middle" x="243" y="-145" font-family="Helvetica,sans-Serif" font-size="10.00">amunmt::Search::NewStates</text>
</a>
</g>
</g>
<!-- Node1&#45;&gt;Node7 -->
<g id="edge7" class="edge"><title>Node1&#45;&gt;Node7</title>
<path fill="none" stroke="midnightblue" d="M135.083,-147.5C143.6,-147.5 152.392,-147.5 161.104,-147.5"/>
<polygon fill="midnightblue" stroke="midnightblue" points="161.275,-151 171.275,-147.5 161.274,-144 161.275,-151"/>
</g>
<!-- Node8 -->
<g id="node8" class="node"><title>Node8</title>
<g id="a_node8"><a xlink:href="../../de/ded/classamunmt_1_1Sentences.html#a02f0688d10222abd36ef037121a85e72" target="_top" xlink:title="amunmt::Sentences::\lGetMaxLength">
<polygon fill="white" stroke="black" points="188,-88.5 188,-118.5 298,-118.5 298,-88.5 188,-88.5"/>
<text text-anchor="start" x="196" y="-106.5" font-family="Helvetica,sans-Serif" font-size="10.00">amunmt::Sentences::</text>
<text text-anchor="middle" x="243" y="-95.5" font-family="Helvetica,sans-Serif" font-size="10.00">GetMaxLength</text>
</a>
</g>
</g>
<!-- Node1&#45;&gt;Node8 -->
<g id="edge9" class="edge"><title>Node1&#45;&gt;Node8</title>
<path fill="none" stroke="midnightblue" d="M106.147,-137.953C127.17,-132.621 153.929,-125.835 178.13,-119.698"/>
<polygon fill="midnightblue" stroke="midnightblue" points="179.133,-123.054 187.966,-117.203 177.412,-116.269 179.133,-123.054"/>
</g>
<!-- Node9 -->
<g id="node9" class="node"><title>Node9</title>
<g id="a_node9"><a xlink:href="../../d7/d92/classamunmt_1_1Search.html#a80d628a5581c65ebe73fe0b941497eba" target="_top" xlink:title="amunmt::Search::CalcBeam">
<polygon fill="white" stroke="black" points="173,-50 173,-69 313,-69 313,-50 173,-50"/>
<text text-anchor="middle" x="243" y="-57" font-family="Helvetica,sans-Serif" font-size="10.00">amunmt::Search::CalcBeam</text>
</a>
</g>
</g>
<!-- Node1&#45;&gt;Node9 -->
<g id="edge10" class="edge"><title>Node1&#45;&gt;Node9</title>
<path fill="none" stroke="midnightblue" d="M80.3873,-137.802C98.7707,-123.24 135.675,-95.7079 171,-79.5 177.1,-76.7013 183.678,-74.2103 190.282,-72.0184"/>
<polygon fill="midnightblue" stroke="midnightblue" points="191.415,-75.3314 199.925,-69.0198 189.337,-68.6471 191.415,-75.3314"/>
</g>
<!-- Node10 -->
<g id="node10" class="node"><title>Node10</title>
<g id="a_node10"><a xlink:href="../../d7/d92/classamunmt_1_1Search.html#acdf0343e135ef26bf53ebb9389b379f6" target="_top" xlink:title="amunmt::Search::CleanAfter\lTranslation">
<polygon fill="white" stroke="black" points="172.5,-0.5 172.5,-30.5 313.5,-30.5 313.5,-0.5 172.5,-0.5"/>
<text text-anchor="start" x="180.5" y="-18.5" font-family="Helvetica,sans-Serif" font-size="10.00">amunmt::Search::CleanAfter</text>
<text text-anchor="middle" x="243" y="-7.5" font-family="Helvetica,sans-Serif" font-size="10.00">Translation</text>
</a>
</g>
</g>
<!-- Node1&#45;&gt;Node10 -->
<g id="edge11" class="edge"><title>Node1&#45;&gt;Node10</title>
<path fill="none" stroke="midnightblue" d="M75.3082,-137.762C90.287,-117.015 128.193,-68.1022 171,-40.5 174.092,-38.506 177.363,-36.6482 180.736,-34.9208"/>
<polygon fill="midnightblue" stroke="midnightblue" points="182.281,-38.0622 189.85,-30.6487 179.31,-31.724 182.281,-38.0622"/>
</g>
<!-- Node2&#45;&gt;Node3 -->
<g id="edge2" class="edge"><title>Node2&#45;&gt;Node3</title>
<path fill="none" stroke="midnightblue" d="M305.613,-206.519C328.448,-212.086 354.011,-218.317 375.565,-223.571"/>
<polygon fill="midnightblue" stroke="midnightblue" points="374.933,-227.02 385.477,-225.988 376.591,-220.219 374.933,-227.02"/>
</g>
<!-- Node4 -->
<g id="node4" class="node"><title>Node4</title>
<g id="a_node4"><a xlink:href="../../de/ded/classamunmt_1_1Sentences.html#afe33dd6de1f3dfbcff4003c32bdd1f4b" target="_top" xlink:title="amunmt::Sentences::at">
<polygon fill="white" stroke="black" points="366,-185 366,-204 485,-204 485,-185 366,-185"/>
<text text-anchor="middle" x="425.5" y="-192" font-family="Helvetica,sans-Serif" font-size="10.00">amunmt::Sentences::at</text>
</a>
</g>
</g>
<!-- Node2&#45;&gt;Node4 -->
<g id="edge3" class="edge"><title>Node2&#45;&gt;Node4</title>
<path fill="none" stroke="midnightblue" d="M315.079,-192.681C328.522,-192.905 342.56,-193.138 355.925,-193.36"/>
<polygon fill="midnightblue" stroke="midnightblue" points="355.935,-196.861 365.992,-193.528 356.051,-189.862 355.935,-196.861"/>
</g>
<!-- Node5 -->
<g id="node5" class="node"><title>Node5</title>
<g id="a_node5"><a xlink:href="../../d7/db4/classamunmt_1_1Sentence.html#a929bbcefc70b6bc280bbdadb3be00ec9" target="_top" xlink:title="amunmt::Sentence::GetWords">
<polygon fill="white" stroke="black" points="351,-147 351,-166 500,-166 500,-147 351,-147"/>
<text text-anchor="middle" x="425.5" y="-154" font-family="Helvetica,sans-Serif" font-size="10.00">amunmt::Sentence::GetWords</text>
</a>
</g>
</g>
<!-- Node2&#45;&gt;Node5 -->
<g id="edge4" class="edge"><title>Node2&#45;&gt;Node5</title>
<path fill="none" stroke="midnightblue" d="M315.079,-177.717C331.827,-174.47 349.499,-171.043 365.64,-167.913"/>
<polygon fill="midnightblue" stroke="midnightblue" points="366.32,-171.347 375.47,-166.007 364.987,-164.475 366.32,-171.347"/>
</g>
<!-- Node6&#45;&gt;Node3 -->
<g id="edge6" class="edge"><title>Node6&#45;&gt;Node3</title>
<path fill="none" stroke="midnightblue" d="M307.13,-235.5C321.42,-235.5 336.71,-235.5 351.374,-235.5"/>
<polygon fill="midnightblue" stroke="midnightblue" points="351.406,-239 361.406,-235.5 351.405,-232 351.406,-239"/>
</g>
</g>
</svg>
        <g id="navigator" transform="translate(0 0)" fill="#404254">
                <rect fill="#f2f5e9" fill-opacity="0.5" stroke="#606060" stroke-width=".5" x="0" y="0" width="60" height="60"/>
                <use id="zoomplus" xlink:href="#zoomPlus" x="17" y="9" onmousedown="handleZoom(evt,'in')"/>
                <use id="zoomminus" xlink:href="#zoomMin" x="42" y="9" onmousedown="handleZoom(evt,'out')"/>
                <use id="reset" xlink:href="#resetDef" x="30" y="36" onmousedown="handleReset()"/>
                <g id="arrowUp" xlink:href="#dirArrow" transform="translate(30 24)" onmousedown="handlePan(0,-1)">
                  <use xlink:href="#rim" fill="#404040">
                        <set attributeName="fill" to="#808080" begin="arrowUp.mouseover" end="arrowUp.mouseout"/>
                  </use>
                  <path fill="none" stroke="white" stroke-width="1.5" d="M0,-3.0v7 M-2.5,-0.5L0,-3.0L2.5,-0.5"/>
                </g>
                <g id="arrowRight" xlink:href="#dirArrow" transform="rotate(90) translate(36 -43)" onmousedown="handlePan(1,0)">
                  <use xlink:href="#rim" fill="#404040">
                        <set attributeName="fill" to="#808080" begin="arrowRight.mouseover" end="arrowRight.mouseout"/>
                  </use>
                  <path fill="none" stroke="white" stroke-width="1.5" d="M0,-3.0v7 M-2.5,-0.5L0,-3.0L2.5,-0.5"/>
                </g>
                <g id="arrowDown" xlink:href="#dirArrow" transform="rotate(180) translate(-30 -48)" onmousedown="handlePan(0,1)">
                  <use xlink:href="#rim" fill="#404040">
                        <set attributeName="fill" to="#808080" begin="arrowDown.mouseover" end="arrowDown.mouseout"/>
                  </use>
                  <path fill="none" stroke="white" stroke-width="1.5" d="M0,-3.0v7 M-2.5,-0.5L0,-3.0L2.5,-0.5"/>
                </g>
                <g id="arrowLeft" xlink:href="#dirArrow" transform="rotate(270) translate(-36 17)" onmousedown="handlePan(-1,0)">
                  <use xlink:href="#rim" fill="#404040">
                        <set attributeName="fill" to="#808080" begin="arrowLeft.mouseover" end="arrowLeft.mouseout"/>
                  </use>
                  <path fill="none" stroke="white" stroke-width="1.5" d="M0,-3.0v7 M-2.5,-0.5L0,-3.0L2.5,-0.5"/>
                </g>
        </g>
        <svg viewBox="0 0 15 15" width="100%" height="30px" preserveAspectRatio="xMaxYMin meet">
         <g id="arrow_out" transform="scale(0.3 0.3)">
          <a xlink:href="classamunmt_1_1Search_a8a55a67dbc9dab24441767d7b2066b9a_cgraph_org.svg" target="_base">
           <rect id="button" ry="5" rx="5" y="6" x="6" height="38" width="38"
                fill="#f2f5e9" fill-opacity="0.5" stroke="#606060" stroke-width="1.0"/>
           <path id="arrow"
             d="M 11.500037,31.436501 C 11.940474,20.09759 22.043105,11.32322 32.158766,21.979434 L 37.068811,17.246167 C 37.068811,17.246167 37.088388,32 37.088388,32 L 22.160133,31.978069 C 22.160133,31.978069 26.997745,27.140456 26.997745,27.140456 C 18.528582,18.264221 13.291696,25.230495 11.500037,31.436501 z"
             style="fill:#404040;"/>
          </a>
         </g>
        </svg>
</svg>
