<?xml version="1.0" encoding="UTF-8" standalone="no"?>
<!DOCTYPE svg PUBLIC "-//W3C//DTD SVG 1.1//EN"
 "http://www.w3.org/Graphics/SVG/1.1/DTD/svg11.dtd">
<!-- Generated by graphviz version 2.38.0 (20140413.2041)
 -->
<!-- Title: marian::UnseenWordPenalty Pages: 1 -->
<svg width="150pt" height="493pt"
 viewBox="0.00 0.00 150.00 493.00" xmlns="http://www.w3.org/2000/svg" xmlns:xlink="http://www.w3.org/1999/xlink">
<g id="graph0" class="graph" transform="scale(1 1) rotate(0) translate(4 489)">
<title>marian::UnseenWordPenalty</title>
<polygon fill="white" stroke="none" points="-4,4 -4,-489 146,-489 146,4 -4,4"/>
<!-- Node1 -->
<g id="node1" class="node"><title>Node1</title>
<polygon fill="#bfbfbf" stroke="black" points="0,-0.5 0,-112.5 142,-112.5 142,-0.5 0,-0.5"/>
<text text-anchor="middle" x="71" y="-100.5" font-family="Helvetica,sans-Serif" font-size="10.00">marian::UnseenWordPenalty</text>
<polyline fill="none" stroke="black" points="0,-93.5 142,-93.5 "/>
<text text-anchor="start" x="8" y="-81.5" font-family="Helvetica,sans-Serif" font-size="10.00">&#45; batchIndex_</text>
<text text-anchor="start" x="8" y="-70.5" font-family="Helvetica,sans-Serif" font-size="10.00">&#45; dimVocab_</text>
<text text-anchor="start" x="8" y="-59.5" font-family="Helvetica,sans-Serif" font-size="10.00">&#45; penalties_</text>
<polyline fill="none" stroke="black" points="0,-52.5 142,-52.5 "/>
<text text-anchor="start" x="8" y="-40.5" font-family="Helvetica,sans-Serif" font-size="10.00">+ UnseenWordPenalty()</text>
<text text-anchor="start" x="8" y="-29.5" font-family="Helvetica,sans-Serif" font-size="10.00">+ clear()</text>
<text text-anchor="start" x="8" y="-18.5" font-family="Helvetica,sans-Serif" font-size="10.00">+ startState()</text>
<text text-anchor="start" x="8" y="-7.5" font-family="Helvetica,sans-Serif" font-size="10.00">+ step()</text>
</g>
<!-- Node2 -->
<g id="node2" class="node"><title>Node2</title>
<g id="a_node2"><a xlink:href="../../dd/dbc/classmarian_1_1Scorer.html" target="_top" xlink:title="{marian::Scorer\n|# weight_\l|+ Scorer()\l+ getName()\l+ getWeight()\l+ clear()\l+ startState()\l+ step()\l+ init()\l}">
<polygon fill="white" stroke="black" points="31,-150.5 31,-273.5 111,-273.5 111,-150.5 31,-150.5"/>
<text text-anchor="middle" x="71" y="-261.5" font-family="Helvetica,sans-Serif" font-size="10.00">marian::Scorer</text>
<polyline fill="none" stroke="black" points="31,-254.5 111,-254.5 "/>
<text text-anchor="start" x="39" y="-242.5" font-family="Helvetica,sans-Serif" font-size="10.00"># weight_</text>
<polyline fill="none" stroke="black" points="31,-235.5 111,-235.5 "/>
<text text-anchor="start" x="39" y="-223.5" font-family="Helvetica,sans-Serif" font-size="10.00">+ Scorer()</text>
<text text-anchor="start" x="39" y="-212.5" font-family="Helvetica,sans-Serif" font-size="10.00">+ getName()</text>
<text text-anchor="start" x="39" y="-201.5" font-family="Helvetica,sans-Serif" font-size="10.00">+ getWeight()</text>
<text text-anchor="start" x="39" y="-190.5" font-family="Helvetica,sans-Serif" font-size="10.00">+ clear()</text>
<text text-anchor="start" x="39" y="-179.5" font-family="Helvetica,sans-Serif" font-size="10.00">+ startState()</text>
<text text-anchor="start" x="39" y="-168.5" font-family="Helvetica,sans-Serif" font-size="10.00">+ step()</text>
<text text-anchor="start" x="39" y="-157.5" font-family="Helvetica,sans-Serif" font-size="10.00">+ init()</text>
</a>
</g>
</g>
<!-- Node2&#45;&gt;Node1 -->
<g id="edge1" class="edge"><title>Node2&#45;&gt;Node1</title>
<path fill="none" stroke="midnightblue" d="M71,-140.055C71,-130.886 71,-121.605 71,-112.741"/>
<polygon fill="none" stroke="midnightblue" points="67.5001,-140.333 71,-150.333 74.5001,-140.333 67.5001,-140.333"/>
</g>
<!-- Node3 -->
<g id="node3" class="node"><title>Node3</title>
<g id="a_node3"><a xlink:title="STL class. ">
<polygon fill="white" stroke="#bfbfbf" points="41,-321.5 41,-378.5 101,-378.5 101,-321.5 41,-321.5"/>
<text text-anchor="middle" x="71" y="-366.5" font-family="Helvetica,sans-Serif" font-size="10.00">std::string</text>
<polyline fill="none" stroke="#bfbfbf" points="41,-359.5 101,-359.5 "/>
<text text-anchor="middle" x="71" y="-347.5" font-family="Helvetica,sans-Serif" font-size="10.00"> </text>
<polyline fill="none" stroke="#bfbfbf" points="41,-340.5 101,-340.5 "/>
<text text-anchor="middle" x="71" y="-328.5" font-family="Helvetica,sans-Serif" font-size="10.00"> </text>
</a>
</g>
</g>
<!-- Node3&#45;&gt;Node2 -->
<g id="edge2" class="edge"><title>Node3&#45;&gt;Node2</title>
<path fill="none" stroke="#404040" d="M71,-321.478C71,-311.009 71,-298.526 71,-285.818"/>
<polygon fill="none" stroke="#404040" points="71.0001,-285.623 67,-279.623 71,-273.623 75,-279.623 71.0001,-285.623"/>
<text text-anchor="middle" x="90" y="-295" font-family="Helvetica,sans-Serif" font-size="10.00"> #name_</text>
</g>
<!-- Node4 -->
<g id="node4" class="node"><title>Node4</title>
<polygon fill="white" stroke="#bfbfbf" points="23.5,-416.5 23.5,-484.5 118.5,-484.5 118.5,-416.5 23.5,-416.5"/>
<text text-anchor="start" x="31.5" y="-472.5" font-family="Helvetica,sans-Serif" font-size="10.00">std::basic_string&lt;</text>
<text text-anchor="middle" x="71" y="-461.5" font-family="Helvetica,sans-Serif" font-size="10.00"> char &gt;</text>
<polyline fill="none" stroke="#bfbfbf" points="23.5,-454.5 118.5,-454.5 "/>
<text text-anchor="middle" x="71" y="-442.5" font-family="Helvetica,sans-Serif" font-size="10.00"> </text>
<polyline fill="none" stroke="#bfbfbf" points="23.5,-435.5 118.5,-435.5 "/>
<text text-anchor="middle" x="71" y="-423.5" font-family="Helvetica,sans-Serif" font-size="10.00"> </text>
</g>
<!-- Node4&#45;&gt;Node3 -->
<g id="edge3" class="edge"><title>Node4&#45;&gt;Node3</title>
<path fill="none" stroke="midnightblue" d="M71,-406.375C71,-396.94 71,-387.201 71,-378.571"/>
<polygon fill="none" stroke="midnightblue" points="67.5001,-406.427 71,-416.427 74.5001,-406.427 67.5001,-406.427"/>
</g>
</g>
</svg>
