<?xml version="1.0" encoding="UTF-8" standalone="no"?>
<!DOCTYPE svg PUBLIC "-//W3C//DTD SVG 1.1//EN"
 "http://www.w3.org/Graphics/SVG/1.1/DTD/svg11.dtd">
<!-- Generated by graphviz version 2.38.0 (20140413.2041)
 -->
<!-- Title: amunmt::BPE::Encode Pages: 1 -->
<svg width="315pt" height="192pt"
 viewBox="0.00 0.00 315.00 192.00" xmlns="http://www.w3.org/2000/svg" xmlns:xlink="http://www.w3.org/1999/xlink">
<g id="graph0" class="graph" transform="scale(1 1) rotate(0) translate(4 188)">
<title>amunmt::BPE::Encode</title>
<polygon fill="white" stroke="none" points="-4,4 -4,-188 311,-188 311,4 -4,4"/>
<!-- Node1 -->
<g id="node1" class="node"><title>Node1</title>
<polygon fill="#bfbfbf" stroke="black" points="0,-76.5 0,-95.5 117,-95.5 117,-76.5 0,-76.5"/>
<text text-anchor="middle" x="58.5" y="-83.5" font-family="Helvetica,sans-Serif" font-size="10.00">amunmt::BPE::Encode</text>
</g>
<!-- Node2 -->
<g id="node2" class="node"><title>Node2</title>
<g id="a_node2"><a xlink:href="../../da/d75/classamunmt_1_1BPE.html#a7840a80bf09596f2b3415070f3324b4b" target="_top" xlink:title="amunmt::BPE::IsCached">
<polygon fill="white" stroke="black" points="167,-164.5 167,-183.5 293,-183.5 293,-164.5 167,-164.5"/>
<text text-anchor="middle" x="230" y="-171.5" font-family="Helvetica,sans-Serif" font-size="10.00">amunmt::BPE::IsCached</text>
</a>
</g>
</g>
<!-- Node1&#45;&gt;Node2 -->
<g id="edge1" class="edge"><title>Node1&#45;&gt;Node2</title>
<path fill="none" stroke="midnightblue" d="M69.5593,-95.5489C85.8095,-110.454 119.421,-139.177 153,-155 158.202,-157.451 163.759,-159.611 169.411,-161.509"/>
<polygon fill="midnightblue" stroke="midnightblue" points="168.381,-164.854 178.968,-164.461 170.446,-158.166 168.381,-164.854"/>
</g>
<!-- Node3 -->
<g id="node3" class="node"><title>Node3</title>
<g id="a_node3"><a xlink:href="../../da/d75/classamunmt_1_1BPE.html#a6089b76990dd5e462f8bcc7249fcb912" target="_top" xlink:title="amunmt::BPE::SplitWordInto\lLetters">
<polygon fill="white" stroke="black" points="158.5,-115 158.5,-145 301.5,-145 301.5,-115 158.5,-115"/>
<text text-anchor="start" x="166.5" y="-133" font-family="Helvetica,sans-Serif" font-size="10.00">amunmt::BPE::SplitWordInto</text>
<text text-anchor="middle" x="230" y="-122" font-family="Helvetica,sans-Serif" font-size="10.00">Letters</text>
</a>
</g>
</g>
<!-- Node1&#45;&gt;Node3 -->
<g id="edge2" class="edge"><title>Node1&#45;&gt;Node3</title>
<path fill="none" stroke="midnightblue" d="M96.279,-95.5473C115.277,-100.479 139.072,-106.656 161.247,-112.412"/>
<polygon fill="midnightblue" stroke="midnightblue" points="160.405,-115.81 170.964,-114.935 162.164,-109.034 160.405,-115.81"/>
</g>
<!-- Node4 -->
<g id="node4" class="node"><title>Node4</title>
<g id="a_node4"><a xlink:href="../../da/d75/classamunmt_1_1BPE.html#a98b27329dd9a9146202d2bd732ce4ba3" target="_top" xlink:title="amunmt::BPE::GetPairs">
<polygon fill="white" stroke="black" points="169,-76.5 169,-95.5 291,-95.5 291,-76.5 169,-76.5"/>
<text text-anchor="middle" x="230" y="-83.5" font-family="Helvetica,sans-Serif" font-size="10.00">amunmt::BPE::GetPairs</text>
</a>
</g>
</g>
<!-- Node1&#45;&gt;Node4 -->
<g id="edge3" class="edge"><title>Node1&#45;&gt;Node4</title>
<path fill="none" stroke="midnightblue" d="M117.358,-86C130.579,-86 144.775,-86 158.461,-86"/>
<polygon fill="midnightblue" stroke="midnightblue" points="158.804,-89.5001 168.803,-86 158.803,-82.5001 158.804,-89.5001"/>
</g>
<!-- Node5 -->
<g id="node5" class="node"><title>Node5</title>
<g id="a_node5"><a xlink:href="../../da/d75/classamunmt_1_1BPE.html#ab1ad9af2c5806b7e2ee2bf91bd38d80b" target="_top" xlink:title="amunmt::BPE::FindBestBigram">
<polygon fill="white" stroke="black" points="153,-38.5 153,-57.5 307,-57.5 307,-38.5 153,-38.5"/>
<text text-anchor="middle" x="230" y="-45.5" font-family="Helvetica,sans-Serif" font-size="10.00">amunmt::BPE::FindBestBigram</text>
</a>
</g>
</g>
<!-- Node1&#45;&gt;Node5 -->
<g id="edge4" class="edge"><title>Node1&#45;&gt;Node5</title>
<path fill="none" stroke="midnightblue" d="M102.272,-76.411C124.841,-71.3513 152.723,-65.1004 176.583,-59.7512"/>
<polygon fill="midnightblue" stroke="midnightblue" points="177.543,-63.1229 186.536,-57.5201 176.012,-56.2925 177.543,-63.1229"/>
</g>
<!-- Node6 -->
<g id="node6" class="node"><title>Node6</title>
<g id="a_node6"><a xlink:href="../../da/d75/classamunmt_1_1BPE.html#a21b9fe0b9cd1782985a5917bed7eb5f2" target="_top" xlink:title="amunmt::BPE::EndsWith">
<polygon fill="white" stroke="black" points="166.5,-0.5 166.5,-19.5 293.5,-19.5 293.5,-0.5 166.5,-0.5"/>
<text text-anchor="middle" x="230" y="-7.5" font-family="Helvetica,sans-Serif" font-size="10.00">amunmt::BPE::EndsWith</text>
</a>
</g>
</g>
<!-- Node1&#45;&gt;Node6 -->
<g id="edge5" class="edge"><title>Node1&#45;&gt;Node6</title>
<path fill="none" stroke="midnightblue" d="M72.4402,-76.3481C89.8851,-63.7614 122.308,-41.84 153,-29 158.846,-26.5543 165.082,-24.3695 171.371,-22.4316"/>
<polygon fill="midnightblue" stroke="midnightblue" points="172.61,-25.7173 181.252,-19.5876 170.674,-18.9904 172.61,-25.7173"/>
</g>
</g>
</svg>
