<?xml version="1.0" encoding="UTF-8" standalone="no"?>
<!DOCTYPE svg PUBLIC "-//W3C//DTD SVG 1.1//EN"
 "http://www.w3.org/Graphics/SVG/1.1/DTD/svg11.dtd">
<!-- Generated by graphviz version 2.38.0 (20140413.2041)
 -->
<!-- Title: amunmt::BPE::Encode Pages: 1 -->
<svg width="304pt" height="142pt"
 viewBox="0.00 0.00 304.00 142.00" xmlns="http://www.w3.org/2000/svg" xmlns:xlink="http://www.w3.org/1999/xlink">
<g id="graph0" class="graph" transform="scale(1 1) rotate(0) translate(4 138)">
<title>amunmt::BPE::Encode</title>
<polygon fill="white" stroke="none" points="-4,4 -4,-138 300,-138 300,4 -4,4"/>
<!-- Node1 -->
<g id="node1" class="node"><title>Node1</title>
<polygon fill="#bfbfbf" stroke="black" points="0,-57.5 0,-76.5 117,-76.5 117,-57.5 0,-57.5"/>
<text text-anchor="middle" x="58.5" y="-64.5" font-family="Helvetica,sans-Serif" font-size="10.00">amunmt::BPE::Encode</text>
</g>
<!-- Node2 -->
<g id="node2" class="node"><title>Node2</title>
<g id="a_node2"><a xlink:href="../../da/d75/classamunmt_1_1BPE.html#ae394375a674cfeee1c36b56cb918f015" target="_top" xlink:title="amunmt::BPE::Preprocess">
<polygon fill="white" stroke="black" points="157.5,-114.5 157.5,-133.5 291.5,-133.5 291.5,-114.5 157.5,-114.5"/>
<text text-anchor="middle" x="224.5" y="-121.5" font-family="Helvetica,sans-Serif" font-size="10.00">amunmt::BPE::Preprocess</text>
</a>
</g>
</g>
<!-- Node1&#45;&gt;Node2 -->
<g id="edge1" class="edge"><title>Node1&#45;&gt;Node2</title>
<path fill="none" stroke="midnightblue" d="M90.2017,-80.5895C108.277,-88.3091 131.702,-97.8322 153,-105 163.212,-108.437 174.415,-111.686 184.825,-114.493"/>
<polygon fill="midnightblue" stroke="midnightblue" points="91.326,-77.2627 80.7577,-76.5128 88.5517,-83.6894 91.326,-77.2627"/>
</g>
<!-- Node3 -->
<g id="node3" class="node"><title>Node3</title>
<g id="a_node3"><a xlink:href="../../da/d75/classamunmt_1_1BPE.html#a747e84ef0632faa5cb75994a09e64819" target="_top" xlink:title="amunmt::BPE::Segment">
<polygon fill="white" stroke="black" points="163,-76.5 163,-95.5 286,-95.5 286,-76.5 163,-76.5"/>
<text text-anchor="middle" x="224.5" y="-83.5" font-family="Helvetica,sans-Serif" font-size="10.00">amunmt::BPE::Segment</text>
</a>
</g>
</g>
<!-- Node1&#45;&gt;Node3 -->
<g id="edge2" class="edge"><title>Node1&#45;&gt;Node3</title>
<path fill="none" stroke="midnightblue" d="M127.501,-74.8781C139.229,-76.2369 151.352,-77.6413 162.869,-78.9757"/>
<polygon fill="midnightblue" stroke="midnightblue" points="127.657,-71.3729 117.32,-73.6987 126.851,-78.3264 127.657,-71.3729"/>
</g>
<!-- Node4 -->
<g id="node4" class="node"><title>Node4</title>
<g id="a_node4"><a xlink:href="../../da/d75/classamunmt_1_1BPE.html#ad00d419cc8a541b8aad84501ab053db8" target="_top" xlink:title="amunmt::BPE::PrintSegment">
<polygon fill="white" stroke="black" points="153,-38.5 153,-57.5 296,-57.5 296,-38.5 153,-38.5"/>
<text text-anchor="middle" x="224.5" y="-45.5" font-family="Helvetica,sans-Serif" font-size="10.00">amunmt::BPE::PrintSegment</text>
</a>
</g>
</g>
<!-- Node1&#45;&gt;Node4 -->
<g id="edge3" class="edge"><title>Node1&#45;&gt;Node4</title>
<path fill="none" stroke="midnightblue" d="M127.467,-59.1257C135.889,-58.15 144.515,-57.1507 152.974,-56.1707"/>
<polygon fill="midnightblue" stroke="midnightblue" points="126.851,-55.6736 117.32,-60.3013 127.657,-62.6271 126.851,-55.6736"/>
</g>
<!-- Node5 -->
<g id="node5" class="node"><title>Node5</title>
<g id="a_node5"><a xlink:href="../../da/d75/classamunmt_1_1BPE.html#adb07fcf335a9fd4caf8a21b413d8c17f" target="_top" xlink:title="amunmt::BPE::Encode">
<polygon fill="white" stroke="black" points="166,-0.5 166,-19.5 283,-19.5 283,-0.5 166,-0.5"/>
<text text-anchor="middle" x="224.5" y="-7.5" font-family="Helvetica,sans-Serif" font-size="10.00">amunmt::BPE::Encode</text>
</a>
</g>
</g>
<!-- Node1&#45;&gt;Node5 -->
<g id="edge4" class="edge"><title>Node1&#45;&gt;Node5</title>
<path fill="none" stroke="midnightblue" d="M90.2017,-53.4105C108.277,-45.6909 131.702,-36.1678 153,-29 163.212,-25.5632 174.415,-22.314 184.825,-19.5067"/>
<polygon fill="midnightblue" stroke="midnightblue" points="88.5517,-50.3106 80.7577,-57.4872 91.326,-56.7373 88.5517,-50.3106"/>
</g>
</g>
</svg>
