<?xml version="1.0" encoding="UTF-8" standalone="no"?>
<!DOCTYPE svg PUBLIC "-//W3C//DTD SVG 1.1//EN"
 "http://www.w3.org/Graphics/SVG/1.1/DTD/svg11.dtd">
<!-- Generated by graphviz version 2.38.0 (20140413.2041)
 -->
<!-- Title: marian::BeamSearch Pages: 1 -->
<svg width="131pt" height="226pt"
 viewBox="0.00 0.00 131.00 226.00" xmlns="http://www.w3.org/2000/svg" xmlns:xlink="http://www.w3.org/1999/xlink">
<g id="graph0" class="graph" transform="scale(1 1) rotate(0) translate(4 222)">
<title>marian::BeamSearch</title>
<polygon fill="white" stroke="none" points="-4,4 -4,-222 127,-222 127,4 -4,4"/>
<!-- Node1 -->
<g id="node1" class="node"><title>Node1</title>
<polygon fill="#bfbfbf" stroke="black" points="7.5,-0.5 7.5,-101.5 115.5,-101.5 115.5,-0.5 7.5,-0.5"/>
<text text-anchor="middle" x="61.5" y="-89.5" font-family="Helvetica,sans-Serif" font-size="10.00">marian::BeamSearch</text>
<polyline fill="none" stroke="black" points="7.5,-82.5 115.5,-82.5 "/>
<text text-anchor="start" x="15.5" y="-70.5" font-family="Helvetica,sans-Serif" font-size="10.00">&#45; options_</text>
<text text-anchor="start" x="15.5" y="-59.5" font-family="Helvetica,sans-Serif" font-size="10.00">&#45; beamSize_</text>
<polyline fill="none" stroke="black" points="7.5,-52.5 115.5,-52.5 "/>
<text text-anchor="start" x="15.5" y="-40.5" font-family="Helvetica,sans-Serif" font-size="10.00">+ BeamSearch()</text>
<text text-anchor="start" x="15.5" y="-29.5" font-family="Helvetica,sans-Serif" font-size="10.00">+ toHyps()</text>
<text text-anchor="start" x="15.5" y="-18.5" font-family="Helvetica,sans-Serif" font-size="10.00">+ pruneBeam()</text>
<text text-anchor="start" x="15.5" y="-7.5" font-family="Helvetica,sans-Serif" font-size="10.00">+ search()</text>
</g>
<!-- Node2 -->
<g id="node2" class="node"><title>Node2</title>
<polygon fill="white" stroke="#bfbfbf" points="0,-149.5 0,-217.5 123,-217.5 123,-149.5 0,-149.5"/>
<text text-anchor="start" x="8" y="-205.5" font-family="Helvetica,sans-Serif" font-size="10.00">std::vector&lt; Ptr&lt; marian</text>
<text text-anchor="middle" x="61.5" y="-194.5" font-family="Helvetica,sans-Serif" font-size="10.00">::Scorer &gt; &gt;</text>
<polyline fill="none" stroke="#bfbfbf" points="0,-187.5 123,-187.5 "/>
<text text-anchor="middle" x="61.5" y="-175.5" font-family="Helvetica,sans-Serif" font-size="10.00"> </text>
<polyline fill="none" stroke="#bfbfbf" points="0,-168.5 123,-168.5 "/>
<text text-anchor="middle" x="61.5" y="-156.5" font-family="Helvetica,sans-Serif" font-size="10.00"> </text>
</g>
<!-- Node2&#45;&gt;Node1 -->
<g id="edge1" class="edge"><title>Node2&#45;&gt;Node1</title>
<path fill="none" stroke="#404040" d="M61.5,-149.232C61.5,-138.471 61.5,-126.168 61.5,-114.015"/>
<polygon fill="none" stroke="#404040" points="61.5001,-113.975 57.5,-107.975 61.5,-101.975 65.5,-107.975 61.5001,-113.975"/>
<text text-anchor="middle" x="83.5" y="-123" font-family="Helvetica,sans-Serif" font-size="10.00"> &#45;scorers_</text>
</g>
</g>
</svg>
