<?xml version="1.0" encoding="UTF-8" standalone="no"?>
<!DOCTYPE svg PUBLIC "-//W3C//DTD SVG 1.1//EN"
 "http://www.w3.org/Graphics/SVG/1.1/DTD/svg11.dtd">
<!-- Generated by graphviz version 2.38.0 (20140413.2041)
 -->
<!-- Title: NBest Pages: 1 -->
<svg width="395pt" height="380pt"
 viewBox="0.00 0.00 395.00 380.00" xmlns="http://www.w3.org/2000/svg" xmlns:xlink="http://www.w3.org/1999/xlink">
<g id="graph0" class="graph" transform="scale(1 1) rotate(0) translate(4 376)">
<title>NBest</title>
<polygon fill="white" stroke="none" points="-4,4 -4,-376 391,-376 391,4 -4,4"/>
<!-- Node1 -->
<g id="node1" class="node"><title>Node1</title>
<polygon fill="#bfbfbf" stroke="black" points="113,-0.5 113,-255.5 268,-255.5 268,-0.5 113,-0.5"/>
<text text-anchor="middle" x="190.5" y="-243.5" font-family="Helvetica,sans-Serif" font-size="10.00">NBest</text>
<polyline fill="none" stroke="black" points="113,-236.5 268,-236.5 "/>
<text text-anchor="start" x="121" y="-224.5" font-family="Helvetica,sans-Serif" font-size="10.00">&#45; srcVocab_</text>
<text text-anchor="start" x="121" y="-213.5" font-family="Helvetica,sans-Serif" font-size="10.00">&#45; trgVocab_</text>
<text text-anchor="start" x="121" y="-202.5" font-family="Helvetica,sans-Serif" font-size="10.00">&#45; maxBatchSize_</text>
<polyline fill="none" stroke="black" points="113,-195.5 268,-195.5 "/>
<text text-anchor="start" x="121" y="-183.5" font-family="Helvetica,sans-Serif" font-size="10.00">+ NBest()</text>
<text text-anchor="start" x="121" y="-172.5" font-family="Helvetica,sans-Serif" font-size="10.00">+ NBest()</text>
<text text-anchor="start" x="121" y="-161.5" font-family="Helvetica,sans-Serif" font-size="10.00">+ GetBatches()</text>
<text text-anchor="start" x="121" y="-150.5" font-family="Helvetica,sans-Serif" font-size="10.00">+ GetIndex()</text>
<text text-anchor="start" x="121" y="-139.5" font-family="Helvetica,sans-Serif" font-size="10.00">+ operator[]()</text>
<text text-anchor="start" x="121" y="-128.5" font-family="Helvetica,sans-Serif" font-size="10.00">+ size()</text>
<text text-anchor="start" x="121" y="-117.5" font-family="Helvetica,sans-Serif" font-size="10.00">+ GetSentence()</text>
<text text-anchor="start" x="121" y="-106.5" font-family="Helvetica,sans-Serif" font-size="10.00">+ GetTokens()</text>
<text text-anchor="start" x="121" y="-95.5" font-family="Helvetica,sans-Serif" font-size="10.00">+ GetEncodedTokens()</text>
<text text-anchor="start" x="121" y="-84.5" font-family="Helvetica,sans-Serif" font-size="10.00">+ DivideNBestListIntoBatches()</text>
<text text-anchor="start" x="121" y="-73.5" font-family="Helvetica,sans-Serif" font-size="10.00">&#45; Parse_()</text>
<text text-anchor="start" x="121" y="-62.5" font-family="Helvetica,sans-Serif" font-size="10.00">&#45; SplitBatch()</text>
<text text-anchor="start" x="121" y="-51.5" font-family="Helvetica,sans-Serif" font-size="10.00">&#45; ParseInputFile()</text>
<text text-anchor="start" x="121" y="-40.5" font-family="Helvetica,sans-Serif" font-size="10.00">&#45; EncodeBatch()</text>
<text text-anchor="start" x="121" y="-29.5" font-family="Helvetica,sans-Serif" font-size="10.00">&#45; MaskAndTransposeBatch()</text>
<text text-anchor="start" x="121" y="-18.5" font-family="Helvetica,sans-Serif" font-size="10.00">&#45; ProcessBatch()</text>
<text text-anchor="start" x="121" y="-7.5" font-family="Helvetica,sans-Serif" font-size="10.00">&#45; ProcessBatch()</text>
</g>
<!-- Node2 -->
<g id="node2" class="node"><title>Node2</title>
<polygon fill="white" stroke="#bfbfbf" points="0,-303.5 0,-371.5 119,-371.5 119,-303.5 0,-303.5"/>
<text text-anchor="start" x="8" y="-359.5" font-family="Helvetica,sans-Serif" font-size="10.00">std::vector&lt; std::vector</text>
<text text-anchor="middle" x="59.5" y="-348.5" font-family="Helvetica,sans-Serif" font-size="10.00">&lt; std::string &gt; &gt;</text>
<polyline fill="none" stroke="#bfbfbf" points="0,-341.5 119,-341.5 "/>
<text text-anchor="middle" x="59.5" y="-329.5" font-family="Helvetica,sans-Serif" font-size="10.00"> </text>
<polyline fill="none" stroke="#bfbfbf" points="0,-322.5 119,-322.5 "/>
<text text-anchor="middle" x="59.5" y="-310.5" font-family="Helvetica,sans-Serif" font-size="10.00"> </text>
</g>
<!-- Node2&#45;&gt;Node1 -->
<g id="edge1" class="edge"><title>Node2&#45;&gt;Node1</title>
<path fill="none" stroke="#404040" d="M80.5474,-303.162C87.9517,-291.433 96.791,-277.432 106.195,-262.536"/>
<polygon fill="none" stroke="#404040" points="106.38,-262.244 106.2,-255.035 112.786,-252.097 112.965,-259.306 106.38,-262.244"/>
<text text-anchor="middle" x="114" y="-277" font-family="Helvetica,sans-Serif" font-size="10.00"> &#45;data_</text>
</g>
<!-- Node3 -->
<g id="node3" class="node"><title>Node3</title>
<polygon fill="white" stroke="#bfbfbf" points="137,-309 137,-366 244,-366 244,-309 137,-309"/>
<text text-anchor="middle" x="190.5" y="-354" font-family="Helvetica,sans-Serif" font-size="10.00">std::vector&lt; size_t &gt;</text>
<polyline fill="none" stroke="#bfbfbf" points="137,-347 244,-347 "/>
<text text-anchor="middle" x="190.5" y="-335" font-family="Helvetica,sans-Serif" font-size="10.00"> </text>
<polyline fill="none" stroke="#bfbfbf" points="137,-328 244,-328 "/>
<text text-anchor="middle" x="190.5" y="-316" font-family="Helvetica,sans-Serif" font-size="10.00"> </text>
</g>
<!-- Node3&#45;&gt;Node1 -->
<g id="edge2" class="edge"><title>Node3&#45;&gt;Node1</title>
<path fill="none" stroke="#404040" d="M190.5,-308.946C190.5,-297.437 190.5,-283.141 190.5,-267.673"/>
<polygon fill="none" stroke="#404040" points="190.5,-267.643 186.5,-261.643 190.5,-255.643 194.5,-261.643 190.5,-267.643"/>
<text text-anchor="middle" x="213.5" y="-277" font-family="Helvetica,sans-Serif" font-size="10.00"> &#45;indexes_</text>
</g>
<!-- Node4 -->
<g id="node4" class="node"><title>Node4</title>
<polygon fill="white" stroke="#bfbfbf" points="262,-309 262,-366 387,-366 387,-309 262,-309"/>
<text text-anchor="middle" x="324.5" y="-354" font-family="Helvetica,sans-Serif" font-size="10.00">std::vector&lt; std::string &gt;</text>
<polyline fill="none" stroke="#bfbfbf" points="262,-347 387,-347 "/>
<text text-anchor="middle" x="324.5" y="-335" font-family="Helvetica,sans-Serif" font-size="10.00"> </text>
<polyline fill="none" stroke="#bfbfbf" points="262,-328 387,-328 "/>
<text text-anchor="middle" x="324.5" y="-316" font-family="Helvetica,sans-Serif" font-size="10.00"> </text>
</g>
<!-- Node4&#45;&gt;Node1 -->
<g id="edge3" class="edge"><title>Node4&#45;&gt;Node1</title>
<path fill="none" stroke="#404040" d="M306.706,-308.946C297.956,-295.396 286.71,-277.981 274.671,-259.339"/>
<polygon fill="none" stroke="#404040" points="274.623,-259.264 268.007,-256.394 268.113,-249.184 274.728,-252.054 274.623,-259.264"/>
<text text-anchor="middle" x="324.5" y="-277" font-family="Helvetica,sans-Serif" font-size="10.00"> &#45;srcSentences_</text>
</g>
</g>
</svg>
