<?xml version="1.0" encoding="UTF-8" standalone="no"?>
<!DOCTYPE svg PUBLIC "-//W3C//DTD SVG 1.1//EN"
 "http://www.w3.org/Graphics/SVG/1.1/DTD/svg11.dtd">
<!-- Generated by graphviz version 2.38.0 (20140413.2041)
 -->
<!-- Title: nth_element_kernels.h Pages: 1 -->
<svg width="869pt" height="532pt"
 viewBox="0.00 0.00 869.41 532.00" xmlns="http://www.w3.org/2000/svg" xmlns:xlink="http://www.w3.org/1999/xlink">
<g id="graph0" class="graph" transform="scale(1 1) rotate(0) translate(4 528)">
<title>nth_element_kernels.h</title>
<polygon fill="white" stroke="none" points="-4,4 -4,-528 865.408,-528 865.408,4 -4,4"/>
<!-- Node1 -->
<g id="node1" class="node"><title>Node1</title>
<polygon fill="#bfbfbf" stroke="black" points="175.5,-504.5 175.5,-523.5 290.5,-523.5 290.5,-504.5 175.5,-504.5"/>
<text text-anchor="middle" x="233" y="-511.5" font-family="Helvetica,sans-Serif" font-size="10.00">nth_element_kernels.h</text>
</g>
<!-- Node2 -->
<g id="node2" class="node"><title>Node2</title>
<g id="a_node2"><a xlink:href="$da/dbc/matrix__functions_8h.html" xlink:title="matrix_functions.h">
<polygon fill="white" stroke="black" points="272.5,-448.5 272.5,-467.5 369.5,-467.5 369.5,-448.5 272.5,-448.5"/>
<text text-anchor="middle" x="321" y="-455.5" font-family="Helvetica,sans-Serif" font-size="10.00">matrix_functions.h</text>
</a>
</g>
</g>
<!-- Node1&#45;&gt;Node2 -->
<g id="edge1" class="edge"><title>Node1&#45;&gt;Node2</title>
<path fill="none" stroke="midnightblue" d="M255.977,-498.901C272.113,-488.999 293.181,-476.071 306.896,-467.655"/>
<polygon fill="midnightblue" stroke="midnightblue" points="253.831,-496.111 247.139,-504.324 257.493,-502.077 253.831,-496.111"/>
</g>
<!-- Node19 -->
<g id="node19" class="node"><title>Node19</title>
<g id="a_node19"><a xlink:href="$d7/d58/amun_2gpu_2mblas_2nth__element_8h.html" xlink:title="nth_element.h">
<polygon fill="white" stroke="black" points="106,-448.5 106,-467.5 184,-467.5 184,-448.5 106,-448.5"/>
<text text-anchor="middle" x="145" y="-455.5" font-family="Helvetica,sans-Serif" font-size="10.00">nth_element.h</text>
</a>
</g>
</g>
<!-- Node1&#45;&gt;Node19 -->
<g id="edge40" class="edge"><title>Node1&#45;&gt;Node19</title>
<path fill="none" stroke="midnightblue" d="M210.023,-498.901C193.887,-488.999 172.819,-476.071 159.104,-467.655"/>
<polygon fill="midnightblue" stroke="midnightblue" points="208.507,-502.077 218.861,-504.324 212.169,-496.111 208.507,-502.077"/>
</g>
<!-- Node3 -->
<g id="node3" class="node"><title>Node3</title>
<g id="a_node3"><a xlink:href="$d0/d90/best__hyps_8h.html" xlink:title="best_hyps.h">
<polygon fill="white" stroke="black" points="0,-392.5 0,-411.5 70,-411.5 70,-392.5 0,-392.5"/>
<text text-anchor="middle" x="35" y="-399.5" font-family="Helvetica,sans-Serif" font-size="10.00">best_hyps.h</text>
</a>
</g>
</g>
<!-- Node2&#45;&gt;Node3 -->
<g id="edge2" class="edge"><title>Node2&#45;&gt;Node3</title>
<path fill="none" stroke="midnightblue" d="M265.627,-446.545C207.854,-435.637 119.026,-418.865 70.1879,-409.644"/>
<polygon fill="midnightblue" stroke="midnightblue" points="265.207,-450.027 275.682,-448.444 266.505,-443.149 265.207,-450.027"/>
</g>
<!-- Node4 -->
<g id="node4" class="node"><title>Node4</title>
<g id="a_node4"><a xlink:href="$d0/ddd/cell_8h.html" xlink:title="cell.h">
<polygon fill="white" stroke="black" points="240,-336.5 240,-355.5 280,-355.5 280,-336.5 240,-336.5"/>
<text text-anchor="middle" x="260" y="-343.5" font-family="Helvetica,sans-Serif" font-size="10.00">cell.h</text>
</a>
</g>
</g>
<!-- Node2&#45;&gt;Node4 -->
<g id="edge3" class="edge"><title>Node2&#45;&gt;Node4</title>
<path fill="none" stroke="midnightblue" d="M311.196,-439.32C297.914,-415.37 274.722,-373.548 264.764,-355.591"/>
<polygon fill="midnightblue" stroke="midnightblue" points="308.303,-441.321 316.213,-448.368 314.425,-437.926 308.303,-441.321"/>
</g>
<!-- Node5 -->
<g id="node5" class="node"><title>Node5</title>
<g id="a_node5"><a xlink:href="$dc/db8/gru_8h.html" xlink:title="gru.h">
<polygon fill="white" stroke="black" points="241,-280.5 241,-299.5 279,-299.5 279,-280.5 241,-280.5"/>
<text text-anchor="middle" x="260" y="-287.5" font-family="Helvetica,sans-Serif" font-size="10.00">gru.h</text>
</a>
</g>
</g>
<!-- Node2&#45;&gt;Node5 -->
<g id="edge29" class="edge"><title>Node2&#45;&gt;Node5</title>
<path fill="none" stroke="midnightblue" d="M299.132,-442.484C275.231,-425.161 238.302,-393.746 223,-356 214.414,-334.821 235.122,-312.04 248.903,-299.871"/>
<polygon fill="midnightblue" stroke="midnightblue" points="297.387,-445.535 307.583,-448.417 301.41,-439.807 297.387,-445.535"/>
</g>
<!-- Node6 -->
<g id="node6" class="node"><title>Node6</title>
<g id="a_node6"><a xlink:href="$d6/d72/decoder_8h.html" xlink:title="decoder.h">
<polygon fill="white" stroke="black" points="500.5,-224.5 500.5,-243.5 559.5,-243.5 559.5,-224.5 500.5,-224.5"/>
<text text-anchor="middle" x="530" y="-231.5" font-family="Helvetica,sans-Serif" font-size="10.00">decoder.h</text>
</a>
</g>
</g>
<!-- Node2&#45;&gt;Node6 -->
<g id="edge28" class="edge"><title>Node2&#45;&gt;Node6</title>
<path fill="none" stroke="midnightblue" d="M379.704,-452.127C418.627,-446.771 469.591,-435.539 509,-412 559.194,-382.019 568.481,-357.686 578,-300 579.447,-291.23 581.534,-288.156 578,-280 571.189,-264.278 555.88,-251.531 544.37,-243.67"/>
<polygon fill="midnightblue" stroke="midnightblue" points="379.048,-448.682 369.575,-453.427 379.939,-455.625 379.048,-448.682"/>
</g>
<!-- Node10 -->
<g id="node10" class="node"><title>Node10</title>
<g id="a_node10"><a xlink:href="$d1/d79/encoder_8h.html" xlink:title="encoder.h">
<polygon fill="white" stroke="black" points="406.5,-168.5 406.5,-187.5 465.5,-187.5 465.5,-168.5 406.5,-168.5"/>
<text text-anchor="middle" x="436" y="-175.5" font-family="Helvetica,sans-Serif" font-size="10.00">encoder.h</text>
</a>
</g>
</g>
<!-- Node2&#45;&gt;Node10 -->
<g id="edge31" class="edge"><title>Node2&#45;&gt;Node10</title>
<path fill="none" stroke="midnightblue" d="M262.028,-452.898C195.96,-444.721 98,-420.246 98,-347 98,-347 98,-347 98,-289 98,-224.436 323.823,-191.926 406.301,-182.206"/>
<polygon fill="midnightblue" stroke="midnightblue" points="262.005,-456.418 272.337,-454.075 262.799,-449.463 262.005,-456.418"/>
</g>
<!-- Node11 -->
<g id="node11" class="node"><title>Node11</title>
<g id="a_node11"><a xlink:href="$d0/d55/lstm_8h.html" xlink:title="lstm.h">
<polygon fill="white" stroke="black" points="508,-280.5 508,-299.5 552,-299.5 552,-280.5 508,-280.5"/>
<text text-anchor="middle" x="530" y="-287.5" font-family="Helvetica,sans-Serif" font-size="10.00">lstm.h</text>
</a>
</g>
</g>
<!-- Node2&#45;&gt;Node11 -->
<g id="edge30" class="edge"><title>Node2&#45;&gt;Node11</title>
<path fill="none" stroke="midnightblue" d="M379.589,-448.14C432.193,-436.744 506.44,-411.349 542,-356 553.289,-338.429 542.461,-312.988 535.258,-299.749"/>
<polygon fill="midnightblue" stroke="midnightblue" points="378.793,-444.73 369.704,-450.173 380.204,-451.586 378.793,-444.73"/>
</g>
<!-- Node12 -->
<g id="node12" class="node"><title>Node12</title>
<g id="a_node12"><a xlink:href="$d6/d81/multiplicative_8h.html" xlink:title="multiplicative.h">
<polygon fill="white" stroke="black" points="578,-224.5 578,-243.5 660,-243.5 660,-224.5 578,-224.5"/>
<text text-anchor="middle" x="619" y="-231.5" font-family="Helvetica,sans-Serif" font-size="10.00">multiplicative.h</text>
</a>
</g>
</g>
<!-- Node2&#45;&gt;Node12 -->
<g id="edge32" class="edge"><title>Node2&#45;&gt;Node12</title>
<path fill="none" stroke="midnightblue" d="M379.939,-454.53C425.444,-450.39 488.6,-439.632 537,-412 590.577,-381.413 603.57,-359.732 619,-300 624.08,-280.333 622.016,-256.188 620.343,-243.585"/>
<polygon fill="midnightblue" stroke="midnightblue" points="379.608,-451.045 369.932,-455.36 380.187,-458.021 379.608,-451.045"/>
</g>
<!-- Node13 -->
<g id="node13" class="node"><title>Node13</title>
<g id="a_node13"><a xlink:href="$d2/d98/cellstate_8h.html" xlink:title="cellstate.h">
<polygon fill="white" stroke="black" points="330,-392.5 330,-411.5 392,-411.5 392,-392.5 330,-392.5"/>
<text text-anchor="middle" x="361" y="-399.5" font-family="Helvetica,sans-Serif" font-size="10.00">cellstate.h</text>
</a>
</g>
</g>
<!-- Node2&#45;&gt;Node13 -->
<g id="edge19" class="edge"><title>Node2&#45;&gt;Node13</title>
<path fill="none" stroke="midnightblue" d="M333.7,-439.855C340.626,-430.505 348.906,-419.327 354.518,-411.751"/>
<polygon fill="midnightblue" stroke="midnightblue" points="330.745,-437.964 327.605,-448.083 336.37,-442.131 330.745,-437.964"/>
</g>
<!-- Node16 -->
<g id="node16" class="node"><title>Node16</title>
<g id="a_node16"><a xlink:href="$d8/dd8/amun_2gpu_2npz__converter_8h.html" xlink:title="npz_converter.h">
<polygon fill="white" stroke="black" points="760,-392.5 760,-411.5 846,-411.5 846,-392.5 760,-392.5"/>
<text text-anchor="middle" x="803" y="-399.5" font-family="Helvetica,sans-Serif" font-size="10.00">npz_converter.h</text>
</a>
</g>
</g>
<!-- Node2&#45;&gt;Node16 -->
<g id="edge33" class="edge"><title>Node2&#45;&gt;Node16</title>
<path fill="none" stroke="midnightblue" d="M379.668,-451.744C461.758,-444.173 615.494,-429.201 746,-412 750.47,-411.411 755.129,-410.751 759.774,-410.063"/>
<polygon fill="midnightblue" stroke="midnightblue" points="379.174,-448.275 369.536,-452.675 379.814,-455.246 379.174,-448.275"/>
</g>
<!-- Node4&#45;&gt;Node5 -->
<g id="edge4" class="edge"><title>Node4&#45;&gt;Node5</title>
<path fill="none" stroke="midnightblue" d="M260,-325.805C260,-316.91 260,-306.78 260,-299.751"/>
<polygon fill="midnightblue" stroke="midnightblue" points="256.5,-326.083 260,-336.083 263.5,-326.083 256.5,-326.083"/>
</g>
<!-- Node4&#45;&gt;Node6 -->
<g id="edge16" class="edge"><title>Node4&#45;&gt;Node6</title>
<path fill="none" stroke="midnightblue" d="M290.023,-335.789C346.207,-319.662 363.464,-321.103 414,-300 453.196,-283.632 495.974,-257.214 516.935,-243.648"/>
<polygon fill="midnightblue" stroke="midnightblue" points="288.875,-332.478 280.265,-338.653 290.846,-339.195 288.875,-332.478"/>
</g>
<!-- Node4&#45;&gt;Node10 -->
<g id="edge18" class="edge"><title>Node4&#45;&gt;Node10</title>
<path fill="none" stroke="midnightblue" d="M276.87,-329.088C313.42,-294.615 398.882,-214.009 426.916,-187.568"/>
<polygon fill="midnightblue" stroke="midnightblue" points="274.336,-326.668 269.463,-336.075 279.139,-331.76 274.336,-326.668"/>
</g>
<!-- Node4&#45;&gt;Node11 -->
<g id="edge11" class="edge"><title>Node4&#45;&gt;Node11</title>
<path fill="none" stroke="midnightblue" d="M290.156,-335.965C378.932,-314.726 404.169,-317.334 490,-300 495.721,-298.845 501.881,-297.506 507.612,-296.22"/>
<polygon fill="midnightblue" stroke="midnightblue" points="289.084,-332.623 280.192,-338.384 290.736,-339.426 289.084,-332.623"/>
</g>
<!-- Node4&#45;&gt;Node12 -->
<g id="edge17" class="edge"><title>Node4&#45;&gt;Node12</title>
<path fill="none" stroke="midnightblue" d="M290.115,-336.169C410.526,-312.252 456.071,-355.553 561,-300 586.129,-286.696 605.629,-257.877 614.216,-243.506"/>
<polygon fill="midnightblue" stroke="midnightblue" points="289.229,-332.779 280.164,-338.263 290.671,-339.629 289.229,-332.779"/>
</g>
<!-- Node5&#45;&gt;Node6 -->
<g id="edge5" class="edge"><title>Node5&#45;&gt;Node6</title>
<path fill="none" stroke="midnightblue" d="M289.304,-283.139C341.133,-272.773 448.398,-251.32 500.422,-240.916"/>
<polygon fill="midnightblue" stroke="midnightblue" points="288.537,-279.723 279.418,-285.116 289.91,-286.587 288.537,-279.723"/>
</g>
<!-- Node5&#45;&gt;Node10 -->
<g id="edge9" class="edge"><title>Node5&#45;&gt;Node10</title>
<path fill="none" stroke="midnightblue" d="M282.386,-275.009C319.33,-251.919 391.983,-206.51 422.254,-187.591"/>
<polygon fill="midnightblue" stroke="midnightblue" points="280.435,-272.1 273.81,-280.368 284.145,-278.036 280.435,-272.1"/>
</g>
<!-- Node7 -->
<g id="node7" class="node"><title>Node7</title>
<g id="a_node7"><a xlink:href="$db/d89/dl4mt_8h.html" xlink:title="dl4mt.h">
<polygon fill="white" stroke="black" points="505.5,-112.5 505.5,-131.5 554.5,-131.5 554.5,-112.5 505.5,-112.5"/>
<text text-anchor="middle" x="530" y="-119.5" font-family="Helvetica,sans-Serif" font-size="10.00">dl4mt.h</text>
</a>
</g>
</g>
<!-- Node6&#45;&gt;Node7 -->
<g id="edge6" class="edge"><title>Node6&#45;&gt;Node7</title>
<path fill="none" stroke="midnightblue" d="M530,-214.348C530,-190.254 530,-149.308 530,-131.591"/>
<polygon fill="midnightblue" stroke="midnightblue" points="526.5,-214.368 530,-224.368 533.5,-214.369 526.5,-214.368"/>
</g>
<!-- Node8 -->
<g id="node8" class="node"><title>Node8</title>
<g id="a_node8"><a xlink:href="$d6/da3/language__model_8h.html" xlink:title="language_model.h">
<polygon fill="white" stroke="black" points="482.5,-56.5 482.5,-75.5 577.5,-75.5 577.5,-56.5 482.5,-56.5"/>
<text text-anchor="middle" x="530" y="-63.5" font-family="Helvetica,sans-Serif" font-size="10.00">language_model.h</text>
</a>
</g>
</g>
<!-- Node7&#45;&gt;Node8 -->
<g id="edge7" class="edge"><title>Node7&#45;&gt;Node8</title>
<path fill="none" stroke="midnightblue" d="M530,-101.805C530,-92.9102 530,-82.7798 530,-75.7511"/>
<polygon fill="midnightblue" stroke="midnightblue" points="526.5,-102.083 530,-112.083 533.5,-102.083 526.5,-102.083"/>
</g>
<!-- Node9 -->
<g id="node9" class="node"><title>Node9</title>
<g id="a_node9"><a xlink:href="$d3/d17/class__language__model_8h.html" xlink:title="class_language_model.h">
<polygon fill="white" stroke="black" points="468,-0.5 468,-19.5 592,-19.5 592,-0.5 468,-0.5"/>
<text text-anchor="middle" x="530" y="-7.5" font-family="Helvetica,sans-Serif" font-size="10.00">class_language_model.h</text>
</a>
</g>
</g>
<!-- Node8&#45;&gt;Node9 -->
<g id="edge8" class="edge"><title>Node8&#45;&gt;Node9</title>
<path fill="none" stroke="midnightblue" d="M530,-45.8045C530,-36.9102 530,-26.7798 530,-19.7511"/>
<polygon fill="midnightblue" stroke="midnightblue" points="526.5,-46.083 530,-56.083 533.5,-46.083 526.5,-46.083"/>
</g>
<!-- Node10&#45;&gt;Node7 -->
<g id="edge10" class="edge"><title>Node10&#45;&gt;Node7</title>
<path fill="none" stroke="midnightblue" d="M460.062,-163.177C477.359,-153.241 500.148,-140.149 514.935,-131.655"/>
<polygon fill="midnightblue" stroke="midnightblue" points="458.03,-160.308 451.103,-168.324 461.517,-166.378 458.03,-160.308"/>
</g>
<!-- Node11&#45;&gt;Node6 -->
<g id="edge12" class="edge"><title>Node11&#45;&gt;Node6</title>
<path fill="none" stroke="midnightblue" d="M530,-269.805C530,-260.91 530,-250.78 530,-243.751"/>
<polygon fill="midnightblue" stroke="midnightblue" points="526.5,-270.083 530,-280.083 533.5,-270.083 526.5,-270.083"/>
</g>
<!-- Node11&#45;&gt;Node10 -->
<g id="edge13" class="edge"><title>Node11&#45;&gt;Node10</title>
<path fill="none" stroke="midnightblue" d="M515.782,-272.688C508.37,-264.162 499.17,-253.541 491,-244 473.885,-224.014 453.98,-200.396 443.44,-187.859"/>
<polygon fill="midnightblue" stroke="midnightblue" points="513.288,-275.154 522.493,-280.399 518.568,-270.558 513.288,-275.154"/>
</g>
<!-- Node11&#45;&gt;Node12 -->
<g id="edge14" class="edge"><title>Node11&#45;&gt;Node12</title>
<path fill="none" stroke="midnightblue" d="M553.238,-274.901C569.558,-264.999 590.865,-252.071 604.736,-243.655"/>
<polygon fill="midnightblue" stroke="midnightblue" points="551.033,-272.144 544.299,-280.324 554.664,-278.129 551.033,-272.144"/>
</g>
<!-- Node12&#45;&gt;Node10 -->
<g id="edge15" class="edge"><title>Node12&#45;&gt;Node10</title>
<path fill="none" stroke="midnightblue" d="M580.257,-221.568C545.735,-211.381 495.995,-196.703 464.861,-187.516"/>
<polygon fill="midnightblue" stroke="midnightblue" points="579.421,-224.97 590.003,-224.444 581.403,-218.256 579.421,-224.97"/>
</g>
<!-- Node13&#45;&gt;Node4 -->
<g id="edge21" class="edge"><title>Node13&#45;&gt;Node4</title>
<path fill="none" stroke="midnightblue" d="M335.917,-387.59C317.243,-377.605 292.296,-364.267 276.187,-355.655"/>
<polygon fill="midnightblue" stroke="midnightblue" points="334.304,-390.696 344.773,-392.324 337.604,-384.522 334.304,-390.696"/>
</g>
<!-- Node13&#45;&gt;Node5 -->
<g id="edge23" class="edge"><title>Node13&#45;&gt;Node5</title>
<path fill="none" stroke="midnightblue" d="M319.591,-398.785C289.598,-394.755 250.951,-384.019 231,-356 217.955,-337.68 238.116,-312.556 250.861,-299.561"/>
<polygon fill="midnightblue" stroke="midnightblue" points="319.462,-402.293 329.794,-399.949 320.255,-395.338 319.462,-402.293"/>
</g>
<!-- Node13&#45;&gt;Node6 -->
<g id="edge25" class="edge"><title>Node13&#45;&gt;Node6</title>
<path fill="none" stroke="midnightblue" d="M402.133,-401.561C442.649,-399.891 503.854,-391.089 542,-356 567.625,-332.428 571.343,-313.246 561,-280 556.604,-265.869 546.054,-252.25 538.483,-243.766"/>
<polygon fill="midnightblue" stroke="midnightblue" points="401.948,-398.065 392.052,-401.847 402.147,-405.062 401.948,-398.065"/>
</g>
<!-- Node13&#45;&gt;Node10 -->
<g id="edge27" class="edge"><title>Node13&#45;&gt;Node10</title>
<path fill="none" stroke="midnightblue" d="M319.727,-399.846C287.598,-396.506 244.904,-386.181 223,-356 212.639,-341.723 216.027,-303.183 232,-280 273.256,-220.12 360.593,-194.141 406.457,-184.264"/>
<polygon fill="midnightblue" stroke="midnightblue" points="319.486,-403.338 329.747,-400.701 320.081,-396.364 319.486,-403.338"/>
</g>
<!-- Node13&#45;&gt;Node11 -->
<g id="edge24" class="edge"><title>Node13&#45;&gt;Node11</title>
<path fill="none" stroke="midnightblue" d="M402.385,-394.872C445.051,-387.658 507.473,-374.301 523,-356 536.511,-340.075 534.216,-313.463 531.856,-299.754"/>
<polygon fill="midnightblue" stroke="midnightblue" points="401.574,-391.458 392.272,-396.53 402.707,-398.366 401.574,-391.458"/>
</g>
<!-- Node13&#45;&gt;Node12 -->
<g id="edge26" class="edge"><title>Node13&#45;&gt;Node12</title>
<path fill="none" stroke="midnightblue" d="M402.098,-396.341C454.261,-389.695 540.428,-376.037 565,-356 601.726,-326.053 614.312,-265.952 617.828,-243.617"/>
<polygon fill="midnightblue" stroke="midnightblue" points="401.64,-392.871 392.147,-397.577 402.502,-399.818 401.64,-392.871"/>
</g>
<!-- Node14 -->
<g id="node14" class="node"><title>Node14</title>
<g id="a_node14"><a xlink:href="$d0/d1e/encoder__decoder__state_8h.html" xlink:title="encoder_decoder_state.h">
<polygon fill="white" stroke="black" points="298,-336.5 298,-355.5 424,-355.5 424,-336.5 298,-336.5"/>
<text text-anchor="middle" x="361" y="-343.5" font-family="Helvetica,sans-Serif" font-size="10.00">encoder_decoder_state.h</text>
</a>
</g>
</g>
<!-- Node13&#45;&gt;Node14 -->
<g id="edge20" class="edge"><title>Node13&#45;&gt;Node14</title>
<path fill="none" stroke="midnightblue" d="M361,-381.805C361,-372.91 361,-362.78 361,-355.751"/>
<polygon fill="midnightblue" stroke="midnightblue" points="357.5,-382.083 361,-392.083 364.5,-382.083 357.5,-382.083"/>
</g>
<!-- Node15 -->
<g id="node15" class="node"><title>Node15</title>
<g id="a_node15"><a xlink:href="$d4/d8f/cellstate_8cpp.html" xlink:title="cellstate.cpp">
<polygon fill="white" stroke="black" points="442,-336.5 442,-355.5 514,-355.5 514,-336.5 442,-336.5"/>
<text text-anchor="middle" x="478" y="-343.5" font-family="Helvetica,sans-Serif" font-size="10.00">cellstate.cpp</text>
</a>
</g>
</g>
<!-- Node13&#45;&gt;Node15 -->
<g id="edge22" class="edge"><title>Node13&#45;&gt;Node15</title>
<path fill="none" stroke="midnightblue" d="M388.664,-388.232C410.549,-378.131 440.497,-364.309 459.548,-355.516"/>
<polygon fill="midnightblue" stroke="midnightblue" points="387.152,-385.075 379.539,-392.444 390.085,-391.431 387.152,-385.075"/>
</g>
<!-- Node17 -->
<g id="node17" class="node"><title>Node17</title>
<g id="a_node17"><a xlink:href="$d0/d2c/amun_2gpu_2dl4mt_2model_8h.html" xlink:title="model.h">
<polygon fill="white" stroke="black" points="760.5,-280.5 760.5,-299.5 811.5,-299.5 811.5,-280.5 760.5,-280.5"/>
<text text-anchor="middle" x="786" y="-287.5" font-family="Helvetica,sans-Serif" font-size="10.00">model.h</text>
</a>
</g>
</g>
<!-- Node16&#45;&gt;Node17 -->
<g id="edge34" class="edge"><title>Node16&#45;&gt;Node17</title>
<path fill="none" stroke="midnightblue" d="M800.117,-382.348C796.394,-358.254 790.066,-317.308 787.328,-299.591"/>
<polygon fill="midnightblue" stroke="midnightblue" points="796.68,-383.02 801.666,-392.368 803.598,-381.951 796.68,-383.02"/>
</g>
<!-- Node17&#45;&gt;Node6 -->
<g id="edge36" class="edge"><title>Node17&#45;&gt;Node6</title>
<path fill="none" stroke="midnightblue" d="M750.254,-281.842C707.201,-273.161 632.713,-257.956 569,-244 566.013,-243.346 562.901,-242.651 559.795,-241.948"/>
<polygon fill="midnightblue" stroke="midnightblue" points="749.745,-285.309 760.239,-283.852 751.127,-278.447 749.745,-285.309"/>
</g>
<!-- Node17&#45;&gt;Node7 -->
<g id="edge37" class="edge"><title>Node17&#45;&gt;Node7</title>
<path fill="none" stroke="midnightblue" d="M817.631,-276.357C843.118,-264.268 872.375,-244.84 857,-224 820.006,-173.856 624.114,-138.079 554.54,-126.789"/>
<polygon fill="midnightblue" stroke="midnightblue" points="816.182,-273.171 808.501,-280.468 819.056,-279.554 816.182,-273.171"/>
</g>
<!-- Node17&#45;&gt;Node10 -->
<g id="edge38" class="edge"><title>Node17&#45;&gt;Node10</title>
<path fill="none" stroke="midnightblue" d="M762.062,-275.169C730.729,-257.148 678.647,-227.51 669,-224 598.73,-198.434 510.981,-186.5 465.86,-181.719"/>
<polygon fill="midnightblue" stroke="midnightblue" points="760.638,-278.388 771.05,-280.347 764.132,-272.322 760.638,-278.388"/>
</g>
<!-- Node17&#45;&gt;Node12 -->
<g id="edge39" class="edge"><title>Node17&#45;&gt;Node12</title>
<path fill="none" stroke="midnightblue" d="M750.567,-277.543C719.056,-267.353 673.695,-252.686 645.308,-243.507"/>
<polygon fill="midnightblue" stroke="midnightblue" points="749.68,-280.934 760.272,-280.681 751.834,-274.274 749.68,-280.934"/>
</g>
<!-- Node18 -->
<g id="node18" class="node"><title>Node18</title>
<g id="a_node18"><a xlink:href="$da/d6b/encoder__decoder__loader_8h.html" xlink:title="encoder_decoder_loader.h">
<polygon fill="white" stroke="black" points="716.5,-224.5 716.5,-243.5 847.5,-243.5 847.5,-224.5 716.5,-224.5"/>
<text text-anchor="middle" x="782" y="-231.5" font-family="Helvetica,sans-Serif" font-size="10.00">encoder_decoder_loader.h</text>
</a>
</g>
</g>
<!-- Node17&#45;&gt;Node18 -->
<g id="edge35" class="edge"><title>Node17&#45;&gt;Node18</title>
<path fill="none" stroke="midnightblue" d="M784.6,-270.101C783.936,-261.136 783.175,-250.858 782.648,-243.751"/>
<polygon fill="midnightblue" stroke="midnightblue" points="781.11,-270.369 785.339,-280.083 788.091,-269.852 781.11,-270.369"/>
</g>
<!-- Node19&#45;&gt;Node3 -->
<g id="edge41" class="edge"><title>Node19&#45;&gt;Node3</title>
<path fill="none" stroke="midnightblue" d="M118.238,-443.862C97.841,-433.849 70.3341,-420.346 52.6295,-411.655"/>
<polygon fill="midnightblue" stroke="midnightblue" points="116.808,-447.059 127.327,-448.324 119.892,-440.775 116.808,-447.059"/>
</g>
</g>
</svg>
