<?xml version="1.0" encoding="UTF-8" standalone="no"?>
<!DOCTYPE svg PUBLIC "-//W3C//DTD SVG 1.1//EN"
 "http://www.w3.org/Graphics/SVG/1.1/DTD/svg11.dtd">
<!-- Generated by graphviz version 2.38.0 (20140413.2041)
 -->
<!-- Title: marian::Node::grad Pages: 1 -->
<svg width="456pt" height="1362pt"
 viewBox="0.00 0.00 456.00 1362.00" xmlns="http://www.w3.org/2000/svg" xmlns:xlink="http://www.w3.org/1999/xlink">
<g id="graph0" class="graph" transform="scale(1 1) rotate(0) translate(4 1358)">
<title>marian::Node::grad</title>
<polygon fill="white" stroke="none" points="-4,4 -4,-1358 452,-1358 452,4 -4,4"/>
<!-- Node1 -->
<g id="node1" class="node"><title>Node1</title>
<polygon fill="#bfbfbf" stroke="black" points="0,-667 0,-686 100,-686 100,-667 0,-667"/>
<text text-anchor="middle" x="50" y="-674" font-family="Helvetica,sans-Serif" font-size="10.00">marian::Node::grad</text>
</g>
<!-- Node2 -->
<g id="node2" class="node"><title>Node2</title>
<g id="a_node2"><a xlink:href="$dc/d8c/structmarian_1_1DotNodeOp.html#a015697830536478b4b8226c7e963dd3a" xlink:title="marian::DotNodeOp::\lbackwardOps">
<polygon fill="white" stroke="black" points="151,-1323.5 151,-1353.5 261,-1353.5 261,-1323.5 151,-1323.5"/>
<text text-anchor="start" x="159" y="-1341.5" font-family="Helvetica,sans-Serif" font-size="10.00">marian::DotNodeOp::</text>
<text text-anchor="middle" x="206" y="-1330.5" font-family="Helvetica,sans-Serif" font-size="10.00">backwardOps</text>
</a>
</g>
</g>
<!-- Node1&#45;&gt;Node2 -->
<g id="edge1" class="edge"><title>Node1&#45;&gt;Node2</title>
<path fill="none" stroke="midnightblue" d="M50.9397,-696.312C51.0346,-793.213 56.0797,-1216.53 136,-1314.5 140.089,-1319.51 145.287,-1323.48 150.99,-1326.62"/>
<polygon fill="midnightblue" stroke="midnightblue" points="54.4397,-696.16 50.9479,-686.157 47.4397,-696.154 54.4397,-696.16"/>
</g>
<!-- Node4 -->
<g id="node4" class="node"><title>Node4</title>
<g id="a_node4"><a xlink:href="$d9/dbf/structmarian_1_1ScalarProductNodeOp.html#ad8f0e8f1aa0b07f36280265ce5b2d808" xlink:title="marian::ScalarProductNode\lOp::backwardOps">
<polygon fill="white" stroke="black" points="137.5,-1274.5 137.5,-1304.5 274.5,-1304.5 274.5,-1274.5 137.5,-1274.5"/>
<text text-anchor="start" x="145.5" y="-1292.5" font-family="Helvetica,sans-Serif" font-size="10.00">marian::ScalarProductNode</text>
<text text-anchor="middle" x="206" y="-1281.5" font-family="Helvetica,sans-Serif" font-size="10.00">Op::backwardOps</text>
</a>
</g>
</g>
<!-- Node1&#45;&gt;Node4 -->
<g id="edge3" class="edge"><title>Node1&#45;&gt;Node4</title>
<path fill="none" stroke="midnightblue" d="M51.1859,-696.52C52.438,-789.202 62.0813,-1175.88 136,-1265.5 138.825,-1268.92 142.167,-1271.86 145.832,-1274.38"/>
<polygon fill="midnightblue" stroke="midnightblue" points="54.683,-696.247 51.0669,-686.288 47.6835,-696.328 54.683,-696.247"/>
</g>
<!-- Node5 -->
<g id="node5" class="node"><title>Node5</title>
<g id="a_node5"><a xlink:href="$dd/d8b/structmarian_1_1PlusNodeOp.html#a3a9f5aac6cb519bc00c7cd916d458859" xlink:title="marian::PlusNodeOp\l::backwardOps">
<polygon fill="white" stroke="black" points="152.5,-1225.5 152.5,-1255.5 259.5,-1255.5 259.5,-1225.5 152.5,-1225.5"/>
<text text-anchor="start" x="160.5" y="-1243.5" font-family="Helvetica,sans-Serif" font-size="10.00">marian::PlusNodeOp</text>
<text text-anchor="middle" x="206" y="-1232.5" font-family="Helvetica,sans-Serif" font-size="10.00">::backwardOps</text>
</a>
</g>
</g>
<!-- Node1&#45;&gt;Node5 -->
<g id="edge4" class="edge"><title>Node1&#45;&gt;Node5</title>
<path fill="none" stroke="midnightblue" d="M51.475,-696.504C53.9492,-784.347 68.0047,-1135.13 136,-1216.5 140.473,-1221.85 146.209,-1226.01 152.459,-1229.25"/>
<polygon fill="midnightblue" stroke="midnightblue" points="54.9687,-696.215 51.2079,-686.311 47.9711,-696.399 54.9687,-696.215"/>
</g>
<!-- Node6 -->
<g id="node6" class="node"><title>Node6</title>
<g id="a_node6"><a xlink:href="$d1/de6/structmarian_1_1MinusNodeOp.html#a126094d4dcd7a89fc897f0017d18e51b" xlink:title="marian::MinusNodeOp\l::backwardOps">
<polygon fill="white" stroke="black" points="149,-1176.5 149,-1206.5 263,-1206.5 263,-1176.5 149,-1176.5"/>
<text text-anchor="start" x="157" y="-1194.5" font-family="Helvetica,sans-Serif" font-size="10.00">marian::MinusNodeOp</text>
<text text-anchor="middle" x="206" y="-1183.5" font-family="Helvetica,sans-Serif" font-size="10.00">::backwardOps</text>
</a>
</g>
</g>
<!-- Node1&#45;&gt;Node6 -->
<g id="edge5" class="edge"><title>Node1&#45;&gt;Node6</title>
<path fill="none" stroke="midnightblue" d="M51.8088,-696.246C55.5646,-778.655 73.8479,-1094.27 136,-1167.5 139.611,-1171.75 144.019,-1175.26 148.844,-1178.14"/>
<polygon fill="midnightblue" stroke="midnightblue" points="55.3038,-696.053 51.3722,-686.214 48.3104,-696.357 55.3038,-696.053"/>
</g>
<!-- Node7 -->
<g id="node7" class="node"><title>Node7</title>
<g id="a_node7"><a xlink:href="$dc/d98/structmarian_1_1MultNodeOp.html#a27aa4d7f39e4ba64e3be883ca6dfaf45" xlink:title="marian::MultNodeOp\l::backwardOps">
<polygon fill="white" stroke="black" points="152.5,-1127.5 152.5,-1157.5 259.5,-1157.5 259.5,-1127.5 152.5,-1127.5"/>
<text text-anchor="start" x="160.5" y="-1145.5" font-family="Helvetica,sans-Serif" font-size="10.00">marian::MultNodeOp</text>
<text text-anchor="middle" x="206" y="-1134.5" font-family="Helvetica,sans-Serif" font-size="10.00">::backwardOps</text>
</a>
</g>
</g>
<!-- Node1&#45;&gt;Node7 -->
<g id="edge6" class="edge"><title>Node1&#45;&gt;Node7</title>
<path fill="none" stroke="midnightblue" d="M52.2541,-696.702C57.4686,-774.496 79.8452,-1053.57 136,-1118.5 140.48,-1123.68 146.14,-1127.74 152.283,-1130.93"/>
<polygon fill="midnightblue" stroke="midnightblue" points="55.7239,-696.122 51.5845,-686.369 48.7386,-696.575 55.7239,-696.122"/>
</g>
<!-- Node8 -->
<g id="node8" class="node"><title>Node8</title>
<g id="a_node8"><a xlink:href="$df/de1/structmarian_1_1DivNodeOp.html#affd4ce9819f516cb1ea37786ffd8815a" xlink:title="marian::DivNodeOp::\lbackwardOps">
<polygon fill="white" stroke="black" points="151.5,-1078.5 151.5,-1108.5 260.5,-1108.5 260.5,-1078.5 151.5,-1078.5"/>
<text text-anchor="start" x="159.5" y="-1096.5" font-family="Helvetica,sans-Serif" font-size="10.00">marian::DivNodeOp::</text>
<text text-anchor="middle" x="206" y="-1085.5" font-family="Helvetica,sans-Serif" font-size="10.00">backwardOps</text>
</a>
</g>
</g>
<!-- Node1&#45;&gt;Node8 -->
<g id="edge7" class="edge"><title>Node1&#45;&gt;Node8</title>
<path fill="none" stroke="midnightblue" d="M52.7432,-696.293C59.4269,-767.944 85.6048,-1012.56 136,-1069.5 140.287,-1074.34 145.605,-1078.21 151.372,-1081.3"/>
<polygon fill="midnightblue" stroke="midnightblue" points="56.2289,-695.975 51.8372,-686.333 49.2577,-696.61 56.2289,-695.975"/>
</g>
<!-- Node9 -->
<g id="node9" class="node"><title>Node9</title>
<g id="a_node9"><a xlink:href="$da/d72/structmarian_1_1CrossEntropyNodeOp.html#ac500562de661363f71a0f16331dd60e7" xlink:title="marian::CrossEntropyNode\lOp::backwardOps">
<polygon fill="white" stroke="black" points="138.5,-1029.5 138.5,-1059.5 273.5,-1059.5 273.5,-1029.5 138.5,-1029.5"/>
<text text-anchor="start" x="146.5" y="-1047.5" font-family="Helvetica,sans-Serif" font-size="10.00">marian::CrossEntropyNode</text>
<text text-anchor="middle" x="206" y="-1036.5" font-family="Helvetica,sans-Serif" font-size="10.00">Op::backwardOps</text>
</a>
</g>
</g>
<!-- Node1&#45;&gt;Node9 -->
<g id="edge8" class="edge"><title>Node1&#45;&gt;Node9</title>
<path fill="none" stroke="midnightblue" d="M53.4042,-696.305C61.7525,-762.041 91.4315,-971.606 136,-1020.5 139.161,-1023.97 142.85,-1026.94 146.848,-1029.47"/>
<polygon fill="midnightblue" stroke="midnightblue" points="56.8407,-695.577 52.1326,-686.085 49.8943,-696.441 56.8407,-695.577"/>
</g>
<!-- Node10 -->
<g id="node10" class="node"><title>Node10</title>
<g id="a_node10"><a xlink:href="$d0/d6a/structmarian_1_1AffineNodeOp.html#a277f706113217219266122ccbd44679b" xlink:title="marian::AffineNodeOp\l::backwardOps">
<polygon fill="white" stroke="black" points="149.5,-980.5 149.5,-1010.5 262.5,-1010.5 262.5,-980.5 149.5,-980.5"/>
<text text-anchor="start" x="157.5" y="-998.5" font-family="Helvetica,sans-Serif" font-size="10.00">marian::AffineNodeOp</text>
<text text-anchor="middle" x="206" y="-987.5" font-family="Helvetica,sans-Serif" font-size="10.00">::backwardOps</text>
</a>
</g>
</g>
<!-- Node1&#45;&gt;Node10 -->
<g id="edge9" class="edge"><title>Node1&#45;&gt;Node10</title>
<path fill="none" stroke="midnightblue" d="M50.8164,-696.444C51.4325,-748.803 60.3517,-891.636 136,-971.5 139.838,-975.552 144.394,-978.919 149.31,-981.719"/>
<polygon fill="midnightblue" stroke="midnightblue" points="54.3159,-696.175 50.7939,-686.183 47.316,-696.19 54.3159,-696.175"/>
</g>
<!-- Node11 -->
<g id="node11" class="node"><title>Node11</title>
<g id="a_node11"><a xlink:href="$d8/deb/structmarian_1_1LayerNormalizationOp.html#a31596fee029ef32402528e24376e2c69" xlink:title="marian::LayerNormalization\lOp::backwardOps">
<polygon fill="white" stroke="black" points="138,-931.5 138,-961.5 274,-961.5 274,-931.5 138,-931.5"/>
<text text-anchor="start" x="146" y="-949.5" font-family="Helvetica,sans-Serif" font-size="10.00">marian::LayerNormalization</text>
<text text-anchor="middle" x="206" y="-938.5" font-family="Helvetica,sans-Serif" font-size="10.00">Op::backwardOps</text>
</a>
</g>
</g>
<!-- Node1&#45;&gt;Node11 -->
<g id="edge10" class="edge"><title>Node1&#45;&gt;Node11</title>
<path fill="none" stroke="midnightblue" d="M52.1502,-696.17C55.8937,-742.205 71.5595,-857.927 136,-922.5 139.404,-925.911 143.319,-928.839 147.516,-931.351"/>
<polygon fill="midnightblue" stroke="midnightblue" points="55.6307,-695.769 51.4329,-686.041 48.6482,-696.264 55.6307,-695.769"/>
</g>
<!-- Node12 -->
<g id="node12" class="node"><title>Node12</title>
<g id="a_node12"><a xlink:href="$d1/df0/structmarian_1_1ScalarAddNodeOp.html#a9507deac5ac29d8b07fc950a1e7b3aff" xlink:title="marian::ScalarAddNodeOp\l::backwardOps">
<polygon fill="white" stroke="black" points="139.5,-882.5 139.5,-912.5 272.5,-912.5 272.5,-882.5 139.5,-882.5"/>
<text text-anchor="start" x="147.5" y="-900.5" font-family="Helvetica,sans-Serif" font-size="10.00">marian::ScalarAddNodeOp</text>
<text text-anchor="middle" x="206" y="-889.5" font-family="Helvetica,sans-Serif" font-size="10.00">::backwardOps</text>
</a>
</g>
</g>
<!-- Node1&#45;&gt;Node12 -->
<g id="edge11" class="edge"><title>Node1&#45;&gt;Node12</title>
<path fill="none" stroke="midnightblue" d="M54.0969,-696.184C61.2904,-735.452 82.7562,-823.988 136,-873.5 139.715,-876.955 143.954,-879.916 148.462,-882.453"/>
<polygon fill="midnightblue" stroke="midnightblue" points="57.5391,-695.549 52.3993,-686.284 50.6398,-696.732 57.5391,-695.549"/>
</g>
<!-- Node13 -->
<g id="node13" class="node"><title>Node13</title>
<g id="a_node13"><a xlink:href="$d2/d6d/structmarian_1_1ScalarMultNodeOp.html#ae090e81626c938ff80aa51f0ec738e43" xlink:title="marian::ScalarMultNodeOp\l::backwardOps">
<polygon fill="white" stroke="black" points="139,-833.5 139,-863.5 273,-863.5 273,-833.5 139,-833.5"/>
<text text-anchor="start" x="147" y="-851.5" font-family="Helvetica,sans-Serif" font-size="10.00">marian::ScalarMultNodeOp</text>
<text text-anchor="middle" x="206" y="-840.5" font-family="Helvetica,sans-Serif" font-size="10.00">::backwardOps</text>
</a>
</g>
</g>
<!-- Node1&#45;&gt;Node13 -->
<g id="edge12" class="edge"><title>Node1&#45;&gt;Node13</title>
<path fill="none" stroke="midnightblue" d="M57.0618,-695.725C67.907,-727.096 93.554,-789.317 136,-824.5 140.101,-827.899 144.714,-830.829 149.56,-833.352"/>
<polygon fill="midnightblue" stroke="midnightblue" points="60.3098,-694.4 53.8397,-686.01 53.6657,-696.603 60.3098,-694.4"/>
</g>
<!-- Node14 -->
<g id="node14" class="node"><title>Node14</title>
<g id="a_node14"><a xlink:href="$dc/d06/structmarian_1_1LogitNodeOp.html#a574fae9f1ecf9e601c5ab0312b88d136" xlink:title="marian::LogitNodeOp\l::backwardOps">
<polygon fill="white" stroke="black" points="151.5,-784.5 151.5,-814.5 260.5,-814.5 260.5,-784.5 151.5,-784.5"/>
<text text-anchor="start" x="159.5" y="-802.5" font-family="Helvetica,sans-Serif" font-size="10.00">marian::LogitNodeOp</text>
<text text-anchor="middle" x="206" y="-791.5" font-family="Helvetica,sans-Serif" font-size="10.00">::backwardOps</text>
</a>
</g>
</g>
<!-- Node1&#45;&gt;Node14 -->
<g id="edge13" class="edge"><title>Node1&#45;&gt;Node14</title>
<path fill="none" stroke="midnightblue" d="M62.1744,-694.588C76.6562,-716.629 103.892,-753.626 136,-775.5 140.926,-778.856 146.37,-781.789 151.974,-784.341"/>
<polygon fill="midnightblue" stroke="midnightblue" points="65.11,-692.682 56.7718,-686.146 59.2139,-696.455 65.11,-692.682"/>
</g>
<!-- Node15 -->
<g id="node15" class="node"><title>Node15</title>
<g id="a_node15"><a xlink:href="$d9/d8a/structmarian_1_1TanhNodeOp.html#a01f8dfc69d49509d2ba630517d3e10d6" xlink:title="marian::TanhNodeOp\l::backwardOps">
<polygon fill="white" stroke="black" points="151,-735.5 151,-765.5 261,-765.5 261,-735.5 151,-735.5"/>
<text text-anchor="start" x="159" y="-753.5" font-family="Helvetica,sans-Serif" font-size="10.00">marian::TanhNodeOp</text>
<text text-anchor="middle" x="206" y="-742.5" font-family="Helvetica,sans-Serif" font-size="10.00">::backwardOps</text>
</a>
</g>
</g>
<!-- Node1&#45;&gt;Node15 -->
<g id="edge14" class="edge"><title>Node1&#45;&gt;Node15</title>
<path fill="none" stroke="midnightblue" d="M73.8169,-691.591C90.5609,-702.246 114.105,-716.373 136,-726.5 142.907,-729.695 150.366,-732.71 157.74,-735.455"/>
<polygon fill="midnightblue" stroke="midnightblue" points="75.5684,-688.555 65.2678,-686.076 71.7737,-694.438 75.5684,-688.555"/>
</g>
<!-- Node16 -->
<g id="node16" class="node"><title>Node16</title>
<g id="a_node16"><a xlink:href="$d6/daf/structmarian_1_1ReLUNodeOp.html#ad1878b3530b0044d1bc7bbe1ad2d66a1" xlink:title="marian::ReLUNodeOp\l::backwardOps">
<polygon fill="white" stroke="black" points="149.5,-686.5 149.5,-716.5 262.5,-716.5 262.5,-686.5 149.5,-686.5"/>
<text text-anchor="start" x="157.5" y="-704.5" font-family="Helvetica,sans-Serif" font-size="10.00">marian::ReLUNodeOp</text>
<text text-anchor="middle" x="206" y="-693.5" font-family="Helvetica,sans-Serif" font-size="10.00">::backwardOps</text>
</a>
</g>
</g>
<!-- Node1&#45;&gt;Node16 -->
<g id="edge15" class="edge"><title>Node1&#45;&gt;Node16</title>
<path fill="none" stroke="midnightblue" d="M110.273,-686.122C123.119,-688.208 136.66,-690.406 149.36,-692.468"/>
<polygon fill="midnightblue" stroke="midnightblue" points="110.582,-682.627 100.15,-684.479 109.46,-689.536 110.582,-682.627"/>
</g>
<!-- Node17 -->
<g id="node17" class="node"><title>Node17</title>
<g id="a_node17"><a xlink:href="$df/d60/structmarian_1_1SoftmaxNodeOp.html#a60b215754e045ea3442cb8bb1ba26465" xlink:title="marian::SoftmaxNodeOp\l::backwardOps">
<polygon fill="white" stroke="black" points="143.5,-637.5 143.5,-667.5 268.5,-667.5 268.5,-637.5 143.5,-637.5"/>
<text text-anchor="start" x="151.5" y="-655.5" font-family="Helvetica,sans-Serif" font-size="10.00">marian::SoftmaxNodeOp</text>
<text text-anchor="middle" x="206" y="-644.5" font-family="Helvetica,sans-Serif" font-size="10.00">::backwardOps</text>
</a>
</g>
</g>
<!-- Node1&#45;&gt;Node17 -->
<g id="edge16" class="edge"><title>Node1&#45;&gt;Node17</title>
<path fill="none" stroke="midnightblue" d="M110.338,-667.253C121.151,-665.567 132.457,-663.805 143.336,-662.11"/>
<polygon fill="midnightblue" stroke="midnightblue" points="109.492,-663.842 100.15,-668.84 110.57,-670.759 109.492,-663.842"/>
</g>
<!-- Node18 -->
<g id="node18" class="node"><title>Node18</title>
<g id="a_node18"><a xlink:href="$d3/d92/structmarian_1_1LogSoftmaxNodeOp.html#ab2ae88fe3ba607a32e566c6e0022c9f7" xlink:title="marian::LogSoftmaxNodeOp\l::backwardOps">
<polygon fill="white" stroke="black" points="136,-588.5 136,-618.5 276,-618.5 276,-588.5 136,-588.5"/>
<text text-anchor="start" x="144" y="-606.5" font-family="Helvetica,sans-Serif" font-size="10.00">marian::LogSoftmaxNodeOp</text>
<text text-anchor="middle" x="206" y="-595.5" font-family="Helvetica,sans-Serif" font-size="10.00">::backwardOps</text>
</a>
</g>
</g>
<!-- Node1&#45;&gt;Node18 -->
<g id="edge17" class="edge"><title>Node1&#45;&gt;Node18</title>
<path fill="none" stroke="midnightblue" d="M74.8488,-661.614C91.5848,-651.524 114.692,-638.294 136,-628.5 143.641,-624.988 151.928,-621.625 160.02,-618.568"/>
<polygon fill="midnightblue" stroke="midnightblue" points="72.9723,-658.659 66.2585,-666.855 76.618,-664.635 72.9723,-658.659"/>
</g>
<!-- Node19 -->
<g id="node19" class="node"><title>Node19</title>
<g id="a_node19"><a xlink:href="$dc/d7a/structmarian_1_1SumNodeOp.html#a705a3304de7f9aad90b7ead6736a8e46" xlink:title="marian::SumNodeOp::\lbackwardOps">
<polygon fill="white" stroke="black" points="149,-539.5 149,-569.5 263,-569.5 263,-539.5 149,-539.5"/>
<text text-anchor="start" x="157" y="-557.5" font-family="Helvetica,sans-Serif" font-size="10.00">marian::SumNodeOp::</text>
<text text-anchor="middle" x="206" y="-546.5" font-family="Helvetica,sans-Serif" font-size="10.00">backwardOps</text>
</a>
</g>
</g>
<!-- Node1&#45;&gt;Node19 -->
<g id="edge18" class="edge"><title>Node1&#45;&gt;Node19</title>
<path fill="none" stroke="midnightblue" d="M62.7277,-658.233C77.4443,-636.646 104.597,-600.958 136,-579.5 141.576,-575.69 147.8,-572.386 154.166,-569.542"/>
<polygon fill="midnightblue" stroke="midnightblue" points="59.6558,-656.532 57.0378,-666.798 65.4866,-660.405 59.6558,-656.532"/>
</g>
<!-- Node20 -->
<g id="node20" class="node"><title>Node20</title>
<g id="a_node20"><a xlink:href="$de/dfa/structmarian_1_1MeanNodeOp.html#a6ea05faab13f92bf40430274016db0f6" xlink:title="marian::MeanNodeOp\l::backwardOps">
<polygon fill="white" stroke="black" points="150,-490.5 150,-520.5 262,-520.5 262,-490.5 150,-490.5"/>
<text text-anchor="start" x="158" y="-508.5" font-family="Helvetica,sans-Serif" font-size="10.00">marian::MeanNodeOp</text>
<text text-anchor="middle" x="206" y="-497.5" font-family="Helvetica,sans-Serif" font-size="10.00">::backwardOps</text>
</a>
</g>
</g>
<!-- Node1&#45;&gt;Node20 -->
<g id="edge19" class="edge"><title>Node1&#45;&gt;Node20</title>
<path fill="none" stroke="midnightblue" d="M57.3454,-657.147C68.4582,-626.144 94.3077,-565.304 136,-530.5 140.597,-526.662 145.832,-523.391 151.316,-520.608"/>
<polygon fill="midnightblue" stroke="midnightblue" points="53.9759,-656.182 54.0275,-666.777 60.5941,-658.463 53.9759,-656.182"/>
</g>
<!-- Node21 -->
<g id="node21" class="node"><title>Node21</title>
<g id="a_node21"><a xlink:href="$d0/d51/structmarian_1_1LogNodeOp.html#a739a39b083f5995aee9badd4b528de03" xlink:title="marian::LogNodeOp::\lbackwardOps">
<polygon fill="white" stroke="black" points="151,-441.5 151,-471.5 261,-471.5 261,-441.5 151,-441.5"/>
<text text-anchor="start" x="159" y="-459.5" font-family="Helvetica,sans-Serif" font-size="10.00">marian::LogNodeOp::</text>
<text text-anchor="middle" x="206" y="-448.5" font-family="Helvetica,sans-Serif" font-size="10.00">backwardOps</text>
</a>
</g>
</g>
<!-- Node1&#45;&gt;Node21 -->
<g id="edge20" class="edge"><title>Node1&#45;&gt;Node21</title>
<path fill="none" stroke="midnightblue" d="M54.2598,-656.82C61.7073,-617.925 83.5491,-530.724 136,-481.5 140.367,-477.402 145.456,-473.966 150.855,-471.087"/>
<polygon fill="midnightblue" stroke="midnightblue" points="50.7825,-656.382 52.4595,-666.843 57.6723,-657.619 50.7825,-656.382"/>
</g>
<!-- Node22 -->
<g id="node22" class="node"><title>Node22</title>
<g id="a_node22"><a xlink:href="$d5/dc7/structmarian_1_1ExpNodeOp.html#a99a3c11f354e675876e681abd964c99d" xlink:title="marian::ExpNodeOp::\lbackwardOps">
<polygon fill="white" stroke="black" points="150.5,-392.5 150.5,-422.5 261.5,-422.5 261.5,-392.5 150.5,-392.5"/>
<text text-anchor="start" x="158.5" y="-410.5" font-family="Helvetica,sans-Serif" font-size="10.00">marian::ExpNodeOp::</text>
<text text-anchor="middle" x="206" y="-399.5" font-family="Helvetica,sans-Serif" font-size="10.00">backwardOps</text>
</a>
</g>
</g>
<!-- Node1&#45;&gt;Node22 -->
<g id="edge21" class="edge"><title>Node1&#45;&gt;Node22</title>
<path fill="none" stroke="midnightblue" d="M52.3127,-656.413C56.3803,-610.448 72.6503,-496.64 136,-432.5 140.119,-428.33 144.985,-424.852 150.197,-421.951"/>
<polygon fill="midnightblue" stroke="midnightblue" points="48.8091,-656.324 51.5202,-666.566 55.7879,-656.869 48.8091,-656.324"/>
</g>
<!-- Node23 -->
<g id="node23" class="node"><title>Node23</title>
<g id="a_node23"><a xlink:href="$d3/d71/structmarian_1_1SqrtNodeOp.html#adeeaeffd66c0f516cc43b2f84b2a3240" xlink:title="marian::SqrtNodeOp\l::backwardOps">
<polygon fill="white" stroke="black" points="153,-343.5 153,-373.5 259,-373.5 259,-343.5 153,-343.5"/>
<text text-anchor="start" x="161" y="-361.5" font-family="Helvetica,sans-Serif" font-size="10.00">marian::SqrtNodeOp</text>
<text text-anchor="middle" x="206" y="-350.5" font-family="Helvetica,sans-Serif" font-size="10.00">::backwardOps</text>
</a>
</g>
</g>
<!-- Node1&#45;&gt;Node23 -->
<g id="edge22" class="edge"><title>Node1&#45;&gt;Node23</title>
<path fill="none" stroke="midnightblue" d="M50.9193,-656.743C51.7864,-604.864 61.265,-463.278 136,-383.5 140.704,-378.479 146.493,-374.464 152.701,-371.253"/>
<polygon fill="midnightblue" stroke="midnightblue" points="47.4183,-656.884 50.8458,-666.909 54.4181,-656.935 47.4183,-656.884"/>
</g>
<!-- Node24 -->
<g id="node24" class="node"><title>Node24</title>
<g id="a_node24"><a xlink:href="$db/dd5/structmarian_1_1SquareNodeOp.html#acc9e02797b8bdbbb797033bc0712bee7" xlink:title="marian::SquareNodeOp\l::backwardOps">
<polygon fill="white" stroke="black" points="146.5,-294.5 146.5,-324.5 265.5,-324.5 265.5,-294.5 146.5,-294.5"/>
<text text-anchor="start" x="154.5" y="-312.5" font-family="Helvetica,sans-Serif" font-size="10.00">marian::SquareNodeOp</text>
<text text-anchor="middle" x="206" y="-301.5" font-family="Helvetica,sans-Serif" font-size="10.00">::backwardOps</text>
</a>
</g>
</g>
<!-- Node1&#45;&gt;Node24 -->
<g id="edge23" class="edge"><title>Node1&#45;&gt;Node24</title>
<path fill="none" stroke="midnightblue" d="M53.4444,-656.831C61.9202,-591.542 91.9562,-383.38 136,-334.5 139.497,-330.619 143.643,-327.34 148.142,-324.57"/>
<polygon fill="midnightblue" stroke="midnightblue" points="49.9433,-656.619 52.1525,-666.981 56.8873,-657.503 49.9433,-656.619"/>
</g>
<!-- Node25 -->
<g id="node25" class="node"><title>Node25</title>
<g id="a_node25"><a xlink:href="$d4/d57/structmarian_1_1NegNodeOp.html#ab7f6421e5106374dae28e016b48280fd" xlink:title="marian::NegNodeOp::\lbackwardOps">
<polygon fill="white" stroke="black" points="150,-245.5 150,-275.5 262,-275.5 262,-245.5 150,-245.5"/>
<text text-anchor="start" x="158" y="-263.5" font-family="Helvetica,sans-Serif" font-size="10.00">marian::NegNodeOp::</text>
<text text-anchor="middle" x="206" y="-252.5" font-family="Helvetica,sans-Serif" font-size="10.00">backwardOps</text>
</a>
</g>
</g>
<!-- Node1&#45;&gt;Node25 -->
<g id="edge24" class="edge"><title>Node1&#45;&gt;Node25</title>
<path fill="none" stroke="midnightblue" d="M52.8242,-656.387C59.7095,-584.613 86.2878,-342.337 136,-285.5 139.859,-281.088 144.558,-277.455 149.672,-274.463"/>
<polygon fill="midnightblue" stroke="midnightblue" points="49.3036,-656.444 51.8568,-666.727 56.2732,-657.097 49.3036,-656.444"/>
</g>
<!-- Node26 -->
<g id="node26" class="node"><title>Node26</title>
<g id="a_node26"><a xlink:href="$db/dfd/structmarian_1_1RowsNodeOp.html#a09fcd9c3cd6c67f9c0ab37c48d9c41cd" xlink:title="marian::RowsNodeOp\l::backwardOps">
<polygon fill="white" stroke="black" points="149.5,-196.5 149.5,-226.5 262.5,-226.5 262.5,-196.5 149.5,-196.5"/>
<text text-anchor="start" x="157.5" y="-214.5" font-family="Helvetica,sans-Serif" font-size="10.00">marian::RowsNodeOp</text>
<text text-anchor="middle" x="206" y="-203.5" font-family="Helvetica,sans-Serif" font-size="10.00">::backwardOps</text>
</a>
</g>
</g>
<!-- Node1&#45;&gt;Node26 -->
<g id="edge25" class="edge"><title>Node1&#45;&gt;Node26</title>
<path fill="none" stroke="midnightblue" d="M52.2923,-656.41C57.6485,-579.046 80.4801,-301.486 136,-236.5 139.724,-232.141 144.271,-228.542 149.237,-225.57"/>
<polygon fill="midnightblue" stroke="midnightblue" points="48.7803,-656.474 51.6036,-666.686 55.7646,-656.942 48.7803,-656.474"/>
</g>
<!-- Node27 -->
<g id="node27" class="node"><title>Node27</title>
<g id="a_node27"><a xlink:href="$d7/d70/structmarian_1_1ColsNodeOp.html#ab5711eb131212a41924e7da36d2e396c" xlink:title="marian::ColsNodeOp\l::backwardOps">
<polygon fill="white" stroke="black" points="152,-147.5 152,-177.5 260,-177.5 260,-147.5 152,-147.5"/>
<text text-anchor="start" x="160" y="-165.5" font-family="Helvetica,sans-Serif" font-size="10.00">marian::ColsNodeOp</text>
<text text-anchor="middle" x="206" y="-154.5" font-family="Helvetica,sans-Serif" font-size="10.00">::backwardOps</text>
</a>
</g>
</g>
<!-- Node1&#45;&gt;Node27 -->
<g id="edge26" class="edge"><title>Node1&#45;&gt;Node27</title>
<path fill="none" stroke="midnightblue" d="M51.8573,-656.603C55.7864,-574.221 74.602,-260.743 136,-187.5 140.338,-182.325 145.837,-178.221 151.831,-174.967"/>
<polygon fill="midnightblue" stroke="midnightblue" points="48.3499,-656.686 51.3905,-666.835 55.3426,-657.005 48.3499,-656.686"/>
</g>
<!-- Node28 -->
<g id="node28" class="node"><title>Node28</title>
<g id="a_node28"><a xlink:href="$d7/dc5/structmarian_1_1TransposeNodeOp.html#ac924d0a88ccf18ed27ffc6e10a5fd075" xlink:title="marian::TransposeNodeOp\l::backwardOps">
<polygon fill="white" stroke="black" points="139,-98.5 139,-128.5 273,-128.5 273,-98.5 139,-98.5"/>
<text text-anchor="start" x="147" y="-116.5" font-family="Helvetica,sans-Serif" font-size="10.00">marian::TransposeNodeOp</text>
<text text-anchor="middle" x="206" y="-105.5" font-family="Helvetica,sans-Serif" font-size="10.00">::backwardOps</text>
</a>
</g>
</g>
<!-- Node1&#45;&gt;Node28 -->
<g id="edge27" class="edge"><title>Node1&#45;&gt;Node28</title>
<path fill="none" stroke="midnightblue" d="M51.5111,-656.59C54.1388,-569.16 68.7503,-219.991 136,-138.5 139.163,-134.667 142.963,-131.422 147.134,-128.675"/>
<polygon fill="midnightblue" stroke="midnightblue" points="48.0084,-656.642 51.226,-666.736 55.0056,-656.838 48.0084,-656.642"/>
</g>
<!-- Node29 -->
<g id="node29" class="node"><title>Node29</title>
<g id="a_node29"><a xlink:href="$d9/d6c/structmarian_1_1ShiftNodeOp.html#aa23a0bc2d5f513cb6d2f540783a720a3" xlink:title="marian::ShiftNodeOp\l::backwardOps">
<polygon fill="white" stroke="black" points="152,-49.5 152,-79.5 260,-79.5 260,-49.5 152,-49.5"/>
<text text-anchor="start" x="160" y="-67.5" font-family="Helvetica,sans-Serif" font-size="10.00">marian::ShiftNodeOp</text>
<text text-anchor="middle" x="206" y="-56.5" font-family="Helvetica,sans-Serif" font-size="10.00">::backwardOps</text>
</a>
</g>
</g>
<!-- Node1&#45;&gt;Node29 -->
<g id="edge28" class="edge"><title>Node1&#45;&gt;Node29</title>
<path fill="none" stroke="midnightblue" d="M51.2214,-656.568C52.6327,-564.293 62.8818,-179.275 136,-89.5 140.264,-84.2641 145.721,-80.1246 151.692,-76.852"/>
<polygon fill="midnightblue" stroke="midnightblue" points="47.7192,-656.709 51.0845,-666.755 54.7186,-656.803 47.7192,-656.709"/>
</g>
<!-- Node30 -->
<g id="node30" class="node"><title>Node30</title>
<g id="a_node30"><a xlink:href="$df/da9/structmarian_1_1LexicalProbNodeOp.html#a494a1751a4a92064d0b6f88672e67e69" xlink:title="marian::LexicalProbNodeOp\l::backward">
<polygon fill="white" stroke="black" points="136.5,-0.5 136.5,-30.5 275.5,-30.5 275.5,-0.5 136.5,-0.5"/>
<text text-anchor="start" x="144.5" y="-18.5" font-family="Helvetica,sans-Serif" font-size="10.00">marian::LexicalProbNodeOp</text>
<text text-anchor="middle" x="206" y="-7.5" font-family="Helvetica,sans-Serif" font-size="10.00">::backward</text>
</a>
</g>
</g>
<!-- Node1&#45;&gt;Node30 -->
<g id="edge29" class="edge"><title>Node1&#45;&gt;Node30</title>
<path fill="none" stroke="midnightblue" d="M50.9742,-656.77C51.2332,-560.269 56.9358,-138.668 136,-40.5 139.117,-36.63 142.885,-33.359 147.035,-30.5942"/>
<polygon fill="midnightblue" stroke="midnightblue" points="47.4742,-656.88 50.9651,-666.883 54.4742,-656.887 47.4742,-656.88"/>
</g>
<!-- Node3 -->
<g id="node3" class="node"><title>Node3</title>
<g id="a_node3"><a xlink:href="$d8/deb/structmarian_1_1LayerNormalizationOp.html#a4181e34fd584d36ffb6397feb1c2ef51" xlink:title="marian::LayerNormalization\lOp::type">
<polygon fill="white" stroke="black" points="312,-1323.5 312,-1353.5 448,-1353.5 448,-1323.5 312,-1323.5"/>
<text text-anchor="start" x="320" y="-1341.5" font-family="Helvetica,sans-Serif" font-size="10.00">marian::LayerNormalization</text>
<text text-anchor="middle" x="380" y="-1330.5" font-family="Helvetica,sans-Serif" font-size="10.00">Op::type</text>
</a>
</g>
</g>
<!-- Node2&#45;&gt;Node3 -->
<g id="edge2" class="edge"><title>Node2&#45;&gt;Node3</title>
<path fill="none" stroke="midnightblue" d="M271.775,-1338.5C284.905,-1338.5 298.739,-1338.5 311.946,-1338.5"/>
<polygon fill="midnightblue" stroke="midnightblue" points="271.422,-1335 261.422,-1338.5 271.422,-1342 271.422,-1335"/>
</g>
</g>
</svg>
