<?xml version="1.0" encoding="UTF-8" standalone="no"?>
<!DOCTYPE svg PUBLIC "-//W3C//DTD SVG 1.1//EN"
 "http://www.w3.org/Graphics/SVG/1.1/DTD/svg11.dtd">
<!-- Generated by graphviz version 2.38.0 (20140413.2041)
 -->
<!-- Title: marian::Node::free Pages: 1 -->
<svg width="252pt" height="78pt"
 viewBox="0.00 0.00 252.00 77.50" xmlns="http://www.w3.org/2000/svg" xmlns:xlink="http://www.w3.org/1999/xlink">
<g id="graph0" class="graph" transform="scale(1 1) rotate(0) translate(4 73.5)">
<title>marian::Node::free</title>
<polygon fill="white" stroke="none" points="-4,4 -4,-73.5 248,-73.5 248,4 -4,4"/>
<!-- Node1 -->
<g id="node1" class="node"><title>Node1</title>
<polygon fill="#bfbfbf" stroke="black" points="0,-28 0,-47 98,-47 98,-28 0,-28"/>
<text text-anchor="middle" x="49" y="-35" font-family="Helvetica,sans-Serif" font-size="10.00">marian::Node::free</text>
</g>
<!-- Node2 -->
<g id="node2" class="node"><title>Node2</title>
<g id="a_node2"><a xlink:href="$d0/d7a/classmarian_1_1Node.html#a67ea4aa875ae1fe2143ac9e4dae75c73" xlink:title="marian::Node::~Node">
<polygon fill="white" stroke="black" points="134,-50 134,-69 244,-69 244,-50 134,-50"/>
<text text-anchor="middle" x="189" y="-57" font-family="Helvetica,sans-Serif" font-size="10.00">marian::Node::~Node</text>
</a>
</g>
</g>
<!-- Node1&#45;&gt;Node2 -->
<g id="edge1" class="edge"><title>Node1&#45;&gt;Node2</title>
<path fill="none" stroke="midnightblue" d="M108.419,-46.8131C116.859,-48.1587 125.516,-49.5387 133.867,-50.8701"/>
<polygon fill="midnightblue" stroke="midnightblue" points="108.692,-43.3126 98.2657,-45.1945 107.59,-50.2253 108.692,-43.3126"/>
</g>
<!-- Node3 -->
<g id="node3" class="node"><title>Node3</title>
<g id="a_node3"><a xlink:href="$d0/d7a/classmarian_1_1Node.html#a9cc23aff9a5e62bc7f8990e2ad580f43" xlink:title="marian::Node::debug\l_message">
<polygon fill="white" stroke="black" points="135.5,-0.5 135.5,-30.5 242.5,-30.5 242.5,-0.5 135.5,-0.5"/>
<text text-anchor="start" x="143.5" y="-18.5" font-family="Helvetica,sans-Serif" font-size="10.00">marian::Node::debug</text>
<text text-anchor="middle" x="189" y="-7.5" font-family="Helvetica,sans-Serif" font-size="10.00">_message</text>
</a>
</g>
</g>
<!-- Node1&#45;&gt;Node3 -->
<g id="edge2" class="edge"><title>Node1&#45;&gt;Node3</title>
<path fill="none" stroke="midnightblue" d="M108.257,-28.2127C117.23,-26.7823 126.45,-25.3122 135.293,-23.9026"/>
<polygon fill="midnightblue" stroke="midnightblue" points="107.59,-24.7747 98.2657,-29.8055 108.692,-31.6874 107.59,-24.7747"/>
</g>
</g>
</svg>
