<?xml version="1.0" encoding="UTF-8" standalone="no"?>
<!DOCTYPE svg PUBLIC "-//W3C//DTD SVG 1.1//EN"
 "http://www.w3.org/Graphics/SVG/1.1/DTD/svg11.dtd">
<!-- Generated by graphviz version 2.38.0 (20140413.2041)
 -->
<!-- Title: marian::Node::debug_message Pages: 1 -->
<svg width="266pt" height="66pt"
 viewBox="0.00 0.00 266.00 66.00" xmlns="http://www.w3.org/2000/svg" xmlns:xlink="http://www.w3.org/1999/xlink">
<g id="graph0" class="graph" transform="scale(1 1) rotate(0) translate(4 62)">
<title>marian::Node::debug_message</title>
<polygon fill="white" stroke="none" points="-4,4 -4,-62 262,-62 262,4 -4,4"/>
<!-- Node1 -->
<g id="node1" class="node"><title>Node1</title>
<polygon fill="#bfbfbf" stroke="black" points="0,-14 0,-44 107,-44 107,-14 0,-14"/>
<text text-anchor="start" x="8" y="-32" font-family="Helvetica,sans-Serif" font-size="10.00">marian::Node::debug</text>
<text text-anchor="middle" x="53.5" y="-21" font-family="Helvetica,sans-Serif" font-size="10.00">_message</text>
</g>
<!-- Node2 -->
<g id="node2" class="node"><title>Node2</title>
<g id="a_node2"><a xlink:href="$d0/d7a/classmarian_1_1Node.html#a66c54550ad60cc510329435eb21f8589" xlink:title="marian::Node::allocate">
<polygon fill="white" stroke="black" points="143,-38.5 143,-57.5 258,-57.5 258,-38.5 143,-38.5"/>
<text text-anchor="middle" x="200.5" y="-45.5" font-family="Helvetica,sans-Serif" font-size="10.00">marian::Node::allocate</text>
</a>
</g>
</g>
<!-- Node1&#45;&gt;Node2 -->
<g id="edge1" class="edge"><title>Node1&#45;&gt;Node2</title>
<path fill="none" stroke="midnightblue" d="M107.259,-35.9132C115.523,-36.9961 124.158,-38.1276 132.687,-39.2452"/>
<polygon fill="midnightblue" stroke="midnightblue" points="132.253,-42.7182 142.623,-40.5471 133.162,-35.7775 132.253,-42.7182"/>
</g>
<!-- Node3 -->
<g id="node3" class="node"><title>Node3</title>
<g id="a_node3"><a xlink:href="$d0/d7a/classmarian_1_1Node.html#ab8ceeb421fca5b912330d6b7ac2cb14b" xlink:title="marian::Node::free">
<polygon fill="white" stroke="black" points="151.5,-0.5 151.5,-19.5 249.5,-19.5 249.5,-0.5 151.5,-0.5"/>
<text text-anchor="middle" x="200.5" y="-7.5" font-family="Helvetica,sans-Serif" font-size="10.00">marian::Node::free</text>
</a>
</g>
</g>
<!-- Node1&#45;&gt;Node3 -->
<g id="edge2" class="edge"><title>Node1&#45;&gt;Node3</title>
<path fill="none" stroke="midnightblue" d="M107.259,-22.0868C118.294,-20.6408 129.99,-19.1082 141.213,-17.6376"/>
<polygon fill="midnightblue" stroke="midnightblue" points="141.894,-21.0784 151.354,-16.3088 140.984,-14.1378 141.894,-21.0784"/>
</g>
</g>
</svg>
