<?xml version="1.0" encoding="UTF-8" standalone="no"?>
<!DOCTYPE svg PUBLIC "-//W3C//DTD SVG 1.1//EN"
 "http://www.w3.org/Graphics/SVG/1.1/DTD/svg11.dtd">
<!-- Generated by graphviz version 2.38.0 (20140413.2041)
 -->
<!-- Title: marian::Parameters Pages: 1 -->
<svg width="238pt" height="336pt"
 viewBox="0.00 0.00 237.50 336.00" xmlns="http://www.w3.org/2000/svg" xmlns:xlink="http://www.w3.org/1999/xlink">
<g id="graph0" class="graph" transform="scale(1 1) rotate(0) translate(4 332)">
<title>marian::Parameters</title>
<polygon fill="white" stroke="none" points="-4,4 -4,-332 233.5,-332 233.5,4 -4,4"/>
<!-- Node1 -->
<g id="node1" class="node"><title>Node1</title>
<polygon fill="#bfbfbf" stroke="black" points="62.5,-0.5 62.5,-211.5 171.5,-211.5 171.5,-0.5 62.5,-0.5"/>
<text text-anchor="middle" x="117" y="-199.5" font-family="Helvetica,sans-Serif" font-size="10.00">marian::Parameters</text>
<polyline fill="none" stroke="black" points="62.5,-192.5 171.5,-192.5 "/>
<text text-anchor="start" x="70.5" y="-180.5" font-family="Helvetica,sans-Serif" font-size="10.00">&#45; vals_</text>
<text text-anchor="start" x="70.5" y="-169.5" font-family="Helvetica,sans-Serif" font-size="10.00">&#45; grads_</text>
<polyline fill="none" stroke="black" points="62.5,-162.5 171.5,-162.5 "/>
<text text-anchor="start" x="70.5" y="-150.5" font-family="Helvetica,sans-Serif" font-size="10.00">+ init()</text>
<text text-anchor="start" x="70.5" y="-139.5" font-family="Helvetica,sans-Serif" font-size="10.00">+ begin()</text>
<text text-anchor="start" x="70.5" y="-128.5" font-family="Helvetica,sans-Serif" font-size="10.00">+ end()</text>
<text text-anchor="start" x="70.5" y="-117.5" font-family="Helvetica,sans-Serif" font-size="10.00">+ getMap()</text>
<text text-anchor="start" x="70.5" y="-106.5" font-family="Helvetica,sans-Serif" font-size="10.00">+ get()</text>
<text text-anchor="start" x="70.5" y="-95.5" font-family="Helvetica,sans-Serif" font-size="10.00">+ size()</text>
<text text-anchor="start" x="70.5" y="-84.5" font-family="Helvetica,sans-Serif" font-size="10.00">+ totalCapacity()</text>
<text text-anchor="start" x="70.5" y="-73.5" font-family="Helvetica,sans-Serif" font-size="10.00">+ add()</text>
<text text-anchor="start" x="70.5" y="-62.5" font-family="Helvetica,sans-Serif" font-size="10.00">+ allocateForward()</text>
<text text-anchor="start" x="70.5" y="-51.5" font-family="Helvetica,sans-Serif" font-size="10.00">+ allocateBackward()</text>
<text text-anchor="start" x="70.5" y="-40.5" font-family="Helvetica,sans-Serif" font-size="10.00">+ set_zero_adjoint()</text>
<text text-anchor="start" x="70.5" y="-29.5" font-family="Helvetica,sans-Serif" font-size="10.00">+ vals()</text>
<text text-anchor="start" x="70.5" y="-18.5" font-family="Helvetica,sans-Serif" font-size="10.00">+ grads()</text>
<text text-anchor="start" x="70.5" y="-7.5" font-family="Helvetica,sans-Serif" font-size="10.00">+ clear()</text>
</g>
<!-- Node2 -->
<g id="node2" class="node"><title>Node2</title>
<polygon fill="white" stroke="#bfbfbf" points="0,-259.5 0,-327.5 110,-327.5 110,-259.5 0,-259.5"/>
<text text-anchor="start" x="8" y="-315.5" font-family="Helvetica,sans-Serif" font-size="10.00">std::map&lt; std::string,</text>
<text text-anchor="middle" x="55" y="-304.5" font-family="Helvetica,sans-Serif" font-size="10.00"> Expr &gt;</text>
<polyline fill="none" stroke="#bfbfbf" points="0,-297.5 110,-297.5 "/>
<text text-anchor="middle" x="55" y="-285.5" font-family="Helvetica,sans-Serif" font-size="10.00"> </text>
<polyline fill="none" stroke="#bfbfbf" points="0,-278.5 110,-278.5 "/>
<text text-anchor="middle" x="55" y="-266.5" font-family="Helvetica,sans-Serif" font-size="10.00"> </text>
</g>
<!-- Node2&#45;&gt;Node1 -->
<g id="edge1" class="edge"><title>Node2&#45;&gt;Node1</title>
<path fill="none" stroke="#404040" d="M66.0844,-259.336C69.6134,-248.778 73.7397,-236.432 78.0885,-223.421"/>
<polygon fill="none" stroke="#404040" points="78.1541,-223.224 76.2624,-216.266 81.9581,-211.843 83.8498,-218.802 78.1541,-223.224"/>
<text text-anchor="middle" x="96.5" y="-233" font-family="Helvetica,sans-Serif" font-size="10.00"> &#45;named_</text>
</g>
<!-- Node3 -->
<g id="node3" class="node"><title>Node3</title>
<polygon fill="white" stroke="#bfbfbf" points="128.5,-265 128.5,-322 229.5,-322 229.5,-265 128.5,-265"/>
<text text-anchor="middle" x="179" y="-310" font-family="Helvetica,sans-Serif" font-size="10.00">std::vector&lt; Expr &gt;</text>
<polyline fill="none" stroke="#bfbfbf" points="128.5,-303 229.5,-303 "/>
<text text-anchor="middle" x="179" y="-291" font-family="Helvetica,sans-Serif" font-size="10.00"> </text>
<polyline fill="none" stroke="#bfbfbf" points="128.5,-284 229.5,-284 "/>
<text text-anchor="middle" x="179" y="-272" font-family="Helvetica,sans-Serif" font-size="10.00"> </text>
</g>
<!-- Node3&#45;&gt;Node1 -->
<g id="edge2" class="edge"><title>Node3&#45;&gt;Node1</title>
<path fill="none" stroke="#404040" d="M169.718,-264.729C165.842,-253.131 161.055,-238.809 155.96,-223.566"/>
<polygon fill="none" stroke="#404040" points="155.818,-223.142 150.123,-218.719 152.014,-211.761 157.71,-216.183 155.818,-223.142"/>
<text text-anchor="middle" x="183" y="-233" font-family="Helvetica,sans-Serif" font-size="10.00"> &#45;params_</text>
</g>
</g>
</svg>
