<?xml version="1.0" encoding="UTF-8" standalone="no"?>
<!DOCTYPE svg PUBLIC "-//W3C//DTD SVG 1.1//EN"
 "http://www.w3.org/Graphics/SVG/1.1/DTD/svg11.dtd">
<!-- Generated by graphviz version 2.38.0 (20140413.2041)
 -->
<!-- Title: marian::rnn::GRU Pages: 1 -->
<svg width="132pt" height="656pt"
 viewBox="0.00 0.00 132.00 656.00" xmlns="http://www.w3.org/2000/svg" xmlns:xlink="http://www.w3.org/1999/xlink">
<g id="graph0" class="graph" transform="scale(1 1) rotate(0) translate(4 652)">
<title>marian::rnn::GRU</title>
<polygon fill="white" stroke="none" points="-4,4 -4,-652 128,-652 128,4 -4,4"/>
<!-- Node1 -->
<g id="node1" class="node"><title>Node1</title>
<polygon fill="#bfbfbf" stroke="black" points="15,-0.5 15,-211.5 109,-211.5 109,-0.5 15,-0.5"/>
<text text-anchor="middle" x="62" y="-199.5" font-family="Helvetica,sans-Serif" font-size="10.00">marian::rnn::GRU</text>
<polyline fill="none" stroke="black" points="15,-192.5 109,-192.5 "/>
<text text-anchor="start" x="23" y="-180.5" font-family="Helvetica,sans-Serif" font-size="10.00"># prefix_</text>
<text text-anchor="start" x="23" y="-169.5" font-family="Helvetica,sans-Serif" font-size="10.00"># U_</text>
<text text-anchor="start" x="23" y="-158.5" font-family="Helvetica,sans-Serif" font-size="10.00"># W_</text>
<text text-anchor="start" x="23" y="-147.5" font-family="Helvetica,sans-Serif" font-size="10.00"># b_</text>
<text text-anchor="start" x="23" y="-136.5" font-family="Helvetica,sans-Serif" font-size="10.00"># gamma1_</text>
<text text-anchor="start" x="23" y="-125.5" font-family="Helvetica,sans-Serif" font-size="10.00"># gamma2_</text>
<text text-anchor="start" x="23" y="-114.5" font-family="Helvetica,sans-Serif" font-size="10.00"># final_</text>
<text text-anchor="start" x="23" y="-103.5" font-family="Helvetica,sans-Serif" font-size="10.00"># layerNorm_</text>
<text text-anchor="start" x="23" y="-92.5" font-family="Helvetica,sans-Serif" font-size="10.00"># dropout_</text>
<text text-anchor="start" x="23" y="-81.5" font-family="Helvetica,sans-Serif" font-size="10.00"># dropMaskX_</text>
<text text-anchor="start" x="23" y="-70.5" font-family="Helvetica,sans-Serif" font-size="10.00"># dropMaskS_</text>
<text text-anchor="start" x="23" y="-59.5" font-family="Helvetica,sans-Serif" font-size="10.00"># fakeInput_</text>
<polyline fill="none" stroke="black" points="15,-52.5 109,-52.5 "/>
<text text-anchor="start" x="23" y="-40.5" font-family="Helvetica,sans-Serif" font-size="10.00">+ GRU()</text>
<text text-anchor="start" x="23" y="-29.5" font-family="Helvetica,sans-Serif" font-size="10.00">+ apply()</text>
<text text-anchor="start" x="23" y="-18.5" font-family="Helvetica,sans-Serif" font-size="10.00">+ applyInput()</text>
<text text-anchor="start" x="23" y="-7.5" font-family="Helvetica,sans-Serif" font-size="10.00">+ applyState()</text>
</g>
<!-- Node2 -->
<g id="node2" class="node"><title>Node2</title>
<g id="a_node2"><a xlink:href="$d5/de5/classmarian_1_1rnn_1_1Cell.html" xlink:title="{marian::rnn::Cell\n|# lazyInputs_\l|+ Cell()\l+ apply()\l+ getLazyInputs()\l+ setLazyInputs()\l+ applyInput()\l+ applyState()\l+ clear()\l}">
<polygon fill="white" stroke="black" points="15.5,-248.5 15.5,-371.5 108.5,-371.5 108.5,-248.5 15.5,-248.5"/>
<text text-anchor="middle" x="62" y="-359.5" font-family="Helvetica,sans-Serif" font-size="10.00">marian::rnn::Cell</text>
<polyline fill="none" stroke="black" points="15.5,-352.5 108.5,-352.5 "/>
<text text-anchor="start" x="23.5" y="-340.5" font-family="Helvetica,sans-Serif" font-size="10.00"># lazyInputs_</text>
<polyline fill="none" stroke="black" points="15.5,-333.5 108.5,-333.5 "/>
<text text-anchor="start" x="23.5" y="-321.5" font-family="Helvetica,sans-Serif" font-size="10.00">+ Cell()</text>
<text text-anchor="start" x="23.5" y="-310.5" font-family="Helvetica,sans-Serif" font-size="10.00">+ apply()</text>
<text text-anchor="start" x="23.5" y="-299.5" font-family="Helvetica,sans-Serif" font-size="10.00">+ getLazyInputs()</text>
<text text-anchor="start" x="23.5" y="-288.5" font-family="Helvetica,sans-Serif" font-size="10.00">+ setLazyInputs()</text>
<text text-anchor="start" x="23.5" y="-277.5" font-family="Helvetica,sans-Serif" font-size="10.00">+ applyInput()</text>
<text text-anchor="start" x="23.5" y="-266.5" font-family="Helvetica,sans-Serif" font-size="10.00">+ applyState()</text>
<text text-anchor="start" x="23.5" y="-255.5" font-family="Helvetica,sans-Serif" font-size="10.00">+ clear()</text>
</a>
</g>
</g>
<!-- Node2&#45;&gt;Node1 -->
<g id="edge1" class="edge"><title>Node2&#45;&gt;Node1</title>
<path fill="none" stroke="midnightblue" d="M62,-238.12C62,-229.553 62,-220.668 62,-211.744"/>
<polygon fill="none" stroke="midnightblue" points="58.5001,-238.393 62,-248.393 65.5001,-238.393 58.5001,-238.393"/>
</g>
<!-- Node3 -->
<g id="node3" class="node"><title>Node3</title>
<g id="a_node3"><a xlink:href="$d4/d04/classmarian_1_1rnn_1_1Stackable.html" xlink:title="{marian::rnn::Stackable\n|# options_\l|+ Stackable()\l+ ~Stackable()\l+ as()\l+ is()\l+ getOptions()\l+ opt()\l+ opt()\l+ clear()\l}">
<polygon fill="white" stroke="black" points="4.5,-408.5 4.5,-542.5 119.5,-542.5 119.5,-408.5 4.5,-408.5"/>
<text text-anchor="middle" x="62" y="-530.5" font-family="Helvetica,sans-Serif" font-size="10.00">marian::rnn::Stackable</text>
<polyline fill="none" stroke="black" points="4.5,-523.5 119.5,-523.5 "/>
<text text-anchor="start" x="12.5" y="-511.5" font-family="Helvetica,sans-Serif" font-size="10.00"># options_</text>
<polyline fill="none" stroke="black" points="4.5,-504.5 119.5,-504.5 "/>
<text text-anchor="start" x="12.5" y="-492.5" font-family="Helvetica,sans-Serif" font-size="10.00">+ Stackable()</text>
<text text-anchor="start" x="12.5" y="-481.5" font-family="Helvetica,sans-Serif" font-size="10.00">+ ~Stackable()</text>
<text text-anchor="start" x="12.5" y="-470.5" font-family="Helvetica,sans-Serif" font-size="10.00">+ as()</text>
<text text-anchor="start" x="12.5" y="-459.5" font-family="Helvetica,sans-Serif" font-size="10.00">+ is()</text>
<text text-anchor="start" x="12.5" y="-448.5" font-family="Helvetica,sans-Serif" font-size="10.00">+ getOptions()</text>
<text text-anchor="start" x="12.5" y="-437.5" font-family="Helvetica,sans-Serif" font-size="10.00">+ opt()</text>
<text text-anchor="start" x="12.5" y="-426.5" font-family="Helvetica,sans-Serif" font-size="10.00">+ opt()</text>
<text text-anchor="start" x="12.5" y="-415.5" font-family="Helvetica,sans-Serif" font-size="10.00">+ clear()</text>
</a>
</g>
</g>
<!-- Node3&#45;&gt;Node2 -->
<g id="edge2" class="edge"><title>Node3&#45;&gt;Node2</title>
<path fill="none" stroke="midnightblue" d="M62,-398.425C62,-389.473 62,-380.43 62,-371.728"/>
<polygon fill="none" stroke="midnightblue" points="58.5001,-398.47 62,-408.47 65.5001,-398.47 58.5001,-398.47"/>
</g>
<!-- Node4 -->
<g id="node4" class="node"><title>Node4</title>
<polygon fill="white" stroke="#bfbfbf" points="-7.10543e-15,-579.5 -7.10543e-15,-647.5 124,-647.5 124,-579.5 -7.10543e-15,-579.5"/>
<text text-anchor="start" x="8" y="-635.5" font-family="Helvetica,sans-Serif" font-size="10.00">std::enable_shared</text>
<text text-anchor="middle" x="62" y="-624.5" font-family="Helvetica,sans-Serif" font-size="10.00">_from_this&lt; Stackable &gt;</text>
<polyline fill="none" stroke="#bfbfbf" points="-7.10543e-15,-617.5 124,-617.5 "/>
<text text-anchor="middle" x="62" y="-605.5" font-family="Helvetica,sans-Serif" font-size="10.00"> </text>
<polyline fill="none" stroke="#bfbfbf" points="-7.10543e-15,-598.5 124,-598.5 "/>
<text text-anchor="middle" x="62" y="-586.5" font-family="Helvetica,sans-Serif" font-size="10.00"> </text>
</g>
<!-- Node4&#45;&gt;Node3 -->
<g id="edge3" class="edge"><title>Node4&#45;&gt;Node3</title>
<path fill="none" stroke="midnightblue" d="M62,-568.956C62,-560.567 62,-551.604 62,-542.683"/>
<polygon fill="none" stroke="midnightblue" points="58.5001,-569.231 62,-579.231 65.5001,-569.231 58.5001,-569.231"/>
</g>
</g>
</svg>
