<?xml version="1.0" encoding="UTF-8" standalone="no"?>
<!DOCTYPE svg PUBLIC "-//W3C//DTD SVG 1.1//EN"
 "http://www.w3.org/Graphics/SVG/1.1/DTD/svg11.dtd">
<!-- Generated by graphviz version 2.38.0 (20140413.2041)
 -->
<!-- Title: marian::ScalarProductNodeOp::newShape Pages: 1 -->
<svg width="479pt" height="85pt"
 viewBox="0.00 0.00 479.00 85.00" xmlns="http://www.w3.org/2000/svg" xmlns:xlink="http://www.w3.org/1999/xlink">
<g id="graph0" class="graph" transform="scale(1 1) rotate(0) translate(4 81)">
<title>marian::ScalarProductNodeOp::newShape</title>
<polygon fill="white" stroke="none" points="-4,4 -4,-81 475,-81 475,4 -4,4"/>
<!-- Node1 -->
<g id="node1" class="node"><title>Node1</title>
<polygon fill="#bfbfbf" stroke="black" points="0,-33 0,-63 137,-63 137,-33 0,-33"/>
<text text-anchor="start" x="8" y="-51" font-family="Helvetica,sans-Serif" font-size="10.00">marian::ScalarProductNode</text>
<text text-anchor="middle" x="68.5" y="-40" font-family="Helvetica,sans-Serif" font-size="10.00">Op::newShape</text>
</g>
<!-- Node2 -->
<g id="node2" class="node"><title>Node2</title>
<g id="a_node2"><a xlink:href="$d4/d04/namespacemarian_1_1keywords.html#a74d7a2502faafdd421ef3dff629e284f" xlink:title="marian::keywords::Get">
<polygon fill="white" stroke="black" points="173,-57.5 173,-76.5 289,-76.5 289,-57.5 173,-57.5"/>
<text text-anchor="middle" x="231" y="-64.5" font-family="Helvetica,sans-Serif" font-size="10.00">marian::keywords::Get</text>
</a>
</g>
</g>
<!-- Node1&#45;&gt;Node2 -->
<g id="edge1" class="edge"><title>Node1&#45;&gt;Node2</title>
<path fill="none" stroke="midnightblue" d="M137.101,-56.0026C145.567,-57.0049 154.226,-58.0299 162.688,-59.0316"/>
<polygon fill="midnightblue" stroke="midnightblue" points="162.543,-62.5388 172.885,-60.2387 163.366,-55.5873 162.543,-62.5388"/>
</g>
<!-- Node3 -->
<g id="node3" class="node"><title>Node3</title>
<g id="a_node3"><a xlink:href="$d5/d54/structmarian_1_1Shape.html#a2849bb218aa2214bbab47256a9452caf" xlink:title="marian::Shape::set">
<polygon fill="white" stroke="black" points="181.5,-19.5 181.5,-38.5 280.5,-38.5 280.5,-19.5 181.5,-19.5"/>
<text text-anchor="middle" x="231" y="-26.5" font-family="Helvetica,sans-Serif" font-size="10.00">marian::Shape::set</text>
</a>
</g>
</g>
<!-- Node1&#45;&gt;Node3 -->
<g id="edge2" class="edge"><title>Node1&#45;&gt;Node3</title>
<path fill="none" stroke="midnightblue" d="M137.101,-39.9974C148.514,-38.6463 160.277,-37.2538 171.436,-35.9328"/>
<polygon fill="midnightblue" stroke="midnightblue" points="171.967,-39.3945 181.486,-34.7431 171.144,-32.4431 171.967,-39.3945"/>
</g>
<!-- Node4 -->
<g id="node4" class="node"><title>Node4</title>
<g id="a_node4"><a xlink:href="$d5/d54/structmarian_1_1Shape.html#af416da295388777386ae8b834115066f" xlink:title="Gets a reference to the int representing the size of the ith dimension represented by this object...">
<polygon fill="white" stroke="black" points="347.5,-38.5 347.5,-57.5 448.5,-57.5 448.5,-38.5 347.5,-38.5"/>
<text text-anchor="middle" x="398" y="-45.5" font-family="Helvetica,sans-Serif" font-size="10.00">marian::Shape::dim</text>
</a>
</g>
</g>
<!-- Node3&#45;&gt;Node4 -->
<g id="edge3" class="edge"><title>Node3&#45;&gt;Node4</title>
<path fill="none" stroke="midnightblue" d="M280.613,-34.5979C298.339,-36.639 318.591,-38.9711 337.178,-41.1114"/>
<polygon fill="midnightblue" stroke="midnightblue" points="336.971,-44.6106 347.306,-42.2776 337.772,-37.6566 336.971,-44.6106"/>
</g>
<!-- Node5 -->
<g id="node5" class="node"><title>Node5</title>
<g id="a_node5"><a xlink:href="$d5/d54/structmarian_1_1Shape.html#a9cf031011a4b53538dda070a77ad19f9" xlink:title="marian::Shape::updateStrides">
<polygon fill="white" stroke="black" points="325,-0.5 325,-19.5 471,-19.5 471,-0.5 325,-0.5"/>
<text text-anchor="middle" x="398" y="-7.5" font-family="Helvetica,sans-Serif" font-size="10.00">marian::Shape::updateStrides</text>
</a>
</g>
</g>
<!-- Node3&#45;&gt;Node5 -->
<g id="edge4" class="edge"><title>Node3&#45;&gt;Node5</title>
<path fill="none" stroke="midnightblue" d="M280.613,-23.4021C291.347,-22.1661 303.008,-20.8233 314.665,-19.481"/>
<polygon fill="midnightblue" stroke="midnightblue" points="315.35,-22.9254 324.884,-18.3043 314.549,-15.9713 315.35,-22.9254"/>
</g>
</g>
</svg>
