<?xml version="1.0" encoding="UTF-8" standalone="no"?>
<!DOCTYPE svg PUBLIC "-//W3C//DTD SVG 1.1//EN"
 "http://www.w3.org/Graphics/SVG/1.1/DTD/svg11.dtd">
<!-- Generated by graphviz version 2.38.0 (20140413.2041)
 -->
<!-- Title: marian::ScalarProductNodeOp::forwardOps Pages: 1 -->
<svg width="451pt" height="104pt"
 viewBox="0.00 0.00 451.00 104.00" xmlns="http://www.w3.org/2000/svg" xmlns:xlink="http://www.w3.org/1999/xlink">
<g id="graph0" class="graph" transform="scale(1 1) rotate(0) translate(4 100)">
<title>marian::ScalarProductNodeOp::forwardOps</title>
<polygon fill="white" stroke="none" points="-4,4 -4,-100 447,-100 447,4 -4,4"/>
<!-- Node1 -->
<g id="node1" class="node"><title>Node1</title>
<polygon fill="#bfbfbf" stroke="black" points="0,-33 0,-63 137,-63 137,-33 0,-33"/>
<text text-anchor="start" x="8" y="-51" font-family="Helvetica,sans-Serif" font-size="10.00">marian::ScalarProductNode</text>
<text text-anchor="middle" x="68.5" y="-40" font-family="Helvetica,sans-Serif" font-size="10.00">Op::forwardOps</text>
</g>
<!-- Node2 -->
<g id="node2" class="node"><title>Node2</title>
<g id="a_node2"><a xlink:href="$da/d22/namespacemarian.html#ad1f1697aac9247a78d2242921d538402" xlink:title="marian::Reduce">
<polygon fill="white" stroke="black" points="180.5,-76.5 180.5,-95.5 266.5,-95.5 266.5,-76.5 180.5,-76.5"/>
<text text-anchor="middle" x="223.5" y="-83.5" font-family="Helvetica,sans-Serif" font-size="10.00">marian::Reduce</text>
</a>
</g>
</g>
<!-- Node1&#45;&gt;Node2 -->
<g id="edge1" class="edge"><title>Node1&#45;&gt;Node2</title>
<path fill="none" stroke="midnightblue" d="M129.97,-63.0186C144.622,-66.6578 160.096,-70.501 174.109,-73.9813"/>
<polygon fill="midnightblue" stroke="midnightblue" points="173.472,-77.4295 184.021,-76.4432 175.16,-70.6359 173.472,-77.4295"/>
</g>
<!-- Node4 -->
<g id="node4" class="node"><title>Node4</title>
<g id="a_node4"><a xlink:href="$d0/d7a/classmarian_1_1Node.html#a71a9c8ad6ba12d421fa97222d74a90b9" xlink:title="marian::Node::child">
<polygon fill="white" stroke="black" points="173,-38.5 173,-57.5 274,-57.5 274,-38.5 173,-38.5"/>
<text text-anchor="middle" x="223.5" y="-45.5" font-family="Helvetica,sans-Serif" font-size="10.00">marian::Node::child</text>
</a>
</g>
</g>
<!-- Node1&#45;&gt;Node4 -->
<g id="edge3" class="edge"><title>Node1&#45;&gt;Node4</title>
<path fill="none" stroke="midnightblue" d="M137.053,-48C145.59,-48 154.278,-48 162.683,-48"/>
<polygon fill="midnightblue" stroke="midnightblue" points="162.766,-51.5001 172.766,-48 162.766,-44.5001 162.766,-51.5001"/>
</g>
<!-- Node6 -->
<g id="node6" class="node"><title>Node6</title>
<g id="a_node6"><a xlink:href="$d0/d7a/classmarian_1_1Node.html#a0df86f2ff4a169111d6ba0865e6fd935" xlink:title="marian::Node::val">
<polygon fill="white" stroke="black" points="176.5,-0.5 176.5,-19.5 270.5,-19.5 270.5,-0.5 176.5,-0.5"/>
<text text-anchor="middle" x="223.5" y="-7.5" font-family="Helvetica,sans-Serif" font-size="10.00">marian::Node::val</text>
</a>
</g>
</g>
<!-- Node1&#45;&gt;Node6 -->
<g id="edge5" class="edge"><title>Node1&#45;&gt;Node6</title>
<path fill="none" stroke="midnightblue" d="M129.97,-32.9814C144.622,-29.3422 160.096,-25.499 174.109,-22.0187"/>
<polygon fill="midnightblue" stroke="midnightblue" points="175.16,-25.3641 184.021,-19.5568 173.472,-18.5705 175.16,-25.3641"/>
</g>
<!-- Node3 -->
<g id="node3" class="node"><title>Node3</title>
<g id="a_node3"><a xlink:href="$da/d22/namespacemarian.html#a0ee0e667d3fcfdc776e4dddaffeea6e2" xlink:title="marian::Add">
<polygon fill="white" stroke="black" points="342,-76.5 342,-95.5 411,-95.5 411,-76.5 342,-76.5"/>
<text text-anchor="middle" x="376.5" y="-83.5" font-family="Helvetica,sans-Serif" font-size="10.00">marian::Add</text>
</a>
</g>
</g>
<!-- Node2&#45;&gt;Node3 -->
<g id="edge2" class="edge"><title>Node2&#45;&gt;Node3</title>
<path fill="none" stroke="midnightblue" d="M266.562,-86C286.867,-86 311.217,-86 331.74,-86"/>
<polygon fill="midnightblue" stroke="midnightblue" points="331.777,-89.5001 341.777,-86 331.777,-82.5001 331.777,-89.5001"/>
</g>
<!-- Node5 -->
<g id="node5" class="node"><title>Node5</title>
<g id="a_node5"><a xlink:href="$d0/d7a/classmarian_1_1Node.html#a4aa5aa482c70595fa5d43c1fbabf5c18" xlink:title="marian::Node::getBackend">
<polygon fill="white" stroke="black" points="310,-38.5 310,-57.5 443,-57.5 443,-38.5 310,-38.5"/>
<text text-anchor="middle" x="376.5" y="-45.5" font-family="Helvetica,sans-Serif" font-size="10.00">marian::Node::getBackend</text>
</a>
</g>
</g>
<!-- Node4&#45;&gt;Node5 -->
<g id="edge4" class="edge"><title>Node4&#45;&gt;Node5</title>
<path fill="none" stroke="midnightblue" d="M274.362,-48C282.512,-48 291.114,-48 299.721,-48"/>
<polygon fill="midnightblue" stroke="midnightblue" points="299.801,-51.5001 309.801,-48 299.801,-44.5001 299.801,-51.5001"/>
</g>
</g>
</svg>
