<?xml version="1.0" encoding="UTF-8" standalone="no"?>
<!DOCTYPE svg PUBLIC "-//W3C//DTD SVG 1.1//EN"
 "http://www.w3.org/Graphics/SVG/1.1/DTD/svg11.dtd">
<!-- Generated by graphviz version 2.38.0 (20140413.2041)
 -->
<!-- Title: marian::TensorCPU::get Pages: 1 -->
<svg width="440pt" height="921pt"
 viewBox="0.00 0.00 440.00 920.50" xmlns="http://www.w3.org/2000/svg" xmlns:xlink="http://www.w3.org/1999/xlink">
<g id="graph0" class="graph" transform="scale(1 1) rotate(0) translate(4 916.5)">
<title>marian::TensorCPU::get</title>
<polygon fill="white" stroke="none" points="-4,4 -4,-916.5 436,-916.5 436,4 -4,4"/>
<!-- Node1 -->
<g id="node1" class="node"><title>Node1</title>
<polygon fill="#bfbfbf" stroke="black" points="0,-570 0,-589 123,-589 123,-570 0,-570"/>
<text text-anchor="middle" x="61.5" y="-577" font-family="Helvetica,sans-Serif" font-size="10.00">marian::TensorCPU::get</text>
</g>
<!-- Node2 -->
<g id="node2" class="node"><title>Node2</title>
<g id="a_node2"><a xlink:href="$dd/d3c/classmarian_1_1TensorBase.html#ae4a6d6a80b85704484a5f21b9c1506d0" xlink:title="marian::TensorBase\l::size">
<polygon fill="white" stroke="black" points="163,-688.5 163,-718.5 267,-718.5 267,-688.5 163,-688.5"/>
<text text-anchor="start" x="171" y="-706.5" font-family="Helvetica,sans-Serif" font-size="10.00">marian::TensorBase</text>
<text text-anchor="middle" x="215" y="-695.5" font-family="Helvetica,sans-Serif" font-size="10.00">::size</text>
</a>
</g>
</g>
<!-- Node1&#45;&gt;Node2 -->
<g id="edge1" class="edge"><title>Node1&#45;&gt;Node2</title>
<path fill="none" stroke="midnightblue" d="M74.388,-589.23C98.5669,-609.02 153.996,-654.388 187.281,-681.631"/>
<polygon fill="midnightblue" stroke="midnightblue" points="185.278,-684.514 195.233,-688.14 189.711,-679.097 185.278,-684.514"/>
</g>
<!-- Node4 -->
<g id="node4" class="node"><title>Node4</title>
<g id="a_node4"><a xlink:href="$d1/d49/namespaceamunmt_1_1GPU_1_1mblas.html#a6531a040aa422fcd149f89b92f6d2585" xlink:title="amunmt::GPU::mblas\l::copy">
<polygon fill="white" stroke="black" points="159,-441.5 159,-471.5 271,-471.5 271,-441.5 159,-441.5"/>
<text text-anchor="start" x="167" y="-459.5" font-family="Helvetica,sans-Serif" font-size="10.00">amunmt::GPU::mblas</text>
<text text-anchor="middle" x="215" y="-448.5" font-family="Helvetica,sans-Serif" font-size="10.00">::copy</text>
</a>
</g>
</g>
<!-- Node1&#45;&gt;Node4 -->
<g id="edge3" class="edge"><title>Node1&#45;&gt;Node4</title>
<path fill="none" stroke="midnightblue" d="M74.388,-569.848C98.5669,-550.218 153.996,-505.216 187.281,-478.193"/>
<polygon fill="midnightblue" stroke="midnightblue" points="189.676,-480.757 195.233,-471.736 185.264,-475.322 189.676,-480.757"/>
</g>
<!-- Node3 -->
<g id="node3" class="node"><title>Node3</title>
<g id="a_node3"><a xlink:href="$d5/d54/structmarian_1_1Shape.html#ac5b429b8024a6de2e2b4c089757f398f" xlink:title="Gets the total number of elements in a tensor of this shape. ">
<polygon fill="white" stroke="black" points="307,-893 307,-912 432,-912 432,-893 307,-893"/>
<text text-anchor="middle" x="369.5" y="-900" font-family="Helvetica,sans-Serif" font-size="10.00">marian::Shape::elements</text>
</a>
</g>
</g>
<!-- Node2&#45;&gt;Node3 -->
<g id="edge2" class="edge"><title>Node2&#45;&gt;Node3</title>
<path fill="none" stroke="midnightblue" d="M219.349,-718.568C227.793,-753.025 253.221,-838.094 307,-883.5 309.017,-885.203 311.186,-886.754 313.461,-888.166"/>
<polygon fill="midnightblue" stroke="midnightblue" points="312.18,-891.444 322.667,-892.951 315.409,-885.233 312.18,-891.444"/>
</g>
<!-- Node5 -->
<g id="node5" class="node"><title>Node5</title>
<g id="a_node5"><a xlink:href="$dc/d89/classamunmt_1_1GPU_1_1mblas_1_1CudaStreamHandler.html#aab9046cda40ac3fed5676d5aa680e6c8" xlink:title="amunmt::GPU::mblas\l::CudaStreamHandler\l::GetStream">
<polygon fill="white" stroke="black" points="313.5,-833 313.5,-874 425.5,-874 425.5,-833 313.5,-833"/>
<text text-anchor="start" x="321.5" y="-862" font-family="Helvetica,sans-Serif" font-size="10.00">amunmt::GPU::mblas</text>
<text text-anchor="start" x="321.5" y="-851" font-family="Helvetica,sans-Serif" font-size="10.00">::CudaStreamHandler</text>
<text text-anchor="middle" x="369.5" y="-840" font-family="Helvetica,sans-Serif" font-size="10.00">::GetStream</text>
</a>
</g>
</g>
<!-- Node4&#45;&gt;Node5 -->
<g id="edge4" class="edge"><title>Node4&#45;&gt;Node5</title>
<path fill="none" stroke="midnightblue" d="M219.778,-471.824C236.927,-541.381 306.634,-824.054 307,-824.5 307.397,-824.985 307.805,-825.463 308.222,-825.933"/>
<polygon fill="midnightblue" stroke="midnightblue" points="306.001,-828.648 315.704,-832.903 310.773,-823.526 306.001,-828.648"/>
</g>
<!-- Node6 -->
<g id="node6" class="node"><title>Node6</title>
<g id="a_node6"><a xlink:href="$d1/d49/namespaceamunmt_1_1GPU_1_1mblas.html#aae3149752683fc6c3d719c495c161cbc" xlink:title="amunmt::GPU::mblas\l::Fill">
<polygon fill="white" stroke="black" points="313.5,-784.5 313.5,-814.5 425.5,-814.5 425.5,-784.5 313.5,-784.5"/>
<text text-anchor="start" x="321.5" y="-802.5" font-family="Helvetica,sans-Serif" font-size="10.00">amunmt::GPU::mblas</text>
<text text-anchor="middle" x="369.5" y="-791.5" font-family="Helvetica,sans-Serif" font-size="10.00">::Fill</text>
</a>
</g>
</g>
<!-- Node4&#45;&gt;Node6 -->
<g id="edge5" class="edge"><title>Node4&#45;&gt;Node6</title>
<path fill="none" stroke="midnightblue" d="M219.532,-471.847C233.562,-532.326 285.633,-752.019 307,-775.5 307.771,-776.348 308.576,-777.166 309.411,-777.955"/>
<polygon fill="midnightblue" stroke="midnightblue" points="307.576,-780.961 317.625,-784.316 311.862,-775.426 307.576,-780.961"/>
</g>
<!-- Node7 -->
<g id="node7" class="node"><title>Node7</title>
<g id="a_node7"><a xlink:href="$d1/d49/namespaceamunmt_1_1GPU_1_1mblas.html#a88b723882ca7b614a20e6e9edb5c214b" xlink:title="amunmt::GPU::mblas\l::Swap">
<polygon fill="white" stroke="black" points="313.5,-735.5 313.5,-765.5 425.5,-765.5 425.5,-735.5 313.5,-735.5"/>
<text text-anchor="start" x="321.5" y="-753.5" font-family="Helvetica,sans-Serif" font-size="10.00">amunmt::GPU::mblas</text>
<text text-anchor="middle" x="369.5" y="-742.5" font-family="Helvetica,sans-Serif" font-size="10.00">::Swap</text>
</a>
</g>
</g>
<!-- Node4&#45;&gt;Node7 -->
<g id="edge6" class="edge"><title>Node4&#45;&gt;Node7</title>
<path fill="none" stroke="midnightblue" d="M216.768,-471.595C219.851,-516.531 234.951,-650.984 307,-726.5 307.912,-727.456 308.867,-728.375 309.859,-729.258"/>
<polygon fill="midnightblue" stroke="midnightblue" points="307.969,-732.213 318.091,-735.344 312.131,-726.585 307.969,-732.213"/>
</g>
<!-- Node8 -->
<g id="node8" class="node"><title>Node8</title>
<g id="a_node8"><a xlink:href="$d1/d49/namespaceamunmt_1_1GPU_1_1mblas.html#ae4b56d534b95189bf183d6008e2d7e45" xlink:title="amunmt::GPU::mblas\l::Mean">
<polygon fill="white" stroke="black" points="313.5,-686.5 313.5,-716.5 425.5,-716.5 425.5,-686.5 313.5,-686.5"/>
<text text-anchor="start" x="321.5" y="-704.5" font-family="Helvetica,sans-Serif" font-size="10.00">amunmt::GPU::mblas</text>
<text text-anchor="middle" x="369.5" y="-693.5" font-family="Helvetica,sans-Serif" font-size="10.00">::Mean</text>
</a>
</g>
</g>
<!-- Node4&#45;&gt;Node8 -->
<g id="edge7" class="edge"><title>Node4&#45;&gt;Node8</title>
<path fill="none" stroke="midnightblue" d="M218.077,-471.646C224.248,-511.008 246.001,-617.622 307,-677.5 308.099,-678.579 309.252,-679.611 310.451,-680.597"/>
<polygon fill="midnightblue" stroke="midnightblue" points="308.715,-683.652 318.927,-686.474 312.703,-677.9 308.715,-683.652"/>
</g>
<!-- Node9 -->
<g id="node9" class="node"><title>Node9</title>
<g id="a_node9"><a xlink:href="$d1/d49/namespaceamunmt_1_1GPU_1_1mblas.html#a90a5cec147d44d6774e5de8e9e0d696e" xlink:title="amunmt::GPU::mblas\l::WeightedMean">
<polygon fill="white" stroke="black" points="313.5,-637.5 313.5,-667.5 425.5,-667.5 425.5,-637.5 313.5,-637.5"/>
<text text-anchor="start" x="321.5" y="-655.5" font-family="Helvetica,sans-Serif" font-size="10.00">amunmt::GPU::mblas</text>
<text text-anchor="middle" x="369.5" y="-644.5" font-family="Helvetica,sans-Serif" font-size="10.00">::WeightedMean</text>
</a>
</g>
</g>
<!-- Node4&#45;&gt;Node9 -->
<g id="edge8" class="edge"><title>Node4&#45;&gt;Node9</title>
<path fill="none" stroke="midnightblue" d="M220.062,-471.63C229.666,-504.644 256.819,-583.762 307,-628.5 308.323,-629.68 309.711,-630.805 311.151,-631.877"/>
<polygon fill="midnightblue" stroke="midnightblue" points="309.569,-635.019 319.879,-637.459 313.34,-629.122 309.569,-635.019"/>
</g>
<!-- Node10 -->
<g id="node10" class="node"><title>Node10</title>
<g id="a_node10"><a xlink:href="$d1/d49/namespaceamunmt_1_1GPU_1_1mblas.html#a5b1f45cb5c05d5a9fbedab3e74553e73" xlink:title="amunmt::GPU::mblas\l::Transpose">
<polygon fill="white" stroke="black" points="313.5,-588.5 313.5,-618.5 425.5,-618.5 425.5,-588.5 313.5,-588.5"/>
<text text-anchor="start" x="321.5" y="-606.5" font-family="Helvetica,sans-Serif" font-size="10.00">amunmt::GPU::mblas</text>
<text text-anchor="middle" x="369.5" y="-595.5" font-family="Helvetica,sans-Serif" font-size="10.00">::Transpose</text>
</a>
</g>
</g>
<!-- Node4&#45;&gt;Node10 -->
<g id="edge9" class="edge"><title>Node4&#45;&gt;Node10</title>
<path fill="none" stroke="midnightblue" d="M223.455,-471.503C236.851,-497.048 267.334,-549.161 307,-579.5 308.812,-580.886 310.714,-582.202 312.682,-583.45"/>
<polygon fill="midnightblue" stroke="midnightblue" points="311.215,-586.64 321.647,-588.494 314.648,-580.54 311.215,-586.64"/>
</g>
<!-- Node11 -->
<g id="node11" class="node"><title>Node11</title>
<g id="a_node11"><a xlink:href="$d1/d49/namespaceamunmt_1_1GPU_1_1mblas.html#a6359878c47a6c3703d7d8b6e9db1d87e" xlink:title="amunmt::GPU::mblas\l::Copy">
<polygon fill="white" stroke="black" points="313.5,-539.5 313.5,-569.5 425.5,-569.5 425.5,-539.5 313.5,-539.5"/>
<text text-anchor="start" x="321.5" y="-557.5" font-family="Helvetica,sans-Serif" font-size="10.00">amunmt::GPU::mblas</text>
<text text-anchor="middle" x="369.5" y="-546.5" font-family="Helvetica,sans-Serif" font-size="10.00">::Copy</text>
</a>
</g>
</g>
<!-- Node4&#45;&gt;Node11 -->
<g id="edge10" class="edge"><title>Node4&#45;&gt;Node11</title>
<path fill="none" stroke="midnightblue" d="M231.63,-471.79C248.912,-488.05 278.143,-513.693 307,-530.5 309.823,-532.144 312.779,-533.719 315.804,-535.221"/>
<polygon fill="midnightblue" stroke="midnightblue" points="314.479,-538.464 325.023,-539.5 317.426,-532.115 314.479,-538.464"/>
</g>
<!-- Node12 -->
<g id="node12" class="node"><title>Node12</title>
<g id="a_node12"><a xlink:href="$d1/d49/namespaceamunmt_1_1GPU_1_1mblas.html#aff338966a337172d52673594c7a31474" xlink:title="amunmt::GPU::mblas\l::PasteRow">
<polygon fill="white" stroke="black" points="313.5,-490.5 313.5,-520.5 425.5,-520.5 425.5,-490.5 313.5,-490.5"/>
<text text-anchor="start" x="321.5" y="-508.5" font-family="Helvetica,sans-Serif" font-size="10.00">amunmt::GPU::mblas</text>
<text text-anchor="middle" x="369.5" y="-497.5" font-family="Helvetica,sans-Serif" font-size="10.00">::PasteRow</text>
</a>
</g>
</g>
<!-- Node4&#45;&gt;Node12 -->
<g id="edge11" class="edge"><title>Node4&#45;&gt;Node12</title>
<path fill="none" stroke="midnightblue" d="M262.999,-471.601C278.436,-476.562 295.759,-482.127 311.835,-487.293"/>
<polygon fill="midnightblue" stroke="midnightblue" points="311.064,-490.721 321.656,-490.448 313.206,-484.057 311.064,-490.721"/>
</g>
<!-- Node13 -->
<g id="node13" class="node"><title>Node13</title>
<g id="a_node13"><a xlink:href="$d1/d49/namespaceamunmt_1_1GPU_1_1mblas.html#aea9adf68efb5a26cb9bca66189c1786c" xlink:title="amunmt::GPU::mblas\l::PasteRows">
<polygon fill="white" stroke="black" points="313.5,-441.5 313.5,-471.5 425.5,-471.5 425.5,-441.5 313.5,-441.5"/>
<text text-anchor="start" x="321.5" y="-459.5" font-family="Helvetica,sans-Serif" font-size="10.00">amunmt::GPU::mblas</text>
<text text-anchor="middle" x="369.5" y="-448.5" font-family="Helvetica,sans-Serif" font-size="10.00">::PasteRows</text>
</a>
</g>
</g>
<!-- Node4&#45;&gt;Node13 -->
<g id="edge12" class="edge"><title>Node4&#45;&gt;Node13</title>
<path fill="none" stroke="midnightblue" d="M271.056,-456.5C281.465,-456.5 292.447,-456.5 303.137,-456.5"/>
<polygon fill="midnightblue" stroke="midnightblue" points="303.269,-460 313.269,-456.5 303.269,-453 303.269,-460"/>
</g>
<!-- Node14 -->
<g id="node14" class="node"><title>Node14</title>
<g id="a_node14"><a xlink:href="$d1/d49/namespaceamunmt_1_1GPU_1_1mblas.html#a4cbcf6af0265debf12e8348d2eea6daa" xlink:title="amunmt::GPU::mblas\l::CopyRow">
<polygon fill="white" stroke="black" points="313.5,-392.5 313.5,-422.5 425.5,-422.5 425.5,-392.5 313.5,-392.5"/>
<text text-anchor="start" x="321.5" y="-410.5" font-family="Helvetica,sans-Serif" font-size="10.00">amunmt::GPU::mblas</text>
<text text-anchor="middle" x="369.5" y="-399.5" font-family="Helvetica,sans-Serif" font-size="10.00">::CopyRow</text>
</a>
</g>
</g>
<!-- Node4&#45;&gt;Node14 -->
<g id="edge13" class="edge"><title>Node4&#45;&gt;Node14</title>
<path fill="none" stroke="midnightblue" d="M262.999,-441.399C278.436,-436.438 295.759,-430.873 311.835,-425.707"/>
<polygon fill="midnightblue" stroke="midnightblue" points="313.206,-428.943 321.656,-422.552 311.064,-422.279 313.206,-428.943"/>
</g>
<!-- Node15 -->
<g id="node15" class="node"><title>Node15</title>
<g id="a_node15"><a xlink:href="$d1/d49/namespaceamunmt_1_1GPU_1_1mblas.html#af345694ea7f81e67d44c906d2a24b4a9" xlink:title="amunmt::GPU::mblas\l::Concat">
<polygon fill="white" stroke="black" points="313.5,-343.5 313.5,-373.5 425.5,-373.5 425.5,-343.5 313.5,-343.5"/>
<text text-anchor="start" x="321.5" y="-361.5" font-family="Helvetica,sans-Serif" font-size="10.00">amunmt::GPU::mblas</text>
<text text-anchor="middle" x="369.5" y="-350.5" font-family="Helvetica,sans-Serif" font-size="10.00">::Concat</text>
</a>
</g>
</g>
<!-- Node4&#45;&gt;Node15 -->
<g id="edge14" class="edge"><title>Node4&#45;&gt;Node15</title>
<path fill="none" stroke="midnightblue" d="M232.033,-441.218C249.425,-425.244 278.534,-400.221 307,-383.5 310.37,-381.521 313.925,-379.627 317.559,-377.832"/>
<polygon fill="midnightblue" stroke="midnightblue" points="319.105,-380.973 326.69,-373.576 316.147,-374.628 319.105,-380.973"/>
</g>
<!-- Node16 -->
<g id="node16" class="node"><title>Node16</title>
<g id="a_node16"><a xlink:href="$d1/d49/namespaceamunmt_1_1GPU_1_1mblas.html#ac4634f9a58b95ccdd997393c75a9fc69" xlink:title="amunmt::GPU::mblas\l::MapMatrix">
<polygon fill="white" stroke="black" points="313.5,-294.5 313.5,-324.5 425.5,-324.5 425.5,-294.5 313.5,-294.5"/>
<text text-anchor="start" x="321.5" y="-312.5" font-family="Helvetica,sans-Serif" font-size="10.00">amunmt::GPU::mblas</text>
<text text-anchor="middle" x="369.5" y="-301.5" font-family="Helvetica,sans-Serif" font-size="10.00">::MapMatrix</text>
</a>
</g>
</g>
<!-- Node4&#45;&gt;Node16 -->
<g id="edge15" class="edge"><title>Node4&#45;&gt;Node16</title>
<path fill="none" stroke="midnightblue" d="M223.748,-441.275C237.369,-415.887 267.904,-364.718 307,-334.5 309.308,-332.716 311.761,-331.04 314.308,-329.469"/>
<polygon fill="midnightblue" stroke="midnightblue" points="316.195,-332.425 323.253,-324.523 312.808,-326.299 316.195,-332.425"/>
</g>
<!-- Node17 -->
<g id="node17" class="node"><title>Node17</title>
<g id="a_node17"><a xlink:href="$d1/d49/namespaceamunmt_1_1GPU_1_1mblas.html#ab9e2664595a60723ce6158c22f2ed527" xlink:title="amunmt::GPU::mblas\l::CopyRows">
<polygon fill="white" stroke="black" points="313.5,-245.5 313.5,-275.5 425.5,-275.5 425.5,-245.5 313.5,-245.5"/>
<text text-anchor="start" x="321.5" y="-263.5" font-family="Helvetica,sans-Serif" font-size="10.00">amunmt::GPU::mblas</text>
<text text-anchor="middle" x="369.5" y="-252.5" font-family="Helvetica,sans-Serif" font-size="10.00">::CopyRows</text>
</a>
</g>
</g>
<!-- Node4&#45;&gt;Node17 -->
<g id="edge16" class="edge"><title>Node4&#45;&gt;Node17</title>
<path fill="none" stroke="midnightblue" d="M220.283,-441.013C230.159,-408.002 257.556,-330.099 307,-285.5 308.738,-283.932 310.588,-282.455 312.521,-281.066"/>
<polygon fill="midnightblue" stroke="midnightblue" points="314.797,-283.771 321.434,-275.514 311.096,-277.83 314.797,-283.771"/>
</g>
<!-- Node18 -->
<g id="node18" class="node"><title>Node18</title>
<g id="a_node18"><a xlink:href="$d1/d49/namespaceamunmt_1_1GPU_1_1mblas.html#a45e67b812840551fae28c4f7cca2b562" xlink:title="amunmt::GPU::mblas\l::Assemble">
<polygon fill="white" stroke="black" points="313.5,-196.5 313.5,-226.5 425.5,-226.5 425.5,-196.5 313.5,-196.5"/>
<text text-anchor="start" x="321.5" y="-214.5" font-family="Helvetica,sans-Serif" font-size="10.00">amunmt::GPU::mblas</text>
<text text-anchor="middle" x="369.5" y="-203.5" font-family="Helvetica,sans-Serif" font-size="10.00">::Assemble</text>
</a>
</g>
</g>
<!-- Node4&#45;&gt;Node18 -->
<g id="edge17" class="edge"><title>Node4&#45;&gt;Node18</title>
<path fill="none" stroke="midnightblue" d="M218.147,-441.47C224.485,-402.401 246.609,-296.523 307,-236.5 308.441,-235.068 309.975,-233.715 311.582,-232.436"/>
<polygon fill="midnightblue" stroke="midnightblue" points="313.819,-235.148 320.14,-226.646 309.896,-229.351 313.819,-235.148"/>
</g>
<!-- Node19 -->
<g id="node19" class="node"><title>Node19</title>
<g id="a_node19"><a xlink:href="$d1/d49/namespaceamunmt_1_1GPU_1_1mblas.html#aacbc57fa7bf5c1fac6abbd44a9832c8d" xlink:title="amunmt::GPU::mblas\l::Slice">
<polygon fill="white" stroke="black" points="313.5,-147.5 313.5,-177.5 425.5,-177.5 425.5,-147.5 313.5,-147.5"/>
<text text-anchor="start" x="321.5" y="-165.5" font-family="Helvetica,sans-Serif" font-size="10.00">amunmt::GPU::mblas</text>
<text text-anchor="middle" x="369.5" y="-154.5" font-family="Helvetica,sans-Serif" font-size="10.00">::Slice</text>
</a>
</g>
</g>
<!-- Node4&#45;&gt;Node19 -->
<g id="edge18" class="edge"><title>Node4&#45;&gt;Node19</title>
<path fill="none" stroke="midnightblue" d="M216.859,-441.187C220.18,-396.231 235.847,-263.047 307,-187.5 308.363,-186.053 309.822,-184.687 311.357,-183.398"/>
<polygon fill="midnightblue" stroke="midnightblue" points="313.441,-186.211 319.582,-177.577 309.397,-180.497 313.441,-186.211"/>
</g>
<!-- Node20 -->
<g id="node20" class="node"><title>Node20</title>
<g id="a_node20"><a xlink:href="$d1/d49/namespaceamunmt_1_1GPU_1_1mblas.html#a463b2de180e8ab66bae53d1f8c5bc011" xlink:title="amunmt::GPU::mblas\l::Prod">
<polygon fill="white" stroke="black" points="313.5,-98.5 313.5,-128.5 425.5,-128.5 425.5,-98.5 313.5,-98.5"/>
<text text-anchor="start" x="321.5" y="-116.5" font-family="Helvetica,sans-Serif" font-size="10.00">amunmt::GPU::mblas</text>
<text text-anchor="middle" x="369.5" y="-105.5" font-family="Helvetica,sans-Serif" font-size="10.00">::Prod</text>
</a>
</g>
</g>
<!-- Node4&#45;&gt;Node20 -->
<g id="edge19" class="edge"><title>Node4&#45;&gt;Node20</title>
<path fill="none" stroke="midnightblue" d="M215.911,-441.364C216.43,-391.469 224.702,-230.147 307,-138.5 308.191,-137.173 309.463,-135.916 310.801,-134.724"/>
<polygon fill="midnightblue" stroke="midnightblue" points="313.137,-137.35 319.095,-128.59 308.974,-131.722 313.137,-137.35"/>
</g>
<!-- Node21 -->
<g id="node21" class="node"><title>Node21</title>
<g id="a_node21"><a xlink:href="$d1/d49/namespaceamunmt_1_1GPU_1_1mblas.html#ad21070cb29f8c33c03f76e31ef902dfe" xlink:title="amunmt::GPU::mblas\l::Softmax">
<polygon fill="white" stroke="black" points="313.5,-49.5 313.5,-79.5 425.5,-79.5 425.5,-49.5 313.5,-49.5"/>
<text text-anchor="start" x="321.5" y="-67.5" font-family="Helvetica,sans-Serif" font-size="10.00">amunmt::GPU::mblas</text>
<text text-anchor="middle" x="369.5" y="-56.5" font-family="Helvetica,sans-Serif" font-size="10.00">::Softmax</text>
</a>
</g>
</g>
<!-- Node4&#45;&gt;Node21 -->
<g id="edge20" class="edge"><title>Node4&#45;&gt;Node21</title>
<path fill="none" stroke="midnightblue" d="M217.919,-441.294C226.044,-379.058 259.397,-144.45 307,-89.5 308.141,-88.1824 309.363,-86.9332 310.65,-85.749"/>
<polygon fill="midnightblue" stroke="midnightblue" points="312.821,-88.495 318.657,-79.6524 308.581,-82.9257 312.821,-88.495"/>
</g>
<!-- Node22 -->
<g id="node22" class="node"><title>Node22</title>
<g id="a_node22"><a xlink:href="$d1/d49/namespaceamunmt_1_1GPU_1_1mblas.html#a25593e31e47b2518b1fc922e3b0a1a77" xlink:title="amunmt::GPU::mblas\l::LogSoftmax">
<polygon fill="white" stroke="black" points="313.5,-0.5 313.5,-30.5 425.5,-30.5 425.5,-0.5 313.5,-0.5"/>
<text text-anchor="start" x="321.5" y="-18.5" font-family="Helvetica,sans-Serif" font-size="10.00">amunmt::GPU::mblas</text>
<text text-anchor="middle" x="369.5" y="-7.5" font-family="Helvetica,sans-Serif" font-size="10.00">::LogSoftmax</text>
</a>
</g>
</g>
<!-- Node4&#45;&gt;Node22 -->
<g id="edge21" class="edge"><title>Node4&#45;&gt;Node22</title>
<path fill="none" stroke="midnightblue" d="M217.454,-441.143C224.125,-373.623 253.775,-103.687 307,-40.5 308.123,-39.1667 309.328,-37.9037 310.601,-36.7074"/>
<polygon fill="midnightblue" stroke="midnightblue" points="312.781,-39.4466 318.547,-30.5585 308.497,-33.9105 312.781,-39.4466"/>
</g>
</g>
</svg>
