<?xml version="1.0" encoding="UTF-8" standalone="no"?>
<!DOCTYPE svg PUBLIC "-//W3C//DTD SVG 1.1//EN"
 "http://www.w3.org/Graphics/SVG/1.1/DTD/svg11.dtd">
<!-- Generated by graphviz version 2.38.0 (20140413.2041)
 -->
<!-- Title: scheduler.h Pages: 1 -->
<svg width="176pt" height="140pt"
 viewBox="0.00 0.00 176.00 140.00" xmlns="http://www.w3.org/2000/svg" xmlns:xlink="http://www.w3.org/1999/xlink">
<g id="graph0" class="graph" transform="scale(1 1) rotate(0) translate(4 136)">
<title>scheduler.h</title>
<polygon fill="white" stroke="none" points="-4,4 -4,-136 172,-136 172,4 -4,4"/>
<!-- Node1 -->
<g id="node1" class="node"><title>Node1</title>
<polygon fill="#bfbfbf" stroke="black" points="50.5,-112.5 50.5,-131.5 117.5,-131.5 117.5,-112.5 50.5,-112.5"/>
<text text-anchor="middle" x="84" y="-119.5" font-family="Helvetica,sans-Serif" font-size="10.00">scheduler.h</text>
</g>
<!-- Node2 -->
<g id="node2" class="node"><title>Node2</title>
<g id="a_node2"><a xlink:href="$d2/d10/examples_2mnist_2training_8h.html" xlink:title="training.h">
<polygon fill="white" stroke="black" points="0,-56.5 0,-75.5 56,-75.5 56,-56.5 0,-56.5"/>
<text text-anchor="middle" x="28" y="-63.5" font-family="Helvetica,sans-Serif" font-size="10.00">training.h</text>
</a>
</g>
</g>
<!-- Node1&#45;&gt;Node2 -->
<g id="edge1" class="edge"><title>Node1&#45;&gt;Node2</title>
<path fill="none" stroke="midnightblue" d="M67.6701,-105.253C57.735,-95.6731 45.4125,-83.7906 37.1611,-75.8339"/>
<polygon fill="midnightblue" stroke="midnightblue" points="65.3747,-107.902 75.0026,-112.324 70.2336,-102.863 65.3747,-107.902"/>
</g>
<!-- Node3 -->
<g id="node3" class="node"><title>Node3</title>
<g id="a_node3"><a xlink:href="$d8/d9d/graph__group_8h.html" xlink:title="graph_group.h">
<polygon fill="white" stroke="black" points="73,-0.5 73,-19.5 151,-19.5 151,-0.5 73,-0.5"/>
<text text-anchor="middle" x="112" y="-7.5" font-family="Helvetica,sans-Serif" font-size="10.00">graph_group.h</text>
</a>
</g>
</g>
<!-- Node1&#45;&gt;Node3 -->
<g id="edge2" class="edge"><title>Node1&#45;&gt;Node3</title>
<path fill="none" stroke="midnightblue" d="M88.6648,-102.674C94.7864,-78.6248 105.283,-37.3881 109.813,-19.5914"/>
<polygon fill="midnightblue" stroke="midnightblue" points="85.2721,-101.814 86.1971,-112.368 92.0558,-103.541 85.2721,-101.814"/>
</g>
<!-- Node4 -->
<g id="node4" class="node"><title>Node4</title>
<g id="a_node4"><a xlink:href="$df/d43/training_2training_8h.html" xlink:title="training.h">
<polygon fill="white" stroke="black" points="112,-56.5 112,-75.5 168,-75.5 168,-56.5 112,-56.5"/>
<text text-anchor="middle" x="140" y="-63.5" font-family="Helvetica,sans-Serif" font-size="10.00">training.h</text>
</a>
</g>
</g>
<!-- Node1&#45;&gt;Node4 -->
<g id="edge3" class="edge"><title>Node1&#45;&gt;Node4</title>
<path fill="none" stroke="midnightblue" d="M100.33,-105.253C110.265,-95.6731 122.588,-83.7906 130.839,-75.8339"/>
<polygon fill="midnightblue" stroke="midnightblue" points="97.7664,-102.863 92.9974,-112.324 102.625,-107.902 97.7664,-102.863"/>
</g>
<!-- Node4&#45;&gt;Node3 -->
<g id="edge4" class="edge"><title>Node4&#45;&gt;Node3</title>
<path fill="none" stroke="midnightblue" d="M130.658,-46.9827C125.905,-37.8168 120.344,-27.0922 116.538,-19.7511"/>
<polygon fill="midnightblue" stroke="midnightblue" points="127.666,-48.8166 135.376,-56.083 133.88,-45.5943 127.666,-48.8166"/>
</g>
</g>
</svg>
