<?xml version="1.0" encoding="UTF-8" standalone="no"?>
<!DOCTYPE svg PUBLIC "-//W3C//DTD SVG 1.1//EN"
 "http://www.w3.org/Graphics/SVG/1.1/DTD/svg11.dtd">
<!-- Generated by graphviz version 2.38.0 (20140413.2041)
 -->
<!-- Title: marian::ElementBinaryNodeOp Pages: 1 -->
<svg width="832pt" height="873pt"
 viewBox="0.00 0.00 832.00 873.00" xmlns="http://www.w3.org/2000/svg" xmlns:xlink="http://www.w3.org/1999/xlink">
<g id="graph0" class="graph" transform="scale(1 1) rotate(0) translate(4 869)">
<title>marian::ElementBinaryNodeOp</title>
<polygon fill="white" stroke="none" points="-4,4 -4,-869 828,-869 828,4 -4,4"/>
<!-- Node1 -->
<g id="node1" class="node"><title>Node1</title>
<polygon fill="#bfbfbf" stroke="black" points="350.5,-0.5 350.5,-79.5 502.5,-79.5 502.5,-0.5 350.5,-0.5"/>
<text text-anchor="middle" x="426.5" y="-67.5" font-family="Helvetica,sans-Serif" font-size="10.00">marian::ElementBinaryNodeOp</text>
<polyline fill="none" stroke="black" points="350.5,-60.5 502.5,-60.5 "/>
<text text-anchor="middle" x="426.5" y="-48.5" font-family="Helvetica,sans-Serif" font-size="10.00"> </text>
<polyline fill="none" stroke="black" points="350.5,-41.5 502.5,-41.5 "/>
<text text-anchor="start" x="358.5" y="-29.5" font-family="Helvetica,sans-Serif" font-size="10.00">+ ElementBinaryNodeOp()</text>
<text text-anchor="start" x="358.5" y="-18.5" font-family="Helvetica,sans-Serif" font-size="10.00">+ newShape()</text>
<text text-anchor="start" x="358.5" y="-7.5" font-family="Helvetica,sans-Serif" font-size="10.00">+ color()</text>
</g>
<!-- Node2 -->
<g id="node2" class="node"><title>Node2</title>
<g id="a_node2"><a xlink:href="$d0/da7/structmarian_1_1NaryNodeOp.html" xlink:title="{marian::NaryNodeOp\n|+ hash_\l|+ NaryNodeOp()\l+ ~NaryNodeOp()\l+ children()\l+ hash()\l+ remove_children_from\l_top_nodes()\l}">
<polygon fill="white" stroke="black" points="365.5,-117.5 365.5,-229.5 487.5,-229.5 487.5,-117.5 365.5,-117.5"/>
<text text-anchor="middle" x="426.5" y="-217.5" font-family="Helvetica,sans-Serif" font-size="10.00">marian::NaryNodeOp</text>
<polyline fill="none" stroke="black" points="365.5,-210.5 487.5,-210.5 "/>
<text text-anchor="start" x="373.5" y="-198.5" font-family="Helvetica,sans-Serif" font-size="10.00">+ hash_</text>
<polyline fill="none" stroke="black" points="365.5,-191.5 487.5,-191.5 "/>
<text text-anchor="start" x="373.5" y="-179.5" font-family="Helvetica,sans-Serif" font-size="10.00">+ NaryNodeOp()</text>
<text text-anchor="start" x="373.5" y="-168.5" font-family="Helvetica,sans-Serif" font-size="10.00">+ ~NaryNodeOp()</text>
<text text-anchor="start" x="373.5" y="-157.5" font-family="Helvetica,sans-Serif" font-size="10.00">+ children()</text>
<text text-anchor="start" x="373.5" y="-146.5" font-family="Helvetica,sans-Serif" font-size="10.00">+ hash()</text>
<text text-anchor="start" x="373.5" y="-135.5" font-family="Helvetica,sans-Serif" font-size="10.00">+ remove_children_from</text>
<text text-anchor="start" x="373.5" y="-124.5" font-family="Helvetica,sans-Serif" font-size="10.00">_top_nodes()</text>
</a>
</g>
</g>
<!-- Node2&#45;&gt;Node1 -->
<g id="edge1" class="edge"><title>Node2&#45;&gt;Node1</title>
<path fill="none" stroke="midnightblue" d="M426.5,-107.32C426.5,-97.9041 426.5,-88.4729 426.5,-79.7985"/>
<polygon fill="none" stroke="midnightblue" points="423,-107.494 426.5,-117.494 430,-107.494 423,-107.494"/>
</g>
<!-- Node3 -->
<g id="node3" class="node"><title>Node3</title>
<g id="a_node3"><a xlink:href="$d0/d7a/classmarian_1_1Node.html" xlink:title="{marian::Node\n|# id_\l# edges_\l# trainable_\l# destroy_\l# val_\l# adj_\l# markedForDebug_\l|+ Node()\l+ ~Node()\l+ scalar()\l+ forwardOps()\l+ backwardOps()\l+ runForward()\l+ runBackward()\l+ forward()\l+ backward()\l+ trainable()\land 27 more...\l}">
<polygon fill="white" stroke="black" points="374,-267.5 374,-500.5 479,-500.5 479,-267.5 374,-267.5"/>
<text text-anchor="middle" x="426.5" y="-488.5" font-family="Helvetica,sans-Serif" font-size="10.00">marian::Node</text>
<polyline fill="none" stroke="black" points="374,-481.5 479,-481.5 "/>
<text text-anchor="start" x="382" y="-469.5" font-family="Helvetica,sans-Serif" font-size="10.00"># id_</text>
<text text-anchor="start" x="382" y="-458.5" font-family="Helvetica,sans-Serif" font-size="10.00"># edges_</text>
<text text-anchor="start" x="382" y="-447.5" font-family="Helvetica,sans-Serif" font-size="10.00"># trainable_</text>
<text text-anchor="start" x="382" y="-436.5" font-family="Helvetica,sans-Serif" font-size="10.00"># destroy_</text>
<text text-anchor="start" x="382" y="-425.5" font-family="Helvetica,sans-Serif" font-size="10.00"># val_</text>
<text text-anchor="start" x="382" y="-414.5" font-family="Helvetica,sans-Serif" font-size="10.00"># adj_</text>
<text text-anchor="start" x="382" y="-403.5" font-family="Helvetica,sans-Serif" font-size="10.00"># markedForDebug_</text>
<polyline fill="none" stroke="black" points="374,-396.5 479,-396.5 "/>
<text text-anchor="start" x="382" y="-384.5" font-family="Helvetica,sans-Serif" font-size="10.00">+ Node()</text>
<text text-anchor="start" x="382" y="-373.5" font-family="Helvetica,sans-Serif" font-size="10.00">+ ~Node()</text>
<text text-anchor="start" x="382" y="-362.5" font-family="Helvetica,sans-Serif" font-size="10.00">+ scalar()</text>
<text text-anchor="start" x="382" y="-351.5" font-family="Helvetica,sans-Serif" font-size="10.00">+ forwardOps()</text>
<text text-anchor="start" x="382" y="-340.5" font-family="Helvetica,sans-Serif" font-size="10.00">+ backwardOps()</text>
<text text-anchor="start" x="382" y="-329.5" font-family="Helvetica,sans-Serif" font-size="10.00">+ runForward()</text>
<text text-anchor="start" x="382" y="-318.5" font-family="Helvetica,sans-Serif" font-size="10.00">+ runBackward()</text>
<text text-anchor="start" x="382" y="-307.5" font-family="Helvetica,sans-Serif" font-size="10.00">+ forward()</text>
<text text-anchor="start" x="382" y="-296.5" font-family="Helvetica,sans-Serif" font-size="10.00">+ backward()</text>
<text text-anchor="start" x="382" y="-285.5" font-family="Helvetica,sans-Serif" font-size="10.00">+ trainable()</text>
<text text-anchor="start" x="382" y="-274.5" font-family="Helvetica,sans-Serif" font-size="10.00">and 27 more...</text>
</a>
</g>
</g>
<!-- Node3&#45;&gt;Node2 -->
<g id="edge2" class="edge"><title>Node3&#45;&gt;Node2</title>
<path fill="none" stroke="midnightblue" d="M426.5,-257.358C426.5,-247.73 426.5,-238.357 426.5,-229.586"/>
<polygon fill="none" stroke="midnightblue" points="423,-257.469 426.5,-267.469 430,-257.469 423,-257.469"/>
</g>
<!-- Node4 -->
<g id="node4" class="node"><title>Node4</title>
<g id="a_node4"><a xlink:href="$de/dff/classmarian_1_1Chainable.html" xlink:title="{marian::Chainable\&lt;\l Tensor \&gt;\n||+ Chainable()\l+ ~Chainable()\l+ forward()\l+ backward()\l+ forwardOps()\l+ backwardOps()\l+ allocate()\l+ free()\l+ init()\l+ init_dependent()\land 23 more...\l}">
<polygon fill="white" stroke="black" points="0,-565 0,-743 101,-743 101,-565 0,-565"/>
<text text-anchor="start" x="8" y="-731" font-family="Helvetica,sans-Serif" font-size="10.00">marian::Chainable&lt;</text>
<text text-anchor="middle" x="50.5" y="-720" font-family="Helvetica,sans-Serif" font-size="10.00"> Tensor &gt;</text>
<polyline fill="none" stroke="black" points="0,-713 101,-713 "/>
<text text-anchor="middle" x="50.5" y="-701" font-family="Helvetica,sans-Serif" font-size="10.00"> </text>
<polyline fill="none" stroke="black" points="0,-694 101,-694 "/>
<text text-anchor="start" x="8" y="-682" font-family="Helvetica,sans-Serif" font-size="10.00">+ Chainable()</text>
<text text-anchor="start" x="8" y="-671" font-family="Helvetica,sans-Serif" font-size="10.00">+ ~Chainable()</text>
<text text-anchor="start" x="8" y="-660" font-family="Helvetica,sans-Serif" font-size="10.00">+ forward()</text>
<text text-anchor="start" x="8" y="-649" font-family="Helvetica,sans-Serif" font-size="10.00">+ backward()</text>
<text text-anchor="start" x="8" y="-638" font-family="Helvetica,sans-Serif" font-size="10.00">+ forwardOps()</text>
<text text-anchor="start" x="8" y="-627" font-family="Helvetica,sans-Serif" font-size="10.00">+ backwardOps()</text>
<text text-anchor="start" x="8" y="-616" font-family="Helvetica,sans-Serif" font-size="10.00">+ allocate()</text>
<text text-anchor="start" x="8" y="-605" font-family="Helvetica,sans-Serif" font-size="10.00">+ free()</text>
<text text-anchor="start" x="8" y="-594" font-family="Helvetica,sans-Serif" font-size="10.00">+ init()</text>
<text text-anchor="start" x="8" y="-583" font-family="Helvetica,sans-Serif" font-size="10.00">+ init_dependent()</text>
<text text-anchor="start" x="8" y="-572" font-family="Helvetica,sans-Serif" font-size="10.00">and 23 more...</text>
</a>
</g>
</g>
<!-- Node4&#45;&gt;Node3 -->
<g id="edge3" class="edge"><title>Node4&#45;&gt;Node3</title>
<path fill="none" stroke="midnightblue" d="M108.452,-559.999C108.8,-559.664 109.15,-559.33 109.5,-559 188.855,-484.158 306.517,-430.755 373.933,-404.166"/>
<polygon fill="none" stroke="midnightblue" points="105.76,-557.749 101.328,-567.373 110.794,-562.613 105.76,-557.749"/>
</g>
<!-- Node5 -->
<g id="node5" class="node"><title>Node5</title>
<g id="a_node5"><a xlink:href="$d4/d9b/classmarian_1_1keywords_1_1Keywords.html" xlink:title="{marian::keywords::Keywords\n||+ Keywords()\l+ Has()\l+ Get()\l&#45; add()\l&#45; add()\l&#45; add()\l}">
<polygon fill="white" stroke="black" points="119,-598 119,-710 262,-710 262,-598 119,-598"/>
<text text-anchor="middle" x="190.5" y="-698" font-family="Helvetica,sans-Serif" font-size="10.00">marian::keywords::Keywords</text>
<polyline fill="none" stroke="black" points="119,-691 262,-691 "/>
<text text-anchor="middle" x="190.5" y="-679" font-family="Helvetica,sans-Serif" font-size="10.00"> </text>
<polyline fill="none" stroke="black" points="119,-672 262,-672 "/>
<text text-anchor="start" x="127" y="-660" font-family="Helvetica,sans-Serif" font-size="10.00">+ Keywords()</text>
<text text-anchor="start" x="127" y="-649" font-family="Helvetica,sans-Serif" font-size="10.00">+ Has()</text>
<text text-anchor="start" x="127" y="-638" font-family="Helvetica,sans-Serif" font-size="10.00">+ Get()</text>
<text text-anchor="start" x="127" y="-627" font-family="Helvetica,sans-Serif" font-size="10.00">&#45; add()</text>
<text text-anchor="start" x="127" y="-616" font-family="Helvetica,sans-Serif" font-size="10.00">&#45; add()</text>
<text text-anchor="start" x="127" y="-605" font-family="Helvetica,sans-Serif" font-size="10.00">&#45; add()</text>
</a>
</g>
</g>
<!-- Node5&#45;&gt;Node3 -->
<g id="edge4" class="edge"><title>Node5&#45;&gt;Node3</title>
<path fill="none" stroke="midnightblue" d="M244.664,-589.854C253.601,-579.519 262.789,-568.942 271.5,-559 305.358,-520.355 343.77,-477.231 373.884,-443.581"/>
<polygon fill="none" stroke="midnightblue" points="241.779,-587.84 237.891,-597.696 247.076,-592.416 241.779,-587.84"/>
</g>
<!-- Node6 -->
<g id="node6" class="node"><title>Node6</title>
<polygon fill="white" stroke="#bfbfbf" points="137.5,-796.5 137.5,-864.5 243.5,-864.5 243.5,-796.5 137.5,-796.5"/>
<text text-anchor="start" x="145.5" y="-852.5" font-family="Helvetica,sans-Serif" font-size="10.00">std::map&lt; unsigned,</text>
<text text-anchor="middle" x="190.5" y="-841.5" font-family="Helvetica,sans-Serif" font-size="10.00"> boost::any &gt;</text>
<polyline fill="none" stroke="#bfbfbf" points="137.5,-834.5 243.5,-834.5 "/>
<text text-anchor="middle" x="190.5" y="-822.5" font-family="Helvetica,sans-Serif" font-size="10.00"> </text>
<polyline fill="none" stroke="#bfbfbf" points="137.5,-815.5 243.5,-815.5 "/>
<text text-anchor="middle" x="190.5" y="-803.5" font-family="Helvetica,sans-Serif" font-size="10.00"> </text>
</g>
<!-- Node6&#45;&gt;Node5 -->
<g id="edge5" class="edge"><title>Node6&#45;&gt;Node5</title>
<path fill="none" stroke="#404040" d="M190.5,-796.267C190.5,-775.362 190.5,-747.636 190.5,-722.286"/>
<polygon fill="none" stroke="#404040" points="190.5,-722.073 186.5,-716.073 190.5,-710.073 194.5,-716.072 190.5,-722.073"/>
<text text-anchor="middle" x="212.5" y="-770" font-family="Helvetica,sans-Serif" font-size="10.00"> &#45;storage_</text>
</g>
<!-- Node7 -->
<g id="node7" class="node"><title>Node7</title>
<polygon fill="white" stroke="#bfbfbf" points="280.5,-620 280.5,-688 384.5,-688 384.5,-620 280.5,-620"/>
<text text-anchor="start" x="288.5" y="-676" font-family="Helvetica,sans-Serif" font-size="10.00">std::enable_shared</text>
<text text-anchor="middle" x="332.5" y="-665" font-family="Helvetica,sans-Serif" font-size="10.00">_from_this&lt; Node &gt;</text>
<polyline fill="none" stroke="#bfbfbf" points="280.5,-658 384.5,-658 "/>
<text text-anchor="middle" x="332.5" y="-646" font-family="Helvetica,sans-Serif" font-size="10.00"> </text>
<polyline fill="none" stroke="#bfbfbf" points="280.5,-639 384.5,-639 "/>
<text text-anchor="middle" x="332.5" y="-627" font-family="Helvetica,sans-Serif" font-size="10.00"> </text>
</g>
<!-- Node7&#45;&gt;Node3 -->
<g id="edge6" class="edge"><title>Node7&#45;&gt;Node3</title>
<path fill="none" stroke="midnightblue" d="M347.49,-610.263C357.896,-580.593 372.292,-539.55 385.948,-500.617"/>
<polygon fill="none" stroke="midnightblue" points="344.128,-609.274 344.121,-619.869 350.733,-611.591 344.128,-609.274"/>
</g>
<!-- Node8 -->
<g id="node8" class="node"><title>Node8</title>
<g id="a_node8"><a xlink:title="STL class. ">
<polygon fill="white" stroke="#bfbfbf" points="402.5,-625.5 402.5,-682.5 462.5,-682.5 462.5,-625.5 402.5,-625.5"/>
<text text-anchor="middle" x="432.5" y="-670.5" font-family="Helvetica,sans-Serif" font-size="10.00">std::string</text>
<polyline fill="none" stroke="#bfbfbf" points="402.5,-663.5 462.5,-663.5 "/>
<text text-anchor="middle" x="432.5" y="-651.5" font-family="Helvetica,sans-Serif" font-size="10.00"> </text>
<polyline fill="none" stroke="#bfbfbf" points="402.5,-644.5 462.5,-644.5 "/>
<text text-anchor="middle" x="432.5" y="-632.5" font-family="Helvetica,sans-Serif" font-size="10.00"> </text>
</a>
</g>
</g>
<!-- Node8&#45;&gt;Node3 -->
<g id="edge7" class="edge"><title>Node8&#45;&gt;Node3</title>
<path fill="none" stroke="#404040" d="M430.974,-625.394C429.791,-602.731 428.235,-569.797 427.5,-541 427.267,-531.862 427.078,-522.422 426.925,-512.919"/>
<polygon fill="none" stroke="#404040" points="426.925,-512.864 422.838,-506.922 426.751,-500.865 430.837,-506.807 426.925,-512.864"/>
<text text-anchor="middle" x="466" y="-533" font-family="Helvetica,sans-Serif" font-size="10.00"> #name_</text>
<text text-anchor="middle" x="466" y="-522" font-family="Helvetica,sans-Serif" font-size="10.00">#debugMessage_</text>
</g>
<!-- Node9 -->
<g id="node9" class="node"><title>Node9</title>
<polygon fill="white" stroke="#bfbfbf" points="385,-796.5 385,-864.5 480,-864.5 480,-796.5 385,-796.5"/>
<text text-anchor="start" x="393" y="-852.5" font-family="Helvetica,sans-Serif" font-size="10.00">std::basic_string&lt;</text>
<text text-anchor="middle" x="432.5" y="-841.5" font-family="Helvetica,sans-Serif" font-size="10.00"> char &gt;</text>
<polyline fill="none" stroke="#bfbfbf" points="385,-834.5 480,-834.5 "/>
<text text-anchor="middle" x="432.5" y="-822.5" font-family="Helvetica,sans-Serif" font-size="10.00"> </text>
<polyline fill="none" stroke="#bfbfbf" points="385,-815.5 480,-815.5 "/>
<text text-anchor="middle" x="432.5" y="-803.5" font-family="Helvetica,sans-Serif" font-size="10.00"> </text>
</g>
<!-- Node9&#45;&gt;Node8 -->
<g id="edge8" class="edge"><title>Node9&#45;&gt;Node8</title>
<path fill="none" stroke="midnightblue" d="M432.5,-786.169C432.5,-753.783 432.5,-710.474 432.5,-682.652"/>
<polygon fill="none" stroke="midnightblue" points="429,-786.267 432.5,-796.267 436,-786.267 429,-786.267"/>
</g>
<!-- Node10 -->
<g id="node10" class="node"><title>Node10</title>
<g id="a_node10"><a xlink:href="$d5/d54/structmarian_1_1Shape.html" xlink:title="{marian::Shape\n|+ shape_\l+ stride_\l+ bstride_\l|+ Shape()\l+ Shape()\l+ updateStrides()\l+ Shape()\l+ set()\l+ dim()\l+ dim()\l+ operator[]()\l+ operator[]()\l+ stride()\land 12 more...\l}">
<polygon fill="white" stroke="black" points="480.5,-559.5 480.5,-748.5 572.5,-748.5 572.5,-559.5 480.5,-559.5"/>
<text text-anchor="middle" x="526.5" y="-736.5" font-family="Helvetica,sans-Serif" font-size="10.00">marian::Shape</text>
<polyline fill="none" stroke="black" points="480.5,-729.5 572.5,-729.5 "/>
<text text-anchor="start" x="488.5" y="-717.5" font-family="Helvetica,sans-Serif" font-size="10.00">+ shape_</text>
<text text-anchor="start" x="488.5" y="-706.5" font-family="Helvetica,sans-Serif" font-size="10.00">+ stride_</text>
<text text-anchor="start" x="488.5" y="-695.5" font-family="Helvetica,sans-Serif" font-size="10.00">+ bstride_</text>
<polyline fill="none" stroke="black" points="480.5,-688.5 572.5,-688.5 "/>
<text text-anchor="start" x="488.5" y="-676.5" font-family="Helvetica,sans-Serif" font-size="10.00">+ Shape()</text>
<text text-anchor="start" x="488.5" y="-665.5" font-family="Helvetica,sans-Serif" font-size="10.00">+ Shape()</text>
<text text-anchor="start" x="488.5" y="-654.5" font-family="Helvetica,sans-Serif" font-size="10.00">+ updateStrides()</text>
<text text-anchor="start" x="488.5" y="-643.5" font-family="Helvetica,sans-Serif" font-size="10.00">+ Shape()</text>
<text text-anchor="start" x="488.5" y="-632.5" font-family="Helvetica,sans-Serif" font-size="10.00">+ set()</text>
<text text-anchor="start" x="488.5" y="-621.5" font-family="Helvetica,sans-Serif" font-size="10.00">+ dim()</text>
<text text-anchor="start" x="488.5" y="-610.5" font-family="Helvetica,sans-Serif" font-size="10.00">+ dim()</text>
<text text-anchor="start" x="488.5" y="-599.5" font-family="Helvetica,sans-Serif" font-size="10.00">+ operator[]()</text>
<text text-anchor="start" x="488.5" y="-588.5" font-family="Helvetica,sans-Serif" font-size="10.00">+ operator[]()</text>
<text text-anchor="start" x="488.5" y="-577.5" font-family="Helvetica,sans-Serif" font-size="10.00">+ stride()</text>
<text text-anchor="start" x="488.5" y="-566.5" font-family="Helvetica,sans-Serif" font-size="10.00">and 12 more...</text>
</a>
</g>
</g>
<!-- Node10&#45;&gt;Node3 -->
<g id="edge9" class="edge"><title>Node10&#45;&gt;Node3</title>
<path fill="none" stroke="#404040" d="M515.599,-559.254C512.718,-545.544 509.084,-531.757 504.5,-519 499.241,-504.365 492.384,-489.51 484.917,-475.281"/>
<polygon fill="none" stroke="#404040" points="484.814,-475.091 478.441,-471.716 479.104,-464.536 485.477,-467.91 484.814,-475.091"/>
<text text-anchor="middle" x="531.5" y="-527.5" font-family="Helvetica,sans-Serif" font-size="10.00"> #shape_</text>
</g>
<!-- Node11 -->
<g id="node11" class="node"><title>Node11</title>
<polygon fill="white" stroke="#bfbfbf" points="590.5,-620 590.5,-688 704.5,-688 704.5,-620 590.5,-620"/>
<text text-anchor="start" x="598.5" y="-676" font-family="Helvetica,sans-Serif" font-size="10.00">std::weak_ptr&lt; marian</text>
<text text-anchor="middle" x="647.5" y="-665" font-family="Helvetica,sans-Serif" font-size="10.00">::ExpressionGraph &gt;</text>
<polyline fill="none" stroke="#bfbfbf" points="590.5,-658 704.5,-658 "/>
<text text-anchor="middle" x="647.5" y="-646" font-family="Helvetica,sans-Serif" font-size="10.00"> </text>
<polyline fill="none" stroke="#bfbfbf" points="590.5,-639 704.5,-639 "/>
<text text-anchor="middle" x="647.5" y="-627" font-family="Helvetica,sans-Serif" font-size="10.00"> </text>
</g>
<!-- Node11&#45;&gt;Node3 -->
<g id="edge10" class="edge"><title>Node11&#45;&gt;Node3</title>
<path fill="none" stroke="#404040" d="M627,-619.977C609.237,-592.173 582.248,-551.806 555.5,-519 534.693,-493.481 509.996,-467.032 487.809,-444.442"/>
<polygon fill="none" stroke="#404040" points="487.561,-444.192 480.497,-442.74 479.121,-435.662 486.184,-437.114 487.561,-444.192"/>
<text text-anchor="middle" x="591.5" y="-527.5" font-family="Helvetica,sans-Serif" font-size="10.00"> #graph_</text>
</g>
<!-- Node12 -->
<g id="node12" class="node"><title>Node12</title>
<polygon fill="white" stroke="#bfbfbf" points="723,-625.5 723,-682.5 824,-682.5 824,-625.5 723,-625.5"/>
<text text-anchor="middle" x="773.5" y="-670.5" font-family="Helvetica,sans-Serif" font-size="10.00">std::vector&lt; Expr &gt;</text>
<polyline fill="none" stroke="#bfbfbf" points="723,-663.5 824,-663.5 "/>
<text text-anchor="middle" x="773.5" y="-651.5" font-family="Helvetica,sans-Serif" font-size="10.00"> </text>
<polyline fill="none" stroke="#bfbfbf" points="723,-644.5 824,-644.5 "/>
<text text-anchor="middle" x="773.5" y="-632.5" font-family="Helvetica,sans-Serif" font-size="10.00"> </text>
</g>
<!-- Node12&#45;&gt;Node3 -->
<g id="edge11" class="edge"><title>Node12&#45;&gt;Node3</title>
<path fill="none" stroke="#404040" d="M760.1,-625.111C749.473,-605.034 733.163,-578.214 713.5,-559 647.196,-494.21 552.456,-442.746 490.234,-413.069"/>
<polygon fill="none" stroke="#404040" points="489.864,-412.895 482.732,-413.958 479.008,-407.783 486.14,-406.72 489.864,-412.895"/>
<text text-anchor="middle" x="718.5" y="-527.5" font-family="Helvetica,sans-Serif" font-size="10.00"> #children_</text>
</g>
</g>
</svg>
