<?xml version="1.0" encoding="UTF-8" standalone="no"?>
<!DOCTYPE svg PUBLIC "-//W3C//DTD SVG 1.1//EN"
 "http://www.w3.org/Graphics/SVG/1.1/DTD/svg11.dtd">
<!-- Generated by graphviz version 2.38.0 (20140413.2041)
 -->
<!-- Title: corpus.h Pages: 1 -->
<svg width="1125pt" height="263pt"
 viewBox="0.00 0.00 1124.50 263.00" xmlns="http://www.w3.org/2000/svg" xmlns:xlink="http://www.w3.org/1999/xlink">
<g id="graph0" class="graph" transform="scale(1 1) rotate(0) translate(4 259)">
<title>corpus.h</title>
<polygon fill="white" stroke="none" points="-4,4 -4,-259 1120.5,-259 1120.5,4 -4,4"/>
<!-- Node1 -->
<g id="node1" class="node"><title>Node1</title>
<polygon fill="#bfbfbf" stroke="black" points="661,-235.5 661,-254.5 715,-254.5 715,-235.5 661,-235.5"/>
<text text-anchor="middle" x="688" y="-242.5" font-family="Helvetica,sans-Serif" font-size="10.00">corpus.h</text>
</g>
<!-- Node2 -->
<g id="node2" class="node"><title>Node2</title>
<polygon fill="white" stroke="#bfbfbf" points="196,-174 196,-193 246,-193 246,-174 196,-174"/>
<text text-anchor="middle" x="221" y="-181" font-family="Helvetica,sans-Serif" font-size="10.00">fstream</text>
</g>
<!-- Node1&#45;&gt;Node2 -->
<g id="edge1" class="edge"><title>Node1&#45;&gt;Node2</title>
<path fill="none" stroke="midnightblue" d="M660.564,-243.492C592.069,-241.713 408.393,-233.801 260,-199 256.934,-198.281 253.781,-197.386 250.661,-196.397"/>
<polygon fill="midnightblue" stroke="midnightblue" points="251.539,-192.997 240.944,-193.011 249.236,-199.607 251.539,-192.997"/>
</g>
<!-- Node3 -->
<g id="node3" class="node"><title>Node3</title>
<polygon fill="white" stroke="#bfbfbf" points="638,-0.5 638,-19.5 692,-19.5 692,-0.5 638,-0.5"/>
<text text-anchor="middle" x="665" y="-7.5" font-family="Helvetica,sans-Serif" font-size="10.00">iostream</text>
</g>
<!-- Node1&#45;&gt;Node3 -->
<g id="edge2" class="edge"><title>Node1&#45;&gt;Node3</title>
<path fill="none" stroke="midnightblue" d="M660.983,-242.964C575.879,-239.424 317.531,-226.484 293,-199 190.553,-84.2186 514.865,-30.4184 627.738,-15.479"/>
<polygon fill="midnightblue" stroke="midnightblue" points="628.203,-18.948 637.671,-14.1928 627.304,-12.0059 628.203,-18.948"/>
</g>
<!-- Node4 -->
<g id="node4" class="node"><title>Node4</title>
<polygon fill="white" stroke="#bfbfbf" points="302.5,-174 302.5,-193 351.5,-193 351.5,-174 302.5,-174"/>
<text text-anchor="middle" x="327" y="-181" font-family="Helvetica,sans-Serif" font-size="10.00">random</text>
</g>
<!-- Node1&#45;&gt;Node4 -->
<g id="edge3" class="edge"><title>Node1&#45;&gt;Node4</title>
<path fill="none" stroke="midnightblue" d="M660.696,-242.811C603.776,-239.778 468.695,-229.688 360,-199 357.847,-198.392 355.652,-197.671 353.468,-196.881"/>
<polygon fill="midnightblue" stroke="midnightblue" points="354.718,-193.611 344.135,-193.105 352.093,-200.1 354.718,-193.611"/>
</g>
<!-- Node5 -->
<g id="node5" class="node"><title>Node5</title>
<polygon fill="white" stroke="#bfbfbf" points="369.5,-174 369.5,-193 498.5,-193 498.5,-174 369.5,-174"/>
<text text-anchor="middle" x="434" y="-181" font-family="Helvetica,sans-Serif" font-size="10.00">boost/algorithm/string.hpp</text>
</g>
<!-- Node1&#45;&gt;Node5 -->
<g id="edge4" class="edge"><title>Node1&#45;&gt;Node5</title>
<path fill="none" stroke="midnightblue" d="M660.818,-237.632C617.655,-227.522 532.938,-207.676 480.141,-195.309"/>
<polygon fill="midnightblue" stroke="midnightblue" points="480.885,-191.888 470.35,-193.015 479.288,-198.704 480.885,-191.888"/>
</g>
<!-- Node6 -->
<g id="node6" class="node"><title>Node6</title>
<polygon fill="white" stroke="#bfbfbf" points="516.5,-168.5 516.5,-198.5 623.5,-198.5 623.5,-168.5 516.5,-168.5"/>
<text text-anchor="start" x="524.5" y="-186.5" font-family="Helvetica,sans-Serif" font-size="10.00">boost/iterator/iterator</text>
<text text-anchor="middle" x="570" y="-175.5" font-family="Helvetica,sans-Serif" font-size="10.00">_facade.hpp</text>
</g>
<!-- Node1&#45;&gt;Node6 -->
<g id="edge5" class="edge"><title>Node1&#45;&gt;Node6</title>
<path fill="none" stroke="midnightblue" d="M671.093,-235.475C654.44,-227.078 628.45,-213.973 606.993,-203.153"/>
<polygon fill="midnightblue" stroke="midnightblue" points="608.315,-199.9 597.81,-198.523 605.164,-206.151 608.315,-199.9"/>
</g>
<!-- Node7 -->
<g id="node7" class="node"><title>Node7</title>
<polygon fill="white" stroke="#bfbfbf" points="642,-174 642,-193 734,-193 734,-174 642,-174"/>
<text text-anchor="middle" x="688" y="-181" font-family="Helvetica,sans-Serif" font-size="10.00">common/config.h</text>
</g>
<!-- Node1&#45;&gt;Node7 -->
<g id="edge6" class="edge"><title>Node1&#45;&gt;Node7</title>
<path fill="none" stroke="midnightblue" d="M688,-235.475C688,-227.08 688,-213.981 688,-203.163"/>
<polygon fill="midnightblue" stroke="midnightblue" points="691.5,-203.009 688,-193.009 684.5,-203.009 691.5,-203.009"/>
</g>
<!-- Node8 -->
<g id="node8" class="node"><title>Node8</title>
<g id="a_node8"><a xlink:href="../../d6/dc2/definitions_8h.html" target="_top" xlink:title="common/definitions.h">
<polygon fill="white" stroke="black" points="693,-112.5 693,-131.5 803,-131.5 803,-112.5 693,-112.5"/>
<text text-anchor="middle" x="748" y="-119.5" font-family="Helvetica,sans-Serif" font-size="10.00">common/definitions.h</text>
</a>
</g>
</g>
<!-- Node1&#45;&gt;Node8 -->
<g id="edge7" class="edge"><title>Node1&#45;&gt;Node8</title>
<path fill="none" stroke="midnightblue" d="M704.645,-235.399C717.566,-227.738 734.643,-215.235 743,-199 752.155,-181.214 752.236,-157.909 750.77,-141.819"/>
<polygon fill="midnightblue" stroke="midnightblue" points="754.206,-141.071 749.537,-131.56 747.256,-141.906 754.206,-141.071"/>
</g>
<!-- Node22 -->
<g id="node22" class="node"><title>Node22</title>
<polygon fill="white" stroke="#bfbfbf" points="790.5,-174 790.5,-193 903.5,-193 903.5,-174 790.5,-174"/>
<text text-anchor="middle" x="847" y="-181" font-family="Helvetica,sans-Serif" font-size="10.00">common/file_stream.h</text>
</g>
<!-- Node1&#45;&gt;Node22 -->
<g id="edge23" class="edge"><title>Node1&#45;&gt;Node22</title>
<path fill="none" stroke="midnightblue" d="M710.781,-235.475C738.055,-225.269 783.913,-208.108 814.801,-196.549"/>
<polygon fill="midnightblue" stroke="midnightblue" points="816.122,-199.792 824.261,-193.009 813.669,-193.236 816.122,-199.792"/>
</g>
<!-- Node23 -->
<g id="node23" class="node"><title>Node23</title>
<g id="a_node23"><a xlink:href="../../d9/d9b/batch_8h.html" target="_top" xlink:title="data/batch.h">
<polygon fill="white" stroke="black" points="1024.5,-112.5 1024.5,-131.5 1095.5,-131.5 1095.5,-112.5 1024.5,-112.5"/>
<text text-anchor="middle" x="1060" y="-119.5" font-family="Helvetica,sans-Serif" font-size="10.00">data/batch.h</text>
</a>
</g>
</g>
<!-- Node1&#45;&gt;Node23 -->
<g id="edge24" class="edge"><title>Node1&#45;&gt;Node23</title>
<path fill="none" stroke="midnightblue" d="M715.166,-244.636C790.69,-245.805 1000.71,-244.786 1048,-199 1063.11,-184.365 1064.17,-158.971 1062.75,-141.596"/>
<polygon fill="midnightblue" stroke="midnightblue" points="1066.21,-141.059 1061.58,-131.53 1059.26,-141.867 1066.21,-141.059"/>
</g>
<!-- Node24 -->
<g id="node24" class="node"><title>Node24</title>
<g id="a_node24"><a xlink:href="../../de/daf/data_2dataset_8h.html" target="_top" xlink:title="data/dataset.h">
<polygon fill="white" stroke="black" points="960.5,-174 960.5,-193 1039.5,-193 1039.5,-174 960.5,-174"/>
<text text-anchor="middle" x="1000" y="-181" font-family="Helvetica,sans-Serif" font-size="10.00">data/dataset.h</text>
</a>
</g>
</g>
<!-- Node1&#45;&gt;Node24 -->
<g id="edge26" class="edge"><title>Node1&#45;&gt;Node24</title>
<path fill="none" stroke="midnightblue" d="M715.273,-240.066C762.518,-233.068 862.534,-217.446 946,-199 950.671,-197.968 955.545,-196.795 960.37,-195.575"/>
<polygon fill="midnightblue" stroke="midnightblue" points="961.332,-198.942 970.127,-193.034 959.567,-192.168 961.332,-198.942"/>
</g>
<!-- Node25 -->
<g id="node25" class="node"><title>Node25</title>
<g id="a_node25"><a xlink:href="../../d8/db3/marian_2src_2data_2vocab_8h.html" target="_top" xlink:title="data/vocab.h">
<polygon fill="white" stroke="black" points="895.5,-112.5 895.5,-131.5 968.5,-131.5 968.5,-112.5 895.5,-112.5"/>
<text text-anchor="middle" x="932" y="-119.5" font-family="Helvetica,sans-Serif" font-size="10.00">data/vocab.h</text>
</a>
</g>
</g>
<!-- Node1&#45;&gt;Node25 -->
<g id="edge38" class="edge"><title>Node1&#45;&gt;Node25</title>
<path fill="none" stroke="midnightblue" d="M715.3,-242.071C768.62,-237.752 883.858,-225.527 912,-199 927.637,-184.26 931.603,-158.89 932.341,-141.55"/>
<polygon fill="midnightblue" stroke="midnightblue" points="935.841,-141.543 932.449,-131.506 928.841,-141.468 935.841,-141.543"/>
</g>
<!-- Node9 -->
<g id="node9" class="node"><title>Node9</title>
<polygon fill="white" stroke="#bfbfbf" points="438.5,-56.5 438.5,-75.5 497.5,-75.5 497.5,-56.5 438.5,-56.5"/>
<text text-anchor="middle" x="468" y="-63.5" font-family="Helvetica,sans-Serif" font-size="10.00">functional</text>
</g>
<!-- Node8&#45;&gt;Node9 -->
<g id="edge8" class="edge"><title>Node8&#45;&gt;Node9</title>
<path fill="none" stroke="midnightblue" d="M698.954,-112.468C652.363,-104.222 580.103,-91.0708 507.959,-76.1289"/>
<polygon fill="midnightblue" stroke="midnightblue" points="508.286,-72.622 497.782,-74.009 506.858,-79.4749 508.286,-72.622"/>
</g>
<!-- Node10 -->
<g id="node10" class="node"><title>Node10</title>
<polygon fill="white" stroke="#bfbfbf" points="516,-56.5 516,-75.5 568,-75.5 568,-56.5 516,-56.5"/>
<text text-anchor="middle" x="542" y="-63.5" font-family="Helvetica,sans-Serif" font-size="10.00">memory</text>
</g>
<!-- Node8&#45;&gt;Node10 -->
<g id="edge9" class="edge"><title>Node8&#45;&gt;Node10</title>
<path fill="none" stroke="midnightblue" d="M715.359,-112.444C677.971,-102.643 616.892,-86.6319 578.109,-76.4655"/>
<polygon fill="midnightblue" stroke="midnightblue" points="578.84,-73.0388 568.279,-73.8886 577.064,-79.81 578.84,-73.0388"/>
</g>
<!-- Node11 -->
<g id="node11" class="node"><title>Node11</title>
<polygon fill="white" stroke="#bfbfbf" points="781.5,-0.5 781.5,-19.5 822.5,-19.5 822.5,-0.5 781.5,-0.5"/>
<text text-anchor="middle" x="802" y="-7.5" font-family="Helvetica,sans-Serif" font-size="10.00">string</text>
</g>
<!-- Node8&#45;&gt;Node11 -->
<g id="edge10" class="edge"><title>Node8&#45;&gt;Node11</title>
<path fill="none" stroke="midnightblue" d="M749.482,-112.197C751.886,-99.3223 757.365,-74.8417 767,-56 772.284,-45.6666 780.071,-35.3578 786.96,-27.2193"/>
<polygon fill="midnightblue" stroke="midnightblue" points="789.679,-29.4279 793.67,-19.6137 784.429,-24.7968 789.679,-29.4279"/>
</g>
<!-- Node12 -->
<g id="node12" class="node"><title>Node12</title>
<polygon fill="white" stroke="#bfbfbf" points="908,-0.5 908,-19.5 952,-19.5 952,-0.5 908,-0.5"/>
<text text-anchor="middle" x="930" y="-7.5" font-family="Helvetica,sans-Serif" font-size="10.00">vector</text>
</g>
<!-- Node8&#45;&gt;Node12 -->
<g id="edge11" class="edge"><title>Node8&#45;&gt;Node12</title>
<path fill="none" stroke="midnightblue" d="M766.584,-112.382C784.663,-103.793 812.73,-89.9123 836,-76 862.635,-60.0757 891.812,-39.3469 910.483,-25.6284"/>
<polygon fill="midnightblue" stroke="midnightblue" points="912.793,-28.2726 918.747,-19.5088 908.628,-22.6469 912.793,-28.2726"/>
</g>
<!-- Node13 -->
<g id="node13" class="node"><title>Node13</title>
<polygon fill="white" stroke="#bfbfbf" points="586,-56.5 586,-75.5 682,-75.5 682,-56.5 586,-56.5"/>
<text text-anchor="middle" x="634" y="-63.5" font-family="Helvetica,sans-Serif" font-size="10.00">common/logging.h</text>
</g>
<!-- Node8&#45;&gt;Node13 -->
<g id="edge12" class="edge"><title>Node8&#45;&gt;Node13</title>
<path fill="none" stroke="midnightblue" d="M729.936,-112.444C711.425,-103.675 682.419,-89.9355 661.145,-79.8579"/>
<polygon fill="midnightblue" stroke="midnightblue" points="662.515,-76.6343 651.979,-75.5164 659.518,-82.9604 662.515,-76.6343"/>
</g>
<!-- Node14 -->
<g id="node14" class="node"><title>Node14</title>
<g id="a_node14"><a xlink:href="../../da/d18/shape_8h.html" target="_top" xlink:title="shape.h">
<polygon fill="white" stroke="black" points="776.5,-56.5 776.5,-75.5 827.5,-75.5 827.5,-56.5 776.5,-56.5"/>
<text text-anchor="middle" x="802" y="-63.5" font-family="Helvetica,sans-Serif" font-size="10.00">shape.h</text>
</a>
</g>
</g>
<!-- Node8&#45;&gt;Node14 -->
<g id="edge13" class="edge"><title>Node8&#45;&gt;Node14</title>
<path fill="none" stroke="midnightblue" d="M756.917,-112.083C764.78,-104.22 776.431,-92.5688 785.919,-83.0813"/>
<polygon fill="midnightblue" stroke="midnightblue" points="788.653,-85.2971 793.249,-75.7511 783.703,-80.3473 788.653,-85.2971"/>
</g>
<!-- Node16 -->
<g id="node16" class="node"><title>Node16</title>
<g id="a_node16"><a xlink:href="../../d2/db7/keywords_8h.html" target="_top" xlink:title="keywords.h">
<polygon fill="white" stroke="black" points="178.5,-56.5 178.5,-75.5 245.5,-75.5 245.5,-56.5 178.5,-56.5"/>
<text text-anchor="middle" x="212" y="-63.5" font-family="Helvetica,sans-Serif" font-size="10.00">keywords.h</text>
</a>
</g>
</g>
<!-- Node8&#45;&gt;Node16 -->
<g id="edge17" class="edge"><title>Node8&#45;&gt;Node16</title>
<path fill="none" stroke="midnightblue" d="M692.657,-115.424C585.687,-104.648 352.564,-81.1613 255.632,-71.3957"/>
<polygon fill="midnightblue" stroke="midnightblue" points="255.892,-67.9043 245.591,-70.3842 255.19,-74.869 255.892,-67.9043"/>
</g>
<!-- Node14&#45;&gt;Node3 -->
<g id="edge15" class="edge"><title>Node14&#45;&gt;Node3</title>
<path fill="none" stroke="midnightblue" d="M780.292,-56.4435C757.645,-47.5171 721.928,-33.4387 696.248,-23.3168"/>
<polygon fill="midnightblue" stroke="midnightblue" points="697.193,-19.9273 686.606,-19.5164 694.626,-26.4397 697.193,-19.9273"/>
</g>
<!-- Node14&#45;&gt;Node11 -->
<g id="edge16" class="edge"><title>Node14&#45;&gt;Node11</title>
<path fill="none" stroke="midnightblue" d="M802,-56.083C802,-49.0059 802,-38.8611 802,-29.9865"/>
<polygon fill="midnightblue" stroke="midnightblue" points="805.5,-29.751 802,-19.7511 798.5,-29.7511 805.5,-29.751"/>
</g>
<!-- Node15 -->
<g id="node15" class="node"><title>Node15</title>
<polygon fill="white" stroke="#bfbfbf" points="843,-0.5 843,-19.5 889,-19.5 889,-0.5 843,-0.5"/>
<text text-anchor="middle" x="866" y="-7.5" font-family="Helvetica,sans-Serif" font-size="10.00">cstdint</text>
</g>
<!-- Node14&#45;&gt;Node15 -->
<g id="edge14" class="edge"><title>Node14&#45;&gt;Node15</title>
<path fill="none" stroke="midnightblue" d="M812.283,-56.324C821.836,-48.2631 836.28,-36.0765 847.784,-26.3695"/>
<polygon fill="midnightblue" stroke="midnightblue" points="850.144,-28.9577 855.53,-19.8339 845.63,-23.6076 850.144,-28.9577"/>
</g>
<!-- Node17 -->
<g id="node17" class="node"><title>Node17</title>
<polygon fill="white" stroke="#bfbfbf" points="130,-0.5 130,-19.5 208,-19.5 208,-0.5 130,-0.5"/>
<text text-anchor="middle" x="169" y="-7.5" font-family="Helvetica,sans-Serif" font-size="10.00">boost/any.hpp</text>
</g>
<!-- Node16&#45;&gt;Node17 -->
<g id="edge18" class="edge"><title>Node16&#45;&gt;Node17</title>
<path fill="none" stroke="midnightblue" d="M204.899,-56.083C198.763,-48.3768 189.73,-37.0333 182.261,-27.6531"/>
<polygon fill="midnightblue" stroke="midnightblue" points="184.936,-25.3936 175.968,-19.7511 179.46,-29.7542 184.936,-25.3936"/>
</g>
<!-- Node18 -->
<g id="node18" class="node"><title>Node18</title>
<polygon fill="white" stroke="#bfbfbf" points="443.5,-0.5 443.5,-19.5 478.5,-19.5 478.5,-0.5 443.5,-0.5"/>
<text text-anchor="middle" x="461" y="-7.5" font-family="Helvetica,sans-Serif" font-size="10.00">map</text>
</g>
<!-- Node16&#45;&gt;Node18 -->
<g id="edge19" class="edge"><title>Node16&#45;&gt;Node18</title>
<path fill="none" stroke="midnightblue" d="M245.581,-57.7173C295.335,-46.9273 387.685,-26.8997 433.604,-16.9413"/>
<polygon fill="midnightblue" stroke="midnightblue" points="434.416,-20.3466 443.447,-14.8066 432.933,-13.5056 434.416,-20.3466"/>
</g>
<!-- Node19 -->
<g id="node19" class="node"><title>Node19</title>
<polygon fill="white" stroke="#bfbfbf" points="226.5,-0.5 226.5,-19.5 285.5,-19.5 285.5,-0.5 226.5,-0.5"/>
<text text-anchor="middle" x="256" y="-7.5" font-family="Helvetica,sans-Serif" font-size="10.00">typeindex</text>
</g>
<!-- Node16&#45;&gt;Node19 -->
<g id="edge20" class="edge"><title>Node16&#45;&gt;Node19</title>
<path fill="none" stroke="midnightblue" d="M219.266,-56.083C225.545,-48.3768 234.788,-37.0333 242.431,-27.6531"/>
<polygon fill="midnightblue" stroke="midnightblue" points="245.266,-29.7143 248.869,-19.7511 239.839,-25.2926 245.266,-29.7143"/>
</g>
<!-- Node20 -->
<g id="node20" class="node"><title>Node20</title>
<polygon fill="white" stroke="#bfbfbf" points="303.5,-0.5 303.5,-19.5 354.5,-19.5 354.5,-0.5 303.5,-0.5"/>
<text text-anchor="middle" x="329" y="-7.5" font-family="Helvetica,sans-Serif" font-size="10.00">typeinfo</text>
</g>
<!-- Node16&#45;&gt;Node20 -->
<g id="edge21" class="edge"><title>Node16&#45;&gt;Node20</title>
<path fill="none" stroke="midnightblue" d="M230.539,-56.4435C249.623,-47.6356 279.575,-33.8116 301.436,-23.722"/>
<polygon fill="midnightblue" stroke="midnightblue" points="302.935,-26.8849 310.548,-19.5164 300.001,-20.5292 302.935,-26.8849"/>
</g>
<!-- Node21 -->
<g id="node21" class="node"><title>Node21</title>
<g id="a_node21"><a xlink:href="../../d3/de0/compile__time__crc32_8h.html" target="_top" xlink:title="compile_time_crc32.h">
<polygon fill="white" stroke="black" points="0,-0.5 0,-19.5 112,-19.5 112,-0.5 0,-0.5"/>
<text text-anchor="middle" x="56" y="-7.5" font-family="Helvetica,sans-Serif" font-size="10.00">compile_time_crc32.h</text>
</a>
</g>
</g>
<!-- Node16&#45;&gt;Node21 -->
<g id="edge22" class="edge"><title>Node16&#45;&gt;Node21</title>
<path fill="none" stroke="midnightblue" d="M187.281,-56.4435C161.152,-47.3986 119.741,-33.064 90.4236,-22.9158"/>
<polygon fill="midnightblue" stroke="midnightblue" points="91.1978,-19.4801 80.603,-19.5164 88.908,-26.0951 91.1978,-19.4801"/>
</g>
<!-- Node23&#45;&gt;Node12 -->
<g id="edge25" class="edge"><title>Node23&#45;&gt;Node12</title>
<path fill="none" stroke="midnightblue" d="M1059.62,-112.273C1058.58,-98.5992 1054.66,-72.0358 1040,-56 1029.1,-44.079 990.402,-29.9105 961.974,-20.7009"/>
<polygon fill="midnightblue" stroke="midnightblue" points="963.001,-17.3545 952.41,-17.6619 960.881,-24.0259 963.001,-17.3545"/>
</g>
<!-- Node24&#45;&gt;Node8 -->
<g id="edge27" class="edge"><title>Node24&#45;&gt;Node8</title>
<path fill="none" stroke="midnightblue" d="M963.895,-173.975C919.171,-163.415 842.917,-145.411 794.033,-133.869"/>
<polygon fill="midnightblue" stroke="midnightblue" points="794.575,-130.401 784.038,-131.509 792.967,-137.213 794.575,-130.401"/>
</g>
<!-- Node24&#45;&gt;Node23 -->
<g id="edge28" class="edge"><title>Node24&#45;&gt;Node23</title>
<path fill="none" stroke="midnightblue" d="M1008.6,-173.975C1017.86,-164.785 1032.82,-149.956 1044.21,-138.656"/>
<polygon fill="midnightblue" stroke="midnightblue" points="1046.78,-141.036 1051.42,-131.509 1041.85,-136.065 1046.78,-141.036"/>
</g>
<!-- Node24&#45;&gt;Node25 -->
<g id="edge29" class="edge"><title>Node24&#45;&gt;Node25</title>
<path fill="none" stroke="midnightblue" d="M990.257,-173.975C979.653,-164.697 962.481,-149.671 949.521,-138.331"/>
<polygon fill="midnightblue" stroke="midnightblue" points="951.555,-135.46 941.725,-131.509 946.946,-140.728 951.555,-135.46"/>
</g>
<!-- Node25&#45;&gt;Node11 -->
<g id="edge31" class="edge"><title>Node25&#45;&gt;Node11</title>
<path fill="none" stroke="midnightblue" d="M921.799,-112.368C899.776,-93.7334 847.538,-49.5324 819.885,-26.1338"/>
<polygon fill="midnightblue" stroke="midnightblue" points="822.048,-23.379 812.153,-19.5914 817.527,-28.7227 822.048,-23.379"/>
</g>
<!-- Node25&#45;&gt;Node12 -->
<g id="edge32" class="edge"><title>Node25&#45;&gt;Node12</title>
<path fill="none" stroke="midnightblue" d="M931.843,-112.368C931.52,-94.617 930.776,-53.6664 930.338,-29.5974"/>
<polygon fill="midnightblue" stroke="midnightblue" points="933.838,-29.5261 930.156,-19.5914 926.839,-29.6534 933.838,-29.5261"/>
</g>
<!-- Node25&#45;&gt;Node18 -->
<g id="edge30" class="edge"><title>Node25&#45;&gt;Node18</title>
<path fill="none" stroke="midnightblue" d="M900.51,-112.374C839.977,-95.8125 711.525,-60.7696 691,-56 618.477,-39.1472 532.115,-23.3945 488.754,-15.7803"/>
<polygon fill="midnightblue" stroke="midnightblue" points="489.144,-12.2955 478.691,-14.0241 487.941,-19.1913 489.144,-12.2955"/>
</g>
<!-- Node26 -->
<g id="node26" class="node"><title>Node26</title>
<g id="a_node26"><a xlink:href="../../d0/d16/marian_2src_2data_2types_8h.html" target="_top" xlink:title="data/types.h">
<polygon fill="white" stroke="black" points="960.5,-56.5 960.5,-75.5 1031.5,-75.5 1031.5,-56.5 960.5,-56.5"/>
<text text-anchor="middle" x="996" y="-63.5" font-family="Helvetica,sans-Serif" font-size="10.00">data/types.h</text>
</a>
</g>
</g>
<!-- Node25&#45;&gt;Node26 -->
<g id="edge33" class="edge"><title>Node25&#45;&gt;Node26</title>
<path fill="none" stroke="midnightblue" d="M942.283,-112.324C951.836,-104.263 966.28,-92.0765 977.784,-82.3695"/>
<polygon fill="midnightblue" stroke="midnightblue" points="980.144,-84.9577 985.53,-75.8339 975.63,-79.6076 980.144,-84.9577"/>
</g>
<!-- Node26&#45;&gt;Node12 -->
<g id="edge37" class="edge"><title>Node26&#45;&gt;Node12</title>
<path fill="none" stroke="midnightblue" d="M985.396,-56.324C975.544,-48.2631 960.649,-36.0765 948.785,-26.3695"/>
<polygon fill="midnightblue" stroke="midnightblue" points="950.753,-23.4575 940.797,-19.8339 946.32,-28.8752 950.753,-23.4575"/>
</g>
<!-- Node26&#45;&gt;Node15 -->
<g id="edge34" class="edge"><title>Node26&#45;&gt;Node15</title>
<path fill="none" stroke="midnightblue" d="M975.401,-56.4435C954.007,-47.5566 920.319,-33.5632 895.976,-23.4514"/>
<polygon fill="midnightblue" stroke="midnightblue" points="897.08,-20.1203 886.503,-19.5164 894.395,-26.5848 897.08,-20.1203"/>
</g>
<!-- Node27 -->
<g id="node27" class="node"><title>Node27</title>
<polygon fill="white" stroke="#bfbfbf" points="1071.5,-0.5 1071.5,-19.5 1116.5,-19.5 1116.5,-0.5 1071.5,-0.5"/>
<text text-anchor="middle" x="1094" y="-7.5" font-family="Helvetica,sans-Serif" font-size="10.00">cstdlib</text>
</g>
<!-- Node26&#45;&gt;Node27 -->
<g id="edge35" class="edge"><title>Node26&#45;&gt;Node27</title>
<path fill="none" stroke="midnightblue" d="M1011.75,-56.324C1027.32,-47.7428 1051.38,-34.486 1069.46,-24.5224"/>
<polygon fill="midnightblue" stroke="midnightblue" points="1071.22,-27.546 1078.29,-19.6545 1067.85,-21.4152 1071.22,-27.546"/>
</g>
<!-- Node28 -->
<g id="node28" class="node"><title>Node28</title>
<polygon fill="white" stroke="#bfbfbf" points="970.5,-0.5 970.5,-19.5 1053.5,-19.5 1053.5,-0.5 970.5,-0.5"/>
<text text-anchor="middle" x="1012" y="-7.5" font-family="Helvetica,sans-Serif" font-size="10.00">unordered_map</text>
</g>
<!-- Node26&#45;&gt;Node28 -->
<g id="edge36" class="edge"><title>Node26&#45;&gt;Node28</title>
<path fill="none" stroke="midnightblue" d="M998.642,-56.083C1000.79,-48.8486 1003.88,-38.4087 1006.55,-29.3968"/>
<polygon fill="midnightblue" stroke="midnightblue" points="1009.92,-30.3334 1009.41,-19.7511 1003.21,-28.3447 1009.92,-30.3334"/>
</g>
</g>
</svg>
