<?xml version="1.0" encoding="UTF-8" standalone="no"?>
<!DOCTYPE svg PUBLIC "-//W3C//DTD SVG 1.1//EN"
 "http://www.w3.org/Graphics/SVG/1.1/DTD/svg11.dtd">
<!-- Generated by graphviz version 2.38.0 (20140413.2041)
 -->
<!-- Title: marian::DecoderBase::selectEmbeddings Pages: 1 -->
<svg width="289pt" height="88pt"
 viewBox="0.00 0.00 289.00 88.00" xmlns="http://www.w3.org/2000/svg" xmlns:xlink="http://www.w3.org/1999/xlink">
<g id="graph0" class="graph" transform="scale(1 1) rotate(0) translate(4 84)">
<title>marian::DecoderBase::selectEmbeddings</title>
<polygon fill="white" stroke="none" points="-4,4 -4,-84 285,-84 285,4 -4,4"/>
<!-- Node1 -->
<g id="node1" class="node"><title>Node1</title>
<polygon fill="#bfbfbf" stroke="black" points="0,-24.5 0,-54.5 111,-54.5 111,-24.5 0,-24.5"/>
<text text-anchor="start" x="8" y="-42.5" font-family="Helvetica,sans-Serif" font-size="10.00">marian::DecoderBase</text>
<text text-anchor="middle" x="55.5" y="-31.5" font-family="Helvetica,sans-Serif" font-size="10.00">::selectEmbeddings</text>
</g>
<!-- Node2 -->
<g id="node2" class="node"><title>Node2</title>
<g id="a_node2"><a xlink:href="$d1/dcc/classmarian_1_1DecoderHardAtt.html#a7da3e691169734a9c952c6402e13f379" xlink:title="marian::DecoderHardAtt\l::selectEmbeddings">
<polygon fill="white" stroke="black" points="153,-49.5 153,-79.5 275,-79.5 275,-49.5 153,-49.5"/>
<text text-anchor="start" x="161" y="-67.5" font-family="Helvetica,sans-Serif" font-size="10.00">marian::DecoderHardAtt</text>
<text text-anchor="middle" x="214" y="-56.5" font-family="Helvetica,sans-Serif" font-size="10.00">::selectEmbeddings</text>
</a>
</g>
</g>
<!-- Node1&#45;&gt;Node2 -->
<g id="edge1" class="edge"><title>Node1&#45;&gt;Node2</title>
<path fill="none" stroke="midnightblue" d="M121.19,-49.8338C131.706,-51.5137 142.559,-53.2475 152.958,-54.9086"/>
<polygon fill="midnightblue" stroke="midnightblue" points="121.663,-46.3651 111.236,-48.2438 120.559,-53.2775 121.663,-46.3651"/>
</g>
<!-- Node3 -->
<g id="node3" class="node"><title>Node3</title>
<g id="a_node3"><a xlink:href="$d7/d30/classmarian_1_1MultiDecoderHardSoftAtt.html#a2c0c368e276e2db20c116b20497b1bb6" xlink:title="marian::MultiDecoderHard\lSoftAtt::selectEmbeddings">
<polygon fill="white" stroke="black" points="147,-0.5 147,-30.5 281,-30.5 281,-0.5 147,-0.5"/>
<text text-anchor="start" x="155" y="-18.5" font-family="Helvetica,sans-Serif" font-size="10.00">marian::MultiDecoderHard</text>
<text text-anchor="middle" x="214" y="-7.5" font-family="Helvetica,sans-Serif" font-size="10.00">SoftAtt::selectEmbeddings</text>
</a>
</g>
</g>
<!-- Node1&#45;&gt;Node3 -->
<g id="edge2" class="edge"><title>Node1&#45;&gt;Node3</title>
<path fill="none" stroke="midnightblue" d="M121.132,-29.5884C129.671,-28.2789 138.433,-26.9351 146.995,-25.6222"/>
<polygon fill="midnightblue" stroke="midnightblue" points="120.59,-26.1305 111.236,-31.106 121.651,-33.0496 120.59,-26.1305"/>
</g>
</g>
</svg>
