<?xml version="1.0" encoding="UTF-8" standalone="no"?>
<!DOCTYPE svg PUBLIC "-//W3C//DTD SVG 1.1//EN"
 "http://www.w3.org/Graphics/SVG/1.1/DTD/svg11.dtd">
<!-- Generated by graphviz version 2.38.0 (20140413.2041)
 -->
<!-- Title: thrust::detail::functional::Logit Pages: 1 -->
<svg width="297pt" height="88pt"
 viewBox="0.00 0.00 297.00 88.00" xmlns="http://www.w3.org/2000/svg" xmlns:xlink="http://www.w3.org/1999/xlink">
<g id="graph0" class="graph" transform="scale(1 1) rotate(0) translate(4 84)">
<title>thrust::detail::functional::Logit</title>
<polygon fill="white" stroke="none" points="-4,4 -4,-84 293,-84 293,4 -4,4"/>
<!-- Node1 -->
<g id="node1" class="node"><title>Node1</title>
<polygon fill="#bfbfbf" stroke="black" points="0,-24.5 0,-54.5 119,-54.5 119,-24.5 0,-24.5"/>
<text text-anchor="start" x="8" y="-42.5" font-family="Helvetica,sans-Serif" font-size="10.00">thrust::detail::functional</text>
<text text-anchor="middle" x="59.5" y="-31.5" font-family="Helvetica,sans-Serif" font-size="10.00">::Logit</text>
</g>
<!-- Node2 -->
<g id="node2" class="node"><title>Node2</title>
<g id="a_node2"><a xlink:href="$d8/dc9/classamunmt_1_1GPU_1_1SlowGRU.html#a56abd7ee93ad637ca54113fbc1427e01" xlink:title="amunmt::GPU::SlowGRU\l::GetNextState">
<polygon fill="white" stroke="black" points="157,-49.5 157,-79.5 287,-79.5 287,-49.5 157,-49.5"/>
<text text-anchor="start" x="165" y="-67.5" font-family="Helvetica,sans-Serif" font-size="10.00">amunmt::GPU::SlowGRU</text>
<text text-anchor="middle" x="222" y="-56.5" font-family="Helvetica,sans-Serif" font-size="10.00">::GetNextState</text>
</a>
</g>
</g>
<!-- Node1&#45;&gt;Node2 -->
<g id="edge1" class="edge"><title>Node1&#45;&gt;Node2</title>
<path fill="none" stroke="midnightblue" d="M129.468,-50.2426C138.522,-51.653 147.772,-53.0938 156.744,-54.4913"/>
<polygon fill="midnightblue" stroke="midnightblue" points="129.772,-46.748 119.353,-48.6671 128.695,-53.6646 129.772,-46.748"/>
</g>
<!-- Node3 -->
<g id="node3" class="node"><title>Node3</title>
<g id="a_node3"><a xlink:href="$df/de1/classamunmt_1_1GPU_1_1SlowLSTM.html#a445547f2b64a36f61c0a62dc682364f3" xlink:title="amunmt::GPU::SlowLSTM\l::GetNextState">
<polygon fill="white" stroke="black" points="155,-0.5 155,-30.5 289,-30.5 289,-0.5 155,-0.5"/>
<text text-anchor="start" x="163" y="-18.5" font-family="Helvetica,sans-Serif" font-size="10.00">amunmt::GPU::SlowLSTM</text>
<text text-anchor="middle" x="222" y="-7.5" font-family="Helvetica,sans-Serif" font-size="10.00">::GetNextState</text>
</a>
</g>
</g>
<!-- Node1&#45;&gt;Node3 -->
<g id="edge2" class="edge"><title>Node1&#45;&gt;Node3</title>
<path fill="none" stroke="midnightblue" d="M129.495,-29.1829C137.9,-27.9262 146.472,-26.6444 154.834,-25.3941"/>
<polygon fill="midnightblue" stroke="midnightblue" points="128.725,-25.7591 119.353,-30.6996 129.761,-32.6821 128.725,-25.7591"/>
</g>
</g>
</svg>
