<?xml version="1.0" encoding="UTF-8" standalone="no"?>
<!DOCTYPE svg PUBLIC "-//W3C//DTD SVG 1.1//EN"
 "http://www.w3.org/Graphics/SVG/1.1/DTD/svg11.dtd">
<!-- Generated by graphviz version 2.38.0 (20140413.2041)
 -->
<!-- Title: marian::Rescore&lt; Model &gt; Pages: 1 -->
<svg width="141pt" height="204pt"
 viewBox="0.00 0.00 141.00 204.00" xmlns="http://www.w3.org/2000/svg" xmlns:xlink="http://www.w3.org/1999/xlink">
<g id="graph0" class="graph" transform="scale(1 1) rotate(0) translate(4 200)">
<title>marian::Rescore&lt; Model &gt;</title>
<polygon fill="white" stroke="none" points="-4,4 -4,-200 137,-200 137,4 -4,4"/>
<!-- Node1 -->
<g id="node1" class="node"><title>Node1</title>
<polygon fill="#bfbfbf" stroke="black" points="0,-0.5 0,-101.5 133,-101.5 133,-0.5 0,-0.5"/>
<text text-anchor="middle" x="66.5" y="-89.5" font-family="Helvetica,sans-Serif" font-size="10.00">marian::Rescore&lt; Model &gt;</text>
<polyline fill="none" stroke="black" points="0,-82.5 133,-82.5 "/>
<text text-anchor="start" x="8" y="-70.5" font-family="Helvetica,sans-Serif" font-size="10.00">&#45; options_</text>
<text text-anchor="start" x="8" y="-59.5" font-family="Helvetica,sans-Serif" font-size="10.00">&#45; corpus_</text>
<text text-anchor="start" x="8" y="-48.5" font-family="Helvetica,sans-Serif" font-size="10.00">&#45; graph_</text>
<text text-anchor="start" x="8" y="-37.5" font-family="Helvetica,sans-Serif" font-size="10.00">&#45; model_</text>
<polyline fill="none" stroke="black" points="0,-30.5 133,-30.5 "/>
<text text-anchor="start" x="8" y="-18.5" font-family="Helvetica,sans-Serif" font-size="10.00">+ Rescore()</text>
<text text-anchor="start" x="8" y="-7.5" font-family="Helvetica,sans-Serif" font-size="10.00">+ run()</text>
</g>
<!-- Node2 -->
<g id="node2" class="node"><title>Node2</title>
<g id="a_node2"><a xlink:href="../../de/d2d/structmarian_1_1ModelTask.html" target="_top" xlink:title="{marian::ModelTask\n||+ run()\l}">
<polygon fill="white" stroke="black" points="16.5,-138.5 16.5,-195.5 116.5,-195.5 116.5,-138.5 16.5,-138.5"/>
<text text-anchor="middle" x="66.5" y="-183.5" font-family="Helvetica,sans-Serif" font-size="10.00">marian::ModelTask</text>
<polyline fill="none" stroke="black" points="16.5,-176.5 116.5,-176.5 "/>
<text text-anchor="middle" x="66.5" y="-164.5" font-family="Helvetica,sans-Serif" font-size="10.00"> </text>
<polyline fill="none" stroke="black" points="16.5,-157.5 116.5,-157.5 "/>
<text text-anchor="start" x="24.5" y="-145.5" font-family="Helvetica,sans-Serif" font-size="10.00">+ run()</text>
</a>
</g>
</g>
<!-- Node2&#45;&gt;Node1 -->
<g id="edge1" class="edge"><title>Node2&#45;&gt;Node1</title>
<path fill="none" stroke="midnightblue" d="M66.5,-128.354C66.5,-119.796 66.5,-110.578 66.5,-101.608"/>
<polygon fill="none" stroke="midnightblue" points="63.0001,-128.404 66.5,-138.404 70.0001,-128.404 63.0001,-128.404"/>
</g>
</g>
</svg>
