<?xml version="1.0" encoding="UTF-8" standalone="no"?>
<!DOCTYPE svg PUBLIC "-//W3C//DTD SVG 1.1//EN"
 "http://www.w3.org/Graphics/SVG/1.1/DTD/svg11.dtd">
<!-- Generated by graphviz version 2.38.0 (20140413.2041)
 -->
<!-- Title: search.h Pages: 1 -->
<svg width="469pt" height="84pt"
 viewBox="0.00 0.00 468.50 84.00" xmlns="http://www.w3.org/2000/svg" xmlns:xlink="http://www.w3.org/1999/xlink">
<g id="graph0" class="graph" transform="scale(1 1) rotate(0) translate(4 80)">
<title>search.h</title>
<polygon fill="white" stroke="none" points="-4,4 -4,-80 464.5,-80 464.5,4 -4,4"/>
<!-- Node1 -->
<g id="node1" class="node"><title>Node1</title>
<polygon fill="#bfbfbf" stroke="black" points="189,-56.5 189,-75.5 243,-75.5 243,-56.5 189,-56.5"/>
<text text-anchor="middle" x="216" y="-63.5" font-family="Helvetica,sans-Serif" font-size="10.00">search.h</text>
</g>
<!-- Node2 -->
<g id="node2" class="node"><title>Node2</title>
<g id="a_node2"><a xlink:href="$d0/d73/decoder__main_8cpp.html" xlink:title="decoder_main.cpp">
<polygon fill="white" stroke="black" points="0,-0.5 0,-19.5 96,-19.5 96,-0.5 0,-0.5"/>
<text text-anchor="middle" x="48" y="-7.5" font-family="Helvetica,sans-Serif" font-size="10.00">decoder_main.cpp</text>
</a>
</g>
</g>
<!-- Node1&#45;&gt;Node2 -->
<g id="edge1" class="edge"><title>Node1&#45;&gt;Node2</title>
<path fill="none" stroke="midnightblue" d="M179.614,-53.3044C147.958,-43.1294 102.832,-28.6246 74.4956,-19.5164"/>
<polygon fill="midnightblue" stroke="midnightblue" points="178.789,-56.7155 189.38,-56.4435 180.931,-50.0513 178.789,-56.7155"/>
</g>
<!-- Node3 -->
<g id="node3" class="node"><title>Node3</title>
<g id="a_node3"><a xlink:href="$d3/d73/god_8cpp.html" xlink:title="god.cpp">
<polygon fill="white" stroke="black" points="114.5,-0.5 114.5,-19.5 165.5,-19.5 165.5,-0.5 114.5,-0.5"/>
<text text-anchor="middle" x="140" y="-7.5" font-family="Helvetica,sans-Serif" font-size="10.00">god.cpp</text>
</a>
</g>
</g>
<!-- Node1&#45;&gt;Node3 -->
<g id="edge2" class="edge"><title>Node1&#45;&gt;Node3</title>
<path fill="none" stroke="midnightblue" d="M195.424,-50.3804C181.688,-40.6204 164.075,-28.1057 152.433,-19.8339"/>
<polygon fill="midnightblue" stroke="midnightblue" points="193.61,-53.385 203.789,-56.324 197.665,-47.6787 193.61,-53.385"/>
</g>
<!-- Node4 -->
<g id="node4" class="node"><title>Node4</title>
<g id="a_node4"><a xlink:href="$d9/def/search_8cpp.html" xlink:title="search.cpp">
<polygon fill="white" stroke="black" points="183.5,-0.5 183.5,-19.5 248.5,-19.5 248.5,-0.5 183.5,-0.5"/>
<text text-anchor="middle" x="216" y="-7.5" font-family="Helvetica,sans-Serif" font-size="10.00">search.cpp</text>
</a>
</g>
</g>
<!-- Node1&#45;&gt;Node4 -->
<g id="edge3" class="edge"><title>Node1&#45;&gt;Node4</title>
<path fill="none" stroke="midnightblue" d="M216,-45.8045C216,-36.9102 216,-26.7798 216,-19.7511"/>
<polygon fill="midnightblue" stroke="midnightblue" points="212.5,-46.083 216,-56.083 219.5,-46.083 212.5,-46.083"/>
</g>
<!-- Node5 -->
<g id="node5" class="node"><title>Node5</title>
<g id="a_node5"><a xlink:href="$df/d6f/translation__task_8cpp.html" xlink:title="translation_task.cpp">
<polygon fill="white" stroke="black" points="267,-0.5 267,-19.5 371,-19.5 371,-0.5 267,-0.5"/>
<text text-anchor="middle" x="319" y="-7.5" font-family="Helvetica,sans-Serif" font-size="10.00">translation_task.cpp</text>
</a>
</g>
</g>
<!-- Node1&#45;&gt;Node5 -->
<g id="edge4" class="edge"><title>Node1&#45;&gt;Node5</title>
<path fill="none" stroke="midnightblue" d="M241.579,-51.5895C260.623,-41.6052 286.064,-28.2672 302.492,-19.6545"/>
<polygon fill="midnightblue" stroke="midnightblue" points="239.78,-48.5808 232.549,-56.324 243.031,-54.7805 239.78,-48.5808"/>
</g>
<!-- Node6 -->
<g id="node6" class="node"><title>Node6</title>
<g id="a_node6"><a xlink:href="$d5/d49/amunmt_8cpp.html" xlink:title="amunmt.cpp">
<polygon fill="white" stroke="black" points="389.5,-0.5 389.5,-19.5 460.5,-19.5 460.5,-0.5 389.5,-0.5"/>
<text text-anchor="middle" x="425" y="-7.5" font-family="Helvetica,sans-Serif" font-size="10.00">amunmt.cpp</text>
</a>
</g>
</g>
<!-- Node1&#45;&gt;Node6 -->
<g id="edge5" class="edge"><title>Node1&#45;&gt;Node6</title>
<path fill="none" stroke="midnightblue" d="M253.061,-55.4245C292.402,-45.2597 354.005,-29.3431 391.808,-19.576"/>
<polygon fill="midnightblue" stroke="midnightblue" points="252.13,-52.0501 243.323,-57.9404 253.881,-58.8275 252.13,-52.0501"/>
</g>
</g>
</svg>
