<?xml version="1.0" encoding="UTF-8" standalone="no"?>
<!DOCTYPE svg PUBLIC "-//W3C//DTD SVG 1.1//EN"
 "http://www.w3.org/Graphics/SVG/1.1/DTD/svg11.dtd">
<!-- Generated by graphviz version 2.38.0 (20140413.2041)
 -->
<!-- Title: marian::SparseTensorBase Pages: 1 -->
<svg width="172pt" height="402pt"
 viewBox="0.00 0.00 172.00 402.00" xmlns="http://www.w3.org/2000/svg" xmlns:xlink="http://www.w3.org/1999/xlink">
<g id="graph0" class="graph" transform="scale(1 1) rotate(0) translate(4 398)">
<title>marian::SparseTensorBase</title>
<polygon fill="white" stroke="none" points="-4,4 -4,-398 168,-398 168,4 -4,4"/>
<!-- Node1 -->
<g id="node1" class="node"><title>Node1</title>
<polygon fill="#bfbfbf" stroke="black" points="14.5,-0.5 14.5,-288.5 149.5,-288.5 149.5,-0.5 14.5,-0.5"/>
<text text-anchor="middle" x="82" y="-276.5" font-family="Helvetica,sans-Serif" font-size="10.00">marian::SparseTensorBase</text>
<polyline fill="none" stroke="black" points="14.5,-269.5 149.5,-269.5 "/>
<text text-anchor="start" x="22.5" y="-257.5" font-family="Helvetica,sans-Serif" font-size="10.00">&#45; data_</text>
<text text-anchor="start" x="22.5" y="-246.5" font-family="Helvetica,sans-Serif" font-size="10.00">&#45; indices_</text>
<text text-anchor="start" x="22.5" y="-235.5" font-family="Helvetica,sans-Serif" font-size="10.00">&#45; size_</text>
<text text-anchor="start" x="22.5" y="-224.5" font-family="Helvetica,sans-Serif" font-size="10.00">&#45; capacity_</text>
<text text-anchor="start" x="22.5" y="-213.5" font-family="Helvetica,sans-Serif" font-size="10.00">&#45; device_</text>
<text text-anchor="start" x="22.5" y="-202.5" font-family="Helvetica,sans-Serif" font-size="10.00">&#45; d_is_unsorted</text>
<text text-anchor="start" x="22.5" y="-191.5" font-family="Helvetica,sans-Serif" font-size="10.00">&#45; gstart_</text>
<text text-anchor="start" x="22.5" y="-180.5" font-family="Helvetica,sans-Serif" font-size="10.00">&#45; gend_</text>
<polyline fill="none" stroke="black" points="14.5,-173.5 149.5,-173.5 "/>
<text text-anchor="start" x="22.5" y="-161.5" font-family="Helvetica,sans-Serif" font-size="10.00">+ SparseTensorBase()</text>
<text text-anchor="start" x="22.5" y="-150.5" font-family="Helvetica,sans-Serif" font-size="10.00">+ SparseTensorBase()</text>
<text text-anchor="start" x="22.5" y="-139.5" font-family="Helvetica,sans-Serif" font-size="10.00">+ ~SparseTensorBase()</text>
<text text-anchor="start" x="22.5" y="-128.5" font-family="Helvetica,sans-Serif" font-size="10.00">+ capacity()</text>
<text text-anchor="start" x="22.5" y="-117.5" font-family="Helvetica,sans-Serif" font-size="10.00">+ size()</text>
<text text-anchor="start" x="22.5" y="-106.5" font-family="Helvetica,sans-Serif" font-size="10.00">+ data()</text>
<text text-anchor="start" x="22.5" y="-95.5" font-family="Helvetica,sans-Serif" font-size="10.00">+ indices()</text>
<text text-anchor="start" x="22.5" y="-84.5" font-family="Helvetica,sans-Serif" font-size="10.00">+ copyFrom()</text>
<text text-anchor="start" x="22.5" y="-73.5" font-family="Helvetica,sans-Serif" font-size="10.00">+ copyFrom()</text>
<text text-anchor="start" x="22.5" y="-62.5" font-family="Helvetica,sans-Serif" font-size="10.00">+ copyFromDense()</text>
<text text-anchor="start" x="22.5" y="-51.5" font-family="Helvetica,sans-Serif" font-size="10.00">+ getDevice()</text>
<text text-anchor="start" x="22.5" y="-40.5" font-family="Helvetica,sans-Serif" font-size="10.00">+ setSize()</text>
<text text-anchor="start" x="22.5" y="-29.5" font-family="Helvetica,sans-Serif" font-size="10.00">+ toDense()</text>
<text text-anchor="start" x="22.5" y="-18.5" font-family="Helvetica,sans-Serif" font-size="10.00">+ scatterAdd()</text>
<text text-anchor="start" x="22.5" y="-7.5" font-family="Helvetica,sans-Serif" font-size="10.00">+ subtensor()</text>
</g>
<!-- Node2 -->
<g id="node2" class="node"><title>Node2</title>
<polygon fill="white" stroke="#bfbfbf" points="0,-325.5 0,-393.5 164,-393.5 164,-325.5 0,-325.5"/>
<text text-anchor="start" x="8" y="-381.5" font-family="Helvetica,sans-Serif" font-size="10.00">std::enable_shared</text>
<text text-anchor="middle" x="82" y="-370.5" font-family="Helvetica,sans-Serif" font-size="10.00">_from_this&lt; SparseTensorBase &gt;</text>
<polyline fill="none" stroke="#bfbfbf" points="0,-363.5 164,-363.5 "/>
<text text-anchor="middle" x="82" y="-351.5" font-family="Helvetica,sans-Serif" font-size="10.00"> </text>
<polyline fill="none" stroke="#bfbfbf" points="0,-344.5 164,-344.5 "/>
<text text-anchor="middle" x="82" y="-332.5" font-family="Helvetica,sans-Serif" font-size="10.00"> </text>
</g>
<!-- Node2&#45;&gt;Node1 -->
<g id="edge1" class="edge"><title>Node2&#45;&gt;Node1</title>
<path fill="none" stroke="midnightblue" d="M82,-314.988C82,-306.848 82,-297.942 82,-288.608"/>
<polygon fill="none" stroke="midnightblue" points="78.5001,-315.219 82,-325.219 85.5001,-315.219 78.5001,-315.219"/>
</g>
</g>
</svg>
