<?xml version="1.0" encoding="UTF-8" standalone="no"?>
<!DOCTYPE svg PUBLIC "-//W3C//DTD SVG 1.1//EN"
 "http://www.w3.org/Graphics/SVG/1.1/DTD/svg11.dtd">
<!-- Generated by graphviz version 2.38.0 (20140413.2041)
 -->
<!-- Title: marian::rnn::States::push_back Pages: 1 -->
<svg width="413pt" height="88pt"
 viewBox="0.00 0.00 413.00 88.00" xmlns="http://www.w3.org/2000/svg" xmlns:xlink="http://www.w3.org/1999/xlink">
<g id="graph0" class="graph" transform="scale(1 1) rotate(0) translate(4 84)">
<title>marian::rnn::States::push_back</title>
<polygon fill="white" stroke="none" points="-4,4 -4,-84 409,-84 409,4 -4,4"/>
<!-- Node1 -->
<g id="node1" class="node"><title>Node1</title>
<polygon fill="#bfbfbf" stroke="black" points="0,-24.5 0,-54.5 100,-54.5 100,-24.5 0,-24.5"/>
<text text-anchor="start" x="8" y="-42.5" font-family="Helvetica,sans-Serif" font-size="10.00">marian::rnn::States</text>
<text text-anchor="middle" x="50" y="-31.5" font-family="Helvetica,sans-Serif" font-size="10.00">::push_back</text>
</g>
<!-- Node2 -->
<g id="node2" class="node"><title>Node2</title>
<g id="a_node2"><a xlink:href="../../dc/d39/classmarian_1_1rnn_1_1States.html#a73f73fda27e8dcb664513b3e7dc94584" target="_top" xlink:title="marian::rnn::States\l::select">
<polygon fill="white" stroke="black" points="136,-24.5 136,-54.5 236,-54.5 236,-24.5 136,-24.5"/>
<text text-anchor="start" x="144" y="-42.5" font-family="Helvetica,sans-Serif" font-size="10.00">marian::rnn::States</text>
<text text-anchor="middle" x="186" y="-31.5" font-family="Helvetica,sans-Serif" font-size="10.00">::select</text>
</a>
</g>
</g>
<!-- Node1&#45;&gt;Node2 -->
<g id="edge1" class="edge"><title>Node1&#45;&gt;Node2</title>
<path fill="none" stroke="midnightblue" d="M110.398,-39.5C118.909,-39.5 127.586,-39.5 135.87,-39.5"/>
<polygon fill="midnightblue" stroke="midnightblue" points="110.136,-36.0001 100.136,-39.5 110.136,-43.0001 110.136,-36.0001"/>
</g>
<!-- Node3 -->
<g id="node3" class="node"><title>Node3</title>
<g id="a_node3"><a xlink:href="../../d0/d78/classmarian_1_1DecoderStateHardAtt.html#adc303898f195c6db90b67dab9444f4f1" target="_top" xlink:title="marian::DecoderStateHard\lAtt::select">
<polygon fill="white" stroke="black" points="272,-49.5 272,-79.5 405,-79.5 405,-49.5 272,-49.5"/>
<text text-anchor="start" x="280" y="-67.5" font-family="Helvetica,sans-Serif" font-size="10.00">marian::DecoderStateHard</text>
<text text-anchor="middle" x="338.5" y="-56.5" font-family="Helvetica,sans-Serif" font-size="10.00">Att::select</text>
</a>
</g>
</g>
<!-- Node2&#45;&gt;Node3 -->
<g id="edge2" class="edge"><title>Node2&#45;&gt;Node3</title>
<path fill="none" stroke="midnightblue" d="M246.364,-49.3611C254.769,-50.7573 263.451,-52.1995 271.964,-53.6136"/>
<polygon fill="midnightblue" stroke="midnightblue" points="246.718,-45.872 236.279,-47.6859 245.571,-52.7774 246.718,-45.872"/>
</g>
<!-- Node4 -->
<g id="node4" class="node"><title>Node4</title>
<g id="a_node4"><a xlink:href="../../da/d12/classmarian_1_1DecoderState.html#af0f090185bd8f34b53b6a3cf79d7eea3" target="_top" xlink:title="marian::DecoderState\l::select">
<polygon fill="white" stroke="black" points="282.5,-0.5 282.5,-30.5 394.5,-30.5 394.5,-0.5 282.5,-0.5"/>
<text text-anchor="start" x="290.5" y="-18.5" font-family="Helvetica,sans-Serif" font-size="10.00">marian::DecoderState</text>
<text text-anchor="middle" x="338.5" y="-7.5" font-family="Helvetica,sans-Serif" font-size="10.00">::select</text>
</a>
</g>
</g>
<!-- Node2&#45;&gt;Node4 -->
<g id="edge3" class="edge"><title>Node2&#45;&gt;Node4</title>
<path fill="none" stroke="midnightblue" d="M246.504,-30.011C258.333,-28.1247 270.706,-26.1516 282.381,-24.2898"/>
<polygon fill="midnightblue" stroke="midnightblue" points="245.603,-26.6103 236.279,-31.6415 246.706,-33.523 245.603,-26.6103"/>
</g>
</g>
</svg>
