<?xml version="1.0" encoding="UTF-8" standalone="no"?>
<!DOCTYPE svg PUBLIC "-//W3C//DTD SVG 1.1//EN"
 "http://www.w3.org/Graphics/SVG/1.1/DTD/svg11.dtd">
<!-- Generated by graphviz version 2.38.0 (20140413.2041)
 -->
<!-- Title: marian::AsyncGraphGroup&lt; Builder &gt; Pages: 1 -->
<svg width="1917pt" height="534pt"
 viewBox="0.00 0.00 1916.50 534.00" xmlns="http://www.w3.org/2000/svg" xmlns:xlink="http://www.w3.org/1999/xlink">
<g id="graph0" class="graph" transform="scale(1 1) rotate(0) translate(4 530)">
<title>marian::AsyncGraphGroup&lt; Builder &gt;</title>
<polygon fill="white" stroke="none" points="-4,4 -4,-530 1912.5,-530 1912.5,4 -4,4"/>
<!-- Node1 -->
<g id="node1" class="node"><title>Node1</title>
<polygon fill="#bfbfbf" stroke="black" points="916,-0.5 916,-321.5 1048,-321.5 1048,-0.5 916,-0.5"/>
<text text-anchor="start" x="924" y="-309.5" font-family="Helvetica,sans-Serif" font-size="10.00">marian::AsyncGraphGroup</text>
<text text-anchor="middle" x="982" y="-298.5" font-family="Helvetica,sans-Serif" font-size="10.00">&lt; Builder &gt;</text>
<polyline fill="none" stroke="black" points="916,-291.5 1048,-291.5 "/>
<text text-anchor="start" x="924" y="-279.5" font-family="Helvetica,sans-Serif" font-size="10.00">&#45; first_</text>
<text text-anchor="start" x="924" y="-268.5" font-family="Helvetica,sans-Serif" font-size="10.00">&#45; scheduler_</text>
<text text-anchor="start" x="924" y="-257.5" font-family="Helvetica,sans-Serif" font-size="10.00">&#45; sync_</text>
<text text-anchor="start" x="924" y="-246.5" font-family="Helvetica,sans-Serif" font-size="10.00">&#45; schedulerMutex_</text>
<text text-anchor="start" x="924" y="-235.5" font-family="Helvetica,sans-Serif" font-size="10.00">&#45; shardSize_</text>
<text text-anchor="start" x="924" y="-224.5" font-family="Helvetica,sans-Serif" font-size="10.00">&#45; tau_</text>
<text text-anchor="start" x="924" y="-213.5" font-family="Helvetica,sans-Serif" font-size="10.00">&#45; movingAvg_</text>
<text text-anchor="start" x="924" y="-202.5" font-family="Helvetica,sans-Serif" font-size="10.00">&#45; mvDecay_</text>
<text text-anchor="start" x="924" y="-191.5" font-family="Helvetica,sans-Serif" font-size="10.00">&#45; pool_</text>
<text text-anchor="start" x="924" y="-180.5" font-family="Helvetica,sans-Serif" font-size="10.00">&#45; drop_rate_</text>
<text text-anchor="start" x="924" y="-169.5" font-family="Helvetica,sans-Serif" font-size="10.00">&#45; history_size_</text>
<polyline fill="none" stroke="black" points="916,-162.5 1048,-162.5 "/>
<text text-anchor="start" x="924" y="-150.5" font-family="Helvetica,sans-Serif" font-size="10.00">+ setScheduler()</text>
<text text-anchor="start" x="924" y="-139.5" font-family="Helvetica,sans-Serif" font-size="10.00">+ AsyncGraphGroup()</text>
<text text-anchor="start" x="924" y="-128.5" font-family="Helvetica,sans-Serif" font-size="10.00">+ update()</text>
<text text-anchor="start" x="924" y="-117.5" font-family="Helvetica,sans-Serif" font-size="10.00">+ load()</text>
<text text-anchor="start" x="924" y="-106.5" font-family="Helvetica,sans-Serif" font-size="10.00">+ save()</text>
<text text-anchor="start" x="924" y="-95.5" font-family="Helvetica,sans-Serif" font-size="10.00">+ save()</text>
<text text-anchor="start" x="924" y="-84.5" font-family="Helvetica,sans-Serif" font-size="10.00">+ collectStats()</text>
<text text-anchor="start" x="924" y="-73.5" font-family="Helvetica,sans-Serif" font-size="10.00">&#45; newTensor()</text>
<text text-anchor="start" x="924" y="-62.5" font-family="Helvetica,sans-Serif" font-size="10.00">&#45; fetchParams()</text>
<text text-anchor="start" x="924" y="-51.5" font-family="Helvetica,sans-Serif" font-size="10.00">&#45; pushGradients()</text>
<text text-anchor="start" x="924" y="-40.5" font-family="Helvetica,sans-Serif" font-size="10.00">&#45; sparseFetchParams()</text>
<text text-anchor="start" x="924" y="-29.5" font-family="Helvetica,sans-Serif" font-size="10.00">&#45; sparsePush()</text>
<text text-anchor="start" x="924" y="-18.5" font-family="Helvetica,sans-Serif" font-size="10.00">&#45; updateMovingAverage()</text>
<text text-anchor="start" x="924" y="-7.5" font-family="Helvetica,sans-Serif" font-size="10.00">&#45; execute()</text>
</g>
<!-- Node2 -->
<g id="node2" class="node"><title>Node2</title>
<g id="a_node2"><a xlink:href="../../d9/dbe/classmarian_1_1GraphGroup.html" target="_top" xlink:title="{marian::GraphGroup\n|# options_\l# opt_\l|+ GraphGroup()\l+ ~GraphGroup()\l+ update()\l+ load()\l+ save()\l+ collectStats()\l}">
<polygon fill="white" stroke="black" points="0,-402.5 0,-525.5 104,-525.5 104,-402.5 0,-402.5"/>
<text text-anchor="middle" x="52" y="-513.5" font-family="Helvetica,sans-Serif" font-size="10.00">marian::GraphGroup</text>
<polyline fill="none" stroke="black" points="0,-506.5 104,-506.5 "/>
<text text-anchor="start" x="8" y="-494.5" font-family="Helvetica,sans-Serif" font-size="10.00"># options_</text>
<text text-anchor="start" x="8" y="-483.5" font-family="Helvetica,sans-Serif" font-size="10.00"># opt_</text>
<polyline fill="none" stroke="black" points="0,-476.5 104,-476.5 "/>
<text text-anchor="start" x="8" y="-464.5" font-family="Helvetica,sans-Serif" font-size="10.00">+ GraphGroup()</text>
<text text-anchor="start" x="8" y="-453.5" font-family="Helvetica,sans-Serif" font-size="10.00">+ ~GraphGroup()</text>
<text text-anchor="start" x="8" y="-442.5" font-family="Helvetica,sans-Serif" font-size="10.00">+ update()</text>
<text text-anchor="start" x="8" y="-431.5" font-family="Helvetica,sans-Serif" font-size="10.00">+ load()</text>
<text text-anchor="start" x="8" y="-420.5" font-family="Helvetica,sans-Serif" font-size="10.00">+ save()</text>
<text text-anchor="start" x="8" y="-409.5" font-family="Helvetica,sans-Serif" font-size="10.00">+ collectStats()</text>
</a>
</g>
</g>
<!-- Node2&#45;&gt;Node1 -->
<g id="edge1" class="edge"><title>Node2&#45;&gt;Node1</title>
<path fill="none" stroke="midnightblue" d="M112.436,-402.37C112.624,-402.246 112.812,-402.123 113,-402 176.894,-360.363 200.322,-363.107 273,-340 505.818,-265.979 789.392,-202.631 915.747,-175.759"/>
<polygon fill="none" stroke="midnightblue" points="110.176,-399.683 104.072,-408.343 114.244,-405.379 110.176,-399.683"/>
</g>
<!-- Node3 -->
<g id="node3" class="node"><title>Node3</title>
<polygon fill="white" stroke="#bfbfbf" points="122,-435.5 122,-492.5 250,-492.5 250,-435.5 122,-435.5"/>
<text text-anchor="middle" x="186" y="-480.5" font-family="Helvetica,sans-Serif" font-size="10.00">std::vector&lt; std::mutex &gt;</text>
<polyline fill="none" stroke="#bfbfbf" points="122,-473.5 250,-473.5 "/>
<text text-anchor="middle" x="186" y="-461.5" font-family="Helvetica,sans-Serif" font-size="10.00"> </text>
<polyline fill="none" stroke="#bfbfbf" points="122,-454.5 250,-454.5 "/>
<text text-anchor="middle" x="186" y="-442.5" font-family="Helvetica,sans-Serif" font-size="10.00"> </text>
</g>
<!-- Node3&#45;&gt;Node1 -->
<g id="edge2" class="edge"><title>Node3&#45;&gt;Node1</title>
<path fill="none" stroke="#404040" d="M214.561,-435.306C245.136,-407.191 296.268,-364.423 348,-340 537.597,-250.49 780.916,-197.877 903.685,-175.233"/>
<polygon fill="none" stroke="#404040" points="903.737,-175.223 908.921,-170.211 915.542,-173.07 910.357,-178.082 903.737,-175.223"/>
<text text-anchor="middle" x="377" y="-359.5" font-family="Helvetica,sans-Serif" font-size="10.00"> &#45;shardSync_</text>
</g>
<!-- Node4 -->
<g id="node4" class="node"><title>Node4</title>
<polygon fill="white" stroke="#bfbfbf" points="268.5,-430 268.5,-498 387.5,-498 387.5,-430 268.5,-430"/>
<text text-anchor="start" x="276.5" y="-486" font-family="Helvetica,sans-Serif" font-size="10.00">std::vector&lt; std::vector</text>
<text text-anchor="middle" x="328" y="-475" font-family="Helvetica,sans-Serif" font-size="10.00">&lt; int &gt; &gt;</text>
<polyline fill="none" stroke="#bfbfbf" points="268.5,-468 387.5,-468 "/>
<text text-anchor="middle" x="328" y="-456" font-family="Helvetica,sans-Serif" font-size="10.00"> </text>
<polyline fill="none" stroke="#bfbfbf" points="268.5,-449 387.5,-449 "/>
<text text-anchor="middle" x="328" y="-437" font-family="Helvetica,sans-Serif" font-size="10.00"> </text>
</g>
<!-- Node4&#45;&gt;Node1 -->
<g id="edge3" class="edge"><title>Node4&#45;&gt;Node1</title>
<path fill="none" stroke="#404040" d="M357.986,-429.94C384.377,-402.555 425.042,-364.32 467,-340 610.824,-256.636 799.861,-203.847 904.27,-178.939"/>
<polygon fill="none" stroke="#404040" points="904.278,-178.937 909.2,-173.667 915.958,-176.183 911.036,-181.453 904.278,-178.937"/>
<text text-anchor="middle" x="517" y="-359.5" font-family="Helvetica,sans-Serif" font-size="10.00"> &#45;localVersionNumbers</text>
</g>
<!-- Node5 -->
<g id="node5" class="node"><title>Node5</title>
<polygon fill="white" stroke="#bfbfbf" points="405.5,-430 405.5,-498 528.5,-498 528.5,-430 405.5,-430"/>
<text text-anchor="start" x="413.5" y="-486" font-family="Helvetica,sans-Serif" font-size="10.00">std::vector&lt; Ptr&lt; marian</text>
<text text-anchor="middle" x="467" y="-475" font-family="Helvetica,sans-Serif" font-size="10.00">::OptimizerBase &gt; &gt;</text>
<polyline fill="none" stroke="#bfbfbf" points="405.5,-468 528.5,-468 "/>
<text text-anchor="middle" x="467" y="-456" font-family="Helvetica,sans-Serif" font-size="10.00"> </text>
<polyline fill="none" stroke="#bfbfbf" points="405.5,-449 528.5,-449 "/>
<text text-anchor="middle" x="467" y="-437" font-family="Helvetica,sans-Serif" font-size="10.00"> </text>
</g>
<!-- Node5&#45;&gt;Node1 -->
<g id="edge4" class="edge"><title>Node5&#45;&gt;Node1</title>
<path fill="none" stroke="#404040" d="M503.255,-429.724C513.879,-420.439 525.686,-410.557 537,-402 655.619,-312.29 812.152,-236.198 904.452,-194.995"/>
<polygon fill="none" stroke="#404040" points="904.689,-194.89 908.551,-188.8 915.658,-190.023 911.796,-196.113 904.689,-194.89"/>
<text text-anchor="middle" x="643" y="-359.5" font-family="Helvetica,sans-Serif" font-size="10.00"> &#45;shardOpt_</text>
</g>
<!-- Node6 -->
<g id="node6" class="node"><title>Node6</title>
<polygon fill="white" stroke="#bfbfbf" points="546.5,-430 546.5,-498 669.5,-498 669.5,-430 546.5,-430"/>
<text text-anchor="start" x="554.5" y="-486" font-family="Helvetica,sans-Serif" font-size="10.00">std::vector&lt; Ptr&lt; marian</text>
<text text-anchor="middle" x="608" y="-475" font-family="Helvetica,sans-Serif" font-size="10.00">::TensorAllocator &gt; &gt;</text>
<polyline fill="none" stroke="#bfbfbf" points="546.5,-468 669.5,-468 "/>
<text text-anchor="middle" x="608" y="-456" font-family="Helvetica,sans-Serif" font-size="10.00"> </text>
<polyline fill="none" stroke="#bfbfbf" points="546.5,-449 669.5,-449 "/>
<text text-anchor="middle" x="608" y="-437" font-family="Helvetica,sans-Serif" font-size="10.00"> </text>
</g>
<!-- Node6&#45;&gt;Node1 -->
<g id="edge5" class="edge"><title>Node6&#45;&gt;Node1</title>
<path fill="none" stroke="#404040" d="M639.675,-429.792C664.66,-404.234 700.871,-368.567 735,-340 789.888,-294.056 855.823,-246.911 905.759,-212.691"/>
<polygon fill="none" stroke="#404040" points="905.932,-212.573 908.632,-205.886 915.843,-205.807 913.143,-212.494 905.932,-212.573"/>
<text text-anchor="middle" x="775" y="-376" font-family="Helvetica,sans-Serif" font-size="10.00"> &#45;allocators</text>
<text text-anchor="middle" x="775" y="-365" font-family="Helvetica,sans-Serif" font-size="10.00">&#45;paramsAllocAvg_</text>
<text text-anchor="middle" x="775" y="-354" font-family="Helvetica,sans-Serif" font-size="10.00">&#45;paramsAlloc_</text>
<text text-anchor="middle" x="775" y="-343" font-family="Helvetica,sans-Serif" font-size="10.00">&#45;gradsAlloc_</text>
</g>
<!-- Node7 -->
<g id="node7" class="node"><title>Node7</title>
<polygon fill="white" stroke="#bfbfbf" points="688,-435.5 688,-492.5 830,-492.5 830,-435.5 688,-435.5"/>
<text text-anchor="middle" x="759" y="-480.5" font-family="Helvetica,sans-Serif" font-size="10.00">std::vector&lt; Ptr&lt; Builder &gt; &gt;</text>
<polyline fill="none" stroke="#bfbfbf" points="688,-473.5 830,-473.5 "/>
<text text-anchor="middle" x="759" y="-461.5" font-family="Helvetica,sans-Serif" font-size="10.00"> </text>
<polyline fill="none" stroke="#bfbfbf" points="688,-454.5 830,-454.5 "/>
<text text-anchor="middle" x="759" y="-442.5" font-family="Helvetica,sans-Serif" font-size="10.00"> </text>
</g>
<!-- Node7&#45;&gt;Node1 -->
<g id="edge6" class="edge"><title>Node7&#45;&gt;Node1</title>
<path fill="none" stroke="#404040" d="M779.381,-435.49C808.468,-396.229 863.384,-322.105 908.714,-260.919"/>
<polygon fill="none" stroke="#404040" points="908.758,-260.86 909.116,-253.658 915.902,-251.218 915.544,-258.42 908.758,-260.86"/>
<text text-anchor="middle" x="867" y="-359.5" font-family="Helvetica,sans-Serif" font-size="10.00"> &#45;builders_</text>
</g>
<!-- Node8 -->
<g id="node8" class="node"><title>Node8</title>
<polygon fill="white" stroke="#bfbfbf" points="848.5,-430 848.5,-498 967.5,-498 967.5,-430 848.5,-430"/>
<text text-anchor="start" x="856.5" y="-486" font-family="Helvetica,sans-Serif" font-size="10.00">std::vector&lt; std::vector</text>
<text text-anchor="middle" x="908" y="-475" font-family="Helvetica,sans-Serif" font-size="10.00">&lt; SparseTensor &gt; &gt;</text>
<polyline fill="none" stroke="#bfbfbf" points="848.5,-468 967.5,-468 "/>
<text text-anchor="middle" x="908" y="-456" font-family="Helvetica,sans-Serif" font-size="10.00"> </text>
<polyline fill="none" stroke="#bfbfbf" points="848.5,-449 967.5,-449 "/>
<text text-anchor="middle" x="908" y="-437" font-family="Helvetica,sans-Serif" font-size="10.00"> </text>
</g>
<!-- Node8&#45;&gt;Node1 -->
<g id="edge7" class="edge"><title>Node8&#45;&gt;Node1</title>
<path fill="none" stroke="#404040" d="M916.131,-429.927C922.111,-405.604 930.744,-370.489 939.801,-333.649"/>
<polygon fill="none" stroke="#404040" points="939.888,-333.291 937.437,-326.51 942.753,-321.638 945.205,-328.42 939.888,-333.291"/>
<text text-anchor="middle" x="977.5" y="-359.5" font-family="Helvetica,sans-Serif" font-size="10.00"> &#45;localSparseDelta</text>
</g>
<!-- Node9 -->
<g id="node9" class="node"><title>Node9</title>
<polygon fill="white" stroke="#bfbfbf" points="986,-435.5 986,-492.5 1128,-492.5 1128,-435.5 986,-435.5"/>
<text text-anchor="middle" x="1057" y="-480.5" font-family="Helvetica,sans-Serif" font-size="10.00">std::vector&lt; SparseTensor &gt;</text>
<polyline fill="none" stroke="#bfbfbf" points="986,-473.5 1128,-473.5 "/>
<text text-anchor="middle" x="1057" y="-461.5" font-family="Helvetica,sans-Serif" font-size="10.00"> </text>
<polyline fill="none" stroke="#bfbfbf" points="986,-454.5 1128,-454.5 "/>
<text text-anchor="middle" x="1057" y="-442.5" font-family="Helvetica,sans-Serif" font-size="10.00"> </text>
</g>
<!-- Node9&#45;&gt;Node1 -->
<g id="edge8" class="edge"><title>Node9&#45;&gt;Node1</title>
<path fill="none" stroke="#404040" d="M1050.15,-435.49C1044.07,-411.12 1034.65,-373.316 1024.74,-333.513"/>
<polygon fill="none" stroke="#404040" points="1024.69,-333.322 1019.36,-328.467 1021.79,-321.678 1027.12,-326.533 1024.69,-333.322"/>
<text text-anchor="middle" x="1080" y="-370.5" font-family="Helvetica,sans-Serif" font-size="10.00"> &#45;sparseGrads_</text>
<text text-anchor="middle" x="1080" y="-359.5" font-family="Helvetica,sans-Serif" font-size="10.00">&#45;tmpSparseDelta</text>
<text text-anchor="middle" x="1080" y="-348.5" font-family="Helvetica,sans-Serif" font-size="10.00">&#45;localSparseGrads_</text>
</g>
<!-- Node10 -->
<g id="node10" class="node"><title>Node10</title>
<polygon fill="white" stroke="#bfbfbf" points="1146.5,-430 1146.5,-498 1269.5,-498 1269.5,-430 1146.5,-430"/>
<text text-anchor="start" x="1154.5" y="-486" font-family="Helvetica,sans-Serif" font-size="10.00">std::vector&lt; Ptr&lt; marian</text>
<text text-anchor="middle" x="1208" y="-475" font-family="Helvetica,sans-Serif" font-size="10.00">::ExpressionGraph &gt; &gt;</text>
<polyline fill="none" stroke="#bfbfbf" points="1146.5,-468 1269.5,-468 "/>
<text text-anchor="middle" x="1208" y="-456" font-family="Helvetica,sans-Serif" font-size="10.00"> </text>
<polyline fill="none" stroke="#bfbfbf" points="1146.5,-449 1269.5,-449 "/>
<text text-anchor="middle" x="1208" y="-437" font-family="Helvetica,sans-Serif" font-size="10.00"> </text>
</g>
<!-- Node10&#45;&gt;Node1 -->
<g id="edge9" class="edge"><title>Node10&#45;&gt;Node1</title>
<path fill="none" stroke="#404040" d="M1187.39,-429.755C1171.53,-404.649 1148.7,-369.583 1127,-340 1104.86,-309.828 1079.46,-277.845 1056.17,-249.438"/>
<polygon fill="none" stroke="#404040" points="1055.98,-249.214 1049.08,-247.124 1048.35,-239.95 1055.26,-242.04 1055.98,-249.214"/>
<text text-anchor="middle" x="1178.5" y="-359.5" font-family="Helvetica,sans-Serif" font-size="10.00"> &#45;graphs_</text>
</g>
<!-- Node11 -->
<g id="node11" class="node"><title>Node11</title>
<polygon fill="white" stroke="#bfbfbf" points="1287.5,-430 1287.5,-498 1406.5,-498 1406.5,-430 1287.5,-430"/>
<text text-anchor="start" x="1295.5" y="-486" font-family="Helvetica,sans-Serif" font-size="10.00">std::vector&lt; std::vector</text>
<text text-anchor="middle" x="1347" y="-475" font-family="Helvetica,sans-Serif" font-size="10.00">&lt; Tensor &gt; &gt;</text>
<polyline fill="none" stroke="#bfbfbf" points="1287.5,-468 1406.5,-468 "/>
<text text-anchor="middle" x="1347" y="-456" font-family="Helvetica,sans-Serif" font-size="10.00"> </text>
<polyline fill="none" stroke="#bfbfbf" points="1287.5,-449 1406.5,-449 "/>
<text text-anchor="middle" x="1347" y="-437" font-family="Helvetica,sans-Serif" font-size="10.00"> </text>
</g>
<!-- Node11&#45;&gt;Node1 -->
<g id="edge10" class="edge"><title>Node11&#45;&gt;Node1</title>
<path fill="none" stroke="#404040" d="M1309.96,-429.848C1299.67,-420.752 1288.45,-410.936 1278,-402 1204.25,-338.951 1117.86,-269.376 1057.51,-221.445"/>
<polygon fill="none" stroke="#404040" points="1057.46,-221.401 1050.27,-220.805 1048.06,-213.942 1055.24,-214.538 1057.46,-221.401"/>
<text text-anchor="middle" x="1277" y="-359.5" font-family="Helvetica,sans-Serif" font-size="10.00"> &#45;params_</text>
</g>
<!-- Node12 -->
<g id="node12" class="node"><title>Node12</title>
<polygon fill="white" stroke="#bfbfbf" points="1424.5,-435.5 1424.5,-492.5 1535.5,-492.5 1535.5,-435.5 1424.5,-435.5"/>
<text text-anchor="middle" x="1480" y="-480.5" font-family="Helvetica,sans-Serif" font-size="10.00">std::vector&lt; Tensor &gt;</text>
<polyline fill="none" stroke="#bfbfbf" points="1424.5,-473.5 1535.5,-473.5 "/>
<text text-anchor="middle" x="1480" y="-461.5" font-family="Helvetica,sans-Serif" font-size="10.00"> </text>
<polyline fill="none" stroke="#bfbfbf" points="1424.5,-454.5 1535.5,-454.5 "/>
<text text-anchor="middle" x="1480" y="-442.5" font-family="Helvetica,sans-Serif" font-size="10.00"> </text>
</g>
<!-- Node12&#45;&gt;Node1 -->
<g id="edge11" class="edge"><title>Node12&#45;&gt;Node1</title>
<path fill="none" stroke="#404040" d="M1453.49,-435.282C1442.19,-424.24 1428.51,-411.845 1415,-402 1298.32,-316.947 1148.31,-240.171 1058.97,-197.435"/>
<polygon fill="none" stroke="#404040" points="1058.95,-197.424 1051.81,-198.457 1048.11,-192.267 1055.25,-191.234 1058.95,-197.424"/>
<text text-anchor="middle" x="1413.5" y="-370.5" font-family="Helvetica,sans-Serif" font-size="10.00"> &#45;paramsAvg_</text>
<text text-anchor="middle" x="1413.5" y="-359.5" font-family="Helvetica,sans-Serif" font-size="10.00">&#45;grads_</text>
<text text-anchor="middle" x="1413.5" y="-348.5" font-family="Helvetica,sans-Serif" font-size="10.00">&#45;tmpTensor</text>
</g>
<!-- Node13 -->
<g id="node13" class="node"><title>Node13</title>
<polygon fill="white" stroke="#bfbfbf" points="1554,-435.5 1554,-492.5 1646,-492.5 1646,-435.5 1554,-435.5"/>
<text text-anchor="middle" x="1600" y="-480.5" font-family="Helvetica,sans-Serif" font-size="10.00">std::vector&lt; int &gt;</text>
<polyline fill="none" stroke="#bfbfbf" points="1554,-473.5 1646,-473.5 "/>
<text text-anchor="middle" x="1600" y="-461.5" font-family="Helvetica,sans-Serif" font-size="10.00"> </text>
<polyline fill="none" stroke="#bfbfbf" points="1554,-454.5 1646,-454.5 "/>
<text text-anchor="middle" x="1600" y="-442.5" font-family="Helvetica,sans-Serif" font-size="10.00"> </text>
</g>
<!-- Node13&#45;&gt;Node1 -->
<g id="edge12" class="edge"><title>Node13&#45;&gt;Node1</title>
<path fill="none" stroke="#404040" d="M1577.39,-435.448C1567.69,-424.433 1555.87,-412.012 1544,-402 1505.18,-369.249 1493.3,-362.964 1448,-340 1316.56,-273.374 1153.98,-216.68 1059.72,-186.148"/>
<polygon fill="none" stroke="#404040" points="1059.71,-186.145 1052.78,-188.113 1048.29,-182.466 1055.23,-180.498 1059.71,-186.145"/>
<text text-anchor="middle" x="1572" y="-359.5" font-family="Helvetica,sans-Serif" font-size="10.00"> &#45;globalVersionNumber</text>
</g>
<!-- Node14 -->
<g id="node14" class="node"><title>Node14</title>
<polygon fill="white" stroke="#bfbfbf" points="1664.5,-435.5 1664.5,-492.5 1771.5,-492.5 1771.5,-435.5 1664.5,-435.5"/>
<text text-anchor="middle" x="1718" y="-480.5" font-family="Helvetica,sans-Serif" font-size="10.00">std::vector&lt; size_t &gt;</text>
<polyline fill="none" stroke="#bfbfbf" points="1664.5,-473.5 1771.5,-473.5 "/>
<text text-anchor="middle" x="1718" y="-461.5" font-family="Helvetica,sans-Serif" font-size="10.00"> </text>
<polyline fill="none" stroke="#bfbfbf" points="1664.5,-454.5 1771.5,-454.5 "/>
<text text-anchor="middle" x="1718" y="-442.5" font-family="Helvetica,sans-Serif" font-size="10.00"> </text>
</g>
<!-- Node14&#45;&gt;Node1 -->
<g id="edge13" class="edge"><title>Node14&#45;&gt;Node1</title>
<path fill="none" stroke="#404040" d="M1704.33,-435.281C1689.04,-407.146 1661.68,-364.362 1626,-340 1447.82,-218.33 1188.6,-179.497 1060.15,-167.357"/>
<polygon fill="none" stroke="#404040" points="1060.09,-167.351 1053.75,-170.791 1048.14,-166.263 1054.48,-162.824 1060.09,-167.351"/>
<text text-anchor="middle" x="1694" y="-359.5" font-family="Helvetica,sans-Serif" font-size="10.00"> &#45;devices_</text>
</g>
<!-- Node15 -->
<g id="node15" class="node"><title>Node15</title>
<polygon fill="white" stroke="#bfbfbf" points="1789.5,-430 1789.5,-498 1908.5,-498 1908.5,-430 1789.5,-430"/>
<text text-anchor="start" x="1797.5" y="-486" font-family="Helvetica,sans-Serif" font-size="10.00">std::vector&lt; std::vector</text>
<text text-anchor="middle" x="1849" y="-475" font-family="Helvetica,sans-Serif" font-size="10.00">&lt; GradientDrop &gt; &gt;</text>
<polyline fill="none" stroke="#bfbfbf" points="1789.5,-468 1908.5,-468 "/>
<text text-anchor="middle" x="1849" y="-456" font-family="Helvetica,sans-Serif" font-size="10.00"> </text>
<polyline fill="none" stroke="#bfbfbf" points="1789.5,-449 1908.5,-449 "/>
<text text-anchor="middle" x="1849" y="-437" font-family="Helvetica,sans-Serif" font-size="10.00"> </text>
</g>
<!-- Node15&#45;&gt;Node1 -->
<g id="edge14" class="edge"><title>Node15&#45;&gt;Node1</title>
<path fill="none" stroke="#404040" d="M1823.13,-429.733C1799.51,-401.641 1762.09,-362.497 1721,-340 1501.19,-219.654 1200.86,-179.906 1060.41,-167.403"/>
<polygon fill="none" stroke="#404040" points="1060.09,-167.376 1053.77,-170.845 1048.14,-166.344 1054.46,-162.875 1060.09,-167.376"/>
<text text-anchor="middle" x="1811.5" y="-359.5" font-family="Helvetica,sans-Serif" font-size="10.00"> &#45;fetchDropper</text>
</g>
</g>
</svg>
