<?xml version="1.0" encoding="UTF-8" standalone="no"?>
<!DOCTYPE svg PUBLIC "-//W3C//DTD SVG 1.1//EN"
 "http://www.w3.org/Graphics/SVG/1.1/DTD/svg11.dtd">
<!-- Generated by graphviz version 2.38.0 (20140413.2041)
 -->
<!-- Title: marian::TanhNodeOp::newShape Pages: 1 -->
<svg width="443pt" height="123pt"
 viewBox="0.00 0.00 443.00 123.00" xmlns="http://www.w3.org/2000/svg" xmlns:xlink="http://www.w3.org/1999/xlink">
<g id="graph0" class="graph" transform="scale(1 1) rotate(0) translate(4 119)">
<title>marian::TanhNodeOp::newShape</title>
<polygon fill="white" stroke="none" points="-4,4 -4,-119 439,-119 439,4 -4,4"/>
<!-- Node1 -->
<g id="node1" class="node"><title>Node1</title>
<polygon fill="#bfbfbf" stroke="black" points="0,-52 0,-82 110,-82 110,-52 0,-52"/>
<text text-anchor="start" x="8" y="-70" font-family="Helvetica,sans-Serif" font-size="10.00">marian::TanhNodeOp</text>
<text text-anchor="middle" x="55" y="-59" font-family="Helvetica,sans-Serif" font-size="10.00">::newShape</text>
</g>
<!-- Node2 -->
<g id="node2" class="node"><title>Node2</title>
<g id="a_node2"><a xlink:href="../../d0/d7a/classmarian_1_1Node.html#aa631f0244ad94b4c64efab0f140bd1d5" target="_top" xlink:title="marian::Node::shape">
<polygon fill="white" stroke="black" points="146,-95.5 146,-114.5 253,-114.5 253,-95.5 146,-95.5"/>
<text text-anchor="middle" x="199.5" y="-102.5" font-family="Helvetica,sans-Serif" font-size="10.00">marian::Node::shape</text>
</a>
</g>
</g>
<!-- Node1&#45;&gt;Node2 -->
<g id="edge1" class="edge"><title>Node1&#45;&gt;Node2</title>
<path fill="none" stroke="midnightblue" d="M110.28,-81.4746C124.194,-85.185 139.025,-89.14 152.478,-92.7275"/>
<polygon fill="midnightblue" stroke="midnightblue" points="151.895,-96.1943 162.459,-95.3891 153.699,-89.4306 151.895,-96.1943"/>
</g>
<!-- Node3 -->
<g id="node3" class="node"><title>Node3</title>
<g id="a_node3"><a xlink:href="../../d5/d54/structmarian_1_1Shape.html#ad44c5095408e203526566bc8b7c20a4b" target="_top" xlink:title="Gets the number of dimensions represented by this object. ">
<polygon fill="white" stroke="black" points="147.5,-57.5 147.5,-76.5 251.5,-76.5 251.5,-57.5 147.5,-57.5"/>
<text text-anchor="middle" x="199.5" y="-64.5" font-family="Helvetica,sans-Serif" font-size="10.00">marian::Shape::size</text>
</a>
</g>
</g>
<!-- Node1&#45;&gt;Node3 -->
<g id="edge2" class="edge"><title>Node1&#45;&gt;Node3</title>
<path fill="none" stroke="midnightblue" d="M110.28,-67C118.986,-67 128.05,-67 136.912,-67"/>
<polygon fill="midnightblue" stroke="midnightblue" points="137.188,-70.5001 147.188,-67 137.188,-63.5001 137.188,-70.5001"/>
</g>
<!-- Node4 -->
<g id="node4" class="node"><title>Node4</title>
<g id="a_node4"><a xlink:href="../../d5/d54/structmarian_1_1Shape.html#a2849bb218aa2214bbab47256a9452caf" target="_top" xlink:title="marian::Shape::set">
<polygon fill="white" stroke="black" points="150,-19.5 150,-38.5 249,-38.5 249,-19.5 150,-19.5"/>
<text text-anchor="middle" x="199.5" y="-26.5" font-family="Helvetica,sans-Serif" font-size="10.00">marian::Shape::set</text>
</a>
</g>
</g>
<!-- Node1&#45;&gt;Node4 -->
<g id="edge3" class="edge"><title>Node1&#45;&gt;Node4</title>
<path fill="none" stroke="midnightblue" d="M110.28,-52.5254C124.194,-48.815 139.025,-44.86 152.478,-41.2725"/>
<polygon fill="midnightblue" stroke="midnightblue" points="153.699,-44.5694 162.459,-38.6109 151.895,-37.8057 153.699,-44.5694"/>
</g>
<!-- Node5 -->
<g id="node5" class="node"><title>Node5</title>
<g id="a_node5"><a xlink:href="../../d5/d54/structmarian_1_1Shape.html#af416da295388777386ae8b834115066f" target="_top" xlink:title="Gets a reference to the int representing the size of the ith dimension represented by this object...">
<polygon fill="white" stroke="black" points="311.5,-38.5 311.5,-57.5 412.5,-57.5 412.5,-38.5 311.5,-38.5"/>
<text text-anchor="middle" x="362" y="-45.5" font-family="Helvetica,sans-Serif" font-size="10.00">marian::Shape::dim</text>
</a>
</g>
</g>
<!-- Node4&#45;&gt;Node5 -->
<g id="edge4" class="edge"><title>Node4&#45;&gt;Node5</title>
<path fill="none" stroke="midnightblue" d="M249.091,-34.7522C265.596,-36.7061 284.229,-38.9119 301.488,-40.955"/>
<polygon fill="midnightblue" stroke="midnightblue" points="301.123,-44.4361 311.465,-42.136 301.946,-37.4846 301.123,-44.4361"/>
</g>
<!-- Node6 -->
<g id="node6" class="node"><title>Node6</title>
<g id="a_node6"><a xlink:href="../../d5/d54/structmarian_1_1Shape.html#a9cf031011a4b53538dda070a77ad19f9" target="_top" xlink:title="marian::Shape::updateStrides">
<polygon fill="white" stroke="black" points="289,-0.5 289,-19.5 435,-19.5 435,-0.5 289,-0.5"/>
<text text-anchor="middle" x="362" y="-7.5" font-family="Helvetica,sans-Serif" font-size="10.00">marian::Shape::updateStrides</text>
</a>
</g>
</g>
<!-- Node4&#45;&gt;Node6 -->
<g id="edge5" class="edge"><title>Node4&#45;&gt;Node6</title>
<path fill="none" stroke="midnightblue" d="M249.091,-23.2478C258.502,-22.1337 268.605,-20.9378 278.75,-19.7368"/>
<polygon fill="midnightblue" stroke="midnightblue" points="279.366,-23.1883 288.885,-18.5369 278.543,-16.2369 279.366,-23.1883"/>
</g>
</g>
</svg>
