<?xml version="1.0" encoding="UTF-8" standalone="no"?>
<!DOCTYPE svg PUBLIC "-//W3C//DTD SVG 1.1//EN"
 "http://www.w3.org/Graphics/SVG/1.1/DTD/svg11.dtd">
<!-- Generated by graphviz version 2.38.0 (20140413.2041)
 -->
<!-- Title: marian::MemoryPiece::set Pages: 1 -->
<svg width="287pt" height="88pt"
 viewBox="0.00 0.00 287.00 88.00" xmlns="http://www.w3.org/2000/svg" xmlns:xlink="http://www.w3.org/1999/xlink">
<g id="graph0" class="graph" transform="scale(1 1) rotate(0) translate(4 84)">
<title>marian::MemoryPiece::set</title>
<polygon fill="white" stroke="none" points="-4,4 -4,-84 283,-84 283,4 -4,4"/>
<!-- Node1 -->
<g id="node1" class="node"><title>Node1</title>
<polygon fill="#bfbfbf" stroke="black" points="0,-30 0,-49 131,-49 131,-30 0,-30"/>
<text text-anchor="middle" x="65.5" y="-37" font-family="Helvetica,sans-Serif" font-size="10.00">marian::MemoryPiece::set</text>
</g>
<!-- Node2 -->
<g id="node2" class="node"><title>Node2</title>
<g id="a_node2"><a xlink:href="../../d4/d97/classmarian_1_1MemoryPiece.html#a9ba0f524772deb22d35bb85c8ca454c7" target="_top" xlink:title="marian::MemoryPiece\l::data">
<polygon fill="white" stroke="black" points="167,-49.5 167,-79.5 279,-79.5 279,-49.5 167,-49.5"/>
<text text-anchor="start" x="175" y="-67.5" font-family="Helvetica,sans-Serif" font-size="10.00">marian::MemoryPiece</text>
<text text-anchor="middle" x="223" y="-56.5" font-family="Helvetica,sans-Serif" font-size="10.00">::data</text>
</a>
</g>
</g>
<!-- Node1&#45;&gt;Node2 -->
<g id="edge1" class="edge"><title>Node1&#45;&gt;Node2</title>
<path fill="none" stroke="midnightblue" d="M125.731,-49.0227C135.838,-50.6476 146.387,-52.3436 156.642,-53.9922"/>
<polygon fill="midnightblue" stroke="midnightblue" points="156.342,-57.4888 166.77,-55.6206 157.453,-50.5776 156.342,-57.4888"/>
</g>
<!-- Node3 -->
<g id="node3" class="node"><title>Node3</title>
<g id="a_node3"><a xlink:href="../../d4/d97/classmarian_1_1MemoryPiece.html#a2d4943aea13728e650fc2a2e0f719661" target="_top" xlink:title="marian::MemoryPiece\l::size">
<polygon fill="white" stroke="black" points="167,-0.5 167,-30.5 279,-30.5 279,-0.5 167,-0.5"/>
<text text-anchor="start" x="175" y="-18.5" font-family="Helvetica,sans-Serif" font-size="10.00">marian::MemoryPiece</text>
<text text-anchor="middle" x="223" y="-7.5" font-family="Helvetica,sans-Serif" font-size="10.00">::size</text>
</a>
</g>
</g>
<!-- Node1&#45;&gt;Node3 -->
<g id="edge2" class="edge"><title>Node1&#45;&gt;Node3</title>
<path fill="none" stroke="midnightblue" d="M128.405,-29.9456C137.734,-28.5056 147.382,-27.0166 156.779,-25.5663"/>
<polygon fill="midnightblue" stroke="midnightblue" points="157.501,-28.9964 166.85,-24.0119 156.433,-22.0783 157.501,-28.9964"/>
</g>
</g>
</svg>
