<?xml version="1.0" encoding="UTF-8" standalone="no"?>
<!DOCTYPE svg PUBLIC "-//W3C//DTD SVG 1.1//EN"
 "http://www.w3.org/Graphics/SVG/1.1/DTD/svg11.dtd">
<!-- Generated by graphviz version 2.38.0 (20140413.2041)
 -->
<!-- Title: marian::data::CorpusBatch::fakeBatch Pages: 1 -->
<svg width="343pt" height="50pt"
 viewBox="0.00 0.00 343.00 50.00" xmlns="http://www.w3.org/2000/svg" xmlns:xlink="http://www.w3.org/1999/xlink">
<g id="graph0" class="graph" transform="scale(1 1) rotate(0) translate(4 46)">
<title>marian::data::CorpusBatch::fakeBatch</title>
<polygon fill="white" stroke="none" points="-4,4 -4,-46 339,-46 339,4 -4,4"/>
<!-- Node1 -->
<g id="node1" class="node"><title>Node1</title>
<polygon fill="#bfbfbf" stroke="black" points="0,-6 0,-36 134,-36 134,-6 0,-6"/>
<text text-anchor="start" x="8" y="-24" font-family="Helvetica,sans-Serif" font-size="10.00">marian::data::CorpusBatch</text>
<text text-anchor="middle" x="67" y="-13" font-family="Helvetica,sans-Serif" font-size="10.00">::fakeBatch</text>
</g>
<!-- Node2 -->
<g id="node2" class="node"><title>Node2</title>
<g id="a_node2"><a xlink:href="../../d7/d2c/classmarian_1_1EncoderDecoder.html#aa2e6bff207c6bc17206115ff44a22fe5" target="_top" xlink:title="marian::EncoderDecoder\l\&lt; MultiEncoderS2S, MultiDecoder\lS2S \&gt;::collectStats">
<polygon fill="white" stroke="black" points="170,-0.5 170,-41.5 335,-41.5 335,-0.5 170,-0.5"/>
<text text-anchor="start" x="178" y="-29.5" font-family="Helvetica,sans-Serif" font-size="10.00">marian::EncoderDecoder</text>
<text text-anchor="start" x="178" y="-18.5" font-family="Helvetica,sans-Serif" font-size="10.00">&lt; MultiEncoderS2S, MultiDecoder</text>
<text text-anchor="middle" x="252.5" y="-7.5" font-family="Helvetica,sans-Serif" font-size="10.00">S2S &gt;::collectStats</text>
</a>
</g>
</g>
<!-- Node1&#45;&gt;Node2 -->
<g id="edge1" class="edge"><title>Node1&#45;&gt;Node2</title>
<path fill="none" stroke="midnightblue" d="M144.436,-21C152.877,-21 161.496,-21 169.996,-21"/>
<polygon fill="midnightblue" stroke="midnightblue" points="144.248,-17.5001 134.248,-21 144.248,-24.5001 144.248,-17.5001"/>
</g>
</g>
</svg>
