<?xml version="1.0" encoding="UTF-8" standalone="no"?>
<!DOCTYPE svg PUBLIC "-//W3C//DTD SVG 1.1//EN"
 "http://www.w3.org/Graphics/SVG/1.1/DTD/svg11.dtd">
<!-- Generated by graphviz version 2.38.0 (20140413.2041)
 -->
<!-- Title: amunmt::GPU::mblas::CudaStreamHandler::GetStream Pages: 1 -->
<!--zoomable 953 -->
<svg id="main" version="1.1" xmlns="http://www.w3.org/2000/svg" xmlns:xlink="http://www.w3.org/1999/xlink" xml:space="preserve" onload="init(evt)">
<style type="text/css"><![CDATA[
.edge:hover path { stroke: red; }
.edge:hover polygon { stroke: red; fill: red; }
]]></style>
<script type="text/javascript"><![CDATA[
var edges = document.getElementsByTagName('g');
if (edges && edges.length) {
  for (var i=0;i<edges.length;i++) {
    if (edges[i].id.substr(0,4)=='edge') {
      edges[i].setAttribute('class','edge');
    }
  }
}
]]></script>
        <defs>
                <circle id="rim" cx="0" cy="0" r="7"/>
                <circle id="rim2" cx="0" cy="0" r="3.5"/>
                <g id="zoomPlus">
                        <use xlink:href="#rim" fill="#404040">
                                <set attributeName="fill" to="#808080" begin="zoomplus.mouseover" end="zoomplus.mouseout"/>
                        </use>
                        <path d="M-4,0h8M0,-4v8" fill="none" stroke="white" stroke-width="1.5" pointer-events="none"/>
                </g>
                <g id="zoomMin">
                        <use xlink:href="#rim" fill="#404040">
                                <set attributeName="fill" to="#808080" begin="zoomminus.mouseover" end="zoomminus.mouseout"/>
                        </use>
                        <path d="M-4,0h8" fill="none" stroke="white" stroke-width="1.5" pointer-events="none"/>
                </g>
                <g id="dirArrow">
                        <path fill="none" stroke="white" stroke-width="1.5" d="M0,-3.0v7 M-2.5,-0.5L0,-3.0L2.5,-0.5"/>
                </g>
               <g id="resetDef">
                       <use xlink:href="#rim2" fill="#404040">
                               <set attributeName="fill" to="#808080" begin="reset.mouseover" end="reset.mouseout"/>
                       </use>
               </g>
        </defs>

<script type="text/javascript">
var viewWidth = 514;
var viewHeight = 953;
var sectionId = 'dynsection-1';
</script>
<script xlink:href="../../svgpan.js"/>
<svg id="graph" class="graph">
<g id="viewport">
<title>amunmt::GPU::mblas::CudaStreamHandler::GetStream</title>
<polygon fill="white" stroke="none" points="-4,4 -4,-949 510,-949 510,4 -4,4"/>
<!-- Node1 -->
<g id="node1" class="node"><title>Node1</title>
<polygon fill="#bfbfbf" stroke="black" points="0,-709 0,-750 112,-750 112,-709 0,-709"/>
<text text-anchor="start" x="8" y="-738" font-family="Helvetica,sans-Serif" font-size="10.00">amunmt::GPU::mblas</text>
<text text-anchor="start" x="8" y="-727" font-family="Helvetica,sans-Serif" font-size="10.00">::CudaStreamHandler</text>
<text text-anchor="middle" x="56" y="-716" font-family="Helvetica,sans-Serif" font-size="10.00">::GetStream</text>
</g>
<!-- Node2 -->
<g id="node2" class="node"><title>Node2</title>
<g id="a_node2"><a xlink:href="../../d4/dd1/classamunmt_1_1GPU_1_1mblas_1_1Array.html#a40ec3bfface5916ccba7d197f5451873" target="_top" xlink:title="amunmt::GPU::mblas\l::Array\&lt; uint \&gt;::Array">
<polygon fill="white" stroke="black" points="171,-914.5 171,-944.5 283,-944.5 283,-914.5 171,-914.5"/>
<text text-anchor="start" x="179" y="-932.5" font-family="Helvetica,sans-Serif" font-size="10.00">amunmt::GPU::mblas</text>
<text text-anchor="middle" x="227" y="-921.5" font-family="Helvetica,sans-Serif" font-size="10.00">::Array&lt; uint &gt;::Array</text>
</a>
</g>
</g>
<!-- Node1&#45;&gt;Node2 -->
<g id="edge1" class="edge"><title>Node1&#45;&gt;Node2</title>
<path fill="none" stroke="midnightblue" d="M64.8084,-760.012C76.415,-799.285 101.961,-867.031 148,-905.5 154.632,-911.042 162.532,-915.305 170.72,-918.585"/>
<polygon fill="midnightblue" stroke="midnightblue" points="68.123,-758.871 62.0261,-750.207 61.3889,-760.782 68.123,-758.871"/>
</g>
<!-- Node3 -->
<g id="node3" class="node"><title>Node3</title>
<g id="a_node3"><a xlink:href="../../d2/d7d/classamunmt_1_1GPU_1_1mblas_1_1CublasHandler.html#aa2e4a863191a149911d71111832b16c9" target="_top" xlink:title="amunmt::GPU::mblas\l::CublasHandler::CublasHandler">
<polygon fill="white" stroke="black" points="148,-865.5 148,-895.5 306,-895.5 306,-865.5 148,-865.5"/>
<text text-anchor="start" x="156" y="-883.5" font-family="Helvetica,sans-Serif" font-size="10.00">amunmt::GPU::mblas</text>
<text text-anchor="middle" x="227" y="-872.5" font-family="Helvetica,sans-Serif" font-size="10.00">::CublasHandler::CublasHandler</text>
</a>
</g>
</g>
<!-- Node1&#45;&gt;Node3 -->
<g id="edge2" class="edge"><title>Node1&#45;&gt;Node3</title>
<path fill="none" stroke="midnightblue" d="M72.934,-759.34C88.7599,-786.447 115.346,-825.852 148,-850.5 155.875,-856.444 165.069,-861.347 174.327,-865.342"/>
<polygon fill="midnightblue" stroke="midnightblue" points="75.7819,-757.268 67.7927,-750.31 69.6987,-760.732 75.7819,-757.268"/>
</g>
<!-- Node4 -->
<g id="node4" class="node"><title>Node4</title>
<g id="a_node4"><a xlink:href="../../d1/d49/namespaceamunmt_1_1GPU_1_1mblas.html#a9ef50bea247d2ef942fbb6d73e3ccaa7" target="_top" xlink:title="amunmt::GPU::mblas::Sum">
<polygon fill="white" stroke="black" points="158,-789 158,-808 296,-808 296,-789 158,-789"/>
<text text-anchor="middle" x="227" y="-796" font-family="Helvetica,sans-Serif" font-size="10.00">amunmt::GPU::mblas::Sum</text>
</a>
</g>
</g>
<!-- Node1&#45;&gt;Node4 -->
<g id="edge3" class="edge"><title>Node1&#45;&gt;Node4</title>
<path fill="none" stroke="midnightblue" d="M98.7585,-755.459C113.857,-764.025 131.303,-773.011 148,-779.5 157.483,-783.186 167.901,-786.314 177.948,-788.904"/>
<polygon fill="midnightblue" stroke="midnightblue" points="100.096,-752.19 89.689,-750.206 96.588,-758.247 100.096,-752.19"/>
</g>
<!-- Node5 -->
<g id="node5" class="node"><title>Node5</title>
<g id="a_node5"><a xlink:href="../../da/ddf/classamunmt_1_1GPU_1_1mblas_1_1TMatrix.html#a2a1e6f455240cec3b8406cfef94128e5" target="_top" xlink:title="amunmt::GPU::mblas\l::TMatrix\&lt; uint \&gt;::Debug">
<polygon fill="white" stroke="black" points="362,-857.5 362,-887.5 486,-887.5 486,-857.5 362,-857.5"/>
<text text-anchor="start" x="370" y="-875.5" font-family="Helvetica,sans-Serif" font-size="10.00">amunmt::GPU::mblas</text>
<text text-anchor="middle" x="424" y="-864.5" font-family="Helvetica,sans-Serif" font-size="10.00">::TMatrix&lt; uint &gt;::Debug</text>
</a>
</g>
</g>
<!-- Node1&#45;&gt;Node5 -->
<g id="edge8" class="edge"><title>Node1&#45;&gt;Node5</title>
<path fill="none" stroke="midnightblue" d="M78.799,-757.895C95.561,-777.693 120.459,-803.056 148,-817.5 184.435,-836.608 292.611,-854.457 361.929,-864.382"/>
<polygon fill="midnightblue" stroke="midnightblue" points="81.4106,-755.561 72.3484,-750.072 76.0098,-760.014 81.4106,-755.561"/>
</g>
<!-- Node7 -->
<g id="node7" class="node"><title>Node7</title>
<g id="a_node7"><a xlink:href="../../da/ddf/classamunmt_1_1GPU_1_1mblas_1_1TMatrix.html#a2bed15df51e1820a0dd900b111bfe222" target="_top" xlink:title="amunmt::GPU::mblas\l::TMatrix\&lt; uint \&gt;::TMatrix">
<polygon fill="white" stroke="black" points="163,-739.5 163,-769.5 291,-769.5 291,-739.5 163,-739.5"/>
<text text-anchor="start" x="171" y="-757.5" font-family="Helvetica,sans-Serif" font-size="10.00">amunmt::GPU::mblas</text>
<text text-anchor="middle" x="227" y="-746.5" font-family="Helvetica,sans-Serif" font-size="10.00">::TMatrix&lt; uint &gt;::TMatrix</text>
</a>
</g>
</g>
<!-- Node1&#45;&gt;Node7 -->
<g id="edge6" class="edge"><title>Node1&#45;&gt;Node7</title>
<path fill="none" stroke="midnightblue" d="M122.37,-739.17C135.691,-741.141 149.681,-743.21 162.92,-745.169"/>
<polygon fill="midnightblue" stroke="midnightblue" points="122.741,-735.687 112.337,-737.686 121.717,-742.612 122.741,-735.687"/>
</g>
<!-- Node8 -->
<g id="node8" class="node"><title>Node8</title>
<g id="a_node8"><a xlink:href="../../da/ddf/classamunmt_1_1GPU_1_1mblas_1_1TMatrix.html#a080c2f2b4f5143726a957b0bd9fc201e" target="_top" xlink:title="amunmt::GPU::mblas\l::TMatrix\&lt; uint \&gt;::Resize">
<polygon fill="white" stroke="black" points="164,-690.5 164,-720.5 290,-720.5 290,-690.5 164,-690.5"/>
<text text-anchor="start" x="172" y="-708.5" font-family="Helvetica,sans-Serif" font-size="10.00">amunmt::GPU::mblas</text>
<text text-anchor="middle" x="227" y="-697.5" font-family="Helvetica,sans-Serif" font-size="10.00">::TMatrix&lt; uint &gt;::Resize</text>
</a>
</g>
</g>
<!-- Node1&#45;&gt;Node8 -->
<g id="edge7" class="edge"><title>Node1&#45;&gt;Node8</title>
<path fill="none" stroke="midnightblue" d="M122.552,-720.191C136.117,-718.265 150.369,-716.241 163.809,-714.332"/>
<polygon fill="midnightblue" stroke="midnightblue" points="121.745,-716.77 112.337,-721.642 122.73,-723.701 121.745,-716.77"/>
</g>
<!-- Node9 -->
<g id="node9" class="node"><title>Node9</title>
<g id="a_node9"><a xlink:href="../../d1/d49/namespaceamunmt_1_1GPU_1_1mblas.html#a6531a040aa422fcd149f89b92f6d2585" target="_top" xlink:title="amunmt::GPU::mblas\l::copy">
<polygon fill="white" stroke="black" points="171,-224.5 171,-254.5 283,-254.5 283,-224.5 171,-224.5"/>
<text text-anchor="start" x="179" y="-242.5" font-family="Helvetica,sans-Serif" font-size="10.00">amunmt::GPU::mblas</text>
<text text-anchor="middle" x="227" y="-231.5" font-family="Helvetica,sans-Serif" font-size="10.00">::copy</text>
</a>
</g>
</g>
<!-- Node1&#45;&gt;Node9 -->
<g id="edge9" class="edge"><title>Node1&#45;&gt;Node9</title>
<path fill="none" stroke="midnightblue" d="M67.5061,-699.038C99.8087,-605.38 196.915,-323.83 220.699,-254.871"/>
<polygon fill="midnightblue" stroke="midnightblue" points="64.1056,-698.164 64.1538,-708.758 70.7231,-700.446 64.1056,-698.164"/>
</g>
<!-- Node15 -->
<g id="node15" class="node"><title>Node15</title>
<g id="a_node15"><a xlink:href="../../d1/d49/namespaceamunmt_1_1GPU_1_1mblas.html#ab76a2b350282de9a3eaea50aab7dc329" target="_top" xlink:title="amunmt::GPU::mblas\l::TestMemCpy">
<polygon fill="white" stroke="black" points="368,-0.5 368,-30.5 480,-30.5 480,-0.5 368,-0.5"/>
<text text-anchor="start" x="376" y="-18.5" font-family="Helvetica,sans-Serif" font-size="10.00">amunmt::GPU::mblas</text>
<text text-anchor="middle" x="424" y="-7.5" font-family="Helvetica,sans-Serif" font-size="10.00">::TestMemCpy</text>
</a>
</g>
</g>
<!-- Node1&#45;&gt;Node15 -->
<g id="edge34" class="edge"><title>Node1&#45;&gt;Node15</title>
<path fill="none" stroke="midnightblue" d="M59.7986,-698.631C69.0735,-600.817 100.914,-299.216 148,-214.5 204.268,-113.264 241.214,-97.57 342,-40.5 349.94,-36.004 358.785,-32.2193 367.631,-29.0652"/>
<polygon fill="midnightblue" stroke="midnightblue" points="56.2987,-698.467 58.851,-708.75 63.2682,-699.12 56.2987,-698.467"/>
</g>
<!-- Node21 -->
<g id="node21" class="node"><title>Node21</title>
<g id="a_node21"><a xlink:href="../../d1/d49/namespaceamunmt_1_1GPU_1_1mblas.html#ace73de50c8241f219ad490d64513829f" target="_top" xlink:title="amunmt::GPU::mblas\l::BroadcastVec">
<polygon fill="white" stroke="black" points="171,-592.5 171,-622.5 283,-622.5 283,-592.5 171,-592.5"/>
<text text-anchor="start" x="179" y="-610.5" font-family="Helvetica,sans-Serif" font-size="10.00">amunmt::GPU::mblas</text>
<text text-anchor="middle" x="227" y="-599.5" font-family="Helvetica,sans-Serif" font-size="10.00">::BroadcastVec</text>
</a>
</g>
</g>
<!-- Node1&#45;&gt;Node21 -->
<g id="edge21" class="edge"><title>Node1&#45;&gt;Node21</title>
<path fill="none" stroke="midnightblue" d="M77.6026,-700.598C94.3402,-679.047 119.742,-650.364 148,-632.5 154.972,-628.093 162.788,-624.399 170.708,-621.323"/>
<polygon fill="midnightblue" stroke="midnightblue" points="74.665,-698.68 71.4087,-708.762 80.2415,-702.911 74.665,-698.68"/>
</g>
<!-- Node27 -->
<g id="node27" class="node"><title>Node27</title>
<g id="a_node27"><a xlink:href="../../d1/d49/namespaceamunmt_1_1GPU_1_1mblas.html#adc0a1bee5e001b28e10bff88e940b284" target="_top" xlink:title="amunmt::GPU::mblas\l::Element">
<polygon fill="white" stroke="black" points="171,-641.5 171,-671.5 283,-671.5 283,-641.5 171,-641.5"/>
<text text-anchor="start" x="179" y="-659.5" font-family="Helvetica,sans-Serif" font-size="10.00">amunmt::GPU::mblas</text>
<text text-anchor="middle" x="227" y="-648.5" font-family="Helvetica,sans-Serif" font-size="10.00">::Element</text>
</a>
</g>
</g>
<!-- Node1&#45;&gt;Node27 -->
<g id="edge28" class="edge"><title>Node1&#45;&gt;Node27</title>
<path fill="none" stroke="midnightblue" d="M101.418,-704.077C115.998,-696.274 132.454,-688.032 148,-681.5 156.521,-677.919 165.744,-674.546 174.763,-671.504"/>
<polygon fill="midnightblue" stroke="midnightblue" points="99.7267,-701.012 92.6074,-708.859 103.066,-707.165 99.7267,-701.012"/>
</g>
<!-- Node4&#45;&gt;Node5 -->
<g id="edge4" class="edge"><title>Node4&#45;&gt;Node5</title>
<path fill="none" stroke="midnightblue" d="M277.427,-811.029C287.126,-814.228 297.059,-818.048 306,-822.5 323.667,-831.297 324.287,-839.795 342,-848.5 348.845,-851.864 356.251,-854.851 363.708,-857.477"/>
<polygon fill="midnightblue" stroke="midnightblue" points="278.44,-807.679 267.851,-808.037 276.352,-814.36 278.44,-807.679"/>
</g>
<!-- Node6 -->
<g id="node6" class="node"><title>Node6</title>
<g id="a_node6"><a xlink:href="../../d1/d49/namespaceamunmt_1_1GPU_1_1mblas.html#a0da5f0038d776f323a166d9deecac270" target="_top" xlink:title="amunmt::GPU::mblas\l::Debug">
<polygon fill="white" stroke="black" points="368,-808.5 368,-838.5 480,-838.5 480,-808.5 368,-808.5"/>
<text text-anchor="start" x="376" y="-826.5" font-family="Helvetica,sans-Serif" font-size="10.00">amunmt::GPU::mblas</text>
<text text-anchor="middle" x="424" y="-815.5" font-family="Helvetica,sans-Serif" font-size="10.00">::Debug</text>
</a>
</g>
</g>
<!-- Node4&#45;&gt;Node6 -->
<g id="edge5" class="edge"><title>Node4&#45;&gt;Node6</title>
<path fill="none" stroke="midnightblue" d="M306.201,-808.526C326.8,-811.167 348.597,-813.961 367.712,-816.412"/>
<polygon fill="midnightblue" stroke="midnightblue" points="306.565,-805.044 296.202,-807.244 305.675,-811.987 306.565,-805.044"/>
</g>
<!-- Node10 -->
<g id="node10" class="node"><title>Node10</title>
<g id="a_node10"><a xlink:href="../../d2/d16/classDeviceCPU.html#ad86a817a1e6d8e56ce39ceaf0c61ba27" target="_top" xlink:title="DeviceCPU::reserve">
<polygon fill="white" stroke="black" points="370.5,-410 370.5,-429 477.5,-429 477.5,-410 370.5,-410"/>
<text text-anchor="middle" x="424" y="-417" font-family="Helvetica,sans-Serif" font-size="10.00">DeviceCPU::reserve</text>
</a>
</g>
</g>
<!-- Node9&#45;&gt;Node10 -->
<g id="edge10" class="edge"><title>Node9&#45;&gt;Node10</title>
<path fill="none" stroke="midnightblue" d="M238.384,-263.954C254.888,-299.744 290.582,-365.883 342,-400.5 350.387,-406.147 360.244,-410.126 370.139,-412.927"/>
<polygon fill="midnightblue" stroke="midnightblue" points="241.527,-262.408 234.241,-254.716 235.14,-265.273 241.527,-262.408"/>
</g>
<!-- Node11 -->
<g id="node11" class="node"><title>Node11</title>
<g id="a_node11"><a xlink:href="../../d0/dd3/classamunmt_1_1GPU_1_1ClassLanguageModel.html#a0cbf0d5fec22724b1e8e33e4aa6f779c" target="_top" xlink:title="amunmt::GPU::ClassLanguage\lModel::Score">
<polygon fill="white" stroke="black" points="347.5,-360.5 347.5,-390.5 500.5,-390.5 500.5,-360.5 347.5,-360.5"/>
<text text-anchor="start" x="355.5" y="-378.5" font-family="Helvetica,sans-Serif" font-size="10.00">amunmt::GPU::ClassLanguage</text>
<text text-anchor="middle" x="424" y="-367.5" font-family="Helvetica,sans-Serif" font-size="10.00">Model::Score</text>
</a>
</g>
</g>
<!-- Node9&#45;&gt;Node11 -->
<g id="edge11" class="edge"><title>Node9&#45;&gt;Node11</title>
<path fill="none" stroke="midnightblue" d="M245.999,-262.644C266.641,-287.698 302.732,-327.19 342,-350.5 348.454,-354.331 355.552,-357.628 362.78,-360.452"/>
<polygon fill="midnightblue" stroke="midnightblue" points="248.619,-260.318 239.608,-254.745 243.177,-264.721 248.619,-260.318"/>
</g>
<!-- Node12 -->
<g id="node12" class="node"><title>Node12</title>
<g id="a_node12"><a xlink:href="../../d2/d2b/classmarian_1_1data_1_1Dataset.html#a27ff57e73e81b555305a5f45cde30d91" target="_top" xlink:title="marian::data::Dataset\l::toBatch">
<polygon fill="white" stroke="black" points="368.5,-311.5 368.5,-341.5 479.5,-341.5 479.5,-311.5 368.5,-311.5"/>
<text text-anchor="start" x="376.5" y="-329.5" font-family="Helvetica,sans-Serif" font-size="10.00">marian::data::Dataset</text>
<text text-anchor="middle" x="424" y="-318.5" font-family="Helvetica,sans-Serif" font-size="10.00">::toBatch</text>
</a>
</g>
</g>
<!-- Node9&#45;&gt;Node12 -->
<g id="edge12" class="edge"><title>Node9&#45;&gt;Node12</title>
<path fill="none" stroke="midnightblue" d="M260.937,-259.689C283.252,-272.792 313.716,-289.584 342,-301.5 350.544,-305.1 359.789,-308.442 368.871,-311.435"/>
<polygon fill="midnightblue" stroke="midnightblue" points="262.591,-256.601 252.205,-254.506 259.017,-262.62 262.591,-256.601"/>
</g>
<!-- Node13 -->
<g id="node13" class="node"><title>Node13</title>
<g id="a_node13"><a xlink:href="../../d9/d05/classamunmt_1_1GPU_1_1Decoder_1_1Embeddings.html#a5c32bbdcdde7a6d814f8599e8d4955a8" target="_top" xlink:title="amunmt::GPU::Decoder\l::Embeddings\&lt; amunmt\l::GPU::Weights::DecEmbeddings\l \&gt;::Lookup">
<polygon fill="white" stroke="black" points="342,-240.5 342,-292.5 506,-292.5 506,-240.5 342,-240.5"/>
<text text-anchor="start" x="350" y="-280.5" font-family="Helvetica,sans-Serif" font-size="10.00">amunmt::GPU::Decoder</text>
<text text-anchor="start" x="350" y="-269.5" font-family="Helvetica,sans-Serif" font-size="10.00">::Embeddings&lt; amunmt</text>
<text text-anchor="start" x="350" y="-258.5" font-family="Helvetica,sans-Serif" font-size="10.00">::GPU::Weights::DecEmbeddings</text>
<text text-anchor="middle" x="424" y="-247.5" font-family="Helvetica,sans-Serif" font-size="10.00"> &gt;::Lookup</text>
</a>
</g>
</g>
<!-- Node9&#45;&gt;Node13 -->
<g id="edge13" class="edge"><title>Node9&#45;&gt;Node13</title>
<path fill="none" stroke="midnightblue" d="M293.151,-248.521C308.754,-250.681 325.603,-253.014 341.83,-255.261"/>
<polygon fill="midnightblue" stroke="midnightblue" points="293.483,-245.034 283.097,-247.129 292.523,-251.967 293.483,-245.034"/>
</g>
<!-- Node14 -->
<g id="node14" class="node"><title>Node14</title>
<g id="a_node14"><a xlink:href="../../df/d32/classamunmt_1_1GPU_1_1Decoder_1_1Alignment.html#aca6a7ea06e3db456c9cf723cb62a975f" target="_top" xlink:title="amunmt::GPU::Decoder\l::Alignment\&lt; amunmt::\lGPU::Weights::DecAlignment\l \&gt;::GetAlignedSourceContext">
<polygon fill="white" stroke="black" points="350,-448.5 350,-500.5 498,-500.5 498,-448.5 350,-448.5"/>
<text text-anchor="start" x="358" y="-488.5" font-family="Helvetica,sans-Serif" font-size="10.00">amunmt::GPU::Decoder</text>
<text text-anchor="start" x="358" y="-477.5" font-family="Helvetica,sans-Serif" font-size="10.00">::Alignment&lt; amunmt::</text>
<text text-anchor="start" x="358" y="-466.5" font-family="Helvetica,sans-Serif" font-size="10.00">GPU::Weights::DecAlignment</text>
<text text-anchor="middle" x="424" y="-455.5" font-family="Helvetica,sans-Serif" font-size="10.00"> &gt;::GetAlignedSourceContext</text>
</a>
</g>
</g>
<!-- Node9&#45;&gt;Node14 -->
<g id="edge14" class="edge"><title>Node9&#45;&gt;Node14</title>
<path fill="none" stroke="midnightblue" d="M236.303,-264.11C251.328,-305.295 286.695,-388.567 342,-438.5 345.998,-442.109 350.416,-445.405 355.066,-448.405"/>
<polygon fill="midnightblue" stroke="midnightblue" points="239.567,-262.843 232.921,-254.592 232.971,-265.187 239.567,-262.843"/>
</g>
<!-- Node9&#45;&gt;Node15 -->
<g id="edge15" class="edge"><title>Node9&#45;&gt;Node15</title>
<path fill="none" stroke="midnightblue" d="M242.176,-215.838C257.98,-189.342 284.186,-145.055 306,-106.5 322.454,-77.4187 316.133,-61.6502 342,-40.5 349.52,-34.3516 358.546,-29.7118 367.802,-26.2114"/>
<polygon fill="midnightblue" stroke="midnightblue" points="239.167,-214.05 237.044,-224.43 245.177,-217.639 239.167,-214.05"/>
</g>
<!-- Node16 -->
<g id="node16" class="node"><title>Node16</title>
<g id="a_node16"><a xlink:href="../../d4/deb/classNpzConverter.html#aa996e7f76b03e6501f65a311a9dcd319" target="_top" xlink:title="NpzConverter::Load">
<polygon fill="white" stroke="black" points="372,-202 372,-221 476,-221 476,-202 372,-202"/>
<text text-anchor="middle" x="424" y="-209" font-family="Helvetica,sans-Serif" font-size="10.00">NpzConverter::Load</text>
</a>
</g>
</g>
<!-- Node9&#45;&gt;Node16 -->
<g id="edge16" class="edge"><title>Node9&#45;&gt;Node16</title>
<path fill="none" stroke="midnightblue" d="M293.093,-230.153C318.69,-226.478 347.648,-222.32 371.718,-218.864"/>
<polygon fill="midnightblue" stroke="midnightblue" points="292.498,-226.703 283.097,-231.589 293.493,-233.632 292.498,-226.703"/>
</g>
<!-- Node17 -->
<g id="node17" class="node"><title>Node17</title>
<g id="a_node17"><a xlink:href="../../d5/d54/structmarian_1_1Shape.html#adb8f3c0ab0efd3ca4253d5d7e998b9cc" target="_top" xlink:title="Constructs a shape. ">
<polygon fill="white" stroke="black" points="367.5,-164 367.5,-183 480.5,-183 480.5,-164 367.5,-164"/>
<text text-anchor="middle" x="424" y="-171" font-family="Helvetica,sans-Serif" font-size="10.00">marian::Shape::Shape</text>
</a>
</g>
</g>
<!-- Node9&#45;&gt;Node17 -->
<g id="edge17" class="edge"><title>Node9&#45;&gt;Node17</title>
<path fill="none" stroke="midnightblue" d="M270.267,-220.172C291.493,-210.957 317.785,-200.276 342,-192.5 353.002,-188.967 365.038,-185.787 376.387,-183.084"/>
<polygon fill="midnightblue" stroke="midnightblue" points="268.645,-217.062 260.897,-224.287 271.46,-223.471 268.645,-217.062"/>
</g>
<!-- Node18 -->
<g id="node18" class="node"><title>Node18</title>
<g id="a_node18"><a xlink:href="../../d6/dbf/structmarian_1_1ShapeGPU.html#a13529f654e08e8b5b5a74f6e66c22fdc" target="_top" xlink:title="Constructs a shape. ">
<polygon fill="white" stroke="black" points="345.5,-126 345.5,-145 502.5,-145 502.5,-126 345.5,-126"/>
<text text-anchor="middle" x="424" y="-133" font-family="Helvetica,sans-Serif" font-size="10.00">marian::ShapeGPU::ShapeGPU</text>
</a>
</g>
</g>
<!-- Node9&#45;&gt;Node18 -->
<g id="edge18" class="edge"><title>Node9&#45;&gt;Node18</title>
<path fill="none" stroke="midnightblue" d="M251.422,-217.44C273.243,-198.07 307.513,-170.548 342,-154.5 350.25,-150.661 359.345,-147.56 368.37,-145.068"/>
<polygon fill="midnightblue" stroke="midnightblue" points="249.044,-214.871 243.969,-224.171 253.736,-220.066 249.044,-214.871"/>
</g>
<!-- Node19 -->
<g id="node19" class="node"><title>Node19</title>
<g id="a_node19"><a xlink:href="../../d0/d5b/classmarian_1_1TensorCPU.html#a783de048c2d0a6400359bac0f3268080" target="_top" xlink:title="marian::TensorCPU::get">
<polygon fill="white" stroke="black" points="362.5,-88 362.5,-107 485.5,-107 485.5,-88 362.5,-88"/>
<text text-anchor="middle" x="424" y="-95" font-family="Helvetica,sans-Serif" font-size="10.00">marian::TensorCPU::get</text>
</a>
</g>
</g>
<!-- Node9&#45;&gt;Node19 -->
<g id="edge19" class="edge"><title>Node9&#45;&gt;Node19</title>
<path fill="none" stroke="midnightblue" d="M243.281,-215.879C262.752,-187.757 299.08,-141.468 342,-116.5 348.617,-112.651 355.966,-109.581 363.461,-107.133"/>
<polygon fill="midnightblue" stroke="midnightblue" points="240.273,-214.078 237.564,-224.321 246.069,-218.003 240.273,-214.078"/>
</g>
<!-- Node20 -->
<g id="node20" class="node"><title>Node20</title>
<g id="a_node20"><a xlink:href="../../d0/d5b/classmarian_1_1TensorCPU.html#a6ab34ca2fa6d297c4ae2686bdaff12a2" target="_top" xlink:title="marian::TensorCPU::set">
<polygon fill="white" stroke="black" points="362.5,-50 362.5,-69 485.5,-69 485.5,-50 362.5,-50"/>
<text text-anchor="middle" x="424" y="-57" font-family="Helvetica,sans-Serif" font-size="10.00">marian::TensorCPU::set</text>
</a>
</g>
</g>
<!-- Node9&#45;&gt;Node20 -->
<g id="edge20" class="edge"><title>Node9&#45;&gt;Node20</title>
<path fill="none" stroke="midnightblue" d="M238.384,-215.046C254.888,-179.256 290.582,-113.117 342,-78.5 348.111,-74.386 355.001,-71.1571 362.119,-68.624"/>
<polygon fill="midnightblue" stroke="midnightblue" points="235.14,-213.727 234.241,-224.284 241.527,-216.592 235.14,-213.727"/>
</g>
<!-- Node21&#45;&gt;Node14 -->
<g id="edge23" class="edge"><title>Node21&#45;&gt;Node14</title>
<path fill="none" stroke="midnightblue" d="M249.912,-585.485C271.82,-564.324 307.175,-532.412 342,-510.5 347.471,-507.058 353.326,-503.776 359.294,-500.695"/>
<polygon fill="midnightblue" stroke="midnightblue" points="247.452,-582.995 242.746,-592.487 252.344,-588.001 247.452,-582.995"/>
</g>
<!-- Node22 -->
<g id="node22" class="node"><title>Node22</title>
<g id="a_node22"><a xlink:href="../../d1/de3/classamunmt_1_1GPU_1_1Decoder_1_1RNNHidden.html#a4e603e53eb86acbacce1a348e2be20f4" target="_top" xlink:title="amunmt::GPU::Decoder\l::RNNHidden\&lt; amunmt::\lGPU::Weights::DecInit\l \&gt;::InitializeState">
<polygon fill="white" stroke="black" points="361,-737.5 361,-789.5 487,-789.5 487,-737.5 361,-737.5"/>
<text text-anchor="start" x="369" y="-777.5" font-family="Helvetica,sans-Serif" font-size="10.00">amunmt::GPU::Decoder</text>
<text text-anchor="start" x="369" y="-766.5" font-family="Helvetica,sans-Serif" font-size="10.00">::RNNHidden&lt; amunmt::</text>
<text text-anchor="start" x="369" y="-755.5" font-family="Helvetica,sans-Serif" font-size="10.00">GPU::Weights::DecInit</text>
<text text-anchor="middle" x="424" y="-744.5" font-family="Helvetica,sans-Serif" font-size="10.00"> &gt;::InitializeState</text>
</a>
</g>
</g>
<!-- Node21&#45;&gt;Node22 -->
<g id="edge22" class="edge"><title>Node21&#45;&gt;Node22</title>
<path fill="none" stroke="midnightblue" d="M292.323,-622.612C297.293,-625.373 301.946,-628.638 306,-632.5 338.995,-663.929 310.579,-695.497 342,-728.5 347.387,-734.158 353.843,-738.951 360.727,-742.999"/>
<polygon fill="midnightblue" stroke="midnightblue" points="293.621,-619.352 283.093,-618.167 290.584,-625.659 293.621,-619.352"/>
</g>
<!-- Node23 -->
<g id="node23" class="node"><title>Node23</title>
<g id="a_node23"><a xlink:href="../../d2/d4d/classamunmt_1_1GPU_1_1Decoder_1_1Softmax.html#ae19befc1a70b3a1762ac0e4dcfb67714" target="_top" xlink:title="amunmt::GPU::Decoder\l::Softmax\&lt; amunmt::GPU\l::Weights::DecSoftmax \&gt;\l::GetProbs">
<polygon fill="white" stroke="black" points="358.5,-666.5 358.5,-718.5 489.5,-718.5 489.5,-666.5 358.5,-666.5"/>
<text text-anchor="start" x="366.5" y="-706.5" font-family="Helvetica,sans-Serif" font-size="10.00">amunmt::GPU::Decoder</text>
<text text-anchor="start" x="366.5" y="-695.5" font-family="Helvetica,sans-Serif" font-size="10.00">::Softmax&lt; amunmt::GPU</text>
<text text-anchor="start" x="366.5" y="-684.5" font-family="Helvetica,sans-Serif" font-size="10.00">::Weights::DecSoftmax &gt;</text>
<text text-anchor="middle" x="424" y="-673.5" font-family="Helvetica,sans-Serif" font-size="10.00">::GetProbs</text>
</a>
</g>
</g>
<!-- Node21&#45;&gt;Node23 -->
<g id="edge24" class="edge"><title>Node21&#45;&gt;Node23</title>
<path fill="none" stroke="midnightblue" d="M291.655,-626.143C296.58,-628.116 301.416,-630.237 306,-632.5 323.467,-641.123 324.975,-648.034 342,-657.5 347.489,-660.552 353.298,-663.524 359.183,-666.364"/>
<polygon fill="midnightblue" stroke="midnightblue" points="292.707,-622.798 282.116,-622.53 290.228,-629.345 292.707,-622.798"/>
</g>
<!-- Node24 -->
<g id="node24" class="node"><title>Node24</title>
<g id="a_node24"><a xlink:href="../../d8/dc9/classamunmt_1_1GPU_1_1SlowGRU.html#a56abd7ee93ad637ca54113fbc1427e01" target="_top" xlink:title="amunmt::GPU::SlowGRU\l::GetNextState">
<polygon fill="white" stroke="black" points="359,-617.5 359,-647.5 489,-647.5 489,-617.5 359,-617.5"/>
<text text-anchor="start" x="367" y="-635.5" font-family="Helvetica,sans-Serif" font-size="10.00">amunmt::GPU::SlowGRU</text>
<text text-anchor="middle" x="424" y="-624.5" font-family="Helvetica,sans-Serif" font-size="10.00">::GetNextState</text>
</a>
</g>
</g>
<!-- Node21&#45;&gt;Node24 -->
<g id="edge25" class="edge"><title>Node21&#45;&gt;Node24</title>
<path fill="none" stroke="midnightblue" d="M293.25,-615.865C314.345,-618.57 337.709,-621.565 358.732,-624.261"/>
<polygon fill="midnightblue" stroke="midnightblue" points="293.461,-612.364 283.097,-614.564 292.571,-619.307 293.461,-612.364"/>
</g>
<!-- Node25 -->
<g id="node25" class="node"><title>Node25</title>
<g id="a_node25"><a xlink:href="../../df/de1/classamunmt_1_1GPU_1_1SlowLSTM.html#a445547f2b64a36f61c0a62dc682364f3" target="_top" xlink:title="amunmt::GPU::SlowLSTM\l::GetNextState">
<polygon fill="white" stroke="black" points="357,-568.5 357,-598.5 491,-598.5 491,-568.5 357,-568.5"/>
<text text-anchor="start" x="365" y="-586.5" font-family="Helvetica,sans-Serif" font-size="10.00">amunmt::GPU::SlowLSTM</text>
<text text-anchor="middle" x="424" y="-575.5" font-family="Helvetica,sans-Serif" font-size="10.00">::GetNextState</text>
</a>
</g>
</g>
<!-- Node21&#45;&gt;Node25 -->
<g id="edge26" class="edge"><title>Node21&#45;&gt;Node25</title>
<path fill="none" stroke="midnightblue" d="M293.283,-599.465C313.782,-596.942 336.421,-594.156 356.971,-591.627"/>
<polygon fill="midnightblue" stroke="midnightblue" points="292.595,-596.023 283.097,-600.719 293.45,-602.971 292.595,-596.023"/>
</g>
<!-- Node26 -->
<g id="node26" class="node"><title>Node26</title>
<g id="a_node26"><a xlink:href="../../d2/dad/classamunmt_1_1GPU_1_1Multiplicative.html#a1f485aad0d4da73469d58f61fc121341" target="_top" xlink:title="amunmt::GPU::Multiplicative\l::GetNextState">
<polygon fill="white" stroke="black" points="352.5,-519.5 352.5,-549.5 495.5,-549.5 495.5,-519.5 352.5,-519.5"/>
<text text-anchor="start" x="360.5" y="-537.5" font-family="Helvetica,sans-Serif" font-size="10.00">amunmt::GPU::Multiplicative</text>
<text text-anchor="middle" x="424" y="-526.5" font-family="Helvetica,sans-Serif" font-size="10.00">::GetNextState</text>
</a>
</g>
</g>
<!-- Node21&#45;&gt;Node26 -->
<g id="edge27" class="edge"><title>Node21&#45;&gt;Node26</title>
<path fill="none" stroke="midnightblue" d="M270.941,-588.231C292.134,-579.027 318.2,-568.159 342,-559.5 351.404,-556.078 361.528,-552.711 371.325,-549.609"/>
<polygon fill="midnightblue" stroke="midnightblue" points="269.331,-585.115 261.572,-592.329 272.136,-591.529 269.331,-585.115"/>
</g>
<!-- Node27&#45;&gt;Node22 -->
<g id="edge29" class="edge"><title>Node27&#45;&gt;Node22</title>
<path fill="none" stroke="midnightblue" d="M292.552,-673.633C297.276,-675.946 301.82,-678.556 306,-681.5 327.512,-696.652 321.254,-712.315 342,-728.5 347.798,-733.023 354.269,-737.08 360.957,-740.688"/>
<polygon fill="midnightblue" stroke="midnightblue" points="293.857,-670.383 283.295,-669.545 291.029,-676.787 293.857,-670.383"/>
</g>
<!-- Node27&#45;&gt;Node23 -->
<g id="edge30" class="edge"><title>Node27&#45;&gt;Node23</title>
<path fill="none" stroke="midnightblue" d="M293.201,-668.537C314.191,-672.412 337.433,-676.703 358.381,-680.57"/>
<polygon fill="midnightblue" stroke="midnightblue" points="293.567,-665.046 283.097,-666.672 292.296,-671.929 293.567,-665.046"/>
</g>
<!-- Node27&#45;&gt;Node24 -->
<g id="edge31" class="edge"><title>Node27&#45;&gt;Node24</title>
<path fill="none" stroke="midnightblue" d="M293.25,-648.469C314.345,-645.873 337.709,-642.997 358.732,-640.41"/>
<polygon fill="midnightblue" stroke="midnightblue" points="292.595,-645.023 283.097,-649.719 293.45,-651.971 292.595,-645.023"/>
</g>
<!-- Node27&#45;&gt;Node25 -->
<g id="edge32" class="edge"><title>Node27&#45;&gt;Node25</title>
<path fill="none" stroke="midnightblue" d="M292.728,-638.198C297.278,-636.421 301.744,-634.52 306,-632.5 323.371,-624.253 324.632,-616.755 342,-608.5 349.842,-604.773 358.372,-601.435 366.856,-598.507"/>
<polygon fill="midnightblue" stroke="midnightblue" points="291.481,-634.928 283.312,-641.674 293.905,-641.495 291.481,-634.928"/>
</g>
<!-- Node27&#45;&gt;Node26 -->
<g id="edge33" class="edge"><title>Node27&#45;&gt;Node26</title>
<path fill="none" stroke="midnightblue" d="M292.756,-641.357C297.501,-638.845 301.991,-635.915 306,-632.5 333.538,-609.042 314.472,-582.97 342,-559.5 346.48,-555.681 351.537,-552.444 356.882,-549.703"/>
<polygon fill="midnightblue" stroke="midnightblue" points="290.982,-638.322 283.373,-645.694 293.918,-644.676 290.982,-638.322"/>
</g>
</g>
</svg>
        <g id="navigator" transform="translate(0 0)" fill="#404254">
                <rect fill="#f2f5e9" fill-opacity="0.5" stroke="#606060" stroke-width=".5" x="0" y="0" width="60" height="60"/>
                <use id="zoomplus" xlink:href="#zoomPlus" x="17" y="9" onmousedown="handleZoom(evt,'in')"/>
                <use id="zoomminus" xlink:href="#zoomMin" x="42" y="9" onmousedown="handleZoom(evt,'out')"/>
                <use id="reset" xlink:href="#resetDef" x="30" y="36" onmousedown="handleReset()"/>
                <g id="arrowUp" xlink:href="#dirArrow" transform="translate(30 24)" onmousedown="handlePan(0,-1)">
                  <use xlink:href="#rim" fill="#404040">
                        <set attributeName="fill" to="#808080" begin="arrowUp.mouseover" end="arrowUp.mouseout"/>
                  </use>
                  <path fill="none" stroke="white" stroke-width="1.5" d="M0,-3.0v7 M-2.5,-0.5L0,-3.0L2.5,-0.5"/>
                </g>
                <g id="arrowRight" xlink:href="#dirArrow" transform="rotate(90) translate(36 -43)" onmousedown="handlePan(1,0)">
                  <use xlink:href="#rim" fill="#404040">
                        <set attributeName="fill" to="#808080" begin="arrowRight.mouseover" end="arrowRight.mouseout"/>
                  </use>
                  <path fill="none" stroke="white" stroke-width="1.5" d="M0,-3.0v7 M-2.5,-0.5L0,-3.0L2.5,-0.5"/>
                </g>
                <g id="arrowDown" xlink:href="#dirArrow" transform="rotate(180) translate(-30 -48)" onmousedown="handlePan(0,1)">
                  <use xlink:href="#rim" fill="#404040">
                        <set attributeName="fill" to="#808080" begin="arrowDown.mouseover" end="arrowDown.mouseout"/>
                  </use>
                  <path fill="none" stroke="white" stroke-width="1.5" d="M0,-3.0v7 M-2.5,-0.5L0,-3.0L2.5,-0.5"/>
                </g>
                <g id="arrowLeft" xlink:href="#dirArrow" transform="rotate(270) translate(-36 17)" onmousedown="handlePan(-1,0)">
                  <use xlink:href="#rim" fill="#404040">
                        <set attributeName="fill" to="#808080" begin="arrowLeft.mouseover" end="arrowLeft.mouseout"/>
                  </use>
                  <path fill="none" stroke="white" stroke-width="1.5" d="M0,-3.0v7 M-2.5,-0.5L0,-3.0L2.5,-0.5"/>
                </g>
        </g>
        <svg viewBox="0 0 15 15" width="100%" height="30px" preserveAspectRatio="xMaxYMin meet">
         <g id="arrow_out" transform="scale(0.3 0.3)">
          <a xlink:href="classamunmt_1_1GPU_1_1mblas_1_1CudaStreamHandler_aab9046cda40ac3fed5676d5aa680e6c8_icgraph_org.svg" target="_base">
           <rect id="button" ry="5" rx="5" y="6" x="6" height="38" width="38"
                fill="#f2f5e9" fill-opacity="0.5" stroke="#606060" stroke-width="1.0"/>
           <path id="arrow"
             d="M 11.500037,31.436501 C 11.940474,20.09759 22.043105,11.32322 32.158766,21.979434 L 37.068811,17.246167 C 37.068811,17.246167 37.088388,32 37.088388,32 L 22.160133,31.978069 C 22.160133,31.978069 26.997745,27.140456 26.997745,27.140456 C 18.528582,18.264221 13.291696,25.230495 11.500037,31.436501 z"
             style="fill:#404040;"/>
          </a>
         </g>
        </svg>
</svg>
