<?xml version="1.0" encoding="UTF-8" standalone="no"?>
<!DOCTYPE svg PUBLIC "-//W3C//DTD SVG 1.1//EN"
 "http://www.w3.org/Graphics/SVG/1.1/DTD/svg11.dtd">
<!-- Generated by graphviz version 2.38.0 (20140413.2041)
 -->
<!-- Title: bpe.h Pages: 1 -->
<svg width="492pt" height="140pt"
 viewBox="0.00 0.00 491.87 140.00" xmlns="http://www.w3.org/2000/svg" xmlns:xlink="http://www.w3.org/1999/xlink">
<g id="graph0" class="graph" transform="scale(1 1) rotate(0) translate(4 136)">
<title>bpe.h</title>
<polygon fill="white" stroke="none" points="-4,4 -4,-136 487.871,-136 487.871,4 -4,4"/>
<!-- Node1 -->
<g id="node1" class="node"><title>Node1</title>
<polygon fill="#bfbfbf" stroke="black" points="265.5,-112.5 265.5,-131.5 306.5,-131.5 306.5,-112.5 265.5,-112.5"/>
<text text-anchor="middle" x="286" y="-119.5" font-family="Helvetica,sans-Serif" font-size="10.00">bpe.h</text>
</g>
<!-- Node2 -->
<g id="node2" class="node"><title>Node2</title>
<polygon fill="white" stroke="#bfbfbf" points="0,-0.5 0,-19.5 44,-19.5 44,-0.5 0,-0.5"/>
<text text-anchor="middle" x="22" y="-7.5" font-family="Helvetica,sans-Serif" font-size="10.00">vector</text>
</g>
<!-- Node1&#45;&gt;Node2 -->
<g id="edge1" class="edge"><title>Node1&#45;&gt;Node2</title>
<path fill="none" stroke="midnightblue" d="M265.335,-120.753C208.721,-119.596 53.2619,-113.042 22,-76 11.3282,-63.3552 12.881,-43.8721 16.1559,-29.5321"/>
<polygon fill="midnightblue" stroke="midnightblue" points="19.5645,-30.3359 18.822,-19.7671 12.8117,-28.4922 19.5645,-30.3359"/>
</g>
<!-- Node3 -->
<g id="node3" class="node"><title>Node3</title>
<polygon fill="white" stroke="#bfbfbf" points="313.5,-0.5 313.5,-19.5 354.5,-19.5 354.5,-0.5 313.5,-0.5"/>
<text text-anchor="middle" x="334" y="-7.5" font-family="Helvetica,sans-Serif" font-size="10.00">string</text>
</g>
<!-- Node1&#45;&gt;Node3 -->
<g id="edge2" class="edge"><title>Node1&#45;&gt;Node3</title>
<path fill="none" stroke="midnightblue" d="M306.722,-119.285C351.694,-115.089 455.905,-102.642 477,-76 509.004,-35.5798 415.752,-19.4106 364.79,-13.718"/>
<polygon fill="midnightblue" stroke="midnightblue" points="364.927,-10.2133 354.617,-12.6573 364.201,-17.1756 364.927,-10.2133"/>
</g>
<!-- Node4 -->
<g id="node4" class="node"><title>Node4</title>
<polygon fill="white" stroke="#bfbfbf" points="203,-56.5 203,-75.5 253,-75.5 253,-56.5 203,-56.5"/>
<text text-anchor="middle" x="228" y="-63.5" font-family="Helvetica,sans-Serif" font-size="10.00">fstream</text>
</g>
<!-- Node1&#45;&gt;Node4 -->
<g id="edge3" class="edge"><title>Node1&#45;&gt;Node4</title>
<path fill="none" stroke="midnightblue" d="M276.681,-112.324C268.107,-104.341 255.188,-92.3128 244.812,-82.6529"/>
<polygon fill="midnightblue" stroke="midnightblue" points="247.192,-80.0865 237.488,-75.8339 242.422,-85.2098 247.192,-80.0865"/>
</g>
<!-- Node5 -->
<g id="node5" class="node"><title>Node5</title>
<polygon fill="white" stroke="#bfbfbf" points="271,-56.5 271,-75.5 301,-75.5 301,-56.5 271,-56.5"/>
<text text-anchor="middle" x="286" y="-63.5" font-family="Helvetica,sans-Serif" font-size="10.00">set</text>
</g>
<!-- Node1&#45;&gt;Node5 -->
<g id="edge4" class="edge"><title>Node1&#45;&gt;Node5</title>
<path fill="none" stroke="midnightblue" d="M286,-112.083C286,-105.006 286,-94.8611 286,-85.9865"/>
<polygon fill="midnightblue" stroke="midnightblue" points="289.5,-85.751 286,-75.7511 282.5,-85.7511 289.5,-85.751"/>
</g>
<!-- Node6 -->
<g id="node6" class="node"><title>Node6</title>
<polygon fill="white" stroke="#bfbfbf" points="319.5,-56.5 319.5,-75.5 402.5,-75.5 402.5,-56.5 319.5,-56.5"/>
<text text-anchor="middle" x="361" y="-63.5" font-family="Helvetica,sans-Serif" font-size="10.00">unordered_map</text>
</g>
<!-- Node1&#45;&gt;Node6 -->
<g id="edge5" class="edge"><title>Node1&#45;&gt;Node6</title>
<path fill="none" stroke="midnightblue" d="M298.05,-112.324C309.463,-104.107 326.831,-91.6017 340.435,-81.8069"/>
<polygon fill="midnightblue" stroke="midnightblue" points="342.66,-84.5174 348.731,-75.8339 338.57,-78.8366 342.66,-84.5174"/>
</g>
<!-- Node7 -->
<g id="node7" class="node"><title>Node7</title>
<polygon fill="white" stroke="#bfbfbf" points="420.5,-56.5 420.5,-75.5 467.5,-75.5 467.5,-56.5 420.5,-56.5"/>
<text text-anchor="middle" x="444" y="-63.5" font-family="Helvetica,sans-Serif" font-size="10.00">iterator</text>
</g>
<!-- Node1&#45;&gt;Node7 -->
<g id="edge6" class="edge"><title>Node1&#45;&gt;Node7</title>
<path fill="none" stroke="midnightblue" d="M306.656,-113.94C333.073,-104.912 379.158,-89.1612 410.596,-78.4167"/>
<polygon fill="midnightblue" stroke="midnightblue" points="411.914,-81.6651 420.244,-75.119 409.65,-75.0412 411.914,-81.6651"/>
</g>
<!-- Node8 -->
<g id="node8" class="node"><title>Node8</title>
<g id="a_node8"><a xlink:href="$d9/d99/processor_8h.html" xlink:title="common/processor/processor.h">
<polygon fill="white" stroke="black" points="31,-56.5 31,-75.5 185,-75.5 185,-56.5 31,-56.5"/>
<text text-anchor="middle" x="108" y="-63.5" font-family="Helvetica,sans-Serif" font-size="10.00">common/processor/processor.h</text>
</a>
</g>
</g>
<!-- Node1&#45;&gt;Node8 -->
<g id="edge7" class="edge"><title>Node1&#45;&gt;Node8</title>
<path fill="none" stroke="midnightblue" d="M265.233,-114.7C236.061,-105.85 182.447,-89.5851 146.022,-78.5347"/>
<polygon fill="midnightblue" stroke="midnightblue" points="146.824,-75.1206 136.238,-75.5667 144.792,-81.8191 146.824,-75.1206"/>
</g>
<!-- Node8&#45;&gt;Node2 -->
<g id="edge9" class="edge"><title>Node8&#45;&gt;Node2</title>
<path fill="none" stroke="midnightblue" d="M94.1826,-56.324C80.767,-47.9002 60.1759,-34.9709 44.4144,-25.0741"/>
<polygon fill="midnightblue" stroke="midnightblue" points="46.1132,-22.0081 35.7831,-19.6545 42.3908,-27.9364 46.1132,-22.0081"/>
</g>
<!-- Node8&#45;&gt;Node3 -->
<g id="edge8" class="edge"><title>Node8&#45;&gt;Node3</title>
<path fill="none" stroke="midnightblue" d="M143.81,-56.4435C187.871,-45.9158 261.923,-28.222 303.431,-18.3042"/>
<polygon fill="midnightblue" stroke="midnightblue" points="304.332,-21.6875 313.244,-15.9593 302.705,-14.8792 304.332,-21.6875"/>
</g>
<!-- Node9 -->
<g id="node9" class="node"><title>Node9</title>
<polygon fill="white" stroke="#bfbfbf" points="82,-0.5 82,-19.5 134,-19.5 134,-0.5 82,-0.5"/>
<text text-anchor="middle" x="108" y="-7.5" font-family="Helvetica,sans-Serif" font-size="10.00">memory</text>
</g>
<!-- Node8&#45;&gt;Node9 -->
<g id="edge10" class="edge"><title>Node8&#45;&gt;Node9</title>
<path fill="none" stroke="midnightblue" d="M108,-56.083C108,-49.0059 108,-38.8611 108,-29.9865"/>
<polygon fill="midnightblue" stroke="midnightblue" points="111.5,-29.751 108,-19.7511 104.5,-29.7511 111.5,-29.751"/>
</g>
</g>
</svg>
