<?xml version="1.0" encoding="UTF-8" standalone="no"?>
<!DOCTYPE svg PUBLIC "-//W3C//DTD SVG 1.1//EN"
 "http://www.w3.org/Graphics/SVG/1.1/DTD/svg11.dtd">
<!-- Generated by graphviz version 2.38.0 (20140413.2041)
 -->
<!-- Title: marian::rnn::Tanh Pages: 1 -->
<svg width="132pt" height="623pt"
 viewBox="0.00 0.00 132.00 623.00" xmlns="http://www.w3.org/2000/svg" xmlns:xlink="http://www.w3.org/1999/xlink">
<g id="graph0" class="graph" transform="scale(1 1) rotate(0) translate(4 619)">
<title>marian::rnn::Tanh</title>
<polygon fill="white" stroke="none" points="-4,4 -4,-619 128,-619 128,4 -4,4"/>
<!-- Node1 -->
<g id="node1" class="node"><title>Node1</title>
<polygon fill="#bfbfbf" stroke="black" points="15.5,-0.5 15.5,-178.5 108.5,-178.5 108.5,-0.5 15.5,-0.5"/>
<text text-anchor="middle" x="62" y="-166.5" font-family="Helvetica,sans-Serif" font-size="10.00">marian::rnn::Tanh</text>
<polyline fill="none" stroke="black" points="15.5,-159.5 108.5,-159.5 "/>
<text text-anchor="start" x="23.5" y="-147.5" font-family="Helvetica,sans-Serif" font-size="10.00">&#45; U_</text>
<text text-anchor="start" x="23.5" y="-136.5" font-family="Helvetica,sans-Serif" font-size="10.00">&#45; W_</text>
<text text-anchor="start" x="23.5" y="-125.5" font-family="Helvetica,sans-Serif" font-size="10.00">&#45; b_</text>
<text text-anchor="start" x="23.5" y="-114.5" font-family="Helvetica,sans-Serif" font-size="10.00">&#45; gamma1_</text>
<text text-anchor="start" x="23.5" y="-103.5" font-family="Helvetica,sans-Serif" font-size="10.00">&#45; gamma2_</text>
<text text-anchor="start" x="23.5" y="-92.5" font-family="Helvetica,sans-Serif" font-size="10.00">&#45; layerNorm_</text>
<text text-anchor="start" x="23.5" y="-81.5" font-family="Helvetica,sans-Serif" font-size="10.00">&#45; dropout_</text>
<text text-anchor="start" x="23.5" y="-70.5" font-family="Helvetica,sans-Serif" font-size="10.00">&#45; dropMaskX_</text>
<text text-anchor="start" x="23.5" y="-59.5" font-family="Helvetica,sans-Serif" font-size="10.00">&#45; dropMaskS_</text>
<polyline fill="none" stroke="black" points="15.5,-52.5 108.5,-52.5 "/>
<text text-anchor="start" x="23.5" y="-40.5" font-family="Helvetica,sans-Serif" font-size="10.00">+ Tanh()</text>
<text text-anchor="start" x="23.5" y="-29.5" font-family="Helvetica,sans-Serif" font-size="10.00">+ apply()</text>
<text text-anchor="start" x="23.5" y="-18.5" font-family="Helvetica,sans-Serif" font-size="10.00">+ applyInput()</text>
<text text-anchor="start" x="23.5" y="-7.5" font-family="Helvetica,sans-Serif" font-size="10.00">+ applyState()</text>
</g>
<!-- Node2 -->
<g id="node2" class="node"><title>Node2</title>
<g id="a_node2"><a xlink:href="../../d5/de5/classmarian_1_1rnn_1_1Cell.html" target="_top" xlink:title="{marian::rnn::Cell\n|# lazyInputs_\l|+ Cell()\l+ apply()\l+ getLazyInputs()\l+ setLazyInputs()\l+ applyInput()\l+ applyState()\l+ clear()\l}">
<polygon fill="white" stroke="black" points="15.5,-215.5 15.5,-338.5 108.5,-338.5 108.5,-215.5 15.5,-215.5"/>
<text text-anchor="middle" x="62" y="-326.5" font-family="Helvetica,sans-Serif" font-size="10.00">marian::rnn::Cell</text>
<polyline fill="none" stroke="black" points="15.5,-319.5 108.5,-319.5 "/>
<text text-anchor="start" x="23.5" y="-307.5" font-family="Helvetica,sans-Serif" font-size="10.00"># lazyInputs_</text>
<polyline fill="none" stroke="black" points="15.5,-300.5 108.5,-300.5 "/>
<text text-anchor="start" x="23.5" y="-288.5" font-family="Helvetica,sans-Serif" font-size="10.00">+ Cell()</text>
<text text-anchor="start" x="23.5" y="-277.5" font-family="Helvetica,sans-Serif" font-size="10.00">+ apply()</text>
<text text-anchor="start" x="23.5" y="-266.5" font-family="Helvetica,sans-Serif" font-size="10.00">+ getLazyInputs()</text>
<text text-anchor="start" x="23.5" y="-255.5" font-family="Helvetica,sans-Serif" font-size="10.00">+ setLazyInputs()</text>
<text text-anchor="start" x="23.5" y="-244.5" font-family="Helvetica,sans-Serif" font-size="10.00">+ applyInput()</text>
<text text-anchor="start" x="23.5" y="-233.5" font-family="Helvetica,sans-Serif" font-size="10.00">+ applyState()</text>
<text text-anchor="start" x="23.5" y="-222.5" font-family="Helvetica,sans-Serif" font-size="10.00">+ clear()</text>
</a>
</g>
</g>
<!-- Node2&#45;&gt;Node1 -->
<g id="edge1" class="edge"><title>Node2&#45;&gt;Node1</title>
<path fill="none" stroke="midnightblue" d="M62,-205.199C62,-196.505 62,-187.538 62,-178.628"/>
<polygon fill="none" stroke="midnightblue" points="58.5001,-205.26 62,-215.26 65.5001,-205.26 58.5001,-205.26"/>
</g>
<!-- Node3 -->
<g id="node3" class="node"><title>Node3</title>
<g id="a_node3"><a xlink:href="../../d4/d04/classmarian_1_1rnn_1_1Stackable.html" target="_top" xlink:title="{marian::rnn::Stackable\n|# options_\l|+ Stackable()\l+ ~Stackable()\l+ as()\l+ is()\l+ getOptions()\l+ opt()\l+ opt()\l+ clear()\l}">
<polygon fill="white" stroke="black" points="4.5,-375.5 4.5,-509.5 119.5,-509.5 119.5,-375.5 4.5,-375.5"/>
<text text-anchor="middle" x="62" y="-497.5" font-family="Helvetica,sans-Serif" font-size="10.00">marian::rnn::Stackable</text>
<polyline fill="none" stroke="black" points="4.5,-490.5 119.5,-490.5 "/>
<text text-anchor="start" x="12.5" y="-478.5" font-family="Helvetica,sans-Serif" font-size="10.00"># options_</text>
<polyline fill="none" stroke="black" points="4.5,-471.5 119.5,-471.5 "/>
<text text-anchor="start" x="12.5" y="-459.5" font-family="Helvetica,sans-Serif" font-size="10.00">+ Stackable()</text>
<text text-anchor="start" x="12.5" y="-448.5" font-family="Helvetica,sans-Serif" font-size="10.00">+ ~Stackable()</text>
<text text-anchor="start" x="12.5" y="-437.5" font-family="Helvetica,sans-Serif" font-size="10.00">+ as()</text>
<text text-anchor="start" x="12.5" y="-426.5" font-family="Helvetica,sans-Serif" font-size="10.00">+ is()</text>
<text text-anchor="start" x="12.5" y="-415.5" font-family="Helvetica,sans-Serif" font-size="10.00">+ getOptions()</text>
<text text-anchor="start" x="12.5" y="-404.5" font-family="Helvetica,sans-Serif" font-size="10.00">+ opt()</text>
<text text-anchor="start" x="12.5" y="-393.5" font-family="Helvetica,sans-Serif" font-size="10.00">+ opt()</text>
<text text-anchor="start" x="12.5" y="-382.5" font-family="Helvetica,sans-Serif" font-size="10.00">+ clear()</text>
</a>
</g>
</g>
<!-- Node3&#45;&gt;Node2 -->
<g id="edge2" class="edge"><title>Node3&#45;&gt;Node2</title>
<path fill="none" stroke="midnightblue" d="M62,-365.425C62,-356.473 62,-347.43 62,-338.728"/>
<polygon fill="none" stroke="midnightblue" points="58.5001,-365.47 62,-375.47 65.5001,-365.47 58.5001,-365.47"/>
</g>
<!-- Node4 -->
<g id="node4" class="node"><title>Node4</title>
<polygon fill="white" stroke="#bfbfbf" points="-7.10543e-15,-546.5 -7.10543e-15,-614.5 124,-614.5 124,-546.5 -7.10543e-15,-546.5"/>
<text text-anchor="start" x="8" y="-602.5" font-family="Helvetica,sans-Serif" font-size="10.00">std::enable_shared</text>
<text text-anchor="middle" x="62" y="-591.5" font-family="Helvetica,sans-Serif" font-size="10.00">_from_this&lt; Stackable &gt;</text>
<polyline fill="none" stroke="#bfbfbf" points="-7.10543e-15,-584.5 124,-584.5 "/>
<text text-anchor="middle" x="62" y="-572.5" font-family="Helvetica,sans-Serif" font-size="10.00"> </text>
<polyline fill="none" stroke="#bfbfbf" points="-7.10543e-15,-565.5 124,-565.5 "/>
<text text-anchor="middle" x="62" y="-553.5" font-family="Helvetica,sans-Serif" font-size="10.00"> </text>
</g>
<!-- Node4&#45;&gt;Node3 -->
<g id="edge3" class="edge"><title>Node4&#45;&gt;Node3</title>
<path fill="none" stroke="midnightblue" d="M62,-535.956C62,-527.567 62,-518.604 62,-509.683"/>
<polygon fill="none" stroke="midnightblue" points="58.5001,-536.231 62,-546.231 65.5001,-536.231 58.5001,-536.231"/>
</g>
</g>
</svg>
