<?xml version="1.0" encoding="UTF-8" standalone="no"?>
<!DOCTYPE svg PUBLIC "-//W3C//DTD SVG 1.1//EN"
 "http://www.w3.org/Graphics/SVG/1.1/DTD/svg11.dtd">
<!-- Generated by graphviz version 2.38.0 (20140413.2041)
 -->
<!-- Title: matrix_wrapper.h Pages: 1 -->
<!--zoomable 588 -->
<svg id="main" version="1.1" xmlns="http://www.w3.org/2000/svg" xmlns:xlink="http://www.w3.org/1999/xlink" xml:space="preserve" onload="init(evt)">
<style type="text/css"><![CDATA[
.edge:hover path { stroke: red; }
.edge:hover polygon { stroke: red; fill: red; }
]]></style>
<script type="text/javascript"><![CDATA[
var edges = document.getElementsByTagName('g');
if (edges && edges.length) {
  for (var i=0;i<edges.length;i++) {
    if (edges[i].id.substr(0,4)=='edge') {
      edges[i].setAttribute('class','edge');
    }
  }
}
]]></script>
        <defs>
                <circle id="rim" cx="0" cy="0" r="7"/>
                <circle id="rim2" cx="0" cy="0" r="3.5"/>
                <g id="zoomPlus">
                        <use xlink:href="#rim" fill="#404040">
                                <set attributeName="fill" to="#808080" begin="zoomplus.mouseover" end="zoomplus.mouseout"/>
                        </use>
                        <path d="M-4,0h8M0,-4v8" fill="none" stroke="white" stroke-width="1.5" pointer-events="none"/>
                </g>
                <g id="zoomMin">
                        <use xlink:href="#rim" fill="#404040">
                                <set attributeName="fill" to="#808080" begin="zoomminus.mouseover" end="zoomminus.mouseout"/>
                        </use>
                        <path d="M-4,0h8" fill="none" stroke="white" stroke-width="1.5" pointer-events="none"/>
                </g>
                <g id="dirArrow">
                        <path fill="none" stroke="white" stroke-width="1.5" d="M0,-3.0v7 M-2.5,-0.5L0,-3.0L2.5,-0.5"/>
                </g>
               <g id="resetDef">
                       <use xlink:href="#rim2" fill="#404040">
                               <set attributeName="fill" to="#808080" begin="reset.mouseover" end="reset.mouseout"/>
                       </use>
               </g>
        </defs>

<script type="text/javascript">
var viewWidth = 946;
var viewHeight = 588;
var sectionId = 'dynsection-1';
</script>
<script xlink:href="../../svgpan.js"/>
<svg id="graph" class="graph">
<g id="viewport">
<title>matrix_wrapper.h</title>
<polygon fill="white" stroke="none" points="-4,4 -4,-584 942,-584 942,4 -4,4"/>
<!-- Node1 -->
<g id="node1" class="node"><title>Node1</title>
<polygon fill="#bfbfbf" stroke="black" points="412,-560.5 412,-579.5 504,-579.5 504,-560.5 412,-560.5"/>
<text text-anchor="middle" x="458" y="-567.5" font-family="Helvetica,sans-Serif" font-size="10.00">matrix_wrapper.h</text>
</g>
<!-- Node2 -->
<g id="node2" class="node"><title>Node2</title>
<g id="a_node2"><a xlink:href="../../d0/ddd/cell_8h.html" target="_top" xlink:title="cell.h">
<polygon fill="white" stroke="black" points="452,-336.5 452,-355.5 492,-355.5 492,-336.5 452,-336.5"/>
<text text-anchor="middle" x="472" y="-343.5" font-family="Helvetica,sans-Serif" font-size="10.00">cell.h</text>
</a>
</g>
</g>
<!-- Node1&#45;&gt;Node2 -->
<g id="edge1" class="edge"><title>Node1&#45;&gt;Node2</title>
<path fill="none" stroke="midnightblue" d="M459.18,-550.295C462.058,-504.644 469.361,-388.854 471.44,-355.884"/>
<polygon fill="midnightblue" stroke="midnightblue" points="455.685,-550.097 458.549,-560.297 462.671,-550.537 455.685,-550.097"/>
</g>
<!-- Node3 -->
<g id="node3" class="node"><title>Node3</title>
<g id="a_node3"><a xlink:href="../../dc/db8/gru_8h.html" target="_top" xlink:title="gru.h">
<polygon fill="white" stroke="black" points="568,-280.5 568,-299.5 606,-299.5 606,-280.5 568,-280.5"/>
<text text-anchor="middle" x="587" y="-287.5" font-family="Helvetica,sans-Serif" font-size="10.00">gru.h</text>
</a>
</g>
</g>
<!-- Node1&#45;&gt;Node3 -->
<g id="edge26" class="edge"><title>Node1&#45;&gt;Node3</title>
<path fill="none" stroke="midnightblue" d="M514.304,-567.868C641.093,-563.794 938,-545.066 938,-459 938,-459 938,-459 938,-401 938,-330.834 679.366,-300.075 606.121,-292.771"/>
<polygon fill="midnightblue" stroke="midnightblue" points="513.914,-564.378 504.024,-568.178 514.125,-571.375 513.914,-564.378"/>
</g>
<!-- Node9 -->
<g id="node9" class="node"><title>Node9</title>
<g id="a_node9"><a xlink:href="../../d0/d55/lstm_8h.html" target="_top" xlink:title="lstm.h">
<polygon fill="white" stroke="black" points="430,-280.5 430,-299.5 474,-299.5 474,-280.5 430,-280.5"/>
<text text-anchor="middle" x="452" y="-287.5" font-family="Helvetica,sans-Serif" font-size="10.00">lstm.h</text>
</a>
</g>
</g>
<!-- Node1&#45;&gt;Node9 -->
<g id="edge27" class="edge"><title>Node1&#45;&gt;Node9</title>
<path fill="none" stroke="midnightblue" d="M401.698,-564.555C295.462,-554.608 76,-525.957 76,-459 76,-459 76,-459 76,-401 76,-326.78 349.285,-299.16 429.883,-292.629"/>
<polygon fill="midnightblue" stroke="midnightblue" points="401.645,-568.064 411.922,-565.487 402.281,-561.093 401.645,-568.064"/>
</g>
<!-- Node10 -->
<g id="node10" class="node"><title>Node10</title>
<g id="a_node10"><a xlink:href="../../d6/d81/multiplicative_8h.html" target="_top" xlink:title="multiplicative.h">
<polygon fill="white" stroke="black" points="354,-224.5 354,-243.5 436,-243.5 436,-224.5 354,-224.5"/>
<text text-anchor="middle" x="395" y="-231.5" font-family="Helvetica,sans-Serif" font-size="10.00">multiplicative.h</text>
</a>
</g>
</g>
<!-- Node1&#45;&gt;Node10 -->
<g id="edge28" class="edge"><title>Node1&#45;&gt;Node10</title>
<path fill="none" stroke="midnightblue" d="M401.699,-567.245C279.326,-561.899 0,-540.744 0,-459 0,-459 0,-459 0,-345 0,-272.123 252.677,-245.455 353.846,-237.698"/>
<polygon fill="midnightblue" stroke="midnightblue" points="401.851,-570.754 411.988,-567.673 402.142,-563.76 401.851,-570.754"/>
</g>
<!-- Node11 -->
<g id="node11" class="node"><title>Node11</title>
<g id="a_node11"><a xlink:href="../../d2/d98/cellstate_8h.html" target="_top" xlink:title="cellstate.h">
<polygon fill="white" stroke="black" points="368,-392.5 368,-411.5 430,-411.5 430,-392.5 368,-392.5"/>
<text text-anchor="middle" x="399" y="-399.5" font-family="Helvetica,sans-Serif" font-size="10.00">cellstate.h</text>
</a>
</g>
</g>
<!-- Node1&#45;&gt;Node11 -->
<g id="edge17" class="edge"><title>Node1&#45;&gt;Node11</title>
<path fill="none" stroke="midnightblue" d="M451.387,-550.395C438.66,-514.585 411.206,-437.342 402.045,-411.568"/>
<polygon fill="midnightblue" stroke="midnightblue" points="448.181,-551.825 454.828,-560.075 454.777,-549.48 448.181,-551.825"/>
</g>
<!-- Node14 -->
<g id="node14" class="node"><title>Node14</title>
<g id="a_node14"><a xlink:href="../../da/dbc/matrix__functions_8h.html" target="_top" xlink:title="matrix_functions.h">
<polygon fill="white" stroke="black" points="533.5,-448.5 533.5,-467.5 630.5,-467.5 630.5,-448.5 533.5,-448.5"/>
<text text-anchor="middle" x="582" y="-455.5" font-family="Helvetica,sans-Serif" font-size="10.00">matrix_functions.h</text>
</a>
</g>
</g>
<!-- Node1&#45;&gt;Node14 -->
<g id="edge29" class="edge"><title>Node1&#45;&gt;Node14</title>
<path fill="none" stroke="midnightblue" d="M470.682,-552.247C481.584,-538.441 498.171,-518.795 515,-504 531.417,-489.568 552.705,-476.015 566.832,-467.628"/>
<polygon fill="midnightblue" stroke="midnightblue" points="467.749,-550.318 464.392,-560.367 473.283,-554.605 467.749,-550.318"/>
</g>
<!-- Node19 -->
<g id="node19" class="node"><title>Node19</title>
<g id="a_node19"><a xlink:href="../../de/db1/nth__element__kernels_8h.html" target="_top" xlink:title="nth_element_kernels.h">
<polygon fill="white" stroke="black" points="524.5,-504.5 524.5,-523.5 639.5,-523.5 639.5,-504.5 524.5,-504.5"/>
<text text-anchor="middle" x="582" y="-511.5" font-family="Helvetica,sans-Serif" font-size="10.00">nth_element_kernels.h</text>
</a>
</g>
</g>
<!-- Node1&#45;&gt;Node19 -->
<g id="edge45" class="edge"><title>Node1&#45;&gt;Node19</title>
<path fill="none" stroke="midnightblue" d="M487.007,-556.368C510.229,-546.255 542.163,-532.349 562.444,-523.516"/>
<polygon fill="midnightblue" stroke="midnightblue" points="485.419,-553.242 477.648,-560.444 488.214,-559.66 485.419,-553.242"/>
</g>
<!-- Node2&#45;&gt;Node3 -->
<g id="edge2" class="edge"><title>Node2&#45;&gt;Node3</title>
<path fill="none" stroke="midnightblue" d="M499.481,-332.096C520.966,-322.007 550.222,-308.27 568.863,-299.516"/>
<polygon fill="midnightblue" stroke="midnightblue" points="497.786,-329.025 490.222,-336.444 500.762,-335.361 497.786,-329.025"/>
</g>
<!-- Node4 -->
<g id="node4" class="node"><title>Node4</title>
<g id="a_node4"><a xlink:href="../../d6/d72/decoder_8h.html" target="_top" xlink:title="decoder.h">
<polygon fill="white" stroke="black" points="586.5,-224.5 586.5,-243.5 645.5,-243.5 645.5,-224.5 586.5,-224.5"/>
<text text-anchor="middle" x="616" y="-231.5" font-family="Helvetica,sans-Serif" font-size="10.00">decoder.h</text>
</a>
</g>
</g>
<!-- Node2&#45;&gt;Node4 -->
<g id="edge14" class="edge"><title>Node2&#45;&gt;Node4</title>
<path fill="none" stroke="midnightblue" d="M491.483,-330.118C522.048,-306.769 580.301,-262.27 604.753,-243.591"/>
<polygon fill="midnightblue" stroke="midnightblue" points="489.122,-327.517 483.299,-336.368 493.371,-333.079 489.122,-327.517"/>
</g>
<!-- Node8 -->
<g id="node8" class="node"><title>Node8</title>
<g id="a_node8"><a xlink:href="../../d1/d79/encoder_8h.html" target="_top" xlink:title="encoder.h">
<polygon fill="white" stroke="black" points="500.5,-168.5 500.5,-187.5 559.5,-187.5 559.5,-168.5 500.5,-168.5"/>
<text text-anchor="middle" x="530" y="-175.5" font-family="Helvetica,sans-Serif" font-size="10.00">encoder.h</text>
</a>
</g>
</g>
<!-- Node2&#45;&gt;Node8 -->
<g id="edge16" class="edge"><title>Node2&#45;&gt;Node8</title>
<path fill="none" stroke="midnightblue" d="M478.501,-326.395C491.012,-290.585 518.001,-213.342 527.006,-187.568"/>
<polygon fill="midnightblue" stroke="midnightblue" points="475.113,-325.48 475.118,-336.075 481.721,-327.789 475.113,-325.48"/>
</g>
<!-- Node2&#45;&gt;Node9 -->
<g id="edge9" class="edge"><title>Node2&#45;&gt;Node9</title>
<path fill="none" stroke="midnightblue" d="M465.218,-326.69C461.848,-317.589 457.931,-307.014 455.241,-299.751"/>
<polygon fill="midnightblue" stroke="midnightblue" points="461.942,-327.921 468.697,-336.083 468.506,-325.49 461.942,-327.921"/>
</g>
<!-- Node2&#45;&gt;Node10 -->
<g id="edge15" class="edge"><title>Node2&#45;&gt;Node10</title>
<path fill="none" stroke="midnightblue" d="M451.105,-330.261C440.943,-322.247 429.187,-311.61 421,-300 408.253,-281.922 400.489,-256.696 397.066,-243.622"/>
<polygon fill="midnightblue" stroke="midnightblue" points="449.064,-333.105 459.153,-336.339 453.283,-327.519 449.064,-333.105"/>
</g>
<!-- Node3&#45;&gt;Node4 -->
<g id="edge3" class="edge"><title>Node3&#45;&gt;Node4</title>
<path fill="none" stroke="midnightblue" d="M596.676,-270.983C601.598,-261.817 607.358,-251.092 611.3,-243.751"/>
<polygon fill="midnightblue" stroke="midnightblue" points="593.437,-269.617 591.789,-280.083 599.604,-272.929 593.437,-269.617"/>
</g>
<!-- Node3&#45;&gt;Node8 -->
<g id="edge7" class="edge"><title>Node3&#45;&gt;Node8</title>
<path fill="none" stroke="midnightblue" d="M577.839,-271.32C565.428,-247.37 543.757,-205.548 534.452,-187.591"/>
<polygon fill="midnightblue" stroke="midnightblue" points="574.819,-273.1 582.527,-280.368 581.034,-269.879 574.819,-273.1"/>
</g>
<!-- Node5 -->
<g id="node5" class="node"><title>Node5</title>
<g id="a_node5"><a xlink:href="../../db/d89/dl4mt_8h.html" target="_top" xlink:title="dl4mt.h">
<polygon fill="white" stroke="black" points="591.5,-112.5 591.5,-131.5 640.5,-131.5 640.5,-112.5 591.5,-112.5"/>
<text text-anchor="middle" x="616" y="-119.5" font-family="Helvetica,sans-Serif" font-size="10.00">dl4mt.h</text>
</a>
</g>
</g>
<!-- Node4&#45;&gt;Node5 -->
<g id="edge4" class="edge"><title>Node4&#45;&gt;Node5</title>
<path fill="none" stroke="midnightblue" d="M616,-214.348C616,-190.254 616,-149.308 616,-131.591"/>
<polygon fill="midnightblue" stroke="midnightblue" points="612.5,-214.368 616,-224.368 619.5,-214.369 612.5,-214.368"/>
</g>
<!-- Node6 -->
<g id="node6" class="node"><title>Node6</title>
<g id="a_node6"><a xlink:href="../../d6/da3/language__model_8h.html" target="_top" xlink:title="language_model.h">
<polygon fill="white" stroke="black" points="568.5,-56.5 568.5,-75.5 663.5,-75.5 663.5,-56.5 568.5,-56.5"/>
<text text-anchor="middle" x="616" y="-63.5" font-family="Helvetica,sans-Serif" font-size="10.00">language_model.h</text>
</a>
</g>
</g>
<!-- Node5&#45;&gt;Node6 -->
<g id="edge5" class="edge"><title>Node5&#45;&gt;Node6</title>
<path fill="none" stroke="midnightblue" d="M616,-101.805C616,-92.9102 616,-82.7798 616,-75.7511"/>
<polygon fill="midnightblue" stroke="midnightblue" points="612.5,-102.083 616,-112.083 619.5,-102.083 612.5,-102.083"/>
</g>
<!-- Node7 -->
<g id="node7" class="node"><title>Node7</title>
<g id="a_node7"><a xlink:href="../../d3/d17/class__language__model_8h.html" target="_top" xlink:title="class_language_model.h">
<polygon fill="white" stroke="black" points="554,-0.5 554,-19.5 678,-19.5 678,-0.5 554,-0.5"/>
<text text-anchor="middle" x="616" y="-7.5" font-family="Helvetica,sans-Serif" font-size="10.00">class_language_model.h</text>
</a>
</g>
</g>
<!-- Node6&#45;&gt;Node7 -->
<g id="edge6" class="edge"><title>Node6&#45;&gt;Node7</title>
<path fill="none" stroke="midnightblue" d="M616,-45.8045C616,-36.9102 616,-26.7798 616,-19.7511"/>
<polygon fill="midnightblue" stroke="midnightblue" points="612.5,-46.083 616,-56.083 619.5,-46.083 612.5,-46.083"/>
</g>
<!-- Node8&#45;&gt;Node5 -->
<g id="edge8" class="edge"><title>Node8&#45;&gt;Node5</title>
<path fill="none" stroke="midnightblue" d="M552.455,-162.901C568.224,-152.999 588.814,-140.071 602.217,-131.655"/>
<polygon fill="midnightblue" stroke="midnightblue" points="550.425,-160.042 543.817,-168.324 554.148,-165.97 550.425,-160.042"/>
</g>
<!-- Node9&#45;&gt;Node4 -->
<g id="edge10" class="edge"><title>Node9&#45;&gt;Node4</title>
<path fill="none" stroke="midnightblue" d="M483.966,-278.475C514.88,-268.296 561.154,-253.059 589.912,-243.59"/>
<polygon fill="midnightblue" stroke="midnightblue" points="482.521,-275.265 474.118,-281.717 484.711,-281.914 482.521,-275.265"/>
</g>
<!-- Node9&#45;&gt;Node8 -->
<g id="edge11" class="edge"><title>Node9&#45;&gt;Node8</title>
<path fill="none" stroke="midnightblue" d="M460.451,-271.033C467.133,-257.57 477.123,-238.969 488,-224 497.925,-210.34 511.598,-196.4 520.611,-187.729"/>
<polygon fill="midnightblue" stroke="midnightblue" points="457.229,-269.656 456.026,-280.182 463.531,-272.704 457.229,-269.656"/>
</g>
<!-- Node9&#45;&gt;Node10 -->
<g id="edge12" class="edge"><title>Node9&#45;&gt;Node10</title>
<path fill="none" stroke="midnightblue" d="M435.379,-273.253C425.266,-263.673 412.723,-251.791 404.325,-243.834"/>
<polygon fill="midnightblue" stroke="midnightblue" points="433.175,-275.987 442.842,-280.324 437.99,-270.906 433.175,-275.987"/>
</g>
<!-- Node10&#45;&gt;Node8 -->
<g id="edge13" class="edge"><title>Node10&#45;&gt;Node8</title>
<path fill="none" stroke="midnightblue" d="M425.906,-220.638C451.24,-210.504 486.431,-196.427 508.709,-187.516"/>
<polygon fill="midnightblue" stroke="midnightblue" points="424.376,-217.48 416.391,-224.444 426.976,-223.979 424.376,-217.48"/>
</g>
<!-- Node11&#45;&gt;Node2 -->
<g id="edge19" class="edge"><title>Node11&#45;&gt;Node2</title>
<path fill="none" stroke="midnightblue" d="M419.142,-386.101C432.279,-376.382 448.982,-364.027 460.058,-355.834"/>
<polygon fill="midnightblue" stroke="midnightblue" points="416.687,-383.563 410.729,-392.324 420.85,-389.191 416.687,-383.563"/>
</g>
<!-- Node11&#45;&gt;Node3 -->
<g id="edge21" class="edge"><title>Node11&#45;&gt;Node3</title>
<path fill="none" stroke="midnightblue" d="M431.947,-388.73C452.406,-380.565 478.916,-368.979 501,-356 530.527,-338.646 561.786,-312.888 577.212,-299.609"/>
<polygon fill="midnightblue" stroke="midnightblue" points="430.472,-385.549 422.436,-392.454 433.024,-392.067 430.472,-385.549"/>
</g>
<!-- Node11&#45;&gt;Node4 -->
<g id="edge23" class="edge"><title>Node11&#45;&gt;Node4</title>
<path fill="none" stroke="midnightblue" d="M440.285,-396.046C492.64,-387.218 580.277,-363.286 615,-300 624.88,-281.992 621.218,-256.736 618.274,-243.64"/>
<polygon fill="midnightblue" stroke="midnightblue" points="439.644,-392.603 430.31,-397.617 440.733,-399.518 439.644,-392.603"/>
</g>
<!-- Node11&#45;&gt;Node8 -->
<g id="edge25" class="edge"><title>Node11&#45;&gt;Node8</title>
<path fill="none" stroke="midnightblue" d="M357.684,-399.466C295.399,-396.188 182.048,-386.135 157,-356 151.318,-349.164 155.695,-344.793 157,-336 160.819,-310.271 155.809,-298.591 174,-280 264.312,-187.702 432.269,-178.077 500.27,-178.202"/>
<polygon fill="midnightblue" stroke="midnightblue" points="357.795,-402.975 367.955,-399.969 358.138,-395.984 357.795,-402.975"/>
</g>
<!-- Node11&#45;&gt;Node9 -->
<g id="edge22" class="edge"><title>Node11&#45;&gt;Node9</title>
<path fill="none" stroke="midnightblue" d="M407.519,-383.32C419.058,-359.37 439.208,-317.548 447.86,-299.591"/>
<polygon fill="midnightblue" stroke="midnightblue" points="404.346,-381.84 403.159,-392.368 410.653,-384.879 404.346,-381.84"/>
</g>
<!-- Node11&#45;&gt;Node10 -->
<g id="edge24" class="edge"><title>Node11&#45;&gt;Node10</title>
<path fill="none" stroke="midnightblue" d="M357.851,-398.948C298.705,-395.039 194.201,-384.228 171,-356 116.202,-289.33 275.294,-253.971 353.887,-240.945"/>
<polygon fill="midnightblue" stroke="midnightblue" points="357.788,-402.45 367.986,-399.579 358.224,-395.464 357.788,-402.45"/>
</g>
<!-- Node12 -->
<g id="node12" class="node"><title>Node12</title>
<g id="a_node12"><a xlink:href="../../d0/d1e/encoder__decoder__state_8h.html" target="_top" xlink:title="encoder_decoder_state.h">
<polygon fill="white" stroke="black" points="180,-336.5 180,-355.5 306,-355.5 306,-336.5 180,-336.5"/>
<text text-anchor="middle" x="243" y="-343.5" font-family="Helvetica,sans-Serif" font-size="10.00">encoder_decoder_state.h</text>
</a>
</g>
</g>
<!-- Node11&#45;&gt;Node12 -->
<g id="edge18" class="edge"><title>Node11&#45;&gt;Node12</title>
<path fill="none" stroke="midnightblue" d="M364.83,-389.172C335.456,-379.004 293.802,-364.585 267.603,-355.516"/>
<polygon fill="midnightblue" stroke="midnightblue" points="363.687,-392.48 374.281,-392.444 365.976,-385.865 363.687,-392.48"/>
</g>
<!-- Node13 -->
<g id="node13" class="node"><title>Node13</title>
<g id="a_node13"><a xlink:href="../../d4/d8f/cellstate_8cpp.html" target="_top" xlink:title="cellstate.cpp">
<polygon fill="white" stroke="black" points="324,-336.5 324,-355.5 396,-355.5 396,-336.5 324,-336.5"/>
<text text-anchor="middle" x="360" y="-343.5" font-family="Helvetica,sans-Serif" font-size="10.00">cellstate.cpp</text>
</a>
</g>
</g>
<!-- Node11&#45;&gt;Node13 -->
<g id="edge20" class="edge"><title>Node11&#45;&gt;Node13</title>
<path fill="none" stroke="midnightblue" d="M386.618,-383.855C379.865,-374.505 371.791,-363.327 366.32,-355.751"/>
<polygon fill="midnightblue" stroke="midnightblue" points="383.868,-386.025 392.56,-392.083 389.542,-381.927 383.868,-386.025"/>
</g>
<!-- Node14&#45;&gt;Node2 -->
<g id="edge31" class="edge"><title>Node14&#45;&gt;Node2</title>
<path fill="none" stroke="midnightblue" d="M559.34,-443.01C546.991,-434.804 531.854,-423.757 520,-412 501.872,-394.021 485.259,-368.753 477.169,-355.647"/>
<polygon fill="midnightblue" stroke="midnightblue" points="557.456,-445.96 567.753,-448.453 561.258,-440.083 557.456,-445.96"/>
</g>
<!-- Node14&#45;&gt;Node3 -->
<g id="edge34" class="edge"><title>Node14&#45;&gt;Node3</title>
<path fill="none" stroke="midnightblue" d="M582.574,-437.93C583.659,-401.92 585.969,-325.231 586.742,-299.568"/>
<polygon fill="midnightblue" stroke="midnightblue" points="579.072,-437.974 582.269,-448.075 586.068,-438.185 579.072,-437.974"/>
</g>
<!-- Node14&#45;&gt;Node4 -->
<g id="edge33" class="edge"><title>Node14&#45;&gt;Node4</title>
<path fill="none" stroke="midnightblue" d="M589.895,-438.873C601.932,-410.108 624.29,-351.937 632,-300 633.305,-291.207 633.511,-288.76 632,-280 629.745,-266.926 624.059,-252.617 620.111,-243.723"/>
<polygon fill="midnightblue" stroke="midnightblue" points="586.542,-437.812 585.839,-448.384 592.981,-440.558 586.542,-437.812"/>
</g>
<!-- Node14&#45;&gt;Node8 -->
<g id="edge36" class="edge"><title>Node14&#45;&gt;Node8</title>
<path fill="none" stroke="midnightblue" d="M597.587,-441.105C604.904,-432.943 613.258,-422.521 619,-412 659.715,-337.396 702.782,-293.598 654,-224 632.771,-193.713 588.977,-183.73 559.538,-180.487"/>
<polygon fill="midnightblue" stroke="midnightblue" points="595.013,-438.733 590.75,-448.432 600.131,-443.509 595.013,-438.733"/>
</g>
<!-- Node14&#45;&gt;Node9 -->
<g id="edge35" class="edge"><title>Node14&#45;&gt;Node9</title>
<path fill="none" stroke="midnightblue" d="M572.072,-439.469C557.868,-415.079 530.218,-370.068 501,-336 489.12,-322.148 473.239,-308.253 462.821,-299.645"/>
<polygon fill="midnightblue" stroke="midnightblue" points="569.127,-441.369 577.146,-448.294 575.195,-437.88 569.127,-441.369"/>
</g>
<!-- Node14&#45;&gt;Node10 -->
<g id="edge37" class="edge"><title>Node14&#45;&gt;Node10</title>
<path fill="none" stroke="midnightblue" d="M523.227,-452.023C417.238,-441.678 200.984,-413.837 157,-356 142.571,-337.027 157.027,-295.451 174,-280 199.843,-256.476 297.093,-243.879 353.606,-238.408"/>
<polygon fill="midnightblue" stroke="midnightblue" points="523.15,-455.532 533.437,-452.999 523.816,-448.564 523.15,-455.532"/>
</g>
<!-- Node14&#45;&gt;Node11 -->
<g id="edge32" class="edge"><title>Node14&#45;&gt;Node11</title>
<path fill="none" stroke="midnightblue" d="M543.257,-445.568C508.735,-435.381 458.995,-420.703 427.861,-411.516"/>
<polygon fill="midnightblue" stroke="midnightblue" points="542.421,-448.97 553.003,-448.444 544.403,-442.256 542.421,-448.97"/>
</g>
<!-- Node15 -->
<g id="node15" class="node"><title>Node15</title>
<g id="a_node15"><a xlink:href="../../d0/d90/best__hyps_8h.html" target="_top" xlink:title="best_hyps.h">
<polygon fill="white" stroke="black" points="840,-392.5 840,-411.5 910,-411.5 910,-392.5 840,-392.5"/>
<text text-anchor="middle" x="875" y="-399.5" font-family="Helvetica,sans-Serif" font-size="10.00">best_hyps.h</text>
</a>
</g>
</g>
<!-- Node14&#45;&gt;Node15 -->
<g id="edge30" class="edge"><title>Node14&#45;&gt;Node15</title>
<path fill="none" stroke="midnightblue" d="M640.81,-446.764C691.311,-437.881 766.026,-424.514 831,-412 833.909,-411.44 836.925,-410.847 839.95,-410.245"/>
<polygon fill="midnightblue" stroke="midnightblue" points="639.972,-443.358 630.728,-448.535 641.183,-450.252 639.972,-443.358"/>
</g>
<!-- Node16 -->
<g id="node16" class="node"><title>Node16</title>
<g id="a_node16"><a xlink:href="../../d8/dd8/amun_2gpu_2npz__converter_8h.html" target="_top" xlink:title="npz_converter.h">
<polygon fill="white" stroke="black" points="736,-392.5 736,-411.5 822,-411.5 822,-392.5 736,-392.5"/>
<text text-anchor="middle" x="779" y="-399.5" font-family="Helvetica,sans-Serif" font-size="10.00">npz_converter.h</text>
</a>
</g>
</g>
<!-- Node14&#45;&gt;Node16 -->
<g id="edge38" class="edge"><title>Node14&#45;&gt;Node16</title>
<path fill="none" stroke="midnightblue" d="M623.229,-445.699C660.409,-435.507 714.271,-420.743 747.931,-411.516"/>
<polygon fill="midnightblue" stroke="midnightblue" points="621.934,-442.424 613.215,-448.444 623.785,-449.175 621.934,-442.424"/>
</g>
<!-- Node17 -->
<g id="node17" class="node"><title>Node17</title>
<g id="a_node17"><a xlink:href="../../d0/d2c/amun_2gpu_2dl4mt_2model_8h.html" target="_top" xlink:title="model.h">
<polygon fill="white" stroke="black" points="741.5,-280.5 741.5,-299.5 792.5,-299.5 792.5,-280.5 741.5,-280.5"/>
<text text-anchor="middle" x="767" y="-287.5" font-family="Helvetica,sans-Serif" font-size="10.00">model.h</text>
</a>
</g>
</g>
<!-- Node16&#45;&gt;Node17 -->
<g id="edge39" class="edge"><title>Node16&#45;&gt;Node17</title>
<path fill="none" stroke="midnightblue" d="M776.965,-382.348C774.337,-358.254 769.87,-317.308 767.937,-299.591"/>
<polygon fill="midnightblue" stroke="midnightblue" points="773.494,-382.807 778.058,-392.368 780.453,-382.048 773.494,-382.807"/>
</g>
<!-- Node17&#45;&gt;Node4 -->
<g id="edge41" class="edge"><title>Node17&#45;&gt;Node4</title>
<path fill="none" stroke="midnightblue" d="M733.554,-277.039C705.142,-266.879 665.063,-252.546 639.814,-243.516"/>
<polygon fill="midnightblue" stroke="midnightblue" points="732.479,-280.372 743.074,-280.444 734.836,-273.781 732.479,-280.372"/>
</g>
<!-- Node17&#45;&gt;Node5 -->
<g id="edge42" class="edge"><title>Node17&#45;&gt;Node5</title>
<path fill="none" stroke="midnightblue" d="M802.922,-284.924C850.107,-278.038 924.089,-261.056 898,-224 837.676,-138.318 697.604,-124.945 640.699,-123.134"/>
<polygon fill="midnightblue" stroke="midnightblue" points="802.164,-281.495 792.73,-286.317 803.112,-288.43 802.164,-281.495"/>
</g>
<!-- Node17&#45;&gt;Node8 -->
<g id="edge43" class="edge"><title>Node17&#45;&gt;Node8</title>
<path fill="none" stroke="midnightblue" d="M755.444,-272.05C744.432,-257.192 726.522,-236.127 706,-224 659.434,-196.483 596.271,-185.639 559.647,-181.478"/>
<polygon fill="midnightblue" stroke="midnightblue" points="752.715,-274.252 761.37,-280.363 758.415,-270.188 752.715,-274.252"/>
</g>
<!-- Node17&#45;&gt;Node10 -->
<g id="edge44" class="edge"><title>Node17&#45;&gt;Node10</title>
<path fill="none" stroke="midnightblue" d="M731.446,-283.839C662.191,-273.786 509.571,-251.631 436.103,-240.967"/>
<polygon fill="midnightblue" stroke="midnightblue" points="731.032,-287.315 741.431,-285.288 732.037,-280.388 731.032,-287.315"/>
</g>
<!-- Node18 -->
<g id="node18" class="node"><title>Node18</title>
<g id="a_node18"><a xlink:href="../../da/d6b/encoder__decoder__loader_8h.html" target="_top" xlink:title="encoder_decoder_loader.h">
<polygon fill="white" stroke="black" points="758.5,-224.5 758.5,-243.5 889.5,-243.5 889.5,-224.5 758.5,-224.5"/>
<text text-anchor="middle" x="824" y="-231.5" font-family="Helvetica,sans-Serif" font-size="10.00">encoder_decoder_loader.h</text>
</a>
</g>
</g>
<!-- Node17&#45;&gt;Node18 -->
<g id="edge40" class="edge"><title>Node17&#45;&gt;Node18</title>
<path fill="none" stroke="midnightblue" d="M783.621,-273.253C793.734,-263.673 806.277,-251.791 814.675,-243.834"/>
<polygon fill="midnightblue" stroke="midnightblue" points="781.01,-270.906 776.158,-280.324 785.825,-275.987 781.01,-270.906"/>
</g>
<!-- Node19&#45;&gt;Node14 -->
<g id="edge46" class="edge"><title>Node19&#45;&gt;Node14</title>
<path fill="none" stroke="midnightblue" d="M582,-493.805C582,-484.91 582,-474.78 582,-467.751"/>
<polygon fill="midnightblue" stroke="midnightblue" points="578.5,-494.083 582,-504.083 585.5,-494.083 578.5,-494.083"/>
</g>
<!-- Node20 -->
<g id="node20" class="node"><title>Node20</title>
<g id="a_node20"><a xlink:href="../../d7/d58/amun_2gpu_2mblas_2nth__element_8h.html" target="_top" xlink:title="nth_element.h">
<polygon fill="white" stroke="black" points="747,-448.5 747,-467.5 825,-467.5 825,-448.5 747,-448.5"/>
<text text-anchor="middle" x="786" y="-455.5" font-family="Helvetica,sans-Serif" font-size="10.00">nth_element.h</text>
</a>
</g>
</g>
<!-- Node19&#45;&gt;Node20 -->
<g id="edge47" class="edge"><title>Node19&#45;&gt;Node20</title>
<path fill="none" stroke="midnightblue" d="M624.201,-501.829C662.718,-491.633 718.822,-476.782 753.827,-467.516"/>
<polygon fill="midnightblue" stroke="midnightblue" points="623.096,-498.501 614.324,-504.444 624.887,-505.268 623.096,-498.501"/>
</g>
<!-- Node20&#45;&gt;Node15 -->
<g id="edge48" class="edge"><title>Node20&#45;&gt;Node15</title>
<path fill="none" stroke="midnightblue" d="M809.238,-442.901C825.558,-432.999 846.865,-420.071 860.736,-411.655"/>
<polygon fill="midnightblue" stroke="midnightblue" points="807.033,-440.144 800.299,-448.324 810.664,-446.129 807.033,-440.144"/>
</g>
</g>
</svg>
        <g id="navigator" transform="translate(0 0)" fill="#404254">
                <rect fill="#f2f5e9" fill-opacity="0.5" stroke="#606060" stroke-width=".5" x="0" y="0" width="60" height="60"/>
                <use id="zoomplus" xlink:href="#zoomPlus" x="17" y="9" onmousedown="handleZoom(evt,'in')"/>
                <use id="zoomminus" xlink:href="#zoomMin" x="42" y="9" onmousedown="handleZoom(evt,'out')"/>
                <use id="reset" xlink:href="#resetDef" x="30" y="36" onmousedown="handleReset()"/>
                <g id="arrowUp" xlink:href="#dirArrow" transform="translate(30 24)" onmousedown="handlePan(0,-1)">
                  <use xlink:href="#rim" fill="#404040">
                        <set attributeName="fill" to="#808080" begin="arrowUp.mouseover" end="arrowUp.mouseout"/>
                  </use>
                  <path fill="none" stroke="white" stroke-width="1.5" d="M0,-3.0v7 M-2.5,-0.5L0,-3.0L2.5,-0.5"/>
                </g>
                <g id="arrowRight" xlink:href="#dirArrow" transform="rotate(90) translate(36 -43)" onmousedown="handlePan(1,0)">
                  <use xlink:href="#rim" fill="#404040">
                        <set attributeName="fill" to="#808080" begin="arrowRight.mouseover" end="arrowRight.mouseout"/>
                  </use>
                  <path fill="none" stroke="white" stroke-width="1.5" d="M0,-3.0v7 M-2.5,-0.5L0,-3.0L2.5,-0.5"/>
                </g>
                <g id="arrowDown" xlink:href="#dirArrow" transform="rotate(180) translate(-30 -48)" onmousedown="handlePan(0,1)">
                  <use xlink:href="#rim" fill="#404040">
                        <set attributeName="fill" to="#808080" begin="arrowDown.mouseover" end="arrowDown.mouseout"/>
                  </use>
                  <path fill="none" stroke="white" stroke-width="1.5" d="M0,-3.0v7 M-2.5,-0.5L0,-3.0L2.5,-0.5"/>
                </g>
                <g id="arrowLeft" xlink:href="#dirArrow" transform="rotate(270) translate(-36 17)" onmousedown="handlePan(-1,0)">
                  <use xlink:href="#rim" fill="#404040">
                        <set attributeName="fill" to="#808080" begin="arrowLeft.mouseover" end="arrowLeft.mouseout"/>
                  </use>
                  <path fill="none" stroke="white" stroke-width="1.5" d="M0,-3.0v7 M-2.5,-0.5L0,-3.0L2.5,-0.5"/>
                </g>
        </g>
        <svg viewBox="0 0 15 15" width="100%" height="30px" preserveAspectRatio="xMaxYMin meet">
         <g id="arrow_out" transform="scale(0.3 0.3)">
          <a xlink:href="matrix__wrapper_8h__dep__incl_org.svg" target="_base">
           <rect id="button" ry="5" rx="5" y="6" x="6" height="38" width="38"
                fill="#f2f5e9" fill-opacity="0.5" stroke="#606060" stroke-width="1.0"/>
           <path id="arrow"
             d="M 11.500037,31.436501 C 11.940474,20.09759 22.043105,11.32322 32.158766,21.979434 L 37.068811,17.246167 C 37.068811,17.246167 37.088388,32 37.088388,32 L 22.160133,31.978069 C 22.160133,31.978069 26.997745,27.140456 26.997745,27.140456 C 18.528582,18.264221 13.291696,25.230495 11.500037,31.436501 z"
             style="fill:#404040;"/>
          </a>
         </g>
        </svg>
</svg>
