<?xml version="1.0" encoding="UTF-8" standalone="no"?>
<!DOCTYPE svg PUBLIC "-//W3C//DTD SVG 1.1//EN"
 "http://www.w3.org/Graphics/SVG/1.1/DTD/svg11.dtd">
<!-- Generated by graphviz version 2.38.0 (20140413.2041)
 -->
<!-- Title: marian::Scorer Pages: 1 -->
<svg width="412pt" height="314pt"
 viewBox="0.00 0.00 411.50 314.00" xmlns="http://www.w3.org/2000/svg" xmlns:xlink="http://www.w3.org/1999/xlink">
<g id="graph0" class="graph" transform="scale(1 1) rotate(0) translate(4 310)">
<title>marian::Scorer</title>
<polygon fill="white" stroke="none" points="-4,4 -4,-310 407.5,-310 407.5,4 -4,4"/>
<!-- Node1 -->
<g id="node1" class="node"><title>Node1</title>
<polygon fill="#bfbfbf" stroke="black" points="166.5,-171.5 166.5,-305.5 246.5,-305.5 246.5,-171.5 166.5,-171.5"/>
<text text-anchor="middle" x="206.5" y="-293.5" font-family="Helvetica,sans-Serif" font-size="10.00">marian::Scorer</text>
<polyline fill="none" stroke="black" points="166.5,-286.5 246.5,-286.5 "/>
<text text-anchor="start" x="174.5" y="-274.5" font-family="Helvetica,sans-Serif" font-size="10.00"># name_</text>
<text text-anchor="start" x="174.5" y="-263.5" font-family="Helvetica,sans-Serif" font-size="10.00"># weight_</text>
<polyline fill="none" stroke="black" points="166.5,-256.5 246.5,-256.5 "/>
<text text-anchor="start" x="174.5" y="-244.5" font-family="Helvetica,sans-Serif" font-size="10.00">+ Scorer()</text>
<text text-anchor="start" x="174.5" y="-233.5" font-family="Helvetica,sans-Serif" font-size="10.00">+ getName()</text>
<text text-anchor="start" x="174.5" y="-222.5" font-family="Helvetica,sans-Serif" font-size="10.00">+ getWeight()</text>
<text text-anchor="start" x="174.5" y="-211.5" font-family="Helvetica,sans-Serif" font-size="10.00">+ clear()</text>
<text text-anchor="start" x="174.5" y="-200.5" font-family="Helvetica,sans-Serif" font-size="10.00">+ startState()</text>
<text text-anchor="start" x="174.5" y="-189.5" font-family="Helvetica,sans-Serif" font-size="10.00">+ step()</text>
<text text-anchor="start" x="174.5" y="-178.5" font-family="Helvetica,sans-Serif" font-size="10.00">+ init()</text>
</g>
<!-- Node2 -->
<g id="node2" class="node"><title>Node2</title>
<g id="a_node2"><a xlink:href="../../d1/dbc/classmarian_1_1ScorerWrapper.html" target="_top" xlink:title="{marian::ScorerWrapper\l\&lt; EncoderDecoder \&gt;\n|&#45; encdec_\l&#45; fname_\l|+ ScorerWrapper()\l+ ScorerWrapper()\l+ init()\l+ clear()\l+ startState()\l+ step()\l}">
<polygon fill="white" stroke="black" points="0,-0.5 0,-134.5 117,-134.5 117,-0.5 0,-0.5"/>
<text text-anchor="start" x="8" y="-122.5" font-family="Helvetica,sans-Serif" font-size="10.00">marian::ScorerWrapper</text>
<text text-anchor="middle" x="58.5" y="-111.5" font-family="Helvetica,sans-Serif" font-size="10.00">&lt; EncoderDecoder &gt;</text>
<polyline fill="none" stroke="black" points="0,-104.5 117,-104.5 "/>
<text text-anchor="start" x="8" y="-92.5" font-family="Helvetica,sans-Serif" font-size="10.00">&#45; encdec_</text>
<text text-anchor="start" x="8" y="-81.5" font-family="Helvetica,sans-Serif" font-size="10.00">&#45; fname_</text>
<polyline fill="none" stroke="black" points="0,-74.5 117,-74.5 "/>
<text text-anchor="start" x="8" y="-62.5" font-family="Helvetica,sans-Serif" font-size="10.00">+ ScorerWrapper()</text>
<text text-anchor="start" x="8" y="-51.5" font-family="Helvetica,sans-Serif" font-size="10.00">+ ScorerWrapper()</text>
<text text-anchor="start" x="8" y="-40.5" font-family="Helvetica,sans-Serif" font-size="10.00">+ init()</text>
<text text-anchor="start" x="8" y="-29.5" font-family="Helvetica,sans-Serif" font-size="10.00">+ clear()</text>
<text text-anchor="start" x="8" y="-18.5" font-family="Helvetica,sans-Serif" font-size="10.00">+ startState()</text>
<text text-anchor="start" x="8" y="-7.5" font-family="Helvetica,sans-Serif" font-size="10.00">+ step()</text>
</a>
</g>
</g>
<!-- Node1&#45;&gt;Node2 -->
<g id="edge1" class="edge"><title>Node1&#45;&gt;Node2</title>
<path fill="none" stroke="midnightblue" d="M159.81,-184.185C146.024,-168.443 130.767,-151.021 116.366,-134.577"/>
<polygon fill="none" stroke="midnightblue" points="157.228,-186.549 166.449,-191.766 162.494,-181.937 157.228,-186.549"/>
</g>
<!-- Node3 -->
<g id="node3" class="node"><title>Node3</title>
<g id="a_node3"><a xlink:href="../../d5/de6/classmarian_1_1UnseenWordPenalty.html" target="_top" xlink:title="{marian::UnseenWordPenalty\n|&#45; batchIndex_\l&#45; dimVocab_\l&#45; penalties_\l|+ UnseenWordPenalty()\l+ clear()\l+ startState()\l+ step()\l}">
<polygon fill="white" stroke="black" points="135.5,-11.5 135.5,-123.5 277.5,-123.5 277.5,-11.5 135.5,-11.5"/>
<text text-anchor="middle" x="206.5" y="-111.5" font-family="Helvetica,sans-Serif" font-size="10.00">marian::UnseenWordPenalty</text>
<polyline fill="none" stroke="black" points="135.5,-104.5 277.5,-104.5 "/>
<text text-anchor="start" x="143.5" y="-92.5" font-family="Helvetica,sans-Serif" font-size="10.00">&#45; batchIndex_</text>
<text text-anchor="start" x="143.5" y="-81.5" font-family="Helvetica,sans-Serif" font-size="10.00">&#45; dimVocab_</text>
<text text-anchor="start" x="143.5" y="-70.5" font-family="Helvetica,sans-Serif" font-size="10.00">&#45; penalties_</text>
<polyline fill="none" stroke="black" points="135.5,-63.5 277.5,-63.5 "/>
<text text-anchor="start" x="143.5" y="-51.5" font-family="Helvetica,sans-Serif" font-size="10.00">+ UnseenWordPenalty()</text>
<text text-anchor="start" x="143.5" y="-40.5" font-family="Helvetica,sans-Serif" font-size="10.00">+ clear()</text>
<text text-anchor="start" x="143.5" y="-29.5" font-family="Helvetica,sans-Serif" font-size="10.00">+ startState()</text>
<text text-anchor="start" x="143.5" y="-18.5" font-family="Helvetica,sans-Serif" font-size="10.00">+ step()</text>
</a>
</g>
</g>
<!-- Node1&#45;&gt;Node3 -->
<g id="edge2" class="edge"><title>Node1&#45;&gt;Node3</title>
<path fill="none" stroke="midnightblue" d="M206.5,-161.148C206.5,-148.531 206.5,-135.67 206.5,-123.704"/>
<polygon fill="none" stroke="midnightblue" points="203,-161.192 206.5,-171.192 210,-161.192 203,-161.192"/>
</g>
<!-- Node4 -->
<g id="node4" class="node"><title>Node4</title>
<g id="a_node4"><a xlink:href="../../da/d63/classmarian_1_1WordPenalty.html" target="_top" xlink:title="{marian::WordPenalty\n|&#45; dimVocab_\l&#45; penalties_\l|+ WordPenalty()\l+ clear()\l+ startState()\l+ step()\l}">
<polygon fill="white" stroke="black" points="295.5,-17 295.5,-118 403.5,-118 403.5,-17 295.5,-17"/>
<text text-anchor="middle" x="349.5" y="-106" font-family="Helvetica,sans-Serif" font-size="10.00">marian::WordPenalty</text>
<polyline fill="none" stroke="black" points="295.5,-99 403.5,-99 "/>
<text text-anchor="start" x="303.5" y="-87" font-family="Helvetica,sans-Serif" font-size="10.00">&#45; dimVocab_</text>
<text text-anchor="start" x="303.5" y="-76" font-family="Helvetica,sans-Serif" font-size="10.00">&#45; penalties_</text>
<polyline fill="none" stroke="black" points="295.5,-69 403.5,-69 "/>
<text text-anchor="start" x="303.5" y="-57" font-family="Helvetica,sans-Serif" font-size="10.00">+ WordPenalty()</text>
<text text-anchor="start" x="303.5" y="-46" font-family="Helvetica,sans-Serif" font-size="10.00">+ clear()</text>
<text text-anchor="start" x="303.5" y="-35" font-family="Helvetica,sans-Serif" font-size="10.00">+ startState()</text>
<text text-anchor="start" x="303.5" y="-24" font-family="Helvetica,sans-Serif" font-size="10.00">+ step()</text>
</a>
</g>
</g>
<!-- Node1&#45;&gt;Node4 -->
<g id="edge3" class="edge"><title>Node1&#45;&gt;Node4</title>
<path fill="none" stroke="midnightblue" d="M253.302,-182.188C270.806,-161.502 290.562,-138.154 307.596,-118.023"/>
<polygon fill="none" stroke="midnightblue" points="250.502,-180.08 246.714,-189.974 255.845,-184.601 250.502,-180.08"/>
</g>
</g>
</svg>
