<?xml version="1.0" encoding="UTF-8" standalone="no"?>
<!DOCTYPE svg PUBLIC "-//W3C//DTD SVG 1.1//EN"
 "http://www.w3.org/Graphics/SVG/1.1/DTD/svg11.dtd">
<!-- Generated by graphviz version 2.38.0 (20140413.2041)
 -->
<!-- Title: types&#45;gpu.h Pages: 1 -->
<svg width="349pt" height="84pt"
 viewBox="0.00 0.00 349.00 84.00" xmlns="http://www.w3.org/2000/svg" xmlns:xlink="http://www.w3.org/1999/xlink">
<g id="graph0" class="graph" transform="scale(1 1) rotate(0) translate(4 80)">
<title>types&#45;gpu.h</title>
<polygon fill="white" stroke="none" points="-4,4 -4,-80 345,-80 345,4 -4,4"/>
<!-- Node1 -->
<g id="node1" class="node"><title>Node1</title>
<polygon fill="#bfbfbf" stroke="black" points="123.5,-56.5 123.5,-75.5 191.5,-75.5 191.5,-56.5 123.5,-56.5"/>
<text text-anchor="middle" x="157.5" y="-63.5" font-family="Helvetica,sans-Serif" font-size="10.00">types&#45;gpu.h</text>
</g>
<!-- Node2 -->
<g id="node2" class="node"><title>Node2</title>
<polygon fill="white" stroke="#bfbfbf" points="0,-0.5 0,-19.5 83,-19.5 83,-0.5 0,-0.5"/>
<text text-anchor="middle" x="41.5" y="-7.5" font-family="Helvetica,sans-Serif" font-size="10.00">unordered_map</text>
</g>
<!-- Node1&#45;&gt;Node2 -->
<g id="edge1" class="edge"><title>Node1&#45;&gt;Node2</title>
<path fill="none" stroke="midnightblue" d="M139.119,-56.4435C120.284,-47.6751 90.7688,-33.9355 69.1207,-23.8579"/>
<polygon fill="midnightblue" stroke="midnightblue" points="70.3375,-20.5637 59.7946,-19.5164 67.3833,-26.9098 70.3375,-20.5637"/>
</g>
<!-- Node3 -->
<g id="node3" class="node"><title>Node3</title>
<polygon fill="white" stroke="#bfbfbf" points="101,-0.5 101,-19.5 214,-19.5 214,-0.5 101,-0.5"/>
<text text-anchor="middle" x="157.5" y="-7.5" font-family="Helvetica,sans-Serif" font-size="10.00">thrust/device_vector.h</text>
</g>
<!-- Node1&#45;&gt;Node3 -->
<g id="edge2" class="edge"><title>Node1&#45;&gt;Node3</title>
<path fill="none" stroke="midnightblue" d="M157.5,-56.083C157.5,-49.0059 157.5,-38.8611 157.5,-29.9865"/>
<polygon fill="midnightblue" stroke="midnightblue" points="161,-29.751 157.5,-19.7511 154,-29.7511 161,-29.751"/>
</g>
<!-- Node4 -->
<g id="node4" class="node"><title>Node4</title>
<polygon fill="white" stroke="#bfbfbf" points="232,-0.5 232,-19.5 341,-19.5 341,-0.5 232,-0.5"/>
<text text-anchor="middle" x="286.5" y="-7.5" font-family="Helvetica,sans-Serif" font-size="10.00">boost/timer/timer.hpp</text>
</g>
<!-- Node1&#45;&gt;Node4 -->
<g id="edge3" class="edge"><title>Node1&#45;&gt;Node4</title>
<path fill="none" stroke="midnightblue" d="M177.94,-56.4435C199.17,-47.5566 232.599,-33.5632 256.755,-23.4514"/>
<polygon fill="midnightblue" stroke="midnightblue" points="258.282,-26.6064 266.155,-19.5164 255.579,-20.1493 258.282,-26.6064"/>
</g>
</g>
</svg>
