<?xml version="1.0" encoding="UTF-8" standalone="no"?>
<!DOCTYPE svg PUBLIC "-//W3C//DTD SVG 1.1//EN"
 "http://www.w3.org/Graphics/SVG/1.1/DTD/svg11.dtd">
<!-- Generated by graphviz version 2.38.0 (20140413.2041)
 -->
<!-- Title: marian::CrossEntropyNodeOp::backwardOps Pages: 1 -->
<svg width="479pt" height="154pt"
 viewBox="0.00 0.00 479.00 153.50" xmlns="http://www.w3.org/2000/svg" xmlns:xlink="http://www.w3.org/1999/xlink">
<g id="graph0" class="graph" transform="scale(1 1) rotate(0) translate(4 149.5)">
<title>marian::CrossEntropyNodeOp::backwardOps</title>
<polygon fill="white" stroke="none" points="-4,4 -4,-149.5 475,-149.5 475,4 -4,4"/>
<!-- Node1 -->
<g id="node1" class="node"><title>Node1</title>
<polygon fill="#bfbfbf" stroke="black" points="0,-52 0,-82 135,-82 135,-52 0,-52"/>
<text text-anchor="start" x="8" y="-70" font-family="Helvetica,sans-Serif" font-size="10.00">marian::CrossEntropyNode</text>
<text text-anchor="middle" x="67.5" y="-59" font-family="Helvetica,sans-Serif" font-size="10.00">Op::backwardOps</text>
</g>
<!-- Node2 -->
<g id="node2" class="node"><title>Node2</title>
<g id="a_node2"><a xlink:href="$da/d22/namespacemarian.html#ad12afd6fbca17c63f3444bdbd535c146" xlink:title="marian::CrossEntropyPick\lBackward">
<polygon fill="white" stroke="black" points="171,-115 171,-145 302,-145 302,-115 171,-115"/>
<text text-anchor="start" x="179" y="-133" font-family="Helvetica,sans-Serif" font-size="10.00">marian::CrossEntropyPick</text>
<text text-anchor="middle" x="236.5" y="-122" font-family="Helvetica,sans-Serif" font-size="10.00">Backward</text>
</a>
</g>
</g>
<!-- Node1&#45;&gt;Node2 -->
<g id="edge1" class="edge"><title>Node1&#45;&gt;Node2</title>
<path fill="none" stroke="midnightblue" d="M108.501,-82.0901C131.757,-90.8633 161.259,-101.993 185.973,-111.316"/>
<polygon fill="midnightblue" stroke="midnightblue" points="184.945,-114.669 195.537,-114.924 187.416,-108.12 184.945,-114.669"/>
</g>
<!-- Node3 -->
<g id="node3" class="node"><title>Node3</title>
<g id="a_node3"><a xlink:href="$d0/d7a/classmarian_1_1Node.html#a71a9c8ad6ba12d421fa97222d74a90b9" xlink:title="marian::Node::child">
<polygon fill="white" stroke="black" points="186,-76.5 186,-95.5 287,-95.5 287,-76.5 186,-76.5"/>
<text text-anchor="middle" x="236.5" y="-83.5" font-family="Helvetica,sans-Serif" font-size="10.00">marian::Node::child</text>
</a>
</g>
</g>
<!-- Node1&#45;&gt;Node3 -->
<g id="edge2" class="edge"><title>Node1&#45;&gt;Node3</title>
<path fill="none" stroke="midnightblue" d="M135.463,-74.6185C148.709,-76.1256 162.534,-77.6985 175.531,-79.1772"/>
<polygon fill="midnightblue" stroke="midnightblue" points="175.418,-82.6868 185.75,-80.3398 176.209,-75.7317 175.418,-82.6868"/>
</g>
<!-- Node5 -->
<g id="node5" class="node"><title>Node5</title>
<g id="a_node5"><a xlink:href="$d0/d7a/classmarian_1_1Node.html#a0497d2c3515385212b1086f8b8502826" xlink:title="marian::Node::grad">
<polygon fill="white" stroke="black" points="186.5,-38.5 186.5,-57.5 286.5,-57.5 286.5,-38.5 186.5,-38.5"/>
<text text-anchor="middle" x="236.5" y="-45.5" font-family="Helvetica,sans-Serif" font-size="10.00">marian::Node::grad</text>
</a>
</g>
</g>
<!-- Node1&#45;&gt;Node5 -->
<g id="edge4" class="edge"><title>Node1&#45;&gt;Node5</title>
<path fill="none" stroke="midnightblue" d="M135.463,-59.3815C148.853,-57.8581 162.833,-56.2675 175.952,-54.7749"/>
<polygon fill="midnightblue" stroke="midnightblue" points="176.721,-58.2102 186.261,-53.6021 175.929,-51.255 176.721,-58.2102"/>
</g>
<!-- Node6 -->
<g id="node6" class="node"><title>Node6</title>
<g id="a_node6"><a xlink:href="$d0/d7a/classmarian_1_1Node.html#a0df86f2ff4a169111d6ba0865e6fd935" xlink:title="marian::Node::val">
<polygon fill="white" stroke="black" points="189.5,-0.5 189.5,-19.5 283.5,-19.5 283.5,-0.5 189.5,-0.5"/>
<text text-anchor="middle" x="236.5" y="-7.5" font-family="Helvetica,sans-Serif" font-size="10.00">marian::Node::val</text>
</a>
</g>
</g>
<!-- Node1&#45;&gt;Node6 -->
<g id="edge5" class="edge"><title>Node1&#45;&gt;Node6</title>
<path fill="none" stroke="midnightblue" d="M107.216,-51.9331C126.309,-44.6858 149.747,-36.0606 171,-29 177.624,-26.7992 184.673,-24.5899 191.587,-22.4962"/>
<polygon fill="midnightblue" stroke="midnightblue" points="192.97,-25.736 201.554,-19.5257 190.971,-19.0276 192.97,-25.736"/>
</g>
<!-- Node4 -->
<g id="node4" class="node"><title>Node4</title>
<g id="a_node4"><a xlink:href="$d0/d7a/classmarian_1_1Node.html#a4aa5aa482c70595fa5d43c1fbabf5c18" xlink:title="marian::Node::getBackend">
<polygon fill="white" stroke="black" points="338,-76.5 338,-95.5 471,-95.5 471,-76.5 338,-76.5"/>
<text text-anchor="middle" x="404.5" y="-83.5" font-family="Helvetica,sans-Serif" font-size="10.00">marian::Node::getBackend</text>
</a>
</g>
</g>
<!-- Node3&#45;&gt;Node4 -->
<g id="edge3" class="edge"><title>Node3&#45;&gt;Node4</title>
<path fill="none" stroke="midnightblue" d="M287.305,-86C299.938,-86 313.8,-86 327.411,-86"/>
<polygon fill="midnightblue" stroke="midnightblue" points="327.747,-89.5001 337.747,-86 327.747,-82.5001 327.747,-89.5001"/>
</g>
</g>
</svg>
