<?xml version="1.0" encoding="UTF-8" standalone="no"?>
<!DOCTYPE svg PUBLIC "-//W3C//DTD SVG 1.1//EN"
 "http://www.w3.org/Graphics/SVG/1.1/DTD/svg11.dtd">
<!-- Generated by graphviz version 2.38.0 (20140413.2041)
 -->
<!-- Title: loader_factory.h Pages: 1 -->
<svg width="1072pt" height="364pt"
 viewBox="0.00 0.00 1071.85 364.00" xmlns="http://www.w3.org/2000/svg" xmlns:xlink="http://www.w3.org/1999/xlink">
<g id="graph0" class="graph" transform="scale(1 1) rotate(0) translate(4 360)">
<title>loader_factory.h</title>
<polygon fill="white" stroke="none" points="-4,4 -4,-360 1067.85,-360 1067.85,4 -4,4"/>
<!-- Node1 -->
<g id="node1" class="node"><title>Node1</title>
<polygon fill="#bfbfbf" stroke="black" points="671.353,-336.5 671.353,-355.5 757.353,-355.5 757.353,-336.5 671.353,-336.5"/>
<text text-anchor="middle" x="714.353" y="-343.5" font-family="Helvetica,sans-Serif" font-size="10.00">loader_factory.h</text>
</g>
<!-- Node2 -->
<g id="node2" class="node"><title>Node2</title>
<polygon fill="white" stroke="#bfbfbf" points="499.353,-0.5 499.353,-19.5 543.353,-19.5 543.353,-0.5 499.353,-0.5"/>
<text text-anchor="middle" x="521.353" y="-7.5" font-family="Helvetica,sans-Serif" font-size="10.00">vector</text>
</g>
<!-- Node1&#45;&gt;Node2 -->
<g id="edge1" class="edge"><title>Node1&#45;&gt;Node2</title>
<path fill="none" stroke="midnightblue" d="M718.13,-336.351C725.772,-318.034 742.353,-273.821 742.353,-235 742.353,-235 742.353,-235 742.353,-121 742.353,-37.9153 615.62,-17.5853 554.096,-12.6111"/>
<polygon fill="midnightblue" stroke="midnightblue" points="553.985,-9.09431 543.76,-11.871 553.485,-16.0764 553.985,-9.09431"/>
</g>
<!-- Node3 -->
<g id="node3" class="node"><title>Node3</title>
<polygon fill="white" stroke="#bfbfbf" points="624.853,-224.5 624.853,-243.5 713.853,-243.5 713.853,-224.5 624.853,-224.5"/>
<text text-anchor="middle" x="669.353" y="-231.5" font-family="Helvetica,sans-Serif" font-size="10.00">yaml&#45;cpp/yaml.h</text>
</g>
<!-- Node1&#45;&gt;Node3 -->
<g id="edge2" class="edge"><title>Node1&#45;&gt;Node3</title>
<path fill="none" stroke="midnightblue" d="M710.822,-336.368C703.495,-318.456 686.504,-276.923 676.696,-252.948"/>
<polygon fill="midnightblue" stroke="midnightblue" points="679.894,-251.522 672.868,-243.591 673.415,-254.172 679.894,-251.522"/>
</g>
<!-- Node4 -->
<g id="node4" class="node"><title>Node4</title>
<g id="a_node4"><a xlink:href="$dd/d2d/exception_8h.html" xlink:title="common/exception.h">
<polygon fill="white" stroke="black" points="817.853,-280.5 817.853,-299.5 924.853,-299.5 924.853,-280.5 817.853,-280.5"/>
<text text-anchor="middle" x="871.353" y="-287.5" font-family="Helvetica,sans-Serif" font-size="10.00">common/exception.h</text>
</a>
</g>
</g>
<!-- Node1&#45;&gt;Node4 -->
<g id="edge3" class="edge"><title>Node1&#45;&gt;Node4</title>
<path fill="none" stroke="midnightblue" d="M739.23,-336.444C765.643,-327.359 807.568,-312.939 837.095,-302.783"/>
<polygon fill="midnightblue" stroke="midnightblue" points="838.275,-306.079 846.593,-299.516 835.998,-299.459 838.275,-306.079"/>
</g>
<!-- Node10 -->
<g id="node10" class="node"><title>Node10</title>
<g id="a_node10"><a xlink:href="$db/db8/loader_8h.html" xlink:title="common/loader.h">
<polygon fill="white" stroke="black" points="550.353,-280.5 550.353,-299.5 642.353,-299.5 642.353,-280.5 550.353,-280.5"/>
<text text-anchor="middle" x="596.353" y="-287.5" font-family="Helvetica,sans-Serif" font-size="10.00">common/loader.h</text>
</a>
</g>
</g>
<!-- Node1&#45;&gt;Node10 -->
<g id="edge9" class="edge"><title>Node1&#45;&gt;Node10</title>
<path fill="none" stroke="midnightblue" d="M695.656,-336.444C676.409,-327.636 646.201,-313.812 624.153,-303.722"/>
<polygon fill="midnightblue" stroke="midnightblue" points="625.513,-300.495 614.963,-299.516 622.6,-306.86 625.513,-300.495"/>
</g>
<!-- Node5 -->
<g id="node5" class="node"><title>Node5</title>
<polygon fill="white" stroke="#bfbfbf" points="808.353,-224.5 808.353,-243.5 860.353,-243.5 860.353,-224.5 808.353,-224.5"/>
<text text-anchor="middle" x="834.353" y="-231.5" font-family="Helvetica,sans-Serif" font-size="10.00">sstream</text>
</g>
<!-- Node4&#45;&gt;Node5 -->
<g id="edge4" class="edge"><title>Node4&#45;&gt;Node5</title>
<path fill="none" stroke="midnightblue" d="M865.244,-280.083C860.071,-272.534 852.507,-261.495 846.159,-252.23"/>
<polygon fill="midnightblue" stroke="midnightblue" points="848.889,-250.022 840.349,-243.751 843.115,-253.979 848.889,-250.022"/>
</g>
<!-- Node6 -->
<g id="node6" class="node"><title>Node6</title>
<polygon fill="white" stroke="#bfbfbf" points="878.853,-224.5 878.853,-243.5 937.853,-243.5 937.853,-224.5 878.853,-224.5"/>
<text text-anchor="middle" x="908.353" y="-231.5" font-family="Helvetica,sans-Serif" font-size="10.00">exception</text>
</g>
<!-- Node4&#45;&gt;Node6 -->
<g id="edge5" class="edge"><title>Node4&#45;&gt;Node6</title>
<path fill="none" stroke="midnightblue" d="M877.463,-280.083C882.636,-272.534 890.2,-261.495 896.548,-252.23"/>
<polygon fill="midnightblue" stroke="midnightblue" points="899.592,-253.979 902.357,-243.751 893.818,-250.022 899.592,-253.979"/>
</g>
<!-- Node7 -->
<g id="node7" class="node"><title>Node7</title>
<polygon fill="white" stroke="#bfbfbf" points="956.353,-224.5 956.353,-243.5 996.353,-243.5 996.353,-224.5 956.353,-224.5"/>
<text text-anchor="middle" x="976.353" y="-231.5" font-family="Helvetica,sans-Serif" font-size="10.00">limits</text>
</g>
<!-- Node4&#45;&gt;Node7 -->
<g id="edge6" class="edge"><title>Node4&#45;&gt;Node7</title>
<path fill="none" stroke="midnightblue" d="M888.223,-280.324C905.062,-271.664 931.16,-258.242 950.591,-248.249"/>
<polygon fill="midnightblue" stroke="midnightblue" points="952.233,-251.341 959.525,-243.655 949.032,-245.116 952.233,-251.341"/>
</g>
<!-- Node8 -->
<g id="node8" class="node"><title>Node8</title>
<polygon fill="white" stroke="#bfbfbf" points="487.853,-56.5 487.853,-75.5 528.853,-75.5 528.853,-56.5 487.853,-56.5"/>
<text text-anchor="middle" x="508.353" y="-63.5" font-family="Helvetica,sans-Serif" font-size="10.00">string</text>
</g>
<!-- Node4&#45;&gt;Node8 -->
<g id="edge7" class="edge"><title>Node4&#45;&gt;Node8</title>
<path fill="none" stroke="midnightblue" d="M857.123,-280.297C801.663,-246.379 599.695,-122.862 531.231,-80.991"/>
<polygon fill="midnightblue" stroke="midnightblue" points="532.842,-77.874 522.485,-75.6425 529.19,-83.8458 532.842,-77.874"/>
</g>
<!-- Node9 -->
<g id="node9" class="node"><title>Node9</title>
<polygon fill="white" stroke="#bfbfbf" points="1014.85,-224.5 1014.85,-243.5 1063.85,-243.5 1063.85,-224.5 1014.85,-224.5"/>
<text text-anchor="middle" x="1039.35" y="-231.5" font-family="Helvetica,sans-Serif" font-size="10.00">stdint.h</text>
</g>
<!-- Node4&#45;&gt;Node9 -->
<g id="edge8" class="edge"><title>Node4&#45;&gt;Node9</title>
<path fill="none" stroke="midnightblue" d="M897.973,-280.444C926.943,-271.132 973.355,-256.214 1005.04,-246.029"/>
<polygon fill="midnightblue" stroke="midnightblue" points="1006.32,-249.294 1014.77,-242.902 1004.18,-242.63 1006.32,-249.294"/>
</g>
<!-- Node10&#45;&gt;Node2 -->
<g id="edge10" class="edge"><title>Node10&#45;&gt;Node2</title>
<path fill="none" stroke="midnightblue" d="M597.717,-280.267C603.422,-242.547 623.965,-93.8012 599.353,-56 588.586,-39.4624 569.474,-28.2928 552.863,-21.2183"/>
<polygon fill="midnightblue" stroke="midnightblue" points="554.041,-17.9207 543.454,-17.5165 551.479,-24.4347 554.041,-17.9207"/>
</g>
<!-- Node10&#45;&gt;Node3 -->
<g id="edge11" class="edge"><title>Node10&#45;&gt;Node3</title>
<path fill="none" stroke="midnightblue" d="M608.082,-280.324C619.191,-272.107 636.096,-259.602 649.337,-249.807"/>
<polygon fill="midnightblue" stroke="midnightblue" points="651.453,-252.595 657.411,-243.834 647.29,-246.967 651.453,-252.595"/>
</g>
<!-- Node11 -->
<g id="node11" class="node"><title>Node11</title>
<g id="a_node11"><a xlink:href="$da/d3b/scorer_8h.html" xlink:title="scorer.h">
<polygon fill="white" stroke="black" points="355.353,-168.5 355.353,-187.5 407.353,-187.5 407.353,-168.5 355.353,-168.5"/>
<text text-anchor="middle" x="381.353" y="-175.5" font-family="Helvetica,sans-Serif" font-size="10.00">scorer.h</text>
</a>
</g>
</g>
<!-- Node10&#45;&gt;Node11 -->
<g id="edge12" class="edge"><title>Node10&#45;&gt;Node11</title>
<path fill="none" stroke="midnightblue" d="M550.165,-287.815C510.6,-284.58 454.045,-274.419 415.353,-244 400.369,-232.219 391.284,-211.995 386.322,-197.228"/>
<polygon fill="midnightblue" stroke="midnightblue" points="389.665,-196.191 383.413,-187.638 382.967,-198.224 389.665,-196.191"/>
</g>
<!-- Node22 -->
<g id="node22" class="node"><title>Node22</title>
<g id="a_node22"><a xlink:href="$d5/dbc/base__best__hyps_8h.html" xlink:title="common/base_best_hyps.h">
<polygon fill="white" stroke="black" points="424.853,-224.5 424.853,-243.5 561.853,-243.5 561.853,-224.5 424.853,-224.5"/>
<text text-anchor="middle" x="493.353" y="-231.5" font-family="Helvetica,sans-Serif" font-size="10.00">common/base_best_hyps.h</text>
</a>
</g>
</g>
<!-- Node10&#45;&gt;Node22 -->
<g id="edge36" class="edge"><title>Node10&#45;&gt;Node22</title>
<path fill="none" stroke="midnightblue" d="M579.805,-280.324C563.362,-271.703 537.919,-258.364 518.885,-248.386"/>
<polygon fill="midnightblue" stroke="midnightblue" points="520.343,-245.198 509.861,-243.655 517.093,-251.398 520.343,-245.198"/>
</g>
<!-- Node11&#45;&gt;Node2 -->
<g id="edge13" class="edge"><title>Node11&#45;&gt;Node2</title>
<path fill="none" stroke="midnightblue" d="M407.457,-172.619C456.903,-164.061 560.214,-144.837 570.353,-132 595.974,-99.5627 560.218,-51.9293 537.535,-27.2162"/>
<polygon fill="midnightblue" stroke="midnightblue" points="539.879,-24.6024 530.451,-19.769 534.807,-29.4269 539.879,-24.6024"/>
</g>
<!-- Node12 -->
<g id="node12" class="node"><title>Node12</title>
<polygon fill="white" stroke="#bfbfbf" points="64.3534,-0.5 64.3534,-19.5 116.353,-19.5 116.353,-0.5 64.3534,-0.5"/>
<text text-anchor="middle" x="90.3534" y="-7.5" font-family="Helvetica,sans-Serif" font-size="10.00">memory</text>
</g>
<!-- Node11&#45;&gt;Node12 -->
<g id="edge14" class="edge"><title>Node11&#45;&gt;Node12</title>
<path fill="none" stroke="midnightblue" d="M355.338,-175.812C274.599,-171.861 32.3306,-157.924 9.35337,-132 -21.7386,-96.9202 34.7089,-49.1755 68.1929,-25.5181"/>
<polygon fill="midnightblue" stroke="midnightblue" points="70.2829,-28.3287 76.5405,-19.7792 66.3172,-22.5603 70.2829,-28.3287"/>
</g>
<!-- Node13 -->
<g id="node13" class="node"><title>Node13</title>
<g id="a_node13"><a xlink:href="$d6/d52/amun_2common_2hypothesis_8h.html" xlink:title="common/hypothesis.h">
<polygon fill="white" stroke="black" points="18.8534,-112.5 18.8534,-131.5 131.853,-131.5 131.853,-112.5 18.8534,-112.5"/>
<text text-anchor="middle" x="75.3534" y="-119.5" font-family="Helvetica,sans-Serif" font-size="10.00">common/hypothesis.h</text>
</a>
</g>
</g>
<!-- Node11&#45;&gt;Node13 -->
<g id="edge15" class="edge"><title>Node11&#45;&gt;Node13</title>
<path fill="none" stroke="midnightblue" d="M355.264,-172.396C306.461,-163.784 200.284,-145.047 133.636,-133.285"/>
<polygon fill="midnightblue" stroke="midnightblue" points="134.154,-129.823 123.697,-131.531 132.937,-136.716 134.154,-129.823"/>
</g>
<!-- Node19 -->
<g id="node19" class="node"><title>Node19</title>
<g id="a_node19"><a xlink:href="$d6/df4/sentence_8h.html" xlink:title="common/sentence.h">
<polygon fill="white" stroke="black" points="325.853,-112.5 325.853,-131.5 430.853,-131.5 430.853,-112.5 325.853,-112.5"/>
<text text-anchor="middle" x="378.353" y="-119.5" font-family="Helvetica,sans-Serif" font-size="10.00">common/sentence.h</text>
</a>
</g>
</g>
<!-- Node11&#45;&gt;Node19 -->
<g id="edge25" class="edge"><title>Node11&#45;&gt;Node19</title>
<path fill="none" stroke="midnightblue" d="M380.858,-168.083C380.465,-161.006 379.901,-150.861 379.408,-141.986"/>
<polygon fill="midnightblue" stroke="midnightblue" points="382.889,-141.542 378.84,-131.751 375.9,-141.93 382.889,-141.542"/>
</g>
<!-- Node20 -->
<g id="node20" class="node"><title>Node20</title>
<g id="a_node20"><a xlink:href="$d3/d75/base__matrix_8h.html" xlink:title="common/base_matrix.h">
<polygon fill="white" stroke="black" points="188.853,-112.5 188.853,-131.5 307.853,-131.5 307.853,-112.5 188.853,-112.5"/>
<text text-anchor="middle" x="248.353" y="-119.5" font-family="Helvetica,sans-Serif" font-size="10.00">common/base_matrix.h</text>
</a>
</g>
</g>
<!-- Node11&#45;&gt;Node20 -->
<g id="edge30" class="edge"><title>Node11&#45;&gt;Node20</title>
<path fill="none" stroke="midnightblue" d="M360.279,-168.444C338.294,-159.517 303.619,-145.439 278.689,-135.317"/>
<polygon fill="midnightblue" stroke="midnightblue" points="279.911,-132.035 269.329,-131.516 277.278,-138.521 279.911,-132.035"/>
</g>
<!-- Node21 -->
<g id="node21" class="node"><title>Node21</title>
<polygon fill="white" stroke="#bfbfbf" points="448.853,-112.5 448.853,-131.5 561.853,-131.5 561.853,-112.5 448.853,-112.5"/>
<text text-anchor="middle" x="505.353" y="-119.5" font-family="Helvetica,sans-Serif" font-size="10.00">yaml&#45;cpp/node/node.h</text>
</g>
<!-- Node11&#45;&gt;Node21 -->
<g id="edge35" class="edge"><title>Node11&#45;&gt;Node21</title>
<path fill="none" stroke="midnightblue" d="M401.002,-168.444C421.318,-159.596 453.256,-145.687 476.451,-135.586"/>
<polygon fill="midnightblue" stroke="midnightblue" points="478.026,-138.718 485.797,-131.516 475.231,-132.3 478.026,-138.718"/>
</g>
<!-- Node13&#45;&gt;Node12 -->
<g id="edge16" class="edge"><title>Node13&#45;&gt;Node12</title>
<path fill="none" stroke="midnightblue" d="M74.6922,-112.099C73.9377,-99.5133 73.1825,-75.8374 76.3534,-56 77.7901,-47.0118 80.622,-37.3373 83.3652,-29.2704"/>
<polygon fill="midnightblue" stroke="midnightblue" points="86.686,-30.379 86.7954,-19.7848 80.1032,-27.9985 86.686,-30.379"/>
</g>
<!-- Node14 -->
<g id="node14" class="node"><title>Node14</title>
<g id="a_node14"><a xlink:href="$dc/de7/amun_2common_2types_8h.html" xlink:title="common/types.h">
<polygon fill="white" stroke="black" points="303.853,-56.5 303.853,-75.5 392.853,-75.5 392.853,-56.5 303.853,-56.5"/>
<text text-anchor="middle" x="348.353" y="-63.5" font-family="Helvetica,sans-Serif" font-size="10.00">common/types.h</text>
</a>
</g>
</g>
<!-- Node13&#45;&gt;Node14 -->
<g id="edge17" class="edge"><title>Node13&#45;&gt;Node14</title>
<path fill="none" stroke="midnightblue" d="M118.611,-112.444C166.535,-102.964 243.831,-87.6747 295.354,-77.4835"/>
<polygon fill="midnightblue" stroke="midnightblue" points="296.167,-80.8904 305.298,-75.5164 294.809,-74.0235 296.167,-80.8904"/>
</g>
<!-- Node18 -->
<g id="node18" class="node"><title>Node18</title>
<g id="a_node18"><a xlink:href="$d3/d59/soft__alignment_8h.html" xlink:title="common/soft_alignment.h">
<polygon fill="white" stroke="black" points="156.853,-56.5 156.853,-75.5 285.853,-75.5 285.853,-56.5 156.853,-56.5"/>
<text text-anchor="middle" x="221.353" y="-63.5" font-family="Helvetica,sans-Serif" font-size="10.00">common/soft_alignment.h</text>
</a>
</g>
</g>
<!-- Node13&#45;&gt;Node18 -->
<g id="edge22" class="edge"><title>Node13&#45;&gt;Node18</title>
<path fill="none" stroke="midnightblue" d="M98.4875,-112.444C122.836,-103.438 161.361,-89.1891 188.776,-79.049"/>
<polygon fill="midnightblue" stroke="midnightblue" points="190.163,-82.2681 198.327,-75.5164 187.734,-75.7028 190.163,-82.2681"/>
</g>
<!-- Node14&#45;&gt;Node2 -->
<g id="edge20" class="edge"><title>Node14&#45;&gt;Node2</title>
<path fill="none" stroke="midnightblue" d="M375.766,-56.4435C406.63,-46.8097 456.718,-31.1752 489.35,-20.9896"/>
<polygon fill="midnightblue" stroke="midnightblue" points="490.781,-24.2093 499.284,-17.8886 488.696,-17.5273 490.781,-24.2093"/>
</g>
<!-- Node15 -->
<g id="node15" class="node"><title>Node15</title>
<polygon fill="white" stroke="#bfbfbf" points="325.853,-0.5 325.853,-19.5 370.853,-19.5 370.853,-0.5 325.853,-0.5"/>
<text text-anchor="middle" x="348.353" y="-7.5" font-family="Helvetica,sans-Serif" font-size="10.00">cstdlib</text>
</g>
<!-- Node14&#45;&gt;Node15 -->
<g id="edge18" class="edge"><title>Node14&#45;&gt;Node15</title>
<path fill="none" stroke="midnightblue" d="M348.353,-56.083C348.353,-49.0059 348.353,-38.8611 348.353,-29.9865"/>
<polygon fill="midnightblue" stroke="midnightblue" points="351.853,-29.751 348.353,-19.7511 344.853,-29.7511 351.853,-29.751"/>
</g>
<!-- Node16 -->
<g id="node16" class="node"><title>Node16</title>
<polygon fill="white" stroke="#bfbfbf" points="389.353,-0.5 389.353,-19.5 435.353,-19.5 435.353,-0.5 389.353,-0.5"/>
<text text-anchor="middle" x="412.353" y="-7.5" font-family="Helvetica,sans-Serif" font-size="10.00">cstdint</text>
</g>
<!-- Node14&#45;&gt;Node16 -->
<g id="edge19" class="edge"><title>Node14&#45;&gt;Node16</title>
<path fill="none" stroke="midnightblue" d="M358.636,-56.324C368.19,-48.2631 382.633,-36.0765 394.138,-26.3695"/>
<polygon fill="midnightblue" stroke="midnightblue" points="396.498,-28.9577 401.884,-19.8339 391.984,-23.6076 396.498,-28.9577"/>
</g>
<!-- Node17 -->
<g id="node17" class="node"><title>Node17</title>
<polygon fill="white" stroke="#bfbfbf" points="253.353,-0.5 253.353,-19.5 307.353,-19.5 307.353,-0.5 253.353,-0.5"/>
<text text-anchor="middle" x="280.353" y="-7.5" font-family="Helvetica,sans-Serif" font-size="10.00">iostream</text>
</g>
<!-- Node14&#45;&gt;Node17 -->
<g id="edge21" class="edge"><title>Node14&#45;&gt;Node17</title>
<path fill="none" stroke="midnightblue" d="M337.428,-56.324C327.179,-48.1849 311.633,-35.8395 299.352,-26.0874"/>
<polygon fill="midnightblue" stroke="midnightblue" points="301.485,-23.3119 291.478,-19.8339 297.132,-28.7937 301.485,-23.3119"/>
</g>
<!-- Node18&#45;&gt;Node2 -->
<g id="edge23" class="edge"><title>Node18&#45;&gt;Node2</title>
<path fill="none" stroke="midnightblue" d="M268.889,-56.4435C330.536,-45.3471 436.413,-26.2893 489.314,-16.7672"/>
<polygon fill="midnightblue" stroke="midnightblue" points="489.937,-20.2113 499.158,-14.9951 488.697,-13.3221 489.937,-20.2113"/>
</g>
<!-- Node18&#45;&gt;Node12 -->
<g id="edge24" class="edge"><title>Node18&#45;&gt;Node12</title>
<path fill="none" stroke="midnightblue" d="M200.596,-56.4435C179.037,-47.5566 145.09,-33.5632 120.56,-23.4514"/>
<polygon fill="midnightblue" stroke="midnightblue" points="121.593,-20.0917 111.014,-19.5164 118.925,-26.5634 121.593,-20.0917"/>
</g>
<!-- Node19&#45;&gt;Node2 -->
<g id="edge27" class="edge"><title>Node19&#45;&gt;Node2</title>
<path fill="none" stroke="midnightblue" d="M389.574,-112.368C413.904,-93.6531 471.757,-49.1509 502.071,-25.8324"/>
<polygon fill="midnightblue" stroke="midnightblue" points="504.392,-28.4628 510.185,-19.5914 500.124,-22.9144 504.392,-28.4628"/>
</g>
<!-- Node19&#45;&gt;Node8 -->
<g id="edge28" class="edge"><title>Node19&#45;&gt;Node8</title>
<path fill="none" stroke="midnightblue" d="M398.952,-112.444C420.347,-103.557 454.035,-89.5632 478.378,-79.4514"/>
<polygon fill="midnightblue" stroke="midnightblue" points="479.959,-82.5848 487.851,-75.5164 477.273,-76.1203 479.959,-82.5848"/>
</g>
<!-- Node19&#45;&gt;Node12 -->
<g id="edge26" class="edge"><title>Node19&#45;&gt;Node12</title>
<path fill="none" stroke="midnightblue" d="M325.809,-112.608C262.492,-102.21 162.652,-84.7928 147.353,-76 127.498,-64.5886 111.063,-43.6901 101.024,-28.6669"/>
<polygon fill="midnightblue" stroke="midnightblue" points="103.702,-26.3569 95.379,-19.8017 97.7979,-30.1167 103.702,-26.3569"/>
</g>
<!-- Node19&#45;&gt;Node14 -->
<g id="edge29" class="edge"><title>Node19&#45;&gt;Node14</title>
<path fill="none" stroke="midnightblue" d="M373.399,-112.083C369.249,-104.613 363.2,-93.7244 358.087,-84.5199"/>
<polygon fill="midnightblue" stroke="midnightblue" points="361.131,-82.7929 353.215,-75.7511 355.012,-86.1924 361.131,-82.7929"/>
</g>
<!-- Node20&#45;&gt;Node2 -->
<g id="edge32" class="edge"><title>Node20&#45;&gt;Node2</title>
<path fill="none" stroke="midnightblue" d="M286.994,-112.43C318.492,-104.787 363.754,-92.2922 401.353,-76 417.44,-69.0296 420.026,-64.5111 435.353,-56 455.181,-44.99 477.93,-33.119 495.049,-24.3354"/>
<polygon fill="midnightblue" stroke="midnightblue" points="497.101,-27.2174 504.413,-19.5503 493.915,-20.984 497.101,-27.2174"/>
</g>
<!-- Node20&#45;&gt;Node8 -->
<g id="edge31" class="edge"><title>Node20&#45;&gt;Node8</title>
<path fill="none" stroke="midnightblue" d="M289.551,-112.444C342.001,-101.55 431.393,-82.9841 478.023,-73.2994"/>
<polygon fill="midnightblue" stroke="midnightblue" points="478.755,-76.7221 487.835,-71.2616 477.332,-69.8683 478.755,-76.7221"/>
</g>
<!-- Node20&#45;&gt;Node12 -->
<g id="edge33" class="edge"><title>Node20&#45;&gt;Node12</title>
<path fill="none" stroke="midnightblue" d="M188.595,-112.727C162.943,-106.444 134.339,-95.4007 114.353,-76 101.822,-63.8351 95.7847,-44.5616 92.9067,-30.1554"/>
<polygon fill="midnightblue" stroke="midnightblue" points="96.2918,-29.1717 91.2119,-19.8742 89.385,-30.3103 96.2918,-29.1717"/>
</g>
<!-- Node20&#45;&gt;Node14 -->
<g id="edge34" class="edge"><title>Node20&#45;&gt;Node14</title>
<path fill="none" stroke="midnightblue" d="M264.42,-112.324C280.311,-103.743 304.861,-90.486 323.312,-80.5224"/>
<polygon fill="midnightblue" stroke="midnightblue" points="325.19,-83.4857 332.327,-75.6545 321.864,-77.3264 325.19,-83.4857"/>
</g>
<!-- Node22&#45;&gt;Node2 -->
<g id="edge38" class="edge"><title>Node22&#45;&gt;Node2</title>
<path fill="none" stroke="midnightblue" d="M515.11,-224.366C531.442,-216.905 553.318,-204.684 567.353,-188 584.568,-167.537 584.378,-158.274 589.353,-132 595.683,-98.5802 597.82,-85.1865 580.353,-56 572.551,-42.9631 559.416,-32.3875 547.517,-24.7723"/>
<polygon fill="midnightblue" stroke="midnightblue" points="549.146,-21.668 538.768,-19.5343 545.55,-27.674 549.146,-21.668"/>
</g>
<!-- Node22&#45;&gt;Node11 -->
<g id="edge41" class="edge"><title>Node22&#45;&gt;Node11</title>
<path fill="none" stroke="midnightblue" d="M475.359,-224.324C457.316,-215.625 429.306,-202.12 408.551,-192.113"/>
<polygon fill="midnightblue" stroke="midnightblue" points="409.831,-188.845 399.303,-187.655 406.791,-195.15 409.831,-188.845"/>
</g>
<!-- Node22&#45;&gt;Node14 -->
<g id="edge40" class="edge"><title>Node22&#45;&gt;Node14</title>
<path fill="none" stroke="midnightblue" d="M424.797,-232.94C350.414,-228.725 234.866,-209.166 179.353,-132 174.162,-124.784 173.937,-119.048 179.353,-112 186.636,-102.524 248.887,-87.6824 295.737,-77.6595"/>
<polygon fill="midnightblue" stroke="midnightblue" points="296.715,-81.0301 305.773,-75.5351 295.265,-74.1819 296.715,-81.0301"/>
</g>
<!-- Node23 -->
<g id="node23" class="node"><title>Node23</title>
<polygon fill="white" stroke="#bfbfbf" points="499.853,-168.5 499.853,-187.5 558.853,-187.5 558.853,-168.5 499.853,-168.5"/>
<text text-anchor="middle" x="529.353" y="-175.5" font-family="Helvetica,sans-Serif" font-size="10.00">functional</text>
</g>
<!-- Node22&#45;&gt;Node23 -->
<g id="edge37" class="edge"><title>Node22&#45;&gt;Node23</title>
<path fill="none" stroke="midnightblue" d="M499.298,-224.083C504.331,-216.534 511.69,-205.495 517.867,-196.23"/>
<polygon fill="midnightblue" stroke="midnightblue" points="520.884,-198.013 523.519,-187.751 515.06,-194.13 520.884,-198.013"/>
</g>
<!-- Node24 -->
<g id="node24" class="node"><title>Node24</title>
<polygon fill="white" stroke="#bfbfbf" points="446.853,-168.5 446.853,-187.5 481.853,-187.5 481.853,-168.5 446.853,-168.5"/>
<text text-anchor="middle" x="464.353" y="-175.5" font-family="Helvetica,sans-Serif" font-size="10.00">map</text>
</g>
<!-- Node22&#45;&gt;Node24 -->
<g id="edge39" class="edge"><title>Node22&#45;&gt;Node24</title>
<path fill="none" stroke="midnightblue" d="M488.565,-224.083C484.595,-216.691 478.828,-205.953 473.919,-196.811"/>
<polygon fill="midnightblue" stroke="midnightblue" points="476.868,-194.905 469.053,-187.751 470.701,-198.217 476.868,-194.905"/>
</g>
</g>
</svg>
