<?xml version="1.0" encoding="UTF-8" standalone="no"?>
<!DOCTYPE svg PUBLIC "-//W3C//DTD SVG 1.1//EN"
 "http://www.w3.org/Graphics/SVG/1.1/DTD/svg11.dtd">
<!-- Generated by graphviz version 2.38.0 (20140413.2041)
 -->
<!-- Title: marian::rnn::CellFactory Pages: 1 -->
<svg width="156pt" height="651pt"
 viewBox="0.00 0.00 156.00 651.00" xmlns="http://www.w3.org/2000/svg" xmlns:xlink="http://www.w3.org/1999/xlink">
<g id="graph0" class="graph" transform="scale(1 1) rotate(0) translate(4 647)">
<title>marian::rnn::CellFactory</title>
<polygon fill="white" stroke="none" points="-4,4 -4,-647 152,-647 152,4 -4,4"/>
<!-- Node1 -->
<g id="node1" class="node"><title>Node1</title>
<polygon fill="#bfbfbf" stroke="black" points="13,-127.5 13,-228.5 135,-228.5 135,-127.5 13,-127.5"/>
<text text-anchor="middle" x="74" y="-216.5" font-family="Helvetica,sans-Serif" font-size="10.00">marian::rnn::CellFactory</text>
<polyline fill="none" stroke="black" points="13,-209.5 135,-209.5 "/>
<text text-anchor="start" x="21" y="-197.5" font-family="Helvetica,sans-Serif" font-size="10.00"># inputs_</text>
<polyline fill="none" stroke="black" points="13,-190.5 135,-190.5 "/>
<text text-anchor="start" x="21" y="-178.5" font-family="Helvetica,sans-Serif" font-size="10.00">+ CellFactory()</text>
<text text-anchor="start" x="21" y="-167.5" font-family="Helvetica,sans-Serif" font-size="10.00">+ construct()</text>
<text text-anchor="start" x="21" y="-156.5" font-family="Helvetica,sans-Serif" font-size="10.00">+ clone()</text>
<text text-anchor="start" x="21" y="-145.5" font-family="Helvetica,sans-Serif" font-size="10.00">+ add_input()</text>
<text text-anchor="start" x="21" y="-134.5" font-family="Helvetica,sans-Serif" font-size="10.00">+ add_input()</text>
</g>
<!-- Node5 -->
<g id="node5" class="node"><title>Node5</title>
<g id="a_node5"><a xlink:href="$db/d9f/classmarian_1_1rnn_1_1StackedCellFactory.html" xlink:title="{marian::rnn::StackedCell\lFactory\n|# stackableFactories_\l|+ StackedCellFactory()\l+ construct()\l+ push_back()\l}">
<polygon fill="white" stroke="black" points="11.5,-0.5 11.5,-90.5 136.5,-90.5 136.5,-0.5 11.5,-0.5"/>
<text text-anchor="start" x="19.5" y="-78.5" font-family="Helvetica,sans-Serif" font-size="10.00">marian::rnn::StackedCell</text>
<text text-anchor="middle" x="74" y="-67.5" font-family="Helvetica,sans-Serif" font-size="10.00">Factory</text>
<polyline fill="none" stroke="black" points="11.5,-60.5 136.5,-60.5 "/>
<text text-anchor="start" x="19.5" y="-48.5" font-family="Helvetica,sans-Serif" font-size="10.00"># stackableFactories_</text>
<polyline fill="none" stroke="black" points="11.5,-41.5 136.5,-41.5 "/>
<text text-anchor="start" x="19.5" y="-29.5" font-family="Helvetica,sans-Serif" font-size="10.00">+ StackedCellFactory()</text>
<text text-anchor="start" x="19.5" y="-18.5" font-family="Helvetica,sans-Serif" font-size="10.00">+ construct()</text>
<text text-anchor="start" x="19.5" y="-7.5" font-family="Helvetica,sans-Serif" font-size="10.00">+ push_back()</text>
</a>
</g>
</g>
<!-- Node1&#45;&gt;Node5 -->
<g id="edge4" class="edge"><title>Node1&#45;&gt;Node5</title>
<path fill="none" stroke="midnightblue" d="M74,-117.232C74,-108.236 74,-99.1012 74,-90.5165"/>
<polygon fill="none" stroke="midnightblue" points="70.5001,-117.291 74,-127.291 77.5001,-117.291 70.5001,-117.291"/>
</g>
<!-- Node2 -->
<g id="node2" class="node"><title>Node2</title>
<g id="a_node2"><a xlink:href="$d8/d32/structmarian_1_1rnn_1_1StackableFactory.html" xlink:title="{marian::rnn::StackableFactory\n||+ StackableFactory()\l+ StackableFactory()\l+ StackableFactory()\l+ ~StackableFactory()\l+ as()\l+ is()\l}">
<polygon fill="white" stroke="black" points="0,-265.5 0,-377.5 148,-377.5 148,-265.5 0,-265.5"/>
<text text-anchor="middle" x="74" y="-365.5" font-family="Helvetica,sans-Serif" font-size="10.00">marian::rnn::StackableFactory</text>
<polyline fill="none" stroke="black" points="0,-358.5 148,-358.5 "/>
<text text-anchor="middle" x="74" y="-346.5" font-family="Helvetica,sans-Serif" font-size="10.00"> </text>
<polyline fill="none" stroke="black" points="0,-339.5 148,-339.5 "/>
<text text-anchor="start" x="8" y="-327.5" font-family="Helvetica,sans-Serif" font-size="10.00">+ StackableFactory()</text>
<text text-anchor="start" x="8" y="-316.5" font-family="Helvetica,sans-Serif" font-size="10.00">+ StackableFactory()</text>
<text text-anchor="start" x="8" y="-305.5" font-family="Helvetica,sans-Serif" font-size="10.00">+ StackableFactory()</text>
<text text-anchor="start" x="8" y="-294.5" font-family="Helvetica,sans-Serif" font-size="10.00">+ ~StackableFactory()</text>
<text text-anchor="start" x="8" y="-283.5" font-family="Helvetica,sans-Serif" font-size="10.00">+ as()</text>
<text text-anchor="start" x="8" y="-272.5" font-family="Helvetica,sans-Serif" font-size="10.00">+ is()</text>
</a>
</g>
</g>
<!-- Node2&#45;&gt;Node1 -->
<g id="edge1" class="edge"><title>Node2&#45;&gt;Node1</title>
<path fill="none" stroke="midnightblue" d="M74,-255.344C74,-246.375 74,-237.286 74,-228.658"/>
<polygon fill="none" stroke="midnightblue" points="70.5001,-255.387 74,-265.387 77.5001,-255.387 70.5001,-255.387"/>
</g>
<!-- Node3 -->
<g id="node3" class="node"><title>Node3</title>
<g id="a_node3"><a xlink:href="$d5/d28/classmarian_1_1Factory.html" xlink:title="{marian::Factory\n|# options_\l# graph_\l|+ Factory()\l+ ~Factory()\l+ getOptions()\l+ str()\l+ opt()\l+ opt()\l}">
<polygon fill="white" stroke="black" points="31.5,-414.5 31.5,-537.5 116.5,-537.5 116.5,-414.5 31.5,-414.5"/>
<text text-anchor="middle" x="74" y="-525.5" font-family="Helvetica,sans-Serif" font-size="10.00">marian::Factory</text>
<polyline fill="none" stroke="black" points="31.5,-518.5 116.5,-518.5 "/>
<text text-anchor="start" x="39.5" y="-506.5" font-family="Helvetica,sans-Serif" font-size="10.00"># options_</text>
<text text-anchor="start" x="39.5" y="-495.5" font-family="Helvetica,sans-Serif" font-size="10.00"># graph_</text>
<polyline fill="none" stroke="black" points="31.5,-488.5 116.5,-488.5 "/>
<text text-anchor="start" x="39.5" y="-476.5" font-family="Helvetica,sans-Serif" font-size="10.00">+ Factory()</text>
<text text-anchor="start" x="39.5" y="-465.5" font-family="Helvetica,sans-Serif" font-size="10.00">+ ~Factory()</text>
<text text-anchor="start" x="39.5" y="-454.5" font-family="Helvetica,sans-Serif" font-size="10.00">+ getOptions()</text>
<text text-anchor="start" x="39.5" y="-443.5" font-family="Helvetica,sans-Serif" font-size="10.00">+ str()</text>
<text text-anchor="start" x="39.5" y="-432.5" font-family="Helvetica,sans-Serif" font-size="10.00">+ opt()</text>
<text text-anchor="start" x="39.5" y="-421.5" font-family="Helvetica,sans-Serif" font-size="10.00">+ opt()</text>
</a>
</g>
</g>
<!-- Node3&#45;&gt;Node2 -->
<g id="edge2" class="edge"><title>Node3&#45;&gt;Node2</title>
<path fill="none" stroke="midnightblue" d="M74,-404.246C74,-395.288 74,-386.228 74,-377.564"/>
<polygon fill="none" stroke="midnightblue" points="70.5001,-404.29 74,-414.29 77.5001,-404.29 70.5001,-404.29"/>
</g>
<!-- Node4 -->
<g id="node4" class="node"><title>Node4</title>
<polygon fill="white" stroke="#bfbfbf" points="17.5,-574.5 17.5,-642.5 130.5,-642.5 130.5,-574.5 17.5,-574.5"/>
<text text-anchor="start" x="25.5" y="-630.5" font-family="Helvetica,sans-Serif" font-size="10.00">std::enable_shared</text>
<text text-anchor="middle" x="74" y="-619.5" font-family="Helvetica,sans-Serif" font-size="10.00">_from_this&lt; Factory &gt;</text>
<polyline fill="none" stroke="#bfbfbf" points="17.5,-612.5 130.5,-612.5 "/>
<text text-anchor="middle" x="74" y="-600.5" font-family="Helvetica,sans-Serif" font-size="10.00"> </text>
<polyline fill="none" stroke="#bfbfbf" points="17.5,-593.5 130.5,-593.5 "/>
<text text-anchor="middle" x="74" y="-581.5" font-family="Helvetica,sans-Serif" font-size="10.00"> </text>
</g>
<!-- Node4&#45;&gt;Node3 -->
<g id="edge3" class="edge"><title>Node4&#45;&gt;Node3</title>
<path fill="none" stroke="midnightblue" d="M74,-564.169C74,-555.652 74,-546.572 74,-537.609"/>
<polygon fill="none" stroke="midnightblue" points="70.5001,-564.232 74,-574.232 77.5001,-564.232 70.5001,-564.232"/>
</g>
</g>
</svg>
