<?xml version="1.0" encoding="UTF-8" standalone="no"?>
<!DOCTYPE svg PUBLIC "-//W3C//DTD SVG 1.1//EN"
 "http://www.w3.org/Graphics/SVG/1.1/DTD/svg11.dtd">
<!-- Generated by graphviz version 2.38.0 (20140413.2041)
 -->
<!-- Title: marian::RowsNodeOp::newShape Pages: 1 -->
<svg width="446pt" height="85pt"
 viewBox="0.00 0.00 446.00 85.00" xmlns="http://www.w3.org/2000/svg" xmlns:xlink="http://www.w3.org/1999/xlink">
<g id="graph0" class="graph" transform="scale(1 1) rotate(0) translate(4 81)">
<title>marian::RowsNodeOp::newShape</title>
<polygon fill="white" stroke="none" points="-4,4 -4,-81 442,-81 442,4 -4,4"/>
<!-- Node1 -->
<g id="node1" class="node"><title>Node1</title>
<polygon fill="#bfbfbf" stroke="black" points="0,-33 0,-63 113,-63 113,-33 0,-33"/>
<text text-anchor="start" x="8" y="-51" font-family="Helvetica,sans-Serif" font-size="10.00">marian::RowsNodeOp</text>
<text text-anchor="middle" x="56.5" y="-40" font-family="Helvetica,sans-Serif" font-size="10.00">::newShape</text>
</g>
<!-- Node2 -->
<g id="node2" class="node"><title>Node2</title>
<g id="a_node2"><a xlink:href="$d0/d7a/classmarian_1_1Node.html#aa631f0244ad94b4c64efab0f140bd1d5" xlink:title="marian::Node::shape">
<polygon fill="white" stroke="black" points="149,-57.5 149,-76.5 256,-76.5 256,-57.5 149,-57.5"/>
<text text-anchor="middle" x="202.5" y="-64.5" font-family="Helvetica,sans-Serif" font-size="10.00">marian::Node::shape</text>
</a>
</g>
</g>
<!-- Node1&#45;&gt;Node2 -->
<g id="edge1" class="edge"><title>Node1&#45;&gt;Node2</title>
<path fill="none" stroke="midnightblue" d="M113.174,-55.3459C121.593,-56.4567 130.326,-57.609 138.88,-58.7376"/>
<polygon fill="midnightblue" stroke="midnightblue" points="138.437,-62.2094 148.809,-60.0477 139.353,-55.2696 138.437,-62.2094"/>
</g>
<!-- Node3 -->
<g id="node3" class="node"><title>Node3</title>
<g id="a_node3"><a xlink:href="$d5/d54/structmarian_1_1Shape.html#a2849bb218aa2214bbab47256a9452caf" xlink:title="marian::Shape::set">
<polygon fill="white" stroke="black" points="153,-19.5 153,-38.5 252,-38.5 252,-19.5 153,-19.5"/>
<text text-anchor="middle" x="202.5" y="-26.5" font-family="Helvetica,sans-Serif" font-size="10.00">marian::Shape::set</text>
</a>
</g>
</g>
<!-- Node1&#45;&gt;Node3 -->
<g id="edge2" class="edge"><title>Node1&#45;&gt;Node3</title>
<path fill="none" stroke="midnightblue" d="M113.174,-40.6541C122.807,-39.383 132.852,-38.0577 142.569,-36.7757"/>
<polygon fill="midnightblue" stroke="midnightblue" points="143.088,-40.2376 152.544,-35.4595 142.172,-33.2977 143.088,-40.2376"/>
</g>
<!-- Node4 -->
<g id="node4" class="node"><title>Node4</title>
<g id="a_node4"><a xlink:href="$d5/d54/structmarian_1_1Shape.html#af416da295388777386ae8b834115066f" xlink:title="Gets a reference to the int representing the size of the ith dimension represented by this object...">
<polygon fill="white" stroke="black" points="314.5,-38.5 314.5,-57.5 415.5,-57.5 415.5,-38.5 314.5,-38.5"/>
<text text-anchor="middle" x="365" y="-45.5" font-family="Helvetica,sans-Serif" font-size="10.00">marian::Shape::dim</text>
</a>
</g>
</g>
<!-- Node3&#45;&gt;Node4 -->
<g id="edge3" class="edge"><title>Node3&#45;&gt;Node4</title>
<path fill="none" stroke="midnightblue" d="M252.091,-34.7522C268.596,-36.7061 287.229,-38.9119 304.488,-40.955"/>
<polygon fill="midnightblue" stroke="midnightblue" points="304.123,-44.4361 314.465,-42.136 304.946,-37.4846 304.123,-44.4361"/>
</g>
<!-- Node5 -->
<g id="node5" class="node"><title>Node5</title>
<g id="a_node5"><a xlink:href="$d5/d54/structmarian_1_1Shape.html#a9cf031011a4b53538dda070a77ad19f9" xlink:title="marian::Shape::updateStrides">
<polygon fill="white" stroke="black" points="292,-0.5 292,-19.5 438,-19.5 438,-0.5 292,-0.5"/>
<text text-anchor="middle" x="365" y="-7.5" font-family="Helvetica,sans-Serif" font-size="10.00">marian::Shape::updateStrides</text>
</a>
</g>
</g>
<!-- Node3&#45;&gt;Node5 -->
<g id="edge4" class="edge"><title>Node3&#45;&gt;Node5</title>
<path fill="none" stroke="midnightblue" d="M252.091,-23.2478C261.502,-22.1337 271.605,-20.9378 281.75,-19.7368"/>
<polygon fill="midnightblue" stroke="midnightblue" points="282.366,-23.1883 291.885,-18.5369 281.543,-16.2369 282.366,-23.1883"/>
</g>
</g>
</svg>
