<?xml version="1.0" encoding="UTF-8" standalone="no"?>
<!DOCTYPE svg PUBLIC "-//W3C//DTD SVG 1.1//EN"
 "http://www.w3.org/Graphics/SVG/1.1/DTD/svg11.dtd">
<!-- Generated by graphviz version 2.38.0 (20140413.2041)
 -->
<!-- Title: marian::RowsNodeOp::hash Pages: 1 -->
<svg width="576pt" height="154pt"
 viewBox="0.00 0.00 576.00 154.00" xmlns="http://www.w3.org/2000/svg" xmlns:xlink="http://www.w3.org/1999/xlink">
<g id="graph0" class="graph" transform="scale(1 1) rotate(0) translate(4 150)">
<title>marian::RowsNodeOp::hash</title>
<polygon fill="white" stroke="none" points="-4,4 -4,-150 572,-150 572,4 -4,4"/>
<!-- Node1 -->
<g id="node1" class="node"><title>Node1</title>
<polygon fill="#bfbfbf" stroke="black" points="0,-99 0,-129 113,-129 113,-99 0,-99"/>
<text text-anchor="start" x="8" y="-117" font-family="Helvetica,sans-Serif" font-size="10.00">marian::RowsNodeOp</text>
<text text-anchor="middle" x="56.5" y="-106" font-family="Helvetica,sans-Serif" font-size="10.00">::hash</text>
</g>
<!-- Node2 -->
<g id="node2" class="node"><title>Node2</title>
<g id="a_node2"><a xlink:href="$d0/da7/structmarian_1_1NaryNodeOp.html#ab1b6a692080382203afe5ceaf0c4279d" xlink:title="marian::NaryNodeOp\l::hash">
<polygon fill="white" stroke="black" points="149,-77 149,-107 258,-107 258,-77 149,-77"/>
<text text-anchor="start" x="157" y="-95" font-family="Helvetica,sans-Serif" font-size="10.00">marian::NaryNodeOp</text>
<text text-anchor="middle" x="203.5" y="-84" font-family="Helvetica,sans-Serif" font-size="10.00">::hash</text>
</a>
</g>
</g>
<!-- Node1&#45;&gt;Node2 -->
<g id="edge1" class="edge"><title>Node1&#45;&gt;Node2</title>
<path fill="none" stroke="midnightblue" d="M113.146,-105.557C121.527,-104.286 130.226,-102.966 138.76,-101.671"/>
<polygon fill="midnightblue" stroke="midnightblue" points="139.313,-105.127 148.675,-100.167 138.263,-98.2063 139.313,-105.127"/>
</g>
<!-- Node4 -->
<g id="node4" class="node"><title>Node4</title>
<g id="a_node4"><a xlink:href="$dd/d80/bpe_8h.html#a04cc1b733a2f4d205f13f7a59facba64" xlink:title="hash_combine">
<polygon fill="white" stroke="black" points="306.5,-126.5 306.5,-145.5 386.5,-145.5 386.5,-126.5 306.5,-126.5"/>
<text text-anchor="middle" x="346.5" y="-133.5" font-family="Helvetica,sans-Serif" font-size="10.00">hash_combine</text>
</a>
</g>
</g>
<!-- Node1&#45;&gt;Node4 -->
<g id="edge7" class="edge"><title>Node1&#45;&gt;Node4</title>
<path fill="none" stroke="midnightblue" d="M113.029,-118.242C166.093,-122.295 245.325,-128.348 296.208,-132.235"/>
<polygon fill="midnightblue" stroke="midnightblue" points="296.065,-135.734 306.303,-133.006 296.599,-128.754 296.065,-135.734"/>
</g>
<!-- Node3 -->
<g id="node3" class="node"><title>Node3</title>
<g id="a_node3"><a xlink:href="$d0/d7a/classmarian_1_1Node.html#ad5437ac41eaa8316791698db9ad46ab0" xlink:title="marian::Node::name">
<polygon fill="white" stroke="black" points="294,-88.5 294,-107.5 399,-107.5 399,-88.5 294,-88.5"/>
<text text-anchor="middle" x="346.5" y="-95.5" font-family="Helvetica,sans-Serif" font-size="10.00">marian::Node::name</text>
</a>
</g>
</g>
<!-- Node2&#45;&gt;Node3 -->
<g id="edge2" class="edge"><title>Node2&#45;&gt;Node3</title>
<path fill="none" stroke="midnightblue" d="M258.208,-94.2855C266.508,-94.6386 275.137,-95.0058 283.598,-95.3659"/>
<polygon fill="midnightblue" stroke="midnightblue" points="283.662,-98.8717 293.802,-95.8001 283.96,-91.878 283.662,-98.8717"/>
</g>
<!-- Node2&#45;&gt;Node4 -->
<g id="edge3" class="edge"><title>Node2&#45;&gt;Node4</title>
<path fill="none" stroke="midnightblue" d="M252.63,-107.019C269.675,-112.338 288.667,-118.265 305.012,-123.365"/>
<polygon fill="midnightblue" stroke="midnightblue" points="304.217,-126.784 314.806,-126.422 306.303,-120.102 304.217,-126.784"/>
</g>
<!-- Node5 -->
<g id="node5" class="node"><title>Node5</title>
<g id="a_node5"><a xlink:href="$de/dff/classmarian_1_1Chainable.html#a2b7a5cbdac7a7d3bd7d781a6ff148fc3" xlink:title="marian::Chainable\&lt;\l Tensor \&gt;::type">
<polygon fill="white" stroke="black" points="296,-39 296,-69 397,-69 397,-39 296,-39"/>
<text text-anchor="start" x="304" y="-57" font-family="Helvetica,sans-Serif" font-size="10.00">marian::Chainable&lt;</text>
<text text-anchor="middle" x="346.5" y="-46" font-family="Helvetica,sans-Serif" font-size="10.00"> Tensor &gt;::type</text>
</a>
</g>
</g>
<!-- Node2&#45;&gt;Node5 -->
<g id="edge4" class="edge"><title>Node2&#45;&gt;Node5</title>
<path fill="none" stroke="midnightblue" d="M258.208,-77.5254C267.238,-75.0918 276.659,-72.5529 285.829,-70.0816"/>
<polygon fill="midnightblue" stroke="midnightblue" points="286.906,-73.4162 295.651,-67.4346 285.084,-66.6574 286.906,-73.4162"/>
</g>
<!-- Node6 -->
<g id="node6" class="node"><title>Node6</title>
<g id="a_node6"><a xlink:href="$d0/d7a/classmarian_1_1Node.html#a71a9c8ad6ba12d421fa97222d74a90b9" xlink:title="marian::Node::child">
<polygon fill="white" stroke="black" points="296,-0.5 296,-19.5 397,-19.5 397,-0.5 296,-0.5"/>
<text text-anchor="middle" x="346.5" y="-7.5" font-family="Helvetica,sans-Serif" font-size="10.00">marian::Node::child</text>
</a>
</g>
</g>
<!-- Node2&#45;&gt;Node6 -->
<g id="edge5" class="edge"><title>Node2&#45;&gt;Node6</title>
<path fill="none" stroke="midnightblue" d="M222.786,-76.9779C240.26,-63.1579 267.754,-42.7775 294,-29 297.797,-27.0068 301.851,-25.1272 305.953,-23.3829"/>
<polygon fill="midnightblue" stroke="midnightblue" points="307.525,-26.5243 315.517,-19.5686 304.931,-20.0223 307.525,-26.5243"/>
</g>
<!-- Node7 -->
<g id="node7" class="node"><title>Node7</title>
<g id="a_node7"><a xlink:href="$d0/d7a/classmarian_1_1Node.html#a4aa5aa482c70595fa5d43c1fbabf5c18" xlink:title="marian::Node::getBackend">
<polygon fill="white" stroke="black" points="435,-0.5 435,-19.5 568,-19.5 568,-0.5 435,-0.5"/>
<text text-anchor="middle" x="501.5" y="-7.5" font-family="Helvetica,sans-Serif" font-size="10.00">marian::Node::getBackend</text>
</a>
</g>
</g>
<!-- Node6&#45;&gt;Node7 -->
<g id="edge6" class="edge"><title>Node6&#45;&gt;Node7</title>
<path fill="none" stroke="midnightblue" d="M397.175,-10C406.018,-10 415.408,-10 424.783,-10"/>
<polygon fill="midnightblue" stroke="midnightblue" points="424.922,-13.5001 434.922,-10 424.922,-6.5001 424.922,-13.5001"/>
</g>
</g>
</svg>
