<?xml version="1.0" encoding="UTF-8" standalone="no"?>
<!DOCTYPE svg PUBLIC "-//W3C//DTD SVG 1.1//EN"
 "http://www.w3.org/Graphics/SVG/1.1/DTD/svg11.dtd">
<!-- Generated by graphviz version 2.38.0 (20140413.2041)
 -->
<!-- Title: hash_combine Pages: 1 -->
<svg width="412pt" height="519pt"
 viewBox="0.00 0.00 412.00 519.00" xmlns="http://www.w3.org/2000/svg" xmlns:xlink="http://www.w3.org/1999/xlink">
<g id="graph0" class="graph" transform="scale(1 1) rotate(0) translate(4 515)">
<title>hash_combine</title>
<polygon fill="white" stroke="none" points="-4,4 -4,-515 408,-515 408,4 -4,4"/>
<!-- Node1 -->
<g id="node1" class="node"><title>Node1</title>
<polygon fill="#bfbfbf" stroke="black" points="0,-246 0,-265 80,-265 80,-246 0,-246"/>
<text text-anchor="middle" x="40" y="-253" font-family="Helvetica,sans-Serif" font-size="10.00">hash_combine</text>
</g>
<!-- Node2 -->
<g id="node2" class="node"><title>Node2</title>
<g id="a_node2"><a xlink:href="../../d0/da7/structmarian_1_1NaryNodeOp.html#ab1b6a692080382203afe5ceaf0c4279d" target="_top" xlink:title="marian::NaryNodeOp\l::hash">
<polygon fill="white" stroke="black" points="116,-262.5 116,-292.5 225,-292.5 225,-262.5 116,-262.5"/>
<text text-anchor="start" x="124" y="-280.5" font-family="Helvetica,sans-Serif" font-size="10.00">marian::NaryNodeOp</text>
<text text-anchor="middle" x="170.5" y="-269.5" font-family="Helvetica,sans-Serif" font-size="10.00">::hash</text>
</a>
</g>
</g>
<!-- Node1&#45;&gt;Node2 -->
<g id="edge1" class="edge"><title>Node1&#45;&gt;Node2</title>
<path fill="none" stroke="midnightblue" d="M90.242,-263.931C98.6118,-265.363 107.341,-266.858 115.819,-268.309"/>
<polygon fill="midnightblue" stroke="midnightblue" points="90.6997,-260.458 80.2525,-262.22 89.5184,-267.358 90.6997,-260.458"/>
</g>
<!-- Node3 -->
<g id="node3" class="node"><title>Node3</title>
<g id="a_node3"><a xlink:href="../../d5/d3e/structmarian_1_1ConcatenateNodeOp.html#ade186966864e82498336129c608ab280" target="_top" xlink:title="marian::ConcatenateNodeOp\l::hash">
<polygon fill="white" stroke="black" points="261,-480.5 261,-510.5 404,-510.5 404,-480.5 261,-480.5"/>
<text text-anchor="start" x="269" y="-498.5" font-family="Helvetica,sans-Serif" font-size="10.00">marian::ConcatenateNodeOp</text>
<text text-anchor="middle" x="332.5" y="-487.5" font-family="Helvetica,sans-Serif" font-size="10.00">::hash</text>
</a>
</g>
</g>
<!-- Node1&#45;&gt;Node3 -->
<g id="edge13" class="edge"><title>Node1&#45;&gt;Node3</title>
<path fill="none" stroke="midnightblue" d="M44.3252,-275.027C51.2921,-309.999 70.6906,-383.485 116,-424.5 155.936,-460.651 214.698,-478.439 260.778,-487.167"/>
<polygon fill="midnightblue" stroke="midnightblue" points="47.7516,-274.308 42.483,-265.117 40.8695,-275.588 47.7516,-274.308"/>
</g>
<!-- Node4 -->
<g id="node4" class="node"><title>Node4</title>
<g id="a_node4"><a xlink:href="../../df/d60/structmarian_1_1SoftmaxNodeOp.html#a97692b03bf740a4759f906303bbfd2e1" target="_top" xlink:title="marian::SoftmaxNodeOp\l::hash">
<polygon fill="white" stroke="black" points="270,-431.5 270,-461.5 395,-461.5 395,-431.5 270,-431.5"/>
<text text-anchor="start" x="278" y="-449.5" font-family="Helvetica,sans-Serif" font-size="10.00">marian::SoftmaxNodeOp</text>
<text text-anchor="middle" x="332.5" y="-438.5" font-family="Helvetica,sans-Serif" font-size="10.00">::hash</text>
</a>
</g>
</g>
<!-- Node1&#45;&gt;Node4 -->
<g id="edge14" class="edge"><title>Node1&#45;&gt;Node4</title>
<path fill="none" stroke="midnightblue" d="M46.7761,-274.774C56.3831,-303.488 78.4012,-357.248 116,-386.5 160.292,-420.96 223.243,-435.634 269.676,-441.88"/>
<polygon fill="midnightblue" stroke="midnightblue" points="50.0644,-273.565 43.6953,-265.098 43.3944,-275.689 50.0644,-273.565"/>
</g>
<!-- Node5 -->
<g id="node5" class="node"><title>Node5</title>
<g id="a_node5"><a xlink:href="../../dc/d7a/structmarian_1_1SumNodeOp.html#ab58aedc0c1c6929f45e7fc7a4ad3ab17" target="_top" xlink:title="marian::SumNodeOp::hash">
<polygon fill="white" stroke="black" points="265,-393 265,-412 400,-412 400,-393 265,-393"/>
<text text-anchor="middle" x="332.5" y="-400" font-family="Helvetica,sans-Serif" font-size="10.00">marian::SumNodeOp::hash</text>
</a>
</g>
</g>
<!-- Node1&#45;&gt;Node5 -->
<g id="edge15" class="edge"><title>Node1&#45;&gt;Node5</title>
<path fill="none" stroke="midnightblue" d="M50.3992,-274.383C62.4692,-296.612 85.5448,-332.966 116,-352.5 160.614,-381.115 219.75,-393.409 264.788,-398.663"/>
<polygon fill="midnightblue" stroke="midnightblue" points="53.3736,-272.518 45.6409,-265.275 47.1693,-275.759 53.3736,-272.518"/>
</g>
<!-- Node6 -->
<g id="node6" class="node"><title>Node6</title>
<g id="a_node6"><a xlink:href="../../de/dfa/structmarian_1_1MeanNodeOp.html#a9cffc1e5e7ccf48c08cba8ec8432bebb" target="_top" xlink:title="marian::MeanNodeOp\l::hash">
<polygon fill="white" stroke="black" points="276.5,-343.5 276.5,-373.5 388.5,-373.5 388.5,-343.5 276.5,-343.5"/>
<text text-anchor="start" x="284.5" y="-361.5" font-family="Helvetica,sans-Serif" font-size="10.00">marian::MeanNodeOp</text>
<text text-anchor="middle" x="332.5" y="-350.5" font-family="Helvetica,sans-Serif" font-size="10.00">::hash</text>
</a>
</g>
</g>
<!-- Node1&#45;&gt;Node6 -->
<g id="edge16" class="edge"><title>Node1&#45;&gt;Node6</title>
<path fill="none" stroke="midnightblue" d="M55.2822,-273.306C69.0657,-289.173 91.415,-311.662 116,-323.5 166.714,-347.919 231.105,-355.785 276.242,-358.086"/>
<polygon fill="midnightblue" stroke="midnightblue" points="57.6564,-270.691 48.5462,-265.282 52.295,-275.191 57.6564,-270.691"/>
</g>
<!-- Node7 -->
<g id="node7" class="node"><title>Node7</title>
<g id="a_node7"><a xlink:href="../../d3/d71/structmarian_1_1SqrtNodeOp.html#a83836f4ce180733221a17b5af8e2db58" target="_top" xlink:title="marian::SqrtNodeOp\l::hash">
<polygon fill="white" stroke="black" points="279.5,-294.5 279.5,-324.5 385.5,-324.5 385.5,-294.5 279.5,-294.5"/>
<text text-anchor="start" x="287.5" y="-312.5" font-family="Helvetica,sans-Serif" font-size="10.00">marian::SqrtNodeOp</text>
<text text-anchor="middle" x="332.5" y="-301.5" font-family="Helvetica,sans-Serif" font-size="10.00">::hash</text>
</a>
</g>
</g>
<!-- Node1&#45;&gt;Node7 -->
<g id="edge17" class="edge"><title>Node1&#45;&gt;Node7</title>
<path fill="none" stroke="midnightblue" d="M60.3933,-271.284C74.7902,-281.986 95.4163,-295.276 116,-301.5 169.934,-317.808 234.933,-317.707 279.347,-314.853"/>
<polygon fill="midnightblue" stroke="midnightblue" points="62.3479,-268.372 52.2902,-265.041 58.0758,-273.917 62.3479,-268.372"/>
</g>
<!-- Node8 -->
<g id="node8" class="node"><title>Node8</title>
<g id="a_node8"><a xlink:href="../../db/dfd/structmarian_1_1RowsNodeOp.html#ab673a759e07f33c57da2bb4e02082b25" target="_top" xlink:title="marian::RowsNodeOp\l::hash">
<polygon fill="white" stroke="black" points="276,-245.5 276,-275.5 389,-275.5 389,-245.5 276,-245.5"/>
<text text-anchor="start" x="284" y="-263.5" font-family="Helvetica,sans-Serif" font-size="10.00">marian::RowsNodeOp</text>
<text text-anchor="middle" x="332.5" y="-252.5" font-family="Helvetica,sans-Serif" font-size="10.00">::hash</text>
</a>
</g>
</g>
<!-- Node1&#45;&gt;Node8 -->
<g id="edge18" class="edge"><title>Node1&#45;&gt;Node8</title>
<path fill="none" stroke="midnightblue" d="M90.5031,-253.239C99.006,-252.931 107.756,-252.665 116,-252.5 164.435,-251.532 176.59,-250.684 225,-252.5 241.583,-253.122 259.588,-254.287 275.994,-255.539"/>
<polygon fill="midnightblue" stroke="midnightblue" points="90.1629,-249.75 80.3049,-253.632 90.432,-256.745 90.1629,-249.75"/>
</g>
<!-- Node9 -->
<g id="node9" class="node"><title>Node9</title>
<g id="a_node9"><a xlink:href="../../d7/d70/structmarian_1_1ColsNodeOp.html#a4ca2bfb0920d3b4e3d2439445c1bc75d" target="_top" xlink:title="marian::ColsNodeOp\l::hash">
<polygon fill="white" stroke="black" points="278.5,-196.5 278.5,-226.5 386.5,-226.5 386.5,-196.5 278.5,-196.5"/>
<text text-anchor="start" x="286.5" y="-214.5" font-family="Helvetica,sans-Serif" font-size="10.00">marian::ColsNodeOp</text>
<text text-anchor="middle" x="332.5" y="-203.5" font-family="Helvetica,sans-Serif" font-size="10.00">::hash</text>
</a>
</g>
</g>
<!-- Node1&#45;&gt;Node9 -->
<g id="edge19" class="edge"><title>Node1&#45;&gt;Node9</title>
<path fill="none" stroke="midnightblue" d="M90.2107,-248.046C142.464,-240.132 224.767,-227.666 278.441,-219.536"/>
<polygon fill="midnightblue" stroke="midnightblue" points="89.5412,-244.608 80.1781,-249.566 90.5895,-251.529 89.5412,-244.608"/>
</g>
<!-- Node10 -->
<g id="node10" class="node"><title>Node10</title>
<g id="a_node10"><a xlink:href="../../d0/d2d/classmarian_1_1ReshapeNodeOp.html#a629e7d06a0a137b9b6dd9343619ac860" target="_top" xlink:title="marian::ReshapeNodeOp\l::hash">
<polygon fill="white" stroke="black" points="269,-147.5 269,-177.5 396,-177.5 396,-147.5 269,-147.5"/>
<text text-anchor="start" x="277" y="-165.5" font-family="Helvetica,sans-Serif" font-size="10.00">marian::ReshapeNodeOp</text>
<text text-anchor="middle" x="332.5" y="-154.5" font-family="Helvetica,sans-Serif" font-size="10.00">::hash</text>
</a>
</g>
</g>
<!-- Node1&#45;&gt;Node10 -->
<g id="edge20" class="edge"><title>Node1&#45;&gt;Node10</title>
<path fill="none" stroke="midnightblue" d="M71.6998,-241.901C85.1609,-236.176 101.229,-229.659 116,-224.5 168.19,-206.271 228.786,-189.188 272.405,-177.59"/>
<polygon fill="midnightblue" stroke="midnightblue" points="70.215,-238.73 62.4147,-245.899 72.9836,-245.159 70.215,-238.73"/>
</g>
<!-- Node11 -->
<g id="node11" class="node"><title>Node11</title>
<g id="a_node11"><a xlink:href="../../d8/d75/classmarian_1_1TimestepNodeOp.html#a43f50885f973fe1e849f1c940eeb2107" target="_top" xlink:title="marian::TimestepNodeOp\l::hash">
<polygon fill="white" stroke="black" points="268.5,-98.5 268.5,-128.5 396.5,-128.5 396.5,-98.5 268.5,-98.5"/>
<text text-anchor="start" x="276.5" y="-116.5" font-family="Helvetica,sans-Serif" font-size="10.00">marian::TimestepNodeOp</text>
<text text-anchor="middle" x="332.5" y="-105.5" font-family="Helvetica,sans-Serif" font-size="10.00">::hash</text>
</a>
</g>
</g>
<!-- Node1&#45;&gt;Node11 -->
<g id="edge21" class="edge"><title>Node1&#45;&gt;Node11</title>
<path fill="none" stroke="midnightblue" d="M56.3276,-238.453C70.5396,-223.523 92.9165,-202.139 116,-188.5 163.748,-160.288 223.722,-140.502 268.269,-128.364"/>
<polygon fill="midnightblue" stroke="midnightblue" points="53.5637,-236.286 49.3194,-245.994 58.6911,-241.052 53.5637,-236.286"/>
</g>
<!-- Node12 -->
<g id="node12" class="node"><title>Node12</title>
<g id="a_node12"><a xlink:href="../../d9/d6c/structmarian_1_1ShiftNodeOp.html#a687a08ebcb58fc58deca832b226fe2dd" target="_top" xlink:title="marian::ShiftNodeOp\l::hash">
<polygon fill="white" stroke="black" points="278.5,-49.5 278.5,-79.5 386.5,-79.5 386.5,-49.5 278.5,-49.5"/>
<text text-anchor="start" x="286.5" y="-67.5" font-family="Helvetica,sans-Serif" font-size="10.00">marian::ShiftNodeOp</text>
<text text-anchor="middle" x="332.5" y="-56.5" font-family="Helvetica,sans-Serif" font-size="10.00">::hash</text>
</a>
</g>
</g>
<!-- Node1&#45;&gt;Node12 -->
<g id="edge22" class="edge"><title>Node1&#45;&gt;Node12</title>
<path fill="none" stroke="midnightblue" d="M48.4919,-236.344C59.5169,-210.548 82.4957,-164.849 116,-138.5 163.729,-100.964 231.7,-81.8369 278.478,-72.5374"/>
<polygon fill="midnightblue" stroke="midnightblue" points="45.1821,-235.191 44.6193,-245.77 51.6569,-237.851 45.1821,-235.191"/>
</g>
<!-- Node13 -->
<g id="node13" class="node"><title>Node13</title>
<g id="a_node13"><a xlink:href="../../df/da9/structmarian_1_1LexicalProbNodeOp.html#af637f59c3fcdf6f2804685818661b1ca" target="_top" xlink:title="marian::LexicalProbNodeOp\l::hash">
<polygon fill="white" stroke="black" points="263,-0.5 263,-30.5 402,-30.5 402,-0.5 263,-0.5"/>
<text text-anchor="start" x="271" y="-18.5" font-family="Helvetica,sans-Serif" font-size="10.00">marian::LexicalProbNodeOp</text>
<text text-anchor="middle" x="332.5" y="-7.5" font-family="Helvetica,sans-Serif" font-size="10.00">::hash</text>
</a>
</g>
</g>
<!-- Node1&#45;&gt;Node13 -->
<g id="edge23" class="edge"><title>Node1&#45;&gt;Node13</title>
<path fill="none" stroke="midnightblue" d="M44.1675,-235.575C50.8819,-199.901 69.8904,-124.983 116,-83.5 156.467,-47.0931 216.373,-30.1753 262.759,-22.3155"/>
<polygon fill="midnightblue" stroke="midnightblue" points="40.6743,-235.233 42.4008,-245.686 47.5698,-236.438 40.6743,-235.233"/>
</g>
<!-- Node2&#45;&gt;Node3 -->
<g id="edge2" class="edge"><title>Node2&#45;&gt;Node3</title>
<path fill="none" stroke="midnightblue" d="M176.367,-302.494C185.633,-343.53 209.648,-425.234 261,-471.5 264.842,-474.962 269.205,-477.928 273.832,-480.468"/>
<polygon fill="midnightblue" stroke="midnightblue" points="179.747,-301.565 174.227,-292.522 172.903,-303.034 179.747,-301.565"/>
</g>
<!-- Node2&#45;&gt;Node4 -->
<g id="edge3" class="edge"><title>Node2&#45;&gt;Node4</title>
<path fill="none" stroke="midnightblue" d="M180.85,-302.39C194.046,-334.306 221.067,-389.357 261,-421.5 265.755,-425.327 271.14,-428.592 276.764,-431.371"/>
<polygon fill="midnightblue" stroke="midnightblue" points="184.017,-300.883 177.053,-292.899 177.518,-303.483 184.017,-300.883"/>
</g>
<!-- Node2&#45;&gt;Node5 -->
<g id="edge4" class="edge"><title>Node2&#45;&gt;Node5</title>
<path fill="none" stroke="midnightblue" d="M185.809,-301.37C201.386,-325.337 228.47,-361.618 261,-382.5 267.745,-386.83 275.44,-390.24 283.209,-392.92"/>
<polygon fill="midnightblue" stroke="midnightblue" points="188.72,-299.424 180.416,-292.845 182.805,-303.167 188.72,-299.424"/>
</g>
<!-- Node2&#45;&gt;Node6 -->
<g id="edge5" class="edge"><title>Node2&#45;&gt;Node6</title>
<path fill="none" stroke="midnightblue" d="M201.198,-298.377C218.187,-309.726 240.199,-323.453 261,-333.5 268.367,-337.058 276.378,-340.379 284.269,-343.364"/>
<polygon fill="midnightblue" stroke="midnightblue" points="203.047,-295.402 192.804,-292.692 199.121,-301.198 203.047,-295.402"/>
</g>
<!-- Node2&#45;&gt;Node7 -->
<g id="edge6" class="edge"><title>Node2&#45;&gt;Node7</title>
<path fill="none" stroke="midnightblue" d="M235.2,-290.24C249.822,-293.164 265.204,-296.241 279.276,-299.055"/>
<polygon fill="midnightblue" stroke="midnightblue" points="235.715,-286.774 225.223,-288.245 234.342,-293.638 235.715,-286.774"/>
</g>
<!-- Node2&#45;&gt;Node8 -->
<g id="edge7" class="edge"><title>Node2&#45;&gt;Node8</title>
<path fill="none" stroke="midnightblue" d="M235.301,-270.721C248.674,-269.3 262.678,-267.812 275.732,-266.425"/>
<polygon fill="midnightblue" stroke="midnightblue" points="234.797,-267.255 225.223,-271.792 235.537,-274.216 234.797,-267.255"/>
</g>
<!-- Node2&#45;&gt;Node9 -->
<g id="edge8" class="edge"><title>Node2&#45;&gt;Node9</title>
<path fill="none" stroke="midnightblue" d="M210.661,-257.975C226.168,-250.547 244.259,-242.253 261,-235.5 268.674,-232.404 276.917,-229.356 284.965,-226.526"/>
<polygon fill="midnightblue" stroke="midnightblue" points="208.853,-254.961 201.375,-262.466 211.901,-261.263 208.853,-254.961"/>
</g>
<!-- Node2&#45;&gt;Node10 -->
<g id="edge9" class="edge"><title>Node2&#45;&gt;Node10</title>
<path fill="none" stroke="midnightblue" d="M188.82,-254.591C205.349,-234.158 231.975,-204.734 261,-186.5 266.365,-183.13 272.258,-180.171 278.282,-177.588"/>
<polygon fill="midnightblue" stroke="midnightblue" points="186.044,-252.459 182.583,-262.472 191.533,-256.803 186.044,-252.459"/>
</g>
<!-- Node2&#45;&gt;Node11 -->
<g id="edge10" class="edge"><title>Node2&#45;&gt;Node11</title>
<path fill="none" stroke="midnightblue" d="M180.973,-253.226C194.302,-222.114 221.468,-168.503 261,-137.5 265.375,-134.069 270.269,-131.114 275.385,-128.571"/>
<polygon fill="midnightblue" stroke="midnightblue" points="177.733,-251.902 177.133,-262.479 184.199,-254.584 177.733,-251.902"/>
</g>
<!-- Node2&#45;&gt;Node12 -->
<g id="edge11" class="edge"><title>Node2&#45;&gt;Node12</title>
<path fill="none" stroke="midnightblue" d="M176.7,-252.547C186.343,-212.366 210.759,-133.311 261,-88.5 266.114,-83.9388 272.132,-80.2375 278.461,-77.2356"/>
<polygon fill="midnightblue" stroke="midnightblue" points="173.279,-251.807 174.461,-262.335 180.103,-253.368 173.279,-251.807"/>
</g>
<!-- Node2&#45;&gt;Node13 -->
<g id="edge12" class="edge"><title>Node2&#45;&gt;Node13</title>
<path fill="none" stroke="midnightblue" d="M173.979,-252.101C180.021,-203.919 199.822,-98.7766 261,-39.5 264.529,-36.0811 268.563,-33.1485 272.875,-30.6329"/>
<polygon fill="midnightblue" stroke="midnightblue" points="170.474,-251.94 172.805,-262.275 177.428,-252.742 170.474,-251.94"/>
</g>
</g>
</svg>
