<?xml version="1.0" encoding="UTF-8" standalone="no"?>
<!DOCTYPE svg PUBLIC "-//W3C//DTD SVG 1.1//EN"
 "http://www.w3.org/Graphics/SVG/1.1/DTD/svg11.dtd">
<!-- Generated by graphviz version 2.38.0 (20140413.2041)
 -->
<!-- Title: marian::ScalarProductNodeOp::backwardOps Pages: 1 -->
<svg width="451pt" height="142pt"
 viewBox="0.00 0.00 451.00 142.00" xmlns="http://www.w3.org/2000/svg" xmlns:xlink="http://www.w3.org/1999/xlink">
<g id="graph0" class="graph" transform="scale(1 1) rotate(0) translate(4 138)">
<title>marian::ScalarProductNodeOp::backwardOps</title>
<polygon fill="white" stroke="none" points="-4,4 -4,-138 447,-138 447,4 -4,4"/>
<!-- Node1 -->
<g id="node1" class="node"><title>Node1</title>
<polygon fill="#bfbfbf" stroke="black" points="0,-52 0,-82 137,-82 137,-52 0,-52"/>
<text text-anchor="start" x="8" y="-70" font-family="Helvetica,sans-Serif" font-size="10.00">marian::ScalarProductNode</text>
<text text-anchor="middle" x="68.5" y="-59" font-family="Helvetica,sans-Serif" font-size="10.00">Op::backwardOps</text>
</g>
<!-- Node2 -->
<g id="node2" class="node"><title>Node2</title>
<g id="a_node2"><a xlink:href="../../da/d22/namespacemarian.html#a0ee0e667d3fcfdc776e4dddaffeea6e2" target="_top" xlink:title="marian::Add">
<polygon fill="white" stroke="black" points="189,-114.5 189,-133.5 258,-133.5 258,-114.5 189,-114.5"/>
<text text-anchor="middle" x="223.5" y="-121.5" font-family="Helvetica,sans-Serif" font-size="10.00">marian::Add</text>
</a>
</g>
</g>
<!-- Node1&#45;&gt;Node2 -->
<g id="edge1" class="edge"><title>Node1&#45;&gt;Node2</title>
<path fill="none" stroke="midnightblue" d="M110.1,-82.1253C134.113,-91.0715 164.23,-102.292 187.244,-110.865"/>
<polygon fill="midnightblue" stroke="midnightblue" points="186.041,-114.152 196.634,-114.363 188.485,-107.593 186.041,-114.152"/>
</g>
<!-- Node3 -->
<g id="node3" class="node"><title>Node3</title>
<g id="a_node3"><a xlink:href="../../d0/d7a/classmarian_1_1Node.html#a71a9c8ad6ba12d421fa97222d74a90b9" target="_top" xlink:title="marian::Node::child">
<polygon fill="white" stroke="black" points="173,-76.5 173,-95.5 274,-95.5 274,-76.5 173,-76.5"/>
<text text-anchor="middle" x="223.5" y="-83.5" font-family="Helvetica,sans-Serif" font-size="10.00">marian::Node::child</text>
</a>
</g>
</g>
<!-- Node1&#45;&gt;Node3 -->
<g id="edge2" class="edge"><title>Node1&#45;&gt;Node3</title>
<path fill="none" stroke="midnightblue" d="M137.053,-75.389C145.59,-76.4491 154.278,-77.5279 162.683,-78.5717"/>
<polygon fill="midnightblue" stroke="midnightblue" points="162.411,-82.0647 172.766,-79.8239 163.273,-75.1181 162.411,-82.0647"/>
</g>
<!-- Node5 -->
<g id="node5" class="node"><title>Node5</title>
<g id="a_node5"><a xlink:href="../../d0/d7a/classmarian_1_1Node.html#a0497d2c3515385212b1086f8b8502826" target="_top" xlink:title="marian::Node::grad">
<polygon fill="white" stroke="black" points="173.5,-38.5 173.5,-57.5 273.5,-57.5 273.5,-38.5 173.5,-38.5"/>
<text text-anchor="middle" x="223.5" y="-45.5" font-family="Helvetica,sans-Serif" font-size="10.00">marian::Node::grad</text>
</a>
</g>
</g>
<!-- Node1&#45;&gt;Node5 -->
<g id="edge4" class="edge"><title>Node1&#45;&gt;Node5</title>
<path fill="none" stroke="midnightblue" d="M137.053,-58.611C145.704,-57.5368 154.509,-56.4433 163.019,-55.3866"/>
<polygon fill="midnightblue" stroke="midnightblue" points="163.729,-58.8253 173.221,-54.1196 162.866,-51.8787 163.729,-58.8253"/>
</g>
<!-- Node6 -->
<g id="node6" class="node"><title>Node6</title>
<g id="a_node6"><a xlink:href="../../d0/d7a/classmarian_1_1Node.html#a0df86f2ff4a169111d6ba0865e6fd935" target="_top" xlink:title="marian::Node::val">
<polygon fill="white" stroke="black" points="176.5,-0.5 176.5,-19.5 270.5,-19.5 270.5,-0.5 176.5,-0.5"/>
<text text-anchor="middle" x="223.5" y="-7.5" font-family="Helvetica,sans-Serif" font-size="10.00">marian::Node::val</text>
</a>
</g>
</g>
<!-- Node1&#45;&gt;Node6 -->
<g id="edge5" class="edge"><title>Node1&#45;&gt;Node6</title>
<path fill="none" stroke="midnightblue" d="M110.1,-51.8747C134.113,-42.9285 164.23,-31.7083 187.244,-23.1346"/>
<polygon fill="midnightblue" stroke="midnightblue" points="188.485,-26.4075 196.634,-19.6365 186.041,-19.8479 188.485,-26.4075"/>
</g>
<!-- Node4 -->
<g id="node4" class="node"><title>Node4</title>
<g id="a_node4"><a xlink:href="../../d0/d7a/classmarian_1_1Node.html#a4aa5aa482c70595fa5d43c1fbabf5c18" target="_top" xlink:title="marian::Node::getBackend">
<polygon fill="white" stroke="black" points="310,-76.5 310,-95.5 443,-95.5 443,-76.5 310,-76.5"/>
<text text-anchor="middle" x="376.5" y="-83.5" font-family="Helvetica,sans-Serif" font-size="10.00">marian::Node::getBackend</text>
</a>
</g>
</g>
<!-- Node3&#45;&gt;Node4 -->
<g id="edge3" class="edge"><title>Node3&#45;&gt;Node4</title>
<path fill="none" stroke="midnightblue" d="M274.362,-86C282.512,-86 291.114,-86 299.721,-86"/>
<polygon fill="midnightblue" stroke="midnightblue" points="299.801,-89.5001 309.801,-86 299.801,-82.5001 299.801,-89.5001"/>
</g>
</g>
</svg>
