<?xml version="1.0" encoding="UTF-8" standalone="no"?>
<!DOCTYPE svg PUBLIC "-//W3C//DTD SVG 1.1//EN"
 "http://www.w3.org/Graphics/SVG/1.1/DTD/svg11.dtd">
<!-- Generated by graphviz version 2.38.0 (20140413.2041)
 -->
<!-- Title: marian::TransposeNodeOp Pages: 1 -->
<svg width="832pt" height="1012pt"
 viewBox="0.00 0.00 832.00 1012.00" xmlns="http://www.w3.org/2000/svg" xmlns:xlink="http://www.w3.org/1999/xlink">
<g id="graph0" class="graph" transform="scale(1 1) rotate(0) translate(4 1008)">
<title>marian::TransposeNodeOp</title>
<polygon fill="white" stroke="none" points="-4,4 -4,-1008 828,-1008 828,4 -4,4"/>
<!-- Node1 -->
<g id="node1" class="node"><title>Node1</title>
<polygon fill="#bfbfbf" stroke="black" points="359.5,-0.5 359.5,-112.5 493.5,-112.5 493.5,-0.5 359.5,-0.5"/>
<text text-anchor="middle" x="426.5" y="-100.5" font-family="Helvetica,sans-Serif" font-size="10.00">marian::TransposeNodeOp</text>
<polyline fill="none" stroke="black" points="359.5,-93.5 493.5,-93.5 "/>
<text text-anchor="middle" x="426.5" y="-81.5" font-family="Helvetica,sans-Serif" font-size="10.00"> </text>
<polyline fill="none" stroke="black" points="359.5,-74.5 493.5,-74.5 "/>
<text text-anchor="start" x="367.5" y="-62.5" font-family="Helvetica,sans-Serif" font-size="10.00">+ TransposeNodeOp()</text>
<text text-anchor="start" x="367.5" y="-51.5" font-family="Helvetica,sans-Serif" font-size="10.00">+ forwardOps()</text>
<text text-anchor="start" x="367.5" y="-40.5" font-family="Helvetica,sans-Serif" font-size="10.00">+ backwardOps()</text>
<text text-anchor="start" x="367.5" y="-29.5" font-family="Helvetica,sans-Serif" font-size="10.00">+ newShape()</text>
<text text-anchor="start" x="367.5" y="-18.5" font-family="Helvetica,sans-Serif" font-size="10.00">+ type()</text>
<text text-anchor="start" x="367.5" y="-7.5" font-family="Helvetica,sans-Serif" font-size="10.00">+ color()</text>
</g>
<!-- Node2 -->
<g id="node2" class="node"><title>Node2</title>
<g id="a_node2"><a xlink:href="../../d9/dd2/structmarian_1_1UnaryNodeOp.html" target="_top" xlink:title="{marian::UnaryNodeOp\n||+ UnaryNodeOp()\l+ color()\l}">
<polygon fill="white" stroke="black" points="369.5,-150.5 369.5,-218.5 483.5,-218.5 483.5,-150.5 369.5,-150.5"/>
<text text-anchor="middle" x="426.5" y="-206.5" font-family="Helvetica,sans-Serif" font-size="10.00">marian::UnaryNodeOp</text>
<polyline fill="none" stroke="black" points="369.5,-199.5 483.5,-199.5 "/>
<text text-anchor="middle" x="426.5" y="-187.5" font-family="Helvetica,sans-Serif" font-size="10.00"> </text>
<polyline fill="none" stroke="black" points="369.5,-180.5 483.5,-180.5 "/>
<text text-anchor="start" x="377.5" y="-168.5" font-family="Helvetica,sans-Serif" font-size="10.00">+ UnaryNodeOp()</text>
<text text-anchor="start" x="377.5" y="-157.5" font-family="Helvetica,sans-Serif" font-size="10.00">+ color()</text>
</a>
</g>
</g>
<!-- Node2&#45;&gt;Node1 -->
<g id="edge1" class="edge"><title>Node2&#45;&gt;Node1</title>
<path fill="none" stroke="midnightblue" d="M426.5,-140.311C426.5,-131.452 426.5,-122.011 426.5,-112.794"/>
<polygon fill="none" stroke="midnightblue" points="423,-140.395 426.5,-150.395 430,-140.395 423,-140.395"/>
</g>
<!-- Node3 -->
<g id="node3" class="node"><title>Node3</title>
<g id="a_node3"><a xlink:href="../../d0/da7/structmarian_1_1NaryNodeOp.html" target="_top" xlink:title="{marian::NaryNodeOp\n|+ hash_\l|+ NaryNodeOp()\l+ ~NaryNodeOp()\l+ children()\l+ hash()\l+ remove_children_from\l_top_nodes()\l}">
<polygon fill="white" stroke="black" points="365.5,-256.5 365.5,-368.5 487.5,-368.5 487.5,-256.5 365.5,-256.5"/>
<text text-anchor="middle" x="426.5" y="-356.5" font-family="Helvetica,sans-Serif" font-size="10.00">marian::NaryNodeOp</text>
<polyline fill="none" stroke="black" points="365.5,-349.5 487.5,-349.5 "/>
<text text-anchor="start" x="373.5" y="-337.5" font-family="Helvetica,sans-Serif" font-size="10.00">+ hash_</text>
<polyline fill="none" stroke="black" points="365.5,-330.5 487.5,-330.5 "/>
<text text-anchor="start" x="373.5" y="-318.5" font-family="Helvetica,sans-Serif" font-size="10.00">+ NaryNodeOp()</text>
<text text-anchor="start" x="373.5" y="-307.5" font-family="Helvetica,sans-Serif" font-size="10.00">+ ~NaryNodeOp()</text>
<text text-anchor="start" x="373.5" y="-296.5" font-family="Helvetica,sans-Serif" font-size="10.00">+ children()</text>
<text text-anchor="start" x="373.5" y="-285.5" font-family="Helvetica,sans-Serif" font-size="10.00">+ hash()</text>
<text text-anchor="start" x="373.5" y="-274.5" font-family="Helvetica,sans-Serif" font-size="10.00">+ remove_children_from</text>
<text text-anchor="start" x="373.5" y="-263.5" font-family="Helvetica,sans-Serif" font-size="10.00">_top_nodes()</text>
</a>
</g>
</g>
<!-- Node3&#45;&gt;Node2 -->
<g id="edge2" class="edge"><title>Node3&#45;&gt;Node2</title>
<path fill="none" stroke="midnightblue" d="M426.5,-245.961C426.5,-236.484 426.5,-227.083 426.5,-218.619"/>
<polygon fill="none" stroke="midnightblue" points="423,-246.235 426.5,-256.235 430,-246.235 423,-246.235"/>
</g>
<!-- Node4 -->
<g id="node4" class="node"><title>Node4</title>
<g id="a_node4"><a xlink:href="../../d0/d7a/classmarian_1_1Node.html" target="_top" xlink:title="{marian::Node\n|# id_\l# edges_\l# trainable_\l# destroy_\l# val_\l# adj_\l# markedForDebug_\l|+ Node()\l+ ~Node()\l+ scalar()\l+ forwardOps()\l+ backwardOps()\l+ runForward()\l+ runBackward()\l+ forward()\l+ backward()\l+ trainable()\land 27 more...\l}">
<polygon fill="white" stroke="black" points="374,-406.5 374,-639.5 479,-639.5 479,-406.5 374,-406.5"/>
<text text-anchor="middle" x="426.5" y="-627.5" font-family="Helvetica,sans-Serif" font-size="10.00">marian::Node</text>
<polyline fill="none" stroke="black" points="374,-620.5 479,-620.5 "/>
<text text-anchor="start" x="382" y="-608.5" font-family="Helvetica,sans-Serif" font-size="10.00"># id_</text>
<text text-anchor="start" x="382" y="-597.5" font-family="Helvetica,sans-Serif" font-size="10.00"># edges_</text>
<text text-anchor="start" x="382" y="-586.5" font-family="Helvetica,sans-Serif" font-size="10.00"># trainable_</text>
<text text-anchor="start" x="382" y="-575.5" font-family="Helvetica,sans-Serif" font-size="10.00"># destroy_</text>
<text text-anchor="start" x="382" y="-564.5" font-family="Helvetica,sans-Serif" font-size="10.00"># val_</text>
<text text-anchor="start" x="382" y="-553.5" font-family="Helvetica,sans-Serif" font-size="10.00"># adj_</text>
<text text-anchor="start" x="382" y="-542.5" font-family="Helvetica,sans-Serif" font-size="10.00"># markedForDebug_</text>
<polyline fill="none" stroke="black" points="374,-535.5 479,-535.5 "/>
<text text-anchor="start" x="382" y="-523.5" font-family="Helvetica,sans-Serif" font-size="10.00">+ Node()</text>
<text text-anchor="start" x="382" y="-512.5" font-family="Helvetica,sans-Serif" font-size="10.00">+ ~Node()</text>
<text text-anchor="start" x="382" y="-501.5" font-family="Helvetica,sans-Serif" font-size="10.00">+ scalar()</text>
<text text-anchor="start" x="382" y="-490.5" font-family="Helvetica,sans-Serif" font-size="10.00">+ forwardOps()</text>
<text text-anchor="start" x="382" y="-479.5" font-family="Helvetica,sans-Serif" font-size="10.00">+ backwardOps()</text>
<text text-anchor="start" x="382" y="-468.5" font-family="Helvetica,sans-Serif" font-size="10.00">+ runForward()</text>
<text text-anchor="start" x="382" y="-457.5" font-family="Helvetica,sans-Serif" font-size="10.00">+ runBackward()</text>
<text text-anchor="start" x="382" y="-446.5" font-family="Helvetica,sans-Serif" font-size="10.00">+ forward()</text>
<text text-anchor="start" x="382" y="-435.5" font-family="Helvetica,sans-Serif" font-size="10.00">+ backward()</text>
<text text-anchor="start" x="382" y="-424.5" font-family="Helvetica,sans-Serif" font-size="10.00">+ trainable()</text>
<text text-anchor="start" x="382" y="-413.5" font-family="Helvetica,sans-Serif" font-size="10.00">and 27 more...</text>
</a>
</g>
</g>
<!-- Node4&#45;&gt;Node3 -->
<g id="edge3" class="edge"><title>Node4&#45;&gt;Node3</title>
<path fill="none" stroke="midnightblue" d="M426.5,-396.358C426.5,-386.73 426.5,-377.357 426.5,-368.586"/>
<polygon fill="none" stroke="midnightblue" points="423,-396.469 426.5,-406.469 430,-396.469 423,-396.469"/>
</g>
<!-- Node5 -->
<g id="node5" class="node"><title>Node5</title>
<g id="a_node5"><a xlink:href="../../de/dff/classmarian_1_1Chainable.html" target="_top" xlink:title="{marian::Chainable\&lt;\l Tensor \&gt;\n||+ Chainable()\l+ ~Chainable()\l+ forward()\l+ backward()\l+ forwardOps()\l+ backwardOps()\l+ allocate()\l+ free()\l+ init()\l+ init_dependent()\land 23 more...\l}">
<polygon fill="white" stroke="black" points="0,-704 0,-882 101,-882 101,-704 0,-704"/>
<text text-anchor="start" x="8" y="-870" font-family="Helvetica,sans-Serif" font-size="10.00">marian::Chainable&lt;</text>
<text text-anchor="middle" x="50.5" y="-859" font-family="Helvetica,sans-Serif" font-size="10.00"> Tensor &gt;</text>
<polyline fill="none" stroke="black" points="0,-852 101,-852 "/>
<text text-anchor="middle" x="50.5" y="-840" font-family="Helvetica,sans-Serif" font-size="10.00"> </text>
<polyline fill="none" stroke="black" points="0,-833 101,-833 "/>
<text text-anchor="start" x="8" y="-821" font-family="Helvetica,sans-Serif" font-size="10.00">+ Chainable()</text>
<text text-anchor="start" x="8" y="-810" font-family="Helvetica,sans-Serif" font-size="10.00">+ ~Chainable()</text>
<text text-anchor="start" x="8" y="-799" font-family="Helvetica,sans-Serif" font-size="10.00">+ forward()</text>
<text text-anchor="start" x="8" y="-788" font-family="Helvetica,sans-Serif" font-size="10.00">+ backward()</text>
<text text-anchor="start" x="8" y="-777" font-family="Helvetica,sans-Serif" font-size="10.00">+ forwardOps()</text>
<text text-anchor="start" x="8" y="-766" font-family="Helvetica,sans-Serif" font-size="10.00">+ backwardOps()</text>
<text text-anchor="start" x="8" y="-755" font-family="Helvetica,sans-Serif" font-size="10.00">+ allocate()</text>
<text text-anchor="start" x="8" y="-744" font-family="Helvetica,sans-Serif" font-size="10.00">+ free()</text>
<text text-anchor="start" x="8" y="-733" font-family="Helvetica,sans-Serif" font-size="10.00">+ init()</text>
<text text-anchor="start" x="8" y="-722" font-family="Helvetica,sans-Serif" font-size="10.00">+ init_dependent()</text>
<text text-anchor="start" x="8" y="-711" font-family="Helvetica,sans-Serif" font-size="10.00">and 23 more...</text>
</a>
</g>
</g>
<!-- Node5&#45;&gt;Node4 -->
<g id="edge4" class="edge"><title>Node5&#45;&gt;Node4</title>
<path fill="none" stroke="midnightblue" d="M108.452,-698.999C108.8,-698.664 109.15,-698.33 109.5,-698 188.855,-623.158 306.517,-569.755 373.933,-543.166"/>
<polygon fill="none" stroke="midnightblue" points="105.76,-696.749 101.328,-706.373 110.794,-701.613 105.76,-696.749"/>
</g>
<!-- Node6 -->
<g id="node6" class="node"><title>Node6</title>
<g id="a_node6"><a xlink:href="../../d4/d9b/classmarian_1_1keywords_1_1Keywords.html" target="_top" xlink:title="{marian::keywords::Keywords\n||+ Keywords()\l+ Has()\l+ Get()\l&#45; add()\l&#45; add()\l&#45; add()\l}">
<polygon fill="white" stroke="black" points="119,-737 119,-849 262,-849 262,-737 119,-737"/>
<text text-anchor="middle" x="190.5" y="-837" font-family="Helvetica,sans-Serif" font-size="10.00">marian::keywords::Keywords</text>
<polyline fill="none" stroke="black" points="119,-830 262,-830 "/>
<text text-anchor="middle" x="190.5" y="-818" font-family="Helvetica,sans-Serif" font-size="10.00"> </text>
<polyline fill="none" stroke="black" points="119,-811 262,-811 "/>
<text text-anchor="start" x="127" y="-799" font-family="Helvetica,sans-Serif" font-size="10.00">+ Keywords()</text>
<text text-anchor="start" x="127" y="-788" font-family="Helvetica,sans-Serif" font-size="10.00">+ Has()</text>
<text text-anchor="start" x="127" y="-777" font-family="Helvetica,sans-Serif" font-size="10.00">+ Get()</text>
<text text-anchor="start" x="127" y="-766" font-family="Helvetica,sans-Serif" font-size="10.00">&#45; add()</text>
<text text-anchor="start" x="127" y="-755" font-family="Helvetica,sans-Serif" font-size="10.00">&#45; add()</text>
<text text-anchor="start" x="127" y="-744" font-family="Helvetica,sans-Serif" font-size="10.00">&#45; add()</text>
</a>
</g>
</g>
<!-- Node6&#45;&gt;Node4 -->
<g id="edge5" class="edge"><title>Node6&#45;&gt;Node4</title>
<path fill="none" stroke="midnightblue" d="M244.664,-728.854C253.601,-718.519 262.789,-707.942 271.5,-698 305.358,-659.355 343.77,-616.231 373.884,-582.581"/>
<polygon fill="none" stroke="midnightblue" points="241.779,-726.84 237.891,-736.696 247.076,-731.416 241.779,-726.84"/>
</g>
<!-- Node7 -->
<g id="node7" class="node"><title>Node7</title>
<polygon fill="white" stroke="#bfbfbf" points="137.5,-935.5 137.5,-1003.5 243.5,-1003.5 243.5,-935.5 137.5,-935.5"/>
<text text-anchor="start" x="145.5" y="-991.5" font-family="Helvetica,sans-Serif" font-size="10.00">std::map&lt; unsigned,</text>
<text text-anchor="middle" x="190.5" y="-980.5" font-family="Helvetica,sans-Serif" font-size="10.00"> boost::any &gt;</text>
<polyline fill="none" stroke="#bfbfbf" points="137.5,-973.5 243.5,-973.5 "/>
<text text-anchor="middle" x="190.5" y="-961.5" font-family="Helvetica,sans-Serif" font-size="10.00"> </text>
<polyline fill="none" stroke="#bfbfbf" points="137.5,-954.5 243.5,-954.5 "/>
<text text-anchor="middle" x="190.5" y="-942.5" font-family="Helvetica,sans-Serif" font-size="10.00"> </text>
</g>
<!-- Node7&#45;&gt;Node6 -->
<g id="edge6" class="edge"><title>Node7&#45;&gt;Node6</title>
<path fill="none" stroke="#404040" d="M190.5,-935.267C190.5,-914.362 190.5,-886.636 190.5,-861.286"/>
<polygon fill="none" stroke="#404040" points="190.5,-861.073 186.5,-855.073 190.5,-849.073 194.5,-855.072 190.5,-861.073"/>
<text text-anchor="middle" x="212.5" y="-909" font-family="Helvetica,sans-Serif" font-size="10.00"> &#45;storage_</text>
</g>
<!-- Node8 -->
<g id="node8" class="node"><title>Node8</title>
<polygon fill="white" stroke="#bfbfbf" points="280.5,-759 280.5,-827 384.5,-827 384.5,-759 280.5,-759"/>
<text text-anchor="start" x="288.5" y="-815" font-family="Helvetica,sans-Serif" font-size="10.00">std::enable_shared</text>
<text text-anchor="middle" x="332.5" y="-804" font-family="Helvetica,sans-Serif" font-size="10.00">_from_this&lt; Node &gt;</text>
<polyline fill="none" stroke="#bfbfbf" points="280.5,-797 384.5,-797 "/>
<text text-anchor="middle" x="332.5" y="-785" font-family="Helvetica,sans-Serif" font-size="10.00"> </text>
<polyline fill="none" stroke="#bfbfbf" points="280.5,-778 384.5,-778 "/>
<text text-anchor="middle" x="332.5" y="-766" font-family="Helvetica,sans-Serif" font-size="10.00"> </text>
</g>
<!-- Node8&#45;&gt;Node4 -->
<g id="edge7" class="edge"><title>Node8&#45;&gt;Node4</title>
<path fill="none" stroke="midnightblue" d="M347.49,-749.263C357.896,-719.593 372.292,-678.55 385.948,-639.617"/>
<polygon fill="none" stroke="midnightblue" points="344.128,-748.274 344.121,-758.869 350.733,-750.591 344.128,-748.274"/>
</g>
<!-- Node9 -->
<g id="node9" class="node"><title>Node9</title>
<g id="a_node9"><a xlink:title="STL class. ">
<polygon fill="white" stroke="#bfbfbf" points="402.5,-764.5 402.5,-821.5 462.5,-821.5 462.5,-764.5 402.5,-764.5"/>
<text text-anchor="middle" x="432.5" y="-809.5" font-family="Helvetica,sans-Serif" font-size="10.00">std::string</text>
<polyline fill="none" stroke="#bfbfbf" points="402.5,-802.5 462.5,-802.5 "/>
<text text-anchor="middle" x="432.5" y="-790.5" font-family="Helvetica,sans-Serif" font-size="10.00"> </text>
<polyline fill="none" stroke="#bfbfbf" points="402.5,-783.5 462.5,-783.5 "/>
<text text-anchor="middle" x="432.5" y="-771.5" font-family="Helvetica,sans-Serif" font-size="10.00"> </text>
</a>
</g>
</g>
<!-- Node9&#45;&gt;Node4 -->
<g id="edge8" class="edge"><title>Node9&#45;&gt;Node4</title>
<path fill="none" stroke="#404040" d="M430.974,-764.394C429.791,-741.731 428.235,-708.797 427.5,-680 427.267,-670.862 427.078,-661.422 426.925,-651.919"/>
<polygon fill="none" stroke="#404040" points="426.925,-651.864 422.838,-645.922 426.751,-639.865 430.837,-645.807 426.925,-651.864"/>
<text text-anchor="middle" x="466" y="-672" font-family="Helvetica,sans-Serif" font-size="10.00"> #name_</text>
<text text-anchor="middle" x="466" y="-661" font-family="Helvetica,sans-Serif" font-size="10.00">#debugMessage_</text>
</g>
<!-- Node10 -->
<g id="node10" class="node"><title>Node10</title>
<polygon fill="white" stroke="#bfbfbf" points="385,-935.5 385,-1003.5 480,-1003.5 480,-935.5 385,-935.5"/>
<text text-anchor="start" x="393" y="-991.5" font-family="Helvetica,sans-Serif" font-size="10.00">std::basic_string&lt;</text>
<text text-anchor="middle" x="432.5" y="-980.5" font-family="Helvetica,sans-Serif" font-size="10.00"> char &gt;</text>
<polyline fill="none" stroke="#bfbfbf" points="385,-973.5 480,-973.5 "/>
<text text-anchor="middle" x="432.5" y="-961.5" font-family="Helvetica,sans-Serif" font-size="10.00"> </text>
<polyline fill="none" stroke="#bfbfbf" points="385,-954.5 480,-954.5 "/>
<text text-anchor="middle" x="432.5" y="-942.5" font-family="Helvetica,sans-Serif" font-size="10.00"> </text>
</g>
<!-- Node10&#45;&gt;Node9 -->
<g id="edge9" class="edge"><title>Node10&#45;&gt;Node9</title>
<path fill="none" stroke="midnightblue" d="M432.5,-925.169C432.5,-892.783 432.5,-849.474 432.5,-821.652"/>
<polygon fill="none" stroke="midnightblue" points="429,-925.267 432.5,-935.267 436,-925.267 429,-925.267"/>
</g>
<!-- Node11 -->
<g id="node11" class="node"><title>Node11</title>
<g id="a_node11"><a xlink:href="../../d5/d54/structmarian_1_1Shape.html" target="_top" xlink:title="{marian::Shape\n|+ shape_\l+ stride_\l+ bstride_\l|+ Shape()\l+ Shape()\l+ updateStrides()\l+ Shape()\l+ set()\l+ dim()\l+ dim()\l+ operator[]()\l+ operator[]()\l+ stride()\land 12 more...\l}">
<polygon fill="white" stroke="black" points="480.5,-698.5 480.5,-887.5 572.5,-887.5 572.5,-698.5 480.5,-698.5"/>
<text text-anchor="middle" x="526.5" y="-875.5" font-family="Helvetica,sans-Serif" font-size="10.00">marian::Shape</text>
<polyline fill="none" stroke="black" points="480.5,-868.5 572.5,-868.5 "/>
<text text-anchor="start" x="488.5" y="-856.5" font-family="Helvetica,sans-Serif" font-size="10.00">+ shape_</text>
<text text-anchor="start" x="488.5" y="-845.5" font-family="Helvetica,sans-Serif" font-size="10.00">+ stride_</text>
<text text-anchor="start" x="488.5" y="-834.5" font-family="Helvetica,sans-Serif" font-size="10.00">+ bstride_</text>
<polyline fill="none" stroke="black" points="480.5,-827.5 572.5,-827.5 "/>
<text text-anchor="start" x="488.5" y="-815.5" font-family="Helvetica,sans-Serif" font-size="10.00">+ Shape()</text>
<text text-anchor="start" x="488.5" y="-804.5" font-family="Helvetica,sans-Serif" font-size="10.00">+ Shape()</text>
<text text-anchor="start" x="488.5" y="-793.5" font-family="Helvetica,sans-Serif" font-size="10.00">+ updateStrides()</text>
<text text-anchor="start" x="488.5" y="-782.5" font-family="Helvetica,sans-Serif" font-size="10.00">+ Shape()</text>
<text text-anchor="start" x="488.5" y="-771.5" font-family="Helvetica,sans-Serif" font-size="10.00">+ set()</text>
<text text-anchor="start" x="488.5" y="-760.5" font-family="Helvetica,sans-Serif" font-size="10.00">+ dim()</text>
<text text-anchor="start" x="488.5" y="-749.5" font-family="Helvetica,sans-Serif" font-size="10.00">+ dim()</text>
<text text-anchor="start" x="488.5" y="-738.5" font-family="Helvetica,sans-Serif" font-size="10.00">+ operator[]()</text>
<text text-anchor="start" x="488.5" y="-727.5" font-family="Helvetica,sans-Serif" font-size="10.00">+ operator[]()</text>
<text text-anchor="start" x="488.5" y="-716.5" font-family="Helvetica,sans-Serif" font-size="10.00">+ stride()</text>
<text text-anchor="start" x="488.5" y="-705.5" font-family="Helvetica,sans-Serif" font-size="10.00">and 12 more...</text>
</a>
</g>
</g>
<!-- Node11&#45;&gt;Node4 -->
<g id="edge10" class="edge"><title>Node11&#45;&gt;Node4</title>
<path fill="none" stroke="#404040" d="M515.599,-698.254C512.718,-684.544 509.084,-670.757 504.5,-658 499.241,-643.365 492.384,-628.51 484.917,-614.281"/>
<polygon fill="none" stroke="#404040" points="484.814,-614.091 478.441,-610.716 479.104,-603.536 485.477,-606.91 484.814,-614.091"/>
<text text-anchor="middle" x="531.5" y="-666.5" font-family="Helvetica,sans-Serif" font-size="10.00"> #shape_</text>
</g>
<!-- Node12 -->
<g id="node12" class="node"><title>Node12</title>
<polygon fill="white" stroke="#bfbfbf" points="590.5,-759 590.5,-827 704.5,-827 704.5,-759 590.5,-759"/>
<text text-anchor="start" x="598.5" y="-815" font-family="Helvetica,sans-Serif" font-size="10.00">std::weak_ptr&lt; marian</text>
<text text-anchor="middle" x="647.5" y="-804" font-family="Helvetica,sans-Serif" font-size="10.00">::ExpressionGraph &gt;</text>
<polyline fill="none" stroke="#bfbfbf" points="590.5,-797 704.5,-797 "/>
<text text-anchor="middle" x="647.5" y="-785" font-family="Helvetica,sans-Serif" font-size="10.00"> </text>
<polyline fill="none" stroke="#bfbfbf" points="590.5,-778 704.5,-778 "/>
<text text-anchor="middle" x="647.5" y="-766" font-family="Helvetica,sans-Serif" font-size="10.00"> </text>
</g>
<!-- Node12&#45;&gt;Node4 -->
<g id="edge11" class="edge"><title>Node12&#45;&gt;Node4</title>
<path fill="none" stroke="#404040" d="M627,-758.977C609.237,-731.173 582.248,-690.806 555.5,-658 534.693,-632.481 509.996,-606.032 487.809,-583.442"/>
<polygon fill="none" stroke="#404040" points="487.561,-583.192 480.497,-581.74 479.121,-574.662 486.184,-576.114 487.561,-583.192"/>
<text text-anchor="middle" x="591.5" y="-666.5" font-family="Helvetica,sans-Serif" font-size="10.00"> #graph_</text>
</g>
<!-- Node13 -->
<g id="node13" class="node"><title>Node13</title>
<polygon fill="white" stroke="#bfbfbf" points="723,-764.5 723,-821.5 824,-821.5 824,-764.5 723,-764.5"/>
<text text-anchor="middle" x="773.5" y="-809.5" font-family="Helvetica,sans-Serif" font-size="10.00">std::vector&lt; Expr &gt;</text>
<polyline fill="none" stroke="#bfbfbf" points="723,-802.5 824,-802.5 "/>
<text text-anchor="middle" x="773.5" y="-790.5" font-family="Helvetica,sans-Serif" font-size="10.00"> </text>
<polyline fill="none" stroke="#bfbfbf" points="723,-783.5 824,-783.5 "/>
<text text-anchor="middle" x="773.5" y="-771.5" font-family="Helvetica,sans-Serif" font-size="10.00"> </text>
</g>
<!-- Node13&#45;&gt;Node4 -->
<g id="edge12" class="edge"><title>Node13&#45;&gt;Node4</title>
<path fill="none" stroke="#404040" d="M760.1,-764.111C749.473,-744.034 733.163,-717.214 713.5,-698 647.196,-633.21 552.456,-581.746 490.234,-552.069"/>
<polygon fill="none" stroke="#404040" points="489.864,-551.895 482.732,-552.958 479.008,-546.783 486.14,-545.72 489.864,-551.895"/>
<text text-anchor="middle" x="718.5" y="-666.5" font-family="Helvetica,sans-Serif" font-size="10.00"> #children_</text>
</g>
</g>
</svg>
