<?xml version="1.0" encoding="UTF-8" standalone="no"?>
<!DOCTYPE svg PUBLIC "-//W3C//DTD SVG 1.1//EN"
 "http://www.w3.org/Graphics/SVG/1.1/DTD/svg11.dtd">
<!-- Generated by graphviz version 2.38.0 (20140413.2041)
 -->
<!-- Title: amunmt::GPU::mblas::Array::size Pages: 1 -->
<svg width="312pt" height="88pt"
 viewBox="0.00 0.00 312.00 88.00" xmlns="http://www.w3.org/2000/svg" xmlns:xlink="http://www.w3.org/1999/xlink">
<g id="graph0" class="graph" transform="scale(1 1) rotate(0) translate(4 84)">
<title>amunmt::GPU::mblas::Array::size</title>
<polygon fill="white" stroke="none" points="-4,4 -4,-84 308,-84 308,4 -4,4"/>
<!-- Node1 -->
<g id="node1" class="node"><title>Node1</title>
<polygon fill="#bfbfbf" stroke="black" points="0,-24.5 0,-54.5 112,-54.5 112,-24.5 0,-24.5"/>
<text text-anchor="start" x="8" y="-42.5" font-family="Helvetica,sans-Serif" font-size="10.00">amunmt::GPU::mblas</text>
<text text-anchor="middle" x="56" y="-31.5" font-family="Helvetica,sans-Serif" font-size="10.00">::Array::size</text>
</g>
<!-- Node2 -->
<g id="node2" class="node"><title>Node2</title>
<g id="a_node2"><a xlink:href="../../d1/d49/namespaceamunmt_1_1GPU_1_1mblas.html#aabb52352b84ff8df12e584cc48f0c150" target="_top" xlink:title="amunmt::GPU::mblas\l::Debug">
<polygon fill="white" stroke="black" points="170,-49.5 170,-79.5 282,-79.5 282,-49.5 170,-49.5"/>
<text text-anchor="start" x="178" y="-67.5" font-family="Helvetica,sans-Serif" font-size="10.00">amunmt::GPU::mblas</text>
<text text-anchor="middle" x="226" y="-56.5" font-family="Helvetica,sans-Serif" font-size="10.00">::Debug</text>
</a>
</g>
</g>
<!-- Node1&#45;&gt;Node2 -->
<g id="edge1" class="edge"><title>Node1&#45;&gt;Node2</title>
<path fill="none" stroke="midnightblue" d="M122.201,-49.2025C137.951,-51.5462 154.63,-54.0283 169.867,-56.2957"/>
<polygon fill="midnightblue" stroke="midnightblue" points="122.416,-45.696 112.009,-47.6859 121.385,-52.6198 122.416,-45.696"/>
</g>
<!-- Node3 -->
<g id="node3" class="node"><title>Node3</title>
<g id="a_node3"><a xlink:href="../../d7/d34/classamunmt_1_1GPU_1_1mblas_1_1MatrixWrapper.html#aadf70ef14c89755a661690225179e482" target="_top" xlink:title="amunmt::GPU::mblas\l::MatrixWrapper::MatrixWrapper">
<polygon fill="white" stroke="black" points="148,-0.5 148,-30.5 304,-30.5 304,-0.5 148,-0.5"/>
<text text-anchor="start" x="156" y="-18.5" font-family="Helvetica,sans-Serif" font-size="10.00">amunmt::GPU::mblas</text>
<text text-anchor="middle" x="226" y="-7.5" font-family="Helvetica,sans-Serif" font-size="10.00">::MatrixWrapper::MatrixWrapper</text>
</a>
</g>
</g>
<!-- Node1&#45;&gt;Node3 -->
<g id="edge2" class="edge"><title>Node1&#45;&gt;Node3</title>
<path fill="none" stroke="midnightblue" d="M122.15,-30.1929C130.592,-28.9869 139.302,-27.7426 147.914,-26.5122"/>
<polygon fill="midnightblue" stroke="midnightblue" points="121.414,-26.7624 112.009,-31.6415 122.404,-33.692 121.414,-26.7624"/>
</g>
</g>
</svg>
