<?xml version="1.0" encoding="UTF-8" standalone="no"?>
<!DOCTYPE svg PUBLIC "-//W3C//DTD SVG 1.1//EN"
 "http://www.w3.org/Graphics/SVG/1.1/DTD/svg11.dtd">
<!-- Generated by graphviz version 2.38.0 (20140413.2041)
 -->
<!-- Title: amunmt::GetAlignmentString Pages: 1 -->
<svg width="792pt" height="208pt"
 viewBox="0.00 0.00 792.00 207.50" xmlns="http://www.w3.org/2000/svg" xmlns:xlink="http://www.w3.org/1999/xlink">
<g id="graph0" class="graph" transform="scale(1 1) rotate(0) translate(4 203.5)">
<title>amunmt::GetAlignmentString</title>
<polygon fill="white" stroke="none" points="-4,4 -4,-203.5 788,-203.5 788,4 -4,4"/>
<!-- Node1 -->
<g id="node1" class="node"><title>Node1</title>
<polygon fill="#bfbfbf" stroke="black" points="0,-53 0,-72 143,-72 143,-53 0,-53"/>
<text text-anchor="middle" x="71.5" y="-60" font-family="Helvetica,sans-Serif" font-size="10.00">amunmt::GetAlignmentString</text>
</g>
<!-- Node2 -->
<g id="node2" class="node"><title>Node2</title>
<g id="a_node2"><a xlink:href="$d7/dd3/namespaceamunmt.html#aef108281493b0c3b669c537192eace34" xlink:title="amunmt::Printer">
<polygon fill="white" stroke="black" points="179,-53 179,-72 265,-72 265,-53 179,-53"/>
<text text-anchor="middle" x="222" y="-60" font-family="Helvetica,sans-Serif" font-size="10.00">amunmt::Printer</text>
</a>
</g>
</g>
<!-- Node1&#45;&gt;Node2 -->
<g id="edge1" class="edge"><title>Node1&#45;&gt;Node2</title>
<path fill="none" stroke="midnightblue" d="M153.482,-62.5C162.157,-62.5 170.708,-62.5 178.657,-62.5"/>
<polygon fill="midnightblue" stroke="midnightblue" points="153.271,-59.0001 143.271,-62.5 153.271,-66.0001 153.271,-59.0001"/>
</g>
<!-- Node3 -->
<g id="node3" class="node"><title>Node3</title>
<g id="a_node3"><a xlink:href="$d5/d49/amunmt_8cpp.html#a86ebd9110196f3b5328ad3c3d31cd007" xlink:title="translate">
<polygon fill="white" stroke="black" points="346.5,-92 346.5,-111 400.5,-111 400.5,-92 346.5,-92"/>
<text text-anchor="middle" x="373.5" y="-99" font-family="Helvetica,sans-Serif" font-size="10.00">translate</text>
</a>
</g>
</g>
<!-- Node2&#45;&gt;Node3 -->
<g id="edge2" class="edge"><title>Node2&#45;&gt;Node3</title>
<path fill="none" stroke="midnightblue" d="M269.328,-74.5856C294.587,-81.1748 324.932,-89.0909 346.15,-94.6261"/>
<polygon fill="midnightblue" stroke="midnightblue" points="270.131,-71.1781 259.572,-72.0405 268.364,-77.9514 270.131,-71.1781"/>
</g>
<!-- Node11 -->
<g id="node11" class="node"><title>Node11</title>
<g id="a_node11"><a xlink:href="$d7/dd3/namespaceamunmt.html#a10b27c18333dd8e5b6652acfea64d7d2" xlink:title="amunmt::Printer">
<polygon fill="white" stroke="black" points="330.5,-53 330.5,-72 416.5,-72 416.5,-53 330.5,-53"/>
<text text-anchor="middle" x="373.5" y="-60" font-family="Helvetica,sans-Serif" font-size="10.00">amunmt::Printer</text>
</a>
</g>
</g>
<!-- Node2&#45;&gt;Node11 -->
<g id="edge10" class="edge"><title>Node2&#45;&gt;Node11</title>
<path fill="none" stroke="midnightblue" d="M275.113,-62.5C293.144,-62.5 313.116,-62.5 330.256,-62.5"/>
<polygon fill="midnightblue" stroke="midnightblue" points="275.042,-59.0001 265.042,-62.5 275.042,-66.0001 275.042,-59.0001"/>
</g>
<!-- Node12 -->
<g id="node12" class="node"><title>Node12</title>
<g id="a_node12"><a xlink:href="$d7/dd3/namespaceamunmt.html#aac616d7d6dd75bad96a6dcf3afe74e85" xlink:title="amunmt::TranslationTaskAnd\lOutput">
<polygon fill="white" stroke="black" points="301,-0.5 301,-30.5 446,-30.5 446,-0.5 301,-0.5"/>
<text text-anchor="start" x="309" y="-18.5" font-family="Helvetica,sans-Serif" font-size="10.00">amunmt::TranslationTaskAnd</text>
<text text-anchor="middle" x="373.5" y="-7.5" font-family="Helvetica,sans-Serif" font-size="10.00">Output</text>
</a>
</g>
</g>
<!-- Node2&#45;&gt;Node12 -->
<g id="edge11" class="edge"><title>Node2&#45;&gt;Node12</title>
<path fill="none" stroke="midnightblue" d="M262.799,-49.9879C281.8,-44.0145 304.688,-36.8187 324.632,-30.5488"/>
<polygon fill="midnightblue" stroke="midnightblue" points="261.744,-46.6508 253.254,-52.9888 263.843,-53.3286 261.744,-46.6508"/>
</g>
<!-- Node4 -->
<g id="node4" class="node"><title>Node4</title>
<g id="a_node4"><a xlink:href="$d5/d49/amunmt_8cpp.html#a1fa5ce5d158455cf2d152ebcbcdf29d0" xlink:title="BOOST_PYTHON_MODULE">
<polygon fill="white" stroke="black" points="482,-180 482,-199 628,-199 628,-180 482,-180"/>
<text text-anchor="middle" x="555" y="-187" font-family="Helvetica,sans-Serif" font-size="10.00">BOOST_PYTHON_MODULE</text>
</a>
</g>
</g>
<!-- Node3&#45;&gt;Node4 -->
<g id="edge3" class="edge"><title>Node3&#45;&gt;Node4</title>
<path fill="none" stroke="midnightblue" d="M394.762,-117.269C415.594,-132.797 449.494,-156.205 482,-170.5 490.521,-174.247 499.944,-177.389 509.087,-179.971"/>
<polygon fill="midnightblue" stroke="midnightblue" points="396.761,-114.393 386.676,-111.147 392.536,-119.974 396.761,-114.393"/>
</g>
<!-- Node5 -->
<g id="node5" class="node"><title>Node5</title>
<g id="a_node5"><a xlink:href="$d6/d38/classmarian_1_1ConfigParser.html#a07165d2c1c885c858d8127eb09f00e71" xlink:title="marian::ConfigParser\l::addOptionsTranslate">
<polygon fill="white" stroke="black" points="498.5,-130.5 498.5,-160.5 611.5,-160.5 611.5,-130.5 498.5,-130.5"/>
<text text-anchor="start" x="506.5" y="-148.5" font-family="Helvetica,sans-Serif" font-size="10.00">marian::ConfigParser</text>
<text text-anchor="middle" x="555" y="-137.5" font-family="Helvetica,sans-Serif" font-size="10.00">::addOptionsTranslate</text>
</a>
</g>
</g>
<!-- Node3&#45;&gt;Node5 -->
<g id="edge4" class="edge"><title>Node3&#45;&gt;Node5</title>
<path fill="none" stroke="midnightblue" d="M410.438,-110.309C435.557,-116.467 469.592,-124.809 498.218,-131.826"/>
<polygon fill="midnightblue" stroke="midnightblue" points="411.147,-106.879 400.601,-107.898 409.48,-113.678 411.147,-106.879"/>
</g>
<!-- Node6 -->
<g id="node6" class="node"><title>Node6</title>
<g id="a_node6"><a xlink:href="$d2/d47/marian_2src_2common_2logging_8h.html#a32a13f91eb216c334ec310b2a8a2f10c" xlink:title="createLoggers">
<polygon fill="white" stroke="black" points="516,-92 516,-111 594,-111 594,-92 516,-92"/>
<text text-anchor="middle" x="555" y="-99" font-family="Helvetica,sans-Serif" font-size="10.00">createLoggers</text>
</a>
</g>
</g>
<!-- Node3&#45;&gt;Node6 -->
<g id="edge5" class="edge"><title>Node3&#45;&gt;Node6</title>
<path fill="none" stroke="midnightblue" d="M410.825,-101.5C441.38,-101.5 484.923,-101.5 515.953,-101.5"/>
<polygon fill="midnightblue" stroke="midnightblue" points="410.601,-98.0001 400.601,-101.5 410.601,-105 410.601,-98.0001"/>
</g>
<!-- Node9 -->
<g id="node9" class="node"><title>Node9</title>
<g id="a_node9"><a xlink:href="$db/de8/classmarian_1_1OutputCollector.html#aac7fb8a5e89ce5a9bac56a6a414e7fe5" xlink:title="marian::OutputCollector\l::Write">
<polygon fill="white" stroke="black" points="495,-42.5 495,-72.5 615,-72.5 615,-42.5 495,-42.5"/>
<text text-anchor="start" x="503" y="-60.5" font-family="Helvetica,sans-Serif" font-size="10.00">marian::OutputCollector</text>
<text text-anchor="middle" x="555" y="-49.5" font-family="Helvetica,sans-Serif" font-size="10.00">::Write</text>
</a>
</g>
</g>
<!-- Node3&#45;&gt;Node9 -->
<g id="edge8" class="edge"><title>Node3&#45;&gt;Node9</title>
<path fill="none" stroke="midnightblue" d="M410.405,-92.6988C434.546,-86.7813 466.932,-78.8426 494.837,-72.0023"/>
<polygon fill="midnightblue" stroke="midnightblue" points="409.48,-89.3218 400.601,-95.102 411.147,-96.1205 409.48,-89.3218"/>
</g>
<!-- Node7 -->
<g id="node7" class="node"><title>Node7</title>
<g id="a_node7"><a xlink:href="$d6/dba/classmarian_1_1Config.html#aa953cca7c4650e7e0538f00388d9f385" xlink:title="marian::Config::Config">
<polygon fill="white" stroke="black" points="666.5,-130 666.5,-149 781.5,-149 781.5,-130 666.5,-130"/>
<text text-anchor="middle" x="724" y="-137" font-family="Helvetica,sans-Serif" font-size="10.00">marian::Config::Config</text>
</a>
</g>
</g>
<!-- Node6&#45;&gt;Node7 -->
<g id="edge6" class="edge"><title>Node6&#45;&gt;Node7</title>
<path fill="none" stroke="midnightblue" d="M604.385,-112.51C628.65,-118.031 657.753,-124.653 681.058,-129.956"/>
<polygon fill="midnightblue" stroke="midnightblue" points="604.841,-109.024 594.313,-110.218 603.287,-115.85 604.841,-109.024"/>
</g>
<!-- Node8 -->
<g id="node8" class="node"><title>Node8</title>
<g id="a_node8"><a xlink:href="$dc/df8/iris_8cpp.html#ae66f6b31b5ad750f1fe042a706a4e3d4" xlink:title="main">
<polygon fill="white" stroke="black" points="705,-92 705,-111 743,-111 743,-92 705,-92"/>
<text text-anchor="middle" x="724" y="-99" font-family="Helvetica,sans-Serif" font-size="10.00">main</text>
</a>
</g>
</g>
<!-- Node6&#45;&gt;Node8 -->
<g id="edge7" class="edge"><title>Node6&#45;&gt;Node8</title>
<path fill="none" stroke="midnightblue" d="M604.424,-101.5C638.065,-101.5 680.988,-101.5 704.875,-101.5"/>
<polygon fill="midnightblue" stroke="midnightblue" points="604.313,-98.0001 594.313,-101.5 604.313,-105 604.313,-98.0001"/>
</g>
<!-- Node10 -->
<g id="node10" class="node"><title>Node10</title>
<g id="a_node10"><a xlink:href="$db/de8/classmarian_1_1OutputCollector.html#a6b877d0629db1fe8d5f5c920025cc859" xlink:title="marian::OutputCollector\l::OutputCollector">
<polygon fill="white" stroke="black" points="664,-42.5 664,-72.5 784,-72.5 784,-42.5 664,-42.5"/>
<text text-anchor="start" x="672" y="-60.5" font-family="Helvetica,sans-Serif" font-size="10.00">marian::OutputCollector</text>
<text text-anchor="middle" x="724" y="-49.5" font-family="Helvetica,sans-Serif" font-size="10.00">::OutputCollector</text>
</a>
</g>
</g>
<!-- Node9&#45;&gt;Node10 -->
<g id="edge9" class="edge"><title>Node9&#45;&gt;Node10</title>
<path fill="none" stroke="midnightblue" d="M625.459,-57.5C638.216,-57.5 651.423,-57.5 663.843,-57.5"/>
<polygon fill="midnightblue" stroke="midnightblue" points="625.348,-54.0001 615.348,-57.5 625.348,-61.0001 625.348,-54.0001"/>
</g>
<!-- Node13 -->
<g id="node13" class="node"><title>Node13</title>
<g id="a_node13"><a xlink:href="$d0/d73/decoder__main_8cpp.html#a0ddf1224851353fc92bfbff6f499fa97" xlink:title="main">
<polygon fill="white" stroke="black" points="536,-4 536,-23 574,-23 574,-4 536,-4"/>
<text text-anchor="middle" x="555" y="-11" font-family="Helvetica,sans-Serif" font-size="10.00">main</text>
</a>
</g>
</g>
<!-- Node12&#45;&gt;Node13 -->
<g id="edge12" class="edge"><title>Node12&#45;&gt;Node13</title>
<path fill="none" stroke="midnightblue" d="M456.238,-14.5893C485.977,-14.2579 516.899,-13.9134 535.803,-13.7028"/>
<polygon fill="midnightblue" stroke="midnightblue" points="456.177,-11.0896 446.217,-14.7009 456.255,-18.0892 456.177,-11.0896"/>
</g>
</g>
</svg>
