<?xml version="1.0" encoding="UTF-8" standalone="no"?>
<!DOCTYPE svg PUBLIC "-//W3C//DTD SVG 1.1//EN"
 "http://www.w3.org/Graphics/SVG/1.1/DTD/svg11.dtd">
<!-- Generated by graphviz version 2.38.0 (20140413.2041)
 -->
<!-- Title: amunmt::LoadWeights Pages: 1 -->
<svg width="446pt" height="66pt"
 viewBox="0.00 0.00 446.00 66.00" xmlns="http://www.w3.org/2000/svg" xmlns:xlink="http://www.w3.org/1999/xlink">
<g id="graph0" class="graph" transform="scale(1 1) rotate(0) translate(4 62)">
<title>amunmt::LoadWeights</title>
<polygon fill="white" stroke="none" points="-4,4 -4,-62 442,-62 442,4 -4,4"/>
<!-- Node1 -->
<g id="node1" class="node"><title>Node1</title>
<polygon fill="#bfbfbf" stroke="black" points="0,-19.5 0,-38.5 115,-38.5 115,-19.5 0,-19.5"/>
<text text-anchor="middle" x="57.5" y="-26.5" font-family="Helvetica,sans-Serif" font-size="10.00">amunmt::LoadWeights</text>
</g>
<!-- Node2 -->
<g id="node2" class="node"><title>Node2</title>
<g id="a_node2"><a xlink:href="$da/d4e/classamunmt_1_1Config.html#ae621721651f919b18e8719a6f30ad568" xlink:title="amunmt::Config::AddOptions">
<polygon fill="white" stroke="black" points="151,-19.5 151,-38.5 294,-38.5 294,-19.5 151,-19.5"/>
<text text-anchor="middle" x="222.5" y="-26.5" font-family="Helvetica,sans-Serif" font-size="10.00">amunmt::Config::AddOptions</text>
</a>
</g>
</g>
<!-- Node1&#45;&gt;Node2 -->
<g id="edge1" class="edge"><title>Node1&#45;&gt;Node2</title>
<path fill="none" stroke="midnightblue" d="M125.26,-29C133.739,-29 142.438,-29 150.974,-29"/>
<polygon fill="midnightblue" stroke="midnightblue" points="125.052,-25.5001 115.052,-29 125.052,-32.5001 125.052,-25.5001"/>
</g>
<!-- Node3 -->
<g id="node3" class="node"><title>Node3</title>
<g id="a_node3"><a xlink:href="$da/d4e/classamunmt_1_1Config.html#aa7e531efa35245ae0dd6ccbe02e98006" xlink:title="amunmt::Config::Get">
<polygon fill="white" stroke="black" points="330,-38.5 330,-57.5 438,-57.5 438,-38.5 330,-38.5"/>
<text text-anchor="middle" x="384" y="-45.5" font-family="Helvetica,sans-Serif" font-size="10.00">amunmt::Config::Get</text>
</a>
</g>
</g>
<!-- Node2&#45;&gt;Node3 -->
<g id="edge2" class="edge"><title>Node2&#45;&gt;Node3</title>
<path fill="none" stroke="midnightblue" d="M304.395,-38.6364C312.933,-39.6535 321.453,-40.6684 329.565,-41.6347"/>
<polygon fill="midnightblue" stroke="midnightblue" points="304.732,-35.1518 294.388,-37.4443 303.904,-42.1027 304.732,-35.1518"/>
</g>
<!-- Node4 -->
<g id="node4" class="node"><title>Node4</title>
<g id="a_node4"><a xlink:href="$d7/d4e/classamunmt_1_1God.html#a7a424275f1192499979b2f58ac250559" xlink:title="amunmt::God::Init">
<polygon fill="white" stroke="black" points="336.5,-0.5 336.5,-19.5 431.5,-19.5 431.5,-0.5 336.5,-0.5"/>
<text text-anchor="middle" x="384" y="-7.5" font-family="Helvetica,sans-Serif" font-size="10.00">amunmt::God::Init</text>
</a>
</g>
</g>
<!-- Node2&#45;&gt;Node4 -->
<g id="edge3" class="edge"><title>Node2&#45;&gt;Node4</title>
<path fill="none" stroke="midnightblue" d="M304.372,-19.3664C315.26,-18.0694 326.12,-16.7757 336.14,-15.582"/>
<polygon fill="midnightblue" stroke="midnightblue" points="303.904,-15.8973 294.388,-20.5557 304.732,-22.8482 303.904,-15.8973"/>
</g>
</g>
</svg>
