<?xml version="1.0" encoding="UTF-8" standalone="no"?>
<!DOCTYPE svg PUBLIC "-//W3C//DTD SVG 1.1//EN"
 "http://www.w3.org/Graphics/SVG/1.1/DTD/svg11.dtd">
<!-- Generated by graphviz version 2.38.0 (20140413.2041)
 -->
<!-- Title: amunmt::TranslationTask Pages: 1 -->
<svg width="655pt" height="204pt"
 viewBox="0.00 0.00 655.00 204.00" xmlns="http://www.w3.org/2000/svg" xmlns:xlink="http://www.w3.org/1999/xlink">
<g id="graph0" class="graph" transform="scale(1 1) rotate(0) translate(4 200)">
<title>amunmt::TranslationTask</title>
<polygon fill="white" stroke="none" points="-4,4 -4,-200 651,-200 651,4 -4,4"/>
<!-- Node1 -->
<g id="node1" class="node"><title>Node1</title>
<polygon fill="#bfbfbf" stroke="black" points="0,-55.5 0,-74.5 128,-74.5 128,-55.5 0,-55.5"/>
<text text-anchor="middle" x="64" y="-62.5" font-family="Helvetica,sans-Serif" font-size="10.00">amunmt::TranslationTask</text>
</g>
<!-- Node2 -->
<g id="node2" class="node"><title>Node2</title>
<g id="a_node2"><a xlink:href="$d5/d49/amunmt_8cpp.html#a86ebd9110196f3b5328ad3c3d31cd007" xlink:title="translate">
<polygon fill="white" stroke="black" points="209.5,-88.5 209.5,-107.5 263.5,-107.5 263.5,-88.5 209.5,-88.5"/>
<text text-anchor="middle" x="236.5" y="-95.5" font-family="Helvetica,sans-Serif" font-size="10.00">translate</text>
</a>
</g>
</g>
<!-- Node1&#45;&gt;Node2 -->
<g id="edge1" class="edge"><title>Node1&#45;&gt;Node2</title>
<path fill="none" stroke="midnightblue" d="M124.384,-76.4937C153.443,-82.118 186.931,-88.5995 209.483,-92.9644"/>
<polygon fill="midnightblue" stroke="midnightblue" points="124.799,-73.009 114.316,-74.545 123.468,-79.8815 124.799,-73.009"/>
</g>
<!-- Node10 -->
<g id="node10" class="node"><title>Node10</title>
<g id="a_node10"><a xlink:href="$d7/dd3/namespaceamunmt.html#aac616d7d6dd75bad96a6dcf3afe74e85" xlink:title="amunmt::TranslationTaskAnd\lOutput">
<polygon fill="white" stroke="black" points="164,-17 164,-47 309,-47 309,-17 164,-17"/>
<text text-anchor="start" x="172" y="-35" font-family="Helvetica,sans-Serif" font-size="10.00">amunmt::TranslationTaskAnd</text>
<text text-anchor="middle" x="236.5" y="-24" font-family="Helvetica,sans-Serif" font-size="10.00">Output</text>
</a>
</g>
</g>
<!-- Node1&#45;&gt;Node10 -->
<g id="edge9" class="edge"><title>Node1&#45;&gt;Node10</title>
<path fill="none" stroke="midnightblue" d="M124.319,-53.5189C137.051,-51.0546 150.637,-48.4252 163.781,-45.881"/>
<polygon fill="midnightblue" stroke="midnightblue" points="123.468,-50.1185 114.316,-55.455 124.799,-56.991 123.468,-50.1185"/>
</g>
<!-- Node3 -->
<g id="node3" class="node"><title>Node3</title>
<g id="a_node3"><a xlink:href="$d5/d49/amunmt_8cpp.html#a1fa5ce5d158455cf2d152ebcbcdf29d0" xlink:title="BOOST_PYTHON_MODULE">
<polygon fill="white" stroke="black" points="345,-176.5 345,-195.5 491,-195.5 491,-176.5 345,-176.5"/>
<text text-anchor="middle" x="418" y="-183.5" font-family="Helvetica,sans-Serif" font-size="10.00">BOOST_PYTHON_MODULE</text>
</a>
</g>
</g>
<!-- Node2&#45;&gt;Node3 -->
<g id="edge2" class="edge"><title>Node2&#45;&gt;Node3</title>
<path fill="none" stroke="midnightblue" d="M257.762,-113.769C278.594,-129.297 312.494,-152.705 345,-167 353.521,-170.747 362.944,-173.889 372.087,-176.471"/>
<polygon fill="midnightblue" stroke="midnightblue" points="259.761,-110.893 249.676,-107.647 255.536,-116.474 259.761,-110.893"/>
</g>
<!-- Node4 -->
<g id="node4" class="node"><title>Node4</title>
<g id="a_node4"><a xlink:href="$d6/d38/classmarian_1_1ConfigParser.html#a07165d2c1c885c858d8127eb09f00e71" xlink:title="marian::ConfigParser\l::addOptionsTranslate">
<polygon fill="white" stroke="black" points="361.5,-127 361.5,-157 474.5,-157 474.5,-127 361.5,-127"/>
<text text-anchor="start" x="369.5" y="-145" font-family="Helvetica,sans-Serif" font-size="10.00">marian::ConfigParser</text>
<text text-anchor="middle" x="418" y="-134" font-family="Helvetica,sans-Serif" font-size="10.00">::addOptionsTranslate</text>
</a>
</g>
</g>
<!-- Node2&#45;&gt;Node4 -->
<g id="edge3" class="edge"><title>Node2&#45;&gt;Node4</title>
<path fill="none" stroke="midnightblue" d="M273.438,-106.809C298.557,-112.967 332.592,-121.309 361.218,-128.326"/>
<polygon fill="midnightblue" stroke="midnightblue" points="274.147,-103.379 263.601,-104.398 272.48,-110.178 274.147,-103.379"/>
</g>
<!-- Node5 -->
<g id="node5" class="node"><title>Node5</title>
<g id="a_node5"><a xlink:href="$d2/d47/marian_2src_2common_2logging_8h.html#a32a13f91eb216c334ec310b2a8a2f10c" xlink:title="createLoggers">
<polygon fill="white" stroke="black" points="379,-88.5 379,-107.5 457,-107.5 457,-88.5 379,-88.5"/>
<text text-anchor="middle" x="418" y="-95.5" font-family="Helvetica,sans-Serif" font-size="10.00">createLoggers</text>
</a>
</g>
</g>
<!-- Node2&#45;&gt;Node5 -->
<g id="edge4" class="edge"><title>Node2&#45;&gt;Node5</title>
<path fill="none" stroke="midnightblue" d="M273.825,-98C304.38,-98 347.923,-98 378.953,-98"/>
<polygon fill="midnightblue" stroke="midnightblue" points="273.601,-94.5001 263.601,-98 273.601,-101.5 273.601,-94.5001"/>
</g>
<!-- Node8 -->
<g id="node8" class="node"><title>Node8</title>
<g id="a_node8"><a xlink:href="$db/de8/classmarian_1_1OutputCollector.html#aac7fb8a5e89ce5a9bac56a6a414e7fe5" xlink:title="marian::OutputCollector\l::Write">
<polygon fill="white" stroke="black" points="358,-39 358,-69 478,-69 478,-39 358,-39"/>
<text text-anchor="start" x="366" y="-57" font-family="Helvetica,sans-Serif" font-size="10.00">marian::OutputCollector</text>
<text text-anchor="middle" x="418" y="-46" font-family="Helvetica,sans-Serif" font-size="10.00">::Write</text>
</a>
</g>
</g>
<!-- Node2&#45;&gt;Node8 -->
<g id="edge7" class="edge"><title>Node2&#45;&gt;Node8</title>
<path fill="none" stroke="midnightblue" d="M273.405,-89.1988C297.546,-83.2813 329.932,-75.3426 357.837,-68.5023"/>
<polygon fill="midnightblue" stroke="midnightblue" points="272.48,-85.8218 263.601,-91.602 274.147,-92.6205 272.48,-85.8218"/>
</g>
<!-- Node6 -->
<g id="node6" class="node"><title>Node6</title>
<g id="a_node6"><a xlink:href="$d6/dba/classmarian_1_1Config.html#aa953cca7c4650e7e0538f00388d9f385" xlink:title="marian::Config::Config">
<polygon fill="white" stroke="black" points="529.5,-126.5 529.5,-145.5 644.5,-145.5 644.5,-126.5 529.5,-126.5"/>
<text text-anchor="middle" x="587" y="-133.5" font-family="Helvetica,sans-Serif" font-size="10.00">marian::Config::Config</text>
</a>
</g>
</g>
<!-- Node5&#45;&gt;Node6 -->
<g id="edge5" class="edge"><title>Node5&#45;&gt;Node6</title>
<path fill="none" stroke="midnightblue" d="M467.385,-109.01C491.65,-114.531 520.753,-121.153 544.058,-126.456"/>
<polygon fill="midnightblue" stroke="midnightblue" points="467.841,-105.524 457.313,-106.718 466.287,-112.35 467.841,-105.524"/>
</g>
<!-- Node7 -->
<g id="node7" class="node"><title>Node7</title>
<g id="a_node7"><a xlink:href="$dc/df8/iris_8cpp.html#ae66f6b31b5ad750f1fe042a706a4e3d4" xlink:title="main">
<polygon fill="white" stroke="black" points="568,-88.5 568,-107.5 606,-107.5 606,-88.5 568,-88.5"/>
<text text-anchor="middle" x="587" y="-95.5" font-family="Helvetica,sans-Serif" font-size="10.00">main</text>
</a>
</g>
</g>
<!-- Node5&#45;&gt;Node7 -->
<g id="edge6" class="edge"><title>Node5&#45;&gt;Node7</title>
<path fill="none" stroke="midnightblue" d="M467.424,-98C501.065,-98 543.988,-98 567.875,-98"/>
<polygon fill="midnightblue" stroke="midnightblue" points="467.313,-94.5001 457.313,-98 467.313,-101.5 467.313,-94.5001"/>
</g>
<!-- Node9 -->
<g id="node9" class="node"><title>Node9</title>
<g id="a_node9"><a xlink:href="$db/de8/classmarian_1_1OutputCollector.html#a6b877d0629db1fe8d5f5c920025cc859" xlink:title="marian::OutputCollector\l::OutputCollector">
<polygon fill="white" stroke="black" points="527,-39 527,-69 647,-69 647,-39 527,-39"/>
<text text-anchor="start" x="535" y="-57" font-family="Helvetica,sans-Serif" font-size="10.00">marian::OutputCollector</text>
<text text-anchor="middle" x="587" y="-46" font-family="Helvetica,sans-Serif" font-size="10.00">::OutputCollector</text>
</a>
</g>
</g>
<!-- Node8&#45;&gt;Node9 -->
<g id="edge8" class="edge"><title>Node8&#45;&gt;Node9</title>
<path fill="none" stroke="midnightblue" d="M488.459,-54C501.216,-54 514.423,-54 526.843,-54"/>
<polygon fill="midnightblue" stroke="midnightblue" points="488.348,-50.5001 478.348,-54 488.348,-57.5001 488.348,-50.5001"/>
</g>
<!-- Node11 -->
<g id="node11" class="node"><title>Node11</title>
<g id="a_node11"><a xlink:href="$d0/d73/decoder__main_8cpp.html#a0ddf1224851353fc92bfbff6f499fa97" xlink:title="main">
<polygon fill="white" stroke="black" points="399,-0.5 399,-19.5 437,-19.5 437,-0.5 399,-0.5"/>
<text text-anchor="middle" x="418" y="-7.5" font-family="Helvetica,sans-Serif" font-size="10.00">main</text>
</a>
</g>
</g>
<!-- Node10&#45;&gt;Node11 -->
<g id="edge10" class="edge"><title>Node10&#45;&gt;Node11</title>
<path fill="none" stroke="midnightblue" d="M319.238,-21.982C348.977,-18.337 379.899,-14.5472 398.803,-12.2303"/>
<polygon fill="midnightblue" stroke="midnightblue" points="318.717,-18.5196 309.217,-23.2102 319.569,-25.4676 318.717,-18.5196"/>
</g>
</g>
</svg>
