<?xml version="1.0" encoding="UTF-8" standalone="no"?>
<!DOCTYPE svg PUBLIC "-//W3C//DTD SVG 1.1//EN"
 "http://www.w3.org/Graphics/SVG/1.1/DTD/svg11.dtd">
<!-- Generated by graphviz version 2.38.0 (20140413.2041)
 -->
<!-- Title: array.h Pages: 1 -->
<svg width="1051pt" height="644pt"
 viewBox="0.00 0.00 1050.50 644.00" xmlns="http://www.w3.org/2000/svg" xmlns:xlink="http://www.w3.org/1999/xlink">
<g id="graph0" class="graph" transform="scale(1 1) rotate(0) translate(4 640)">
<title>array.h</title>
<polygon fill="white" stroke="none" points="-4,4 -4,-640 1046.5,-640 1046.5,4 -4,4"/>
<!-- Node1 -->
<g id="node1" class="node"><title>Node1</title>
<polygon fill="#bfbfbf" stroke="black" points="264,-616.5 264,-635.5 311,-635.5 311,-616.5 264,-616.5"/>
<text text-anchor="middle" x="287.5" y="-623.5" font-family="Helvetica,sans-Serif" font-size="10.00">array.h</text>
</g>
<!-- Node2 -->
<g id="node2" class="node"><title>Node2</title>
<g id="a_node2"><a xlink:href="../../d0/d90/best__hyps_8h.html" target="_top" xlink:title="best_hyps.h">
<polygon fill="white" stroke="black" points="92.5,-392.5 92.5,-411.5 162.5,-411.5 162.5,-392.5 92.5,-392.5"/>
<text text-anchor="middle" x="127.5" y="-399.5" font-family="Helvetica,sans-Serif" font-size="10.00">best_hyps.h</text>
</a>
</g>
</g>
<!-- Node1&#45;&gt;Node2 -->
<g id="edge1" class="edge"><title>Node1&#45;&gt;Node2</title>
<path fill="none" stroke="midnightblue" d="M275.249,-608.002C243.249,-563.601 157.967,-445.273 133.903,-411.884"/>
<polygon fill="midnightblue" stroke="midnightblue" points="272.541,-610.231 281.228,-616.297 278.22,-606.138 272.541,-610.231"/>
</g>
<!-- Node3 -->
<g id="node3" class="node"><title>Node3</title>
<g id="a_node3"><a xlink:href="../../d2/d86/encoder__decoder_8h.html" target="_top" xlink:title="encoder_decoder.h">
<polygon fill="white" stroke="black" points="0,-560.5 0,-579.5 99,-579.5 99,-560.5 0,-560.5"/>
<text text-anchor="middle" x="49.5" y="-567.5" font-family="Helvetica,sans-Serif" font-size="10.00">encoder_decoder.h</text>
</a>
</g>
</g>
<!-- Node1&#45;&gt;Node3 -->
<g id="edge2" class="edge"><title>Node1&#45;&gt;Node3</title>
<path fill="none" stroke="midnightblue" d="M253.894,-617.375C209.89,-607.391 132.969,-589.938 87.0805,-579.527"/>
<polygon fill="midnightblue" stroke="midnightblue" points="253.283,-620.825 263.81,-619.625 254.832,-613.999 253.283,-620.825"/>
</g>
<!-- Node5 -->
<g id="node5" class="node"><title>Node5</title>
<g id="a_node5"><a xlink:href="../../d6/d72/decoder_8h.html" target="_top" xlink:title="decoder.h">
<polygon fill="white" stroke="black" points="599,-224.5 599,-243.5 658,-243.5 658,-224.5 599,-224.5"/>
<text text-anchor="middle" x="628.5" y="-231.5" font-family="Helvetica,sans-Serif" font-size="10.00">decoder.h</text>
</a>
</g>
</g>
<!-- Node1&#45;&gt;Node5 -->
<g id="edge5" class="edge"><title>Node1&#45;&gt;Node5</title>
<path fill="none" stroke="midnightblue" d="M321.575,-623.683C468.753,-617.55 1042.5,-588.901 1042.5,-515 1042.5,-515 1042.5,-515 1042.5,-345 1042.5,-265.425 753.2,-242.023 658.274,-236.485"/>
<polygon fill="midnightblue" stroke="midnightblue" points="321.191,-620.195 311.343,-624.101 321.477,-627.189 321.191,-620.195"/>
</g>
<!-- Node9 -->
<g id="node9" class="node"><title>Node9</title>
<g id="a_node9"><a xlink:href="../../d1/df1/matrix__wrapper_8h.html" target="_top" xlink:title="matrix_wrapper.h">
<polygon fill="white" stroke="black" points="353.5,-560.5 353.5,-579.5 445.5,-579.5 445.5,-560.5 353.5,-560.5"/>
<text text-anchor="middle" x="399.5" y="-567.5" font-family="Helvetica,sans-Serif" font-size="10.00">matrix_wrapper.h</text>
</a>
</g>
</g>
<!-- Node1&#45;&gt;Node9 -->
<g id="edge9" class="edge"><title>Node1&#45;&gt;Node9</title>
<path fill="none" stroke="midnightblue" d="M314.749,-611.862C335.516,-601.849 363.523,-588.346 381.55,-579.655"/>
<polygon fill="midnightblue" stroke="midnightblue" points="312.982,-608.828 305.495,-616.324 316.023,-615.134 312.982,-608.828"/>
</g>
<!-- Node3&#45;&gt;Node2 -->
<g id="edge3" class="edge"><title>Node3&#45;&gt;Node2</title>
<path fill="none" stroke="midnightblue" d="M45.8695,-550.036C44.1249,-536.776 43.3805,-518.855 48.5,-504 62.2816,-464.011 99.1227,-427.746 117.203,-411.704"/>
<polygon fill="midnightblue" stroke="midnightblue" points="42.4778,-550.985 47.5378,-560.293 49.387,-549.861 42.4778,-550.985"/>
</g>
<!-- Node4 -->
<g id="node4" class="node"><title>Node4</title>
<g id="a_node4"><a xlink:href="../../da/d6d/nmt_8h.html" target="_top" xlink:title="nmt.h">
<polygon fill="white" stroke="black" points="58,-504.5 58,-523.5 99,-523.5 99,-504.5 58,-504.5"/>
<text text-anchor="middle" x="78.5" y="-511.5" font-family="Helvetica,sans-Serif" font-size="10.00">nmt.h</text>
</a>
</g>
</g>
<!-- Node3&#45;&gt;Node4 -->
<g id="edge4" class="edge"><title>Node3&#45;&gt;Node4</title>
<path fill="none" stroke="midnightblue" d="M59.1759,-550.983C64.0984,-541.817 69.8579,-531.092 73.8003,-523.751"/>
<polygon fill="midnightblue" stroke="midnightblue" points="55.9366,-549.617 54.2888,-560.083 62.1036,-552.929 55.9366,-549.617"/>
</g>
<!-- Node6 -->
<g id="node6" class="node"><title>Node6</title>
<g id="a_node6"><a xlink:href="../../db/d89/dl4mt_8h.html" target="_top" xlink:title="dl4mt.h">
<polygon fill="white" stroke="black" points="429,-112.5 429,-131.5 478,-131.5 478,-112.5 429,-112.5"/>
<text text-anchor="middle" x="453.5" y="-119.5" font-family="Helvetica,sans-Serif" font-size="10.00">dl4mt.h</text>
</a>
</g>
</g>
<!-- Node5&#45;&gt;Node6 -->
<g id="edge6" class="edge"><title>Node5&#45;&gt;Node6</title>
<path fill="none" stroke="midnightblue" d="M606.241,-219.009C569.508,-195.919 497.267,-150.51 467.168,-131.591"/>
<polygon fill="midnightblue" stroke="midnightblue" points="604.439,-222.01 614.768,-224.368 608.164,-216.083 604.439,-222.01"/>
</g>
<!-- Node7 -->
<g id="node7" class="node"><title>Node7</title>
<g id="a_node7"><a xlink:href="../../d6/da3/language__model_8h.html" target="_top" xlink:title="language_model.h">
<polygon fill="white" stroke="black" points="406,-56.5 406,-75.5 501,-75.5 501,-56.5 406,-56.5"/>
<text text-anchor="middle" x="453.5" y="-63.5" font-family="Helvetica,sans-Serif" font-size="10.00">language_model.h</text>
</a>
</g>
</g>
<!-- Node6&#45;&gt;Node7 -->
<g id="edge7" class="edge"><title>Node6&#45;&gt;Node7</title>
<path fill="none" stroke="midnightblue" d="M453.5,-101.805C453.5,-92.9102 453.5,-82.7798 453.5,-75.7511"/>
<polygon fill="midnightblue" stroke="midnightblue" points="450,-102.083 453.5,-112.083 457,-102.083 450,-102.083"/>
</g>
<!-- Node8 -->
<g id="node8" class="node"><title>Node8</title>
<g id="a_node8"><a xlink:href="../../d3/d17/class__language__model_8h.html" target="_top" xlink:title="class_language_model.h">
<polygon fill="white" stroke="black" points="391.5,-0.5 391.5,-19.5 515.5,-19.5 515.5,-0.5 391.5,-0.5"/>
<text text-anchor="middle" x="453.5" y="-7.5" font-family="Helvetica,sans-Serif" font-size="10.00">class_language_model.h</text>
</a>
</g>
</g>
<!-- Node7&#45;&gt;Node8 -->
<g id="edge8" class="edge"><title>Node7&#45;&gt;Node8</title>
<path fill="none" stroke="midnightblue" d="M453.5,-45.8045C453.5,-36.9102 453.5,-26.7798 453.5,-19.7511"/>
<polygon fill="midnightblue" stroke="midnightblue" points="450,-46.083 453.5,-56.083 457,-46.083 450,-46.083"/>
</g>
<!-- Node10 -->
<g id="node10" class="node"><title>Node10</title>
<g id="a_node10"><a xlink:href="../../d0/ddd/cell_8h.html" target="_top" xlink:title="cell.h">
<polygon fill="white" stroke="black" points="512.5,-336.5 512.5,-355.5 552.5,-355.5 552.5,-336.5 512.5,-336.5"/>
<text text-anchor="middle" x="532.5" y="-343.5" font-family="Helvetica,sans-Serif" font-size="10.00">cell.h</text>
</a>
</g>
</g>
<!-- Node9&#45;&gt;Node10 -->
<g id="edge10" class="edge"><title>Node9&#45;&gt;Node10</title>
<path fill="none" stroke="midnightblue" d="M420.617,-554.606C444.712,-537.031 483.489,-505.031 504.5,-468 526.101,-429.93 531.051,-376.152 532.174,-355.516"/>
<polygon fill="midnightblue" stroke="midnightblue" points="418.58,-551.759 412.464,-560.411 422.64,-557.462 418.58,-551.759"/>
</g>
<!-- Node11 -->
<g id="node11" class="node"><title>Node11</title>
<g id="a_node11"><a xlink:href="../../dc/db8/gru_8h.html" target="_top" xlink:title="gru.h">
<polygon fill="white" stroke="black" points="599.5,-280.5 599.5,-299.5 637.5,-299.5 637.5,-280.5 599.5,-280.5"/>
<text text-anchor="middle" x="618.5" y="-287.5" font-family="Helvetica,sans-Serif" font-size="10.00">gru.h</text>
</a>
</g>
</g>
<!-- Node9&#45;&gt;Node11 -->
<g id="edge32" class="edge"><title>Node9&#45;&gt;Node11</title>
<path fill="none" stroke="midnightblue" d="M456.374,-564.618C606.948,-552.259 1004.5,-514.385 1004.5,-459 1004.5,-459 1004.5,-459 1004.5,-401 1004.5,-323.827 715.529,-297.85 637.642,-292.25"/>
<polygon fill="midnightblue" stroke="midnightblue" points="455.652,-561.165 445.969,-565.464 456.219,-568.142 455.652,-561.165"/>
</g>
<!-- Node13 -->
<g id="node13" class="node"><title>Node13</title>
<g id="a_node13"><a xlink:href="../../d0/d55/lstm_8h.html" target="_top" xlink:title="lstm.h">
<polygon fill="white" stroke="black" points="422.5,-280.5 422.5,-299.5 466.5,-299.5 466.5,-280.5 422.5,-280.5"/>
<text text-anchor="middle" x="444.5" y="-287.5" font-family="Helvetica,sans-Serif" font-size="10.00">lstm.h</text>
</a>
</g>
</g>
<!-- Node9&#45;&gt;Node13 -->
<g id="edge33" class="edge"><title>Node9&#45;&gt;Node13</title>
<path fill="none" stroke="midnightblue" d="M391.656,-550.906C383.068,-529.416 370.5,-492.284 370.5,-459 370.5,-459 370.5,-459 370.5,-401 370.5,-356.578 412.56,-316.615 433.261,-299.636"/>
<polygon fill="midnightblue" stroke="midnightblue" points="388.518,-552.475 395.589,-560.365 394.982,-549.787 388.518,-552.475"/>
</g>
<!-- Node14 -->
<g id="node14" class="node"><title>Node14</title>
<g id="a_node14"><a xlink:href="../../d6/d81/multiplicative_8h.html" target="_top" xlink:title="multiplicative.h">
<polygon fill="white" stroke="black" points="343.5,-224.5 343.5,-243.5 425.5,-243.5 425.5,-224.5 343.5,-224.5"/>
<text text-anchor="middle" x="384.5" y="-231.5" font-family="Helvetica,sans-Serif" font-size="10.00">multiplicative.h</text>
</a>
</g>
</g>
<!-- Node9&#45;&gt;Node14 -->
<g id="edge34" class="edge"><title>Node9&#45;&gt;Node14</title>
<path fill="none" stroke="midnightblue" d="M343.179,-561.832C265.513,-548.401 129.866,-511.183 83.5,-412 56.2224,-353.65 281.628,-270.212 359.018,-243.541"/>
<polygon fill="midnightblue" stroke="midnightblue" points="342.839,-565.323 353.276,-563.501 343.981,-558.417 342.839,-565.323"/>
</g>
<!-- Node15 -->
<g id="node15" class="node"><title>Node15</title>
<g id="a_node15"><a xlink:href="../../d2/d98/cellstate_8h.html" target="_top" xlink:title="cellstate.h">
<polygon fill="white" stroke="black" points="608.5,-392.5 608.5,-411.5 670.5,-411.5 670.5,-392.5 608.5,-392.5"/>
<text text-anchor="middle" x="639.5" y="-399.5" font-family="Helvetica,sans-Serif" font-size="10.00">cellstate.h</text>
</a>
</g>
</g>
<!-- Node9&#45;&gt;Node15 -->
<g id="edge23" class="edge"><title>Node9&#45;&gt;Node15</title>
<path fill="none" stroke="midnightblue" d="M455.706,-559.363C483.561,-552.667 516.672,-541.668 542.5,-524 588.054,-492.837 622.852,-433.992 634.909,-411.783"/>
<polygon fill="midnightblue" stroke="midnightblue" points="454.678,-556.007 445.705,-561.64 456.232,-562.833 454.678,-556.007"/>
</g>
<!-- Node18 -->
<g id="node18" class="node"><title>Node18</title>
<g id="a_node18"><a xlink:href="../../da/dbc/matrix__functions_8h.html" target="_top" xlink:title="matrix_functions.h">
<polygon fill="white" stroke="black" points="399,-448.5 399,-467.5 496,-467.5 496,-448.5 399,-448.5"/>
<text text-anchor="middle" x="447.5" y="-455.5" font-family="Helvetica,sans-Serif" font-size="10.00">matrix_functions.h</text>
</a>
</g>
</g>
<!-- Node9&#45;&gt;Node18 -->
<g id="edge35" class="edge"><title>Node9&#45;&gt;Node18</title>
<path fill="none" stroke="midnightblue" d="M407.355,-550.998C417.829,-526.997 435.95,-485.468 443.751,-467.591"/>
<polygon fill="midnightblue" stroke="midnightblue" points="404.058,-549.803 403.266,-560.368 410.474,-552.603 404.058,-549.803"/>
</g>
<!-- Node22 -->
<g id="node22" class="node"><title>Node22</title>
<g id="a_node22"><a xlink:href="../../de/db1/nth__element__kernels_8h.html" target="_top" xlink:title="nth_element_kernels.h">
<polygon fill="white" stroke="black" points="227,-504.5 227,-523.5 342,-523.5 342,-504.5 227,-504.5"/>
<text text-anchor="middle" x="284.5" y="-511.5" font-family="Helvetica,sans-Serif" font-size="10.00">nth_element_kernels.h</text>
</a>
</g>
</g>
<!-- Node9&#45;&gt;Node22 -->
<g id="edge51" class="edge"><title>Node9&#45;&gt;Node22</title>
<path fill="none" stroke="midnightblue" d="M372.019,-556.096C350.534,-546.007 321.278,-532.27 302.637,-523.516"/>
<polygon fill="midnightblue" stroke="midnightblue" points="370.738,-559.361 381.278,-560.444 373.714,-553.025 370.738,-559.361"/>
</g>
<!-- Node10&#45;&gt;Node5 -->
<g id="edge20" class="edge"><title>Node10&#45;&gt;Node5</title>
<path fill="none" stroke="midnightblue" d="M546.825,-328.586C567.522,-304.871 605.051,-261.869 621.002,-243.591"/>
<polygon fill="midnightblue" stroke="midnightblue" points="543.971,-326.533 540.033,-336.368 549.245,-331.136 543.971,-326.533"/>
</g>
<!-- Node10&#45;&gt;Node11 -->
<g id="edge11" class="edge"><title>Node10&#45;&gt;Node11</title>
<path fill="none" stroke="midnightblue" d="M554.955,-330.901C570.724,-320.999 591.314,-308.071 604.717,-299.655"/>
<polygon fill="midnightblue" stroke="midnightblue" points="552.925,-328.042 546.317,-336.324 556.648,-333.97 552.925,-328.042"/>
</g>
<!-- Node12 -->
<g id="node12" class="node"><title>Node12</title>
<g id="a_node12"><a xlink:href="../../d1/d79/encoder_8h.html" target="_top" xlink:title="encoder.h">
<polygon fill="white" stroke="black" points="424,-168.5 424,-187.5 483,-187.5 483,-168.5 424,-168.5"/>
<text text-anchor="middle" x="453.5" y="-175.5" font-family="Helvetica,sans-Serif" font-size="10.00">encoder.h</text>
</a>
</g>
</g>
<!-- Node10&#45;&gt;Node12 -->
<g id="edge22" class="edge"><title>Node10&#45;&gt;Node12</title>
<path fill="none" stroke="midnightblue" d="M523.865,-326.856C506.921,-291.252 469.897,-213.453 457.578,-187.568"/>
<polygon fill="midnightblue" stroke="midnightblue" points="520.795,-328.55 528.253,-336.075 527.116,-325.541 520.795,-328.55"/>
</g>
<!-- Node10&#45;&gt;Node13 -->
<g id="edge15" class="edge"><title>Node10&#45;&gt;Node13</title>
<path fill="none" stroke="midnightblue" d="M509.523,-330.901C493.387,-320.999 472.319,-308.071 458.604,-299.655"/>
<polygon fill="midnightblue" stroke="midnightblue" points="508.007,-334.077 518.361,-336.324 511.669,-328.111 508.007,-334.077"/>
</g>
<!-- Node10&#45;&gt;Node14 -->
<g id="edge21" class="edge"><title>Node10&#45;&gt;Node14</title>
<path fill="none" stroke="midnightblue" d="M520.656,-328.116C510.061,-313.924 493.465,-293.801 475.5,-280 454.675,-264.002 427.264,-251.382 407.989,-243.628"/>
<polygon fill="midnightblue" stroke="midnightblue" points="518.003,-330.419 526.707,-336.46 523.67,-326.31 518.003,-330.419"/>
</g>
<!-- Node11&#45;&gt;Node5 -->
<g id="edge12" class="edge"><title>Node11&#45;&gt;Node5</title>
<path fill="none" stroke="midnightblue" d="M622,-270.101C623.66,-261.136 625.563,-250.858 626.879,-243.751"/>
<polygon fill="midnightblue" stroke="midnightblue" points="618.531,-269.613 620.151,-280.083 625.414,-270.888 618.531,-269.613"/>
</g>
<!-- Node11&#45;&gt;Node12 -->
<g id="edge13" class="edge"><title>Node11&#45;&gt;Node12</title>
<path fill="none" stroke="midnightblue" d="M603.058,-272.65C589.175,-258.567 567.754,-238.308 546.5,-224 523.735,-208.675 494.962,-195.594 475.494,-187.549"/>
<polygon fill="midnightblue" stroke="midnightblue" points="600.834,-275.384 610.303,-280.137 605.864,-270.517 600.834,-275.384"/>
</g>
<!-- Node12&#45;&gt;Node6 -->
<g id="edge14" class="edge"><title>Node12&#45;&gt;Node6</title>
<path fill="none" stroke="midnightblue" d="M453.5,-157.805C453.5,-148.91 453.5,-138.78 453.5,-131.751"/>
<polygon fill="midnightblue" stroke="midnightblue" points="450,-158.083 453.5,-168.083 457,-158.083 450,-158.083"/>
</g>
<!-- Node13&#45;&gt;Node5 -->
<g id="edge16" class="edge"><title>Node13&#45;&gt;Node5</title>
<path fill="none" stroke="midnightblue" d="M476.305,-279.666C510.891,-269.516 565.705,-253.429 599.252,-243.584"/>
<polygon fill="midnightblue" stroke="midnightblue" points="475.304,-276.312 466.695,-282.486 477.276,-283.029 475.304,-276.312"/>
</g>
<!-- Node13&#45;&gt;Node12 -->
<g id="edge17" class="edge"><title>Node13&#45;&gt;Node12</title>
<path fill="none" stroke="midnightblue" d="M446.026,-270.348C447.997,-246.254 451.348,-205.308 452.797,-187.591"/>
<polygon fill="midnightblue" stroke="midnightblue" points="442.533,-270.116 445.206,-280.368 449.51,-270.687 442.533,-270.116"/>
</g>
<!-- Node13&#45;&gt;Node14 -->
<g id="edge18" class="edge"><title>Node13&#45;&gt;Node14</title>
<path fill="none" stroke="midnightblue" d="M427.319,-273.537C416.621,-263.909 403.244,-251.869 394.315,-243.834"/>
<polygon fill="midnightblue" stroke="midnightblue" points="425.086,-276.236 434.86,-280.324 429.768,-271.033 425.086,-276.236"/>
</g>
<!-- Node14&#45;&gt;Node12 -->
<g id="edge19" class="edge"><title>Node14&#45;&gt;Node12</title>
<path fill="none" stroke="midnightblue" d="M403.538,-218.101C415.956,-208.382 431.743,-196.027 442.212,-187.834"/>
<polygon fill="midnightblue" stroke="midnightblue" points="401.304,-215.405 395.586,-224.324 405.618,-220.917 401.304,-215.405"/>
</g>
<!-- Node15&#45;&gt;Node5 -->
<g id="edge29" class="edge"><title>Node15&#45;&gt;Node5</title>
<path fill="none" stroke="midnightblue" d="M680.996,-400.359C749.291,-398.329 880.708,-389.988 909.5,-356 981.941,-270.486 744.074,-243.737 658.211,-236.975"/>
<polygon fill="midnightblue" stroke="midnightblue" points="680.506,-396.871 670.602,-400.634 680.691,-403.868 680.506,-396.871"/>
</g>
<!-- Node15&#45;&gt;Node10 -->
<g id="edge25" class="edge"><title>Node15&#45;&gt;Node10</title>
<path fill="none" stroke="midnightblue" d="M613.198,-387.726C593.385,-377.727 566.793,-364.307 549.649,-355.655"/>
<polygon fill="midnightblue" stroke="midnightblue" points="611.804,-390.943 622.309,-392.324 614.958,-384.694 611.804,-390.943"/>
</g>
<!-- Node15&#45;&gt;Node11 -->
<g id="edge27" class="edge"><title>Node15&#45;&gt;Node11</title>
<path fill="none" stroke="midnightblue" d="M635.939,-382.348C631.339,-358.254 623.522,-317.308 620.14,-299.591"/>
<polygon fill="midnightblue" stroke="midnightblue" points="632.539,-383.202 637.852,-392.368 639.415,-381.89 632.539,-383.202"/>
</g>
<!-- Node15&#45;&gt;Node12 -->
<g id="edge31" class="edge"><title>Node15&#45;&gt;Node12</title>
<path fill="none" stroke="midnightblue" d="M680.892,-398.506C729.007,-393.598 799.668,-379.054 781.5,-336 753.762,-270.267 729.444,-257.589 666.5,-224 606.646,-192.06 526.008,-182.787 483.159,-180.097"/>
<polygon fill="midnightblue" stroke="midnightblue" points="680.348,-395.041 670.709,-399.438 680.987,-402.012 680.348,-395.041"/>
</g>
<!-- Node15&#45;&gt;Node13 -->
<g id="edge28" class="edge"><title>Node15&#45;&gt;Node13</title>
<path fill="none" stroke="midnightblue" d="M598.365,-393.195C570.05,-386.484 532.466,-374.839 503.5,-356 479.992,-340.711 459.798,-313.821 450.297,-299.905"/>
<polygon fill="midnightblue" stroke="midnightblue" points="597.819,-396.66 608.345,-395.448 599.361,-389.831 597.819,-396.66"/>
</g>
<!-- Node15&#45;&gt;Node14 -->
<g id="edge30" class="edge"><title>Node15&#45;&gt;Node14</title>
<path fill="none" stroke="midnightblue" d="M598.382,-395.004C564.191,-388.795 515.066,-376.969 476.5,-356 443.588,-338.105 435.629,-330.229 413.5,-300 400.216,-281.853 391.163,-256.656 387.039,-243.605"/>
<polygon fill="midnightblue" stroke="midnightblue" points="598.035,-398.496 608.485,-396.755 599.23,-391.599 598.035,-398.496"/>
</g>
<!-- Node16 -->
<g id="node16" class="node"><title>Node16</title>
<g id="a_node16"><a xlink:href="../../d0/d1e/encoder__decoder__state_8h.html" target="_top" xlink:title="encoder_decoder_state.h">
<polygon fill="white" stroke="black" points="646.5,-336.5 646.5,-355.5 772.5,-355.5 772.5,-336.5 646.5,-336.5"/>
<text text-anchor="middle" x="709.5" y="-343.5" font-family="Helvetica,sans-Serif" font-size="10.00">encoder_decoder_state.h</text>
</a>
</g>
</g>
<!-- Node15&#45;&gt;Node16 -->
<g id="edge24" class="edge"><title>Node15&#45;&gt;Node16</title>
<path fill="none" stroke="midnightblue" d="M658.814,-386.101C671.412,-376.382 687.428,-364.027 698.049,-355.834"/>
<polygon fill="midnightblue" stroke="midnightblue" points="656.527,-383.445 650.747,-392.324 660.802,-388.987 656.527,-383.445"/>
</g>
<!-- Node17 -->
<g id="node17" class="node"><title>Node17</title>
<g id="a_node17"><a xlink:href="../../d4/d8f/cellstate_8cpp.html" target="_top" xlink:title="cellstate.cpp">
<polygon fill="white" stroke="black" points="828.5,-336.5 828.5,-355.5 900.5,-355.5 900.5,-336.5 828.5,-336.5"/>
<text text-anchor="middle" x="864.5" y="-343.5" font-family="Helvetica,sans-Serif" font-size="10.00">cellstate.cpp</text>
</a>
</g>
</g>
<!-- Node15&#45;&gt;Node17 -->
<g id="edge26" class="edge"><title>Node15&#45;&gt;Node17</title>
<path fill="none" stroke="midnightblue" d="M680.532,-391.152C723.021,-380.955 788.722,-365.187 829.034,-355.512"/>
<polygon fill="midnightblue" stroke="midnightblue" points="679.692,-387.754 670.785,-393.492 681.326,-394.561 679.692,-387.754"/>
</g>
<!-- Node18&#45;&gt;Node2 -->
<g id="edge36" class="edge"><title>Node18&#45;&gt;Node2</title>
<path fill="none" stroke="midnightblue" d="M388.452,-448.075C332.487,-439.45 246.121,-425.709 171.5,-412 168.586,-411.465 165.567,-410.89 162.54,-410.299"/>
<polygon fill="midnightblue" stroke="midnightblue" points="388.123,-451.565 398.538,-449.625 389.186,-444.647 388.123,-451.565"/>
</g>
<!-- Node18&#45;&gt;Node5 -->
<g id="edge39" class="edge"><title>Node18&#45;&gt;Node5</title>
<path fill="none" stroke="midnightblue" d="M506.61,-453.686C623.458,-445.761 877.235,-421.268 929.5,-356 945.586,-335.912 927.672,-295.099 909.5,-280 871.689,-248.584 722.864,-238.818 658.465,-236.027"/>
<polygon fill="midnightblue" stroke="midnightblue" points="506.162,-450.207 496.414,-454.358 506.623,-457.192 506.162,-450.207"/>
</g>
<!-- Node18&#45;&gt;Node10 -->
<g id="edge37" class="edge"><title>Node18&#45;&gt;Node10</title>
<path fill="none" stroke="midnightblue" d="M460.426,-440.272C478.8,-416.494 511.799,-373.789 525.861,-355.591"/>
<polygon fill="midnightblue" stroke="midnightblue" points="457.515,-438.316 454.17,-448.368 463.054,-442.596 457.515,-438.316"/>
</g>
<!-- Node18&#45;&gt;Node11 -->
<g id="edge40" class="edge"><title>Node18&#45;&gt;Node11</title>
<path fill="none" stroke="midnightblue" d="M467.382,-442.149C478.532,-433.613 492.558,-422.525 504.5,-412 531.143,-388.518 537.109,-381.813 561.5,-356 580.055,-336.363 600.697,-312.206 611.318,-299.593"/>
<polygon fill="midnightblue" stroke="midnightblue" points="465.006,-439.559 459.151,-448.389 469.234,-445.137 465.006,-439.559"/>
</g>
<!-- Node18&#45;&gt;Node12 -->
<g id="edge42" class="edge"><title>Node18&#45;&gt;Node12</title>
<path fill="none" stroke="midnightblue" d="M402.781,-445.495C357.624,-430.866 294.5,-400.795 294.5,-347 294.5,-347 294.5,-347 294.5,-289 294.5,-226.735 377.984,-196.949 423.966,-185.266"/>
<polygon fill="midnightblue" stroke="midnightblue" points="401.811,-448.859 412.399,-448.47 403.879,-442.171 401.811,-448.859"/>
</g>
<!-- Node18&#45;&gt;Node13 -->
<g id="edge41" class="edge"><title>Node18&#45;&gt;Node13</title>
<path fill="none" stroke="midnightblue" d="M447.155,-437.93C446.505,-401.92 445.119,-325.231 444.655,-299.568"/>
<polygon fill="midnightblue" stroke="midnightblue" points="443.658,-438.14 447.339,-448.075 450.657,-438.013 443.658,-438.14"/>
</g>
<!-- Node18&#45;&gt;Node14 -->
<g id="edge43" class="edge"><title>Node18&#45;&gt;Node14</title>
<path fill="none" stroke="midnightblue" d="M441.153,-438.572C431.24,-409.399 411.839,-350.685 398.5,-300 393.271,-280.129 388.545,-256.466 386.151,-243.892"/>
<polygon fill="midnightblue" stroke="midnightblue" points="437.907,-439.899 444.455,-448.229 444.531,-437.634 437.907,-439.899"/>
</g>
<!-- Node18&#45;&gt;Node15 -->
<g id="edge38" class="edge"><title>Node18&#45;&gt;Node15</title>
<path fill="none" stroke="midnightblue" d="M487.683,-445.699C523.919,-435.507 576.414,-420.743 609.219,-411.516"/>
<polygon fill="midnightblue" stroke="midnightblue" points="486.602,-442.367 477.923,-448.444 488.497,-449.105 486.602,-442.367"/>
</g>
<!-- Node19 -->
<g id="node19" class="node"><title>Node19</title>
<g id="a_node19"><a xlink:href="../../d8/dd8/amun_2gpu_2npz__converter_8h.html" target="_top" xlink:title="npz_converter.h">
<polygon fill="white" stroke="black" points="180.5,-392.5 180.5,-411.5 266.5,-411.5 266.5,-392.5 180.5,-392.5"/>
<text text-anchor="middle" x="223.5" y="-399.5" font-family="Helvetica,sans-Serif" font-size="10.00">npz_converter.h</text>
</a>
</g>
</g>
<!-- Node18&#45;&gt;Node19 -->
<g id="edge44" class="edge"><title>Node18&#45;&gt;Node19</title>
<path fill="none" stroke="midnightblue" d="M402.237,-446.088C359.918,-435.887 297.591,-420.861 258.827,-411.516"/>
<polygon fill="midnightblue" stroke="midnightblue" points="401.465,-449.502 412.007,-448.444 403.105,-442.697 401.465,-449.502"/>
</g>
<!-- Node20 -->
<g id="node20" class="node"><title>Node20</title>
<g id="a_node20"><a xlink:href="../../d0/d2c/amun_2gpu_2dl4mt_2model_8h.html" target="_top" xlink:title="model.h">
<polygon fill="white" stroke="black" points="137,-280.5 137,-299.5 188,-299.5 188,-280.5 137,-280.5"/>
<text text-anchor="middle" x="162.5" y="-287.5" font-family="Helvetica,sans-Serif" font-size="10.00">model.h</text>
</a>
</g>
</g>
<!-- Node19&#45;&gt;Node20 -->
<g id="edge45" class="edge"><title>Node19&#45;&gt;Node20</title>
<path fill="none" stroke="midnightblue" d="M213.696,-383.32C200.414,-359.37 177.222,-317.548 167.264,-299.591"/>
<polygon fill="midnightblue" stroke="midnightblue" points="210.803,-385.321 218.713,-392.368 216.925,-381.926 210.803,-385.321"/>
</g>
<!-- Node20&#45;&gt;Node5 -->
<g id="edge47" class="edge"><title>Node20&#45;&gt;Node5</title>
<path fill="none" stroke="midnightblue" d="M198.344,-284.846C287.248,-274.544 516.626,-247.964 598.724,-238.45"/>
<polygon fill="midnightblue" stroke="midnightblue" points="197.749,-281.392 188.218,-286.02 198.554,-288.345 197.749,-281.392"/>
</g>
<!-- Node20&#45;&gt;Node6 -->
<g id="edge48" class="edge"><title>Node20&#45;&gt;Node6</title>
<path fill="none" stroke="midnightblue" d="M129.006,-276.496C102.13,-264.534 71.3465,-245.215 87.5,-224 129.878,-168.343 353.577,-135.548 428.798,-125.965"/>
<polygon fill="midnightblue" stroke="midnightblue" points="127.692,-279.741 138.266,-280.412 130.419,-273.293 127.692,-279.741"/>
</g>
<!-- Node20&#45;&gt;Node12 -->
<g id="edge49" class="edge"><title>Node20&#45;&gt;Node12</title>
<path fill="none" stroke="midnightblue" d="M184.052,-274.975C207.116,-260.489 245.169,-238.07 280.5,-224 329.082,-204.653 388.659,-191.279 423.71,-184.397"/>
<polygon fill="midnightblue" stroke="midnightblue" points="181.977,-272.147 175.419,-280.468 185.735,-278.053 181.977,-272.147"/>
</g>
<!-- Node20&#45;&gt;Node14 -->
<g id="edge50" class="edge"><title>Node20&#45;&gt;Node14</title>
<path fill="none" stroke="midnightblue" d="M198.365,-280.276C239.932,-270.165 307.992,-253.61 349.281,-243.567"/>
<polygon fill="midnightblue" stroke="midnightblue" points="197.29,-276.935 188.401,-282.7 198.945,-283.737 197.29,-276.935"/>
</g>
<!-- Node21 -->
<g id="node21" class="node"><title>Node21</title>
<g id="a_node21"><a xlink:href="../../da/d6b/encoder__decoder__loader_8h.html" target="_top" xlink:title="encoder_decoder_loader.h">
<polygon fill="white" stroke="black" points="97,-224.5 97,-243.5 228,-243.5 228,-224.5 97,-224.5"/>
<text text-anchor="middle" x="162.5" y="-231.5" font-family="Helvetica,sans-Serif" font-size="10.00">encoder_decoder_loader.h</text>
</a>
</g>
</g>
<!-- Node20&#45;&gt;Node21 -->
<g id="edge46" class="edge"><title>Node20&#45;&gt;Node21</title>
<path fill="none" stroke="midnightblue" d="M162.5,-269.805C162.5,-260.91 162.5,-250.78 162.5,-243.751"/>
<polygon fill="midnightblue" stroke="midnightblue" points="159,-270.083 162.5,-280.083 166,-270.083 159,-270.083"/>
</g>
<!-- Node22&#45;&gt;Node18 -->
<g id="edge52" class="edge"><title>Node22&#45;&gt;Node18</title>
<path fill="none" stroke="midnightblue" d="M320.203,-501.172C350.896,-491.004 394.419,-476.585 421.793,-467.516"/>
<polygon fill="midnightblue" stroke="midnightblue" points="318.72,-497.976 310.328,-504.444 320.921,-504.621 318.72,-497.976"/>
</g>
<!-- Node23 -->
<g id="node23" class="node"><title>Node23</title>
<g id="a_node23"><a xlink:href="../../d7/d58/amun_2gpu_2mblas_2nth__element_8h.html" target="_top" xlink:title="nth_element.h">
<polygon fill="white" stroke="black" points="200.5,-448.5 200.5,-467.5 278.5,-467.5 278.5,-448.5 200.5,-448.5"/>
<text text-anchor="middle" x="239.5" y="-455.5" font-family="Helvetica,sans-Serif" font-size="10.00">nth_element.h</text>
</a>
</g>
</g>
<!-- Node22&#45;&gt;Node23 -->
<g id="edge53" class="edge"><title>Node22&#45;&gt;Node23</title>
<path fill="none" stroke="midnightblue" d="M270.453,-496.144C262.613,-486.736 253.171,-475.405 246.793,-467.751"/>
<polygon fill="midnightblue" stroke="midnightblue" points="267.979,-498.641 277.069,-504.083 273.356,-494.16 267.979,-498.641"/>
</g>
<!-- Node23&#45;&gt;Node2 -->
<g id="edge54" class="edge"><title>Node23&#45;&gt;Node2</title>
<path fill="none" stroke="midnightblue" d="M212.251,-443.862C191.484,-433.849 163.477,-420.346 145.45,-411.655"/>
<polygon fill="midnightblue" stroke="midnightblue" points="210.977,-447.134 221.505,-448.324 214.018,-440.828 210.977,-447.134"/>
</g>
</g>
</svg>
