<?xml version="1.0" encoding="UTF-8" standalone="no"?>
<!DOCTYPE svg PUBLIC "-//W3C//DTD SVG 1.1//EN"
 "http://www.w3.org/Graphics/SVG/1.1/DTD/svg11.dtd">
<!-- Generated by graphviz version 2.38.0 (20140413.2041)
 -->
<!-- Title: VocabGetter Pages: 1 -->
<svg width="222pt" height="182pt"
 viewBox="0.00 0.00 221.50 182.00" xmlns="http://www.w3.org/2000/svg" xmlns:xlink="http://www.w3.org/1999/xlink">
<g id="graph0" class="graph" transform="scale(1 1) rotate(0) translate(4 178)">
<title>VocabGetter</title>
<polygon fill="white" stroke="none" points="-4,4 -4,-178 217.5,-178 217.5,4 -4,4"/>
<!-- Node1 -->
<g id="node1" class="node"><title>Node1</title>
<polygon fill="#bfbfbf" stroke="black" points="69,-0.5 69,-68.5 155,-68.5 155,-0.5 69,-0.5"/>
<text text-anchor="middle" x="112" y="-56.5" font-family="Helvetica,sans-Serif" font-size="10.00">VocabGetter</text>
<polyline fill="none" stroke="black" points="69,-49.5 155,-49.5 "/>
<text text-anchor="start" x="77" y="-37.5" font-family="Helvetica,sans-Serif" font-size="10.00">&#45; vocab_</text>
<polyline fill="none" stroke="black" points="69,-30.5 155,-30.5 "/>
<text text-anchor="start" x="77" y="-18.5" font-family="Helvetica,sans-Serif" font-size="10.00">+ VocabGetter()</text>
<text text-anchor="start" x="77" y="-7.5" font-family="Helvetica,sans-Serif" font-size="10.00">+ Add()</text>
</g>
<!-- Node2 -->
<g id="node2" class="node"><title>Node2</title>
<polygon fill="white" stroke="#bfbfbf" points="0,-116.5 0,-173.5 108,-173.5 108,-116.5 0,-116.5"/>
<text text-anchor="middle" x="54" y="-161.5" font-family="Helvetica,sans-Serif" font-size="10.00">lm::EnumerateVocab</text>
<polyline fill="none" stroke="#bfbfbf" points="0,-154.5 108,-154.5 "/>
<text text-anchor="middle" x="54" y="-142.5" font-family="Helvetica,sans-Serif" font-size="10.00"> </text>
<polyline fill="none" stroke="#bfbfbf" points="0,-135.5 108,-135.5 "/>
<text text-anchor="middle" x="54" y="-123.5" font-family="Helvetica,sans-Serif" font-size="10.00"> </text>
</g>
<!-- Node2&#45;&gt;Node1 -->
<g id="edge1" class="edge"><title>Node2&#45;&gt;Node1</title>
<path fill="none" stroke="midnightblue" d="M73.532,-107.462C80.269,-94.8589 87.7717,-80.8235 94.3495,-68.5186"/>
<polygon fill="none" stroke="midnightblue" points="70.4136,-105.871 68.7859,-116.34 76.587,-109.171 70.4136,-105.871"/>
</g>
<!-- Node3 -->
<g id="node3" class="node"><title>Node3</title>
<g id="a_node3"><a xlink:title="STL class. ">
<polygon fill="white" stroke="#bfbfbf" points="126.5,-116.5 126.5,-173.5 213.5,-173.5 213.5,-116.5 126.5,-116.5"/>
<text text-anchor="middle" x="170" y="-161.5" font-family="Helvetica,sans-Serif" font-size="10.00">std::vector&lt; T &gt;</text>
<polyline fill="none" stroke="#bfbfbf" points="126.5,-154.5 213.5,-154.5 "/>
<text text-anchor="middle" x="170" y="-142.5" font-family="Helvetica,sans-Serif" font-size="10.00"> </text>
<polyline fill="none" stroke="#bfbfbf" points="126.5,-135.5 213.5,-135.5 "/>
<text text-anchor="middle" x="170" y="-123.5" font-family="Helvetica,sans-Serif" font-size="10.00"> </text>
</a>
</g>
</g>
<!-- Node3&#45;&gt;Node1 -->
<g id="edge2" class="edge"><title>Node3&#45;&gt;Node1</title>
<path fill="none" stroke="#404040" d="M155.214,-116.34C149.192,-105.074 142.083,-91.7757 135.389,-79.253"/>
<polygon fill="none" stroke="#404040" points="135.308,-79.1014 128.951,-75.6957 129.65,-68.5186 136.007,-71.9242 135.308,-79.1014"/>
<text text-anchor="middle" x="157.5" y="-90" font-family="Helvetica,sans-Serif" font-size="10.00"> &#45;vm_</text>
</g>
</g>
</svg>
