<?xml version="1.0" encoding="UTF-8" standalone="no"?>
<!DOCTYPE svg PUBLIC "-//W3C//DTD SVG 1.1//EN"
 "http://www.w3.org/Graphics/SVG/1.1/DTD/svg11.dtd">
<!-- Generated by graphviz version 2.38.0 (20140413.2041)
 -->
<!-- Title: logging.cpp Pages: 1 -->
<svg width="152pt" height="140pt"
 viewBox="0.00 0.00 152.00 140.00" xmlns="http://www.w3.org/2000/svg" xmlns:xlink="http://www.w3.org/1999/xlink">
<g id="graph0" class="graph" transform="scale(1 1) rotate(0) translate(4 136)">
<title>logging.cpp</title>
<polygon fill="white" stroke="none" points="-4,4 -4,-136 148,-136 148,4 -4,4"/>
<!-- Node1 -->
<g id="node1" class="node"><title>Node1</title>
<polygon fill="#bfbfbf" stroke="black" points="49.5,-112.5 49.5,-131.5 115.5,-131.5 115.5,-112.5 49.5,-112.5"/>
<text text-anchor="middle" x="82.5" y="-119.5" font-family="Helvetica,sans-Serif" font-size="10.00">logging.cpp</text>
</g>
<!-- Node2 -->
<g id="node2" class="node"><title>Node2</title>
<g id="a_node2"><a xlink:href="../../d8/dbe/amun_2common_2logging_8h.html" target="_top" xlink:title="logging.h">
<polygon fill="white" stroke="black" points="54.5,-56.5 54.5,-75.5 110.5,-75.5 110.5,-56.5 54.5,-56.5"/>
<text text-anchor="middle" x="82.5" y="-63.5" font-family="Helvetica,sans-Serif" font-size="10.00">logging.h</text>
</a>
</g>
</g>
<!-- Node1&#45;&gt;Node2 -->
<g id="edge1" class="edge"><title>Node1&#45;&gt;Node2</title>
<path fill="none" stroke="midnightblue" d="M82.5,-112.083C82.5,-105.006 82.5,-94.8611 82.5,-85.9865"/>
<polygon fill="midnightblue" stroke="midnightblue" points="86.0001,-85.751 82.5,-75.7511 79.0001,-85.7511 86.0001,-85.751"/>
</g>
<!-- Node3 -->
<g id="node3" class="node"><title>Node3</title>
<polygon fill="white" stroke="#bfbfbf" points="0,-0.5 0,-19.5 85,-19.5 85,-0.5 0,-0.5"/>
<text text-anchor="middle" x="42.5" y="-7.5" font-family="Helvetica,sans-Serif" font-size="10.00">spdlog/spdlog.h</text>
</g>
<!-- Node2&#45;&gt;Node3 -->
<g id="edge2" class="edge"><title>Node2&#45;&gt;Node3</title>
<path fill="none" stroke="midnightblue" d="M75.8948,-56.083C70.2448,-48.4554 61.9552,-37.2645 55.0488,-27.9408"/>
<polygon fill="midnightblue" stroke="midnightblue" points="57.7471,-25.7034 48.9823,-19.7511 52.1221,-29.87 57.7471,-25.7034"/>
</g>
<!-- Node4 -->
<g id="node4" class="node"><title>Node4</title>
<polygon fill="white" stroke="#bfbfbf" points="103,-0.5 103,-19.5 144,-19.5 144,-0.5 103,-0.5"/>
<text text-anchor="middle" x="123.5" y="-7.5" font-family="Helvetica,sans-Serif" font-size="10.00">string</text>
</g>
<!-- Node2&#45;&gt;Node4 -->
<g id="edge3" class="edge"><title>Node2&#45;&gt;Node4</title>
<path fill="none" stroke="midnightblue" d="M89.2703,-56.083C95.0616,-48.4554 103.558,-37.2645 110.638,-27.9408"/>
<polygon fill="midnightblue" stroke="midnightblue" points="113.596,-29.8321 116.856,-19.7511 108.021,-25.5991 113.596,-29.8321"/>
</g>
</g>
</svg>
