<?xml version="1.0" encoding="UTF-8" standalone="no"?>
<!DOCTYPE svg PUBLIC "-//W3C//DTD SVG 1.1//EN"
 "http://www.w3.org/Graphics/SVG/1.1/DTD/svg11.dtd">
<!-- Generated by graphviz version 2.38.0 (20140413.2041)
 -->
<!-- Title: marian::Allocator::insertGap Pages: 1 -->
<svg width="384pt" height="85pt"
 viewBox="0.00 0.00 384.00 85.00" xmlns="http://www.w3.org/2000/svg" xmlns:xlink="http://www.w3.org/1999/xlink">
<g id="graph0" class="graph" transform="scale(1 1) rotate(0) translate(4 81)">
<title>marian::Allocator::insertGap</title>
<polygon fill="white" stroke="none" points="-4,4 -4,-81 380,-81 380,4 -4,4"/>
<!-- Node1 -->
<g id="node1" class="node"><title>Node1</title>
<polygon fill="#bfbfbf" stroke="black" points="0,-33 0,-63 96,-63 96,-33 0,-33"/>
<text text-anchor="start" x="8" y="-51" font-family="Helvetica,sans-Serif" font-size="10.00">marian::Allocator::</text>
<text text-anchor="middle" x="48" y="-40" font-family="Helvetica,sans-Serif" font-size="10.00">insertGap</text>
</g>
<!-- Node2 -->
<g id="node2" class="node"><title>Node2</title>
<g id="a_node2"><a xlink:href="../../d9/d39/classmarian_1_1Gap.html#a7f8a530a91cd2b24a39d54eb18e05d19" target="_top" xlink:title="marian::Gap::size">
<polygon fill="white" stroke="black" points="281.5,-57.5 281.5,-76.5 375.5,-76.5 375.5,-57.5 281.5,-57.5"/>
<text text-anchor="middle" x="328.5" y="-64.5" font-family="Helvetica,sans-Serif" font-size="10.00">marian::Gap::size</text>
</a>
</g>
</g>
<!-- Node1&#45;&gt;Node2 -->
<g id="edge1" class="edge"><title>Node1&#45;&gt;Node2</title>
<path fill="none" stroke="midnightblue" d="M96.0867,-60.7104C107.737,-63.3187 120.249,-65.6722 132,-67 178.594,-72.265 231.835,-71.8473 270.979,-70.3471"/>
<polygon fill="midnightblue" stroke="midnightblue" points="271.275,-73.8378 281.12,-69.9222 270.982,-66.844 271.275,-73.8378"/>
</g>
<!-- Node3 -->
<g id="node3" class="node"><title>Node3</title>
<g id="a_node3"><a xlink:href="../../d9/d39/classmarian_1_1Gap.html#a29b456bc20296682ab77f16b185acbd3" target="_top" xlink:title="marian::Gap::adjacent">
<polygon fill="white" stroke="black" points="132,-38.5 132,-57.5 245,-57.5 245,-38.5 132,-38.5"/>
<text text-anchor="middle" x="188.5" y="-45.5" font-family="Helvetica,sans-Serif" font-size="10.00">marian::Gap::adjacent</text>
</a>
</g>
</g>
<!-- Node1&#45;&gt;Node3 -->
<g id="edge2" class="edge"><title>Node1&#45;&gt;Node3</title>
<path fill="none" stroke="midnightblue" d="M96.2765,-48C104.5,-48 113.184,-48 121.796,-48"/>
<polygon fill="midnightblue" stroke="midnightblue" points="121.839,-51.5001 131.839,-48 121.839,-44.5001 121.839,-51.5001"/>
</g>
<!-- Node5 -->
<g id="node5" class="node"><title>Node5</title>
<g id="a_node5"><a xlink:href="../../d9/d39/classmarian_1_1Gap.html#abf7f297ffce3fb79405d73f98a26daf9" target="_top" xlink:title="marian::Gap::combine">
<polygon fill="white" stroke="black" points="132,-0.5 132,-19.5 245,-19.5 245,-0.5 132,-0.5"/>
<text text-anchor="middle" x="188.5" y="-7.5" font-family="Helvetica,sans-Serif" font-size="10.00">marian::Gap::combine</text>
</a>
</g>
</g>
<!-- Node1&#45;&gt;Node5 -->
<g id="edge5" class="edge"><title>Node1&#45;&gt;Node5</title>
<path fill="none" stroke="midnightblue" d="M96.2765,-35.0288C111.303,-30.9061 127.869,-26.3609 142.714,-22.2879"/>
<polygon fill="midnightblue" stroke="midnightblue" points="143.959,-25.5757 152.676,-19.5545 142.107,-18.8252 143.959,-25.5757"/>
</g>
<!-- Node3&#45;&gt;Node2 -->
<g id="edge4" class="edge"><title>Node3&#45;&gt;Node2</title>
<path fill="none" stroke="midnightblue" d="M245.232,-55.6733C253.835,-56.8577 262.723,-58.0814 271.335,-59.2672"/>
<polygon fill="midnightblue" stroke="midnightblue" points="270.9,-62.7402 281.284,-60.6369 271.855,-55.8056 270.9,-62.7402"/>
</g>
<!-- Node4 -->
<g id="node4" class="node"><title>Node4</title>
<g id="a_node4"><a xlink:href="../../d9/d39/classmarian_1_1Gap.html#acbc9a4d43af0bbd860c4dddd01fa6bca" target="_top" xlink:title="marian::Gap::data">
<polygon fill="white" stroke="black" points="281,-10.5 281,-29.5 376,-29.5 376,-10.5 281,-10.5"/>
<text text-anchor="middle" x="328.5" y="-17.5" font-family="Helvetica,sans-Serif" font-size="10.00">marian::Gap::data</text>
</a>
</g>
</g>
<!-- Node3&#45;&gt;Node4 -->
<g id="edge3" class="edge"><title>Node3&#45;&gt;Node4</title>
<path fill="none" stroke="midnightblue" d="M236.606,-38.4423C247.597,-36.2122 259.415,-33.8144 270.774,-31.5096"/>
<polygon fill="midnightblue" stroke="midnightblue" points="271.502,-34.9333 280.606,-29.5146 270.11,-28.0731 271.502,-34.9333"/>
</g>
<!-- Node5&#45;&gt;Node4 -->
<g id="edge6" class="edge"><title>Node5&#45;&gt;Node4</title>
<path fill="none" stroke="midnightblue" d="M245.232,-14.0386C253.635,-14.6474 262.31,-15.2761 270.734,-15.8866"/>
<polygon fill="midnightblue" stroke="midnightblue" points="270.623,-19.3876 280.85,-16.6196 271.129,-12.4059 270.623,-19.3876"/>
</g>
</g>
</svg>
