<?xml version="1.0" encoding="UTF-8" standalone="no"?>
<!DOCTYPE svg PUBLIC "-//W3C//DTD SVG 1.1//EN"
 "http://www.w3.org/Graphics/SVG/1.1/DTD/svg11.dtd">
<!-- Generated by graphviz version 2.38.0 (20140413.2041)
 -->
<!-- Title: amunmt::History Pages: 1 -->
<svg width="288pt" height="292pt"
 viewBox="0.00 0.00 287.50 292.00" xmlns="http://www.w3.org/2000/svg" xmlns:xlink="http://www.w3.org/1999/xlink">
<g id="graph0" class="graph" transform="scale(1 1) rotate(0) translate(4 288)">
<title>amunmt::History</title>
<polygon fill="white" stroke="none" points="-4,4 -4,-288 283.5,-288 283.5,4 -4,4"/>
<!-- Node1 -->
<g id="node1" class="node"><title>Node1</title>
<polygon fill="#bfbfbf" stroke="black" points="83,-0.5 83,-156.5 172,-156.5 172,-0.5 83,-0.5"/>
<text text-anchor="middle" x="127.5" y="-144.5" font-family="Helvetica,sans-Serif" font-size="10.00">amunmt::History</text>
<polyline fill="none" stroke="black" points="83,-137.5 172,-137.5 "/>
<text text-anchor="start" x="91" y="-125.5" font-family="Helvetica,sans-Serif" font-size="10.00">&#45; normalize_</text>
<text text-anchor="start" x="91" y="-114.5" font-family="Helvetica,sans-Serif" font-size="10.00">&#45; lineNo_</text>
<text text-anchor="start" x="91" y="-103.5" font-family="Helvetica,sans-Serif" font-size="10.00">&#45; maxLength_</text>
<polyline fill="none" stroke="black" points="83,-96.5 172,-96.5 "/>
<text text-anchor="start" x="91" y="-84.5" font-family="Helvetica,sans-Serif" font-size="10.00">+ History()</text>
<text text-anchor="start" x="91" y="-73.5" font-family="Helvetica,sans-Serif" font-size="10.00">+ Add()</text>
<text text-anchor="start" x="91" y="-62.5" font-family="Helvetica,sans-Serif" font-size="10.00">+ size()</text>
<text text-anchor="start" x="91" y="-51.5" font-family="Helvetica,sans-Serif" font-size="10.00">+ front()</text>
<text text-anchor="start" x="91" y="-40.5" font-family="Helvetica,sans-Serif" font-size="10.00">+ NBest()</text>
<text text-anchor="start" x="91" y="-29.5" font-family="Helvetica,sans-Serif" font-size="10.00">+ Top()</text>
<text text-anchor="start" x="91" y="-18.5" font-family="Helvetica,sans-Serif" font-size="10.00">+ GetLineNum()</text>
<text text-anchor="start" x="91" y="-7.5" font-family="Helvetica,sans-Serif" font-size="10.00">&#45; History()</text>
</g>
<!-- Node2 -->
<g id="node2" class="node"><title>Node2</title>
<polygon fill="white" stroke="#bfbfbf" points="0,-215.5 0,-272.5 107,-272.5 107,-215.5 0,-215.5"/>
<text text-anchor="middle" x="53.5" y="-260.5" font-family="Helvetica,sans-Serif" font-size="10.00">std::vector&lt; Beam &gt;</text>
<polyline fill="none" stroke="#bfbfbf" points="0,-253.5 107,-253.5 "/>
<text text-anchor="middle" x="53.5" y="-241.5" font-family="Helvetica,sans-Serif" font-size="10.00"> </text>
<polyline fill="none" stroke="#bfbfbf" points="0,-234.5 107,-234.5 "/>
<text text-anchor="middle" x="53.5" y="-222.5" font-family="Helvetica,sans-Serif" font-size="10.00"> </text>
</g>
<!-- Node2&#45;&gt;Node1 -->
<g id="edge1" class="edge"><title>Node2&#45;&gt;Node1</title>
<path fill="none" stroke="#404040" d="M66.0531,-215.264C72.0741,-201.961 79.6585,-185.204 87.4248,-168.045"/>
<polygon fill="none" stroke="#404040" points="87.592,-167.675 86.4219,-160.56 92.54,-156.743 93.7101,-163.858 87.592,-167.675"/>
<text text-anchor="middle" x="105" y="-178" font-family="Helvetica,sans-Serif" font-size="10.00"> &#45;history_</text>
</g>
<!-- Node3 -->
<g id="node3" class="node"><title>Node3</title>
<polygon fill="white" stroke="#bfbfbf" points="125.5,-204.5 125.5,-283.5 279.5,-283.5 279.5,-204.5 125.5,-204.5"/>
<text text-anchor="start" x="133.5" y="-271.5" font-family="Helvetica,sans-Serif" font-size="10.00">std::priority_queue</text>
<text text-anchor="start" x="133.5" y="-260.5" font-family="Helvetica,sans-Serif" font-size="10.00">&lt; amunmt::History::Hypothesis</text>
<text text-anchor="middle" x="202.5" y="-249.5" font-family="Helvetica,sans-Serif" font-size="10.00">Coord &gt;</text>
<polyline fill="none" stroke="#bfbfbf" points="125.5,-242.5 279.5,-242.5 "/>
<text text-anchor="middle" x="202.5" y="-230.5" font-family="Helvetica,sans-Serif" font-size="10.00"> </text>
<polyline fill="none" stroke="#bfbfbf" points="125.5,-223.5 279.5,-223.5 "/>
<text text-anchor="middle" x="202.5" y="-211.5" font-family="Helvetica,sans-Serif" font-size="10.00"> </text>
</g>
<!-- Node3&#45;&gt;Node1 -->
<g id="edge2" class="edge"><title>Node3&#45;&gt;Node1</title>
<path fill="none" stroke="#404040" d="M184.726,-204.253C179.634,-193.151 173.863,-180.57 167.993,-167.775"/>
<polygon fill="none" stroke="#404040" points="167.828,-167.414 161.69,-163.629 162.824,-156.507 168.962,-160.293 167.828,-167.414"/>
<text text-anchor="middle" x="201" y="-178" font-family="Helvetica,sans-Serif" font-size="10.00"> &#45;topHyps_</text>
</g>
</g>
</svg>
