<?xml version="1.0" encoding="UTF-8" standalone="no"?>
<!DOCTYPE svg PUBLIC "-//W3C//DTD SVG 1.1//EN"
 "http://www.w3.org/Graphics/SVG/1.1/DTD/svg11.dtd">
<!-- Generated by graphviz version 2.38.0 (20140413.2041)
 -->
<!-- Title: neural_phrase.h Pages: 1 -->
<svg width="164pt" height="84pt"
 viewBox="0.00 0.00 163.50 84.00" xmlns="http://www.w3.org/2000/svg" xmlns:xlink="http://www.w3.org/1999/xlink">
<g id="graph0" class="graph" transform="scale(1 1) rotate(0) translate(4 80)">
<title>neural_phrase.h</title>
<polygon fill="white" stroke="none" points="-4,4 -4,-80 159.5,-80 159.5,4 -4,4"/>
<!-- Node1 -->
<g id="node1" class="node"><title>Node1</title>
<polygon fill="#bfbfbf" stroke="black" points="48,-56.5 48,-75.5 134,-75.5 134,-56.5 48,-56.5"/>
<text text-anchor="middle" x="91" y="-63.5" font-family="Helvetica,sans-Serif" font-size="10.00">neural_phrase.h</text>
</g>
<!-- Node2 -->
<g id="node2" class="node"><title>Node2</title>
<g id="a_node2"><a xlink:href="$d6/d99/neural__phrase_8cpp.html" xlink:title="neural_phrase.cpp">
<polygon fill="white" stroke="black" points="0,-0.5 0,-19.5 96,-19.5 96,-0.5 0,-0.5"/>
<text text-anchor="middle" x="48" y="-7.5" font-family="Helvetica,sans-Serif" font-size="10.00">neural_phrase.cpp</text>
</a>
</g>
</g>
<!-- Node1&#45;&gt;Node2 -->
<g id="edge1" class="edge"><title>Node1&#45;&gt;Node2</title>
<path fill="none" stroke="midnightblue" d="M77.5776,-48.144C70.0858,-38.7357 61.0629,-27.4046 54.9685,-19.7511"/>
<polygon fill="midnightblue" stroke="midnightblue" points="74.9321,-50.4404 83.8994,-56.083 80.4081,-46.0799 74.9321,-50.4404"/>
</g>
<!-- Node3 -->
<g id="node3" class="node"><title>Node3</title>
<g id="a_node3"><a xlink:href="$da/d6d/nmt_8h.html" xlink:title="nmt.h">
<polygon fill="white" stroke="black" points="114.5,-0.5 114.5,-19.5 155.5,-19.5 155.5,-0.5 114.5,-0.5"/>
<text text-anchor="middle" x="135" y="-7.5" font-family="Helvetica,sans-Serif" font-size="10.00">nmt.h</text>
</a>
</g>
</g>
<!-- Node1&#45;&gt;Node3 -->
<g id="edge2" class="edge"><title>Node1&#45;&gt;Node3</title>
<path fill="none" stroke="midnightblue" d="M104.735,-48.144C112.401,-38.7357 121.633,-27.4046 127.869,-19.7511"/>
<polygon fill="midnightblue" stroke="midnightblue" points="101.869,-46.1198 98.2657,-56.083 107.296,-50.5415 101.869,-46.1198"/>
</g>
</g>
</svg>
