<?xml version="1.0" encoding="UTF-8" standalone="no"?>
<!DOCTYPE svg PUBLIC "-//W3C//DTD SVG 1.1//EN"
 "http://www.w3.org/Graphics/SVG/1.1/DTD/svg11.dtd">
<!-- Generated by graphviz version 2.38.0 (20140413.2041)
 -->
<!-- Title: marian::DecoderHardSoftAtt Pages: 1 -->
<svg width="255pt" height="631pt"
 viewBox="0.00 0.00 255.00 631.00" xmlns="http://www.w3.org/2000/svg" xmlns:xlink="http://www.w3.org/1999/xlink">
<g id="graph0" class="graph" transform="scale(1 1) rotate(0) translate(4 627)">
<title>marian::DecoderHardSoftAtt</title>
<polygon fill="white" stroke="none" points="-4,4 -4,-627 251,-627 251,4 -4,4"/>
<!-- Node1 -->
<g id="node1" class="node"><title>Node1</title>
<polygon fill="#bfbfbf" stroke="black" points="78,-0.5 78,-79.5 218,-79.5 218,-0.5 78,-0.5"/>
<text text-anchor="middle" x="148" y="-67.5" font-family="Helvetica,sans-Serif" font-size="10.00">marian::DecoderHardSoftAtt</text>
<polyline fill="none" stroke="black" points="78,-60.5 218,-60.5 "/>
<text text-anchor="start" x="86" y="-48.5" font-family="Helvetica,sans-Serif" font-size="10.00"># rnn_</text>
<polyline fill="none" stroke="black" points="78,-41.5 218,-41.5 "/>
<text text-anchor="start" x="86" y="-29.5" font-family="Helvetica,sans-Serif" font-size="10.00">+ DecoderHardSoftAtt()</text>
<text text-anchor="start" x="86" y="-18.5" font-family="Helvetica,sans-Serif" font-size="10.00">+ step()</text>
<text text-anchor="start" x="86" y="-7.5" font-family="Helvetica,sans-Serif" font-size="10.00">+ getAlignments()</text>
</g>
<!-- Node2 -->
<g id="node2" class="node"><title>Node2</title>
<g id="a_node2"><a xlink:href="../../d1/dcc/classmarian_1_1DecoderHardAtt.html" target="_top" xlink:title="{marian::DecoderHardAtt\n|# rnn_\l|+ DecoderHardAtt()\l+ startState()\l+ step()\l+ groundTruth()\l+ selectEmbeddings()\l+ getAlignments()\l}">
<polygon fill="white" stroke="black" points="87,-117.5 87,-229.5 209,-229.5 209,-117.5 87,-117.5"/>
<text text-anchor="middle" x="148" y="-217.5" font-family="Helvetica,sans-Serif" font-size="10.00">marian::DecoderHardAtt</text>
<polyline fill="none" stroke="black" points="87,-210.5 209,-210.5 "/>
<text text-anchor="start" x="95" y="-198.5" font-family="Helvetica,sans-Serif" font-size="10.00"># rnn_</text>
<polyline fill="none" stroke="black" points="87,-191.5 209,-191.5 "/>
<text text-anchor="start" x="95" y="-179.5" font-family="Helvetica,sans-Serif" font-size="10.00">+ DecoderHardAtt()</text>
<text text-anchor="start" x="95" y="-168.5" font-family="Helvetica,sans-Serif" font-size="10.00">+ startState()</text>
<text text-anchor="start" x="95" y="-157.5" font-family="Helvetica,sans-Serif" font-size="10.00">+ step()</text>
<text text-anchor="start" x="95" y="-146.5" font-family="Helvetica,sans-Serif" font-size="10.00">+ groundTruth()</text>
<text text-anchor="start" x="95" y="-135.5" font-family="Helvetica,sans-Serif" font-size="10.00">+ selectEmbeddings()</text>
<text text-anchor="start" x="95" y="-124.5" font-family="Helvetica,sans-Serif" font-size="10.00">+ getAlignments()</text>
</a>
</g>
</g>
<!-- Node2&#45;&gt;Node1 -->
<g id="edge1" class="edge"><title>Node2&#45;&gt;Node1</title>
<path fill="none" stroke="midnightblue" d="M148,-107.32C148,-97.9041 148,-88.4729 148,-79.7985"/>
<polygon fill="none" stroke="midnightblue" points="144.5,-107.494 148,-117.494 151.5,-107.494 144.5,-107.494"/>
</g>
<!-- Node3 -->
<g id="node3" class="node"><title>Node3</title>
<g id="a_node3"><a xlink:href="../../db/d04/classmarian_1_1DecoderBase.html" target="_top" xlink:title="{marian::DecoderBase\n|# options_\l# inference_\l|+ DecoderBase()\l+ startState()\l+ step()\l+ groundTruth()\l+ selectEmbeddings()\l+ getAlignments()\l+ opt()\l}">
<polygon fill="white" stroke="black" points="0,-277.5 0,-411.5 112,-411.5 112,-277.5 0,-277.5"/>
<text text-anchor="middle" x="56" y="-399.5" font-family="Helvetica,sans-Serif" font-size="10.00">marian::DecoderBase</text>
<polyline fill="none" stroke="black" points="0,-392.5 112,-392.5 "/>
<text text-anchor="start" x="8" y="-380.5" font-family="Helvetica,sans-Serif" font-size="10.00"># options_</text>
<text text-anchor="start" x="8" y="-369.5" font-family="Helvetica,sans-Serif" font-size="10.00"># inference_</text>
<polyline fill="none" stroke="black" points="0,-362.5 112,-362.5 "/>
<text text-anchor="start" x="8" y="-350.5" font-family="Helvetica,sans-Serif" font-size="10.00">+ DecoderBase()</text>
<text text-anchor="start" x="8" y="-339.5" font-family="Helvetica,sans-Serif" font-size="10.00">+ startState()</text>
<text text-anchor="start" x="8" y="-328.5" font-family="Helvetica,sans-Serif" font-size="10.00">+ step()</text>
<text text-anchor="start" x="8" y="-317.5" font-family="Helvetica,sans-Serif" font-size="10.00">+ groundTruth()</text>
<text text-anchor="start" x="8" y="-306.5" font-family="Helvetica,sans-Serif" font-size="10.00">+ selectEmbeddings()</text>
<text text-anchor="start" x="8" y="-295.5" font-family="Helvetica,sans-Serif" font-size="10.00">+ getAlignments()</text>
<text text-anchor="start" x="8" y="-284.5" font-family="Helvetica,sans-Serif" font-size="10.00">+ opt()</text>
</a>
</g>
</g>
<!-- Node3&#45;&gt;Node2 -->
<g id="edge2" class="edge"><title>Node3&#45;&gt;Node2</title>
<path fill="none" stroke="midnightblue" d="M96.9529,-268.271C104.016,-255.296 111.241,-242.025 117.948,-229.704"/>
<polygon fill="none" stroke="midnightblue" points="93.804,-266.735 92.0968,-277.192 99.9521,-270.082 93.804,-266.735"/>
</g>
<!-- Node4 -->
<g id="node4" class="node"><title>Node4</title>
<g id="a_node4"><a xlink:title="STL class. ">
<polygon fill="white" stroke="#bfbfbf" points="26,-459.5 26,-516.5 86,-516.5 86,-459.5 26,-459.5"/>
<text text-anchor="middle" x="56" y="-504.5" font-family="Helvetica,sans-Serif" font-size="10.00">std::string</text>
<polyline fill="none" stroke="#bfbfbf" points="26,-497.5 86,-497.5 "/>
<text text-anchor="middle" x="56" y="-485.5" font-family="Helvetica,sans-Serif" font-size="10.00"> </text>
<polyline fill="none" stroke="#bfbfbf" points="26,-478.5 86,-478.5 "/>
<text text-anchor="middle" x="56" y="-466.5" font-family="Helvetica,sans-Serif" font-size="10.00"> </text>
</a>
</g>
</g>
<!-- Node4&#45;&gt;Node3 -->
<g id="edge3" class="edge"><title>Node4&#45;&gt;Node3</title>
<path fill="none" stroke="#404040" d="M56,-459.381C56,-449.02 56,-436.663 56,-423.97"/>
<polygon fill="none" stroke="#404040" points="56.0001,-423.753 52,-417.753 56,-411.753 60,-417.753 56.0001,-423.753"/>
<text text-anchor="middle" x="75" y="-433" font-family="Helvetica,sans-Serif" font-size="10.00"> #prefix_</text>
</g>
<!-- Node5 -->
<g id="node5" class="node"><title>Node5</title>
<polygon fill="white" stroke="#bfbfbf" points="8.5,-554.5 8.5,-622.5 103.5,-622.5 103.5,-554.5 8.5,-554.5"/>
<text text-anchor="start" x="16.5" y="-610.5" font-family="Helvetica,sans-Serif" font-size="10.00">std::basic_string&lt;</text>
<text text-anchor="middle" x="56" y="-599.5" font-family="Helvetica,sans-Serif" font-size="10.00"> char &gt;</text>
<polyline fill="none" stroke="#bfbfbf" points="8.5,-592.5 103.5,-592.5 "/>
<text text-anchor="middle" x="56" y="-580.5" font-family="Helvetica,sans-Serif" font-size="10.00"> </text>
<polyline fill="none" stroke="#bfbfbf" points="8.5,-573.5 103.5,-573.5 "/>
<text text-anchor="middle" x="56" y="-561.5" font-family="Helvetica,sans-Serif" font-size="10.00"> </text>
</g>
<!-- Node5&#45;&gt;Node4 -->
<g id="edge4" class="edge"><title>Node5&#45;&gt;Node4</title>
<path fill="none" stroke="midnightblue" d="M56,-544.375C56,-534.94 56,-525.201 56,-516.571"/>
<polygon fill="none" stroke="midnightblue" points="52.5001,-544.427 56,-554.427 59.5001,-544.427 52.5001,-544.427"/>
</g>
<!-- Node6 -->
<g id="node6" class="node"><title>Node6</title>
<polygon fill="white" stroke="#bfbfbf" points="130,-310.5 130,-378.5 228,-378.5 228,-310.5 130,-310.5"/>
<text text-anchor="start" x="138" y="-366.5" font-family="Helvetica,sans-Serif" font-size="10.00">std::unordered_set</text>
<text text-anchor="middle" x="179" y="-355.5" font-family="Helvetica,sans-Serif" font-size="10.00">&lt; Word &gt;</text>
<polyline fill="none" stroke="#bfbfbf" points="130,-348.5 228,-348.5 "/>
<text text-anchor="middle" x="179" y="-336.5" font-family="Helvetica,sans-Serif" font-size="10.00"> </text>
<polyline fill="none" stroke="#bfbfbf" points="130,-329.5 228,-329.5 "/>
<text text-anchor="middle" x="179" y="-317.5" font-family="Helvetica,sans-Serif" font-size="10.00"> </text>
</g>
<!-- Node6&#45;&gt;Node2 -->
<g id="edge5" class="edge"><title>Node6&#45;&gt;Node2</title>
<path fill="none" stroke="#404040" d="M172.875,-310.111C169.299,-290.615 164.656,-265.305 160.352,-241.838"/>
<polygon fill="none" stroke="#404040" points="160.304,-241.578 155.287,-236.398 158.139,-229.775 163.156,-234.955 160.304,-241.578"/>
<text text-anchor="middle" x="205.5" y="-251" font-family="Helvetica,sans-Serif" font-size="10.00"> #specialSymbols_</text>
</g>
</g>
</svg>
