<?xml version="1.0" encoding="UTF-8" standalone="no"?>
<!DOCTYPE svg PUBLIC "-//W3C//DTD SVG 1.1//EN"
 "http://www.w3.org/Graphics/SVG/1.1/DTD/svg11.dtd">
<!-- Generated by graphviz version 2.38.0 (20140413.2041)
 -->
<!-- Title: marian::Gap::size Pages: 1 -->
<svg width="393pt" height="192pt"
 viewBox="0.00 0.00 393.00 191.50" xmlns="http://www.w3.org/2000/svg" xmlns:xlink="http://www.w3.org/1999/xlink">
<g id="graph0" class="graph" transform="scale(1 1) rotate(0) translate(4 187.5)">
<title>marian::Gap::size</title>
<polygon fill="white" stroke="none" points="-4,4 -4,-187.5 389,-187.5 389,4 -4,4"/>
<!-- Node1 -->
<g id="node1" class="node"><title>Node1</title>
<polygon fill="#bfbfbf" stroke="black" points="0,-88 0,-107 94,-107 94,-88 0,-88"/>
<text text-anchor="middle" x="47" y="-95" font-family="Helvetica,sans-Serif" font-size="10.00">marian::Gap::size</text>
</g>
<!-- Node2 -->
<g id="node2" class="node"><title>Node2</title>
<g id="a_node2"><a xlink:href="$d9/d39/classmarian_1_1Gap.html#a796dcbf92563af49784a37248a6af154" xlink:title="marian::Gap::operator\&lt;">
<polygon fill="white" stroke="black" points="133,-164 133,-183 250,-183 250,-164 133,-164"/>
<text text-anchor="middle" x="191.5" y="-171" font-family="Helvetica,sans-Serif" font-size="10.00">marian::Gap::operator&lt;</text>
</a>
</g>
</g>
<!-- Node1&#45;&gt;Node2 -->
<g id="edge1" class="edge"><title>Node1&#45;&gt;Node2</title>
<path fill="none" stroke="midnightblue" d="M67.5536,-113.647C83.5358,-126.195 107.146,-143.294 130,-154.5 137.513,-158.184 145.897,-161.355 153.973,-163.993"/>
<polygon fill="midnightblue" stroke="midnightblue" points="69.5068,-110.727 59.5126,-107.21 65.1324,-116.192 69.5068,-110.727"/>
</g>
<!-- Node3 -->
<g id="node3" class="node"><title>Node3</title>
<g id="a_node3"><a xlink:href="$d9/d39/classmarian_1_1Gap.html#ad906f99514af8651c33410f283e834a0" xlink:title="marian::Gap::operator==">
<polygon fill="white" stroke="black" points="130,-126 130,-145 253,-145 253,-126 130,-126"/>
<text text-anchor="middle" x="191.5" y="-133" font-family="Helvetica,sans-Serif" font-size="10.00">marian::Gap::operator==</text>
</a>
</g>
</g>
<!-- Node1&#45;&gt;Node3 -->
<g id="edge2" class="edge"><title>Node1&#45;&gt;Node3</title>
<path fill="none" stroke="midnightblue" d="M93.6531,-109.674C113.358,-114.929 136.075,-120.987 154.553,-125.914"/>
<polygon fill="midnightblue" stroke="midnightblue" points="94.523,-106.284 83.9588,-107.089 92.7193,-113.048 94.523,-106.284"/>
</g>
<!-- Node4 -->
<g id="node4" class="node"><title>Node4</title>
<g id="a_node4"><a xlink:href="$d9/d39/classmarian_1_1Gap.html#a29b456bc20296682ab77f16b185acbd3" xlink:title="marian::Gap::adjacent">
<polygon fill="white" stroke="black" points="135,-88 135,-107 248,-107 248,-88 135,-88"/>
<text text-anchor="middle" x="191.5" y="-95" font-family="Helvetica,sans-Serif" font-size="10.00">marian::Gap::adjacent</text>
</a>
</g>
</g>
<!-- Node1&#45;&gt;Node4 -->
<g id="edge3" class="edge"><title>Node1&#45;&gt;Node4</title>
<path fill="none" stroke="midnightblue" d="M104.475,-97.5C114.446,-97.5 124.82,-97.5 134.77,-97.5"/>
<polygon fill="midnightblue" stroke="midnightblue" points="104.266,-94.0001 94.2657,-97.5 104.266,-101 104.266,-94.0001"/>
</g>
<!-- Node5 -->
<g id="node5" class="node"><title>Node5</title>
<g id="a_node5"><a xlink:href="$d0/d4c/classmarian_1_1Allocator.html#a29dec83519003c94b5ef7520a8235f5b" xlink:title="marian::Allocator::\linsertGap">
<polygon fill="white" stroke="black" points="289,-63.5 289,-93.5 385,-93.5 385,-63.5 289,-63.5"/>
<text text-anchor="start" x="297" y="-81.5" font-family="Helvetica,sans-Serif" font-size="10.00">marian::Allocator::</text>
<text text-anchor="middle" x="337" y="-70.5" font-family="Helvetica,sans-Serif" font-size="10.00">insertGap</text>
</a>
</g>
</g>
<!-- Node1&#45;&gt;Node5 -->
<g id="edge5" class="edge"><title>Node1&#45;&gt;Node5</title>
<path fill="none" stroke="midnightblue" d="M90.9269,-85.6165C103.425,-82.6855 117.169,-79.9671 130,-78.5 184.187,-72.3043 246.917,-73.4902 288.783,-75.4618"/>
<polygon fill="midnightblue" stroke="midnightblue" points="90.0943,-82.2169 81.2123,-87.9929 91.7576,-89.0165 90.0943,-82.2169"/>
</g>
<!-- Node6 -->
<g id="node6" class="node"><title>Node6</title>
<g id="a_node6"><a xlink:href="$d0/d4c/classmarian_1_1Allocator.html#a7deb1124f98c6f1befd7455326478e7c" xlink:title="marian::Allocator::\lalloc">
<polygon fill="white" stroke="black" points="143.5,-0.5 143.5,-30.5 239.5,-30.5 239.5,-0.5 143.5,-0.5"/>
<text text-anchor="start" x="151.5" y="-18.5" font-family="Helvetica,sans-Serif" font-size="10.00">marian::Allocator::</text>
<text text-anchor="middle" x="191.5" y="-7.5" font-family="Helvetica,sans-Serif" font-size="10.00">alloc</text>
</a>
</g>
</g>
<!-- Node1&#45;&gt;Node6 -->
<g id="edge6" class="edge"><title>Node1&#45;&gt;Node6</title>
<path fill="none" stroke="midnightblue" d="M71.0152,-81.9921C87.2371,-71.289 109.616,-56.9754 130,-45.5 139.092,-40.3813 149.175,-35.1957 158.461,-30.6085"/>
<polygon fill="midnightblue" stroke="midnightblue" points="68.6269,-79.377 62.2371,-87.828 72.5024,-85.2063 68.6269,-79.377"/>
</g>
<!-- Node4&#45;&gt;Node5 -->
<g id="edge4" class="edge"><title>Node4&#45;&gt;Node5</title>
<path fill="none" stroke="midnightblue" d="M258.54,-88.7561C268.77,-87.4015 279.157,-86.0262 288.861,-84.7415"/>
<polygon fill="midnightblue" stroke="midnightblue" points="257.846,-85.3173 248.392,-90.0997 258.765,-92.2567 257.846,-85.3173"/>
</g>
</g>
</svg>
