<?xml version="1.0" encoding="UTF-8" standalone="no"?>
<!DOCTYPE svg PUBLIC "-//W3C//DTD SVG 1.1//EN"
 "http://www.w3.org/Graphics/SVG/1.1/DTD/svg11.dtd">
<!-- Generated by graphviz version 2.38.0 (20140413.2041)
 -->
<!-- Title: marian::Gap::operator== Pages: 1 -->
<svg width="262pt" height="66pt"
 viewBox="0.00 0.00 262.00 66.00" xmlns="http://www.w3.org/2000/svg" xmlns:xlink="http://www.w3.org/1999/xlink">
<g id="graph0" class="graph" transform="scale(1 1) rotate(0) translate(4 62)">
<title>marian::Gap::operator==</title>
<polygon fill="white" stroke="none" points="-4,4 -4,-62 258,-62 258,4 -4,4"/>
<!-- Node1 -->
<g id="node1" class="node"><title>Node1</title>
<polygon fill="#bfbfbf" stroke="black" points="0,-19.5 0,-38.5 123,-38.5 123,-19.5 0,-19.5"/>
<text text-anchor="middle" x="61.5" y="-26.5" font-family="Helvetica,sans-Serif" font-size="10.00">marian::Gap::operator==</text>
</g>
<!-- Node2 -->
<g id="node2" class="node"><title>Node2</title>
<g id="a_node2"><a xlink:href="$d9/d39/classmarian_1_1Gap.html#acbc9a4d43af0bbd860c4dddd01fa6bca" xlink:title="marian::Gap::data">
<polygon fill="white" stroke="black" points="159,-38.5 159,-57.5 254,-57.5 254,-38.5 159,-38.5"/>
<text text-anchor="middle" x="206.5" y="-45.5" font-family="Helvetica,sans-Serif" font-size="10.00">marian::Gap::data</text>
</a>
</g>
</g>
<!-- Node1&#45;&gt;Node2 -->
<g id="edge1" class="edge"><title>Node1&#45;&gt;Node2</title>
<path fill="none" stroke="midnightblue" d="M123.145,-37.0577C131.587,-38.1794 140.236,-39.3286 148.607,-40.4408"/>
<polygon fill="midnightblue" stroke="midnightblue" points="148.272,-43.9269 158.646,-41.7746 149.194,-36.9879 148.272,-43.9269"/>
</g>
<!-- Node3 -->
<g id="node3" class="node"><title>Node3</title>
<g id="a_node3"><a xlink:href="$d9/d39/classmarian_1_1Gap.html#a7f8a530a91cd2b24a39d54eb18e05d19" xlink:title="marian::Gap::size">
<polygon fill="white" stroke="black" points="159.5,-0.5 159.5,-19.5 253.5,-19.5 253.5,-0.5 159.5,-0.5"/>
<text text-anchor="middle" x="206.5" y="-7.5" font-family="Helvetica,sans-Serif" font-size="10.00">marian::Gap::size</text>
</a>
</g>
</g>
<!-- Node1&#45;&gt;Node3 -->
<g id="edge2" class="edge"><title>Node1&#45;&gt;Node3</title>
<path fill="none" stroke="midnightblue" d="M123.145,-20.9423C131.696,-19.8062 140.458,-18.6419 148.928,-17.5165"/>
<polygon fill="midnightblue" stroke="midnightblue" points="149.629,-20.9542 159.081,-16.1675 148.707,-14.0152 149.629,-20.9542"/>
</g>
</g>
</svg>
