<?xml version="1.0" encoding="UTF-8" standalone="no"?>
<!DOCTYPE svg PUBLIC "-//W3C//DTD SVG 1.1//EN"
 "http://www.w3.org/Graphics/SVG/1.1/DTD/svg11.dtd">
<!-- Generated by graphviz version 2.38.0 (20140413.2041)
 -->
<!-- Title: marian::ScriptValidator::validate Pages: 1 -->
<svg width="256pt" height="88pt"
 viewBox="0.00 0.00 256.00 88.00" xmlns="http://www.w3.org/2000/svg" xmlns:xlink="http://www.w3.org/1999/xlink">
<g id="graph0" class="graph" transform="scale(1 1) rotate(0) translate(4 84)">
<title>marian::ScriptValidator::validate</title>
<polygon fill="white" stroke="none" points="-4,4 -4,-84 252,-84 252,4 -4,4"/>
<!-- Node1 -->
<g id="node1" class="node"><title>Node1</title>
<polygon fill="#bfbfbf" stroke="black" points="0,-24.5 0,-54.5 116,-54.5 116,-24.5 0,-24.5"/>
<text text-anchor="start" x="8" y="-42.5" font-family="Helvetica,sans-Serif" font-size="10.00">marian::ScriptValidator</text>
<text text-anchor="middle" x="58" y="-31.5" font-family="Helvetica,sans-Serif" font-size="10.00">::validate</text>
</g>
<!-- Node2 -->
<g id="node2" class="node"><title>Node2</title>
<g id="a_node2"><a xlink:href="$de/da1/classmarian_1_1Validator.html#a48b6583b7452642638e3fe463b27c9bb" xlink:title="marian::Validator::\llowerIsBetter">
<polygon fill="white" stroke="black" points="152,-49.5 152,-79.5 248,-79.5 248,-49.5 152,-49.5"/>
<text text-anchor="start" x="160" y="-67.5" font-family="Helvetica,sans-Serif" font-size="10.00">marian::Validator::</text>
<text text-anchor="middle" x="200" y="-56.5" font-family="Helvetica,sans-Serif" font-size="10.00">lowerIsBetter</text>
</a>
</g>
</g>
<!-- Node1&#45;&gt;Node2 -->
<g id="edge1" class="edge"><title>Node1&#45;&gt;Node2</title>
<path fill="none" stroke="midnightblue" d="M116.347,-49.7406C124.722,-51.2361 133.347,-52.7763 141.721,-54.2715"/>
<polygon fill="midnightblue" stroke="midnightblue" points="141.317,-57.7547 151.776,-56.0672 142.547,-50.8637 141.317,-57.7547"/>
</g>
<!-- Node3 -->
<g id="node3" class="node"><title>Node3</title>
<g id="a_node3"><a xlink:href="$de/da1/classmarian_1_1Validator.html#ab70989b9c6aef7dc0d0655fd066e7fa9" xlink:title="marian::Validator::\lkeepBest">
<polygon fill="white" stroke="black" points="152,-0.5 152,-30.5 248,-30.5 248,-0.5 152,-0.5"/>
<text text-anchor="start" x="160" y="-18.5" font-family="Helvetica,sans-Serif" font-size="10.00">marian::Validator::</text>
<text text-anchor="middle" x="200" y="-7.5" font-family="Helvetica,sans-Serif" font-size="10.00">keepBest</text>
</a>
</g>
</g>
<!-- Node1&#45;&gt;Node3 -->
<g id="edge2" class="edge"><title>Node1&#45;&gt;Node3</title>
<path fill="none" stroke="midnightblue" d="M116.347,-29.669C124.722,-28.2333 133.347,-26.7548 141.721,-25.3193"/>
<polygon fill="midnightblue" stroke="midnightblue" points="142.511,-28.7349 151.776,-23.5955 141.329,-21.8355 142.511,-28.7349"/>
</g>
</g>
</svg>
