<?xml version="1.0" encoding="UTF-8" standalone="no"?>
<!DOCTYPE svg PUBLIC "-//W3C//DTD SVG 1.1//EN"
 "http://www.w3.org/Graphics/SVG/1.1/DTD/svg11.dtd">
<!-- Generated by graphviz version 2.38.0 (20140413.2041)
 -->
<!-- Title: amunmt::GPU::BestHyps Pages: 1 -->
<svg width="138pt" height="347pt"
 viewBox="0.00 0.00 138.00 347.00" xmlns="http://www.w3.org/2000/svg" xmlns:xlink="http://www.w3.org/1999/xlink">
<g id="graph0" class="graph" transform="scale(1 1) rotate(0) translate(4 343)">
<title>amunmt::GPU::BestHyps</title>
<polygon fill="white" stroke="none" points="-4,4 -4,-343 134,-343 134,4 -4,4"/>
<!-- Node1 -->
<g id="node1" class="node"><title>Node1</title>
<polygon fill="#bfbfbf" stroke="black" points="0.5,-0.5 0.5,-178.5 129.5,-178.5 129.5,-0.5 0.5,-0.5"/>
<text text-anchor="middle" x="65" y="-166.5" font-family="Helvetica,sans-Serif" font-size="10.00">amunmt::GPU::BestHyps</text>
<polyline fill="none" stroke="black" points="0.5,-159.5 129.5,-159.5 "/>
<text text-anchor="start" x="8.5" y="-147.5" font-family="Helvetica,sans-Serif" font-size="10.00">&#45; nthElement_</text>
<text text-anchor="start" x="8.5" y="-136.5" font-family="Helvetica,sans-Serif" font-size="10.00">&#45; keys_</text>
<text text-anchor="start" x="8.5" y="-125.5" font-family="Helvetica,sans-Serif" font-size="10.00">&#45; costs_</text>
<text text-anchor="start" x="8.5" y="-114.5" font-family="Helvetica,sans-Serif" font-size="10.00">&#45; maxBeamSize_</text>
<polyline fill="none" stroke="black" points="0.5,-107.5 129.5,-107.5 "/>
<text text-anchor="start" x="8.5" y="-95.5" font-family="Helvetica,sans-Serif" font-size="10.00">+ BestHyps()</text>
<text text-anchor="start" x="8.5" y="-84.5" font-family="Helvetica,sans-Serif" font-size="10.00">+ BestHyps()</text>
<text text-anchor="start" x="8.5" y="-73.5" font-family="Helvetica,sans-Serif" font-size="10.00">+ DisAllowUNK()</text>
<text text-anchor="start" x="8.5" y="-62.5" font-family="Helvetica,sans-Serif" font-size="10.00">+ FindBests()</text>
<text text-anchor="start" x="8.5" y="-51.5" font-family="Helvetica,sans-Serif" font-size="10.00">+ GetAlignments()</text>
<text text-anchor="start" x="8.5" y="-40.5" font-family="Helvetica,sans-Serif" font-size="10.00">+ CalcBeam()</text>
<text text-anchor="start" x="8.5" y="-29.5" font-family="Helvetica,sans-Serif" font-size="10.00">&#45; FindBests()</text>
<text text-anchor="start" x="8.5" y="-18.5" font-family="Helvetica,sans-Serif" font-size="10.00">&#45; getNBestList()</text>
<text text-anchor="start" x="8.5" y="-7.5" font-family="Helvetica,sans-Serif" font-size="10.00">&#45; GetPairs()</text>
</g>
<!-- Node2 -->
<g id="node2" class="node"><title>Node2</title>
<g id="a_node2"><a xlink:href="$df/d94/classamunmt_1_1BestHypsBase.html" xlink:title="{amunmt::BestHypsBase\n|# god_\l# forbidUNK_\l# isInputFiltered_\l# returnAttentionWeights_\l# weights_\l|+ BestHypsBase()\l+ BestHypsBase()\l+ CalcBeam()\l}">
<polygon fill="white" stroke="black" points="0,-215.5 0,-338.5 130,-338.5 130,-215.5 0,-215.5"/>
<text text-anchor="middle" x="65" y="-326.5" font-family="Helvetica,sans-Serif" font-size="10.00">amunmt::BestHypsBase</text>
<polyline fill="none" stroke="black" points="0,-319.5 130,-319.5 "/>
<text text-anchor="start" x="8" y="-307.5" font-family="Helvetica,sans-Serif" font-size="10.00"># god_</text>
<text text-anchor="start" x="8" y="-296.5" font-family="Helvetica,sans-Serif" font-size="10.00"># forbidUNK_</text>
<text text-anchor="start" x="8" y="-285.5" font-family="Helvetica,sans-Serif" font-size="10.00"># isInputFiltered_</text>
<text text-anchor="start" x="8" y="-274.5" font-family="Helvetica,sans-Serif" font-size="10.00"># returnAttentionWeights_</text>
<text text-anchor="start" x="8" y="-263.5" font-family="Helvetica,sans-Serif" font-size="10.00"># weights_</text>
<polyline fill="none" stroke="black" points="0,-256.5 130,-256.5 "/>
<text text-anchor="start" x="8" y="-244.5" font-family="Helvetica,sans-Serif" font-size="10.00">+ BestHypsBase()</text>
<text text-anchor="start" x="8" y="-233.5" font-family="Helvetica,sans-Serif" font-size="10.00">+ BestHypsBase()</text>
<text text-anchor="start" x="8" y="-222.5" font-family="Helvetica,sans-Serif" font-size="10.00">+ CalcBeam()</text>
</a>
</g>
</g>
<!-- Node2&#45;&gt;Node1 -->
<g id="edge1" class="edge"><title>Node2&#45;&gt;Node1</title>
<path fill="none" stroke="midnightblue" d="M65,-205.199C65,-196.505 65,-187.538 65,-178.628"/>
<polygon fill="none" stroke="midnightblue" points="61.5001,-205.26 65,-215.26 68.5001,-205.26 61.5001,-205.26"/>
</g>
</g>
</svg>
