<?xml version="1.0" encoding="UTF-8" standalone="no"?>
<!DOCTYPE svg PUBLIC "-//W3C//DTD SVG 1.1//EN"
 "http://www.w3.org/Graphics/SVG/1.1/DTD/svg11.dtd">
<!-- Generated by graphviz version 2.38.0 (20140413.2041)
 -->
<!-- Title: amunmt::History::NBest Pages: 1 -->
<!--zoomable 209 -->
<svg id="main" version="1.1" xmlns="http://www.w3.org/2000/svg" xmlns:xlink="http://www.w3.org/1999/xlink" xml:space="preserve" onload="init(evt)">
<style type="text/css"><![CDATA[
.edge:hover path { stroke: red; }
.edge:hover polygon { stroke: red; fill: red; }
]]></style>
<script type="text/javascript"><![CDATA[
var edges = document.getElementsByTagName('g');
if (edges && edges.length) {
  for (var i=0;i<edges.length;i++) {
    if (edges[i].id.substr(0,4)=='edge') {
      edges[i].setAttribute('class','edge');
    }
  }
}
]]></script>
        <defs>
                <circle id="rim" cx="0" cy="0" r="7"/>
                <circle id="rim2" cx="0" cy="0" r="3.5"/>
                <g id="zoomPlus">
                        <use xlink:href="#rim" fill="#404040">
                                <set attributeName="fill" to="#808080" begin="zoomplus.mouseover" end="zoomplus.mouseout"/>
                        </use>
                        <path d="M-4,0h8M0,-4v8" fill="none" stroke="white" stroke-width="1.5" pointer-events="none"/>
                </g>
                <g id="zoomMin">
                        <use xlink:href="#rim" fill="#404040">
                                <set attributeName="fill" to="#808080" begin="zoomminus.mouseover" end="zoomminus.mouseout"/>
                        </use>
                        <path d="M-4,0h8" fill="none" stroke="white" stroke-width="1.5" pointer-events="none"/>
                </g>
                <g id="dirArrow">
                        <path fill="none" stroke="white" stroke-width="1.5" d="M0,-3.0v7 M-2.5,-0.5L0,-3.0L2.5,-0.5"/>
                </g>
               <g id="resetDef">
                       <use xlink:href="#rim2" fill="#404040">
                               <set attributeName="fill" to="#808080" begin="reset.mouseover" end="reset.mouseout"/>
                       </use>
               </g>
        </defs>

<script type="text/javascript">
var viewWidth = 920;
var viewHeight = 209;
var sectionId = 'dynsection-5';
</script>
<script xlink:href="../../svgpan.js"/>
<svg id="graph" class="graph">
<g id="viewport">
<title>amunmt::History::NBest</title>
<polygon fill="white" stroke="none" points="-4,4 -4,-204.5 916,-204.5 916,4 -4,4"/>
<!-- Node1 -->
<g id="node1" class="node"><title>Node1</title>
<polygon fill="#bfbfbf" stroke="black" points="0,-52 0,-71 123,-71 123,-52 0,-52"/>
<text text-anchor="middle" x="61.5" y="-59" font-family="Helvetica,sans-Serif" font-size="10.00">amunmt::History::NBest</text>
</g>
<!-- Node2 -->
<g id="node2" class="node"><title>Node2</title>
<g id="a_node2"><a xlink:href="../../db/d94/classamunmt_1_1History.html#a1ba4f3d97546a08e25a9c0de1ef02e50" target="_top" xlink:title="amunmt::History::Top">
<polygon fill="white" stroke="black" points="159,-71 159,-90 271,-90 271,-71 159,-71"/>
<text text-anchor="middle" x="215" y="-78" font-family="Helvetica,sans-Serif" font-size="10.00">amunmt::History::Top</text>
</a>
</g>
</g>
<!-- Node1&#45;&gt;Node2 -->
<g id="edge1" class="edge"><title>Node1&#45;&gt;Node2</title>
<path fill="none" stroke="midnightblue" d="M133.203,-70.367C141.739,-71.4375 150.36,-72.5188 158.632,-73.5561"/>
<polygon fill="midnightblue" stroke="midnightblue" points="133.606,-66.8902 123.248,-69.1185 132.735,-73.8358 133.606,-66.8902"/>
</g>
<!-- Node3 -->
<g id="node3" class="node"><title>Node3</title>
<g id="a_node3"><a xlink:href="../../d7/dd3/namespaceamunmt.html#aef108281493b0c3b669c537192eace34" target="_top" xlink:title="amunmt::Printer">
<polygon fill="white" stroke="black" points="307,-52 307,-71 393,-71 393,-52 307,-52"/>
<text text-anchor="middle" x="350" y="-59" font-family="Helvetica,sans-Serif" font-size="10.00">amunmt::Printer</text>
</a>
</g>
</g>
<!-- Node1&#45;&gt;Node3 -->
<g id="edge14" class="edge"><title>Node1&#45;&gt;Node3</title>
<path fill="none" stroke="midnightblue" d="M133.544,-61.5C188.018,-61.5 261.355,-61.5 306.88,-61.5"/>
<polygon fill="midnightblue" stroke="midnightblue" points="133.259,-58.0001 123.259,-61.5 133.259,-65.0001 133.259,-58.0001"/>
</g>
<!-- Node2&#45;&gt;Node3 -->
<g id="edge2" class="edge"><title>Node2&#45;&gt;Node3</title>
<path fill="none" stroke="midnightblue" d="M281.326,-71.1676C289.951,-69.9355 298.603,-68.6996 306.7,-67.5429"/>
<polygon fill="midnightblue" stroke="midnightblue" points="280.653,-67.7282 271.249,-72.6074 281.643,-74.6579 280.653,-67.7282"/>
</g>
<!-- Node4 -->
<g id="node4" class="node"><title>Node4</title>
<g id="a_node4"><a xlink:href="../../d5/d49/amunmt_8cpp.html#a86ebd9110196f3b5328ad3c3d31cd007" target="_top" xlink:title="translate">
<polygon fill="white" stroke="black" points="474.5,-93 474.5,-112 528.5,-112 528.5,-93 474.5,-93"/>
<text text-anchor="middle" x="501.5" y="-100" font-family="Helvetica,sans-Serif" font-size="10.00">translate</text>
</a>
</g>
</g>
<!-- Node3&#45;&gt;Node4 -->
<g id="edge3" class="edge"><title>Node3&#45;&gt;Node4</title>
<path fill="none" stroke="midnightblue" d="M395.571,-73.7234C421.272,-80.7719 452.694,-89.3892 474.416,-95.3466"/>
<polygon fill="midnightblue" stroke="midnightblue" points="396.244,-70.2788 385.674,-71.0093 394.392,-77.0295 396.244,-70.2788"/>
</g>
<!-- Node12 -->
<g id="node12" class="node"><title>Node12</title>
<g id="a_node12"><a xlink:href="../../d7/dd3/namespaceamunmt.html#a10b27c18333dd8e5b6652acfea64d7d2" target="_top" xlink:title="amunmt::Printer">
<polygon fill="white" stroke="black" points="458.5,-52 458.5,-71 544.5,-71 544.5,-52 458.5,-52"/>
<text text-anchor="middle" x="501.5" y="-59" font-family="Helvetica,sans-Serif" font-size="10.00">amunmt::Printer</text>
</a>
</g>
</g>
<!-- Node3&#45;&gt;Node12 -->
<g id="edge11" class="edge"><title>Node3&#45;&gt;Node12</title>
<path fill="none" stroke="midnightblue" d="M403.113,-61.5C421.144,-61.5 441.116,-61.5 458.256,-61.5"/>
<polygon fill="midnightblue" stroke="midnightblue" points="403.042,-58.0001 393.042,-61.5 403.042,-65.0001 403.042,-58.0001"/>
</g>
<!-- Node13 -->
<g id="node13" class="node"><title>Node13</title>
<g id="a_node13"><a xlink:href="../../d7/dd3/namespaceamunmt.html#aac616d7d6dd75bad96a6dcf3afe74e85" target="_top" xlink:title="amunmt::TranslationTaskAnd\lOutput">
<polygon fill="white" stroke="black" points="429,-0.5 429,-30.5 574,-30.5 574,-0.5 429,-0.5"/>
<text text-anchor="start" x="437" y="-18.5" font-family="Helvetica,sans-Serif" font-size="10.00">amunmt::TranslationTaskAnd</text>
<text text-anchor="middle" x="501.5" y="-7.5" font-family="Helvetica,sans-Serif" font-size="10.00">Output</text>
</a>
</g>
</g>
<!-- Node3&#45;&gt;Node13 -->
<g id="edge12" class="edge"><title>Node3&#45;&gt;Node13</title>
<path fill="none" stroke="midnightblue" d="M391.58,-49.0139C410.099,-43.3156 432.184,-36.5202 451.611,-30.5427"/>
<polygon fill="midnightblue" stroke="midnightblue" points="390.505,-45.6826 381.976,-51.9688 392.564,-52.3731 390.505,-45.6826"/>
</g>
<!-- Node5 -->
<g id="node5" class="node"><title>Node5</title>
<g id="a_node5"><a xlink:href="../../d5/d49/amunmt_8cpp.html#a1fa5ce5d158455cf2d152ebcbcdf29d0" target="_top" xlink:title="BOOST_PYTHON_MODULE">
<polygon fill="white" stroke="black" points="610,-181 610,-200 756,-200 756,-181 610,-181"/>
<text text-anchor="middle" x="683" y="-188" font-family="Helvetica,sans-Serif" font-size="10.00">BOOST_PYTHON_MODULE</text>
</a>
</g>
</g>
<!-- Node4&#45;&gt;Node5 -->
<g id="edge4" class="edge"><title>Node4&#45;&gt;Node5</title>
<path fill="none" stroke="midnightblue" d="M522.762,-118.269C543.594,-133.797 577.494,-157.205 610,-171.5 618.521,-175.247 627.944,-178.389 637.087,-180.971"/>
<polygon fill="midnightblue" stroke="midnightblue" points="524.761,-115.393 514.676,-112.147 520.536,-120.974 524.761,-115.393"/>
</g>
<!-- Node6 -->
<g id="node6" class="node"><title>Node6</title>
<g id="a_node6"><a xlink:href="../../d6/d38/classmarian_1_1ConfigParser.html#a07165d2c1c885c858d8127eb09f00e71" target="_top" xlink:title="marian::ConfigParser\l::addOptionsTranslate">
<polygon fill="white" stroke="black" points="626.5,-131.5 626.5,-161.5 739.5,-161.5 739.5,-131.5 626.5,-131.5"/>
<text text-anchor="start" x="634.5" y="-149.5" font-family="Helvetica,sans-Serif" font-size="10.00">marian::ConfigParser</text>
<text text-anchor="middle" x="683" y="-138.5" font-family="Helvetica,sans-Serif" font-size="10.00">::addOptionsTranslate</text>
</a>
</g>
</g>
<!-- Node4&#45;&gt;Node6 -->
<g id="edge5" class="edge"><title>Node4&#45;&gt;Node6</title>
<path fill="none" stroke="midnightblue" d="M538.438,-111.309C563.557,-117.467 597.592,-125.809 626.218,-132.826"/>
<polygon fill="midnightblue" stroke="midnightblue" points="539.147,-107.879 528.601,-108.898 537.48,-114.678 539.147,-107.879"/>
</g>
<!-- Node7 -->
<g id="node7" class="node"><title>Node7</title>
<g id="a_node7"><a xlink:href="../../d2/d47/marian_2src_2common_2logging_8h.html#a32a13f91eb216c334ec310b2a8a2f10c" target="_top" xlink:title="createLoggers">
<polygon fill="white" stroke="black" points="644,-93 644,-112 722,-112 722,-93 644,-93"/>
<text text-anchor="middle" x="683" y="-100" font-family="Helvetica,sans-Serif" font-size="10.00">createLoggers</text>
</a>
</g>
</g>
<!-- Node4&#45;&gt;Node7 -->
<g id="edge6" class="edge"><title>Node4&#45;&gt;Node7</title>
<path fill="none" stroke="midnightblue" d="M538.825,-102.5C569.38,-102.5 612.923,-102.5 643.953,-102.5"/>
<polygon fill="midnightblue" stroke="midnightblue" points="538.601,-99.0001 528.601,-102.5 538.601,-106 538.601,-99.0001"/>
</g>
<!-- Node10 -->
<g id="node10" class="node"><title>Node10</title>
<g id="a_node10"><a xlink:href="../../db/de8/classmarian_1_1OutputCollector.html#aac7fb8a5e89ce5a9bac56a6a414e7fe5" target="_top" xlink:title="marian::OutputCollector\l::Write">
<polygon fill="white" stroke="black" points="623,-43.5 623,-73.5 743,-73.5 743,-43.5 623,-43.5"/>
<text text-anchor="start" x="631" y="-61.5" font-family="Helvetica,sans-Serif" font-size="10.00">marian::OutputCollector</text>
<text text-anchor="middle" x="683" y="-50.5" font-family="Helvetica,sans-Serif" font-size="10.00">::Write</text>
</a>
</g>
</g>
<!-- Node4&#45;&gt;Node10 -->
<g id="edge9" class="edge"><title>Node4&#45;&gt;Node10</title>
<path fill="none" stroke="midnightblue" d="M538.405,-93.6988C562.546,-87.7813 594.932,-79.8426 622.837,-73.0023"/>
<polygon fill="midnightblue" stroke="midnightblue" points="537.48,-90.3218 528.601,-96.102 539.147,-97.1205 537.48,-90.3218"/>
</g>
<!-- Node8 -->
<g id="node8" class="node"><title>Node8</title>
<g id="a_node8"><a xlink:href="../../d6/dba/classmarian_1_1Config.html#aa953cca7c4650e7e0538f00388d9f385" target="_top" xlink:title="marian::Config::Config">
<polygon fill="white" stroke="black" points="794.5,-131 794.5,-150 909.5,-150 909.5,-131 794.5,-131"/>
<text text-anchor="middle" x="852" y="-138" font-family="Helvetica,sans-Serif" font-size="10.00">marian::Config::Config</text>
</a>
</g>
</g>
<!-- Node7&#45;&gt;Node8 -->
<g id="edge7" class="edge"><title>Node7&#45;&gt;Node8</title>
<path fill="none" stroke="midnightblue" d="M732.385,-113.51C756.65,-119.031 785.753,-125.653 809.058,-130.956"/>
<polygon fill="midnightblue" stroke="midnightblue" points="732.841,-110.024 722.313,-111.218 731.287,-116.85 732.841,-110.024"/>
</g>
<!-- Node9 -->
<g id="node9" class="node"><title>Node9</title>
<g id="a_node9"><a xlink:href="../../dc/df8/iris_8cpp.html#ae66f6b31b5ad750f1fe042a706a4e3d4" target="_top" xlink:title="main">
<polygon fill="white" stroke="black" points="833,-93 833,-112 871,-112 871,-93 833,-93"/>
<text text-anchor="middle" x="852" y="-100" font-family="Helvetica,sans-Serif" font-size="10.00">main</text>
</a>
</g>
</g>
<!-- Node7&#45;&gt;Node9 -->
<g id="edge8" class="edge"><title>Node7&#45;&gt;Node9</title>
<path fill="none" stroke="midnightblue" d="M732.424,-102.5C766.065,-102.5 808.988,-102.5 832.875,-102.5"/>
<polygon fill="midnightblue" stroke="midnightblue" points="732.313,-99.0001 722.313,-102.5 732.313,-106 732.313,-99.0001"/>
</g>
<!-- Node11 -->
<g id="node11" class="node"><title>Node11</title>
<g id="a_node11"><a xlink:href="../../db/de8/classmarian_1_1OutputCollector.html#a6b877d0629db1fe8d5f5c920025cc859" target="_top" xlink:title="marian::OutputCollector\l::OutputCollector">
<polygon fill="white" stroke="black" points="792,-43.5 792,-73.5 912,-73.5 912,-43.5 792,-43.5"/>
<text text-anchor="start" x="800" y="-61.5" font-family="Helvetica,sans-Serif" font-size="10.00">marian::OutputCollector</text>
<text text-anchor="middle" x="852" y="-50.5" font-family="Helvetica,sans-Serif" font-size="10.00">::OutputCollector</text>
</a>
</g>
</g>
<!-- Node10&#45;&gt;Node11 -->
<g id="edge10" class="edge"><title>Node10&#45;&gt;Node11</title>
<path fill="none" stroke="midnightblue" d="M753.459,-58.5C766.216,-58.5 779.423,-58.5 791.843,-58.5"/>
<polygon fill="midnightblue" stroke="midnightblue" points="753.348,-55.0001 743.348,-58.5 753.348,-62.0001 753.348,-55.0001"/>
</g>
<!-- Node14 -->
<g id="node14" class="node"><title>Node14</title>
<g id="a_node14"><a xlink:href="../../d0/d73/decoder__main_8cpp.html#a0ddf1224851353fc92bfbff6f499fa97" target="_top" xlink:title="main">
<polygon fill="white" stroke="black" points="664,-5 664,-24 702,-24 702,-5 664,-5"/>
<text text-anchor="middle" x="683" y="-12" font-family="Helvetica,sans-Serif" font-size="10.00">main</text>
</a>
</g>
</g>
<!-- Node13&#45;&gt;Node14 -->
<g id="edge13" class="edge"><title>Node13&#45;&gt;Node14</title>
<path fill="none" stroke="midnightblue" d="M584.238,-15.0446C613.977,-14.879 644.899,-14.7067 663.803,-14.6014"/>
<polygon fill="midnightblue" stroke="midnightblue" points="584.197,-11.5447 574.217,-15.1005 584.236,-18.5446 584.197,-11.5447"/>
</g>
</g>
</svg>
        <g id="navigator" transform="translate(0 0)" fill="#404254">
                <rect fill="#f2f5e9" fill-opacity="0.5" stroke="#606060" stroke-width=".5" x="0" y="0" width="60" height="60"/>
                <use id="zoomplus" xlink:href="#zoomPlus" x="17" y="9" onmousedown="handleZoom(evt,'in')"/>
                <use id="zoomminus" xlink:href="#zoomMin" x="42" y="9" onmousedown="handleZoom(evt,'out')"/>
                <use id="reset" xlink:href="#resetDef" x="30" y="36" onmousedown="handleReset()"/>
                <g id="arrowUp" xlink:href="#dirArrow" transform="translate(30 24)" onmousedown="handlePan(0,-1)">
                  <use xlink:href="#rim" fill="#404040">
                        <set attributeName="fill" to="#808080" begin="arrowUp.mouseover" end="arrowUp.mouseout"/>
                  </use>
                  <path fill="none" stroke="white" stroke-width="1.5" d="M0,-3.0v7 M-2.5,-0.5L0,-3.0L2.5,-0.5"/>
                </g>
                <g id="arrowRight" xlink:href="#dirArrow" transform="rotate(90) translate(36 -43)" onmousedown="handlePan(1,0)">
                  <use xlink:href="#rim" fill="#404040">
                        <set attributeName="fill" to="#808080" begin="arrowRight.mouseover" end="arrowRight.mouseout"/>
                  </use>
                  <path fill="none" stroke="white" stroke-width="1.5" d="M0,-3.0v7 M-2.5,-0.5L0,-3.0L2.5,-0.5"/>
                </g>
                <g id="arrowDown" xlink:href="#dirArrow" transform="rotate(180) translate(-30 -48)" onmousedown="handlePan(0,1)">
                  <use xlink:href="#rim" fill="#404040">
                        <set attributeName="fill" to="#808080" begin="arrowDown.mouseover" end="arrowDown.mouseout"/>
                  </use>
                  <path fill="none" stroke="white" stroke-width="1.5" d="M0,-3.0v7 M-2.5,-0.5L0,-3.0L2.5,-0.5"/>
                </g>
                <g id="arrowLeft" xlink:href="#dirArrow" transform="rotate(270) translate(-36 17)" onmousedown="handlePan(-1,0)">
                  <use xlink:href="#rim" fill="#404040">
                        <set attributeName="fill" to="#808080" begin="arrowLeft.mouseover" end="arrowLeft.mouseout"/>
                  </use>
                  <path fill="none" stroke="white" stroke-width="1.5" d="M0,-3.0v7 M-2.5,-0.5L0,-3.0L2.5,-0.5"/>
                </g>
        </g>
        <svg viewBox="0 0 15 15" width="100%" height="30px" preserveAspectRatio="xMaxYMin meet">
         <g id="arrow_out" transform="scale(0.3 0.3)">
          <a xlink:href="classamunmt_1_1History_af982104b58a4d8cf3893d39724a120c4_icgraph_org.svg" target="_base">
           <rect id="button" ry="5" rx="5" y="6" x="6" height="38" width="38"
                fill="#f2f5e9" fill-opacity="0.5" stroke="#606060" stroke-width="1.0"/>
           <path id="arrow"
             d="M 11.500037,31.436501 C 11.940474,20.09759 22.043105,11.32322 32.158766,21.979434 L 37.068811,17.246167 C 37.068811,17.246167 37.088388,32 37.088388,32 L 22.160133,31.978069 C 22.160133,31.978069 26.997745,27.140456 26.997745,27.140456 C 18.528582,18.264221 13.291696,25.230495 11.500037,31.436501 z"
             style="fill:#404040;"/>
          </a>
         </g>
        </svg>
</svg>
