<?xml version="1.0" encoding="UTF-8" standalone="no"?>
<!DOCTYPE svg PUBLIC "-//W3C//DTD SVG 1.1//EN"
 "http://www.w3.org/Graphics/SVG/1.1/DTD/svg11.dtd">
<!-- Generated by graphviz version 2.38.0 (20140413.2041)
 -->
<!-- Title: marian::ClipperBase::clip Pages: 1 -->
<svg width="257pt" height="78pt"
 viewBox="0.00 0.00 257.00 77.50" xmlns="http://www.w3.org/2000/svg" xmlns:xlink="http://www.w3.org/1999/xlink">
<g id="graph0" class="graph" transform="scale(1 1) rotate(0) translate(4 73.5)">
<title>marian::ClipperBase::clip</title>
<polygon fill="white" stroke="none" points="-4,4 -4,-73.5 253,-73.5 253,4 -4,4"/>
<!-- Node1 -->
<g id="node1" class="node"><title>Node1</title>
<polygon fill="#bfbfbf" stroke="black" points="0,-17 0,-47 105,-47 105,-17 0,-17"/>
<text text-anchor="start" x="8" y="-35" font-family="Helvetica,sans-Serif" font-size="10.00">marian::ClipperBase</text>
<text text-anchor="middle" x="52.5" y="-24" font-family="Helvetica,sans-Serif" font-size="10.00">::clip</text>
</g>
<!-- Node2 -->
<g id="node2" class="node"><title>Node2</title>
<g id="a_node2"><a xlink:href="../../db/d12/classmarian_1_1Elementwise.html#a0e512bb10653046540bac860a910bfb9" target="_top" xlink:title="marian::Elementwise\l::Elementwise">
<polygon fill="white" stroke="black" points="141,-39 141,-69 249,-69 249,-39 141,-39"/>
<text text-anchor="start" x="149" y="-57" font-family="Helvetica,sans-Serif" font-size="10.00">marian::Elementwise</text>
<text text-anchor="middle" x="195" y="-46" font-family="Helvetica,sans-Serif" font-size="10.00">::Elementwise</text>
</a>
</g>
</g>
<!-- Node1&#45;&gt;Node2 -->
<g id="edge1" class="edge"><title>Node1&#45;&gt;Node2</title>
<path fill="none" stroke="midnightblue" d="M114.942,-41.6209C123.491,-42.9594 132.216,-44.3257 140.601,-45.6386"/>
<polygon fill="midnightblue" stroke="midnightblue" points="115.44,-38.1563 105.019,-40.0671 114.357,-45.072 115.44,-38.1563"/>
</g>
<!-- Node3 -->
<g id="node3" class="node"><title>Node3</title>
<g id="a_node3"><a xlink:href="../../d9/df5/classmarian_1_1Norm.html#a32a3f587492e69a29182b46a6cf45a3d" target="_top" xlink:title="marian::Norm::Norm">
<polygon fill="white" stroke="black" points="142,-0.5 142,-19.5 248,-19.5 248,-0.5 142,-0.5"/>
<text text-anchor="middle" x="195" y="-7.5" font-family="Helvetica,sans-Serif" font-size="10.00">marian::Norm::Norm</text>
</a>
</g>
</g>
<!-- Node1&#45;&gt;Node3 -->
<g id="edge2" class="edge"><title>Node1&#45;&gt;Node3</title>
<path fill="none" stroke="midnightblue" d="M114.927,-22.3815C123.802,-20.9918 132.868,-19.5723 141.546,-18.2135"/>
<polygon fill="midnightblue" stroke="midnightblue" points="114.357,-18.928 105.019,-23.9329 115.44,-25.8437 114.357,-18.928"/>
</g>
</g>
</svg>
