<?xml version="1.0" encoding="UTF-8" standalone="no"?>
<!DOCTYPE svg PUBLIC "-//W3C//DTD SVG 1.1//EN"
 "http://www.w3.org/Graphics/SVG/1.1/DTD/svg11.dtd">
<!-- Generated by graphviz version 2.38.0 (20140413.2041)
 -->
<!-- Title: process_word2vec.replace_unks Pages: 1 -->
<svg width="486pt" height="39pt"
 viewBox="0.00 0.00 486.00 39.00" xmlns="http://www.w3.org/2000/svg" xmlns:xlink="http://www.w3.org/1999/xlink">
<g id="graph0" class="graph" transform="scale(1 1) rotate(0) translate(4 35)">
<title>process_word2vec.replace_unks</title>
<polygon fill="white" stroke="none" points="-4,4 -4,-35 482,-35 482,4 -4,4"/>
<!-- Node1 -->
<g id="node1" class="node"><title>Node1</title>
<polygon fill="#bfbfbf" stroke="black" points="0,-6 0,-25 159,-25 159,-6 0,-6"/>
<text text-anchor="middle" x="79.5" y="-13" font-family="Helvetica,sans-Serif" font-size="10.00">process_word2vec.replace_unks</text>
</g>
<!-- Node2 -->
<g id="node2" class="node"><title>Node2</title>
<g id="a_node2"><a xlink:href="../../dd/df7/namespaceprocess__word2vec.html#ab3d9c1343a892a23ca1e60230b030dce" target="_top" xlink:title="process_word2vec.main">
<polygon fill="white" stroke="black" points="195,-6 195,-25 317,-25 317,-6 195,-6"/>
<text text-anchor="middle" x="256" y="-13" font-family="Helvetica,sans-Serif" font-size="10.00">process_word2vec.main</text>
</a>
</g>
</g>
<!-- Node1&#45;&gt;Node2 -->
<g id="edge1" class="edge"><title>Node1&#45;&gt;Node2</title>
<path fill="none" stroke="midnightblue" d="M169.256,-15.5C177.94,-15.5 186.605,-15.5 194.906,-15.5"/>
<polygon fill="midnightblue" stroke="midnightblue" points="169.072,-12.0001 159.072,-15.5 169.072,-19.0001 169.072,-12.0001"/>
</g>
<!-- Node3 -->
<g id="node3" class="node"><title>Node3</title>
<g id="a_node3"><a xlink:href="../../dd/df7/namespaceprocess__word2vec.html#a104f2b1f7f16fe4bb005d75d662b5407" target="_top" xlink:title="process_word2vec.parse\l_user_args">
<polygon fill="white" stroke="black" points="353,-0.5 353,-30.5 478,-30.5 478,-0.5 353,-0.5"/>
<text text-anchor="start" x="361" y="-18.5" font-family="Helvetica,sans-Serif" font-size="10.00">process_word2vec.parse</text>
<text text-anchor="middle" x="415.5" y="-7.5" font-family="Helvetica,sans-Serif" font-size="10.00">_user_args</text>
</a>
</g>
</g>
<!-- Node2&#45;&gt;Node3 -->
<g id="edge2" class="edge"><title>Node2&#45;&gt;Node3</title>
<path fill="none" stroke="midnightblue" d="M327.639,-8.78193C336.07,-8.71534 344.626,-8.7529 352.916,-8.8946"/>
<polygon fill="midnightblue" stroke="midnightblue" points="327.397,-5.28469 317.443,-8.91479 327.488,-12.2841 327.397,-5.28469"/>
</g>
<!-- Node3&#45;&gt;Node2 -->
<g id="edge3" class="edge"><title>Node3&#45;&gt;Node2</title>
<path fill="none" stroke="midnightblue" d="M342.698,-22.2266C334.256,-22.2836 325.707,-22.2365 317.443,-22.0852"/>
<polygon fill="midnightblue" stroke="midnightblue" points="342.958,-25.7239 352.916,-22.1054 342.875,-18.7243 342.958,-25.7239"/>
</g>
</g>
</svg>
