<?xml version="1.0" encoding="UTF-8" standalone="no"?>
<!DOCTYPE svg PUBLIC "-//W3C//DTD SVG 1.1//EN"
 "http://www.w3.org/Graphics/SVG/1.1/DTD/svg11.dtd">
<!-- Generated by graphviz version 2.38.0 (20140413.2041)
 -->
<!-- Title: marian::TransposeNodeOp::newShape Pages: 1 -->
<svg width="467pt" height="85pt"
 viewBox="0.00 0.00 467.00 85.00" xmlns="http://www.w3.org/2000/svg" xmlns:xlink="http://www.w3.org/1999/xlink">
<g id="graph0" class="graph" transform="scale(1 1) rotate(0) translate(4 81)">
<title>marian::TransposeNodeOp::newShape</title>
<polygon fill="white" stroke="none" points="-4,4 -4,-81 463,-81 463,4 -4,4"/>
<!-- Node1 -->
<g id="node1" class="node"><title>Node1</title>
<polygon fill="#bfbfbf" stroke="black" points="0,-33 0,-63 134,-63 134,-33 0,-33"/>
<text text-anchor="start" x="8" y="-51" font-family="Helvetica,sans-Serif" font-size="10.00">marian::TransposeNodeOp</text>
<text text-anchor="middle" x="67" y="-40" font-family="Helvetica,sans-Serif" font-size="10.00">::newShape</text>
</g>
<!-- Node2 -->
<g id="node2" class="node"><title>Node2</title>
<g id="a_node2"><a xlink:href="../../d0/d7a/classmarian_1_1Node.html#aa631f0244ad94b4c64efab0f140bd1d5" target="_top" xlink:title="marian::Node::shape">
<polygon fill="white" stroke="black" points="170,-57.5 170,-76.5 277,-76.5 277,-57.5 170,-57.5"/>
<text text-anchor="middle" x="223.5" y="-64.5" font-family="Helvetica,sans-Serif" font-size="10.00">marian::Node::shape</text>
</a>
</g>
</g>
<!-- Node1&#45;&gt;Node2 -->
<g id="edge1" class="edge"><title>Node1&#45;&gt;Node2</title>
<path fill="none" stroke="midnightblue" d="M134.419,-56.168C142.791,-57.1977 151.338,-58.2486 159.653,-59.2712"/>
<polygon fill="midnightblue" stroke="midnightblue" points="159.302,-62.7543 169.654,-60.5011 160.156,-55.8066 159.302,-62.7543"/>
</g>
<!-- Node3 -->
<g id="node3" class="node"><title>Node3</title>
<g id="a_node3"><a xlink:href="../../d5/d54/structmarian_1_1Shape.html#a2849bb218aa2214bbab47256a9452caf" target="_top" xlink:title="marian::Shape::set">
<polygon fill="white" stroke="black" points="174,-19.5 174,-38.5 273,-38.5 273,-19.5 174,-19.5"/>
<text text-anchor="middle" x="223.5" y="-26.5" font-family="Helvetica,sans-Serif" font-size="10.00">marian::Shape::set</text>
</a>
</g>
</g>
<!-- Node1&#45;&gt;Node3 -->
<g id="edge2" class="edge"><title>Node1&#45;&gt;Node3</title>
<path fill="none" stroke="midnightblue" d="M134.419,-39.832C144.149,-38.6354 154.113,-37.4101 163.676,-36.234"/>
<polygon fill="midnightblue" stroke="midnightblue" points="164.369,-39.6752 173.867,-34.9808 163.515,-32.7276 164.369,-39.6752"/>
</g>
<!-- Node4 -->
<g id="node4" class="node"><title>Node4</title>
<g id="a_node4"><a xlink:href="../../d5/d54/structmarian_1_1Shape.html#af416da295388777386ae8b834115066f" target="_top" xlink:title="Gets a reference to the int representing the size of the ith dimension represented by this object...">
<polygon fill="white" stroke="black" points="335.5,-38.5 335.5,-57.5 436.5,-57.5 436.5,-38.5 335.5,-38.5"/>
<text text-anchor="middle" x="386" y="-45.5" font-family="Helvetica,sans-Serif" font-size="10.00">marian::Shape::dim</text>
</a>
</g>
</g>
<!-- Node3&#45;&gt;Node4 -->
<g id="edge3" class="edge"><title>Node3&#45;&gt;Node4</title>
<path fill="none" stroke="midnightblue" d="M273.091,-34.7522C289.596,-36.7061 308.229,-38.9119 325.488,-40.955"/>
<polygon fill="midnightblue" stroke="midnightblue" points="325.123,-44.4361 335.465,-42.136 325.946,-37.4846 325.123,-44.4361"/>
</g>
<!-- Node5 -->
<g id="node5" class="node"><title>Node5</title>
<g id="a_node5"><a xlink:href="../../d5/d54/structmarian_1_1Shape.html#a9cf031011a4b53538dda070a77ad19f9" target="_top" xlink:title="marian::Shape::updateStrides">
<polygon fill="white" stroke="black" points="313,-0.5 313,-19.5 459,-19.5 459,-0.5 313,-0.5"/>
<text text-anchor="middle" x="386" y="-7.5" font-family="Helvetica,sans-Serif" font-size="10.00">marian::Shape::updateStrides</text>
</a>
</g>
</g>
<!-- Node3&#45;&gt;Node5 -->
<g id="edge4" class="edge"><title>Node3&#45;&gt;Node5</title>
<path fill="none" stroke="midnightblue" d="M273.091,-23.2478C282.502,-22.1337 292.605,-20.9378 302.75,-19.7368"/>
<polygon fill="midnightblue" stroke="midnightblue" points="303.366,-23.1883 312.885,-18.5369 302.543,-16.2369 303.366,-23.1883"/>
</g>
</g>
</svg>
