<?xml version="1.0" encoding="UTF-8" standalone="no"?>
<!DOCTYPE svg PUBLIC "-//W3C//DTD SVG 1.1//EN"
 "http://www.w3.org/Graphics/SVG/1.1/DTD/svg11.dtd">
<!-- Generated by graphviz version 2.38.0 (20140413.2041)
 -->
<!-- Title: amunmt::BaseMatrix::dim Pages: 1 -->
<svg width="612pt" height="448pt"
 viewBox="0.00 0.00 612.00 448.00" xmlns="http://www.w3.org/2000/svg" xmlns:xlink="http://www.w3.org/1999/xlink">
<g id="graph0" class="graph" transform="scale(1 1) rotate(0) translate(4 444)">
<title>amunmt::BaseMatrix::dim</title>
<polygon fill="white" stroke="none" points="-4,4 -4,-444 608,-444 608,4 -4,4"/>
<!-- Node1 -->
<g id="node1" class="node"><title>Node1</title>
<polygon fill="#bfbfbf" stroke="black" points="0,-278 0,-297 129,-297 129,-278 0,-278"/>
<text text-anchor="middle" x="64.5" y="-285" font-family="Helvetica,sans-Serif" font-size="10.00">amunmt::BaseMatrix::dim</text>
</g>
<!-- Node2 -->
<g id="node2" class="node"><title>Node2</title>
<g id="a_node2"><a xlink:href="$d5/de7/classamunmt_1_1BaseMatrix.html#a52ccc5b9234726532fe0452a8aed5b1f" xlink:title="amunmt::BaseMatrix\l::size">
<polygon fill="white" stroke="black" points="165,-272.5 165,-302.5 272,-302.5 272,-272.5 165,-272.5"/>
<text text-anchor="start" x="173" y="-290.5" font-family="Helvetica,sans-Serif" font-size="10.00">amunmt::BaseMatrix</text>
<text text-anchor="middle" x="218.5" y="-279.5" font-family="Helvetica,sans-Serif" font-size="10.00">::size</text>
</a>
</g>
</g>
<!-- Node1&#45;&gt;Node2 -->
<g id="edge1" class="edge"><title>Node1&#45;&gt;Node2</title>
<path fill="none" stroke="midnightblue" d="M139.174,-287.5C147.811,-287.5 156.488,-287.5 164.758,-287.5"/>
<polygon fill="midnightblue" stroke="midnightblue" points="139.081,-284 129.081,-287.5 139.081,-291 139.081,-284"/>
</g>
<!-- Node3 -->
<g id="node3" class="node"><title>Node3</title>
<g id="a_node3"><a xlink:href="$d5/de7/classamunmt_1_1BaseMatrix.html#ae7601bd2c92e0102c263e143c36fb6cd" xlink:title="amunmt::BaseMatrix\l::Debug">
<polygon fill="white" stroke="black" points="310.5,-360.5 310.5,-390.5 417.5,-390.5 417.5,-360.5 310.5,-360.5"/>
<text text-anchor="start" x="318.5" y="-378.5" font-family="Helvetica,sans-Serif" font-size="10.00">amunmt::BaseMatrix</text>
<text text-anchor="middle" x="364" y="-367.5" font-family="Helvetica,sans-Serif" font-size="10.00">::Debug</text>
</a>
</g>
</g>
<!-- Node1&#45;&gt;Node3 -->
<g id="edge15" class="edge"><title>Node1&#45;&gt;Node3</title>
<path fill="none" stroke="midnightblue" d="M107.512,-299.927C161.31,-315.84 254.463,-343.395 312.191,-360.471"/>
<polygon fill="midnightblue" stroke="midnightblue" points="108.202,-296.481 97.6204,-297.001 106.217,-303.194 108.202,-296.481"/>
</g>
<!-- Node6 -->
<g id="node6" class="node"><title>Node6</title>
<g id="a_node6"><a xlink:href="$d5/de7/classamunmt_1_1BaseMatrix.html#afb3ba3f074a7464fbb991cb467c7e84d" xlink:title="amunmt::BaseMatrix\l::~BaseMatrix">
<polygon fill="white" stroke="black" points="310.5,-139.5 310.5,-169.5 417.5,-169.5 417.5,-139.5 310.5,-139.5"/>
<text text-anchor="start" x="318.5" y="-157.5" font-family="Helvetica,sans-Serif" font-size="10.00">amunmt::BaseMatrix</text>
<text text-anchor="middle" x="364" y="-146.5" font-family="Helvetica,sans-Serif" font-size="10.00">::~BaseMatrix</text>
</a>
</g>
</g>
<!-- Node1&#45;&gt;Node6 -->
<g id="edge16" class="edge"><title>Node1&#45;&gt;Node6</title>
<path fill="none" stroke="midnightblue" d="M96.2919,-273.734C152.341,-248.677 270.613,-195.802 328.968,-169.714"/>
<polygon fill="midnightblue" stroke="midnightblue" points="94.5962,-270.658 86.8955,-277.935 97.4532,-277.049 94.5962,-270.658"/>
</g>
<!-- Node2&#45;&gt;Node3 -->
<g id="edge2" class="edge"><title>Node2&#45;&gt;Node3</title>
<path fill="none" stroke="midnightblue" d="M249.758,-308.2C266.678,-319.554 288.273,-333.682 308,-345.5 316.397,-350.531 325.688,-355.732 334.206,-360.362"/>
<polygon fill="midnightblue" stroke="midnightblue" points="251.618,-305.233 241.371,-302.543 247.704,-311.036 251.618,-305.233"/>
</g>
<!-- Node4 -->
<g id="node4" class="node"><title>Node4</title>
<g id="a_node4"><a xlink:href="$d5/de7/classamunmt_1_1BaseMatrix.html#a340cbf16c47ba57d32cab301705f7776" xlink:title="amunmt::BaseMatrix\l::empty">
<polygon fill="white" stroke="black" points="476.5,-360.5 476.5,-390.5 583.5,-390.5 583.5,-360.5 476.5,-360.5"/>
<text text-anchor="start" x="484.5" y="-378.5" font-family="Helvetica,sans-Serif" font-size="10.00">amunmt::BaseMatrix</text>
<text text-anchor="middle" x="530" y="-367.5" font-family="Helvetica,sans-Serif" font-size="10.00">::empty</text>
</a>
</g>
</g>
<!-- Node2&#45;&gt;Node4 -->
<g id="edge6" class="edge"><title>Node2&#45;&gt;Node4</title>
<path fill="none" stroke="midnightblue" d="M281.644,-305.169C338.8,-321.421 422.617,-345.252 476.499,-360.572"/>
<polygon fill="midnightblue" stroke="midnightblue" points="282.578,-301.796 272.002,-302.428 280.664,-308.53 282.578,-301.796"/>
</g>
<!-- Node2&#45;&gt;Node6 -->
<g id="edge5" class="edge"><title>Node2&#45;&gt;Node6</title>
<path fill="none" stroke="midnightblue" d="M234.122,-263.918C249.904,-240.046 276.986,-203.345 308,-179.5 312.823,-175.792 318.283,-172.481 323.845,-169.577"/>
<polygon fill="midnightblue" stroke="midnightblue" points="231.137,-262.089 228.642,-272.386 237.014,-265.892 231.137,-262.089"/>
</g>
<!-- Node7 -->
<g id="node7" class="node"><title>Node7</title>
<g id="a_node7"><a xlink:href="$d1/d49/namespaceamunmt_1_1GPU_1_1mblas.html#afba17f6f1ebd7b942ed07d760259d143" xlink:title="amunmt::GPU::mblas\l::Broadcast">
<polygon fill="white" stroke="black" points="308,-272.5 308,-302.5 420,-302.5 420,-272.5 308,-272.5"/>
<text text-anchor="start" x="316" y="-290.5" font-family="Helvetica,sans-Serif" font-size="10.00">amunmt::GPU::mblas</text>
<text text-anchor="middle" x="364" y="-279.5" font-family="Helvetica,sans-Serif" font-size="10.00">::Broadcast</text>
</a>
</g>
</g>
<!-- Node2&#45;&gt;Node7 -->
<g id="edge7" class="edge"><title>Node2&#45;&gt;Node7</title>
<path fill="none" stroke="midnightblue" d="M282.397,-287.5C290.918,-287.5 299.609,-287.5 307.978,-287.5"/>
<polygon fill="midnightblue" stroke="midnightblue" points="282.119,-284 272.119,-287.5 282.119,-291 282.119,-284"/>
</g>
<!-- Node9 -->
<g id="node9" class="node"><title>Node9</title>
<g id="a_node9"><a xlink:href="$d1/d49/namespaceamunmt_1_1GPU_1_1mblas.html#adc0a1bee5e001b28e10bff88e940b284" xlink:title="amunmt::GPU::mblas\l::Element">
<polygon fill="white" stroke="black" points="308,-188.5 308,-218.5 420,-218.5 420,-188.5 308,-188.5"/>
<text text-anchor="start" x="316" y="-206.5" font-family="Helvetica,sans-Serif" font-size="10.00">amunmt::GPU::mblas</text>
<text text-anchor="middle" x="364" y="-195.5" font-family="Helvetica,sans-Serif" font-size="10.00">::Element</text>
</a>
</g>
</g>
<!-- Node2&#45;&gt;Node9 -->
<g id="edge9" class="edge"><title>Node2&#45;&gt;Node9</title>
<path fill="none" stroke="midnightblue" d="M253.802,-267.421C279.379,-252.449 313.779,-232.312 337.083,-218.671"/>
<polygon fill="midnightblue" stroke="midnightblue" points="252.017,-264.41 245.155,-272.482 255.553,-270.451 252.017,-264.41"/>
</g>
<!-- Node3&#45;&gt;Node4 -->
<g id="edge3" class="edge"><title>Node3&#45;&gt;Node4</title>
<path fill="none" stroke="midnightblue" d="M428.088,-375.5C444.016,-375.5 460.95,-375.5 476.306,-375.5"/>
<polygon fill="midnightblue" stroke="midnightblue" points="427.793,-372 417.793,-375.5 427.793,-379 427.793,-372"/>
</g>
<!-- Node5 -->
<g id="node5" class="node"><title>Node5</title>
<g id="a_node5"><a xlink:href="$da/ddf/classamunmt_1_1GPU_1_1mblas_1_1TMatrix.html#a2a1e6f455240cec3b8406cfef94128e5" xlink:title="amunmt::GPU::mblas\l::TMatrix\&lt; uint \&gt;::Debug">
<polygon fill="white" stroke="black" points="468,-409.5 468,-439.5 592,-439.5 592,-409.5 468,-409.5"/>
<text text-anchor="start" x="476" y="-427.5" font-family="Helvetica,sans-Serif" font-size="10.00">amunmt::GPU::mblas</text>
<text text-anchor="middle" x="530" y="-416.5" font-family="Helvetica,sans-Serif" font-size="10.00">::TMatrix&lt; uint &gt;::Debug</text>
</a>
</g>
</g>
<!-- Node3&#45;&gt;Node5 -->
<g id="edge4" class="edge"><title>Node3&#45;&gt;Node5</title>
<path fill="none" stroke="midnightblue" d="M425.134,-393.467C442.706,-398.717 461.723,-404.399 478.623,-409.448"/>
<polygon fill="midnightblue" stroke="midnightblue" points="426.127,-390.111 415.544,-390.601 424.123,-396.818 426.127,-390.111"/>
</g>
<!-- Node8 -->
<g id="node8" class="node"><title>Node8</title>
<g id="a_node8"><a xlink:href="$df/d32/classamunmt_1_1GPU_1_1Decoder_1_1Alignment.html#aca6a7ea06e3db456c9cf723cb62a975f" xlink:title="amunmt::GPU::Decoder\l::Alignment\&lt; amunmt::\lGPU::Weights::DecAlignment\l \&gt;::GetAlignedSourceContext">
<polygon fill="white" stroke="black" points="456,-289.5 456,-341.5 604,-341.5 604,-289.5 456,-289.5"/>
<text text-anchor="start" x="464" y="-329.5" font-family="Helvetica,sans-Serif" font-size="10.00">amunmt::GPU::Decoder</text>
<text text-anchor="start" x="464" y="-318.5" font-family="Helvetica,sans-Serif" font-size="10.00">::Alignment&lt; amunmt::</text>
<text text-anchor="start" x="464" y="-307.5" font-family="Helvetica,sans-Serif" font-size="10.00">GPU::Weights::DecAlignment</text>
<text text-anchor="middle" x="530" y="-296.5" font-family="Helvetica,sans-Serif" font-size="10.00"> &gt;::GetAlignedSourceContext</text>
</a>
</g>
</g>
<!-- Node7&#45;&gt;Node8 -->
<g id="edge8" class="edge"><title>Node7&#45;&gt;Node8</title>
<path fill="none" stroke="midnightblue" d="M430.164,-298.626C438.563,-300.06 447.208,-301.536 455.727,-302.99"/>
<polygon fill="midnightblue" stroke="midnightblue" points="430.512,-295.134 420.066,-296.901 429.334,-302.035 430.512,-295.134"/>
</g>
<!-- Node10 -->
<g id="node10" class="node"><title>Node10</title>
<g id="a_node10"><a xlink:href="$d1/de3/classamunmt_1_1GPU_1_1Decoder_1_1RNNHidden.html#a4e603e53eb86acbacce1a348e2be20f4" xlink:title="amunmt::GPU::Decoder\l::RNNHidden\&lt; amunmt::\lGPU::Weights::DecInit\l \&gt;::InitializeState">
<polygon fill="white" stroke="black" points="467,-218.5 467,-270.5 593,-270.5 593,-218.5 467,-218.5"/>
<text text-anchor="start" x="475" y="-258.5" font-family="Helvetica,sans-Serif" font-size="10.00">amunmt::GPU::Decoder</text>
<text text-anchor="start" x="475" y="-247.5" font-family="Helvetica,sans-Serif" font-size="10.00">::RNNHidden&lt; amunmt::</text>
<text text-anchor="start" x="475" y="-236.5" font-family="Helvetica,sans-Serif" font-size="10.00">GPU::Weights::DecInit</text>
<text text-anchor="middle" x="530" y="-225.5" font-family="Helvetica,sans-Serif" font-size="10.00"> &gt;::InitializeState</text>
</a>
</g>
</g>
<!-- Node9&#45;&gt;Node10 -->
<g id="edge10" class="edge"><title>Node9&#45;&gt;Node10</title>
<path fill="none" stroke="midnightblue" d="M430.067,-219.767C442.146,-222.786 454.737,-225.934 466.729,-228.932"/>
<polygon fill="midnightblue" stroke="midnightblue" points="430.616,-216.296 420.066,-217.266 428.918,-223.087 430.616,-216.296"/>
</g>
<!-- Node11 -->
<g id="node11" class="node"><title>Node11</title>
<g id="a_node11"><a xlink:href="$d2/d4d/classamunmt_1_1GPU_1_1Decoder_1_1Softmax.html#ae19befc1a70b3a1762ac0e4dcfb67714" xlink:title="amunmt::GPU::Decoder\l::Softmax\&lt; amunmt::GPU\l::Weights::DecSoftmax \&gt;\l::GetProbs">
<polygon fill="white" stroke="black" points="464.5,-147.5 464.5,-199.5 595.5,-199.5 595.5,-147.5 464.5,-147.5"/>
<text text-anchor="start" x="472.5" y="-187.5" font-family="Helvetica,sans-Serif" font-size="10.00">amunmt::GPU::Decoder</text>
<text text-anchor="start" x="472.5" y="-176.5" font-family="Helvetica,sans-Serif" font-size="10.00">::Softmax&lt; amunmt::GPU</text>
<text text-anchor="start" x="472.5" y="-165.5" font-family="Helvetica,sans-Serif" font-size="10.00">::Weights::DecSoftmax &gt;</text>
<text text-anchor="middle" x="530" y="-154.5" font-family="Helvetica,sans-Serif" font-size="10.00">::GetProbs</text>
</a>
</g>
</g>
<!-- Node9&#45;&gt;Node11 -->
<g id="edge11" class="edge"><title>Node9&#45;&gt;Node11</title>
<path fill="none" stroke="midnightblue" d="M429.907,-191.627C441.267,-189.549 453.084,-187.387 464.434,-185.311"/>
<polygon fill="midnightblue" stroke="midnightblue" points="429.273,-188.185 420.066,-193.427 430.532,-195.07 429.273,-188.185"/>
</g>
<!-- Node12 -->
<g id="node12" class="node"><title>Node12</title>
<g id="a_node12"><a xlink:href="$d8/dc9/classamunmt_1_1GPU_1_1SlowGRU.html#a56abd7ee93ad637ca54113fbc1427e01" xlink:title="amunmt::GPU::SlowGRU\l::GetNextState">
<polygon fill="white" stroke="black" points="465,-98.5 465,-128.5 595,-128.5 595,-98.5 465,-98.5"/>
<text text-anchor="start" x="473" y="-116.5" font-family="Helvetica,sans-Serif" font-size="10.00">amunmt::GPU::SlowGRU</text>
<text text-anchor="middle" x="530" y="-105.5" font-family="Helvetica,sans-Serif" font-size="10.00">::GetNextState</text>
</a>
</g>
</g>
<!-- Node9&#45;&gt;Node12 -->
<g id="edge12" class="edge"><title>Node9&#45;&gt;Node12</title>
<path fill="none" stroke="midnightblue" d="M414.229,-183.379C416.221,-182.141 418.154,-180.848 420,-179.5 439.582,-165.197 435.851,-151.994 456,-138.5 461.677,-134.698 467.989,-131.419 474.458,-128.605"/>
<polygon fill="midnightblue" stroke="midnightblue" points="412.208,-180.5 405.205,-188.451 415.638,-186.603 412.208,-180.5"/>
</g>
<!-- Node13 -->
<g id="node13" class="node"><title>Node13</title>
<g id="a_node13"><a xlink:href="$df/de1/classamunmt_1_1GPU_1_1SlowLSTM.html#a445547f2b64a36f61c0a62dc682364f3" xlink:title="amunmt::GPU::SlowLSTM\l::GetNextState">
<polygon fill="white" stroke="black" points="463,-49.5 463,-79.5 597,-79.5 597,-49.5 463,-49.5"/>
<text text-anchor="start" x="471" y="-67.5" font-family="Helvetica,sans-Serif" font-size="10.00">amunmt::GPU::SlowLSTM</text>
<text text-anchor="middle" x="530" y="-56.5" font-family="Helvetica,sans-Serif" font-size="10.00">::GetNextState</text>
</a>
</g>
</g>
<!-- Node9&#45;&gt;Node13 -->
<g id="edge13" class="edge"><title>Node9&#45;&gt;Node13</title>
<path fill="none" stroke="midnightblue" d="M417.127,-182.241C418.124,-181.362 419.084,-180.448 420,-179.5 450.216,-148.215 424.35,-118.333 456,-88.5 459.689,-85.0227 463.891,-82.0489 468.373,-79.5058"/>
<polygon fill="midnightblue" stroke="midnightblue" points="414.832,-179.584 408.861,-188.336 418.987,-185.218 414.832,-179.584"/>
</g>
<!-- Node14 -->
<g id="node14" class="node"><title>Node14</title>
<g id="a_node14"><a xlink:href="$d2/dad/classamunmt_1_1GPU_1_1Multiplicative.html#a1f485aad0d4da73469d58f61fc121341" xlink:title="amunmt::GPU::Multiplicative\l::GetNextState">
<polygon fill="white" stroke="black" points="458.5,-0.5 458.5,-30.5 601.5,-30.5 601.5,-0.5 458.5,-0.5"/>
<text text-anchor="start" x="466.5" y="-18.5" font-family="Helvetica,sans-Serif" font-size="10.00">amunmt::GPU::Multiplicative</text>
<text text-anchor="middle" x="530" y="-7.5" font-family="Helvetica,sans-Serif" font-size="10.00">::GetNextState</text>
</a>
</g>
</g>
<!-- Node9&#45;&gt;Node14 -->
<g id="edge14" class="edge"><title>Node9&#45;&gt;Node14</title>
<path fill="none" stroke="midnightblue" d="M417.718,-181.971C418.512,-181.176 419.274,-180.353 420,-179.5 461.659,-130.591 412.093,-86.402 456,-39.5 459.191,-36.0912 462.874,-33.1659 466.855,-30.6556"/>
<polygon fill="midnightblue" stroke="midnightblue" points="415.381,-179.36 409.833,-188.387 419.799,-184.79 415.381,-179.36"/>
</g>
</g>
</svg>
