<?xml version="1.0" encoding="UTF-8" standalone="no"?>
<!DOCTYPE svg PUBLIC "-//W3C//DTD SVG 1.1//EN"
 "http://www.w3.org/Graphics/SVG/1.1/DTD/svg11.dtd">
<!-- Generated by graphviz version 2.38.0 (20140413.2041)
 -->
<!-- Title: marian::rnn::GRU::apply Pages: 1 -->
<svg width="559pt" height="256pt"
 viewBox="0.00 0.00 559.00 256.00" xmlns="http://www.w3.org/2000/svg" xmlns:xlink="http://www.w3.org/1999/xlink">
<g id="graph0" class="graph" transform="scale(1 1) rotate(0) translate(4 252)">
<title>marian::rnn::GRU::apply</title>
<polygon fill="white" stroke="none" points="-4,4 -4,-252 555,-252 555,4 -4,4"/>
<!-- Node1 -->
<g id="node1" class="node"><title>Node1</title>
<polygon fill="#bfbfbf" stroke="black" points="0,-100.5 0,-119.5 123,-119.5 123,-100.5 0,-100.5"/>
<text text-anchor="middle" x="61.5" y="-107.5" font-family="Helvetica,sans-Serif" font-size="10.00">marian::rnn::GRU::apply</text>
</g>
<!-- Node2 -->
<g id="node2" class="node"><title>Node2</title>
<g id="a_node2"><a xlink:href="$d0/d1d/classmarian_1_1rnn_1_1Tanh.html#a241e6bcc6cb37c94c8965dea5a5e2e91" xlink:title="marian::rnn::Tanh::\lapplyState">
<polygon fill="white" stroke="black" points="159,-71 159,-101 258,-101 258,-71 159,-71"/>
<text text-anchor="start" x="167" y="-89" font-family="Helvetica,sans-Serif" font-size="10.00">marian::rnn::Tanh::</text>
<text text-anchor="middle" x="208.5" y="-78" font-family="Helvetica,sans-Serif" font-size="10.00">applyState</text>
</a>
</g>
</g>
<!-- Node1&#45;&gt;Node2 -->
<g id="edge1" class="edge"><title>Node1&#45;&gt;Node2</title>
<path fill="none" stroke="midnightblue" d="M120.224,-100.446C129.62,-98.8905 139.362,-97.2781 148.781,-95.719"/>
<polygon fill="midnightblue" stroke="midnightblue" points="149.549,-99.1395 158.844,-94.0535 148.406,-92.2335 149.549,-99.1395"/>
</g>
<!-- Node13 -->
<g id="node13" class="node"><title>Node13</title>
<g id="a_node13"><a xlink:href="$d0/d1d/classmarian_1_1rnn_1_1Tanh.html#a27567fac50eea00c776cc76d6f9351df" xlink:title="marian::rnn::Tanh::\lapplyInput">
<polygon fill="white" stroke="black" points="159,-120 159,-150 258,-150 258,-120 159,-120"/>
<text text-anchor="start" x="167" y="-138" font-family="Helvetica,sans-Serif" font-size="10.00">marian::rnn::Tanh::</text>
<text text-anchor="middle" x="208.5" y="-127" font-family="Helvetica,sans-Serif" font-size="10.00">applyInput</text>
</a>
</g>
</g>
<!-- Node1&#45;&gt;Node13 -->
<g id="edge12" class="edge"><title>Node1&#45;&gt;Node13</title>
<path fill="none" stroke="midnightblue" d="M117.732,-119.523C127.816,-121.261 138.374,-123.082 148.561,-124.838"/>
<polygon fill="midnightblue" stroke="midnightblue" points="148.144,-128.318 158.593,-126.568 149.333,-121.419 148.144,-128.318"/>
</g>
<!-- Node3 -->
<g id="node3" class="node"><title>Node3</title>
<g id="a_node3"><a xlink:href="$da/d22/namespacemarian.html#a268400392f22176821c7c4a36733b178" xlink:title="marian::dropout">
<polygon fill="white" stroke="black" points="304.5,-152.5 304.5,-171.5 388.5,-171.5 388.5,-152.5 304.5,-152.5"/>
<text text-anchor="middle" x="346.5" y="-159.5" font-family="Helvetica,sans-Serif" font-size="10.00">marian::dropout</text>
</a>
</g>
</g>
<!-- Node2&#45;&gt;Node3 -->
<g id="edge2" class="edge"><title>Node2&#45;&gt;Node3</title>
<path fill="none" stroke="midnightblue" d="M241.472,-101.027C247.124,-104.088 252.844,-107.463 258,-111 275.653,-123.11 275.639,-131.993 294,-143 297.353,-145.01 300.953,-146.863 304.635,-148.559"/>
<polygon fill="midnightblue" stroke="midnightblue" points="303.29,-151.79 313.864,-152.448 306.008,-145.339 303.29,-151.79"/>
</g>
<!-- Node9 -->
<g id="node9" class="node"><title>Node9</title>
<g id="a_node9"><a xlink:href="$da/d22/namespacemarian.html#ad7fbf1ba8e2e04ffdc7d5e4841b5e691" xlink:title="marian::dot">
<polygon fill="white" stroke="black" points="314,-114.5 314,-133.5 379,-133.5 379,-114.5 314,-114.5"/>
<text text-anchor="middle" x="346.5" y="-121.5" font-family="Helvetica,sans-Serif" font-size="10.00">marian::dot</text>
</a>
</g>
</g>
<!-- Node2&#45;&gt;Node9 -->
<g id="edge8" class="edge"><title>Node2&#45;&gt;Node9</title>
<path fill="none" stroke="midnightblue" d="M258.215,-99.6115C273.201,-103.799 289.55,-108.367 304.005,-112.406"/>
<polygon fill="midnightblue" stroke="midnightblue" points="303.096,-115.786 313.669,-115.106 304.98,-109.044 303.096,-115.786"/>
</g>
<!-- Node10 -->
<g id="node10" class="node"><title>Node10</title>
<g id="a_node10"><a xlink:href="$da/d22/namespacemarian.html#a6202278a9da8ca8a281a6a96e75082f6" xlink:title="marian::layer_norm">
<polygon fill="white" stroke="black" points="296.5,-76.5 296.5,-95.5 396.5,-95.5 396.5,-76.5 296.5,-76.5"/>
<text text-anchor="middle" x="346.5" y="-83.5" font-family="Helvetica,sans-Serif" font-size="10.00">marian::layer_norm</text>
</a>
</g>
</g>
<!-- Node2&#45;&gt;Node10 -->
<g id="edge9" class="edge"><title>Node2&#45;&gt;Node10</title>
<path fill="none" stroke="midnightblue" d="M258.215,-86C267.283,-86 276.849,-86 286.193,-86"/>
<polygon fill="midnightblue" stroke="midnightblue" points="286.21,-89.5001 296.21,-86 286.21,-82.5001 286.21,-89.5001"/>
</g>
<!-- Node11 -->
<g id="node11" class="node"><title>Node11</title>
<g id="a_node11"><a xlink:href="$da/d22/namespacemarian.html#ab84fcdb2b1fa95f89e3921aea4027957" xlink:title="marian::tanh">
<polygon fill="white" stroke="black" points="311,-38.5 311,-57.5 382,-57.5 382,-38.5 311,-38.5"/>
<text text-anchor="middle" x="346.5" y="-45.5" font-family="Helvetica,sans-Serif" font-size="10.00">marian::tanh</text>
</a>
</g>
</g>
<!-- Node2&#45;&gt;Node11 -->
<g id="edge10" class="edge"><title>Node2&#45;&gt;Node11</title>
<path fill="none" stroke="midnightblue" d="M258.215,-72.3885C272.321,-68.447 287.635,-64.1682 301.439,-60.3111"/>
<polygon fill="midnightblue" stroke="midnightblue" points="302.496,-63.6499 311.186,-57.5879 300.613,-56.9081 302.496,-63.6499"/>
</g>
<!-- Node12 -->
<g id="node12" class="node"><title>Node12</title>
<g id="a_node12"><a xlink:href="$dd/d18/namespacemarian_1_1rnn.html#aebb005fe050e8538752175401598a47a" xlink:title="marian::rnn::gruOps">
<polygon fill="white" stroke="black" points="295,-0.5 295,-19.5 398,-19.5 398,-0.5 295,-0.5"/>
<text text-anchor="middle" x="346.5" y="-7.5" font-family="Helvetica,sans-Serif" font-size="10.00">marian::rnn::gruOps</text>
</a>
</g>
</g>
<!-- Node2&#45;&gt;Node12 -->
<g id="edge11" class="edge"><title>Node2&#45;&gt;Node12</title>
<path fill="none" stroke="midnightblue" d="M229.147,-70.7514C245.758,-58.359 270.534,-41.022 294,-29 297.972,-26.9652 302.214,-25.0391 306.494,-23.2499"/>
<polygon fill="midnightblue" stroke="midnightblue" points="307.819,-26.4898 315.836,-19.5631 305.249,-19.9785 307.819,-26.4898"/>
</g>
<!-- Node4 -->
<g id="node4" class="node"><title>Node4</title>
<g id="a_node4"><a xlink:href="$d4/d04/namespacemarian_1_1keywords.html#a74d7a2502faafdd421ef3dff629e284f" xlink:title="marian::keywords::Get">
<polygon fill="white" stroke="black" points="435,-228.5 435,-247.5 551,-247.5 551,-228.5 435,-228.5"/>
<text text-anchor="middle" x="493" y="-235.5" font-family="Helvetica,sans-Serif" font-size="10.00">marian::keywords::Get</text>
</a>
</g>
</g>
<!-- Node3&#45;&gt;Node4 -->
<g id="edge3" class="edge"><title>Node3&#45;&gt;Node4</title>
<path fill="none" stroke="midnightblue" d="M380.463,-171.591C386.874,-174.155 393.351,-177.275 399,-181 418.422,-193.806 415.377,-206.503 435,-219 438.178,-221.024 441.595,-222.855 445.119,-224.508"/>
<polygon fill="midnightblue" stroke="midnightblue" points="444.032,-227.847 454.608,-228.474 446.732,-221.389 444.032,-227.847"/>
</g>
<!-- Node5 -->
<g id="node5" class="node"><title>Node5</title>
<g id="a_node5"><a xlink:href="$da/d22/namespacemarian.html#a763e5e9b5d5a329d2420fe9bab95476d" xlink:title="marian::shift">
<polygon fill="white" stroke="black" points="457.5,-190.5 457.5,-209.5 528.5,-209.5 528.5,-190.5 457.5,-190.5"/>
<text text-anchor="middle" x="493" y="-197.5" font-family="Helvetica,sans-Serif" font-size="10.00">marian::shift</text>
</a>
</g>
</g>
<!-- Node3&#45;&gt;Node5 -->
<g id="edge4" class="edge"><title>Node3&#45;&gt;Node5</title>
<path fill="none" stroke="midnightblue" d="M383.963,-171.589C403.219,-176.653 427.012,-182.91 447.364,-188.262"/>
<polygon fill="midnightblue" stroke="midnightblue" points="446.482,-191.649 457.044,-190.807 448.263,-184.879 446.482,-191.649"/>
</g>
<!-- Node6 -->
<g id="node6" class="node"><title>Node6</title>
<g id="a_node6"><a xlink:href="$da/d22/namespacemarian.html#a3dbe8b5eb203876cd08cf3fe75a1c6bc" xlink:title="marian::convolution">
<polygon fill="white" stroke="black" points="442.5,-152.5 442.5,-171.5 543.5,-171.5 543.5,-152.5 442.5,-152.5"/>
<text text-anchor="middle" x="493" y="-159.5" font-family="Helvetica,sans-Serif" font-size="10.00">marian::convolution</text>
</a>
</g>
</g>
<!-- Node3&#45;&gt;Node6 -->
<g id="edge5" class="edge"><title>Node3&#45;&gt;Node6</title>
<path fill="none" stroke="midnightblue" d="M388.521,-162C402.148,-162 417.61,-162 432.349,-162"/>
<polygon fill="midnightblue" stroke="midnightblue" points="432.407,-165.5 442.407,-162 432.407,-158.5 432.407,-165.5"/>
</g>
<!-- Node7 -->
<g id="node7" class="node"><title>Node7</title>
<g id="a_node7"><a xlink:href="$da/d22/namespacemarian.html#a8ee119d3ee4867a3c826de62ea1de4f5" xlink:title="marian::avg_pooling">
<polygon fill="white" stroke="black" points="441,-114.5 441,-133.5 545,-133.5 545,-114.5 441,-114.5"/>
<text text-anchor="middle" x="493" y="-121.5" font-family="Helvetica,sans-Serif" font-size="10.00">marian::avg_pooling</text>
</a>
</g>
</g>
<!-- Node3&#45;&gt;Node7 -->
<g id="edge6" class="edge"><title>Node3&#45;&gt;Node7</title>
<path fill="none" stroke="midnightblue" d="M383.963,-152.411C402.774,-147.464 425.915,-141.379 445.947,-136.111"/>
<polygon fill="midnightblue" stroke="midnightblue" points="447.018,-139.448 455.799,-133.52 445.237,-132.678 447.018,-139.448"/>
</g>
<!-- Node8 -->
<g id="node8" class="node"><title>Node8</title>
<g id="a_node8"><a xlink:href="$da/d22/namespacemarian.html#abfe3b8c37f479da0a31a1e843d8bdedf" xlink:title="marian::max_pooling">
<polygon fill="white" stroke="black" points="439.5,-76.5 439.5,-95.5 546.5,-95.5 546.5,-76.5 439.5,-76.5"/>
<text text-anchor="middle" x="493" y="-83.5" font-family="Helvetica,sans-Serif" font-size="10.00">marian::max_pooling</text>
</a>
</g>
</g>
<!-- Node3&#45;&gt;Node8 -->
<g id="edge7" class="edge"><title>Node3&#45;&gt;Node8</title>
<path fill="none" stroke="midnightblue" d="M380.463,-152.409C386.874,-149.845 393.351,-146.725 399,-143 418.422,-130.194 415.377,-117.497 435,-105 438.178,-102.976 441.595,-101.145 445.119,-99.4921"/>
<polygon fill="midnightblue" stroke="midnightblue" points="446.732,-102.611 454.608,-95.5257 444.032,-96.1528 446.732,-102.611"/>
</g>
<!-- Node13&#45;&gt;Node3 -->
<g id="edge14" class="edge"><title>Node13&#45;&gt;Node3</title>
<path fill="none" stroke="midnightblue" d="M258.215,-144.671C269.887,-146.989 282.386,-149.47 294.172,-151.81"/>
<polygon fill="midnightblue" stroke="midnightblue" points="293.818,-155.308 304.308,-153.822 295.181,-148.442 293.818,-155.308"/>
</g>
<!-- Node13&#45;&gt;Node9 -->
<g id="edge15" class="edge"><title>Node13&#45;&gt;Node9</title>
<path fill="none" stroke="midnightblue" d="M258.215,-131.06C273.057,-129.859 289.236,-128.551 303.587,-127.39"/>
<polygon fill="midnightblue" stroke="midnightblue" points="303.984,-130.869 313.669,-126.575 303.419,-123.892 303.984,-130.869"/>
</g>
<!-- Node13&#45;&gt;Node10 -->
<g id="edge16" class="edge"><title>Node13&#45;&gt;Node10</title>
<path fill="none" stroke="midnightblue" d="M251.414,-119.899C269.984,-113.208 291.614,-105.415 309.449,-98.989"/>
<polygon fill="midnightblue" stroke="midnightblue" points="310.702,-102.258 318.923,-95.5754 308.329,-95.6723 310.702,-102.258"/>
</g>
<!-- Node14 -->
<g id="node14" class="node"><title>Node14</title>
<g id="a_node14"><a xlink:href="$da/d22/namespacemarian.html#a2791a2c8f79a938f5cb22ae613680675" xlink:title="marian::concatenate">
<polygon fill="white" stroke="black" points="294,-190.5 294,-209.5 399,-209.5 399,-190.5 294,-190.5"/>
<text text-anchor="middle" x="346.5" y="-197.5" font-family="Helvetica,sans-Serif" font-size="10.00">marian::concatenate</text>
</a>
</g>
</g>
<!-- Node13&#45;&gt;Node14 -->
<g id="edge13" class="edge"><title>Node13&#45;&gt;Node14</title>
<path fill="none" stroke="midnightblue" d="M234.895,-150.083C251.422,-159.582 273.618,-171.751 294,-181 298.431,-183.011 303.144,-184.975 307.849,-186.832"/>
<polygon fill="midnightblue" stroke="midnightblue" points="306.814,-190.183 317.405,-190.472 309.306,-183.642 306.814,-190.183"/>
</g>
</g>
</svg>
