<?xml version="1.0" encoding="UTF-8" standalone="no"?>
<!DOCTYPE svg PUBLIC "-//W3C//DTD SVG 1.1//EN"
 "http://www.w3.org/Graphics/SVG/1.1/DTD/svg11.dtd">
<!-- Generated by graphviz version 2.38.0 (20140413.2041)
 -->
<!-- Title: encoder_decoder.h Pages: 1 -->
<svg width="138pt" height="84pt"
 viewBox="0.00 0.00 137.50 84.00" xmlns="http://www.w3.org/2000/svg" xmlns:xlink="http://www.w3.org/1999/xlink">
<g id="graph0" class="graph" transform="scale(1 1) rotate(0) translate(4 80)">
<title>encoder_decoder.h</title>
<polygon fill="white" stroke="none" points="-4,4 -4,-80 133.5,-80 133.5,4 -4,4"/>
<!-- Node1 -->
<g id="node1" class="node"><title>Node1</title>
<polygon fill="#bfbfbf" stroke="black" points="22.5,-56.5 22.5,-75.5 121.5,-75.5 121.5,-56.5 22.5,-56.5"/>
<text text-anchor="middle" x="72" y="-63.5" font-family="Helvetica,sans-Serif" font-size="10.00">encoder_decoder.h</text>
</g>
<!-- Node2 -->
<g id="node2" class="node"><title>Node2</title>
<g id="a_node2"><a xlink:href="../../d0/d90/best__hyps_8h.html" target="_top" xlink:title="best_hyps.h">
<polygon fill="white" stroke="black" points="0,-0.5 0,-19.5 70,-19.5 70,-0.5 0,-0.5"/>
<text text-anchor="middle" x="35" y="-7.5" font-family="Helvetica,sans-Serif" font-size="10.00">best_hyps.h</text>
</a>
</g>
</g>
<!-- Node1&#45;&gt;Node2 -->
<g id="edge1" class="edge"><title>Node1&#45;&gt;Node2</title>
<path fill="none" stroke="midnightblue" d="M60.0542,-47.5656C53.6883,-38.2747 46.1332,-27.2484 40.9961,-19.7511"/>
<polygon fill="midnightblue" stroke="midnightblue" points="57.3506,-49.812 65.8902,-56.083 63.1251,-45.8553 57.3506,-49.812"/>
</g>
<!-- Node3 -->
<g id="node3" class="node"><title>Node3</title>
<g id="a_node3"><a xlink:href="../../da/d6d/nmt_8h.html" target="_top" xlink:title="nmt.h">
<polygon fill="white" stroke="black" points="88.5,-0.5 88.5,-19.5 129.5,-19.5 129.5,-0.5 88.5,-0.5"/>
<text text-anchor="middle" x="109" y="-7.5" font-family="Helvetica,sans-Serif" font-size="10.00">nmt.h</text>
</a>
</g>
</g>
<!-- Node1&#45;&gt;Node3 -->
<g id="edge2" class="edge"><title>Node1&#45;&gt;Node3</title>
<path fill="none" stroke="midnightblue" d="M83.9458,-47.5656C90.3117,-38.2747 97.8668,-27.2484 103.004,-19.7511"/>
<polygon fill="midnightblue" stroke="midnightblue" points="80.8749,-45.8553 78.1098,-56.083 86.6494,-49.812 80.8749,-45.8553"/>
</g>
</g>
</svg>
